%TF.GenerationSoftware,KiCad,Pcbnew,(6.0.0)*%
%TF.CreationDate,2022-07-10T02:32:02-04:00*%
%TF.ProjectId,EyesOfTomorrow,45796573-4f66-4546-9f6d-6f72726f772e,rev?*%
%TF.SameCoordinates,Original*%
%TF.FileFunction,Legend,Top*%
%TF.FilePolarity,Positive*%
%FSLAX46Y46*%
G04 Gerber Fmt 4.6, Leading zero omitted, Abs format (unit mm)*
G04 Created by KiCad (PCBNEW (6.0.0)) date 2022-07-10 02:32:02*
%MOMM*%
%LPD*%
G01*
G04 APERTURE LIST*
%ADD10C,0.150000*%
%ADD11C,0.120000*%
G04 APERTURE END LIST*
D10*
X122555000Y-90805000D02*
X121412000Y-91948000D01*
X127793750Y-92868750D02*
X128587500Y-92868750D01*
X125412500Y-92868750D02*
X126206250Y-92868750D01*
X125222000Y-90805000D02*
X122555000Y-90805000D01*
X127000000Y-93662500D02*
X127793750Y-92868750D01*
X121412000Y-91948000D02*
X121412000Y-91567000D01*
X126206250Y-92868750D02*
X127000000Y-93662500D01*
X128587500Y-92868750D02*
G75*
G03*
X128587500Y-92868750I-1587500J0D01*
G01*
X125580097Y-89609952D02*
G75*
G03*
X125412500Y-88900000I1419903J709952D01*
G01*
X125095000Y-88519000D02*
X125412500Y-88900000D01*
X125412500Y-88900000D02*
X125730000Y-88519000D01*
X121412000Y-91948000D02*
X121793000Y-91948000D01*
X123832952Y-88969380D02*
X123261523Y-88969380D01*
X123547238Y-88969380D02*
X123547238Y-87969380D01*
X123452000Y-88112238D01*
X123356761Y-88207476D01*
X123261523Y-88255095D01*
X124166285Y-88969380D02*
X124690095Y-88302714D01*
X124166285Y-88302714D02*
X124690095Y-88969380D01*
X123261523Y-92894619D02*
X123309142Y-92847000D01*
X123404380Y-92799380D01*
X123642476Y-92799380D01*
X123737714Y-92847000D01*
X123785333Y-92894619D01*
X123832952Y-92989857D01*
X123832952Y-93085095D01*
X123785333Y-93227952D01*
X123213904Y-93799380D01*
X123832952Y-93799380D01*
X124166285Y-93799380D02*
X124690095Y-93132714D01*
X124166285Y-93132714D02*
X124690095Y-93799380D01*
D11*
%TO.C,J0*%
X120712500Y-68030489D02*
X120712500Y-66130489D01*
X120712500Y-71930489D02*
X120712500Y-69930489D01*
X130112500Y-68030489D02*
X130112500Y-66130489D01*
X130112500Y-66130489D02*
X120712500Y-66130489D01*
X130112500Y-71930489D02*
X130112500Y-69930489D01*
%TO.C,U2*%
X112579761Y-70479500D02*
X115579761Y-70479500D01*
X109579761Y-75699500D02*
X115579761Y-75699500D01*
%TO.C,Y0*%
X111271761Y-94995500D02*
X114571761Y-94995500D01*
X111271761Y-92195500D02*
X111271761Y-94995500D01*
%TO.C,U1*%
X123340300Y-81358889D02*
X123340300Y-82008889D01*
X120220300Y-81358889D02*
X120220300Y-83033889D01*
X123340300Y-81358889D02*
X123340300Y-80708889D01*
X120220300Y-81358889D02*
X120220300Y-80708889D01*
%TO.C,S1*%
X120699800Y-91945000D02*
X117399800Y-91945000D01*
X117399800Y-91945000D02*
X117399800Y-92245000D01*
X120699800Y-94445000D02*
X120699800Y-94745000D01*
X117399800Y-94745000D02*
X117399800Y-94445000D01*
X120699800Y-94745000D02*
X117399800Y-94745000D01*
X120699800Y-92245000D02*
X120699800Y-91945000D01*
%TO.C,J4*%
X109076250Y-68773750D02*
X109076250Y-66113750D01*
X109076250Y-66113750D02*
X114216250Y-66113750D01*
X109076250Y-68773750D02*
X114216250Y-68773750D01*
X106476250Y-66113750D02*
X107806250Y-66113750D01*
X106476250Y-67443750D02*
X106476250Y-66113750D01*
X114216250Y-68773750D02*
X114216250Y-66113750D01*
%TO.C,U3*%
X123852500Y-77701289D02*
X123852500Y-79501289D01*
X123852500Y-77701289D02*
X123852500Y-76901289D01*
X126972500Y-77701289D02*
X126972500Y-78501289D01*
X126972500Y-77701289D02*
X126972500Y-76901289D01*
%TO.C,F0*%
X120305100Y-76674910D02*
X120305100Y-77000468D01*
X121325100Y-76674910D02*
X121325100Y-77000468D01*
%TO.C,U0*%
X110533261Y-81540000D02*
X109883261Y-81540000D01*
X116453261Y-81540000D02*
X117103261Y-81540000D01*
X110533261Y-88760000D02*
X109883261Y-88760000D01*
X117103261Y-88760000D02*
X117103261Y-88110000D01*
X116453261Y-88760000D02*
X117103261Y-88760000D01*
X117103261Y-81540000D02*
X117103261Y-82190000D01*
X109883261Y-88760000D02*
X109883261Y-88110000D01*
%TD*%
M02*
