M48
; DRILL file {KiCad (6.0.0)} date Sun Jul 10 02:32:02 2022
; FORMAT={-:-/ absolute / inch / decimal}
; #@! TF.CreationDate,2022-07-10T02:32:02-04:00
; #@! TF.GenerationSoftware,Kicad,Pcbnew,(6.0.0)
; #@! TF.FileFunction,Plated,1,2,PTH
FMAT,2
INCH
; #@! TA.AperFunction,Plated,PTH,ViaDrill
T1C0.0118
; #@! TA.AperFunction,Plated,PTH,ComponentDrill
T2C0.0118
; #@! TA.AperFunction,Plated,PTH,ComponentDrill
T3C0.0236
; #@! TA.AperFunction,Plated,PTH,ComponentDrill
T4C0.0394
%
G90
G05
T1
X4.155Y-2.82
X4.155Y-2.92
X4.155Y-3.02
X4.16Y-3.675
X4.165Y-3.425
X4.2Y-2.74
X4.268Y-3.177
X4.2812Y-3.6562
X4.3357Y-2.9999
X4.338Y-3.581
X4.3661Y-3.3901
X4.3675Y-3.254
X4.372Y-3.581
X4.404Y-3.583
X4.44Y-3.0485
X4.4683Y-3.4516
X4.4857Y-3.2569
X4.5407Y-2.6793
X4.542Y-3.323
X4.5707Y-3.2499
X4.5716Y-3.3917
X4.5938Y-3.5938
X4.618Y-3.194
X4.653Y-3.0361
X4.653Y-3.0676
X4.672Y-3.2579
X4.6784Y-3.092
X4.687Y-3.675
X4.6875Y-2.9375
X4.702Y-3.116
X4.712Y-3.581
X4.714Y-3.24
X4.7256Y-3.0912
X4.753Y-3.165
X4.76Y-3.41
X4.8125Y-3.0
X4.839Y-3.183
X4.852Y-3.108
X4.88Y-3.74
X4.918Y-3.238
X4.9495Y-3.2367
X4.98Y-3.267
X5.0312Y-3.125
X5.105Y-3.285
X5.14Y-3.67
X5.18Y-3.32
T2
X4.4682Y-3.3524
T4
X4.0947Y-2.7699
X4.0947Y-2.8699
X4.0947Y-2.9699
X4.0947Y-3.0699
X4.0947Y-3.1699
X4.0947Y-3.2699
X4.0947Y-3.3699
X4.0947Y-3.4699
X4.0947Y-3.5699
X4.0947Y-3.6699
X4.2387Y-3.813
X4.2443Y-2.6553
X4.3387Y-3.813
X4.3443Y-2.6553
X4.4387Y-3.813
X4.4443Y-2.6553
X4.5387Y-3.813
X4.6387Y-3.813
X4.7387Y-3.813
X4.8387Y-3.813
X4.9387Y-3.813
X5.0387Y-3.813
X5.1387Y-3.813
X5.281Y-2.767
X5.281Y-2.867
X5.281Y-2.967
X5.281Y-3.067
X5.281Y-3.167
X5.281Y-3.267
X5.281Y-3.367
X5.281Y-3.467
X5.281Y-3.567
X5.281Y-3.667
T3
G00X4.7674Y-2.7276
M15
G01X4.7674Y-2.704
M16
G05
G00X4.7674Y-2.902
M15
G01X4.7674Y-2.8587
M16
G05
G00X5.1076Y-2.7276
M15
G01X5.1076Y-2.704
M16
G05
G00X5.1076Y-2.902
M15
G01X5.1076Y-2.8587
M16
G05
T0
M30
