%TF.GenerationSoftware,KiCad,Pcbnew,(6.0.11)*%
%TF.CreationDate,2023-02-13T13:43:31-05:00*%
%TF.ProjectId,HardLight,48617264-4c69-4676-9874-2e6b69636164,Mark 2 Rev F*%
%TF.SameCoordinates,Original*%
%TF.FileFunction,Legend,Top*%
%TF.FilePolarity,Positive*%
%FSLAX46Y46*%
G04 Gerber Fmt 4.6, Leading zero omitted, Abs format (unit mm)*
G04 Created by KiCad (PCBNEW (6.0.11)) date 2023-02-13 13:43:31*
%MOMM*%
%LPD*%
G01*
G04 APERTURE LIST*
%ADD10C,0.150000*%
%ADD11C,3.987800*%
%ADD12C,1.701800*%
%ADD13C,2.286000*%
%ADD14C,3.200000*%
%ADD15O,2.150000X1.750000*%
%ADD16C,0.650000*%
%ADD17O,1.000000X1.600000*%
%ADD18O,1.000000X2.100000*%
G04 APERTURE END LIST*
D10*
X112188988Y-109466071D02*
X112331845Y-109513690D01*
X112379464Y-109561309D01*
X112427083Y-109656547D01*
X112427083Y-109799404D01*
X112379464Y-109894642D01*
X112331845Y-109942261D01*
X112236607Y-109989880D01*
X111855654Y-109989880D01*
X111855654Y-108989880D01*
X112188988Y-108989880D01*
X112284226Y-109037500D01*
X112331845Y-109085119D01*
X112379464Y-109180357D01*
X112379464Y-109275595D01*
X112331845Y-109370833D01*
X112284226Y-109418452D01*
X112188988Y-109466071D01*
X111855654Y-109466071D01*
X113284226Y-109989880D02*
X113284226Y-109466071D01*
X113236607Y-109370833D01*
X113141369Y-109323214D01*
X112950892Y-109323214D01*
X112855654Y-109370833D01*
X113284226Y-109942261D02*
X113188988Y-109989880D01*
X112950892Y-109989880D01*
X112855654Y-109942261D01*
X112808035Y-109847023D01*
X112808035Y-109751785D01*
X112855654Y-109656547D01*
X112950892Y-109608928D01*
X113188988Y-109608928D01*
X113284226Y-109561309D01*
X113617559Y-109323214D02*
X113998511Y-109323214D01*
X113760416Y-108989880D02*
X113760416Y-109847023D01*
X113808035Y-109942261D01*
X113903273Y-109989880D01*
X113998511Y-109989880D01*
X114760416Y-109942261D02*
X114665178Y-109989880D01*
X114474702Y-109989880D01*
X114379464Y-109942261D01*
X114331845Y-109894642D01*
X114284226Y-109799404D01*
X114284226Y-109513690D01*
X114331845Y-109418452D01*
X114379464Y-109370833D01*
X114474702Y-109323214D01*
X114665178Y-109323214D01*
X114760416Y-109370833D01*
X115188988Y-109989880D02*
X115188988Y-108989880D01*
X115617559Y-109989880D02*
X115617559Y-109466071D01*
X115569940Y-109370833D01*
X115474702Y-109323214D01*
X115331845Y-109323214D01*
X115236607Y-109370833D01*
X115188988Y-109418452D01*
X116855654Y-109989880D02*
X116855654Y-108989880D01*
X117331845Y-109989880D02*
X117331845Y-108989880D01*
X117569940Y-108989880D01*
X117712797Y-109037500D01*
X117808035Y-109132738D01*
X117855654Y-109227976D01*
X117903273Y-109418452D01*
X117903273Y-109561309D01*
X117855654Y-109751785D01*
X117808035Y-109847023D01*
X117712797Y-109942261D01*
X117569940Y-109989880D01*
X117331845Y-109989880D01*
X118331845Y-109894642D02*
X118379464Y-109942261D01*
X118331845Y-109989880D01*
X118284226Y-109942261D01*
X118331845Y-109894642D01*
X118331845Y-109989880D01*
X118331845Y-109370833D02*
X118379464Y-109418452D01*
X118331845Y-109466071D01*
X118284226Y-109418452D01*
X118331845Y-109370833D01*
X118331845Y-109466071D01*
X119205952Y-109053380D02*
X119205952Y-109767666D01*
X119158333Y-109910523D01*
X119063095Y-110005761D01*
X118920238Y-110053380D01*
X118825000Y-110053380D01*
X120158333Y-110053380D02*
X119682142Y-110053380D01*
X119682142Y-109053380D01*
X121063095Y-109958142D02*
X121015476Y-110005761D01*
X120872619Y-110053380D01*
X120777380Y-110053380D01*
X120634523Y-110005761D01*
X120539285Y-109910523D01*
X120491666Y-109815285D01*
X120444047Y-109624809D01*
X120444047Y-109481952D01*
X120491666Y-109291476D01*
X120539285Y-109196238D01*
X120634523Y-109101000D01*
X120777380Y-109053380D01*
X120872619Y-109053380D01*
X121015476Y-109101000D01*
X121063095Y-109148619D01*
X121777380Y-109053380D02*
X121777380Y-109767666D01*
X121729761Y-109910523D01*
X121634523Y-110005761D01*
X121491666Y-110053380D01*
X121396428Y-110053380D01*
X122729761Y-110053380D02*
X122253571Y-110053380D01*
X122253571Y-109053380D01*
X123634523Y-109958142D02*
X123586904Y-110005761D01*
X123444047Y-110053380D01*
X123348809Y-110053380D01*
X123205952Y-110005761D01*
X123110714Y-109910523D01*
X123063095Y-109815285D01*
X123015476Y-109624809D01*
X123015476Y-109481952D01*
X123063095Y-109291476D01*
X123110714Y-109196238D01*
X123205952Y-109101000D01*
X123348809Y-109053380D01*
X123444047Y-109053380D01*
X123586904Y-109101000D01*
X123634523Y-109148619D01*
X124348809Y-109053380D02*
X124348809Y-109767666D01*
X124301190Y-109910523D01*
X124205952Y-110005761D01*
X124063095Y-110053380D01*
X123967857Y-110053380D01*
X125301190Y-110053380D02*
X124825000Y-110053380D01*
X124825000Y-109053380D01*
X126205952Y-109958142D02*
X126158333Y-110005761D01*
X126015476Y-110053380D01*
X125920238Y-110053380D01*
X125777380Y-110005761D01*
X125682142Y-109910523D01*
X125634523Y-109815285D01*
X125586904Y-109624809D01*
X125586904Y-109481952D01*
X125634523Y-109291476D01*
X125682142Y-109196238D01*
X125777380Y-109101000D01*
X125920238Y-109053380D01*
X126015476Y-109053380D01*
X126158333Y-109101000D01*
X126205952Y-109148619D01*
X126920238Y-109053380D02*
X126920238Y-109767666D01*
X126872619Y-109910523D01*
X126777380Y-110005761D01*
X126634523Y-110053380D01*
X126539285Y-110053380D01*
X127872619Y-110053380D02*
X127396428Y-110053380D01*
X127396428Y-109053380D01*
X128777380Y-109958142D02*
X128729761Y-110005761D01*
X128586904Y-110053380D01*
X128491666Y-110053380D01*
X128348809Y-110005761D01*
X128253571Y-109910523D01*
X128205952Y-109815285D01*
X128158333Y-109624809D01*
X128158333Y-109481952D01*
X128205952Y-109291476D01*
X128253571Y-109196238D01*
X128348809Y-109101000D01*
X128491666Y-109053380D01*
X128586904Y-109053380D01*
X128729761Y-109101000D01*
X128777380Y-109148619D01*
%TO.C,H1*%
X66706845Y-86734180D02*
X66706845Y-85734180D01*
X66706845Y-86210371D02*
X67278273Y-86210371D01*
X67278273Y-86734180D02*
X67278273Y-85734180D01*
X68278273Y-86734180D02*
X67706845Y-86734180D01*
X67992559Y-86734180D02*
X67992559Y-85734180D01*
X67897321Y-85877038D01*
X67802083Y-85972276D01*
X67706845Y-86019895D01*
%TO.C,H2*%
X142906845Y-86739880D02*
X142906845Y-85739880D01*
X142906845Y-86216071D02*
X143478273Y-86216071D01*
X143478273Y-86739880D02*
X143478273Y-85739880D01*
X143906845Y-85835119D02*
X143954464Y-85787500D01*
X144049702Y-85739880D01*
X144287797Y-85739880D01*
X144383035Y-85787500D01*
X144430654Y-85835119D01*
X144478273Y-85930357D01*
X144478273Y-86025595D01*
X144430654Y-86168452D01*
X143859226Y-86739880D01*
X144478273Y-86739880D01*
%TO.C,H3*%
X219106845Y-86734180D02*
X219106845Y-85734180D01*
X219106845Y-86210371D02*
X219678273Y-86210371D01*
X219678273Y-86734180D02*
X219678273Y-85734180D01*
X220059226Y-85734180D02*
X220678273Y-85734180D01*
X220344940Y-86115133D01*
X220487797Y-86115133D01*
X220583035Y-86162752D01*
X220630654Y-86210371D01*
X220678273Y-86305609D01*
X220678273Y-86543704D01*
X220630654Y-86638942D01*
X220583035Y-86686561D01*
X220487797Y-86734180D01*
X220202083Y-86734180D01*
X220106845Y-86686561D01*
X220059226Y-86638942D01*
%TO.C,H4*%
X295302045Y-86734180D02*
X295302045Y-85734180D01*
X295302045Y-86210371D02*
X295873473Y-86210371D01*
X295873473Y-86734180D02*
X295873473Y-85734180D01*
X296778235Y-86067514D02*
X296778235Y-86734180D01*
X296540140Y-85686561D02*
X296302045Y-86400847D01*
X296921092Y-86400847D01*
%TO.C,H5*%
X66706845Y-133231780D02*
X66706845Y-132231780D01*
X66706845Y-132707971D02*
X67278273Y-132707971D01*
X67278273Y-133231780D02*
X67278273Y-132231780D01*
X68230654Y-132231780D02*
X67754464Y-132231780D01*
X67706845Y-132707971D01*
X67754464Y-132660352D01*
X67849702Y-132612733D01*
X68087797Y-132612733D01*
X68183035Y-132660352D01*
X68230654Y-132707971D01*
X68278273Y-132803209D01*
X68278273Y-133041304D01*
X68230654Y-133136542D01*
X68183035Y-133184161D01*
X68087797Y-133231780D01*
X67849702Y-133231780D01*
X67754464Y-133184161D01*
X67706845Y-133136542D01*
%TO.C,H6*%
X142906845Y-133237480D02*
X142906845Y-132237480D01*
X142906845Y-132713671D02*
X143478273Y-132713671D01*
X143478273Y-133237480D02*
X143478273Y-132237480D01*
X144383035Y-132237480D02*
X144192559Y-132237480D01*
X144097321Y-132285100D01*
X144049702Y-132332719D01*
X143954464Y-132475576D01*
X143906845Y-132666052D01*
X143906845Y-133047004D01*
X143954464Y-133142242D01*
X144002083Y-133189861D01*
X144097321Y-133237480D01*
X144287797Y-133237480D01*
X144383035Y-133189861D01*
X144430654Y-133142242D01*
X144478273Y-133047004D01*
X144478273Y-132808909D01*
X144430654Y-132713671D01*
X144383035Y-132666052D01*
X144287797Y-132618433D01*
X144097321Y-132618433D01*
X144002083Y-132666052D01*
X143954464Y-132713671D01*
X143906845Y-132808909D01*
%TO.C,H7*%
X219106845Y-133231780D02*
X219106845Y-132231780D01*
X219106845Y-132707971D02*
X219678273Y-132707971D01*
X219678273Y-133231780D02*
X219678273Y-132231780D01*
X220059226Y-132231780D02*
X220725892Y-132231780D01*
X220297321Y-133231780D01*
%TO.C,H8*%
X295302045Y-133231780D02*
X295302045Y-132231780D01*
X295302045Y-132707971D02*
X295873473Y-132707971D01*
X295873473Y-133231780D02*
X295873473Y-132231780D01*
X296492521Y-132660352D02*
X296397283Y-132612733D01*
X296349664Y-132565114D01*
X296302045Y-132469876D01*
X296302045Y-132422257D01*
X296349664Y-132327019D01*
X296397283Y-132279400D01*
X296492521Y-132231780D01*
X296682997Y-132231780D01*
X296778235Y-132279400D01*
X296825854Y-132327019D01*
X296873473Y-132422257D01*
X296873473Y-132469876D01*
X296825854Y-132565114D01*
X296778235Y-132612733D01*
X296682997Y-132660352D01*
X296492521Y-132660352D01*
X296397283Y-132707971D01*
X296349664Y-132755590D01*
X296302045Y-132850828D01*
X296302045Y-133041304D01*
X296349664Y-133136542D01*
X296397283Y-133184161D01*
X296492521Y-133231780D01*
X296682997Y-133231780D01*
X296778235Y-133184161D01*
X296825854Y-133136542D01*
X296873473Y-133041304D01*
X296873473Y-132850828D01*
X296825854Y-132755590D01*
X296778235Y-132707971D01*
X296682997Y-132660352D01*
%TO.C,K2*%
X64943750Y-86962500D02*
X64943750Y-87962500D01*
X50943750Y-74962500D02*
X50943750Y-73962500D01*
X50943750Y-87962500D02*
X50943750Y-86962500D01*
X64943750Y-73962500D02*
X64943750Y-74962500D01*
X50943750Y-87962500D02*
X51943750Y-87962500D01*
X51943750Y-73962500D02*
X50943750Y-73962500D01*
X63943750Y-87962500D02*
X64943750Y-87962500D01*
X64943750Y-73962500D02*
X63943750Y-73962500D01*
%TO.C,K3*%
X83993750Y-86949800D02*
X83993750Y-87949800D01*
X69993750Y-87949800D02*
X70993750Y-87949800D01*
X69993750Y-87949800D02*
X69993750Y-86949800D01*
X69993750Y-74949800D02*
X69993750Y-73949800D01*
X83993750Y-73949800D02*
X82993750Y-73949800D01*
X70993750Y-73949800D02*
X69993750Y-73949800D01*
X82993750Y-87949800D02*
X83993750Y-87949800D01*
X83993750Y-73949800D02*
X83993750Y-74949800D01*
%TO.C,K6*%
X141143750Y-73962500D02*
X141143750Y-74962500D01*
X141143750Y-86962500D02*
X141143750Y-87962500D01*
X140143750Y-87962500D02*
X141143750Y-87962500D01*
X127143750Y-87962500D02*
X128143750Y-87962500D01*
X141143750Y-73962500D02*
X140143750Y-73962500D01*
X127143750Y-87962500D02*
X127143750Y-86962500D01*
X128143750Y-73962500D02*
X127143750Y-73962500D01*
X127143750Y-74962500D02*
X127143750Y-73962500D01*
%TO.C,K7*%
X160193750Y-86962500D02*
X160193750Y-87962500D01*
X160193750Y-73962500D02*
X160193750Y-74962500D01*
X160193750Y-73962500D02*
X159193750Y-73962500D01*
X146193750Y-74962500D02*
X146193750Y-73962500D01*
X146193750Y-87962500D02*
X146193750Y-86962500D01*
X146193750Y-87962500D02*
X147193750Y-87962500D01*
X159193750Y-87962500D02*
X160193750Y-87962500D01*
X147193750Y-73962500D02*
X146193750Y-73962500D01*
%TO.C,K8*%
X179243750Y-86962500D02*
X179243750Y-87962500D01*
X165243750Y-87962500D02*
X165243750Y-86962500D01*
X165243750Y-87962500D02*
X166243750Y-87962500D01*
X166243750Y-73962500D02*
X165243750Y-73962500D01*
X179243750Y-73962500D02*
X178243750Y-73962500D01*
X178243750Y-87962500D02*
X179243750Y-87962500D01*
X165243750Y-74962500D02*
X165243750Y-73962500D01*
X179243750Y-73962500D02*
X179243750Y-74962500D01*
%TO.C,K9*%
X198293750Y-73962500D02*
X197293750Y-73962500D01*
X198293750Y-73962500D02*
X198293750Y-74962500D01*
X184293750Y-87962500D02*
X185293750Y-87962500D01*
X184293750Y-74962500D02*
X184293750Y-73962500D01*
X197293750Y-87962500D02*
X198293750Y-87962500D01*
X198293750Y-86962500D02*
X198293750Y-87962500D01*
X184293750Y-87962500D02*
X184293750Y-86962500D01*
X185293750Y-73962500D02*
X184293750Y-73962500D01*
%TO.C,K10*%
X217343750Y-73962500D02*
X216343750Y-73962500D01*
X204343750Y-73962500D02*
X203343750Y-73962500D01*
X216343750Y-87962500D02*
X217343750Y-87962500D01*
X217343750Y-73962500D02*
X217343750Y-74962500D01*
X203343750Y-74962500D02*
X203343750Y-73962500D01*
X217343750Y-86962500D02*
X217343750Y-87962500D01*
X203343750Y-87962500D02*
X204343750Y-87962500D01*
X203343750Y-87962500D02*
X203343750Y-86962500D01*
%TO.C,K11*%
X236393750Y-73962500D02*
X235393750Y-73962500D01*
X222393750Y-87962500D02*
X223393750Y-87962500D01*
X235393750Y-87962500D02*
X236393750Y-87962500D01*
X236393750Y-86962500D02*
X236393750Y-87962500D01*
X236393750Y-73962500D02*
X236393750Y-74962500D01*
X223393750Y-73962500D02*
X222393750Y-73962500D01*
X222393750Y-87962500D02*
X222393750Y-86962500D01*
X222393750Y-74962500D02*
X222393750Y-73962500D01*
%TO.C,K12*%
X242443750Y-73962500D02*
X241443750Y-73962500D01*
X241443750Y-74962500D02*
X241443750Y-73962500D01*
X254443750Y-87962500D02*
X255443750Y-87962500D01*
X241443750Y-87962500D02*
X242443750Y-87962500D01*
X255443750Y-73962500D02*
X254443750Y-73962500D01*
X255443750Y-86962500D02*
X255443750Y-87962500D01*
X241443750Y-87962500D02*
X241443750Y-86962500D01*
X255443750Y-73962500D02*
X255443750Y-74962500D01*
%TO.C,K13*%
X273493750Y-87962500D02*
X274493750Y-87962500D01*
X274493750Y-73962500D02*
X274493750Y-74962500D01*
X260493750Y-87962500D02*
X261493750Y-87962500D01*
X260493750Y-74962500D02*
X260493750Y-73962500D01*
X260493750Y-87962500D02*
X260493750Y-86962500D01*
X274493750Y-73962500D02*
X273493750Y-73962500D01*
X261493750Y-73962500D02*
X260493750Y-73962500D01*
X274493750Y-86962500D02*
X274493750Y-87962500D01*
%TO.C,K14*%
X279543750Y-87962500D02*
X279543750Y-86962500D01*
X293543750Y-73962500D02*
X292543750Y-73962500D01*
X279543750Y-74962500D02*
X279543750Y-73962500D01*
X279543750Y-87962500D02*
X280543750Y-87962500D01*
X293543750Y-73962500D02*
X293543750Y-74962500D01*
X293543750Y-86962500D02*
X293543750Y-87962500D01*
X292543750Y-87962500D02*
X293543750Y-87962500D01*
X280543750Y-73962500D02*
X279543750Y-73962500D01*
%TO.C,K15*%
X312593750Y-73962500D02*
X311593750Y-73962500D01*
X311593750Y-87962500D02*
X312593750Y-87962500D01*
X312593750Y-86962500D02*
X312593750Y-87962500D01*
X298593750Y-87962500D02*
X299593750Y-87962500D01*
X312593750Y-73962500D02*
X312593750Y-74962500D01*
X298593750Y-87962500D02*
X298593750Y-86962500D01*
X299593750Y-73962500D02*
X298593750Y-73962500D01*
X298593750Y-74962500D02*
X298593750Y-73962500D01*
%TO.C,K16*%
X331643750Y-86962500D02*
X331643750Y-87962500D01*
X317643750Y-87962500D02*
X318643750Y-87962500D01*
X331643750Y-73962500D02*
X330643750Y-73962500D01*
X317643750Y-74962500D02*
X317643750Y-73962500D01*
X317643750Y-87962500D02*
X317643750Y-86962500D01*
X331643750Y-73962500D02*
X331643750Y-74962500D01*
X318643750Y-73962500D02*
X317643750Y-73962500D01*
X330643750Y-87962500D02*
X331643750Y-87962500D01*
%TO.C,K17*%
X31893750Y-107012500D02*
X31893750Y-106012500D01*
X31893750Y-94012500D02*
X31893750Y-93012500D01*
X44893750Y-107012500D02*
X45893750Y-107012500D01*
X32893750Y-93012500D02*
X31893750Y-93012500D01*
X31893750Y-107012500D02*
X32893750Y-107012500D01*
X45893750Y-106012500D02*
X45893750Y-107012500D01*
X45893750Y-93012500D02*
X44893750Y-93012500D01*
X45893750Y-93012500D02*
X45893750Y-94012500D01*
%TO.C,K18*%
X64943750Y-93012500D02*
X63943750Y-93012500D01*
X50943750Y-107012500D02*
X50943750Y-106012500D01*
X50943750Y-94012500D02*
X50943750Y-93012500D01*
X64943750Y-106012500D02*
X64943750Y-107012500D01*
X51943750Y-93012500D02*
X50943750Y-93012500D01*
X64943750Y-93012500D02*
X64943750Y-94012500D01*
X50943750Y-107012500D02*
X51943750Y-107012500D01*
X63943750Y-107012500D02*
X64943750Y-107012500D01*
%TO.C,K19*%
X70993750Y-93012500D02*
X69993750Y-93012500D01*
X83993750Y-93012500D02*
X83993750Y-94012500D01*
X83993750Y-93012500D02*
X82993750Y-93012500D01*
X69993750Y-107012500D02*
X69993750Y-106012500D01*
X69993750Y-94012500D02*
X69993750Y-93012500D01*
X83993750Y-106012500D02*
X83993750Y-107012500D01*
X82993750Y-107012500D02*
X83993750Y-107012500D01*
X69993750Y-107012500D02*
X70993750Y-107012500D01*
%TO.C,K22*%
X128143750Y-93012500D02*
X127143750Y-93012500D01*
X141143750Y-106012500D02*
X141143750Y-107012500D01*
X127143750Y-107012500D02*
X128143750Y-107012500D01*
X141143750Y-93012500D02*
X141143750Y-94012500D01*
X127143750Y-107012500D02*
X127143750Y-106012500D01*
X141143750Y-93012500D02*
X140143750Y-93012500D01*
X127143750Y-94012500D02*
X127143750Y-93012500D01*
X140143750Y-107012500D02*
X141143750Y-107012500D01*
%TO.C,K23*%
X160193750Y-106012500D02*
X160193750Y-107012500D01*
X160193750Y-93012500D02*
X160193750Y-94012500D01*
X146193750Y-107012500D02*
X146193750Y-106012500D01*
X160193750Y-93012500D02*
X159193750Y-93012500D01*
X159193750Y-107012500D02*
X160193750Y-107012500D01*
X147193750Y-93012500D02*
X146193750Y-93012500D01*
X146193750Y-94012500D02*
X146193750Y-93012500D01*
X146193750Y-107012500D02*
X147193750Y-107012500D01*
%TO.C,K24*%
X179243750Y-106012500D02*
X179243750Y-107012500D01*
X165243750Y-94012500D02*
X165243750Y-93012500D01*
X165243750Y-107012500D02*
X165243750Y-106012500D01*
X178243750Y-107012500D02*
X179243750Y-107012500D01*
X179243750Y-93012500D02*
X179243750Y-94012500D01*
X165243750Y-107012500D02*
X166243750Y-107012500D01*
X179243750Y-93012500D02*
X178243750Y-93012500D01*
X166243750Y-93012500D02*
X165243750Y-93012500D01*
%TO.C,K25*%
X198293750Y-93012500D02*
X197293750Y-93012500D01*
X185293750Y-93012500D02*
X184293750Y-93012500D01*
X184293750Y-94012500D02*
X184293750Y-93012500D01*
X198293750Y-93012500D02*
X198293750Y-94012500D01*
X197293750Y-107012500D02*
X198293750Y-107012500D01*
X184293750Y-107012500D02*
X184293750Y-106012500D01*
X198293750Y-106012500D02*
X198293750Y-107012500D01*
X184293750Y-107012500D02*
X185293750Y-107012500D01*
%TO.C,K26*%
X217343750Y-106012500D02*
X217343750Y-107012500D01*
X203343750Y-107012500D02*
X204343750Y-107012500D01*
X203343750Y-94012500D02*
X203343750Y-93012500D01*
X203343750Y-107012500D02*
X203343750Y-106012500D01*
X217343750Y-93012500D02*
X217343750Y-94012500D01*
X204343750Y-93012500D02*
X203343750Y-93012500D01*
X216343750Y-107012500D02*
X217343750Y-107012500D01*
X217343750Y-93012500D02*
X216343750Y-93012500D01*
%TO.C,K27*%
X222393750Y-107012500D02*
X223393750Y-107012500D01*
X236393750Y-106012500D02*
X236393750Y-107012500D01*
X236393750Y-93012500D02*
X236393750Y-94012500D01*
X222393750Y-94012500D02*
X222393750Y-93012500D01*
X235393750Y-107012500D02*
X236393750Y-107012500D01*
X223393750Y-93012500D02*
X222393750Y-93012500D01*
X236393750Y-93012500D02*
X235393750Y-93012500D01*
X222393750Y-107012500D02*
X222393750Y-106012500D01*
%TO.C,K28*%
X255443750Y-93012500D02*
X254443750Y-93012500D01*
X241443750Y-107012500D02*
X241443750Y-106012500D01*
X242443750Y-93012500D02*
X241443750Y-93012500D01*
X255443750Y-93012500D02*
X255443750Y-94012500D01*
X241443750Y-94012500D02*
X241443750Y-93012500D01*
X241443750Y-107012500D02*
X242443750Y-107012500D01*
X255443750Y-106012500D02*
X255443750Y-107012500D01*
X254443750Y-107012500D02*
X255443750Y-107012500D01*
%TO.C,K29*%
X274493750Y-93012500D02*
X273493750Y-93012500D01*
X260493750Y-107012500D02*
X260493750Y-106012500D01*
X261493750Y-93012500D02*
X260493750Y-93012500D01*
X260493750Y-107012500D02*
X261493750Y-107012500D01*
X274493750Y-93012500D02*
X274493750Y-94012500D01*
X274493750Y-106012500D02*
X274493750Y-107012500D01*
X273493750Y-107012500D02*
X274493750Y-107012500D01*
X260493750Y-94012500D02*
X260493750Y-93012500D01*
%TO.C,K30*%
X280543750Y-93012500D02*
X279543750Y-93012500D01*
X293543750Y-106012500D02*
X293543750Y-107012500D01*
X279543750Y-107012500D02*
X279543750Y-106012500D01*
X279543750Y-94012500D02*
X279543750Y-93012500D01*
X279543750Y-107012500D02*
X280543750Y-107012500D01*
X293543750Y-93012500D02*
X293543750Y-94012500D01*
X293543750Y-93012500D02*
X292543750Y-93012500D01*
X292543750Y-107012500D02*
X293543750Y-107012500D01*
%TO.C,K31*%
X312593750Y-106012500D02*
X312593750Y-107012500D01*
X311593750Y-107012500D02*
X312593750Y-107012500D01*
X312593750Y-93012500D02*
X312593750Y-94012500D01*
X312593750Y-93012500D02*
X311593750Y-93012500D01*
X298593750Y-107012500D02*
X299593750Y-107012500D01*
X298593750Y-94012500D02*
X298593750Y-93012500D01*
X298593750Y-107012500D02*
X298593750Y-106012500D01*
X299593750Y-93012500D02*
X298593750Y-93012500D01*
%TO.C,K32*%
X317643750Y-94012500D02*
X317643750Y-93012500D01*
X331643750Y-93012500D02*
X331643750Y-94012500D01*
X330643750Y-107012500D02*
X331643750Y-107012500D01*
X331643750Y-93012500D02*
X330643750Y-93012500D01*
X318643750Y-93012500D02*
X317643750Y-93012500D01*
X317643750Y-107012500D02*
X318643750Y-107012500D01*
X317643750Y-107012500D02*
X317643750Y-106012500D01*
X331643750Y-106012500D02*
X331643750Y-107012500D01*
%TO.C,K33*%
X45893750Y-112062500D02*
X44893750Y-112062500D01*
X45893750Y-125062500D02*
X45893750Y-126062500D01*
X31893750Y-126062500D02*
X31893750Y-125062500D01*
X45893750Y-112062500D02*
X45893750Y-113062500D01*
X44893750Y-126062500D02*
X45893750Y-126062500D01*
X31893750Y-113062500D02*
X31893750Y-112062500D01*
X31893750Y-126062500D02*
X32893750Y-126062500D01*
X32893750Y-112062500D02*
X31893750Y-112062500D01*
%TO.C,K34*%
X50943750Y-113062500D02*
X50943750Y-112062500D01*
X50943750Y-126062500D02*
X51943750Y-126062500D01*
X63943750Y-126062500D02*
X64943750Y-126062500D01*
X64943750Y-125062500D02*
X64943750Y-126062500D01*
X51943750Y-112062500D02*
X50943750Y-112062500D01*
X64943750Y-112062500D02*
X63943750Y-112062500D01*
X50943750Y-126062500D02*
X50943750Y-125062500D01*
X64943750Y-112062500D02*
X64943750Y-113062500D01*
%TO.C,K35*%
X69993750Y-126062500D02*
X70993750Y-126062500D01*
X69993750Y-126062500D02*
X69993750Y-125062500D01*
X83993750Y-112062500D02*
X82993750Y-112062500D01*
X70993750Y-112062500D02*
X69993750Y-112062500D01*
X83993750Y-112062500D02*
X83993750Y-113062500D01*
X83993750Y-125062500D02*
X83993750Y-126062500D01*
X82993750Y-126062500D02*
X83993750Y-126062500D01*
X69993750Y-113062500D02*
X69993750Y-112062500D01*
%TO.C,K36*%
X90043750Y-112062500D02*
X89043750Y-112062500D01*
X103043750Y-112062500D02*
X102043750Y-112062500D01*
X89043750Y-126062500D02*
X90043750Y-126062500D01*
X102043750Y-126062500D02*
X103043750Y-126062500D01*
X89043750Y-126062500D02*
X89043750Y-125062500D01*
X103043750Y-125062500D02*
X103043750Y-126062500D01*
X89043750Y-113062500D02*
X89043750Y-112062500D01*
X103043750Y-112062500D02*
X103043750Y-113062500D01*
%TO.C,K37*%
X122093750Y-112062500D02*
X122093750Y-113062500D01*
X109093750Y-112062500D02*
X108093750Y-112062500D01*
X122093750Y-125062500D02*
X122093750Y-126062500D01*
X108093750Y-126062500D02*
X109093750Y-126062500D01*
X108093750Y-126062500D02*
X108093750Y-125062500D01*
X122093750Y-112062500D02*
X121093750Y-112062500D01*
X108093750Y-113062500D02*
X108093750Y-112062500D01*
X121093750Y-126062500D02*
X122093750Y-126062500D01*
%TO.C,K38*%
X127143750Y-113062500D02*
X127143750Y-112062500D01*
X140143750Y-126062500D02*
X141143750Y-126062500D01*
X128143750Y-112062500D02*
X127143750Y-112062500D01*
X141143750Y-112062500D02*
X140143750Y-112062500D01*
X127143750Y-126062500D02*
X128143750Y-126062500D01*
X141143750Y-112062500D02*
X141143750Y-113062500D01*
X141143750Y-125062500D02*
X141143750Y-126062500D01*
X127143750Y-126062500D02*
X127143750Y-125062500D01*
%TO.C,K39*%
X147193750Y-112062500D02*
X146193750Y-112062500D01*
X160193750Y-112062500D02*
X159193750Y-112062500D01*
X146193750Y-113062500D02*
X146193750Y-112062500D01*
X159193750Y-126062500D02*
X160193750Y-126062500D01*
X146193750Y-126062500D02*
X146193750Y-125062500D01*
X160193750Y-125062500D02*
X160193750Y-126062500D01*
X160193750Y-112062500D02*
X160193750Y-113062500D01*
X146193750Y-126062500D02*
X147193750Y-126062500D01*
%TO.C,K40*%
X179243750Y-112062500D02*
X179243750Y-113062500D01*
X178243750Y-126062500D02*
X179243750Y-126062500D01*
X165243750Y-126062500D02*
X166243750Y-126062500D01*
X166243750Y-112062500D02*
X165243750Y-112062500D01*
X179243750Y-112062500D02*
X178243750Y-112062500D01*
X179243750Y-125062500D02*
X179243750Y-126062500D01*
X165243750Y-113062500D02*
X165243750Y-112062500D01*
X165243750Y-126062500D02*
X165243750Y-125062500D01*
%TO.C,K41*%
X184293750Y-126062500D02*
X184293750Y-125062500D01*
X197293750Y-126062500D02*
X198293750Y-126062500D01*
X198293750Y-112062500D02*
X198293750Y-113062500D01*
X184293750Y-126062500D02*
X185293750Y-126062500D01*
X198293750Y-125062500D02*
X198293750Y-126062500D01*
X198293750Y-112062500D02*
X197293750Y-112062500D01*
X185293750Y-112062500D02*
X184293750Y-112062500D01*
X184293750Y-113062500D02*
X184293750Y-112062500D01*
%TO.C,K42*%
X203343750Y-126062500D02*
X204343750Y-126062500D01*
X203343750Y-126062500D02*
X203343750Y-125062500D01*
X217343750Y-112062500D02*
X217343750Y-113062500D01*
X217343750Y-112062500D02*
X216343750Y-112062500D01*
X204343750Y-112062500D02*
X203343750Y-112062500D01*
X203343750Y-113062500D02*
X203343750Y-112062500D01*
X216343750Y-126062500D02*
X217343750Y-126062500D01*
X217343750Y-125062500D02*
X217343750Y-126062500D01*
%TO.C,K43*%
X236393750Y-125062500D02*
X236393750Y-126062500D01*
X223393750Y-112062500D02*
X222393750Y-112062500D01*
X235393750Y-126062500D02*
X236393750Y-126062500D01*
X222393750Y-126062500D02*
X222393750Y-125062500D01*
X222393750Y-126062500D02*
X223393750Y-126062500D01*
X236393750Y-112062500D02*
X235393750Y-112062500D01*
X222393750Y-113062500D02*
X222393750Y-112062500D01*
X236393750Y-112062500D02*
X236393750Y-113062500D01*
%TO.C,K44*%
X241443750Y-113062500D02*
X241443750Y-112062500D01*
X254443750Y-126062500D02*
X255443750Y-126062500D01*
X255443750Y-125062500D02*
X255443750Y-126062500D01*
X241443750Y-126062500D02*
X242443750Y-126062500D01*
X242443750Y-112062500D02*
X241443750Y-112062500D01*
X241443750Y-126062500D02*
X241443750Y-125062500D01*
X255443750Y-112062500D02*
X254443750Y-112062500D01*
X255443750Y-112062500D02*
X255443750Y-113062500D01*
%TO.C,K45*%
X274493750Y-112062500D02*
X273493750Y-112062500D01*
X261493750Y-112062500D02*
X260493750Y-112062500D01*
X273493750Y-126062500D02*
X274493750Y-126062500D01*
X260493750Y-126062500D02*
X261493750Y-126062500D01*
X260493750Y-113062500D02*
X260493750Y-112062500D01*
X260493750Y-126062500D02*
X260493750Y-125062500D01*
X274493750Y-125062500D02*
X274493750Y-126062500D01*
X274493750Y-112062500D02*
X274493750Y-113062500D01*
%TO.C,K46*%
X279543750Y-113062500D02*
X279543750Y-112062500D01*
X293543750Y-125062500D02*
X293543750Y-126062500D01*
X279543750Y-126062500D02*
X279543750Y-125062500D01*
X293543750Y-112062500D02*
X293543750Y-113062500D01*
X280543750Y-112062500D02*
X279543750Y-112062500D01*
X293543750Y-112062500D02*
X292543750Y-112062500D01*
X279543750Y-126062500D02*
X280543750Y-126062500D01*
X292543750Y-126062500D02*
X293543750Y-126062500D01*
%TO.C,K47*%
X298593750Y-126062500D02*
X298593750Y-125062500D01*
X312593750Y-112062500D02*
X311593750Y-112062500D01*
X312593750Y-125062500D02*
X312593750Y-126062500D01*
X298593750Y-126062500D02*
X299593750Y-126062500D01*
X299593750Y-112062500D02*
X298593750Y-112062500D01*
X312593750Y-112062500D02*
X312593750Y-113062500D01*
X298593750Y-113062500D02*
X298593750Y-112062500D01*
X311593750Y-126062500D02*
X312593750Y-126062500D01*
%TO.C,K48*%
X331643750Y-112062500D02*
X330643750Y-112062500D01*
X317643750Y-113062500D02*
X317643750Y-112062500D01*
X317643750Y-126062500D02*
X318643750Y-126062500D01*
X318643750Y-112062500D02*
X317643750Y-112062500D01*
X331643750Y-125062500D02*
X331643750Y-126062500D01*
X330643750Y-126062500D02*
X331643750Y-126062500D01*
X331643750Y-112062500D02*
X331643750Y-113062500D01*
X317643750Y-126062500D02*
X317643750Y-125062500D01*
%TO.C,K49*%
X31893750Y-145112500D02*
X31893750Y-144112500D01*
X45893750Y-131112500D02*
X45893750Y-132112500D01*
X45893750Y-131112500D02*
X44893750Y-131112500D01*
X32893750Y-131112500D02*
X31893750Y-131112500D01*
X45893750Y-144112500D02*
X45893750Y-145112500D01*
X31893750Y-145112500D02*
X32893750Y-145112500D01*
X31893750Y-132112500D02*
X31893750Y-131112500D01*
X44893750Y-145112500D02*
X45893750Y-145112500D01*
%TO.C,K50*%
X64943750Y-144112500D02*
X64943750Y-145112500D01*
X64943750Y-131112500D02*
X63943750Y-131112500D01*
X50943750Y-145112500D02*
X51943750Y-145112500D01*
X51943750Y-131112500D02*
X50943750Y-131112500D01*
X63943750Y-145112500D02*
X64943750Y-145112500D01*
X50943750Y-132112500D02*
X50943750Y-131112500D01*
X64943750Y-131112500D02*
X64943750Y-132112500D01*
X50943750Y-145112500D02*
X50943750Y-144112500D01*
%TO.C,K51*%
X82993750Y-145112500D02*
X83993750Y-145112500D01*
X70993750Y-131112500D02*
X69993750Y-131112500D01*
X83993750Y-144112500D02*
X83993750Y-145112500D01*
X83993750Y-131112500D02*
X82993750Y-131112500D01*
X69993750Y-145112500D02*
X69993750Y-144112500D01*
X83993750Y-131112500D02*
X83993750Y-132112500D01*
X69993750Y-145112500D02*
X70993750Y-145112500D01*
X69993750Y-132112500D02*
X69993750Y-131112500D01*
%TO.C,K52*%
X89043750Y-145112500D02*
X89043750Y-144112500D01*
X102043750Y-145112500D02*
X103043750Y-145112500D01*
X103043750Y-144112500D02*
X103043750Y-145112500D01*
X89043750Y-145112500D02*
X90043750Y-145112500D01*
X89043750Y-132112500D02*
X89043750Y-131112500D01*
X103043750Y-131112500D02*
X103043750Y-132112500D01*
X90043750Y-131112500D02*
X89043750Y-131112500D01*
X103043750Y-131112500D02*
X102043750Y-131112500D01*
%TO.C,K53*%
X108093750Y-145112500D02*
X108093750Y-144112500D01*
X122093750Y-144112500D02*
X122093750Y-145112500D01*
X122093750Y-131112500D02*
X121093750Y-131112500D01*
X109093750Y-131112500D02*
X108093750Y-131112500D01*
X108093750Y-145112500D02*
X109093750Y-145112500D01*
X108093750Y-132112500D02*
X108093750Y-131112500D01*
X122093750Y-131112500D02*
X122093750Y-132112500D01*
X121093750Y-145112500D02*
X122093750Y-145112500D01*
%TO.C,K54*%
X127143750Y-132112500D02*
X127143750Y-131112500D01*
X127143750Y-145112500D02*
X128143750Y-145112500D01*
X128143750Y-131112500D02*
X127143750Y-131112500D01*
X127143750Y-145112500D02*
X127143750Y-144112500D01*
%TO.C,K55*%
X159193750Y-145112500D02*
X160193750Y-145112500D01*
X160193750Y-144112500D02*
X160193750Y-145112500D01*
X160193750Y-131112500D02*
X159193750Y-131112500D01*
X160193750Y-131112500D02*
X160193750Y-132112500D01*
X146193750Y-145112500D02*
X146193750Y-144112500D01*
X146193750Y-145112500D02*
X147193750Y-145112500D01*
X147193750Y-131112500D02*
X146193750Y-131112500D01*
X146193750Y-132112500D02*
X146193750Y-131112500D01*
%TO.C,K56*%
X178243750Y-145112500D02*
X179243750Y-145112500D01*
X165243750Y-132112500D02*
X165243750Y-131112500D01*
X179243750Y-131112500D02*
X178243750Y-131112500D01*
X166243750Y-131112500D02*
X165243750Y-131112500D01*
X165243750Y-145112500D02*
X166243750Y-145112500D01*
X179243750Y-144112500D02*
X179243750Y-145112500D01*
X165243750Y-145112500D02*
X165243750Y-144112500D01*
X179243750Y-131112500D02*
X179243750Y-132112500D01*
%TO.C,K57*%
X198293750Y-144112500D02*
X198293750Y-145112500D01*
X197293750Y-145112500D02*
X198293750Y-145112500D01*
X198293750Y-131112500D02*
X198293750Y-132112500D01*
X185293750Y-131112500D02*
X184293750Y-131112500D01*
X198293750Y-131112500D02*
X197293750Y-131112500D01*
X184293750Y-145112500D02*
X185293750Y-145112500D01*
X184293750Y-145112500D02*
X184293750Y-144112500D01*
X184293750Y-132112500D02*
X184293750Y-131112500D01*
%TO.C,K58*%
X203343750Y-132112500D02*
X203343750Y-131112500D01*
X203343750Y-145112500D02*
X204343750Y-145112500D01*
X204343750Y-131112500D02*
X203343750Y-131112500D01*
X203343750Y-145112500D02*
X203343750Y-144112500D01*
%TO.C,K59*%
X236393750Y-131112500D02*
X235393750Y-131112500D01*
X222393750Y-145112500D02*
X223393750Y-145112500D01*
X223393750Y-131112500D02*
X222393750Y-131112500D01*
X236393750Y-144112500D02*
X236393750Y-145112500D01*
X235393750Y-145112500D02*
X236393750Y-145112500D01*
X222393750Y-145112500D02*
X222393750Y-144112500D01*
X236393750Y-131112500D02*
X236393750Y-132112500D01*
X222393750Y-132112500D02*
X222393750Y-131112500D01*
%TO.C,K60*%
X254443750Y-145112500D02*
X255443750Y-145112500D01*
X255443750Y-131112500D02*
X254443750Y-131112500D01*
X241443750Y-145112500D02*
X242443750Y-145112500D01*
X241443750Y-132112500D02*
X241443750Y-131112500D01*
X255443750Y-131112500D02*
X255443750Y-132112500D01*
X242443750Y-131112500D02*
X241443750Y-131112500D01*
X255443750Y-144112500D02*
X255443750Y-145112500D01*
X241443750Y-145112500D02*
X241443750Y-144112500D01*
%TO.C,K61*%
X274493750Y-131112500D02*
X273493750Y-131112500D01*
X261493750Y-131112500D02*
X260493750Y-131112500D01*
X274493750Y-131112500D02*
X274493750Y-132112500D01*
X260493750Y-132112500D02*
X260493750Y-131112500D01*
X274493750Y-144112500D02*
X274493750Y-145112500D01*
X260493750Y-145112500D02*
X261493750Y-145112500D01*
X260493750Y-145112500D02*
X260493750Y-144112500D01*
X273493750Y-145112500D02*
X274493750Y-145112500D01*
%TO.C,K62*%
X279543750Y-145112500D02*
X280543750Y-145112500D01*
X279543750Y-132112500D02*
X279543750Y-131112500D01*
X292543750Y-145112500D02*
X293543750Y-145112500D01*
X293543750Y-131112500D02*
X292543750Y-131112500D01*
X280543750Y-131112500D02*
X279543750Y-131112500D01*
X293543750Y-144112500D02*
X293543750Y-145112500D01*
X293543750Y-131112500D02*
X293543750Y-132112500D01*
X279543750Y-145112500D02*
X279543750Y-144112500D01*
%TO.C,K63*%
X298593750Y-132112500D02*
X298593750Y-131112500D01*
X312593750Y-131112500D02*
X311593750Y-131112500D01*
X298593750Y-145112500D02*
X299593750Y-145112500D01*
X311593750Y-145112500D02*
X312593750Y-145112500D01*
X312593750Y-131112500D02*
X312593750Y-132112500D01*
X299593750Y-131112500D02*
X298593750Y-131112500D01*
X312593750Y-144112500D02*
X312593750Y-145112500D01*
X298593750Y-145112500D02*
X298593750Y-144112500D01*
%TO.C,K64*%
X318643750Y-131112500D02*
X317643750Y-131112500D01*
X317643750Y-145112500D02*
X317643750Y-144112500D01*
X317643750Y-145112500D02*
X318643750Y-145112500D01*
X330643750Y-145112500D02*
X331643750Y-145112500D01*
X331643750Y-144112500D02*
X331643750Y-145112500D01*
X317643750Y-132112500D02*
X317643750Y-131112500D01*
X331643750Y-131112500D02*
X331643750Y-132112500D01*
X331643750Y-131112500D02*
X330643750Y-131112500D01*
%TO.C,K1*%
X31893750Y-87962500D02*
X32893750Y-87962500D01*
X45893750Y-86962500D02*
X45893750Y-87962500D01*
X44893750Y-87962500D02*
X45893750Y-87962500D01*
X32893750Y-73962500D02*
X31893750Y-73962500D01*
X31893750Y-87962500D02*
X31893750Y-86962500D01*
X31893750Y-74962500D02*
X31893750Y-73962500D01*
X45893750Y-73962500D02*
X45893750Y-74962500D01*
X45893750Y-73962500D02*
X44893750Y-73962500D01*
%TO.C,K4*%
X103043750Y-86962500D02*
X103043750Y-87962500D01*
X103043750Y-73962500D02*
X102043750Y-73962500D01*
X89043750Y-87962500D02*
X89043750Y-86962500D01*
X89043750Y-87962500D02*
X90043750Y-87962500D01*
X103043750Y-73962500D02*
X103043750Y-74962500D01*
X90043750Y-73962500D02*
X89043750Y-73962500D01*
X89043750Y-74962500D02*
X89043750Y-73962500D01*
X102043750Y-87962500D02*
X103043750Y-87962500D01*
%TO.C,K5*%
X122093750Y-73962500D02*
X121093750Y-73962500D01*
X109093750Y-73962500D02*
X108093750Y-73962500D01*
X122093750Y-86962500D02*
X122093750Y-87962500D01*
X108093750Y-87962500D02*
X108093750Y-86962500D01*
X108093750Y-74962500D02*
X108093750Y-73962500D01*
X108093750Y-87962500D02*
X109093750Y-87962500D01*
X121093750Y-87962500D02*
X122093750Y-87962500D01*
X122093750Y-73962500D02*
X122093750Y-74962500D01*
%TO.C,K21*%
X108093750Y-107012500D02*
X109093750Y-107012500D01*
X108093750Y-94012500D02*
X108093750Y-93012500D01*
X122093750Y-106012500D02*
X122093750Y-107012500D01*
X109093750Y-93012500D02*
X108093750Y-93012500D01*
X122093750Y-93012500D02*
X121093750Y-93012500D01*
X121093750Y-107012500D02*
X122093750Y-107012500D01*
X122093750Y-93012500D02*
X122093750Y-94012500D01*
X108093750Y-107012500D02*
X108093750Y-106012500D01*
%TO.C,K20*%
X89043750Y-107012500D02*
X89043750Y-106012500D01*
X103043750Y-93012500D02*
X103043750Y-94012500D01*
X90043750Y-93012500D02*
X89043750Y-93012500D01*
X89043750Y-107012500D02*
X90043750Y-107012500D01*
X102043750Y-107012500D02*
X103043750Y-107012500D01*
X89043750Y-94012500D02*
X89043750Y-93012500D01*
X103043750Y-93012500D02*
X102043750Y-93012500D01*
X103043750Y-106012500D02*
X103043750Y-107012500D01*
%TO.C,K54.1*%
X136668750Y-145112500D02*
X137668750Y-145112500D01*
X137668750Y-131112500D02*
X136668750Y-131112500D01*
X136668750Y-132112500D02*
X136668750Y-131112500D01*
X136668750Y-145112500D02*
X136668750Y-144112500D01*
%TO.C,K58.1*%
X212868750Y-145112500D02*
X212868750Y-144112500D01*
X212868750Y-132112500D02*
X212868750Y-131112500D01*
X213868750Y-131112500D02*
X212868750Y-131112500D01*
X212868750Y-145112500D02*
X213868750Y-145112500D01*
%TD*%
%LPC*%
D11*
%TO.C,K2*%
X57943750Y-80962500D03*
D12*
X52863750Y-80962500D03*
X63023750Y-80962500D03*
D13*
X60483750Y-75882500D03*
X54133750Y-78422500D03*
%TD*%
D12*
%TO.C,K3*%
X82073750Y-80949800D03*
D11*
X76993750Y-80949800D03*
D12*
X71913750Y-80949800D03*
D13*
X79533750Y-75869800D03*
X73183750Y-78409800D03*
%TD*%
D11*
%TO.C,K6*%
X134143750Y-80962500D03*
D12*
X129063750Y-80962500D03*
X139223750Y-80962500D03*
D13*
X136683750Y-75882500D03*
X130333750Y-78422500D03*
%TD*%
D12*
%TO.C,K7*%
X148113750Y-80962500D03*
X158273750Y-80962500D03*
D11*
X153193750Y-80962500D03*
D13*
X155733750Y-75882500D03*
X149383750Y-78422500D03*
%TD*%
D12*
%TO.C,K8*%
X167163750Y-80962500D03*
X177323750Y-80962500D03*
D11*
X172243750Y-80962500D03*
D13*
X174783750Y-75882500D03*
X168433750Y-78422500D03*
%TD*%
D12*
%TO.C,K9*%
X186213750Y-80962500D03*
D11*
X191293750Y-80962500D03*
D12*
X196373750Y-80962500D03*
D13*
X193833750Y-75882500D03*
X187483750Y-78422500D03*
%TD*%
D12*
%TO.C,K10*%
X205263750Y-80962500D03*
X215423750Y-80962500D03*
D11*
X210343750Y-80962500D03*
D13*
X212883750Y-75882500D03*
X206533750Y-78422500D03*
%TD*%
D12*
%TO.C,K11*%
X224313750Y-80962500D03*
D11*
X229393750Y-80962500D03*
D12*
X234473750Y-80962500D03*
D13*
X231933750Y-75882500D03*
X225583750Y-78422500D03*
%TD*%
D12*
%TO.C,K12*%
X243363750Y-80962500D03*
D11*
X248443750Y-80962500D03*
D12*
X253523750Y-80962500D03*
D13*
X250983750Y-75882500D03*
X244633750Y-78422500D03*
%TD*%
D12*
%TO.C,K13*%
X272573750Y-80962500D03*
D11*
X267493750Y-80962500D03*
D12*
X262413750Y-80962500D03*
D13*
X270033750Y-75882500D03*
X263683750Y-78422500D03*
%TD*%
D11*
%TO.C,K14*%
X286543750Y-80962500D03*
D12*
X291623750Y-80962500D03*
X281463750Y-80962500D03*
D13*
X289083750Y-75882500D03*
X282733750Y-78422500D03*
%TD*%
D11*
%TO.C,K15*%
X305593750Y-80962500D03*
D12*
X300513750Y-80962500D03*
X310673750Y-80962500D03*
D13*
X308133750Y-75882500D03*
X301783750Y-78422500D03*
%TD*%
D12*
%TO.C,K16*%
X319563750Y-80962500D03*
D11*
X324643750Y-80962500D03*
D12*
X329723750Y-80962500D03*
D13*
X327183750Y-75882500D03*
X320833750Y-78422500D03*
%TD*%
D11*
%TO.C,K17*%
X38893750Y-100012500D03*
D12*
X43973750Y-100012500D03*
X33813750Y-100012500D03*
D13*
X41433750Y-94932500D03*
X35083750Y-97472500D03*
%TD*%
D12*
%TO.C,K18*%
X63023750Y-100012500D03*
D11*
X57943750Y-100012500D03*
D12*
X52863750Y-100012500D03*
D13*
X60483750Y-94932500D03*
X54133750Y-97472500D03*
%TD*%
D11*
%TO.C,K19*%
X76993750Y-100012500D03*
D12*
X71913750Y-100012500D03*
X82073750Y-100012500D03*
D13*
X79533750Y-94932500D03*
X73183750Y-97472500D03*
%TD*%
D11*
%TO.C,K22*%
X134143750Y-100012500D03*
D12*
X129063750Y-100012500D03*
X139223750Y-100012500D03*
D13*
X136683750Y-94932500D03*
X130333750Y-97472500D03*
%TD*%
D12*
%TO.C,K23*%
X158273750Y-100012500D03*
X148113750Y-100012500D03*
D11*
X153193750Y-100012500D03*
D13*
X155733750Y-94932500D03*
X149383750Y-97472500D03*
%TD*%
D11*
%TO.C,K24*%
X172243750Y-100012500D03*
D12*
X167163750Y-100012500D03*
X177323750Y-100012500D03*
D13*
X174783750Y-94932500D03*
X168433750Y-97472500D03*
%TD*%
D12*
%TO.C,K25*%
X196373750Y-100012500D03*
X186213750Y-100012500D03*
D11*
X191293750Y-100012500D03*
D13*
X193833750Y-94932500D03*
X187483750Y-97472500D03*
%TD*%
D11*
%TO.C,K26*%
X210343750Y-100012500D03*
D12*
X215423750Y-100012500D03*
X205263750Y-100012500D03*
D13*
X212883750Y-94932500D03*
X206533750Y-97472500D03*
%TD*%
D12*
%TO.C,K27*%
X234473750Y-100012500D03*
D11*
X229393750Y-100012500D03*
D12*
X224313750Y-100012500D03*
D13*
X231933750Y-94932500D03*
X225583750Y-97472500D03*
%TD*%
D11*
%TO.C,K28*%
X248443750Y-100012500D03*
D12*
X243363750Y-100012500D03*
X253523750Y-100012500D03*
D13*
X250983750Y-94932500D03*
X244633750Y-97472500D03*
%TD*%
D11*
%TO.C,K29*%
X267493750Y-100012500D03*
D12*
X262413750Y-100012500D03*
X272573750Y-100012500D03*
D13*
X270033750Y-94932500D03*
X263683750Y-97472500D03*
%TD*%
D12*
%TO.C,K30*%
X281463750Y-100012500D03*
D11*
X286543750Y-100012500D03*
D12*
X291623750Y-100012500D03*
D13*
X289083750Y-94932500D03*
X282733750Y-97472500D03*
%TD*%
D11*
%TO.C,K31*%
X305593750Y-100012500D03*
D12*
X310673750Y-100012500D03*
X300513750Y-100012500D03*
D13*
X308133750Y-94932500D03*
X301783750Y-97472500D03*
%TD*%
D12*
%TO.C,K32*%
X319563750Y-100012500D03*
D11*
X324643750Y-100012500D03*
D12*
X329723750Y-100012500D03*
D13*
X327183750Y-94932500D03*
X320833750Y-97472500D03*
%TD*%
D12*
%TO.C,K33*%
X33813750Y-119062500D03*
D11*
X38893750Y-119062500D03*
D12*
X43973750Y-119062500D03*
D13*
X41433750Y-113982500D03*
X35083750Y-116522500D03*
%TD*%
D12*
%TO.C,K34*%
X52863750Y-119062500D03*
X63023750Y-119062500D03*
D11*
X57943750Y-119062500D03*
D13*
X60483750Y-113982500D03*
X54133750Y-116522500D03*
%TD*%
D12*
%TO.C,K35*%
X82073750Y-119062500D03*
X71913750Y-119062500D03*
D11*
X76993750Y-119062500D03*
D13*
X79533750Y-113982500D03*
X73183750Y-116522500D03*
%TD*%
D12*
%TO.C,K36*%
X90963750Y-119062500D03*
D11*
X96043750Y-119062500D03*
D12*
X101123750Y-119062500D03*
D13*
X98583750Y-113982500D03*
X92233750Y-116522500D03*
%TD*%
D12*
%TO.C,K37*%
X110013750Y-119062500D03*
X120173750Y-119062500D03*
D11*
X115093750Y-119062500D03*
D13*
X117633750Y-113982500D03*
X111283750Y-116522500D03*
%TD*%
D11*
%TO.C,K38*%
X134143750Y-119062500D03*
D12*
X139223750Y-119062500D03*
X129063750Y-119062500D03*
D13*
X136683750Y-113982500D03*
X130333750Y-116522500D03*
%TD*%
D12*
%TO.C,K39*%
X148113750Y-119062500D03*
D11*
X153193750Y-119062500D03*
D12*
X158273750Y-119062500D03*
D13*
X155733750Y-113982500D03*
X149383750Y-116522500D03*
%TD*%
D12*
%TO.C,K40*%
X167163750Y-119062500D03*
X177323750Y-119062500D03*
D11*
X172243750Y-119062500D03*
D13*
X174783750Y-113982500D03*
X168433750Y-116522500D03*
%TD*%
D12*
%TO.C,K41*%
X186213750Y-119062500D03*
D11*
X191293750Y-119062500D03*
D12*
X196373750Y-119062500D03*
D13*
X193833750Y-113982500D03*
X187483750Y-116522500D03*
%TD*%
D12*
%TO.C,K42*%
X205263750Y-119062500D03*
X215423750Y-119062500D03*
D11*
X210343750Y-119062500D03*
D13*
X212883750Y-113982500D03*
X206533750Y-116522500D03*
%TD*%
D11*
%TO.C,K43*%
X229393750Y-119062500D03*
D12*
X224313750Y-119062500D03*
X234473750Y-119062500D03*
D13*
X231933750Y-113982500D03*
X225583750Y-116522500D03*
%TD*%
D12*
%TO.C,K44*%
X253523750Y-119062500D03*
X243363750Y-119062500D03*
D11*
X248443750Y-119062500D03*
D13*
X250983750Y-113982500D03*
X244633750Y-116522500D03*
%TD*%
D11*
%TO.C,K45*%
X267493750Y-119062500D03*
D12*
X262413750Y-119062500D03*
X272573750Y-119062500D03*
D13*
X270033750Y-113982500D03*
X263683750Y-116522500D03*
%TD*%
D11*
%TO.C,K46*%
X286543750Y-119062500D03*
D12*
X281463750Y-119062500D03*
X291623750Y-119062500D03*
D13*
X289083750Y-113982500D03*
X282733750Y-116522500D03*
%TD*%
D11*
%TO.C,K47*%
X305593750Y-119062500D03*
D12*
X310673750Y-119062500D03*
X300513750Y-119062500D03*
D13*
X308133750Y-113982500D03*
X301783750Y-116522500D03*
%TD*%
D12*
%TO.C,K48*%
X319563750Y-119062500D03*
D11*
X324643750Y-119062500D03*
D12*
X329723750Y-119062500D03*
D13*
X327183750Y-113982500D03*
X320833750Y-116522500D03*
%TD*%
D12*
%TO.C,K49*%
X33813750Y-138112500D03*
X43973750Y-138112500D03*
D11*
X38893750Y-138112500D03*
D13*
X41433750Y-133032500D03*
X35083750Y-135572500D03*
%TD*%
D12*
%TO.C,K50*%
X52863750Y-138112500D03*
X63023750Y-138112500D03*
D11*
X57943750Y-138112500D03*
D13*
X60483750Y-133032500D03*
X54133750Y-135572500D03*
%TD*%
D12*
%TO.C,K51*%
X71913750Y-138112500D03*
D11*
X76993750Y-138112500D03*
D12*
X82073750Y-138112500D03*
D13*
X79533750Y-133032500D03*
X73183750Y-135572500D03*
%TD*%
D12*
%TO.C,K52*%
X101123750Y-138112500D03*
D11*
X96043750Y-138112500D03*
D12*
X90963750Y-138112500D03*
D13*
X98583750Y-133032500D03*
X92233750Y-135572500D03*
%TD*%
D11*
%TO.C,K53*%
X115093750Y-138112500D03*
D12*
X120173750Y-138112500D03*
X110013750Y-138112500D03*
D13*
X117633750Y-133032500D03*
X111283750Y-135572500D03*
%TD*%
D11*
%TO.C,K54*%
X134143750Y-138112500D03*
D12*
X129063750Y-138112500D03*
D13*
X136683750Y-133032500D03*
X130333750Y-135572500D03*
%TD*%
D12*
%TO.C,K55*%
X158273750Y-138112500D03*
D11*
X153193750Y-138112500D03*
D13*
X155733750Y-133032500D03*
X149383750Y-135572500D03*
%TD*%
D12*
%TO.C,K56*%
X167163750Y-138112500D03*
X177323750Y-138112500D03*
D11*
X172243750Y-138112500D03*
D13*
X174783750Y-133032500D03*
X168433750Y-135572500D03*
%TD*%
D11*
%TO.C,K57*%
X191293750Y-138112500D03*
D12*
X186213750Y-138112500D03*
X196373750Y-138112500D03*
D13*
X193833750Y-133032500D03*
X187483750Y-135572500D03*
%TD*%
D12*
%TO.C,K58*%
X205263750Y-138112500D03*
D11*
X210343750Y-138112500D03*
D13*
X212883750Y-133032500D03*
X206533750Y-135572500D03*
%TD*%
D12*
%TO.C,K59*%
X234473750Y-138112500D03*
D11*
X229393750Y-138112500D03*
D13*
X231933750Y-133032500D03*
X225583750Y-135572500D03*
%TD*%
D11*
%TO.C,K60*%
X248443750Y-138112500D03*
D12*
X253523750Y-138112500D03*
X243363750Y-138112500D03*
D13*
X250983750Y-133032500D03*
X244633750Y-135572500D03*
%TD*%
D12*
%TO.C,K61*%
X262413750Y-138112500D03*
D11*
X267493750Y-138112500D03*
D12*
X272573750Y-138112500D03*
D13*
X270033750Y-133032500D03*
X263683750Y-135572500D03*
%TD*%
D11*
%TO.C,K62*%
X286543750Y-138112500D03*
D12*
X281463750Y-138112500D03*
X291623750Y-138112500D03*
D13*
X289083750Y-133032500D03*
X282733750Y-135572500D03*
%TD*%
D12*
%TO.C,K63*%
X310673750Y-138112500D03*
X300513750Y-138112500D03*
D11*
X305593750Y-138112500D03*
D13*
X308133750Y-133032500D03*
X301783750Y-135572500D03*
%TD*%
D11*
%TO.C,K64*%
X324643750Y-138112500D03*
D12*
X329723750Y-138112500D03*
X319563750Y-138112500D03*
D13*
X327183750Y-133032500D03*
X320833750Y-135572500D03*
%TD*%
D12*
%TO.C,K1*%
X33813750Y-80962500D03*
D11*
X38893750Y-80962500D03*
D12*
X43973750Y-80962500D03*
D13*
X41433750Y-75882500D03*
X35083750Y-78422500D03*
%TD*%
D14*
%TO.C,H1*%
X67468750Y-90481800D03*
%TD*%
%TO.C,H2*%
X143668750Y-90487500D03*
%TD*%
%TO.C,H3*%
X219868750Y-90481800D03*
%TD*%
%TO.C,H4*%
X296063950Y-90481800D03*
%TD*%
%TO.C,H5*%
X67468750Y-128579400D03*
%TD*%
%TO.C,H6*%
X143668750Y-128585100D03*
%TD*%
D11*
%TO.C,K4*%
X96043750Y-80962500D03*
D12*
X101123750Y-80962500D03*
X90963750Y-80962500D03*
D13*
X98583750Y-75882500D03*
X92233750Y-78422500D03*
%TD*%
D11*
%TO.C,K5*%
X115093750Y-80962500D03*
D12*
X120173750Y-80962500D03*
X110013750Y-80962500D03*
D13*
X117633750Y-75882500D03*
X111283750Y-78422500D03*
%TD*%
D12*
%TO.C,K21*%
X120173750Y-100012500D03*
X110013750Y-100012500D03*
D11*
X115093750Y-100012500D03*
D13*
X117633750Y-94932500D03*
X111283750Y-97472500D03*
%TD*%
D12*
%TO.C,K20*%
X101123750Y-100012500D03*
D11*
X96043750Y-100012500D03*
D12*
X90963750Y-100012500D03*
D13*
X98583750Y-94932500D03*
X92233750Y-97472500D03*
%TD*%
D11*
%TO.C,K54.1*%
X143668750Y-138112500D03*
D15*
X138808750Y-138112500D03*
X148518750Y-138102500D03*
D13*
X146208750Y-133032500D03*
X139858750Y-135572500D03*
%TD*%
D14*
%TO.C,H7*%
X219868750Y-128579400D03*
%TD*%
%TO.C,H8*%
X296063950Y-128579400D03*
%TD*%
D15*
%TO.C,K58.1*%
X224728750Y-138102500D03*
X215018750Y-138112500D03*
D11*
X219868750Y-138112500D03*
D13*
X222408750Y-133032500D03*
X216058750Y-135572500D03*
%TD*%
D16*
%TO.C,J0*%
X50515000Y-77555400D03*
X44735000Y-77555400D03*
D17*
X43305000Y-73905400D03*
D18*
X43305000Y-78085400D03*
D17*
X51945000Y-73905400D03*
D18*
X51945000Y-78085400D03*
%TD*%
M02*
