%TF.GenerationSoftware,KiCad,Pcbnew,7.0.2*%
%TF.CreationDate,2023-09-13T20:03:04-04:00*%
%TF.ProjectId,QuicksilverStorm,51756963-6b73-4696-9c76-657253746f72,Mark 2 Rev F*%
%TF.SameCoordinates,Original*%
%TF.FileFunction,Copper,L4,Bot*%
%TF.FilePolarity,Positive*%
%FSLAX46Y46*%
G04 Gerber Fmt 4.6, Leading zero omitted, Abs format (unit mm)*
G04 Created by KiCad (PCBNEW 7.0.2) date 2023-09-13 20:03:04*
%MOMM*%
%LPD*%
G01*
G04 APERTURE LIST*
G04 Aperture macros list*
%AMRoundRect*
0 Rectangle with rounded corners*
0 $1 Rounding radius*
0 $2 $3 $4 $5 $6 $7 $8 $9 X,Y pos of 4 corners*
0 Add a 4 corners polygon primitive as box body*
4,1,4,$2,$3,$4,$5,$6,$7,$8,$9,$2,$3,0*
0 Add four circle primitives for the rounded corners*
1,1,$1+$1,$2,$3*
1,1,$1+$1,$4,$5*
1,1,$1+$1,$6,$7*
1,1,$1+$1,$8,$9*
0 Add four rect primitives between the rounded corners*
20,1,$1+$1,$2,$3,$4,$5,0*
20,1,$1+$1,$4,$5,$6,$7,0*
20,1,$1+$1,$6,$7,$8,$9,0*
20,1,$1+$1,$8,$9,$2,$3,0*%
G04 Aperture macros list end*
%TA.AperFunction,ComponentPad*%
%ADD10C,2.286000*%
%TD*%
%TA.AperFunction,ComponentPad*%
%ADD11C,2.032000*%
%TD*%
%TA.AperFunction,SMDPad,CuDef*%
%ADD12RoundRect,0.147500X0.172500X-0.147500X0.172500X0.147500X-0.172500X0.147500X-0.172500X-0.147500X0*%
%TD*%
%TA.AperFunction,SMDPad,CuDef*%
%ADD13RoundRect,0.147500X-0.172500X0.147500X-0.172500X-0.147500X0.172500X-0.147500X0.172500X0.147500X0*%
%TD*%
%TA.AperFunction,SMDPad,CuDef*%
%ADD14RoundRect,0.147500X-0.147500X-0.172500X0.147500X-0.172500X0.147500X0.172500X-0.147500X0.172500X0*%
%TD*%
%TA.AperFunction,SMDPad,CuDef*%
%ADD15RoundRect,0.050000X0.387500X0.050000X-0.387500X0.050000X-0.387500X-0.050000X0.387500X-0.050000X0*%
%TD*%
%TA.AperFunction,SMDPad,CuDef*%
%ADD16RoundRect,0.050000X0.050000X0.387500X-0.050000X0.387500X-0.050000X-0.387500X0.050000X-0.387500X0*%
%TD*%
%TA.AperFunction,SMDPad,CuDef*%
%ADD17R,3.050000X3.050000*%
%TD*%
%TA.AperFunction,SMDPad,CuDef*%
%ADD18R,0.700000X0.600000*%
%TD*%
%TA.AperFunction,SMDPad,CuDef*%
%ADD19RoundRect,0.147500X0.147500X0.172500X-0.147500X0.172500X-0.147500X-0.172500X0.147500X-0.172500X0*%
%TD*%
%TA.AperFunction,SMDPad,CuDef*%
%ADD20R,0.600000X1.450000*%
%TD*%
%TA.AperFunction,SMDPad,CuDef*%
%ADD21R,0.300000X1.450000*%
%TD*%
%TA.AperFunction,ComponentPad*%
%ADD22O,1.000000X1.600000*%
%TD*%
%TA.AperFunction,ComponentPad*%
%ADD23O,1.000000X2.100000*%
%TD*%
%TA.AperFunction,SMDPad,CuDef*%
%ADD24R,2.000000X4.200000*%
%TD*%
%TA.AperFunction,SMDPad,CuDef*%
%ADD25RoundRect,0.150000X-0.150000X-0.625000X0.150000X-0.625000X0.150000X0.625000X-0.150000X0.625000X0*%
%TD*%
%TA.AperFunction,SMDPad,CuDef*%
%ADD26RoundRect,0.250000X-0.350000X-0.650000X0.350000X-0.650000X0.350000X0.650000X-0.350000X0.650000X0*%
%TD*%
%TA.AperFunction,SMDPad,CuDef*%
%ADD27RoundRect,0.125000X0.250000X0.125000X-0.250000X0.125000X-0.250000X-0.125000X0.250000X-0.125000X0*%
%TD*%
%TA.AperFunction,SMDPad,CuDef*%
%ADD28R,1.587400X4.300000*%
%TD*%
%TA.AperFunction,SMDPad,CuDef*%
%ADD29R,3.700000X1.100000*%
%TD*%
%TA.AperFunction,SMDPad,CuDef*%
%ADD30R,0.400000X1.900000*%
%TD*%
%TA.AperFunction,SMDPad,CuDef*%
%ADD31RoundRect,0.150000X-0.512500X-0.150000X0.512500X-0.150000X0.512500X0.150000X-0.512500X0.150000X0*%
%TD*%
%TA.AperFunction,SMDPad,CuDef*%
%ADD32RoundRect,0.150000X0.150000X-0.512500X0.150000X0.512500X-0.150000X0.512500X-0.150000X-0.512500X0*%
%TD*%
%TA.AperFunction,SMDPad,CuDef*%
%ADD33R,1.100000X1.800000*%
%TD*%
%TA.AperFunction,ComponentPad*%
%ADD34R,1.700000X1.700000*%
%TD*%
%TA.AperFunction,ComponentPad*%
%ADD35O,1.700000X1.700000*%
%TD*%
%TA.AperFunction,ViaPad*%
%ADD36C,0.600000*%
%TD*%
%TA.AperFunction,ViaPad*%
%ADD37C,0.800000*%
%TD*%
%TA.AperFunction,Conductor*%
%ADD38C,0.300000*%
%TD*%
%TA.AperFunction,Conductor*%
%ADD39C,0.200000*%
%TD*%
%TA.AperFunction,Conductor*%
%ADD40C,0.500000*%
%TD*%
G04 APERTURE END LIST*
D10*
%TO.P,K2,1*%
%TO.N,14*%
X55403750Y-86042500D03*
D11*
X52943750Y-84762500D03*
D10*
%TO.P,K2,2*%
%TO.N,Net-(D2-A)*%
X61753750Y-83502500D03*
D11*
X57943750Y-86862500D03*
%TD*%
D10*
%TO.P,K3,1*%
%TO.N,13*%
X74453750Y-86029800D03*
D11*
X71993750Y-84749800D03*
D10*
%TO.P,K3,2*%
%TO.N,Net-(D3-A)*%
X80803750Y-83489800D03*
D11*
X76993750Y-86849800D03*
%TD*%
D10*
%TO.P,K6,1*%
%TO.N,10*%
X131603750Y-86042500D03*
D11*
X129143750Y-84762500D03*
D10*
%TO.P,K6,2*%
%TO.N,Net-(D6-A)*%
X137953750Y-83502500D03*
D11*
X134143750Y-86862500D03*
%TD*%
D10*
%TO.P,K7,1*%
%TO.N,9*%
X150653750Y-86042500D03*
D11*
X148193750Y-84762500D03*
D10*
%TO.P,K7,2*%
%TO.N,Net-(D7-A)*%
X157003750Y-83502500D03*
D11*
X153193750Y-86862500D03*
%TD*%
D10*
%TO.P,K8,1*%
%TO.N,8*%
X169703750Y-86042500D03*
D11*
X167243750Y-84762500D03*
D10*
%TO.P,K8,2*%
%TO.N,Net-(D8-A)*%
X176053750Y-83502500D03*
D11*
X172243750Y-86862500D03*
%TD*%
D10*
%TO.P,K9,1*%
%TO.N,7*%
X188753750Y-86042500D03*
D11*
X186293750Y-84762500D03*
D10*
%TO.P,K9,2*%
%TO.N,Net-(D9-A)*%
X195103750Y-83502500D03*
D11*
X191293750Y-86862500D03*
%TD*%
D10*
%TO.P,K10,1*%
%TO.N,6*%
X207803750Y-86042500D03*
D11*
X205343750Y-84762500D03*
D10*
%TO.P,K10,2*%
%TO.N,Net-(D10-A)*%
X214153750Y-83502500D03*
D11*
X210343750Y-86862500D03*
%TD*%
D10*
%TO.P,K11,1*%
%TO.N,5*%
X226853750Y-86042500D03*
D11*
X224393750Y-84762500D03*
D10*
%TO.P,K11,2*%
%TO.N,Net-(D11-A)*%
X233203750Y-83502500D03*
D11*
X229393750Y-86862500D03*
%TD*%
D10*
%TO.P,K12,1*%
%TO.N,4*%
X245903750Y-86042500D03*
D11*
X243443750Y-84762500D03*
D10*
%TO.P,K12,2*%
%TO.N,Net-(D12-A)*%
X252253750Y-83502500D03*
D11*
X248443750Y-86862500D03*
%TD*%
D10*
%TO.P,K13,1*%
%TO.N,3*%
X264953750Y-86042500D03*
D11*
X262493750Y-84762500D03*
D10*
%TO.P,K13,2*%
%TO.N,Net-(D13-A)*%
X271303750Y-83502500D03*
D11*
X267493750Y-86862500D03*
%TD*%
D10*
%TO.P,K14,1*%
%TO.N,2*%
X284003750Y-86042500D03*
D11*
X281543750Y-84762500D03*
D10*
%TO.P,K14,2*%
%TO.N,Net-(D14-A)*%
X290353750Y-83502500D03*
D11*
X286543750Y-86862500D03*
%TD*%
D10*
%TO.P,K15,1*%
%TO.N,1*%
X303053750Y-86042500D03*
D11*
X300593750Y-84762500D03*
D10*
%TO.P,K15,2*%
%TO.N,Net-(D15-A)*%
X309403750Y-83502500D03*
D11*
X305593750Y-86862500D03*
%TD*%
D10*
%TO.P,K16,1*%
%TO.N,0*%
X322103750Y-86042500D03*
D11*
X319643750Y-84762500D03*
D10*
%TO.P,K16,2*%
%TO.N,Net-(D16-A)*%
X328453750Y-83502500D03*
D11*
X324643750Y-86862500D03*
%TD*%
D10*
%TO.P,K17,1*%
%TO.N,15*%
X36353750Y-105092500D03*
D11*
X33893750Y-103812500D03*
D10*
%TO.P,K17,2*%
%TO.N,Net-(D17-A)*%
X42703750Y-102552500D03*
D11*
X38893750Y-105912500D03*
%TD*%
D10*
%TO.P,K18,1*%
%TO.N,14*%
X55403750Y-105092500D03*
D11*
X52943750Y-103812500D03*
D10*
%TO.P,K18,2*%
%TO.N,Net-(D18-A)*%
X61753750Y-102552500D03*
D11*
X57943750Y-105912500D03*
%TD*%
D10*
%TO.P,K19,1*%
%TO.N,13*%
X74453750Y-105092500D03*
D11*
X71993750Y-103812500D03*
D10*
%TO.P,K19,2*%
%TO.N,Net-(D19-A)*%
X80803750Y-102552500D03*
D11*
X76993750Y-105912500D03*
%TD*%
D10*
%TO.P,K22,1*%
%TO.N,10*%
X131603750Y-105092500D03*
D11*
X129143750Y-103812500D03*
D10*
%TO.P,K22,2*%
%TO.N,Net-(D22-A)*%
X137953750Y-102552500D03*
D11*
X134143750Y-105912500D03*
%TD*%
D10*
%TO.P,K23,1*%
%TO.N,9*%
X150653750Y-105092500D03*
D11*
X148193750Y-103812500D03*
D10*
%TO.P,K23,2*%
%TO.N,Net-(D23-A)*%
X157003750Y-102552500D03*
D11*
X153193750Y-105912500D03*
%TD*%
D10*
%TO.P,K24,1*%
%TO.N,8*%
X169703750Y-105092500D03*
D11*
X167243750Y-103812500D03*
D10*
%TO.P,K24,2*%
%TO.N,Net-(D24-A)*%
X176053750Y-102552500D03*
D11*
X172243750Y-105912500D03*
%TD*%
D10*
%TO.P,K25,1*%
%TO.N,7*%
X188753750Y-105092500D03*
D11*
X186293750Y-103812500D03*
D10*
%TO.P,K25,2*%
%TO.N,Net-(D25-A)*%
X195103750Y-102552500D03*
D11*
X191293750Y-105912500D03*
%TD*%
D10*
%TO.P,K26,1*%
%TO.N,6*%
X207803750Y-105092500D03*
D11*
X205343750Y-103812500D03*
D10*
%TO.P,K26,2*%
%TO.N,Net-(D26-A)*%
X214153750Y-102552500D03*
D11*
X210343750Y-105912500D03*
%TD*%
D10*
%TO.P,K27,1*%
%TO.N,5*%
X226853750Y-105092500D03*
D11*
X224393750Y-103812500D03*
D10*
%TO.P,K27,2*%
%TO.N,Net-(D27-A)*%
X233203750Y-102552500D03*
D11*
X229393750Y-105912500D03*
%TD*%
D10*
%TO.P,K28,1*%
%TO.N,4*%
X245903750Y-105092500D03*
D11*
X243443750Y-103812500D03*
D10*
%TO.P,K28,2*%
%TO.N,Net-(D28-A)*%
X252253750Y-102552500D03*
D11*
X248443750Y-105912500D03*
%TD*%
D10*
%TO.P,K29,1*%
%TO.N,3*%
X264953750Y-105092500D03*
D11*
X262493750Y-103812500D03*
D10*
%TO.P,K29,2*%
%TO.N,Net-(D29-A)*%
X271303750Y-102552500D03*
D11*
X267493750Y-105912500D03*
%TD*%
D10*
%TO.P,K30,1*%
%TO.N,2*%
X284003750Y-105092500D03*
D11*
X281543750Y-103812500D03*
D10*
%TO.P,K30,2*%
%TO.N,Net-(D30-A)*%
X290353750Y-102552500D03*
D11*
X286543750Y-105912500D03*
%TD*%
D10*
%TO.P,K31,1*%
%TO.N,1*%
X303053750Y-105092500D03*
D11*
X300593750Y-103812500D03*
D10*
%TO.P,K31,2*%
%TO.N,Net-(D31-A)*%
X309403750Y-102552500D03*
D11*
X305593750Y-105912500D03*
%TD*%
D10*
%TO.P,K32,1*%
%TO.N,0*%
X322103750Y-105092500D03*
D11*
X319643750Y-103812500D03*
D10*
%TO.P,K32,2*%
%TO.N,Net-(D32-A)*%
X328453750Y-102552500D03*
D11*
X324643750Y-105912500D03*
%TD*%
D10*
%TO.P,K33,1*%
%TO.N,15*%
X36353750Y-124142500D03*
D11*
X33893750Y-122862500D03*
D10*
%TO.P,K33,2*%
%TO.N,Net-(D33-A)*%
X42703750Y-121602500D03*
D11*
X38893750Y-124962500D03*
%TD*%
D10*
%TO.P,K34,1*%
%TO.N,14*%
X55403750Y-124142500D03*
D11*
X52943750Y-122862500D03*
D10*
%TO.P,K34,2*%
%TO.N,Net-(D34-A)*%
X61753750Y-121602500D03*
D11*
X57943750Y-124962500D03*
%TD*%
D10*
%TO.P,K35,1*%
%TO.N,13*%
X74453750Y-124142500D03*
D11*
X71993750Y-122862500D03*
D10*
%TO.P,K35,2*%
%TO.N,Net-(D35-A)*%
X80803750Y-121602500D03*
D11*
X76993750Y-124962500D03*
%TD*%
D10*
%TO.P,K36,1*%
%TO.N,12*%
X93503750Y-124142500D03*
D11*
X91043750Y-122862500D03*
D10*
%TO.P,K36,2*%
%TO.N,Net-(D36-A)*%
X99853750Y-121602500D03*
D11*
X96043750Y-124962500D03*
%TD*%
D10*
%TO.P,K37,1*%
%TO.N,11*%
X112553750Y-124142500D03*
D11*
X110093750Y-122862500D03*
D10*
%TO.P,K37,2*%
%TO.N,Net-(D37-A)*%
X118903750Y-121602500D03*
D11*
X115093750Y-124962500D03*
%TD*%
D10*
%TO.P,K38,1*%
%TO.N,10*%
X131603750Y-124142500D03*
D11*
X129143750Y-122862500D03*
D10*
%TO.P,K38,2*%
%TO.N,Net-(D38-A)*%
X137953750Y-121602500D03*
D11*
X134143750Y-124962500D03*
%TD*%
D10*
%TO.P,K39,1*%
%TO.N,9*%
X150653750Y-124142500D03*
D11*
X148193750Y-122862500D03*
D10*
%TO.P,K39,2*%
%TO.N,Net-(D39-A)*%
X157003750Y-121602500D03*
D11*
X153193750Y-124962500D03*
%TD*%
D10*
%TO.P,K40,1*%
%TO.N,8*%
X169703750Y-124142500D03*
D11*
X167243750Y-122862500D03*
D10*
%TO.P,K40,2*%
%TO.N,Net-(D40-A)*%
X176053750Y-121602500D03*
D11*
X172243750Y-124962500D03*
%TD*%
D10*
%TO.P,K41,1*%
%TO.N,7*%
X188753750Y-124142500D03*
D11*
X186293750Y-122862500D03*
D10*
%TO.P,K41,2*%
%TO.N,Net-(D41-A)*%
X195103750Y-121602500D03*
D11*
X191293750Y-124962500D03*
%TD*%
D10*
%TO.P,K42,1*%
%TO.N,6*%
X207803750Y-124142500D03*
D11*
X205343750Y-122862500D03*
D10*
%TO.P,K42,2*%
%TO.N,Net-(D42-A)*%
X214153750Y-121602500D03*
D11*
X210343750Y-124962500D03*
%TD*%
D10*
%TO.P,K43,1*%
%TO.N,5*%
X226853750Y-124142500D03*
D11*
X224393750Y-122862500D03*
D10*
%TO.P,K43,2*%
%TO.N,Net-(D43-A)*%
X233203750Y-121602500D03*
D11*
X229393750Y-124962500D03*
%TD*%
D10*
%TO.P,K44,1*%
%TO.N,4*%
X245903750Y-124142500D03*
D11*
X243443750Y-122862500D03*
D10*
%TO.P,K44,2*%
%TO.N,Net-(D44-A)*%
X252253750Y-121602500D03*
D11*
X248443750Y-124962500D03*
%TD*%
D10*
%TO.P,K45,1*%
%TO.N,3*%
X264953750Y-124142500D03*
D11*
X262493750Y-122862500D03*
D10*
%TO.P,K45,2*%
%TO.N,Net-(D45-A)*%
X271303750Y-121602500D03*
D11*
X267493750Y-124962500D03*
%TD*%
D10*
%TO.P,K46,1*%
%TO.N,2*%
X284003750Y-124142500D03*
D11*
X281543750Y-122862500D03*
D10*
%TO.P,K46,2*%
%TO.N,Net-(D46-A)*%
X290353750Y-121602500D03*
D11*
X286543750Y-124962500D03*
%TD*%
D10*
%TO.P,K47,1*%
%TO.N,1*%
X303053750Y-124142500D03*
D11*
X300593750Y-122862500D03*
D10*
%TO.P,K47,2*%
%TO.N,Net-(D47-A)*%
X309403750Y-121602500D03*
D11*
X305593750Y-124962500D03*
%TD*%
D10*
%TO.P,K48,1*%
%TO.N,0*%
X322103750Y-124142500D03*
D11*
X319643750Y-122862500D03*
D10*
%TO.P,K48,2*%
%TO.N,Net-(D48-A)*%
X328453750Y-121602500D03*
D11*
X324643750Y-124962500D03*
%TD*%
D10*
%TO.P,K49,1*%
%TO.N,15*%
X36353750Y-143192500D03*
D11*
X33893750Y-141912500D03*
D10*
%TO.P,K49,2*%
%TO.N,Net-(D49-A)*%
X42703750Y-140652500D03*
D11*
X38893750Y-144012500D03*
%TD*%
D10*
%TO.P,K50,1*%
%TO.N,14*%
X55403750Y-143192500D03*
D11*
X52943750Y-141912500D03*
D10*
%TO.P,K50,2*%
%TO.N,Net-(D50-A)*%
X61753750Y-140652500D03*
D11*
X57943750Y-144012500D03*
%TD*%
D10*
%TO.P,K51,1*%
%TO.N,13*%
X74453750Y-143192500D03*
D11*
X71993750Y-141912500D03*
D10*
%TO.P,K51,2*%
%TO.N,Net-(D51-A)*%
X80803750Y-140652500D03*
D11*
X76993750Y-144012500D03*
%TD*%
D10*
%TO.P,K52,1*%
%TO.N,12*%
X93503750Y-143192500D03*
D11*
X91043750Y-141912500D03*
D10*
%TO.P,K52,2*%
%TO.N,Net-(D52-A)*%
X99853750Y-140652500D03*
D11*
X96043750Y-144012500D03*
%TD*%
D10*
%TO.P,K53,1*%
%TO.N,11*%
X112553750Y-143192500D03*
D11*
X110093750Y-141912500D03*
D10*
%TO.P,K53,2*%
%TO.N,Net-(D53-A)*%
X118903750Y-140652500D03*
D11*
X115093750Y-144012500D03*
%TD*%
D10*
%TO.P,K54,1*%
%TO.N,10*%
X131603750Y-143192500D03*
D11*
X129143750Y-141912500D03*
D10*
%TO.P,K54,2*%
%TO.N,Net-(D54-A)*%
X137953750Y-140652500D03*
D11*
X134143750Y-144012500D03*
%TD*%
D10*
%TO.P,K55,1*%
%TO.N,9*%
X150653750Y-143192500D03*
D11*
X148193750Y-141912500D03*
D10*
%TO.P,K55,2*%
%TO.N,Net-(D55-A)*%
X157003750Y-140652500D03*
D11*
X153193750Y-144012500D03*
%TD*%
D10*
%TO.P,K56,1*%
%TO.N,8*%
X169703750Y-143192500D03*
D11*
X167243750Y-141912500D03*
D10*
%TO.P,K56,2*%
%TO.N,Net-(D56-A)*%
X176053750Y-140652500D03*
D11*
X172243750Y-144012500D03*
%TD*%
D10*
%TO.P,K57,1*%
%TO.N,7*%
X188753750Y-143192500D03*
D11*
X186293750Y-141912500D03*
D10*
%TO.P,K57,2*%
%TO.N,Net-(D57-A)*%
X195103750Y-140652500D03*
D11*
X191293750Y-144012500D03*
%TD*%
D10*
%TO.P,K58,1*%
%TO.N,6*%
X207803750Y-143192500D03*
D11*
X205343750Y-141912500D03*
D10*
%TO.P,K58,2*%
%TO.N,Net-(D58-A)*%
X214153750Y-140652500D03*
D11*
X210343750Y-144012500D03*
%TD*%
D10*
%TO.P,K59,1*%
%TO.N,5*%
X226853750Y-143192500D03*
D11*
X224393750Y-141912500D03*
D10*
%TO.P,K59,2*%
%TO.N,Net-(D59-A)*%
X233203750Y-140652500D03*
D11*
X229393750Y-144012500D03*
%TD*%
D10*
%TO.P,K60,1*%
%TO.N,4*%
X245903750Y-143192500D03*
D11*
X243443750Y-141912500D03*
D10*
%TO.P,K60,2*%
%TO.N,Net-(D60-A)*%
X252253750Y-140652500D03*
D11*
X248443750Y-144012500D03*
%TD*%
D10*
%TO.P,K61,1*%
%TO.N,3*%
X264953750Y-143192500D03*
D11*
X262493750Y-141912500D03*
D10*
%TO.P,K61,2*%
%TO.N,Net-(D61-A)*%
X271303750Y-140652500D03*
D11*
X267493750Y-144012500D03*
%TD*%
D10*
%TO.P,K62,1*%
%TO.N,2*%
X284003750Y-143192500D03*
D11*
X281543750Y-141912500D03*
D10*
%TO.P,K62,2*%
%TO.N,Net-(D62-A)*%
X290353750Y-140652500D03*
D11*
X286543750Y-144012500D03*
%TD*%
D10*
%TO.P,K63,1*%
%TO.N,1*%
X303053750Y-143192500D03*
D11*
X300593750Y-141912500D03*
D10*
%TO.P,K63,2*%
%TO.N,Net-(D63-A)*%
X309403750Y-140652500D03*
D11*
X305593750Y-144012500D03*
%TD*%
D10*
%TO.P,K64,1*%
%TO.N,0*%
X322103750Y-143192500D03*
D11*
X319643750Y-141912500D03*
D10*
%TO.P,K64,2*%
%TO.N,Net-(D64-A)*%
X328453750Y-140652500D03*
D11*
X324643750Y-144012500D03*
%TD*%
D10*
%TO.P,K1,1*%
%TO.N,15*%
X36353750Y-86042500D03*
D11*
X33893750Y-84762500D03*
D10*
%TO.P,K1,2*%
%TO.N,Net-(D1-A)*%
X42703750Y-83502500D03*
D11*
X38893750Y-86862500D03*
%TD*%
D10*
%TO.P,K4,1*%
%TO.N,12*%
X93503750Y-86042500D03*
D11*
X91043750Y-84762500D03*
D10*
%TO.P,K4,2*%
%TO.N,Net-(D4-A)*%
X99853750Y-83502500D03*
D11*
X96043750Y-86862500D03*
%TD*%
D10*
%TO.P,K5,1*%
%TO.N,11*%
X112553750Y-86042500D03*
D11*
X110093750Y-84762500D03*
D10*
%TO.P,K5,2*%
%TO.N,Net-(D5-A)*%
X118903750Y-83502500D03*
D11*
X115093750Y-86862500D03*
%TD*%
D10*
%TO.P,K21,1*%
%TO.N,11*%
X112553750Y-105092500D03*
D11*
X110093750Y-103812500D03*
D10*
%TO.P,K21,2*%
%TO.N,Net-(D21-A)*%
X118903750Y-102552500D03*
D11*
X115093750Y-105912500D03*
%TD*%
D10*
%TO.P,K20,1*%
%TO.N,12*%
X93503750Y-105092500D03*
D11*
X91043750Y-103812500D03*
D10*
%TO.P,K20,2*%
%TO.N,Net-(D20-A)*%
X99853750Y-102552500D03*
D11*
X96043750Y-105912500D03*
%TD*%
D10*
%TO.P,K54.1,1*%
%TO.N,10*%
X146208750Y-133032500D03*
D11*
X148668750Y-134312500D03*
D10*
%TO.P,K54.1,2*%
%TO.N,Net-(D54-A)*%
X139858750Y-135572500D03*
D11*
X143668750Y-132212500D03*
%TD*%
D10*
%TO.P,K58.1,1*%
%TO.N,6*%
X222408750Y-133032500D03*
D11*
X224868750Y-134312500D03*
D10*
%TO.P,K58.1,2*%
%TO.N,Net-(D58-A)*%
X216058750Y-135572500D03*
D11*
X219868750Y-132212500D03*
%TD*%
D12*
%TO.P,C1,1*%
%TO.N,+3V3*%
X83693000Y-84940000D03*
%TO.P,C1,2*%
%TO.N,GND*%
X83693000Y-83970000D03*
%TD*%
D13*
%TO.P,C2,1*%
%TO.N,+3V3*%
X84836000Y-95781000D03*
%TO.P,C2,2*%
%TO.N,GND*%
X84836000Y-96751000D03*
%TD*%
D14*
%TO.P,C3,1*%
%TO.N,+3V3*%
X91733750Y-91712500D03*
%TO.P,C3,2*%
%TO.N,GND*%
X92703750Y-91712500D03*
%TD*%
D12*
%TO.P,C6,1*%
%TO.N,+3V3*%
X91568750Y-87472500D03*
%TO.P,C6,2*%
%TO.N,GND*%
X91568750Y-86502500D03*
%TD*%
%TO.P,C8,1*%
%TO.N,+3V3*%
X86368750Y-84937500D03*
%TO.P,C8,2*%
%TO.N,GND*%
X86368750Y-83967500D03*
%TD*%
D15*
%TO.P,U0,1,IOVDD*%
%TO.N,+3V3*%
X89924500Y-87887500D03*
%TO.P,U0,2,GPIO0*%
%TO.N,0*%
X89924500Y-88287500D03*
%TO.P,U0,3,GPIO1*%
%TO.N,1*%
X89924500Y-88687500D03*
%TO.P,U0,4,GPIO2*%
%TO.N,2*%
X89924500Y-89087500D03*
%TO.P,U0,5,GPIO3*%
%TO.N,3*%
X89924500Y-89487500D03*
%TO.P,U0,6,GPIO4*%
%TO.N,4*%
X89924500Y-89887500D03*
%TO.P,U0,7,GPIO5*%
%TO.N,5*%
X89924500Y-90287500D03*
%TO.P,U0,8,GPIO6*%
%TO.N,6*%
X89924500Y-90687500D03*
%TO.P,U0,9,GPIO7*%
%TO.N,7*%
X89924500Y-91087500D03*
%TO.P,U0,10,IOVDD*%
%TO.N,+3V3*%
X89924500Y-91487500D03*
%TO.P,U0,11,GPIO8*%
%TO.N,8*%
X89924500Y-91887500D03*
%TO.P,U0,12,GPIO9*%
%TO.N,9*%
X89924500Y-92287500D03*
%TO.P,U0,13,GPIO10*%
%TO.N,10*%
X89924500Y-92687500D03*
%TO.P,U0,14,GPIO11*%
%TO.N,11*%
X89924500Y-93087500D03*
D16*
%TO.P,U0,15,GPIO12*%
%TO.N,12*%
X89087000Y-93925000D03*
%TO.P,U0,16,GPIO13*%
%TO.N,13*%
X88687000Y-93925000D03*
%TO.P,U0,17,GPIO14*%
%TO.N,14*%
X88287000Y-93925000D03*
%TO.P,U0,18,GPIO15*%
%TO.N,15*%
X87887000Y-93925000D03*
%TO.P,U0,19,TESTEN*%
%TO.N,GND*%
X87487000Y-93925000D03*
%TO.P,U0,20,XIN*%
%TO.N,XIN*%
X87087000Y-93925000D03*
%TO.P,U0,21,XOUT*%
%TO.N,XOUT*%
X86687000Y-93925000D03*
%TO.P,U0,22,IOVDD*%
%TO.N,+3V3*%
X86287000Y-93925000D03*
%TO.P,U0,23,DVDD*%
%TO.N,+1V1*%
X85887000Y-93925000D03*
%TO.P,U0,24,SWCLK*%
%TO.N,unconnected-(U0-SWCLK-Pad24)*%
X85487000Y-93925000D03*
%TO.P,U0,25,SWDIO*%
%TO.N,unconnected-(U0-SWDIO-Pad25)*%
X85087000Y-93925000D03*
%TO.P,U0,26,RUN*%
%TO.N,~{RESET}*%
X84687000Y-93925000D03*
%TO.P,U0,27,GPIO16*%
%TO.N,16*%
X84287000Y-93925000D03*
%TO.P,U0,28,GPIO17*%
%TO.N,17*%
X83887000Y-93925000D03*
D15*
%TO.P,U0,29,GPIO18*%
%TO.N,18*%
X83049500Y-93087500D03*
%TO.P,U0,30,GPIO19*%
%TO.N,19*%
X83049500Y-92687500D03*
%TO.P,U0,31,GPIO20*%
%TO.N,20*%
X83049500Y-92287500D03*
%TO.P,U0,32,GPIO21*%
%TO.N,21*%
X83049500Y-91887500D03*
%TO.P,U0,33,IOVDD*%
%TO.N,+3V3*%
X83049500Y-91487500D03*
%TO.P,U0,34,GPIO22*%
%TO.N,22*%
X83049500Y-91087500D03*
%TO.P,U0,35,GPIO23*%
%TO.N,23*%
X83049500Y-90687500D03*
%TO.P,U0,36,GPIO24*%
%TO.N,24*%
X83049500Y-90287500D03*
%TO.P,U0,37,GPIO25*%
%TO.N,25*%
X83049500Y-89887500D03*
%TO.P,U0,38,GPIO26/ADC0*%
%TO.N,26{slash}A0*%
X83049500Y-89487500D03*
%TO.P,U0,39,GPIO27/ADC1*%
%TO.N,27{slash}A1*%
X83049500Y-89087500D03*
%TO.P,U0,40,GPIO28/ADC2*%
%TO.N,28{slash}A2*%
X83049500Y-88687500D03*
%TO.P,U0,41,GPIO29/ADC3*%
%TO.N,29{slash}A3*%
X83049500Y-88287500D03*
%TO.P,U0,42,IOVDD*%
%TO.N,+3V3*%
X83049500Y-87887500D03*
D16*
%TO.P,U0,43,ADC_AVDD*%
X83887000Y-87050000D03*
%TO.P,U0,44,VREG_VIN*%
X84287000Y-87050000D03*
%TO.P,U0,45,VREG_VOUT*%
%TO.N,+1V1*%
X84687000Y-87050000D03*
%TO.P,U0,46,USB_DM*%
%TO.N,DR-*%
X85087000Y-87050000D03*
%TO.P,U0,47,USB_DP*%
%TO.N,DR+*%
X85487000Y-87050000D03*
%TO.P,U0,48,USB_VDD*%
%TO.N,+3V3*%
X85887000Y-87050000D03*
%TO.P,U0,49,IOVDD*%
X86287000Y-87050000D03*
%TO.P,U0,50,DVDD*%
%TO.N,+1V1*%
X86687000Y-87050000D03*
%TO.P,U0,51,QSPI_SD3*%
%TO.N,SD3*%
X87087000Y-87050000D03*
%TO.P,U0,52,QSPI_SCLK*%
%TO.N,CLOCK*%
X87487000Y-87050000D03*
%TO.P,U0,53,QSPI_SD0*%
%TO.N,SD0*%
X87887000Y-87050000D03*
%TO.P,U0,54,QSPI_SD2*%
%TO.N,SD2*%
X88287000Y-87050000D03*
%TO.P,U0,55,QSPI_SD1*%
%TO.N,SD1*%
X88687000Y-87050000D03*
%TO.P,U0,56,QSPI_SS_N*%
%TO.N,CS*%
X89087000Y-87050000D03*
D17*
%TO.P,U0,57,GND*%
%TO.N,GND*%
X86487000Y-90487500D03*
%TD*%
D12*
%TO.P,C7,1*%
%TO.N,+3V3*%
X82677000Y-84940000D03*
%TO.P,C7,2*%
%TO.N,GND*%
X82677000Y-83970000D03*
%TD*%
D18*
%TO.P,D1,1,K*%
%TO.N,26{slash}A0*%
X40918750Y-88287500D03*
%TO.P,D1,2,A*%
%TO.N,Net-(D1-A)*%
X40918750Y-86887500D03*
%TD*%
%TO.P,D2,1,K*%
%TO.N,26{slash}A0*%
X59918750Y-88437500D03*
%TO.P,D2,2,A*%
%TO.N,Net-(D2-A)*%
X59918750Y-87037500D03*
%TD*%
%TO.P,D3,1,K*%
%TO.N,26{slash}A0*%
X79068750Y-88387500D03*
%TO.P,D3,2,A*%
%TO.N,Net-(D3-A)*%
X79068750Y-86987500D03*
%TD*%
%TO.P,D4,1,K*%
%TO.N,26{slash}A0*%
X98318750Y-88287500D03*
%TO.P,D4,2,A*%
%TO.N,Net-(D4-A)*%
X98318750Y-86887500D03*
%TD*%
%TO.P,D5,1,K*%
%TO.N,26{slash}A0*%
X117368750Y-88287500D03*
%TO.P,D5,2,A*%
%TO.N,Net-(D5-A)*%
X117368750Y-86887500D03*
%TD*%
%TO.P,D6,1,K*%
%TO.N,26{slash}A0*%
X136418750Y-88287500D03*
%TO.P,D6,2,A*%
%TO.N,Net-(D6-A)*%
X136418750Y-86887500D03*
%TD*%
%TO.P,D7,1,K*%
%TO.N,26{slash}A0*%
X155468750Y-88287500D03*
%TO.P,D7,2,A*%
%TO.N,Net-(D7-A)*%
X155468750Y-86887500D03*
%TD*%
%TO.P,D8,1,K*%
%TO.N,26{slash}A0*%
X174518750Y-88287500D03*
%TO.P,D8,2,A*%
%TO.N,Net-(D8-A)*%
X174518750Y-86887500D03*
%TD*%
%TO.P,D9,1,K*%
%TO.N,26{slash}A0*%
X193568750Y-88287500D03*
%TO.P,D9,2,A*%
%TO.N,Net-(D9-A)*%
X193568750Y-86887500D03*
%TD*%
%TO.P,D10,1,K*%
%TO.N,26{slash}A0*%
X212618750Y-88287500D03*
%TO.P,D10,2,A*%
%TO.N,Net-(D10-A)*%
X212618750Y-86887500D03*
%TD*%
%TO.P,D11,1,K*%
%TO.N,26{slash}A0*%
X231668750Y-88287500D03*
%TO.P,D11,2,A*%
%TO.N,Net-(D11-A)*%
X231668750Y-86887500D03*
%TD*%
%TO.P,D12,1,K*%
%TO.N,26{slash}A0*%
X250718750Y-88287500D03*
%TO.P,D12,2,A*%
%TO.N,Net-(D12-A)*%
X250718750Y-86887500D03*
%TD*%
%TO.P,D13,1,K*%
%TO.N,26{slash}A0*%
X269768750Y-88287500D03*
%TO.P,D13,2,A*%
%TO.N,Net-(D13-A)*%
X269768750Y-86887500D03*
%TD*%
%TO.P,D14,1,K*%
%TO.N,26{slash}A0*%
X288818750Y-88287500D03*
%TO.P,D14,2,A*%
%TO.N,Net-(D14-A)*%
X288818750Y-86887500D03*
%TD*%
%TO.P,D15,1,K*%
%TO.N,26{slash}A0*%
X307868750Y-88287500D03*
%TO.P,D15,2,A*%
%TO.N,Net-(D15-A)*%
X307868750Y-86887500D03*
%TD*%
%TO.P,D16,1,K*%
%TO.N,26{slash}A0*%
X326918750Y-88287500D03*
%TO.P,D16,2,A*%
%TO.N,Net-(D16-A)*%
X326918750Y-86887500D03*
%TD*%
%TO.P,D17,1,K*%
%TO.N,25*%
X40918750Y-107337500D03*
%TO.P,D17,2,A*%
%TO.N,Net-(D17-A)*%
X40918750Y-105937500D03*
%TD*%
%TO.P,D18,1,K*%
%TO.N,25*%
X60218750Y-107337500D03*
%TO.P,D18,2,A*%
%TO.N,Net-(D18-A)*%
X60218750Y-105937500D03*
%TD*%
%TO.P,D19,1,K*%
%TO.N,25*%
X79268750Y-107337500D03*
%TO.P,D19,2,A*%
%TO.N,Net-(D19-A)*%
X79268750Y-105937500D03*
%TD*%
%TO.P,D20,1,K*%
%TO.N,25*%
X98318750Y-107337500D03*
%TO.P,D20,2,A*%
%TO.N,Net-(D20-A)*%
X98318750Y-105937500D03*
%TD*%
%TO.P,D21,1,K*%
%TO.N,25*%
X117368750Y-107337500D03*
%TO.P,D21,2,A*%
%TO.N,Net-(D21-A)*%
X117368750Y-105937500D03*
%TD*%
%TO.P,D22,1,K*%
%TO.N,25*%
X136418750Y-107337500D03*
%TO.P,D22,2,A*%
%TO.N,Net-(D22-A)*%
X136418750Y-105937500D03*
%TD*%
%TO.P,D23,1,K*%
%TO.N,25*%
X155468750Y-107337500D03*
%TO.P,D23,2,A*%
%TO.N,Net-(D23-A)*%
X155468750Y-105937500D03*
%TD*%
%TO.P,D24,1,K*%
%TO.N,25*%
X174518750Y-107337500D03*
%TO.P,D24,2,A*%
%TO.N,Net-(D24-A)*%
X174518750Y-105937500D03*
%TD*%
%TO.P,D25,1,K*%
%TO.N,25*%
X193568750Y-107400000D03*
%TO.P,D25,2,A*%
%TO.N,Net-(D25-A)*%
X193568750Y-106000000D03*
%TD*%
%TO.P,D26,1,K*%
%TO.N,25*%
X212618750Y-107325000D03*
%TO.P,D26,2,A*%
%TO.N,Net-(D26-A)*%
X212618750Y-105925000D03*
%TD*%
%TO.P,D27,1,K*%
%TO.N,25*%
X231668750Y-107337500D03*
%TO.P,D27,2,A*%
%TO.N,Net-(D27-A)*%
X231668750Y-105937500D03*
%TD*%
%TO.P,D28,1,K*%
%TO.N,25*%
X250718750Y-107337500D03*
%TO.P,D28,2,A*%
%TO.N,Net-(D28-A)*%
X250718750Y-105937500D03*
%TD*%
%TO.P,D29,1,K*%
%TO.N,25*%
X269768750Y-107337500D03*
%TO.P,D29,2,A*%
%TO.N,Net-(D29-A)*%
X269768750Y-105937500D03*
%TD*%
%TO.P,D30,1,K*%
%TO.N,25*%
X288818750Y-107337500D03*
%TO.P,D30,2,A*%
%TO.N,Net-(D30-A)*%
X288818750Y-105937500D03*
%TD*%
%TO.P,D31,1,K*%
%TO.N,25*%
X307868750Y-107337500D03*
%TO.P,D31,2,A*%
%TO.N,Net-(D31-A)*%
X307868750Y-105937500D03*
%TD*%
%TO.P,D32,1,K*%
%TO.N,25*%
X326918750Y-107337500D03*
%TO.P,D32,2,A*%
%TO.N,Net-(D32-A)*%
X326918750Y-105937500D03*
%TD*%
%TO.P,D33,1,K*%
%TO.N,24*%
X40918750Y-126387500D03*
%TO.P,D33,2,A*%
%TO.N,Net-(D33-A)*%
X40918750Y-124987500D03*
%TD*%
%TO.P,D34,1,K*%
%TO.N,24*%
X60218750Y-126387500D03*
%TO.P,D34,2,A*%
%TO.N,Net-(D34-A)*%
X60218750Y-124987500D03*
%TD*%
%TO.P,D35,1,K*%
%TO.N,24*%
X79268750Y-126387500D03*
%TO.P,D35,2,A*%
%TO.N,Net-(D35-A)*%
X79268750Y-124987500D03*
%TD*%
%TO.P,D36,1,K*%
%TO.N,24*%
X98318750Y-126387500D03*
%TO.P,D36,2,A*%
%TO.N,Net-(D36-A)*%
X98318750Y-124987500D03*
%TD*%
%TO.P,D37,1,K*%
%TO.N,24*%
X117368750Y-126387500D03*
%TO.P,D37,2,A*%
%TO.N,Net-(D37-A)*%
X117368750Y-124987500D03*
%TD*%
%TO.P,D38,1,K*%
%TO.N,24*%
X136418750Y-126337500D03*
%TO.P,D38,2,A*%
%TO.N,Net-(D38-A)*%
X136418750Y-124937500D03*
%TD*%
%TO.P,D39,1,K*%
%TO.N,24*%
X155468750Y-126387500D03*
%TO.P,D39,2,A*%
%TO.N,Net-(D39-A)*%
X155468750Y-124987500D03*
%TD*%
%TO.P,D40,1,K*%
%TO.N,24*%
X174518750Y-126387500D03*
%TO.P,D40,2,A*%
%TO.N,Net-(D40-A)*%
X174518750Y-124987500D03*
%TD*%
%TO.P,D41,1,K*%
%TO.N,24*%
X193568750Y-126387500D03*
%TO.P,D41,2,A*%
%TO.N,Net-(D41-A)*%
X193568750Y-124987500D03*
%TD*%
%TO.P,D42,1,K*%
%TO.N,24*%
X212618750Y-126387500D03*
%TO.P,D42,2,A*%
%TO.N,Net-(D42-A)*%
X212618750Y-124987500D03*
%TD*%
%TO.P,D43,1,K*%
%TO.N,24*%
X231668750Y-126387500D03*
%TO.P,D43,2,A*%
%TO.N,Net-(D43-A)*%
X231668750Y-124987500D03*
%TD*%
%TO.P,D44,1,K*%
%TO.N,24*%
X250718750Y-126387500D03*
%TO.P,D44,2,A*%
%TO.N,Net-(D44-A)*%
X250718750Y-124987500D03*
%TD*%
%TO.P,D45,1,K*%
%TO.N,24*%
X269768750Y-126387500D03*
%TO.P,D45,2,A*%
%TO.N,Net-(D45-A)*%
X269768750Y-124987500D03*
%TD*%
%TO.P,D46,1,K*%
%TO.N,24*%
X288818750Y-126387500D03*
%TO.P,D46,2,A*%
%TO.N,Net-(D46-A)*%
X288818750Y-124987500D03*
%TD*%
%TO.P,D47,1,K*%
%TO.N,24*%
X307868750Y-126387500D03*
%TO.P,D47,2,A*%
%TO.N,Net-(D47-A)*%
X307868750Y-124987500D03*
%TD*%
%TO.P,D48,1,K*%
%TO.N,24*%
X326918750Y-126387500D03*
%TO.P,D48,2,A*%
%TO.N,Net-(D48-A)*%
X326918750Y-124987500D03*
%TD*%
%TO.P,D49,1,K*%
%TO.N,23*%
X40918750Y-145437500D03*
%TO.P,D49,2,A*%
%TO.N,Net-(D49-A)*%
X40918750Y-144037500D03*
%TD*%
%TO.P,D50,1,K*%
%TO.N,23*%
X60218750Y-145437500D03*
%TO.P,D50,2,A*%
%TO.N,Net-(D50-A)*%
X60218750Y-144037500D03*
%TD*%
%TO.P,D51,1,K*%
%TO.N,23*%
X79268750Y-145437500D03*
%TO.P,D51,2,A*%
%TO.N,Net-(D51-A)*%
X79268750Y-144037500D03*
%TD*%
%TO.P,D52,1,K*%
%TO.N,23*%
X98318750Y-145437500D03*
%TO.P,D52,2,A*%
%TO.N,Net-(D52-A)*%
X98318750Y-144037500D03*
%TD*%
%TO.P,D53,1,K*%
%TO.N,23*%
X117368750Y-145437500D03*
%TO.P,D53,2,A*%
%TO.N,Net-(D53-A)*%
X117368750Y-144037500D03*
%TD*%
%TO.P,D54,1,K*%
%TO.N,23*%
X136418750Y-145437500D03*
%TO.P,D54,2,A*%
%TO.N,Net-(D54-A)*%
X136418750Y-144037500D03*
%TD*%
%TO.P,D55,1,K*%
%TO.N,23*%
X155468750Y-145437500D03*
%TO.P,D55,2,A*%
%TO.N,Net-(D55-A)*%
X155468750Y-144037500D03*
%TD*%
%TO.P,D56,1,K*%
%TO.N,23*%
X174518750Y-145437500D03*
%TO.P,D56,2,A*%
%TO.N,Net-(D56-A)*%
X174518750Y-144037500D03*
%TD*%
%TO.P,D57,1,K*%
%TO.N,23*%
X193568750Y-145437500D03*
%TO.P,D57,2,A*%
%TO.N,Net-(D57-A)*%
X193568750Y-144037500D03*
%TD*%
%TO.P,D58,1,K*%
%TO.N,23*%
X212618750Y-145437500D03*
%TO.P,D58,2,A*%
%TO.N,Net-(D58-A)*%
X212618750Y-144037500D03*
%TD*%
%TO.P,D59,1,K*%
%TO.N,23*%
X231668750Y-145437500D03*
%TO.P,D59,2,A*%
%TO.N,Net-(D59-A)*%
X231668750Y-144037500D03*
%TD*%
%TO.P,D60,1,K*%
%TO.N,23*%
X250718750Y-145437500D03*
%TO.P,D60,2,A*%
%TO.N,Net-(D60-A)*%
X250718750Y-144037500D03*
%TD*%
%TO.P,D61,1,K*%
%TO.N,23*%
X269768750Y-145437500D03*
%TO.P,D61,2,A*%
%TO.N,Net-(D61-A)*%
X269768750Y-144037500D03*
%TD*%
%TO.P,D62,1,K*%
%TO.N,23*%
X288818750Y-145437500D03*
%TO.P,D62,2,A*%
%TO.N,Net-(D62-A)*%
X288818750Y-144037500D03*
%TD*%
%TO.P,D63,1,K*%
%TO.N,23*%
X307868750Y-145437500D03*
%TO.P,D63,2,A*%
%TO.N,Net-(D63-A)*%
X307868750Y-144037500D03*
%TD*%
%TO.P,D64,1,K*%
%TO.N,23*%
X326918750Y-145437500D03*
%TO.P,D64,2,A*%
%TO.N,Net-(D64-A)*%
X326918750Y-144037500D03*
%TD*%
D12*
%TO.P,RC2,1*%
%TO.N,GND*%
X50618750Y-80892500D03*
%TO.P,RC2,2*%
%TO.N,Net-(J0-CC2)*%
X50618750Y-79922500D03*
%TD*%
D13*
%TO.P,RC1,1*%
%TO.N,Net-(J0-CC1)*%
X46118750Y-79902500D03*
%TO.P,RC1,2*%
%TO.N,GND*%
X46118750Y-80872500D03*
%TD*%
%TO.P,RD1,1*%
%TO.N,DB+*%
X85268750Y-81152500D03*
%TO.P,RD1,2*%
%TO.N,DR+*%
X85268750Y-82122500D03*
%TD*%
D12*
%TO.P,F0,1*%
%TO.N,vUSB*%
X50618750Y-83122500D03*
%TO.P,F0,2*%
%TO.N,VBUS*%
X50618750Y-82152500D03*
%TD*%
D19*
%TO.P,C4,1*%
%TO.N,+3V3*%
X80588750Y-91837500D03*
%TO.P,C4,2*%
%TO.N,GND*%
X79618750Y-91837500D03*
%TD*%
D20*
%TO.P,J0,A1,GND*%
%TO.N,GND*%
X47618750Y-77682500D03*
%TO.P,J0,A4,VBUS*%
%TO.N,vUSB*%
X48418750Y-77682500D03*
D21*
%TO.P,J0,A5,CC1*%
%TO.N,Net-(J0-CC1)*%
X49618750Y-77682500D03*
%TO.P,J0,A6,D+*%
%TO.N,D+*%
X50618750Y-77682500D03*
%TO.P,J0,A7,D-*%
%TO.N,D-*%
X51118750Y-77682500D03*
%TO.P,J0,A8,SBU1*%
%TO.N,unconnected-(J0-SBU1-PadA8)*%
X52118750Y-77682500D03*
D20*
%TO.P,J0,A9,VBUS*%
%TO.N,vUSB*%
X53318750Y-77682500D03*
%TO.P,J0,A12,GND*%
%TO.N,GND*%
X54118750Y-77682500D03*
%TO.P,J0,B1,GND*%
X54118750Y-77682500D03*
%TO.P,J0,B4,VBUS*%
%TO.N,vUSB*%
X53318750Y-77682500D03*
D21*
%TO.P,J0,B5,CC2*%
%TO.N,Net-(J0-CC2)*%
X52618750Y-77682500D03*
%TO.P,J0,B6,D+*%
%TO.N,D+*%
X51618750Y-77682500D03*
%TO.P,J0,B7,D-*%
%TO.N,D-*%
X50118750Y-77682500D03*
%TO.P,J0,B8,SBU2*%
%TO.N,unconnected-(J0-SBU2-PadB8)*%
X49118750Y-77682500D03*
D20*
%TO.P,J0,B9,VBUS*%
%TO.N,vUSB*%
X48418750Y-77682500D03*
%TO.P,J0,B12,GND*%
%TO.N,GND*%
X47618750Y-77682500D03*
D22*
%TO.P,J0,S1,SHIELD*%
X46548750Y-72587500D03*
D23*
X46548750Y-76767500D03*
D22*
X55188750Y-72587500D03*
D23*
X55188750Y-76767500D03*
%TD*%
D19*
%TO.P,C5,1*%
%TO.N,+3V3*%
X81753750Y-87503000D03*
%TO.P,C5,2*%
%TO.N,GND*%
X80783750Y-87503000D03*
%TD*%
D24*
%TO.P,TX0,1,1*%
%TO.N,17*%
X72768750Y-111337500D03*
%TO.P,TX0,2,2*%
%TO.N,GND*%
X64768750Y-111337500D03*
%TD*%
%TO.P,TX1,1,1*%
%TO.N,16*%
X83818750Y-111337500D03*
%TO.P,TX1,2,2*%
%TO.N,GND*%
X91818750Y-111337500D03*
%TD*%
D14*
%TO.P,CP5,1*%
%TO.N,GND*%
X46968750Y-86037500D03*
%TO.P,CP5,2*%
%TO.N,VBUS*%
X47938750Y-86037500D03*
%TD*%
D12*
%TO.P,CF1,1*%
%TO.N,+3V3*%
X82926750Y-73702000D03*
%TO.P,CF1,2*%
%TO.N,GND*%
X82926750Y-72732000D03*
%TD*%
D25*
%TO.P,J1,1,Pin_1*%
%TO.N,GND*%
X65968750Y-76437500D03*
%TO.P,J1,2,Pin_2*%
%TO.N,+3V3*%
X66968750Y-76437500D03*
%TO.P,J1,3,Pin_3*%
%TO.N,28{slash}A2*%
X67968750Y-76437500D03*
%TO.P,J1,4,Pin_4*%
%TO.N,29{slash}A3*%
X68968750Y-76437500D03*
D26*
%TO.P,J1,MP,MP*%
%TO.N,GND*%
X64668750Y-72562500D03*
X70268750Y-72562500D03*
%TD*%
D14*
%TO.P,CP8,1*%
%TO.N,+3V3*%
X48998750Y-100037500D03*
%TO.P,CP8,2*%
%TO.N,GND*%
X49968750Y-100037500D03*
%TD*%
D19*
%TO.P,CP10,1*%
%TO.N,GND*%
X49938750Y-87137500D03*
%TO.P,CP10,2*%
%TO.N,VBUS*%
X48968750Y-87137500D03*
%TD*%
D13*
%TO.P,C10,1*%
%TO.N,+1V1*%
X83693000Y-95781000D03*
%TO.P,C10,2*%
%TO.N,GND*%
X83693000Y-96751000D03*
%TD*%
D12*
%TO.P,C11,1*%
%TO.N,+1V1*%
X84709000Y-84940000D03*
%TO.P,C11,2*%
%TO.N,GND*%
X84709000Y-83970000D03*
%TD*%
D27*
%TO.P,U3,1,~{CS}*%
%TO.N,CS*%
X89568750Y-74386900D03*
%TO.P,U3,2,DO(IO1)*%
%TO.N,SD1*%
X89568750Y-75656900D03*
%TO.P,U3,3,IO2*%
%TO.N,SD2*%
X89568750Y-76926900D03*
%TO.P,U3,4,GND*%
%TO.N,GND*%
X89568750Y-78196900D03*
%TO.P,U3,5,DI(IO0)*%
%TO.N,SD0*%
X84168750Y-78196900D03*
%TO.P,U3,6,CLK*%
%TO.N,CLOCK*%
X84168750Y-76926900D03*
%TO.P,U3,7,IO3*%
%TO.N,SD3*%
X84168750Y-75656900D03*
%TO.P,U3,8,VCC*%
%TO.N,+3V3*%
X84168750Y-74386900D03*
D28*
%TO.P,U3,9,EP*%
%TO.N,GND*%
X86868750Y-76291900D03*
%TD*%
D29*
%TO.P,LP1,1,1*%
%TO.N,Net-(U1-SW)*%
X48468750Y-95537500D03*
%TO.P,LP1,2,2*%
%TO.N,+3V3*%
X48468750Y-98537500D03*
%TD*%
D19*
%TO.P,CP13,1*%
%TO.N,GND*%
X49938750Y-89337500D03*
%TO.P,CP13,2*%
%TO.N,VBUS*%
X48968750Y-89337500D03*
%TD*%
%TO.P,CP17,1*%
%TO.N,+3V3*%
X47968750Y-101137500D03*
%TO.P,CP17,2*%
%TO.N,GND*%
X46998750Y-101137500D03*
%TD*%
D30*
%TO.P,Y0,1,1*%
%TO.N,XIN*%
X87968000Y-98479000D03*
%TO.P,Y0,2,2*%
%TO.N,GND*%
X86768000Y-98479000D03*
%TO.P,Y0,3,3*%
%TO.N,Net-(RX1-Pad2)*%
X85568000Y-98479000D03*
%TD*%
D31*
%TO.P,U1,1,BS*%
%TO.N,Net-(U1-BS)*%
X47331250Y-92787500D03*
%TO.P,U1,2,GND*%
%TO.N,GND*%
X47331250Y-91837500D03*
%TO.P,U1,3,FB*%
%TO.N,Net-(U1-FB)*%
X47331250Y-90887500D03*
%TO.P,U1,4,EN*%
%TO.N,VBUS*%
X49606250Y-90887500D03*
%TO.P,U1,5,VIN*%
X49606250Y-91837500D03*
%TO.P,U1,6,SW*%
%TO.N,Net-(U1-SW)*%
X49606250Y-92787500D03*
%TD*%
D19*
%TO.P,CP9,1*%
%TO.N,+3V3*%
X47968750Y-103337500D03*
%TO.P,CP9,2*%
%TO.N,GND*%
X46998750Y-103337500D03*
%TD*%
D12*
%TO.P,RP2,1*%
%TO.N,Net-(U1-FB)*%
X45568750Y-93722500D03*
%TO.P,RP2,2*%
%TO.N,GND*%
X45568750Y-92752500D03*
%TD*%
D14*
%TO.P,CP1,1*%
%TO.N,Net-(U1-BS)*%
X47883750Y-94137500D03*
%TO.P,CP1,2*%
%TO.N,Net-(U1-SW)*%
X48853750Y-94137500D03*
%TD*%
D12*
%TO.P,RR1,1*%
%TO.N,+3V3*%
X97214650Y-110225100D03*
%TO.P,RR1,2*%
%TO.N,~{RESET}*%
X97214650Y-109255100D03*
%TD*%
D14*
%TO.P,CP6,1*%
%TO.N,+3V3*%
X48998750Y-102237500D03*
%TO.P,CP6,2*%
%TO.N,GND*%
X49968750Y-102237500D03*
%TD*%
D19*
%TO.P,CP15,1*%
%TO.N,+3V3*%
X47968750Y-100037500D03*
%TO.P,CP15,2*%
%TO.N,GND*%
X46998750Y-100037500D03*
%TD*%
D14*
%TO.P,CP4,1*%
%TO.N,GND*%
X46968750Y-87137500D03*
%TO.P,CP4,2*%
%TO.N,VBUS*%
X47938750Y-87137500D03*
%TD*%
D19*
%TO.P,CP12,1*%
%TO.N,GND*%
X49938750Y-88237500D03*
%TO.P,CP12,2*%
%TO.N,VBUS*%
X48968750Y-88237500D03*
%TD*%
D32*
%TO.P,U2,1,I/O1*%
%TO.N,DB+*%
X49318750Y-82775000D03*
%TO.P,U2,2,GND*%
%TO.N,GND*%
X48368750Y-82775000D03*
%TO.P,U2,3,I/O2*%
%TO.N,DB-*%
X47418750Y-82775000D03*
%TO.P,U2,4,I/O2*%
%TO.N,D-*%
X47418750Y-80500000D03*
%TO.P,U2,5,VBUS*%
%TO.N,VBUS*%
X48368750Y-80500000D03*
%TO.P,U2,6,I/O1*%
%TO.N,D+*%
X49318750Y-80500000D03*
%TD*%
D12*
%TO.P,RF2,1*%
%TO.N,+3V3*%
X81843750Y-73702000D03*
%TO.P,RF2,2*%
%TO.N,CS*%
X81843750Y-72732000D03*
%TD*%
D19*
%TO.P,CP11,1*%
%TO.N,GND*%
X49938750Y-86037500D03*
%TO.P,CP11,2*%
%TO.N,VBUS*%
X48968750Y-86037500D03*
%TD*%
D12*
%TO.P,RP1,1*%
%TO.N,+3V3*%
X45568750Y-95722500D03*
%TO.P,RP1,2*%
%TO.N,Net-(U1-FB)*%
X45568750Y-94752500D03*
%TD*%
D13*
%TO.P,RD0,1*%
%TO.N,DB-*%
X84268750Y-81152500D03*
%TO.P,RD0,2*%
%TO.N,DR-*%
X84268750Y-82122500D03*
%TD*%
D14*
%TO.P,CP14,1*%
%TO.N,+3V3*%
X48998750Y-103337500D03*
%TO.P,CP14,2*%
%TO.N,GND*%
X49968750Y-103337500D03*
%TD*%
D19*
%TO.P,CP16,1*%
%TO.N,+3V3*%
X47968750Y-102237500D03*
%TO.P,CP16,2*%
%TO.N,GND*%
X46998750Y-102237500D03*
%TD*%
D14*
%TO.P,CP7,1*%
%TO.N,+3V3*%
X48998750Y-101137500D03*
%TO.P,CP7,2*%
%TO.N,GND*%
X49968750Y-101137500D03*
%TD*%
D33*
%TO.P,S1,1,A*%
%TO.N,GND*%
X102518750Y-115437500D03*
X102518750Y-109237500D03*
%TO.P,S1,2,B*%
%TO.N,~{RESET}*%
X98818750Y-115437500D03*
X98818750Y-109237500D03*
%TD*%
D12*
%TO.P,C9,1*%
%TO.N,+1V1*%
X87384750Y-84937500D03*
%TO.P,C9,2*%
%TO.N,GND*%
X87384750Y-83967500D03*
%TD*%
D14*
%TO.P,CP3,1*%
%TO.N,GND*%
X46968750Y-88237500D03*
%TO.P,CP3,2*%
%TO.N,VBUS*%
X47938750Y-88237500D03*
%TD*%
D34*
%TO.P,J2,1,Pin_1*%
%TO.N,GND*%
X31268750Y-84417500D03*
D35*
%TO.P,J2,2,Pin_2*%
%TO.N,22*%
X31268750Y-86957500D03*
%TO.P,J2,3,Pin_3*%
%TO.N,21*%
X31268750Y-89497500D03*
%TO.P,J2,4,Pin_4*%
%TO.N,20*%
X31268750Y-92037500D03*
%TO.P,J2,5,Pin_5*%
%TO.N,19*%
X31268750Y-94577500D03*
%TO.P,J2,6,Pin_6*%
%TO.N,18*%
X31268750Y-97117500D03*
%TD*%
D14*
%TO.P,CP2,1*%
%TO.N,GND*%
X46968750Y-89337500D03*
%TO.P,CP2,2*%
%TO.N,VBUS*%
X47938750Y-89337500D03*
%TD*%
D19*
%TO.P,RX1,1*%
%TO.N,XOUT*%
X86845000Y-96266000D03*
%TO.P,RX1,2*%
%TO.N,Net-(RX1-Pad2)*%
X85875000Y-96266000D03*
%TD*%
D36*
%TO.N,GND*%
X49968750Y-86637500D03*
X39668750Y-74387500D03*
X49968750Y-100637500D03*
X39768750Y-112487500D03*
X192168750Y-74387500D03*
X154018750Y-112537500D03*
X287418750Y-112487500D03*
X49968750Y-87737500D03*
X46968750Y-101737500D03*
D37*
X190918750Y-91587500D03*
D36*
X86868750Y-74837500D03*
D37*
X84268750Y-97912500D03*
D36*
X135018750Y-112487500D03*
X96868750Y-74387500D03*
X267518750Y-132037500D03*
X306468750Y-112487500D03*
D37*
X89498750Y-97887500D03*
X52872684Y-79342810D03*
D36*
X96918750Y-112487500D03*
X287418750Y-74287500D03*
X324668750Y-131987500D03*
X86518750Y-90487500D03*
X230268750Y-112537500D03*
X249318750Y-112387500D03*
X211218750Y-112487500D03*
X46968750Y-86637500D03*
D37*
X90168750Y-111337500D03*
D36*
X286518750Y-93787500D03*
D37*
X86768750Y-100437500D03*
D36*
X154018750Y-74387500D03*
X57918750Y-93687500D03*
D37*
X45857169Y-81624178D03*
X48368750Y-84137500D03*
X65968750Y-73862500D03*
D36*
X49968750Y-88837500D03*
X49968750Y-101737500D03*
D37*
X86868750Y-83037500D03*
D36*
X192168750Y-112537500D03*
D37*
X267018750Y-91687500D03*
D36*
X57918750Y-132037500D03*
X173068750Y-112437500D03*
X135018750Y-74437500D03*
X58818750Y-112487500D03*
X153218750Y-132087500D03*
D37*
X94203250Y-91637500D03*
X66428750Y-111337500D03*
D36*
X49968750Y-102837500D03*
X305518750Y-93787500D03*
X115068750Y-93787500D03*
X134118750Y-132087500D03*
X305618750Y-132037500D03*
X249318750Y-74287500D03*
X191268750Y-132037500D03*
X134118750Y-93787500D03*
D37*
X171768750Y-91687500D03*
X152718750Y-91787500D03*
D36*
X230218750Y-74337500D03*
X210318750Y-132037500D03*
X306468750Y-74337500D03*
D37*
X78518750Y-91837000D03*
D36*
X115068750Y-132037500D03*
D37*
X102508750Y-112567500D03*
D36*
X46968750Y-102837500D03*
X115968750Y-74437500D03*
X38868750Y-93737500D03*
D37*
X209868750Y-91687500D03*
D36*
X58868750Y-74387500D03*
X48468750Y-92337500D03*
X77868750Y-112487500D03*
X115968750Y-112487500D03*
X38868750Y-132037500D03*
D37*
X83693000Y-83137500D03*
X76268750Y-96487500D03*
D36*
X86868750Y-76237500D03*
X76918750Y-132087500D03*
X229418750Y-132037500D03*
X173068750Y-74387500D03*
X286518750Y-132037500D03*
X86868750Y-77637500D03*
X248468750Y-132037500D03*
X96018750Y-132087500D03*
X46968750Y-87737500D03*
X46968750Y-88837500D03*
X325518750Y-74437500D03*
D37*
X247989250Y-91687500D03*
D36*
X325518750Y-112587500D03*
X268418750Y-74387500D03*
D37*
X80868750Y-86637500D03*
D36*
X268418750Y-112437500D03*
X77868750Y-74387500D03*
X172268750Y-131987500D03*
D37*
X90394290Y-86298816D03*
D36*
X46968750Y-100637500D03*
X211218750Y-74387500D03*
D37*
X228918750Y-91737500D03*
D36*
X324618750Y-93787500D03*
X95968750Y-93787500D03*
%TO.N,~{RESET}*%
X94268750Y-106747500D03*
X96458750Y-109227500D03*
%TO.N,DB+*%
X69868750Y-79287500D03*
X49268750Y-84137500D03*
X64818750Y-79287500D03*
X54468750Y-82737500D03*
%TO.N,DB-*%
X69968750Y-80087500D03*
X47468750Y-84137500D03*
X64768750Y-80087500D03*
X54868750Y-83437500D03*
%TO.N,0*%
X322093750Y-92762500D03*
%TO.N,1*%
X303053750Y-93112500D03*
%TO.N,2*%
X284003750Y-93487500D03*
%TO.N,3*%
X264953750Y-93837500D03*
%TO.N,4*%
X245903750Y-94187500D03*
%TO.N,5*%
X226853750Y-94537500D03*
%TO.N,6*%
X207803750Y-94937500D03*
%TO.N,7*%
X188753750Y-95287500D03*
%TO.N,8*%
X169703750Y-95637500D03*
%TO.N,9*%
X150653750Y-95987500D03*
%TO.N,10*%
X146118750Y-127887500D03*
X131618750Y-127637500D03*
X131603750Y-92587500D03*
%TO.N,11*%
X112553750Y-92937500D03*
%TO.N,12*%
X93503750Y-93987500D03*
%TO.N,13*%
X89248750Y-94857500D03*
%TO.N,14*%
X75118750Y-89737997D03*
X89818750Y-95487500D03*
X73768750Y-89710389D03*
%TO.N,15*%
X56068750Y-89237500D03*
X89199718Y-96072857D03*
X54768750Y-89227500D03*
X73818750Y-90587500D03*
X75061000Y-90545250D03*
%TO.N,18*%
X69068750Y-97087500D03*
X43068750Y-92037500D03*
X51318750Y-93087500D03*
X66368750Y-97137500D03*
%TO.N,19*%
X50748660Y-92330130D03*
X43668750Y-91437500D03*
X66216665Y-96281662D03*
X68468750Y-96487500D03*
%TO.N,20*%
X68818750Y-95737500D03*
X44368750Y-90937500D03*
X66568750Y-95487500D03*
X51368750Y-91615823D03*
%TO.N,23*%
X67768750Y-107987500D03*
X65318750Y-126987500D03*
X67968750Y-106737500D03*
X66868750Y-125787500D03*
%TO.N,24*%
X67068750Y-106737500D03*
X66868750Y-107987500D03*
%TO.N,26{slash}A0*%
X51168750Y-88437500D03*
X45768750Y-88337500D03*
X78368750Y-88437500D03*
X79868750Y-88337500D03*
X83993750Y-89387500D03*
X92880971Y-87699721D03*
X76768750Y-89637500D03*
%TO.N,27{slash}A1*%
X55318750Y-78687500D03*
%TO.N,+3V3*%
X229918750Y-91737500D03*
X84058750Y-87887500D03*
X47968750Y-102737500D03*
X306418750Y-93587500D03*
X115068750Y-74787500D03*
X248418750Y-112737500D03*
X39768750Y-93387500D03*
X287418750Y-131687500D03*
X76968750Y-74737500D03*
X286518750Y-74637500D03*
X153118750Y-112887500D03*
X135018750Y-93437500D03*
X47968750Y-100637500D03*
X154118750Y-131737500D03*
X96918750Y-131737500D03*
X77818750Y-131737500D03*
X210868750Y-91687500D03*
X38768750Y-74737500D03*
X248268750Y-74637500D03*
X248959250Y-91687500D03*
X48968750Y-102737500D03*
X268418750Y-131687500D03*
X58818750Y-131687500D03*
X134118750Y-112837500D03*
X85728750Y-87967500D03*
X83668750Y-73837500D03*
X48968750Y-99437500D03*
X306518750Y-131687500D03*
X66968750Y-74437500D03*
X96868750Y-93437500D03*
X172168750Y-112787500D03*
X153118750Y-74737500D03*
X325568750Y-131637500D03*
X76968750Y-112837500D03*
X38868750Y-112837500D03*
X48968750Y-101637500D03*
X115968750Y-131687500D03*
X325518750Y-93437500D03*
X57968750Y-74737500D03*
X192168750Y-131687500D03*
X39768750Y-131687500D03*
X95968750Y-74737500D03*
X324618750Y-112937500D03*
X135018750Y-131737500D03*
X58818750Y-93337500D03*
X229368750Y-112887500D03*
X172168750Y-74737500D03*
X96558750Y-110227500D03*
X287418750Y-93587500D03*
X57918750Y-112837500D03*
X229318750Y-74687500D03*
X324618750Y-74787500D03*
X89138750Y-91487500D03*
X48968750Y-100637500D03*
X305568750Y-112837500D03*
X249368750Y-131687500D03*
X230318750Y-131687500D03*
X96018750Y-112837500D03*
X134118750Y-74787500D03*
X286518750Y-112837500D03*
X88668750Y-87987500D03*
X267468750Y-74687500D03*
X47968750Y-101637500D03*
X210318750Y-74737500D03*
X115068750Y-112837500D03*
X210318750Y-112837500D03*
X211218750Y-131687500D03*
X173168750Y-131637500D03*
X305418750Y-74687500D03*
X267518750Y-112787500D03*
X78668750Y-94537500D03*
X172768750Y-91737500D03*
X191868750Y-91637500D03*
X153718750Y-91787500D03*
X84068750Y-91637500D03*
X191268750Y-112887500D03*
X86718750Y-92637500D03*
X115968750Y-93437500D03*
X268018750Y-91687500D03*
X47968750Y-99437500D03*
X191268750Y-74737500D03*
%TO.N,17*%
X81368750Y-107917500D03*
X81368750Y-106687500D03*
%TO.N,16*%
X82468750Y-107917500D03*
X82718750Y-106687500D03*
%TO.N,21*%
X68553001Y-94961124D03*
X44968750Y-90337500D03*
X66068750Y-94737500D03*
X50771543Y-90860593D03*
%TO.N,22*%
X69168750Y-94337500D03*
X51368750Y-90137500D03*
X66568750Y-94087500D03*
X45568750Y-89675933D03*
%TO.N,Net-(LD17-DOUT)*%
X37168750Y-94637500D03*
X35568750Y-94637500D03*
X37168750Y-113637500D03*
X35568750Y-113637500D03*
%TO.N,Net-(LD17-DIN)*%
X54568750Y-94637500D03*
X56168750Y-94637500D03*
%TO.N,Net-(LD18-DIN)*%
X75168750Y-95637500D03*
X73568750Y-96037500D03*
%TO.N,Net-(LD19-DIN)*%
X92868750Y-95137500D03*
X94368750Y-95137500D03*
%TO.N,Net-(LD20-DIN)*%
X111868750Y-95137500D03*
X113368750Y-95137500D03*
%TO.N,Net-(LD21-DIN)*%
X130868750Y-95137500D03*
X132368750Y-95137500D03*
%TO.N,Net-(LD22-DIN)*%
X151368750Y-97137500D03*
X149868750Y-97137500D03*
%TO.N,Net-(LD23-DIN)*%
X168868750Y-96637500D03*
X170694881Y-96195456D03*
%TO.N,Net-(LD24-DIN)*%
X187868750Y-96137500D03*
X189738467Y-96174724D03*
%TO.N,Net-(LD25-DIN)*%
X208769248Y-95637500D03*
X206868750Y-95637500D03*
%TO.N,Net-(LD26-DIN)*%
X226229250Y-95687500D03*
X227868750Y-94637500D03*
%TO.N,Net-(LD27-DIN)*%
X246868750Y-94637500D03*
X245279250Y-95687500D03*
%TO.N,Net-(LD28-DIN)*%
X265868750Y-94637500D03*
X263868750Y-94637500D03*
%TO.N,Net-(LD29-DIN)*%
X284868750Y-94637500D03*
X283368750Y-94637500D03*
%TO.N,Net-(LD30-DIN)*%
X302318750Y-94587500D03*
X303718750Y-94587500D03*
%TO.N,Net-(LD31-DIN)*%
X321318750Y-94587500D03*
X322768750Y-94587500D03*
%TO.N,Net-(LD33-DOUT)*%
X56168750Y-113637500D03*
X54568750Y-113637500D03*
%TO.N,Net-(LD34-DOUT)*%
X73768750Y-114237500D03*
X75168750Y-114237500D03*
%TO.N,Net-(LD35-DOUT)*%
X92768750Y-114237500D03*
X94168750Y-114237500D03*
%TO.N,Net-(LD36-DOUT)*%
X111768750Y-113837500D03*
X113368750Y-113837500D03*
%TO.N,Net-(LD37-DOUT)*%
X130968750Y-113637500D03*
X132368750Y-113637500D03*
%TO.N,Net-(LD38-DOUT)*%
X151368750Y-113637500D03*
X149768750Y-113637500D03*
%TO.N,Net-(LD39-DOUT)*%
X168768750Y-113637500D03*
X170368750Y-113637500D03*
%TO.N,Net-(LD40-DOUT)*%
X189568750Y-113637500D03*
X187768750Y-113637500D03*
%TO.N,Net-(LD41-DOUT)*%
X208568750Y-113637500D03*
X206968750Y-113637500D03*
%TO.N,Net-(LD42-DOUT)*%
X227568750Y-113637500D03*
X226168750Y-113637500D03*
%TO.N,Net-(LD43-DOUT)*%
X246568750Y-113637500D03*
X244968750Y-113637500D03*
%TO.N,Net-(LD44-DOUT)*%
X263968750Y-113637500D03*
X265768750Y-113637500D03*
%TO.N,Net-(LD45-DOUT)*%
X284768750Y-113637500D03*
X282968750Y-113637500D03*
%TO.N,Net-(LD46-DOUT)*%
X302168750Y-113637500D03*
X303968750Y-113637500D03*
%TO.N,Net-(LD47-DOUT)*%
X321168750Y-113637500D03*
X322968750Y-113637500D03*
%TO.N,Net-(LD49-DIN)*%
X56168750Y-133037500D03*
X54568750Y-133037500D03*
%TO.N,Net-(LD50-DIN)*%
X73768750Y-132837500D03*
X75168750Y-132837500D03*
%TO.N,Net-(LD51-DIN)*%
X94368750Y-133037500D03*
X92768750Y-133037500D03*
%TO.N,Net-(LD52-DIN)*%
X111768750Y-132837500D03*
X113368750Y-132837500D03*
%TO.N,Net-(LD53-DIN)*%
X132368750Y-133037500D03*
X130768750Y-133037500D03*
%TO.N,Net-(LD54-DIN)*%
X151368750Y-132837500D03*
X145368750Y-130637500D03*
%TO.N,Net-(LD55-DIN)*%
X168968750Y-132837500D03*
X170568750Y-132837500D03*
%TO.N,Net-(LD56-DIN)*%
X189568750Y-132837500D03*
X187968750Y-132837500D03*
%TO.N,Net-(LD57-DIN)*%
X208568750Y-133037500D03*
X206968750Y-133037500D03*
%TO.N,Net-(LD58-DIN)*%
X227768750Y-133037500D03*
X221568750Y-130437500D03*
%TO.N,Net-(LD59-DIN)*%
X245168750Y-133037500D03*
X246768750Y-133037500D03*
%TO.N,Net-(LD60-DIN)*%
X264168750Y-133037500D03*
X265768750Y-133037500D03*
%TO.N,Net-(LD61-DIN)*%
X284768750Y-133037500D03*
X283168750Y-133037500D03*
%TO.N,Net-(LD62-DIN)*%
X302168750Y-133037500D03*
X303968750Y-133037500D03*
%TO.N,Net-(LD63-DIN)*%
X321168750Y-133037500D03*
X322968750Y-133037500D03*
%TD*%
D38*
%TO.N,GND*%
X87384750Y-83553500D02*
X87384750Y-83967500D01*
D39*
X91818750Y-111337500D02*
X90168750Y-111337500D01*
D40*
X46968750Y-100637500D02*
X46998750Y-100667500D01*
D38*
X70268750Y-72562500D02*
X67268750Y-72562500D01*
D40*
X49938750Y-87767500D02*
X49938750Y-88807500D01*
D38*
X90394290Y-86298816D02*
X91365066Y-86298816D01*
X83693000Y-96751000D02*
X84268750Y-96751000D01*
D39*
X64768750Y-111337500D02*
X66428750Y-111337500D01*
D38*
X102518750Y-112557500D02*
X102508750Y-112567500D01*
X80783750Y-87503000D02*
X80783750Y-86722500D01*
X102518750Y-115437500D02*
X102518750Y-112577500D01*
X86768000Y-100436750D02*
X86768750Y-100437500D01*
D40*
X46968750Y-86637500D02*
X46968750Y-86037500D01*
D38*
X50672321Y-80892500D02*
X51288750Y-80276071D01*
D40*
X49968750Y-101737500D02*
X49968750Y-100637500D01*
X46998750Y-100607500D02*
X46968750Y-100637500D01*
X49968750Y-86637500D02*
X49938750Y-86667500D01*
D38*
X51288750Y-80276071D02*
X51288750Y-80217500D01*
X86868750Y-83037500D02*
X87384750Y-83553500D01*
X46118750Y-81362597D02*
X45857169Y-81624178D01*
X84709000Y-83970000D02*
X82677000Y-83970000D01*
D40*
X46998750Y-101707500D02*
X46968750Y-101737500D01*
X46968750Y-102837500D02*
X46998750Y-102867500D01*
X46968750Y-87737500D02*
X46968750Y-86637500D01*
X48214623Y-91837500D02*
X48468750Y-92091627D01*
D39*
X87487000Y-95460164D02*
X89498750Y-97471915D01*
D40*
X49968750Y-87737500D02*
X49938750Y-87767500D01*
D38*
X51288750Y-80217500D02*
X52048750Y-79457500D01*
X52048750Y-79457500D02*
X52757994Y-79457500D01*
D40*
X46968750Y-88837500D02*
X46968750Y-87737500D01*
D38*
X47463750Y-77682500D02*
X46548750Y-76767500D01*
X54273750Y-77682500D02*
X55188750Y-76767500D01*
D40*
X45568750Y-92752500D02*
X46483750Y-91837500D01*
D39*
X87487000Y-93925000D02*
X87487000Y-95460164D01*
D38*
X86868750Y-74837500D02*
X86868750Y-73337500D01*
X86868750Y-73337500D02*
X86268750Y-72737500D01*
X80783750Y-86722500D02*
X80868750Y-86637500D01*
D40*
X46998750Y-101767500D02*
X46998750Y-102807500D01*
D38*
X102518750Y-109237500D02*
X102518750Y-112557500D01*
D40*
X49938750Y-86667500D02*
X49938750Y-87707500D01*
X49938750Y-86037500D02*
X49938750Y-86607500D01*
X46968750Y-89337500D02*
X46968750Y-88837500D01*
D38*
X65968750Y-73862500D02*
X64668750Y-72562500D01*
X83693000Y-83137500D02*
X83693000Y-83970000D01*
X86368750Y-83967500D02*
X87384750Y-83967500D01*
D40*
X46483750Y-91837500D02*
X47331250Y-91837500D01*
X49968750Y-103337500D02*
X49968750Y-102837500D01*
D38*
X65968750Y-76437500D02*
X65968750Y-73862500D01*
X92687000Y-91567000D02*
X94132750Y-91567000D01*
D40*
X46998750Y-100667500D02*
X46998750Y-101707500D01*
D39*
X89498750Y-97471915D02*
X89498750Y-97887500D01*
D40*
X49968750Y-100637500D02*
X49968750Y-100037500D01*
X49938750Y-88867500D02*
X49938750Y-89337500D01*
X49968750Y-88837500D02*
X49938750Y-88867500D01*
D38*
X86768000Y-98479000D02*
X86768000Y-100436750D01*
X86268750Y-72737500D02*
X82932250Y-72737500D01*
X52757994Y-79457500D02*
X52872684Y-79342810D01*
X54118750Y-77682500D02*
X54273750Y-77682500D01*
D40*
X49938750Y-87707500D02*
X49968750Y-87737500D01*
D39*
X87487000Y-93925000D02*
X87487000Y-91487500D01*
D40*
X46998750Y-100037500D02*
X46998750Y-100607500D01*
D38*
X78519250Y-91837500D02*
X78518750Y-91837000D01*
X48368750Y-82775000D02*
X48368750Y-84137500D01*
X47618750Y-77682500D02*
X47463750Y-77682500D01*
X89568750Y-78196900D02*
X87428150Y-78196900D01*
D40*
X46998750Y-102807500D02*
X46968750Y-102837500D01*
X48214623Y-91837500D02*
X47331250Y-91837500D01*
X46968750Y-101737500D02*
X46998750Y-101767500D01*
X49968750Y-102837500D02*
X49968750Y-101737500D01*
D38*
X67268750Y-72562500D02*
X65968750Y-73862500D01*
X84268750Y-96751000D02*
X84836000Y-96751000D01*
D40*
X48468750Y-92337500D02*
X48468750Y-92091627D01*
D38*
X94132750Y-91567000D02*
X94203250Y-91637500D01*
X84268750Y-96751000D02*
X84268750Y-97912500D01*
X46118750Y-80872500D02*
X46118750Y-81362597D01*
D40*
X49938750Y-88807500D02*
X49968750Y-88837500D01*
X46998750Y-102867500D02*
X46998750Y-103337500D01*
X49938750Y-86607500D02*
X49968750Y-86637500D01*
D38*
X102518750Y-112577500D02*
X102508750Y-112567500D01*
X79618750Y-91837500D02*
X78519250Y-91837500D01*
X91365066Y-86298816D02*
X91568750Y-86502500D01*
D40*
%TO.N,VBUS*%
X48168750Y-85137500D02*
X48968750Y-85937500D01*
X48056250Y-89337500D02*
X48968750Y-90250000D01*
X48868750Y-81662500D02*
X50128750Y-81662500D01*
X48868750Y-81662500D02*
X48368750Y-81162500D01*
X47938750Y-86037500D02*
X47938750Y-85367500D01*
X47938750Y-87137500D02*
X48968750Y-87137500D01*
X48968750Y-88237500D02*
X47938750Y-88237500D01*
X46368750Y-84137500D02*
X47368750Y-85137500D01*
X49606250Y-90887500D02*
X48968750Y-90250000D01*
X47020222Y-81662500D02*
X48868750Y-81662500D01*
X47938750Y-89337500D02*
X48056250Y-89337500D01*
X46368750Y-84137500D02*
X46368750Y-82313972D01*
X48968750Y-89337500D02*
X47938750Y-89337500D01*
X47938750Y-85367500D02*
X48168750Y-85137500D01*
X48968750Y-90250000D02*
X48968750Y-89337500D01*
X50128750Y-81662500D02*
X50618750Y-82152500D01*
X49606250Y-91837500D02*
X49606250Y-90887500D01*
X48968750Y-85937500D02*
X48968750Y-86037500D01*
X47368750Y-85137500D02*
X48168750Y-85137500D01*
X47938750Y-89337500D02*
X47938750Y-86037500D01*
X46368750Y-82313972D02*
X47020222Y-81662500D01*
X48368750Y-81162500D02*
X48368750Y-80500000D01*
X48968750Y-89337500D02*
X48968750Y-86037500D01*
D39*
%TO.N,Net-(D1-A)*%
X40918750Y-86887500D02*
X38918750Y-86887500D01*
%TO.N,Net-(D2-A)*%
X59918750Y-87037500D02*
X58118750Y-87037500D01*
%TO.N,Net-(D3-A)*%
X79068750Y-86987500D02*
X77131450Y-86987500D01*
%TO.N,Net-(D4-A)*%
X98318750Y-86887500D02*
X96068750Y-86887500D01*
%TO.N,Net-(D5-A)*%
X117368750Y-86887500D02*
X115118750Y-86887500D01*
%TO.N,Net-(D6-A)*%
X136418750Y-86887500D02*
X134168750Y-86887500D01*
%TO.N,Net-(D7-A)*%
X155468750Y-86887500D02*
X153218750Y-86887500D01*
%TO.N,Net-(D8-A)*%
X174518750Y-86887500D02*
X172268750Y-86887500D01*
%TO.N,Net-(D9-A)*%
X193568750Y-86887500D02*
X191318750Y-86887500D01*
%TO.N,Net-(D10-A)*%
X212618750Y-86887500D02*
X210368750Y-86887500D01*
%TO.N,Net-(D11-A)*%
X231668750Y-86887500D02*
X229418750Y-86887500D01*
%TO.N,Net-(D12-A)*%
X250718750Y-86887500D02*
X248468750Y-86887500D01*
%TO.N,Net-(D13-A)*%
X269768750Y-86887500D02*
X267518750Y-86887500D01*
%TO.N,Net-(D14-A)*%
X288818750Y-86887500D02*
X286568750Y-86887500D01*
%TO.N,Net-(D15-A)*%
X307868750Y-86887500D02*
X305618750Y-86887500D01*
%TO.N,Net-(D16-A)*%
X326918750Y-86887500D02*
X324668750Y-86887500D01*
%TO.N,Net-(D17-A)*%
X40918750Y-105937500D02*
X38918750Y-105937500D01*
%TO.N,Net-(D18-A)*%
X60218750Y-105937500D02*
X57968750Y-105937500D01*
%TO.N,Net-(D19-A)*%
X79268750Y-105937500D02*
X77018750Y-105937500D01*
%TO.N,Net-(D20-A)*%
X98318750Y-105937500D02*
X96068750Y-105937500D01*
%TO.N,Net-(D21-A)*%
X117368750Y-105937500D02*
X115118750Y-105937500D01*
%TO.N,Net-(D22-A)*%
X136418750Y-105937500D02*
X134168750Y-105937500D01*
%TO.N,Net-(D23-A)*%
X155468750Y-105937500D02*
X153218750Y-105937500D01*
%TO.N,Net-(D24-A)*%
X174518750Y-105937500D02*
X172268750Y-105937500D01*
X172268750Y-105937500D02*
X172243750Y-105912500D01*
%TO.N,Net-(D25-A)*%
X193568750Y-106000000D02*
X191381250Y-106000000D01*
%TO.N,Net-(D26-A)*%
X212618750Y-105925000D02*
X210356250Y-105925000D01*
%TO.N,Net-(D27-A)*%
X231668750Y-105937500D02*
X229418750Y-105937500D01*
%TO.N,Net-(D28-A)*%
X250718750Y-105937500D02*
X248468750Y-105937500D01*
%TO.N,Net-(D29-A)*%
X269768750Y-105937500D02*
X267518750Y-105937500D01*
%TO.N,Net-(D30-A)*%
X288818750Y-105937500D02*
X286568750Y-105937500D01*
%TO.N,Net-(D31-A)*%
X307868750Y-105937500D02*
X305618750Y-105937500D01*
%TO.N,Net-(D32-A)*%
X326918750Y-105937500D02*
X324668750Y-105937500D01*
%TO.N,Net-(D33-A)*%
X40918750Y-124987500D02*
X38918750Y-124987500D01*
%TO.N,Net-(D34-A)*%
X60218750Y-124987500D02*
X57968750Y-124987500D01*
%TO.N,Net-(D35-A)*%
X79268750Y-124987500D02*
X77018750Y-124987500D01*
%TO.N,Net-(D36-A)*%
X98318750Y-124987500D02*
X96068750Y-124987500D01*
%TO.N,Net-(D37-A)*%
X117368750Y-124987500D02*
X115118750Y-124987500D01*
%TO.N,Net-(D38-A)*%
X136418750Y-124937500D02*
X134168750Y-124937500D01*
%TO.N,Net-(D39-A)*%
X155468750Y-124987500D02*
X153218750Y-124987500D01*
%TO.N,Net-(D40-A)*%
X174518750Y-124987500D02*
X172268750Y-124987500D01*
X172268750Y-124987500D02*
X172243750Y-124962500D01*
%TO.N,Net-(D41-A)*%
X193568750Y-124987500D02*
X191318750Y-124987500D01*
X191318750Y-124987500D02*
X191293750Y-124962500D01*
%TO.N,Net-(D42-A)*%
X212618750Y-124987500D02*
X210368750Y-124987500D01*
%TO.N,Net-(D43-A)*%
X231668750Y-124987500D02*
X229418750Y-124987500D01*
%TO.N,Net-(D44-A)*%
X250718750Y-124987500D02*
X248468750Y-124987500D01*
%TO.N,Net-(D45-A)*%
X269768750Y-124987500D02*
X267518750Y-124987500D01*
%TO.N,Net-(D46-A)*%
X288818750Y-124987500D02*
X286568750Y-124987500D01*
%TO.N,Net-(D47-A)*%
X307868750Y-124987500D02*
X305618750Y-124987500D01*
%TO.N,Net-(D48-A)*%
X326918750Y-124987500D02*
X324668750Y-124987500D01*
%TO.N,D+*%
X50618750Y-78557500D02*
X50718750Y-78657500D01*
X49318750Y-79902475D02*
X50618750Y-78602475D01*
X51568750Y-78657500D02*
X51618750Y-78607500D01*
X50718750Y-78657500D02*
X51568750Y-78657500D01*
X50618750Y-78602475D02*
X50618750Y-78557500D01*
X51618750Y-78607500D02*
X51618750Y-77682500D01*
X49318750Y-80500000D02*
X49318750Y-79902475D01*
X50618750Y-77682500D02*
X50618750Y-78557500D01*
%TO.N,D-*%
X51118750Y-76757500D02*
X51118750Y-77682500D01*
X50118750Y-76757500D02*
X50168750Y-76707500D01*
X51068750Y-76707500D02*
X51118750Y-76757500D01*
X50118750Y-78607500D02*
X50118750Y-77682500D01*
X47418750Y-80151104D02*
X48032354Y-79537500D01*
X48032354Y-79537500D02*
X49188750Y-79537500D01*
X49188750Y-79537500D02*
X50118750Y-78607500D01*
X50168750Y-76707500D02*
X51068750Y-76707500D01*
X50118750Y-77682500D02*
X50118750Y-76757500D01*
%TO.N,Net-(D49-A)*%
X40918750Y-144037500D02*
X38918750Y-144037500D01*
%TO.N,Net-(D50-A)*%
X60218750Y-144037500D02*
X57968750Y-144037500D01*
%TO.N,Net-(D51-A)*%
X79268750Y-144037500D02*
X77018750Y-144037500D01*
%TO.N,Net-(D52-A)*%
X98318750Y-144037500D02*
X96068750Y-144037500D01*
%TO.N,Net-(D53-A)*%
X117368750Y-144037500D02*
X115118750Y-144037500D01*
%TO.N,Net-(D54-A)*%
X136418750Y-144037500D02*
X134168750Y-144037500D01*
%TO.N,Net-(D55-A)*%
X155468750Y-144037500D02*
X153218750Y-144037500D01*
%TO.N,Net-(D56-A)*%
X174518750Y-144037500D02*
X172268750Y-144037500D01*
X172268750Y-144037500D02*
X172243750Y-144012500D01*
%TO.N,Net-(D57-A)*%
X193568750Y-144037500D02*
X191318750Y-144037500D01*
X191318750Y-144037500D02*
X191293750Y-144012500D01*
%TO.N,Net-(D58-A)*%
X212618750Y-144037500D02*
X210368750Y-144037500D01*
%TO.N,Net-(D59-A)*%
X231668750Y-144037500D02*
X229418750Y-144037500D01*
%TO.N,Net-(D60-A)*%
X250718750Y-144037500D02*
X248468750Y-144037500D01*
%TO.N,Net-(D61-A)*%
X269768750Y-144037500D02*
X267518750Y-144037500D01*
%TO.N,Net-(D62-A)*%
X288818750Y-144037500D02*
X286568750Y-144037500D01*
%TO.N,Net-(D63-A)*%
X307868750Y-144037500D02*
X305618750Y-144037500D01*
%TO.N,Net-(D64-A)*%
X326918750Y-144037500D02*
X324668750Y-144037500D01*
%TO.N,Net-(J0-CC1)*%
X49618750Y-77682500D02*
X49618750Y-78607500D01*
X49618750Y-78607500D02*
X49038750Y-79187500D01*
X49038750Y-79187500D02*
X46833750Y-79187500D01*
X46833750Y-79187500D02*
X46118750Y-79902500D01*
%TO.N,Net-(J0-CC2)*%
X52618750Y-78607500D02*
X52618750Y-77682500D01*
X50618750Y-79387500D02*
X50998750Y-79007500D01*
X50998750Y-79007500D02*
X52218750Y-79007500D01*
X52218750Y-79007500D02*
X52618750Y-78607500D01*
X50618750Y-79922500D02*
X50618750Y-79387500D01*
D38*
%TO.N,vUSB*%
X53318750Y-77682500D02*
X53318750Y-77022500D01*
X52496250Y-76200000D02*
X49154692Y-76200000D01*
X48418750Y-76935942D02*
X48418750Y-77682500D01*
D40*
X52712448Y-83137500D02*
X50633750Y-83137500D01*
X54294750Y-79563500D02*
X54294750Y-81555198D01*
X54294750Y-81555198D02*
X52712448Y-83137500D01*
X53318750Y-77682500D02*
X53318750Y-78587500D01*
D38*
X49154692Y-76200000D02*
X48418750Y-76935942D01*
X53318750Y-77022500D02*
X52496250Y-76200000D01*
D40*
X53318750Y-78587500D02*
X54294750Y-79563500D01*
D39*
%TO.N,~{RESET}*%
X83073000Y-97131750D02*
X83563800Y-97622550D01*
X84687000Y-94552875D02*
X84022376Y-95217500D01*
X84687000Y-93925000D02*
X84687000Y-94552875D01*
X83563800Y-97622550D02*
X83568750Y-97622550D01*
X83568750Y-98202450D02*
X84733800Y-99367500D01*
X96458750Y-109227500D02*
X97187050Y-109227500D01*
X83073000Y-95518850D02*
X83073000Y-97131750D01*
X83568750Y-97622550D02*
X83568750Y-98202450D01*
X87358750Y-106747500D02*
X94268750Y-106747500D01*
X83374350Y-95217500D02*
X83073000Y-95518850D01*
X84022376Y-95217500D02*
X83374350Y-95217500D01*
X98818750Y-109237500D02*
X98818750Y-115437500D01*
X97214650Y-109255100D02*
X98801150Y-109255100D01*
X84733800Y-99367500D02*
X84733800Y-104122550D01*
X84733800Y-104122550D02*
X87358750Y-106747500D01*
%TO.N,+1V1*%
X84687000Y-88592500D02*
X84662000Y-88617500D01*
X85887000Y-94904276D02*
X85887000Y-93925000D01*
X86687000Y-87050000D02*
X86687000Y-88219250D01*
X84662000Y-92312500D02*
X84662000Y-88617500D01*
X84942790Y-95236000D02*
X85011290Y-95167500D01*
X83693000Y-95781000D02*
X83953850Y-95781000D01*
X86687000Y-86189250D02*
X86718750Y-86157500D01*
X86288750Y-88617500D02*
X84662000Y-88617500D01*
X87384750Y-84937500D02*
X86718750Y-85603500D01*
X85368750Y-92427500D02*
X84777000Y-92427500D01*
X84777000Y-92427500D02*
X84662000Y-92312500D01*
X85887000Y-93925000D02*
X85887000Y-92945750D01*
X85887000Y-92945750D02*
X85368750Y-92427500D01*
X85011290Y-95167500D02*
X85623776Y-95167500D01*
X86718750Y-85603500D02*
X86718750Y-86157500D01*
X84687000Y-87050000D02*
X84687000Y-88592500D01*
X86687000Y-88219250D02*
X86288750Y-88617500D01*
X84498850Y-95236000D02*
X84942790Y-95236000D01*
X86687000Y-87050000D02*
X86687000Y-86189250D01*
X83953850Y-95781000D02*
X84498850Y-95236000D01*
X84687000Y-87050000D02*
X84687000Y-84962000D01*
X85623776Y-95167500D02*
X85887000Y-94904276D01*
%TO.N,XIN*%
X87968000Y-96506850D02*
X87968000Y-98479000D01*
X87087000Y-93925000D02*
X87087000Y-95625850D01*
X87087000Y-95625850D02*
X87968000Y-96506850D01*
%TO.N,CS*%
X89568750Y-74386900D02*
X90118150Y-74386900D01*
X82438750Y-72137000D02*
X87318850Y-72137000D01*
X91068750Y-75337500D02*
X91068750Y-79137500D01*
X91068750Y-79137500D02*
X90524650Y-79681600D01*
X89087000Y-86683210D02*
X89087000Y-87050000D01*
X89754750Y-82048627D02*
X89754750Y-86015461D01*
X87318850Y-72137000D02*
X89568750Y-74386900D01*
X90013084Y-79681600D02*
X89168750Y-80525934D01*
X89168750Y-80525934D02*
X89168750Y-81462627D01*
X90118150Y-74386900D02*
X91068750Y-75337500D01*
X89754750Y-86015461D02*
X89087000Y-86683210D01*
X81843750Y-72732000D02*
X82438750Y-72137000D01*
X90524650Y-79681600D02*
X90013084Y-79681600D01*
X89168750Y-81462627D02*
X89754750Y-82048627D01*
%TO.N,DB+*%
X69868750Y-79287500D02*
X74723776Y-79287500D01*
X60114824Y-78188600D02*
X56794764Y-78188600D01*
X49318750Y-84087500D02*
X49268750Y-84137500D01*
X61213724Y-79287500D02*
X60114824Y-78188600D01*
X78954336Y-78987500D02*
X78142736Y-78175900D01*
X55118750Y-82087500D02*
X54468750Y-82737500D01*
X84553828Y-80607500D02*
X85098750Y-80607500D01*
X64818750Y-79287500D02*
X61213724Y-79287500D01*
X55118750Y-79864614D02*
X55118750Y-82087500D01*
X75835376Y-78175900D02*
X74723776Y-79287500D01*
X56794764Y-78188600D02*
X55118750Y-79864614D01*
X49318750Y-82775000D02*
X49318750Y-84087500D01*
X78954336Y-78987500D02*
X82933828Y-78987500D01*
X85268750Y-80777500D02*
X85098750Y-80607500D01*
X84553828Y-80607500D02*
X82933828Y-78987500D01*
X85268750Y-81152500D02*
X85268750Y-80777500D01*
X78142736Y-78175900D02*
X75835376Y-78175900D01*
%TO.N,DR-*%
X85279000Y-84677500D02*
X85329000Y-84627500D01*
X85329000Y-83637500D02*
X85329000Y-83637139D01*
X84268750Y-82576889D02*
X84268750Y-82122500D01*
X85329000Y-83637139D02*
X84268750Y-82576889D01*
X85279000Y-85387500D02*
X85279000Y-84677500D01*
X85329000Y-84627500D02*
X85329000Y-83637500D01*
X85087000Y-85579500D02*
X85279000Y-85387500D01*
X85087000Y-87050000D02*
X85087000Y-85579500D01*
%TO.N,DB-*%
X59969850Y-78538600D02*
X56939738Y-78538600D01*
X70418750Y-79637500D02*
X74868750Y-79637500D01*
X78809362Y-79337500D02*
X77997762Y-78525900D01*
X61068750Y-79637500D02*
X64318750Y-79637500D01*
X82788854Y-79337500D02*
X78809362Y-79337500D01*
X84268750Y-80817397D02*
X82788854Y-79337500D01*
X64768750Y-80087500D02*
X64318750Y-79637500D01*
X56939738Y-78538600D02*
X55468750Y-80009588D01*
X55468750Y-80009588D02*
X55468750Y-82837500D01*
X47418750Y-84087500D02*
X47468750Y-84137500D01*
X75980350Y-78525900D02*
X74868750Y-79637500D01*
X47418750Y-82775000D02*
X47418750Y-84087500D01*
X55468750Y-82837500D02*
X54868750Y-83437500D01*
X84268750Y-81152500D02*
X84268750Y-80817397D01*
X77997762Y-78525900D02*
X75980350Y-78525900D01*
X61068750Y-79637500D02*
X59969850Y-78538600D01*
X70418750Y-79637500D02*
X69968750Y-80087500D01*
%TO.N,XOUT*%
X86687000Y-93925000D02*
X86687000Y-96108000D01*
%TO.N,SD1*%
X88818750Y-80380960D02*
X88818750Y-81607602D01*
X89568750Y-75656900D02*
X90718750Y-76806900D01*
X89404750Y-82193602D02*
X89404750Y-85870486D01*
X89868110Y-79331600D02*
X88818750Y-80380960D01*
X89404750Y-85870486D02*
X88687000Y-86588236D01*
X90718750Y-76806900D02*
X90718750Y-78992526D01*
X88818750Y-81607602D02*
X89404750Y-82193602D01*
X88687000Y-86588236D02*
X88687000Y-87050000D01*
X90379676Y-79331600D02*
X89868110Y-79331600D01*
X90718750Y-78992526D02*
X90379676Y-79331600D01*
%TO.N,SD2*%
X90058150Y-76926900D02*
X90368750Y-77237500D01*
X90368750Y-77237500D02*
X90368750Y-78847552D01*
X88468750Y-81752577D02*
X89054750Y-82338577D01*
X89723136Y-78981600D02*
X88468750Y-80235986D01*
X88468750Y-80235986D02*
X88468750Y-81752577D01*
X89054750Y-85634573D02*
X88287000Y-86402323D01*
X89568750Y-76926900D02*
X90058150Y-76926900D01*
X90368750Y-78847552D02*
X90234702Y-78981600D01*
X88287000Y-86402323D02*
X88287000Y-87050000D01*
X89054750Y-82338577D02*
X89054750Y-85634573D01*
X90234702Y-78981600D02*
X89723136Y-78981600D01*
%TO.N,SD0*%
X84168750Y-78737500D02*
X84988750Y-79557500D01*
X85778698Y-79557500D02*
X88704750Y-82483552D01*
X84988750Y-79557500D02*
X85778698Y-79557500D01*
X84168750Y-78196900D02*
X84168750Y-78737500D01*
X88704750Y-85489598D02*
X87887000Y-86307348D01*
X87887000Y-86307348D02*
X87887000Y-87050000D01*
X88704750Y-82483552D02*
X88704750Y-85489598D01*
%TO.N,CLOCK*%
X83489050Y-78552774D02*
X84843776Y-79907500D01*
X88354750Y-82628526D02*
X88354750Y-85344624D01*
X84843776Y-79907500D02*
X85633724Y-79907500D01*
X84079350Y-76926900D02*
X83489050Y-77517200D01*
X83489050Y-77517200D02*
X83489050Y-78552774D01*
X87487000Y-86212374D02*
X87487000Y-87050000D01*
X85633724Y-79907500D02*
X88354750Y-82628526D01*
X88354750Y-85344624D02*
X87487000Y-86212374D01*
%TO.N,SD3*%
X84168750Y-75656900D02*
X83139050Y-76686600D01*
X87087000Y-86117400D02*
X87087000Y-87050000D01*
X83139050Y-78697748D02*
X84698802Y-80257500D01*
X84698802Y-80257500D02*
X85488750Y-80257500D01*
X83139050Y-76686600D02*
X83139050Y-78697748D01*
X88004750Y-85199650D02*
X87087000Y-86117400D01*
X88004750Y-82773500D02*
X88004750Y-85199650D01*
X85488750Y-80257500D02*
X88004750Y-82773500D01*
%TO.N,0*%
X93404890Y-88487500D02*
X95938593Y-88487500D01*
X89924500Y-88287500D02*
X93204890Y-88287500D01*
X143910397Y-88837500D02*
X147590396Y-92517500D01*
X321848750Y-92517500D02*
X322093750Y-92762500D01*
X93204890Y-88287500D02*
X93404890Y-88487500D01*
X95938593Y-88487500D02*
X96288593Y-88837500D01*
X147590396Y-92517500D02*
X321848750Y-92517500D01*
X96288593Y-88837500D02*
X143910397Y-88837500D01*
%TO.N,1*%
X93109916Y-88687500D02*
X93259916Y-88837500D01*
X95793619Y-88837500D02*
X96143619Y-89187500D01*
X143765422Y-89187500D02*
X147465422Y-92887500D01*
X147465422Y-92887500D02*
X302828750Y-92887500D01*
X93259916Y-88837500D02*
X95793619Y-88837500D01*
X89924500Y-88687500D02*
X93109916Y-88687500D01*
X96143619Y-89187500D02*
X143765422Y-89187500D01*
X302828750Y-92887500D02*
X303053750Y-93112500D01*
%TO.N,2*%
X89924500Y-89087500D02*
X93014940Y-89087500D01*
X93014940Y-89087500D02*
X93114940Y-89187500D01*
X95648645Y-89187500D02*
X95998645Y-89537500D01*
X95998645Y-89537500D02*
X143620450Y-89537500D01*
X93114940Y-89187500D02*
X95648645Y-89187500D01*
X147320448Y-93237500D02*
X283753750Y-93237500D01*
X143620450Y-89537500D02*
X147320448Y-93237500D01*
X283753750Y-93237500D02*
X284003750Y-93487500D01*
%TO.N,3*%
X143475475Y-89887500D02*
X147175473Y-93587500D01*
X147175473Y-93587500D02*
X264703750Y-93587500D01*
X95853671Y-89887500D02*
X143475475Y-89887500D01*
X95503671Y-89537500D02*
X95853671Y-89887500D01*
X92969965Y-89537500D02*
X95503671Y-89537500D01*
X92919965Y-89487500D02*
X92969965Y-89537500D01*
X89924500Y-89487500D02*
X92919965Y-89487500D01*
X264703750Y-93587500D02*
X264953750Y-93837500D01*
%TO.N,4*%
X95708697Y-90237500D02*
X143330500Y-90237500D01*
X89924500Y-89887500D02*
X95358697Y-89887500D01*
X143330500Y-90237500D02*
X147030500Y-93937500D01*
X147030500Y-93937500D02*
X245653750Y-93937500D01*
X95358697Y-89887500D02*
X95708697Y-90237500D01*
X245653750Y-93937500D02*
X245903750Y-94187500D01*
%TO.N,5*%
X95213723Y-90237500D02*
X95563723Y-90587500D01*
X92780015Y-90237500D02*
X95213723Y-90237500D01*
X146935526Y-94337500D02*
X226653750Y-94337500D01*
X143185528Y-90587500D02*
X146935526Y-94337500D01*
X89924500Y-90287500D02*
X92730015Y-90287500D01*
X92730015Y-90287500D02*
X92780015Y-90237500D01*
X95563723Y-90587500D02*
X143185528Y-90587500D01*
X226653750Y-94337500D02*
X226853750Y-94537500D01*
%TO.N,6*%
X95418749Y-90937500D02*
X143040553Y-90937500D01*
X143040553Y-90937500D02*
X146790551Y-94687500D01*
X207553750Y-94687500D02*
X207803750Y-94937500D01*
X95068749Y-90587500D02*
X95418749Y-90937500D01*
X89924500Y-90687500D02*
X92824990Y-90687500D01*
X146790551Y-94687500D02*
X207553750Y-94687500D01*
X92824990Y-90687500D02*
X92924990Y-90587500D01*
X92924990Y-90587500D02*
X95068749Y-90587500D01*
%TO.N,7*%
X89924500Y-91087500D02*
X92919965Y-91087500D01*
X92919965Y-91087500D02*
X93069965Y-90937500D01*
X95273775Y-91287500D02*
X142895578Y-91287500D01*
X142895578Y-91287500D02*
X146645577Y-95037500D01*
X188503750Y-95037500D02*
X188753750Y-95287500D01*
X146645577Y-95037500D02*
X188503750Y-95037500D01*
X94923775Y-90937500D02*
X95273775Y-91287500D01*
X93069965Y-90937500D02*
X94923775Y-90937500D01*
%TO.N,8*%
X92868750Y-92332500D02*
X91471600Y-92332500D01*
X94718750Y-92337500D02*
X95418750Y-91637500D01*
X92873750Y-92337500D02*
X94718750Y-92337500D01*
X142750603Y-91637500D02*
X146500603Y-95387500D01*
X91026600Y-91887500D02*
X89924500Y-91887500D01*
X92868750Y-92332500D02*
X92873750Y-92337500D01*
X146500603Y-95387500D02*
X169453750Y-95387500D01*
X169453750Y-95387500D02*
X169703750Y-95637500D01*
X95418750Y-91637500D02*
X142750603Y-91637500D01*
X91471600Y-92332500D02*
X91026600Y-91887500D01*
%TO.N,9*%
X91331625Y-92687500D02*
X94863724Y-92687500D01*
X95563724Y-91987500D02*
X142605629Y-91987500D01*
X90931626Y-92287500D02*
X91331625Y-92687500D01*
X89924500Y-92287500D02*
X90931626Y-92287500D01*
X94863724Y-92687500D02*
X95563724Y-91987500D01*
X150403750Y-95737500D02*
X150653750Y-95987500D01*
X146355629Y-95737500D02*
X150403750Y-95737500D01*
X142605629Y-91987500D02*
X146355629Y-95737500D01*
%TO.N,10*%
X131618750Y-127637500D02*
X145868750Y-127637500D01*
X89924500Y-92687500D02*
X90836651Y-92687500D01*
X145868750Y-127637500D02*
X146118750Y-127887500D01*
X91186650Y-93037500D02*
X95008698Y-93037500D01*
X95708698Y-92337500D02*
X131353750Y-92337500D01*
X90836651Y-92687500D02*
X91186650Y-93037500D01*
X131353750Y-92337500D02*
X131603750Y-92587500D01*
X95008698Y-93037500D02*
X95708698Y-92337500D01*
%TO.N,11*%
X89924500Y-93087500D02*
X90741676Y-93087500D01*
X90741676Y-93087500D02*
X91041675Y-93387500D01*
X91041675Y-93387500D02*
X95153672Y-93387500D01*
X112303750Y-92687500D02*
X112553750Y-92937500D01*
X95153672Y-93387500D02*
X95853672Y-92687500D01*
X95853672Y-92687500D02*
X112303750Y-92687500D01*
%TO.N,12*%
X90596700Y-93437500D02*
X90896700Y-93737500D01*
X89574500Y-93437500D02*
X90596700Y-93437500D01*
X89087000Y-93925000D02*
X89574500Y-93437500D01*
X93253750Y-93737500D02*
X93503750Y-93987500D01*
X90896700Y-93737500D02*
X93253750Y-93737500D01*
%TO.N,13*%
X89248750Y-94857500D02*
X88848750Y-94857500D01*
X88848750Y-94857500D02*
X88687000Y-94695750D01*
X88687000Y-94695750D02*
X88687000Y-93925000D01*
%TO.N,14*%
X89818750Y-95487500D02*
X88983776Y-95487500D01*
X88287000Y-94790724D02*
X88287000Y-93925000D01*
X88983776Y-95487500D02*
X88287000Y-94790724D01*
X75118750Y-89737997D02*
X75091142Y-89710389D01*
X75091142Y-89710389D02*
X73768750Y-89710389D01*
%TO.N,15*%
X73861000Y-90545250D02*
X75061000Y-90545250D01*
X56058750Y-89227500D02*
X54768750Y-89227500D01*
X73818750Y-90587500D02*
X73861000Y-90545250D01*
X89074159Y-96072857D02*
X87887000Y-94885698D01*
X56068750Y-89237500D02*
X56058750Y-89227500D01*
X87887000Y-94885698D02*
X87887000Y-93925000D01*
X89199718Y-96072857D02*
X89074159Y-96072857D01*
%TO.N,18*%
X69068750Y-97087500D02*
X69068750Y-96832474D01*
X65468750Y-96187500D02*
X65468750Y-96437500D01*
X61238854Y-91537500D02*
X64768750Y-95067396D01*
X42268750Y-91237500D02*
X34358698Y-91237500D01*
X33568750Y-96237500D02*
X32688750Y-97117500D01*
X69068750Y-96832474D02*
X70513724Y-95387500D01*
X74283569Y-95387500D02*
X76084069Y-93587000D01*
X81803673Y-93087500D02*
X83049500Y-93087500D01*
X64768750Y-95487500D02*
X65468750Y-96187500D01*
X33568750Y-92027448D02*
X33568750Y-96237500D01*
X34358698Y-91237500D02*
X33568750Y-92027448D01*
X51318750Y-93087500D02*
X52868750Y-91537500D01*
X52868750Y-91537500D02*
X61238854Y-91537500D01*
X43068750Y-92037500D02*
X42268750Y-91237500D01*
X65468750Y-96437500D02*
X66168750Y-97137500D01*
X70513724Y-95387500D02*
X74283569Y-95387500D01*
X81304173Y-93587000D02*
X81803673Y-93087500D01*
X64768750Y-95067396D02*
X64768750Y-95487500D01*
X32688750Y-97117500D02*
X31268750Y-97117500D01*
X66168750Y-97137500D02*
X66368750Y-97137500D01*
X76084069Y-93587000D02*
X81304173Y-93587000D01*
%TO.N,19*%
X70368750Y-95037500D02*
X74138595Y-95037500D01*
X81708699Y-92687500D02*
X83049500Y-92687500D01*
X81159199Y-93237000D02*
X81708699Y-92687500D01*
X68468750Y-96487500D02*
X68918750Y-96487500D01*
X66067938Y-96281662D02*
X65118750Y-95332474D01*
X33218750Y-94087500D02*
X32728750Y-94577500D01*
X68918750Y-96487500D02*
X70368750Y-95037500D01*
X74138595Y-95037500D02*
X75939095Y-93237000D01*
X52723775Y-91187500D02*
X51581146Y-92330130D01*
X43668750Y-91437500D02*
X43118750Y-90887500D01*
X43118750Y-90887500D02*
X34213724Y-90887500D01*
X34213724Y-90887500D02*
X33218750Y-91882474D01*
X65118750Y-94922422D02*
X61383828Y-91187500D01*
X51581146Y-92330130D02*
X50748660Y-92330130D01*
X65118750Y-95332474D02*
X65118750Y-94922422D01*
X33218750Y-91882474D02*
X33218750Y-94087500D01*
X32728750Y-94577500D02*
X31268750Y-94577500D01*
X61383828Y-91187500D02*
X52723775Y-91187500D01*
X75939095Y-93237000D02*
X81159199Y-93237000D01*
X66216665Y-96281662D02*
X66067938Y-96281662D01*
%TO.N,20*%
X81613725Y-92287500D02*
X83049500Y-92287500D01*
X52578801Y-90837500D02*
X61528802Y-90837500D01*
X34068750Y-90537500D02*
X32568750Y-92037500D01*
X65468750Y-95187500D02*
X65768750Y-95487500D01*
X65468750Y-94777448D02*
X65468750Y-95187500D01*
X51800478Y-91615823D02*
X52578801Y-90837500D01*
X68818750Y-95737500D02*
X69173776Y-95737500D01*
X73993621Y-94687500D02*
X75794121Y-92887000D01*
X32568750Y-92037500D02*
X31268750Y-92037500D01*
X44368750Y-90937500D02*
X43968750Y-90537500D01*
X81014225Y-92887000D02*
X81613725Y-92287500D01*
X43968750Y-90537500D02*
X34068750Y-90537500D01*
X69173776Y-95737500D02*
X70223776Y-94687500D01*
X75794121Y-92887000D02*
X81014225Y-92887000D01*
X61528802Y-90837500D02*
X65468750Y-94777448D01*
X51368750Y-91615823D02*
X51800478Y-91615823D01*
X65768750Y-95487500D02*
X66568750Y-95487500D01*
X70223776Y-94687500D02*
X73993621Y-94687500D01*
%TO.N,23*%
X73558698Y-93637500D02*
X75359198Y-91837000D01*
X65318750Y-126987500D02*
X65318750Y-143937500D01*
X75359198Y-91837000D02*
X77024276Y-91837000D01*
X67478750Y-124337500D02*
X67478750Y-125177500D01*
X63818750Y-145437500D02*
X40918750Y-145437500D01*
X67868750Y-106637500D02*
X67868750Y-94477448D01*
X67768750Y-107987500D02*
X67478750Y-108277500D01*
X67478750Y-108277500D02*
X67478750Y-124277500D01*
X81019554Y-90687500D02*
X83049500Y-90687500D01*
X67478750Y-124277500D02*
X67478750Y-124337500D01*
X326918750Y-145437500D02*
X63818750Y-145437500D01*
X67968750Y-106737500D02*
X67868750Y-106637500D01*
X67868750Y-94477448D02*
X68708698Y-93637500D01*
X78073776Y-90787500D02*
X80919554Y-90787500D01*
X80919554Y-90787500D02*
X81019554Y-90687500D01*
X77024276Y-91837000D02*
X78073776Y-90787500D01*
X67478750Y-125177500D02*
X66868750Y-125787500D01*
X65318750Y-143937500D02*
X63818750Y-145437500D01*
X68708698Y-93637500D02*
X73558698Y-93637500D01*
%TO.N,24*%
X75214224Y-91487000D02*
X76879302Y-91487000D01*
X80774579Y-90437500D02*
X80924579Y-90287500D01*
X65168750Y-126387500D02*
X326918750Y-126387500D01*
X67128750Y-108247500D02*
X67128750Y-124677500D01*
X67518750Y-106287500D02*
X67518750Y-94332474D01*
X80924579Y-90287500D02*
X83049500Y-90287500D01*
X76879302Y-91487000D02*
X77928802Y-90437500D01*
X65418750Y-126387500D02*
X65168750Y-126387500D01*
X66868750Y-107987500D02*
X67128750Y-108247500D01*
X40918750Y-126387500D02*
X65168750Y-126387500D01*
X68563724Y-93287500D02*
X73413724Y-93287500D01*
X67128750Y-124677500D02*
X65418750Y-126387500D01*
X67518750Y-94332474D02*
X68563724Y-93287500D01*
X77928802Y-90437500D02*
X80774579Y-90437500D01*
X67068750Y-106737500D02*
X67518750Y-106287500D01*
X73413724Y-93287500D02*
X75214224Y-91487000D01*
%TO.N,26{slash}A0*%
X79068750Y-88387500D02*
X79818750Y-88387500D01*
X76218750Y-89637500D02*
X75418750Y-88837500D01*
X92880971Y-87699721D02*
X93112085Y-87699721D01*
X83993750Y-89387500D02*
X83893750Y-89487500D01*
X79818750Y-88387500D02*
X79868750Y-88337500D01*
X75418750Y-88837500D02*
X72723776Y-88837500D01*
X51168750Y-88437500D02*
X59918750Y-88437500D01*
X93549864Y-88137500D02*
X96083568Y-88137500D01*
X78368750Y-88437500D02*
X79018750Y-88437500D01*
X96083568Y-88137500D02*
X96233568Y-88287500D01*
X72723776Y-88837500D02*
X72338076Y-88451800D01*
X72338076Y-88451800D02*
X59933050Y-88451800D01*
X98318750Y-88287500D02*
X326918750Y-88287500D01*
X93112085Y-87699721D02*
X93549864Y-88137500D01*
X40918750Y-88287500D02*
X45718750Y-88287500D01*
X45718750Y-88287500D02*
X45768750Y-88337500D01*
X76768750Y-89637500D02*
X76218750Y-89637500D01*
X83893750Y-89487500D02*
X83049500Y-89487500D01*
X96233568Y-88287500D02*
X98318750Y-88287500D01*
%TO.N,27{slash}A1*%
X80958699Y-89087500D02*
X80308699Y-89737500D01*
X77828800Y-89737500D02*
X80308699Y-89737500D01*
X56649790Y-77838600D02*
X55800890Y-78687500D01*
X72868750Y-88487500D02*
X72483050Y-88101800D01*
X55800890Y-78687500D02*
X55318750Y-78687500D01*
X61108698Y-78687500D02*
X60259798Y-77838600D01*
X72483050Y-88101800D02*
X72483050Y-88019444D01*
X83049500Y-89087500D02*
X80958699Y-89087500D01*
X76968750Y-88887500D02*
X77818750Y-89737500D01*
X67618750Y-83155144D02*
X67618750Y-79037500D01*
X67618750Y-79037500D02*
X67268750Y-78687500D01*
X75563724Y-88487500D02*
X72868750Y-88487500D01*
X76968750Y-88887500D02*
X75963724Y-88887500D01*
X77828800Y-89737500D02*
X77818750Y-89737500D01*
X75963724Y-88887500D02*
X75563724Y-88487500D01*
X72483050Y-88019444D02*
X67618750Y-83155144D01*
X67268750Y-78687500D02*
X61108698Y-78687500D01*
X60259798Y-77838600D02*
X56649790Y-77838600D01*
%TO.N,29{slash}A3*%
X76253672Y-88187500D02*
X77268750Y-88187500D01*
X80018750Y-89037500D02*
X80768750Y-88287500D01*
X73241055Y-87787500D02*
X75853672Y-87787500D01*
X68968750Y-76437500D02*
X68968750Y-77637500D01*
X78118750Y-89037500D02*
X80018750Y-89037500D01*
X75853672Y-87787500D02*
X76253672Y-88187500D01*
X68318750Y-78287500D02*
X68318750Y-82865195D01*
X77268750Y-88187500D02*
X78118750Y-89037500D01*
X68318750Y-82865195D02*
X73241055Y-87787500D01*
X68968750Y-77637500D02*
X68318750Y-78287500D01*
X80768750Y-88287500D02*
X83049500Y-88287500D01*
%TO.N,+3V3*%
X89924500Y-91487500D02*
X91637500Y-91487500D01*
X86287000Y-87409250D02*
X85728750Y-87967500D01*
X96561150Y-110225100D02*
X96558750Y-110227500D01*
X85887000Y-87809250D02*
X85728750Y-87967500D01*
D40*
X48968750Y-101637500D02*
X48998750Y-101667500D01*
X45568750Y-95722500D02*
X45568750Y-97537500D01*
D39*
X91568750Y-87472500D02*
X90733750Y-87472500D01*
D40*
X48998750Y-100037500D02*
X48998750Y-99467500D01*
X48998750Y-99467500D02*
X48968750Y-99437500D01*
X48998750Y-100667500D02*
X48998750Y-101607500D01*
X48998750Y-101137500D02*
X48468750Y-101137500D01*
D39*
X83887000Y-87050000D02*
X83887000Y-87715750D01*
D40*
X48468750Y-101137500D02*
X47968750Y-101137500D01*
X48968750Y-100637500D02*
X48998750Y-100667500D01*
X47968750Y-100037500D02*
X47968750Y-100637500D01*
D39*
X84287000Y-86035750D02*
X84287000Y-87050000D01*
X81843750Y-73702000D02*
X83483850Y-73702000D01*
D40*
X48968750Y-99437500D02*
X48998750Y-99407500D01*
X48998750Y-101607500D02*
X48968750Y-101637500D01*
D39*
X66968750Y-76437500D02*
X66968750Y-74437500D01*
X80938750Y-91487500D02*
X80588750Y-91837500D01*
X89924500Y-91487500D02*
X89138750Y-91487500D01*
D40*
X47968750Y-102737500D02*
X47968750Y-103337500D01*
D39*
X86287000Y-87050000D02*
X86287000Y-87409250D01*
X83049500Y-91487500D02*
X80938750Y-91487500D01*
X83668750Y-73837500D02*
X83668750Y-73886900D01*
D40*
X46568750Y-98537500D02*
X48468750Y-98537500D01*
X48468750Y-103337500D02*
X47968750Y-103337500D01*
X48998750Y-100037500D02*
X48998750Y-100607500D01*
D39*
X83918750Y-91487500D02*
X84068750Y-91637500D01*
X83887000Y-87050000D02*
X83887000Y-86150000D01*
D40*
X48998750Y-102707500D02*
X48968750Y-102737500D01*
X48468750Y-100037500D02*
X48998750Y-100037500D01*
D39*
X82199625Y-87503000D02*
X82584125Y-87887500D01*
X84287000Y-87050000D02*
X84287000Y-87659250D01*
D40*
X47968750Y-100037500D02*
X47968750Y-99437500D01*
D39*
X88668750Y-87987500D02*
X88768750Y-87887500D01*
X85887000Y-87050000D02*
X85887000Y-87809250D01*
D40*
X47968750Y-100037500D02*
X48468750Y-100037500D01*
X47968750Y-99037500D02*
X48468750Y-98537500D01*
D39*
X86287000Y-87050000D02*
X86287000Y-86059250D01*
X90733750Y-87472500D02*
X90318750Y-87887500D01*
D40*
X48468750Y-102237500D02*
X48998750Y-102237500D01*
D39*
X86287000Y-93069250D02*
X86287000Y-93925000D01*
X85887000Y-86059250D02*
X86368750Y-85577500D01*
X81753750Y-87503000D02*
X82199625Y-87503000D01*
X83693000Y-85441750D02*
X84287000Y-86035750D01*
X88768750Y-87887500D02*
X89924500Y-87887500D01*
D40*
X48998750Y-101667500D02*
X48998750Y-102707500D01*
X47968750Y-99437500D02*
X47968750Y-99037500D01*
X48998750Y-103337500D02*
X48468750Y-103337500D01*
D39*
X84287000Y-87659250D02*
X84058750Y-87887500D01*
D40*
X47968750Y-100637500D02*
X47968750Y-101637500D01*
D39*
X83668750Y-73886900D02*
X84168750Y-74386900D01*
X86368750Y-85977500D02*
X86368750Y-85577500D01*
X83887000Y-86150000D02*
X82677000Y-84940000D01*
X83049500Y-87887500D02*
X84058750Y-87887500D01*
D40*
X48968750Y-102737500D02*
X48998750Y-102767500D01*
D39*
X90318750Y-87887500D02*
X89924500Y-87887500D01*
X83693000Y-84940000D02*
X83693000Y-85441750D01*
X82584125Y-87887500D02*
X83049500Y-87887500D01*
D40*
X48998750Y-100607500D02*
X48968750Y-100637500D01*
D39*
X86368750Y-85577500D02*
X86368750Y-84937500D01*
X86718750Y-92637500D02*
X86287000Y-93069250D01*
D40*
X45568750Y-97537500D02*
X46568750Y-98537500D01*
X47968750Y-102237500D02*
X48468750Y-102237500D01*
X48998750Y-102767500D02*
X48998750Y-103337500D01*
D39*
X83483850Y-73702000D02*
X83619350Y-73837500D01*
D40*
X48998750Y-99407500D02*
X48998750Y-99067500D01*
D39*
X83049500Y-91487500D02*
X83918750Y-91487500D01*
X86287000Y-93925000D02*
X86287000Y-94999250D01*
X83619350Y-73837500D02*
X83668750Y-73837500D01*
X85768750Y-95517500D02*
X85156264Y-95517500D01*
X86287000Y-94999250D02*
X85768750Y-95517500D01*
X85156264Y-95517500D02*
X84892764Y-95781000D01*
D40*
X47968750Y-101637500D02*
X47968750Y-102737500D01*
D39*
X85887000Y-87050000D02*
X85887000Y-86059250D01*
D40*
X48998750Y-99067500D02*
X48468750Y-98537500D01*
D39*
X97214650Y-110225100D02*
X96561150Y-110225100D01*
X86287000Y-86059250D02*
X86368750Y-85977500D01*
X83887000Y-87715750D02*
X84058750Y-87887500D01*
%TO.N,DR+*%
X85487000Y-85674475D02*
X85629000Y-85532474D01*
X85679000Y-83447750D02*
X85268750Y-83037500D01*
X85629000Y-85532474D02*
X85629000Y-84887500D01*
X85679000Y-84837500D02*
X85679000Y-83447750D01*
X85487000Y-87050000D02*
X85487000Y-85674475D01*
X85268750Y-83037500D02*
X85268750Y-82122500D01*
X85629000Y-84887500D02*
X85679000Y-84837500D01*
%TO.N,25*%
X67168750Y-105437500D02*
X65268750Y-107337500D01*
X68418750Y-92937500D02*
X67168750Y-94187500D01*
X76734328Y-91137000D02*
X75069249Y-91137000D01*
X65118750Y-107337500D02*
X79268750Y-107337500D01*
X326918750Y-107337500D02*
X79268750Y-107337500D01*
X77783827Y-90087500D02*
X76734328Y-91137000D01*
X73268750Y-92937500D02*
X68418750Y-92937500D01*
X80829604Y-89887500D02*
X80629604Y-90087500D01*
X67168750Y-94187500D02*
X67168750Y-105437500D01*
X80629604Y-90087500D02*
X77783827Y-90087500D01*
X75069249Y-91137000D02*
X73268750Y-92937500D01*
X65118750Y-107337500D02*
X40918750Y-107337500D01*
X83049500Y-89887500D02*
X80829604Y-89887500D01*
X65268750Y-107337500D02*
X65118750Y-107337500D01*
%TO.N,28{slash}A2*%
X80863725Y-88687500D02*
X80163725Y-89387500D01*
X76108698Y-88537500D02*
X75708698Y-88137500D01*
X83049500Y-88687500D02*
X80863725Y-88687500D01*
X80163725Y-89387500D02*
X77973775Y-89387500D01*
X75708698Y-88137500D02*
X73096080Y-88137500D01*
X77123775Y-88537500D02*
X76108698Y-88537500D01*
X67968750Y-83010170D02*
X67968750Y-76437500D01*
X73096080Y-88137500D02*
X67968750Y-83010170D01*
X77973775Y-89387500D02*
X77123775Y-88537500D01*
%TO.N,17*%
X82868750Y-97917448D02*
X82373000Y-97421699D01*
X83084402Y-94517500D02*
X83708750Y-94517500D01*
X81808750Y-106117500D02*
X82473776Y-106117500D01*
X81468750Y-111337500D02*
X72768750Y-111337500D01*
X81368750Y-106687500D02*
X81368750Y-106557500D01*
X82373000Y-95228902D02*
X83084402Y-94517500D01*
X82473776Y-106117500D02*
X84033800Y-104557476D01*
X84033800Y-99657449D02*
X82868750Y-98492399D01*
X82868750Y-98492399D02*
X82868750Y-97917448D01*
X84033800Y-104557476D02*
X84033800Y-99657449D01*
X81798750Y-111007500D02*
X81468750Y-111337500D01*
X81368750Y-107917500D02*
X81798750Y-108347500D01*
X81368750Y-106557500D02*
X81808750Y-106117500D01*
X83887000Y-94339250D02*
X83887000Y-93925000D01*
X81798750Y-108347500D02*
X81798750Y-111007500D01*
X83708750Y-94517500D02*
X83887000Y-94339250D01*
X82373000Y-97421699D02*
X82373000Y-95228902D01*
%TO.N,16*%
X83218750Y-97772474D02*
X82723000Y-97276724D01*
X82723000Y-95373876D02*
X83229376Y-94867500D01*
X82488750Y-111337500D02*
X83818750Y-111337500D01*
X82723000Y-97276724D02*
X82723000Y-95373876D01*
X83218750Y-98347424D02*
X83218750Y-97772474D01*
X82468750Y-107917500D02*
X82148750Y-108237500D01*
X83855500Y-94867500D02*
X84287000Y-94436000D01*
X82148750Y-110997500D02*
X82488750Y-111337500D01*
X83229376Y-94867500D02*
X83855500Y-94867500D01*
X84383800Y-105022450D02*
X84383800Y-99512474D01*
X84287000Y-94436000D02*
X84287000Y-93925000D01*
X82148750Y-108237500D02*
X82148750Y-110997500D01*
X82718750Y-106687500D02*
X84383800Y-105022450D01*
X84383800Y-99512474D02*
X83218750Y-98347424D01*
%TO.N,21*%
X70078802Y-94337500D02*
X73848646Y-94337500D01*
X34003776Y-90187500D02*
X33313776Y-89497500D01*
X81518750Y-91887500D02*
X83049500Y-91887500D01*
X73848646Y-94337500D02*
X75649146Y-92537000D01*
X50794636Y-90837500D02*
X50771543Y-90860593D01*
X75649146Y-92537000D02*
X80869250Y-92537000D01*
X69455178Y-94961124D02*
X70078802Y-94337500D01*
X44818750Y-90187500D02*
X34003776Y-90187500D01*
X44968750Y-90337500D02*
X44818750Y-90187500D01*
X80869250Y-92537000D02*
X81518750Y-91887500D01*
X68553001Y-94961124D02*
X69455178Y-94961124D01*
X66068750Y-94737500D02*
X65923776Y-94737500D01*
X52433826Y-90487500D02*
X52083826Y-90837500D01*
X61673776Y-90487500D02*
X52433826Y-90487500D01*
X65923776Y-94737500D02*
X61673776Y-90487500D01*
X33313776Y-89497500D02*
X31268750Y-89497500D01*
X52083826Y-90837500D02*
X50794636Y-90837500D01*
%TO.N,22*%
X75504172Y-92187000D02*
X77169250Y-92187000D01*
X61818750Y-90137500D02*
X65768750Y-94087500D01*
X44580317Y-89675933D02*
X44418750Y-89837500D01*
X44418750Y-89837500D02*
X34148750Y-89837500D01*
X69518750Y-93987500D02*
X73703672Y-93987500D01*
X73703672Y-93987500D02*
X75504172Y-92187000D01*
X78218750Y-91137500D02*
X81064529Y-91137500D01*
X45568750Y-89675933D02*
X44580317Y-89675933D01*
X34148750Y-89837500D02*
X31268750Y-86957500D01*
X77169250Y-92187000D02*
X78218750Y-91137500D01*
X69168750Y-94337500D02*
X69518750Y-93987500D01*
X81114529Y-91087500D02*
X83049500Y-91087500D01*
X51368750Y-90137500D02*
X61818750Y-90137500D01*
X65768750Y-94087500D02*
X66568750Y-94087500D01*
X81064529Y-91137500D02*
X81114529Y-91087500D01*
%TO.N,Net-(LD17-DOUT)*%
X35568750Y-113637500D02*
X37168750Y-113637500D01*
X37168750Y-94637500D02*
X35568750Y-94637500D01*
%TO.N,Net-(LD17-DIN)*%
X56168750Y-94637500D02*
X54568750Y-94637500D01*
%TO.N,Net-(LD18-DIN)*%
X75168750Y-95637500D02*
X74768750Y-96037500D01*
X74768750Y-96037500D02*
X73568750Y-96037500D01*
%TO.N,Net-(LD19-DIN)*%
X94368750Y-95137500D02*
X92868750Y-95137500D01*
%TO.N,Net-(LD20-DIN)*%
X113368750Y-95137500D02*
X111868750Y-95137500D01*
%TO.N,Net-(LD21-DIN)*%
X132368750Y-95137500D02*
X130868750Y-95137500D01*
%TO.N,Net-(LD22-DIN)*%
X151368750Y-97137500D02*
X149868750Y-97137500D01*
%TO.N,Net-(LD23-DIN)*%
X170252837Y-96637500D02*
X168868750Y-96637500D01*
X170694881Y-96195456D02*
X170252837Y-96637500D01*
%TO.N,Net-(LD24-DIN)*%
X189738467Y-96174724D02*
X189701243Y-96137500D01*
X189701243Y-96137500D02*
X187868750Y-96137500D01*
%TO.N,Net-(LD25-DIN)*%
X208769248Y-95637500D02*
X206868750Y-95637500D01*
%TO.N,Net-(LD26-DIN)*%
X226818750Y-95687500D02*
X227868750Y-94637500D01*
X226229250Y-95687500D02*
X226818750Y-95687500D01*
%TO.N,Net-(LD27-DIN)*%
X246329250Y-94637500D02*
X246868750Y-94637500D01*
X245279250Y-95687500D02*
X246329250Y-94637500D01*
%TO.N,Net-(LD28-DIN)*%
X265868750Y-94637500D02*
X263868750Y-94637500D01*
%TO.N,Net-(LD29-DIN)*%
X284868750Y-94637500D02*
X283368750Y-94637500D01*
%TO.N,Net-(LD30-DIN)*%
X303718750Y-94587500D02*
X302318750Y-94587500D01*
%TO.N,Net-(LD31-DIN)*%
X322768750Y-94587500D02*
X321318750Y-94587500D01*
%TO.N,Net-(RX1-Pad2)*%
X85568000Y-96573000D02*
X85568000Y-98479000D01*
X85875000Y-96266000D02*
X85568000Y-96573000D01*
%TO.N,Net-(LD33-DOUT)*%
X54568750Y-113637500D02*
X56168750Y-113637500D01*
%TO.N,Net-(LD34-DOUT)*%
X73768750Y-114237500D02*
X75168750Y-114237500D01*
%TO.N,Net-(LD35-DOUT)*%
X92768750Y-114237500D02*
X94168750Y-114237500D01*
%TO.N,Net-(LD36-DOUT)*%
X111768750Y-113837500D02*
X113368750Y-113837500D01*
%TO.N,Net-(LD37-DOUT)*%
X130968750Y-113637500D02*
X132368750Y-113637500D01*
%TO.N,Net-(LD38-DOUT)*%
X149768750Y-113637500D02*
X151368750Y-113637500D01*
%TO.N,Net-(LD39-DOUT)*%
X168768750Y-113637500D02*
X170368750Y-113637500D01*
%TO.N,Net-(LD40-DOUT)*%
X187768750Y-113637500D02*
X189568750Y-113637500D01*
%TO.N,Net-(LD41-DOUT)*%
X206968750Y-113637500D02*
X208568750Y-113637500D01*
%TO.N,Net-(LD42-DOUT)*%
X226168750Y-113637500D02*
X227568750Y-113637500D01*
%TO.N,Net-(LD43-DOUT)*%
X244968750Y-113637500D02*
X246568750Y-113637500D01*
%TO.N,Net-(LD44-DOUT)*%
X263968750Y-113637500D02*
X265768750Y-113637500D01*
%TO.N,Net-(LD45-DOUT)*%
X282968750Y-113637500D02*
X284768750Y-113637500D01*
%TO.N,Net-(LD46-DOUT)*%
X302168750Y-113637500D02*
X303968750Y-113637500D01*
%TO.N,Net-(LD47-DOUT)*%
X321168750Y-113637500D02*
X322968750Y-113637500D01*
%TO.N,Net-(LD49-DIN)*%
X56168750Y-133037500D02*
X54568750Y-133037500D01*
%TO.N,Net-(LD50-DIN)*%
X75168750Y-132837500D02*
X73768750Y-132837500D01*
%TO.N,Net-(LD51-DIN)*%
X94368750Y-133037500D02*
X92768750Y-133037500D01*
%TO.N,Net-(LD52-DIN)*%
X113368750Y-132837500D02*
X111768750Y-132837500D01*
%TO.N,Net-(LD53-DIN)*%
X132368750Y-133037500D02*
X130768750Y-133037500D01*
%TO.N,Net-(LD54-DIN)*%
X149768750Y-132837500D02*
X148168750Y-131237500D01*
X151368750Y-132837500D02*
X149768750Y-132837500D01*
X147568750Y-130637500D02*
X145368750Y-130637500D01*
X148168750Y-131237500D02*
X147568750Y-130637500D01*
%TO.N,Net-(LD55-DIN)*%
X170568750Y-132837500D02*
X168968750Y-132837500D01*
%TO.N,Net-(LD56-DIN)*%
X189568750Y-132837500D02*
X187968750Y-132837500D01*
%TO.N,Net-(LD57-DIN)*%
X208568750Y-133037500D02*
X206968750Y-133037500D01*
%TO.N,Net-(LD58-DIN)*%
X227768750Y-133037500D02*
X225968750Y-133037500D01*
X223368750Y-130437500D02*
X221568750Y-130437500D01*
X225968750Y-133037500D02*
X223368750Y-130437500D01*
%TO.N,Net-(LD59-DIN)*%
X246768750Y-133037500D02*
X245168750Y-133037500D01*
%TO.N,Net-(LD60-DIN)*%
X265768750Y-133037500D02*
X264168750Y-133037500D01*
%TO.N,Net-(LD61-DIN)*%
X284768750Y-133037500D02*
X283168750Y-133037500D01*
%TO.N,Net-(LD62-DIN)*%
X303968750Y-133037500D02*
X302168750Y-133037500D01*
%TO.N,Net-(LD63-DIN)*%
X322968750Y-133037500D02*
X321168750Y-133037500D01*
D40*
%TO.N,Net-(U1-BS)*%
X47331250Y-93585000D02*
X47883750Y-94137500D01*
X47331250Y-92787500D02*
X47331250Y-93585000D01*
%TO.N,Net-(U1-SW)*%
X48853750Y-94137500D02*
X48853750Y-95152500D01*
X49606250Y-92787500D02*
X49606250Y-93385000D01*
X49606250Y-93385000D02*
X48853750Y-94137500D01*
X48853750Y-95152500D02*
X48468750Y-95537500D01*
%TO.N,Net-(U1-FB)*%
X44668750Y-92487507D02*
X46268757Y-90887500D01*
X45568750Y-93722500D02*
X45568750Y-94137500D01*
X47331250Y-90887500D02*
X46268757Y-90887500D01*
X44668750Y-94137500D02*
X44668750Y-92487507D01*
X45568750Y-94137500D02*
X45568750Y-94752500D01*
X45568750Y-94137500D02*
X44668750Y-94137500D01*
%TD*%
M02*
