%TF.GenerationSoftware,KiCad,Pcbnew,7.0.2*%
%TF.CreationDate,2023-07-13T09:31:41-04:00*%
%TF.ProjectId,QuicksilverStorm,51756963-6b73-4696-9c76-657253746f72,Mark 2 Rev F*%
%TF.SameCoordinates,Original*%
%TF.FileFunction,Copper,L4,Bot*%
%TF.FilePolarity,Positive*%
%FSLAX46Y46*%
G04 Gerber Fmt 4.6, Leading zero omitted, Abs format (unit mm)*
G04 Created by KiCad (PCBNEW 7.0.2) date 2023-07-13 09:31:41*
%MOMM*%
%LPD*%
G01*
G04 APERTURE LIST*
G04 Aperture macros list*
%AMRoundRect*
0 Rectangle with rounded corners*
0 $1 Rounding radius*
0 $2 $3 $4 $5 $6 $7 $8 $9 X,Y pos of 4 corners*
0 Add a 4 corners polygon primitive as box body*
4,1,4,$2,$3,$4,$5,$6,$7,$8,$9,$2,$3,0*
0 Add four circle primitives for the rounded corners*
1,1,$1+$1,$2,$3*
1,1,$1+$1,$4,$5*
1,1,$1+$1,$6,$7*
1,1,$1+$1,$8,$9*
0 Add four rect primitives between the rounded corners*
20,1,$1+$1,$2,$3,$4,$5,0*
20,1,$1+$1,$4,$5,$6,$7,0*
20,1,$1+$1,$6,$7,$8,$9,0*
20,1,$1+$1,$8,$9,$2,$3,0*%
G04 Aperture macros list end*
%TA.AperFunction,ComponentPad*%
%ADD10C,2.032000*%
%TD*%
%TA.AperFunction,SMDPad,CuDef*%
%ADD11RoundRect,0.147500X0.172500X-0.147500X0.172500X0.147500X-0.172500X0.147500X-0.172500X-0.147500X0*%
%TD*%
%TA.AperFunction,SMDPad,CuDef*%
%ADD12RoundRect,0.147500X-0.172500X0.147500X-0.172500X-0.147500X0.172500X-0.147500X0.172500X0.147500X0*%
%TD*%
%TA.AperFunction,SMDPad,CuDef*%
%ADD13RoundRect,0.147500X-0.147500X-0.172500X0.147500X-0.172500X0.147500X0.172500X-0.147500X0.172500X0*%
%TD*%
%TA.AperFunction,SMDPad,CuDef*%
%ADD14RoundRect,0.050000X0.387500X0.050000X-0.387500X0.050000X-0.387500X-0.050000X0.387500X-0.050000X0*%
%TD*%
%TA.AperFunction,SMDPad,CuDef*%
%ADD15RoundRect,0.050000X0.050000X0.387500X-0.050000X0.387500X-0.050000X-0.387500X0.050000X-0.387500X0*%
%TD*%
%TA.AperFunction,SMDPad,CuDef*%
%ADD16R,3.050000X3.050000*%
%TD*%
%TA.AperFunction,SMDPad,CuDef*%
%ADD17R,0.700000X0.600000*%
%TD*%
%TA.AperFunction,SMDPad,CuDef*%
%ADD18RoundRect,0.147500X0.147500X0.172500X-0.147500X0.172500X-0.147500X-0.172500X0.147500X-0.172500X0*%
%TD*%
%TA.AperFunction,SMDPad,CuDef*%
%ADD19R,0.600000X1.450000*%
%TD*%
%TA.AperFunction,SMDPad,CuDef*%
%ADD20R,0.300000X1.450000*%
%TD*%
%TA.AperFunction,ComponentPad*%
%ADD21O,1.000000X1.600000*%
%TD*%
%TA.AperFunction,ComponentPad*%
%ADD22O,1.000000X2.100000*%
%TD*%
%TA.AperFunction,SMDPad,CuDef*%
%ADD23R,2.000000X4.200000*%
%TD*%
%TA.AperFunction,SMDPad,CuDef*%
%ADD24RoundRect,0.150000X-0.150000X-0.625000X0.150000X-0.625000X0.150000X0.625000X-0.150000X0.625000X0*%
%TD*%
%TA.AperFunction,SMDPad,CuDef*%
%ADD25RoundRect,0.250000X-0.350000X-0.650000X0.350000X-0.650000X0.350000X0.650000X-0.350000X0.650000X0*%
%TD*%
%TA.AperFunction,SMDPad,CuDef*%
%ADD26RoundRect,0.125000X0.250000X0.125000X-0.250000X0.125000X-0.250000X-0.125000X0.250000X-0.125000X0*%
%TD*%
%TA.AperFunction,SMDPad,CuDef*%
%ADD27R,1.587400X4.300000*%
%TD*%
%TA.AperFunction,SMDPad,CuDef*%
%ADD28R,3.700000X1.100000*%
%TD*%
%TA.AperFunction,SMDPad,CuDef*%
%ADD29R,0.400000X1.900000*%
%TD*%
%TA.AperFunction,SMDPad,CuDef*%
%ADD30RoundRect,0.150000X-0.512500X-0.150000X0.512500X-0.150000X0.512500X0.150000X-0.512500X0.150000X0*%
%TD*%
%TA.AperFunction,SMDPad,CuDef*%
%ADD31RoundRect,0.150000X0.150000X-0.512500X0.150000X0.512500X-0.150000X0.512500X-0.150000X-0.512500X0*%
%TD*%
%TA.AperFunction,SMDPad,CuDef*%
%ADD32R,1.100000X1.800000*%
%TD*%
%TA.AperFunction,ComponentPad*%
%ADD33R,1.700000X1.700000*%
%TD*%
%TA.AperFunction,ComponentPad*%
%ADD34O,1.700000X1.700000*%
%TD*%
%TA.AperFunction,ViaPad*%
%ADD35C,0.800000*%
%TD*%
%TA.AperFunction,ViaPad*%
%ADD36C,0.600000*%
%TD*%
%TA.AperFunction,Conductor*%
%ADD37C,0.500000*%
%TD*%
%TA.AperFunction,Conductor*%
%ADD38C,0.300000*%
%TD*%
%TA.AperFunction,Conductor*%
%ADD39C,0.200000*%
%TD*%
G04 APERTURE END LIST*
D10*
%TO.P,K2,1*%
%TO.N,14*%
X57943750Y-75062500D03*
%TO.P,K2,2*%
%TO.N,Net-(D2-A)*%
X62943750Y-77162500D03*
%TD*%
%TO.P,K3,1*%
%TO.N,13*%
X76993750Y-75049800D03*
%TO.P,K3,2*%
%TO.N,Net-(D3-A)*%
X81993750Y-77149800D03*
%TD*%
%TO.P,K6,1*%
%TO.N,10*%
X134143750Y-75062500D03*
%TO.P,K6,2*%
%TO.N,Net-(D6-A)*%
X139143750Y-77162500D03*
%TD*%
%TO.P,K7,1*%
%TO.N,9*%
X153193750Y-75062500D03*
%TO.P,K7,2*%
%TO.N,Net-(D7-A)*%
X158193750Y-77162500D03*
%TD*%
%TO.P,K8,1*%
%TO.N,8*%
X172243750Y-75062500D03*
%TO.P,K8,2*%
%TO.N,Net-(D8-A)*%
X177243750Y-77162500D03*
%TD*%
%TO.P,K9,1*%
%TO.N,7*%
X191293750Y-75062500D03*
%TO.P,K9,2*%
%TO.N,Net-(D9-A)*%
X196293750Y-77162500D03*
%TD*%
%TO.P,K10,1*%
%TO.N,6*%
X210343750Y-75062500D03*
%TO.P,K10,2*%
%TO.N,Net-(D10-A)*%
X215343750Y-77162500D03*
%TD*%
%TO.P,K11,1*%
%TO.N,5*%
X229393750Y-75062500D03*
%TO.P,K11,2*%
%TO.N,Net-(D11-A)*%
X234393750Y-77162500D03*
%TD*%
%TO.P,K12,1*%
%TO.N,4*%
X248443750Y-75062500D03*
%TO.P,K12,2*%
%TO.N,Net-(D12-A)*%
X253443750Y-77162500D03*
%TD*%
%TO.P,K13,1*%
%TO.N,3*%
X267493750Y-75062500D03*
%TO.P,K13,2*%
%TO.N,Net-(D13-A)*%
X272493750Y-77162500D03*
%TD*%
%TO.P,K14,1*%
%TO.N,2*%
X286543750Y-75062500D03*
%TO.P,K14,2*%
%TO.N,Net-(D14-A)*%
X291543750Y-77162500D03*
%TD*%
%TO.P,K15,1*%
%TO.N,1*%
X305593750Y-75062500D03*
%TO.P,K15,2*%
%TO.N,Net-(D15-A)*%
X310593750Y-77162500D03*
%TD*%
%TO.P,K16,1*%
%TO.N,0*%
X324643750Y-75062500D03*
%TO.P,K16,2*%
%TO.N,Net-(D16-A)*%
X329643750Y-77162500D03*
%TD*%
%TO.P,K17,1*%
%TO.N,15*%
X38893750Y-94112500D03*
%TO.P,K17,2*%
%TO.N,Net-(D17-A)*%
X43893750Y-96212500D03*
%TD*%
%TO.P,K18,1*%
%TO.N,14*%
X57943750Y-94112500D03*
%TO.P,K18,2*%
%TO.N,Net-(D18-A)*%
X62943750Y-96212500D03*
%TD*%
%TO.P,K19,1*%
%TO.N,13*%
X76993750Y-94112500D03*
%TO.P,K19,2*%
%TO.N,Net-(D19-A)*%
X81993750Y-96212500D03*
%TD*%
%TO.P,K22,1*%
%TO.N,10*%
X134143750Y-94112500D03*
%TO.P,K22,2*%
%TO.N,Net-(D22-A)*%
X139143750Y-96212500D03*
%TD*%
%TO.P,K23,1*%
%TO.N,9*%
X153193750Y-94112500D03*
%TO.P,K23,2*%
%TO.N,Net-(D23-A)*%
X158193750Y-96212500D03*
%TD*%
%TO.P,K24,1*%
%TO.N,8*%
X172243750Y-94112500D03*
%TO.P,K24,2*%
%TO.N,Net-(D24-A)*%
X177243750Y-96212500D03*
%TD*%
%TO.P,K25,1*%
%TO.N,7*%
X191293750Y-94112500D03*
%TO.P,K25,2*%
%TO.N,Net-(D25-A)*%
X196293750Y-96212500D03*
%TD*%
%TO.P,K26,1*%
%TO.N,6*%
X210343750Y-94112500D03*
%TO.P,K26,2*%
%TO.N,Net-(D26-A)*%
X215343750Y-96212500D03*
%TD*%
%TO.P,K27,1*%
%TO.N,5*%
X229393750Y-94112500D03*
%TO.P,K27,2*%
%TO.N,Net-(D27-A)*%
X234393750Y-96212500D03*
%TD*%
%TO.P,K28,1*%
%TO.N,4*%
X248443750Y-94112500D03*
%TO.P,K28,2*%
%TO.N,Net-(D28-A)*%
X253443750Y-96212500D03*
%TD*%
%TO.P,K29,1*%
%TO.N,3*%
X267493750Y-94112500D03*
%TO.P,K29,2*%
%TO.N,Net-(D29-A)*%
X272493750Y-96212500D03*
%TD*%
%TO.P,K30,1*%
%TO.N,2*%
X286543750Y-94112500D03*
%TO.P,K30,2*%
%TO.N,Net-(D30-A)*%
X291543750Y-96212500D03*
%TD*%
%TO.P,K31,1*%
%TO.N,1*%
X305593750Y-94112500D03*
%TO.P,K31,2*%
%TO.N,Net-(D31-A)*%
X310593750Y-96212500D03*
%TD*%
%TO.P,K32,1*%
%TO.N,0*%
X324643750Y-94112500D03*
%TO.P,K32,2*%
%TO.N,Net-(D32-A)*%
X329643750Y-96212500D03*
%TD*%
%TO.P,K33,1*%
%TO.N,15*%
X38893750Y-113162500D03*
%TO.P,K33,2*%
%TO.N,Net-(D33-A)*%
X43893750Y-115262500D03*
%TD*%
%TO.P,K34,1*%
%TO.N,14*%
X57943750Y-113162500D03*
%TO.P,K34,2*%
%TO.N,Net-(D34-A)*%
X62943750Y-115262500D03*
%TD*%
%TO.P,K35,1*%
%TO.N,13*%
X76993750Y-113162500D03*
%TO.P,K35,2*%
%TO.N,Net-(D35-A)*%
X81993750Y-115262500D03*
%TD*%
%TO.P,K36,1*%
%TO.N,12*%
X96043750Y-113162500D03*
%TO.P,K36,2*%
%TO.N,Net-(D36-A)*%
X101043750Y-115262500D03*
%TD*%
%TO.P,K37,1*%
%TO.N,11*%
X115093750Y-113162500D03*
%TO.P,K37,2*%
%TO.N,Net-(D37-A)*%
X120093750Y-115262500D03*
%TD*%
%TO.P,K38,1*%
%TO.N,10*%
X134143750Y-113162500D03*
%TO.P,K38,2*%
%TO.N,Net-(D38-A)*%
X139143750Y-115262500D03*
%TD*%
%TO.P,K39,1*%
%TO.N,9*%
X153193750Y-113162500D03*
%TO.P,K39,2*%
%TO.N,Net-(D39-A)*%
X158193750Y-115262500D03*
%TD*%
%TO.P,K40,1*%
%TO.N,8*%
X172243750Y-113162500D03*
%TO.P,K40,2*%
%TO.N,Net-(D40-A)*%
X177243750Y-115262500D03*
%TD*%
%TO.P,K41,1*%
%TO.N,7*%
X191293750Y-113162500D03*
%TO.P,K41,2*%
%TO.N,Net-(D41-A)*%
X196293750Y-115262500D03*
%TD*%
%TO.P,K42,1*%
%TO.N,6*%
X210343750Y-113162500D03*
%TO.P,K42,2*%
%TO.N,Net-(D42-A)*%
X215343750Y-115262500D03*
%TD*%
%TO.P,K43,1*%
%TO.N,5*%
X229393750Y-113162500D03*
%TO.P,K43,2*%
%TO.N,Net-(D43-A)*%
X234393750Y-115262500D03*
%TD*%
%TO.P,K44,1*%
%TO.N,4*%
X248443750Y-113162500D03*
%TO.P,K44,2*%
%TO.N,Net-(D44-A)*%
X253443750Y-115262500D03*
%TD*%
%TO.P,K45,1*%
%TO.N,3*%
X267493750Y-113162500D03*
%TO.P,K45,2*%
%TO.N,Net-(D45-A)*%
X272493750Y-115262500D03*
%TD*%
%TO.P,K46,1*%
%TO.N,2*%
X286543750Y-113162500D03*
%TO.P,K46,2*%
%TO.N,Net-(D46-A)*%
X291543750Y-115262500D03*
%TD*%
%TO.P,K47,1*%
%TO.N,1*%
X305593750Y-113162500D03*
%TO.P,K47,2*%
%TO.N,Net-(D47-A)*%
X310593750Y-115262500D03*
%TD*%
%TO.P,K48,1*%
%TO.N,0*%
X324643750Y-113162500D03*
%TO.P,K48,2*%
%TO.N,Net-(D48-A)*%
X329643750Y-115262500D03*
%TD*%
%TO.P,K49,1*%
%TO.N,15*%
X38893750Y-132212500D03*
%TO.P,K49,2*%
%TO.N,Net-(D49-A)*%
X43893750Y-134312500D03*
%TD*%
%TO.P,K50,1*%
%TO.N,14*%
X57943750Y-132212500D03*
%TO.P,K50,2*%
%TO.N,Net-(D50-A)*%
X62943750Y-134312500D03*
%TD*%
%TO.P,K51,1*%
%TO.N,13*%
X76993750Y-132212500D03*
%TO.P,K51,2*%
%TO.N,Net-(D51-A)*%
X81993750Y-134312500D03*
%TD*%
%TO.P,K52,1*%
%TO.N,12*%
X96043750Y-132212500D03*
%TO.P,K52,2*%
%TO.N,Net-(D52-A)*%
X101043750Y-134312500D03*
%TD*%
%TO.P,K53,1*%
%TO.N,11*%
X115093750Y-132212500D03*
%TO.P,K53,2*%
%TO.N,Net-(D53-A)*%
X120093750Y-134312500D03*
%TD*%
%TO.P,K54,1*%
%TO.N,10*%
X134143750Y-132212500D03*
%TO.P,K54,2*%
%TO.N,Net-(D54-A)*%
X139143750Y-134312500D03*
%TD*%
%TO.P,K55,1*%
%TO.N,9*%
X153193750Y-132212500D03*
%TO.P,K55,2*%
%TO.N,Net-(D55-A)*%
X158193750Y-134312500D03*
%TD*%
%TO.P,K56,1*%
%TO.N,8*%
X172243750Y-132212500D03*
%TO.P,K56,2*%
%TO.N,Net-(D56-A)*%
X177243750Y-134312500D03*
%TD*%
%TO.P,K57,1*%
%TO.N,7*%
X191293750Y-132212500D03*
%TO.P,K57,2*%
%TO.N,Net-(D57-A)*%
X196293750Y-134312500D03*
%TD*%
%TO.P,K58,1*%
%TO.N,6*%
X210343750Y-132212500D03*
%TO.P,K58,2*%
%TO.N,Net-(D58-A)*%
X215343750Y-134312500D03*
%TD*%
%TO.P,K59,1*%
%TO.N,5*%
X229393750Y-132212500D03*
%TO.P,K59,2*%
%TO.N,Net-(D59-A)*%
X234393750Y-134312500D03*
%TD*%
%TO.P,K60,1*%
%TO.N,4*%
X248443750Y-132212500D03*
%TO.P,K60,2*%
%TO.N,Net-(D60-A)*%
X253443750Y-134312500D03*
%TD*%
%TO.P,K61,1*%
%TO.N,3*%
X267493750Y-132212500D03*
%TO.P,K61,2*%
%TO.N,Net-(D61-A)*%
X272493750Y-134312500D03*
%TD*%
%TO.P,K62,1*%
%TO.N,2*%
X286543750Y-132212500D03*
%TO.P,K62,2*%
%TO.N,Net-(D62-A)*%
X291543750Y-134312500D03*
%TD*%
%TO.P,K63,1*%
%TO.N,1*%
X305593750Y-132212500D03*
%TO.P,K63,2*%
%TO.N,Net-(D63-A)*%
X310593750Y-134312500D03*
%TD*%
%TO.P,K64,1*%
%TO.N,0*%
X324643750Y-132212500D03*
%TO.P,K64,2*%
%TO.N,Net-(D64-A)*%
X329643750Y-134312500D03*
%TD*%
%TO.P,K1,1*%
%TO.N,15*%
X38893750Y-75062500D03*
%TO.P,K1,2*%
%TO.N,Net-(D1-A)*%
X43893750Y-77162500D03*
%TD*%
%TO.P,K4,1*%
%TO.N,12*%
X96043750Y-75062500D03*
%TO.P,K4,2*%
%TO.N,Net-(D4-A)*%
X101043750Y-77162500D03*
%TD*%
%TO.P,K5,1*%
%TO.N,11*%
X115093750Y-75062500D03*
%TO.P,K5,2*%
%TO.N,Net-(D5-A)*%
X120093750Y-77162500D03*
%TD*%
%TO.P,K21,1*%
%TO.N,11*%
X115093750Y-94112500D03*
%TO.P,K21,2*%
%TO.N,Net-(D21-A)*%
X120093750Y-96212500D03*
%TD*%
%TO.P,K20,1*%
%TO.N,12*%
X96043750Y-94112500D03*
%TO.P,K20,2*%
%TO.N,Net-(D20-A)*%
X101043750Y-96212500D03*
%TD*%
%TO.P,K54.1,1*%
%TO.N,10*%
X143668750Y-132212500D03*
%TO.P,K54.1,2*%
%TO.N,Net-(D54-A)*%
X148668750Y-134312500D03*
%TD*%
%TO.P,K58.1,1*%
%TO.N,6*%
X219868750Y-132212500D03*
%TO.P,K58.1,2*%
%TO.N,Net-(D58-A)*%
X224868750Y-134312500D03*
%TD*%
D11*
%TO.P,C1,1*%
%TO.N,+3V3*%
X83693000Y-84940000D03*
%TO.P,C1,2*%
%TO.N,GND*%
X83693000Y-83970000D03*
%TD*%
D12*
%TO.P,C2,1*%
%TO.N,+3V3*%
X84836000Y-95781000D03*
%TO.P,C2,2*%
%TO.N,GND*%
X84836000Y-96751000D03*
%TD*%
D13*
%TO.P,C3,1*%
%TO.N,+3V3*%
X91717000Y-91567000D03*
%TO.P,C3,2*%
%TO.N,GND*%
X92687000Y-91567000D03*
%TD*%
%TO.P,C6,1*%
%TO.N,+3V3*%
X91717000Y-87503000D03*
%TO.P,C6,2*%
%TO.N,GND*%
X92687000Y-87503000D03*
%TD*%
D11*
%TO.P,C8,1*%
%TO.N,+3V3*%
X86368750Y-84937500D03*
%TO.P,C8,2*%
%TO.N,GND*%
X86368750Y-83967500D03*
%TD*%
D14*
%TO.P,U0,1,IOVDD*%
%TO.N,+3V3*%
X89924500Y-87887500D03*
%TO.P,U0,2,GPIO0*%
%TO.N,0*%
X89924500Y-88287500D03*
%TO.P,U0,3,GPIO1*%
%TO.N,1*%
X89924500Y-88687500D03*
%TO.P,U0,4,GPIO2*%
%TO.N,2*%
X89924500Y-89087500D03*
%TO.P,U0,5,GPIO3*%
%TO.N,3*%
X89924500Y-89487500D03*
%TO.P,U0,6,GPIO4*%
%TO.N,4*%
X89924500Y-89887500D03*
%TO.P,U0,7,GPIO5*%
%TO.N,5*%
X89924500Y-90287500D03*
%TO.P,U0,8,GPIO6*%
%TO.N,6*%
X89924500Y-90687500D03*
%TO.P,U0,9,GPIO7*%
%TO.N,7*%
X89924500Y-91087500D03*
%TO.P,U0,10,IOVDD*%
%TO.N,+3V3*%
X89924500Y-91487500D03*
%TO.P,U0,11,GPIO8*%
%TO.N,8*%
X89924500Y-91887500D03*
%TO.P,U0,12,GPIO9*%
%TO.N,9*%
X89924500Y-92287500D03*
%TO.P,U0,13,GPIO10*%
%TO.N,10*%
X89924500Y-92687500D03*
%TO.P,U0,14,GPIO11*%
%TO.N,11*%
X89924500Y-93087500D03*
D15*
%TO.P,U0,15,GPIO12*%
%TO.N,12*%
X89087000Y-93925000D03*
%TO.P,U0,16,GPIO13*%
%TO.N,13*%
X88687000Y-93925000D03*
%TO.P,U0,17,GPIO14*%
%TO.N,14*%
X88287000Y-93925000D03*
%TO.P,U0,18,GPIO15*%
%TO.N,15*%
X87887000Y-93925000D03*
%TO.P,U0,19,TESTEN*%
%TO.N,GND*%
X87487000Y-93925000D03*
%TO.P,U0,20,XIN*%
%TO.N,XIN*%
X87087000Y-93925000D03*
%TO.P,U0,21,XOUT*%
%TO.N,XOUT*%
X86687000Y-93925000D03*
%TO.P,U0,22,IOVDD*%
%TO.N,+3V3*%
X86287000Y-93925000D03*
%TO.P,U0,23,DVDD*%
%TO.N,+1V1*%
X85887000Y-93925000D03*
%TO.P,U0,24,SWCLK*%
%TO.N,unconnected-(U0-SWCLK-Pad24)*%
X85487000Y-93925000D03*
%TO.P,U0,25,SWDIO*%
%TO.N,unconnected-(U0-SWDIO-Pad25)*%
X85087000Y-93925000D03*
%TO.P,U0,26,RUN*%
%TO.N,~{RESET}*%
X84687000Y-93925000D03*
%TO.P,U0,27,GPIO16*%
%TO.N,16*%
X84287000Y-93925000D03*
%TO.P,U0,28,GPIO17*%
%TO.N,17*%
X83887000Y-93925000D03*
D14*
%TO.P,U0,29,GPIO18*%
%TO.N,18*%
X83049500Y-93087500D03*
%TO.P,U0,30,GPIO19*%
%TO.N,19*%
X83049500Y-92687500D03*
%TO.P,U0,31,GPIO20*%
%TO.N,20*%
X83049500Y-92287500D03*
%TO.P,U0,32,GPIO21*%
%TO.N,21*%
X83049500Y-91887500D03*
%TO.P,U0,33,IOVDD*%
%TO.N,+3V3*%
X83049500Y-91487500D03*
%TO.P,U0,34,GPIO22*%
%TO.N,22*%
X83049500Y-91087500D03*
%TO.P,U0,35,GPIO23*%
%TO.N,23*%
X83049500Y-90687500D03*
%TO.P,U0,36,GPIO24*%
%TO.N,24*%
X83049500Y-90287500D03*
%TO.P,U0,37,GPIO25*%
%TO.N,25*%
X83049500Y-89887500D03*
%TO.P,U0,38,GPIO26/ADC0*%
%TO.N,26{slash}A0*%
X83049500Y-89487500D03*
%TO.P,U0,39,GPIO27/ADC1*%
%TO.N,27{slash}A1*%
X83049500Y-89087500D03*
%TO.P,U0,40,GPIO28/ADC2*%
%TO.N,28{slash}A2*%
X83049500Y-88687500D03*
%TO.P,U0,41,GPIO29/ADC3*%
%TO.N,29{slash}A3*%
X83049500Y-88287500D03*
%TO.P,U0,42,IOVDD*%
%TO.N,+3V3*%
X83049500Y-87887500D03*
D15*
%TO.P,U0,43,ADC_AVDD*%
X83887000Y-87050000D03*
%TO.P,U0,44,VREG_VIN*%
X84287000Y-87050000D03*
%TO.P,U0,45,VREG_VOUT*%
%TO.N,+1V1*%
X84687000Y-87050000D03*
%TO.P,U0,46,USB_DM*%
%TO.N,DR-*%
X85087000Y-87050000D03*
%TO.P,U0,47,USB_DP*%
%TO.N,DR+*%
X85487000Y-87050000D03*
%TO.P,U0,48,USB_VDD*%
%TO.N,+3V3*%
X85887000Y-87050000D03*
%TO.P,U0,49,IOVDD*%
X86287000Y-87050000D03*
%TO.P,U0,50,DVDD*%
%TO.N,+1V1*%
X86687000Y-87050000D03*
%TO.P,U0,51,QSPI_SD3*%
%TO.N,SD3*%
X87087000Y-87050000D03*
%TO.P,U0,52,QSPI_SCLK*%
%TO.N,CLOCK*%
X87487000Y-87050000D03*
%TO.P,U0,53,QSPI_SD0*%
%TO.N,SD0*%
X87887000Y-87050000D03*
%TO.P,U0,54,QSPI_SD2*%
%TO.N,SD2*%
X88287000Y-87050000D03*
%TO.P,U0,55,QSPI_SD1*%
%TO.N,SD1*%
X88687000Y-87050000D03*
%TO.P,U0,56,QSPI_SS_N*%
%TO.N,CS*%
X89087000Y-87050000D03*
D16*
%TO.P,U0,57,GND*%
%TO.N,GND*%
X86487000Y-90487500D03*
%TD*%
D11*
%TO.P,C7,1*%
%TO.N,+3V3*%
X82677000Y-84940000D03*
%TO.P,C7,2*%
%TO.N,GND*%
X82677000Y-83970000D03*
%TD*%
D17*
%TO.P,D1,1,K*%
%TO.N,26{slash}A0*%
X41368750Y-78687500D03*
%TO.P,D1,2,A*%
%TO.N,Net-(D1-A)*%
X41368750Y-77287500D03*
%TD*%
%TO.P,D2,1,K*%
%TO.N,26{slash}A0*%
X60418750Y-78687500D03*
%TO.P,D2,2,A*%
%TO.N,Net-(D2-A)*%
X60418750Y-77287500D03*
%TD*%
%TO.P,D3,1,K*%
%TO.N,26{slash}A0*%
X79468750Y-78687500D03*
%TO.P,D3,2,A*%
%TO.N,Net-(D3-A)*%
X79468750Y-77287500D03*
%TD*%
%TO.P,D4,1,K*%
%TO.N,26{slash}A0*%
X98518750Y-78687500D03*
%TO.P,D4,2,A*%
%TO.N,Net-(D4-A)*%
X98518750Y-77287500D03*
%TD*%
%TO.P,D5,1,K*%
%TO.N,26{slash}A0*%
X117568750Y-78687500D03*
%TO.P,D5,2,A*%
%TO.N,Net-(D5-A)*%
X117568750Y-77287500D03*
%TD*%
%TO.P,D6,1,K*%
%TO.N,26{slash}A0*%
X136618750Y-78687500D03*
%TO.P,D6,2,A*%
%TO.N,Net-(D6-A)*%
X136618750Y-77287500D03*
%TD*%
%TO.P,D7,1,K*%
%TO.N,26{slash}A0*%
X155668750Y-78687500D03*
%TO.P,D7,2,A*%
%TO.N,Net-(D7-A)*%
X155668750Y-77287500D03*
%TD*%
%TO.P,D8,1,K*%
%TO.N,26{slash}A0*%
X174718750Y-78687500D03*
%TO.P,D8,2,A*%
%TO.N,Net-(D8-A)*%
X174718750Y-77287500D03*
%TD*%
%TO.P,D9,1,K*%
%TO.N,26{slash}A0*%
X193768750Y-78687500D03*
%TO.P,D9,2,A*%
%TO.N,Net-(D9-A)*%
X193768750Y-77287500D03*
%TD*%
%TO.P,D10,1,K*%
%TO.N,26{slash}A0*%
X212818750Y-78687500D03*
%TO.P,D10,2,A*%
%TO.N,Net-(D10-A)*%
X212818750Y-77287500D03*
%TD*%
%TO.P,D11,1,K*%
%TO.N,26{slash}A0*%
X231868750Y-78687500D03*
%TO.P,D11,2,A*%
%TO.N,Net-(D11-A)*%
X231868750Y-77287500D03*
%TD*%
%TO.P,D12,1,K*%
%TO.N,26{slash}A0*%
X250918750Y-78687500D03*
%TO.P,D12,2,A*%
%TO.N,Net-(D12-A)*%
X250918750Y-77287500D03*
%TD*%
%TO.P,D13,1,K*%
%TO.N,26{slash}A0*%
X269968750Y-78687500D03*
%TO.P,D13,2,A*%
%TO.N,Net-(D13-A)*%
X269968750Y-77287500D03*
%TD*%
%TO.P,D14,1,K*%
%TO.N,26{slash}A0*%
X289018750Y-78687500D03*
%TO.P,D14,2,A*%
%TO.N,Net-(D14-A)*%
X289018750Y-77287500D03*
%TD*%
%TO.P,D15,1,K*%
%TO.N,26{slash}A0*%
X308068750Y-78687500D03*
%TO.P,D15,2,A*%
%TO.N,Net-(D15-A)*%
X308068750Y-77287500D03*
%TD*%
%TO.P,D16,1,K*%
%TO.N,26{slash}A0*%
X327118750Y-78687500D03*
%TO.P,D16,2,A*%
%TO.N,Net-(D16-A)*%
X327118750Y-77287500D03*
%TD*%
%TO.P,D17,1,K*%
%TO.N,25*%
X41368750Y-97737500D03*
%TO.P,D17,2,A*%
%TO.N,Net-(D17-A)*%
X41368750Y-96337500D03*
%TD*%
%TO.P,D18,1,K*%
%TO.N,25*%
X60418750Y-97737500D03*
%TO.P,D18,2,A*%
%TO.N,Net-(D18-A)*%
X60418750Y-96337500D03*
%TD*%
%TO.P,D19,1,K*%
%TO.N,25*%
X79468750Y-97737500D03*
%TO.P,D19,2,A*%
%TO.N,Net-(D19-A)*%
X79468750Y-96337500D03*
%TD*%
%TO.P,D20,1,K*%
%TO.N,25*%
X98518750Y-97737500D03*
%TO.P,D20,2,A*%
%TO.N,Net-(D20-A)*%
X98518750Y-96337500D03*
%TD*%
%TO.P,D21,1,K*%
%TO.N,25*%
X117568750Y-97737500D03*
%TO.P,D21,2,A*%
%TO.N,Net-(D21-A)*%
X117568750Y-96337500D03*
%TD*%
%TO.P,D22,1,K*%
%TO.N,25*%
X136618750Y-97737500D03*
%TO.P,D22,2,A*%
%TO.N,Net-(D22-A)*%
X136618750Y-96337500D03*
%TD*%
%TO.P,D23,1,K*%
%TO.N,25*%
X155668750Y-97737500D03*
%TO.P,D23,2,A*%
%TO.N,Net-(D23-A)*%
X155668750Y-96337500D03*
%TD*%
%TO.P,D24,1,K*%
%TO.N,25*%
X174718750Y-97737500D03*
%TO.P,D24,2,A*%
%TO.N,Net-(D24-A)*%
X174718750Y-96337500D03*
%TD*%
%TO.P,D25,1,K*%
%TO.N,25*%
X193768750Y-97675000D03*
%TO.P,D25,2,A*%
%TO.N,Net-(D25-A)*%
X193768750Y-96275000D03*
%TD*%
%TO.P,D26,1,K*%
%TO.N,25*%
X212818750Y-97750000D03*
%TO.P,D26,2,A*%
%TO.N,Net-(D26-A)*%
X212818750Y-96350000D03*
%TD*%
%TO.P,D27,1,K*%
%TO.N,25*%
X231868750Y-97737500D03*
%TO.P,D27,2,A*%
%TO.N,Net-(D27-A)*%
X231868750Y-96337500D03*
%TD*%
%TO.P,D28,1,K*%
%TO.N,25*%
X250918750Y-97737500D03*
%TO.P,D28,2,A*%
%TO.N,Net-(D28-A)*%
X250918750Y-96337500D03*
%TD*%
%TO.P,D29,1,K*%
%TO.N,25*%
X269968750Y-97737500D03*
%TO.P,D29,2,A*%
%TO.N,Net-(D29-A)*%
X269968750Y-96337500D03*
%TD*%
%TO.P,D30,1,K*%
%TO.N,25*%
X289018750Y-97737500D03*
%TO.P,D30,2,A*%
%TO.N,Net-(D30-A)*%
X289018750Y-96337500D03*
%TD*%
%TO.P,D31,1,K*%
%TO.N,25*%
X308068750Y-97737500D03*
%TO.P,D31,2,A*%
%TO.N,Net-(D31-A)*%
X308068750Y-96337500D03*
%TD*%
%TO.P,D32,1,K*%
%TO.N,25*%
X327118750Y-97737500D03*
%TO.P,D32,2,A*%
%TO.N,Net-(D32-A)*%
X327118750Y-96337500D03*
%TD*%
%TO.P,D33,1,K*%
%TO.N,24*%
X41368750Y-116787500D03*
%TO.P,D33,2,A*%
%TO.N,Net-(D33-A)*%
X41368750Y-115387500D03*
%TD*%
%TO.P,D34,1,K*%
%TO.N,24*%
X60418750Y-116787500D03*
%TO.P,D34,2,A*%
%TO.N,Net-(D34-A)*%
X60418750Y-115387500D03*
%TD*%
%TO.P,D35,1,K*%
%TO.N,24*%
X79468750Y-116787500D03*
%TO.P,D35,2,A*%
%TO.N,Net-(D35-A)*%
X79468750Y-115387500D03*
%TD*%
%TO.P,D36,1,K*%
%TO.N,24*%
X98518750Y-116787500D03*
%TO.P,D36,2,A*%
%TO.N,Net-(D36-A)*%
X98518750Y-115387500D03*
%TD*%
%TO.P,D37,1,K*%
%TO.N,24*%
X117568750Y-116787500D03*
%TO.P,D37,2,A*%
%TO.N,Net-(D37-A)*%
X117568750Y-115387500D03*
%TD*%
%TO.P,D38,1,K*%
%TO.N,24*%
X136618750Y-116787500D03*
%TO.P,D38,2,A*%
%TO.N,Net-(D38-A)*%
X136618750Y-115387500D03*
%TD*%
%TO.P,D39,1,K*%
%TO.N,24*%
X155668750Y-116787500D03*
%TO.P,D39,2,A*%
%TO.N,Net-(D39-A)*%
X155668750Y-115387500D03*
%TD*%
%TO.P,D40,1,K*%
%TO.N,24*%
X174718750Y-116787500D03*
%TO.P,D40,2,A*%
%TO.N,Net-(D40-A)*%
X174718750Y-115387500D03*
%TD*%
%TO.P,D41,1,K*%
%TO.N,24*%
X193768750Y-116787500D03*
%TO.P,D41,2,A*%
%TO.N,Net-(D41-A)*%
X193768750Y-115387500D03*
%TD*%
%TO.P,D42,1,K*%
%TO.N,24*%
X212818750Y-116787500D03*
%TO.P,D42,2,A*%
%TO.N,Net-(D42-A)*%
X212818750Y-115387500D03*
%TD*%
%TO.P,D43,1,K*%
%TO.N,24*%
X231868750Y-116787500D03*
%TO.P,D43,2,A*%
%TO.N,Net-(D43-A)*%
X231868750Y-115387500D03*
%TD*%
%TO.P,D44,1,K*%
%TO.N,24*%
X250918750Y-116787500D03*
%TO.P,D44,2,A*%
%TO.N,Net-(D44-A)*%
X250918750Y-115387500D03*
%TD*%
%TO.P,D45,1,K*%
%TO.N,24*%
X269968750Y-116787500D03*
%TO.P,D45,2,A*%
%TO.N,Net-(D45-A)*%
X269968750Y-115387500D03*
%TD*%
%TO.P,D46,1,K*%
%TO.N,24*%
X289018750Y-116787500D03*
%TO.P,D46,2,A*%
%TO.N,Net-(D46-A)*%
X289018750Y-115387500D03*
%TD*%
%TO.P,D47,1,K*%
%TO.N,24*%
X308068750Y-116787500D03*
%TO.P,D47,2,A*%
%TO.N,Net-(D47-A)*%
X308068750Y-115387500D03*
%TD*%
%TO.P,D48,1,K*%
%TO.N,24*%
X327118750Y-116787500D03*
%TO.P,D48,2,A*%
%TO.N,Net-(D48-A)*%
X327118750Y-115387500D03*
%TD*%
%TO.P,D49,1,K*%
%TO.N,23*%
X41368750Y-135837500D03*
%TO.P,D49,2,A*%
%TO.N,Net-(D49-A)*%
X41368750Y-134437500D03*
%TD*%
%TO.P,D50,1,K*%
%TO.N,23*%
X60418750Y-135837500D03*
%TO.P,D50,2,A*%
%TO.N,Net-(D50-A)*%
X60418750Y-134437500D03*
%TD*%
%TO.P,D51,1,K*%
%TO.N,23*%
X79468750Y-135837500D03*
%TO.P,D51,2,A*%
%TO.N,Net-(D51-A)*%
X79468750Y-134437500D03*
%TD*%
%TO.P,D52,1,K*%
%TO.N,23*%
X98518750Y-135837500D03*
%TO.P,D52,2,A*%
%TO.N,Net-(D52-A)*%
X98518750Y-134437500D03*
%TD*%
%TO.P,D53,1,K*%
%TO.N,23*%
X117568750Y-135837500D03*
%TO.P,D53,2,A*%
%TO.N,Net-(D53-A)*%
X117568750Y-134437500D03*
%TD*%
%TO.P,D54,1,K*%
%TO.N,23*%
X136618750Y-135837500D03*
%TO.P,D54,2,A*%
%TO.N,Net-(D54-A)*%
X136618750Y-134437500D03*
%TD*%
%TO.P,D55,1,K*%
%TO.N,23*%
X155668750Y-135837500D03*
%TO.P,D55,2,A*%
%TO.N,Net-(D55-A)*%
X155668750Y-134437500D03*
%TD*%
%TO.P,D56,1,K*%
%TO.N,23*%
X174718750Y-135837500D03*
%TO.P,D56,2,A*%
%TO.N,Net-(D56-A)*%
X174718750Y-134437500D03*
%TD*%
%TO.P,D57,1,K*%
%TO.N,23*%
X193768750Y-135837500D03*
%TO.P,D57,2,A*%
%TO.N,Net-(D57-A)*%
X193768750Y-134437500D03*
%TD*%
%TO.P,D58,1,K*%
%TO.N,23*%
X212818750Y-135837500D03*
%TO.P,D58,2,A*%
%TO.N,Net-(D58-A)*%
X212818750Y-134437500D03*
%TD*%
%TO.P,D59,1,K*%
%TO.N,23*%
X231868750Y-135837500D03*
%TO.P,D59,2,A*%
%TO.N,Net-(D59-A)*%
X231868750Y-134437500D03*
%TD*%
%TO.P,D60,1,K*%
%TO.N,23*%
X250918750Y-135837500D03*
%TO.P,D60,2,A*%
%TO.N,Net-(D60-A)*%
X250918750Y-134437500D03*
%TD*%
%TO.P,D61,1,K*%
%TO.N,23*%
X269968750Y-135837500D03*
%TO.P,D61,2,A*%
%TO.N,Net-(D61-A)*%
X269968750Y-134437500D03*
%TD*%
%TO.P,D62,1,K*%
%TO.N,23*%
X289018750Y-135837500D03*
%TO.P,D62,2,A*%
%TO.N,Net-(D62-A)*%
X289018750Y-134437500D03*
%TD*%
%TO.P,D63,1,K*%
%TO.N,23*%
X308068750Y-135837500D03*
%TO.P,D63,2,A*%
%TO.N,Net-(D63-A)*%
X308068750Y-134437500D03*
%TD*%
%TO.P,D64,1,K*%
%TO.N,23*%
X327118750Y-135837500D03*
%TO.P,D64,2,A*%
%TO.N,Net-(D64-A)*%
X327118750Y-134437500D03*
%TD*%
D11*
%TO.P,RC2,1*%
%TO.N,GND*%
X50618750Y-80892500D03*
%TO.P,RC2,2*%
%TO.N,Net-(J0-CC2)*%
X50618750Y-79922500D03*
%TD*%
D12*
%TO.P,RC1,1*%
%TO.N,Net-(J0-CC1)*%
X46118750Y-79902500D03*
%TO.P,RC1,2*%
%TO.N,GND*%
X46118750Y-80872500D03*
%TD*%
D13*
%TO.P,RD1,1*%
%TO.N,DB+*%
X77747000Y-84836000D03*
%TO.P,RD1,2*%
%TO.N,DR+*%
X78717000Y-84836000D03*
%TD*%
D18*
%TO.P,F0,1*%
%TO.N,vUSB*%
X52853750Y-83137500D03*
%TO.P,F0,2*%
%TO.N,VBUS*%
X51883750Y-83137500D03*
%TD*%
%TO.P,C4,1*%
%TO.N,+3V3*%
X81130000Y-91567000D03*
%TO.P,C4,2*%
%TO.N,GND*%
X80160000Y-91567000D03*
%TD*%
D19*
%TO.P,J0,A1,GND*%
%TO.N,GND*%
X47618750Y-77682500D03*
%TO.P,J0,A4,VBUS*%
%TO.N,vUSB*%
X48418750Y-77682500D03*
D20*
%TO.P,J0,A5,CC1*%
%TO.N,Net-(J0-CC1)*%
X49618750Y-77682500D03*
%TO.P,J0,A6,D+*%
%TO.N,D+*%
X50618750Y-77682500D03*
%TO.P,J0,A7,D-*%
%TO.N,D-*%
X51118750Y-77682500D03*
%TO.P,J0,A8,SBU1*%
%TO.N,unconnected-(J0-SBU1-PadA8)*%
X52118750Y-77682500D03*
D19*
%TO.P,J0,A9,VBUS*%
%TO.N,vUSB*%
X53318750Y-77682500D03*
%TO.P,J0,A12,GND*%
%TO.N,GND*%
X54118750Y-77682500D03*
%TO.P,J0,B1,GND*%
X54118750Y-77682500D03*
%TO.P,J0,B4,VBUS*%
%TO.N,vUSB*%
X53318750Y-77682500D03*
D20*
%TO.P,J0,B5,CC2*%
%TO.N,Net-(J0-CC2)*%
X52618750Y-77682500D03*
%TO.P,J0,B6,D+*%
%TO.N,D+*%
X51618750Y-77682500D03*
%TO.P,J0,B7,D-*%
%TO.N,D-*%
X50118750Y-77682500D03*
%TO.P,J0,B8,SBU2*%
%TO.N,unconnected-(J0-SBU2-PadB8)*%
X49118750Y-77682500D03*
D19*
%TO.P,J0,B9,VBUS*%
%TO.N,vUSB*%
X48418750Y-77682500D03*
%TO.P,J0,B12,GND*%
%TO.N,GND*%
X47618750Y-77682500D03*
D21*
%TO.P,J0,S1,SHIELD*%
X46548750Y-72587500D03*
D22*
X46548750Y-76767500D03*
D21*
X55188750Y-72587500D03*
D22*
X55188750Y-76767500D03*
%TD*%
D18*
%TO.P,C5,1*%
%TO.N,+3V3*%
X81257000Y-87503000D03*
%TO.P,C5,2*%
%TO.N,GND*%
X80287000Y-87503000D03*
%TD*%
D23*
%TO.P,TX0,1,1*%
%TO.N,17*%
X69087500Y-108637500D03*
%TO.P,TX0,2,2*%
%TO.N,GND*%
X61087500Y-108637500D03*
%TD*%
%TO.P,TX1,1,1*%
%TO.N,16*%
X80137500Y-108637500D03*
%TO.P,TX1,2,2*%
%TO.N,GND*%
X88137500Y-108637500D03*
%TD*%
D13*
%TO.P,CP5,1*%
%TO.N,GND*%
X47168750Y-96537500D03*
%TO.P,CP5,2*%
%TO.N,VBUS*%
X48138750Y-96537500D03*
%TD*%
D11*
%TO.P,CF1,1*%
%TO.N,+3V3*%
X82926750Y-73702000D03*
%TO.P,CF1,2*%
%TO.N,GND*%
X82926750Y-72732000D03*
%TD*%
D24*
%TO.P,J1,1,Pin_1*%
%TO.N,GND*%
X65968750Y-76437500D03*
%TO.P,J1,2,Pin_2*%
%TO.N,+3V3*%
X66968750Y-76437500D03*
%TO.P,J1,3,Pin_3*%
%TO.N,28{slash}A2*%
X67968750Y-76437500D03*
%TO.P,J1,4,Pin_4*%
%TO.N,29{slash}A3*%
X68968750Y-76437500D03*
D25*
%TO.P,J1,MP,MP*%
%TO.N,GND*%
X64668750Y-72562500D03*
X70268750Y-72562500D03*
%TD*%
D13*
%TO.P,CP8,1*%
%TO.N,+3V3*%
X49198750Y-110537500D03*
%TO.P,CP8,2*%
%TO.N,GND*%
X50168750Y-110537500D03*
%TD*%
D18*
%TO.P,CP10,1*%
%TO.N,GND*%
X50138750Y-97637500D03*
%TO.P,CP10,2*%
%TO.N,VBUS*%
X49168750Y-97637500D03*
%TD*%
D12*
%TO.P,C10,1*%
%TO.N,+1V1*%
X83693000Y-95781000D03*
%TO.P,C10,2*%
%TO.N,GND*%
X83693000Y-96751000D03*
%TD*%
D11*
%TO.P,C11,1*%
%TO.N,+1V1*%
X84709000Y-84940000D03*
%TO.P,C11,2*%
%TO.N,GND*%
X84709000Y-83970000D03*
%TD*%
D26*
%TO.P,U3,1,~{CS}*%
%TO.N,CS*%
X89568750Y-74386900D03*
%TO.P,U3,2,DO(IO1)*%
%TO.N,SD1*%
X89568750Y-75656900D03*
%TO.P,U3,3,IO2*%
%TO.N,SD2*%
X89568750Y-76926900D03*
%TO.P,U3,4,GND*%
%TO.N,GND*%
X89568750Y-78196900D03*
%TO.P,U3,5,DI(IO0)*%
%TO.N,SD0*%
X84168750Y-78196900D03*
%TO.P,U3,6,CLK*%
%TO.N,CLOCK*%
X84168750Y-76926900D03*
%TO.P,U3,7,IO3*%
%TO.N,SD3*%
X84168750Y-75656900D03*
%TO.P,U3,8,VCC*%
%TO.N,+3V3*%
X84168750Y-74386900D03*
D27*
%TO.P,U3,9,EP*%
%TO.N,GND*%
X86868750Y-76291900D03*
%TD*%
D28*
%TO.P,LP1,1,1*%
%TO.N,Net-(U1-SW)*%
X48668750Y-106037500D03*
%TO.P,LP1,2,2*%
%TO.N,+3V3*%
X48668750Y-109037500D03*
%TD*%
D18*
%TO.P,CP13,1*%
%TO.N,GND*%
X50138750Y-99837500D03*
%TO.P,CP13,2*%
%TO.N,VBUS*%
X49168750Y-99837500D03*
%TD*%
%TO.P,CP17,1*%
%TO.N,+3V3*%
X48168750Y-111637500D03*
%TO.P,CP17,2*%
%TO.N,GND*%
X47198750Y-111637500D03*
%TD*%
D29*
%TO.P,Y0,1,1*%
%TO.N,XIN*%
X87968000Y-98479000D03*
%TO.P,Y0,2,2*%
%TO.N,GND*%
X86768000Y-98479000D03*
%TO.P,Y0,3,3*%
%TO.N,Net-(RX1-Pad2)*%
X85568000Y-98479000D03*
%TD*%
D30*
%TO.P,U1,1,BS*%
%TO.N,Net-(U1-BS)*%
X47531250Y-103287500D03*
%TO.P,U1,2,GND*%
%TO.N,GND*%
X47531250Y-102337500D03*
%TO.P,U1,3,FB*%
%TO.N,Net-(U1-FB)*%
X47531250Y-101387500D03*
%TO.P,U1,4,EN*%
%TO.N,VBUS*%
X49806250Y-101387500D03*
%TO.P,U1,5,VIN*%
X49806250Y-102337500D03*
%TO.P,U1,6,SW*%
%TO.N,Net-(U1-SW)*%
X49806250Y-103287500D03*
%TD*%
D18*
%TO.P,CP9,1*%
%TO.N,+3V3*%
X48168750Y-113837500D03*
%TO.P,CP9,2*%
%TO.N,GND*%
X47198750Y-113837500D03*
%TD*%
D11*
%TO.P,RP2,1*%
%TO.N,Net-(U1-FB)*%
X45768750Y-104222500D03*
%TO.P,RP2,2*%
%TO.N,GND*%
X45768750Y-103252500D03*
%TD*%
D13*
%TO.P,CP1,1*%
%TO.N,Net-(U1-BS)*%
X48083750Y-104637500D03*
%TO.P,CP1,2*%
%TO.N,Net-(U1-SW)*%
X49053750Y-104637500D03*
%TD*%
D11*
%TO.P,RR1,1*%
%TO.N,+3V3*%
X102108000Y-94719000D03*
%TO.P,RR1,2*%
%TO.N,~{RESET}*%
X102108000Y-93749000D03*
%TD*%
D13*
%TO.P,CP6,1*%
%TO.N,+3V3*%
X49198750Y-112737500D03*
%TO.P,CP6,2*%
%TO.N,GND*%
X50168750Y-112737500D03*
%TD*%
D18*
%TO.P,CP15,1*%
%TO.N,+3V3*%
X48168750Y-110537500D03*
%TO.P,CP15,2*%
%TO.N,GND*%
X47198750Y-110537500D03*
%TD*%
D13*
%TO.P,CP4,1*%
%TO.N,GND*%
X47168750Y-97637500D03*
%TO.P,CP4,2*%
%TO.N,VBUS*%
X48138750Y-97637500D03*
%TD*%
D18*
%TO.P,CP12,1*%
%TO.N,GND*%
X50138750Y-98737500D03*
%TO.P,CP12,2*%
%TO.N,VBUS*%
X49168750Y-98737500D03*
%TD*%
D31*
%TO.P,U2,1,I/O1*%
%TO.N,DB+*%
X49318750Y-82775000D03*
%TO.P,U2,2,GND*%
%TO.N,GND*%
X48368750Y-82775000D03*
%TO.P,U2,3,I/O2*%
%TO.N,DB-*%
X47418750Y-82775000D03*
%TO.P,U2,4,I/O2*%
%TO.N,D-*%
X47418750Y-80500000D03*
%TO.P,U2,5,VBUS*%
%TO.N,VBUS*%
X48368750Y-80500000D03*
%TO.P,U2,6,I/O1*%
%TO.N,D+*%
X49318750Y-80500000D03*
%TD*%
D11*
%TO.P,RF2,1*%
%TO.N,+3V3*%
X81843750Y-73702000D03*
%TO.P,RF2,2*%
%TO.N,CS*%
X81843750Y-72732000D03*
%TD*%
D18*
%TO.P,CP11,1*%
%TO.N,GND*%
X50138750Y-96537500D03*
%TO.P,CP11,2*%
%TO.N,VBUS*%
X49168750Y-96537500D03*
%TD*%
D11*
%TO.P,RP1,1*%
%TO.N,+3V3*%
X45768750Y-106222500D03*
%TO.P,RP1,2*%
%TO.N,Net-(U1-FB)*%
X45768750Y-105252500D03*
%TD*%
D13*
%TO.P,RD0,1*%
%TO.N,DB-*%
X77747000Y-85852000D03*
%TO.P,RD0,2*%
%TO.N,DR-*%
X78717000Y-85852000D03*
%TD*%
%TO.P,CP14,1*%
%TO.N,+3V3*%
X49198750Y-113837500D03*
%TO.P,CP14,2*%
%TO.N,GND*%
X50168750Y-113837500D03*
%TD*%
D18*
%TO.P,CP16,1*%
%TO.N,+3V3*%
X48168750Y-112737500D03*
%TO.P,CP16,2*%
%TO.N,GND*%
X47198750Y-112737500D03*
%TD*%
D13*
%TO.P,CP7,1*%
%TO.N,+3V3*%
X49198750Y-111637500D03*
%TO.P,CP7,2*%
%TO.N,GND*%
X50168750Y-111637500D03*
%TD*%
D32*
%TO.P,S1,1,A*%
%TO.N,GND*%
X107412100Y-99931400D03*
X107412100Y-93731400D03*
%TO.P,S1,2,B*%
%TO.N,~{RESET}*%
X103712100Y-99931400D03*
X103712100Y-93731400D03*
%TD*%
D11*
%TO.P,C9,1*%
%TO.N,+1V1*%
X87384750Y-84937500D03*
%TO.P,C9,2*%
%TO.N,GND*%
X87384750Y-83967500D03*
%TD*%
D13*
%TO.P,CP3,1*%
%TO.N,GND*%
X47168750Y-98737500D03*
%TO.P,CP3,2*%
%TO.N,VBUS*%
X48138750Y-98737500D03*
%TD*%
D33*
%TO.P,J2,1,Pin_1*%
%TO.N,GND*%
X31750000Y-83343750D03*
D34*
%TO.P,J2,2,Pin_2*%
%TO.N,22*%
X31750000Y-85883750D03*
%TO.P,J2,3,Pin_3*%
%TO.N,21*%
X31750000Y-88423750D03*
%TO.P,J2,4,Pin_4*%
%TO.N,20*%
X31750000Y-90963750D03*
%TO.P,J2,5,Pin_5*%
%TO.N,19*%
X31750000Y-93503750D03*
%TO.P,J2,6,Pin_6*%
%TO.N,18*%
X31750000Y-96043750D03*
%TD*%
D13*
%TO.P,CP2,1*%
%TO.N,GND*%
X47168750Y-99837500D03*
%TO.P,CP2,2*%
%TO.N,VBUS*%
X48138750Y-99837500D03*
%TD*%
D18*
%TO.P,RX1,1*%
%TO.N,XOUT*%
X86845000Y-96266000D03*
%TO.P,RX1,2*%
%TO.N,Net-(RX1-Pad2)*%
X85875000Y-96266000D03*
%TD*%
D35*
%TO.N,GND*%
X115618750Y-127387500D03*
X58428750Y-127387500D03*
X229868750Y-89387500D03*
X133668750Y-146437500D03*
X86377500Y-83135000D03*
X62868750Y-108637500D03*
D36*
X86570025Y-73338775D03*
X47168750Y-113237500D03*
D35*
X95468750Y-146437500D03*
D36*
X47138750Y-99337500D03*
D35*
X153618750Y-89387500D03*
X153618750Y-127387500D03*
X247868750Y-108387500D03*
X191768253Y-127387500D03*
D36*
X50168750Y-113237500D03*
D35*
X172768253Y-89387500D03*
X228868750Y-146437500D03*
X324168750Y-146437500D03*
X286868750Y-127387500D03*
X114568750Y-146437500D03*
X95368750Y-108387500D03*
X83868750Y-83137500D03*
D36*
X46368750Y-102637500D03*
D35*
X39518253Y-89137500D03*
X96503750Y-127387500D03*
X285884500Y-108387500D03*
X45868750Y-82137500D03*
X79439250Y-91567000D03*
D36*
X50168750Y-112137500D03*
D35*
X38368750Y-108387500D03*
X115516743Y-89689590D03*
X305068750Y-146437500D03*
X152618750Y-108387500D03*
X86868750Y-100137500D03*
X84368750Y-98137500D03*
D36*
X50138750Y-97137500D03*
D35*
X210868750Y-89387500D03*
X172618750Y-127387500D03*
D36*
X65868750Y-75137500D03*
X92618750Y-85538000D03*
D35*
X209968750Y-146437500D03*
X171768750Y-146437500D03*
X209868750Y-108387500D03*
D36*
X50138750Y-98237500D03*
D35*
X134618750Y-89387500D03*
X229868750Y-127387500D03*
X266868750Y-108387500D03*
X106368750Y-93637500D03*
X266968750Y-146437500D03*
X287018253Y-89387500D03*
X325118750Y-89387500D03*
X171618750Y-108387500D03*
X210768253Y-127387500D03*
D36*
X47168750Y-111037500D03*
D35*
X38368750Y-146437500D03*
X94598750Y-91287000D03*
X324118750Y-108387500D03*
X305118750Y-108387500D03*
X133618750Y-108387500D03*
X325118750Y-127387500D03*
X106368750Y-99637500D03*
D36*
X47138750Y-97137500D03*
D35*
X152668750Y-146437500D03*
X57368750Y-146437500D03*
X190768750Y-146437500D03*
X134618750Y-127387500D03*
X79503250Y-87503000D03*
X306118750Y-127387500D03*
X86118750Y-108637500D03*
X285968750Y-146437500D03*
X75368750Y-107387500D03*
D36*
X50138750Y-99337500D03*
D35*
X191722093Y-89421948D03*
X267868750Y-127387500D03*
X190618750Y-108387500D03*
X57368750Y-108387500D03*
D36*
X47168750Y-112137500D03*
D35*
X98004795Y-90251455D03*
D36*
X50168750Y-111037500D03*
D35*
X58518253Y-89137500D03*
D36*
X48668750Y-101837500D03*
D35*
X77453750Y-127387500D03*
X306118750Y-89387500D03*
D36*
X86518750Y-90487500D03*
D35*
X248868750Y-89387500D03*
X114469247Y-108387500D03*
X228868750Y-108387500D03*
X247968750Y-146437500D03*
X248868750Y-127387500D03*
X50914056Y-81788000D03*
D36*
X47138750Y-98237500D03*
D35*
X76468750Y-146437500D03*
X267868750Y-89387500D03*
X39428750Y-127387500D03*
D36*
%TO.N,Net-(LD1-DOUT)*%
X54868750Y-86137500D03*
X56868750Y-85137500D03*
%TO.N,~{RESET}*%
X103368750Y-98637500D03*
X103368750Y-95137500D03*
X73618750Y-97137500D03*
X73618750Y-103387500D03*
%TO.N,DB+*%
X50868750Y-83437500D03*
X54868750Y-83137500D03*
%TO.N,DB-*%
X54868750Y-84137500D03*
X50048750Y-84017500D03*
%TO.N,0*%
X322499250Y-83387500D03*
%TO.N,1*%
X303449250Y-84137500D03*
%TO.N,2*%
X284399250Y-84387500D03*
%TO.N,3*%
X265349250Y-84637500D03*
%TO.N,4*%
X246299250Y-87387500D03*
%TO.N,5*%
X227249250Y-87637500D03*
%TO.N,6*%
X208199250Y-87887500D03*
%TO.N,7*%
X189149250Y-88387500D03*
%TO.N,8*%
X170099250Y-88637500D03*
%TO.N,9*%
X151049250Y-91887500D03*
%TO.N,10*%
X131999250Y-89637500D03*
%TO.N,11*%
X112949250Y-89637500D03*
%TO.N,12*%
X93899250Y-93887500D03*
%TO.N,13*%
X89618750Y-94637500D03*
%TO.N,14*%
X88868750Y-95225494D03*
X75068750Y-98337500D03*
X61618750Y-98387500D03*
%TO.N,15*%
X55118750Y-103137500D03*
X87868750Y-95137500D03*
X79618750Y-101137500D03*
%TO.N,Net-(LD2-DOUT)*%
X70118750Y-86137500D03*
X75118750Y-86387500D03*
%TO.N,18*%
X49968750Y-92737500D03*
X48268750Y-92737500D03*
%TO.N,19*%
X49972181Y-91889941D03*
X48268750Y-91874193D03*
%TO.N,20*%
X49968750Y-91037500D03*
X48268750Y-91037500D03*
%TO.N,23*%
X64868750Y-135837500D03*
X73118750Y-91137500D03*
%TO.N,24*%
X65618750Y-116787500D03*
X72289126Y-90472688D03*
%TO.N,26{slash}A0*%
X80868750Y-78595539D03*
X72368750Y-78687500D03*
X73618750Y-88887500D03*
X93118750Y-78687500D03*
X42868750Y-78687500D03*
X61868750Y-78607890D03*
X54868750Y-79137500D03*
%TO.N,27{slash}A1*%
X48419250Y-88137500D03*
X49918250Y-88137500D03*
X38118750Y-84887500D03*
%TO.N,29{slash}A3*%
X73118750Y-87137500D03*
X68868750Y-79637500D03*
%TO.N,+3V3*%
X267868750Y-108387500D03*
X228868750Y-127387500D03*
X306118750Y-108387500D03*
X172618750Y-108387500D03*
X48668750Y-113837500D03*
X115568750Y-146437500D03*
X210868750Y-108387500D03*
X75118750Y-87387500D03*
X171868750Y-89387500D03*
X48668750Y-112737500D03*
X133618750Y-89387500D03*
X248868750Y-146437500D03*
X229868750Y-108387500D03*
X96468750Y-146437500D03*
X66868750Y-75137500D03*
X101118750Y-93387500D03*
X39368750Y-108387500D03*
X172668750Y-146437500D03*
X115368750Y-108387500D03*
X247868750Y-127387500D03*
X191618750Y-108387500D03*
X228868750Y-89387500D03*
X153618750Y-108387500D03*
X209868750Y-127387500D03*
X133618750Y-127387500D03*
X171618750Y-127387500D03*
X190823323Y-89385666D03*
X38458750Y-127387500D03*
X324118750Y-127387500D03*
X267968750Y-146437500D03*
X285868750Y-127387500D03*
X84118750Y-88387500D03*
X38618750Y-89137500D03*
X114618750Y-89637500D03*
X324118750Y-89387500D03*
X78368750Y-107387500D03*
X266868750Y-89387500D03*
X88868750Y-91637500D03*
X58368750Y-108387500D03*
X86368750Y-92887500D03*
X210868750Y-146437500D03*
X48668750Y-111637500D03*
X247868750Y-89387500D03*
X88868750Y-88137500D03*
X83167475Y-74637500D03*
X58368750Y-146437500D03*
X152618750Y-89387500D03*
X286118750Y-89387500D03*
X134618750Y-108387500D03*
X325068750Y-146437500D03*
X95533750Y-127387500D03*
X305118750Y-127387500D03*
X286854500Y-108387500D03*
X190868750Y-127387500D03*
X306068750Y-146437500D03*
X152618750Y-127387500D03*
X209868750Y-89387500D03*
X57458750Y-127387500D03*
X287068750Y-146437500D03*
X134668750Y-146437500D03*
X153668750Y-146437500D03*
X229768750Y-146437500D03*
X97368750Y-90887500D03*
X57618750Y-89137500D03*
X85868750Y-87887500D03*
X248868750Y-108387500D03*
X39368750Y-146437500D03*
X191768750Y-146437500D03*
X305118750Y-89387500D03*
X76483750Y-127387500D03*
X77468750Y-146437500D03*
X325118750Y-108387500D03*
X96368750Y-108387500D03*
X266868750Y-127387500D03*
X48668750Y-110537500D03*
X114618750Y-127387500D03*
%TO.N,25*%
X64968750Y-97387500D03*
X46037500Y-97631250D03*
X80868750Y-97637500D03*
X90868750Y-97637500D03*
X71368750Y-89887500D03*
X51868750Y-97637500D03*
%TO.N,28{slash}A2*%
X67868750Y-79637500D03*
X72118750Y-87137500D03*
%TO.N,17*%
X71618750Y-97137500D03*
X72768750Y-108537500D03*
%TO.N,16*%
X72618750Y-97137500D03*
X73668750Y-108537500D03*
%TO.N,21*%
X48268750Y-90137500D03*
X49975468Y-90137500D03*
%TO.N,22*%
X49968750Y-89337500D03*
X48268750Y-89337500D03*
%TO.N,Net-(LD3-DOUT)*%
X94618750Y-85387500D03*
X93286500Y-86151985D03*
%TO.N,Net-(LD4-DOUT)*%
X112368750Y-86137500D03*
X113618750Y-85137500D03*
%TO.N,Net-(LD5-DOUT)*%
X131284250Y-86303000D03*
X132618750Y-85137500D03*
%TO.N,Net-(LD6-DOUT)*%
X151868750Y-84887500D03*
X150368750Y-86137500D03*
%TO.N,Net-(LD7-DOUT)*%
X169118750Y-86137500D03*
X170868750Y-84887500D03*
%TO.N,Net-(LD8-DOUT)*%
X189868750Y-85137500D03*
X188368750Y-86137500D03*
%TO.N,Net-(LD10-DIN)*%
X207368750Y-86137500D03*
X208868750Y-85137500D03*
%TO.N,Net-(LD10-DOUT)*%
X227868750Y-85137500D03*
X226368750Y-86137500D03*
%TO.N,Net-(LD11-DOUT)*%
X245618750Y-86137500D03*
X247118750Y-85137500D03*
%TO.N,Net-(LD12-DOUT)*%
X264618750Y-86137500D03*
X266118750Y-85137500D03*
%TO.N,Net-(LD13-DOUT)*%
X283618750Y-86137500D03*
X285118750Y-85137500D03*
%TO.N,Net-(LD14-DOUT)*%
X302618750Y-86137500D03*
X304118750Y-85137500D03*
%TO.N,Net-(LD15-DOUT)*%
X321743750Y-86262500D03*
X323118750Y-85137500D03*
%TO.N,Net-(LD17-DOUT)*%
X36118750Y-105137500D03*
X37632306Y-104151056D03*
X36118750Y-124137500D03*
X37618750Y-123137500D03*
%TO.N,Net-(LD17-DIN)*%
X55118750Y-105137500D03*
X56618750Y-104137500D03*
%TO.N,Net-(LD18-DIN)*%
X64868750Y-105387500D03*
X72868750Y-105387500D03*
X75118750Y-105387500D03*
X66868750Y-105387500D03*
%TO.N,Net-(LD19-DIN)*%
X93118750Y-105137500D03*
X94618750Y-104137500D03*
%TO.N,Net-(LD20-DIN)*%
X112118750Y-105137500D03*
X113868750Y-104137500D03*
%TO.N,Net-(LD21-DIN)*%
X132868750Y-104137500D03*
X131368750Y-105137500D03*
%TO.N,Net-(LD22-DIN)*%
X150368750Y-105137500D03*
X151868750Y-104137500D03*
%TO.N,Net-(LD23-DIN)*%
X170868750Y-104137500D03*
X169368750Y-105137500D03*
%TO.N,Net-(LD24-DIN)*%
X189868750Y-104137500D03*
X188368750Y-105137500D03*
%TO.N,Net-(LD25-DIN)*%
X208868750Y-104137500D03*
X207368750Y-105387500D03*
%TO.N,Net-(LD26-DIN)*%
X228118750Y-104137500D03*
X226368750Y-105137500D03*
%TO.N,Net-(LD27-DIN)*%
X247118750Y-104187500D03*
X245368750Y-105137500D03*
%TO.N,Net-(LD28-DIN)*%
X264618750Y-105137500D03*
X266118750Y-104137500D03*
%TO.N,Net-(LD29-DIN)*%
X285118750Y-104137500D03*
X283618750Y-105137500D03*
%TO.N,Net-(LD30-DIN)*%
X302618750Y-105137500D03*
X304118750Y-104137500D03*
%TO.N,Net-(LD31-DIN)*%
X323118750Y-104137500D03*
X321868750Y-105137500D03*
%TO.N,Net-(LD33-DOUT)*%
X54868750Y-124137500D03*
X56618750Y-123137500D03*
%TO.N,Net-(LD34-DOUT)*%
X73618750Y-124137500D03*
X75118750Y-124137500D03*
X65868750Y-125137500D03*
X64368750Y-125137500D03*
%TO.N,Net-(LD35-DOUT)*%
X94618750Y-123387500D03*
X93118750Y-124137500D03*
%TO.N,Net-(LD36-DOUT)*%
X113618750Y-123387500D03*
X112118750Y-124137500D03*
%TO.N,Net-(LD37-DOUT)*%
X131368750Y-124137500D03*
X132618750Y-123387500D03*
%TO.N,Net-(LD38-DOUT)*%
X151868750Y-123387500D03*
X150368750Y-124137500D03*
%TO.N,Net-(LD39-DOUT)*%
X170868750Y-123387500D03*
X169368750Y-124137500D03*
%TO.N,Net-(LD40-DOUT)*%
X189868750Y-123387500D03*
X188368750Y-124137500D03*
%TO.N,Net-(LD41-DOUT)*%
X207368750Y-124137500D03*
X208868750Y-123387500D03*
%TO.N,Net-(LD42-DOUT)*%
X228118750Y-123387500D03*
X226618750Y-124137500D03*
%TO.N,Net-(LD43-DOUT)*%
X247118750Y-123387500D03*
X245618750Y-124137500D03*
%TO.N,Net-(LD44-DOUT)*%
X264618750Y-124137500D03*
X266118750Y-123387500D03*
%TO.N,Net-(LD45-DOUT)*%
X285118750Y-123387500D03*
X283618750Y-124137500D03*
%TO.N,Net-(LD46-DOUT)*%
X302618750Y-124137500D03*
X304118750Y-123387500D03*
%TO.N,Net-(LD47-DOUT)*%
X321868750Y-124137500D03*
X323368750Y-123387500D03*
%TD*%
D37*
%TO.N,GND*%
X47168750Y-97167500D02*
X47168750Y-98207500D01*
D38*
X84836000Y-96751000D02*
X84836000Y-97670250D01*
X88137500Y-108637500D02*
X86118750Y-108637500D01*
D37*
X47198750Y-113267500D02*
X47198750Y-113837500D01*
X50168750Y-112137500D02*
X50168750Y-111037500D01*
D38*
X50618750Y-80892500D02*
X50618750Y-81492694D01*
X84836000Y-97670250D02*
X84368750Y-98137500D01*
X61087500Y-108637500D02*
X62868750Y-108637500D01*
X46368750Y-102652500D02*
X46368750Y-102637500D01*
D39*
X87487000Y-93925000D02*
X87487000Y-91487500D01*
D37*
X47168750Y-97067500D02*
X47168750Y-97107500D01*
D38*
X46383750Y-102637500D02*
X46683750Y-102337500D01*
X86368750Y-83967500D02*
X86368750Y-83143750D01*
X85963250Y-72732000D02*
X82926750Y-72732000D01*
X46118750Y-81137500D02*
X46493750Y-81512500D01*
X64668750Y-72562500D02*
X65868750Y-73762500D01*
D37*
X47198750Y-112107500D02*
X47168750Y-112137500D01*
D38*
X94318750Y-91567000D02*
X92687000Y-91567000D01*
X45868750Y-82137500D02*
X46493750Y-81512500D01*
D37*
X50168750Y-113837500D02*
X50168750Y-113237500D01*
X47168750Y-100032493D02*
X47773757Y-100637500D01*
X50138750Y-97137500D02*
X50138750Y-98237500D01*
D38*
X107412100Y-99931400D02*
X106662650Y-99931400D01*
D37*
X48668750Y-102037500D02*
X48368750Y-102337500D01*
D38*
X83693000Y-83970000D02*
X83693000Y-83313250D01*
D37*
X47773757Y-100637500D02*
X48292278Y-100637500D01*
X47168750Y-113237500D02*
X47198750Y-113267500D01*
D38*
X86570025Y-76291900D02*
X86570025Y-73338775D01*
D37*
X47168750Y-97067500D02*
X47168750Y-96537500D01*
D38*
X107412100Y-93731400D02*
X106462650Y-93731400D01*
D37*
X48368750Y-102337500D02*
X47531250Y-102337500D01*
D38*
X46118750Y-80872500D02*
X46118750Y-81137500D01*
D37*
X50138750Y-98237500D02*
X50138750Y-99337500D01*
X47138750Y-99337500D02*
X47168750Y-99307500D01*
X48292278Y-100637500D02*
X48668750Y-101013972D01*
D38*
X65968750Y-76437500D02*
X65968750Y-75237500D01*
X67068750Y-72562500D02*
X65868750Y-73762500D01*
X89568750Y-78196900D02*
X88773750Y-78196900D01*
X88773750Y-78196900D02*
X86868750Y-76291900D01*
D37*
X47168750Y-98267500D02*
X47138750Y-98237500D01*
D38*
X83693000Y-97461750D02*
X84368750Y-98137500D01*
X70268750Y-72562500D02*
X67068750Y-72562500D01*
X45768750Y-103252500D02*
X46368750Y-102652500D01*
X106462650Y-93731400D02*
X106368750Y-93637500D01*
X50618750Y-81492694D02*
X50914056Y-81788000D01*
D37*
X47198750Y-110537500D02*
X47198750Y-111007500D01*
D38*
X46868750Y-81512500D02*
X47868749Y-81512500D01*
X65868750Y-73762500D02*
X65868750Y-75137500D01*
X65968750Y-75237500D02*
X65868750Y-75137500D01*
D39*
X92687000Y-87503000D02*
X92687000Y-85606250D01*
D38*
X82677000Y-83970000D02*
X84709000Y-83970000D01*
D37*
X47168750Y-98207500D02*
X47138750Y-98237500D01*
D38*
X86768000Y-100036750D02*
X86868750Y-100137500D01*
X55188750Y-76767500D02*
X55188750Y-72587500D01*
D37*
X47168750Y-111037500D02*
X47198750Y-111067500D01*
X48668750Y-101013972D02*
X48668750Y-101837500D01*
D38*
X86368750Y-83967500D02*
X87384750Y-83967500D01*
D37*
X47198750Y-111007500D02*
X47168750Y-111037500D01*
X50168750Y-113237500D02*
X50168750Y-112137500D01*
X47168750Y-99837500D02*
X47168750Y-100032493D01*
X48668750Y-101837500D02*
X48668750Y-102037500D01*
D38*
X94598750Y-91287000D02*
X94318750Y-91567000D01*
D37*
X50168750Y-111037500D02*
X50168750Y-110537500D01*
D38*
X46758750Y-81512500D02*
X46868750Y-81512500D01*
X83693000Y-83313250D02*
X83868750Y-83137500D01*
X83693000Y-96751000D02*
X83693000Y-97461750D01*
X47868749Y-81512500D02*
X48368750Y-82012501D01*
X79439250Y-91567000D02*
X80160000Y-91567000D01*
D37*
X47198750Y-111067500D02*
X47198750Y-112107500D01*
X47168750Y-99307500D02*
X47168750Y-98267500D01*
D38*
X46548750Y-76767500D02*
X46548750Y-72587500D01*
D37*
X50138750Y-99337500D02*
X50138750Y-99837500D01*
D38*
X46368750Y-102637500D02*
X46383750Y-102637500D01*
D37*
X50138750Y-96537500D02*
X50138750Y-97137500D01*
D38*
X46868750Y-81512500D02*
X46493750Y-81512500D01*
X47463750Y-77682500D02*
X46548750Y-76767500D01*
X54118750Y-77682500D02*
X54273750Y-77682500D01*
X86768000Y-98479000D02*
X86768000Y-100036750D01*
X48368750Y-82012501D02*
X48368750Y-82775000D01*
D37*
X47168750Y-99367500D02*
X47138750Y-99337500D01*
D38*
X54273750Y-77682500D02*
X55188750Y-76767500D01*
D37*
X47198750Y-112167500D02*
X47198750Y-113207500D01*
D38*
X86570025Y-73338775D02*
X85963250Y-72732000D01*
X47618750Y-77682500D02*
X47463750Y-77682500D01*
X46683750Y-102337500D02*
X47531250Y-102337500D01*
D39*
X92687000Y-85606250D02*
X92618750Y-85538000D01*
D37*
X47168750Y-97107500D02*
X47138750Y-97137500D01*
X47198750Y-113207500D02*
X47168750Y-113237500D01*
D38*
X106662650Y-99931400D02*
X106368750Y-99637500D01*
D37*
X47168750Y-99837500D02*
X47168750Y-99367500D01*
D38*
X79503250Y-87503000D02*
X80287000Y-87503000D01*
D37*
X47168750Y-112137500D02*
X47198750Y-112167500D01*
X47138750Y-97137500D02*
X47168750Y-97167500D01*
%TO.N,VBUS*%
X48138750Y-98737500D02*
X49168750Y-98737500D01*
X50068750Y-82013972D02*
X49717278Y-81662500D01*
X49717278Y-81662500D02*
X48970222Y-81662500D01*
X49168750Y-97637500D02*
X48138750Y-97637500D01*
X49168750Y-96537500D02*
X49168750Y-95137500D01*
X48138750Y-96167500D02*
X49168750Y-95137500D01*
X48970222Y-81662500D02*
X48368750Y-81061028D01*
X49168750Y-99837500D02*
X49368750Y-100037500D01*
X49806250Y-101387500D02*
X49806250Y-102337500D01*
X50068750Y-82637500D02*
X50068750Y-82013972D01*
X49168750Y-96537500D02*
X49168750Y-99837500D01*
X48368750Y-81061028D02*
X48368750Y-80500000D01*
X51883750Y-84122500D02*
X51883750Y-83137500D01*
X51383750Y-82637500D02*
X50068750Y-82637500D01*
X49368750Y-100950000D02*
X49806250Y-101387500D01*
X51883750Y-83137500D02*
X51383750Y-82637500D01*
X49168750Y-95137500D02*
X49168750Y-86837500D01*
X48138750Y-96537500D02*
X49168750Y-96537500D01*
X48138750Y-96537500D02*
X48138750Y-96167500D01*
X48138750Y-99837500D02*
X48138750Y-96537500D01*
X49368750Y-100037500D02*
X49368750Y-100950000D01*
X49168750Y-99837500D02*
X48138750Y-99837500D01*
X49168750Y-86837500D02*
X51883750Y-84122500D01*
D39*
%TO.N,Net-(D1-A)*%
X43893750Y-77162500D02*
X41493750Y-77162500D01*
%TO.N,Net-(D2-A)*%
X62943750Y-77162500D02*
X60543750Y-77162500D01*
%TO.N,Net-(D3-A)*%
X81993750Y-77149800D02*
X79606450Y-77149800D01*
%TO.N,Net-(D4-A)*%
X101043750Y-77162500D02*
X98643750Y-77162500D01*
%TO.N,Net-(D5-A)*%
X117568750Y-77287500D02*
X119968750Y-77287500D01*
%TO.N,Net-(D6-A)*%
X136618750Y-77287500D02*
X139018750Y-77287500D01*
%TO.N,Net-(D7-A)*%
X155668750Y-77287500D02*
X158068750Y-77287500D01*
%TO.N,Net-(D8-A)*%
X174718750Y-77287500D02*
X177118750Y-77287500D01*
%TO.N,Net-(D9-A)*%
X193768750Y-77287500D02*
X196168750Y-77287500D01*
%TO.N,Net-(D10-A)*%
X212818750Y-77287500D02*
X215218750Y-77287500D01*
%TO.N,Net-(D11-A)*%
X231868750Y-77287500D02*
X234268750Y-77287500D01*
%TO.N,Net-(D12-A)*%
X250918750Y-77287500D02*
X253318750Y-77287500D01*
%TO.N,Net-(D13-A)*%
X269968750Y-77287500D02*
X272368750Y-77287500D01*
%TO.N,Net-(D14-A)*%
X289018750Y-77287500D02*
X291418750Y-77287500D01*
%TO.N,Net-(D15-A)*%
X308068750Y-77287500D02*
X310468750Y-77287500D01*
%TO.N,Net-(D16-A)*%
X327118750Y-77287500D02*
X329518750Y-77287500D01*
%TO.N,Net-(D17-A)*%
X43893750Y-96212500D02*
X41493750Y-96212500D01*
%TO.N,Net-(D18-A)*%
X62943750Y-96212500D02*
X60543750Y-96212500D01*
%TO.N,Net-(D19-A)*%
X81993750Y-96212500D02*
X79593750Y-96212500D01*
%TO.N,Net-(D20-A)*%
X101043750Y-96212500D02*
X98643750Y-96212500D01*
%TO.N,Net-(D21-A)*%
X117568750Y-96337500D02*
X119968750Y-96337500D01*
%TO.N,Net-(D22-A)*%
X136618750Y-96337500D02*
X139018750Y-96337500D01*
%TO.N,Net-(D23-A)*%
X155668750Y-96337500D02*
X158068750Y-96337500D01*
%TO.N,Net-(D24-A)*%
X174718750Y-96337500D02*
X177118750Y-96337500D01*
%TO.N,Net-(D25-A)*%
X193768750Y-96275000D02*
X196231250Y-96275000D01*
%TO.N,Net-(D26-A)*%
X212818750Y-96350000D02*
X215206250Y-96350000D01*
%TO.N,Net-(D27-A)*%
X231868750Y-96337500D02*
X234268750Y-96337500D01*
%TO.N,Net-(D28-A)*%
X250918750Y-96337500D02*
X253318750Y-96337500D01*
%TO.N,Net-(D29-A)*%
X269968750Y-96337500D02*
X272368750Y-96337500D01*
%TO.N,Net-(D30-A)*%
X289018750Y-96337500D02*
X291418750Y-96337500D01*
%TO.N,Net-(D31-A)*%
X308068750Y-96337500D02*
X310468750Y-96337500D01*
%TO.N,Net-(D32-A)*%
X327118750Y-96337500D02*
X329518750Y-96337500D01*
%TO.N,Net-(D33-A)*%
X43893750Y-115262500D02*
X41493750Y-115262500D01*
%TO.N,Net-(D34-A)*%
X62943750Y-115262500D02*
X60543750Y-115262500D01*
%TO.N,Net-(D35-A)*%
X81993750Y-115262500D02*
X79593750Y-115262500D01*
%TO.N,Net-(D36-A)*%
X101043750Y-115262500D02*
X98643750Y-115262500D01*
%TO.N,Net-(D37-A)*%
X117568750Y-115387500D02*
X119968750Y-115387500D01*
%TO.N,Net-(D38-A)*%
X136618750Y-115387500D02*
X139018750Y-115387500D01*
%TO.N,Net-(D39-A)*%
X155668750Y-115387500D02*
X158068750Y-115387500D01*
%TO.N,Net-(D40-A)*%
X174718750Y-115387500D02*
X177118750Y-115387500D01*
%TO.N,Net-(D41-A)*%
X193768750Y-115387500D02*
X196168750Y-115387500D01*
%TO.N,Net-(D42-A)*%
X212818750Y-115387500D02*
X215218750Y-115387500D01*
%TO.N,Net-(D43-A)*%
X231868750Y-115387500D02*
X234268750Y-115387500D01*
%TO.N,Net-(D44-A)*%
X250918750Y-115387500D02*
X253318750Y-115387500D01*
%TO.N,Net-(D45-A)*%
X269968750Y-115387500D02*
X272368750Y-115387500D01*
%TO.N,Net-(D46-A)*%
X289018750Y-115387500D02*
X291418750Y-115387500D01*
%TO.N,Net-(D47-A)*%
X308068750Y-115387500D02*
X310468750Y-115387500D01*
%TO.N,Net-(D48-A)*%
X327118750Y-115387500D02*
X329518750Y-115387500D01*
%TO.N,D+*%
X51618750Y-77682500D02*
X51618750Y-78632474D01*
X49318750Y-80500000D02*
X49318750Y-79612526D01*
X49318750Y-79612526D02*
X49503776Y-79427500D01*
X51568750Y-76707500D02*
X50668750Y-76707500D01*
X50668750Y-76707500D02*
X50618750Y-76757500D01*
X50083724Y-79137500D02*
X49793724Y-79427500D01*
X50618750Y-76757500D02*
X50618750Y-77682500D01*
X51618750Y-77682500D02*
X51618750Y-76757500D01*
X51618750Y-78632474D02*
X51113724Y-79137500D01*
X49793724Y-79427500D02*
X49503776Y-79427500D01*
X51618750Y-76757500D02*
X51568750Y-76707500D01*
X51113724Y-79137500D02*
X50083724Y-79137500D01*
%TO.N,D-*%
X50068750Y-78657500D02*
X49648750Y-79077500D01*
X50168750Y-78657500D02*
X50368750Y-78657500D01*
X47418750Y-79647500D02*
X47418750Y-80500000D01*
X51098750Y-78657500D02*
X51118750Y-78637500D01*
X50118750Y-77682500D02*
X50118750Y-78607500D01*
X50118750Y-78607500D02*
X50168750Y-78657500D01*
X50368750Y-78657500D02*
X51098750Y-78657500D01*
X50368750Y-78657500D02*
X50068750Y-78657500D01*
X51118750Y-78637500D02*
X51118750Y-77682500D01*
X49648750Y-79077500D02*
X47988750Y-79077500D01*
X47988750Y-79077500D02*
X47418750Y-79647500D01*
%TO.N,Net-(D49-A)*%
X43893750Y-134312500D02*
X41493750Y-134312500D01*
%TO.N,Net-(D50-A)*%
X62943750Y-134312500D02*
X60543750Y-134312500D01*
%TO.N,Net-(D51-A)*%
X81993750Y-134312500D02*
X79593750Y-134312500D01*
%TO.N,Net-(D52-A)*%
X101043750Y-134312500D02*
X98643750Y-134312500D01*
%TO.N,Net-(D53-A)*%
X117568750Y-134437500D02*
X119968750Y-134437500D01*
%TO.N,Net-(D54-A)*%
X136618750Y-134437500D02*
X137368750Y-135187500D01*
X148668750Y-134312500D02*
X139143750Y-134312500D01*
X137368750Y-135187500D02*
X137368750Y-135487500D01*
X136618750Y-134437500D02*
X139018750Y-134437500D01*
X137368750Y-135487500D02*
X147493750Y-135487500D01*
X147493750Y-135487500D02*
X148668750Y-134312500D01*
%TO.N,Net-(D55-A)*%
X155668750Y-134437500D02*
X158068750Y-134437500D01*
%TO.N,Net-(D56-A)*%
X174718750Y-134437500D02*
X177118750Y-134437500D01*
%TO.N,Net-(D57-A)*%
X193768750Y-134437500D02*
X196168750Y-134437500D01*
%TO.N,Net-(D58-A)*%
X213918750Y-135487500D02*
X223693750Y-135487500D01*
X223693750Y-135487500D02*
X224868750Y-134312500D01*
X212818750Y-134437500D02*
X215218750Y-134437500D01*
X212868750Y-134437500D02*
X213918750Y-135487500D01*
X224868750Y-134312500D02*
X215343750Y-134312500D01*
%TO.N,Net-(D59-A)*%
X231868750Y-134437500D02*
X234268750Y-134437500D01*
%TO.N,Net-(D60-A)*%
X250918750Y-134437500D02*
X253318750Y-134437500D01*
%TO.N,Net-(D61-A)*%
X269968750Y-134437500D02*
X272368750Y-134437500D01*
%TO.N,Net-(D62-A)*%
X289018750Y-134437500D02*
X291418750Y-134437500D01*
%TO.N,Net-(D63-A)*%
X308068750Y-134437500D02*
X310468750Y-134437500D01*
%TO.N,Net-(D64-A)*%
X327118750Y-134437500D02*
X329518750Y-134437500D01*
%TO.N,Net-(J0-CC1)*%
X46118750Y-79267500D02*
X46658750Y-78727500D01*
X46118750Y-79902500D02*
X46118750Y-79267500D01*
X46658750Y-78727500D02*
X49498750Y-78727500D01*
X49498750Y-78727500D02*
X49618750Y-78607500D01*
X49618750Y-78607500D02*
X49618750Y-77682500D01*
%TO.N,Net-(J0-CC2)*%
X52618750Y-78487500D02*
X52418750Y-78687500D01*
X52418750Y-78687500D02*
X52058698Y-78687500D01*
X50868750Y-79877448D02*
X52058698Y-78687500D01*
X52618750Y-77682500D02*
X52618750Y-78487500D01*
X50868750Y-79902500D02*
X50868750Y-79877448D01*
D37*
%TO.N,vUSB*%
X53688750Y-83137500D02*
X52853750Y-83137500D01*
D38*
X49018750Y-76307500D02*
X52718750Y-76307500D01*
D37*
X53874650Y-82951600D02*
X53688750Y-83137500D01*
D38*
X48778750Y-76547500D02*
X49018750Y-76307500D01*
X48778750Y-76575942D02*
X48778750Y-76547500D01*
D37*
X53318750Y-79587500D02*
X53874650Y-80143400D01*
D38*
X53318750Y-77682500D02*
X53318750Y-76935942D01*
X53318750Y-76935942D02*
X52718750Y-76335942D01*
X48418750Y-76935942D02*
X48778750Y-76575942D01*
X52718750Y-76335942D02*
X52718750Y-76307500D01*
X48418750Y-77682500D02*
X48418750Y-76935942D01*
D37*
X53874650Y-80143400D02*
X53874650Y-82951600D01*
X53318750Y-77682500D02*
X53318750Y-79587500D01*
D39*
%TO.N,Net-(LD1-DOUT)*%
X55868750Y-86137500D02*
X54868750Y-86137500D01*
X56868750Y-85137500D02*
X55868750Y-86137500D01*
%TO.N,~{RESET}*%
X84181238Y-94987500D02*
X83223775Y-94987500D01*
X84687000Y-93925000D02*
X84687000Y-94481738D01*
X84687000Y-94481738D02*
X84181238Y-94987500D01*
X103712100Y-94794150D02*
X103712100Y-93731400D01*
X77518750Y-97137500D02*
X73618750Y-97137500D01*
X103018750Y-102987500D02*
X103712100Y-102294150D01*
X83182775Y-94946500D02*
X79709750Y-94946500D01*
X103712100Y-93731400D02*
X102125600Y-93731400D01*
X83223775Y-94987500D02*
X83182775Y-94946500D01*
X103712100Y-98980850D02*
X103368750Y-98637500D01*
X103712100Y-99931400D02*
X103712100Y-98980850D01*
X103368750Y-95137500D02*
X103712100Y-94794150D01*
X74018750Y-102987500D02*
X103018750Y-102987500D01*
X103712100Y-102294150D02*
X103712100Y-99931400D01*
X73618750Y-103387500D02*
X74018750Y-102987500D01*
X79709750Y-94946500D02*
X77518750Y-97137500D01*
%TO.N,+1V1*%
X87384750Y-85116474D02*
X86687000Y-85814224D01*
X84618750Y-92137500D02*
X85887000Y-93405750D01*
X85887000Y-93925000D02*
X85887000Y-94386764D01*
X85368750Y-88637500D02*
X86368750Y-88637500D01*
X85887000Y-94386764D02*
X85037764Y-95236000D01*
X85368750Y-88637500D02*
X84687000Y-88637500D01*
X84618750Y-88705750D02*
X84618750Y-92137500D01*
X84687000Y-88637500D02*
X84618750Y-88705750D01*
X84347350Y-95387500D02*
X84086500Y-95387500D01*
X85118750Y-88637500D02*
X85368750Y-88637500D01*
X86687000Y-87050000D02*
X86687000Y-85814224D01*
X85887000Y-93405750D02*
X85887000Y-93925000D01*
X84086500Y-95387500D02*
X83693000Y-95781000D01*
X86368750Y-88637500D02*
X86687000Y-88319250D01*
X86687000Y-88319250D02*
X86687000Y-87050000D01*
X84687000Y-87050000D02*
X84687000Y-84962000D01*
X84498850Y-95236000D02*
X84347350Y-95387500D01*
X84687000Y-87050000D02*
X84687000Y-88205750D01*
X85037764Y-95236000D02*
X84498850Y-95236000D01*
X84687000Y-88205750D02*
X85118750Y-88637500D01*
%TO.N,XIN*%
X87087000Y-95625850D02*
X87098650Y-95637500D01*
X87087000Y-93925000D02*
X87087000Y-95625850D01*
X87968000Y-96506850D02*
X87098650Y-95637500D01*
X87968000Y-98479000D02*
X87968000Y-96506850D01*
%TO.N,CS*%
X89754750Y-82523500D02*
X89118750Y-81887500D01*
X90247884Y-79446900D02*
X90554324Y-79446900D01*
X89754750Y-85924522D02*
X89754750Y-82523500D01*
X89118750Y-81887500D02*
X89118750Y-80576034D01*
X81843750Y-72732000D02*
X82438750Y-72137000D01*
X87318850Y-72137000D02*
X89568750Y-74386900D01*
X89087000Y-86592272D02*
X89754750Y-85924522D01*
X89087000Y-87050000D02*
X89087000Y-86592272D01*
X90943750Y-79057474D02*
X90943750Y-75761900D01*
X90943750Y-75761900D02*
X89568750Y-74386900D01*
X82438750Y-72137000D02*
X87318850Y-72137000D01*
X89118750Y-80576034D02*
X90247884Y-79446900D01*
X90554324Y-79446900D02*
X90943750Y-79057474D01*
%TO.N,DB+*%
X50868750Y-83437500D02*
X49981250Y-83437500D01*
X55243750Y-83512500D02*
X73291950Y-83512500D01*
X76983999Y-85119000D02*
X77266999Y-84836000D01*
X49981250Y-83437500D02*
X49318750Y-82775000D01*
X77266999Y-84836000D02*
X77747000Y-84836000D01*
X74898450Y-85119000D02*
X76983999Y-85119000D01*
X73291950Y-83512500D02*
X74898450Y-85119000D01*
X54868750Y-83137500D02*
X55243750Y-83512500D01*
%TO.N,DR-*%
X85087000Y-85537500D02*
X85087000Y-87050000D01*
X85329000Y-83637139D02*
X85329000Y-85295500D01*
X85329000Y-85295500D02*
X85087000Y-85537500D01*
X85124055Y-83432194D02*
X85329000Y-83637139D01*
X79842139Y-85852000D02*
X83256640Y-82437500D01*
X85124055Y-83402855D02*
X85124055Y-83432194D01*
X78717000Y-85852000D02*
X79842139Y-85852000D01*
X83256640Y-82437500D02*
X84158700Y-82437500D01*
X84158700Y-82437500D02*
X85124055Y-83402855D01*
%TO.N,DB-*%
X74712050Y-85569000D02*
X76983999Y-85569000D01*
X54868750Y-84137500D02*
X55043750Y-83962500D01*
X50048750Y-84017500D02*
X48238750Y-84017500D01*
X73105550Y-83962500D02*
X74712050Y-85569000D01*
X77266999Y-85852000D02*
X77747000Y-85852000D01*
X76983999Y-85569000D02*
X77266999Y-85852000D01*
X55043750Y-83962500D02*
X73105550Y-83962500D01*
X48238750Y-84017500D02*
X47418750Y-83197500D01*
%TO.N,XOUT*%
X86687000Y-96108000D02*
X86687000Y-93925000D01*
%TO.N,SD1*%
X90593750Y-78907474D02*
X90593750Y-76681900D01*
X89404750Y-85779548D02*
X89404750Y-82854742D01*
X88687000Y-86497297D02*
X89404750Y-85779548D01*
X90102910Y-79096900D02*
X90404324Y-79096900D01*
X88768750Y-82218742D02*
X88768750Y-80431060D01*
X90593750Y-76681900D02*
X89568750Y-75656900D01*
X88687000Y-87050000D02*
X88687000Y-86497297D01*
X89404750Y-82854742D02*
X88768750Y-82218742D01*
X88768750Y-80431060D02*
X90102910Y-79096900D01*
X90404324Y-79096900D02*
X90593750Y-78907474D01*
%TO.N,SD2*%
X89957936Y-78746900D02*
X89994791Y-78746900D01*
X88418750Y-82363717D02*
X88418750Y-80286086D01*
X89054750Y-85634573D02*
X89054750Y-82999716D01*
X89054750Y-82999716D02*
X88418750Y-82363717D01*
X89994791Y-78746900D02*
X90243750Y-78497941D01*
X88287000Y-86402322D02*
X89054750Y-85634573D01*
X88287000Y-87050000D02*
X88287000Y-86402322D01*
X90243750Y-78497941D02*
X90243750Y-77601900D01*
X90243750Y-77601900D02*
X89568750Y-76926900D01*
X88418750Y-80286086D02*
X89957936Y-78746900D01*
%TO.N,SD0*%
X84168750Y-78608691D02*
X88704750Y-83144691D01*
X87887000Y-86307348D02*
X87887000Y-87050000D01*
X84168750Y-78196900D02*
X84168750Y-78608691D01*
X88704750Y-83144691D02*
X88704750Y-85489598D01*
X88704750Y-85489598D02*
X87887000Y-86307348D01*
%TO.N,CLOCK*%
X88354750Y-83289665D02*
X88354750Y-85344624D01*
X84168750Y-76926900D02*
X84168750Y-77696900D01*
X88354750Y-85344624D02*
X87487000Y-86212374D01*
X87487000Y-86212374D02*
X87487000Y-87050000D01*
X83763420Y-77696900D02*
X83543750Y-77916570D01*
X84168750Y-77696900D02*
X83763420Y-77696900D01*
X83543750Y-77916570D02*
X83543750Y-78478665D01*
X83543750Y-78478665D02*
X88354750Y-83289665D01*
%TO.N,SD3*%
X87087000Y-87050000D02*
X87087000Y-86117400D01*
X83193750Y-78623639D02*
X83193750Y-77740195D01*
X83193750Y-77740195D02*
X83368750Y-77565195D01*
X83368750Y-76456900D02*
X84168750Y-75656900D01*
X83368750Y-77565195D02*
X83368750Y-76456900D01*
X87087000Y-86117400D02*
X88004750Y-85199650D01*
X88004750Y-83434639D02*
X83193750Y-78623639D01*
X88004750Y-85199650D02*
X88004750Y-83434639D01*
%TO.N,0*%
X90468750Y-88287500D02*
X90618750Y-88137500D01*
X322218750Y-83107000D02*
X322499250Y-83387500D01*
X93618750Y-88137500D02*
X98649250Y-83107000D01*
X98649250Y-83107000D02*
X322218750Y-83107000D01*
X89924500Y-88287500D02*
X90468750Y-88287500D01*
X90618750Y-88137500D02*
X93618750Y-88137500D01*
%TO.N,1*%
X93763724Y-88487500D02*
X98794224Y-83457000D01*
X90563724Y-88687500D02*
X90763724Y-88487500D01*
X98794224Y-83457000D02*
X302768750Y-83457000D01*
X90763724Y-88487500D02*
X93763724Y-88487500D01*
X89924500Y-88687500D02*
X90563724Y-88687500D01*
X302768750Y-83457000D02*
X303449250Y-84137500D01*
%TO.N,2*%
X93908698Y-88837500D02*
X98939198Y-83807000D01*
X283818750Y-83807000D02*
X284399250Y-84387500D01*
X89924500Y-89087500D02*
X90668750Y-89087500D01*
X98939198Y-83807000D02*
X283818750Y-83807000D01*
X90918750Y-88837500D02*
X93908698Y-88837500D01*
X90668750Y-89087500D02*
X90918750Y-88837500D01*
%TO.N,3*%
X264868750Y-84157000D02*
X265349250Y-84637500D01*
X91063724Y-89187500D02*
X94063725Y-89187500D01*
X99094225Y-84157000D02*
X264868750Y-84157000D01*
X90763724Y-89487500D02*
X91063724Y-89187500D01*
X94063725Y-89187500D02*
X99094225Y-84157000D01*
X89924500Y-89487500D02*
X90763724Y-89487500D01*
%TO.N,4*%
X89924500Y-89887500D02*
X90858698Y-89887500D01*
X94208699Y-89537500D02*
X96858700Y-86887500D01*
X91208698Y-89537500D02*
X94208699Y-89537500D01*
X245799250Y-86887500D02*
X246299250Y-87387500D01*
X96858700Y-86887500D02*
X245799250Y-86887500D01*
X90858698Y-89887500D02*
X91208698Y-89537500D01*
%TO.N,5*%
X94353673Y-89887500D02*
X97003674Y-87237500D01*
X97003674Y-87237500D02*
X226849250Y-87237500D01*
X90953672Y-90287500D02*
X91353672Y-89887500D01*
X89924500Y-90287500D02*
X90953672Y-90287500D01*
X91353672Y-89887500D02*
X94353673Y-89887500D01*
X226849250Y-87237500D02*
X227249250Y-87637500D01*
%TO.N,6*%
X207899250Y-87587500D02*
X208199250Y-87887500D01*
X91498646Y-90237500D02*
X94498647Y-90237500D01*
X219868750Y-132212500D02*
X210343750Y-132212500D01*
X89924500Y-90687500D02*
X91048646Y-90687500D01*
X97148648Y-87587500D02*
X207899250Y-87587500D01*
X91048646Y-90687500D02*
X91498646Y-90237500D01*
X94498647Y-90237500D02*
X97148648Y-87587500D01*
%TO.N,7*%
X94643621Y-90587500D02*
X97293621Y-87937500D01*
X91143621Y-91087500D02*
X91643621Y-90587500D01*
X97293621Y-87937500D02*
X188699250Y-87937500D01*
X89924500Y-91087500D02*
X91143621Y-91087500D01*
X188699250Y-87937500D02*
X189149250Y-88387500D01*
X91643621Y-90587500D02*
X94643621Y-90587500D01*
%TO.N,8*%
X95298750Y-90427345D02*
X97438595Y-88287500D01*
X94688700Y-92187000D02*
X95298750Y-91576950D01*
X91118750Y-91887500D02*
X91418250Y-92187000D01*
X95298750Y-91576950D02*
X95298750Y-90427345D01*
X169749250Y-88287500D02*
X170099250Y-88637500D01*
X89924500Y-91887500D02*
X91118750Y-91887500D01*
X97438595Y-88287500D02*
X169749250Y-88287500D01*
X91418250Y-92187000D02*
X94688700Y-92187000D01*
%TO.N,9*%
X97583569Y-88637500D02*
X143150000Y-88637500D01*
X89924500Y-92287500D02*
X91023776Y-92287500D01*
X95718750Y-91651924D02*
X95718750Y-90502319D01*
X94833674Y-92537000D02*
X95718750Y-91651924D01*
X91023776Y-92287500D02*
X91273276Y-92537000D01*
X95718750Y-90502319D02*
X97583569Y-88637500D01*
X91273276Y-92537000D02*
X94833674Y-92537000D01*
X143150000Y-88637500D02*
X147400000Y-92887500D01*
X147400000Y-92887500D02*
X150049250Y-92887500D01*
X150049250Y-92887500D02*
X151049250Y-91887500D01*
%TO.N,10*%
X96068750Y-91796898D02*
X96068750Y-90647293D01*
X89924500Y-92687500D02*
X90928801Y-92687500D01*
X97728543Y-88987500D02*
X131349250Y-88987500D01*
X90928801Y-92687500D02*
X91128301Y-92887000D01*
X91128301Y-92887000D02*
X94978648Y-92887000D01*
X131349250Y-88987500D02*
X131999250Y-89637500D01*
X143668750Y-132212500D02*
X134143750Y-132212500D01*
X94978648Y-92887000D02*
X96068750Y-91796898D01*
X96068750Y-90647293D02*
X97728543Y-88987500D01*
%TO.N,11*%
X95128855Y-93237000D02*
X95519355Y-92846500D01*
X97873517Y-89337500D02*
X112649250Y-89337500D01*
X89924500Y-93087500D02*
X90818750Y-93087500D01*
X95519355Y-92841267D02*
X96418750Y-91941872D01*
X112649250Y-89337500D02*
X112949250Y-89637500D01*
X95519355Y-92846500D02*
X95519355Y-92841267D01*
X90968250Y-93237000D02*
X95128855Y-93237000D01*
X96418750Y-90792267D02*
X97873517Y-89337500D01*
X90818750Y-93087500D02*
X90968250Y-93237000D01*
X96418750Y-91941872D02*
X96418750Y-90792267D01*
%TO.N,12*%
X89087000Y-93925000D02*
X89425000Y-93587000D01*
X89425000Y-93587000D02*
X93598750Y-93587000D01*
X93598750Y-93587000D02*
X93899250Y-93887500D01*
%TO.N,13*%
X88937736Y-94637500D02*
X89618750Y-94637500D01*
X88687000Y-93925000D02*
X88687000Y-94386764D01*
X88687000Y-94386764D02*
X88937736Y-94637500D01*
%TO.N,14*%
X74818750Y-98087500D02*
X61918750Y-98087500D01*
X75068750Y-98337500D02*
X74818750Y-98087500D01*
X88868750Y-95225494D02*
X88287000Y-94643744D01*
X61918750Y-98087500D02*
X61618750Y-98387500D01*
X88287000Y-94643744D02*
X88287000Y-93925000D01*
%TO.N,15*%
X87887000Y-95119250D02*
X87887000Y-93925000D01*
X55118750Y-103137500D02*
X55618750Y-102637500D01*
X78118750Y-102637500D02*
X79618750Y-101137500D01*
X87868750Y-95137500D02*
X87887000Y-95119250D01*
X55618750Y-102637500D02*
X78118750Y-102637500D01*
%TO.N,Net-(LD2-DOUT)*%
X70118750Y-86137500D02*
X70368750Y-86387500D01*
X70368750Y-86387500D02*
X75118750Y-86387500D01*
%TO.N,18*%
X69274300Y-94137500D02*
X69850000Y-93561800D01*
X81976575Y-93087500D02*
X83049500Y-93087500D01*
X49968750Y-92737500D02*
X50368750Y-92737500D01*
X61468750Y-94137500D02*
X69274300Y-94137500D01*
X50968750Y-92137500D02*
X59468750Y-92137500D01*
X75003673Y-92387500D02*
X77784875Y-92387500D01*
X50368750Y-92737500D02*
X50968750Y-92137500D01*
X46868750Y-92137500D02*
X35656250Y-92137500D01*
X47468750Y-92737500D02*
X46868750Y-92137500D01*
X35656250Y-92137500D02*
X31750000Y-96043750D01*
X73829373Y-93561800D02*
X75003673Y-92387500D01*
X77784875Y-92387500D02*
X78714375Y-93317000D01*
X69850000Y-93561800D02*
X73829373Y-93561800D01*
X59468750Y-92137500D02*
X61468750Y-94137500D01*
X48268750Y-92737500D02*
X47468750Y-92737500D01*
X78714375Y-93317000D02*
X81747075Y-93317000D01*
X81747075Y-93317000D02*
X81976575Y-93087500D01*
%TO.N,19*%
X50074622Y-91787500D02*
X59613725Y-91787500D01*
X59613725Y-91787500D02*
X61613724Y-93787500D01*
X48268750Y-91874193D02*
X47805443Y-91874193D01*
X69129326Y-93787500D02*
X69705026Y-93211800D01*
X61613724Y-93787500D02*
X69129326Y-93787500D01*
X78859350Y-92967000D02*
X81602100Y-92967000D01*
X81881599Y-92687500D02*
X83049500Y-92687500D01*
X33466250Y-91787500D02*
X31750000Y-93503750D01*
X49972181Y-91889941D02*
X50074622Y-91787500D01*
X73684399Y-93211800D02*
X74858698Y-92037500D01*
X69705026Y-93211800D02*
X73684399Y-93211800D01*
X47718750Y-91787500D02*
X33466250Y-91787500D01*
X81602100Y-92967000D02*
X81881599Y-92687500D01*
X47805443Y-91874193D02*
X47718750Y-91787500D01*
X77929851Y-92037500D02*
X78859350Y-92967000D01*
X74858698Y-92037500D02*
X77929851Y-92037500D01*
%TO.N,20*%
X68984352Y-93437500D02*
X69560052Y-92861800D01*
X59758699Y-91437500D02*
X61758698Y-93437500D01*
X46968750Y-91437500D02*
X36313802Y-91437500D01*
X81786624Y-92287500D02*
X83049500Y-92287500D01*
X50768750Y-91037500D02*
X51168750Y-91437500D01*
X49968750Y-91037500D02*
X50768750Y-91037500D01*
X51168750Y-91437500D02*
X59758699Y-91437500D01*
X73539425Y-92861800D02*
X74713724Y-91687500D01*
X69560052Y-92861800D02*
X73539425Y-92861800D01*
X36313802Y-91437500D02*
X35840052Y-90963750D01*
X79004325Y-92617000D02*
X81457125Y-92617000D01*
X47368750Y-91037500D02*
X46968750Y-91437500D01*
X81457125Y-92617000D02*
X81786624Y-92287500D01*
X78074826Y-91687500D02*
X79004325Y-92617000D01*
X35840052Y-90963750D02*
X31750000Y-90963750D01*
X48268750Y-91037500D02*
X47368750Y-91037500D01*
X74713724Y-91687500D02*
X78074826Y-91687500D01*
X61758698Y-93437500D02*
X68984352Y-93437500D01*
%TO.N,23*%
X79038598Y-90487500D02*
X81728800Y-90487500D01*
X81928800Y-90687500D02*
X83049500Y-90687500D01*
X73118750Y-91137500D02*
X73668750Y-90587500D01*
X81728800Y-90487500D02*
X81928800Y-90687500D01*
X327118750Y-135837500D02*
X64868750Y-135837500D01*
X73668750Y-90587500D02*
X78938598Y-90587500D01*
X78938598Y-90587500D02*
X79038598Y-90487500D01*
X64868750Y-135837500D02*
X41368750Y-135837500D01*
%TO.N,24*%
X65618750Y-116787500D02*
X327118750Y-116787500D01*
X82023775Y-90287500D02*
X83049500Y-90287500D01*
X78893624Y-90137500D02*
X81873775Y-90137500D01*
X78793624Y-90237500D02*
X78893624Y-90137500D01*
X81873775Y-90137500D02*
X82023775Y-90287500D01*
X72289126Y-90472688D02*
X72524314Y-90237500D01*
X72524314Y-90237500D02*
X78793624Y-90237500D01*
X41368750Y-116787500D02*
X65618750Y-116787500D01*
%TO.N,26{slash}A0*%
X82999500Y-89437500D02*
X83049500Y-89487500D01*
X80776789Y-78687500D02*
X79468750Y-78687500D01*
X78553675Y-89487500D02*
X78603675Y-89437500D01*
X93118750Y-78687500D02*
X98518750Y-78687500D01*
X55318750Y-78687500D02*
X60418750Y-78687500D01*
X61868750Y-78607890D02*
X61789140Y-78687500D01*
X78603675Y-89437500D02*
X82999500Y-89437500D01*
X327118750Y-78687500D02*
X98518750Y-78687500D01*
X74218750Y-89487500D02*
X78553675Y-89487500D01*
X72368750Y-78687500D02*
X79468750Y-78687500D01*
X73618750Y-88887500D02*
X74218750Y-89487500D01*
X54868750Y-79137500D02*
X55318750Y-78687500D01*
X61789140Y-78687500D02*
X60418750Y-78687500D01*
X42868750Y-78687500D02*
X41368750Y-78687500D01*
X80868750Y-78595539D02*
X80776789Y-78687500D01*
%TO.N,27{slash}A1*%
X74868750Y-89137500D02*
X73968750Y-88237500D01*
X41368750Y-88137500D02*
X38118750Y-84887500D01*
X71768750Y-88137500D02*
X70368750Y-86737500D01*
X78458700Y-89087500D02*
X78408700Y-89137500D01*
X78408700Y-89137500D02*
X74868750Y-89137500D01*
X73062380Y-88237500D02*
X72962380Y-88137500D01*
X51318250Y-86737500D02*
X49918250Y-88137500D01*
X73968750Y-88237500D02*
X73062380Y-88237500D01*
X48419250Y-88137500D02*
X41368750Y-88137500D01*
X72962380Y-88137500D02*
X71768750Y-88137500D01*
X70368750Y-86737500D02*
X51318250Y-86737500D01*
X83049500Y-89087500D02*
X78458700Y-89087500D01*
%TO.N,29{slash}A3*%
X82118750Y-88387500D02*
X82218750Y-88287500D01*
X78168750Y-88387500D02*
X82118750Y-88387500D01*
X78118750Y-88437500D02*
X78168750Y-88387500D01*
X68868750Y-79637500D02*
X68968750Y-79537500D01*
X75158698Y-88437500D02*
X78118750Y-88437500D01*
X73858698Y-87137500D02*
X75158698Y-88437500D01*
X73118750Y-87137500D02*
X73858698Y-87137500D01*
X68968750Y-79537500D02*
X68968750Y-76437500D01*
X82218750Y-88287500D02*
X83049500Y-88287500D01*
%TO.N,+3V3*%
X90368750Y-87887500D02*
X90753250Y-87503000D01*
X89924500Y-91487500D02*
X91637500Y-91487500D01*
X86287000Y-85719250D02*
X85887000Y-86119250D01*
X90753250Y-87503000D02*
X91717000Y-87503000D01*
X86287000Y-87469250D02*
X85868750Y-87887500D01*
X81843750Y-73702000D02*
X81843750Y-74313775D01*
D37*
X48168750Y-113837500D02*
X48168750Y-110537500D01*
D39*
X84168750Y-74386900D02*
X83418075Y-74386900D01*
X82677000Y-85445750D02*
X82868750Y-85637500D01*
X86287000Y-94481738D02*
X84987738Y-95781000D01*
D37*
X48668750Y-110537500D02*
X49198750Y-110537500D01*
D39*
X85887000Y-87869250D02*
X85868750Y-87887500D01*
X86287000Y-92969250D02*
X86368750Y-92887500D01*
X66968750Y-76437500D02*
X66968750Y-75237500D01*
X83418075Y-74386900D02*
X83167475Y-74637500D01*
X89018750Y-91487500D02*
X88868750Y-91637500D01*
X66968750Y-75237500D02*
X66868750Y-75137500D01*
X89924500Y-91487500D02*
X89018750Y-91487500D01*
D37*
X49198750Y-113837500D02*
X49198750Y-110537500D01*
D39*
X81843750Y-73702000D02*
X82926750Y-73702000D01*
X84287000Y-87050000D02*
X84287000Y-88219250D01*
D37*
X48668750Y-113837500D02*
X48168750Y-113837500D01*
X45768750Y-108437500D02*
X46368750Y-109037500D01*
D39*
X85887000Y-86119250D02*
X85887000Y-87050000D01*
D37*
X45768750Y-106222500D02*
X45768750Y-108437500D01*
D39*
X83049500Y-87887500D02*
X82118750Y-87887500D01*
X82118750Y-87887500D02*
X81734250Y-87503000D01*
D37*
X49198750Y-110537500D02*
X49198750Y-109567500D01*
D39*
X101118750Y-93387500D02*
X101118750Y-93729750D01*
X83887000Y-88155750D02*
X84118750Y-88387500D01*
X83518750Y-91487500D02*
X84268750Y-90737500D01*
X83618750Y-87887500D02*
X84118750Y-88387500D01*
X85887000Y-87050000D02*
X85887000Y-87869250D01*
X83887000Y-87050000D02*
X83887000Y-88155750D01*
D37*
X48168750Y-112737500D02*
X48668750Y-112737500D01*
D39*
X82677000Y-84940000D02*
X82677000Y-85445750D01*
X86287000Y-87050000D02*
X86287000Y-85719250D01*
X84287000Y-88219250D02*
X84118750Y-88387500D01*
D37*
X49198750Y-109567500D02*
X48668750Y-109037500D01*
X49198750Y-111637500D02*
X48668750Y-111637500D01*
D39*
X82926750Y-74396775D02*
X83167475Y-74637500D01*
X101118750Y-93729750D02*
X102108000Y-94719000D01*
X81734250Y-87503000D02*
X81257000Y-87503000D01*
X82868750Y-85637500D02*
X83368750Y-85637500D01*
X83887000Y-86155750D02*
X83887000Y-87050000D01*
D37*
X48168750Y-110537500D02*
X48168750Y-109537500D01*
D39*
X83049500Y-91487500D02*
X83518750Y-91487500D01*
X86287000Y-93925000D02*
X86287000Y-92969250D01*
X83049500Y-87887500D02*
X83618750Y-87887500D01*
X81209500Y-91487500D02*
X83049500Y-91487500D01*
D37*
X48168750Y-110537500D02*
X48668750Y-110537500D01*
D39*
X82926750Y-73702000D02*
X82926750Y-74396775D01*
X83368750Y-85637500D02*
X83887000Y-86155750D01*
X89924500Y-87887500D02*
X89118750Y-87887500D01*
X84268750Y-90737500D02*
X84268750Y-88537500D01*
X83693000Y-84940000D02*
X83693000Y-85461750D01*
X86287000Y-85719250D02*
X86287000Y-85519250D01*
X86287000Y-87050000D02*
X86287000Y-87469250D01*
D37*
X49198750Y-113837500D02*
X48668750Y-113837500D01*
D39*
X84268750Y-88537500D02*
X84118750Y-88387500D01*
X89118750Y-87887500D02*
X88868750Y-88137500D01*
D37*
X48168750Y-109537500D02*
X48668750Y-109037500D01*
D39*
X86287000Y-93925000D02*
X86287000Y-94481738D01*
X83693000Y-85461750D02*
X84287000Y-86055750D01*
X82167475Y-74637500D02*
X83167475Y-74637500D01*
D37*
X48668750Y-111637500D02*
X48168750Y-111637500D01*
D39*
X86368750Y-84937500D02*
X86368750Y-85437500D01*
X89924500Y-87887500D02*
X90368750Y-87887500D01*
D37*
X46368750Y-109037500D02*
X48668750Y-109037500D01*
X48668750Y-112737500D02*
X49198750Y-112737500D01*
D39*
X86287000Y-85519250D02*
X86368750Y-85437500D01*
X84287000Y-86055750D02*
X84287000Y-87050000D01*
X81843750Y-74313775D02*
X82167475Y-74637500D01*
%TO.N,DR+*%
X84303674Y-82087500D02*
X85474055Y-83257881D01*
X85679000Y-85440475D02*
X85679000Y-83492164D01*
X78717000Y-84836000D02*
X80363165Y-84836000D01*
X80363165Y-84836000D02*
X83111665Y-82087500D01*
X85679000Y-83492164D02*
X85473975Y-83287139D01*
X85487000Y-87050000D02*
X85487000Y-85632475D01*
X83111665Y-82087500D02*
X84303674Y-82087500D01*
X85487000Y-85632475D02*
X85679000Y-85440475D01*
%TO.N,25*%
X64968750Y-97387500D02*
X64968750Y-97637500D01*
X80868750Y-97637500D02*
X80768750Y-97737500D01*
X90968750Y-97737500D02*
X98518750Y-97737500D01*
X64868750Y-97737500D02*
X79468750Y-97737500D01*
X60418750Y-97737500D02*
X64868750Y-97737500D01*
X78648650Y-89887500D02*
X78748650Y-89787500D01*
X71368750Y-89887500D02*
X78648650Y-89887500D01*
X80768750Y-97737500D02*
X79468750Y-97737500D01*
X41368750Y-97737500D02*
X45931250Y-97737500D01*
X64968750Y-97637500D02*
X64868750Y-97737500D01*
X45931250Y-97737500D02*
X46037500Y-97631250D01*
X78748650Y-89787500D02*
X82018750Y-89787500D01*
X51968750Y-97737500D02*
X51868750Y-97637500D01*
X82018750Y-89787500D02*
X82118750Y-89887500D01*
X51968750Y-97737500D02*
X60418750Y-97737500D01*
X90868750Y-97637500D02*
X90968750Y-97737500D01*
X98518750Y-97737500D02*
X327118750Y-97737500D01*
X82118750Y-89887500D02*
X83049500Y-89887500D01*
%TO.N,28{slash}A2*%
X82618750Y-88687500D02*
X83049500Y-88687500D01*
X73207355Y-87887500D02*
X74113724Y-87887500D01*
X78263725Y-88787500D02*
X78313725Y-88737500D01*
X67968750Y-79537500D02*
X67968750Y-76437500D01*
X82568750Y-88737500D02*
X82618750Y-88687500D01*
X72118750Y-87137500D02*
X72768750Y-87787500D01*
X78313725Y-88737500D02*
X82568750Y-88737500D01*
X75013724Y-88787500D02*
X78263725Y-88787500D01*
X74113724Y-87887500D02*
X75013724Y-88787500D01*
X67868750Y-79637500D02*
X67968750Y-79537500D01*
X72768750Y-87787500D02*
X73107355Y-87787500D01*
X73107355Y-87787500D02*
X73207355Y-87887500D01*
%TO.N,17*%
X77628802Y-96037500D02*
X79419802Y-94246500D01*
X83259750Y-94246500D02*
X83581250Y-93925000D01*
X72718750Y-96037500D02*
X71618750Y-97137500D01*
X83887000Y-93925000D02*
X83581250Y-93925000D01*
X72718750Y-96037500D02*
X77628802Y-96037500D01*
X79419801Y-94246500D02*
X83259750Y-94246500D01*
X72668750Y-108637500D02*
X69087500Y-108637500D01*
X79419801Y-94246500D02*
X79419802Y-94246500D01*
X72768750Y-108537500D02*
X72668750Y-108637500D01*
%TO.N,16*%
X73368750Y-96387500D02*
X72618750Y-97137500D01*
X73768750Y-108637500D02*
X80137500Y-108637500D01*
X84036264Y-94637500D02*
X83368750Y-94637500D01*
X84287000Y-93925000D02*
X84287000Y-94386764D01*
X77773776Y-96387500D02*
X73368750Y-96387500D01*
X84287000Y-94386764D02*
X84036264Y-94637500D01*
X83327750Y-94596500D02*
X79564776Y-94596500D01*
X73668750Y-108537500D02*
X73768750Y-108637500D01*
X83368750Y-94637500D02*
X83327750Y-94596500D01*
X79564776Y-94596500D02*
X77773776Y-96387500D01*
%TO.N,21*%
X68839378Y-93087500D02*
X69415078Y-92511800D01*
X73394450Y-92511800D02*
X74568750Y-91337500D01*
X49975468Y-90137500D02*
X50418750Y-90137500D01*
X33795026Y-88423750D02*
X31750000Y-88423750D01*
X78219800Y-91337500D02*
X79149300Y-92267000D01*
X69415078Y-92511800D02*
X73394450Y-92511800D01*
X59903674Y-91087500D02*
X61903672Y-93087500D01*
X50418750Y-90137500D02*
X51368750Y-91087500D01*
X81691650Y-91887500D02*
X83049500Y-91887500D01*
X79149300Y-92267000D02*
X81312150Y-92267000D01*
X74568750Y-91337500D02*
X78219800Y-91337500D01*
X36458776Y-91087500D02*
X33795026Y-88423750D01*
X51368750Y-91087500D02*
X59903674Y-91087500D01*
X46823776Y-91087500D02*
X36458776Y-91087500D01*
X47773776Y-90137500D02*
X46823776Y-91087500D01*
X48268750Y-90137500D02*
X47773776Y-90137500D01*
X81312150Y-92267000D02*
X81691650Y-91887500D01*
X61903672Y-93087500D02*
X68839378Y-93087500D01*
%TO.N,22*%
X79183573Y-90837500D02*
X81568750Y-90837500D01*
X51668750Y-90737500D02*
X60048648Y-90737500D01*
X83049500Y-91087500D02*
X81818750Y-91087500D01*
X36603750Y-90737500D02*
X31750000Y-85883750D01*
X74473775Y-90937500D02*
X75468750Y-90937500D01*
X79183573Y-90837500D02*
X79083572Y-90937500D01*
X73249476Y-92161800D02*
X74473775Y-90937500D01*
X75468750Y-90937500D02*
X74668750Y-90937500D01*
X75468750Y-90937500D02*
X79083572Y-90937500D01*
X60048648Y-90737500D02*
X62048647Y-92737500D01*
X47768750Y-89337500D02*
X46368750Y-90737500D01*
X46368750Y-90737500D02*
X36603750Y-90737500D01*
X69270104Y-92161800D02*
X73249476Y-92161800D01*
X62048647Y-92737500D02*
X68694404Y-92737500D01*
X49968750Y-89337500D02*
X50268750Y-89337500D01*
X68694404Y-92737500D02*
X69270104Y-92161800D01*
X74668750Y-90937500D02*
X74618750Y-90937500D01*
X48268750Y-89337500D02*
X47768750Y-89337500D01*
X81818750Y-91087500D02*
X81568750Y-90837500D01*
X50268750Y-89337500D02*
X51668750Y-90737500D01*
%TO.N,Net-(LD3-DOUT)*%
X93286500Y-86151985D02*
X93854265Y-86151985D01*
X93854265Y-86151985D02*
X94618750Y-85387500D01*
%TO.N,Net-(LD4-DOUT)*%
X112368750Y-86137500D02*
X112618750Y-86137500D01*
X112618750Y-86137500D02*
X113618750Y-85137500D01*
%TO.N,Net-(LD5-DOUT)*%
X131453250Y-86303000D02*
X132618750Y-85137500D01*
X131284250Y-86303000D02*
X131453250Y-86303000D01*
%TO.N,Net-(LD6-DOUT)*%
X151868750Y-84887500D02*
X150618750Y-86137500D01*
X150618750Y-86137500D02*
X150368750Y-86137500D01*
%TO.N,Net-(LD7-DOUT)*%
X169618750Y-86137500D02*
X170868750Y-84887500D01*
X169118750Y-86137500D02*
X169618750Y-86137500D01*
%TO.N,Net-(LD8-DOUT)*%
X188868750Y-86137500D02*
X189868750Y-85137500D01*
X188368750Y-86137500D02*
X188868750Y-86137500D01*
%TO.N,Net-(LD10-DIN)*%
X207868750Y-86137500D02*
X208868750Y-85137500D01*
X207368750Y-86137500D02*
X207868750Y-86137500D01*
%TO.N,Net-(LD10-DOUT)*%
X226868750Y-86137500D02*
X227868750Y-85137500D01*
X226368750Y-86137500D02*
X226868750Y-86137500D01*
%TO.N,Net-(LD11-DOUT)*%
X245618750Y-86137500D02*
X246118750Y-86137500D01*
X246118750Y-86137500D02*
X247118750Y-85137500D01*
%TO.N,Net-(LD12-DOUT)*%
X265118750Y-86137500D02*
X266118750Y-85137500D01*
X264618750Y-86137500D02*
X265118750Y-86137500D01*
%TO.N,Net-(LD13-DOUT)*%
X283618750Y-86137500D02*
X284118750Y-86137500D01*
X284118750Y-86137500D02*
X285118750Y-85137500D01*
%TO.N,Net-(LD14-DOUT)*%
X304118750Y-85137500D02*
X303118750Y-86137500D01*
X303118750Y-86137500D02*
X302618750Y-86137500D01*
%TO.N,Net-(LD15-DOUT)*%
X321743750Y-86262500D02*
X321993750Y-86262500D01*
X321993750Y-86262500D02*
X323118750Y-85137500D01*
%TO.N,Net-(LD17-DOUT)*%
X36618750Y-124137500D02*
X36118750Y-124137500D01*
X36118750Y-105137500D02*
X36645862Y-105137500D01*
X37618750Y-123137500D02*
X36618750Y-124137500D01*
X36645862Y-105137500D02*
X37632306Y-104151056D01*
%TO.N,Net-(LD17-DIN)*%
X55618750Y-105137500D02*
X56618750Y-104137500D01*
X55118750Y-105137500D02*
X55618750Y-105137500D01*
%TO.N,Net-(LD18-DIN)*%
X75118750Y-105387500D02*
X72868750Y-105387500D01*
X66868750Y-105387500D02*
X64868750Y-105387500D01*
%TO.N,Net-(LD19-DIN)*%
X93618750Y-105137500D02*
X94618750Y-104137500D01*
X93118750Y-105137500D02*
X93618750Y-105137500D01*
%TO.N,Net-(LD20-DIN)*%
X112868750Y-105137500D02*
X112118750Y-105137500D01*
X113868750Y-104137500D02*
X112868750Y-105137500D01*
%TO.N,Net-(LD21-DIN)*%
X131868750Y-105137500D02*
X132868750Y-104137500D01*
X131368750Y-105137500D02*
X131868750Y-105137500D01*
%TO.N,Net-(LD22-DIN)*%
X150868750Y-105137500D02*
X151868750Y-104137500D01*
X150368750Y-105137500D02*
X150868750Y-105137500D01*
%TO.N,Net-(LD23-DIN)*%
X169868750Y-105137500D02*
X170868750Y-104137500D01*
X169368750Y-105137500D02*
X169868750Y-105137500D01*
%TO.N,Net-(LD24-DIN)*%
X188368750Y-105137500D02*
X188868750Y-105137500D01*
X188868750Y-105137500D02*
X189868750Y-104137500D01*
%TO.N,Net-(LD25-DIN)*%
X207618750Y-105387500D02*
X207368750Y-105387500D01*
X208868750Y-104137500D02*
X207618750Y-105387500D01*
%TO.N,Net-(LD26-DIN)*%
X226368750Y-105137500D02*
X227118750Y-105137500D01*
X227118750Y-105137500D02*
X228118750Y-104137500D01*
%TO.N,Net-(LD27-DIN)*%
X246168750Y-105137500D02*
X245368750Y-105137500D01*
X247118750Y-104187500D02*
X246168750Y-105137500D01*
%TO.N,Net-(LD28-DIN)*%
X264618750Y-105137500D02*
X265118750Y-105137500D01*
X265118750Y-105137500D02*
X266118750Y-104137500D01*
%TO.N,Net-(LD29-DIN)*%
X284118750Y-105137500D02*
X285118750Y-104137500D01*
X283618750Y-105137500D02*
X284118750Y-105137500D01*
%TO.N,Net-(LD30-DIN)*%
X303118750Y-105137500D02*
X304118750Y-104137500D01*
X302618750Y-105137500D02*
X303118750Y-105137500D01*
%TO.N,Net-(LD31-DIN)*%
X321868750Y-105137500D02*
X322118750Y-105137500D01*
X322118750Y-105137500D02*
X323118750Y-104137500D01*
%TO.N,Net-(RX1-Pad2)*%
X85875000Y-96266000D02*
X85568000Y-96573000D01*
X85568000Y-96573000D02*
X85568000Y-98479000D01*
%TO.N,Net-(LD33-DOUT)*%
X55618750Y-124137500D02*
X56618750Y-123137500D01*
X54868750Y-124137500D02*
X55618750Y-124137500D01*
%TO.N,Net-(LD34-DOUT)*%
X73618750Y-124137500D02*
X75118750Y-124137500D01*
X64368750Y-125137500D02*
X65868750Y-125137500D01*
%TO.N,Net-(LD35-DOUT)*%
X94618750Y-123387500D02*
X93868750Y-124137500D01*
X93868750Y-124137500D02*
X93118750Y-124137500D01*
%TO.N,Net-(LD36-DOUT)*%
X112868750Y-124137500D02*
X113618750Y-123387500D01*
X112118750Y-124137500D02*
X112868750Y-124137500D01*
%TO.N,Net-(LD37-DOUT)*%
X131368750Y-124137500D02*
X131868750Y-124137500D01*
X131868750Y-124137500D02*
X132618750Y-123387500D01*
%TO.N,Net-(LD38-DOUT)*%
X150368750Y-124137500D02*
X151118750Y-124137500D01*
X151118750Y-124137500D02*
X151868750Y-123387500D01*
%TO.N,Net-(LD39-DOUT)*%
X169368750Y-124137500D02*
X170118750Y-124137500D01*
X170118750Y-124137500D02*
X170868750Y-123387500D01*
%TO.N,Net-(LD40-DOUT)*%
X188368750Y-124137500D02*
X189118750Y-124137500D01*
X189118750Y-124137500D02*
X189868750Y-123387500D01*
%TO.N,Net-(LD41-DOUT)*%
X207368750Y-124137500D02*
X208118750Y-124137500D01*
X208118750Y-124137500D02*
X208868750Y-123387500D01*
%TO.N,Net-(LD42-DOUT)*%
X227368750Y-124137500D02*
X228118750Y-123387500D01*
X226618750Y-124137500D02*
X227368750Y-124137500D01*
%TO.N,Net-(LD43-DOUT)*%
X246368750Y-124137500D02*
X247118750Y-123387500D01*
X245618750Y-124137500D02*
X246368750Y-124137500D01*
%TO.N,Net-(LD44-DOUT)*%
X264618750Y-124137500D02*
X265368750Y-124137500D01*
X265368750Y-124137500D02*
X266118750Y-123387500D01*
%TO.N,Net-(LD45-DOUT)*%
X283618750Y-124137500D02*
X284368750Y-124137500D01*
X284368750Y-124137500D02*
X285118750Y-123387500D01*
%TO.N,Net-(LD46-DOUT)*%
X303368750Y-124137500D02*
X304118750Y-123387500D01*
X302618750Y-124137500D02*
X303368750Y-124137500D01*
%TO.N,Net-(LD47-DOUT)*%
X321868750Y-124137500D02*
X322618750Y-124137500D01*
X322618750Y-124137500D02*
X323368750Y-123387500D01*
D38*
%TO.N,Net-(U1-BS)*%
X47531250Y-103287500D02*
X47531250Y-104085000D01*
X47531250Y-104085000D02*
X48083750Y-104637500D01*
%TO.N,Net-(U1-SW)*%
X49806250Y-103885000D02*
X49053750Y-104637500D01*
X49806250Y-103287500D02*
X49806250Y-103885000D01*
X49053750Y-104637500D02*
X49053750Y-105652500D01*
%TO.N,Net-(U1-FB)*%
X44968750Y-102037500D02*
X44968750Y-104437500D01*
X45768750Y-105252500D02*
X45768750Y-104737500D01*
X45618750Y-101387500D02*
X44968750Y-102037500D01*
X44968750Y-104437500D02*
X45268750Y-104737500D01*
X45268750Y-104737500D02*
X45768750Y-104737500D01*
X45768750Y-104737500D02*
X45768750Y-104222500D01*
X47531250Y-101387500D02*
X45618750Y-101387500D01*
%TD*%
M02*
