%TF.GenerationSoftware,KiCad,Pcbnew,7.0.2*%
%TF.CreationDate,2023-07-13T09:31:41-04:00*%
%TF.ProjectId,QuicksilverStorm,51756963-6b73-4696-9c76-657253746f72,Mark 2 Rev F*%
%TF.SameCoordinates,Original*%
%TF.FileFunction,Paste,Top*%
%TF.FilePolarity,Positive*%
%FSLAX46Y46*%
G04 Gerber Fmt 4.6, Leading zero omitted, Abs format (unit mm)*
G04 Created by KiCad (PCBNEW 7.0.2) date 2023-07-13 09:31:41*
%MOMM*%
%LPD*%
G01*
G04 APERTURE LIST*
G04 Aperture macros list*
%AMRoundRect*
0 Rectangle with rounded corners*
0 $1 Rounding radius*
0 $2 $3 $4 $5 $6 $7 $8 $9 X,Y pos of 4 corners*
0 Add a 4 corners polygon primitive as box body*
4,1,4,$2,$3,$4,$5,$6,$7,$8,$9,$2,$3,0*
0 Add four circle primitives for the rounded corners*
1,1,$1+$1,$2,$3*
1,1,$1+$1,$4,$5*
1,1,$1+$1,$6,$7*
1,1,$1+$1,$8,$9*
0 Add four rect primitives between the rounded corners*
20,1,$1+$1,$2,$3,$4,$5,0*
20,1,$1+$1,$4,$5,$6,$7,0*
20,1,$1+$1,$6,$7,$8,$9,0*
20,1,$1+$1,$8,$9,$2,$3,0*%
G04 Aperture macros list end*
%ADD10RoundRect,0.147500X0.147500X0.172500X-0.147500X0.172500X-0.147500X-0.172500X0.147500X-0.172500X0*%
%ADD11R,0.700000X0.700000*%
G04 APERTURE END LIST*
D10*
%TO.C,LC1*%
X39442475Y-88329000D03*
X38472475Y-88329000D03*
%TD*%
%TO.C,LC3*%
X77448250Y-88329000D03*
X76478250Y-88329000D03*
%TD*%
%TO.C,LC10*%
X210798250Y-88329000D03*
X209828250Y-88329000D03*
%TD*%
%TO.C,LC12*%
X248898250Y-88329000D03*
X247928250Y-88329000D03*
%TD*%
%TO.C,LC6*%
X134598250Y-88329000D03*
X133628250Y-88329000D03*
%TD*%
%TO.C,LC8*%
X172698250Y-88329000D03*
X171728250Y-88329000D03*
%TD*%
%TO.C,LC9*%
X191748250Y-88329000D03*
X190778250Y-88329000D03*
%TD*%
%TO.C,LC7*%
X153648250Y-88329000D03*
X152678250Y-88329000D03*
%TD*%
%TO.C,LC5*%
X115548250Y-88329000D03*
X114578250Y-88329000D03*
%TD*%
%TO.C,LC11*%
X229848250Y-88329000D03*
X228878250Y-88329000D03*
%TD*%
%TO.C,LC13*%
X267948250Y-88329000D03*
X266978250Y-88329000D03*
%TD*%
%TO.C,LC4*%
X96498250Y-88329000D03*
X95528250Y-88329000D03*
%TD*%
%TO.C,LC14*%
X286998250Y-88329000D03*
X286028250Y-88329000D03*
%TD*%
%TO.C,LC15*%
X306048250Y-88329000D03*
X305078250Y-88329000D03*
%TD*%
%TO.C,LC16*%
X325098250Y-88329000D03*
X324128250Y-88329000D03*
%TD*%
%TO.C,LC17*%
X39348250Y-107379000D03*
X38378250Y-107379000D03*
%TD*%
%TO.C,LC18*%
X58398250Y-107379000D03*
X57428250Y-107379000D03*
%TD*%
%TO.C,LC19*%
X77448250Y-107379000D03*
X76478250Y-107379000D03*
%TD*%
%TO.C,LC20*%
X96498250Y-107379000D03*
X95528250Y-107379000D03*
%TD*%
%TO.C,LC21*%
X115535975Y-107379000D03*
X114565975Y-107379000D03*
%TD*%
%TO.C,LC22*%
X134598250Y-107379000D03*
X133628250Y-107379000D03*
%TD*%
%TO.C,LC23*%
X153648250Y-107379000D03*
X152678250Y-107379000D03*
%TD*%
%TO.C,LC24*%
X172698250Y-107379000D03*
X171728250Y-107379000D03*
%TD*%
%TO.C,LC25*%
X191679500Y-107379000D03*
X190709500Y-107379000D03*
%TD*%
%TO.C,LC26*%
X210798250Y-107379000D03*
X209828250Y-107379000D03*
%TD*%
%TO.C,LC27*%
X229848250Y-107379000D03*
X228878250Y-107379000D03*
%TD*%
%TO.C,LC28*%
X248898250Y-107379000D03*
X247928250Y-107379000D03*
%TD*%
%TO.C,LC29*%
X267948250Y-107379000D03*
X266978250Y-107379000D03*
%TD*%
%TO.C,LC30*%
X286854500Y-107379000D03*
X285884500Y-107379000D03*
%TD*%
%TO.C,LC31*%
X306048250Y-107379000D03*
X305078250Y-107379000D03*
%TD*%
%TO.C,LC32*%
X325098250Y-107379000D03*
X324128250Y-107379000D03*
%TD*%
D11*
%TO.C,LD16*%
X325368750Y-87037500D03*
X325368750Y-85937500D03*
X323868750Y-85937500D03*
X323868750Y-87037500D03*
%TD*%
%TO.C,LD17*%
X38118750Y-104987500D03*
X38118750Y-106087500D03*
X39618750Y-106087500D03*
X39618750Y-104987500D03*
%TD*%
%TO.C,LD18*%
X57168750Y-104987500D03*
X57168750Y-106087500D03*
X58668750Y-106087500D03*
X58668750Y-104987500D03*
%TD*%
%TO.C,LD19*%
X76218750Y-104987500D03*
X76218750Y-106087500D03*
X77718750Y-106087500D03*
X77718750Y-104987500D03*
%TD*%
%TO.C,LD20*%
X95268750Y-104987500D03*
X95268750Y-106087500D03*
X96768750Y-106087500D03*
X96768750Y-104987500D03*
%TD*%
%TO.C,LD21*%
X114318750Y-104987500D03*
X114318750Y-106087500D03*
X115818750Y-106087500D03*
X115818750Y-104987500D03*
%TD*%
%TO.C,LD22*%
X133368750Y-104987500D03*
X133368750Y-106087500D03*
X134868750Y-106087500D03*
X134868750Y-104987500D03*
%TD*%
%TO.C,LD23*%
X152418750Y-104987500D03*
X152418750Y-106087500D03*
X153918750Y-106087500D03*
X153918750Y-104987500D03*
%TD*%
%TO.C,LD24*%
X171468750Y-104987500D03*
X171468750Y-106087500D03*
X172968750Y-106087500D03*
X172968750Y-104987500D03*
%TD*%
%TO.C,LD25*%
X190518750Y-104987500D03*
X190518750Y-106087500D03*
X192018750Y-106087500D03*
X192018750Y-104987500D03*
%TD*%
%TO.C,LD26*%
X209568750Y-104987500D03*
X209568750Y-106087500D03*
X211068750Y-106087500D03*
X211068750Y-104987500D03*
%TD*%
%TO.C,LD27*%
X228618750Y-104987500D03*
X228618750Y-106087500D03*
X230118750Y-106087500D03*
X230118750Y-104987500D03*
%TD*%
%TO.C,LD28*%
X247668750Y-104987500D03*
X247668750Y-106087500D03*
X249168750Y-106087500D03*
X249168750Y-104987500D03*
%TD*%
%TO.C,LD29*%
X266718750Y-104987500D03*
X266718750Y-106087500D03*
X268218750Y-106087500D03*
X268218750Y-104987500D03*
%TD*%
%TO.C,LD30*%
X285768750Y-104987500D03*
X285768750Y-106087500D03*
X287268750Y-106087500D03*
X287268750Y-104987500D03*
%TD*%
%TO.C,LD32*%
X323868750Y-104987500D03*
X323868750Y-106087500D03*
X325368750Y-106087500D03*
X325368750Y-104987500D03*
%TD*%
%TO.C,LD31*%
X304818750Y-104987500D03*
X304818750Y-106087500D03*
X306318750Y-106087500D03*
X306318750Y-104987500D03*
%TD*%
%TO.C,LD15*%
X306318750Y-87037500D03*
X306318750Y-85937500D03*
X304818750Y-85937500D03*
X304818750Y-87037500D03*
%TD*%
%TO.C,LD14*%
X287268750Y-87037500D03*
X287268750Y-85937500D03*
X285768750Y-85937500D03*
X285768750Y-87037500D03*
%TD*%
%TO.C,LD12*%
X249168750Y-87037500D03*
X249168750Y-85937500D03*
X247668750Y-85937500D03*
X247668750Y-87037500D03*
%TD*%
%TO.C,LD10*%
X211068750Y-87037500D03*
X211068750Y-85937500D03*
X209568750Y-85937500D03*
X209568750Y-87037500D03*
%TD*%
%TO.C,LD13*%
X268218750Y-87037500D03*
X268218750Y-85937500D03*
X266718750Y-85937500D03*
X266718750Y-87037500D03*
%TD*%
%TO.C,LD5*%
X115818750Y-87037500D03*
X115818750Y-85937500D03*
X114318750Y-85937500D03*
X114318750Y-87037500D03*
%TD*%
%TO.C,LD11*%
X230118750Y-87037500D03*
X230118750Y-85937500D03*
X228618750Y-85937500D03*
X228618750Y-87037500D03*
%TD*%
%TO.C,LD6*%
X134868750Y-87037500D03*
X134868750Y-85937500D03*
X133368750Y-85937500D03*
X133368750Y-87037500D03*
%TD*%
%TO.C,LD7*%
X153918750Y-87037500D03*
X153918750Y-85937500D03*
X152418750Y-85937500D03*
X152418750Y-87037500D03*
%TD*%
%TO.C,LD8*%
X172968750Y-87037500D03*
X172968750Y-85937500D03*
X171468750Y-85937500D03*
X171468750Y-87037500D03*
%TD*%
%TO.C,LD9*%
X192018750Y-87037500D03*
X192018750Y-85937500D03*
X190518750Y-85937500D03*
X190518750Y-87037500D03*
%TD*%
%TO.C,LD2*%
X58668750Y-87037500D03*
X58668750Y-85937500D03*
X57168750Y-85937500D03*
X57168750Y-87037500D03*
%TD*%
%TO.C,LD1*%
X39618750Y-87037500D03*
X39618750Y-85937500D03*
X38118750Y-85937500D03*
X38118750Y-87037500D03*
%TD*%
%TO.C,LD3*%
X77718750Y-87037500D03*
X77718750Y-85937500D03*
X76218750Y-85937500D03*
X76218750Y-87037500D03*
%TD*%
%TO.C,LD4*%
X96768750Y-87037500D03*
X96768750Y-85937500D03*
X95268750Y-85937500D03*
X95268750Y-87037500D03*
%TD*%
D10*
%TO.C,LC2*%
X58398250Y-88329000D03*
X57428250Y-88329000D03*
%TD*%
D11*
%TO.C,LD56*%
X171468750Y-142887500D03*
X171468750Y-143987500D03*
X172968750Y-143987500D03*
X172968750Y-142887500D03*
%TD*%
%TO.C,LD54*%
X133368750Y-142887500D03*
X133368750Y-143987500D03*
X134868750Y-143987500D03*
X134868750Y-142887500D03*
%TD*%
D10*
%TO.C,LC36*%
X96503750Y-126387500D03*
X95533750Y-126387500D03*
%TD*%
D11*
%TO.C,LD43*%
X230118750Y-125137500D03*
X230118750Y-124037500D03*
X228618750Y-124037500D03*
X228618750Y-125137500D03*
%TD*%
%TO.C,LD47*%
X306318750Y-125137500D03*
X306318750Y-124037500D03*
X304818750Y-124037500D03*
X304818750Y-125137500D03*
%TD*%
%TO.C,LD46*%
X287268750Y-125137500D03*
X287268750Y-124037500D03*
X285768750Y-124037500D03*
X285768750Y-125137500D03*
%TD*%
%TO.C,LD60*%
X247668750Y-142887500D03*
X247668750Y-143987500D03*
X249168750Y-143987500D03*
X249168750Y-142887500D03*
%TD*%
%TO.C,LD61*%
X266718750Y-142887500D03*
X266718750Y-143987500D03*
X268218750Y-143987500D03*
X268218750Y-142887500D03*
%TD*%
%TO.C,LD36*%
X96768750Y-125137500D03*
X96768750Y-124037500D03*
X95268750Y-124037500D03*
X95268750Y-125137500D03*
%TD*%
%TO.C,LD57*%
X190518750Y-142887500D03*
X190518750Y-143987500D03*
X192018750Y-143987500D03*
X192018750Y-142887500D03*
%TD*%
D10*
%TO.C,LC61*%
X267953750Y-145437500D03*
X266983750Y-145437500D03*
%TD*%
%TO.C,LC64*%
X325103750Y-145437500D03*
X324133750Y-145437500D03*
%TD*%
%TO.C,LC39*%
X153653750Y-126387500D03*
X152683750Y-126387500D03*
%TD*%
D11*
%TO.C,LD55*%
X152418750Y-142887500D03*
X152418750Y-143987500D03*
X153918750Y-143987500D03*
X153918750Y-142887500D03*
%TD*%
%TO.C,LD64*%
X323868750Y-142887500D03*
X323868750Y-143987500D03*
X325368750Y-143987500D03*
X325368750Y-142887500D03*
%TD*%
D10*
%TO.C,LC52*%
X96503750Y-145437500D03*
X95533750Y-145437500D03*
%TD*%
D11*
%TO.C,LD53*%
X114318750Y-142887500D03*
X114318750Y-143987500D03*
X115818750Y-143987500D03*
X115818750Y-142887500D03*
%TD*%
D10*
%TO.C,LC45*%
X267953750Y-126387500D03*
X266983750Y-126387500D03*
%TD*%
D11*
%TO.C,LD38*%
X134868750Y-125137500D03*
X134868750Y-124037500D03*
X133368750Y-124037500D03*
X133368750Y-125137500D03*
%TD*%
%TO.C,LD42*%
X211068750Y-125137500D03*
X211068750Y-124037500D03*
X209568750Y-124037500D03*
X209568750Y-125137500D03*
%TD*%
D10*
%TO.C,LC35*%
X77453750Y-126387500D03*
X76483750Y-126387500D03*
%TD*%
%TO.C,LC48*%
X325103750Y-126387500D03*
X324133750Y-126387500D03*
%TD*%
%TO.C,LC34*%
X58428750Y-126400000D03*
X57458750Y-126400000D03*
%TD*%
D11*
%TO.C,LD58*%
X209568750Y-142887500D03*
X209568750Y-143987500D03*
X211068750Y-143987500D03*
X211068750Y-142887500D03*
%TD*%
%TO.C,LD59*%
X228618750Y-142887500D03*
X228618750Y-143987500D03*
X230118750Y-143987500D03*
X230118750Y-142887500D03*
%TD*%
D10*
%TO.C,LC42*%
X210803750Y-126387500D03*
X209833750Y-126387500D03*
%TD*%
%TO.C,LC59*%
X229853750Y-145437500D03*
X228883750Y-145437500D03*
%TD*%
%TO.C,LC57*%
X191753750Y-145437500D03*
X190783750Y-145437500D03*
%TD*%
%TO.C,LC49*%
X39353750Y-145437500D03*
X38383750Y-145437500D03*
%TD*%
D11*
%TO.C,LD40*%
X172968750Y-125137500D03*
X172968750Y-124037500D03*
X171468750Y-124037500D03*
X171468750Y-125137500D03*
%TD*%
D10*
%TO.C,LC43*%
X229853750Y-126387500D03*
X228883750Y-126387500D03*
%TD*%
D11*
%TO.C,LD44*%
X249168750Y-125137500D03*
X249168750Y-124037500D03*
X247668750Y-124037500D03*
X247668750Y-125137500D03*
%TD*%
%TO.C,LD34*%
X58668750Y-125137500D03*
X58668750Y-124037500D03*
X57168750Y-124037500D03*
X57168750Y-125137500D03*
%TD*%
D10*
%TO.C,LC41*%
X191753750Y-126387500D03*
X190783750Y-126387500D03*
%TD*%
D11*
%TO.C,LD62*%
X285768750Y-142887500D03*
X285768750Y-143987500D03*
X287268750Y-143987500D03*
X287268750Y-142887500D03*
%TD*%
%TO.C,LD49*%
X38118750Y-142887500D03*
X38118750Y-143987500D03*
X39618750Y-143987500D03*
X39618750Y-142887500D03*
%TD*%
%TO.C,LD35*%
X77718750Y-125137500D03*
X77718750Y-124037500D03*
X76218750Y-124037500D03*
X76218750Y-125137500D03*
%TD*%
D10*
%TO.C,LC55*%
X153653750Y-145437500D03*
X152683750Y-145437500D03*
%TD*%
D11*
%TO.C,LD37*%
X115818750Y-125137500D03*
X115818750Y-124037500D03*
X114318750Y-124037500D03*
X114318750Y-125137500D03*
%TD*%
%TO.C,LD51*%
X76218750Y-142887500D03*
X76218750Y-143987500D03*
X77718750Y-143987500D03*
X77718750Y-142887500D03*
%TD*%
D10*
%TO.C,LC62*%
X287003750Y-145437500D03*
X286033750Y-145437500D03*
%TD*%
%TO.C,LC58*%
X210868750Y-145437500D03*
X209898750Y-145437500D03*
%TD*%
%TO.C,LC53*%
X115553750Y-145437500D03*
X114583750Y-145437500D03*
%TD*%
D11*
%TO.C,LD45*%
X268218750Y-125137500D03*
X268218750Y-124037500D03*
X266718750Y-124037500D03*
X266718750Y-125137500D03*
%TD*%
%TO.C,LD50*%
X57168750Y-142887500D03*
X57168750Y-143987500D03*
X58668750Y-143987500D03*
X58668750Y-142887500D03*
%TD*%
D10*
%TO.C,LC33*%
X39428750Y-126400000D03*
X38458750Y-126400000D03*
%TD*%
%TO.C,LC54*%
X134603750Y-145437500D03*
X133633750Y-145437500D03*
%TD*%
%TO.C,LC44*%
X248903750Y-126387500D03*
X247933750Y-126387500D03*
%TD*%
D11*
%TO.C,LD48*%
X325368750Y-125137500D03*
X325368750Y-124037500D03*
X323868750Y-124037500D03*
X323868750Y-125137500D03*
%TD*%
%TO.C,LD39*%
X153918750Y-125137500D03*
X153918750Y-124037500D03*
X152418750Y-124037500D03*
X152418750Y-125137500D03*
%TD*%
%TO.C,LD33*%
X39618750Y-125137500D03*
X39618750Y-124037500D03*
X38118750Y-124037500D03*
X38118750Y-125137500D03*
%TD*%
D10*
%TO.C,LC50*%
X58403750Y-145437500D03*
X57433750Y-145437500D03*
%TD*%
%TO.C,LC51*%
X77453750Y-145437500D03*
X76483750Y-145437500D03*
%TD*%
%TO.C,LC46*%
X287003750Y-126387500D03*
X286033750Y-126387500D03*
%TD*%
D11*
%TO.C,LD41*%
X192018750Y-125137500D03*
X192018750Y-124037500D03*
X190518750Y-124037500D03*
X190518750Y-125137500D03*
%TD*%
D10*
%TO.C,LC63*%
X306053750Y-145437500D03*
X305083750Y-145437500D03*
%TD*%
%TO.C,LC56*%
X172703750Y-145437500D03*
X171733750Y-145437500D03*
%TD*%
%TO.C,LC37*%
X115603750Y-126387500D03*
X114633750Y-126387500D03*
%TD*%
%TO.C,LC60*%
X248903750Y-145437500D03*
X247933750Y-145437500D03*
%TD*%
D11*
%TO.C,LD63*%
X304818750Y-142887500D03*
X304818750Y-143987500D03*
X306318750Y-143987500D03*
X306318750Y-142887500D03*
%TD*%
D10*
%TO.C,LC40*%
X172703750Y-126387500D03*
X171733750Y-126387500D03*
%TD*%
%TO.C,LC47*%
X306053750Y-126387500D03*
X305083750Y-126387500D03*
%TD*%
%TO.C,LC38*%
X134603750Y-126387500D03*
X133633750Y-126387500D03*
%TD*%
D11*
%TO.C,LD52*%
X95268750Y-142887500D03*
X95268750Y-143987500D03*
X96768750Y-143987500D03*
X96768750Y-142887500D03*
%TD*%
M02*
