%TF.GenerationSoftware,KiCad,Pcbnew,7.0.2*%
%TF.CreationDate,2023-09-13T20:03:04-04:00*%
%TF.ProjectId,QuicksilverStorm,51756963-6b73-4696-9c76-657253746f72,Mark 2 Rev F*%
%TF.SameCoordinates,Original*%
%TF.FileFunction,Legend,Top*%
%TF.FilePolarity,Positive*%
%FSLAX46Y46*%
G04 Gerber Fmt 4.6, Leading zero omitted, Abs format (unit mm)*
G04 Created by KiCad (PCBNEW 7.0.2) date 2023-09-13 20:03:04*
%MOMM*%
%LPD*%
G01*
G04 APERTURE LIST*
G04 Aperture macros list*
%AMRoundRect*
0 Rectangle with rounded corners*
0 $1 Rounding radius*
0 $2 $3 $4 $5 $6 $7 $8 $9 X,Y pos of 4 corners*
0 Add a 4 corners polygon primitive as box body*
4,1,4,$2,$3,$4,$5,$6,$7,$8,$9,$2,$3,0*
0 Add four circle primitives for the rounded corners*
1,1,$1+$1,$2,$3*
1,1,$1+$1,$4,$5*
1,1,$1+$1,$6,$7*
1,1,$1+$1,$8,$9*
0 Add four rect primitives between the rounded corners*
20,1,$1+$1,$2,$3,$4,$5,0*
20,1,$1+$1,$4,$5,$6,$7,0*
20,1,$1+$1,$6,$7,$8,$9,0*
20,1,$1+$1,$8,$9,$2,$3,0*%
G04 Aperture macros list end*
%ADD10C,0.150000*%
%ADD11C,0.075000*%
%ADD12O,2.122000X1.701800*%
%ADD13C,3.987800*%
%ADD14C,2.286000*%
%ADD15C,2.032000*%
%ADD16C,3.200000*%
%ADD17RoundRect,0.147500X0.147500X0.172500X-0.147500X0.172500X-0.147500X-0.172500X0.147500X-0.172500X0*%
%ADD18R,0.700000X0.700000*%
%ADD19C,0.650000*%
%ADD20O,1.000000X1.600000*%
%ADD21O,1.000000X2.100000*%
%ADD22R,1.700000X1.700000*%
%ADD23O,1.700000X1.700000*%
G04 APERTURE END LIST*
D10*
X177149701Y-109000119D02*
X177149701Y-109714404D01*
X177149701Y-109714404D02*
X177102082Y-109857261D01*
X177102082Y-109857261D02*
X177006844Y-109952500D01*
X177006844Y-109952500D02*
X176863987Y-110000119D01*
X176863987Y-110000119D02*
X176768749Y-110000119D01*
X178102082Y-110000119D02*
X177625892Y-110000119D01*
X177625892Y-110000119D02*
X177625892Y-109000119D01*
X179006844Y-109904880D02*
X178959225Y-109952500D01*
X178959225Y-109952500D02*
X178816368Y-110000119D01*
X178816368Y-110000119D02*
X178721130Y-110000119D01*
X178721130Y-110000119D02*
X178578273Y-109952500D01*
X178578273Y-109952500D02*
X178483035Y-109857261D01*
X178483035Y-109857261D02*
X178435416Y-109762023D01*
X178435416Y-109762023D02*
X178387797Y-109571547D01*
X178387797Y-109571547D02*
X178387797Y-109428690D01*
X178387797Y-109428690D02*
X178435416Y-109238214D01*
X178435416Y-109238214D02*
X178483035Y-109142976D01*
X178483035Y-109142976D02*
X178578273Y-109047738D01*
X178578273Y-109047738D02*
X178721130Y-109000119D01*
X178721130Y-109000119D02*
X178816368Y-109000119D01*
X178816368Y-109000119D02*
X178959225Y-109047738D01*
X178959225Y-109047738D02*
X179006844Y-109095357D01*
X179721130Y-109000119D02*
X179721130Y-109714404D01*
X179721130Y-109714404D02*
X179673511Y-109857261D01*
X179673511Y-109857261D02*
X179578273Y-109952500D01*
X179578273Y-109952500D02*
X179435416Y-110000119D01*
X179435416Y-110000119D02*
X179340178Y-110000119D01*
X180673511Y-110000119D02*
X180197321Y-110000119D01*
X180197321Y-110000119D02*
X180197321Y-109000119D01*
X181578273Y-109904880D02*
X181530654Y-109952500D01*
X181530654Y-109952500D02*
X181387797Y-110000119D01*
X181387797Y-110000119D02*
X181292559Y-110000119D01*
X181292559Y-110000119D02*
X181149702Y-109952500D01*
X181149702Y-109952500D02*
X181054464Y-109857261D01*
X181054464Y-109857261D02*
X181006845Y-109762023D01*
X181006845Y-109762023D02*
X180959226Y-109571547D01*
X180959226Y-109571547D02*
X180959226Y-109428690D01*
X180959226Y-109428690D02*
X181006845Y-109238214D01*
X181006845Y-109238214D02*
X181054464Y-109142976D01*
X181054464Y-109142976D02*
X181149702Y-109047738D01*
X181149702Y-109047738D02*
X181292559Y-109000119D01*
X181292559Y-109000119D02*
X181387797Y-109000119D01*
X181387797Y-109000119D02*
X181530654Y-109047738D01*
X181530654Y-109047738D02*
X181578273Y-109095357D01*
X182292559Y-109000119D02*
X182292559Y-109714404D01*
X182292559Y-109714404D02*
X182244940Y-109857261D01*
X182244940Y-109857261D02*
X182149702Y-109952500D01*
X182149702Y-109952500D02*
X182006845Y-110000119D01*
X182006845Y-110000119D02*
X181911607Y-110000119D01*
X183244940Y-110000119D02*
X182768750Y-110000119D01*
X182768750Y-110000119D02*
X182768750Y-109000119D01*
X184149702Y-109904880D02*
X184102083Y-109952500D01*
X184102083Y-109952500D02*
X183959226Y-110000119D01*
X183959226Y-110000119D02*
X183863988Y-110000119D01*
X183863988Y-110000119D02*
X183721131Y-109952500D01*
X183721131Y-109952500D02*
X183625893Y-109857261D01*
X183625893Y-109857261D02*
X183578274Y-109762023D01*
X183578274Y-109762023D02*
X183530655Y-109571547D01*
X183530655Y-109571547D02*
X183530655Y-109428690D01*
X183530655Y-109428690D02*
X183578274Y-109238214D01*
X183578274Y-109238214D02*
X183625893Y-109142976D01*
X183625893Y-109142976D02*
X183721131Y-109047738D01*
X183721131Y-109047738D02*
X183863988Y-109000119D01*
X183863988Y-109000119D02*
X183959226Y-109000119D01*
X183959226Y-109000119D02*
X184102083Y-109047738D01*
X184102083Y-109047738D02*
X184149702Y-109095357D01*
X184863988Y-109000119D02*
X184863988Y-109714404D01*
X184863988Y-109714404D02*
X184816369Y-109857261D01*
X184816369Y-109857261D02*
X184721131Y-109952500D01*
X184721131Y-109952500D02*
X184578274Y-110000119D01*
X184578274Y-110000119D02*
X184483036Y-110000119D01*
X185816369Y-110000119D02*
X185340179Y-110000119D01*
X185340179Y-110000119D02*
X185340179Y-109000119D01*
X186721131Y-109904880D02*
X186673512Y-109952500D01*
X186673512Y-109952500D02*
X186530655Y-110000119D01*
X186530655Y-110000119D02*
X186435417Y-110000119D01*
X186435417Y-110000119D02*
X186292560Y-109952500D01*
X186292560Y-109952500D02*
X186197322Y-109857261D01*
X186197322Y-109857261D02*
X186149703Y-109762023D01*
X186149703Y-109762023D02*
X186102084Y-109571547D01*
X186102084Y-109571547D02*
X186102084Y-109428690D01*
X186102084Y-109428690D02*
X186149703Y-109238214D01*
X186149703Y-109238214D02*
X186197322Y-109142976D01*
X186197322Y-109142976D02*
X186292560Y-109047738D01*
X186292560Y-109047738D02*
X186435417Y-109000119D01*
X186435417Y-109000119D02*
X186530655Y-109000119D01*
X186530655Y-109000119D02*
X186673512Y-109047738D01*
X186673512Y-109047738D02*
X186721131Y-109095357D01*
%TO.C,H1*%
X66706845Y-88200119D02*
X66706845Y-87200119D01*
X66706845Y-87676309D02*
X67278273Y-87676309D01*
X67278273Y-88200119D02*
X67278273Y-87200119D01*
X68278273Y-88200119D02*
X67706845Y-88200119D01*
X67992559Y-88200119D02*
X67992559Y-87200119D01*
X67992559Y-87200119D02*
X67897321Y-87342976D01*
X67897321Y-87342976D02*
X67802083Y-87438214D01*
X67802083Y-87438214D02*
X67706845Y-87485833D01*
%TO.C,H2*%
X147669345Y-88205819D02*
X147669345Y-87205819D01*
X147669345Y-87682009D02*
X148240773Y-87682009D01*
X148240773Y-88205819D02*
X148240773Y-87205819D01*
X148669345Y-87301057D02*
X148716964Y-87253438D01*
X148716964Y-87253438D02*
X148812202Y-87205819D01*
X148812202Y-87205819D02*
X149050297Y-87205819D01*
X149050297Y-87205819D02*
X149145535Y-87253438D01*
X149145535Y-87253438D02*
X149193154Y-87301057D01*
X149193154Y-87301057D02*
X149240773Y-87396295D01*
X149240773Y-87396295D02*
X149240773Y-87491533D01*
X149240773Y-87491533D02*
X149193154Y-87634390D01*
X149193154Y-87634390D02*
X148621726Y-88205819D01*
X148621726Y-88205819D02*
X149240773Y-88205819D01*
%TO.C,H3*%
X214344345Y-88200119D02*
X214344345Y-87200119D01*
X214344345Y-87676309D02*
X214915773Y-87676309D01*
X214915773Y-88200119D02*
X214915773Y-87200119D01*
X215296726Y-87200119D02*
X215915773Y-87200119D01*
X215915773Y-87200119D02*
X215582440Y-87581071D01*
X215582440Y-87581071D02*
X215725297Y-87581071D01*
X215725297Y-87581071D02*
X215820535Y-87628690D01*
X215820535Y-87628690D02*
X215868154Y-87676309D01*
X215868154Y-87676309D02*
X215915773Y-87771547D01*
X215915773Y-87771547D02*
X215915773Y-88009642D01*
X215915773Y-88009642D02*
X215868154Y-88104880D01*
X215868154Y-88104880D02*
X215820535Y-88152500D01*
X215820535Y-88152500D02*
X215725297Y-88200119D01*
X215725297Y-88200119D02*
X215439583Y-88200119D01*
X215439583Y-88200119D02*
X215344345Y-88152500D01*
X215344345Y-88152500D02*
X215296726Y-88104880D01*
%TO.C,H4*%
X295302045Y-88200119D02*
X295302045Y-87200119D01*
X295302045Y-87676309D02*
X295873473Y-87676309D01*
X295873473Y-88200119D02*
X295873473Y-87200119D01*
X296778235Y-87533452D02*
X296778235Y-88200119D01*
X296540140Y-87152500D02*
X296302045Y-87866785D01*
X296302045Y-87866785D02*
X296921092Y-87866785D01*
%TO.C,H5*%
X66706845Y-131800119D02*
X66706845Y-130800119D01*
X66706845Y-131276309D02*
X67278273Y-131276309D01*
X67278273Y-131800119D02*
X67278273Y-130800119D01*
X68230654Y-130800119D02*
X67754464Y-130800119D01*
X67754464Y-130800119D02*
X67706845Y-131276309D01*
X67706845Y-131276309D02*
X67754464Y-131228690D01*
X67754464Y-131228690D02*
X67849702Y-131181071D01*
X67849702Y-131181071D02*
X68087797Y-131181071D01*
X68087797Y-131181071D02*
X68183035Y-131228690D01*
X68183035Y-131228690D02*
X68230654Y-131276309D01*
X68230654Y-131276309D02*
X68278273Y-131371547D01*
X68278273Y-131371547D02*
X68278273Y-131609642D01*
X68278273Y-131609642D02*
X68230654Y-131704880D01*
X68230654Y-131704880D02*
X68183035Y-131752500D01*
X68183035Y-131752500D02*
X68087797Y-131800119D01*
X68087797Y-131800119D02*
X67849702Y-131800119D01*
X67849702Y-131800119D02*
X67754464Y-131752500D01*
X67754464Y-131752500D02*
X67706845Y-131704880D01*
%TO.C,H6*%
X147669345Y-131658219D02*
X147669345Y-130658219D01*
X147669345Y-131134409D02*
X148240773Y-131134409D01*
X148240773Y-131658219D02*
X148240773Y-130658219D01*
X149145535Y-130658219D02*
X148955059Y-130658219D01*
X148955059Y-130658219D02*
X148859821Y-130705838D01*
X148859821Y-130705838D02*
X148812202Y-130753457D01*
X148812202Y-130753457D02*
X148716964Y-130896314D01*
X148716964Y-130896314D02*
X148669345Y-131086790D01*
X148669345Y-131086790D02*
X148669345Y-131467742D01*
X148669345Y-131467742D02*
X148716964Y-131562980D01*
X148716964Y-131562980D02*
X148764583Y-131610600D01*
X148764583Y-131610600D02*
X148859821Y-131658219D01*
X148859821Y-131658219D02*
X149050297Y-131658219D01*
X149050297Y-131658219D02*
X149145535Y-131610600D01*
X149145535Y-131610600D02*
X149193154Y-131562980D01*
X149193154Y-131562980D02*
X149240773Y-131467742D01*
X149240773Y-131467742D02*
X149240773Y-131229647D01*
X149240773Y-131229647D02*
X149193154Y-131134409D01*
X149193154Y-131134409D02*
X149145535Y-131086790D01*
X149145535Y-131086790D02*
X149050297Y-131039171D01*
X149050297Y-131039171D02*
X148859821Y-131039171D01*
X148859821Y-131039171D02*
X148764583Y-131086790D01*
X148764583Y-131086790D02*
X148716964Y-131134409D01*
X148716964Y-131134409D02*
X148669345Y-131229647D01*
%TO.C,H7*%
X214344345Y-131658219D02*
X214344345Y-130658219D01*
X214344345Y-131134409D02*
X214915773Y-131134409D01*
X214915773Y-131658219D02*
X214915773Y-130658219D01*
X215296726Y-130658219D02*
X215963392Y-130658219D01*
X215963392Y-130658219D02*
X215534821Y-131658219D01*
%TO.C,H8*%
X295302045Y-131800119D02*
X295302045Y-130800119D01*
X295302045Y-131276309D02*
X295873473Y-131276309D01*
X295873473Y-131800119D02*
X295873473Y-130800119D01*
X296492521Y-131228690D02*
X296397283Y-131181071D01*
X296397283Y-131181071D02*
X296349664Y-131133452D01*
X296349664Y-131133452D02*
X296302045Y-131038214D01*
X296302045Y-131038214D02*
X296302045Y-130990595D01*
X296302045Y-130990595D02*
X296349664Y-130895357D01*
X296349664Y-130895357D02*
X296397283Y-130847738D01*
X296397283Y-130847738D02*
X296492521Y-130800119D01*
X296492521Y-130800119D02*
X296682997Y-130800119D01*
X296682997Y-130800119D02*
X296778235Y-130847738D01*
X296778235Y-130847738D02*
X296825854Y-130895357D01*
X296825854Y-130895357D02*
X296873473Y-130990595D01*
X296873473Y-130990595D02*
X296873473Y-131038214D01*
X296873473Y-131038214D02*
X296825854Y-131133452D01*
X296825854Y-131133452D02*
X296778235Y-131181071D01*
X296778235Y-131181071D02*
X296682997Y-131228690D01*
X296682997Y-131228690D02*
X296492521Y-131228690D01*
X296492521Y-131228690D02*
X296397283Y-131276309D01*
X296397283Y-131276309D02*
X296349664Y-131323928D01*
X296349664Y-131323928D02*
X296302045Y-131419166D01*
X296302045Y-131419166D02*
X296302045Y-131609642D01*
X296302045Y-131609642D02*
X296349664Y-131704880D01*
X296349664Y-131704880D02*
X296397283Y-131752500D01*
X296397283Y-131752500D02*
X296492521Y-131800119D01*
X296492521Y-131800119D02*
X296682997Y-131800119D01*
X296682997Y-131800119D02*
X296778235Y-131752500D01*
X296778235Y-131752500D02*
X296825854Y-131704880D01*
X296825854Y-131704880D02*
X296873473Y-131609642D01*
X296873473Y-131609642D02*
X296873473Y-131419166D01*
X296873473Y-131419166D02*
X296825854Y-131323928D01*
X296825854Y-131323928D02*
X296778235Y-131276309D01*
X296778235Y-131276309D02*
X296682997Y-131228690D01*
%TO.C,K2*%
X64943750Y-86962500D02*
X64943750Y-87962500D01*
X64943750Y-73962500D02*
X64943750Y-74962500D01*
X64943750Y-73962500D02*
X63943750Y-73962500D01*
X63943750Y-87962500D02*
X64943750Y-87962500D01*
X51943750Y-73962500D02*
X50943750Y-73962500D01*
X50943750Y-87962500D02*
X51943750Y-87962500D01*
X50943750Y-87962500D02*
X50943750Y-86962500D01*
X50943750Y-74962500D02*
X50943750Y-73962500D01*
%TO.C,K3*%
X83993750Y-86949800D02*
X83993750Y-87949800D01*
X83993750Y-73949800D02*
X83993750Y-74949800D01*
X83993750Y-73949800D02*
X82993750Y-73949800D01*
X82993750Y-87949800D02*
X83993750Y-87949800D01*
X70993750Y-73949800D02*
X69993750Y-73949800D01*
X69993750Y-87949800D02*
X70993750Y-87949800D01*
X69993750Y-87949800D02*
X69993750Y-86949800D01*
X69993750Y-74949800D02*
X69993750Y-73949800D01*
%TO.C,K6*%
X141143750Y-86962500D02*
X141143750Y-87962500D01*
X141143750Y-73962500D02*
X141143750Y-74962500D01*
X141143750Y-73962500D02*
X140143750Y-73962500D01*
X140143750Y-87962500D02*
X141143750Y-87962500D01*
X128143750Y-73962500D02*
X127143750Y-73962500D01*
X127143750Y-87962500D02*
X128143750Y-87962500D01*
X127143750Y-87962500D02*
X127143750Y-86962500D01*
X127143750Y-74962500D02*
X127143750Y-73962500D01*
%TO.C,K7*%
X160193750Y-86962500D02*
X160193750Y-87962500D01*
X160193750Y-73962500D02*
X160193750Y-74962500D01*
X160193750Y-73962500D02*
X159193750Y-73962500D01*
X159193750Y-87962500D02*
X160193750Y-87962500D01*
X147193750Y-73962500D02*
X146193750Y-73962500D01*
X146193750Y-87962500D02*
X147193750Y-87962500D01*
X146193750Y-87962500D02*
X146193750Y-86962500D01*
X146193750Y-74962500D02*
X146193750Y-73962500D01*
%TO.C,K8*%
X179243750Y-86962500D02*
X179243750Y-87962500D01*
X179243750Y-73962500D02*
X179243750Y-74962500D01*
X179243750Y-73962500D02*
X178243750Y-73962500D01*
X178243750Y-87962500D02*
X179243750Y-87962500D01*
X166243750Y-73962500D02*
X165243750Y-73962500D01*
X165243750Y-87962500D02*
X166243750Y-87962500D01*
X165243750Y-87962500D02*
X165243750Y-86962500D01*
X165243750Y-74962500D02*
X165243750Y-73962500D01*
%TO.C,K9*%
X198293750Y-86962500D02*
X198293750Y-87962500D01*
X198293750Y-73962500D02*
X198293750Y-74962500D01*
X198293750Y-73962500D02*
X197293750Y-73962500D01*
X197293750Y-87962500D02*
X198293750Y-87962500D01*
X185293750Y-73962500D02*
X184293750Y-73962500D01*
X184293750Y-87962500D02*
X185293750Y-87962500D01*
X184293750Y-87962500D02*
X184293750Y-86962500D01*
X184293750Y-74962500D02*
X184293750Y-73962500D01*
%TO.C,K10*%
X217343750Y-86962500D02*
X217343750Y-87962500D01*
X217343750Y-73962500D02*
X217343750Y-74962500D01*
X217343750Y-73962500D02*
X216343750Y-73962500D01*
X216343750Y-87962500D02*
X217343750Y-87962500D01*
X204343750Y-73962500D02*
X203343750Y-73962500D01*
X203343750Y-87962500D02*
X204343750Y-87962500D01*
X203343750Y-87962500D02*
X203343750Y-86962500D01*
X203343750Y-74962500D02*
X203343750Y-73962500D01*
%TO.C,K11*%
X236393750Y-86962500D02*
X236393750Y-87962500D01*
X236393750Y-73962500D02*
X236393750Y-74962500D01*
X236393750Y-73962500D02*
X235393750Y-73962500D01*
X235393750Y-87962500D02*
X236393750Y-87962500D01*
X223393750Y-73962500D02*
X222393750Y-73962500D01*
X222393750Y-87962500D02*
X223393750Y-87962500D01*
X222393750Y-87962500D02*
X222393750Y-86962500D01*
X222393750Y-74962500D02*
X222393750Y-73962500D01*
%TO.C,K12*%
X255443750Y-86962500D02*
X255443750Y-87962500D01*
X255443750Y-73962500D02*
X255443750Y-74962500D01*
X255443750Y-73962500D02*
X254443750Y-73962500D01*
X254443750Y-87962500D02*
X255443750Y-87962500D01*
X242443750Y-73962500D02*
X241443750Y-73962500D01*
X241443750Y-87962500D02*
X242443750Y-87962500D01*
X241443750Y-87962500D02*
X241443750Y-86962500D01*
X241443750Y-74962500D02*
X241443750Y-73962500D01*
%TO.C,K13*%
X274493750Y-86962500D02*
X274493750Y-87962500D01*
X274493750Y-73962500D02*
X274493750Y-74962500D01*
X274493750Y-73962500D02*
X273493750Y-73962500D01*
X273493750Y-87962500D02*
X274493750Y-87962500D01*
X261493750Y-73962500D02*
X260493750Y-73962500D01*
X260493750Y-87962500D02*
X261493750Y-87962500D01*
X260493750Y-87962500D02*
X260493750Y-86962500D01*
X260493750Y-74962500D02*
X260493750Y-73962500D01*
%TO.C,K14*%
X293543750Y-86962500D02*
X293543750Y-87962500D01*
X293543750Y-73962500D02*
X293543750Y-74962500D01*
X293543750Y-73962500D02*
X292543750Y-73962500D01*
X292543750Y-87962500D02*
X293543750Y-87962500D01*
X280543750Y-73962500D02*
X279543750Y-73962500D01*
X279543750Y-87962500D02*
X280543750Y-87962500D01*
X279543750Y-87962500D02*
X279543750Y-86962500D01*
X279543750Y-74962500D02*
X279543750Y-73962500D01*
%TO.C,K15*%
X312593750Y-86962500D02*
X312593750Y-87962500D01*
X312593750Y-73962500D02*
X312593750Y-74962500D01*
X312593750Y-73962500D02*
X311593750Y-73962500D01*
X311593750Y-87962500D02*
X312593750Y-87962500D01*
X299593750Y-73962500D02*
X298593750Y-73962500D01*
X298593750Y-87962500D02*
X299593750Y-87962500D01*
X298593750Y-87962500D02*
X298593750Y-86962500D01*
X298593750Y-74962500D02*
X298593750Y-73962500D01*
%TO.C,K16*%
X331643750Y-86962500D02*
X331643750Y-87962500D01*
X331643750Y-73962500D02*
X331643750Y-74962500D01*
X331643750Y-73962500D02*
X330643750Y-73962500D01*
X330643750Y-87962500D02*
X331643750Y-87962500D01*
X318643750Y-73962500D02*
X317643750Y-73962500D01*
X317643750Y-87962500D02*
X318643750Y-87962500D01*
X317643750Y-87962500D02*
X317643750Y-86962500D01*
X317643750Y-74962500D02*
X317643750Y-73962500D01*
%TO.C,K17*%
X45893750Y-106012500D02*
X45893750Y-107012500D01*
X45893750Y-93012500D02*
X45893750Y-94012500D01*
X45893750Y-93012500D02*
X44893750Y-93012500D01*
X44893750Y-107012500D02*
X45893750Y-107012500D01*
X32893750Y-93012500D02*
X31893750Y-93012500D01*
X31893750Y-107012500D02*
X32893750Y-107012500D01*
X31893750Y-107012500D02*
X31893750Y-106012500D01*
X31893750Y-94012500D02*
X31893750Y-93012500D01*
%TO.C,K18*%
X64943750Y-106012500D02*
X64943750Y-107012500D01*
X64943750Y-93012500D02*
X64943750Y-94012500D01*
X64943750Y-93012500D02*
X63943750Y-93012500D01*
X63943750Y-107012500D02*
X64943750Y-107012500D01*
X51943750Y-93012500D02*
X50943750Y-93012500D01*
X50943750Y-107012500D02*
X51943750Y-107012500D01*
X50943750Y-107012500D02*
X50943750Y-106012500D01*
X50943750Y-94012500D02*
X50943750Y-93012500D01*
%TO.C,K19*%
X83993750Y-106012500D02*
X83993750Y-107012500D01*
X83993750Y-93012500D02*
X83993750Y-94012500D01*
X83993750Y-93012500D02*
X82993750Y-93012500D01*
X82993750Y-107012500D02*
X83993750Y-107012500D01*
X70993750Y-93012500D02*
X69993750Y-93012500D01*
X69993750Y-107012500D02*
X70993750Y-107012500D01*
X69993750Y-107012500D02*
X69993750Y-106012500D01*
X69993750Y-94012500D02*
X69993750Y-93012500D01*
%TO.C,K22*%
X141143750Y-106012500D02*
X141143750Y-107012500D01*
X141143750Y-93012500D02*
X141143750Y-94012500D01*
X141143750Y-93012500D02*
X140143750Y-93012500D01*
X140143750Y-107012500D02*
X141143750Y-107012500D01*
X128143750Y-93012500D02*
X127143750Y-93012500D01*
X127143750Y-107012500D02*
X128143750Y-107012500D01*
X127143750Y-107012500D02*
X127143750Y-106012500D01*
X127143750Y-94012500D02*
X127143750Y-93012500D01*
%TO.C,K23*%
X160193750Y-106012500D02*
X160193750Y-107012500D01*
X160193750Y-93012500D02*
X160193750Y-94012500D01*
X160193750Y-93012500D02*
X159193750Y-93012500D01*
X159193750Y-107012500D02*
X160193750Y-107012500D01*
X147193750Y-93012500D02*
X146193750Y-93012500D01*
X146193750Y-107012500D02*
X147193750Y-107012500D01*
X146193750Y-107012500D02*
X146193750Y-106012500D01*
X146193750Y-94012500D02*
X146193750Y-93012500D01*
%TO.C,K24*%
X179243750Y-106012500D02*
X179243750Y-107012500D01*
X179243750Y-93012500D02*
X179243750Y-94012500D01*
X179243750Y-93012500D02*
X178243750Y-93012500D01*
X178243750Y-107012500D02*
X179243750Y-107012500D01*
X166243750Y-93012500D02*
X165243750Y-93012500D01*
X165243750Y-107012500D02*
X166243750Y-107012500D01*
X165243750Y-107012500D02*
X165243750Y-106012500D01*
X165243750Y-94012500D02*
X165243750Y-93012500D01*
%TO.C,K25*%
X198293750Y-106012500D02*
X198293750Y-107012500D01*
X198293750Y-93012500D02*
X198293750Y-94012500D01*
X198293750Y-93012500D02*
X197293750Y-93012500D01*
X197293750Y-107012500D02*
X198293750Y-107012500D01*
X185293750Y-93012500D02*
X184293750Y-93012500D01*
X184293750Y-107012500D02*
X185293750Y-107012500D01*
X184293750Y-107012500D02*
X184293750Y-106012500D01*
X184293750Y-94012500D02*
X184293750Y-93012500D01*
%TO.C,K26*%
X217343750Y-106012500D02*
X217343750Y-107012500D01*
X217343750Y-93012500D02*
X217343750Y-94012500D01*
X217343750Y-93012500D02*
X216343750Y-93012500D01*
X216343750Y-107012500D02*
X217343750Y-107012500D01*
X204343750Y-93012500D02*
X203343750Y-93012500D01*
X203343750Y-107012500D02*
X204343750Y-107012500D01*
X203343750Y-107012500D02*
X203343750Y-106012500D01*
X203343750Y-94012500D02*
X203343750Y-93012500D01*
%TO.C,K27*%
X236393750Y-106012500D02*
X236393750Y-107012500D01*
X236393750Y-93012500D02*
X236393750Y-94012500D01*
X236393750Y-93012500D02*
X235393750Y-93012500D01*
X235393750Y-107012500D02*
X236393750Y-107012500D01*
X223393750Y-93012500D02*
X222393750Y-93012500D01*
X222393750Y-107012500D02*
X223393750Y-107012500D01*
X222393750Y-107012500D02*
X222393750Y-106012500D01*
X222393750Y-94012500D02*
X222393750Y-93012500D01*
%TO.C,K28*%
X255443750Y-106012500D02*
X255443750Y-107012500D01*
X255443750Y-93012500D02*
X255443750Y-94012500D01*
X255443750Y-93012500D02*
X254443750Y-93012500D01*
X254443750Y-107012500D02*
X255443750Y-107012500D01*
X242443750Y-93012500D02*
X241443750Y-93012500D01*
X241443750Y-107012500D02*
X242443750Y-107012500D01*
X241443750Y-107012500D02*
X241443750Y-106012500D01*
X241443750Y-94012500D02*
X241443750Y-93012500D01*
%TO.C,K29*%
X274493750Y-106012500D02*
X274493750Y-107012500D01*
X274493750Y-93012500D02*
X274493750Y-94012500D01*
X274493750Y-93012500D02*
X273493750Y-93012500D01*
X273493750Y-107012500D02*
X274493750Y-107012500D01*
X261493750Y-93012500D02*
X260493750Y-93012500D01*
X260493750Y-107012500D02*
X261493750Y-107012500D01*
X260493750Y-107012500D02*
X260493750Y-106012500D01*
X260493750Y-94012500D02*
X260493750Y-93012500D01*
%TO.C,K30*%
X293543750Y-106012500D02*
X293543750Y-107012500D01*
X293543750Y-93012500D02*
X293543750Y-94012500D01*
X293543750Y-93012500D02*
X292543750Y-93012500D01*
X292543750Y-107012500D02*
X293543750Y-107012500D01*
X280543750Y-93012500D02*
X279543750Y-93012500D01*
X279543750Y-107012500D02*
X280543750Y-107012500D01*
X279543750Y-107012500D02*
X279543750Y-106012500D01*
X279543750Y-94012500D02*
X279543750Y-93012500D01*
%TO.C,K31*%
X312593750Y-106012500D02*
X312593750Y-107012500D01*
X312593750Y-93012500D02*
X312593750Y-94012500D01*
X312593750Y-93012500D02*
X311593750Y-93012500D01*
X311593750Y-107012500D02*
X312593750Y-107012500D01*
X299593750Y-93012500D02*
X298593750Y-93012500D01*
X298593750Y-107012500D02*
X299593750Y-107012500D01*
X298593750Y-107012500D02*
X298593750Y-106012500D01*
X298593750Y-94012500D02*
X298593750Y-93012500D01*
%TO.C,K32*%
X331643750Y-106012500D02*
X331643750Y-107012500D01*
X331643750Y-93012500D02*
X331643750Y-94012500D01*
X331643750Y-93012500D02*
X330643750Y-93012500D01*
X330643750Y-107012500D02*
X331643750Y-107012500D01*
X318643750Y-93012500D02*
X317643750Y-93012500D01*
X317643750Y-107012500D02*
X318643750Y-107012500D01*
X317643750Y-107012500D02*
X317643750Y-106012500D01*
X317643750Y-94012500D02*
X317643750Y-93012500D01*
%TO.C,K33*%
X45893750Y-125062500D02*
X45893750Y-126062500D01*
X45893750Y-112062500D02*
X45893750Y-113062500D01*
X45893750Y-112062500D02*
X44893750Y-112062500D01*
X44893750Y-126062500D02*
X45893750Y-126062500D01*
X32893750Y-112062500D02*
X31893750Y-112062500D01*
X31893750Y-126062500D02*
X32893750Y-126062500D01*
X31893750Y-126062500D02*
X31893750Y-125062500D01*
X31893750Y-113062500D02*
X31893750Y-112062500D01*
%TO.C,K34*%
X64943750Y-125062500D02*
X64943750Y-126062500D01*
X64943750Y-112062500D02*
X64943750Y-113062500D01*
X64943750Y-112062500D02*
X63943750Y-112062500D01*
X63943750Y-126062500D02*
X64943750Y-126062500D01*
X51943750Y-112062500D02*
X50943750Y-112062500D01*
X50943750Y-126062500D02*
X51943750Y-126062500D01*
X50943750Y-126062500D02*
X50943750Y-125062500D01*
X50943750Y-113062500D02*
X50943750Y-112062500D01*
%TO.C,K35*%
X83993750Y-125062500D02*
X83993750Y-126062500D01*
X83993750Y-112062500D02*
X83993750Y-113062500D01*
X83993750Y-112062500D02*
X82993750Y-112062500D01*
X82993750Y-126062500D02*
X83993750Y-126062500D01*
X70993750Y-112062500D02*
X69993750Y-112062500D01*
X69993750Y-126062500D02*
X70993750Y-126062500D01*
X69993750Y-126062500D02*
X69993750Y-125062500D01*
X69993750Y-113062500D02*
X69993750Y-112062500D01*
%TO.C,K36*%
X103043750Y-125062500D02*
X103043750Y-126062500D01*
X103043750Y-112062500D02*
X103043750Y-113062500D01*
X103043750Y-112062500D02*
X102043750Y-112062500D01*
X102043750Y-126062500D02*
X103043750Y-126062500D01*
X90043750Y-112062500D02*
X89043750Y-112062500D01*
X89043750Y-126062500D02*
X90043750Y-126062500D01*
X89043750Y-126062500D02*
X89043750Y-125062500D01*
X89043750Y-113062500D02*
X89043750Y-112062500D01*
%TO.C,K37*%
X122093750Y-125062500D02*
X122093750Y-126062500D01*
X122093750Y-112062500D02*
X122093750Y-113062500D01*
X122093750Y-112062500D02*
X121093750Y-112062500D01*
X121093750Y-126062500D02*
X122093750Y-126062500D01*
X109093750Y-112062500D02*
X108093750Y-112062500D01*
X108093750Y-126062500D02*
X109093750Y-126062500D01*
X108093750Y-126062500D02*
X108093750Y-125062500D01*
X108093750Y-113062500D02*
X108093750Y-112062500D01*
%TO.C,K38*%
X141143750Y-125062500D02*
X141143750Y-126062500D01*
X141143750Y-112062500D02*
X141143750Y-113062500D01*
X141143750Y-112062500D02*
X140143750Y-112062500D01*
X140143750Y-126062500D02*
X141143750Y-126062500D01*
X128143750Y-112062500D02*
X127143750Y-112062500D01*
X127143750Y-126062500D02*
X128143750Y-126062500D01*
X127143750Y-126062500D02*
X127143750Y-125062500D01*
X127143750Y-113062500D02*
X127143750Y-112062500D01*
%TO.C,K39*%
X160193750Y-125062500D02*
X160193750Y-126062500D01*
X160193750Y-112062500D02*
X160193750Y-113062500D01*
X160193750Y-112062500D02*
X159193750Y-112062500D01*
X159193750Y-126062500D02*
X160193750Y-126062500D01*
X147193750Y-112062500D02*
X146193750Y-112062500D01*
X146193750Y-126062500D02*
X147193750Y-126062500D01*
X146193750Y-126062500D02*
X146193750Y-125062500D01*
X146193750Y-113062500D02*
X146193750Y-112062500D01*
%TO.C,K40*%
X179243750Y-125062500D02*
X179243750Y-126062500D01*
X179243750Y-112062500D02*
X179243750Y-113062500D01*
X179243750Y-112062500D02*
X178243750Y-112062500D01*
X178243750Y-126062500D02*
X179243750Y-126062500D01*
X166243750Y-112062500D02*
X165243750Y-112062500D01*
X165243750Y-126062500D02*
X166243750Y-126062500D01*
X165243750Y-126062500D02*
X165243750Y-125062500D01*
X165243750Y-113062500D02*
X165243750Y-112062500D01*
%TO.C,K41*%
X198293750Y-125062500D02*
X198293750Y-126062500D01*
X198293750Y-112062500D02*
X198293750Y-113062500D01*
X198293750Y-112062500D02*
X197293750Y-112062500D01*
X197293750Y-126062500D02*
X198293750Y-126062500D01*
X185293750Y-112062500D02*
X184293750Y-112062500D01*
X184293750Y-126062500D02*
X185293750Y-126062500D01*
X184293750Y-126062500D02*
X184293750Y-125062500D01*
X184293750Y-113062500D02*
X184293750Y-112062500D01*
%TO.C,K42*%
X217343750Y-125062500D02*
X217343750Y-126062500D01*
X217343750Y-112062500D02*
X217343750Y-113062500D01*
X217343750Y-112062500D02*
X216343750Y-112062500D01*
X216343750Y-126062500D02*
X217343750Y-126062500D01*
X204343750Y-112062500D02*
X203343750Y-112062500D01*
X203343750Y-126062500D02*
X204343750Y-126062500D01*
X203343750Y-126062500D02*
X203343750Y-125062500D01*
X203343750Y-113062500D02*
X203343750Y-112062500D01*
%TO.C,K43*%
X236393750Y-125062500D02*
X236393750Y-126062500D01*
X236393750Y-112062500D02*
X236393750Y-113062500D01*
X236393750Y-112062500D02*
X235393750Y-112062500D01*
X235393750Y-126062500D02*
X236393750Y-126062500D01*
X223393750Y-112062500D02*
X222393750Y-112062500D01*
X222393750Y-126062500D02*
X223393750Y-126062500D01*
X222393750Y-126062500D02*
X222393750Y-125062500D01*
X222393750Y-113062500D02*
X222393750Y-112062500D01*
%TO.C,K44*%
X255443750Y-125062500D02*
X255443750Y-126062500D01*
X255443750Y-112062500D02*
X255443750Y-113062500D01*
X255443750Y-112062500D02*
X254443750Y-112062500D01*
X254443750Y-126062500D02*
X255443750Y-126062500D01*
X242443750Y-112062500D02*
X241443750Y-112062500D01*
X241443750Y-126062500D02*
X242443750Y-126062500D01*
X241443750Y-126062500D02*
X241443750Y-125062500D01*
X241443750Y-113062500D02*
X241443750Y-112062500D01*
%TO.C,K45*%
X274493750Y-125062500D02*
X274493750Y-126062500D01*
X274493750Y-112062500D02*
X274493750Y-113062500D01*
X274493750Y-112062500D02*
X273493750Y-112062500D01*
X273493750Y-126062500D02*
X274493750Y-126062500D01*
X261493750Y-112062500D02*
X260493750Y-112062500D01*
X260493750Y-126062500D02*
X261493750Y-126062500D01*
X260493750Y-126062500D02*
X260493750Y-125062500D01*
X260493750Y-113062500D02*
X260493750Y-112062500D01*
%TO.C,K46*%
X293543750Y-125062500D02*
X293543750Y-126062500D01*
X293543750Y-112062500D02*
X293543750Y-113062500D01*
X293543750Y-112062500D02*
X292543750Y-112062500D01*
X292543750Y-126062500D02*
X293543750Y-126062500D01*
X280543750Y-112062500D02*
X279543750Y-112062500D01*
X279543750Y-126062500D02*
X280543750Y-126062500D01*
X279543750Y-126062500D02*
X279543750Y-125062500D01*
X279543750Y-113062500D02*
X279543750Y-112062500D01*
%TO.C,K47*%
X312593750Y-125062500D02*
X312593750Y-126062500D01*
X312593750Y-112062500D02*
X312593750Y-113062500D01*
X312593750Y-112062500D02*
X311593750Y-112062500D01*
X311593750Y-126062500D02*
X312593750Y-126062500D01*
X299593750Y-112062500D02*
X298593750Y-112062500D01*
X298593750Y-126062500D02*
X299593750Y-126062500D01*
X298593750Y-126062500D02*
X298593750Y-125062500D01*
X298593750Y-113062500D02*
X298593750Y-112062500D01*
%TO.C,K48*%
X331643750Y-125062500D02*
X331643750Y-126062500D01*
X331643750Y-112062500D02*
X331643750Y-113062500D01*
X331643750Y-112062500D02*
X330643750Y-112062500D01*
X330643750Y-126062500D02*
X331643750Y-126062500D01*
X318643750Y-112062500D02*
X317643750Y-112062500D01*
X317643750Y-126062500D02*
X318643750Y-126062500D01*
X317643750Y-126062500D02*
X317643750Y-125062500D01*
X317643750Y-113062500D02*
X317643750Y-112062500D01*
%TO.C,K49*%
X45893750Y-144112500D02*
X45893750Y-145112500D01*
X45893750Y-131112500D02*
X45893750Y-132112500D01*
X45893750Y-131112500D02*
X44893750Y-131112500D01*
X44893750Y-145112500D02*
X45893750Y-145112500D01*
X32893750Y-131112500D02*
X31893750Y-131112500D01*
X31893750Y-145112500D02*
X32893750Y-145112500D01*
X31893750Y-145112500D02*
X31893750Y-144112500D01*
X31893750Y-132112500D02*
X31893750Y-131112500D01*
%TO.C,K50*%
X64943750Y-144112500D02*
X64943750Y-145112500D01*
X64943750Y-131112500D02*
X64943750Y-132112500D01*
X64943750Y-131112500D02*
X63943750Y-131112500D01*
X63943750Y-145112500D02*
X64943750Y-145112500D01*
X51943750Y-131112500D02*
X50943750Y-131112500D01*
X50943750Y-145112500D02*
X51943750Y-145112500D01*
X50943750Y-145112500D02*
X50943750Y-144112500D01*
X50943750Y-132112500D02*
X50943750Y-131112500D01*
%TO.C,K51*%
X83993750Y-144112500D02*
X83993750Y-145112500D01*
X83993750Y-131112500D02*
X83993750Y-132112500D01*
X83993750Y-131112500D02*
X82993750Y-131112500D01*
X82993750Y-145112500D02*
X83993750Y-145112500D01*
X70993750Y-131112500D02*
X69993750Y-131112500D01*
X69993750Y-145112500D02*
X70993750Y-145112500D01*
X69993750Y-145112500D02*
X69993750Y-144112500D01*
X69993750Y-132112500D02*
X69993750Y-131112500D01*
%TO.C,K52*%
X103043750Y-144112500D02*
X103043750Y-145112500D01*
X103043750Y-131112500D02*
X103043750Y-132112500D01*
X103043750Y-131112500D02*
X102043750Y-131112500D01*
X102043750Y-145112500D02*
X103043750Y-145112500D01*
X90043750Y-131112500D02*
X89043750Y-131112500D01*
X89043750Y-145112500D02*
X90043750Y-145112500D01*
X89043750Y-145112500D02*
X89043750Y-144112500D01*
X89043750Y-132112500D02*
X89043750Y-131112500D01*
%TO.C,K53*%
X122093750Y-144112500D02*
X122093750Y-145112500D01*
X122093750Y-131112500D02*
X122093750Y-132112500D01*
X122093750Y-131112500D02*
X121093750Y-131112500D01*
X121093750Y-145112500D02*
X122093750Y-145112500D01*
X109093750Y-131112500D02*
X108093750Y-131112500D01*
X108093750Y-145112500D02*
X109093750Y-145112500D01*
X108093750Y-145112500D02*
X108093750Y-144112500D01*
X108093750Y-132112500D02*
X108093750Y-131112500D01*
%TO.C,K54*%
X141143750Y-144112500D02*
X141143750Y-145112500D01*
X141143750Y-131112500D02*
X141143750Y-132112500D01*
X141143750Y-131112500D02*
X140143750Y-131112500D01*
X140143750Y-145112500D02*
X141143750Y-145112500D01*
X128143750Y-131112500D02*
X127143750Y-131112500D01*
X127143750Y-145112500D02*
X128143750Y-145112500D01*
X127143750Y-145112500D02*
X127143750Y-144112500D01*
X127143750Y-132112500D02*
X127143750Y-131112500D01*
%TO.C,K55*%
X160193750Y-144112500D02*
X160193750Y-145112500D01*
X160193750Y-131112500D02*
X160193750Y-132112500D01*
X160193750Y-131112500D02*
X159193750Y-131112500D01*
X159193750Y-145112500D02*
X160193750Y-145112500D01*
X147193750Y-131112500D02*
X146193750Y-131112500D01*
X146193750Y-145112500D02*
X147193750Y-145112500D01*
X146193750Y-145112500D02*
X146193750Y-144112500D01*
X146193750Y-132112500D02*
X146193750Y-131112500D01*
%TO.C,K56*%
X179243750Y-144112500D02*
X179243750Y-145112500D01*
X179243750Y-131112500D02*
X179243750Y-132112500D01*
X179243750Y-131112500D02*
X178243750Y-131112500D01*
X178243750Y-145112500D02*
X179243750Y-145112500D01*
X166243750Y-131112500D02*
X165243750Y-131112500D01*
X165243750Y-145112500D02*
X166243750Y-145112500D01*
X165243750Y-145112500D02*
X165243750Y-144112500D01*
X165243750Y-132112500D02*
X165243750Y-131112500D01*
%TO.C,K57*%
X198293750Y-144112500D02*
X198293750Y-145112500D01*
X198293750Y-131112500D02*
X198293750Y-132112500D01*
X198293750Y-131112500D02*
X197293750Y-131112500D01*
X197293750Y-145112500D02*
X198293750Y-145112500D01*
X185293750Y-131112500D02*
X184293750Y-131112500D01*
X184293750Y-145112500D02*
X185293750Y-145112500D01*
X184293750Y-145112500D02*
X184293750Y-144112500D01*
X184293750Y-132112500D02*
X184293750Y-131112500D01*
%TO.C,K58*%
X217343750Y-144112500D02*
X217343750Y-145112500D01*
X217343750Y-131112500D02*
X217343750Y-132112500D01*
X217343750Y-131112500D02*
X216343750Y-131112500D01*
X216343750Y-145112500D02*
X217343750Y-145112500D01*
X204343750Y-131112500D02*
X203343750Y-131112500D01*
X203343750Y-145112500D02*
X204343750Y-145112500D01*
X203343750Y-145112500D02*
X203343750Y-144112500D01*
X203343750Y-132112500D02*
X203343750Y-131112500D01*
%TO.C,K59*%
X236393750Y-144112500D02*
X236393750Y-145112500D01*
X236393750Y-131112500D02*
X236393750Y-132112500D01*
X236393750Y-131112500D02*
X235393750Y-131112500D01*
X235393750Y-145112500D02*
X236393750Y-145112500D01*
X223393750Y-131112500D02*
X222393750Y-131112500D01*
X222393750Y-145112500D02*
X223393750Y-145112500D01*
X222393750Y-145112500D02*
X222393750Y-144112500D01*
X222393750Y-132112500D02*
X222393750Y-131112500D01*
%TO.C,K60*%
X255443750Y-144112500D02*
X255443750Y-145112500D01*
X255443750Y-131112500D02*
X255443750Y-132112500D01*
X255443750Y-131112500D02*
X254443750Y-131112500D01*
X254443750Y-145112500D02*
X255443750Y-145112500D01*
X242443750Y-131112500D02*
X241443750Y-131112500D01*
X241443750Y-145112500D02*
X242443750Y-145112500D01*
X241443750Y-145112500D02*
X241443750Y-144112500D01*
X241443750Y-132112500D02*
X241443750Y-131112500D01*
%TO.C,K61*%
X274493750Y-144112500D02*
X274493750Y-145112500D01*
X274493750Y-131112500D02*
X274493750Y-132112500D01*
X274493750Y-131112500D02*
X273493750Y-131112500D01*
X273493750Y-145112500D02*
X274493750Y-145112500D01*
X261493750Y-131112500D02*
X260493750Y-131112500D01*
X260493750Y-145112500D02*
X261493750Y-145112500D01*
X260493750Y-145112500D02*
X260493750Y-144112500D01*
X260493750Y-132112500D02*
X260493750Y-131112500D01*
%TO.C,K62*%
X293543750Y-144112500D02*
X293543750Y-145112500D01*
X293543750Y-131112500D02*
X293543750Y-132112500D01*
X293543750Y-131112500D02*
X292543750Y-131112500D01*
X292543750Y-145112500D02*
X293543750Y-145112500D01*
X280543750Y-131112500D02*
X279543750Y-131112500D01*
X279543750Y-145112500D02*
X280543750Y-145112500D01*
X279543750Y-145112500D02*
X279543750Y-144112500D01*
X279543750Y-132112500D02*
X279543750Y-131112500D01*
%TO.C,K63*%
X312593750Y-144112500D02*
X312593750Y-145112500D01*
X312593750Y-131112500D02*
X312593750Y-132112500D01*
X312593750Y-131112500D02*
X311593750Y-131112500D01*
X311593750Y-145112500D02*
X312593750Y-145112500D01*
X299593750Y-131112500D02*
X298593750Y-131112500D01*
X298593750Y-145112500D02*
X299593750Y-145112500D01*
X298593750Y-145112500D02*
X298593750Y-144112500D01*
X298593750Y-132112500D02*
X298593750Y-131112500D01*
%TO.C,K64*%
X331643750Y-144112500D02*
X331643750Y-145112500D01*
X331643750Y-131112500D02*
X331643750Y-132112500D01*
X331643750Y-131112500D02*
X330643750Y-131112500D01*
X330643750Y-145112500D02*
X331643750Y-145112500D01*
X318643750Y-131112500D02*
X317643750Y-131112500D01*
X317643750Y-145112500D02*
X318643750Y-145112500D01*
X317643750Y-145112500D02*
X317643750Y-144112500D01*
X317643750Y-132112500D02*
X317643750Y-131112500D01*
%TO.C,K1*%
X45893750Y-86962500D02*
X45893750Y-87962500D01*
X45893750Y-73962500D02*
X45893750Y-74962500D01*
X45893750Y-73962500D02*
X44893750Y-73962500D01*
X44893750Y-87962500D02*
X45893750Y-87962500D01*
X32893750Y-73962500D02*
X31893750Y-73962500D01*
X31893750Y-87962500D02*
X32893750Y-87962500D01*
X31893750Y-87962500D02*
X31893750Y-86962500D01*
X31893750Y-74962500D02*
X31893750Y-73962500D01*
%TO.C,K4*%
X103043750Y-86962500D02*
X103043750Y-87962500D01*
X103043750Y-73962500D02*
X103043750Y-74962500D01*
X103043750Y-73962500D02*
X102043750Y-73962500D01*
X102043750Y-87962500D02*
X103043750Y-87962500D01*
X90043750Y-73962500D02*
X89043750Y-73962500D01*
X89043750Y-87962500D02*
X90043750Y-87962500D01*
X89043750Y-87962500D02*
X89043750Y-86962500D01*
X89043750Y-74962500D02*
X89043750Y-73962500D01*
%TO.C,K5*%
X122093750Y-86962500D02*
X122093750Y-87962500D01*
X122093750Y-73962500D02*
X122093750Y-74962500D01*
X122093750Y-73962500D02*
X121093750Y-73962500D01*
X121093750Y-87962500D02*
X122093750Y-87962500D01*
X109093750Y-73962500D02*
X108093750Y-73962500D01*
X108093750Y-87962500D02*
X109093750Y-87962500D01*
X108093750Y-87962500D02*
X108093750Y-86962500D01*
X108093750Y-74962500D02*
X108093750Y-73962500D01*
%TO.C,K21*%
X122093750Y-106012500D02*
X122093750Y-107012500D01*
X122093750Y-93012500D02*
X122093750Y-94012500D01*
X122093750Y-93012500D02*
X121093750Y-93012500D01*
X121093750Y-107012500D02*
X122093750Y-107012500D01*
X109093750Y-93012500D02*
X108093750Y-93012500D01*
X108093750Y-107012500D02*
X109093750Y-107012500D01*
X108093750Y-107012500D02*
X108093750Y-106012500D01*
X108093750Y-94012500D02*
X108093750Y-93012500D01*
%TO.C,K20*%
X103043750Y-106012500D02*
X103043750Y-107012500D01*
X103043750Y-93012500D02*
X103043750Y-94012500D01*
X103043750Y-93012500D02*
X102043750Y-93012500D01*
X102043750Y-107012500D02*
X103043750Y-107012500D01*
X90043750Y-93012500D02*
X89043750Y-93012500D01*
X89043750Y-107012500D02*
X90043750Y-107012500D01*
X89043750Y-107012500D02*
X89043750Y-106012500D01*
X89043750Y-94012500D02*
X89043750Y-93012500D01*
D11*
%TO.C,LD16*%
X323468750Y-75087500D02*
X325868750Y-75087500D01*
X323468750Y-76087500D02*
X323468750Y-75087500D01*
X323468750Y-77087500D02*
X325868750Y-77087500D01*
D10*
X324968750Y-77037500D02*
X324968750Y-75137500D01*
D11*
X325868750Y-76087500D02*
X325868750Y-77087500D01*
%TO.C,LD17*%
X40118750Y-96137500D02*
X37718750Y-96137500D01*
X40118750Y-95137500D02*
X40118750Y-96137500D01*
X40118750Y-94137500D02*
X37718750Y-94137500D01*
D10*
X38618750Y-94187500D02*
X38618750Y-96087500D01*
D11*
X37718750Y-95137500D02*
X37718750Y-94137500D01*
%TO.C,LD18*%
X59168750Y-96137500D02*
X56768750Y-96137500D01*
X59168750Y-95137500D02*
X59168750Y-96137500D01*
X59168750Y-94137500D02*
X56768750Y-94137500D01*
D10*
X57668750Y-94187500D02*
X57668750Y-96087500D01*
D11*
X56768750Y-95137500D02*
X56768750Y-94137500D01*
%TO.C,LD19*%
X78218750Y-96137500D02*
X75818750Y-96137500D01*
X78218750Y-95137500D02*
X78218750Y-96137500D01*
X78218750Y-94137500D02*
X75818750Y-94137500D01*
D10*
X76718750Y-94187500D02*
X76718750Y-96087500D01*
D11*
X75818750Y-95137500D02*
X75818750Y-94137500D01*
%TO.C,LD20*%
X97268750Y-96137500D02*
X94868750Y-96137500D01*
X97268750Y-95137500D02*
X97268750Y-96137500D01*
X97268750Y-94137500D02*
X94868750Y-94137500D01*
D10*
X95768750Y-94187500D02*
X95768750Y-96087500D01*
D11*
X94868750Y-95137500D02*
X94868750Y-94137500D01*
%TO.C,LD21*%
X116318750Y-96137500D02*
X113918750Y-96137500D01*
X116318750Y-95137500D02*
X116318750Y-96137500D01*
X116318750Y-94137500D02*
X113918750Y-94137500D01*
D10*
X114818750Y-94187500D02*
X114818750Y-96087500D01*
D11*
X113918750Y-95137500D02*
X113918750Y-94137500D01*
%TO.C,LD22*%
X135368750Y-96137500D02*
X132968750Y-96137500D01*
X135368750Y-95137500D02*
X135368750Y-96137500D01*
X135368750Y-94137500D02*
X132968750Y-94137500D01*
D10*
X133868750Y-94187500D02*
X133868750Y-96087500D01*
D11*
X132968750Y-95137500D02*
X132968750Y-94137500D01*
%TO.C,LD23*%
X154418750Y-96137500D02*
X152018750Y-96137500D01*
X154418750Y-95137500D02*
X154418750Y-96137500D01*
X154418750Y-94137500D02*
X152018750Y-94137500D01*
D10*
X152918750Y-94187500D02*
X152918750Y-96087500D01*
D11*
X152018750Y-95137500D02*
X152018750Y-94137500D01*
%TO.C,LD24*%
X173468750Y-96137500D02*
X171068750Y-96137500D01*
X173468750Y-95137500D02*
X173468750Y-96137500D01*
X173468750Y-94137500D02*
X171068750Y-94137500D01*
D10*
X171968750Y-94187500D02*
X171968750Y-96087500D01*
D11*
X171068750Y-95137500D02*
X171068750Y-94137500D01*
%TO.C,LD25*%
X192518750Y-96137500D02*
X190118750Y-96137500D01*
X192518750Y-95137500D02*
X192518750Y-96137500D01*
X192518750Y-94137500D02*
X190118750Y-94137500D01*
D10*
X191018750Y-94187500D02*
X191018750Y-96087500D01*
D11*
X190118750Y-95137500D02*
X190118750Y-94137500D01*
%TO.C,LD26*%
X211568750Y-96137500D02*
X209168750Y-96137500D01*
X211568750Y-95137500D02*
X211568750Y-96137500D01*
X211568750Y-94137500D02*
X209168750Y-94137500D01*
D10*
X210068750Y-94187500D02*
X210068750Y-96087500D01*
D11*
X209168750Y-95137500D02*
X209168750Y-94137500D01*
%TO.C,LD27*%
X230618750Y-96137500D02*
X228218750Y-96137500D01*
X230618750Y-95137500D02*
X230618750Y-96137500D01*
X230618750Y-94137500D02*
X228218750Y-94137500D01*
D10*
X229118750Y-94187500D02*
X229118750Y-96087500D01*
D11*
X228218750Y-95137500D02*
X228218750Y-94137500D01*
%TO.C,LD28*%
X249668750Y-96137500D02*
X247268750Y-96137500D01*
X249668750Y-95137500D02*
X249668750Y-96137500D01*
X249668750Y-94137500D02*
X247268750Y-94137500D01*
D10*
X248168750Y-94187500D02*
X248168750Y-96087500D01*
D11*
X247268750Y-95137500D02*
X247268750Y-94137500D01*
%TO.C,LD29*%
X268718750Y-96137500D02*
X266318750Y-96137500D01*
X268718750Y-95137500D02*
X268718750Y-96137500D01*
X268718750Y-94137500D02*
X266318750Y-94137500D01*
D10*
X267218750Y-94187500D02*
X267218750Y-96087500D01*
D11*
X266318750Y-95137500D02*
X266318750Y-94137500D01*
%TO.C,LD30*%
X287768750Y-96137500D02*
X285368750Y-96137500D01*
X287768750Y-95137500D02*
X287768750Y-96137500D01*
X287768750Y-94137500D02*
X285368750Y-94137500D01*
D10*
X286268750Y-94187500D02*
X286268750Y-96087500D01*
D11*
X285368750Y-95137500D02*
X285368750Y-94137500D01*
%TO.C,LD32*%
X325868750Y-96137500D02*
X323468750Y-96137500D01*
X325868750Y-95137500D02*
X325868750Y-96137500D01*
X325868750Y-94137500D02*
X323468750Y-94137500D01*
D10*
X324368750Y-94187500D02*
X324368750Y-96087500D01*
D11*
X323468750Y-95137500D02*
X323468750Y-94137500D01*
%TO.C,LD31*%
X306818750Y-96137500D02*
X304418750Y-96137500D01*
X306818750Y-95137500D02*
X306818750Y-96137500D01*
X306818750Y-94137500D02*
X304418750Y-94137500D01*
D10*
X305318750Y-94187500D02*
X305318750Y-96087500D01*
D11*
X304418750Y-95137500D02*
X304418750Y-94137500D01*
%TO.C,LD15*%
X304418750Y-75087500D02*
X306818750Y-75087500D01*
X304418750Y-76087500D02*
X304418750Y-75087500D01*
X304418750Y-77087500D02*
X306818750Y-77087500D01*
D10*
X305918750Y-77037500D02*
X305918750Y-75137500D01*
D11*
X306818750Y-76087500D02*
X306818750Y-77087500D01*
%TO.C,LD14*%
X285368750Y-75087500D02*
X287768750Y-75087500D01*
X285368750Y-76087500D02*
X285368750Y-75087500D01*
X285368750Y-77087500D02*
X287768750Y-77087500D01*
D10*
X286868750Y-77037500D02*
X286868750Y-75137500D01*
D11*
X287768750Y-76087500D02*
X287768750Y-77087500D01*
%TO.C,LD12*%
X247268750Y-75087500D02*
X249668750Y-75087500D01*
X247268750Y-76087500D02*
X247268750Y-75087500D01*
X247268750Y-77087500D02*
X249668750Y-77087500D01*
D10*
X248768750Y-77037500D02*
X248768750Y-75137500D01*
D11*
X249668750Y-76087500D02*
X249668750Y-77087500D01*
%TO.C,LD10*%
X209168750Y-75087500D02*
X211568750Y-75087500D01*
X209168750Y-76087500D02*
X209168750Y-75087500D01*
X209168750Y-77087500D02*
X211568750Y-77087500D01*
D10*
X210668750Y-77037500D02*
X210668750Y-75137500D01*
D11*
X211568750Y-76087500D02*
X211568750Y-77087500D01*
%TO.C,LD13*%
X266318750Y-75087500D02*
X268718750Y-75087500D01*
X266318750Y-76087500D02*
X266318750Y-75087500D01*
X266318750Y-77087500D02*
X268718750Y-77087500D01*
D10*
X267818750Y-77037500D02*
X267818750Y-75137500D01*
D11*
X268718750Y-76087500D02*
X268718750Y-77087500D01*
%TO.C,LD5*%
X113918750Y-75087500D02*
X116318750Y-75087500D01*
X113918750Y-76087500D02*
X113918750Y-75087500D01*
X113918750Y-77087500D02*
X116318750Y-77087500D01*
D10*
X115418750Y-77037500D02*
X115418750Y-75137500D01*
D11*
X116318750Y-76087500D02*
X116318750Y-77087500D01*
%TO.C,LD11*%
X228218750Y-75087500D02*
X230618750Y-75087500D01*
X228218750Y-76087500D02*
X228218750Y-75087500D01*
X228218750Y-77087500D02*
X230618750Y-77087500D01*
D10*
X229718750Y-77037500D02*
X229718750Y-75137500D01*
D11*
X230618750Y-76087500D02*
X230618750Y-77087500D01*
%TO.C,LD6*%
X132968750Y-75087500D02*
X135368750Y-75087500D01*
X132968750Y-76087500D02*
X132968750Y-75087500D01*
X132968750Y-77087500D02*
X135368750Y-77087500D01*
D10*
X134468750Y-77037500D02*
X134468750Y-75137500D01*
D11*
X135368750Y-76087500D02*
X135368750Y-77087500D01*
%TO.C,LD7*%
X152018750Y-75087500D02*
X154418750Y-75087500D01*
X152018750Y-76087500D02*
X152018750Y-75087500D01*
X152018750Y-77087500D02*
X154418750Y-77087500D01*
D10*
X153518750Y-77037500D02*
X153518750Y-75137500D01*
D11*
X154418750Y-76087500D02*
X154418750Y-77087500D01*
%TO.C,LD8*%
X171068750Y-75087500D02*
X173468750Y-75087500D01*
X171068750Y-76087500D02*
X171068750Y-75087500D01*
X171068750Y-77087500D02*
X173468750Y-77087500D01*
D10*
X172568750Y-77037500D02*
X172568750Y-75137500D01*
D11*
X173468750Y-76087500D02*
X173468750Y-77087500D01*
%TO.C,LD9*%
X190118750Y-75087500D02*
X192518750Y-75087500D01*
X190118750Y-76087500D02*
X190118750Y-75087500D01*
X190118750Y-77087500D02*
X192518750Y-77087500D01*
D10*
X191618750Y-77037500D02*
X191618750Y-75137500D01*
D11*
X192518750Y-76087500D02*
X192518750Y-77087500D01*
%TO.C,LD2*%
X56768750Y-75087500D02*
X59168750Y-75087500D01*
X56768750Y-76087500D02*
X56768750Y-75087500D01*
X56768750Y-77087500D02*
X59168750Y-77087500D01*
D10*
X58268750Y-77037500D02*
X58268750Y-75137500D01*
D11*
X59168750Y-76087500D02*
X59168750Y-77087500D01*
%TO.C,LD1*%
X37718750Y-75087500D02*
X40118750Y-75087500D01*
X37718750Y-76087500D02*
X37718750Y-75087500D01*
X37718750Y-77087500D02*
X40118750Y-77087500D01*
D10*
X39218750Y-77037500D02*
X39218750Y-75137500D01*
D11*
X40118750Y-76087500D02*
X40118750Y-77087500D01*
%TO.C,LD3*%
X75818750Y-75062100D02*
X78218750Y-75062100D01*
X75818750Y-76062100D02*
X75818750Y-75062100D01*
X75818750Y-77062100D02*
X78218750Y-77062100D01*
D10*
X77318750Y-77012100D02*
X77318750Y-75112100D01*
D11*
X78218750Y-76062100D02*
X78218750Y-77062100D01*
%TO.C,LD4*%
X94868750Y-75087500D02*
X97268750Y-75087500D01*
X94868750Y-76087500D02*
X94868750Y-75087500D01*
X94868750Y-77087500D02*
X97268750Y-77087500D01*
D10*
X96368750Y-77037500D02*
X96368750Y-75137500D01*
D11*
X97268750Y-76087500D02*
X97268750Y-77087500D01*
%TO.C,LD56*%
X173468750Y-134437500D02*
X171068750Y-134437500D01*
X173468750Y-133437500D02*
X173468750Y-134437500D01*
X173468750Y-132437500D02*
X171068750Y-132437500D01*
D10*
X171968750Y-132487500D02*
X171968750Y-134387500D01*
D11*
X171068750Y-133437500D02*
X171068750Y-132437500D01*
%TO.C,LD54*%
X135368750Y-134437500D02*
X132968750Y-134437500D01*
X135368750Y-133437500D02*
X135368750Y-134437500D01*
X135368750Y-132437500D02*
X132968750Y-132437500D01*
D10*
X133868750Y-132487500D02*
X133868750Y-134387500D01*
D11*
X132968750Y-133437500D02*
X132968750Y-132437500D01*
%TO.C,LD43*%
X228218750Y-113187500D02*
X230618750Y-113187500D01*
X228218750Y-114187500D02*
X228218750Y-113187500D01*
X228218750Y-115187500D02*
X230618750Y-115187500D01*
D10*
X229718750Y-115137500D02*
X229718750Y-113237500D01*
D11*
X230618750Y-114187500D02*
X230618750Y-115187500D01*
%TO.C,LD47*%
X304418750Y-113187500D02*
X306818750Y-113187500D01*
X304418750Y-114187500D02*
X304418750Y-113187500D01*
X304418750Y-115187500D02*
X306818750Y-115187500D01*
D10*
X305918750Y-115137500D02*
X305918750Y-113237500D01*
D11*
X306818750Y-114187500D02*
X306818750Y-115187500D01*
%TO.C,LD46*%
X285368750Y-113187500D02*
X287768750Y-113187500D01*
X285368750Y-114187500D02*
X285368750Y-113187500D01*
X285368750Y-115187500D02*
X287768750Y-115187500D01*
D10*
X286868750Y-115137500D02*
X286868750Y-113237500D01*
D11*
X287768750Y-114187500D02*
X287768750Y-115187500D01*
%TO.C,LD60*%
X249668750Y-134437500D02*
X247268750Y-134437500D01*
X249668750Y-133437500D02*
X249668750Y-134437500D01*
X249668750Y-132437500D02*
X247268750Y-132437500D01*
D10*
X248168750Y-132487500D02*
X248168750Y-134387500D01*
D11*
X247268750Y-133437500D02*
X247268750Y-132437500D01*
%TO.C,LD61*%
X268718750Y-134437500D02*
X266318750Y-134437500D01*
X268718750Y-133437500D02*
X268718750Y-134437500D01*
X268718750Y-132437500D02*
X266318750Y-132437500D01*
D10*
X267218750Y-132487500D02*
X267218750Y-134387500D01*
D11*
X266318750Y-133437500D02*
X266318750Y-132437500D01*
%TO.C,LD36*%
X94868750Y-113187500D02*
X97268750Y-113187500D01*
X94868750Y-114187500D02*
X94868750Y-113187500D01*
X94868750Y-115187500D02*
X97268750Y-115187500D01*
D10*
X96368750Y-115137500D02*
X96368750Y-113237500D01*
D11*
X97268750Y-114187500D02*
X97268750Y-115187500D01*
%TO.C,LD57*%
X192518750Y-134437500D02*
X190118750Y-134437500D01*
X192518750Y-133437500D02*
X192518750Y-134437500D01*
X192518750Y-132437500D02*
X190118750Y-132437500D01*
D10*
X191018750Y-132487500D02*
X191018750Y-134387500D01*
D11*
X190118750Y-133437500D02*
X190118750Y-132437500D01*
%TO.C,LD55*%
X154418750Y-134437500D02*
X152018750Y-134437500D01*
X154418750Y-133437500D02*
X154418750Y-134437500D01*
X154418750Y-132437500D02*
X152018750Y-132437500D01*
D10*
X152918750Y-132487500D02*
X152918750Y-134387500D01*
D11*
X152018750Y-133437500D02*
X152018750Y-132437500D01*
%TO.C,LD64*%
X325868750Y-134437500D02*
X323468750Y-134437500D01*
X325868750Y-133437500D02*
X325868750Y-134437500D01*
X325868750Y-132437500D02*
X323468750Y-132437500D01*
D10*
X324368750Y-132487500D02*
X324368750Y-134387500D01*
D11*
X323468750Y-133437500D02*
X323468750Y-132437500D01*
%TO.C,LD53*%
X116318750Y-134437500D02*
X113918750Y-134437500D01*
X116318750Y-133437500D02*
X116318750Y-134437500D01*
X116318750Y-132437500D02*
X113918750Y-132437500D01*
D10*
X114818750Y-132487500D02*
X114818750Y-134387500D01*
D11*
X113918750Y-133437500D02*
X113918750Y-132437500D01*
%TO.C,LD38*%
X132968750Y-113187500D02*
X135368750Y-113187500D01*
X132968750Y-114187500D02*
X132968750Y-113187500D01*
X132968750Y-115187500D02*
X135368750Y-115187500D01*
D10*
X134468750Y-115137500D02*
X134468750Y-113237500D01*
D11*
X135368750Y-114187500D02*
X135368750Y-115187500D01*
%TO.C,LD42*%
X209168750Y-113187500D02*
X211568750Y-113187500D01*
X209168750Y-114187500D02*
X209168750Y-113187500D01*
X209168750Y-115187500D02*
X211568750Y-115187500D01*
D10*
X210668750Y-115137500D02*
X210668750Y-113237500D01*
D11*
X211568750Y-114187500D02*
X211568750Y-115187500D01*
D10*
%TO.C,K54.1*%
X136668750Y-132112500D02*
X136668750Y-131112500D01*
X136668750Y-145112500D02*
X136668750Y-144112500D01*
X136668750Y-145112500D02*
X137668750Y-145112500D01*
X137668750Y-131112500D02*
X136668750Y-131112500D01*
X149668750Y-145112500D02*
X150668750Y-145112500D01*
X150668750Y-131112500D02*
X149668750Y-131112500D01*
X150668750Y-131112500D02*
X150668750Y-132112500D01*
X150668750Y-144112500D02*
X150668750Y-145112500D01*
D11*
%TO.C,LD58*%
X211568750Y-134437500D02*
X209168750Y-134437500D01*
X211568750Y-133437500D02*
X211568750Y-134437500D01*
X211568750Y-132437500D02*
X209168750Y-132437500D01*
D10*
X210068750Y-132487500D02*
X210068750Y-134387500D01*
D11*
X209168750Y-133437500D02*
X209168750Y-132437500D01*
%TO.C,LD59*%
X230618750Y-134437500D02*
X228218750Y-134437500D01*
X230618750Y-133437500D02*
X230618750Y-134437500D01*
X230618750Y-132437500D02*
X228218750Y-132437500D01*
D10*
X229118750Y-132487500D02*
X229118750Y-134387500D01*
D11*
X228218750Y-133437500D02*
X228218750Y-132437500D01*
%TO.C,LD40*%
X171068750Y-113187500D02*
X173468750Y-113187500D01*
X171068750Y-114187500D02*
X171068750Y-113187500D01*
X171068750Y-115187500D02*
X173468750Y-115187500D01*
D10*
X172568750Y-115137500D02*
X172568750Y-113237500D01*
D11*
X173468750Y-114187500D02*
X173468750Y-115187500D01*
%TO.C,LD44*%
X247268750Y-113187500D02*
X249668750Y-113187500D01*
X247268750Y-114187500D02*
X247268750Y-113187500D01*
X247268750Y-115187500D02*
X249668750Y-115187500D01*
D10*
X248768750Y-115137500D02*
X248768750Y-113237500D01*
D11*
X249668750Y-114187500D02*
X249668750Y-115187500D01*
%TO.C,LD34*%
X56768750Y-113187500D02*
X59168750Y-113187500D01*
X56768750Y-114187500D02*
X56768750Y-113187500D01*
X56768750Y-115187500D02*
X59168750Y-115187500D01*
D10*
X58268750Y-115137500D02*
X58268750Y-113237500D01*
D11*
X59168750Y-114187500D02*
X59168750Y-115187500D01*
%TO.C,LD62*%
X287768750Y-134437500D02*
X285368750Y-134437500D01*
X287768750Y-133437500D02*
X287768750Y-134437500D01*
X287768750Y-132437500D02*
X285368750Y-132437500D01*
D10*
X286268750Y-132487500D02*
X286268750Y-134387500D01*
D11*
X285368750Y-133437500D02*
X285368750Y-132437500D01*
%TO.C,LD49*%
X40118750Y-134437500D02*
X37718750Y-134437500D01*
X40118750Y-133437500D02*
X40118750Y-134437500D01*
X40118750Y-132437500D02*
X37718750Y-132437500D01*
D10*
X38618750Y-132487500D02*
X38618750Y-134387500D01*
D11*
X37718750Y-133437500D02*
X37718750Y-132437500D01*
%TO.C,LD35*%
X75818750Y-113187500D02*
X78218750Y-113187500D01*
X75818750Y-114187500D02*
X75818750Y-113187500D01*
X75818750Y-115187500D02*
X78218750Y-115187500D01*
D10*
X77318750Y-115137500D02*
X77318750Y-113237500D01*
D11*
X78218750Y-114187500D02*
X78218750Y-115187500D01*
%TO.C,LD37*%
X113918750Y-113187500D02*
X116318750Y-113187500D01*
X113918750Y-114187500D02*
X113918750Y-113187500D01*
X113918750Y-115187500D02*
X116318750Y-115187500D01*
D10*
X115418750Y-115137500D02*
X115418750Y-113237500D01*
D11*
X116318750Y-114187500D02*
X116318750Y-115187500D01*
%TO.C,LD51*%
X78218750Y-134437500D02*
X75818750Y-134437500D01*
X78218750Y-133437500D02*
X78218750Y-134437500D01*
X78218750Y-132437500D02*
X75818750Y-132437500D01*
D10*
X76718750Y-132487500D02*
X76718750Y-134387500D01*
D11*
X75818750Y-133437500D02*
X75818750Y-132437500D01*
%TO.C,LD45*%
X266318750Y-113187500D02*
X268718750Y-113187500D01*
X266318750Y-114187500D02*
X266318750Y-113187500D01*
X266318750Y-115187500D02*
X268718750Y-115187500D01*
D10*
X267818750Y-115137500D02*
X267818750Y-113237500D01*
D11*
X268718750Y-114187500D02*
X268718750Y-115187500D01*
%TO.C,LD50*%
X59168750Y-134437500D02*
X56768750Y-134437500D01*
X59168750Y-133437500D02*
X59168750Y-134437500D01*
X59168750Y-132437500D02*
X56768750Y-132437500D01*
D10*
X57668750Y-132487500D02*
X57668750Y-134387500D01*
D11*
X56768750Y-133437500D02*
X56768750Y-132437500D01*
%TO.C,LD48*%
X323468750Y-113187500D02*
X325868750Y-113187500D01*
X323468750Y-114187500D02*
X323468750Y-113187500D01*
X323468750Y-115187500D02*
X325868750Y-115187500D01*
D10*
X324968750Y-115137500D02*
X324968750Y-113237500D01*
D11*
X325868750Y-114187500D02*
X325868750Y-115187500D01*
%TO.C,LD39*%
X152018750Y-113187500D02*
X154418750Y-113187500D01*
X152018750Y-114187500D02*
X152018750Y-113187500D01*
X152018750Y-115187500D02*
X154418750Y-115187500D01*
D10*
X153518750Y-115137500D02*
X153518750Y-113237500D01*
D11*
X154418750Y-114187500D02*
X154418750Y-115187500D01*
%TO.C,LD33*%
X37718750Y-113187500D02*
X40118750Y-113187500D01*
X37718750Y-114187500D02*
X37718750Y-113187500D01*
X37718750Y-115187500D02*
X40118750Y-115187500D01*
D10*
X39218750Y-115137500D02*
X39218750Y-113237500D01*
D11*
X40118750Y-114187500D02*
X40118750Y-115187500D01*
D10*
%TO.C,K58.1*%
X212868750Y-132112500D02*
X212868750Y-131112500D01*
X212868750Y-145112500D02*
X212868750Y-144112500D01*
X212868750Y-145112500D02*
X213868750Y-145112500D01*
X213868750Y-131112500D02*
X212868750Y-131112500D01*
X225868750Y-145112500D02*
X226868750Y-145112500D01*
X226868750Y-131112500D02*
X225868750Y-131112500D01*
X226868750Y-131112500D02*
X226868750Y-132112500D01*
X226868750Y-144112500D02*
X226868750Y-145112500D01*
D11*
%TO.C,LD41*%
X190118750Y-113187500D02*
X192518750Y-113187500D01*
X190118750Y-114187500D02*
X190118750Y-113187500D01*
X190118750Y-115187500D02*
X192518750Y-115187500D01*
D10*
X191618750Y-115137500D02*
X191618750Y-113237500D01*
D11*
X192518750Y-114187500D02*
X192518750Y-115187500D01*
%TO.C,LD63*%
X306818750Y-134437500D02*
X304418750Y-134437500D01*
X306818750Y-133437500D02*
X306818750Y-134437500D01*
X306818750Y-132437500D02*
X304418750Y-132437500D01*
D10*
X305318750Y-132487500D02*
X305318750Y-134387500D01*
D11*
X304418750Y-133437500D02*
X304418750Y-132437500D01*
%TO.C,LD52*%
X97268750Y-134437500D02*
X94868750Y-134437500D01*
X97268750Y-133437500D02*
X97268750Y-134437500D01*
X97268750Y-132437500D02*
X94868750Y-132437500D01*
D10*
X95768750Y-132487500D02*
X95768750Y-134387500D01*
D11*
X94868750Y-133437500D02*
X94868750Y-132437500D01*
%TD*%
%LPC*%
D12*
%TO.C,K2*%
X63233750Y-80962500D03*
D13*
X57943750Y-80962500D03*
D12*
X52653750Y-80962500D03*
D14*
X55403750Y-86042500D03*
D15*
X52943750Y-84762500D03*
D14*
X61753750Y-83502500D03*
D15*
X57943750Y-86862500D03*
%TD*%
D12*
%TO.C,K3*%
X82283750Y-80949800D03*
D13*
X76993750Y-80949800D03*
D12*
X71703750Y-80949800D03*
D14*
X74453750Y-86029800D03*
D15*
X71993750Y-84749800D03*
D14*
X80803750Y-83489800D03*
D15*
X76993750Y-86849800D03*
%TD*%
D12*
%TO.C,K6*%
X139433750Y-80962500D03*
D13*
X134143750Y-80962500D03*
D12*
X128853750Y-80962500D03*
D14*
X131603750Y-86042500D03*
D15*
X129143750Y-84762500D03*
D14*
X137953750Y-83502500D03*
D15*
X134143750Y-86862500D03*
%TD*%
D12*
%TO.C,K7*%
X158483750Y-80962500D03*
D13*
X153193750Y-80962500D03*
D12*
X147903750Y-80962500D03*
D14*
X150653750Y-86042500D03*
D15*
X148193750Y-84762500D03*
D14*
X157003750Y-83502500D03*
D15*
X153193750Y-86862500D03*
%TD*%
D12*
%TO.C,K8*%
X177533750Y-80962500D03*
D13*
X172243750Y-80962500D03*
D12*
X166953750Y-80962500D03*
D14*
X169703750Y-86042500D03*
D15*
X167243750Y-84762500D03*
D14*
X176053750Y-83502500D03*
D15*
X172243750Y-86862500D03*
%TD*%
D12*
%TO.C,K9*%
X196583750Y-80962500D03*
D13*
X191293750Y-80962500D03*
D12*
X186003750Y-80962500D03*
D14*
X188753750Y-86042500D03*
D15*
X186293750Y-84762500D03*
D14*
X195103750Y-83502500D03*
D15*
X191293750Y-86862500D03*
%TD*%
D12*
%TO.C,K10*%
X215633750Y-80962500D03*
D13*
X210343750Y-80962500D03*
D12*
X205053750Y-80962500D03*
D14*
X207803750Y-86042500D03*
D15*
X205343750Y-84762500D03*
D14*
X214153750Y-83502500D03*
D15*
X210343750Y-86862500D03*
%TD*%
D12*
%TO.C,K11*%
X234683750Y-80962500D03*
D13*
X229393750Y-80962500D03*
D12*
X224103750Y-80962500D03*
D14*
X226853750Y-86042500D03*
D15*
X224393750Y-84762500D03*
D14*
X233203750Y-83502500D03*
D15*
X229393750Y-86862500D03*
%TD*%
D12*
%TO.C,K12*%
X253733750Y-80962500D03*
D13*
X248443750Y-80962500D03*
D12*
X243153750Y-80962500D03*
D14*
X245903750Y-86042500D03*
D15*
X243443750Y-84762500D03*
D14*
X252253750Y-83502500D03*
D15*
X248443750Y-86862500D03*
%TD*%
D12*
%TO.C,K13*%
X272783750Y-80962500D03*
D13*
X267493750Y-80962500D03*
D12*
X262203750Y-80962500D03*
D14*
X264953750Y-86042500D03*
D15*
X262493750Y-84762500D03*
D14*
X271303750Y-83502500D03*
D15*
X267493750Y-86862500D03*
%TD*%
D12*
%TO.C,K14*%
X291833750Y-80962500D03*
D13*
X286543750Y-80962500D03*
D12*
X281253750Y-80962500D03*
D14*
X284003750Y-86042500D03*
D15*
X281543750Y-84762500D03*
D14*
X290353750Y-83502500D03*
D15*
X286543750Y-86862500D03*
%TD*%
D12*
%TO.C,K15*%
X310883750Y-80962500D03*
D13*
X305593750Y-80962500D03*
D12*
X300303750Y-80962500D03*
D14*
X303053750Y-86042500D03*
D15*
X300593750Y-84762500D03*
D14*
X309403750Y-83502500D03*
D15*
X305593750Y-86862500D03*
%TD*%
D12*
%TO.C,K16*%
X329933750Y-80962500D03*
D13*
X324643750Y-80962500D03*
D12*
X319353750Y-80962500D03*
D14*
X322103750Y-86042500D03*
D15*
X319643750Y-84762500D03*
D14*
X328453750Y-83502500D03*
D15*
X324643750Y-86862500D03*
%TD*%
D12*
%TO.C,K17*%
X44183750Y-100012500D03*
D13*
X38893750Y-100012500D03*
D12*
X33603750Y-100012500D03*
D14*
X36353750Y-105092500D03*
D15*
X33893750Y-103812500D03*
D14*
X42703750Y-102552500D03*
D15*
X38893750Y-105912500D03*
%TD*%
D12*
%TO.C,K18*%
X63233750Y-100012500D03*
D13*
X57943750Y-100012500D03*
D12*
X52653750Y-100012500D03*
D14*
X55403750Y-105092500D03*
D15*
X52943750Y-103812500D03*
D14*
X61753750Y-102552500D03*
D15*
X57943750Y-105912500D03*
%TD*%
D12*
%TO.C,K19*%
X82283750Y-100012500D03*
D13*
X76993750Y-100012500D03*
D12*
X71703750Y-100012500D03*
D14*
X74453750Y-105092500D03*
D15*
X71993750Y-103812500D03*
D14*
X80803750Y-102552500D03*
D15*
X76993750Y-105912500D03*
%TD*%
D12*
%TO.C,K22*%
X139433750Y-100012500D03*
D13*
X134143750Y-100012500D03*
D12*
X128853750Y-100012500D03*
D14*
X131603750Y-105092500D03*
D15*
X129143750Y-103812500D03*
D14*
X137953750Y-102552500D03*
D15*
X134143750Y-105912500D03*
%TD*%
D12*
%TO.C,K23*%
X158483750Y-100012500D03*
D13*
X153193750Y-100012500D03*
D12*
X147903750Y-100012500D03*
D14*
X150653750Y-105092500D03*
D15*
X148193750Y-103812500D03*
D14*
X157003750Y-102552500D03*
D15*
X153193750Y-105912500D03*
%TD*%
D12*
%TO.C,K24*%
X177533750Y-100012500D03*
D13*
X172243750Y-100012500D03*
D12*
X166953750Y-100012500D03*
D14*
X169703750Y-105092500D03*
D15*
X167243750Y-103812500D03*
D14*
X176053750Y-102552500D03*
D15*
X172243750Y-105912500D03*
%TD*%
D12*
%TO.C,K25*%
X196583750Y-100012500D03*
D13*
X191293750Y-100012500D03*
D12*
X186003750Y-100012500D03*
D14*
X188753750Y-105092500D03*
D15*
X186293750Y-103812500D03*
D14*
X195103750Y-102552500D03*
D15*
X191293750Y-105912500D03*
%TD*%
D12*
%TO.C,K26*%
X215633750Y-100012500D03*
D13*
X210343750Y-100012500D03*
D12*
X205053750Y-100012500D03*
D14*
X207803750Y-105092500D03*
D15*
X205343750Y-103812500D03*
D14*
X214153750Y-102552500D03*
D15*
X210343750Y-105912500D03*
%TD*%
D12*
%TO.C,K27*%
X234683750Y-100012500D03*
D13*
X229393750Y-100012500D03*
D12*
X224103750Y-100012500D03*
D14*
X226853750Y-105092500D03*
D15*
X224393750Y-103812500D03*
D14*
X233203750Y-102552500D03*
D15*
X229393750Y-105912500D03*
%TD*%
D12*
%TO.C,K28*%
X253733750Y-100012500D03*
D13*
X248443750Y-100012500D03*
D12*
X243153750Y-100012500D03*
D14*
X245903750Y-105092500D03*
D15*
X243443750Y-103812500D03*
D14*
X252253750Y-102552500D03*
D15*
X248443750Y-105912500D03*
%TD*%
D12*
%TO.C,K29*%
X272783750Y-100012500D03*
D13*
X267493750Y-100012500D03*
D12*
X262203750Y-100012500D03*
D14*
X264953750Y-105092500D03*
D15*
X262493750Y-103812500D03*
D14*
X271303750Y-102552500D03*
D15*
X267493750Y-105912500D03*
%TD*%
D12*
%TO.C,K30*%
X291833750Y-100012500D03*
D13*
X286543750Y-100012500D03*
D12*
X281253750Y-100012500D03*
D14*
X284003750Y-105092500D03*
D15*
X281543750Y-103812500D03*
D14*
X290353750Y-102552500D03*
D15*
X286543750Y-105912500D03*
%TD*%
D12*
%TO.C,K31*%
X310883750Y-100012500D03*
D13*
X305593750Y-100012500D03*
D12*
X300303750Y-100012500D03*
D14*
X303053750Y-105092500D03*
D15*
X300593750Y-103812500D03*
D14*
X309403750Y-102552500D03*
D15*
X305593750Y-105912500D03*
%TD*%
D12*
%TO.C,K32*%
X329933750Y-100012500D03*
D13*
X324643750Y-100012500D03*
D12*
X319353750Y-100012500D03*
D14*
X322103750Y-105092500D03*
D15*
X319643750Y-103812500D03*
D14*
X328453750Y-102552500D03*
D15*
X324643750Y-105912500D03*
%TD*%
D12*
%TO.C,K33*%
X44183750Y-119062500D03*
D13*
X38893750Y-119062500D03*
D12*
X33603750Y-119062500D03*
D14*
X36353750Y-124142500D03*
D15*
X33893750Y-122862500D03*
D14*
X42703750Y-121602500D03*
D15*
X38893750Y-124962500D03*
%TD*%
D12*
%TO.C,K34*%
X63233750Y-119062500D03*
D13*
X57943750Y-119062500D03*
D12*
X52653750Y-119062500D03*
D14*
X55403750Y-124142500D03*
D15*
X52943750Y-122862500D03*
D14*
X61753750Y-121602500D03*
D15*
X57943750Y-124962500D03*
%TD*%
D12*
%TO.C,K35*%
X82283750Y-119062500D03*
D13*
X76993750Y-119062500D03*
D12*
X71703750Y-119062500D03*
D14*
X74453750Y-124142500D03*
D15*
X71993750Y-122862500D03*
D14*
X80803750Y-121602500D03*
D15*
X76993750Y-124962500D03*
%TD*%
D12*
%TO.C,K36*%
X101333750Y-119062500D03*
D13*
X96043750Y-119062500D03*
D12*
X90753750Y-119062500D03*
D14*
X93503750Y-124142500D03*
D15*
X91043750Y-122862500D03*
D14*
X99853750Y-121602500D03*
D15*
X96043750Y-124962500D03*
%TD*%
D12*
%TO.C,K37*%
X120383750Y-119062500D03*
D13*
X115093750Y-119062500D03*
D12*
X109803750Y-119062500D03*
D14*
X112553750Y-124142500D03*
D15*
X110093750Y-122862500D03*
D14*
X118903750Y-121602500D03*
D15*
X115093750Y-124962500D03*
%TD*%
D12*
%TO.C,K38*%
X139433750Y-119062500D03*
D13*
X134143750Y-119062500D03*
D12*
X128853750Y-119062500D03*
D14*
X131603750Y-124142500D03*
D15*
X129143750Y-122862500D03*
D14*
X137953750Y-121602500D03*
D15*
X134143750Y-124962500D03*
%TD*%
D12*
%TO.C,K39*%
X158483750Y-119062500D03*
D13*
X153193750Y-119062500D03*
D12*
X147903750Y-119062500D03*
D14*
X150653750Y-124142500D03*
D15*
X148193750Y-122862500D03*
D14*
X157003750Y-121602500D03*
D15*
X153193750Y-124962500D03*
%TD*%
D12*
%TO.C,K40*%
X177533750Y-119062500D03*
D13*
X172243750Y-119062500D03*
D12*
X166953750Y-119062500D03*
D14*
X169703750Y-124142500D03*
D15*
X167243750Y-122862500D03*
D14*
X176053750Y-121602500D03*
D15*
X172243750Y-124962500D03*
%TD*%
D12*
%TO.C,K41*%
X196583750Y-119062500D03*
D13*
X191293750Y-119062500D03*
D12*
X186003750Y-119062500D03*
D14*
X188753750Y-124142500D03*
D15*
X186293750Y-122862500D03*
D14*
X195103750Y-121602500D03*
D15*
X191293750Y-124962500D03*
%TD*%
D12*
%TO.C,K42*%
X215633750Y-119062500D03*
D13*
X210343750Y-119062500D03*
D12*
X205053750Y-119062500D03*
D14*
X207803750Y-124142500D03*
D15*
X205343750Y-122862500D03*
D14*
X214153750Y-121602500D03*
D15*
X210343750Y-124962500D03*
%TD*%
D12*
%TO.C,K43*%
X234683750Y-119062500D03*
D13*
X229393750Y-119062500D03*
D12*
X224103750Y-119062500D03*
D14*
X226853750Y-124142500D03*
D15*
X224393750Y-122862500D03*
D14*
X233203750Y-121602500D03*
D15*
X229393750Y-124962500D03*
%TD*%
D12*
%TO.C,K44*%
X253733750Y-119062500D03*
D13*
X248443750Y-119062500D03*
D12*
X243153750Y-119062500D03*
D14*
X245903750Y-124142500D03*
D15*
X243443750Y-122862500D03*
D14*
X252253750Y-121602500D03*
D15*
X248443750Y-124962500D03*
%TD*%
D12*
%TO.C,K45*%
X272783750Y-119062500D03*
D13*
X267493750Y-119062500D03*
D12*
X262203750Y-119062500D03*
D14*
X264953750Y-124142500D03*
D15*
X262493750Y-122862500D03*
D14*
X271303750Y-121602500D03*
D15*
X267493750Y-124962500D03*
%TD*%
D12*
%TO.C,K46*%
X291833750Y-119062500D03*
D13*
X286543750Y-119062500D03*
D12*
X281253750Y-119062500D03*
D14*
X284003750Y-124142500D03*
D15*
X281543750Y-122862500D03*
D14*
X290353750Y-121602500D03*
D15*
X286543750Y-124962500D03*
%TD*%
D12*
%TO.C,K47*%
X310883750Y-119062500D03*
D13*
X305593750Y-119062500D03*
D12*
X300303750Y-119062500D03*
D14*
X303053750Y-124142500D03*
D15*
X300593750Y-122862500D03*
D14*
X309403750Y-121602500D03*
D15*
X305593750Y-124962500D03*
%TD*%
D12*
%TO.C,K48*%
X329933750Y-119062500D03*
D13*
X324643750Y-119062500D03*
D12*
X319353750Y-119062500D03*
D14*
X322103750Y-124142500D03*
D15*
X319643750Y-122862500D03*
D14*
X328453750Y-121602500D03*
D15*
X324643750Y-124962500D03*
%TD*%
D12*
%TO.C,K49*%
X44183750Y-138112500D03*
D13*
X38893750Y-138112500D03*
D12*
X33603750Y-138112500D03*
D14*
X36353750Y-143192500D03*
D15*
X33893750Y-141912500D03*
D14*
X42703750Y-140652500D03*
D15*
X38893750Y-144012500D03*
%TD*%
D12*
%TO.C,K50*%
X63233750Y-138112500D03*
D13*
X57943750Y-138112500D03*
D12*
X52653750Y-138112500D03*
D14*
X55403750Y-143192500D03*
D15*
X52943750Y-141912500D03*
D14*
X61753750Y-140652500D03*
D15*
X57943750Y-144012500D03*
%TD*%
D12*
%TO.C,K51*%
X82283750Y-138112500D03*
D13*
X76993750Y-138112500D03*
D12*
X71703750Y-138112500D03*
D14*
X74453750Y-143192500D03*
D15*
X71993750Y-141912500D03*
D14*
X80803750Y-140652500D03*
D15*
X76993750Y-144012500D03*
%TD*%
D12*
%TO.C,K52*%
X101333750Y-138112500D03*
D13*
X96043750Y-138112500D03*
D12*
X90753750Y-138112500D03*
D14*
X93503750Y-143192500D03*
D15*
X91043750Y-141912500D03*
D14*
X99853750Y-140652500D03*
D15*
X96043750Y-144012500D03*
%TD*%
D12*
%TO.C,K53*%
X120383750Y-138112500D03*
D13*
X115093750Y-138112500D03*
D12*
X109803750Y-138112500D03*
D14*
X112553750Y-143192500D03*
D15*
X110093750Y-141912500D03*
D14*
X118903750Y-140652500D03*
D15*
X115093750Y-144012500D03*
%TD*%
D12*
%TO.C,K54*%
X139433750Y-138112500D03*
D13*
X134143750Y-138112500D03*
D12*
X128853750Y-138112500D03*
D14*
X131603750Y-143192500D03*
D15*
X129143750Y-141912500D03*
D14*
X137953750Y-140652500D03*
D15*
X134143750Y-144012500D03*
%TD*%
D12*
%TO.C,K55*%
X158483750Y-138112500D03*
D13*
X153193750Y-138112500D03*
D12*
X147903750Y-138112500D03*
D14*
X150653750Y-143192500D03*
D15*
X148193750Y-141912500D03*
D14*
X157003750Y-140652500D03*
D15*
X153193750Y-144012500D03*
%TD*%
D12*
%TO.C,K56*%
X177533750Y-138112500D03*
D13*
X172243750Y-138112500D03*
D12*
X166953750Y-138112500D03*
D14*
X169703750Y-143192500D03*
D15*
X167243750Y-141912500D03*
D14*
X176053750Y-140652500D03*
D15*
X172243750Y-144012500D03*
%TD*%
D12*
%TO.C,K57*%
X196583750Y-138112500D03*
D13*
X191293750Y-138112500D03*
D12*
X186003750Y-138112500D03*
D14*
X188753750Y-143192500D03*
D15*
X186293750Y-141912500D03*
D14*
X195103750Y-140652500D03*
D15*
X191293750Y-144012500D03*
%TD*%
D12*
%TO.C,K58*%
X215633750Y-138112500D03*
D13*
X210343750Y-138112500D03*
D12*
X205053750Y-138112500D03*
D14*
X207803750Y-143192500D03*
D15*
X205343750Y-141912500D03*
D14*
X214153750Y-140652500D03*
D15*
X210343750Y-144012500D03*
%TD*%
D12*
%TO.C,K59*%
X234683750Y-138112500D03*
D13*
X229393750Y-138112500D03*
D12*
X224103750Y-138112500D03*
D14*
X226853750Y-143192500D03*
D15*
X224393750Y-141912500D03*
D14*
X233203750Y-140652500D03*
D15*
X229393750Y-144012500D03*
%TD*%
D12*
%TO.C,K60*%
X253733750Y-138112500D03*
D13*
X248443750Y-138112500D03*
D12*
X243153750Y-138112500D03*
D14*
X245903750Y-143192500D03*
D15*
X243443750Y-141912500D03*
D14*
X252253750Y-140652500D03*
D15*
X248443750Y-144012500D03*
%TD*%
D12*
%TO.C,K61*%
X272783750Y-138112500D03*
D13*
X267493750Y-138112500D03*
D12*
X262203750Y-138112500D03*
D14*
X264953750Y-143192500D03*
D15*
X262493750Y-141912500D03*
D14*
X271303750Y-140652500D03*
D15*
X267493750Y-144012500D03*
%TD*%
D12*
%TO.C,K62*%
X291833750Y-138112500D03*
D13*
X286543750Y-138112500D03*
D12*
X281253750Y-138112500D03*
D14*
X284003750Y-143192500D03*
D15*
X281543750Y-141912500D03*
D14*
X290353750Y-140652500D03*
D15*
X286543750Y-144012500D03*
%TD*%
D12*
%TO.C,K63*%
X310883750Y-138112500D03*
D13*
X305593750Y-138112500D03*
D12*
X300303750Y-138112500D03*
D14*
X303053750Y-143192500D03*
D15*
X300593750Y-141912500D03*
D14*
X309403750Y-140652500D03*
D15*
X305593750Y-144012500D03*
%TD*%
D12*
%TO.C,K64*%
X329933750Y-138112500D03*
D13*
X324643750Y-138112500D03*
D12*
X319353750Y-138112500D03*
D14*
X322103750Y-143192500D03*
D15*
X319643750Y-141912500D03*
D14*
X328453750Y-140652500D03*
D15*
X324643750Y-144012500D03*
%TD*%
D12*
%TO.C,K1*%
X44183750Y-80962500D03*
D13*
X38893750Y-80962500D03*
D12*
X33603750Y-80962500D03*
D14*
X36353750Y-86042500D03*
D15*
X33893750Y-84762500D03*
D14*
X42703750Y-83502500D03*
D15*
X38893750Y-86862500D03*
%TD*%
D16*
%TO.C,H1*%
X67468750Y-90481800D03*
%TD*%
%TO.C,H2*%
X148431250Y-90487500D03*
%TD*%
%TO.C,H3*%
X215106250Y-90481800D03*
%TD*%
%TO.C,H4*%
X296063950Y-90481800D03*
%TD*%
%TO.C,H5*%
X67468750Y-128579400D03*
%TD*%
%TO.C,H6*%
X148431250Y-128585100D03*
%TD*%
D17*
%TO.C,LC1*%
X39315025Y-73596000D03*
X38345025Y-73596000D03*
%TD*%
D12*
%TO.C,K4*%
X101333750Y-80962500D03*
D13*
X96043750Y-80962500D03*
D12*
X90753750Y-80962500D03*
D14*
X93503750Y-86042500D03*
D15*
X91043750Y-84762500D03*
D14*
X99853750Y-83502500D03*
D15*
X96043750Y-86862500D03*
%TD*%
D17*
%TO.C,LC3*%
X77509250Y-73570600D03*
X76539250Y-73570600D03*
%TD*%
D12*
%TO.C,K5*%
X120383750Y-80962500D03*
D13*
X115093750Y-80962500D03*
D12*
X109803750Y-80962500D03*
D14*
X112553750Y-86042500D03*
D15*
X110093750Y-84762500D03*
D14*
X118903750Y-83502500D03*
D15*
X115093750Y-86862500D03*
%TD*%
D12*
%TO.C,K21*%
X120383750Y-100012500D03*
D13*
X115093750Y-100012500D03*
D12*
X109803750Y-100012500D03*
D14*
X112553750Y-105092500D03*
D15*
X110093750Y-103812500D03*
D14*
X118903750Y-102552500D03*
D15*
X115093750Y-105912500D03*
%TD*%
D12*
%TO.C,K20*%
X101333750Y-100012500D03*
D13*
X96043750Y-100012500D03*
D12*
X90753750Y-100012500D03*
D14*
X93503750Y-105092500D03*
D15*
X91043750Y-103812500D03*
D14*
X99853750Y-102552500D03*
D15*
X96043750Y-105912500D03*
%TD*%
D17*
%TO.C,LC10*%
X210859250Y-73596000D03*
X209889250Y-73596000D03*
%TD*%
%TO.C,LC12*%
X248959250Y-73596000D03*
X247989250Y-73596000D03*
%TD*%
%TO.C,LC6*%
X134659250Y-73596000D03*
X133689250Y-73596000D03*
%TD*%
%TO.C,LC8*%
X172759250Y-73596000D03*
X171789250Y-73596000D03*
%TD*%
%TO.C,LC9*%
X191809250Y-73596000D03*
X190839250Y-73596000D03*
%TD*%
%TO.C,LC7*%
X153709250Y-73596000D03*
X152739250Y-73596000D03*
%TD*%
%TO.C,LC5*%
X115609250Y-73596000D03*
X114639250Y-73596000D03*
%TD*%
%TO.C,LC11*%
X229909250Y-73596000D03*
X228939250Y-73596000D03*
%TD*%
%TO.C,LC13*%
X268009250Y-73596000D03*
X267039250Y-73596000D03*
%TD*%
%TO.C,LC4*%
X96559250Y-73596000D03*
X95589250Y-73596000D03*
%TD*%
%TO.C,LC14*%
X287059250Y-73596000D03*
X286089250Y-73596000D03*
%TD*%
%TO.C,LC15*%
X306109250Y-73596000D03*
X305139250Y-73596000D03*
%TD*%
%TO.C,LC16*%
X325159250Y-73596000D03*
X324189250Y-73596000D03*
%TD*%
%TO.C,LC17*%
X39409250Y-92646000D03*
X38439250Y-92646000D03*
%TD*%
%TO.C,LC18*%
X58459250Y-92646000D03*
X57489250Y-92646000D03*
%TD*%
%TO.C,LC19*%
X77509250Y-92646000D03*
X76539250Y-92646000D03*
%TD*%
%TO.C,LC20*%
X96559250Y-92646000D03*
X95589250Y-92646000D03*
%TD*%
%TO.C,LC21*%
X115621525Y-92646000D03*
X114651525Y-92646000D03*
%TD*%
%TO.C,LC22*%
X134659250Y-92646000D03*
X133689250Y-92646000D03*
%TD*%
%TO.C,LC23*%
X153709250Y-92646000D03*
X152739250Y-92646000D03*
%TD*%
%TO.C,LC24*%
X172759250Y-92646000D03*
X171789250Y-92646000D03*
%TD*%
%TO.C,LC25*%
X191878000Y-92646000D03*
X190908000Y-92646000D03*
%TD*%
%TO.C,LC26*%
X210859250Y-92646000D03*
X209889250Y-92646000D03*
%TD*%
%TO.C,LC27*%
X229909250Y-92646000D03*
X228939250Y-92646000D03*
%TD*%
%TO.C,LC28*%
X248959250Y-92646000D03*
X247989250Y-92646000D03*
%TD*%
%TO.C,LC29*%
X268009250Y-92646000D03*
X267039250Y-92646000D03*
%TD*%
%TO.C,LC30*%
X287203000Y-92646000D03*
X286233000Y-92646000D03*
%TD*%
%TO.C,LC31*%
X306109250Y-92646000D03*
X305139250Y-92646000D03*
%TD*%
%TO.C,LC32*%
X325159250Y-92646000D03*
X324189250Y-92646000D03*
%TD*%
D18*
%TO.C,LD16*%
X325418750Y-76637500D03*
X325418750Y-75537500D03*
X323918750Y-75537500D03*
X323918750Y-76637500D03*
%TD*%
%TO.C,LD17*%
X38168750Y-94587500D03*
X38168750Y-95687500D03*
X39668750Y-95687500D03*
X39668750Y-94587500D03*
%TD*%
%TO.C,LD18*%
X57218750Y-94587500D03*
X57218750Y-95687500D03*
X58718750Y-95687500D03*
X58718750Y-94587500D03*
%TD*%
%TO.C,LD19*%
X76268750Y-94587500D03*
X76268750Y-95687500D03*
X77768750Y-95687500D03*
X77768750Y-94587500D03*
%TD*%
%TO.C,LD20*%
X95318750Y-94587500D03*
X95318750Y-95687500D03*
X96818750Y-95687500D03*
X96818750Y-94587500D03*
%TD*%
%TO.C,LD21*%
X114368750Y-94587500D03*
X114368750Y-95687500D03*
X115868750Y-95687500D03*
X115868750Y-94587500D03*
%TD*%
%TO.C,LD22*%
X133418750Y-94587500D03*
X133418750Y-95687500D03*
X134918750Y-95687500D03*
X134918750Y-94587500D03*
%TD*%
%TO.C,LD23*%
X152468750Y-94587500D03*
X152468750Y-95687500D03*
X153968750Y-95687500D03*
X153968750Y-94587500D03*
%TD*%
%TO.C,LD24*%
X171518750Y-94587500D03*
X171518750Y-95687500D03*
X173018750Y-95687500D03*
X173018750Y-94587500D03*
%TD*%
%TO.C,LD25*%
X190568750Y-94587500D03*
X190568750Y-95687500D03*
X192068750Y-95687500D03*
X192068750Y-94587500D03*
%TD*%
%TO.C,LD26*%
X209618750Y-94587500D03*
X209618750Y-95687500D03*
X211118750Y-95687500D03*
X211118750Y-94587500D03*
%TD*%
%TO.C,LD27*%
X228668750Y-94587500D03*
X228668750Y-95687500D03*
X230168750Y-95687500D03*
X230168750Y-94587500D03*
%TD*%
%TO.C,LD28*%
X247718750Y-94587500D03*
X247718750Y-95687500D03*
X249218750Y-95687500D03*
X249218750Y-94587500D03*
%TD*%
%TO.C,LD29*%
X266768750Y-94587500D03*
X266768750Y-95687500D03*
X268268750Y-95687500D03*
X268268750Y-94587500D03*
%TD*%
%TO.C,LD30*%
X285818750Y-94587500D03*
X285818750Y-95687500D03*
X287318750Y-95687500D03*
X287318750Y-94587500D03*
%TD*%
%TO.C,LD32*%
X323918750Y-94587500D03*
X323918750Y-95687500D03*
X325418750Y-95687500D03*
X325418750Y-94587500D03*
%TD*%
%TO.C,LD31*%
X304868750Y-94587500D03*
X304868750Y-95687500D03*
X306368750Y-95687500D03*
X306368750Y-94587500D03*
%TD*%
%TO.C,LD15*%
X306368750Y-76637500D03*
X306368750Y-75537500D03*
X304868750Y-75537500D03*
X304868750Y-76637500D03*
%TD*%
%TO.C,LD14*%
X287318750Y-76637500D03*
X287318750Y-75537500D03*
X285818750Y-75537500D03*
X285818750Y-76637500D03*
%TD*%
%TO.C,LD12*%
X249218750Y-76637500D03*
X249218750Y-75537500D03*
X247718750Y-75537500D03*
X247718750Y-76637500D03*
%TD*%
%TO.C,LD10*%
X211118750Y-76637500D03*
X211118750Y-75537500D03*
X209618750Y-75537500D03*
X209618750Y-76637500D03*
%TD*%
%TO.C,LD13*%
X268268750Y-76637500D03*
X268268750Y-75537500D03*
X266768750Y-75537500D03*
X266768750Y-76637500D03*
%TD*%
%TO.C,LD5*%
X115868750Y-76637500D03*
X115868750Y-75537500D03*
X114368750Y-75537500D03*
X114368750Y-76637500D03*
%TD*%
%TO.C,LD11*%
X230168750Y-76637500D03*
X230168750Y-75537500D03*
X228668750Y-75537500D03*
X228668750Y-76637500D03*
%TD*%
%TO.C,LD6*%
X134918750Y-76637500D03*
X134918750Y-75537500D03*
X133418750Y-75537500D03*
X133418750Y-76637500D03*
%TD*%
%TO.C,LD7*%
X153968750Y-76637500D03*
X153968750Y-75537500D03*
X152468750Y-75537500D03*
X152468750Y-76637500D03*
%TD*%
%TO.C,LD8*%
X173018750Y-76637500D03*
X173018750Y-75537500D03*
X171518750Y-75537500D03*
X171518750Y-76637500D03*
%TD*%
%TO.C,LD9*%
X192068750Y-76637500D03*
X192068750Y-75537500D03*
X190568750Y-75537500D03*
X190568750Y-76637500D03*
%TD*%
%TO.C,LD2*%
X58718750Y-76637500D03*
X58718750Y-75537500D03*
X57218750Y-75537500D03*
X57218750Y-76637500D03*
%TD*%
%TO.C,LD1*%
X39668750Y-76637500D03*
X39668750Y-75537500D03*
X38168750Y-75537500D03*
X38168750Y-76637500D03*
%TD*%
%TO.C,LD3*%
X77768750Y-76612100D03*
X77768750Y-75512100D03*
X76268750Y-75512100D03*
X76268750Y-76612100D03*
%TD*%
%TO.C,LD4*%
X96818750Y-76637500D03*
X96818750Y-75537500D03*
X95318750Y-75537500D03*
X95318750Y-76637500D03*
%TD*%
D17*
%TO.C,LC2*%
X58459250Y-73596000D03*
X57489250Y-73596000D03*
%TD*%
D18*
%TO.C,LD56*%
X171518750Y-132887500D03*
X171518750Y-133987500D03*
X173018750Y-133987500D03*
X173018750Y-132887500D03*
%TD*%
%TO.C,LD54*%
X133418750Y-132887500D03*
X133418750Y-133987500D03*
X134918750Y-133987500D03*
X134918750Y-132887500D03*
%TD*%
D17*
%TO.C,LC36*%
X96553750Y-111737500D03*
X95583750Y-111737500D03*
%TD*%
D18*
%TO.C,LD43*%
X230168750Y-114737500D03*
X230168750Y-113637500D03*
X228668750Y-113637500D03*
X228668750Y-114737500D03*
%TD*%
%TO.C,LD47*%
X306368750Y-114737500D03*
X306368750Y-113637500D03*
X304868750Y-113637500D03*
X304868750Y-114737500D03*
%TD*%
%TO.C,LD46*%
X287318750Y-114737500D03*
X287318750Y-113637500D03*
X285818750Y-113637500D03*
X285818750Y-114737500D03*
%TD*%
%TO.C,LD60*%
X247718750Y-132887500D03*
X247718750Y-133987500D03*
X249218750Y-133987500D03*
X249218750Y-132887500D03*
%TD*%
%TO.C,LD61*%
X266768750Y-132887500D03*
X266768750Y-133987500D03*
X268268750Y-133987500D03*
X268268750Y-132887500D03*
%TD*%
%TO.C,LD36*%
X96818750Y-114737500D03*
X96818750Y-113637500D03*
X95318750Y-113637500D03*
X95318750Y-114737500D03*
%TD*%
%TO.C,LD57*%
X190568750Y-132887500D03*
X190568750Y-133987500D03*
X192068750Y-133987500D03*
X192068750Y-132887500D03*
%TD*%
D17*
%TO.C,LC61*%
X268003750Y-130787500D03*
X267033750Y-130787500D03*
%TD*%
%TO.C,LC64*%
X325153750Y-130787500D03*
X324183750Y-130787500D03*
%TD*%
%TO.C,LC39*%
X153703750Y-111737500D03*
X152733750Y-111737500D03*
%TD*%
D18*
%TO.C,LD55*%
X152468750Y-132887500D03*
X152468750Y-133987500D03*
X153968750Y-133987500D03*
X153968750Y-132887500D03*
%TD*%
%TO.C,LD64*%
X323918750Y-132887500D03*
X323918750Y-133987500D03*
X325418750Y-133987500D03*
X325418750Y-132887500D03*
%TD*%
D17*
%TO.C,LC52*%
X96553750Y-130787500D03*
X95583750Y-130787500D03*
%TD*%
D18*
%TO.C,LD53*%
X114368750Y-132887500D03*
X114368750Y-133987500D03*
X115868750Y-133987500D03*
X115868750Y-132887500D03*
%TD*%
D17*
%TO.C,LC45*%
X268003750Y-111737500D03*
X267033750Y-111737500D03*
%TD*%
D18*
%TO.C,LD38*%
X134918750Y-114737500D03*
X134918750Y-113637500D03*
X133418750Y-113637500D03*
X133418750Y-114737500D03*
%TD*%
%TO.C,LD42*%
X211118750Y-114737500D03*
X211118750Y-113637500D03*
X209618750Y-113637500D03*
X209618750Y-114737500D03*
%TD*%
D17*
%TO.C,LC35*%
X77503750Y-111737500D03*
X76533750Y-111737500D03*
%TD*%
D12*
%TO.C,K54.1*%
X138378750Y-138112500D03*
D13*
X143668750Y-138112500D03*
D12*
X148958750Y-138112500D03*
D14*
X146208750Y-133032500D03*
D15*
X148668750Y-134312500D03*
D14*
X139858750Y-135572500D03*
D15*
X143668750Y-132212500D03*
%TD*%
D17*
%TO.C,LC48*%
X325153750Y-111737500D03*
X324183750Y-111737500D03*
%TD*%
%TO.C,LC34*%
X58428750Y-111725000D03*
X57458750Y-111725000D03*
%TD*%
D18*
%TO.C,LD58*%
X209618750Y-132887500D03*
X209618750Y-133987500D03*
X211118750Y-133987500D03*
X211118750Y-132887500D03*
%TD*%
%TO.C,LD59*%
X228668750Y-132887500D03*
X228668750Y-133987500D03*
X230168750Y-133987500D03*
X230168750Y-132887500D03*
%TD*%
D16*
%TO.C,H7*%
X215106250Y-128579400D03*
%TD*%
D17*
%TO.C,LC42*%
X210853750Y-111737500D03*
X209883750Y-111737500D03*
%TD*%
%TO.C,LC59*%
X229903750Y-130787500D03*
X228933750Y-130787500D03*
%TD*%
%TO.C,LC57*%
X191803750Y-130787500D03*
X190833750Y-130787500D03*
%TD*%
%TO.C,LC49*%
X39403750Y-130787500D03*
X38433750Y-130787500D03*
%TD*%
D18*
%TO.C,LD40*%
X173018750Y-114737500D03*
X173018750Y-113637500D03*
X171518750Y-113637500D03*
X171518750Y-114737500D03*
%TD*%
D17*
%TO.C,LC43*%
X229903750Y-111737500D03*
X228933750Y-111737500D03*
%TD*%
D18*
%TO.C,LD44*%
X249218750Y-114737500D03*
X249218750Y-113637500D03*
X247718750Y-113637500D03*
X247718750Y-114737500D03*
%TD*%
%TO.C,LD34*%
X58718750Y-114737500D03*
X58718750Y-113637500D03*
X57218750Y-113637500D03*
X57218750Y-114737500D03*
%TD*%
D17*
%TO.C,LC41*%
X191803750Y-111737500D03*
X190833750Y-111737500D03*
%TD*%
D18*
%TO.C,LD62*%
X285818750Y-132887500D03*
X285818750Y-133987500D03*
X287318750Y-133987500D03*
X287318750Y-132887500D03*
%TD*%
%TO.C,LD49*%
X38168750Y-132887500D03*
X38168750Y-133987500D03*
X39668750Y-133987500D03*
X39668750Y-132887500D03*
%TD*%
%TO.C,LD35*%
X77768750Y-114737500D03*
X77768750Y-113637500D03*
X76268750Y-113637500D03*
X76268750Y-114737500D03*
%TD*%
D17*
%TO.C,LC55*%
X153703750Y-130787500D03*
X152733750Y-130787500D03*
%TD*%
D18*
%TO.C,LD37*%
X115868750Y-114737500D03*
X115868750Y-113637500D03*
X114368750Y-113637500D03*
X114368750Y-114737500D03*
%TD*%
%TO.C,LD51*%
X76268750Y-132887500D03*
X76268750Y-133987500D03*
X77768750Y-133987500D03*
X77768750Y-132887500D03*
%TD*%
D17*
%TO.C,LC62*%
X287053750Y-130787500D03*
X286083750Y-130787500D03*
%TD*%
%TO.C,LC58*%
X210788750Y-130787500D03*
X209818750Y-130787500D03*
%TD*%
%TO.C,LC53*%
X115603750Y-130787500D03*
X114633750Y-130787500D03*
%TD*%
D18*
%TO.C,LD45*%
X268268750Y-114737500D03*
X268268750Y-113637500D03*
X266768750Y-113637500D03*
X266768750Y-114737500D03*
%TD*%
%TO.C,LD50*%
X57218750Y-132887500D03*
X57218750Y-133987500D03*
X58718750Y-133987500D03*
X58718750Y-132887500D03*
%TD*%
D17*
%TO.C,LC33*%
X39328750Y-111725000D03*
X38358750Y-111725000D03*
%TD*%
%TO.C,LC54*%
X134653750Y-130787500D03*
X133683750Y-130787500D03*
%TD*%
%TO.C,LC44*%
X248953750Y-111737500D03*
X247983750Y-111737500D03*
%TD*%
D18*
%TO.C,LD48*%
X325418750Y-114737500D03*
X325418750Y-113637500D03*
X323918750Y-113637500D03*
X323918750Y-114737500D03*
%TD*%
%TO.C,LD39*%
X153968750Y-114737500D03*
X153968750Y-113637500D03*
X152468750Y-113637500D03*
X152468750Y-114737500D03*
%TD*%
%TO.C,LD33*%
X39668750Y-114737500D03*
X39668750Y-113637500D03*
X38168750Y-113637500D03*
X38168750Y-114737500D03*
%TD*%
D17*
%TO.C,LC50*%
X58453750Y-130787500D03*
X57483750Y-130787500D03*
%TD*%
D16*
%TO.C,H8*%
X296063950Y-128579400D03*
%TD*%
D12*
%TO.C,K58.1*%
X214578750Y-138112500D03*
D13*
X219868750Y-138112500D03*
D12*
X225158750Y-138112500D03*
D14*
X222408750Y-133032500D03*
D15*
X224868750Y-134312500D03*
D14*
X216058750Y-135572500D03*
D15*
X219868750Y-132212500D03*
%TD*%
D17*
%TO.C,LC51*%
X77503750Y-130787500D03*
X76533750Y-130787500D03*
%TD*%
%TO.C,LC46*%
X287053750Y-111737500D03*
X286083750Y-111737500D03*
%TD*%
D18*
%TO.C,LD41*%
X192068750Y-114737500D03*
X192068750Y-113637500D03*
X190568750Y-113637500D03*
X190568750Y-114737500D03*
%TD*%
D17*
%TO.C,LC63*%
X306103750Y-130787500D03*
X305133750Y-130787500D03*
%TD*%
%TO.C,LC56*%
X172753750Y-130787500D03*
X171783750Y-130787500D03*
%TD*%
%TO.C,LC37*%
X115553750Y-111737500D03*
X114583750Y-111737500D03*
%TD*%
%TO.C,LC60*%
X248953750Y-130787500D03*
X247983750Y-130787500D03*
%TD*%
D18*
%TO.C,LD63*%
X304868750Y-132887500D03*
X304868750Y-133987500D03*
X306368750Y-133987500D03*
X306368750Y-132887500D03*
%TD*%
D17*
%TO.C,LC40*%
X172753750Y-111737500D03*
X171783750Y-111737500D03*
%TD*%
%TO.C,LC47*%
X306103750Y-111737500D03*
X305133750Y-111737500D03*
%TD*%
%TO.C,LC38*%
X134653750Y-111737500D03*
X133683750Y-111737500D03*
%TD*%
D18*
%TO.C,LD52*%
X95318750Y-132887500D03*
X95318750Y-133987500D03*
X96818750Y-133987500D03*
X96818750Y-132887500D03*
%TD*%
D19*
%TO.C,J0*%
X47978750Y-76237500D03*
X53758750Y-76237500D03*
D20*
X46548750Y-72587500D03*
D21*
X46548750Y-76767500D03*
D20*
X55188750Y-72587500D03*
D21*
X55188750Y-76767500D03*
%TD*%
D22*
%TO.C,J2*%
X31268750Y-84417500D03*
D23*
X31268750Y-86957500D03*
X31268750Y-89497500D03*
X31268750Y-92037500D03*
X31268750Y-94577500D03*
X31268750Y-97117500D03*
%TD*%
%LPD*%
M02*
