M48
; DRILL file {KiCad 7.0.2} date Thu Jul 13 09:31:41 2023
; FORMAT={-:-/ absolute / inch / decimal}
; #@! TF.CreationDate,2023-07-13T09:31:41-04:00
; #@! TF.GenerationSoftware,Kicad,Pcbnew,7.0.2
; #@! TF.FileFunction,NonPlated,1,4,NPTH
FMAT,2
INCH
; #@! TA.AperFunction,NonPlated,NPTH,ComponentDrill
T1C0.0256
; #@! TA.AperFunction,NonPlated,NPTH,ComponentDrill
T2C0.0390
; #@! TA.AperFunction,NonPlated,NPTH,ComponentDrill
T3C0.0670
; #@! TA.AperFunction,NonPlated,NPTH,ComponentDrill
T4C0.1260
; #@! TA.AperFunction,NonPlated,NPTH,ComponentDrill
T5C0.1350
%
G90
G05
T1
X1.8889Y-3.0015
X2.1165Y-3.0015
T2
X1.3257Y-3.3529
X1.3257Y-4.1029
X1.3257Y-4.8529
X1.3257Y-5.6029
X2.0757Y-3.3529
X2.0757Y-4.1029
X2.0757Y-4.8529
X2.0757Y-5.6029
X2.8257Y-3.3524
X2.8257Y-4.1029
X2.8257Y-4.8529
X2.8257Y-5.6029
X3.5757Y-3.3529
X3.5757Y-4.1029
X3.5757Y-4.8529
X3.5757Y-5.6029
X4.3257Y-3.3529
X4.3257Y-4.1029
X4.3257Y-4.8529
X4.3257Y-5.6029
X5.0757Y-3.3529
X5.0757Y-4.1029
X5.0757Y-4.8529
X5.0757Y-5.6029
X5.4507Y-5.6029
X5.8257Y-3.3529
X5.8257Y-4.1029
X5.8257Y-4.8529
X5.8257Y-5.6029
X6.5757Y-3.3529
X6.5757Y-4.1029
X6.5757Y-4.8529
X6.5757Y-5.6029
X7.3257Y-3.3529
X7.3257Y-4.1029
X7.3257Y-4.8529
X7.3257Y-5.6029
X8.0757Y-3.3529
X8.0757Y-4.1029
X8.0757Y-4.8529
X8.0757Y-5.6029
X8.4507Y-5.6029
X8.8257Y-3.3529
X8.8257Y-4.1029
X8.8257Y-4.8529
X8.8257Y-5.6029
X9.5757Y-3.3529
X9.5757Y-4.1029
X9.5757Y-4.8529
X9.5757Y-5.6029
X10.3257Y-3.3529
X10.3257Y-4.1029
X10.3257Y-4.8529
X10.3257Y-5.6029
X11.0757Y-3.3529
X11.0757Y-4.1029
X11.0757Y-4.8529
X11.0757Y-5.6029
X11.8257Y-3.3529
X11.8257Y-4.1029
X11.8257Y-4.8529
X11.8257Y-5.6029
X12.5757Y-3.3529
X12.5757Y-4.1029
X12.5757Y-4.8529
X12.5757Y-5.6029
T3
X1.3147Y-3.1875
X1.3147Y-3.9375
X1.3147Y-4.6875
X1.3147Y-5.4375
X1.7478Y-3.1875
X1.7478Y-3.9375
X1.7478Y-4.6875
X1.7478Y-5.4375
X2.0647Y-3.1875
X2.0647Y-3.9375
X2.0647Y-4.6875
X2.0647Y-5.4375
X2.4978Y-3.1875
X2.4978Y-3.9375
X2.4978Y-4.6875
X2.4978Y-5.4375
X2.8147Y-3.187
X2.8147Y-3.9375
X2.8147Y-4.6875
X2.8147Y-5.4375
X3.2478Y-3.187
X3.2478Y-3.9375
X3.2478Y-4.6875
X3.2478Y-5.4375
X3.5647Y-3.1875
X3.5647Y-3.9375
X3.5647Y-4.6875
X3.5647Y-5.4375
X3.9978Y-3.1875
X3.9978Y-3.9375
X3.9978Y-4.6875
X3.9978Y-5.4375
X4.3147Y-3.1875
X4.3147Y-3.9375
X4.3147Y-4.6875
X4.3147Y-5.4375
X4.7478Y-3.1875
X4.7478Y-3.9375
X4.7478Y-4.6875
X4.7478Y-5.4375
X5.0647Y-3.1875
X5.0647Y-3.9375
X5.0647Y-4.6875
X5.0647Y-5.4375
X5.4978Y-3.1875
X5.4978Y-3.9375
X5.4978Y-4.6875
X5.8147Y-3.1875
X5.8147Y-3.9375
X5.8147Y-4.6875
X6.2478Y-3.1875
X6.2478Y-3.9375
X6.2478Y-4.6875
X6.2478Y-5.4375
X6.5647Y-3.1875
X6.5647Y-3.9375
X6.5647Y-4.6875
X6.5647Y-5.4375
X6.9978Y-3.1875
X6.9978Y-3.9375
X6.9978Y-4.6875
X6.9978Y-5.4375
X7.3147Y-3.1875
X7.3147Y-3.9375
X7.3147Y-4.6875
X7.3147Y-5.4375
X7.7478Y-3.1875
X7.7478Y-3.9375
X7.7478Y-4.6875
X7.7478Y-5.4375
X8.0647Y-3.1875
X8.0647Y-3.9375
X8.0647Y-4.6875
X8.0647Y-5.4375
X8.4978Y-3.1875
X8.4978Y-3.9375
X8.4978Y-4.6875
X8.8147Y-3.1875
X8.8147Y-3.9375
X8.8147Y-4.6875
X9.2478Y-3.1875
X9.2478Y-3.9375
X9.2478Y-4.6875
X9.2478Y-5.4375
X9.5647Y-3.1875
X9.5647Y-3.9375
X9.5647Y-4.6875
X9.5647Y-5.4375
X9.9978Y-3.1875
X9.9978Y-3.9375
X9.9978Y-4.6875
X9.9978Y-5.4375
X10.3147Y-3.1875
X10.3147Y-3.9375
X10.3147Y-4.6875
X10.3147Y-5.4375
X10.7478Y-3.1875
X10.7478Y-3.9375
X10.7478Y-4.6875
X10.7478Y-5.4375
X11.0647Y-3.1875
X11.0647Y-3.9375
X11.0647Y-4.6875
X11.0647Y-5.4375
X11.4978Y-3.1875
X11.4978Y-3.9375
X11.4978Y-4.6875
X11.4978Y-5.4375
X11.8147Y-3.1875
X11.8147Y-3.9375
X11.8147Y-4.6875
X11.8147Y-5.4375
X12.2478Y-3.1875
X12.2478Y-3.9375
X12.2478Y-4.6875
X12.2478Y-5.4375
X12.5647Y-3.1875
X12.5647Y-3.9375
X12.5647Y-4.6875
X12.5647Y-5.4375
X12.9978Y-3.1875
X12.9978Y-3.9375
X12.9978Y-4.6875
X12.9978Y-5.4375
T4
X2.6562Y-3.5623
X2.6562Y-5.0622
X5.8438Y-3.5625
X5.8438Y-5.0624
X8.4688Y-3.5623
X8.4688Y-5.0622
X11.6561Y-3.5623
X11.6561Y-5.0622
T5
X1.5312Y-3.1875
X1.5312Y-3.9375
X1.5312Y-4.6875
X1.5312Y-5.4375
X2.2812Y-3.1875
X2.2812Y-3.9375
X2.2812Y-4.6875
X2.2812Y-5.4375
X3.0312Y-3.187
X3.0312Y-3.9375
X3.0312Y-4.6875
X3.0312Y-5.4375
X3.7812Y-3.1875
X3.7812Y-3.9375
X3.7812Y-4.6875
X3.7812Y-5.4375
X4.5312Y-3.1875
X4.5312Y-3.9375
X4.5312Y-4.6875
X4.5312Y-5.4375
X5.2812Y-3.1875
X5.2812Y-3.9375
X5.2812Y-4.6875
X5.2812Y-5.4375
X5.6562Y-5.4375
X6.0312Y-3.1875
X6.0312Y-3.9375
X6.0312Y-4.6875
X6.0312Y-5.4375
X6.7812Y-3.1875
X6.7812Y-3.9375
X6.7812Y-4.6875
X6.7812Y-5.4375
X7.5312Y-3.1875
X7.5312Y-3.9375
X7.5312Y-4.6875
X7.5312Y-5.4375
X8.2812Y-3.1875
X8.2812Y-3.9375
X8.2812Y-4.6875
X8.2812Y-5.4375
X8.6562Y-5.4375
X9.0312Y-3.1875
X9.0312Y-3.9375
X9.0312Y-4.6875
X9.0312Y-5.4375
X9.7812Y-3.1875
X9.7812Y-3.9375
X9.7812Y-4.6875
X9.7812Y-5.4375
X10.5312Y-3.1875
X10.5312Y-3.9375
X10.5312Y-4.6875
X10.5312Y-5.4375
X11.2812Y-3.1875
X11.2812Y-3.9375
X11.2812Y-4.6875
X11.2812Y-5.4375
X12.0312Y-3.1875
X12.0312Y-3.9375
X12.0312Y-4.6875
X12.0312Y-5.4375
X12.7812Y-3.1875
X12.7812Y-3.9375
X12.7812Y-4.6875
X12.7812Y-5.4375
T3
G00X5.5067Y-5.4375
M15
G01X5.4397Y-5.4375
M16
G05
G00X5.8728Y-5.4375
M15
G01X5.8058Y-5.4375
M16
G05
G00X8.5067Y-5.4375
M15
G01X8.4397Y-5.4375
M16
G05
G00X8.8728Y-5.4375
M15
G01X8.8058Y-5.4375
M16
G05
T0
M30
