%TF.GenerationSoftware,KiCad,Pcbnew,7.0.2*%
%TF.CreationDate,2023-07-13T09:31:41-04:00*%
%TF.ProjectId,QuicksilverStorm,51756963-6b73-4696-9c76-657253746f72,Mark 2 Rev F*%
%TF.SameCoordinates,Original*%
%TF.FileFunction,Legend,Top*%
%TF.FilePolarity,Positive*%
%FSLAX46Y46*%
G04 Gerber Fmt 4.6, Leading zero omitted, Abs format (unit mm)*
G04 Created by KiCad (PCBNEW 7.0.2) date 2023-07-13 09:31:41*
%MOMM*%
%LPD*%
G01*
G04 APERTURE LIST*
G04 Aperture macros list*
%AMRoundRect*
0 Rectangle with rounded corners*
0 $1 Rounding radius*
0 $2 $3 $4 $5 $6 $7 $8 $9 X,Y pos of 4 corners*
0 Add a 4 corners polygon primitive as box body*
4,1,4,$2,$3,$4,$5,$6,$7,$8,$9,$2,$3,0*
0 Add four circle primitives for the rounded corners*
1,1,$1+$1,$2,$3*
1,1,$1+$1,$4,$5*
1,1,$1+$1,$6,$7*
1,1,$1+$1,$8,$9*
0 Add four rect primitives between the rounded corners*
20,1,$1+$1,$2,$3,$4,$5,0*
20,1,$1+$1,$4,$5,$6,$7,0*
20,1,$1+$1,$6,$7,$8,$9,0*
20,1,$1+$1,$8,$9,$2,$3,0*%
G04 Aperture macros list end*
%ADD10C,0.150000*%
%ADD11C,0.075000*%
%ADD12C,1.701800*%
%ADD13C,0.990600*%
%ADD14C,3.429000*%
%ADD15C,2.032000*%
%ADD16C,3.200000*%
%ADD17RoundRect,0.147500X0.147500X0.172500X-0.147500X0.172500X-0.147500X-0.172500X0.147500X-0.172500X0*%
%ADD18R,0.700000X0.700000*%
%ADD19O,3.403600X1.701800*%
%ADD20C,0.650000*%
%ADD21O,1.000000X1.600000*%
%ADD22O,1.000000X2.100000*%
%ADD23R,1.700000X1.700000*%
%ADD24O,1.700000X1.700000*%
G04 APERTURE END LIST*
D10*
X112188988Y-109476309D02*
X112331845Y-109523928D01*
X112331845Y-109523928D02*
X112379464Y-109571547D01*
X112379464Y-109571547D02*
X112427083Y-109666785D01*
X112427083Y-109666785D02*
X112427083Y-109809642D01*
X112427083Y-109809642D02*
X112379464Y-109904880D01*
X112379464Y-109904880D02*
X112331845Y-109952500D01*
X112331845Y-109952500D02*
X112236607Y-110000119D01*
X112236607Y-110000119D02*
X111855655Y-110000119D01*
X111855655Y-110000119D02*
X111855655Y-109000119D01*
X111855655Y-109000119D02*
X112188988Y-109000119D01*
X112188988Y-109000119D02*
X112284226Y-109047738D01*
X112284226Y-109047738D02*
X112331845Y-109095357D01*
X112331845Y-109095357D02*
X112379464Y-109190595D01*
X112379464Y-109190595D02*
X112379464Y-109285833D01*
X112379464Y-109285833D02*
X112331845Y-109381071D01*
X112331845Y-109381071D02*
X112284226Y-109428690D01*
X112284226Y-109428690D02*
X112188988Y-109476309D01*
X112188988Y-109476309D02*
X111855655Y-109476309D01*
X113284226Y-110000119D02*
X113284226Y-109476309D01*
X113284226Y-109476309D02*
X113236607Y-109381071D01*
X113236607Y-109381071D02*
X113141369Y-109333452D01*
X113141369Y-109333452D02*
X112950893Y-109333452D01*
X112950893Y-109333452D02*
X112855655Y-109381071D01*
X113284226Y-109952500D02*
X113188988Y-110000119D01*
X113188988Y-110000119D02*
X112950893Y-110000119D01*
X112950893Y-110000119D02*
X112855655Y-109952500D01*
X112855655Y-109952500D02*
X112808036Y-109857261D01*
X112808036Y-109857261D02*
X112808036Y-109762023D01*
X112808036Y-109762023D02*
X112855655Y-109666785D01*
X112855655Y-109666785D02*
X112950893Y-109619166D01*
X112950893Y-109619166D02*
X113188988Y-109619166D01*
X113188988Y-109619166D02*
X113284226Y-109571547D01*
X113617560Y-109333452D02*
X113998512Y-109333452D01*
X113760417Y-109000119D02*
X113760417Y-109857261D01*
X113760417Y-109857261D02*
X113808036Y-109952500D01*
X113808036Y-109952500D02*
X113903274Y-110000119D01*
X113903274Y-110000119D02*
X113998512Y-110000119D01*
X114760417Y-109952500D02*
X114665179Y-110000119D01*
X114665179Y-110000119D02*
X114474703Y-110000119D01*
X114474703Y-110000119D02*
X114379465Y-109952500D01*
X114379465Y-109952500D02*
X114331846Y-109904880D01*
X114331846Y-109904880D02*
X114284227Y-109809642D01*
X114284227Y-109809642D02*
X114284227Y-109523928D01*
X114284227Y-109523928D02*
X114331846Y-109428690D01*
X114331846Y-109428690D02*
X114379465Y-109381071D01*
X114379465Y-109381071D02*
X114474703Y-109333452D01*
X114474703Y-109333452D02*
X114665179Y-109333452D01*
X114665179Y-109333452D02*
X114760417Y-109381071D01*
X115188989Y-110000119D02*
X115188989Y-109000119D01*
X115617560Y-110000119D02*
X115617560Y-109476309D01*
X115617560Y-109476309D02*
X115569941Y-109381071D01*
X115569941Y-109381071D02*
X115474703Y-109333452D01*
X115474703Y-109333452D02*
X115331846Y-109333452D01*
X115331846Y-109333452D02*
X115236608Y-109381071D01*
X115236608Y-109381071D02*
X115188989Y-109428690D01*
X116855656Y-110000119D02*
X116855656Y-109000119D01*
X117331846Y-110000119D02*
X117331846Y-109000119D01*
X117331846Y-109000119D02*
X117569941Y-109000119D01*
X117569941Y-109000119D02*
X117712798Y-109047738D01*
X117712798Y-109047738D02*
X117808036Y-109142976D01*
X117808036Y-109142976D02*
X117855655Y-109238214D01*
X117855655Y-109238214D02*
X117903274Y-109428690D01*
X117903274Y-109428690D02*
X117903274Y-109571547D01*
X117903274Y-109571547D02*
X117855655Y-109762023D01*
X117855655Y-109762023D02*
X117808036Y-109857261D01*
X117808036Y-109857261D02*
X117712798Y-109952500D01*
X117712798Y-109952500D02*
X117569941Y-110000119D01*
X117569941Y-110000119D02*
X117331846Y-110000119D01*
X118331846Y-109904880D02*
X118379465Y-109952500D01*
X118379465Y-109952500D02*
X118331846Y-110000119D01*
X118331846Y-110000119D02*
X118284227Y-109952500D01*
X118284227Y-109952500D02*
X118331846Y-109904880D01*
X118331846Y-109904880D02*
X118331846Y-110000119D01*
X118331846Y-109381071D02*
X118379465Y-109428690D01*
X118379465Y-109428690D02*
X118331846Y-109476309D01*
X118331846Y-109476309D02*
X118284227Y-109428690D01*
X118284227Y-109428690D02*
X118331846Y-109381071D01*
X118331846Y-109381071D02*
X118331846Y-109476309D01*
X119205951Y-109063619D02*
X119205951Y-109777904D01*
X119205951Y-109777904D02*
X119158332Y-109920761D01*
X119158332Y-109920761D02*
X119063094Y-110016000D01*
X119063094Y-110016000D02*
X118920237Y-110063619D01*
X118920237Y-110063619D02*
X118824999Y-110063619D01*
X120158332Y-110063619D02*
X119682142Y-110063619D01*
X119682142Y-110063619D02*
X119682142Y-109063619D01*
X121063094Y-109968380D02*
X121015475Y-110016000D01*
X121015475Y-110016000D02*
X120872618Y-110063619D01*
X120872618Y-110063619D02*
X120777380Y-110063619D01*
X120777380Y-110063619D02*
X120634523Y-110016000D01*
X120634523Y-110016000D02*
X120539285Y-109920761D01*
X120539285Y-109920761D02*
X120491666Y-109825523D01*
X120491666Y-109825523D02*
X120444047Y-109635047D01*
X120444047Y-109635047D02*
X120444047Y-109492190D01*
X120444047Y-109492190D02*
X120491666Y-109301714D01*
X120491666Y-109301714D02*
X120539285Y-109206476D01*
X120539285Y-109206476D02*
X120634523Y-109111238D01*
X120634523Y-109111238D02*
X120777380Y-109063619D01*
X120777380Y-109063619D02*
X120872618Y-109063619D01*
X120872618Y-109063619D02*
X121015475Y-109111238D01*
X121015475Y-109111238D02*
X121063094Y-109158857D01*
X121777380Y-109063619D02*
X121777380Y-109777904D01*
X121777380Y-109777904D02*
X121729761Y-109920761D01*
X121729761Y-109920761D02*
X121634523Y-110016000D01*
X121634523Y-110016000D02*
X121491666Y-110063619D01*
X121491666Y-110063619D02*
X121396428Y-110063619D01*
X122729761Y-110063619D02*
X122253571Y-110063619D01*
X122253571Y-110063619D02*
X122253571Y-109063619D01*
X123634523Y-109968380D02*
X123586904Y-110016000D01*
X123586904Y-110016000D02*
X123444047Y-110063619D01*
X123444047Y-110063619D02*
X123348809Y-110063619D01*
X123348809Y-110063619D02*
X123205952Y-110016000D01*
X123205952Y-110016000D02*
X123110714Y-109920761D01*
X123110714Y-109920761D02*
X123063095Y-109825523D01*
X123063095Y-109825523D02*
X123015476Y-109635047D01*
X123015476Y-109635047D02*
X123015476Y-109492190D01*
X123015476Y-109492190D02*
X123063095Y-109301714D01*
X123063095Y-109301714D02*
X123110714Y-109206476D01*
X123110714Y-109206476D02*
X123205952Y-109111238D01*
X123205952Y-109111238D02*
X123348809Y-109063619D01*
X123348809Y-109063619D02*
X123444047Y-109063619D01*
X123444047Y-109063619D02*
X123586904Y-109111238D01*
X123586904Y-109111238D02*
X123634523Y-109158857D01*
X124348809Y-109063619D02*
X124348809Y-109777904D01*
X124348809Y-109777904D02*
X124301190Y-109920761D01*
X124301190Y-109920761D02*
X124205952Y-110016000D01*
X124205952Y-110016000D02*
X124063095Y-110063619D01*
X124063095Y-110063619D02*
X123967857Y-110063619D01*
X125301190Y-110063619D02*
X124825000Y-110063619D01*
X124825000Y-110063619D02*
X124825000Y-109063619D01*
X126205952Y-109968380D02*
X126158333Y-110016000D01*
X126158333Y-110016000D02*
X126015476Y-110063619D01*
X126015476Y-110063619D02*
X125920238Y-110063619D01*
X125920238Y-110063619D02*
X125777381Y-110016000D01*
X125777381Y-110016000D02*
X125682143Y-109920761D01*
X125682143Y-109920761D02*
X125634524Y-109825523D01*
X125634524Y-109825523D02*
X125586905Y-109635047D01*
X125586905Y-109635047D02*
X125586905Y-109492190D01*
X125586905Y-109492190D02*
X125634524Y-109301714D01*
X125634524Y-109301714D02*
X125682143Y-109206476D01*
X125682143Y-109206476D02*
X125777381Y-109111238D01*
X125777381Y-109111238D02*
X125920238Y-109063619D01*
X125920238Y-109063619D02*
X126015476Y-109063619D01*
X126015476Y-109063619D02*
X126158333Y-109111238D01*
X126158333Y-109111238D02*
X126205952Y-109158857D01*
X126920238Y-109063619D02*
X126920238Y-109777904D01*
X126920238Y-109777904D02*
X126872619Y-109920761D01*
X126872619Y-109920761D02*
X126777381Y-110016000D01*
X126777381Y-110016000D02*
X126634524Y-110063619D01*
X126634524Y-110063619D02*
X126539286Y-110063619D01*
X127872619Y-110063619D02*
X127396429Y-110063619D01*
X127396429Y-110063619D02*
X127396429Y-109063619D01*
X128777381Y-109968380D02*
X128729762Y-110016000D01*
X128729762Y-110016000D02*
X128586905Y-110063619D01*
X128586905Y-110063619D02*
X128491667Y-110063619D01*
X128491667Y-110063619D02*
X128348810Y-110016000D01*
X128348810Y-110016000D02*
X128253572Y-109920761D01*
X128253572Y-109920761D02*
X128205953Y-109825523D01*
X128205953Y-109825523D02*
X128158334Y-109635047D01*
X128158334Y-109635047D02*
X128158334Y-109492190D01*
X128158334Y-109492190D02*
X128205953Y-109301714D01*
X128205953Y-109301714D02*
X128253572Y-109206476D01*
X128253572Y-109206476D02*
X128348810Y-109111238D01*
X128348810Y-109111238D02*
X128491667Y-109063619D01*
X128491667Y-109063619D02*
X128586905Y-109063619D01*
X128586905Y-109063619D02*
X128729762Y-109111238D01*
X128729762Y-109111238D02*
X128777381Y-109158857D01*
%TO.C,H1*%
X66706845Y-86744419D02*
X66706845Y-85744419D01*
X66706845Y-86220609D02*
X67278273Y-86220609D01*
X67278273Y-86744419D02*
X67278273Y-85744419D01*
X68278273Y-86744419D02*
X67706845Y-86744419D01*
X67992559Y-86744419D02*
X67992559Y-85744419D01*
X67992559Y-85744419D02*
X67897321Y-85887276D01*
X67897321Y-85887276D02*
X67802083Y-85982514D01*
X67802083Y-85982514D02*
X67706845Y-86030133D01*
%TO.C,H2*%
X147669345Y-86750119D02*
X147669345Y-85750119D01*
X147669345Y-86226309D02*
X148240773Y-86226309D01*
X148240773Y-86750119D02*
X148240773Y-85750119D01*
X148669345Y-85845357D02*
X148716964Y-85797738D01*
X148716964Y-85797738D02*
X148812202Y-85750119D01*
X148812202Y-85750119D02*
X149050297Y-85750119D01*
X149050297Y-85750119D02*
X149145535Y-85797738D01*
X149145535Y-85797738D02*
X149193154Y-85845357D01*
X149193154Y-85845357D02*
X149240773Y-85940595D01*
X149240773Y-85940595D02*
X149240773Y-86035833D01*
X149240773Y-86035833D02*
X149193154Y-86178690D01*
X149193154Y-86178690D02*
X148621726Y-86750119D01*
X148621726Y-86750119D02*
X149240773Y-86750119D01*
%TO.C,H3*%
X214344345Y-86744419D02*
X214344345Y-85744419D01*
X214344345Y-86220609D02*
X214915773Y-86220609D01*
X214915773Y-86744419D02*
X214915773Y-85744419D01*
X215296726Y-85744419D02*
X215915773Y-85744419D01*
X215915773Y-85744419D02*
X215582440Y-86125371D01*
X215582440Y-86125371D02*
X215725297Y-86125371D01*
X215725297Y-86125371D02*
X215820535Y-86172990D01*
X215820535Y-86172990D02*
X215868154Y-86220609D01*
X215868154Y-86220609D02*
X215915773Y-86315847D01*
X215915773Y-86315847D02*
X215915773Y-86553942D01*
X215915773Y-86553942D02*
X215868154Y-86649180D01*
X215868154Y-86649180D02*
X215820535Y-86696800D01*
X215820535Y-86696800D02*
X215725297Y-86744419D01*
X215725297Y-86744419D02*
X215439583Y-86744419D01*
X215439583Y-86744419D02*
X215344345Y-86696800D01*
X215344345Y-86696800D02*
X215296726Y-86649180D01*
%TO.C,H4*%
X295302045Y-86744419D02*
X295302045Y-85744419D01*
X295302045Y-86220609D02*
X295873473Y-86220609D01*
X295873473Y-86744419D02*
X295873473Y-85744419D01*
X296778235Y-86077752D02*
X296778235Y-86744419D01*
X296540140Y-85696800D02*
X296302045Y-86411085D01*
X296302045Y-86411085D02*
X296921092Y-86411085D01*
%TO.C,H5*%
X66706845Y-133242019D02*
X66706845Y-132242019D01*
X66706845Y-132718209D02*
X67278273Y-132718209D01*
X67278273Y-133242019D02*
X67278273Y-132242019D01*
X68230654Y-132242019D02*
X67754464Y-132242019D01*
X67754464Y-132242019D02*
X67706845Y-132718209D01*
X67706845Y-132718209D02*
X67754464Y-132670590D01*
X67754464Y-132670590D02*
X67849702Y-132622971D01*
X67849702Y-132622971D02*
X68087797Y-132622971D01*
X68087797Y-132622971D02*
X68183035Y-132670590D01*
X68183035Y-132670590D02*
X68230654Y-132718209D01*
X68230654Y-132718209D02*
X68278273Y-132813447D01*
X68278273Y-132813447D02*
X68278273Y-133051542D01*
X68278273Y-133051542D02*
X68230654Y-133146780D01*
X68230654Y-133146780D02*
X68183035Y-133194400D01*
X68183035Y-133194400D02*
X68087797Y-133242019D01*
X68087797Y-133242019D02*
X67849702Y-133242019D01*
X67849702Y-133242019D02*
X67754464Y-133194400D01*
X67754464Y-133194400D02*
X67706845Y-133146780D01*
%TO.C,H6*%
X147669345Y-133100119D02*
X147669345Y-132100119D01*
X147669345Y-132576309D02*
X148240773Y-132576309D01*
X148240773Y-133100119D02*
X148240773Y-132100119D01*
X149145535Y-132100119D02*
X148955059Y-132100119D01*
X148955059Y-132100119D02*
X148859821Y-132147738D01*
X148859821Y-132147738D02*
X148812202Y-132195357D01*
X148812202Y-132195357D02*
X148716964Y-132338214D01*
X148716964Y-132338214D02*
X148669345Y-132528690D01*
X148669345Y-132528690D02*
X148669345Y-132909642D01*
X148669345Y-132909642D02*
X148716964Y-133004880D01*
X148716964Y-133004880D02*
X148764583Y-133052500D01*
X148764583Y-133052500D02*
X148859821Y-133100119D01*
X148859821Y-133100119D02*
X149050297Y-133100119D01*
X149050297Y-133100119D02*
X149145535Y-133052500D01*
X149145535Y-133052500D02*
X149193154Y-133004880D01*
X149193154Y-133004880D02*
X149240773Y-132909642D01*
X149240773Y-132909642D02*
X149240773Y-132671547D01*
X149240773Y-132671547D02*
X149193154Y-132576309D01*
X149193154Y-132576309D02*
X149145535Y-132528690D01*
X149145535Y-132528690D02*
X149050297Y-132481071D01*
X149050297Y-132481071D02*
X148859821Y-132481071D01*
X148859821Y-132481071D02*
X148764583Y-132528690D01*
X148764583Y-132528690D02*
X148716964Y-132576309D01*
X148716964Y-132576309D02*
X148669345Y-132671547D01*
%TO.C,H7*%
X214344345Y-133100119D02*
X214344345Y-132100119D01*
X214344345Y-132576309D02*
X214915773Y-132576309D01*
X214915773Y-133100119D02*
X214915773Y-132100119D01*
X215296726Y-132100119D02*
X215963392Y-132100119D01*
X215963392Y-132100119D02*
X215534821Y-133100119D01*
%TO.C,H8*%
X295302045Y-133242019D02*
X295302045Y-132242019D01*
X295302045Y-132718209D02*
X295873473Y-132718209D01*
X295873473Y-133242019D02*
X295873473Y-132242019D01*
X296492521Y-132670590D02*
X296397283Y-132622971D01*
X296397283Y-132622971D02*
X296349664Y-132575352D01*
X296349664Y-132575352D02*
X296302045Y-132480114D01*
X296302045Y-132480114D02*
X296302045Y-132432495D01*
X296302045Y-132432495D02*
X296349664Y-132337257D01*
X296349664Y-132337257D02*
X296397283Y-132289638D01*
X296397283Y-132289638D02*
X296492521Y-132242019D01*
X296492521Y-132242019D02*
X296682997Y-132242019D01*
X296682997Y-132242019D02*
X296778235Y-132289638D01*
X296778235Y-132289638D02*
X296825854Y-132337257D01*
X296825854Y-132337257D02*
X296873473Y-132432495D01*
X296873473Y-132432495D02*
X296873473Y-132480114D01*
X296873473Y-132480114D02*
X296825854Y-132575352D01*
X296825854Y-132575352D02*
X296778235Y-132622971D01*
X296778235Y-132622971D02*
X296682997Y-132670590D01*
X296682997Y-132670590D02*
X296492521Y-132670590D01*
X296492521Y-132670590D02*
X296397283Y-132718209D01*
X296397283Y-132718209D02*
X296349664Y-132765828D01*
X296349664Y-132765828D02*
X296302045Y-132861066D01*
X296302045Y-132861066D02*
X296302045Y-133051542D01*
X296302045Y-133051542D02*
X296349664Y-133146780D01*
X296349664Y-133146780D02*
X296397283Y-133194400D01*
X296397283Y-133194400D02*
X296492521Y-133242019D01*
X296492521Y-133242019D02*
X296682997Y-133242019D01*
X296682997Y-133242019D02*
X296778235Y-133194400D01*
X296778235Y-133194400D02*
X296825854Y-133146780D01*
X296825854Y-133146780D02*
X296873473Y-133051542D01*
X296873473Y-133051542D02*
X296873473Y-132861066D01*
X296873473Y-132861066D02*
X296825854Y-132765828D01*
X296825854Y-132765828D02*
X296778235Y-132718209D01*
X296778235Y-132718209D02*
X296682997Y-132670590D01*
%TO.C,K2*%
X50943750Y-74962500D02*
X50943750Y-73962500D01*
X50943750Y-87962500D02*
X50943750Y-86962500D01*
X50943750Y-87962500D02*
X51943750Y-87962500D01*
X51943750Y-73962500D02*
X50943750Y-73962500D01*
X63943750Y-87962500D02*
X64943750Y-87962500D01*
X64943750Y-73962500D02*
X63943750Y-73962500D01*
X64943750Y-73962500D02*
X64943750Y-74962500D01*
X64943750Y-86962500D02*
X64943750Y-87962500D01*
%TO.C,K3*%
X69993750Y-74949800D02*
X69993750Y-73949800D01*
X69993750Y-87949800D02*
X69993750Y-86949800D01*
X69993750Y-87949800D02*
X70993750Y-87949800D01*
X70993750Y-73949800D02*
X69993750Y-73949800D01*
X82993750Y-87949800D02*
X83993750Y-87949800D01*
X83993750Y-73949800D02*
X82993750Y-73949800D01*
X83993750Y-73949800D02*
X83993750Y-74949800D01*
X83993750Y-86949800D02*
X83993750Y-87949800D01*
%TO.C,K6*%
X127143750Y-74962500D02*
X127143750Y-73962500D01*
X127143750Y-87962500D02*
X127143750Y-86962500D01*
X127143750Y-87962500D02*
X128143750Y-87962500D01*
X128143750Y-73962500D02*
X127143750Y-73962500D01*
X140143750Y-87962500D02*
X141143750Y-87962500D01*
X141143750Y-73962500D02*
X140143750Y-73962500D01*
X141143750Y-73962500D02*
X141143750Y-74962500D01*
X141143750Y-86962500D02*
X141143750Y-87962500D01*
%TO.C,K7*%
X146193750Y-74962500D02*
X146193750Y-73962500D01*
X146193750Y-87962500D02*
X146193750Y-86962500D01*
X146193750Y-87962500D02*
X147193750Y-87962500D01*
X147193750Y-73962500D02*
X146193750Y-73962500D01*
X159193750Y-87962500D02*
X160193750Y-87962500D01*
X160193750Y-73962500D02*
X159193750Y-73962500D01*
X160193750Y-73962500D02*
X160193750Y-74962500D01*
X160193750Y-86962500D02*
X160193750Y-87962500D01*
%TO.C,K8*%
X165243750Y-74962500D02*
X165243750Y-73962500D01*
X165243750Y-87962500D02*
X165243750Y-86962500D01*
X165243750Y-87962500D02*
X166243750Y-87962500D01*
X166243750Y-73962500D02*
X165243750Y-73962500D01*
X178243750Y-87962500D02*
X179243750Y-87962500D01*
X179243750Y-73962500D02*
X178243750Y-73962500D01*
X179243750Y-73962500D02*
X179243750Y-74962500D01*
X179243750Y-86962500D02*
X179243750Y-87962500D01*
%TO.C,K9*%
X184293750Y-74962500D02*
X184293750Y-73962500D01*
X184293750Y-87962500D02*
X184293750Y-86962500D01*
X184293750Y-87962500D02*
X185293750Y-87962500D01*
X185293750Y-73962500D02*
X184293750Y-73962500D01*
X197293750Y-87962500D02*
X198293750Y-87962500D01*
X198293750Y-73962500D02*
X197293750Y-73962500D01*
X198293750Y-73962500D02*
X198293750Y-74962500D01*
X198293750Y-86962500D02*
X198293750Y-87962500D01*
%TO.C,K10*%
X203343750Y-74962500D02*
X203343750Y-73962500D01*
X203343750Y-87962500D02*
X203343750Y-86962500D01*
X203343750Y-87962500D02*
X204343750Y-87962500D01*
X204343750Y-73962500D02*
X203343750Y-73962500D01*
X216343750Y-87962500D02*
X217343750Y-87962500D01*
X217343750Y-73962500D02*
X216343750Y-73962500D01*
X217343750Y-73962500D02*
X217343750Y-74962500D01*
X217343750Y-86962500D02*
X217343750Y-87962500D01*
%TO.C,K11*%
X222393750Y-74962500D02*
X222393750Y-73962500D01*
X222393750Y-87962500D02*
X222393750Y-86962500D01*
X222393750Y-87962500D02*
X223393750Y-87962500D01*
X223393750Y-73962500D02*
X222393750Y-73962500D01*
X235393750Y-87962500D02*
X236393750Y-87962500D01*
X236393750Y-73962500D02*
X235393750Y-73962500D01*
X236393750Y-73962500D02*
X236393750Y-74962500D01*
X236393750Y-86962500D02*
X236393750Y-87962500D01*
%TO.C,K12*%
X241443750Y-74962500D02*
X241443750Y-73962500D01*
X241443750Y-87962500D02*
X241443750Y-86962500D01*
X241443750Y-87962500D02*
X242443750Y-87962500D01*
X242443750Y-73962500D02*
X241443750Y-73962500D01*
X254443750Y-87962500D02*
X255443750Y-87962500D01*
X255443750Y-73962500D02*
X254443750Y-73962500D01*
X255443750Y-73962500D02*
X255443750Y-74962500D01*
X255443750Y-86962500D02*
X255443750Y-87962500D01*
%TO.C,K13*%
X260493750Y-74962500D02*
X260493750Y-73962500D01*
X260493750Y-87962500D02*
X260493750Y-86962500D01*
X260493750Y-87962500D02*
X261493750Y-87962500D01*
X261493750Y-73962500D02*
X260493750Y-73962500D01*
X273493750Y-87962500D02*
X274493750Y-87962500D01*
X274493750Y-73962500D02*
X273493750Y-73962500D01*
X274493750Y-73962500D02*
X274493750Y-74962500D01*
X274493750Y-86962500D02*
X274493750Y-87962500D01*
%TO.C,K14*%
X279543750Y-74962500D02*
X279543750Y-73962500D01*
X279543750Y-87962500D02*
X279543750Y-86962500D01*
X279543750Y-87962500D02*
X280543750Y-87962500D01*
X280543750Y-73962500D02*
X279543750Y-73962500D01*
X292543750Y-87962500D02*
X293543750Y-87962500D01*
X293543750Y-73962500D02*
X292543750Y-73962500D01*
X293543750Y-73962500D02*
X293543750Y-74962500D01*
X293543750Y-86962500D02*
X293543750Y-87962500D01*
%TO.C,K15*%
X298593750Y-74962500D02*
X298593750Y-73962500D01*
X298593750Y-87962500D02*
X298593750Y-86962500D01*
X298593750Y-87962500D02*
X299593750Y-87962500D01*
X299593750Y-73962500D02*
X298593750Y-73962500D01*
X311593750Y-87962500D02*
X312593750Y-87962500D01*
X312593750Y-73962500D02*
X311593750Y-73962500D01*
X312593750Y-73962500D02*
X312593750Y-74962500D01*
X312593750Y-86962500D02*
X312593750Y-87962500D01*
%TO.C,K16*%
X317643750Y-74962500D02*
X317643750Y-73962500D01*
X317643750Y-87962500D02*
X317643750Y-86962500D01*
X317643750Y-87962500D02*
X318643750Y-87962500D01*
X318643750Y-73962500D02*
X317643750Y-73962500D01*
X330643750Y-87962500D02*
X331643750Y-87962500D01*
X331643750Y-73962500D02*
X330643750Y-73962500D01*
X331643750Y-73962500D02*
X331643750Y-74962500D01*
X331643750Y-86962500D02*
X331643750Y-87962500D01*
%TO.C,K17*%
X31893750Y-94012500D02*
X31893750Y-93012500D01*
X31893750Y-107012500D02*
X31893750Y-106012500D01*
X31893750Y-107012500D02*
X32893750Y-107012500D01*
X32893750Y-93012500D02*
X31893750Y-93012500D01*
X44893750Y-107012500D02*
X45893750Y-107012500D01*
X45893750Y-93012500D02*
X44893750Y-93012500D01*
X45893750Y-93012500D02*
X45893750Y-94012500D01*
X45893750Y-106012500D02*
X45893750Y-107012500D01*
%TO.C,K18*%
X50943750Y-94012500D02*
X50943750Y-93012500D01*
X50943750Y-107012500D02*
X50943750Y-106012500D01*
X50943750Y-107012500D02*
X51943750Y-107012500D01*
X51943750Y-93012500D02*
X50943750Y-93012500D01*
X63943750Y-107012500D02*
X64943750Y-107012500D01*
X64943750Y-93012500D02*
X63943750Y-93012500D01*
X64943750Y-93012500D02*
X64943750Y-94012500D01*
X64943750Y-106012500D02*
X64943750Y-107012500D01*
%TO.C,K19*%
X69993750Y-94012500D02*
X69993750Y-93012500D01*
X69993750Y-107012500D02*
X69993750Y-106012500D01*
X69993750Y-107012500D02*
X70993750Y-107012500D01*
X70993750Y-93012500D02*
X69993750Y-93012500D01*
X82993750Y-107012500D02*
X83993750Y-107012500D01*
X83993750Y-93012500D02*
X82993750Y-93012500D01*
X83993750Y-93012500D02*
X83993750Y-94012500D01*
X83993750Y-106012500D02*
X83993750Y-107012500D01*
%TO.C,K22*%
X127143750Y-94012500D02*
X127143750Y-93012500D01*
X127143750Y-107012500D02*
X127143750Y-106012500D01*
X127143750Y-107012500D02*
X128143750Y-107012500D01*
X128143750Y-93012500D02*
X127143750Y-93012500D01*
X140143750Y-107012500D02*
X141143750Y-107012500D01*
X141143750Y-93012500D02*
X140143750Y-93012500D01*
X141143750Y-93012500D02*
X141143750Y-94012500D01*
X141143750Y-106012500D02*
X141143750Y-107012500D01*
%TO.C,K23*%
X146193750Y-94012500D02*
X146193750Y-93012500D01*
X146193750Y-107012500D02*
X146193750Y-106012500D01*
X146193750Y-107012500D02*
X147193750Y-107012500D01*
X147193750Y-93012500D02*
X146193750Y-93012500D01*
X159193750Y-107012500D02*
X160193750Y-107012500D01*
X160193750Y-93012500D02*
X159193750Y-93012500D01*
X160193750Y-93012500D02*
X160193750Y-94012500D01*
X160193750Y-106012500D02*
X160193750Y-107012500D01*
%TO.C,K24*%
X165243750Y-94012500D02*
X165243750Y-93012500D01*
X165243750Y-107012500D02*
X165243750Y-106012500D01*
X165243750Y-107012500D02*
X166243750Y-107012500D01*
X166243750Y-93012500D02*
X165243750Y-93012500D01*
X178243750Y-107012500D02*
X179243750Y-107012500D01*
X179243750Y-93012500D02*
X178243750Y-93012500D01*
X179243750Y-93012500D02*
X179243750Y-94012500D01*
X179243750Y-106012500D02*
X179243750Y-107012500D01*
%TO.C,K25*%
X184293750Y-94012500D02*
X184293750Y-93012500D01*
X184293750Y-107012500D02*
X184293750Y-106012500D01*
X184293750Y-107012500D02*
X185293750Y-107012500D01*
X185293750Y-93012500D02*
X184293750Y-93012500D01*
X197293750Y-107012500D02*
X198293750Y-107012500D01*
X198293750Y-93012500D02*
X197293750Y-93012500D01*
X198293750Y-93012500D02*
X198293750Y-94012500D01*
X198293750Y-106012500D02*
X198293750Y-107012500D01*
%TO.C,K26*%
X203343750Y-94012500D02*
X203343750Y-93012500D01*
X203343750Y-107012500D02*
X203343750Y-106012500D01*
X203343750Y-107012500D02*
X204343750Y-107012500D01*
X204343750Y-93012500D02*
X203343750Y-93012500D01*
X216343750Y-107012500D02*
X217343750Y-107012500D01*
X217343750Y-93012500D02*
X216343750Y-93012500D01*
X217343750Y-93012500D02*
X217343750Y-94012500D01*
X217343750Y-106012500D02*
X217343750Y-107012500D01*
%TO.C,K27*%
X222393750Y-94012500D02*
X222393750Y-93012500D01*
X222393750Y-107012500D02*
X222393750Y-106012500D01*
X222393750Y-107012500D02*
X223393750Y-107012500D01*
X223393750Y-93012500D02*
X222393750Y-93012500D01*
X235393750Y-107012500D02*
X236393750Y-107012500D01*
X236393750Y-93012500D02*
X235393750Y-93012500D01*
X236393750Y-93012500D02*
X236393750Y-94012500D01*
X236393750Y-106012500D02*
X236393750Y-107012500D01*
%TO.C,K28*%
X241443750Y-94012500D02*
X241443750Y-93012500D01*
X241443750Y-107012500D02*
X241443750Y-106012500D01*
X241443750Y-107012500D02*
X242443750Y-107012500D01*
X242443750Y-93012500D02*
X241443750Y-93012500D01*
X254443750Y-107012500D02*
X255443750Y-107012500D01*
X255443750Y-93012500D02*
X254443750Y-93012500D01*
X255443750Y-93012500D02*
X255443750Y-94012500D01*
X255443750Y-106012500D02*
X255443750Y-107012500D01*
%TO.C,K29*%
X260493750Y-94012500D02*
X260493750Y-93012500D01*
X260493750Y-107012500D02*
X260493750Y-106012500D01*
X260493750Y-107012500D02*
X261493750Y-107012500D01*
X261493750Y-93012500D02*
X260493750Y-93012500D01*
X273493750Y-107012500D02*
X274493750Y-107012500D01*
X274493750Y-93012500D02*
X273493750Y-93012500D01*
X274493750Y-93012500D02*
X274493750Y-94012500D01*
X274493750Y-106012500D02*
X274493750Y-107012500D01*
%TO.C,K30*%
X279543750Y-94012500D02*
X279543750Y-93012500D01*
X279543750Y-107012500D02*
X279543750Y-106012500D01*
X279543750Y-107012500D02*
X280543750Y-107012500D01*
X280543750Y-93012500D02*
X279543750Y-93012500D01*
X292543750Y-107012500D02*
X293543750Y-107012500D01*
X293543750Y-93012500D02*
X292543750Y-93012500D01*
X293543750Y-93012500D02*
X293543750Y-94012500D01*
X293543750Y-106012500D02*
X293543750Y-107012500D01*
%TO.C,K31*%
X298593750Y-94012500D02*
X298593750Y-93012500D01*
X298593750Y-107012500D02*
X298593750Y-106012500D01*
X298593750Y-107012500D02*
X299593750Y-107012500D01*
X299593750Y-93012500D02*
X298593750Y-93012500D01*
X311593750Y-107012500D02*
X312593750Y-107012500D01*
X312593750Y-93012500D02*
X311593750Y-93012500D01*
X312593750Y-93012500D02*
X312593750Y-94012500D01*
X312593750Y-106012500D02*
X312593750Y-107012500D01*
%TO.C,K32*%
X317643750Y-94012500D02*
X317643750Y-93012500D01*
X317643750Y-107012500D02*
X317643750Y-106012500D01*
X317643750Y-107012500D02*
X318643750Y-107012500D01*
X318643750Y-93012500D02*
X317643750Y-93012500D01*
X330643750Y-107012500D02*
X331643750Y-107012500D01*
X331643750Y-93012500D02*
X330643750Y-93012500D01*
X331643750Y-93012500D02*
X331643750Y-94012500D01*
X331643750Y-106012500D02*
X331643750Y-107012500D01*
%TO.C,K33*%
X31893750Y-113062500D02*
X31893750Y-112062500D01*
X31893750Y-126062500D02*
X31893750Y-125062500D01*
X31893750Y-126062500D02*
X32893750Y-126062500D01*
X32893750Y-112062500D02*
X31893750Y-112062500D01*
X44893750Y-126062500D02*
X45893750Y-126062500D01*
X45893750Y-112062500D02*
X44893750Y-112062500D01*
X45893750Y-112062500D02*
X45893750Y-113062500D01*
X45893750Y-125062500D02*
X45893750Y-126062500D01*
%TO.C,K34*%
X50943750Y-113062500D02*
X50943750Y-112062500D01*
X50943750Y-126062500D02*
X50943750Y-125062500D01*
X50943750Y-126062500D02*
X51943750Y-126062500D01*
X51943750Y-112062500D02*
X50943750Y-112062500D01*
X63943750Y-126062500D02*
X64943750Y-126062500D01*
X64943750Y-112062500D02*
X63943750Y-112062500D01*
X64943750Y-112062500D02*
X64943750Y-113062500D01*
X64943750Y-125062500D02*
X64943750Y-126062500D01*
%TO.C,K35*%
X69993750Y-113062500D02*
X69993750Y-112062500D01*
X69993750Y-126062500D02*
X69993750Y-125062500D01*
X69993750Y-126062500D02*
X70993750Y-126062500D01*
X70993750Y-112062500D02*
X69993750Y-112062500D01*
X82993750Y-126062500D02*
X83993750Y-126062500D01*
X83993750Y-112062500D02*
X82993750Y-112062500D01*
X83993750Y-112062500D02*
X83993750Y-113062500D01*
X83993750Y-125062500D02*
X83993750Y-126062500D01*
%TO.C,K36*%
X89043750Y-113062500D02*
X89043750Y-112062500D01*
X89043750Y-126062500D02*
X89043750Y-125062500D01*
X89043750Y-126062500D02*
X90043750Y-126062500D01*
X90043750Y-112062500D02*
X89043750Y-112062500D01*
X102043750Y-126062500D02*
X103043750Y-126062500D01*
X103043750Y-112062500D02*
X102043750Y-112062500D01*
X103043750Y-112062500D02*
X103043750Y-113062500D01*
X103043750Y-125062500D02*
X103043750Y-126062500D01*
%TO.C,K37*%
X108093750Y-113062500D02*
X108093750Y-112062500D01*
X108093750Y-126062500D02*
X108093750Y-125062500D01*
X108093750Y-126062500D02*
X109093750Y-126062500D01*
X109093750Y-112062500D02*
X108093750Y-112062500D01*
X121093750Y-126062500D02*
X122093750Y-126062500D01*
X122093750Y-112062500D02*
X121093750Y-112062500D01*
X122093750Y-112062500D02*
X122093750Y-113062500D01*
X122093750Y-125062500D02*
X122093750Y-126062500D01*
%TO.C,K38*%
X127143750Y-113062500D02*
X127143750Y-112062500D01*
X127143750Y-126062500D02*
X127143750Y-125062500D01*
X127143750Y-126062500D02*
X128143750Y-126062500D01*
X128143750Y-112062500D02*
X127143750Y-112062500D01*
X140143750Y-126062500D02*
X141143750Y-126062500D01*
X141143750Y-112062500D02*
X140143750Y-112062500D01*
X141143750Y-112062500D02*
X141143750Y-113062500D01*
X141143750Y-125062500D02*
X141143750Y-126062500D01*
%TO.C,K39*%
X146193750Y-113062500D02*
X146193750Y-112062500D01*
X146193750Y-126062500D02*
X146193750Y-125062500D01*
X146193750Y-126062500D02*
X147193750Y-126062500D01*
X147193750Y-112062500D02*
X146193750Y-112062500D01*
X159193750Y-126062500D02*
X160193750Y-126062500D01*
X160193750Y-112062500D02*
X159193750Y-112062500D01*
X160193750Y-112062500D02*
X160193750Y-113062500D01*
X160193750Y-125062500D02*
X160193750Y-126062500D01*
%TO.C,K40*%
X165243750Y-113062500D02*
X165243750Y-112062500D01*
X165243750Y-126062500D02*
X165243750Y-125062500D01*
X165243750Y-126062500D02*
X166243750Y-126062500D01*
X166243750Y-112062500D02*
X165243750Y-112062500D01*
X178243750Y-126062500D02*
X179243750Y-126062500D01*
X179243750Y-112062500D02*
X178243750Y-112062500D01*
X179243750Y-112062500D02*
X179243750Y-113062500D01*
X179243750Y-125062500D02*
X179243750Y-126062500D01*
%TO.C,K41*%
X184293750Y-113062500D02*
X184293750Y-112062500D01*
X184293750Y-126062500D02*
X184293750Y-125062500D01*
X184293750Y-126062500D02*
X185293750Y-126062500D01*
X185293750Y-112062500D02*
X184293750Y-112062500D01*
X197293750Y-126062500D02*
X198293750Y-126062500D01*
X198293750Y-112062500D02*
X197293750Y-112062500D01*
X198293750Y-112062500D02*
X198293750Y-113062500D01*
X198293750Y-125062500D02*
X198293750Y-126062500D01*
%TO.C,K42*%
X203343750Y-113062500D02*
X203343750Y-112062500D01*
X203343750Y-126062500D02*
X203343750Y-125062500D01*
X203343750Y-126062500D02*
X204343750Y-126062500D01*
X204343750Y-112062500D02*
X203343750Y-112062500D01*
X216343750Y-126062500D02*
X217343750Y-126062500D01*
X217343750Y-112062500D02*
X216343750Y-112062500D01*
X217343750Y-112062500D02*
X217343750Y-113062500D01*
X217343750Y-125062500D02*
X217343750Y-126062500D01*
%TO.C,K43*%
X222393750Y-113062500D02*
X222393750Y-112062500D01*
X222393750Y-126062500D02*
X222393750Y-125062500D01*
X222393750Y-126062500D02*
X223393750Y-126062500D01*
X223393750Y-112062500D02*
X222393750Y-112062500D01*
X235393750Y-126062500D02*
X236393750Y-126062500D01*
X236393750Y-112062500D02*
X235393750Y-112062500D01*
X236393750Y-112062500D02*
X236393750Y-113062500D01*
X236393750Y-125062500D02*
X236393750Y-126062500D01*
%TO.C,K44*%
X241443750Y-113062500D02*
X241443750Y-112062500D01*
X241443750Y-126062500D02*
X241443750Y-125062500D01*
X241443750Y-126062500D02*
X242443750Y-126062500D01*
X242443750Y-112062500D02*
X241443750Y-112062500D01*
X254443750Y-126062500D02*
X255443750Y-126062500D01*
X255443750Y-112062500D02*
X254443750Y-112062500D01*
X255443750Y-112062500D02*
X255443750Y-113062500D01*
X255443750Y-125062500D02*
X255443750Y-126062500D01*
%TO.C,K45*%
X260493750Y-113062500D02*
X260493750Y-112062500D01*
X260493750Y-126062500D02*
X260493750Y-125062500D01*
X260493750Y-126062500D02*
X261493750Y-126062500D01*
X261493750Y-112062500D02*
X260493750Y-112062500D01*
X273493750Y-126062500D02*
X274493750Y-126062500D01*
X274493750Y-112062500D02*
X273493750Y-112062500D01*
X274493750Y-112062500D02*
X274493750Y-113062500D01*
X274493750Y-125062500D02*
X274493750Y-126062500D01*
%TO.C,K46*%
X279543750Y-113062500D02*
X279543750Y-112062500D01*
X279543750Y-126062500D02*
X279543750Y-125062500D01*
X279543750Y-126062500D02*
X280543750Y-126062500D01*
X280543750Y-112062500D02*
X279543750Y-112062500D01*
X292543750Y-126062500D02*
X293543750Y-126062500D01*
X293543750Y-112062500D02*
X292543750Y-112062500D01*
X293543750Y-112062500D02*
X293543750Y-113062500D01*
X293543750Y-125062500D02*
X293543750Y-126062500D01*
%TO.C,K47*%
X298593750Y-113062500D02*
X298593750Y-112062500D01*
X298593750Y-126062500D02*
X298593750Y-125062500D01*
X298593750Y-126062500D02*
X299593750Y-126062500D01*
X299593750Y-112062500D02*
X298593750Y-112062500D01*
X311593750Y-126062500D02*
X312593750Y-126062500D01*
X312593750Y-112062500D02*
X311593750Y-112062500D01*
X312593750Y-112062500D02*
X312593750Y-113062500D01*
X312593750Y-125062500D02*
X312593750Y-126062500D01*
%TO.C,K48*%
X317643750Y-113062500D02*
X317643750Y-112062500D01*
X317643750Y-126062500D02*
X317643750Y-125062500D01*
X317643750Y-126062500D02*
X318643750Y-126062500D01*
X318643750Y-112062500D02*
X317643750Y-112062500D01*
X330643750Y-126062500D02*
X331643750Y-126062500D01*
X331643750Y-112062500D02*
X330643750Y-112062500D01*
X331643750Y-112062500D02*
X331643750Y-113062500D01*
X331643750Y-125062500D02*
X331643750Y-126062500D01*
%TO.C,K49*%
X31893750Y-132112500D02*
X31893750Y-131112500D01*
X31893750Y-145112500D02*
X31893750Y-144112500D01*
X31893750Y-145112500D02*
X32893750Y-145112500D01*
X32893750Y-131112500D02*
X31893750Y-131112500D01*
X44893750Y-145112500D02*
X45893750Y-145112500D01*
X45893750Y-131112500D02*
X44893750Y-131112500D01*
X45893750Y-131112500D02*
X45893750Y-132112500D01*
X45893750Y-144112500D02*
X45893750Y-145112500D01*
%TO.C,K50*%
X50943750Y-132112500D02*
X50943750Y-131112500D01*
X50943750Y-145112500D02*
X50943750Y-144112500D01*
X50943750Y-145112500D02*
X51943750Y-145112500D01*
X51943750Y-131112500D02*
X50943750Y-131112500D01*
X63943750Y-145112500D02*
X64943750Y-145112500D01*
X64943750Y-131112500D02*
X63943750Y-131112500D01*
X64943750Y-131112500D02*
X64943750Y-132112500D01*
X64943750Y-144112500D02*
X64943750Y-145112500D01*
%TO.C,K51*%
X69993750Y-132112500D02*
X69993750Y-131112500D01*
X69993750Y-145112500D02*
X69993750Y-144112500D01*
X69993750Y-145112500D02*
X70993750Y-145112500D01*
X70993750Y-131112500D02*
X69993750Y-131112500D01*
X82993750Y-145112500D02*
X83993750Y-145112500D01*
X83993750Y-131112500D02*
X82993750Y-131112500D01*
X83993750Y-131112500D02*
X83993750Y-132112500D01*
X83993750Y-144112500D02*
X83993750Y-145112500D01*
%TO.C,K52*%
X89043750Y-132112500D02*
X89043750Y-131112500D01*
X89043750Y-145112500D02*
X89043750Y-144112500D01*
X89043750Y-145112500D02*
X90043750Y-145112500D01*
X90043750Y-131112500D02*
X89043750Y-131112500D01*
X102043750Y-145112500D02*
X103043750Y-145112500D01*
X103043750Y-131112500D02*
X102043750Y-131112500D01*
X103043750Y-131112500D02*
X103043750Y-132112500D01*
X103043750Y-144112500D02*
X103043750Y-145112500D01*
%TO.C,K53*%
X108093750Y-132112500D02*
X108093750Y-131112500D01*
X108093750Y-145112500D02*
X108093750Y-144112500D01*
X108093750Y-145112500D02*
X109093750Y-145112500D01*
X109093750Y-131112500D02*
X108093750Y-131112500D01*
X121093750Y-145112500D02*
X122093750Y-145112500D01*
X122093750Y-131112500D02*
X121093750Y-131112500D01*
X122093750Y-131112500D02*
X122093750Y-132112500D01*
X122093750Y-144112500D02*
X122093750Y-145112500D01*
%TO.C,K54*%
X127143750Y-132112500D02*
X127143750Y-131112500D01*
X127143750Y-145112500D02*
X127143750Y-144112500D01*
X127143750Y-145112500D02*
X128143750Y-145112500D01*
X128143750Y-131112500D02*
X127143750Y-131112500D01*
%TO.C,K55*%
X146193750Y-132112500D02*
X146193750Y-131112500D01*
X146193750Y-145112500D02*
X146193750Y-144112500D01*
X146193750Y-145112500D02*
X147193750Y-145112500D01*
X147193750Y-131112500D02*
X146193750Y-131112500D01*
X159193750Y-145112500D02*
X160193750Y-145112500D01*
X160193750Y-131112500D02*
X159193750Y-131112500D01*
X160193750Y-131112500D02*
X160193750Y-132112500D01*
X160193750Y-144112500D02*
X160193750Y-145112500D01*
%TO.C,K56*%
X165243750Y-132112500D02*
X165243750Y-131112500D01*
X165243750Y-145112500D02*
X165243750Y-144112500D01*
X165243750Y-145112500D02*
X166243750Y-145112500D01*
X166243750Y-131112500D02*
X165243750Y-131112500D01*
X178243750Y-145112500D02*
X179243750Y-145112500D01*
X179243750Y-131112500D02*
X178243750Y-131112500D01*
X179243750Y-131112500D02*
X179243750Y-132112500D01*
X179243750Y-144112500D02*
X179243750Y-145112500D01*
%TO.C,K57*%
X184293750Y-132112500D02*
X184293750Y-131112500D01*
X184293750Y-145112500D02*
X184293750Y-144112500D01*
X184293750Y-145112500D02*
X185293750Y-145112500D01*
X185293750Y-131112500D02*
X184293750Y-131112500D01*
X197293750Y-145112500D02*
X198293750Y-145112500D01*
X198293750Y-131112500D02*
X197293750Y-131112500D01*
X198293750Y-131112500D02*
X198293750Y-132112500D01*
X198293750Y-144112500D02*
X198293750Y-145112500D01*
%TO.C,K58*%
X203343750Y-132112500D02*
X203343750Y-131112500D01*
X203343750Y-145112500D02*
X203343750Y-144112500D01*
X203343750Y-145112500D02*
X204343750Y-145112500D01*
X204343750Y-131112500D02*
X203343750Y-131112500D01*
%TO.C,K59*%
X222393750Y-132112500D02*
X222393750Y-131112500D01*
X222393750Y-145112500D02*
X222393750Y-144112500D01*
X222393750Y-145112500D02*
X223393750Y-145112500D01*
X223393750Y-131112500D02*
X222393750Y-131112500D01*
X235393750Y-145112500D02*
X236393750Y-145112500D01*
X236393750Y-131112500D02*
X235393750Y-131112500D01*
X236393750Y-131112500D02*
X236393750Y-132112500D01*
X236393750Y-144112500D02*
X236393750Y-145112500D01*
%TO.C,K60*%
X241443750Y-132112500D02*
X241443750Y-131112500D01*
X241443750Y-145112500D02*
X241443750Y-144112500D01*
X241443750Y-145112500D02*
X242443750Y-145112500D01*
X242443750Y-131112500D02*
X241443750Y-131112500D01*
X254443750Y-145112500D02*
X255443750Y-145112500D01*
X255443750Y-131112500D02*
X254443750Y-131112500D01*
X255443750Y-131112500D02*
X255443750Y-132112500D01*
X255443750Y-144112500D02*
X255443750Y-145112500D01*
%TO.C,K61*%
X260493750Y-132112500D02*
X260493750Y-131112500D01*
X260493750Y-145112500D02*
X260493750Y-144112500D01*
X260493750Y-145112500D02*
X261493750Y-145112500D01*
X261493750Y-131112500D02*
X260493750Y-131112500D01*
X273493750Y-145112500D02*
X274493750Y-145112500D01*
X274493750Y-131112500D02*
X273493750Y-131112500D01*
X274493750Y-131112500D02*
X274493750Y-132112500D01*
X274493750Y-144112500D02*
X274493750Y-145112500D01*
%TO.C,K62*%
X279543750Y-132112500D02*
X279543750Y-131112500D01*
X279543750Y-145112500D02*
X279543750Y-144112500D01*
X279543750Y-145112500D02*
X280543750Y-145112500D01*
X280543750Y-131112500D02*
X279543750Y-131112500D01*
X292543750Y-145112500D02*
X293543750Y-145112500D01*
X293543750Y-131112500D02*
X292543750Y-131112500D01*
X293543750Y-131112500D02*
X293543750Y-132112500D01*
X293543750Y-144112500D02*
X293543750Y-145112500D01*
%TO.C,K63*%
X298593750Y-132112500D02*
X298593750Y-131112500D01*
X298593750Y-145112500D02*
X298593750Y-144112500D01*
X298593750Y-145112500D02*
X299593750Y-145112500D01*
X299593750Y-131112500D02*
X298593750Y-131112500D01*
X311593750Y-145112500D02*
X312593750Y-145112500D01*
X312593750Y-131112500D02*
X311593750Y-131112500D01*
X312593750Y-131112500D02*
X312593750Y-132112500D01*
X312593750Y-144112500D02*
X312593750Y-145112500D01*
%TO.C,K64*%
X317643750Y-132112500D02*
X317643750Y-131112500D01*
X317643750Y-145112500D02*
X317643750Y-144112500D01*
X317643750Y-145112500D02*
X318643750Y-145112500D01*
X318643750Y-131112500D02*
X317643750Y-131112500D01*
X330643750Y-145112500D02*
X331643750Y-145112500D01*
X331643750Y-131112500D02*
X330643750Y-131112500D01*
X331643750Y-131112500D02*
X331643750Y-132112500D01*
X331643750Y-144112500D02*
X331643750Y-145112500D01*
%TO.C,K1*%
X31893750Y-74962500D02*
X31893750Y-73962500D01*
X31893750Y-87962500D02*
X31893750Y-86962500D01*
X31893750Y-87962500D02*
X32893750Y-87962500D01*
X32893750Y-73962500D02*
X31893750Y-73962500D01*
X44893750Y-87962500D02*
X45893750Y-87962500D01*
X45893750Y-73962500D02*
X44893750Y-73962500D01*
X45893750Y-73962500D02*
X45893750Y-74962500D01*
X45893750Y-86962500D02*
X45893750Y-87962500D01*
%TO.C,K4*%
X89043750Y-74962500D02*
X89043750Y-73962500D01*
X89043750Y-87962500D02*
X89043750Y-86962500D01*
X89043750Y-87962500D02*
X90043750Y-87962500D01*
X90043750Y-73962500D02*
X89043750Y-73962500D01*
X102043750Y-87962500D02*
X103043750Y-87962500D01*
X103043750Y-73962500D02*
X102043750Y-73962500D01*
X103043750Y-73962500D02*
X103043750Y-74962500D01*
X103043750Y-86962500D02*
X103043750Y-87962500D01*
%TO.C,K5*%
X108093750Y-74962500D02*
X108093750Y-73962500D01*
X108093750Y-87962500D02*
X108093750Y-86962500D01*
X108093750Y-87962500D02*
X109093750Y-87962500D01*
X109093750Y-73962500D02*
X108093750Y-73962500D01*
X121093750Y-87962500D02*
X122093750Y-87962500D01*
X122093750Y-73962500D02*
X121093750Y-73962500D01*
X122093750Y-73962500D02*
X122093750Y-74962500D01*
X122093750Y-86962500D02*
X122093750Y-87962500D01*
%TO.C,K21*%
X108093750Y-94012500D02*
X108093750Y-93012500D01*
X108093750Y-107012500D02*
X108093750Y-106012500D01*
X108093750Y-107012500D02*
X109093750Y-107012500D01*
X109093750Y-93012500D02*
X108093750Y-93012500D01*
X121093750Y-107012500D02*
X122093750Y-107012500D01*
X122093750Y-93012500D02*
X121093750Y-93012500D01*
X122093750Y-93012500D02*
X122093750Y-94012500D01*
X122093750Y-106012500D02*
X122093750Y-107012500D01*
%TO.C,K20*%
X89043750Y-94012500D02*
X89043750Y-93012500D01*
X89043750Y-107012500D02*
X89043750Y-106012500D01*
X89043750Y-107012500D02*
X90043750Y-107012500D01*
X90043750Y-93012500D02*
X89043750Y-93012500D01*
X102043750Y-107012500D02*
X103043750Y-107012500D01*
X103043750Y-93012500D02*
X102043750Y-93012500D01*
X103043750Y-93012500D02*
X103043750Y-94012500D01*
X103043750Y-106012500D02*
X103043750Y-107012500D01*
D11*
%TO.C,LD16*%
X323418750Y-85487500D02*
X325818750Y-85487500D01*
X323418750Y-86487500D02*
X323418750Y-85487500D01*
X323418750Y-87487500D02*
X325818750Y-87487500D01*
D10*
X324918750Y-87437500D02*
X324918750Y-85537500D01*
D11*
X325818750Y-86487500D02*
X325818750Y-87487500D01*
%TO.C,LD17*%
X40068750Y-106537500D02*
X37668750Y-106537500D01*
X40068750Y-105537500D02*
X40068750Y-106537500D01*
X40068750Y-104537500D02*
X37668750Y-104537500D01*
D10*
X38568750Y-104587500D02*
X38568750Y-106487500D01*
D11*
X37668750Y-105537500D02*
X37668750Y-104537500D01*
%TO.C,LD18*%
X59118750Y-106537500D02*
X56718750Y-106537500D01*
X59118750Y-105537500D02*
X59118750Y-106537500D01*
X59118750Y-104537500D02*
X56718750Y-104537500D01*
D10*
X57618750Y-104587500D02*
X57618750Y-106487500D01*
D11*
X56718750Y-105537500D02*
X56718750Y-104537500D01*
%TO.C,LD19*%
X78168750Y-106537500D02*
X75768750Y-106537500D01*
X78168750Y-105537500D02*
X78168750Y-106537500D01*
X78168750Y-104537500D02*
X75768750Y-104537500D01*
D10*
X76668750Y-104587500D02*
X76668750Y-106487500D01*
D11*
X75768750Y-105537500D02*
X75768750Y-104537500D01*
%TO.C,LD20*%
X97218750Y-106537500D02*
X94818750Y-106537500D01*
X97218750Y-105537500D02*
X97218750Y-106537500D01*
X97218750Y-104537500D02*
X94818750Y-104537500D01*
D10*
X95718750Y-104587500D02*
X95718750Y-106487500D01*
D11*
X94818750Y-105537500D02*
X94818750Y-104537500D01*
%TO.C,LD21*%
X116268750Y-106537500D02*
X113868750Y-106537500D01*
X116268750Y-105537500D02*
X116268750Y-106537500D01*
X116268750Y-104537500D02*
X113868750Y-104537500D01*
D10*
X114768750Y-104587500D02*
X114768750Y-106487500D01*
D11*
X113868750Y-105537500D02*
X113868750Y-104537500D01*
%TO.C,LD22*%
X135318750Y-106537500D02*
X132918750Y-106537500D01*
X135318750Y-105537500D02*
X135318750Y-106537500D01*
X135318750Y-104537500D02*
X132918750Y-104537500D01*
D10*
X133818750Y-104587500D02*
X133818750Y-106487500D01*
D11*
X132918750Y-105537500D02*
X132918750Y-104537500D01*
%TO.C,LD23*%
X154368750Y-106537500D02*
X151968750Y-106537500D01*
X154368750Y-105537500D02*
X154368750Y-106537500D01*
X154368750Y-104537500D02*
X151968750Y-104537500D01*
D10*
X152868750Y-104587500D02*
X152868750Y-106487500D01*
D11*
X151968750Y-105537500D02*
X151968750Y-104537500D01*
%TO.C,LD24*%
X173418750Y-106537500D02*
X171018750Y-106537500D01*
X173418750Y-105537500D02*
X173418750Y-106537500D01*
X173418750Y-104537500D02*
X171018750Y-104537500D01*
D10*
X171918750Y-104587500D02*
X171918750Y-106487500D01*
D11*
X171018750Y-105537500D02*
X171018750Y-104537500D01*
%TO.C,LD25*%
X192468750Y-106537500D02*
X190068750Y-106537500D01*
X192468750Y-105537500D02*
X192468750Y-106537500D01*
X192468750Y-104537500D02*
X190068750Y-104537500D01*
D10*
X190968750Y-104587500D02*
X190968750Y-106487500D01*
D11*
X190068750Y-105537500D02*
X190068750Y-104537500D01*
%TO.C,LD26*%
X211518750Y-106537500D02*
X209118750Y-106537500D01*
X211518750Y-105537500D02*
X211518750Y-106537500D01*
X211518750Y-104537500D02*
X209118750Y-104537500D01*
D10*
X210018750Y-104587500D02*
X210018750Y-106487500D01*
D11*
X209118750Y-105537500D02*
X209118750Y-104537500D01*
%TO.C,LD27*%
X230568750Y-106537500D02*
X228168750Y-106537500D01*
X230568750Y-105537500D02*
X230568750Y-106537500D01*
X230568750Y-104537500D02*
X228168750Y-104537500D01*
D10*
X229068750Y-104587500D02*
X229068750Y-106487500D01*
D11*
X228168750Y-105537500D02*
X228168750Y-104537500D01*
%TO.C,LD28*%
X249618750Y-106537500D02*
X247218750Y-106537500D01*
X249618750Y-105537500D02*
X249618750Y-106537500D01*
X249618750Y-104537500D02*
X247218750Y-104537500D01*
D10*
X248118750Y-104587500D02*
X248118750Y-106487500D01*
D11*
X247218750Y-105537500D02*
X247218750Y-104537500D01*
%TO.C,LD29*%
X268668750Y-106537500D02*
X266268750Y-106537500D01*
X268668750Y-105537500D02*
X268668750Y-106537500D01*
X268668750Y-104537500D02*
X266268750Y-104537500D01*
D10*
X267168750Y-104587500D02*
X267168750Y-106487500D01*
D11*
X266268750Y-105537500D02*
X266268750Y-104537500D01*
%TO.C,LD30*%
X287718750Y-106537500D02*
X285318750Y-106537500D01*
X287718750Y-105537500D02*
X287718750Y-106537500D01*
X287718750Y-104537500D02*
X285318750Y-104537500D01*
D10*
X286218750Y-104587500D02*
X286218750Y-106487500D01*
D11*
X285318750Y-105537500D02*
X285318750Y-104537500D01*
%TO.C,LD32*%
X325818750Y-106537500D02*
X323418750Y-106537500D01*
X325818750Y-105537500D02*
X325818750Y-106537500D01*
X325818750Y-104537500D02*
X323418750Y-104537500D01*
D10*
X324318750Y-104587500D02*
X324318750Y-106487500D01*
D11*
X323418750Y-105537500D02*
X323418750Y-104537500D01*
%TO.C,LD31*%
X306768750Y-106537500D02*
X304368750Y-106537500D01*
X306768750Y-105537500D02*
X306768750Y-106537500D01*
X306768750Y-104537500D02*
X304368750Y-104537500D01*
D10*
X305268750Y-104587500D02*
X305268750Y-106487500D01*
D11*
X304368750Y-105537500D02*
X304368750Y-104537500D01*
%TO.C,LD15*%
X304368750Y-85487500D02*
X306768750Y-85487500D01*
X304368750Y-86487500D02*
X304368750Y-85487500D01*
X304368750Y-87487500D02*
X306768750Y-87487500D01*
D10*
X305868750Y-87437500D02*
X305868750Y-85537500D01*
D11*
X306768750Y-86487500D02*
X306768750Y-87487500D01*
%TO.C,LD14*%
X285318750Y-85487500D02*
X287718750Y-85487500D01*
X285318750Y-86487500D02*
X285318750Y-85487500D01*
X285318750Y-87487500D02*
X287718750Y-87487500D01*
D10*
X286818750Y-87437500D02*
X286818750Y-85537500D01*
D11*
X287718750Y-86487500D02*
X287718750Y-87487500D01*
%TO.C,LD12*%
X247218750Y-85487500D02*
X249618750Y-85487500D01*
X247218750Y-86487500D02*
X247218750Y-85487500D01*
X247218750Y-87487500D02*
X249618750Y-87487500D01*
D10*
X248718750Y-87437500D02*
X248718750Y-85537500D01*
D11*
X249618750Y-86487500D02*
X249618750Y-87487500D01*
%TO.C,LD10*%
X209118750Y-85487500D02*
X211518750Y-85487500D01*
X209118750Y-86487500D02*
X209118750Y-85487500D01*
X209118750Y-87487500D02*
X211518750Y-87487500D01*
D10*
X210618750Y-87437500D02*
X210618750Y-85537500D01*
D11*
X211518750Y-86487500D02*
X211518750Y-87487500D01*
%TO.C,LD13*%
X266268750Y-85487500D02*
X268668750Y-85487500D01*
X266268750Y-86487500D02*
X266268750Y-85487500D01*
X266268750Y-87487500D02*
X268668750Y-87487500D01*
D10*
X267768750Y-87437500D02*
X267768750Y-85537500D01*
D11*
X268668750Y-86487500D02*
X268668750Y-87487500D01*
%TO.C,LD5*%
X113868750Y-85487500D02*
X116268750Y-85487500D01*
X113868750Y-86487500D02*
X113868750Y-85487500D01*
X113868750Y-87487500D02*
X116268750Y-87487500D01*
D10*
X115368750Y-87437500D02*
X115368750Y-85537500D01*
D11*
X116268750Y-86487500D02*
X116268750Y-87487500D01*
%TO.C,LD11*%
X228168750Y-85487500D02*
X230568750Y-85487500D01*
X228168750Y-86487500D02*
X228168750Y-85487500D01*
X228168750Y-87487500D02*
X230568750Y-87487500D01*
D10*
X229668750Y-87437500D02*
X229668750Y-85537500D01*
D11*
X230568750Y-86487500D02*
X230568750Y-87487500D01*
%TO.C,LD6*%
X132918750Y-85487500D02*
X135318750Y-85487500D01*
X132918750Y-86487500D02*
X132918750Y-85487500D01*
X132918750Y-87487500D02*
X135318750Y-87487500D01*
D10*
X134418750Y-87437500D02*
X134418750Y-85537500D01*
D11*
X135318750Y-86487500D02*
X135318750Y-87487500D01*
%TO.C,LD7*%
X151968750Y-85487500D02*
X154368750Y-85487500D01*
X151968750Y-86487500D02*
X151968750Y-85487500D01*
X151968750Y-87487500D02*
X154368750Y-87487500D01*
D10*
X153468750Y-87437500D02*
X153468750Y-85537500D01*
D11*
X154368750Y-86487500D02*
X154368750Y-87487500D01*
%TO.C,LD8*%
X171018750Y-85487500D02*
X173418750Y-85487500D01*
X171018750Y-86487500D02*
X171018750Y-85487500D01*
X171018750Y-87487500D02*
X173418750Y-87487500D01*
D10*
X172518750Y-87437500D02*
X172518750Y-85537500D01*
D11*
X173418750Y-86487500D02*
X173418750Y-87487500D01*
%TO.C,LD9*%
X190068750Y-85487500D02*
X192468750Y-85487500D01*
X190068750Y-86487500D02*
X190068750Y-85487500D01*
X190068750Y-87487500D02*
X192468750Y-87487500D01*
D10*
X191568750Y-87437500D02*
X191568750Y-85537500D01*
D11*
X192468750Y-86487500D02*
X192468750Y-87487500D01*
%TO.C,LD2*%
X56718750Y-85487500D02*
X59118750Y-85487500D01*
X56718750Y-86487500D02*
X56718750Y-85487500D01*
X56718750Y-87487500D02*
X59118750Y-87487500D01*
D10*
X58218750Y-87437500D02*
X58218750Y-85537500D01*
D11*
X59118750Y-86487500D02*
X59118750Y-87487500D01*
%TO.C,LD1*%
X37668750Y-85487500D02*
X40068750Y-85487500D01*
X37668750Y-86487500D02*
X37668750Y-85487500D01*
X37668750Y-87487500D02*
X40068750Y-87487500D01*
D10*
X39168750Y-87437500D02*
X39168750Y-85537500D01*
D11*
X40068750Y-86487500D02*
X40068750Y-87487500D01*
%TO.C,LD3*%
X75768750Y-85487500D02*
X78168750Y-85487500D01*
X75768750Y-86487500D02*
X75768750Y-85487500D01*
X75768750Y-87487500D02*
X78168750Y-87487500D01*
D10*
X77268750Y-87437500D02*
X77268750Y-85537500D01*
D11*
X78168750Y-86487500D02*
X78168750Y-87487500D01*
%TO.C,LD4*%
X94818750Y-85487500D02*
X97218750Y-85487500D01*
X94818750Y-86487500D02*
X94818750Y-85487500D01*
X94818750Y-87487500D02*
X97218750Y-87487500D01*
D10*
X96318750Y-87437500D02*
X96318750Y-85537500D01*
D11*
X97218750Y-86487500D02*
X97218750Y-87487500D01*
%TO.C,LD56*%
X173418750Y-144437500D02*
X171018750Y-144437500D01*
X173418750Y-143437500D02*
X173418750Y-144437500D01*
X173418750Y-142437500D02*
X171018750Y-142437500D01*
D10*
X171918750Y-142487500D02*
X171918750Y-144387500D01*
D11*
X171018750Y-143437500D02*
X171018750Y-142437500D01*
%TO.C,LD54*%
X135318750Y-144437500D02*
X132918750Y-144437500D01*
X135318750Y-143437500D02*
X135318750Y-144437500D01*
X135318750Y-142437500D02*
X132918750Y-142437500D01*
D10*
X133818750Y-142487500D02*
X133818750Y-144387500D01*
D11*
X132918750Y-143437500D02*
X132918750Y-142437500D01*
%TO.C,LD43*%
X228168750Y-123587500D02*
X230568750Y-123587500D01*
X228168750Y-124587500D02*
X228168750Y-123587500D01*
X228168750Y-125587500D02*
X230568750Y-125587500D01*
D10*
X229668750Y-125537500D02*
X229668750Y-123637500D01*
D11*
X230568750Y-124587500D02*
X230568750Y-125587500D01*
%TO.C,LD47*%
X304368750Y-123587500D02*
X306768750Y-123587500D01*
X304368750Y-124587500D02*
X304368750Y-123587500D01*
X304368750Y-125587500D02*
X306768750Y-125587500D01*
D10*
X305868750Y-125537500D02*
X305868750Y-123637500D01*
D11*
X306768750Y-124587500D02*
X306768750Y-125587500D01*
%TO.C,LD46*%
X285318750Y-123587500D02*
X287718750Y-123587500D01*
X285318750Y-124587500D02*
X285318750Y-123587500D01*
X285318750Y-125587500D02*
X287718750Y-125587500D01*
D10*
X286818750Y-125537500D02*
X286818750Y-123637500D01*
D11*
X287718750Y-124587500D02*
X287718750Y-125587500D01*
%TO.C,LD60*%
X249618750Y-144437500D02*
X247218750Y-144437500D01*
X249618750Y-143437500D02*
X249618750Y-144437500D01*
X249618750Y-142437500D02*
X247218750Y-142437500D01*
D10*
X248118750Y-142487500D02*
X248118750Y-144387500D01*
D11*
X247218750Y-143437500D02*
X247218750Y-142437500D01*
%TO.C,LD61*%
X268668750Y-144437500D02*
X266268750Y-144437500D01*
X268668750Y-143437500D02*
X268668750Y-144437500D01*
X268668750Y-142437500D02*
X266268750Y-142437500D01*
D10*
X267168750Y-142487500D02*
X267168750Y-144387500D01*
D11*
X266268750Y-143437500D02*
X266268750Y-142437500D01*
%TO.C,LD36*%
X94818750Y-123587500D02*
X97218750Y-123587500D01*
X94818750Y-124587500D02*
X94818750Y-123587500D01*
X94818750Y-125587500D02*
X97218750Y-125587500D01*
D10*
X96318750Y-125537500D02*
X96318750Y-123637500D01*
D11*
X97218750Y-124587500D02*
X97218750Y-125587500D01*
%TO.C,LD57*%
X192468750Y-144437500D02*
X190068750Y-144437500D01*
X192468750Y-143437500D02*
X192468750Y-144437500D01*
X192468750Y-142437500D02*
X190068750Y-142437500D01*
D10*
X190968750Y-142487500D02*
X190968750Y-144387500D01*
D11*
X190068750Y-143437500D02*
X190068750Y-142437500D01*
%TO.C,LD55*%
X154368750Y-144437500D02*
X151968750Y-144437500D01*
X154368750Y-143437500D02*
X154368750Y-144437500D01*
X154368750Y-142437500D02*
X151968750Y-142437500D01*
D10*
X152868750Y-142487500D02*
X152868750Y-144387500D01*
D11*
X151968750Y-143437500D02*
X151968750Y-142437500D01*
%TO.C,LD64*%
X325818750Y-144437500D02*
X323418750Y-144437500D01*
X325818750Y-143437500D02*
X325818750Y-144437500D01*
X325818750Y-142437500D02*
X323418750Y-142437500D01*
D10*
X324318750Y-142487500D02*
X324318750Y-144387500D01*
D11*
X323418750Y-143437500D02*
X323418750Y-142437500D01*
%TO.C,LD53*%
X116268750Y-144437500D02*
X113868750Y-144437500D01*
X116268750Y-143437500D02*
X116268750Y-144437500D01*
X116268750Y-142437500D02*
X113868750Y-142437500D01*
D10*
X114768750Y-142487500D02*
X114768750Y-144387500D01*
D11*
X113868750Y-143437500D02*
X113868750Y-142437500D01*
%TO.C,LD38*%
X132918750Y-123587500D02*
X135318750Y-123587500D01*
X132918750Y-124587500D02*
X132918750Y-123587500D01*
X132918750Y-125587500D02*
X135318750Y-125587500D01*
D10*
X134418750Y-125537500D02*
X134418750Y-123637500D01*
D11*
X135318750Y-124587500D02*
X135318750Y-125587500D01*
%TO.C,LD42*%
X209118750Y-123587500D02*
X211518750Y-123587500D01*
X209118750Y-124587500D02*
X209118750Y-123587500D01*
X209118750Y-125587500D02*
X211518750Y-125587500D01*
D10*
X210618750Y-125537500D02*
X210618750Y-123637500D01*
D11*
X211518750Y-124587500D02*
X211518750Y-125587500D01*
D10*
%TO.C,K54.1*%
X149668750Y-145112500D02*
X150668750Y-145112500D01*
X150668750Y-131112500D02*
X149668750Y-131112500D01*
X150668750Y-131112500D02*
X150668750Y-132112500D01*
X150668750Y-144112500D02*
X150668750Y-145112500D01*
D11*
%TO.C,LD58*%
X211518750Y-144437500D02*
X209118750Y-144437500D01*
X211518750Y-143437500D02*
X211518750Y-144437500D01*
X211518750Y-142437500D02*
X209118750Y-142437500D01*
D10*
X210018750Y-142487500D02*
X210018750Y-144387500D01*
D11*
X209118750Y-143437500D02*
X209118750Y-142437500D01*
%TO.C,LD59*%
X230568750Y-144437500D02*
X228168750Y-144437500D01*
X230568750Y-143437500D02*
X230568750Y-144437500D01*
X230568750Y-142437500D02*
X228168750Y-142437500D01*
D10*
X229068750Y-142487500D02*
X229068750Y-144387500D01*
D11*
X228168750Y-143437500D02*
X228168750Y-142437500D01*
%TO.C,LD40*%
X171018750Y-123587500D02*
X173418750Y-123587500D01*
X171018750Y-124587500D02*
X171018750Y-123587500D01*
X171018750Y-125587500D02*
X173418750Y-125587500D01*
D10*
X172518750Y-125537500D02*
X172518750Y-123637500D01*
D11*
X173418750Y-124587500D02*
X173418750Y-125587500D01*
%TO.C,LD44*%
X247218750Y-123587500D02*
X249618750Y-123587500D01*
X247218750Y-124587500D02*
X247218750Y-123587500D01*
X247218750Y-125587500D02*
X249618750Y-125587500D01*
D10*
X248718750Y-125537500D02*
X248718750Y-123637500D01*
D11*
X249618750Y-124587500D02*
X249618750Y-125587500D01*
%TO.C,LD34*%
X56718750Y-123587500D02*
X59118750Y-123587500D01*
X56718750Y-124587500D02*
X56718750Y-123587500D01*
X56718750Y-125587500D02*
X59118750Y-125587500D01*
D10*
X58218750Y-125537500D02*
X58218750Y-123637500D01*
D11*
X59118750Y-124587500D02*
X59118750Y-125587500D01*
%TO.C,LD62*%
X287718750Y-144437500D02*
X285318750Y-144437500D01*
X287718750Y-143437500D02*
X287718750Y-144437500D01*
X287718750Y-142437500D02*
X285318750Y-142437500D01*
D10*
X286218750Y-142487500D02*
X286218750Y-144387500D01*
D11*
X285318750Y-143437500D02*
X285318750Y-142437500D01*
%TO.C,LD49*%
X40068750Y-144437500D02*
X37668750Y-144437500D01*
X40068750Y-143437500D02*
X40068750Y-144437500D01*
X40068750Y-142437500D02*
X37668750Y-142437500D01*
D10*
X38568750Y-142487500D02*
X38568750Y-144387500D01*
D11*
X37668750Y-143437500D02*
X37668750Y-142437500D01*
%TO.C,LD35*%
X75768750Y-123587500D02*
X78168750Y-123587500D01*
X75768750Y-124587500D02*
X75768750Y-123587500D01*
X75768750Y-125587500D02*
X78168750Y-125587500D01*
D10*
X77268750Y-125537500D02*
X77268750Y-123637500D01*
D11*
X78168750Y-124587500D02*
X78168750Y-125587500D01*
%TO.C,LD37*%
X113868750Y-123587500D02*
X116268750Y-123587500D01*
X113868750Y-124587500D02*
X113868750Y-123587500D01*
X113868750Y-125587500D02*
X116268750Y-125587500D01*
D10*
X115368750Y-125537500D02*
X115368750Y-123637500D01*
D11*
X116268750Y-124587500D02*
X116268750Y-125587500D01*
%TO.C,LD51*%
X78168750Y-144437500D02*
X75768750Y-144437500D01*
X78168750Y-143437500D02*
X78168750Y-144437500D01*
X78168750Y-142437500D02*
X75768750Y-142437500D01*
D10*
X76668750Y-142487500D02*
X76668750Y-144387500D01*
D11*
X75768750Y-143437500D02*
X75768750Y-142437500D01*
%TO.C,LD45*%
X266268750Y-123587500D02*
X268668750Y-123587500D01*
X266268750Y-124587500D02*
X266268750Y-123587500D01*
X266268750Y-125587500D02*
X268668750Y-125587500D01*
D10*
X267768750Y-125537500D02*
X267768750Y-123637500D01*
D11*
X268668750Y-124587500D02*
X268668750Y-125587500D01*
%TO.C,LD50*%
X59118750Y-144437500D02*
X56718750Y-144437500D01*
X59118750Y-143437500D02*
X59118750Y-144437500D01*
X59118750Y-142437500D02*
X56718750Y-142437500D01*
D10*
X57618750Y-142487500D02*
X57618750Y-144387500D01*
D11*
X56718750Y-143437500D02*
X56718750Y-142437500D01*
%TO.C,LD48*%
X323418750Y-123587500D02*
X325818750Y-123587500D01*
X323418750Y-124587500D02*
X323418750Y-123587500D01*
X323418750Y-125587500D02*
X325818750Y-125587500D01*
D10*
X324918750Y-125537500D02*
X324918750Y-123637500D01*
D11*
X325818750Y-124587500D02*
X325818750Y-125587500D01*
%TO.C,LD39*%
X151968750Y-123587500D02*
X154368750Y-123587500D01*
X151968750Y-124587500D02*
X151968750Y-123587500D01*
X151968750Y-125587500D02*
X154368750Y-125587500D01*
D10*
X153468750Y-125537500D02*
X153468750Y-123637500D01*
D11*
X154368750Y-124587500D02*
X154368750Y-125587500D01*
%TO.C,LD33*%
X37668750Y-123587500D02*
X40068750Y-123587500D01*
X37668750Y-124587500D02*
X37668750Y-123587500D01*
X37668750Y-125587500D02*
X40068750Y-125587500D01*
D10*
X39168750Y-125537500D02*
X39168750Y-123637500D01*
D11*
X40068750Y-124587500D02*
X40068750Y-125587500D01*
D10*
%TO.C,K58.1*%
X225868750Y-145112500D02*
X226868750Y-145112500D01*
X226868750Y-131112500D02*
X225868750Y-131112500D01*
X226868750Y-131112500D02*
X226868750Y-132112500D01*
X226868750Y-144112500D02*
X226868750Y-145112500D01*
D11*
%TO.C,LD41*%
X190068750Y-123587500D02*
X192468750Y-123587500D01*
X190068750Y-124587500D02*
X190068750Y-123587500D01*
X190068750Y-125587500D02*
X192468750Y-125587500D01*
D10*
X191568750Y-125537500D02*
X191568750Y-123637500D01*
D11*
X192468750Y-124587500D02*
X192468750Y-125587500D01*
%TO.C,LD63*%
X306768750Y-144437500D02*
X304368750Y-144437500D01*
X306768750Y-143437500D02*
X306768750Y-144437500D01*
X306768750Y-142437500D02*
X304368750Y-142437500D01*
D10*
X305268750Y-142487500D02*
X305268750Y-144387500D01*
D11*
X304368750Y-143437500D02*
X304368750Y-142437500D01*
%TO.C,LD52*%
X97218750Y-144437500D02*
X94818750Y-144437500D01*
X97218750Y-143437500D02*
X97218750Y-144437500D01*
X97218750Y-142437500D02*
X94818750Y-142437500D01*
D10*
X95718750Y-142487500D02*
X95718750Y-144387500D01*
D11*
X94818750Y-143437500D02*
X94818750Y-142437500D01*
%TD*%
%LPC*%
D12*
%TO.C,K2*%
X52443750Y-80962500D03*
D13*
X52723750Y-85162500D03*
D14*
X57943750Y-80962500D03*
D12*
X63443750Y-80962500D03*
D15*
X57943750Y-75062500D03*
X62943750Y-77162500D03*
%TD*%
D12*
%TO.C,K3*%
X71493750Y-80949800D03*
D13*
X71773750Y-85149800D03*
D14*
X76993750Y-80949800D03*
D12*
X82493750Y-80949800D03*
D15*
X76993750Y-75049800D03*
X81993750Y-77149800D03*
%TD*%
D12*
%TO.C,K6*%
X128643750Y-80962500D03*
D13*
X128923750Y-85162500D03*
D14*
X134143750Y-80962500D03*
D12*
X139643750Y-80962500D03*
D15*
X134143750Y-75062500D03*
X139143750Y-77162500D03*
%TD*%
D12*
%TO.C,K7*%
X147693750Y-80962500D03*
D13*
X147973750Y-85162500D03*
D14*
X153193750Y-80962500D03*
D12*
X158693750Y-80962500D03*
D15*
X153193750Y-75062500D03*
X158193750Y-77162500D03*
%TD*%
D12*
%TO.C,K8*%
X166743750Y-80962500D03*
D13*
X167023750Y-85162500D03*
D14*
X172243750Y-80962500D03*
D12*
X177743750Y-80962500D03*
D15*
X172243750Y-75062500D03*
X177243750Y-77162500D03*
%TD*%
D12*
%TO.C,K9*%
X185793750Y-80962500D03*
D13*
X186073750Y-85162500D03*
D14*
X191293750Y-80962500D03*
D12*
X196793750Y-80962500D03*
D15*
X191293750Y-75062500D03*
X196293750Y-77162500D03*
%TD*%
D12*
%TO.C,K10*%
X204843750Y-80962500D03*
D13*
X205123750Y-85162500D03*
D14*
X210343750Y-80962500D03*
D12*
X215843750Y-80962500D03*
D15*
X210343750Y-75062500D03*
X215343750Y-77162500D03*
%TD*%
D12*
%TO.C,K11*%
X223893750Y-80962500D03*
D13*
X224173750Y-85162500D03*
D14*
X229393750Y-80962500D03*
D12*
X234893750Y-80962500D03*
D15*
X229393750Y-75062500D03*
X234393750Y-77162500D03*
%TD*%
D12*
%TO.C,K12*%
X242943750Y-80962500D03*
D13*
X243223750Y-85162500D03*
D14*
X248443750Y-80962500D03*
D12*
X253943750Y-80962500D03*
D15*
X248443750Y-75062500D03*
X253443750Y-77162500D03*
%TD*%
D12*
%TO.C,K13*%
X261993750Y-80962500D03*
D13*
X262273750Y-85162500D03*
D14*
X267493750Y-80962500D03*
D12*
X272993750Y-80962500D03*
D15*
X267493750Y-75062500D03*
X272493750Y-77162500D03*
%TD*%
D12*
%TO.C,K14*%
X281043750Y-80962500D03*
D13*
X281323750Y-85162500D03*
D14*
X286543750Y-80962500D03*
D12*
X292043750Y-80962500D03*
D15*
X286543750Y-75062500D03*
X291543750Y-77162500D03*
%TD*%
D12*
%TO.C,K15*%
X300093750Y-80962500D03*
D13*
X300373750Y-85162500D03*
D14*
X305593750Y-80962500D03*
D12*
X311093750Y-80962500D03*
D15*
X305593750Y-75062500D03*
X310593750Y-77162500D03*
%TD*%
D12*
%TO.C,K16*%
X319143750Y-80962500D03*
D13*
X319423750Y-85162500D03*
D14*
X324643750Y-80962500D03*
D12*
X330143750Y-80962500D03*
D15*
X324643750Y-75062500D03*
X329643750Y-77162500D03*
%TD*%
D12*
%TO.C,K17*%
X33393750Y-100012500D03*
D13*
X33673750Y-104212500D03*
D14*
X38893750Y-100012500D03*
D12*
X44393750Y-100012500D03*
D15*
X38893750Y-94112500D03*
X43893750Y-96212500D03*
%TD*%
D12*
%TO.C,K18*%
X52443750Y-100012500D03*
D13*
X52723750Y-104212500D03*
D14*
X57943750Y-100012500D03*
D12*
X63443750Y-100012500D03*
D15*
X57943750Y-94112500D03*
X62943750Y-96212500D03*
%TD*%
D12*
%TO.C,K19*%
X71493750Y-100012500D03*
D13*
X71773750Y-104212500D03*
D14*
X76993750Y-100012500D03*
D12*
X82493750Y-100012500D03*
D15*
X76993750Y-94112500D03*
X81993750Y-96212500D03*
%TD*%
D12*
%TO.C,K22*%
X128643750Y-100012500D03*
D13*
X128923750Y-104212500D03*
D14*
X134143750Y-100012500D03*
D12*
X139643750Y-100012500D03*
D15*
X134143750Y-94112500D03*
X139143750Y-96212500D03*
%TD*%
D12*
%TO.C,K23*%
X147693750Y-100012500D03*
D13*
X147973750Y-104212500D03*
D14*
X153193750Y-100012500D03*
D12*
X158693750Y-100012500D03*
D15*
X153193750Y-94112500D03*
X158193750Y-96212500D03*
%TD*%
D12*
%TO.C,K24*%
X166743750Y-100012500D03*
D13*
X167023750Y-104212500D03*
D14*
X172243750Y-100012500D03*
D12*
X177743750Y-100012500D03*
D15*
X172243750Y-94112500D03*
X177243750Y-96212500D03*
%TD*%
D12*
%TO.C,K25*%
X185793750Y-100012500D03*
D13*
X186073750Y-104212500D03*
D14*
X191293750Y-100012500D03*
D12*
X196793750Y-100012500D03*
D15*
X191293750Y-94112500D03*
X196293750Y-96212500D03*
%TD*%
D12*
%TO.C,K26*%
X204843750Y-100012500D03*
D13*
X205123750Y-104212500D03*
D14*
X210343750Y-100012500D03*
D12*
X215843750Y-100012500D03*
D15*
X210343750Y-94112500D03*
X215343750Y-96212500D03*
%TD*%
D12*
%TO.C,K27*%
X223893750Y-100012500D03*
D13*
X224173750Y-104212500D03*
D14*
X229393750Y-100012500D03*
D12*
X234893750Y-100012500D03*
D15*
X229393750Y-94112500D03*
X234393750Y-96212500D03*
%TD*%
D12*
%TO.C,K28*%
X242943750Y-100012500D03*
D13*
X243223750Y-104212500D03*
D14*
X248443750Y-100012500D03*
D12*
X253943750Y-100012500D03*
D15*
X248443750Y-94112500D03*
X253443750Y-96212500D03*
%TD*%
D12*
%TO.C,K29*%
X261993750Y-100012500D03*
D13*
X262273750Y-104212500D03*
D14*
X267493750Y-100012500D03*
D12*
X272993750Y-100012500D03*
D15*
X267493750Y-94112500D03*
X272493750Y-96212500D03*
%TD*%
D12*
%TO.C,K30*%
X281043750Y-100012500D03*
D13*
X281323750Y-104212500D03*
D14*
X286543750Y-100012500D03*
D12*
X292043750Y-100012500D03*
D15*
X286543750Y-94112500D03*
X291543750Y-96212500D03*
%TD*%
D12*
%TO.C,K31*%
X300093750Y-100012500D03*
D13*
X300373750Y-104212500D03*
D14*
X305593750Y-100012500D03*
D12*
X311093750Y-100012500D03*
D15*
X305593750Y-94112500D03*
X310593750Y-96212500D03*
%TD*%
D12*
%TO.C,K32*%
X319143750Y-100012500D03*
D13*
X319423750Y-104212500D03*
D14*
X324643750Y-100012500D03*
D12*
X330143750Y-100012500D03*
D15*
X324643750Y-94112500D03*
X329643750Y-96212500D03*
%TD*%
D12*
%TO.C,K33*%
X33393750Y-119062500D03*
D13*
X33673750Y-123262500D03*
D14*
X38893750Y-119062500D03*
D12*
X44393750Y-119062500D03*
D15*
X38893750Y-113162500D03*
X43893750Y-115262500D03*
%TD*%
D12*
%TO.C,K34*%
X52443750Y-119062500D03*
D13*
X52723750Y-123262500D03*
D14*
X57943750Y-119062500D03*
D12*
X63443750Y-119062500D03*
D15*
X57943750Y-113162500D03*
X62943750Y-115262500D03*
%TD*%
D12*
%TO.C,K35*%
X71493750Y-119062500D03*
D13*
X71773750Y-123262500D03*
D14*
X76993750Y-119062500D03*
D12*
X82493750Y-119062500D03*
D15*
X76993750Y-113162500D03*
X81993750Y-115262500D03*
%TD*%
D12*
%TO.C,K36*%
X90543750Y-119062500D03*
D13*
X90823750Y-123262500D03*
D14*
X96043750Y-119062500D03*
D12*
X101543750Y-119062500D03*
D15*
X96043750Y-113162500D03*
X101043750Y-115262500D03*
%TD*%
D12*
%TO.C,K37*%
X109593750Y-119062500D03*
D13*
X109873750Y-123262500D03*
D14*
X115093750Y-119062500D03*
D12*
X120593750Y-119062500D03*
D15*
X115093750Y-113162500D03*
X120093750Y-115262500D03*
%TD*%
D12*
%TO.C,K38*%
X128643750Y-119062500D03*
D13*
X128923750Y-123262500D03*
D14*
X134143750Y-119062500D03*
D12*
X139643750Y-119062500D03*
D15*
X134143750Y-113162500D03*
X139143750Y-115262500D03*
%TD*%
D12*
%TO.C,K39*%
X147693750Y-119062500D03*
D13*
X147973750Y-123262500D03*
D14*
X153193750Y-119062500D03*
D12*
X158693750Y-119062500D03*
D15*
X153193750Y-113162500D03*
X158193750Y-115262500D03*
%TD*%
D12*
%TO.C,K40*%
X166743750Y-119062500D03*
D13*
X167023750Y-123262500D03*
D14*
X172243750Y-119062500D03*
D12*
X177743750Y-119062500D03*
D15*
X172243750Y-113162500D03*
X177243750Y-115262500D03*
%TD*%
D12*
%TO.C,K41*%
X185793750Y-119062500D03*
D13*
X186073750Y-123262500D03*
D14*
X191293750Y-119062500D03*
D12*
X196793750Y-119062500D03*
D15*
X191293750Y-113162500D03*
X196293750Y-115262500D03*
%TD*%
D12*
%TO.C,K42*%
X204843750Y-119062500D03*
D13*
X205123750Y-123262500D03*
D14*
X210343750Y-119062500D03*
D12*
X215843750Y-119062500D03*
D15*
X210343750Y-113162500D03*
X215343750Y-115262500D03*
%TD*%
D12*
%TO.C,K43*%
X223893750Y-119062500D03*
D13*
X224173750Y-123262500D03*
D14*
X229393750Y-119062500D03*
D12*
X234893750Y-119062500D03*
D15*
X229393750Y-113162500D03*
X234393750Y-115262500D03*
%TD*%
D12*
%TO.C,K44*%
X242943750Y-119062500D03*
D13*
X243223750Y-123262500D03*
D14*
X248443750Y-119062500D03*
D12*
X253943750Y-119062500D03*
D15*
X248443750Y-113162500D03*
X253443750Y-115262500D03*
%TD*%
D12*
%TO.C,K45*%
X261993750Y-119062500D03*
D13*
X262273750Y-123262500D03*
D14*
X267493750Y-119062500D03*
D12*
X272993750Y-119062500D03*
D15*
X267493750Y-113162500D03*
X272493750Y-115262500D03*
%TD*%
D12*
%TO.C,K46*%
X281043750Y-119062500D03*
D13*
X281323750Y-123262500D03*
D14*
X286543750Y-119062500D03*
D12*
X292043750Y-119062500D03*
D15*
X286543750Y-113162500D03*
X291543750Y-115262500D03*
%TD*%
D12*
%TO.C,K47*%
X300093750Y-119062500D03*
D13*
X300373750Y-123262500D03*
D14*
X305593750Y-119062500D03*
D12*
X311093750Y-119062500D03*
D15*
X305593750Y-113162500D03*
X310593750Y-115262500D03*
%TD*%
D12*
%TO.C,K48*%
X319143750Y-119062500D03*
D13*
X319423750Y-123262500D03*
D14*
X324643750Y-119062500D03*
D12*
X330143750Y-119062500D03*
D15*
X324643750Y-113162500D03*
X329643750Y-115262500D03*
%TD*%
D12*
%TO.C,K49*%
X33393750Y-138112500D03*
D13*
X33673750Y-142312500D03*
D14*
X38893750Y-138112500D03*
D12*
X44393750Y-138112500D03*
D15*
X38893750Y-132212500D03*
X43893750Y-134312500D03*
%TD*%
D12*
%TO.C,K50*%
X52443750Y-138112500D03*
D13*
X52723750Y-142312500D03*
D14*
X57943750Y-138112500D03*
D12*
X63443750Y-138112500D03*
D15*
X57943750Y-132212500D03*
X62943750Y-134312500D03*
%TD*%
D12*
%TO.C,K51*%
X71493750Y-138112500D03*
D13*
X71773750Y-142312500D03*
D14*
X76993750Y-138112500D03*
D12*
X82493750Y-138112500D03*
D15*
X76993750Y-132212500D03*
X81993750Y-134312500D03*
%TD*%
D12*
%TO.C,K52*%
X90543750Y-138112500D03*
D13*
X90823750Y-142312500D03*
D14*
X96043750Y-138112500D03*
D12*
X101543750Y-138112500D03*
D15*
X96043750Y-132212500D03*
X101043750Y-134312500D03*
%TD*%
D12*
%TO.C,K53*%
X109593750Y-138112500D03*
D13*
X109873750Y-142312500D03*
D14*
X115093750Y-138112500D03*
D12*
X120593750Y-138112500D03*
D15*
X115093750Y-132212500D03*
X120093750Y-134312500D03*
%TD*%
D12*
%TO.C,K54*%
X128643750Y-138112500D03*
D13*
X128923750Y-142312500D03*
D14*
X134143750Y-138112500D03*
D15*
X134143750Y-132212500D03*
X139143750Y-134312500D03*
%TD*%
D13*
%TO.C,K55*%
X147973750Y-142312500D03*
D14*
X153193750Y-138112500D03*
D12*
X158693750Y-138112500D03*
D15*
X153193750Y-132212500D03*
X158193750Y-134312500D03*
%TD*%
D12*
%TO.C,K56*%
X166743750Y-138112500D03*
D13*
X167023750Y-142312500D03*
D14*
X172243750Y-138112500D03*
D12*
X177743750Y-138112500D03*
D15*
X172243750Y-132212500D03*
X177243750Y-134312500D03*
%TD*%
D12*
%TO.C,K57*%
X185793750Y-138112500D03*
D13*
X186073750Y-142312500D03*
D14*
X191293750Y-138112500D03*
D12*
X196793750Y-138112500D03*
D15*
X191293750Y-132212500D03*
X196293750Y-134312500D03*
%TD*%
D12*
%TO.C,K58*%
X204843750Y-138112500D03*
D13*
X205123750Y-142312500D03*
D14*
X210343750Y-138112500D03*
D15*
X210343750Y-132212500D03*
X215343750Y-134312500D03*
%TD*%
D13*
%TO.C,K59*%
X224173750Y-142312500D03*
D14*
X229393750Y-138112500D03*
D12*
X234893750Y-138112500D03*
D15*
X229393750Y-132212500D03*
X234393750Y-134312500D03*
%TD*%
D12*
%TO.C,K60*%
X242943750Y-138112500D03*
D13*
X243223750Y-142312500D03*
D14*
X248443750Y-138112500D03*
D12*
X253943750Y-138112500D03*
D15*
X248443750Y-132212500D03*
X253443750Y-134312500D03*
%TD*%
D12*
%TO.C,K61*%
X261993750Y-138112500D03*
D13*
X262273750Y-142312500D03*
D14*
X267493750Y-138112500D03*
D12*
X272993750Y-138112500D03*
D15*
X267493750Y-132212500D03*
X272493750Y-134312500D03*
%TD*%
D12*
%TO.C,K62*%
X281043750Y-138112500D03*
D13*
X281323750Y-142312500D03*
D14*
X286543750Y-138112500D03*
D12*
X292043750Y-138112500D03*
D15*
X286543750Y-132212500D03*
X291543750Y-134312500D03*
%TD*%
D12*
%TO.C,K63*%
X300093750Y-138112500D03*
D13*
X300373750Y-142312500D03*
D14*
X305593750Y-138112500D03*
D12*
X311093750Y-138112500D03*
D15*
X305593750Y-132212500D03*
X310593750Y-134312500D03*
%TD*%
D12*
%TO.C,K64*%
X319143750Y-138112500D03*
D13*
X319423750Y-142312500D03*
D14*
X324643750Y-138112500D03*
D12*
X330143750Y-138112500D03*
D15*
X324643750Y-132212500D03*
X329643750Y-134312500D03*
%TD*%
D12*
%TO.C,K1*%
X33393750Y-80962500D03*
D13*
X33673750Y-85162500D03*
D14*
X38893750Y-80962500D03*
D12*
X44393750Y-80962500D03*
D15*
X38893750Y-75062500D03*
X43893750Y-77162500D03*
%TD*%
D16*
%TO.C,H1*%
X67468750Y-90481800D03*
%TD*%
%TO.C,H2*%
X148431250Y-90487500D03*
%TD*%
%TO.C,H3*%
X215106250Y-90481800D03*
%TD*%
%TO.C,H4*%
X296063950Y-90481800D03*
%TD*%
%TO.C,H5*%
X67468750Y-128579400D03*
%TD*%
%TO.C,H6*%
X148431250Y-128585100D03*
%TD*%
D17*
%TO.C,LC1*%
X39442475Y-88329000D03*
X38472475Y-88329000D03*
%TD*%
D12*
%TO.C,K4*%
X90543750Y-80962500D03*
D13*
X90823750Y-85162500D03*
D14*
X96043750Y-80962500D03*
D12*
X101543750Y-80962500D03*
D15*
X96043750Y-75062500D03*
X101043750Y-77162500D03*
%TD*%
D17*
%TO.C,LC3*%
X77448250Y-88329000D03*
X76478250Y-88329000D03*
%TD*%
D12*
%TO.C,K5*%
X109593750Y-80962500D03*
D13*
X109873750Y-85162500D03*
D14*
X115093750Y-80962500D03*
D12*
X120593750Y-80962500D03*
D15*
X115093750Y-75062500D03*
X120093750Y-77162500D03*
%TD*%
D12*
%TO.C,K21*%
X109593750Y-100012500D03*
D13*
X109873750Y-104212500D03*
D14*
X115093750Y-100012500D03*
D12*
X120593750Y-100012500D03*
D15*
X115093750Y-94112500D03*
X120093750Y-96212500D03*
%TD*%
D12*
%TO.C,K20*%
X90543750Y-100012500D03*
D13*
X90823750Y-104212500D03*
D14*
X96043750Y-100012500D03*
D12*
X101543750Y-100012500D03*
D15*
X96043750Y-94112500D03*
X101043750Y-96212500D03*
%TD*%
D17*
%TO.C,LC10*%
X210798250Y-88329000D03*
X209828250Y-88329000D03*
%TD*%
%TO.C,LC12*%
X248898250Y-88329000D03*
X247928250Y-88329000D03*
%TD*%
%TO.C,LC6*%
X134598250Y-88329000D03*
X133628250Y-88329000D03*
%TD*%
%TO.C,LC8*%
X172698250Y-88329000D03*
X171728250Y-88329000D03*
%TD*%
%TO.C,LC9*%
X191748250Y-88329000D03*
X190778250Y-88329000D03*
%TD*%
%TO.C,LC7*%
X153648250Y-88329000D03*
X152678250Y-88329000D03*
%TD*%
%TO.C,LC5*%
X115548250Y-88329000D03*
X114578250Y-88329000D03*
%TD*%
%TO.C,LC11*%
X229848250Y-88329000D03*
X228878250Y-88329000D03*
%TD*%
%TO.C,LC13*%
X267948250Y-88329000D03*
X266978250Y-88329000D03*
%TD*%
%TO.C,LC4*%
X96498250Y-88329000D03*
X95528250Y-88329000D03*
%TD*%
%TO.C,LC14*%
X286998250Y-88329000D03*
X286028250Y-88329000D03*
%TD*%
%TO.C,LC15*%
X306048250Y-88329000D03*
X305078250Y-88329000D03*
%TD*%
%TO.C,LC16*%
X325098250Y-88329000D03*
X324128250Y-88329000D03*
%TD*%
%TO.C,LC17*%
X39348250Y-107379000D03*
X38378250Y-107379000D03*
%TD*%
%TO.C,LC18*%
X58398250Y-107379000D03*
X57428250Y-107379000D03*
%TD*%
%TO.C,LC19*%
X77448250Y-107379000D03*
X76478250Y-107379000D03*
%TD*%
%TO.C,LC20*%
X96498250Y-107379000D03*
X95528250Y-107379000D03*
%TD*%
%TO.C,LC21*%
X115535975Y-107379000D03*
X114565975Y-107379000D03*
%TD*%
%TO.C,LC22*%
X134598250Y-107379000D03*
X133628250Y-107379000D03*
%TD*%
%TO.C,LC23*%
X153648250Y-107379000D03*
X152678250Y-107379000D03*
%TD*%
%TO.C,LC24*%
X172698250Y-107379000D03*
X171728250Y-107379000D03*
%TD*%
%TO.C,LC25*%
X191679500Y-107379000D03*
X190709500Y-107379000D03*
%TD*%
%TO.C,LC26*%
X210798250Y-107379000D03*
X209828250Y-107379000D03*
%TD*%
%TO.C,LC27*%
X229848250Y-107379000D03*
X228878250Y-107379000D03*
%TD*%
%TO.C,LC28*%
X248898250Y-107379000D03*
X247928250Y-107379000D03*
%TD*%
%TO.C,LC29*%
X267948250Y-107379000D03*
X266978250Y-107379000D03*
%TD*%
%TO.C,LC30*%
X286854500Y-107379000D03*
X285884500Y-107379000D03*
%TD*%
%TO.C,LC31*%
X306048250Y-107379000D03*
X305078250Y-107379000D03*
%TD*%
%TO.C,LC32*%
X325098250Y-107379000D03*
X324128250Y-107379000D03*
%TD*%
D18*
%TO.C,LD16*%
X325368750Y-87037500D03*
X325368750Y-85937500D03*
X323868750Y-85937500D03*
X323868750Y-87037500D03*
%TD*%
%TO.C,LD17*%
X38118750Y-104987500D03*
X38118750Y-106087500D03*
X39618750Y-106087500D03*
X39618750Y-104987500D03*
%TD*%
%TO.C,LD18*%
X57168750Y-104987500D03*
X57168750Y-106087500D03*
X58668750Y-106087500D03*
X58668750Y-104987500D03*
%TD*%
%TO.C,LD19*%
X76218750Y-104987500D03*
X76218750Y-106087500D03*
X77718750Y-106087500D03*
X77718750Y-104987500D03*
%TD*%
%TO.C,LD20*%
X95268750Y-104987500D03*
X95268750Y-106087500D03*
X96768750Y-106087500D03*
X96768750Y-104987500D03*
%TD*%
%TO.C,LD21*%
X114318750Y-104987500D03*
X114318750Y-106087500D03*
X115818750Y-106087500D03*
X115818750Y-104987500D03*
%TD*%
%TO.C,LD22*%
X133368750Y-104987500D03*
X133368750Y-106087500D03*
X134868750Y-106087500D03*
X134868750Y-104987500D03*
%TD*%
%TO.C,LD23*%
X152418750Y-104987500D03*
X152418750Y-106087500D03*
X153918750Y-106087500D03*
X153918750Y-104987500D03*
%TD*%
%TO.C,LD24*%
X171468750Y-104987500D03*
X171468750Y-106087500D03*
X172968750Y-106087500D03*
X172968750Y-104987500D03*
%TD*%
%TO.C,LD25*%
X190518750Y-104987500D03*
X190518750Y-106087500D03*
X192018750Y-106087500D03*
X192018750Y-104987500D03*
%TD*%
%TO.C,LD26*%
X209568750Y-104987500D03*
X209568750Y-106087500D03*
X211068750Y-106087500D03*
X211068750Y-104987500D03*
%TD*%
%TO.C,LD27*%
X228618750Y-104987500D03*
X228618750Y-106087500D03*
X230118750Y-106087500D03*
X230118750Y-104987500D03*
%TD*%
%TO.C,LD28*%
X247668750Y-104987500D03*
X247668750Y-106087500D03*
X249168750Y-106087500D03*
X249168750Y-104987500D03*
%TD*%
%TO.C,LD29*%
X266718750Y-104987500D03*
X266718750Y-106087500D03*
X268218750Y-106087500D03*
X268218750Y-104987500D03*
%TD*%
%TO.C,LD30*%
X285768750Y-104987500D03*
X285768750Y-106087500D03*
X287268750Y-106087500D03*
X287268750Y-104987500D03*
%TD*%
%TO.C,LD32*%
X323868750Y-104987500D03*
X323868750Y-106087500D03*
X325368750Y-106087500D03*
X325368750Y-104987500D03*
%TD*%
%TO.C,LD31*%
X304818750Y-104987500D03*
X304818750Y-106087500D03*
X306318750Y-106087500D03*
X306318750Y-104987500D03*
%TD*%
%TO.C,LD15*%
X306318750Y-87037500D03*
X306318750Y-85937500D03*
X304818750Y-85937500D03*
X304818750Y-87037500D03*
%TD*%
%TO.C,LD14*%
X287268750Y-87037500D03*
X287268750Y-85937500D03*
X285768750Y-85937500D03*
X285768750Y-87037500D03*
%TD*%
%TO.C,LD12*%
X249168750Y-87037500D03*
X249168750Y-85937500D03*
X247668750Y-85937500D03*
X247668750Y-87037500D03*
%TD*%
%TO.C,LD10*%
X211068750Y-87037500D03*
X211068750Y-85937500D03*
X209568750Y-85937500D03*
X209568750Y-87037500D03*
%TD*%
%TO.C,LD13*%
X268218750Y-87037500D03*
X268218750Y-85937500D03*
X266718750Y-85937500D03*
X266718750Y-87037500D03*
%TD*%
%TO.C,LD5*%
X115818750Y-87037500D03*
X115818750Y-85937500D03*
X114318750Y-85937500D03*
X114318750Y-87037500D03*
%TD*%
%TO.C,LD11*%
X230118750Y-87037500D03*
X230118750Y-85937500D03*
X228618750Y-85937500D03*
X228618750Y-87037500D03*
%TD*%
%TO.C,LD6*%
X134868750Y-87037500D03*
X134868750Y-85937500D03*
X133368750Y-85937500D03*
X133368750Y-87037500D03*
%TD*%
%TO.C,LD7*%
X153918750Y-87037500D03*
X153918750Y-85937500D03*
X152418750Y-85937500D03*
X152418750Y-87037500D03*
%TD*%
%TO.C,LD8*%
X172968750Y-87037500D03*
X172968750Y-85937500D03*
X171468750Y-85937500D03*
X171468750Y-87037500D03*
%TD*%
%TO.C,LD9*%
X192018750Y-87037500D03*
X192018750Y-85937500D03*
X190518750Y-85937500D03*
X190518750Y-87037500D03*
%TD*%
%TO.C,LD2*%
X58668750Y-87037500D03*
X58668750Y-85937500D03*
X57168750Y-85937500D03*
X57168750Y-87037500D03*
%TD*%
%TO.C,LD1*%
X39618750Y-87037500D03*
X39618750Y-85937500D03*
X38118750Y-85937500D03*
X38118750Y-87037500D03*
%TD*%
%TO.C,LD3*%
X77718750Y-87037500D03*
X77718750Y-85937500D03*
X76218750Y-85937500D03*
X76218750Y-87037500D03*
%TD*%
%TO.C,LD4*%
X96768750Y-87037500D03*
X96768750Y-85937500D03*
X95268750Y-85937500D03*
X95268750Y-87037500D03*
%TD*%
D17*
%TO.C,LC2*%
X58398250Y-88329000D03*
X57428250Y-88329000D03*
%TD*%
D18*
%TO.C,LD56*%
X171468750Y-142887500D03*
X171468750Y-143987500D03*
X172968750Y-143987500D03*
X172968750Y-142887500D03*
%TD*%
%TO.C,LD54*%
X133368750Y-142887500D03*
X133368750Y-143987500D03*
X134868750Y-143987500D03*
X134868750Y-142887500D03*
%TD*%
D17*
%TO.C,LC36*%
X96503750Y-126387500D03*
X95533750Y-126387500D03*
%TD*%
D18*
%TO.C,LD43*%
X230118750Y-125137500D03*
X230118750Y-124037500D03*
X228618750Y-124037500D03*
X228618750Y-125137500D03*
%TD*%
%TO.C,LD47*%
X306318750Y-125137500D03*
X306318750Y-124037500D03*
X304818750Y-124037500D03*
X304818750Y-125137500D03*
%TD*%
%TO.C,LD46*%
X287268750Y-125137500D03*
X287268750Y-124037500D03*
X285768750Y-124037500D03*
X285768750Y-125137500D03*
%TD*%
%TO.C,LD60*%
X247668750Y-142887500D03*
X247668750Y-143987500D03*
X249168750Y-143987500D03*
X249168750Y-142887500D03*
%TD*%
%TO.C,LD61*%
X266718750Y-142887500D03*
X266718750Y-143987500D03*
X268218750Y-143987500D03*
X268218750Y-142887500D03*
%TD*%
%TO.C,LD36*%
X96768750Y-125137500D03*
X96768750Y-124037500D03*
X95268750Y-124037500D03*
X95268750Y-125137500D03*
%TD*%
%TO.C,LD57*%
X190518750Y-142887500D03*
X190518750Y-143987500D03*
X192018750Y-143987500D03*
X192018750Y-142887500D03*
%TD*%
D17*
%TO.C,LC61*%
X267953750Y-145437500D03*
X266983750Y-145437500D03*
%TD*%
%TO.C,LC64*%
X325103750Y-145437500D03*
X324133750Y-145437500D03*
%TD*%
%TO.C,LC39*%
X153653750Y-126387500D03*
X152683750Y-126387500D03*
%TD*%
D18*
%TO.C,LD55*%
X152418750Y-142887500D03*
X152418750Y-143987500D03*
X153918750Y-143987500D03*
X153918750Y-142887500D03*
%TD*%
%TO.C,LD64*%
X323868750Y-142887500D03*
X323868750Y-143987500D03*
X325368750Y-143987500D03*
X325368750Y-142887500D03*
%TD*%
D17*
%TO.C,LC52*%
X96503750Y-145437500D03*
X95533750Y-145437500D03*
%TD*%
D18*
%TO.C,LD53*%
X114318750Y-142887500D03*
X114318750Y-143987500D03*
X115818750Y-143987500D03*
X115818750Y-142887500D03*
%TD*%
D17*
%TO.C,LC45*%
X267953750Y-126387500D03*
X266983750Y-126387500D03*
%TD*%
D18*
%TO.C,LD38*%
X134868750Y-125137500D03*
X134868750Y-124037500D03*
X133368750Y-124037500D03*
X133368750Y-125137500D03*
%TD*%
%TO.C,LD42*%
X211068750Y-125137500D03*
X211068750Y-124037500D03*
X209568750Y-124037500D03*
X209568750Y-125137500D03*
%TD*%
D17*
%TO.C,LC35*%
X77453750Y-126387500D03*
X76483750Y-126387500D03*
%TD*%
D13*
%TO.C,K54.1*%
X138448750Y-142312500D03*
D19*
X139019650Y-138112500D03*
D14*
X143668750Y-138112500D03*
D19*
X148317850Y-138112500D03*
D15*
X143668750Y-132212500D03*
X148668750Y-134312500D03*
%TD*%
D17*
%TO.C,LC48*%
X325103750Y-126387500D03*
X324133750Y-126387500D03*
%TD*%
%TO.C,LC34*%
X58428750Y-126400000D03*
X57458750Y-126400000D03*
%TD*%
D18*
%TO.C,LD58*%
X209568750Y-142887500D03*
X209568750Y-143987500D03*
X211068750Y-143987500D03*
X211068750Y-142887500D03*
%TD*%
%TO.C,LD59*%
X228618750Y-142887500D03*
X228618750Y-143987500D03*
X230118750Y-143987500D03*
X230118750Y-142887500D03*
%TD*%
D16*
%TO.C,H7*%
X215106250Y-128579400D03*
%TD*%
D17*
%TO.C,LC42*%
X210803750Y-126387500D03*
X209833750Y-126387500D03*
%TD*%
%TO.C,LC59*%
X229853750Y-145437500D03*
X228883750Y-145437500D03*
%TD*%
%TO.C,LC57*%
X191753750Y-145437500D03*
X190783750Y-145437500D03*
%TD*%
%TO.C,LC49*%
X39353750Y-145437500D03*
X38383750Y-145437500D03*
%TD*%
D18*
%TO.C,LD40*%
X172968750Y-125137500D03*
X172968750Y-124037500D03*
X171468750Y-124037500D03*
X171468750Y-125137500D03*
%TD*%
D17*
%TO.C,LC43*%
X229853750Y-126387500D03*
X228883750Y-126387500D03*
%TD*%
D18*
%TO.C,LD44*%
X249168750Y-125137500D03*
X249168750Y-124037500D03*
X247668750Y-124037500D03*
X247668750Y-125137500D03*
%TD*%
%TO.C,LD34*%
X58668750Y-125137500D03*
X58668750Y-124037500D03*
X57168750Y-124037500D03*
X57168750Y-125137500D03*
%TD*%
D17*
%TO.C,LC41*%
X191753750Y-126387500D03*
X190783750Y-126387500D03*
%TD*%
D18*
%TO.C,LD62*%
X285768750Y-142887500D03*
X285768750Y-143987500D03*
X287268750Y-143987500D03*
X287268750Y-142887500D03*
%TD*%
%TO.C,LD49*%
X38118750Y-142887500D03*
X38118750Y-143987500D03*
X39618750Y-143987500D03*
X39618750Y-142887500D03*
%TD*%
%TO.C,LD35*%
X77718750Y-125137500D03*
X77718750Y-124037500D03*
X76218750Y-124037500D03*
X76218750Y-125137500D03*
%TD*%
D17*
%TO.C,LC55*%
X153653750Y-145437500D03*
X152683750Y-145437500D03*
%TD*%
D18*
%TO.C,LD37*%
X115818750Y-125137500D03*
X115818750Y-124037500D03*
X114318750Y-124037500D03*
X114318750Y-125137500D03*
%TD*%
%TO.C,LD51*%
X76218750Y-142887500D03*
X76218750Y-143987500D03*
X77718750Y-143987500D03*
X77718750Y-142887500D03*
%TD*%
D17*
%TO.C,LC62*%
X287003750Y-145437500D03*
X286033750Y-145437500D03*
%TD*%
%TO.C,LC58*%
X210868750Y-145437500D03*
X209898750Y-145437500D03*
%TD*%
%TO.C,LC53*%
X115553750Y-145437500D03*
X114583750Y-145437500D03*
%TD*%
D18*
%TO.C,LD45*%
X268218750Y-125137500D03*
X268218750Y-124037500D03*
X266718750Y-124037500D03*
X266718750Y-125137500D03*
%TD*%
%TO.C,LD50*%
X57168750Y-142887500D03*
X57168750Y-143987500D03*
X58668750Y-143987500D03*
X58668750Y-142887500D03*
%TD*%
D17*
%TO.C,LC33*%
X39428750Y-126400000D03*
X38458750Y-126400000D03*
%TD*%
%TO.C,LC54*%
X134603750Y-145437500D03*
X133633750Y-145437500D03*
%TD*%
%TO.C,LC44*%
X248903750Y-126387500D03*
X247933750Y-126387500D03*
%TD*%
D18*
%TO.C,LD48*%
X325368750Y-125137500D03*
X325368750Y-124037500D03*
X323868750Y-124037500D03*
X323868750Y-125137500D03*
%TD*%
%TO.C,LD39*%
X153918750Y-125137500D03*
X153918750Y-124037500D03*
X152418750Y-124037500D03*
X152418750Y-125137500D03*
%TD*%
%TO.C,LD33*%
X39618750Y-125137500D03*
X39618750Y-124037500D03*
X38118750Y-124037500D03*
X38118750Y-125137500D03*
%TD*%
D17*
%TO.C,LC50*%
X58403750Y-145437500D03*
X57433750Y-145437500D03*
%TD*%
D16*
%TO.C,H8*%
X296063950Y-128579400D03*
%TD*%
D13*
%TO.C,K58.1*%
X214648750Y-142312500D03*
D19*
X215219650Y-138112500D03*
D14*
X219868750Y-138112500D03*
D19*
X224517850Y-138112500D03*
D15*
X219868750Y-132212500D03*
X224868750Y-134312500D03*
%TD*%
D17*
%TO.C,LC51*%
X77453750Y-145437500D03*
X76483750Y-145437500D03*
%TD*%
%TO.C,LC46*%
X287003750Y-126387500D03*
X286033750Y-126387500D03*
%TD*%
D18*
%TO.C,LD41*%
X192018750Y-125137500D03*
X192018750Y-124037500D03*
X190518750Y-124037500D03*
X190518750Y-125137500D03*
%TD*%
D17*
%TO.C,LC63*%
X306053750Y-145437500D03*
X305083750Y-145437500D03*
%TD*%
%TO.C,LC56*%
X172703750Y-145437500D03*
X171733750Y-145437500D03*
%TD*%
%TO.C,LC37*%
X115603750Y-126387500D03*
X114633750Y-126387500D03*
%TD*%
%TO.C,LC60*%
X248903750Y-145437500D03*
X247933750Y-145437500D03*
%TD*%
D18*
%TO.C,LD63*%
X304818750Y-142887500D03*
X304818750Y-143987500D03*
X306318750Y-143987500D03*
X306318750Y-142887500D03*
%TD*%
D17*
%TO.C,LC40*%
X172703750Y-126387500D03*
X171733750Y-126387500D03*
%TD*%
%TO.C,LC47*%
X306053750Y-126387500D03*
X305083750Y-126387500D03*
%TD*%
%TO.C,LC38*%
X134603750Y-126387500D03*
X133633750Y-126387500D03*
%TD*%
D18*
%TO.C,LD52*%
X95268750Y-142887500D03*
X95268750Y-143987500D03*
X96768750Y-143987500D03*
X96768750Y-142887500D03*
%TD*%
D20*
%TO.C,J0*%
X47978750Y-76237500D03*
X53758750Y-76237500D03*
D21*
X46548750Y-72587500D03*
D22*
X46548750Y-76767500D03*
D21*
X55188750Y-72587500D03*
D22*
X55188750Y-76767500D03*
%TD*%
D23*
%TO.C,J2*%
X31750000Y-83343750D03*
D24*
X31750000Y-85883750D03*
X31750000Y-88423750D03*
X31750000Y-90963750D03*
X31750000Y-93503750D03*
X31750000Y-96043750D03*
%TD*%
%LPD*%
M02*
