M48
; DRILL file {KiCad 7.0.2} date Thu Jul 13 09:31:41 2023
; FORMAT={-:-/ absolute / inch / decimal}
; #@! TF.CreationDate,2023-07-13T09:31:41-04:00
; #@! TF.GenerationSoftware,Kicad,Pcbnew,7.0.2
; #@! TF.FileFunction,Plated,1,4,PTH
FMAT,2
INCH
; #@! TA.AperFunction,Plated,PTH,ViaDrill
T1C0.0118
; #@! TA.AperFunction,Plated,PTH,ViaDrill
T2C0.0157
; #@! TA.AperFunction,Plated,PTH,ComponentDrill
T3C0.0236
; #@! TA.AperFunction,Plated,PTH,ComponentDrill
T4C0.0394
; #@! TA.AperFunction,Plated,PTH,ComponentDrill
T5C0.0500
%
G90
G05
T1
X1.422Y-4.1393
X1.422Y-4.8873
X1.4811Y-4.8479
X1.4816Y-4.1004
X1.5007Y-3.342
X1.5141Y-5.0153
X1.5204Y-3.5094
X1.55Y-4.2672
X1.55Y-5.7653
X1.6877Y-3.0979
X1.8125Y-3.8438
X1.8255Y-4.0408
X1.8559Y-3.8243
X1.8559Y-3.8676
X1.8559Y-3.9109
X1.857Y-4.3716
X1.857Y-4.4149
X1.857Y-4.4582
X1.9003Y-3.5172
X1.9003Y-3.5487
X1.9003Y-3.5842
X1.9003Y-3.6171
X1.9003Y-3.6511
X1.9063Y-3.47
X1.9161Y-4.0094
X1.9161Y-4.3519
X1.9161Y-4.3952
X1.9161Y-4.4385
X1.9161Y-4.4818
X1.9653Y-3.47
X1.9673Y-3.5172
X1.9673Y-3.5842
X1.9673Y-3.6511
X1.9674Y-3.6177
X1.9675Y-3.5487
X1.9704Y-3.3078
X1.974Y-3.8243
X1.974Y-3.8676
X1.974Y-3.9109
X1.9751Y-4.3716
X1.9751Y-4.4149
X1.9751Y-4.4582
X2.0027Y-3.2849
X2.0421Y-3.844
X2.1602Y-3.1156
X2.1602Y-3.2731
X2.1602Y-3.3125
X2.1602Y-3.3912
X2.1602Y-4.8873
X2.17Y-4.0605
X2.17Y-4.1393
X2.2291Y-4.0999
X2.2291Y-4.8479
X2.2389Y-3.3519
X2.2622Y-5.0153
X2.2685Y-3.5094
X2.298Y-4.2672
X2.298Y-5.7653
X2.4259Y-3.8735
X2.4358Y-3.0948
X2.5342Y-4.9267
X2.5539Y-4.1491
X2.5539Y-5.3479
X2.5578Y-3.8342
X2.5834Y-4.5979
X2.5933Y-2.9582
X2.5933Y-4.9267
X2.6326Y-2.9582
X2.6326Y-4.1491
X2.672Y-3.1353
X2.7114Y-3.1353
X2.7606Y-3.3912
X2.8098Y-3.5389
X2.8196Y-3.8243
X2.8393Y-3.4306
X2.846Y-3.5619
X2.8492Y-3.0979
X2.859Y-3.8243
X2.8649Y-4.2731
X2.8688Y-4.1491
X2.8787Y-3.4306
X2.8787Y-3.5881
X2.8984Y-3.4995
X2.8984Y-3.8243
X2.8984Y-4.0704
X2.8984Y-4.8873
X2.9003Y-4.2731
X2.9555Y-3.8716
X2.9574Y-3.4011
X2.9574Y-3.4405
X2.9574Y-4.1491
X2.9574Y-4.8873
X3.0112Y-5.0153
X3.05Y-5.7653
X3.0854Y-4.2279
X3.1346Y-3.9818
X3.1838Y-3.0943
X3.1838Y-3.844
X3.2743Y-2.9385
X3.3118Y-3.4798
X3.3807Y-3.4601
X3.4003Y-3.657
X3.4062Y-3.5625
X3.4083Y-2.8874
X3.4594Y-3.7456
X3.4988Y-3.47
X3.4988Y-3.6078
X3.4988Y-3.749
X3.5283Y-3.7259
X3.5775Y-3.844
X3.6464Y-3.3676
X3.6661Y-3.0979
X3.6661Y-4.1393
X3.6661Y-4.8873
X3.6727Y-3.3918
X3.6968Y-3.6964
X3.7251Y-3.3617
X3.7251Y-4.0999
X3.7251Y-4.8578
X3.7612Y-5.0153
X3.794Y-4.2672
X3.798Y-5.7653
X3.8334Y-3.5782
X3.9811Y-3.6767
X4.0696Y-3.7456
X4.0696Y-3.8834
X4.4141Y-4.1393
X4.4141Y-4.8873
X4.424Y-3.3912
X4.4468Y-3.529
X4.4732Y-3.3519
X4.4732Y-4.8578
X4.483Y-4.0999
X4.5125Y-3.529
X4.5125Y-5.0153
X4.5421Y-4.2672
X4.55Y-5.7653
X5.1687Y-3.3978
X5.172Y-4.1393
X5.172Y-4.8873
X5.1968Y-3.529
X5.2212Y-3.3519
X5.2212Y-4.8578
X5.2311Y-4.0999
X5.2606Y-3.5192
X5.2606Y-5.0153
X5.3Y-4.2672
X5.3019Y-5.7653
X5.92Y-3.3912
X5.92Y-4.1393
X5.92Y-4.8873
X5.9468Y-3.6176
X5.9791Y-3.342
X5.9791Y-4.0999
X5.9791Y-4.8578
X6.0086Y-3.5192
X6.0086Y-5.0153
X6.048Y-4.2672
X6.05Y-5.7653
X6.6582Y-3.3912
X6.6681Y-4.1393
X6.6681Y-4.8873
X6.6968Y-3.4897
X6.7271Y-3.342
X6.7271Y-4.0999
X6.7271Y-4.8578
X6.7566Y-5.0153
X6.7665Y-3.5192
X6.796Y-4.2672
X6.798Y-5.7653
X7.4161Y-3.3912
X7.4161Y-4.1393
X7.4161Y-4.8873
X7.4468Y-3.4798
X7.4751Y-3.3519
X7.4751Y-4.0999
X7.4751Y-4.8578
X7.5127Y-3.5191
X7.5145Y-5.0153
X7.544Y-4.2672
X7.55Y-5.7653
X8.1641Y-3.3912
X8.1641Y-4.1491
X8.1641Y-4.8873
X8.1968Y-3.4601
X8.2232Y-3.3519
X8.2232Y-4.0999
X8.2232Y-4.8578
X8.2625Y-3.5192
X8.2625Y-5.0153
X8.3019Y-4.2672
X8.3019Y-5.7653
X8.9122Y-3.3912
X8.9122Y-4.1393
X8.922Y-4.8873
X8.9468Y-3.4503
X8.9712Y-3.3519
X8.9811Y-4.0999
X8.9811Y-4.8578
X9.0106Y-3.5192
X9.0106Y-5.0153
X9.046Y-5.7653
X9.05Y-4.2672
X9.6602Y-4.1393
X9.67Y-3.3912
X9.67Y-4.8873
X9.6968Y-3.4405
X9.7291Y-3.3519
X9.7291Y-4.1019
X9.7291Y-4.8578
X9.7586Y-3.5192
X9.7586Y-5.0153
X9.798Y-4.2672
X9.798Y-5.7653
X10.4181Y-3.3912
X10.4181Y-4.1393
X10.4181Y-4.8873
X10.4468Y-3.3322
X10.4771Y-3.3519
X10.4771Y-4.0999
X10.4771Y-4.8578
X10.5066Y-3.5192
X10.5066Y-5.0153
X10.546Y-4.2672
X10.55Y-5.7653
X11.1661Y-3.3912
X11.1661Y-4.1393
X11.1661Y-4.8873
X11.1968Y-3.3223
X11.2251Y-3.3519
X11.2251Y-4.0999
X11.2251Y-4.8578
X11.2547Y-5.0153
X11.2645Y-3.5192
X11.2935Y-4.2672
X11.3019Y-5.7653
X11.9141Y-3.3912
X11.9141Y-4.1393
X11.9141Y-4.8873
X11.9468Y-3.3125
X11.9732Y-3.3519
X11.9732Y-4.0999
X11.9732Y-4.8578
X12.0125Y-3.5192
X12.0125Y-5.0153
X12.05Y-5.7653
X12.0519Y-4.2672
X12.6671Y-3.3962
X12.672Y-4.1393
X12.672Y-4.8873
X12.6968Y-3.283
X12.7212Y-3.3519
X12.7212Y-4.0999
X12.7311Y-4.8578
X12.7606Y-3.5192
X12.7606Y-5.0153
X12.798Y-5.7653
X12.8Y-4.2672
T2
X1.5106Y-4.2672
X1.5106Y-5.7653
X1.5523Y-5.0153
X1.5558Y-3.5094
X1.8059Y-3.2338
X2.0045Y-3.22
X2.2586Y-4.2672
X2.2586Y-5.7653
X2.3003Y-5.0153
X2.3039Y-3.5094
X2.4751Y-4.2771
X2.9673Y-4.2279
X3.0106Y-5.7653
X3.0494Y-5.0153
X3.1275Y-3.605
X3.13Y-3.445
X3.3019Y-3.2731
X3.3216Y-3.8637
X3.3905Y-4.2771
X3.4007Y-3.273
X3.42Y-3.9424
X3.7244Y-3.594
X3.7547Y-4.2672
X3.7586Y-5.7653
X3.7994Y-5.0153
X3.8585Y-3.5532
X4.1877Y-3.6865
X4.1877Y-3.9227
X4.5067Y-4.2672
X4.5106Y-5.7653
X4.5479Y-3.5311
X4.5519Y-5.0153
X5.2606Y-4.2672
X5.2625Y-5.7653
X5.3Y-3.5192
X5.3Y-5.0153
X6.0086Y-4.2672
X6.0106Y-5.7653
X6.048Y-3.5192
X6.048Y-5.0153
X6.7566Y-4.2672
X6.7625Y-5.7653
X6.796Y-5.0153
X6.8019Y-3.5192
X7.5047Y-4.2672
X7.5106Y-5.7653
X7.5481Y-3.5205
X7.5499Y-5.0153
X8.2625Y-4.2672
X8.2665Y-5.7653
X8.298Y-5.0153
X8.3019Y-3.5192
X9.0106Y-4.2672
X9.0106Y-5.7653
X9.05Y-3.5192
X9.05Y-5.0153
X9.7586Y-4.2672
X9.7625Y-5.7653
X9.798Y-3.5192
X9.798Y-5.0153
X10.5066Y-4.2672
X10.5106Y-5.7653
X10.546Y-3.5192
X10.546Y-5.0153
X11.2553Y-4.2672
X11.2586Y-5.7653
X11.294Y-5.0153
X11.2999Y-3.5192
X12.0106Y-5.7653
X12.0125Y-4.2672
X12.0519Y-3.5192
X12.0519Y-5.0153
X12.7606Y-4.2672
X12.7625Y-5.7653
X12.8Y-3.5192
X12.8Y-5.0153
T4
X1.25Y-3.2812
X1.25Y-3.3813
X1.25Y-3.4812
X1.25Y-3.5812
X1.25Y-3.6812
X1.25Y-3.7812
T5
X1.5312Y-2.9552
X1.5312Y-3.7052
X1.5312Y-4.4552
X1.5312Y-5.2052
X1.7281Y-3.0379
X1.7281Y-3.7879
X1.7281Y-4.5379
X1.7281Y-5.2879
X2.2812Y-2.9552
X2.2812Y-3.7052
X2.2812Y-4.4552
X2.2812Y-5.2052
X2.4781Y-3.0379
X2.4781Y-3.7879
X2.4781Y-4.5379
X2.4781Y-5.2879
X3.0312Y-2.9547
X3.0312Y-3.7052
X3.0312Y-4.4552
X3.0312Y-5.2052
X3.2281Y-3.0374
X3.2281Y-3.7879
X3.2281Y-4.5379
X3.2281Y-5.2879
X3.7812Y-2.9552
X3.7812Y-3.7052
X3.7812Y-4.4552
X3.7812Y-5.2052
X3.9781Y-3.0379
X3.9781Y-3.7879
X3.9781Y-4.5379
X3.9781Y-5.2879
X4.5312Y-2.9552
X4.5312Y-3.7052
X4.5312Y-4.4552
X4.5312Y-5.2052
X4.7281Y-3.0379
X4.7281Y-3.7879
X4.7281Y-4.5379
X4.7281Y-5.2879
X5.2812Y-2.9552
X5.2812Y-3.7052
X5.2812Y-4.4552
X5.2812Y-5.2052
X5.4781Y-3.0379
X5.4781Y-3.7879
X5.4781Y-4.5379
X5.4781Y-5.2879
X5.6562Y-5.2052
X5.8531Y-5.2879
X6.0312Y-2.9552
X6.0312Y-3.7052
X6.0312Y-4.4552
X6.0312Y-5.2052
X6.2281Y-3.0379
X6.2281Y-3.7879
X6.2281Y-4.5379
X6.2281Y-5.2879
X6.7812Y-2.9552
X6.7812Y-3.7052
X6.7812Y-4.4552
X6.7812Y-5.2052
X6.9781Y-3.0379
X6.9781Y-3.7879
X6.9781Y-4.5379
X6.9781Y-5.2879
X7.5312Y-2.9552
X7.5312Y-3.7052
X7.5312Y-4.4552
X7.5312Y-5.2052
X7.7281Y-3.0379
X7.7281Y-3.7879
X7.7281Y-4.5379
X7.7281Y-5.2879
X8.2812Y-2.9552
X8.2812Y-3.7052
X8.2812Y-4.4552
X8.2812Y-5.2052
X8.4781Y-3.0379
X8.4781Y-3.7879
X8.4781Y-4.5379
X8.4781Y-5.2879
X8.6562Y-5.2052
X8.8531Y-5.2879
X9.0312Y-2.9552
X9.0312Y-3.7052
X9.0312Y-4.4552
X9.0312Y-5.2052
X9.2281Y-3.0379
X9.2281Y-3.7879
X9.2281Y-4.5379
X9.2281Y-5.2879
X9.7812Y-2.9552
X9.7812Y-3.7052
X9.7812Y-4.4552
X9.7812Y-5.2052
X9.9781Y-3.0379
X9.9781Y-3.7879
X9.9781Y-4.5379
X9.9781Y-5.2879
X10.5312Y-2.9552
X10.5312Y-3.7052
X10.5312Y-4.4552
X10.5312Y-5.2052
X10.7281Y-3.0379
X10.7281Y-3.7879
X10.7281Y-4.5379
X10.7281Y-5.2879
X11.2812Y-2.9552
X11.2812Y-3.7052
X11.2812Y-4.4552
X11.2812Y-5.2052
X11.4781Y-3.0379
X11.4781Y-3.7879
X11.4781Y-4.5379
X11.4781Y-5.2879
X12.0312Y-2.9552
X12.0312Y-3.7052
X12.0312Y-4.4552
X12.0312Y-5.2052
X12.2281Y-3.0379
X12.2281Y-3.7879
X12.2281Y-4.5379
X12.2281Y-5.2879
X12.7812Y-2.9552
X12.7812Y-3.7052
X12.7812Y-4.4552
X12.7812Y-5.2052
X12.9781Y-3.0379
X12.9781Y-3.7879
X12.9781Y-4.5379
X12.9781Y-5.2879
T3
G00X1.8326Y-2.846
M15
G01X1.8326Y-2.8696
M16
G05
G00X1.8326Y-3.0007
M15
G01X1.8326Y-3.044
M16
G05
G00X2.1728Y-2.846
M15
G01X2.1728Y-2.8696
M16
G05
G00X2.1728Y-3.0007
M15
G01X2.1728Y-3.044
M16
G05
T0
M30
