%TF.GenerationSoftware,KiCad,Pcbnew,(6.0.0)*%
%TF.CreationDate,2022-04-04T19:04:30-04:00*%
%TF.ProjectId,SweetBusiness,53776565-7442-4757-9369-6e6573732e6b,rev?*%
%TF.SameCoordinates,Original*%
%TF.FileFunction,Soldermask,Top*%
%TF.FilePolarity,Negative*%
%FSLAX46Y46*%
G04 Gerber Fmt 4.6, Leading zero omitted, Abs format (unit mm)*
G04 Created by KiCad (PCBNEW (6.0.0)) date 2022-04-04 19:04:30*
%MOMM*%
%LPD*%
G01*
G04 APERTURE LIST*
G04 Aperture macros list*
%AMFreePoly0*
4,1,52,0.201078,0.979575,0.387516,0.921863,0.559193,0.829038,0.709571,0.704634,0.832921,0.553392,0.924546,0.381070,0.980955,0.194234,1.000000,0.000000,0.999610,-0.027922,0.975149,-0.221548,0.913545,-0.406737,0.817145,-0.576432,0.689620,-0.724172,0.535827,-0.844328,0.361625,-0.932324,0.173648,-0.984808,-0.020942,-0.999781,-0.214735,-0.976672,-0.400349,-0.916363,-0.570714,-0.821149,
-0.719340,-0.694658,-0.840567,-0.541708,-0.929776,-0.368125,-0.983571,-0.180519,-0.991955,-0.080679,-1.680947,-0.095033,-1.689030,-0.135671,-1.743223,-0.216777,-1.824329,-0.270970,-1.920000,-0.290000,-2.015671,-0.270970,-2.096777,-0.216777,-2.150970,-0.135671,-2.170000,-0.040000,-2.150970,0.055671,-2.096777,0.136777,-2.015671,0.190970,-1.920000,0.210000,-1.824329,0.190970,-1.743223,0.136777,
-1.689030,0.055671,-1.682920,0.024952,-0.997068,0.039241,-0.978148,0.207912,-0.919135,0.393942,-0.825113,0.564967,-0.699663,0.714473,-0.547563,0.836764,-0.374607,0.927184,-0.187381,0.982287,0.006981,0.999976,0.201078,0.979575,0.201078,0.979575,$1*%
G04 Aperture macros list end*
%ADD10C,4.350000*%
%ADD11C,3.987800*%
%ADD12O,2.150000X1.750000*%
%ADD13C,2.032000*%
%ADD14C,2.286000*%
%ADD15R,1.700000X1.700000*%
%ADD16O,1.700000X1.700000*%
%ADD17FreePoly0,270.000000*%
%ADD18C,2.000000*%
%ADD19R,2.000000X2.000000*%
%ADD20O,1.750000X2.150000*%
%ADD21R,1.800000X1.800000*%
%ADD22C,1.800000*%
%ADD23C,0.650000*%
%ADD24O,1.000000X2.100000*%
%ADD25O,1.000000X1.600000*%
G04 APERTURE END LIST*
D10*
%TO.C,H8*%
X511968750Y-236537500D03*
%TD*%
D11*
%TO.C,K70*%
X464343750Y-198437500D03*
D12*
X469626950Y-198437500D03*
X459060550Y-198437500D03*
D13*
X459343750Y-202237500D03*
D14*
X461803750Y-203517500D03*
D13*
X464343750Y-204337500D03*
D14*
X468153750Y-200977500D03*
%TD*%
D11*
%TO.C,K42*%
X340518750Y-179387500D03*
D12*
X335235550Y-179387500D03*
X345801950Y-179387500D03*
D13*
X335518750Y-183187500D03*
D14*
X337978750Y-184467500D03*
D13*
X340518750Y-185287500D03*
D14*
X344328750Y-181927500D03*
%TD*%
D11*
%TO.C,K44*%
X402431250Y-179387500D03*
D12*
X407714450Y-179387500D03*
X397148050Y-179387500D03*
D14*
X399891250Y-184467500D03*
D13*
X397431250Y-183187500D03*
X402431250Y-185287500D03*
D14*
X406241250Y-181927500D03*
%TD*%
D12*
%TO.C,K8*%
X279126950Y-131762500D03*
X268560550Y-131762500D03*
D11*
X273843750Y-131762500D03*
D14*
X271303750Y-136842500D03*
D13*
X268843750Y-135562500D03*
D14*
X277653750Y-134302500D03*
D13*
X273843750Y-137662500D03*
%TD*%
D12*
%TO.C,K125*%
X478110550Y-255587500D03*
X488676950Y-255587500D03*
D11*
X483393750Y-255587500D03*
D14*
X480853750Y-260667500D03*
D13*
X478393750Y-259387500D03*
D14*
X487203750Y-258127500D03*
D13*
X483393750Y-261487500D03*
%TD*%
D11*
%TO.C,K110*%
X502443750Y-236537500D03*
D12*
X497160550Y-236537500D03*
X507726950Y-236537500D03*
D14*
X499903750Y-241617500D03*
D13*
X497443750Y-240337500D03*
X502443750Y-242437500D03*
D14*
X506253750Y-239077500D03*
%TD*%
D11*
%TO.C,K84*%
X278606250Y-217487500D03*
D12*
X283889450Y-217487500D03*
X273323050Y-217487500D03*
D13*
X273606250Y-221287500D03*
D14*
X276066250Y-222567500D03*
X282416250Y-220027500D03*
D13*
X278606250Y-223387500D03*
%TD*%
D12*
%TO.C,K79*%
X188639450Y-217487500D03*
D11*
X183356250Y-217487500D03*
D12*
X178073050Y-217487500D03*
D13*
X178356250Y-221287500D03*
D14*
X180816250Y-222567500D03*
D13*
X183356250Y-223387500D03*
D14*
X187166250Y-220027500D03*
%TD*%
D11*
%TO.C,K38*%
X264318750Y-179387500D03*
D12*
X259035550Y-179387500D03*
X269601950Y-179387500D03*
D14*
X261778750Y-184467500D03*
D13*
X259318750Y-183187500D03*
X264318750Y-185287500D03*
D14*
X268128750Y-181927500D03*
%TD*%
D12*
%TO.C,K37*%
X239985550Y-179387500D03*
D11*
X245268750Y-179387500D03*
D12*
X250551950Y-179387500D03*
D14*
X242728750Y-184467500D03*
D13*
X240268750Y-183187500D03*
D14*
X249078750Y-181927500D03*
D13*
X245268750Y-185287500D03*
%TD*%
D12*
%TO.C,K29*%
X93389450Y-179387500D03*
D11*
X88106250Y-179387500D03*
D12*
X82823050Y-179387500D03*
D13*
X83106250Y-183187500D03*
D14*
X85566250Y-184467500D03*
X91916250Y-181927500D03*
D13*
X88106250Y-185287500D03*
%TD*%
D15*
%TO.C,J1*%
X310668750Y-127962500D03*
D16*
X313208750Y-127962500D03*
X310668750Y-130502500D03*
X313208750Y-130502500D03*
X310668750Y-133042500D03*
X313208750Y-133042500D03*
X310668750Y-135582500D03*
X313208750Y-135582500D03*
%TD*%
D11*
%TO.C,K49*%
X502443750Y-179387500D03*
D12*
X507726950Y-179387500D03*
X497160550Y-179387500D03*
D13*
X497443750Y-183187500D03*
D14*
X499903750Y-184467500D03*
D13*
X502443750Y-185287500D03*
D14*
X506253750Y-181927500D03*
%TD*%
D11*
%TO.C,K82*%
X240506250Y-217487500D03*
D12*
X245789450Y-217487500D03*
X235223050Y-217487500D03*
D13*
X235506250Y-221287500D03*
D14*
X237966250Y-222567500D03*
D13*
X240506250Y-223387500D03*
D14*
X244316250Y-220027500D03*
%TD*%
D11*
%TO.C,K3*%
X169068750Y-131762500D03*
D12*
X163785550Y-131762500D03*
X174351950Y-131762500D03*
D14*
X166528750Y-136842500D03*
D13*
X164068750Y-135562500D03*
X169068750Y-137662500D03*
D14*
X172878750Y-134302500D03*
%TD*%
D11*
%TO.C,K39*%
X283368750Y-179387500D03*
D12*
X288651950Y-179387500D03*
X278085550Y-179387500D03*
D13*
X278368750Y-183187500D03*
D14*
X280828750Y-184467500D03*
D13*
X283368750Y-185287500D03*
D14*
X287178750Y-181927500D03*
%TD*%
D12*
%TO.C,K123*%
X445814450Y-255587500D03*
D11*
X440531250Y-255587500D03*
D12*
X435248050Y-255587500D03*
D13*
X435531250Y-259387500D03*
D14*
X437991250Y-260667500D03*
D13*
X440531250Y-261487500D03*
D14*
X444341250Y-258127500D03*
%TD*%
D12*
%TO.C,K24*%
X383901950Y-150812500D03*
X373335550Y-150812500D03*
D11*
X378618750Y-150812500D03*
D14*
X376078750Y-155892500D03*
D13*
X373618750Y-154612500D03*
D14*
X382428750Y-153352500D03*
D13*
X378618750Y-156712500D03*
%TD*%
D12*
%TO.C,K17*%
X241026950Y-150812500D03*
X230460550Y-150812500D03*
D11*
X235743750Y-150812500D03*
D14*
X233203750Y-155892500D03*
D13*
X230743750Y-154612500D03*
D14*
X239553750Y-153352500D03*
D13*
X235743750Y-156712500D03*
%TD*%
D11*
%TO.C,K73*%
X521493750Y-198437500D03*
D12*
X516210550Y-198437500D03*
X526776950Y-198437500D03*
D14*
X518953750Y-203517500D03*
D13*
X516493750Y-202237500D03*
D14*
X525303750Y-200977500D03*
D13*
X521493750Y-204337500D03*
%TD*%
D12*
%TO.C,K35*%
X212451950Y-179387500D03*
X201885550Y-179387500D03*
D11*
X207168750Y-179387500D03*
D13*
X202168750Y-183187500D03*
D14*
X204628750Y-184467500D03*
D13*
X207168750Y-185287500D03*
D14*
X210978750Y-181927500D03*
%TD*%
D15*
%TO.C,J2*%
X451612000Y-127518000D03*
D16*
X451612000Y-130058000D03*
X451612000Y-132598000D03*
X451612000Y-135138000D03*
%TD*%
D12*
%TO.C,K92*%
X516210550Y-217487500D03*
X526776950Y-217487500D03*
D11*
X521493750Y-217487500D03*
D14*
X518953750Y-222567500D03*
D13*
X516493750Y-221287500D03*
X521493750Y-223387500D03*
D14*
X525303750Y-220027500D03*
%TD*%
D11*
%TO.C,K61*%
X273843750Y-198437500D03*
D12*
X279126950Y-198437500D03*
X268560550Y-198437500D03*
D13*
X268843750Y-202237500D03*
D14*
X271303750Y-203517500D03*
X277653750Y-200977500D03*
D13*
X273843750Y-204337500D03*
%TD*%
D11*
%TO.C,K30*%
X111918750Y-179387500D03*
D12*
X106635550Y-179387500D03*
X117201950Y-179387500D03*
D14*
X109378750Y-184467500D03*
D13*
X106918750Y-183187500D03*
D14*
X115728750Y-181927500D03*
D13*
X111918750Y-185287500D03*
%TD*%
D12*
%TO.C,K83*%
X264839450Y-217487500D03*
D11*
X259556250Y-217487500D03*
D12*
X254273050Y-217487500D03*
D13*
X254556250Y-221287500D03*
D14*
X257016250Y-222567500D03*
X263366250Y-220027500D03*
D13*
X259556250Y-223387500D03*
%TD*%
D12*
%TO.C,K81*%
X226739450Y-217487500D03*
D11*
X221456250Y-217487500D03*
D12*
X216173050Y-217487500D03*
D14*
X218916250Y-222567500D03*
D13*
X216456250Y-221287500D03*
D14*
X225266250Y-220027500D03*
D13*
X221456250Y-223387500D03*
%TD*%
D12*
%TO.C,K90*%
X488676950Y-217487500D03*
D11*
X483393750Y-217487500D03*
D12*
X478110550Y-217487500D03*
D14*
X480853750Y-222567500D03*
D13*
X478393750Y-221287500D03*
X483393750Y-223387500D03*
D14*
X487203750Y-220027500D03*
%TD*%
D12*
%TO.C,K20*%
X298176950Y-150812500D03*
X287610550Y-150812500D03*
D11*
X292893750Y-150812500D03*
D14*
X290353750Y-155892500D03*
D13*
X287893750Y-154612500D03*
X292893750Y-156712500D03*
D14*
X296703750Y-153352500D03*
%TD*%
D12*
%TO.C,K59*%
X230460550Y-198437500D03*
D11*
X235743750Y-198437500D03*
D12*
X241026950Y-198437500D03*
D13*
X230743750Y-202237500D03*
D14*
X233203750Y-203517500D03*
X239553750Y-200977500D03*
D13*
X235743750Y-204337500D03*
%TD*%
D12*
%TO.C,K95*%
X118541800Y-236537500D03*
X129108200Y-236537500D03*
D11*
X123825000Y-236537500D03*
D13*
X118825000Y-240337500D03*
D14*
X121285000Y-241617500D03*
D13*
X123825000Y-242437500D03*
D14*
X127635000Y-239077500D03*
%TD*%
D12*
%TO.C,K111*%
X63773050Y-255587500D03*
D11*
X69056250Y-255587500D03*
D12*
X74339450Y-255587500D03*
D13*
X64056250Y-259387500D03*
D14*
X66516250Y-260667500D03*
D13*
X69056250Y-261487500D03*
D14*
X72866250Y-258127500D03*
%TD*%
D12*
%TO.C,K50*%
X516210550Y-179387500D03*
D11*
X521493750Y-179387500D03*
D12*
X526776950Y-179387500D03*
D13*
X516493750Y-183187500D03*
D14*
X518953750Y-184467500D03*
D13*
X521493750Y-185287500D03*
D14*
X525303750Y-181927500D03*
%TD*%
D11*
%TO.C,K104*%
X307181250Y-236537500D03*
D12*
X301898050Y-236537500D03*
X312464450Y-236537500D03*
D13*
X302181250Y-240337500D03*
D14*
X304641250Y-241617500D03*
X310991250Y-239077500D03*
D13*
X307181250Y-242437500D03*
%TD*%
D11*
%TO.C,K25*%
X402431250Y-150812500D03*
D12*
X407714450Y-150812500D03*
X397148050Y-150812500D03*
D13*
X397431250Y-154612500D03*
D14*
X399891250Y-155892500D03*
X406241250Y-153352500D03*
D13*
X402431250Y-156712500D03*
%TD*%
D12*
%TO.C,K52*%
X93389450Y-198437500D03*
D11*
X88106250Y-198437500D03*
D12*
X82823050Y-198437500D03*
D13*
X83106250Y-202237500D03*
D14*
X85566250Y-203517500D03*
X91916250Y-200977500D03*
D13*
X88106250Y-204337500D03*
%TD*%
D12*
%TO.C,K2*%
X155301950Y-131762500D03*
X144735550Y-131762500D03*
D11*
X150018750Y-131762500D03*
D14*
X147478750Y-136842500D03*
D13*
X145018750Y-135562500D03*
X150018750Y-137662500D03*
D14*
X153828750Y-134302500D03*
%TD*%
D12*
%TO.C,K100*%
X236264450Y-236537500D03*
X225698050Y-236537500D03*
D11*
X230981250Y-236537500D03*
D14*
X228441250Y-241617500D03*
D13*
X225981250Y-240337500D03*
X230981250Y-242437500D03*
D14*
X234791250Y-239077500D03*
%TD*%
D11*
%TO.C,K89*%
X464343750Y-217487500D03*
D12*
X469626950Y-217487500D03*
X459060550Y-217487500D03*
D13*
X459343750Y-221287500D03*
D14*
X461803750Y-222567500D03*
X468153750Y-220027500D03*
D13*
X464343750Y-223387500D03*
%TD*%
D12*
%TO.C,K88*%
X371995700Y-217487500D03*
D11*
X366712500Y-217487500D03*
D12*
X361429300Y-217487500D03*
D14*
X364172500Y-222567500D03*
D13*
X361712500Y-221287500D03*
D14*
X370522500Y-220027500D03*
D13*
X366712500Y-223387500D03*
%TD*%
D12*
%TO.C,K26*%
X426764450Y-150812500D03*
X416198050Y-150812500D03*
D11*
X421481250Y-150812500D03*
D14*
X418941250Y-155892500D03*
D13*
X416481250Y-154612500D03*
X421481250Y-156712500D03*
D14*
X425291250Y-153352500D03*
%TD*%
D12*
%TO.C,K80*%
X207689450Y-217487500D03*
D11*
X202406250Y-217487500D03*
D12*
X197123050Y-217487500D03*
D13*
X197406250Y-221287500D03*
D14*
X199866250Y-222567500D03*
X206216250Y-220027500D03*
D13*
X202406250Y-223387500D03*
%TD*%
D11*
%TO.C,K77*%
X145256250Y-217487500D03*
D12*
X150539450Y-217487500D03*
X139973050Y-217487500D03*
D14*
X142716250Y-222567500D03*
D13*
X140256250Y-221287500D03*
X145256250Y-223387500D03*
D14*
X149066250Y-220027500D03*
%TD*%
D12*
%TO.C,K122*%
X416198050Y-255587500D03*
X426764450Y-255587500D03*
D11*
X421481250Y-255587500D03*
D14*
X418941250Y-260667500D03*
D13*
X416481250Y-259387500D03*
X421481250Y-261487500D03*
D14*
X425291250Y-258127500D03*
%TD*%
D12*
%TO.C,K46*%
X445814450Y-179387500D03*
X435248050Y-179387500D03*
D11*
X440531250Y-179387500D03*
D13*
X435531250Y-183187500D03*
D14*
X437991250Y-184467500D03*
X444341250Y-181927500D03*
D13*
X440531250Y-185287500D03*
%TD*%
D12*
%TO.C,K126*%
X497160550Y-255587500D03*
D11*
X502443750Y-255587500D03*
D12*
X507726950Y-255587500D03*
D14*
X499903750Y-260667500D03*
D13*
X497443750Y-259387500D03*
D14*
X506253750Y-258127500D03*
D13*
X502443750Y-261487500D03*
%TD*%
D12*
%TO.C,K112*%
X82823050Y-255587500D03*
D11*
X88106250Y-255587500D03*
D12*
X93389450Y-255587500D03*
D14*
X85566250Y-260667500D03*
D13*
X83106250Y-259387500D03*
D14*
X91916250Y-258127500D03*
D13*
X88106250Y-261487500D03*
%TD*%
D12*
%TO.C,K113*%
X109016800Y-255587500D03*
X119583200Y-255587500D03*
D11*
X114300000Y-255587500D03*
D14*
X111760000Y-260667500D03*
D13*
X109300000Y-259387500D03*
X114300000Y-261487500D03*
D14*
X118110000Y-258127500D03*
%TD*%
D12*
%TO.C,K65*%
X344760550Y-198437500D03*
D11*
X350043750Y-198437500D03*
D12*
X355326950Y-198437500D03*
D13*
X345043750Y-202237500D03*
D14*
X347503750Y-203517500D03*
X353853750Y-200977500D03*
D13*
X350043750Y-204337500D03*
%TD*%
D12*
%TO.C,K54*%
X145776950Y-198437500D03*
X135210550Y-198437500D03*
D11*
X140493750Y-198437500D03*
D13*
X135493750Y-202237500D03*
D14*
X137953750Y-203517500D03*
D13*
X140493750Y-204337500D03*
D14*
X144303750Y-200977500D03*
%TD*%
D11*
%TO.C,K76*%
X119062500Y-217487500D03*
D12*
X124345700Y-217487500D03*
X113779300Y-217487500D03*
D13*
X114062500Y-221287500D03*
D14*
X116522500Y-222567500D03*
X122872500Y-220027500D03*
D13*
X119062500Y-223387500D03*
%TD*%
D11*
%TO.C,K78*%
X164306250Y-217487500D03*
D12*
X159023050Y-217487500D03*
X169589450Y-217487500D03*
D13*
X159306250Y-221287500D03*
D14*
X161766250Y-222567500D03*
D13*
X164306250Y-223387500D03*
D14*
X168116250Y-220027500D03*
%TD*%
D11*
%TO.C,K51*%
X69056250Y-198437500D03*
D12*
X63773050Y-198437500D03*
X74339450Y-198437500D03*
D13*
X64056250Y-202237500D03*
D14*
X66516250Y-203517500D03*
X72866250Y-200977500D03*
D13*
X69056250Y-204337500D03*
%TD*%
D12*
%TO.C,K101*%
X255314450Y-236537500D03*
X244748050Y-236537500D03*
D11*
X250031250Y-236537500D03*
D13*
X245031250Y-240337500D03*
D14*
X247491250Y-241617500D03*
X253841250Y-239077500D03*
D13*
X250031250Y-242437500D03*
%TD*%
D11*
%TO.C,K57*%
X197643750Y-198437500D03*
D12*
X192360550Y-198437500D03*
X202926950Y-198437500D03*
D13*
X192643750Y-202237500D03*
D14*
X195103750Y-203517500D03*
D13*
X197643750Y-204337500D03*
D14*
X201453750Y-200977500D03*
%TD*%
D11*
%TO.C,K64*%
X330993750Y-198437500D03*
D12*
X336276950Y-198437500D03*
X325710550Y-198437500D03*
D14*
X328453750Y-203517500D03*
D13*
X325993750Y-202237500D03*
X330993750Y-204337500D03*
D14*
X334803750Y-200977500D03*
%TD*%
D12*
%TO.C,K105*%
X320948050Y-236537500D03*
D11*
X326231250Y-236537500D03*
D12*
X331514450Y-236537500D03*
D14*
X323691250Y-241617500D03*
D13*
X321231250Y-240337500D03*
X326231250Y-242437500D03*
D14*
X330041250Y-239077500D03*
%TD*%
D12*
%TO.C,K32*%
X144735550Y-179387500D03*
D11*
X150018750Y-179387500D03*
D12*
X155301950Y-179387500D03*
D14*
X147478750Y-184467500D03*
D13*
X145018750Y-183187500D03*
X150018750Y-185287500D03*
D14*
X153828750Y-181927500D03*
%TD*%
D12*
%TO.C,K27*%
X435248050Y-150812500D03*
X445814450Y-150812500D03*
D11*
X440531250Y-150812500D03*
D14*
X437991250Y-155892500D03*
D13*
X435531250Y-154612500D03*
X440531250Y-156712500D03*
D14*
X444341250Y-153352500D03*
%TD*%
D12*
%TO.C,K13*%
X144735550Y-150812500D03*
X155301950Y-150812500D03*
D11*
X150018750Y-150812500D03*
D14*
X147478750Y-155892500D03*
D13*
X145018750Y-154612500D03*
D14*
X153828750Y-153352500D03*
D13*
X150018750Y-156712500D03*
%TD*%
D12*
%TO.C,K94*%
X93389450Y-236537500D03*
X82823050Y-236537500D03*
D11*
X88106250Y-236537500D03*
D14*
X85566250Y-241617500D03*
D13*
X83106250Y-240337500D03*
D14*
X91916250Y-239077500D03*
D13*
X88106250Y-242437500D03*
%TD*%
D12*
%TO.C,K93*%
X63773050Y-236537500D03*
X74339450Y-236537500D03*
D11*
X69056250Y-236537500D03*
D14*
X66516250Y-241617500D03*
D13*
X64056250Y-240337500D03*
X69056250Y-242437500D03*
D14*
X72866250Y-239077500D03*
%TD*%
D12*
%TO.C,K109*%
X478110550Y-236537500D03*
X488676950Y-236537500D03*
D11*
X483393750Y-236537500D03*
D13*
X478393750Y-240337500D03*
D14*
X480853750Y-241617500D03*
D13*
X483393750Y-242437500D03*
D14*
X487203750Y-239077500D03*
%TD*%
D12*
%TO.C,K48*%
X488676950Y-179387500D03*
D11*
X483393750Y-179387500D03*
D12*
X478110550Y-179387500D03*
D14*
X480853750Y-184467500D03*
D13*
X478393750Y-183187500D03*
X483393750Y-185287500D03*
D14*
X487203750Y-181927500D03*
%TD*%
D11*
%TO.C,K58*%
X216693750Y-198437500D03*
D12*
X221976950Y-198437500D03*
X211410550Y-198437500D03*
D13*
X211693750Y-202237500D03*
D14*
X214153750Y-203517500D03*
D13*
X216693750Y-204337500D03*
D14*
X220503750Y-200977500D03*
%TD*%
D12*
%TO.C,K68*%
X416198050Y-198437500D03*
D11*
X421481250Y-198437500D03*
D12*
X426764450Y-198437500D03*
D13*
X416481250Y-202237500D03*
D14*
X418941250Y-203517500D03*
D13*
X421481250Y-204337500D03*
D14*
X425291250Y-200977500D03*
%TD*%
D12*
%TO.C,K45*%
X416198050Y-179387500D03*
X426764450Y-179387500D03*
D11*
X421481250Y-179387500D03*
D14*
X418941250Y-184467500D03*
D13*
X416481250Y-183187500D03*
X421481250Y-185287500D03*
D14*
X425291250Y-181927500D03*
%TD*%
D12*
%TO.C,K69*%
X445814450Y-198437500D03*
X435248050Y-198437500D03*
D11*
X440531250Y-198437500D03*
D13*
X435531250Y-202237500D03*
D14*
X437991250Y-203517500D03*
D13*
X440531250Y-204337500D03*
D14*
X444341250Y-200977500D03*
%TD*%
D12*
%TO.C,K67*%
X397148050Y-198437500D03*
X407714450Y-198437500D03*
D11*
X402431250Y-198437500D03*
D14*
X399891250Y-203517500D03*
D13*
X397431250Y-202237500D03*
X402431250Y-204337500D03*
D14*
X406241250Y-200977500D03*
%TD*%
D12*
%TO.C,K72*%
X507726950Y-198437500D03*
X497160550Y-198437500D03*
D11*
X502443750Y-198437500D03*
D13*
X497443750Y-202237500D03*
D14*
X499903750Y-203517500D03*
D13*
X502443750Y-204337500D03*
D14*
X506253750Y-200977500D03*
%TD*%
D12*
%TO.C,K1*%
X117201950Y-150812500D03*
X106635550Y-150812500D03*
D11*
X111918750Y-150812500D03*
D14*
X109378750Y-155892500D03*
D13*
X106918750Y-154612500D03*
D14*
X115728750Y-153352500D03*
D13*
X111918750Y-156712500D03*
%TD*%
D12*
%TO.C,K10*%
X397148050Y-131762500D03*
X407714450Y-131762500D03*
D11*
X402431250Y-131762500D03*
D14*
X399891250Y-136842500D03*
D13*
X397431250Y-135562500D03*
X402431250Y-137662500D03*
D14*
X406241250Y-134302500D03*
%TD*%
D11*
%TO.C,K74*%
X69056250Y-217487500D03*
D12*
X63773050Y-217487500D03*
X74339450Y-217487500D03*
D14*
X66516250Y-222567500D03*
D13*
X64056250Y-221287500D03*
X69056250Y-223387500D03*
D14*
X72866250Y-220027500D03*
%TD*%
D12*
%TO.C,K23*%
X354285550Y-150812500D03*
X364851950Y-150812500D03*
D11*
X359568750Y-150812500D03*
D13*
X354568750Y-154612500D03*
D14*
X357028750Y-155892500D03*
D13*
X359568750Y-156712500D03*
D14*
X363378750Y-153352500D03*
%TD*%
D12*
%TO.C,K120*%
X381520700Y-255587500D03*
X370954300Y-255587500D03*
D11*
X376237500Y-255587500D03*
D14*
X373697500Y-260667500D03*
D13*
X371237500Y-259387500D03*
X376237500Y-261487500D03*
D14*
X380047500Y-258127500D03*
%TD*%
D10*
%TO.C,H4*%
X511968750Y-150812500D03*
%TD*%
%TO.C,H3*%
X390525000Y-150812500D03*
%TD*%
D11*
%TO.C,K28*%
X69056250Y-179387500D03*
D12*
X63773050Y-179387500D03*
X74339450Y-179387500D03*
D13*
X64056250Y-183187500D03*
D14*
X66516250Y-184467500D03*
D13*
X69056250Y-185287500D03*
D14*
X72866250Y-181927500D03*
%TD*%
D12*
%TO.C,K96*%
X149498050Y-236537500D03*
D11*
X154781250Y-236537500D03*
D12*
X160064450Y-236537500D03*
D13*
X149781250Y-240337500D03*
D14*
X152241250Y-241617500D03*
D13*
X154781250Y-242437500D03*
D14*
X158591250Y-239077500D03*
%TD*%
D11*
%TO.C,K118*%
X328612500Y-255587500D03*
D12*
X333895700Y-255587500D03*
X323329300Y-255587500D03*
D13*
X323612500Y-259387500D03*
D14*
X326072500Y-260667500D03*
D13*
X328612500Y-261487500D03*
D14*
X332422500Y-258127500D03*
%TD*%
D12*
%TO.C,K87*%
X330473050Y-217487500D03*
X341039450Y-217487500D03*
D11*
X335756250Y-217487500D03*
D13*
X330756250Y-221287500D03*
D14*
X333216250Y-222567500D03*
D13*
X335756250Y-223387500D03*
D14*
X339566250Y-220027500D03*
%TD*%
D12*
%TO.C,RX1*%
X516210550Y-131762500D03*
D11*
X521493750Y-131762500D03*
D12*
X526776950Y-131762500D03*
D17*
X518993750Y-138762500D03*
D14*
X518953750Y-136842500D03*
D13*
X516493750Y-135562500D03*
D14*
X525303750Y-134302500D03*
D18*
X523993750Y-138762500D03*
D13*
X521493750Y-137662500D03*
D19*
X523993750Y-124262500D03*
D18*
X518993750Y-124262500D03*
X521493750Y-124262500D03*
%TD*%
D15*
%TO.C,J3*%
X449575000Y-147012500D03*
D16*
X452115000Y-147012500D03*
X449575000Y-149552500D03*
X452115000Y-149552500D03*
X449575000Y-152092500D03*
X452115000Y-152092500D03*
X449575000Y-154632500D03*
X452115000Y-154632500D03*
%TD*%
D11*
%TO.C,K116*%
X233362500Y-255587500D03*
D12*
X228079300Y-255587500D03*
X238645700Y-255587500D03*
D13*
X228362500Y-259387500D03*
D14*
X230822500Y-260667500D03*
X237172500Y-258127500D03*
D13*
X233362500Y-261487500D03*
%TD*%
D10*
%TO.C,H2*%
X221456250Y-150812500D03*
%TD*%
D11*
%TO.C,K114*%
X138112500Y-255587500D03*
D12*
X143395700Y-255587500D03*
X132829300Y-255587500D03*
D14*
X135572500Y-260667500D03*
D13*
X133112500Y-259387500D03*
D14*
X141922500Y-258127500D03*
D13*
X138112500Y-261487500D03*
%TD*%
D12*
%TO.C,K6*%
X230460550Y-131762500D03*
D11*
X235743750Y-131762500D03*
D12*
X241026950Y-131762500D03*
D14*
X233203750Y-136842500D03*
D13*
X230743750Y-135562500D03*
X235743750Y-137662500D03*
D14*
X239553750Y-134302500D03*
%TD*%
D12*
%TO.C,K91*%
X507726950Y-217487500D03*
X497160550Y-217487500D03*
D11*
X502443750Y-217487500D03*
D14*
X499903750Y-222567500D03*
D13*
X497443750Y-221287500D03*
X502443750Y-223387500D03*
D14*
X506253750Y-220027500D03*
%TD*%
D12*
%TO.C,K56*%
X183876950Y-198437500D03*
D11*
X178593750Y-198437500D03*
D12*
X173310550Y-198437500D03*
D13*
X173593750Y-202237500D03*
D14*
X176053750Y-203517500D03*
X182403750Y-200977500D03*
D13*
X178593750Y-204337500D03*
%TD*%
D11*
%TO.C,K15*%
X188118750Y-150812500D03*
D12*
X182835550Y-150812500D03*
X193401950Y-150812500D03*
D14*
X185578750Y-155892500D03*
D13*
X183118750Y-154612500D03*
D14*
X191928750Y-153352500D03*
D13*
X188118750Y-156712500D03*
%TD*%
D11*
%TO.C,K62*%
X292893750Y-198437500D03*
D12*
X298176950Y-198437500D03*
X287610550Y-198437500D03*
D14*
X290353750Y-203517500D03*
D13*
X287893750Y-202237500D03*
X292893750Y-204337500D03*
D14*
X296703750Y-200977500D03*
%TD*%
D12*
%TO.C,K22*%
X345801950Y-150812500D03*
D11*
X340518750Y-150812500D03*
D12*
X335235550Y-150812500D03*
D14*
X337978750Y-155892500D03*
D13*
X335518750Y-154612500D03*
D14*
X344328750Y-153352500D03*
D13*
X340518750Y-156712500D03*
%TD*%
D12*
%TO.C,K107*%
X416198050Y-236537500D03*
X426764450Y-236537500D03*
D11*
X421481250Y-236537500D03*
D13*
X416481250Y-240337500D03*
D14*
X418941250Y-241617500D03*
D13*
X421481250Y-242437500D03*
D14*
X425291250Y-239077500D03*
%TD*%
D10*
%TO.C,H5*%
X78581250Y-236537500D03*
%TD*%
D12*
%TO.C,K98*%
X187598050Y-236537500D03*
D11*
X192881250Y-236537500D03*
D12*
X198164450Y-236537500D03*
D14*
X190341250Y-241617500D03*
D13*
X187881250Y-240337500D03*
X192881250Y-242437500D03*
D14*
X196691250Y-239077500D03*
%TD*%
D12*
%TO.C,K66*%
X379139450Y-198437500D03*
X368573050Y-198437500D03*
D11*
X373856250Y-198437500D03*
D13*
X368856250Y-202237500D03*
D14*
X371316250Y-203517500D03*
X377666250Y-200977500D03*
D13*
X373856250Y-204337500D03*
%TD*%
D12*
%TO.C,K47*%
X469626950Y-179387500D03*
X459060550Y-179387500D03*
D11*
X464343750Y-179387500D03*
D13*
X459343750Y-183187500D03*
D14*
X461803750Y-184467500D03*
X468153750Y-181927500D03*
D13*
X464343750Y-185287500D03*
%TD*%
D12*
%TO.C,K102*%
X274364450Y-236537500D03*
D11*
X269081250Y-236537500D03*
D12*
X263798050Y-236537500D03*
D13*
X264081250Y-240337500D03*
D14*
X266541250Y-241617500D03*
X272891250Y-239077500D03*
D13*
X269081250Y-242437500D03*
%TD*%
D12*
%TO.C,K12*%
X445814450Y-131762500D03*
D11*
X440531250Y-131762500D03*
D12*
X435248050Y-131762500D03*
D14*
X437991250Y-136842500D03*
D13*
X435531250Y-135562500D03*
D14*
X444341250Y-134302500D03*
D13*
X440531250Y-137662500D03*
%TD*%
D11*
%TO.C,K99*%
X211931250Y-236537500D03*
D12*
X217214450Y-236537500D03*
X206648050Y-236537500D03*
D14*
X209391250Y-241617500D03*
D13*
X206931250Y-240337500D03*
D14*
X215741250Y-239077500D03*
D13*
X211931250Y-242437500D03*
%TD*%
D12*
%TO.C,K117*%
X299516800Y-255587500D03*
X310083200Y-255587500D03*
D11*
X304800000Y-255587500D03*
D13*
X299800000Y-259387500D03*
D14*
X302260000Y-260667500D03*
X308610000Y-258127500D03*
D13*
X304800000Y-261487500D03*
%TD*%
D11*
%TO.C,K60*%
X254793750Y-198437500D03*
D12*
X249510550Y-198437500D03*
X260076950Y-198437500D03*
D13*
X249793750Y-202237500D03*
D14*
X252253750Y-203517500D03*
D13*
X254793750Y-204337500D03*
D14*
X258603750Y-200977500D03*
%TD*%
D10*
%TO.C,H6*%
X221456250Y-236537500D03*
%TD*%
D12*
%TO.C,K33*%
X163785550Y-179387500D03*
X174351950Y-179387500D03*
D11*
X169068750Y-179387500D03*
D14*
X166528750Y-184467500D03*
D13*
X164068750Y-183187500D03*
D14*
X172878750Y-181927500D03*
D13*
X169068750Y-185287500D03*
%TD*%
D12*
%TO.C,K36*%
X231501950Y-179387500D03*
X220935550Y-179387500D03*
D11*
X226218750Y-179387500D03*
D13*
X221218750Y-183187500D03*
D14*
X223678750Y-184467500D03*
X230028750Y-181927500D03*
D13*
X226218750Y-185287500D03*
%TD*%
D12*
%TO.C,K97*%
X168548050Y-236537500D03*
D11*
X173831250Y-236537500D03*
D12*
X179114450Y-236537500D03*
D14*
X171291250Y-241617500D03*
D13*
X168831250Y-240337500D03*
D14*
X177641250Y-239077500D03*
D13*
X173831250Y-242437500D03*
%TD*%
D12*
%TO.C,K34*%
X193401950Y-179387500D03*
D11*
X188118750Y-179387500D03*
D12*
X182835550Y-179387500D03*
D14*
X185578750Y-184467500D03*
D13*
X183118750Y-183187500D03*
X188118750Y-185287500D03*
D14*
X191928750Y-181927500D03*
%TD*%
D12*
%TO.C,K53*%
X111398050Y-198437500D03*
D11*
X116681250Y-198437500D03*
D12*
X121964450Y-198437500D03*
D13*
X111681250Y-202237500D03*
D14*
X114141250Y-203517500D03*
X120491250Y-200977500D03*
D13*
X116681250Y-204337500D03*
%TD*%
D12*
%TO.C,K124*%
X469626950Y-255587500D03*
X459060550Y-255587500D03*
D11*
X464343750Y-255587500D03*
D14*
X461803750Y-260667500D03*
D13*
X459343750Y-259387500D03*
X464343750Y-261487500D03*
D14*
X468153750Y-258127500D03*
%TD*%
D11*
%TO.C,K19*%
X273843750Y-150812500D03*
D12*
X279126950Y-150812500D03*
X268560550Y-150812500D03*
D14*
X271303750Y-155892500D03*
D13*
X268843750Y-154612500D03*
X273843750Y-156712500D03*
D14*
X277653750Y-153352500D03*
%TD*%
D10*
%TO.C,H7*%
X390525000Y-236537500D03*
%TD*%
D12*
%TO.C,K119*%
X347141800Y-255587500D03*
D11*
X352425000Y-255587500D03*
D12*
X357708200Y-255587500D03*
D13*
X347425000Y-259387500D03*
D14*
X349885000Y-260667500D03*
D13*
X352425000Y-261487500D03*
D14*
X356235000Y-258127500D03*
%TD*%
D12*
%TO.C,K86*%
X321989450Y-217487500D03*
X311423050Y-217487500D03*
D11*
X316706250Y-217487500D03*
D13*
X311706250Y-221287500D03*
D14*
X314166250Y-222567500D03*
X320516250Y-220027500D03*
D13*
X316706250Y-223387500D03*
%TD*%
D12*
%TO.C,K18*%
X260076950Y-150812500D03*
D11*
X254793750Y-150812500D03*
D12*
X249510550Y-150812500D03*
D14*
X252253750Y-155892500D03*
D13*
X249793750Y-154612500D03*
X254793750Y-156712500D03*
D14*
X258603750Y-153352500D03*
%TD*%
D12*
%TO.C,K108*%
X459060550Y-236537500D03*
X469626950Y-236537500D03*
D11*
X464343750Y-236537500D03*
D13*
X459343750Y-240337500D03*
D14*
X461803750Y-241617500D03*
X468153750Y-239077500D03*
D13*
X464343750Y-242437500D03*
%TD*%
D12*
%TO.C,K115*%
X167208200Y-255587500D03*
D11*
X161925000Y-255587500D03*
D12*
X156641800Y-255587500D03*
D14*
X159385000Y-260667500D03*
D13*
X156925000Y-259387500D03*
D14*
X165735000Y-258127500D03*
D13*
X161925000Y-261487500D03*
%TD*%
D12*
%TO.C,K5*%
X212451950Y-131762500D03*
D11*
X207168750Y-131762500D03*
D12*
X201885550Y-131762500D03*
D14*
X204628750Y-136842500D03*
D13*
X202168750Y-135562500D03*
D14*
X210978750Y-134302500D03*
D13*
X207168750Y-137662500D03*
%TD*%
D11*
%TO.C,K127*%
X521493750Y-246062500D03*
D20*
X521493750Y-240779300D03*
X521493750Y-251345700D03*
D14*
X526573750Y-248602500D03*
D13*
X525293750Y-251062500D03*
D14*
X524033750Y-242252500D03*
D13*
X527393750Y-246062500D03*
%TD*%
D11*
%TO.C,K63*%
X311943750Y-198437500D03*
D12*
X317226950Y-198437500D03*
X306660550Y-198437500D03*
D14*
X309403750Y-203517500D03*
D13*
X306943750Y-202237500D03*
X311943750Y-204337500D03*
D14*
X315753750Y-200977500D03*
%TD*%
D12*
%TO.C,K41*%
X316185550Y-179387500D03*
D11*
X321468750Y-179387500D03*
D12*
X326751950Y-179387500D03*
D14*
X318928750Y-184467500D03*
D13*
X316468750Y-183187500D03*
X321468750Y-185287500D03*
D14*
X325278750Y-181927500D03*
%TD*%
D12*
%TO.C,K31*%
X136251950Y-179387500D03*
X125685550Y-179387500D03*
D11*
X130968750Y-179387500D03*
D14*
X128428750Y-184467500D03*
D13*
X125968750Y-183187500D03*
D14*
X134778750Y-181927500D03*
D13*
X130968750Y-185287500D03*
%TD*%
D11*
%TO.C,K75*%
X88106250Y-217487500D03*
D12*
X93389450Y-217487500D03*
X82823050Y-217487500D03*
D13*
X83106250Y-221287500D03*
D14*
X85566250Y-222567500D03*
D13*
X88106250Y-223387500D03*
D14*
X91916250Y-220027500D03*
%TD*%
D11*
%TO.C,K4*%
X188118750Y-131762500D03*
D12*
X182835550Y-131762500D03*
X193401950Y-131762500D03*
D13*
X183118750Y-135562500D03*
D14*
X185578750Y-136842500D03*
D13*
X188118750Y-137662500D03*
D14*
X191928750Y-134302500D03*
%TD*%
D12*
%TO.C,K11*%
X426764450Y-131762500D03*
X416198050Y-131762500D03*
D11*
X421481250Y-131762500D03*
D14*
X418941250Y-136842500D03*
D13*
X416481250Y-135562500D03*
D14*
X425291250Y-134302500D03*
D13*
X421481250Y-137662500D03*
%TD*%
D12*
%TO.C,K43*%
X363810550Y-179387500D03*
X374376950Y-179387500D03*
D11*
X369093750Y-179387500D03*
D14*
X366553750Y-184467500D03*
D13*
X364093750Y-183187500D03*
X369093750Y-185287500D03*
D14*
X372903750Y-181927500D03*
%TD*%
D12*
%TO.C,K106*%
X367233200Y-236537500D03*
D11*
X361950000Y-236537500D03*
D12*
X356666800Y-236537500D03*
D14*
X359410000Y-241617500D03*
D13*
X356950000Y-240337500D03*
D14*
X365760000Y-239077500D03*
D13*
X361950000Y-242437500D03*
%TD*%
D11*
%TO.C,K21*%
X321468750Y-150812500D03*
D12*
X316185550Y-150812500D03*
X326751950Y-150812500D03*
D14*
X318928750Y-155892500D03*
D13*
X316468750Y-154612500D03*
X321468750Y-156712500D03*
D14*
X325278750Y-153352500D03*
%TD*%
D11*
%TO.C,K55*%
X159543750Y-198437500D03*
D12*
X154260550Y-198437500D03*
X164826950Y-198437500D03*
D13*
X154543750Y-202237500D03*
D14*
X157003750Y-203517500D03*
X163353750Y-200977500D03*
D13*
X159543750Y-204337500D03*
%TD*%
D11*
%TO.C,K9*%
X292893750Y-131762500D03*
D12*
X298176950Y-131762500D03*
X287610550Y-131762500D03*
D13*
X287893750Y-135562500D03*
D14*
X290353750Y-136842500D03*
X296703750Y-134302500D03*
D13*
X292893750Y-137662500D03*
%TD*%
D12*
%TO.C,K40*%
X297135550Y-179387500D03*
X307701950Y-179387500D03*
D11*
X302418750Y-179387500D03*
D14*
X299878750Y-184467500D03*
D13*
X297418750Y-183187500D03*
X302418750Y-185287500D03*
D14*
X306228750Y-181927500D03*
%TD*%
D11*
%TO.C,K121*%
X402431250Y-255587500D03*
D12*
X407714450Y-255587500D03*
X397148050Y-255587500D03*
D14*
X399891250Y-260667500D03*
D13*
X397431250Y-259387500D03*
X402431250Y-261487500D03*
D14*
X406241250Y-258127500D03*
%TD*%
D12*
%TO.C,K16*%
X201885550Y-150812500D03*
D11*
X207168750Y-150812500D03*
D12*
X212451950Y-150812500D03*
D14*
X204628750Y-155892500D03*
D13*
X202168750Y-154612500D03*
D14*
X210978750Y-153352500D03*
D13*
X207168750Y-156712500D03*
%TD*%
D12*
%TO.C,K85*%
X292373050Y-217487500D03*
X302939450Y-217487500D03*
D11*
X297656250Y-217487500D03*
D14*
X295116250Y-222567500D03*
D13*
X292656250Y-221287500D03*
D14*
X301466250Y-220027500D03*
D13*
X297656250Y-223387500D03*
%TD*%
D10*
%TO.C,H1*%
X78581250Y-150812500D03*
%TD*%
D12*
%TO.C,K14*%
X163785550Y-150812500D03*
X174351950Y-150812500D03*
D11*
X169068750Y-150812500D03*
D13*
X164068750Y-154612500D03*
D14*
X166528750Y-155892500D03*
D13*
X169068750Y-156712500D03*
D14*
X172878750Y-153352500D03*
%TD*%
D12*
%TO.C,K7*%
X260076950Y-131762500D03*
D11*
X254793750Y-131762500D03*
D12*
X249510550Y-131762500D03*
D13*
X249793750Y-135562500D03*
D14*
X252253750Y-136842500D03*
D13*
X254793750Y-137662500D03*
D14*
X258603750Y-134302500D03*
%TD*%
D11*
%TO.C,K71*%
X483393750Y-198437500D03*
D12*
X478110550Y-198437500D03*
X488676950Y-198437500D03*
D14*
X480853750Y-203517500D03*
D13*
X478393750Y-202237500D03*
D14*
X487203750Y-200977500D03*
D13*
X483393750Y-204337500D03*
%TD*%
D11*
%TO.C,K103*%
X288131250Y-236537500D03*
D12*
X293414450Y-236537500D03*
X282848050Y-236537500D03*
D13*
X283131250Y-240337500D03*
D14*
X285591250Y-241617500D03*
X291941250Y-239077500D03*
D13*
X288131250Y-242437500D03*
%TD*%
D21*
%TO.C,KL3*%
X390212500Y-136525000D03*
D22*
X387672500Y-136525000D03*
%TD*%
D21*
%TO.C,KL1*%
X390212500Y-127000000D03*
D22*
X387672500Y-127000000D03*
%TD*%
D21*
%TO.C,KL2*%
X390212500Y-131762500D03*
D22*
X387672500Y-131762500D03*
%TD*%
D23*
%TO.C,J0*%
X501365000Y-127218750D03*
X495585000Y-127218750D03*
D24*
X494155000Y-127748750D03*
X502795000Y-127748750D03*
D25*
X502795000Y-123568750D03*
X494155000Y-123568750D03*
%TD*%
M02*
