%TF.GenerationSoftware,KiCad,Pcbnew,(6.0.0)*%
%TF.CreationDate,2022-04-30T21:56:39-04:00*%
%TF.ProjectId,SweetBusinessRGBCore,53776565-7442-4757-9369-6e6573735247,rev?*%
%TF.SameCoordinates,Original*%
%TF.FileFunction,Soldermask,Top*%
%TF.FilePolarity,Negative*%
%FSLAX46Y46*%
G04 Gerber Fmt 4.6, Leading zero omitted, Abs format (unit mm)*
G04 Created by KiCad (PCBNEW (6.0.0)) date 2022-04-30 21:56:39*
%MOMM*%
%LPD*%
G01*
G04 APERTURE LIST*
G04 Aperture macros list*
%AMRoundRect*
0 Rectangle with rounded corners*
0 $1 Rounding radius*
0 $2 $3 $4 $5 $6 $7 $8 $9 X,Y pos of 4 corners*
0 Add a 4 corners polygon primitive as box body*
4,1,4,$2,$3,$4,$5,$6,$7,$8,$9,$2,$3,0*
0 Add four circle primitives for the rounded corners*
1,1,$1+$1,$2,$3*
1,1,$1+$1,$4,$5*
1,1,$1+$1,$6,$7*
1,1,$1+$1,$8,$9*
0 Add four rect primitives between the rounded corners*
20,1,$1+$1,$2,$3,$4,$5,0*
20,1,$1+$1,$4,$5,$6,$7,0*
20,1,$1+$1,$6,$7,$8,$9,0*
20,1,$1+$1,$8,$9,$2,$3,0*%
G04 Aperture macros list end*
%ADD10RoundRect,0.147500X0.147500X0.172500X-0.147500X0.172500X-0.147500X-0.172500X0.147500X-0.172500X0*%
%ADD11R,1.500000X1.000000*%
%ADD12RoundRect,0.147500X-0.147500X-0.172500X0.147500X-0.172500X0.147500X0.172500X-0.147500X0.172500X0*%
%ADD13C,4.350000*%
%ADD14R,4.000000X1.300000*%
%ADD15R,1.700000X1.700000*%
%ADD16O,1.700000X1.700000*%
G04 APERTURE END LIST*
D10*
%TO.C,LC14*%
X157647500Y-150812500D03*
X156677500Y-150812500D03*
%TD*%
D11*
%TO.C,LD41*%
X312012500Y-185750000D03*
X312012500Y-182550000D03*
X307112500Y-182550000D03*
X307112500Y-185750000D03*
%TD*%
%TO.C,LD42*%
X331062500Y-185750000D03*
X331062500Y-182550000D03*
X326162500Y-182550000D03*
X326162500Y-185750000D03*
%TD*%
%TO.C,LD126*%
X492987500Y-261950000D03*
X492987500Y-258750000D03*
X488087500Y-258750000D03*
X488087500Y-261950000D03*
%TD*%
%TO.C,LD81*%
X212000000Y-223850000D03*
X212000000Y-220650000D03*
X207100000Y-220650000D03*
X207100000Y-223850000D03*
%TD*%
D12*
%TO.C,LC89*%
X451952500Y-217487500D03*
X452922500Y-217487500D03*
%TD*%
D11*
%TO.C,LD70*%
X449987500Y-201600000D03*
X449987500Y-204800000D03*
X454887500Y-204800000D03*
X454887500Y-201600000D03*
%TD*%
D12*
%TO.C,LC91*%
X490052500Y-217487500D03*
X491022500Y-217487500D03*
%TD*%
D11*
%TO.C,LD96*%
X140425000Y-239700000D03*
X140425000Y-242900000D03*
X145325000Y-242900000D03*
X145325000Y-239700000D03*
%TD*%
D12*
%TO.C,LC124*%
X451952500Y-255587500D03*
X452922500Y-255587500D03*
%TD*%
%TO.C,LC37*%
X232877500Y-179387500D03*
X233847500Y-179387500D03*
%TD*%
D11*
%TO.C,LD84*%
X269150000Y-223850000D03*
X269150000Y-220650000D03*
X264250000Y-220650000D03*
X264250000Y-223850000D03*
%TD*%
D13*
%TO.C,H8*%
X500062500Y-241300000D03*
%TD*%
D11*
%TO.C,LD97*%
X159475000Y-239700000D03*
X159475000Y-242900000D03*
X164375000Y-242900000D03*
X164375000Y-239700000D03*
%TD*%
%TO.C,LD60*%
X240437500Y-201600000D03*
X240437500Y-204800000D03*
X245337500Y-204800000D03*
X245337500Y-201600000D03*
%TD*%
%TO.C,LDE1*%
X512025000Y-138125000D03*
X512025000Y-134925000D03*
X507125000Y-134925000D03*
X507125000Y-138125000D03*
%TD*%
D12*
%TO.C,LC119*%
X340033750Y-255587500D03*
X341003750Y-255587500D03*
%TD*%
D11*
%TO.C,LD34*%
X178662500Y-185750000D03*
X178662500Y-182550000D03*
X173762500Y-182550000D03*
X173762500Y-185750000D03*
%TD*%
%TO.C,LD121*%
X392975000Y-261950000D03*
X392975000Y-258750000D03*
X388075000Y-258750000D03*
X388075000Y-261950000D03*
%TD*%
%TO.C,LD103*%
X273775000Y-239700000D03*
X273775000Y-242900000D03*
X278675000Y-242900000D03*
X278675000Y-239700000D03*
%TD*%
%TO.C,LD88*%
X357256250Y-223850000D03*
X357256250Y-220650000D03*
X352356250Y-220650000D03*
X352356250Y-223850000D03*
%TD*%
D14*
%TO.C,T1*%
X309562500Y-141225000D03*
X309562500Y-136525000D03*
X309562500Y-131825000D03*
%TD*%
D11*
%TO.C,LD85*%
X288200000Y-223850000D03*
X288200000Y-220650000D03*
X283300000Y-220650000D03*
X283300000Y-223850000D03*
%TD*%
D12*
%TO.C,LC28*%
X56665000Y-179387500D03*
X57635000Y-179387500D03*
%TD*%
D10*
%TO.C,LC102*%
X257660000Y-236537500D03*
X256690000Y-236537500D03*
%TD*%
D12*
%TO.C,LC39*%
X270977500Y-179387500D03*
X271947500Y-179387500D03*
%TD*%
D11*
%TO.C,LD3*%
X159612500Y-138125000D03*
X159612500Y-134925000D03*
X154712500Y-134925000D03*
X154712500Y-138125000D03*
%TD*%
D12*
%TO.C,LC9*%
X280502500Y-131762500D03*
X281472500Y-131762500D03*
%TD*%
D10*
%TO.C,LC60*%
X243372500Y-198437500D03*
X242402500Y-198437500D03*
%TD*%
D11*
%TO.C,LD32*%
X140562500Y-185750000D03*
X140562500Y-182550000D03*
X135662500Y-182550000D03*
X135662500Y-185750000D03*
%TD*%
%TO.C,LD23*%
X345212500Y-153975000D03*
X345212500Y-157175000D03*
X350112500Y-157175000D03*
X350112500Y-153975000D03*
%TD*%
D10*
%TO.C,LC98*%
X181460000Y-236537500D03*
X180490000Y-236537500D03*
%TD*%
D12*
%TO.C,LC36*%
X213827500Y-179387500D03*
X214797500Y-179387500D03*
%TD*%
%TO.C,LC114*%
X125721250Y-255587500D03*
X126691250Y-255587500D03*
%TD*%
%TO.C,LC2*%
X137627500Y-131762500D03*
X138597500Y-131762500D03*
%TD*%
D11*
%TO.C,LD47*%
X454887500Y-185750000D03*
X454887500Y-182550000D03*
X449987500Y-182550000D03*
X449987500Y-185750000D03*
%TD*%
%TO.C,LD95*%
X109468750Y-239700000D03*
X109468750Y-242900000D03*
X114368750Y-242900000D03*
X114368750Y-239700000D03*
%TD*%
%TO.C,LD86*%
X307250000Y-223850000D03*
X307250000Y-220650000D03*
X302350000Y-220650000D03*
X302350000Y-223850000D03*
%TD*%
D12*
%TO.C,LC118*%
X316221250Y-255587500D03*
X317191250Y-255587500D03*
%TD*%
%TO.C,LC5*%
X194777500Y-131762500D03*
X195747500Y-131762500D03*
%TD*%
D11*
%TO.C,LD75*%
X78650000Y-223850000D03*
X78650000Y-220650000D03*
X73750000Y-220650000D03*
X73750000Y-223850000D03*
%TD*%
%TO.C,LD65*%
X335687500Y-201600000D03*
X335687500Y-204800000D03*
X340587500Y-204800000D03*
X340587500Y-201600000D03*
%TD*%
D12*
%TO.C,LC82*%
X228115000Y-217487500D03*
X229085000Y-217487500D03*
%TD*%
%TO.C,LC6*%
X223352500Y-131762500D03*
X224322500Y-131762500D03*
%TD*%
D11*
%TO.C,LD6*%
X226287500Y-138125000D03*
X226287500Y-134925000D03*
X221387500Y-134925000D03*
X221387500Y-138125000D03*
%TD*%
D10*
%TO.C,LC107*%
X410060000Y-236537500D03*
X409090000Y-236537500D03*
%TD*%
D12*
%TO.C,LC81*%
X209065000Y-217487500D03*
X210035000Y-217487500D03*
%TD*%
D10*
%TO.C,LC52*%
X76685000Y-198437500D03*
X75715000Y-198437500D03*
%TD*%
D11*
%TO.C,LD55*%
X145187500Y-201600000D03*
X145187500Y-204800000D03*
X150087500Y-204800000D03*
X150087500Y-201600000D03*
%TD*%
%TO.C,LD50*%
X512037500Y-185750000D03*
X512037500Y-182550000D03*
X507137500Y-182550000D03*
X507137500Y-185750000D03*
%TD*%
%TO.C,LD17*%
X221387500Y-153975000D03*
X221387500Y-157175000D03*
X226287500Y-157175000D03*
X226287500Y-153975000D03*
%TD*%
%TO.C,LD28*%
X59600000Y-185750000D03*
X59600000Y-182550000D03*
X54700000Y-182550000D03*
X54700000Y-185750000D03*
%TD*%
D10*
%TO.C,LC73*%
X510072500Y-198437500D03*
X509102500Y-198437500D03*
%TD*%
D13*
%TO.C,H2*%
X209550000Y-155575000D03*
%TD*%
D11*
%TO.C,LD68*%
X407125000Y-201600000D03*
X407125000Y-204800000D03*
X412025000Y-204800000D03*
X412025000Y-201600000D03*
%TD*%
D10*
%TO.C,LC51*%
X57635000Y-198437500D03*
X56665000Y-198437500D03*
%TD*%
D12*
%TO.C,LC38*%
X251927500Y-179387500D03*
X252897500Y-179387500D03*
%TD*%
D11*
%TO.C,LD116*%
X223906250Y-261950000D03*
X223906250Y-258750000D03*
X219006250Y-258750000D03*
X219006250Y-261950000D03*
%TD*%
%TO.C,LD61*%
X259487500Y-201600000D03*
X259487500Y-204800000D03*
X264387500Y-204800000D03*
X264387500Y-201600000D03*
%TD*%
%TO.C,LD2*%
X140562500Y-138125000D03*
X140562500Y-134925000D03*
X135662500Y-134925000D03*
X135662500Y-138125000D03*
%TD*%
%TO.C,LD11*%
X412025000Y-138125000D03*
X412025000Y-134925000D03*
X407125000Y-134925000D03*
X407125000Y-138125000D03*
%TD*%
%TO.C,LD46*%
X431075000Y-185750000D03*
X431075000Y-182550000D03*
X426175000Y-182550000D03*
X426175000Y-185750000D03*
%TD*%
D10*
%TO.C,LC18*%
X243372500Y-150812500D03*
X242402500Y-150812500D03*
%TD*%
D11*
%TO.C,LD38*%
X254862500Y-185750000D03*
X254862500Y-182550000D03*
X249962500Y-182550000D03*
X249962500Y-185750000D03*
%TD*%
%TO.C,LD4*%
X178662500Y-138125000D03*
X178662500Y-134925000D03*
X173762500Y-134925000D03*
X173762500Y-138125000D03*
%TD*%
D10*
%TO.C,LC56*%
X167172500Y-198437500D03*
X166202500Y-198437500D03*
%TD*%
D11*
%TO.C,LD118*%
X319156250Y-261950000D03*
X319156250Y-258750000D03*
X314256250Y-258750000D03*
X314256250Y-261950000D03*
%TD*%
%TO.C,LD78*%
X154850000Y-223850000D03*
X154850000Y-220650000D03*
X149950000Y-220650000D03*
X149950000Y-223850000D03*
%TD*%
%TO.C,LD1*%
X102462500Y-157175000D03*
X102462500Y-153975000D03*
X97562500Y-153975000D03*
X97562500Y-157175000D03*
%TD*%
D10*
%TO.C,LC59*%
X224322500Y-198437500D03*
X223352500Y-198437500D03*
%TD*%
D12*
%TO.C,LC92*%
X509102500Y-217487500D03*
X510072500Y-217487500D03*
%TD*%
%TO.C,LC8*%
X261452500Y-131762500D03*
X262422500Y-131762500D03*
%TD*%
D10*
%TO.C,LC64*%
X319572500Y-198437500D03*
X318602500Y-198437500D03*
%TD*%
D11*
%TO.C,LD93*%
X54700000Y-239700000D03*
X54700000Y-242900000D03*
X59600000Y-242900000D03*
X59600000Y-239700000D03*
%TD*%
D14*
%TO.C,T2*%
X328612500Y-141225000D03*
X328612500Y-136525000D03*
X328612500Y-131825000D03*
%TD*%
D11*
%TO.C,LD25*%
X388075000Y-153975000D03*
X388075000Y-157175000D03*
X392975000Y-157175000D03*
X392975000Y-153975000D03*
%TD*%
%TO.C,LD117*%
X295343750Y-261950000D03*
X295343750Y-258750000D03*
X290443750Y-258750000D03*
X290443750Y-261950000D03*
%TD*%
D12*
%TO.C,LC122*%
X409090000Y-255587500D03*
X410060000Y-255587500D03*
%TD*%
D10*
%TO.C,LC15*%
X176697500Y-150812500D03*
X175727500Y-150812500D03*
%TD*%
D12*
%TO.C,LC50*%
X509102500Y-179387500D03*
X510072500Y-179387500D03*
%TD*%
D10*
%TO.C,LC20*%
X281472500Y-150812500D03*
X280502500Y-150812500D03*
%TD*%
D11*
%TO.C,LD87*%
X326300000Y-223850000D03*
X326300000Y-220650000D03*
X321400000Y-220650000D03*
X321400000Y-223850000D03*
%TD*%
%TO.C,LD98*%
X178525000Y-239700000D03*
X178525000Y-242900000D03*
X183425000Y-242900000D03*
X183425000Y-239700000D03*
%TD*%
%TO.C,LD100*%
X216625000Y-239700000D03*
X216625000Y-242900000D03*
X221525000Y-242900000D03*
X221525000Y-239700000D03*
%TD*%
%TO.C,LD52*%
X73750000Y-201600000D03*
X73750000Y-204800000D03*
X78650000Y-204800000D03*
X78650000Y-201600000D03*
%TD*%
%TO.C,LD18*%
X240437500Y-153975000D03*
X240437500Y-157175000D03*
X245337500Y-157175000D03*
X245337500Y-153975000D03*
%TD*%
%TO.C,LD12*%
X431075000Y-138125000D03*
X431075000Y-134925000D03*
X426175000Y-134925000D03*
X426175000Y-138125000D03*
%TD*%
D10*
%TO.C,LC94*%
X76685000Y-236537500D03*
X75715000Y-236537500D03*
%TD*%
D12*
%TO.C,LC46*%
X428140000Y-179387500D03*
X429110000Y-179387500D03*
%TD*%
%TO.C,LC31*%
X118577500Y-179387500D03*
X119547500Y-179387500D03*
%TD*%
D11*
%TO.C,LD110*%
X488087500Y-239700000D03*
X488087500Y-242900000D03*
X492987500Y-242900000D03*
X492987500Y-239700000D03*
%TD*%
D10*
%TO.C,LC13*%
X138597500Y-150812500D03*
X137627500Y-150812500D03*
%TD*%
%TO.C,LC108*%
X452922500Y-236537500D03*
X451952500Y-236537500D03*
%TD*%
D12*
%TO.C,LC12*%
X428140000Y-131762500D03*
X429110000Y-131762500D03*
%TD*%
D10*
%TO.C,LC105*%
X314810000Y-236537500D03*
X313840000Y-236537500D03*
%TD*%
D11*
%TO.C,LD44*%
X392975000Y-185750000D03*
X392975000Y-182550000D03*
X388075000Y-182550000D03*
X388075000Y-185750000D03*
%TD*%
D10*
%TO.C,LC58*%
X205272500Y-198437500D03*
X204302500Y-198437500D03*
%TD*%
%TO.C,LC17*%
X224322500Y-150812500D03*
X223352500Y-150812500D03*
%TD*%
D11*
%TO.C,LD122*%
X412025000Y-261950000D03*
X412025000Y-258750000D03*
X407125000Y-258750000D03*
X407125000Y-261950000D03*
%TD*%
%TO.C,LD8*%
X264387500Y-138125000D03*
X264387500Y-134925000D03*
X259487500Y-134925000D03*
X259487500Y-138125000D03*
%TD*%
%TO.C,LD71*%
X469037500Y-201600000D03*
X469037500Y-204800000D03*
X473937500Y-204800000D03*
X473937500Y-201600000D03*
%TD*%
D10*
%TO.C,LC99*%
X200510000Y-236537500D03*
X199540000Y-236537500D03*
%TD*%
D12*
%TO.C,LCE1*%
X509077500Y-131762500D03*
X510047500Y-131762500D03*
%TD*%
D10*
%TO.C,LC103*%
X276710000Y-236537500D03*
X275740000Y-236537500D03*
%TD*%
D11*
%TO.C,LD112*%
X78650000Y-261950000D03*
X78650000Y-258750000D03*
X73750000Y-258750000D03*
X73750000Y-261950000D03*
%TD*%
D10*
%TO.C,LC22*%
X329097500Y-150812500D03*
X328127500Y-150812500D03*
%TD*%
D11*
%TO.C,LD31*%
X121512500Y-185750000D03*
X121512500Y-182550000D03*
X116612500Y-182550000D03*
X116612500Y-185750000D03*
%TD*%
D10*
%TO.C,LC69*%
X429110000Y-198437500D03*
X428140000Y-198437500D03*
%TD*%
%TO.C,LC101*%
X238610000Y-236537500D03*
X237640000Y-236537500D03*
%TD*%
D11*
%TO.C,LD21*%
X307112500Y-153975000D03*
X307112500Y-157175000D03*
X312012500Y-157175000D03*
X312012500Y-153975000D03*
%TD*%
D12*
%TO.C,LC3*%
X156677500Y-131762500D03*
X157647500Y-131762500D03*
%TD*%
D10*
%TO.C,LC55*%
X148122500Y-198437500D03*
X147152500Y-198437500D03*
%TD*%
D12*
%TO.C,LC125*%
X471002500Y-255587500D03*
X471972500Y-255587500D03*
%TD*%
D13*
%TO.C,H7*%
X378618750Y-241300000D03*
%TD*%
D10*
%TO.C,LC24*%
X367197500Y-150812500D03*
X366227500Y-150812500D03*
%TD*%
D11*
%TO.C,LD51*%
X54700000Y-201600000D03*
X54700000Y-204800000D03*
X59600000Y-204800000D03*
X59600000Y-201600000D03*
%TD*%
D12*
%TO.C,LC123*%
X428140000Y-255587500D03*
X429110000Y-255587500D03*
%TD*%
%TO.C,LC32*%
X137627500Y-179387500D03*
X138597500Y-179387500D03*
%TD*%
%TO.C,LC79*%
X170965000Y-217487500D03*
X171935000Y-217487500D03*
%TD*%
D11*
%TO.C,LD69*%
X426175000Y-201600000D03*
X426175000Y-204800000D03*
X431075000Y-204800000D03*
X431075000Y-201600000D03*
%TD*%
D15*
%TO.C,J2*%
X298762500Y-132725000D03*
D16*
X301302500Y-132725000D03*
X298762500Y-135265000D03*
X301302500Y-135265000D03*
X298762500Y-137805000D03*
X301302500Y-137805000D03*
X298762500Y-140345000D03*
X301302500Y-140345000D03*
%TD*%
D11*
%TO.C,LD120*%
X366781250Y-261950000D03*
X366781250Y-258750000D03*
X361881250Y-258750000D03*
X361881250Y-261950000D03*
%TD*%
D10*
%TO.C,LC19*%
X262422500Y-150812500D03*
X261452500Y-150812500D03*
%TD*%
D13*
%TO.C,H5*%
X66675000Y-241300000D03*
%TD*%
D11*
%TO.C,LD89*%
X454887500Y-223850000D03*
X454887500Y-220650000D03*
X449987500Y-220650000D03*
X449987500Y-223850000D03*
%TD*%
%TO.C,LD19*%
X259487500Y-153975000D03*
X259487500Y-157175000D03*
X264387500Y-157175000D03*
X264387500Y-153975000D03*
%TD*%
D10*
%TO.C,LC104*%
X295760000Y-236537500D03*
X294790000Y-236537500D03*
%TD*%
D12*
%TO.C,LC111*%
X56665000Y-255587500D03*
X57635000Y-255587500D03*
%TD*%
D11*
%TO.C,LD35*%
X197712500Y-185750000D03*
X197712500Y-182550000D03*
X192812500Y-182550000D03*
X192812500Y-185750000D03*
%TD*%
D14*
%TO.C,T4*%
X366712500Y-141225000D03*
X366712500Y-136525000D03*
X366712500Y-131825000D03*
%TD*%
D12*
%TO.C,LC127*%
X509102500Y-246062500D03*
X510072500Y-246062500D03*
%TD*%
D11*
%TO.C,LD10*%
X392975000Y-138125000D03*
X392975000Y-134925000D03*
X388075000Y-134925000D03*
X388075000Y-138125000D03*
%TD*%
D10*
%TO.C,LC61*%
X262422500Y-198437500D03*
X261452500Y-198437500D03*
%TD*%
D12*
%TO.C,LC113*%
X101908750Y-255587500D03*
X102878750Y-255587500D03*
%TD*%
%TO.C,LC86*%
X304315000Y-217487500D03*
X305285000Y-217487500D03*
%TD*%
D10*
%TO.C,LC21*%
X310047500Y-150812500D03*
X309077500Y-150812500D03*
%TD*%
%TO.C,LC110*%
X491022500Y-236537500D03*
X490052500Y-236537500D03*
%TD*%
D11*
%TO.C,LD9*%
X283437500Y-138125000D03*
X283437500Y-134925000D03*
X278537500Y-134925000D03*
X278537500Y-138125000D03*
%TD*%
D12*
%TO.C,LC126*%
X490052500Y-255587500D03*
X491022500Y-255587500D03*
%TD*%
%TO.C,LC33*%
X156677500Y-179387500D03*
X157647500Y-179387500D03*
%TD*%
D11*
%TO.C,LD101*%
X235675000Y-239700000D03*
X235675000Y-242900000D03*
X240575000Y-242900000D03*
X240575000Y-239700000D03*
%TD*%
D12*
%TO.C,LC117*%
X292408750Y-255587500D03*
X293378750Y-255587500D03*
%TD*%
%TO.C,LC115*%
X149533750Y-255587500D03*
X150503750Y-255587500D03*
%TD*%
D10*
%TO.C,LC25*%
X391010000Y-150812500D03*
X390040000Y-150812500D03*
%TD*%
D15*
%TO.C,J1*%
X437668750Y-151775000D03*
D16*
X440208750Y-151775000D03*
X437668750Y-154315000D03*
X440208750Y-154315000D03*
X437668750Y-156855000D03*
X440208750Y-156855000D03*
X437668750Y-159395000D03*
X440208750Y-159395000D03*
%TD*%
D11*
%TO.C,LD113*%
X104843750Y-261950000D03*
X104843750Y-258750000D03*
X99943750Y-258750000D03*
X99943750Y-261950000D03*
%TD*%
%TO.C,LD20*%
X278537500Y-153975000D03*
X278537500Y-157175000D03*
X283437500Y-157175000D03*
X283437500Y-153975000D03*
%TD*%
D12*
%TO.C,LC35*%
X194777500Y-179387500D03*
X195747500Y-179387500D03*
%TD*%
D11*
%TO.C,LD48*%
X473937500Y-185750000D03*
X473937500Y-182550000D03*
X469037500Y-182550000D03*
X469037500Y-185750000D03*
%TD*%
D12*
%TO.C,LC75*%
X75715000Y-217487500D03*
X76685000Y-217487500D03*
%TD*%
D11*
%TO.C,LD74*%
X59600000Y-223850000D03*
X59600000Y-220650000D03*
X54700000Y-220650000D03*
X54700000Y-223850000D03*
%TD*%
D13*
%TO.C,H1*%
X66675000Y-155575000D03*
%TD*%
D11*
%TO.C,LD54*%
X126137500Y-201600000D03*
X126137500Y-204800000D03*
X131037500Y-204800000D03*
X131037500Y-201600000D03*
%TD*%
%TO.C,LD105*%
X311875000Y-239700000D03*
X311875000Y-242900000D03*
X316775000Y-242900000D03*
X316775000Y-239700000D03*
%TD*%
%TO.C,LD77*%
X135800000Y-223850000D03*
X135800000Y-220650000D03*
X130900000Y-220650000D03*
X130900000Y-223850000D03*
%TD*%
D10*
%TO.C,LC16*%
X195747500Y-150812500D03*
X194777500Y-150812500D03*
%TD*%
D11*
%TO.C,LD99*%
X197575000Y-239700000D03*
X197575000Y-242900000D03*
X202475000Y-242900000D03*
X202475000Y-239700000D03*
%TD*%
D12*
%TO.C,LC116*%
X220971250Y-255587500D03*
X221941250Y-255587500D03*
%TD*%
D11*
%TO.C,LD76*%
X109606250Y-223850000D03*
X109606250Y-220650000D03*
X104706250Y-220650000D03*
X104706250Y-223850000D03*
%TD*%
%TO.C,LD30*%
X102462500Y-185750000D03*
X102462500Y-182550000D03*
X97562500Y-182550000D03*
X97562500Y-185750000D03*
%TD*%
D10*
%TO.C,LC100*%
X219560000Y-236537500D03*
X218590000Y-236537500D03*
%TD*%
D12*
%TO.C,LC44*%
X390040000Y-179387500D03*
X391010000Y-179387500D03*
%TD*%
%TO.C,LC112*%
X75715000Y-255587500D03*
X76685000Y-255587500D03*
%TD*%
%TO.C,LC1*%
X99527500Y-150812500D03*
X100497500Y-150812500D03*
%TD*%
D11*
%TO.C,LD29*%
X78650000Y-185750000D03*
X78650000Y-182550000D03*
X73750000Y-182550000D03*
X73750000Y-185750000D03*
%TD*%
%TO.C,LD49*%
X492987500Y-185750000D03*
X492987500Y-182550000D03*
X488087500Y-182550000D03*
X488087500Y-185750000D03*
%TD*%
%TO.C,LD67*%
X388075000Y-201600000D03*
X388075000Y-204800000D03*
X392975000Y-204800000D03*
X392975000Y-201600000D03*
%TD*%
D10*
%TO.C,LC109*%
X471972500Y-236537500D03*
X471002500Y-236537500D03*
%TD*%
%TO.C,LC65*%
X338622500Y-198437500D03*
X337652500Y-198437500D03*
%TD*%
D11*
%TO.C,LD45*%
X412025000Y-185750000D03*
X412025000Y-182550000D03*
X407125000Y-182550000D03*
X407125000Y-185750000D03*
%TD*%
%TO.C,LD62*%
X278537500Y-201600000D03*
X278537500Y-204800000D03*
X283437500Y-204800000D03*
X283437500Y-201600000D03*
%TD*%
%TO.C,LD40*%
X292962500Y-185750000D03*
X292962500Y-182550000D03*
X288062500Y-182550000D03*
X288062500Y-185750000D03*
%TD*%
D12*
%TO.C,LC74*%
X56665000Y-217487500D03*
X57635000Y-217487500D03*
%TD*%
D11*
%TO.C,LD109*%
X469037500Y-239700000D03*
X469037500Y-242900000D03*
X473937500Y-242900000D03*
X473937500Y-239700000D03*
%TD*%
%TO.C,LD24*%
X364262500Y-153975000D03*
X364262500Y-157175000D03*
X369162500Y-157175000D03*
X369162500Y-153975000D03*
%TD*%
D12*
%TO.C,LC41*%
X309077500Y-179387500D03*
X310047500Y-179387500D03*
%TD*%
D10*
%TO.C,LC26*%
X410060000Y-150812500D03*
X409090000Y-150812500D03*
%TD*%
D13*
%TO.C,H3*%
X378618750Y-155575000D03*
%TD*%
D12*
%TO.C,LC40*%
X290027500Y-179387500D03*
X290997500Y-179387500D03*
%TD*%
D11*
%TO.C,LD115*%
X152468750Y-261950000D03*
X152468750Y-258750000D03*
X147568750Y-258750000D03*
X147568750Y-261950000D03*
%TD*%
%TO.C,LD27*%
X426175000Y-153975000D03*
X426175000Y-157175000D03*
X431075000Y-157175000D03*
X431075000Y-153975000D03*
%TD*%
%TO.C,LD83*%
X250100000Y-223850000D03*
X250100000Y-220650000D03*
X245200000Y-220650000D03*
X245200000Y-223850000D03*
%TD*%
%TO.C,LD108*%
X449987500Y-239700000D03*
X449987500Y-242900000D03*
X454887500Y-242900000D03*
X454887500Y-239700000D03*
%TD*%
D12*
%TO.C,LC77*%
X132865000Y-217487500D03*
X133835000Y-217487500D03*
%TD*%
%TO.C,LC83*%
X247165000Y-217487500D03*
X248135000Y-217487500D03*
%TD*%
D11*
%TO.C,LD57*%
X183287500Y-201600000D03*
X183287500Y-204800000D03*
X188187500Y-204800000D03*
X188187500Y-201600000D03*
%TD*%
%TO.C,LD90*%
X473937500Y-223850000D03*
X473937500Y-220650000D03*
X469037500Y-220650000D03*
X469037500Y-223850000D03*
%TD*%
%TO.C,LD124*%
X454887500Y-261950000D03*
X454887500Y-258750000D03*
X449987500Y-258750000D03*
X449987500Y-261950000D03*
%TD*%
%TO.C,LD82*%
X231050000Y-223850000D03*
X231050000Y-220650000D03*
X226150000Y-220650000D03*
X226150000Y-223850000D03*
%TD*%
D13*
%TO.C,H4*%
X500062500Y-155575000D03*
%TD*%
D12*
%TO.C,LC4*%
X175727500Y-131762500D03*
X176697500Y-131762500D03*
%TD*%
%TO.C,LC42*%
X328127500Y-179387500D03*
X329097500Y-179387500D03*
%TD*%
D11*
%TO.C,LD56*%
X164237500Y-201600000D03*
X164237500Y-204800000D03*
X169137500Y-204800000D03*
X169137500Y-201600000D03*
%TD*%
%TO.C,LD127*%
X512037500Y-252425000D03*
X512037500Y-249225000D03*
X507137500Y-249225000D03*
X507137500Y-252425000D03*
%TD*%
D12*
%TO.C,LC121*%
X390040000Y-255587500D03*
X391010000Y-255587500D03*
%TD*%
D11*
%TO.C,LD16*%
X192812500Y-153975000D03*
X192812500Y-157175000D03*
X197712500Y-157175000D03*
X197712500Y-153975000D03*
%TD*%
%TO.C,LD43*%
X359637500Y-185750000D03*
X359637500Y-182550000D03*
X354737500Y-182550000D03*
X354737500Y-185750000D03*
%TD*%
D12*
%TO.C,LC45*%
X409090000Y-179387500D03*
X410060000Y-179387500D03*
%TD*%
%TO.C,LC49*%
X490052500Y-179387500D03*
X491022500Y-179387500D03*
%TD*%
D10*
%TO.C,LC96*%
X143360000Y-236537500D03*
X142390000Y-236537500D03*
%TD*%
D11*
%TO.C,LD63*%
X297587500Y-201600000D03*
X297587500Y-204800000D03*
X302487500Y-204800000D03*
X302487500Y-201600000D03*
%TD*%
D14*
%TO.C,T3*%
X347662500Y-141225000D03*
X347662500Y-136525000D03*
X347662500Y-131825000D03*
%TD*%
D12*
%TO.C,LC88*%
X354321250Y-217487500D03*
X355291250Y-217487500D03*
%TD*%
D11*
%TO.C,LD125*%
X473937500Y-261950000D03*
X473937500Y-258750000D03*
X469037500Y-258750000D03*
X469037500Y-261950000D03*
%TD*%
D12*
%TO.C,LC47*%
X451952500Y-179387500D03*
X452922500Y-179387500D03*
%TD*%
D10*
%TO.C,LC57*%
X186222500Y-198437500D03*
X185252500Y-198437500D03*
%TD*%
D11*
%TO.C,LD107*%
X407125000Y-239700000D03*
X407125000Y-242900000D03*
X412025000Y-242900000D03*
X412025000Y-239700000D03*
%TD*%
D10*
%TO.C,LC68*%
X410060000Y-198437500D03*
X409090000Y-198437500D03*
%TD*%
D12*
%TO.C,LC29*%
X75715000Y-179387500D03*
X76685000Y-179387500D03*
%TD*%
%TO.C,LC43*%
X356702500Y-179387500D03*
X357672500Y-179387500D03*
%TD*%
D10*
%TO.C,LC54*%
X129072500Y-198437500D03*
X128102500Y-198437500D03*
%TD*%
D11*
%TO.C,LD72*%
X488087500Y-201600000D03*
X488087500Y-204800000D03*
X492987500Y-204800000D03*
X492987500Y-201600000D03*
%TD*%
%TO.C,LD39*%
X273912500Y-185750000D03*
X273912500Y-182550000D03*
X269012500Y-182550000D03*
X269012500Y-185750000D03*
%TD*%
D12*
%TO.C,LC85*%
X285265000Y-217487500D03*
X286235000Y-217487500D03*
%TD*%
D11*
%TO.C,LD26*%
X407125000Y-153975000D03*
X407125000Y-157175000D03*
X412025000Y-157175000D03*
X412025000Y-153975000D03*
%TD*%
D10*
%TO.C,LC72*%
X491022500Y-198437500D03*
X490052500Y-198437500D03*
%TD*%
%TO.C,LC62*%
X281472500Y-198437500D03*
X280502500Y-198437500D03*
%TD*%
D12*
%TO.C,LC84*%
X266215000Y-217487500D03*
X267185000Y-217487500D03*
%TD*%
D11*
%TO.C,LD102*%
X254725000Y-239700000D03*
X254725000Y-242900000D03*
X259625000Y-242900000D03*
X259625000Y-239700000D03*
%TD*%
%TO.C,LD80*%
X192950000Y-223850000D03*
X192950000Y-220650000D03*
X188050000Y-220650000D03*
X188050000Y-223850000D03*
%TD*%
D12*
%TO.C,LC87*%
X323365000Y-217487500D03*
X324335000Y-217487500D03*
%TD*%
D11*
%TO.C,LD119*%
X342968750Y-261950000D03*
X342968750Y-258750000D03*
X338068750Y-258750000D03*
X338068750Y-261950000D03*
%TD*%
D10*
%TO.C,LC23*%
X348147500Y-150812500D03*
X347177500Y-150812500D03*
%TD*%
D11*
%TO.C,LD111*%
X59600000Y-261950000D03*
X59600000Y-258750000D03*
X54700000Y-258750000D03*
X54700000Y-261950000D03*
%TD*%
%TO.C,LD66*%
X359500000Y-201600000D03*
X359500000Y-204800000D03*
X364400000Y-204800000D03*
X364400000Y-201600000D03*
%TD*%
D10*
%TO.C,LC53*%
X105260000Y-198437500D03*
X104290000Y-198437500D03*
%TD*%
D11*
%TO.C,LD79*%
X173900000Y-223850000D03*
X173900000Y-220650000D03*
X169000000Y-220650000D03*
X169000000Y-223850000D03*
%TD*%
%TO.C,LD114*%
X128656250Y-261950000D03*
X128656250Y-258750000D03*
X123756250Y-258750000D03*
X123756250Y-261950000D03*
%TD*%
D10*
%TO.C,LC27*%
X429110000Y-150812500D03*
X428140000Y-150812500D03*
%TD*%
%TO.C,LC97*%
X162410000Y-236537500D03*
X161440000Y-236537500D03*
%TD*%
D11*
%TO.C,LD14*%
X154712500Y-153975000D03*
X154712500Y-157175000D03*
X159612500Y-157175000D03*
X159612500Y-153975000D03*
%TD*%
D12*
%TO.C,LC78*%
X151915000Y-217487500D03*
X152885000Y-217487500D03*
%TD*%
D11*
%TO.C,LD37*%
X235812500Y-185750000D03*
X235812500Y-182550000D03*
X230912500Y-182550000D03*
X230912500Y-185750000D03*
%TD*%
D10*
%TO.C,LC93*%
X57635000Y-236537500D03*
X56665000Y-236537500D03*
%TD*%
D11*
%TO.C,LD73*%
X507137500Y-201600000D03*
X507137500Y-204800000D03*
X512037500Y-204800000D03*
X512037500Y-201600000D03*
%TD*%
%TO.C,LD33*%
X159612500Y-185750000D03*
X159612500Y-182550000D03*
X154712500Y-182550000D03*
X154712500Y-185750000D03*
%TD*%
%TO.C,LD123*%
X431075000Y-261950000D03*
X431075000Y-258750000D03*
X426175000Y-258750000D03*
X426175000Y-261950000D03*
%TD*%
%TO.C,LD94*%
X73750000Y-239700000D03*
X73750000Y-242900000D03*
X78650000Y-242900000D03*
X78650000Y-239700000D03*
%TD*%
D12*
%TO.C,LC120*%
X363846250Y-255587500D03*
X364816250Y-255587500D03*
%TD*%
%TO.C,LC7*%
X242402500Y-131762500D03*
X243372500Y-131762500D03*
%TD*%
D10*
%TO.C,LC95*%
X112403750Y-236537500D03*
X111433750Y-236537500D03*
%TD*%
%TO.C,LC66*%
X362435000Y-198437500D03*
X361465000Y-198437500D03*
%TD*%
D11*
%TO.C,LD64*%
X316637500Y-201600000D03*
X316637500Y-204800000D03*
X321537500Y-204800000D03*
X321537500Y-201600000D03*
%TD*%
%TO.C,LD106*%
X347593750Y-239700000D03*
X347593750Y-242900000D03*
X352493750Y-242900000D03*
X352493750Y-239700000D03*
%TD*%
D10*
%TO.C,LC71*%
X471972500Y-198437500D03*
X471002500Y-198437500D03*
%TD*%
D11*
%TO.C,LD58*%
X202337500Y-201600000D03*
X202337500Y-204800000D03*
X207237500Y-204800000D03*
X207237500Y-201600000D03*
%TD*%
%TO.C,LD53*%
X102325000Y-201600000D03*
X102325000Y-204800000D03*
X107225000Y-204800000D03*
X107225000Y-201600000D03*
%TD*%
D10*
%TO.C,LC70*%
X452922500Y-198437500D03*
X451952500Y-198437500D03*
%TD*%
D12*
%TO.C,LC10*%
X390040000Y-131762500D03*
X391010000Y-131762500D03*
%TD*%
D10*
%TO.C,LC67*%
X391010000Y-198437500D03*
X390040000Y-198437500D03*
%TD*%
D12*
%TO.C,LC48*%
X471002500Y-179387500D03*
X471972500Y-179387500D03*
%TD*%
D11*
%TO.C,LD7*%
X245337500Y-138125000D03*
X245337500Y-134925000D03*
X240437500Y-134925000D03*
X240437500Y-138125000D03*
%TD*%
%TO.C,LD92*%
X512037500Y-223850000D03*
X512037500Y-220650000D03*
X507137500Y-220650000D03*
X507137500Y-223850000D03*
%TD*%
%TO.C,LD91*%
X492987500Y-223850000D03*
X492987500Y-220650000D03*
X488087500Y-220650000D03*
X488087500Y-223850000D03*
%TD*%
D12*
%TO.C,LC30*%
X99527500Y-179387500D03*
X100497500Y-179387500D03*
%TD*%
D13*
%TO.C,H6*%
X209550000Y-241300000D03*
%TD*%
D12*
%TO.C,LC11*%
X409090000Y-131762500D03*
X410060000Y-131762500D03*
%TD*%
D10*
%TO.C,LC63*%
X300522500Y-198437500D03*
X299552500Y-198437500D03*
%TD*%
D12*
%TO.C,LC76*%
X106671250Y-217487500D03*
X107641250Y-217487500D03*
%TD*%
%TO.C,LC34*%
X175727500Y-179387500D03*
X176697500Y-179387500D03*
%TD*%
D11*
%TO.C,LD13*%
X135662500Y-153975000D03*
X135662500Y-157175000D03*
X140562500Y-157175000D03*
X140562500Y-153975000D03*
%TD*%
%TO.C,LD59*%
X221387500Y-201600000D03*
X221387500Y-204800000D03*
X226287500Y-204800000D03*
X226287500Y-201600000D03*
%TD*%
%TO.C,LD104*%
X292825000Y-239700000D03*
X292825000Y-242900000D03*
X297725000Y-242900000D03*
X297725000Y-239700000D03*
%TD*%
D10*
%TO.C,LC106*%
X350528750Y-236537500D03*
X349558750Y-236537500D03*
%TD*%
D12*
%TO.C,LC80*%
X190015000Y-217487500D03*
X190985000Y-217487500D03*
%TD*%
D11*
%TO.C,LD15*%
X173762500Y-153975000D03*
X173762500Y-157175000D03*
X178662500Y-157175000D03*
X178662500Y-153975000D03*
%TD*%
%TO.C,LD22*%
X326162500Y-153975000D03*
X326162500Y-157175000D03*
X331062500Y-157175000D03*
X331062500Y-153975000D03*
%TD*%
%TO.C,LD5*%
X197712500Y-138125000D03*
X197712500Y-134925000D03*
X192812500Y-134925000D03*
X192812500Y-138125000D03*
%TD*%
D12*
%TO.C,LC90*%
X471002500Y-217487500D03*
X471972500Y-217487500D03*
%TD*%
D11*
%TO.C,LD36*%
X216762500Y-185750000D03*
X216762500Y-182550000D03*
X211862500Y-182550000D03*
X211862500Y-185750000D03*
%TD*%
M02*
