M48
; DRILL file {KiCad (6.0.0)} date Mon Mar  7 23:18:22 2022
; FORMAT={-:-/ absolute / metric / decimal}
; #@! TF.CreationDate,2022-03-07T23:18:22-05:00
; #@! TF.GenerationSoftware,Kicad,Pcbnew,(6.0.0)
; #@! TF.FileFunction,Plated,1,2,PTH
FMAT,2
METRIC
; #@! TA.AperFunction,Plated,PTH,ComponentDrill
T1C1.000
%
G90
G05
T1
X89.405Y-64.627
X89.405Y-67.167
X93.374Y-64.627
X93.374Y-67.167
X162.427Y-64.627
X162.427Y-67.167
X166.395Y-64.627
X166.395Y-67.167
T1
X98.612Y-61.177G85X99.812Y-61.177
G05
X98.612Y-65.877G85X99.812Y-65.877
G05
X98.612Y-70.577G85X99.812Y-70.577
G05
X117.661Y-61.177G85X118.861Y-61.177
G05
X117.661Y-65.877G85X118.861Y-65.877
G05
X117.661Y-70.577G85X118.861Y-70.577
G05
X136.71Y-61.177G85X137.91Y-61.177
G05
X136.71Y-65.877G85X137.91Y-65.877
G05
X136.71Y-70.577G85X137.91Y-70.577
G05
X155.759Y-61.177G85X156.959Y-61.177
G05
X155.759Y-65.877G85X156.959Y-65.877
G05
X155.759Y-70.577G85X156.959Y-70.577
G05
T0
M30
