%TF.GenerationSoftware,KiCad,Pcbnew,(6.0.0)*%
%TF.CreationDate,2022-05-01T18:15:43-04:00*%
%TF.ProjectId,Stopgap-Levelshifter,53746f70-6761-4702-9d4c-6576656c7368,rev?*%
%TF.SameCoordinates,Original*%
%TF.FileFunction,Copper,L1,Top*%
%TF.FilePolarity,Positive*%
%FSLAX46Y46*%
G04 Gerber Fmt 4.6, Leading zero omitted, Abs format (unit mm)*
G04 Created by KiCad (PCBNEW (6.0.0)) date 2022-05-01 18:15:43*
%MOMM*%
%LPD*%
G01*
G04 APERTURE LIST*
G04 Aperture macros list*
%AMRoundRect*
0 Rectangle with rounded corners*
0 $1 Rounding radius*
0 $2 $3 $4 $5 $6 $7 $8 $9 X,Y pos of 4 corners*
0 Add a 4 corners polygon primitive as box body*
4,1,4,$2,$3,$4,$5,$6,$7,$8,$9,$2,$3,0*
0 Add four circle primitives for the rounded corners*
1,1,$1+$1,$2,$3*
1,1,$1+$1,$4,$5*
1,1,$1+$1,$6,$7*
1,1,$1+$1,$8,$9*
0 Add four rect primitives between the rounded corners*
20,1,$1+$1,$2,$3,$4,$5,0*
20,1,$1+$1,$4,$5,$6,$7,0*
20,1,$1+$1,$6,$7,$8,$9,0*
20,1,$1+$1,$8,$9,$2,$3,0*%
G04 Aperture macros list end*
%TA.AperFunction,SMDPad,CuDef*%
%ADD10RoundRect,0.147500X-0.147500X-0.172500X0.147500X-0.172500X0.147500X0.172500X-0.147500X0.172500X0*%
%TD*%
%TA.AperFunction,ComponentPad*%
%ADD11O,1.700000X1.700000*%
%TD*%
%TA.AperFunction,ComponentPad*%
%ADD12R,1.700000X1.700000*%
%TD*%
%TA.AperFunction,SMDPad,CuDef*%
%ADD13RoundRect,0.150000X0.150000X-0.587500X0.150000X0.587500X-0.150000X0.587500X-0.150000X-0.587500X0*%
%TD*%
%TA.AperFunction,Conductor*%
%ADD14C,0.450000*%
%TD*%
G04 APERTURE END LIST*
D10*
%TO.P,R0,1*%
%TO.N,+3V3*%
X141515000Y-63600000D03*
%TO.P,R0,2*%
%TO.N,Net-(Q0-Pad2)*%
X142485000Y-63600000D03*
%TD*%
%TO.P,R1,1*%
%TO.N,+5V*%
X141515000Y-58650000D03*
%TO.P,R1,2*%
%TO.N,Net-(Q0-Pad3)*%
X142485000Y-58650000D03*
%TD*%
D11*
%TO.P,J1,2,Pin_2*%
%TO.N,+5V*%
X138458750Y-59828750D03*
D12*
%TO.P,J1,1,Pin_1*%
%TO.N,+3V3*%
X138458750Y-62368750D03*
%TD*%
%TO.P,J0,1,Pin_1*%
%TO.N,Net-(Q0-Pad2)*%
X145488750Y-62368750D03*
D11*
%TO.P,J0,2,Pin_2*%
%TO.N,Net-(Q0-Pad3)*%
X145488750Y-59828750D03*
%TD*%
D13*
%TO.P,Q0,1,G*%
%TO.N,+3V3*%
X141050000Y-62056250D03*
%TO.P,Q0,2,S*%
%TO.N,Net-(Q0-Pad2)*%
X142950000Y-62056250D03*
%TO.P,Q0,3,D*%
%TO.N,Net-(Q0-Pad3)*%
X142000000Y-60181250D03*
%TD*%
D14*
%TO.N,+3V3*%
X138771250Y-62056250D02*
X138458750Y-62368750D01*
X141050000Y-62056250D02*
X138771250Y-62056250D01*
X139690000Y-63600000D02*
X138458750Y-62368750D01*
X141515000Y-63600000D02*
X139690000Y-63600000D01*
%TO.N,Net-(Q0-Pad2)*%
X142950000Y-63135000D02*
X142485000Y-63600000D01*
X142950000Y-62056250D02*
X142950000Y-63135000D01*
X145176250Y-62056250D02*
X145488750Y-62368750D01*
X142950000Y-62056250D02*
X145176250Y-62056250D01*
%TO.N,Net-(Q0-Pad3)*%
X145136250Y-60181250D02*
X145488750Y-59828750D01*
X142000000Y-60181250D02*
X145136250Y-60181250D01*
X142000000Y-59293958D02*
X142485000Y-58808958D01*
X142485000Y-58808958D02*
X142485000Y-58650000D01*
X142000000Y-60181250D02*
X142000000Y-59293958D01*
%TO.N,+5V*%
X140336250Y-59828750D02*
X141515000Y-58650000D01*
X138458750Y-59828750D02*
X140336250Y-59828750D01*
%TD*%
M02*
