%TF.GenerationSoftware,KiCad,Pcbnew,(6.0.0)*%
%TF.CreationDate,2022-05-01T18:15:43-04:00*%
%TF.ProjectId,Stopgap-Levelshifter,53746f70-6761-4702-9d4c-6576656c7368,rev?*%
%TF.SameCoordinates,Original*%
%TF.FileFunction,Legend,Top*%
%TF.FilePolarity,Positive*%
%FSLAX46Y46*%
G04 Gerber Fmt 4.6, Leading zero omitted, Abs format (unit mm)*
G04 Created by KiCad (PCBNEW (6.0.0)) date 2022-05-01 18:15:43*
%MOMM*%
%LPD*%
G01*
G04 APERTURE LIST*
%ADD10C,0.160000*%
%ADD11C,0.120000*%
G04 APERTURE END LIST*
D10*
X137333333Y-65252380D02*
X137333333Y-64252380D01*
X137714285Y-64252380D01*
X137809523Y-64300000D01*
X137857142Y-64347619D01*
X137904761Y-64442857D01*
X137904761Y-64585714D01*
X137857142Y-64680952D01*
X137809523Y-64728571D01*
X137714285Y-64776190D01*
X137333333Y-64776190D01*
X138238095Y-64252380D02*
X138476190Y-65252380D01*
X138666666Y-64538095D01*
X138857142Y-65252380D01*
X139095238Y-64252380D01*
X140047619Y-65252380D02*
X139714285Y-64776190D01*
X139476190Y-65252380D02*
X139476190Y-64252380D01*
X139857142Y-64252380D01*
X139952380Y-64300000D01*
X140000000Y-64347619D01*
X140047619Y-64442857D01*
X140047619Y-64585714D01*
X140000000Y-64680952D01*
X139952380Y-64728571D01*
X139857142Y-64776190D01*
X139476190Y-64776190D01*
X141142857Y-64252380D02*
X141761904Y-64252380D01*
X141428571Y-64633333D01*
X141571428Y-64633333D01*
X141666666Y-64680952D01*
X141714285Y-64728571D01*
X141761904Y-64823809D01*
X141761904Y-65061904D01*
X141714285Y-65157142D01*
X141666666Y-65204761D01*
X141571428Y-65252380D01*
X141285714Y-65252380D01*
X141190476Y-65204761D01*
X141142857Y-65157142D01*
X142190476Y-65157142D02*
X142238095Y-65204761D01*
X142190476Y-65252380D01*
X142142857Y-65204761D01*
X142190476Y-65157142D01*
X142190476Y-65252380D01*
X142571428Y-64252380D02*
X143190476Y-64252380D01*
X142857142Y-64633333D01*
X143000000Y-64633333D01*
X143095238Y-64680952D01*
X143142857Y-64728571D01*
X143190476Y-64823809D01*
X143190476Y-65061904D01*
X143142857Y-65157142D01*
X143095238Y-65204761D01*
X143000000Y-65252380D01*
X142714285Y-65252380D01*
X142619047Y-65204761D01*
X142571428Y-65157142D01*
X144333333Y-65204761D02*
X144476190Y-65252380D01*
X144714285Y-65252380D01*
X144809523Y-65204761D01*
X144857142Y-65157142D01*
X144904761Y-65061904D01*
X144904761Y-64966666D01*
X144857142Y-64871428D01*
X144809523Y-64823809D01*
X144714285Y-64776190D01*
X144523809Y-64728571D01*
X144428571Y-64680952D01*
X144380952Y-64633333D01*
X144333333Y-64538095D01*
X144333333Y-64442857D01*
X144380952Y-64347619D01*
X144428571Y-64300000D01*
X144523809Y-64252380D01*
X144761904Y-64252380D01*
X144904761Y-64300000D01*
X145857142Y-64300000D02*
X145761904Y-64252380D01*
X145619047Y-64252380D01*
X145476190Y-64300000D01*
X145380952Y-64395238D01*
X145333333Y-64490476D01*
X145285714Y-64680952D01*
X145285714Y-64823809D01*
X145333333Y-65014285D01*
X145380952Y-65109523D01*
X145476190Y-65204761D01*
X145619047Y-65252380D01*
X145714285Y-65252380D01*
X145857142Y-65204761D01*
X145904761Y-65157142D01*
X145904761Y-64823809D01*
X145714285Y-64823809D01*
X146809523Y-65252380D02*
X146333333Y-65252380D01*
X146333333Y-64252380D01*
X137666666Y-57952380D02*
X137666666Y-56952380D01*
X138047619Y-56952380D01*
X138142857Y-57000000D01*
X138190476Y-57047619D01*
X138238095Y-57142857D01*
X138238095Y-57285714D01*
X138190476Y-57380952D01*
X138142857Y-57428571D01*
X138047619Y-57476190D01*
X137666666Y-57476190D01*
X138571428Y-56952380D02*
X138809523Y-57952380D01*
X139000000Y-57238095D01*
X139190476Y-57952380D01*
X139428571Y-56952380D01*
X140380952Y-57952380D02*
X140047619Y-57476190D01*
X139809523Y-57952380D02*
X139809523Y-56952380D01*
X140190476Y-56952380D01*
X140285714Y-57000000D01*
X140333333Y-57047619D01*
X140380952Y-57142857D01*
X140380952Y-57285714D01*
X140333333Y-57380952D01*
X140285714Y-57428571D01*
X140190476Y-57476190D01*
X139809523Y-57476190D01*
X142047619Y-56952380D02*
X141571428Y-56952380D01*
X141523809Y-57428571D01*
X141571428Y-57380952D01*
X141666666Y-57333333D01*
X141904761Y-57333333D01*
X142000000Y-57380952D01*
X142047619Y-57428571D01*
X142095238Y-57523809D01*
X142095238Y-57761904D01*
X142047619Y-57857142D01*
X142000000Y-57904761D01*
X141904761Y-57952380D01*
X141666666Y-57952380D01*
X141571428Y-57904761D01*
X141523809Y-57857142D01*
X142428571Y-57285714D02*
X142666666Y-57952380D01*
X142904761Y-57285714D01*
X144000000Y-57904761D02*
X144142857Y-57952380D01*
X144380952Y-57952380D01*
X144476190Y-57904761D01*
X144523809Y-57857142D01*
X144571428Y-57761904D01*
X144571428Y-57666666D01*
X144523809Y-57571428D01*
X144476190Y-57523809D01*
X144380952Y-57476190D01*
X144190476Y-57428571D01*
X144095238Y-57380952D01*
X144047619Y-57333333D01*
X144000000Y-57238095D01*
X144000000Y-57142857D01*
X144047619Y-57047619D01*
X144095238Y-57000000D01*
X144190476Y-56952380D01*
X144428571Y-56952380D01*
X144571428Y-57000000D01*
X145523809Y-57000000D02*
X145428571Y-56952380D01*
X145285714Y-56952380D01*
X145142857Y-57000000D01*
X145047619Y-57095238D01*
X145000000Y-57190476D01*
X144952380Y-57380952D01*
X144952380Y-57523809D01*
X145000000Y-57714285D01*
X145047619Y-57809523D01*
X145142857Y-57904761D01*
X145285714Y-57952380D01*
X145380952Y-57952380D01*
X145523809Y-57904761D01*
X145571428Y-57857142D01*
X145571428Y-57523809D01*
X145380952Y-57523809D01*
X146476190Y-57952380D02*
X146000000Y-57952380D01*
X146000000Y-56952380D01*
D11*
%TO.C,J1*%
X138458750Y-63698750D02*
X137128750Y-63698750D01*
X137128750Y-63698750D02*
X137128750Y-62368750D01*
X137128750Y-61098750D02*
X137128750Y-58498750D01*
X139788750Y-58498750D02*
X137128750Y-58498750D01*
X139788750Y-61098750D02*
X139788750Y-58498750D01*
X139788750Y-61098750D02*
X137128750Y-61098750D01*
%TO.C,J0*%
X146818750Y-61098750D02*
X144158750Y-61098750D01*
X146818750Y-61098750D02*
X146818750Y-58498750D01*
X146818750Y-58498750D02*
X144158750Y-58498750D01*
X144158750Y-61098750D02*
X144158750Y-58498750D01*
X144158750Y-63698750D02*
X144158750Y-62368750D01*
X145488750Y-63698750D02*
X144158750Y-63698750D01*
%TO.C,Q0*%
X143560000Y-61118750D02*
X143560000Y-60468750D01*
X143560000Y-61118750D02*
X143560000Y-61768750D01*
X140440000Y-61118750D02*
X140440000Y-60468750D01*
X140440000Y-61118750D02*
X140440000Y-62793750D01*
%TD*%
M02*
