M48
; DRILL file {KiCad (6.0.7)} date Tue Sep 27 13:03:32 2022
; FORMAT={-:-/ absolute / inch / decimal}
; #@! TF.CreationDate,2022-09-27T13:03:32-04:00
; #@! TF.GenerationSoftware,Kicad,Pcbnew,(6.0.7)
; #@! TF.FileFunction,NonPlated,1,4,NPTH
FMAT,2
INCH
; #@! TA.AperFunction,NonPlated,NPTH,ComponentDrill
T1C0.0256
; #@! TA.AperFunction,NonPlated,NPTH,ComponentDrill
T2C0.0670
; #@! TA.AperFunction,NonPlated,NPTH,ComponentDrill
T3C0.1260
; #@! TA.AperFunction,NonPlated,NPTH,ComponentDrill
T4C0.1570
%
G90
G05
T1
X19.5112Y-5.0711
X19.7388Y-5.0711
T2
X2.5187Y-5.1875
X2.5187Y-7.0625
X2.5187Y-7.8125
X2.5187Y-8.5625
X2.5187Y-9.3125
X2.5187Y-10.0625
X2.9187Y-5.1875
X2.9187Y-7.0625
X2.9187Y-7.8125
X2.9187Y-8.5625
X2.9187Y-9.3125
X2.9187Y-10.0625
X3.2687Y-7.0625
X3.2687Y-7.8125
X3.2687Y-8.5625
X3.2687Y-9.3125
X3.2687Y-10.0625
X3.6687Y-7.0625
X3.6687Y-7.8125
X3.6687Y-8.5625
X3.6687Y-9.3125
X3.6687Y-10.0625
X4.2062Y-7.0625
X4.3Y-10.0625
X4.3937Y-7.8125
X4.4875Y-8.5625
X4.6063Y-7.0625
X4.675Y-9.3125
X4.7Y-10.0625
X4.7938Y-7.8125
X4.8875Y-8.5625
X4.9562Y-7.0625
X5.075Y-9.3125
X5.2375Y-10.0625
X5.3312Y-7.8125
X5.3563Y-7.0625
X5.5187Y-8.5625
X5.6375Y-10.0625
X5.7062Y-5.1875
X5.7062Y-5.9375
X5.7062Y-7.0625
X5.7313Y-7.8125
X5.8937Y-9.3125
X5.9188Y-8.5625
X6.0812Y-7.8125
X6.1063Y-5.1875
X6.1063Y-5.9375
X6.1063Y-7.0625
X6.175Y-10.0625
X6.2687Y-8.5625
X6.2938Y-9.3125
X6.4562Y-5.1875
X6.4562Y-5.9375
X6.4562Y-7.0625
X6.4813Y-7.8125
X6.575Y-10.0625
X6.6437Y-9.3125
X6.6688Y-8.5625
X6.8312Y-7.8125
X6.8563Y-5.1875
X6.8563Y-5.9375
X6.8563Y-7.0625
X7.0187Y-8.5625
X7.0438Y-9.3125
X7.2062Y-5.1875
X7.2062Y-5.9375
X7.2062Y-7.0625
X7.2313Y-7.8125
X7.3937Y-9.3125
X7.4188Y-8.5625
X7.5812Y-7.8125
X7.6063Y-5.1875
X7.6063Y-5.9375
X7.6063Y-7.0625
X7.7687Y-8.5625
X7.7938Y-9.3125
X7.9562Y-5.1875
X7.9562Y-5.9375
X7.9562Y-7.0625
X7.9813Y-7.8125
X8.1437Y-9.3125
X8.1687Y-8.5625
X8.3312Y-7.8125
X8.3562Y-5.1875
X8.3562Y-5.9375
X8.3562Y-7.0625
X8.5187Y-8.5625
X8.5437Y-9.3125
X8.7062Y-7.0625
X8.7312Y-7.8125
X8.8937Y-9.3125
X8.9187Y-8.5625
X8.9875Y-10.0625
X9.0812Y-5.1875
X9.0812Y-5.9375
X9.0812Y-7.8125
X9.1062Y-7.0625
X9.2687Y-8.5625
X9.2937Y-9.3125
X9.3875Y-10.0625
X9.4562Y-7.0625
X9.4812Y-5.1875
X9.4812Y-5.9375
X9.4812Y-7.8125
X9.6437Y-9.3125
X9.6687Y-8.5625
X9.8312Y-5.1875
X9.8312Y-5.9375
X9.8312Y-7.8125
X9.8562Y-7.0625
X10.0187Y-8.5625
X10.0437Y-9.3125
X10.2062Y-7.0625
X10.2312Y-5.1875
X10.2312Y-5.9375
X10.2312Y-7.8125
X10.3937Y-9.3125
X10.4187Y-8.5625
X10.5812Y-5.1875
X10.5812Y-5.9375
X10.5812Y-7.8125
X10.6062Y-7.0625
X10.7687Y-8.5625
X10.7937Y-9.3125
X10.9562Y-7.0625
X10.9812Y-5.1875
X10.9812Y-5.9375
X10.9812Y-7.8125
X11.1437Y-9.3125
X11.1687Y-8.5625
X11.3312Y-5.1875
X11.3312Y-5.9375
X11.3312Y-7.8125
X11.3562Y-7.0625
X11.5187Y-8.5625
X11.5437Y-9.3125
X11.7062Y-7.0625
X11.7312Y-5.1875
X11.7312Y-5.9375
X11.7312Y-7.8125
X11.8Y-10.0625
X11.8937Y-9.3125
X11.9187Y-8.5625
X12.0812Y-7.8125
X12.1062Y-7.0625
X12.2Y-10.0625
X12.2687Y-8.5625
X12.2937Y-9.3125
X12.4562Y-5.9375
X12.4562Y-7.0625
X12.4812Y-7.8125
X12.6437Y-9.3125
X12.6687Y-8.5625
X12.7375Y-10.0625
X12.8312Y-7.8125
X12.8562Y-5.9375
X12.8562Y-7.0625
X13.0187Y-8.5625
X13.0437Y-9.3125
X13.1375Y-10.0625
X13.2062Y-5.9375
X13.2062Y-7.0625
X13.2312Y-7.8125
X13.4187Y-8.5625
X13.5812Y-7.8125
X13.6062Y-5.9375
X13.6062Y-7.0625
X13.675Y-10.0625
X13.9562Y-5.9375
X13.9812Y-7.8125
X14.05Y-9.3125
X14.075Y-10.0625
X14.2375Y-8.5625
X14.3312Y-7.0625
X14.3562Y-5.9375
X14.45Y-9.3125
X14.5187Y-7.8125
X14.6125Y-10.0625
X14.6375Y-8.5625
X14.7062Y-5.9375
X14.7312Y-7.0625
X14.9187Y-7.8125
X15.0125Y-10.0625
X15.1062Y-5.9375
X15.6437Y-5.1875
X15.6437Y-5.9375
X15.6437Y-7.0625
X15.6437Y-7.8125
X15.6437Y-10.0625
X16.0437Y-5.1875
X16.0437Y-5.9375
X16.0437Y-7.0625
X16.0437Y-7.8125
X16.0437Y-10.0625
X16.3938Y-5.1875
X16.3938Y-5.9375
X16.3938Y-7.0625
X16.3938Y-7.8125
X16.3938Y-9.3125
X16.3938Y-10.0625
X16.7937Y-5.1875
X16.7937Y-5.9375
X16.7937Y-7.0625
X16.7937Y-7.8125
X16.7937Y-9.3125
X16.7937Y-10.0625
X17.1438Y-5.1875
X17.1438Y-5.9375
X17.1438Y-7.0625
X17.1438Y-7.8125
X17.1438Y-10.0625
X17.5437Y-5.1875
X17.5437Y-5.9375
X17.5437Y-7.0625
X17.5437Y-7.8125
X17.5437Y-10.0625
X18.0813Y-7.0625
X18.0813Y-7.8125
X18.0813Y-8.5625
X18.0813Y-9.3125
X18.0813Y-10.0625
X18.4812Y-7.0625
X18.4812Y-7.8125
X18.4812Y-8.5625
X18.4812Y-9.3125
X18.4812Y-10.0625
X18.8313Y-7.0625
X18.8313Y-7.8125
X18.8313Y-8.5625
X18.8313Y-9.3125
X18.8313Y-10.0625
X19.2312Y-7.0625
X19.2312Y-7.8125
X19.2312Y-8.5625
X19.2312Y-9.3125
X19.2312Y-10.0625
X19.5813Y-7.0625
X19.5813Y-7.8125
X19.5813Y-8.5625
X19.5813Y-9.3125
X19.5813Y-10.0625
X19.9812Y-7.0625
X19.9812Y-7.8125
X19.9812Y-8.5625
X19.9812Y-9.3125
X19.9812Y-10.0625
X20.3313Y-7.0625
X20.3313Y-7.8125
X20.3313Y-8.5625
X20.5312Y-9.4875
X20.5312Y-9.8875
X20.7312Y-7.0625
X20.7312Y-7.8125
X20.7312Y-8.5625
T3
X3.0938Y-5.9375
X3.0938Y-9.3125
X8.7188Y-5.9375
X8.7188Y-9.3125
X15.375Y-5.9375
X15.375Y-9.3125
X20.1562Y-5.9375
X20.1562Y-9.3125
T4
X2.7188Y-5.1875
X2.7188Y-7.0625
X2.7188Y-7.8125
X2.7188Y-8.5625
X2.7188Y-9.3125
X2.7188Y-10.0625
X3.4688Y-7.0625
X3.4688Y-7.8125
X3.4688Y-8.5625
X3.4688Y-9.3125
X3.4688Y-10.0625
X4.4062Y-7.0625
X4.5Y-10.0625
X4.5938Y-7.8125
X4.6875Y-8.5625
X4.875Y-9.3125
X5.1562Y-7.0625
X5.4375Y-10.0625
X5.5312Y-7.8125
X5.7188Y-8.5625
X5.9062Y-5.1875
X5.9062Y-5.9375
X5.9062Y-7.0625
X6.0938Y-9.3125
X6.2812Y-7.8125
X6.375Y-10.0625
X6.4688Y-8.5625
X6.6562Y-5.1875
X6.6562Y-5.9375
X6.6562Y-7.0625
X6.8438Y-9.3125
X7.0312Y-7.8125
X7.2188Y-8.5625
X7.4062Y-5.1875
X7.4062Y-5.9375
X7.4062Y-7.0625
X7.5938Y-9.3125
X7.7812Y-7.8125
X7.9688Y-8.5625
X8.1562Y-5.1875
X8.1562Y-5.9375
X8.1562Y-7.0625
X8.3438Y-9.3125
X8.5312Y-7.8125
X8.7188Y-8.5625
X8.9062Y-7.0625
X9.0938Y-9.3125
X9.1875Y-10.0625
X9.2812Y-5.1875
X9.2812Y-5.9375
X9.2812Y-7.8125
X9.4688Y-8.5625
X9.6562Y-7.0625
X9.8438Y-9.3125
X10.0312Y-5.1875
X10.0312Y-5.9375
X10.0312Y-7.8125
X10.2188Y-8.5625
X10.4062Y-7.0625
X10.5938Y-9.3125
X10.7812Y-5.1875
X10.7812Y-5.9375
X10.7812Y-7.8125
X10.9688Y-8.5625
X11.1562Y-7.0625
X11.3438Y-9.3125
X11.5312Y-5.1875
X11.5312Y-5.9375
X11.5312Y-7.8125
X11.7188Y-8.5625
X11.9062Y-7.0625
X12.0Y-10.0625
X12.0938Y-9.3125
X12.2812Y-7.8125
X12.4688Y-8.5625
X12.6562Y-5.9375
X12.6562Y-7.0625
X12.8438Y-9.3125
X12.9375Y-10.0625
X13.0312Y-7.8125
X13.2188Y-8.5625
X13.4062Y-5.9375
X13.4062Y-7.0625
X13.7812Y-7.8125
X13.875Y-10.0625
X14.1562Y-5.9375
X14.25Y-9.3125
X14.4375Y-8.5625
X14.5312Y-7.0625
X14.7188Y-7.8125
X14.8125Y-10.0625
X14.9062Y-5.9375
X15.8438Y-5.1875
X15.8438Y-5.9375
X15.8438Y-7.0625
X15.8438Y-7.8125
X15.8438Y-10.0625
X16.5938Y-5.1875
X16.5938Y-5.9375
X16.5938Y-7.0625
X16.5938Y-7.8125
X16.5938Y-9.3125
X16.5938Y-10.0625
X17.3438Y-5.1875
X17.3438Y-5.9375
X17.3438Y-7.0625
X17.3438Y-7.8125
X17.3438Y-10.0625
X18.2812Y-7.0625
X18.2812Y-7.8125
X18.2812Y-8.5625
X18.2812Y-9.3125
X18.2812Y-10.0625
X19.0312Y-7.0625
X19.0312Y-7.8125
X19.0312Y-8.5625
X19.0312Y-9.3125
X19.0312Y-10.0625
X19.7812Y-7.0625
X19.7812Y-7.8125
X19.7812Y-8.5625
X19.7812Y-9.3125
X19.7812Y-10.0625
X20.5312Y-7.0625
X20.5312Y-7.8125
X20.5312Y-8.5625
X20.5312Y-9.6875
T0
M30
