%TF.GenerationSoftware,KiCad,Pcbnew,(6.0.7)*%
%TF.CreationDate,2022-09-27T13:03:32-04:00*%
%TF.ProjectId,SweetBusiness,53776565-7442-4757-9369-6e6573732e6b,rev?*%
%TF.SameCoordinates,Original*%
%TF.FileFunction,Legend,Top*%
%TF.FilePolarity,Positive*%
%FSLAX46Y46*%
G04 Gerber Fmt 4.6, Leading zero omitted, Abs format (unit mm)*
G04 Created by KiCad (PCBNEW (6.0.7)) date 2022-09-27 13:03:32*
%MOMM*%
%LPD*%
G01*
G04 APERTURE LIST*
G04 Aperture macros list*
%AMRoundRect*
0 Rectangle with rounded corners*
0 $1 Rounding radius*
0 $2 $3 $4 $5 $6 $7 $8 $9 X,Y pos of 4 corners*
0 Add a 4 corners polygon primitive as box body*
4,1,4,$2,$3,$4,$5,$6,$7,$8,$9,$2,$3,0*
0 Add four circle primitives for the rounded corners*
1,1,$1+$1,$2,$3*
1,1,$1+$1,$4,$5*
1,1,$1+$1,$6,$7*
1,1,$1+$1,$8,$9*
0 Add four rect primitives between the rounded corners*
20,1,$1+$1,$2,$3,$4,$5,0*
20,1,$1+$1,$4,$5,$6,$7,0*
20,1,$1+$1,$6,$7,$8,$9,0*
20,1,$1+$1,$8,$9,$2,$3,0*%
G04 Aperture macros list end*
%ADD10C,0.150000*%
%ADD11C,0.075000*%
%ADD12C,0.120000*%
%ADD13RoundRect,0.147500X0.147500X0.172500X-0.147500X0.172500X-0.147500X-0.172500X0.147500X-0.172500X0*%
%ADD14R,0.700000X0.700000*%
%ADD15C,3.200000*%
%ADD16R,2.000000X2.000000*%
%ADD17C,2.000000*%
%ADD18C,1.701800*%
%ADD19C,3.987800*%
%ADD20C,2.286000*%
%ADD21RoundRect,0.147500X-0.147500X-0.172500X0.147500X-0.172500X0.147500X0.172500X-0.147500X0.172500X0*%
%ADD22R,1.700000X1.700000*%
%ADD23O,1.700000X1.700000*%
%ADD24RoundRect,0.147500X-0.172500X0.147500X-0.172500X-0.147500X0.172500X-0.147500X0.172500X0.147500X0*%
%ADD25C,0.650000*%
%ADD26O,1.000000X1.600000*%
%ADD27O,1.000000X2.100000*%
G04 APERTURE END LIST*
D10*
%TO.C,H8*%
X451675595Y32322620D02*
X451675595Y33322620D01*
X451675595Y32846429D02*
X452247023Y32846429D01*
X452247023Y32322620D02*
X452247023Y33322620D01*
X452866071Y32894048D02*
X452770833Y32941667D01*
X452723214Y32989286D01*
X452675595Y33084524D01*
X452675595Y33132143D01*
X452723214Y33227381D01*
X452770833Y33275000D01*
X452866071Y33322620D01*
X453056547Y33322620D01*
X453151785Y33275000D01*
X453199404Y33227381D01*
X453247023Y33132143D01*
X453247023Y33084524D01*
X453199404Y32989286D01*
X453151785Y32941667D01*
X453056547Y32894048D01*
X452866071Y32894048D01*
X452770833Y32846429D01*
X452723214Y32798810D01*
X452675595Y32703572D01*
X452675595Y32513096D01*
X452723214Y32417858D01*
X452770833Y32370239D01*
X452866071Y32322620D01*
X453056547Y32322620D01*
X453151785Y32370239D01*
X453199404Y32417858D01*
X453247023Y32513096D01*
X453247023Y32703572D01*
X453199404Y32798810D01*
X453151785Y32846429D01*
X453056547Y32894048D01*
%TO.C,H4*%
X451675595Y118047620D02*
X451675595Y119047620D01*
X451675595Y118571429D02*
X452247023Y118571429D01*
X452247023Y118047620D02*
X452247023Y119047620D01*
X453151785Y118714286D02*
X453151785Y118047620D01*
X452913690Y119095239D02*
X452675595Y118380953D01*
X453294642Y118380953D01*
%TO.C,H3*%
X330231845Y118047620D02*
X330231845Y119047620D01*
X330231845Y118571429D02*
X330803273Y118571429D01*
X330803273Y118047620D02*
X330803273Y119047620D01*
X331184226Y119047620D02*
X331803273Y119047620D01*
X331469940Y118666667D01*
X331612797Y118666667D01*
X331708035Y118619048D01*
X331755654Y118571429D01*
X331803273Y118476191D01*
X331803273Y118238096D01*
X331755654Y118142858D01*
X331708035Y118095239D01*
X331612797Y118047620D01*
X331327083Y118047620D01*
X331231845Y118095239D01*
X331184226Y118142858D01*
%TO.C,H2*%
X161163095Y118047620D02*
X161163095Y119047620D01*
X161163095Y118571429D02*
X161734523Y118571429D01*
X161734523Y118047620D02*
X161734523Y119047620D01*
X162163095Y118952381D02*
X162210714Y119000000D01*
X162305952Y119047620D01*
X162544047Y119047620D01*
X162639285Y119000000D01*
X162686904Y118952381D01*
X162734523Y118857143D01*
X162734523Y118761905D01*
X162686904Y118619048D01*
X162115476Y118047620D01*
X162734523Y118047620D01*
%TO.C,H5*%
X18288095Y32322620D02*
X18288095Y33322620D01*
X18288095Y32846429D02*
X18859523Y32846429D01*
X18859523Y32322620D02*
X18859523Y33322620D01*
X19811904Y33322620D02*
X19335714Y33322620D01*
X19288095Y32846429D01*
X19335714Y32894048D01*
X19430952Y32941667D01*
X19669047Y32941667D01*
X19764285Y32894048D01*
X19811904Y32846429D01*
X19859523Y32751191D01*
X19859523Y32513096D01*
X19811904Y32417858D01*
X19764285Y32370239D01*
X19669047Y32322620D01*
X19430952Y32322620D01*
X19335714Y32370239D01*
X19288095Y32417858D01*
%TO.C,H6*%
X161163095Y32322620D02*
X161163095Y33322620D01*
X161163095Y32846429D02*
X161734523Y32846429D01*
X161734523Y32322620D02*
X161734523Y33322620D01*
X162639285Y33322620D02*
X162448809Y33322620D01*
X162353571Y33275000D01*
X162305952Y33227381D01*
X162210714Y33084524D01*
X162163095Y32894048D01*
X162163095Y32513096D01*
X162210714Y32417858D01*
X162258333Y32370239D01*
X162353571Y32322620D01*
X162544047Y32322620D01*
X162639285Y32370239D01*
X162686904Y32417858D01*
X162734523Y32513096D01*
X162734523Y32751191D01*
X162686904Y32846429D01*
X162639285Y32894048D01*
X162544047Y32941667D01*
X162353571Y32941667D01*
X162258333Y32894048D01*
X162210714Y32846429D01*
X162163095Y32751191D01*
%TO.C,H7*%
X330231845Y32322620D02*
X330231845Y33322620D01*
X330231845Y32846429D02*
X330803273Y32846429D01*
X330803273Y32322620D02*
X330803273Y33322620D01*
X331184226Y33322620D02*
X331850892Y33322620D01*
X331422321Y32322620D01*
%TO.C,H1*%
X18288095Y118047620D02*
X18288095Y119047620D01*
X18288095Y118571429D02*
X18859523Y118571429D01*
X18859523Y118047620D02*
X18859523Y119047620D01*
X19859523Y118047620D02*
X19288095Y118047620D01*
X19573809Y118047620D02*
X19573809Y119047620D01*
X19478571Y118904762D01*
X19383333Y118809524D01*
X19288095Y118761905D01*
D11*
%TO.C,LD125*%
X425062500Y15081250D02*
X425062500Y14081250D01*
X422662500Y16081250D02*
X425062500Y16081250D01*
D10*
X424162500Y14131250D02*
X424162500Y16031250D01*
D11*
X422662500Y14081250D02*
X425062500Y14081250D01*
X422662500Y15081250D02*
X422662500Y16081250D01*
D10*
%TO.C,LD15*%
X128287500Y120806250D02*
X128287500Y118906250D01*
D11*
X129787500Y120856250D02*
X127387500Y120856250D01*
X129787500Y118856250D02*
X127387500Y118856250D01*
X129787500Y119856250D02*
X129787500Y118856250D01*
X127387500Y119856250D02*
X127387500Y120856250D01*
%TO.C,LD95*%
X65493750Y33131250D02*
X63093750Y33131250D01*
D10*
X63993750Y35081250D02*
X63993750Y33181250D01*
D11*
X65493750Y35131250D02*
X63093750Y35131250D01*
X65493750Y34131250D02*
X65493750Y33131250D01*
X63093750Y34131250D02*
X63093750Y35131250D01*
%TO.C,LD5*%
X148837500Y138906250D02*
X148837500Y137906250D01*
X146437500Y138906250D02*
X146437500Y139906250D01*
X146437500Y137906250D02*
X148837500Y137906250D01*
D10*
X147937500Y137956250D02*
X147937500Y139856250D01*
D11*
X146437500Y139906250D02*
X148837500Y139906250D01*
D10*
%TO.C,K70*%
X397812500Y72675000D02*
X397812500Y73675000D01*
X397812500Y59675000D02*
X397812500Y60675000D01*
X398812500Y73675000D02*
X397812500Y73675000D01*
X397812500Y59675000D02*
X398812500Y59675000D01*
X411812500Y73675000D02*
X410812500Y73675000D01*
X411812500Y60675000D02*
X411812500Y59675000D01*
X411812500Y73675000D02*
X411812500Y72675000D01*
X410812500Y59675000D02*
X411812500Y59675000D01*
%TO.C,K42*%
X274987500Y92725000D02*
X273987500Y92725000D01*
X287987500Y79725000D02*
X287987500Y78725000D01*
X287987500Y92725000D02*
X287987500Y91725000D01*
X273987500Y78725000D02*
X274987500Y78725000D01*
X273987500Y78725000D02*
X273987500Y79725000D01*
X273987500Y91725000D02*
X273987500Y92725000D01*
X286987500Y78725000D02*
X287987500Y78725000D01*
X287987500Y92725000D02*
X286987500Y92725000D01*
%TO.C,LD66*%
X314025000Y73181250D02*
X314025000Y71281250D01*
D11*
X315525000Y72231250D02*
X315525000Y71231250D01*
X315525000Y71231250D02*
X313125000Y71231250D01*
X313125000Y72231250D02*
X313125000Y73231250D01*
X315525000Y73231250D02*
X313125000Y73231250D01*
D10*
%TO.C,K44*%
X349900000Y92725000D02*
X349900000Y91725000D01*
X348900000Y78725000D02*
X349900000Y78725000D01*
X335900000Y78725000D02*
X335900000Y79725000D01*
X335900000Y78725000D02*
X336900000Y78725000D01*
X336900000Y92725000D02*
X335900000Y92725000D01*
X349900000Y79725000D02*
X349900000Y78725000D01*
X335900000Y91725000D02*
X335900000Y92725000D01*
X349900000Y92725000D02*
X348900000Y92725000D01*
D11*
%TO.C,LD17*%
X177412500Y118856250D02*
X175012500Y118856250D01*
X175012500Y119856250D02*
X175012500Y120856250D01*
X177412500Y119856250D02*
X177412500Y118856250D01*
D10*
X175912500Y120806250D02*
X175912500Y118906250D01*
D11*
X177412500Y120856250D02*
X175012500Y120856250D01*
D10*
%TO.C,K8*%
X220312500Y126350000D02*
X221312500Y126350000D01*
X208312500Y140350000D02*
X207312500Y140350000D01*
X207312500Y126350000D02*
X207312500Y127350000D01*
X207312500Y126350000D02*
X208312500Y126350000D01*
X221312500Y127350000D02*
X221312500Y126350000D01*
X207312500Y139350000D02*
X207312500Y140350000D01*
X221312500Y140350000D02*
X221312500Y139350000D01*
X221312500Y140350000D02*
X220312500Y140350000D01*
D11*
%TO.C,LD100*%
X172650000Y35131250D02*
X170250000Y35131250D01*
X170250000Y34131250D02*
X170250000Y35131250D01*
X172650000Y34131250D02*
X172650000Y33131250D01*
D10*
X171150000Y35081250D02*
X171150000Y33181250D01*
D11*
X172650000Y33131250D02*
X170250000Y33131250D01*
D10*
%TO.C,K125*%
X430862500Y16525000D02*
X429862500Y16525000D01*
X416862500Y15525000D02*
X416862500Y16525000D01*
X416862500Y2525000D02*
X416862500Y3525000D01*
X430862500Y3525000D02*
X430862500Y2525000D01*
X416862500Y2525000D02*
X417862500Y2525000D01*
X417862500Y16525000D02*
X416862500Y16525000D01*
X430862500Y16525000D02*
X430862500Y15525000D01*
X429862500Y2525000D02*
X430862500Y2525000D01*
D11*
%TO.C,LD39*%
X222637500Y91281250D02*
X222637500Y92281250D01*
X222637500Y90281250D02*
X225037500Y90281250D01*
X222637500Y92281250D02*
X225037500Y92281250D01*
X225037500Y91281250D02*
X225037500Y90281250D01*
D10*
X224137500Y90331250D02*
X224137500Y92231250D01*
D11*
%TO.C,LD47*%
X406012500Y91281250D02*
X406012500Y90281250D01*
X403612500Y92281250D02*
X406012500Y92281250D01*
X403612500Y90281250D02*
X406012500Y90281250D01*
D10*
X405112500Y90331250D02*
X405112500Y92231250D01*
D11*
X403612500Y91281250D02*
X403612500Y92281250D01*
D10*
%TO.C,K110*%
X436912500Y35575000D02*
X435912500Y35575000D01*
X435912500Y21575000D02*
X436912500Y21575000D01*
X448912500Y21575000D02*
X449912500Y21575000D01*
X449912500Y22575000D02*
X449912500Y21575000D01*
X449912500Y35575000D02*
X449912500Y34575000D01*
X449912500Y35575000D02*
X448912500Y35575000D01*
X435912500Y21575000D02*
X435912500Y22575000D01*
X435912500Y34575000D02*
X435912500Y35575000D01*
%TO.C,K84*%
X213075000Y54625000D02*
X212075000Y54625000D01*
X225075000Y40625000D02*
X226075000Y40625000D01*
X226075000Y41625000D02*
X226075000Y40625000D01*
X226075000Y54625000D02*
X225075000Y54625000D01*
X212075000Y40625000D02*
X213075000Y40625000D01*
X212075000Y40625000D02*
X212075000Y41625000D01*
X212075000Y53625000D02*
X212075000Y54625000D01*
X226075000Y54625000D02*
X226075000Y53625000D01*
D11*
%TO.C,LD48*%
X422662500Y92281250D02*
X425062500Y92281250D01*
X425062500Y91281250D02*
X425062500Y90281250D01*
X422662500Y90281250D02*
X425062500Y90281250D01*
X422662500Y91281250D02*
X422662500Y92281250D01*
D10*
X424162500Y90331250D02*
X424162500Y92231250D01*
D11*
%TO.C,LD3*%
X108337500Y137906250D02*
X110737500Y137906250D01*
D10*
X109837500Y137956250D02*
X109837500Y139856250D01*
D11*
X108337500Y139906250D02*
X110737500Y139906250D01*
X110737500Y138906250D02*
X110737500Y137906250D01*
X108337500Y138906250D02*
X108337500Y139906250D01*
D10*
%TO.C,K79*%
X117825000Y54625000D02*
X116825000Y54625000D01*
X129825000Y40625000D02*
X130825000Y40625000D01*
X116825000Y53625000D02*
X116825000Y54625000D01*
X116825000Y40625000D02*
X116825000Y41625000D01*
X130825000Y41625000D02*
X130825000Y40625000D01*
X130825000Y54625000D02*
X130825000Y53625000D01*
X130825000Y54625000D02*
X129825000Y54625000D01*
X116825000Y40625000D02*
X117825000Y40625000D01*
%TO.C,LD117*%
X245568750Y14131250D02*
X245568750Y16031250D01*
D11*
X244068750Y14081250D02*
X246468750Y14081250D01*
X244068750Y16081250D02*
X246468750Y16081250D01*
X244068750Y15081250D02*
X244068750Y16081250D01*
X246468750Y15081250D02*
X246468750Y14081250D01*
%TO.C,LD54*%
X82162500Y72231250D02*
X82162500Y71231250D01*
X82162500Y73231250D02*
X79762500Y73231250D01*
X79762500Y72231250D02*
X79762500Y73231250D01*
X82162500Y71231250D02*
X79762500Y71231250D01*
D10*
X80662500Y73181250D02*
X80662500Y71281250D01*
%TO.C,K38*%
X211787500Y92725000D02*
X210787500Y92725000D01*
X210787500Y78725000D02*
X211787500Y78725000D01*
X211787500Y92725000D02*
X211787500Y91725000D01*
X197787500Y91725000D02*
X197787500Y92725000D01*
X211787500Y79725000D02*
X211787500Y78725000D01*
X198787500Y92725000D02*
X197787500Y92725000D01*
X197787500Y78725000D02*
X198787500Y78725000D01*
X197787500Y78725000D02*
X197787500Y79725000D01*
%TO.C,K37*%
X178737500Y78725000D02*
X179737500Y78725000D01*
X179737500Y92725000D02*
X178737500Y92725000D01*
X178737500Y91725000D02*
X178737500Y92725000D01*
X178737500Y78725000D02*
X178737500Y79725000D01*
X192737500Y92725000D02*
X192737500Y91725000D01*
X192737500Y79725000D02*
X192737500Y78725000D01*
X191737500Y78725000D02*
X192737500Y78725000D01*
X192737500Y92725000D02*
X191737500Y92725000D01*
D11*
%TO.C,LD51*%
X10725000Y71231250D02*
X8325000Y71231250D01*
X8325000Y72231250D02*
X8325000Y73231250D01*
D10*
X9225000Y73181250D02*
X9225000Y71281250D01*
D11*
X10725000Y73231250D02*
X8325000Y73231250D01*
X10725000Y72231250D02*
X10725000Y71231250D01*
%TO.C,LD68*%
X360750000Y72231250D02*
X360750000Y73231250D01*
X363150000Y71231250D02*
X360750000Y71231250D01*
D10*
X361650000Y73181250D02*
X361650000Y71281250D01*
D11*
X363150000Y72231250D02*
X363150000Y71231250D01*
X363150000Y73231250D02*
X360750000Y73231250D01*
D10*
%TO.C,K29*%
X35575000Y92725000D02*
X34575000Y92725000D01*
X35575000Y92725000D02*
X35575000Y91725000D01*
X22575000Y92725000D02*
X21575000Y92725000D01*
X21575000Y91725000D02*
X21575000Y92725000D01*
X34575000Y78725000D02*
X35575000Y78725000D01*
X21575000Y78725000D02*
X22575000Y78725000D01*
X21575000Y78725000D02*
X21575000Y79725000D01*
X35575000Y79725000D02*
X35575000Y78725000D01*
%TO.C,K49*%
X449912500Y92725000D02*
X449912500Y91725000D01*
X448912500Y78725000D02*
X449912500Y78725000D01*
X435912500Y91725000D02*
X435912500Y92725000D01*
X449912500Y79725000D02*
X449912500Y78725000D01*
X436912500Y92725000D02*
X435912500Y92725000D01*
X435912500Y78725000D02*
X435912500Y79725000D01*
X435912500Y78725000D02*
X436912500Y78725000D01*
X449912500Y92725000D02*
X448912500Y92725000D01*
%TO.C,K82*%
X173975000Y40625000D02*
X173975000Y41625000D01*
X173975000Y53625000D02*
X173975000Y54625000D01*
X173975000Y40625000D02*
X174975000Y40625000D01*
X187975000Y54625000D02*
X186975000Y54625000D01*
X174975000Y54625000D02*
X173975000Y54625000D01*
X187975000Y41625000D02*
X187975000Y40625000D01*
X187975000Y54625000D02*
X187975000Y53625000D01*
X186975000Y40625000D02*
X187975000Y40625000D01*
D11*
%TO.C,LD44*%
X341700000Y92281250D02*
X344100000Y92281250D01*
X341700000Y91281250D02*
X341700000Y92281250D01*
X341700000Y90281250D02*
X344100000Y90281250D01*
D10*
X343200000Y90331250D02*
X343200000Y92231250D01*
D11*
X344100000Y91281250D02*
X344100000Y90281250D01*
%TO.C,LD41*%
X260737500Y92281250D02*
X263137500Y92281250D01*
X263137500Y91281250D02*
X263137500Y90281250D01*
X260737500Y91281250D02*
X260737500Y92281250D01*
D10*
X262237500Y90331250D02*
X262237500Y92231250D01*
D11*
X260737500Y90281250D02*
X263137500Y90281250D01*
D10*
%TO.C,K3*%
X116537500Y140350000D02*
X116537500Y139350000D01*
X116537500Y127350000D02*
X116537500Y126350000D01*
X115537500Y126350000D02*
X116537500Y126350000D01*
X116537500Y140350000D02*
X115537500Y140350000D01*
X102537500Y126350000D02*
X102537500Y127350000D01*
X103537500Y140350000D02*
X102537500Y140350000D01*
X102537500Y126350000D02*
X103537500Y126350000D01*
X102537500Y139350000D02*
X102537500Y140350000D01*
D11*
%TO.C,LD25*%
X344100000Y118856250D02*
X341700000Y118856250D01*
D10*
X342600000Y120806250D02*
X342600000Y118906250D01*
D11*
X344100000Y120856250D02*
X341700000Y120856250D01*
X341700000Y119856250D02*
X341700000Y120856250D01*
X344100000Y119856250D02*
X344100000Y118856250D01*
D10*
%TO.C,K39*%
X216837500Y78725000D02*
X216837500Y79725000D01*
X216837500Y91725000D02*
X216837500Y92725000D01*
X230837500Y92725000D02*
X230837500Y91725000D01*
X216837500Y78725000D02*
X217837500Y78725000D01*
X229837500Y78725000D02*
X230837500Y78725000D01*
X217837500Y92725000D02*
X216837500Y92725000D01*
X230837500Y79725000D02*
X230837500Y78725000D01*
X230837500Y92725000D02*
X229837500Y92725000D01*
D11*
%TO.C,LD91*%
X441712500Y52181250D02*
X444112500Y52181250D01*
X441712500Y53181250D02*
X441712500Y54181250D01*
X441712500Y54181250D02*
X444112500Y54181250D01*
X444112500Y53181250D02*
X444112500Y52181250D01*
D10*
X443212500Y52231250D02*
X443212500Y54131250D01*
%TO.C,LD122*%
X362250000Y14131250D02*
X362250000Y16031250D01*
D11*
X360750000Y14081250D02*
X363150000Y14081250D01*
X360750000Y16081250D02*
X363150000Y16081250D01*
X360750000Y15081250D02*
X360750000Y16081250D01*
X363150000Y15081250D02*
X363150000Y14081250D01*
%TO.C,LD89*%
X403612500Y52181250D02*
X406012500Y52181250D01*
X406012500Y53181250D02*
X406012500Y52181250D01*
X403612500Y53181250D02*
X403612500Y54181250D01*
D10*
X405112500Y52231250D02*
X405112500Y54131250D01*
D11*
X403612500Y54181250D02*
X406012500Y54181250D01*
%TO.C,LD79*%
X122625000Y52181250D02*
X125025000Y52181250D01*
X122625000Y53181250D02*
X122625000Y54181250D01*
D10*
X124125000Y52231250D02*
X124125000Y54131250D01*
D11*
X125025000Y53181250D02*
X125025000Y52181250D01*
X122625000Y54181250D02*
X125025000Y54181250D01*
%TO.C,LD34*%
X127387500Y92281250D02*
X129787500Y92281250D01*
X127387500Y90281250D02*
X129787500Y90281250D01*
X127387500Y91281250D02*
X127387500Y92281250D01*
X129787500Y91281250D02*
X129787500Y90281250D01*
D10*
X128887500Y90331250D02*
X128887500Y92231250D01*
D11*
%TO.C,LD111*%
X8325000Y15081250D02*
X8325000Y16081250D01*
X8325000Y16081250D02*
X10725000Y16081250D01*
X8325000Y14081250D02*
X10725000Y14081250D01*
X10725000Y15081250D02*
X10725000Y14081250D01*
D10*
X9825000Y14131250D02*
X9825000Y16031250D01*
%TO.C,K123*%
X374000000Y2525000D02*
X375000000Y2525000D01*
X375000000Y16525000D02*
X374000000Y16525000D01*
X374000000Y15525000D02*
X374000000Y16525000D01*
X374000000Y2525000D02*
X374000000Y3525000D01*
X388000000Y3525000D02*
X388000000Y2525000D01*
X387000000Y2525000D02*
X388000000Y2525000D01*
X388000000Y16525000D02*
X387000000Y16525000D01*
X388000000Y16525000D02*
X388000000Y15525000D01*
D11*
%TO.C,LD97*%
X115500000Y35131250D02*
X113100000Y35131250D01*
X115500000Y34131250D02*
X115500000Y33131250D01*
X113100000Y34131250D02*
X113100000Y35131250D01*
X115500000Y33131250D02*
X113100000Y33131250D01*
D10*
X114000000Y35081250D02*
X114000000Y33181250D01*
%TO.C,LD72*%
X442612500Y73181250D02*
X442612500Y71281250D01*
D11*
X441712500Y72231250D02*
X441712500Y73231250D01*
X444112500Y72231250D02*
X444112500Y71231250D01*
X444112500Y71231250D02*
X441712500Y71231250D01*
X444112500Y73231250D02*
X441712500Y73231250D01*
D10*
%TO.C,K24*%
X325087500Y107300000D02*
X326087500Y107300000D01*
X313087500Y121300000D02*
X312087500Y121300000D01*
X312087500Y107300000D02*
X313087500Y107300000D01*
X312087500Y120300000D02*
X312087500Y121300000D01*
X312087500Y107300000D02*
X312087500Y108300000D01*
X326087500Y121300000D02*
X326087500Y120300000D01*
X326087500Y108300000D02*
X326087500Y107300000D01*
X326087500Y121300000D02*
X325087500Y121300000D01*
D11*
%TO.C,LD82*%
X179775000Y52181250D02*
X182175000Y52181250D01*
X182175000Y53181250D02*
X182175000Y52181250D01*
X179775000Y54181250D02*
X182175000Y54181250D01*
D10*
X181275000Y52231250D02*
X181275000Y54131250D01*
D11*
X179775000Y53181250D02*
X179775000Y54181250D01*
D10*
%TO.C,LD1*%
X9825000Y137956250D02*
X9825000Y139856250D01*
D11*
X8325000Y138906250D02*
X8325000Y139906250D01*
X8325000Y137906250D02*
X10725000Y137906250D01*
X8325000Y139906250D02*
X10725000Y139906250D01*
X10725000Y138906250D02*
X10725000Y137906250D01*
D10*
%TO.C,K17*%
X183212500Y121300000D02*
X183212500Y120300000D01*
X170212500Y121300000D02*
X169212500Y121300000D01*
X169212500Y107300000D02*
X169212500Y108300000D01*
X169212500Y120300000D02*
X169212500Y121300000D01*
X183212500Y108300000D02*
X183212500Y107300000D01*
X169212500Y107300000D02*
X170212500Y107300000D01*
X183212500Y121300000D02*
X182212500Y121300000D01*
X182212500Y107300000D02*
X183212500Y107300000D01*
%TO.C,K73*%
X454962500Y72675000D02*
X454962500Y73675000D01*
X467962500Y59675000D02*
X468962500Y59675000D01*
X455962500Y73675000D02*
X454962500Y73675000D01*
X468962500Y73675000D02*
X467962500Y73675000D01*
X454962500Y59675000D02*
X454962500Y60675000D01*
X468962500Y60675000D02*
X468962500Y59675000D01*
X454962500Y59675000D02*
X455962500Y59675000D01*
X468962500Y73675000D02*
X468962500Y72675000D01*
%TO.C,K35*%
X154637500Y92725000D02*
X154637500Y91725000D01*
X140637500Y78725000D02*
X140637500Y79725000D01*
X153637500Y78725000D02*
X154637500Y78725000D01*
X140637500Y91725000D02*
X140637500Y92725000D01*
X141637500Y92725000D02*
X140637500Y92725000D01*
X154637500Y79725000D02*
X154637500Y78725000D01*
X140637500Y78725000D02*
X141637500Y78725000D01*
X154637500Y92725000D02*
X153637500Y92725000D01*
D12*
%TO.C,J2*%
X390750750Y138924500D02*
X392080750Y138924500D01*
X390750750Y136324500D02*
X393410750Y136324500D01*
X390750750Y137594500D02*
X390750750Y138924500D01*
X393410750Y136324500D02*
X393410750Y128644500D01*
X390750750Y136324500D02*
X390750750Y128644500D01*
X390750750Y128644500D02*
X393410750Y128644500D01*
D11*
%TO.C,LD46*%
X379800000Y91281250D02*
X379800000Y92281250D01*
X379800000Y92281250D02*
X382200000Y92281250D01*
X379800000Y90281250D02*
X382200000Y90281250D01*
D10*
X381300000Y90331250D02*
X381300000Y92231250D01*
D11*
X382200000Y91281250D02*
X382200000Y90281250D01*
D10*
%TO.C,K92*%
X468962500Y54625000D02*
X468962500Y53625000D01*
X468962500Y41625000D02*
X468962500Y40625000D01*
X468962500Y54625000D02*
X467962500Y54625000D01*
X455962500Y54625000D02*
X454962500Y54625000D01*
X454962500Y40625000D02*
X455962500Y40625000D01*
X467962500Y40625000D02*
X468962500Y40625000D01*
X454962500Y53625000D02*
X454962500Y54625000D01*
X454962500Y40625000D02*
X454962500Y41625000D01*
%TO.C,K61*%
X221312500Y60675000D02*
X221312500Y59675000D01*
X221312500Y73675000D02*
X220312500Y73675000D01*
X208312500Y73675000D02*
X207312500Y73675000D01*
X207312500Y59675000D02*
X208312500Y59675000D01*
X207312500Y72675000D02*
X207312500Y73675000D01*
X207312500Y59675000D02*
X207312500Y60675000D01*
X221312500Y73675000D02*
X221312500Y72675000D01*
X220312500Y59675000D02*
X221312500Y59675000D01*
%TO.C,K30*%
X45387500Y78725000D02*
X46387500Y78725000D01*
X46387500Y92725000D02*
X45387500Y92725000D01*
X58387500Y78725000D02*
X59387500Y78725000D01*
X59387500Y92725000D02*
X58387500Y92725000D01*
X59387500Y92725000D02*
X59387500Y91725000D01*
X59387500Y79725000D02*
X59387500Y78725000D01*
X45387500Y78725000D02*
X45387500Y79725000D01*
X45387500Y91725000D02*
X45387500Y92725000D01*
%TO.C,K83*%
X193025000Y40625000D02*
X194025000Y40625000D01*
X206025000Y40625000D02*
X207025000Y40625000D01*
X207025000Y41625000D02*
X207025000Y40625000D01*
X193025000Y40625000D02*
X193025000Y41625000D01*
X207025000Y54625000D02*
X206025000Y54625000D01*
X207025000Y54625000D02*
X207025000Y53625000D01*
X194025000Y54625000D02*
X193025000Y54625000D01*
X193025000Y53625000D02*
X193025000Y54625000D01*
%TO.C,K81*%
X168925000Y41625000D02*
X168925000Y40625000D01*
X168925000Y54625000D02*
X168925000Y53625000D01*
X154925000Y53625000D02*
X154925000Y54625000D01*
X167925000Y40625000D02*
X168925000Y40625000D01*
X154925000Y40625000D02*
X154925000Y41625000D01*
X168925000Y54625000D02*
X167925000Y54625000D01*
X155925000Y54625000D02*
X154925000Y54625000D01*
X154925000Y40625000D02*
X155925000Y40625000D01*
%TO.C,LD38*%
X205087500Y90331250D02*
X205087500Y92231250D01*
D11*
X203587500Y92281250D02*
X205987500Y92281250D01*
X203587500Y91281250D02*
X203587500Y92281250D01*
X203587500Y90281250D02*
X205987500Y90281250D01*
X205987500Y91281250D02*
X205987500Y90281250D01*
%TO.C,LD93*%
X8325000Y34131250D02*
X8325000Y35131250D01*
X10725000Y33131250D02*
X8325000Y33131250D01*
X10725000Y35131250D02*
X8325000Y35131250D01*
X10725000Y34131250D02*
X10725000Y33131250D01*
D10*
X9225000Y35081250D02*
X9225000Y33181250D01*
%TO.C,LD92*%
X462262500Y52231250D02*
X462262500Y54131250D01*
D11*
X463162500Y53181250D02*
X463162500Y52181250D01*
X460762500Y53181250D02*
X460762500Y54181250D01*
X460762500Y54181250D02*
X463162500Y54181250D01*
X460762500Y52181250D02*
X463162500Y52181250D01*
%TO.C,LD94*%
X27375000Y34131250D02*
X27375000Y35131250D01*
D10*
X28275000Y35081250D02*
X28275000Y33181250D01*
D11*
X29775000Y34131250D02*
X29775000Y33131250D01*
X29775000Y35131250D02*
X27375000Y35131250D01*
X29775000Y33131250D02*
X27375000Y33131250D01*
D10*
%TO.C,K90*%
X416862500Y40625000D02*
X417862500Y40625000D01*
X430862500Y54625000D02*
X429862500Y54625000D01*
X430862500Y54625000D02*
X430862500Y53625000D01*
X430862500Y41625000D02*
X430862500Y40625000D01*
X416862500Y53625000D02*
X416862500Y54625000D01*
X416862500Y40625000D02*
X416862500Y41625000D01*
X429862500Y40625000D02*
X430862500Y40625000D01*
X417862500Y54625000D02*
X416862500Y54625000D01*
%TO.C,K20*%
X226362500Y120300000D02*
X226362500Y121300000D01*
X226362500Y107300000D02*
X227362500Y107300000D01*
X240362500Y108300000D02*
X240362500Y107300000D01*
X240362500Y121300000D02*
X240362500Y120300000D01*
X239362500Y107300000D02*
X240362500Y107300000D01*
X226362500Y107300000D02*
X226362500Y108300000D01*
X227362500Y121300000D02*
X226362500Y121300000D01*
X240362500Y121300000D02*
X239362500Y121300000D01*
%TO.C,K59*%
X169212500Y72675000D02*
X169212500Y73675000D01*
X169212500Y59675000D02*
X170212500Y59675000D01*
X170212500Y73675000D02*
X169212500Y73675000D01*
X182212500Y59675000D02*
X183212500Y59675000D01*
X183212500Y73675000D02*
X183212500Y72675000D01*
X169212500Y59675000D02*
X169212500Y60675000D01*
X183212500Y60675000D02*
X183212500Y59675000D01*
X183212500Y73675000D02*
X182212500Y73675000D01*
%TO.C,K95*%
X57293750Y21575000D02*
X58293750Y21575000D01*
X70293750Y21575000D02*
X71293750Y21575000D01*
X71293750Y35575000D02*
X71293750Y34575000D01*
X57293750Y21575000D02*
X57293750Y22575000D01*
X71293750Y22575000D02*
X71293750Y21575000D01*
X71293750Y35575000D02*
X70293750Y35575000D01*
X58293750Y35575000D02*
X57293750Y35575000D01*
X57293750Y34575000D02*
X57293750Y35575000D01*
%TO.C,K111*%
X2525000Y15525000D02*
X2525000Y16525000D01*
X2525000Y2525000D02*
X2525000Y3525000D01*
X2525000Y2525000D02*
X3525000Y2525000D01*
X16525000Y16525000D02*
X16525000Y15525000D01*
X16525000Y16525000D02*
X15525000Y16525000D01*
X16525000Y3525000D02*
X16525000Y2525000D01*
X3525000Y16525000D02*
X2525000Y16525000D01*
X15525000Y2525000D02*
X16525000Y2525000D01*
%TO.C,K50*%
X468962500Y92725000D02*
X467962500Y92725000D01*
X468962500Y79725000D02*
X468962500Y78725000D01*
X468962500Y92725000D02*
X468962500Y91725000D01*
X454962500Y78725000D02*
X455962500Y78725000D01*
X454962500Y91725000D02*
X454962500Y92725000D01*
X454962500Y78725000D02*
X454962500Y79725000D01*
X455962500Y92725000D02*
X454962500Y92725000D01*
X467962500Y78725000D02*
X468962500Y78725000D01*
D11*
%TO.C,LD21*%
X263137500Y118856250D02*
X260737500Y118856250D01*
X263137500Y119856250D02*
X263137500Y118856250D01*
D10*
X261637500Y120806250D02*
X261637500Y118906250D01*
D11*
X263137500Y120856250D02*
X260737500Y120856250D01*
X260737500Y119856250D02*
X260737500Y120856250D01*
D10*
%TO.C,K104*%
X240650000Y21575000D02*
X240650000Y22575000D01*
X254650000Y35575000D02*
X253650000Y35575000D01*
X240650000Y34575000D02*
X240650000Y35575000D01*
X240650000Y21575000D02*
X241650000Y21575000D01*
X253650000Y21575000D02*
X254650000Y21575000D01*
X241650000Y35575000D02*
X240650000Y35575000D01*
X254650000Y22575000D02*
X254650000Y21575000D01*
X254650000Y35575000D02*
X254650000Y34575000D01*
D11*
%TO.C,LD65*%
X291712500Y72231250D02*
X291712500Y71231250D01*
X289312500Y72231250D02*
X289312500Y73231250D01*
X291712500Y71231250D02*
X289312500Y71231250D01*
D10*
X290212500Y73181250D02*
X290212500Y71281250D01*
D11*
X291712500Y73231250D02*
X289312500Y73231250D01*
D10*
%TO.C,K25*%
X349900000Y121300000D02*
X348900000Y121300000D01*
X349900000Y108300000D02*
X349900000Y107300000D01*
X335900000Y120300000D02*
X335900000Y121300000D01*
X336900000Y121300000D02*
X335900000Y121300000D01*
X348900000Y107300000D02*
X349900000Y107300000D01*
X349900000Y121300000D02*
X349900000Y120300000D01*
X335900000Y107300000D02*
X336900000Y107300000D01*
X335900000Y107300000D02*
X335900000Y108300000D01*
%TO.C,K52*%
X34575000Y59675000D02*
X35575000Y59675000D01*
X21575000Y59675000D02*
X22575000Y59675000D01*
X21575000Y72675000D02*
X21575000Y73675000D01*
X35575000Y73675000D02*
X35575000Y72675000D01*
X35575000Y73675000D02*
X34575000Y73675000D01*
X35575000Y60675000D02*
X35575000Y59675000D01*
X22575000Y73675000D02*
X21575000Y73675000D01*
X21575000Y59675000D02*
X21575000Y60675000D01*
%TO.C,K2*%
X84487500Y140350000D02*
X83487500Y140350000D01*
X83487500Y126350000D02*
X84487500Y126350000D01*
X83487500Y139350000D02*
X83487500Y140350000D01*
X83487500Y126350000D02*
X83487500Y127350000D01*
X97487500Y140350000D02*
X97487500Y139350000D01*
X96487500Y126350000D02*
X97487500Y126350000D01*
X97487500Y140350000D02*
X96487500Y140350000D01*
X97487500Y127350000D02*
X97487500Y126350000D01*
D11*
%TO.C,LD62*%
X234562500Y72231250D02*
X234562500Y71231250D01*
X234562500Y73231250D02*
X232162500Y73231250D01*
D10*
X233062500Y73181250D02*
X233062500Y71281250D01*
D11*
X234562500Y71231250D02*
X232162500Y71231250D01*
X232162500Y72231250D02*
X232162500Y73231250D01*
%TO.C,LD23*%
X301237500Y119856250D02*
X301237500Y118856250D01*
X301237500Y118856250D02*
X298837500Y118856250D01*
X298837500Y119856250D02*
X298837500Y120856250D01*
X301237500Y120856250D02*
X298837500Y120856250D01*
D10*
X299737500Y120806250D02*
X299737500Y118906250D01*
D11*
%TO.C,LD60*%
X196462500Y73231250D02*
X194062500Y73231250D01*
X196462500Y71231250D02*
X194062500Y71231250D01*
X194062500Y72231250D02*
X194062500Y73231250D01*
D10*
X194962500Y73181250D02*
X194962500Y71281250D01*
D11*
X196462500Y72231250D02*
X196462500Y71231250D01*
D10*
%TO.C,K100*%
X178450000Y35575000D02*
X177450000Y35575000D01*
X165450000Y35575000D02*
X164450000Y35575000D01*
X177450000Y21575000D02*
X178450000Y21575000D01*
X164450000Y21575000D02*
X164450000Y22575000D01*
X178450000Y22575000D02*
X178450000Y21575000D01*
X164450000Y21575000D02*
X165450000Y21575000D01*
X178450000Y35575000D02*
X178450000Y34575000D01*
X164450000Y34575000D02*
X164450000Y35575000D01*
%TO.C,LD37*%
X186037500Y90331250D02*
X186037500Y92231250D01*
D11*
X184537500Y91281250D02*
X184537500Y92281250D01*
X186937500Y91281250D02*
X186937500Y90281250D01*
X184537500Y92281250D02*
X186937500Y92281250D01*
X184537500Y90281250D02*
X186937500Y90281250D01*
%TO.C,LD57*%
X139312500Y72231250D02*
X139312500Y71231250D01*
X136912500Y72231250D02*
X136912500Y73231250D01*
X139312500Y71231250D02*
X136912500Y71231250D01*
D10*
X137812500Y73181250D02*
X137812500Y71281250D01*
D11*
X139312500Y73231250D02*
X136912500Y73231250D01*
%TO.C,LD22*%
X282187500Y119856250D02*
X282187500Y118856250D01*
X282187500Y118856250D02*
X279787500Y118856250D01*
X279787500Y119856250D02*
X279787500Y120856250D01*
D10*
X280687500Y120806250D02*
X280687500Y118906250D01*
D11*
X282187500Y120856250D02*
X279787500Y120856250D01*
D10*
%TO.C,K89*%
X411812500Y54625000D02*
X411812500Y53625000D01*
X397812500Y53625000D02*
X397812500Y54625000D01*
X411812500Y54625000D02*
X410812500Y54625000D01*
X411812500Y41625000D02*
X411812500Y40625000D01*
X398812500Y54625000D02*
X397812500Y54625000D01*
X410812500Y40625000D02*
X411812500Y40625000D01*
X397812500Y40625000D02*
X397812500Y41625000D01*
X397812500Y40625000D02*
X398812500Y40625000D01*
D11*
%TO.C,LD9*%
X232162500Y139906250D02*
X234562500Y139906250D01*
D10*
X233662500Y137956250D02*
X233662500Y139856250D01*
D11*
X232162500Y137906250D02*
X234562500Y137906250D01*
X232162500Y138906250D02*
X232162500Y139906250D01*
X234562500Y138906250D02*
X234562500Y137906250D01*
D10*
%TO.C,LD77*%
X86025000Y52231250D02*
X86025000Y54131250D01*
D11*
X86925000Y53181250D02*
X86925000Y52181250D01*
X84525000Y54181250D02*
X86925000Y54181250D01*
X84525000Y52181250D02*
X86925000Y52181250D01*
X84525000Y53181250D02*
X84525000Y54181250D01*
D10*
%TO.C,K88*%
X314181250Y54625000D02*
X313181250Y54625000D01*
X301181250Y54625000D02*
X300181250Y54625000D01*
X300181250Y53625000D02*
X300181250Y54625000D01*
X300181250Y40625000D02*
X300181250Y41625000D01*
X314181250Y41625000D02*
X314181250Y40625000D01*
X314181250Y54625000D02*
X314181250Y53625000D01*
X300181250Y40625000D02*
X301181250Y40625000D01*
X313181250Y40625000D02*
X314181250Y40625000D01*
D11*
%TO.C,LD2*%
X89287500Y138906250D02*
X89287500Y139906250D01*
D10*
X90787500Y137956250D02*
X90787500Y139856250D01*
D11*
X91687500Y138906250D02*
X91687500Y137906250D01*
X89287500Y139906250D02*
X91687500Y139906250D01*
X89287500Y137906250D02*
X91687500Y137906250D01*
%TO.C,LD112*%
X29775000Y15081250D02*
X29775000Y14081250D01*
X27375000Y15081250D02*
X27375000Y16081250D01*
X27375000Y14081250D02*
X29775000Y14081250D01*
X27375000Y16081250D02*
X29775000Y16081250D01*
D10*
X28875000Y14131250D02*
X28875000Y16031250D01*
%TO.C,K26*%
X368950000Y121300000D02*
X367950000Y121300000D01*
X354950000Y107300000D02*
X354950000Y108300000D01*
X368950000Y108300000D02*
X368950000Y107300000D01*
X354950000Y107300000D02*
X355950000Y107300000D01*
X355950000Y121300000D02*
X354950000Y121300000D01*
X368950000Y121300000D02*
X368950000Y120300000D01*
X367950000Y107300000D02*
X368950000Y107300000D01*
X354950000Y120300000D02*
X354950000Y121300000D01*
%TO.C,K80*%
X149875000Y54625000D02*
X149875000Y53625000D01*
X135875000Y53625000D02*
X135875000Y54625000D01*
X149875000Y41625000D02*
X149875000Y40625000D01*
X148875000Y40625000D02*
X149875000Y40625000D01*
X136875000Y54625000D02*
X135875000Y54625000D01*
X135875000Y40625000D02*
X135875000Y41625000D01*
X135875000Y40625000D02*
X136875000Y40625000D01*
X149875000Y54625000D02*
X148875000Y54625000D01*
D11*
%TO.C,LD109*%
X425062500Y33131250D02*
X422662500Y33131250D01*
X425062500Y35131250D02*
X422662500Y35131250D01*
D10*
X423562500Y35081250D02*
X423562500Y33181250D01*
D11*
X422662500Y34131250D02*
X422662500Y35131250D01*
X425062500Y34131250D02*
X425062500Y33131250D01*
%TO.C,LD16*%
X148837500Y120856250D02*
X146437500Y120856250D01*
X146437500Y119856250D02*
X146437500Y120856250D01*
X148837500Y119856250D02*
X148837500Y118856250D01*
D10*
X147337500Y120806250D02*
X147337500Y118906250D01*
D11*
X148837500Y118856250D02*
X146437500Y118856250D01*
%TO.C,LD29*%
X27375000Y92281250D02*
X29775000Y92281250D01*
D10*
X28875000Y90331250D02*
X28875000Y92231250D01*
D11*
X27375000Y90281250D02*
X29775000Y90281250D01*
X27375000Y91281250D02*
X27375000Y92281250D01*
X29775000Y91281250D02*
X29775000Y90281250D01*
D10*
%TO.C,K77*%
X78725000Y40625000D02*
X79725000Y40625000D01*
X79725000Y54625000D02*
X78725000Y54625000D01*
X91725000Y40625000D02*
X92725000Y40625000D01*
X78725000Y53625000D02*
X78725000Y54625000D01*
X78725000Y40625000D02*
X78725000Y41625000D01*
X92725000Y54625000D02*
X92725000Y53625000D01*
X92725000Y54625000D02*
X91725000Y54625000D01*
X92725000Y41625000D02*
X92725000Y40625000D01*
%TO.C,K122*%
X354950000Y15525000D02*
X354950000Y16525000D01*
X368950000Y16525000D02*
X368950000Y15525000D01*
X354950000Y2525000D02*
X354950000Y3525000D01*
X368950000Y16525000D02*
X367950000Y16525000D01*
X355950000Y16525000D02*
X354950000Y16525000D01*
X368950000Y3525000D02*
X368950000Y2525000D01*
X367950000Y2525000D02*
X368950000Y2525000D01*
X354950000Y2525000D02*
X355950000Y2525000D01*
D11*
%TO.C,LD64*%
X272662500Y72231250D02*
X272662500Y71231250D01*
X270262500Y72231250D02*
X270262500Y73231250D01*
X272662500Y71231250D02*
X270262500Y71231250D01*
D10*
X271162500Y73181250D02*
X271162500Y71281250D01*
D11*
X272662500Y73231250D02*
X270262500Y73231250D01*
D10*
%TO.C,K46*%
X387000000Y78725000D02*
X388000000Y78725000D01*
X388000000Y92725000D02*
X388000000Y91725000D01*
X374000000Y78725000D02*
X375000000Y78725000D01*
X374000000Y91725000D02*
X374000000Y92725000D01*
X375000000Y92725000D02*
X374000000Y92725000D01*
X388000000Y79725000D02*
X388000000Y78725000D01*
X388000000Y92725000D02*
X387000000Y92725000D01*
X374000000Y78725000D02*
X374000000Y79725000D01*
D11*
%TO.C,LD43*%
X308362500Y90281250D02*
X310762500Y90281250D01*
X308362500Y91281250D02*
X308362500Y92281250D01*
D10*
X309862500Y90331250D02*
X309862500Y92231250D01*
D11*
X308362500Y92281250D02*
X310762500Y92281250D01*
X310762500Y91281250D02*
X310762500Y90281250D01*
D10*
%TO.C,LD14*%
X109237500Y120806250D02*
X109237500Y118906250D01*
D11*
X110737500Y118856250D02*
X108337500Y118856250D01*
X108337500Y119856250D02*
X108337500Y120856250D01*
X110737500Y120856250D02*
X108337500Y120856250D01*
X110737500Y119856250D02*
X110737500Y118856250D01*
D10*
%TO.C,K126*%
X449912500Y16525000D02*
X449912500Y15525000D01*
X435912500Y2525000D02*
X435912500Y3525000D01*
X436912500Y16525000D02*
X435912500Y16525000D01*
X449912500Y16525000D02*
X448912500Y16525000D01*
X435912500Y2525000D02*
X436912500Y2525000D01*
X435912500Y15525000D02*
X435912500Y16525000D01*
X448912500Y2525000D02*
X449912500Y2525000D01*
X449912500Y3525000D02*
X449912500Y2525000D01*
D11*
%TO.C,LD85*%
X239325000Y53181250D02*
X239325000Y52181250D01*
X236925000Y53181250D02*
X236925000Y54181250D01*
D10*
X238425000Y52231250D02*
X238425000Y54131250D01*
D11*
X236925000Y52181250D02*
X239325000Y52181250D01*
X236925000Y54181250D02*
X239325000Y54181250D01*
%TO.C,LD63*%
X253612500Y71231250D02*
X251212500Y71231250D01*
X251212500Y72231250D02*
X251212500Y73231250D01*
X253612500Y72231250D02*
X253612500Y71231250D01*
X253612500Y73231250D02*
X251212500Y73231250D01*
D10*
X252112500Y73181250D02*
X252112500Y71281250D01*
%TO.C,K112*%
X21575000Y15525000D02*
X21575000Y16525000D01*
X35575000Y16525000D02*
X34575000Y16525000D01*
X34575000Y2525000D02*
X35575000Y2525000D01*
X35575000Y16525000D02*
X35575000Y15525000D01*
X21575000Y2525000D02*
X22575000Y2525000D01*
X21575000Y2525000D02*
X21575000Y3525000D01*
X35575000Y3525000D02*
X35575000Y2525000D01*
X22575000Y16525000D02*
X21575000Y16525000D01*
%TO.C,LD121*%
X343200000Y14131250D02*
X343200000Y16031250D01*
D11*
X341700000Y14081250D02*
X344100000Y14081250D01*
X341700000Y15081250D02*
X341700000Y16081250D01*
X344100000Y15081250D02*
X344100000Y14081250D01*
X341700000Y16081250D02*
X344100000Y16081250D01*
D10*
%TO.C,K113*%
X61768750Y16525000D02*
X61768750Y15525000D01*
X61768750Y3525000D02*
X61768750Y2525000D01*
X47768750Y15525000D02*
X47768750Y16525000D01*
X60768750Y2525000D02*
X61768750Y2525000D01*
X48768750Y16525000D02*
X47768750Y16525000D01*
X47768750Y2525000D02*
X47768750Y3525000D01*
X61768750Y16525000D02*
X60768750Y16525000D01*
X47768750Y2525000D02*
X48768750Y2525000D01*
%TO.C,K65*%
X297512500Y73675000D02*
X297512500Y72675000D01*
X296512500Y59675000D02*
X297512500Y59675000D01*
X297512500Y73675000D02*
X296512500Y73675000D01*
X283512500Y59675000D02*
X283512500Y60675000D01*
X283512500Y72675000D02*
X283512500Y73675000D01*
X283512500Y59675000D02*
X284512500Y59675000D01*
X284512500Y73675000D02*
X283512500Y73675000D01*
X297512500Y60675000D02*
X297512500Y59675000D01*
%TO.C,LD127*%
X457356250Y19350000D02*
X455456250Y19350000D01*
D11*
X457406250Y17850000D02*
X457406250Y20250000D01*
X456406250Y20250000D02*
X457406250Y20250000D01*
X455406250Y17850000D02*
X455406250Y20250000D01*
X456406250Y17850000D02*
X455406250Y17850000D01*
D10*
%TO.C,K54*%
X87962500Y73675000D02*
X86962500Y73675000D01*
X73962500Y59675000D02*
X73962500Y60675000D01*
X87962500Y73675000D02*
X87962500Y72675000D01*
X86962500Y59675000D02*
X87962500Y59675000D01*
X74962500Y73675000D02*
X73962500Y73675000D01*
X73962500Y59675000D02*
X74962500Y59675000D01*
X87962500Y60675000D02*
X87962500Y59675000D01*
X73962500Y72675000D02*
X73962500Y73675000D01*
D11*
%TO.C,LD36*%
X165487500Y92281250D02*
X167887500Y92281250D01*
X165487500Y90281250D02*
X167887500Y90281250D01*
X165487500Y91281250D02*
X165487500Y92281250D01*
X167887500Y91281250D02*
X167887500Y90281250D01*
D10*
X166987500Y90331250D02*
X166987500Y92231250D01*
%TO.C,K76*%
X65531250Y40625000D02*
X66531250Y40625000D01*
X52531250Y40625000D02*
X52531250Y41625000D01*
X52531250Y40625000D02*
X53531250Y40625000D01*
X66531250Y54625000D02*
X66531250Y53625000D01*
X66531250Y54625000D02*
X65531250Y54625000D01*
X66531250Y41625000D02*
X66531250Y40625000D01*
X52531250Y53625000D02*
X52531250Y54625000D01*
X53531250Y54625000D02*
X52531250Y54625000D01*
%TO.C,K78*%
X97775000Y53625000D02*
X97775000Y54625000D01*
X97775000Y40625000D02*
X97775000Y41625000D01*
X111775000Y54625000D02*
X111775000Y53625000D01*
X111775000Y54625000D02*
X110775000Y54625000D01*
X98775000Y54625000D02*
X97775000Y54625000D01*
X97775000Y40625000D02*
X98775000Y40625000D01*
X110775000Y40625000D02*
X111775000Y40625000D01*
X111775000Y41625000D02*
X111775000Y40625000D01*
D11*
%TO.C,LD30*%
X51187500Y91281250D02*
X51187500Y92281250D01*
D10*
X52687500Y90331250D02*
X52687500Y92231250D01*
D11*
X51187500Y90281250D02*
X53587500Y90281250D01*
X51187500Y92281250D02*
X53587500Y92281250D01*
X53587500Y91281250D02*
X53587500Y90281250D01*
D10*
%TO.C,K51*%
X16525000Y60675000D02*
X16525000Y59675000D01*
X16525000Y73675000D02*
X16525000Y72675000D01*
X3525000Y73675000D02*
X2525000Y73675000D01*
X15525000Y59675000D02*
X16525000Y59675000D01*
X2525000Y72675000D02*
X2525000Y73675000D01*
X2525000Y59675000D02*
X2525000Y60675000D01*
X2525000Y59675000D02*
X3525000Y59675000D01*
X16525000Y73675000D02*
X15525000Y73675000D01*
%TO.C,K101*%
X183500000Y34575000D02*
X183500000Y35575000D01*
X183500000Y21575000D02*
X183500000Y22575000D01*
X197500000Y22575000D02*
X197500000Y21575000D01*
X184500000Y35575000D02*
X183500000Y35575000D01*
X197500000Y35575000D02*
X196500000Y35575000D01*
X183500000Y21575000D02*
X184500000Y21575000D01*
X197500000Y35575000D02*
X197500000Y34575000D01*
X196500000Y21575000D02*
X197500000Y21575000D01*
D11*
%TO.C,LD11*%
X360750000Y138906250D02*
X360750000Y139906250D01*
X360750000Y137906250D02*
X363150000Y137906250D01*
X363150000Y138906250D02*
X363150000Y137906250D01*
X360750000Y139906250D02*
X363150000Y139906250D01*
D10*
X362250000Y137956250D02*
X362250000Y139856250D01*
%TO.C,LD75*%
X28875000Y52231250D02*
X28875000Y54131250D01*
D11*
X27375000Y52181250D02*
X29775000Y52181250D01*
X27375000Y53181250D02*
X27375000Y54181250D01*
X27375000Y54181250D02*
X29775000Y54181250D01*
X29775000Y53181250D02*
X29775000Y52181250D01*
D10*
%TO.C,K57*%
X145112500Y73675000D02*
X145112500Y72675000D01*
X131112500Y59675000D02*
X131112500Y60675000D01*
X131112500Y59675000D02*
X132112500Y59675000D01*
X132112500Y73675000D02*
X131112500Y73675000D01*
X144112500Y59675000D02*
X145112500Y59675000D01*
X145112500Y73675000D02*
X144112500Y73675000D01*
X145112500Y60675000D02*
X145112500Y59675000D01*
X131112500Y72675000D02*
X131112500Y73675000D01*
%TO.C,K64*%
X264462500Y59675000D02*
X264462500Y60675000D01*
X264462500Y59675000D02*
X265462500Y59675000D01*
X277462500Y59675000D02*
X278462500Y59675000D01*
X278462500Y73675000D02*
X277462500Y73675000D01*
X278462500Y73675000D02*
X278462500Y72675000D01*
X264462500Y72675000D02*
X264462500Y73675000D01*
X278462500Y60675000D02*
X278462500Y59675000D01*
X265462500Y73675000D02*
X264462500Y73675000D01*
%TO.C,K105*%
X273700000Y22575000D02*
X273700000Y21575000D01*
X272700000Y21575000D02*
X273700000Y21575000D01*
X259700000Y34575000D02*
X259700000Y35575000D01*
X273700000Y35575000D02*
X273700000Y34575000D01*
X260700000Y35575000D02*
X259700000Y35575000D01*
X259700000Y21575000D02*
X259700000Y22575000D01*
X259700000Y21575000D02*
X260700000Y21575000D01*
X273700000Y35575000D02*
X272700000Y35575000D01*
%TO.C,K32*%
X84487500Y92725000D02*
X83487500Y92725000D01*
X97487500Y92725000D02*
X96487500Y92725000D01*
X96487500Y78725000D02*
X97487500Y78725000D01*
X97487500Y79725000D02*
X97487500Y78725000D01*
X83487500Y78725000D02*
X83487500Y79725000D01*
X83487500Y78725000D02*
X84487500Y78725000D01*
X97487500Y92725000D02*
X97487500Y91725000D01*
X83487500Y91725000D02*
X83487500Y92725000D01*
D11*
%TO.C,LD45*%
X360750000Y90281250D02*
X363150000Y90281250D01*
X363150000Y91281250D02*
X363150000Y90281250D01*
X360750000Y91281250D02*
X360750000Y92281250D01*
D10*
X362250000Y90331250D02*
X362250000Y92231250D01*
D11*
X360750000Y92281250D02*
X363150000Y92281250D01*
%TO.C,LD80*%
X141675000Y54181250D02*
X144075000Y54181250D01*
X144075000Y53181250D02*
X144075000Y52181250D01*
X141675000Y52181250D02*
X144075000Y52181250D01*
X141675000Y53181250D02*
X141675000Y54181250D01*
D10*
X143175000Y52231250D02*
X143175000Y54131250D01*
%TO.C,K27*%
X388000000Y121300000D02*
X388000000Y120300000D01*
X387000000Y107300000D02*
X388000000Y107300000D01*
X375000000Y121300000D02*
X374000000Y121300000D01*
X388000000Y108300000D02*
X388000000Y107300000D01*
X374000000Y107300000D02*
X374000000Y108300000D01*
X374000000Y120300000D02*
X374000000Y121300000D01*
X388000000Y121300000D02*
X387000000Y121300000D01*
X374000000Y107300000D02*
X375000000Y107300000D01*
D11*
%TO.C,LD13*%
X91687500Y120856250D02*
X89287500Y120856250D01*
X91687500Y118856250D02*
X89287500Y118856250D01*
D10*
X90187500Y120806250D02*
X90187500Y118906250D01*
D11*
X89287500Y119856250D02*
X89287500Y120856250D01*
X91687500Y119856250D02*
X91687500Y118856250D01*
D10*
%TO.C,K13*%
X83487500Y107300000D02*
X84487500Y107300000D01*
X84487500Y121300000D02*
X83487500Y121300000D01*
X96487500Y107300000D02*
X97487500Y107300000D01*
X83487500Y107300000D02*
X83487500Y108300000D01*
X83487500Y120300000D02*
X83487500Y121300000D01*
X97487500Y121300000D02*
X96487500Y121300000D01*
X97487500Y108300000D02*
X97487500Y107300000D01*
X97487500Y121300000D02*
X97487500Y120300000D01*
%TO.C,K94*%
X35575000Y35575000D02*
X35575000Y34575000D01*
X21575000Y21575000D02*
X22575000Y21575000D01*
X22575000Y35575000D02*
X21575000Y35575000D01*
X35575000Y22575000D02*
X35575000Y21575000D01*
X21575000Y34575000D02*
X21575000Y35575000D01*
X34575000Y21575000D02*
X35575000Y21575000D01*
X35575000Y35575000D02*
X34575000Y35575000D01*
X21575000Y21575000D02*
X21575000Y22575000D01*
%TO.C,K93*%
X2525000Y21575000D02*
X3525000Y21575000D01*
X16525000Y35575000D02*
X15525000Y35575000D01*
X16525000Y35575000D02*
X16525000Y34575000D01*
X2525000Y21575000D02*
X2525000Y22575000D01*
X3525000Y35575000D02*
X2525000Y35575000D01*
X16525000Y22575000D02*
X16525000Y21575000D01*
X2525000Y34575000D02*
X2525000Y35575000D01*
X15525000Y21575000D02*
X16525000Y21575000D01*
D11*
%TO.C,LD61*%
X215512500Y73231250D02*
X213112500Y73231250D01*
X213112500Y72231250D02*
X213112500Y73231250D01*
X215512500Y71231250D02*
X213112500Y71231250D01*
X215512500Y72231250D02*
X215512500Y71231250D01*
D10*
X214012500Y73181250D02*
X214012500Y71281250D01*
%TO.C,LD32*%
X90787500Y90331250D02*
X90787500Y92231250D01*
D11*
X91687500Y91281250D02*
X91687500Y90281250D01*
X89287500Y92281250D02*
X91687500Y92281250D01*
X89287500Y91281250D02*
X89287500Y92281250D01*
X89287500Y90281250D02*
X91687500Y90281250D01*
%TO.C,LD115*%
X101193750Y14081250D02*
X103593750Y14081250D01*
X101193750Y16081250D02*
X103593750Y16081250D01*
X101193750Y15081250D02*
X101193750Y16081250D01*
D10*
X102693750Y14131250D02*
X102693750Y16031250D01*
D11*
X103593750Y15081250D02*
X103593750Y14081250D01*
D10*
%TO.C,K109*%
X417862500Y35575000D02*
X416862500Y35575000D01*
X430862500Y35575000D02*
X429862500Y35575000D01*
X429862500Y21575000D02*
X430862500Y21575000D01*
X416862500Y21575000D02*
X417862500Y21575000D01*
X416862500Y21575000D02*
X416862500Y22575000D01*
X430862500Y22575000D02*
X430862500Y21575000D01*
X416862500Y34575000D02*
X416862500Y35575000D01*
X430862500Y35575000D02*
X430862500Y34575000D01*
%TO.C,K48*%
X429862500Y78725000D02*
X430862500Y78725000D01*
X417862500Y92725000D02*
X416862500Y92725000D01*
X416862500Y91725000D02*
X416862500Y92725000D01*
X430862500Y92725000D02*
X429862500Y92725000D01*
X430862500Y79725000D02*
X430862500Y78725000D01*
X416862500Y78725000D02*
X417862500Y78725000D01*
X416862500Y78725000D02*
X416862500Y79725000D01*
X430862500Y92725000D02*
X430862500Y91725000D01*
%TO.C,LD10*%
X343200000Y137956250D02*
X343200000Y139856250D01*
D11*
X344100000Y138906250D02*
X344100000Y137906250D01*
X341700000Y138906250D02*
X341700000Y139906250D01*
X341700000Y137906250D02*
X344100000Y137906250D01*
X341700000Y139906250D02*
X344100000Y139906250D01*
%TO.C,LD88*%
X305981250Y52181250D02*
X308381250Y52181250D01*
X308381250Y53181250D02*
X308381250Y52181250D01*
D10*
X307481250Y52231250D02*
X307481250Y54131250D01*
D11*
X305981250Y54181250D02*
X308381250Y54181250D01*
X305981250Y53181250D02*
X305981250Y54181250D01*
D10*
%TO.C,K58*%
X151162500Y73675000D02*
X150162500Y73675000D01*
X150162500Y72675000D02*
X150162500Y73675000D01*
X150162500Y59675000D02*
X151162500Y59675000D01*
X164162500Y73675000D02*
X164162500Y72675000D01*
X164162500Y73675000D02*
X163162500Y73675000D01*
X163162500Y59675000D02*
X164162500Y59675000D01*
X164162500Y60675000D02*
X164162500Y59675000D01*
X150162500Y59675000D02*
X150162500Y60675000D01*
D11*
%TO.C,LD35*%
X146437500Y90281250D02*
X148837500Y90281250D01*
X146437500Y91281250D02*
X146437500Y92281250D01*
X148837500Y91281250D02*
X148837500Y90281250D01*
X146437500Y92281250D02*
X148837500Y92281250D01*
D10*
X147937500Y90331250D02*
X147937500Y92231250D01*
%TO.C,K68*%
X367950000Y59675000D02*
X368950000Y59675000D01*
X354950000Y59675000D02*
X354950000Y60675000D01*
X368950000Y60675000D02*
X368950000Y59675000D01*
X368950000Y73675000D02*
X367950000Y73675000D01*
X368950000Y73675000D02*
X368950000Y72675000D01*
X354950000Y59675000D02*
X355950000Y59675000D01*
X355950000Y73675000D02*
X354950000Y73675000D01*
X354950000Y72675000D02*
X354950000Y73675000D01*
%TO.C,K45*%
X354950000Y78725000D02*
X354950000Y79725000D01*
X368950000Y79725000D02*
X368950000Y78725000D01*
X354950000Y91725000D02*
X354950000Y92725000D01*
X355950000Y92725000D02*
X354950000Y92725000D01*
X368950000Y92725000D02*
X368950000Y91725000D01*
X368950000Y92725000D02*
X367950000Y92725000D01*
X354950000Y78725000D02*
X355950000Y78725000D01*
X367950000Y78725000D02*
X368950000Y78725000D01*
%TO.C,LD124*%
X405112500Y14131250D02*
X405112500Y16031250D01*
D11*
X406012500Y15081250D02*
X406012500Y14081250D01*
X403612500Y15081250D02*
X403612500Y16081250D01*
X403612500Y16081250D02*
X406012500Y16081250D01*
X403612500Y14081250D02*
X406012500Y14081250D01*
%TO.C,LD120*%
X315506250Y16081250D02*
X317906250Y16081250D01*
X317906250Y15081250D02*
X317906250Y14081250D01*
D10*
X317006250Y14131250D02*
X317006250Y16031250D01*
D11*
X315506250Y14081250D02*
X317906250Y14081250D01*
X315506250Y15081250D02*
X315506250Y16081250D01*
%TO.C,LD101*%
X191700000Y34131250D02*
X191700000Y33131250D01*
X191700000Y35131250D02*
X189300000Y35131250D01*
X191700000Y33131250D02*
X189300000Y33131250D01*
D10*
X190200000Y35081250D02*
X190200000Y33181250D01*
D11*
X189300000Y34131250D02*
X189300000Y35131250D01*
D10*
%TO.C,K69*%
X388000000Y73675000D02*
X388000000Y72675000D01*
X388000000Y73675000D02*
X387000000Y73675000D01*
X374000000Y59675000D02*
X375000000Y59675000D01*
X388000000Y60675000D02*
X388000000Y59675000D01*
X374000000Y72675000D02*
X374000000Y73675000D01*
X387000000Y59675000D02*
X388000000Y59675000D01*
X374000000Y59675000D02*
X374000000Y60675000D01*
X375000000Y73675000D02*
X374000000Y73675000D01*
%TO.C,K67*%
X335900000Y59675000D02*
X336900000Y59675000D01*
X336900000Y73675000D02*
X335900000Y73675000D01*
X335900000Y72675000D02*
X335900000Y73675000D01*
X348900000Y59675000D02*
X349900000Y59675000D01*
X349900000Y73675000D02*
X349900000Y72675000D01*
X349900000Y60675000D02*
X349900000Y59675000D01*
X335900000Y59675000D02*
X335900000Y60675000D01*
X349900000Y73675000D02*
X348900000Y73675000D01*
%TO.C,K72*%
X435912500Y59675000D02*
X435912500Y60675000D01*
X436912500Y73675000D02*
X435912500Y73675000D01*
X449912500Y60675000D02*
X449912500Y59675000D01*
X449912500Y73675000D02*
X449912500Y72675000D01*
X435912500Y72675000D02*
X435912500Y73675000D01*
X448912500Y59675000D02*
X449912500Y59675000D01*
X449912500Y73675000D02*
X448912500Y73675000D01*
X435912500Y59675000D02*
X436912500Y59675000D01*
D11*
%TO.C,LD42*%
X279787500Y91281250D02*
X279787500Y92281250D01*
X279787500Y92281250D02*
X282187500Y92281250D01*
D10*
X281287500Y90331250D02*
X281287500Y92231250D01*
D11*
X279787500Y90281250D02*
X282187500Y90281250D01*
X282187500Y91281250D02*
X282187500Y90281250D01*
%TO.C,LD102*%
X210750000Y35131250D02*
X208350000Y35131250D01*
X208350000Y34131250D02*
X208350000Y35131250D01*
X210750000Y34131250D02*
X210750000Y33131250D01*
X210750000Y33131250D02*
X208350000Y33131250D01*
D10*
X209250000Y35081250D02*
X209250000Y33181250D01*
%TO.C,K1*%
X2525000Y139350000D02*
X2525000Y140350000D01*
X2525000Y126350000D02*
X2525000Y127350000D01*
X2525000Y126350000D02*
X3525000Y126350000D01*
X16525000Y140350000D02*
X16525000Y139350000D01*
X16525000Y127350000D02*
X16525000Y126350000D01*
X3525000Y140350000D02*
X2525000Y140350000D01*
X15525000Y126350000D02*
X16525000Y126350000D01*
X16525000Y140350000D02*
X15525000Y140350000D01*
%TO.C,K11*%
X354950000Y139350000D02*
X354950000Y140350000D01*
X354950000Y126350000D02*
X354950000Y127350000D01*
X368950000Y140350000D02*
X368950000Y139350000D01*
X355950000Y140350000D02*
X354950000Y140350000D01*
X368950000Y127350000D02*
X368950000Y126350000D01*
X354950000Y126350000D02*
X355950000Y126350000D01*
X367950000Y126350000D02*
X368950000Y126350000D01*
X368950000Y140350000D02*
X367950000Y140350000D01*
D11*
%TO.C,LD58*%
X158362500Y73231250D02*
X155962500Y73231250D01*
X158362500Y71231250D02*
X155962500Y71231250D01*
X155962500Y72231250D02*
X155962500Y73231250D01*
D10*
X156862500Y73181250D02*
X156862500Y71281250D01*
D11*
X158362500Y72231250D02*
X158362500Y71231250D01*
%TO.C,LD50*%
X463162500Y91281250D02*
X463162500Y90281250D01*
X460762500Y91281250D02*
X460762500Y92281250D01*
X460762500Y92281250D02*
X463162500Y92281250D01*
X460762500Y90281250D02*
X463162500Y90281250D01*
D10*
X462262500Y90331250D02*
X462262500Y92231250D01*
%TO.C,K10*%
X336900000Y140350000D02*
X335900000Y140350000D01*
X335900000Y126350000D02*
X336900000Y126350000D01*
X349900000Y127350000D02*
X349900000Y126350000D01*
X335900000Y139350000D02*
X335900000Y140350000D01*
X348900000Y126350000D02*
X349900000Y126350000D01*
X349900000Y140350000D02*
X349900000Y139350000D01*
X335900000Y126350000D02*
X335900000Y127350000D01*
X349900000Y140350000D02*
X348900000Y140350000D01*
%TO.C,K74*%
X16525000Y54625000D02*
X15525000Y54625000D01*
X16525000Y41625000D02*
X16525000Y40625000D01*
X2525000Y40625000D02*
X2525000Y41625000D01*
X2525000Y40625000D02*
X3525000Y40625000D01*
X15525000Y40625000D02*
X16525000Y40625000D01*
X16525000Y54625000D02*
X16525000Y53625000D01*
X2525000Y53625000D02*
X2525000Y54625000D01*
X3525000Y54625000D02*
X2525000Y54625000D01*
%TO.C,K23*%
X293037500Y107300000D02*
X293037500Y108300000D01*
X307037500Y121300000D02*
X307037500Y120300000D01*
X306037500Y107300000D02*
X307037500Y107300000D01*
X307037500Y121300000D02*
X306037500Y121300000D01*
X307037500Y108300000D02*
X307037500Y107300000D01*
X294037500Y121300000D02*
X293037500Y121300000D01*
X293037500Y107300000D02*
X294037500Y107300000D01*
X293037500Y120300000D02*
X293037500Y121300000D01*
%TO.C,K120*%
X323706250Y3525000D02*
X323706250Y2525000D01*
X309706250Y2525000D02*
X310706250Y2525000D01*
X310706250Y16525000D02*
X309706250Y16525000D01*
X323706250Y16525000D02*
X322706250Y16525000D01*
X309706250Y2525000D02*
X309706250Y3525000D01*
X322706250Y2525000D02*
X323706250Y2525000D01*
X323706250Y16525000D02*
X323706250Y15525000D01*
X309706250Y15525000D02*
X309706250Y16525000D01*
D11*
%TO.C,LD83*%
X198825000Y54181250D02*
X201225000Y54181250D01*
D10*
X200325000Y52231250D02*
X200325000Y54131250D01*
D11*
X198825000Y52181250D02*
X201225000Y52181250D01*
X198825000Y53181250D02*
X198825000Y54181250D01*
X201225000Y53181250D02*
X201225000Y52181250D01*
%TO.C,LD71*%
X425062500Y72231250D02*
X425062500Y71231250D01*
X425062500Y73231250D02*
X422662500Y73231250D01*
X425062500Y71231250D02*
X422662500Y71231250D01*
D10*
X423562500Y73181250D02*
X423562500Y71281250D01*
D11*
X422662500Y72231250D02*
X422662500Y73231250D01*
%TO.C,LD24*%
X320287500Y118856250D02*
X317887500Y118856250D01*
X317887500Y119856250D02*
X317887500Y120856250D01*
D10*
X318787500Y120806250D02*
X318787500Y118906250D01*
D11*
X320287500Y120856250D02*
X317887500Y120856250D01*
X320287500Y119856250D02*
X320287500Y118856250D01*
%TO.C,LD86*%
X258375000Y53181250D02*
X258375000Y52181250D01*
D10*
X257475000Y52231250D02*
X257475000Y54131250D01*
D11*
X255975000Y54181250D02*
X258375000Y54181250D01*
X255975000Y53181250D02*
X255975000Y54181250D01*
X255975000Y52181250D02*
X258375000Y52181250D01*
D10*
%TO.C,K28*%
X3525000Y92725000D02*
X2525000Y92725000D01*
X2525000Y91725000D02*
X2525000Y92725000D01*
X15525000Y78725000D02*
X16525000Y78725000D01*
X2525000Y78725000D02*
X2525000Y79725000D01*
X16525000Y79725000D02*
X16525000Y78725000D01*
X2525000Y78725000D02*
X3525000Y78725000D01*
X16525000Y92725000D02*
X16525000Y91725000D01*
X16525000Y92725000D02*
X15525000Y92725000D01*
%TO.C,K96*%
X101250000Y21575000D02*
X102250000Y21575000D01*
X88250000Y21575000D02*
X89250000Y21575000D01*
X102250000Y35575000D02*
X102250000Y34575000D01*
X88250000Y21575000D02*
X88250000Y22575000D01*
X102250000Y22575000D02*
X102250000Y21575000D01*
X102250000Y35575000D02*
X101250000Y35575000D01*
X88250000Y34575000D02*
X88250000Y35575000D01*
X89250000Y35575000D02*
X88250000Y35575000D01*
D11*
%TO.C,LD53*%
X58350000Y71231250D02*
X55950000Y71231250D01*
D10*
X56850000Y73181250D02*
X56850000Y71281250D01*
D11*
X58350000Y72231250D02*
X58350000Y71231250D01*
X55950000Y72231250D02*
X55950000Y73231250D01*
X58350000Y73231250D02*
X55950000Y73231250D01*
D10*
%TO.C,K118*%
X262081250Y2525000D02*
X262081250Y3525000D01*
X275081250Y2525000D02*
X276081250Y2525000D01*
X262081250Y15525000D02*
X262081250Y16525000D01*
X276081250Y16525000D02*
X276081250Y15525000D01*
X262081250Y2525000D02*
X263081250Y2525000D01*
X263081250Y16525000D02*
X262081250Y16525000D01*
X276081250Y16525000D02*
X275081250Y16525000D01*
X276081250Y3525000D02*
X276081250Y2525000D01*
%TO.C,K87*%
X283225000Y41625000D02*
X283225000Y40625000D01*
X282225000Y40625000D02*
X283225000Y40625000D01*
X270225000Y54625000D02*
X269225000Y54625000D01*
X283225000Y54625000D02*
X283225000Y53625000D01*
X269225000Y40625000D02*
X269225000Y41625000D01*
X283225000Y54625000D02*
X282225000Y54625000D01*
X269225000Y53625000D02*
X269225000Y54625000D01*
X269225000Y40625000D02*
X270225000Y40625000D01*
D11*
%TO.C,LD113*%
X53568750Y14081250D02*
X55968750Y14081250D01*
D10*
X55068750Y14131250D02*
X55068750Y16031250D01*
D11*
X53568750Y16081250D02*
X55968750Y16081250D01*
X55968750Y15081250D02*
X55968750Y14081250D01*
X53568750Y15081250D02*
X53568750Y16081250D01*
%TO.C,LD4*%
X127387500Y138906250D02*
X127387500Y139906250D01*
X129787500Y138906250D02*
X129787500Y137906250D01*
X127387500Y139906250D02*
X129787500Y139906250D01*
D10*
X128887500Y137956250D02*
X128887500Y139856250D01*
D11*
X127387500Y137906250D02*
X129787500Y137906250D01*
%TO.C,LD73*%
X463162500Y71231250D02*
X460762500Y71231250D01*
X463162500Y73231250D02*
X460762500Y73231250D01*
X460762500Y72231250D02*
X460762500Y73231250D01*
D10*
X461662500Y73181250D02*
X461662500Y71281250D01*
D11*
X463162500Y72231250D02*
X463162500Y71231250D01*
%TO.C,LD116*%
X172631250Y14081250D02*
X175031250Y14081250D01*
X172631250Y16081250D02*
X175031250Y16081250D01*
D10*
X174131250Y14131250D02*
X174131250Y16031250D01*
D11*
X172631250Y15081250D02*
X172631250Y16081250D01*
X175031250Y15081250D02*
X175031250Y14081250D01*
D10*
%TO.C,K116*%
X180831250Y3525000D02*
X180831250Y2525000D01*
X180831250Y16525000D02*
X180831250Y15525000D01*
X166831250Y15525000D02*
X166831250Y16525000D01*
X180831250Y16525000D02*
X179831250Y16525000D01*
X166831250Y2525000D02*
X167831250Y2525000D01*
X179831250Y2525000D02*
X180831250Y2525000D01*
X167831250Y16525000D02*
X166831250Y16525000D01*
X166831250Y2525000D02*
X166831250Y3525000D01*
%TO.C,K114*%
X71581250Y15525000D02*
X71581250Y16525000D01*
X85581250Y3525000D02*
X85581250Y2525000D01*
X84581250Y2525000D02*
X85581250Y2525000D01*
X71581250Y2525000D02*
X71581250Y3525000D01*
X85581250Y16525000D02*
X85581250Y15525000D01*
X72581250Y16525000D02*
X71581250Y16525000D01*
X85581250Y16525000D02*
X84581250Y16525000D01*
X71581250Y2525000D02*
X72581250Y2525000D01*
%TO.C,K6*%
X183212500Y140350000D02*
X183212500Y139350000D01*
X182212500Y126350000D02*
X183212500Y126350000D01*
X183212500Y127350000D02*
X183212500Y126350000D01*
X170212500Y140350000D02*
X169212500Y140350000D01*
X183212500Y140350000D02*
X182212500Y140350000D01*
X169212500Y139350000D02*
X169212500Y140350000D01*
X169212500Y126350000D02*
X170212500Y126350000D01*
X169212500Y126350000D02*
X169212500Y127350000D01*
%TO.C,K91*%
X435912500Y40625000D02*
X436912500Y40625000D01*
X449912500Y54625000D02*
X449912500Y53625000D01*
X435912500Y40625000D02*
X435912500Y41625000D01*
X436912500Y54625000D02*
X435912500Y54625000D01*
X435912500Y53625000D02*
X435912500Y54625000D01*
X449912500Y41625000D02*
X449912500Y40625000D01*
X448912500Y40625000D02*
X449912500Y40625000D01*
X449912500Y54625000D02*
X448912500Y54625000D01*
%TO.C,K56*%
X112062500Y59675000D02*
X112062500Y60675000D01*
X112062500Y72675000D02*
X112062500Y73675000D01*
X126062500Y73675000D02*
X126062500Y72675000D01*
X112062500Y59675000D02*
X113062500Y59675000D01*
X125062500Y59675000D02*
X126062500Y59675000D01*
X113062500Y73675000D02*
X112062500Y73675000D01*
X126062500Y73675000D02*
X125062500Y73675000D01*
X126062500Y60675000D02*
X126062500Y59675000D01*
%TO.C,K15*%
X121587500Y107300000D02*
X122587500Y107300000D01*
X135587500Y121300000D02*
X135587500Y120300000D01*
X134587500Y107300000D02*
X135587500Y107300000D01*
X121587500Y107300000D02*
X121587500Y108300000D01*
X135587500Y108300000D02*
X135587500Y107300000D01*
X122587500Y121300000D02*
X121587500Y121300000D01*
X135587500Y121300000D02*
X134587500Y121300000D01*
X121587500Y120300000D02*
X121587500Y121300000D01*
D11*
%TO.C,LD67*%
X344100000Y73231250D02*
X341700000Y73231250D01*
X344100000Y72231250D02*
X344100000Y71231250D01*
D10*
X342600000Y73181250D02*
X342600000Y71281250D01*
D11*
X341700000Y72231250D02*
X341700000Y73231250D01*
X344100000Y71231250D02*
X341700000Y71231250D01*
D10*
%TO.C,K62*%
X227362500Y73675000D02*
X226362500Y73675000D01*
X240362500Y73675000D02*
X240362500Y72675000D01*
X226362500Y72675000D02*
X226362500Y73675000D01*
X239362500Y59675000D02*
X240362500Y59675000D01*
X240362500Y60675000D02*
X240362500Y59675000D01*
X226362500Y59675000D02*
X227362500Y59675000D01*
X240362500Y73675000D02*
X239362500Y73675000D01*
X226362500Y59675000D02*
X226362500Y60675000D01*
%TO.C,K22*%
X286987500Y107300000D02*
X287987500Y107300000D01*
X274987500Y121300000D02*
X273987500Y121300000D01*
X273987500Y107300000D02*
X274987500Y107300000D01*
X273987500Y120300000D02*
X273987500Y121300000D01*
X287987500Y121300000D02*
X287987500Y120300000D01*
X273987500Y107300000D02*
X273987500Y108300000D01*
X287987500Y108300000D02*
X287987500Y107300000D01*
X287987500Y121300000D02*
X286987500Y121300000D01*
%TO.C,K107*%
X354950000Y21575000D02*
X354950000Y22575000D01*
X355950000Y35575000D02*
X354950000Y35575000D01*
X354950000Y34575000D02*
X354950000Y35575000D01*
X368950000Y35575000D02*
X367950000Y35575000D01*
X367950000Y21575000D02*
X368950000Y21575000D01*
X368950000Y35575000D02*
X368950000Y34575000D01*
X354950000Y21575000D02*
X355950000Y21575000D01*
X368950000Y22575000D02*
X368950000Y21575000D01*
D11*
%TO.C,LD26*%
X363150000Y120856250D02*
X360750000Y120856250D01*
X360750000Y119856250D02*
X360750000Y120856250D01*
D10*
X361650000Y120806250D02*
X361650000Y118906250D01*
D11*
X363150000Y119856250D02*
X363150000Y118856250D01*
X363150000Y118856250D02*
X360750000Y118856250D01*
D10*
%TO.C,K98*%
X140350000Y35575000D02*
X140350000Y34575000D01*
X126350000Y21575000D02*
X127350000Y21575000D01*
X127350000Y35575000D02*
X126350000Y35575000D01*
X139350000Y21575000D02*
X140350000Y21575000D01*
X140350000Y35575000D02*
X139350000Y35575000D01*
X126350000Y34575000D02*
X126350000Y35575000D01*
X126350000Y21575000D02*
X126350000Y22575000D01*
X140350000Y22575000D02*
X140350000Y21575000D01*
%TO.C,K66*%
X320325000Y59675000D02*
X321325000Y59675000D01*
X321325000Y73675000D02*
X320325000Y73675000D01*
X307325000Y59675000D02*
X308325000Y59675000D01*
X321325000Y60675000D02*
X321325000Y59675000D01*
X307325000Y59675000D02*
X307325000Y60675000D01*
X307325000Y72675000D02*
X307325000Y73675000D01*
X321325000Y73675000D02*
X321325000Y72675000D01*
X308325000Y73675000D02*
X307325000Y73675000D01*
%TO.C,K47*%
X397812500Y78725000D02*
X397812500Y79725000D01*
X411812500Y79725000D02*
X411812500Y78725000D01*
X397812500Y91725000D02*
X397812500Y92725000D01*
X411812500Y92725000D02*
X411812500Y91725000D01*
X397812500Y78725000D02*
X398812500Y78725000D01*
X411812500Y92725000D02*
X410812500Y92725000D01*
X398812500Y92725000D02*
X397812500Y92725000D01*
X410812500Y78725000D02*
X411812500Y78725000D01*
%TO.C,K102*%
X202550000Y21575000D02*
X202550000Y22575000D01*
X215550000Y21575000D02*
X216550000Y21575000D01*
X203550000Y35575000D02*
X202550000Y35575000D01*
X216550000Y22575000D02*
X216550000Y21575000D01*
X216550000Y35575000D02*
X215550000Y35575000D01*
X216550000Y35575000D02*
X216550000Y34575000D01*
X202550000Y21575000D02*
X203550000Y21575000D01*
X202550000Y34575000D02*
X202550000Y35575000D01*
D11*
%TO.C,LD52*%
X29775000Y71231250D02*
X27375000Y71231250D01*
D10*
X28275000Y73181250D02*
X28275000Y71281250D01*
D11*
X27375000Y72231250D02*
X27375000Y73231250D01*
X29775000Y72231250D02*
X29775000Y71231250D01*
X29775000Y73231250D02*
X27375000Y73231250D01*
%TO.C,LD99*%
X153600000Y34131250D02*
X153600000Y33131250D01*
X153600000Y33131250D02*
X151200000Y33131250D01*
D10*
X152100000Y35081250D02*
X152100000Y33181250D01*
D11*
X151200000Y34131250D02*
X151200000Y35131250D01*
X153600000Y35131250D02*
X151200000Y35131250D01*
%TO.C,LD98*%
X134550000Y33131250D02*
X132150000Y33131250D01*
X134550000Y34131250D02*
X134550000Y33131250D01*
D10*
X133050000Y35081250D02*
X133050000Y33181250D01*
D11*
X134550000Y35131250D02*
X132150000Y35131250D01*
X132150000Y34131250D02*
X132150000Y35131250D01*
%TO.C,LD96*%
X96450000Y35131250D02*
X94050000Y35131250D01*
D10*
X94950000Y35081250D02*
X94950000Y33181250D01*
D11*
X94050000Y34131250D02*
X94050000Y35131250D01*
X96450000Y33131250D02*
X94050000Y33131250D01*
X96450000Y34131250D02*
X96450000Y33131250D01*
D10*
%TO.C,K12*%
X387000000Y126350000D02*
X388000000Y126350000D01*
X374000000Y126350000D02*
X375000000Y126350000D01*
X388000000Y140350000D02*
X388000000Y139350000D01*
X388000000Y127350000D02*
X388000000Y126350000D01*
X375000000Y140350000D02*
X374000000Y140350000D01*
X374000000Y139350000D02*
X374000000Y140350000D01*
X374000000Y126350000D02*
X374000000Y127350000D01*
X388000000Y140350000D02*
X387000000Y140350000D01*
D11*
%TO.C,LD69*%
X382200000Y73231250D02*
X379800000Y73231250D01*
X382200000Y72231250D02*
X382200000Y71231250D01*
X379800000Y72231250D02*
X379800000Y73231250D01*
X382200000Y71231250D02*
X379800000Y71231250D01*
D10*
X380700000Y73181250D02*
X380700000Y71281250D01*
%TO.C,LD6*%
X176512500Y137956250D02*
X176512500Y139856250D01*
D11*
X175012500Y138906250D02*
X175012500Y139906250D01*
X175012500Y137906250D02*
X177412500Y137906250D01*
X175012500Y139906250D02*
X177412500Y139906250D01*
X177412500Y138906250D02*
X177412500Y137906250D01*
D10*
%TO.C,LD70*%
X404512500Y73181250D02*
X404512500Y71281250D01*
D11*
X406012500Y72231250D02*
X406012500Y71231250D01*
X403612500Y72231250D02*
X403612500Y73231250D01*
X406012500Y71231250D02*
X403612500Y71231250D01*
X406012500Y73231250D02*
X403612500Y73231250D01*
D10*
%TO.C,K99*%
X146400000Y35575000D02*
X145400000Y35575000D01*
X159400000Y35575000D02*
X159400000Y34575000D01*
X145400000Y21575000D02*
X145400000Y22575000D01*
X158400000Y21575000D02*
X159400000Y21575000D01*
X159400000Y22575000D02*
X159400000Y21575000D01*
X159400000Y35575000D02*
X158400000Y35575000D01*
X145400000Y34575000D02*
X145400000Y35575000D01*
X145400000Y21575000D02*
X146400000Y21575000D01*
%TO.C,K117*%
X251268750Y2525000D02*
X252268750Y2525000D01*
X252268750Y16525000D02*
X252268750Y15525000D01*
X238268750Y2525000D02*
X239268750Y2525000D01*
X252268750Y3525000D02*
X252268750Y2525000D01*
X238268750Y15525000D02*
X238268750Y16525000D01*
X238268750Y2525000D02*
X238268750Y3525000D01*
X252268750Y16525000D02*
X251268750Y16525000D01*
X239268750Y16525000D02*
X238268750Y16525000D01*
%TO.C,K60*%
X188262500Y72675000D02*
X188262500Y73675000D01*
X202262500Y73675000D02*
X202262500Y72675000D01*
X189262500Y73675000D02*
X188262500Y73675000D01*
X202262500Y60675000D02*
X202262500Y59675000D01*
X202262500Y73675000D02*
X201262500Y73675000D01*
X188262500Y59675000D02*
X189262500Y59675000D01*
X201262500Y59675000D02*
X202262500Y59675000D01*
X188262500Y59675000D02*
X188262500Y60675000D01*
D11*
%TO.C,LD103*%
X229800000Y34131250D02*
X229800000Y33131250D01*
X229800000Y35131250D02*
X227400000Y35131250D01*
X227400000Y34131250D02*
X227400000Y35131250D01*
X229800000Y33131250D02*
X227400000Y33131250D01*
D10*
X228300000Y35081250D02*
X228300000Y33181250D01*
D11*
%TO.C,LD106*%
X303618750Y34131250D02*
X303618750Y33131250D01*
D10*
X302118750Y35081250D02*
X302118750Y33181250D01*
D11*
X301218750Y34131250D02*
X301218750Y35131250D01*
X303618750Y33131250D02*
X301218750Y33131250D01*
X303618750Y35131250D02*
X301218750Y35131250D01*
D10*
%TO.C,K33*%
X103537500Y92725000D02*
X102537500Y92725000D01*
X102537500Y78725000D02*
X103537500Y78725000D01*
X115537500Y78725000D02*
X116537500Y78725000D01*
X102537500Y91725000D02*
X102537500Y92725000D01*
X116537500Y92725000D02*
X116537500Y91725000D01*
X116537500Y79725000D02*
X116537500Y78725000D01*
X116537500Y92725000D02*
X115537500Y92725000D01*
X102537500Y78725000D02*
X102537500Y79725000D01*
%TO.C,K36*%
X159687500Y91725000D02*
X159687500Y92725000D01*
X159687500Y78725000D02*
X159687500Y79725000D01*
X173687500Y92725000D02*
X172687500Y92725000D01*
X173687500Y79725000D02*
X173687500Y78725000D01*
X172687500Y78725000D02*
X173687500Y78725000D01*
X159687500Y78725000D02*
X160687500Y78725000D01*
X160687500Y92725000D02*
X159687500Y92725000D01*
X173687500Y92725000D02*
X173687500Y91725000D01*
%TO.C,LD31*%
X71737500Y90331250D02*
X71737500Y92231250D01*
D11*
X70237500Y91281250D02*
X70237500Y92281250D01*
X70237500Y92281250D02*
X72637500Y92281250D01*
X70237500Y90281250D02*
X72637500Y90281250D01*
X72637500Y91281250D02*
X72637500Y90281250D01*
D10*
%TO.C,K97*%
X121300000Y35575000D02*
X121300000Y34575000D01*
X108300000Y35575000D02*
X107300000Y35575000D01*
X107300000Y34575000D02*
X107300000Y35575000D01*
X120300000Y21575000D02*
X121300000Y21575000D01*
X107300000Y21575000D02*
X107300000Y22575000D01*
X121300000Y35575000D02*
X120300000Y35575000D01*
X107300000Y21575000D02*
X108300000Y21575000D01*
X121300000Y22575000D02*
X121300000Y21575000D01*
%TO.C,K34*%
X135587500Y92725000D02*
X134587500Y92725000D01*
X121587500Y78725000D02*
X121587500Y79725000D01*
X135587500Y79725000D02*
X135587500Y78725000D01*
X121587500Y78725000D02*
X122587500Y78725000D01*
X135587500Y92725000D02*
X135587500Y91725000D01*
X122587500Y92725000D02*
X121587500Y92725000D01*
X121587500Y91725000D02*
X121587500Y92725000D01*
X134587500Y78725000D02*
X135587500Y78725000D01*
%TO.C,K53*%
X64150000Y73675000D02*
X63150000Y73675000D01*
X50150000Y59675000D02*
X51150000Y59675000D01*
X64150000Y73675000D02*
X64150000Y72675000D01*
X63150000Y59675000D02*
X64150000Y59675000D01*
X50150000Y72675000D02*
X50150000Y73675000D01*
X64150000Y60675000D02*
X64150000Y59675000D01*
X51150000Y73675000D02*
X50150000Y73675000D01*
X50150000Y59675000D02*
X50150000Y60675000D01*
%TO.C,K124*%
X411812500Y3525000D02*
X411812500Y2525000D01*
X397812500Y2525000D02*
X398812500Y2525000D01*
X411812500Y16525000D02*
X410812500Y16525000D01*
X397812500Y2525000D02*
X397812500Y3525000D01*
X398812500Y16525000D02*
X397812500Y16525000D01*
X411812500Y16525000D02*
X411812500Y15525000D01*
X397812500Y15525000D02*
X397812500Y16525000D01*
X410812500Y2525000D02*
X411812500Y2525000D01*
D11*
%TO.C,LD55*%
X101212500Y72231250D02*
X101212500Y71231250D01*
X101212500Y71231250D02*
X98812500Y71231250D01*
D10*
X99712500Y73181250D02*
X99712500Y71281250D01*
D11*
X98812500Y72231250D02*
X98812500Y73231250D01*
X101212500Y73231250D02*
X98812500Y73231250D01*
%TO.C,LD49*%
X444112500Y91281250D02*
X444112500Y90281250D01*
X441712500Y90281250D02*
X444112500Y90281250D01*
X441712500Y91281250D02*
X441712500Y92281250D01*
X441712500Y92281250D02*
X444112500Y92281250D01*
D10*
X443212500Y90331250D02*
X443212500Y92231250D01*
D11*
%TO.C,LD84*%
X217875000Y52181250D02*
X220275000Y52181250D01*
X220275000Y53181250D02*
X220275000Y52181250D01*
X217875000Y54181250D02*
X220275000Y54181250D01*
D10*
X219375000Y52231250D02*
X219375000Y54131250D01*
D11*
X217875000Y53181250D02*
X217875000Y54181250D01*
%TO.C,LD28*%
X8325000Y92281250D02*
X10725000Y92281250D01*
X10725000Y91281250D02*
X10725000Y90281250D01*
D10*
X9825000Y90331250D02*
X9825000Y92231250D01*
D11*
X8325000Y91281250D02*
X8325000Y92281250D01*
X8325000Y90281250D02*
X10725000Y90281250D01*
D10*
%TO.C,K19*%
X207312500Y120300000D02*
X207312500Y121300000D01*
X208312500Y121300000D02*
X207312500Y121300000D01*
X221312500Y108300000D02*
X221312500Y107300000D01*
X221312500Y121300000D02*
X220312500Y121300000D01*
X207312500Y107300000D02*
X208312500Y107300000D01*
X220312500Y107300000D02*
X221312500Y107300000D01*
X207312500Y107300000D02*
X207312500Y108300000D01*
X221312500Y121300000D02*
X221312500Y120300000D01*
%TO.C,K119*%
X285893750Y2525000D02*
X286893750Y2525000D01*
X286893750Y16525000D02*
X285893750Y16525000D01*
X285893750Y2525000D02*
X285893750Y3525000D01*
X299893750Y16525000D02*
X299893750Y15525000D01*
X298893750Y2525000D02*
X299893750Y2525000D01*
X299893750Y16525000D02*
X298893750Y16525000D01*
X299893750Y3525000D02*
X299893750Y2525000D01*
X285893750Y15525000D02*
X285893750Y16525000D01*
%TO.C,K86*%
X264175000Y41625000D02*
X264175000Y40625000D01*
X263175000Y40625000D02*
X264175000Y40625000D01*
X251175000Y54625000D02*
X250175000Y54625000D01*
X250175000Y40625000D02*
X251175000Y40625000D01*
X264175000Y54625000D02*
X264175000Y53625000D01*
X264175000Y54625000D02*
X263175000Y54625000D01*
X250175000Y53625000D02*
X250175000Y54625000D01*
X250175000Y40625000D02*
X250175000Y41625000D01*
D11*
%TO.C,LD114*%
X77381250Y14081250D02*
X79781250Y14081250D01*
X79781250Y15081250D02*
X79781250Y14081250D01*
X77381250Y15081250D02*
X77381250Y16081250D01*
X77381250Y16081250D02*
X79781250Y16081250D01*
D10*
X78881250Y14131250D02*
X78881250Y16031250D01*
%TO.C,K18*%
X202262500Y121300000D02*
X202262500Y120300000D01*
X201262500Y107300000D02*
X202262500Y107300000D01*
X202262500Y121300000D02*
X201262500Y121300000D01*
X188262500Y107300000D02*
X188262500Y108300000D01*
X188262500Y120300000D02*
X188262500Y121300000D01*
X189262500Y121300000D02*
X188262500Y121300000D01*
X202262500Y108300000D02*
X202262500Y107300000D01*
X188262500Y107300000D02*
X189262500Y107300000D01*
D11*
%TO.C,LD7*%
X194062500Y137906250D02*
X196462500Y137906250D01*
X194062500Y139906250D02*
X196462500Y139906250D01*
X194062500Y138906250D02*
X194062500Y139906250D01*
X196462500Y138906250D02*
X196462500Y137906250D01*
D10*
X195562500Y137956250D02*
X195562500Y139856250D01*
D11*
%TO.C,LD78*%
X103575000Y52181250D02*
X105975000Y52181250D01*
X103575000Y53181250D02*
X103575000Y54181250D01*
X105975000Y53181250D02*
X105975000Y52181250D01*
X103575000Y54181250D02*
X105975000Y54181250D01*
D10*
X105075000Y52231250D02*
X105075000Y54131250D01*
D11*
%TO.C,LD119*%
X294093750Y15081250D02*
X294093750Y14081250D01*
D10*
X293193750Y14131250D02*
X293193750Y16031250D01*
D11*
X291693750Y16081250D02*
X294093750Y16081250D01*
X291693750Y15081250D02*
X291693750Y16081250D01*
X291693750Y14081250D02*
X294093750Y14081250D01*
D10*
%TO.C,LD74*%
X9825000Y52231250D02*
X9825000Y54131250D01*
D11*
X8325000Y54181250D02*
X10725000Y54181250D01*
X8325000Y53181250D02*
X8325000Y54181250D01*
X8325000Y52181250D02*
X10725000Y52181250D01*
X10725000Y53181250D02*
X10725000Y52181250D01*
%TO.C,LD90*%
X425062500Y53181250D02*
X425062500Y52181250D01*
X422662500Y53181250D02*
X422662500Y54181250D01*
D10*
X424162500Y52231250D02*
X424162500Y54131250D01*
D11*
X422662500Y54181250D02*
X425062500Y54181250D01*
X422662500Y52181250D02*
X425062500Y52181250D01*
%TO.C,LD12*%
X382200000Y138906250D02*
X382200000Y137906250D01*
D10*
X381300000Y137956250D02*
X381300000Y139856250D01*
D11*
X379800000Y138906250D02*
X379800000Y139906250D01*
X379800000Y139906250D02*
X382200000Y139906250D01*
X379800000Y137906250D02*
X382200000Y137906250D01*
D10*
%TO.C,LD107*%
X361650000Y35081250D02*
X361650000Y33181250D01*
D11*
X363150000Y35131250D02*
X360750000Y35131250D01*
X363150000Y34131250D02*
X363150000Y33131250D01*
X363150000Y33131250D02*
X360750000Y33131250D01*
X360750000Y34131250D02*
X360750000Y35131250D01*
%TO.C,LD56*%
X117862500Y72231250D02*
X117862500Y73231250D01*
X120262500Y71231250D02*
X117862500Y71231250D01*
X120262500Y72231250D02*
X120262500Y71231250D01*
X120262500Y73231250D02*
X117862500Y73231250D01*
D10*
X118762500Y73181250D02*
X118762500Y71281250D01*
D11*
%TO.C,LD40*%
X244087500Y91281250D02*
X244087500Y90281250D01*
X241687500Y91281250D02*
X241687500Y92281250D01*
D10*
X243187500Y90331250D02*
X243187500Y92231250D01*
D11*
X241687500Y92281250D02*
X244087500Y92281250D01*
X241687500Y90281250D02*
X244087500Y90281250D01*
%TO.C,LD18*%
X196462500Y119856250D02*
X196462500Y118856250D01*
X196462500Y118856250D02*
X194062500Y118856250D01*
X196462500Y120856250D02*
X194062500Y120856250D01*
D10*
X194962500Y120806250D02*
X194962500Y118906250D01*
D11*
X194062500Y119856250D02*
X194062500Y120856250D01*
D10*
%TO.C,K108*%
X398812500Y35575000D02*
X397812500Y35575000D01*
X397812500Y21575000D02*
X397812500Y22575000D01*
X397812500Y34575000D02*
X397812500Y35575000D01*
X411812500Y35575000D02*
X411812500Y34575000D01*
X411812500Y35575000D02*
X410812500Y35575000D01*
X411812500Y22575000D02*
X411812500Y21575000D01*
X410812500Y21575000D02*
X411812500Y21575000D01*
X397812500Y21575000D02*
X398812500Y21575000D01*
%TO.C,K115*%
X109393750Y3525000D02*
X109393750Y2525000D01*
X95393750Y2525000D02*
X95393750Y3525000D01*
X109393750Y16525000D02*
X108393750Y16525000D01*
X109393750Y16525000D02*
X109393750Y15525000D01*
X108393750Y2525000D02*
X109393750Y2525000D01*
X96393750Y16525000D02*
X95393750Y16525000D01*
X95393750Y2525000D02*
X96393750Y2525000D01*
X95393750Y15525000D02*
X95393750Y16525000D01*
%TO.C,LD33*%
X109837500Y90331250D02*
X109837500Y92231250D01*
D11*
X108337500Y91281250D02*
X108337500Y92281250D01*
X110737500Y91281250D02*
X110737500Y90281250D01*
X108337500Y90281250D02*
X110737500Y90281250D01*
X108337500Y92281250D02*
X110737500Y92281250D01*
D10*
%TO.C,K5*%
X140637500Y126350000D02*
X140637500Y127350000D01*
X141637500Y140350000D02*
X140637500Y140350000D01*
X154637500Y140350000D02*
X154637500Y139350000D01*
X140637500Y126350000D02*
X141637500Y126350000D01*
X153637500Y126350000D02*
X154637500Y126350000D01*
X140637500Y139350000D02*
X140637500Y140350000D01*
X154637500Y140350000D02*
X153637500Y140350000D01*
X154637500Y127350000D02*
X154637500Y126350000D01*
%TO.C,K127*%
X454962500Y26050000D02*
X455962500Y26050000D01*
X454962500Y13050000D02*
X454962500Y12050000D01*
X454962500Y26050000D02*
X454962500Y25050000D01*
X467962500Y26050000D02*
X468962500Y26050000D01*
X468962500Y12050000D02*
X468962500Y13050000D01*
X468962500Y25050000D02*
X468962500Y26050000D01*
X455962500Y12050000D02*
X454962500Y12050000D01*
X468962500Y12050000D02*
X467962500Y12050000D01*
%TO.C,K63*%
X259412500Y60675000D02*
X259412500Y59675000D01*
X245412500Y59675000D02*
X246412500Y59675000D01*
X245412500Y59675000D02*
X245412500Y60675000D01*
X258412500Y59675000D02*
X259412500Y59675000D01*
X245412500Y72675000D02*
X245412500Y73675000D01*
X259412500Y73675000D02*
X259412500Y72675000D01*
X246412500Y73675000D02*
X245412500Y73675000D01*
X259412500Y73675000D02*
X258412500Y73675000D01*
%TO.C,K41*%
X254937500Y78725000D02*
X255937500Y78725000D01*
X268937500Y92725000D02*
X267937500Y92725000D01*
X254937500Y78725000D02*
X254937500Y79725000D01*
X267937500Y78725000D02*
X268937500Y78725000D01*
X268937500Y92725000D02*
X268937500Y91725000D01*
X254937500Y91725000D02*
X254937500Y92725000D01*
X268937500Y79725000D02*
X268937500Y78725000D01*
X255937500Y92725000D02*
X254937500Y92725000D01*
%TO.C,K31*%
X77437500Y78725000D02*
X78437500Y78725000D01*
X64437500Y78725000D02*
X65437500Y78725000D01*
X78437500Y79725000D02*
X78437500Y78725000D01*
X64437500Y78725000D02*
X64437500Y79725000D01*
X64437500Y91725000D02*
X64437500Y92725000D01*
X65437500Y92725000D02*
X64437500Y92725000D01*
X78437500Y92725000D02*
X78437500Y91725000D01*
X78437500Y92725000D02*
X77437500Y92725000D01*
D11*
%TO.C,LD87*%
X275025000Y52181250D02*
X277425000Y52181250D01*
X275025000Y54181250D02*
X277425000Y54181250D01*
X275025000Y53181250D02*
X275025000Y54181250D01*
D10*
X276525000Y52231250D02*
X276525000Y54131250D01*
D11*
X277425000Y53181250D02*
X277425000Y52181250D01*
%TO.C,LD123*%
X382200000Y15081250D02*
X382200000Y14081250D01*
X379800000Y14081250D02*
X382200000Y14081250D01*
X379800000Y16081250D02*
X382200000Y16081250D01*
X379800000Y15081250D02*
X379800000Y16081250D01*
D10*
X381300000Y14131250D02*
X381300000Y16031250D01*
%TO.C,LD81*%
X162225000Y52231250D02*
X162225000Y54131250D01*
D11*
X163125000Y53181250D02*
X163125000Y52181250D01*
X160725000Y54181250D02*
X163125000Y54181250D01*
X160725000Y52181250D02*
X163125000Y52181250D01*
X160725000Y53181250D02*
X160725000Y54181250D01*
%TO.C,LD19*%
X215512500Y118856250D02*
X213112500Y118856250D01*
X215512500Y120856250D02*
X213112500Y120856250D01*
D10*
X214012500Y120806250D02*
X214012500Y118906250D01*
D11*
X213112500Y119856250D02*
X213112500Y120856250D01*
X215512500Y119856250D02*
X215512500Y118856250D01*
D10*
%TO.C,K75*%
X35575000Y54625000D02*
X34575000Y54625000D01*
X21575000Y40625000D02*
X21575000Y41625000D01*
X35575000Y41625000D02*
X35575000Y40625000D01*
X34575000Y40625000D02*
X35575000Y40625000D01*
X21575000Y53625000D02*
X21575000Y54625000D01*
X35575000Y54625000D02*
X35575000Y53625000D01*
X21575000Y40625000D02*
X22575000Y40625000D01*
X22575000Y54625000D02*
X21575000Y54625000D01*
D11*
%TO.C,LD20*%
X232162500Y119856250D02*
X232162500Y120856250D01*
X234562500Y119856250D02*
X234562500Y118856250D01*
X234562500Y118856250D02*
X232162500Y118856250D01*
X234562500Y120856250D02*
X232162500Y120856250D01*
D10*
X233062500Y120806250D02*
X233062500Y118906250D01*
%TO.C,K4*%
X135587500Y140350000D02*
X134587500Y140350000D01*
X134587500Y126350000D02*
X135587500Y126350000D01*
X135587500Y140350000D02*
X135587500Y139350000D01*
X121587500Y139350000D02*
X121587500Y140350000D01*
X121587500Y126350000D02*
X121587500Y127350000D01*
X121587500Y126350000D02*
X122587500Y126350000D01*
X122587500Y140350000D02*
X121587500Y140350000D01*
X135587500Y127350000D02*
X135587500Y126350000D01*
D11*
%TO.C,LD76*%
X58331250Y54181250D02*
X60731250Y54181250D01*
X58331250Y53181250D02*
X58331250Y54181250D01*
D10*
X59831250Y52231250D02*
X59831250Y54131250D01*
D11*
X58331250Y52181250D02*
X60731250Y52181250D01*
X60731250Y53181250D02*
X60731250Y52181250D01*
%TO.C,LD59*%
X175012500Y72231250D02*
X175012500Y73231250D01*
X177412500Y72231250D02*
X177412500Y71231250D01*
D10*
X175912500Y73181250D02*
X175912500Y71281250D01*
D11*
X177412500Y73231250D02*
X175012500Y73231250D01*
X177412500Y71231250D02*
X175012500Y71231250D01*
%TO.C,LD8*%
X213112500Y139906250D02*
X215512500Y139906250D01*
X213112500Y138906250D02*
X213112500Y139906250D01*
X215512500Y138906250D02*
X215512500Y137906250D01*
D10*
X214612500Y137956250D02*
X214612500Y139856250D01*
D11*
X213112500Y137906250D02*
X215512500Y137906250D01*
D10*
%TO.C,K43*%
X316562500Y92725000D02*
X316562500Y91725000D01*
X316562500Y79725000D02*
X316562500Y78725000D01*
X302562500Y91725000D02*
X302562500Y92725000D01*
X315562500Y78725000D02*
X316562500Y78725000D01*
X316562500Y92725000D02*
X315562500Y92725000D01*
X302562500Y78725000D02*
X303562500Y78725000D01*
X303562500Y92725000D02*
X302562500Y92725000D01*
X302562500Y78725000D02*
X302562500Y79725000D01*
D11*
%TO.C,LD104*%
X248850000Y35131250D02*
X246450000Y35131250D01*
X246450000Y34131250D02*
X246450000Y35131250D01*
X248850000Y33131250D02*
X246450000Y33131250D01*
X248850000Y34131250D02*
X248850000Y33131250D01*
D10*
X247350000Y35081250D02*
X247350000Y33181250D01*
%TO.C,K106*%
X308418750Y21575000D02*
X309418750Y21575000D01*
X295418750Y21575000D02*
X296418750Y21575000D01*
X296418750Y35575000D02*
X295418750Y35575000D01*
X309418750Y22575000D02*
X309418750Y21575000D01*
X309418750Y35575000D02*
X308418750Y35575000D01*
X295418750Y21575000D02*
X295418750Y22575000D01*
X309418750Y35575000D02*
X309418750Y34575000D01*
X295418750Y34575000D02*
X295418750Y35575000D01*
D11*
%TO.C,LD105*%
X267900000Y34131250D02*
X267900000Y33131250D01*
X267900000Y35131250D02*
X265500000Y35131250D01*
D10*
X266400000Y35081250D02*
X266400000Y33181250D01*
D11*
X267900000Y33131250D02*
X265500000Y33131250D01*
X265500000Y34131250D02*
X265500000Y35131250D01*
D10*
%TO.C,K21*%
X268937500Y108300000D02*
X268937500Y107300000D01*
X267937500Y107300000D02*
X268937500Y107300000D01*
X254937500Y107300000D02*
X254937500Y108300000D01*
X268937500Y121300000D02*
X268937500Y120300000D01*
X268937500Y121300000D02*
X267937500Y121300000D01*
X255937500Y121300000D02*
X254937500Y121300000D01*
X254937500Y107300000D02*
X255937500Y107300000D01*
X254937500Y120300000D02*
X254937500Y121300000D01*
%TO.C,K55*%
X106012500Y59675000D02*
X107012500Y59675000D01*
X94012500Y73675000D02*
X93012500Y73675000D01*
X93012500Y72675000D02*
X93012500Y73675000D01*
X107012500Y60675000D02*
X107012500Y59675000D01*
X93012500Y59675000D02*
X93012500Y60675000D01*
X107012500Y73675000D02*
X107012500Y72675000D01*
X107012500Y73675000D02*
X106012500Y73675000D01*
X93012500Y59675000D02*
X94012500Y59675000D01*
%TO.C,K9*%
X227362500Y140350000D02*
X226362500Y140350000D01*
X240362500Y127350000D02*
X240362500Y126350000D01*
X226362500Y126350000D02*
X227362500Y126350000D01*
X226362500Y126350000D02*
X226362500Y127350000D01*
X240362500Y140350000D02*
X240362500Y139350000D01*
X240362500Y140350000D02*
X239362500Y140350000D01*
X226362500Y139350000D02*
X226362500Y140350000D01*
X239362500Y126350000D02*
X240362500Y126350000D01*
%TO.C,K40*%
X235887500Y91725000D02*
X235887500Y92725000D01*
X249887500Y92725000D02*
X248887500Y92725000D01*
X235887500Y78725000D02*
X236887500Y78725000D01*
X248887500Y78725000D02*
X249887500Y78725000D01*
X249887500Y79725000D02*
X249887500Y78725000D01*
X235887500Y78725000D02*
X235887500Y79725000D01*
X249887500Y92725000D02*
X249887500Y91725000D01*
X236887500Y92725000D02*
X235887500Y92725000D01*
%TO.C,K121*%
X349900000Y16525000D02*
X349900000Y15525000D01*
X335900000Y15525000D02*
X335900000Y16525000D01*
X335900000Y2525000D02*
X335900000Y3525000D01*
X349900000Y3525000D02*
X349900000Y2525000D01*
X335900000Y2525000D02*
X336900000Y2525000D01*
X348900000Y2525000D02*
X349900000Y2525000D01*
X349900000Y16525000D02*
X348900000Y16525000D01*
X336900000Y16525000D02*
X335900000Y16525000D01*
%TO.C,K16*%
X153637500Y107300000D02*
X154637500Y107300000D01*
X140637500Y107300000D02*
X141637500Y107300000D01*
X154637500Y121300000D02*
X154637500Y120300000D01*
X140637500Y107300000D02*
X140637500Y108300000D01*
X141637500Y121300000D02*
X140637500Y121300000D01*
X154637500Y121300000D02*
X153637500Y121300000D01*
X154637500Y108300000D02*
X154637500Y107300000D01*
X140637500Y120300000D02*
X140637500Y121300000D01*
D11*
%TO.C,LD110*%
X444112500Y33131250D02*
X441712500Y33131250D01*
X444112500Y35131250D02*
X441712500Y35131250D01*
X444112500Y34131250D02*
X444112500Y33131250D01*
X441712500Y34131250D02*
X441712500Y35131250D01*
D10*
X442612500Y35081250D02*
X442612500Y33181250D01*
%TO.C,K85*%
X231125000Y40625000D02*
X232125000Y40625000D01*
X245125000Y54625000D02*
X244125000Y54625000D01*
X231125000Y40625000D02*
X231125000Y41625000D01*
X244125000Y40625000D02*
X245125000Y40625000D01*
X245125000Y41625000D02*
X245125000Y40625000D01*
X231125000Y53625000D02*
X231125000Y54625000D01*
X232125000Y54625000D02*
X231125000Y54625000D01*
X245125000Y54625000D02*
X245125000Y53625000D01*
D11*
%TO.C,LD27*%
X379800000Y119856250D02*
X379800000Y120856250D01*
X382200000Y118856250D02*
X379800000Y118856250D01*
D10*
X380700000Y120806250D02*
X380700000Y118906250D01*
D11*
X382200000Y119856250D02*
X382200000Y118856250D01*
X382200000Y120856250D02*
X379800000Y120856250D01*
%TO.C,LD126*%
X441712500Y16081250D02*
X444112500Y16081250D01*
X444112500Y15081250D02*
X444112500Y14081250D01*
X441712500Y14081250D02*
X444112500Y14081250D01*
X441712500Y15081250D02*
X441712500Y16081250D01*
D10*
X443212500Y14131250D02*
X443212500Y16031250D01*
%TO.C,LD118*%
X269381250Y14131250D02*
X269381250Y16031250D01*
D11*
X267881250Y16081250D02*
X270281250Y16081250D01*
X267881250Y15081250D02*
X267881250Y16081250D01*
X270281250Y15081250D02*
X270281250Y14081250D01*
X267881250Y14081250D02*
X270281250Y14081250D01*
D10*
%TO.C,K14*%
X102537500Y107300000D02*
X103537500Y107300000D01*
X115537500Y107300000D02*
X116537500Y107300000D01*
X116537500Y121300000D02*
X115537500Y121300000D01*
X102537500Y120300000D02*
X102537500Y121300000D01*
X116537500Y121300000D02*
X116537500Y120300000D01*
X102537500Y107300000D02*
X102537500Y108300000D01*
X103537500Y121300000D02*
X102537500Y121300000D01*
X116537500Y108300000D02*
X116537500Y107300000D01*
%TO.C,K7*%
X202262500Y127350000D02*
X202262500Y126350000D01*
X202262500Y140350000D02*
X201262500Y140350000D01*
X188262500Y139350000D02*
X188262500Y140350000D01*
X188262500Y126350000D02*
X189262500Y126350000D01*
X188262500Y126350000D02*
X188262500Y127350000D01*
X201262500Y126350000D02*
X202262500Y126350000D01*
X189262500Y140350000D02*
X188262500Y140350000D01*
X202262500Y140350000D02*
X202262500Y139350000D01*
D11*
%TO.C,LD108*%
X403612500Y34131250D02*
X403612500Y35131250D01*
X406012500Y33131250D02*
X403612500Y33131250D01*
D10*
X404512500Y35081250D02*
X404512500Y33181250D01*
D11*
X406012500Y34131250D02*
X406012500Y33131250D01*
X406012500Y35131250D02*
X403612500Y35131250D01*
D10*
%TO.C,K71*%
X416862500Y59675000D02*
X417862500Y59675000D01*
X430862500Y73675000D02*
X430862500Y72675000D01*
X429862500Y59675000D02*
X430862500Y59675000D01*
X416862500Y72675000D02*
X416862500Y73675000D01*
X430862500Y60675000D02*
X430862500Y59675000D01*
X417862500Y73675000D02*
X416862500Y73675000D01*
X416862500Y59675000D02*
X416862500Y60675000D01*
X430862500Y73675000D02*
X429862500Y73675000D01*
%TO.C,K103*%
X221600000Y34575000D02*
X221600000Y35575000D01*
X235600000Y35575000D02*
X235600000Y34575000D01*
X222600000Y35575000D02*
X221600000Y35575000D01*
X221600000Y21575000D02*
X222600000Y21575000D01*
X235600000Y22575000D02*
X235600000Y21575000D01*
X234600000Y21575000D02*
X235600000Y21575000D01*
X221600000Y21575000D02*
X221600000Y22575000D01*
X235600000Y35575000D02*
X234600000Y35575000D01*
%TD*%
%LPC*%
D13*
%TO.C,LC84*%
X219560000Y55562500D03*
X218590000Y55562500D03*
%TD*%
%TO.C,LC32*%
X90972500Y93662500D03*
X90002500Y93662500D03*
%TD*%
D14*
%TO.C,LD125*%
X424612500Y14531250D03*
X424612500Y15631250D03*
X423112500Y15631250D03*
X423112500Y14531250D03*
%TD*%
%TO.C,LD15*%
X127837500Y120406250D03*
X127837500Y119306250D03*
X129337500Y119306250D03*
X129337500Y120406250D03*
%TD*%
%TO.C,LD95*%
X63543750Y34681250D03*
X63543750Y33581250D03*
X65043750Y33581250D03*
X65043750Y34681250D03*
%TD*%
%TO.C,LD5*%
X148387500Y138356250D03*
X148387500Y139456250D03*
X146887500Y139456250D03*
X146887500Y138356250D03*
%TD*%
D15*
%TO.C,H8*%
X452437500Y28575000D03*
%TD*%
D16*
%TO.C,KT4*%
X324579500Y133350000D03*
D17*
X324579500Y130810000D03*
%TD*%
D13*
%TO.C,LC86*%
X257660000Y55562500D03*
X256690000Y55562500D03*
%TD*%
D18*
%TO.C,K70*%
X409892500Y66675000D03*
D19*
X404812500Y66675000D03*
D18*
X399732500Y66675000D03*
D20*
X402272500Y61595000D03*
X408622500Y64135000D03*
%TD*%
D13*
%TO.C,LC112*%
X29060000Y17462500D03*
X28090000Y17462500D03*
%TD*%
D18*
%TO.C,K42*%
X275907500Y85725000D03*
X286067500Y85725000D03*
D19*
X280987500Y85725000D03*
D20*
X278447500Y80645000D03*
X284797500Y83185000D03*
%TD*%
D14*
%TO.C,LD66*%
X313575000Y72781250D03*
X313575000Y71681250D03*
X315075000Y71681250D03*
X315075000Y72781250D03*
%TD*%
D18*
%TO.C,K44*%
X347980000Y85725000D03*
X337820000Y85725000D03*
D19*
X342900000Y85725000D03*
D20*
X340360000Y80645000D03*
X346710000Y83185000D03*
%TD*%
D14*
%TO.C,LD17*%
X175462500Y120406250D03*
X175462500Y119306250D03*
X176962500Y119306250D03*
X176962500Y120406250D03*
%TD*%
D18*
%TO.C,K8*%
X219392500Y133350000D03*
D19*
X214312500Y133350000D03*
D18*
X209232500Y133350000D03*
D20*
X211772500Y128270000D03*
X218122500Y130810000D03*
%TD*%
D21*
%TO.C,LC21*%
X261452500Y122237500D03*
X262422500Y122237500D03*
%TD*%
D13*
%TO.C,LC29*%
X29060000Y93662500D03*
X28090000Y93662500D03*
%TD*%
D14*
%TO.C,LD100*%
X170700000Y34681250D03*
X170700000Y33581250D03*
X172200000Y33581250D03*
X172200000Y34681250D03*
%TD*%
D18*
%TO.C,K125*%
X428942500Y9525000D03*
D19*
X423862500Y9525000D03*
D18*
X418782500Y9525000D03*
D20*
X421322500Y4445000D03*
X427672500Y6985000D03*
%TD*%
D21*
%TO.C,LC104*%
X247165000Y36512500D03*
X248135000Y36512500D03*
%TD*%
D14*
%TO.C,LD39*%
X224587500Y90731250D03*
X224587500Y91831250D03*
X223087500Y91831250D03*
X223087500Y90731250D03*
%TD*%
D13*
%TO.C,LC41*%
X262422500Y93662500D03*
X261452500Y93662500D03*
%TD*%
D14*
%TO.C,LD47*%
X405562500Y90731250D03*
X405562500Y91831250D03*
X404062500Y91831250D03*
X404062500Y90731250D03*
%TD*%
D19*
%TO.C,K110*%
X442912500Y28575000D03*
D18*
X447992500Y28575000D03*
X437832500Y28575000D03*
D20*
X440372500Y23495000D03*
X446722500Y26035000D03*
%TD*%
D18*
%TO.C,K84*%
X224155000Y47625000D03*
D19*
X219075000Y47625000D03*
D18*
X213995000Y47625000D03*
D20*
X216535000Y42545000D03*
X222885000Y45085000D03*
%TD*%
D21*
%TO.C,LC55*%
X99527500Y74612500D03*
X100497500Y74612500D03*
%TD*%
D14*
%TO.C,LD48*%
X424612500Y90731250D03*
X424612500Y91831250D03*
X423112500Y91831250D03*
X423112500Y90731250D03*
%TD*%
%TO.C,LD3*%
X110287500Y138356250D03*
X110287500Y139456250D03*
X108787500Y139456250D03*
X108787500Y138356250D03*
%TD*%
D18*
%TO.C,K79*%
X118745000Y47625000D03*
X128905000Y47625000D03*
D19*
X123825000Y47625000D03*
D20*
X121285000Y42545000D03*
X127635000Y45085000D03*
%TD*%
D14*
%TO.C,LD117*%
X246018750Y14531250D03*
X246018750Y15631250D03*
X244518750Y15631250D03*
X244518750Y14531250D03*
%TD*%
D21*
%TO.C,LC59*%
X175727500Y74612500D03*
X176697500Y74612500D03*
%TD*%
D13*
%TO.C,LC81*%
X162410000Y55562500D03*
X161440000Y55562500D03*
%TD*%
D14*
%TO.C,LD54*%
X80212500Y72781250D03*
X80212500Y71681250D03*
X81712500Y71681250D03*
X81712500Y72781250D03*
%TD*%
D18*
%TO.C,K38*%
X209867500Y85725000D03*
D19*
X204787500Y85725000D03*
D18*
X199707500Y85725000D03*
D20*
X202247500Y80645000D03*
X208597500Y83185000D03*
%TD*%
D18*
%TO.C,K37*%
X180657500Y85725000D03*
D19*
X185737500Y85725000D03*
D18*
X190817500Y85725000D03*
D20*
X183197500Y80645000D03*
X189547500Y83185000D03*
%TD*%
D13*
%TO.C,LC113*%
X55253750Y17462500D03*
X54283750Y17462500D03*
%TD*%
D21*
%TO.C,LC69*%
X380515000Y74612500D03*
X381485000Y74612500D03*
%TD*%
D14*
%TO.C,LD51*%
X8775000Y72781250D03*
X8775000Y71681250D03*
X10275000Y71681250D03*
X10275000Y72781250D03*
%TD*%
D13*
%TO.C,LC7*%
X195747500Y141287500D03*
X194777500Y141287500D03*
%TD*%
D14*
%TO.C,LD68*%
X361200000Y72781250D03*
X361200000Y71681250D03*
X362700000Y71681250D03*
X362700000Y72781250D03*
%TD*%
D19*
%TO.C,K29*%
X28575000Y85725000D03*
D18*
X23495000Y85725000D03*
X33655000Y85725000D03*
D20*
X26035000Y80645000D03*
X32385000Y83185000D03*
%TD*%
D18*
%TO.C,K49*%
X447992500Y85725000D03*
X437832500Y85725000D03*
D19*
X442912500Y85725000D03*
D20*
X440372500Y80645000D03*
X446722500Y83185000D03*
%TD*%
D18*
%TO.C,K82*%
X186055000Y47625000D03*
D19*
X180975000Y47625000D03*
D18*
X175895000Y47625000D03*
D20*
X178435000Y42545000D03*
X184785000Y45085000D03*
%TD*%
D14*
%TO.C,LD44*%
X343650000Y90731250D03*
X343650000Y91831250D03*
X342150000Y91831250D03*
X342150000Y90731250D03*
%TD*%
%TO.C,LD41*%
X262687500Y90731250D03*
X262687500Y91831250D03*
X261187500Y91831250D03*
X261187500Y90731250D03*
%TD*%
D19*
%TO.C,K3*%
X109537500Y133350000D03*
D18*
X104457500Y133350000D03*
X114617500Y133350000D03*
D20*
X106997500Y128270000D03*
X113347500Y130810000D03*
%TD*%
D13*
%TO.C,LC47*%
X405297500Y93662500D03*
X404327500Y93662500D03*
%TD*%
D14*
%TO.C,LD25*%
X342150000Y120406250D03*
X342150000Y119306250D03*
X343650000Y119306250D03*
X343650000Y120406250D03*
%TD*%
D21*
%TO.C,LC73*%
X461477500Y74612500D03*
X462447500Y74612500D03*
%TD*%
D18*
%TO.C,K39*%
X228917500Y85725000D03*
D19*
X223837500Y85725000D03*
D18*
X218757500Y85725000D03*
D20*
X221297500Y80645000D03*
X227647500Y83185000D03*
%TD*%
D14*
%TO.C,LD91*%
X443662500Y52631250D03*
X443662500Y53731250D03*
X442162500Y53731250D03*
X442162500Y52631250D03*
%TD*%
%TO.C,LD122*%
X362700000Y14531250D03*
X362700000Y15631250D03*
X361200000Y15631250D03*
X361200000Y14531250D03*
%TD*%
%TO.C,LD89*%
X405562500Y52631250D03*
X405562500Y53731250D03*
X404062500Y53731250D03*
X404062500Y52631250D03*
%TD*%
%TO.C,LD79*%
X124575000Y52631250D03*
X124575000Y53731250D03*
X123075000Y53731250D03*
X123075000Y52631250D03*
%TD*%
D13*
%TO.C,LC42*%
X281472500Y93662500D03*
X280502500Y93662500D03*
%TD*%
D14*
%TO.C,LD34*%
X129337500Y90731250D03*
X129337500Y91831250D03*
X127837500Y91831250D03*
X127837500Y90731250D03*
%TD*%
D13*
%TO.C,LC48*%
X424347500Y93662500D03*
X423377500Y93662500D03*
%TD*%
%TO.C,LC6*%
X176697500Y141287500D03*
X175727500Y141287500D03*
%TD*%
D14*
%TO.C,LD111*%
X10275000Y14531250D03*
X10275000Y15631250D03*
X8775000Y15631250D03*
X8775000Y14531250D03*
%TD*%
D13*
%TO.C,LC4*%
X129072500Y141287500D03*
X128102500Y141287500D03*
%TD*%
D21*
%TO.C,LC66*%
X313840000Y74612500D03*
X314810000Y74612500D03*
%TD*%
D18*
%TO.C,K123*%
X375920000Y9525000D03*
X386080000Y9525000D03*
D19*
X381000000Y9525000D03*
D20*
X378460000Y4445000D03*
X384810000Y6985000D03*
%TD*%
D14*
%TO.C,LD97*%
X113550000Y34681250D03*
X113550000Y33581250D03*
X115050000Y33581250D03*
X115050000Y34681250D03*
%TD*%
D13*
%TO.C,LC39*%
X224322500Y93662500D03*
X223352500Y93662500D03*
%TD*%
D14*
%TO.C,LD72*%
X442162500Y72781250D03*
X442162500Y71681250D03*
X443662500Y71681250D03*
X443662500Y72781250D03*
%TD*%
D19*
%TO.C,K24*%
X319087500Y114300000D03*
D18*
X314007500Y114300000D03*
X324167500Y114300000D03*
D20*
X316547500Y109220000D03*
X322897500Y111760000D03*
%TD*%
D21*
%TO.C,LC57*%
X137627500Y74612500D03*
X138597500Y74612500D03*
%TD*%
D14*
%TO.C,LD82*%
X181725000Y52631250D03*
X181725000Y53731250D03*
X180225000Y53731250D03*
X180225000Y52631250D03*
%TD*%
%TO.C,LD1*%
X10275000Y138356250D03*
X10275000Y139456250D03*
X8775000Y139456250D03*
X8775000Y138356250D03*
%TD*%
D19*
%TO.C,K17*%
X176212500Y114300000D03*
D18*
X171132500Y114300000D03*
X181292500Y114300000D03*
D20*
X173672500Y109220000D03*
X180022500Y111760000D03*
%TD*%
D18*
%TO.C,K73*%
X456882500Y66675000D03*
X467042500Y66675000D03*
D19*
X461962500Y66675000D03*
D20*
X459422500Y61595000D03*
X465772500Y64135000D03*
%TD*%
D19*
%TO.C,K35*%
X147637500Y85725000D03*
D18*
X152717500Y85725000D03*
X142557500Y85725000D03*
D20*
X145097500Y80645000D03*
X151447500Y83185000D03*
%TD*%
D22*
%TO.C,J2*%
X392080750Y137594500D03*
D23*
X392080750Y135054500D03*
X392080750Y132514500D03*
X392080750Y129974500D03*
%TD*%
D14*
%TO.C,LD46*%
X381750000Y90731250D03*
X381750000Y91831250D03*
X380250000Y91831250D03*
X380250000Y90731250D03*
%TD*%
D13*
%TO.C,LC75*%
X29060000Y55562500D03*
X28090000Y55562500D03*
%TD*%
D18*
%TO.C,K92*%
X467042500Y47625000D03*
D19*
X461962500Y47625000D03*
D18*
X456882500Y47625000D03*
D20*
X459422500Y42545000D03*
X465772500Y45085000D03*
%TD*%
D21*
%TO.C,LC18*%
X194777500Y122237500D03*
X195747500Y122237500D03*
%TD*%
D19*
%TO.C,K61*%
X214312500Y66675000D03*
D18*
X219392500Y66675000D03*
X209232500Y66675000D03*
D20*
X211772500Y61595000D03*
X218122500Y64135000D03*
%TD*%
D21*
%TO.C,LC53*%
X56665000Y74612500D03*
X57635000Y74612500D03*
%TD*%
D19*
%TO.C,K30*%
X52387500Y85725000D03*
D18*
X57467500Y85725000D03*
X47307500Y85725000D03*
D20*
X49847500Y80645000D03*
X56197500Y83185000D03*
%TD*%
D18*
%TO.C,K83*%
X205105000Y47625000D03*
D19*
X200025000Y47625000D03*
D18*
X194945000Y47625000D03*
D20*
X197485000Y42545000D03*
X203835000Y45085000D03*
%TD*%
D18*
%TO.C,K81*%
X156845000Y47625000D03*
D19*
X161925000Y47625000D03*
D18*
X167005000Y47625000D03*
D20*
X159385000Y42545000D03*
X165735000Y45085000D03*
%TD*%
D14*
%TO.C,LD38*%
X205537500Y90731250D03*
X205537500Y91831250D03*
X204037500Y91831250D03*
X204037500Y90731250D03*
%TD*%
D21*
%TO.C,LC14*%
X109052500Y122237500D03*
X110022500Y122237500D03*
%TD*%
%TO.C,LC99*%
X151915000Y36512500D03*
X152885000Y36512500D03*
%TD*%
D14*
%TO.C,LD93*%
X8775000Y34681250D03*
X8775000Y33581250D03*
X10275000Y33581250D03*
X10275000Y34681250D03*
%TD*%
D21*
%TO.C,LC71*%
X423377500Y74612500D03*
X424347500Y74612500D03*
%TD*%
D14*
%TO.C,LD92*%
X462712500Y52631250D03*
X462712500Y53731250D03*
X461212500Y53731250D03*
X461212500Y52631250D03*
%TD*%
D13*
%TO.C,LC118*%
X269566250Y17462500D03*
X268596250Y17462500D03*
%TD*%
D14*
%TO.C,LD94*%
X27825000Y34681250D03*
X27825000Y33581250D03*
X29325000Y33581250D03*
X29325000Y34681250D03*
%TD*%
D18*
%TO.C,K90*%
X418782500Y47625000D03*
D19*
X423862500Y47625000D03*
D18*
X428942500Y47625000D03*
D20*
X421322500Y42545000D03*
X427672500Y45085000D03*
%TD*%
D18*
%TO.C,K20*%
X228282500Y114300000D03*
D19*
X233362500Y114300000D03*
D18*
X238442500Y114300000D03*
D20*
X230822500Y109220000D03*
X237172500Y111760000D03*
%TD*%
D21*
%TO.C,LC62*%
X232877500Y74612500D03*
X233847500Y74612500D03*
%TD*%
D13*
%TO.C,LC12*%
X381485000Y141287500D03*
X380515000Y141287500D03*
%TD*%
D18*
%TO.C,K59*%
X171132500Y66675000D03*
X181292500Y66675000D03*
D19*
X176212500Y66675000D03*
D20*
X173672500Y61595000D03*
X180022500Y64135000D03*
%TD*%
D13*
%TO.C,LC89*%
X405297500Y55562500D03*
X404327500Y55562500D03*
%TD*%
%TO.C,LC45*%
X362435000Y93662500D03*
X361465000Y93662500D03*
%TD*%
D18*
%TO.C,K95*%
X59213750Y28575000D03*
D19*
X64293750Y28575000D03*
D18*
X69373750Y28575000D03*
D20*
X61753750Y23495000D03*
X68103750Y26035000D03*
%TD*%
D18*
%TO.C,K111*%
X4445000Y9525000D03*
D19*
X9525000Y9525000D03*
D18*
X14605000Y9525000D03*
D20*
X6985000Y4445000D03*
X13335000Y6985000D03*
%TD*%
D18*
%TO.C,K50*%
X456882500Y85725000D03*
X467042500Y85725000D03*
D19*
X461962500Y85725000D03*
D20*
X459422500Y80645000D03*
X465772500Y83185000D03*
%TD*%
D13*
%TO.C,LC31*%
X71922500Y93662500D03*
X70952500Y93662500D03*
%TD*%
D14*
%TO.C,LD21*%
X261187500Y120406250D03*
X261187500Y119306250D03*
X262687500Y119306250D03*
X262687500Y120406250D03*
%TD*%
D13*
%TO.C,LC38*%
X205272500Y93662500D03*
X204302500Y93662500D03*
%TD*%
D18*
%TO.C,K104*%
X252730000Y28575000D03*
X242570000Y28575000D03*
D19*
X247650000Y28575000D03*
D20*
X245110000Y23495000D03*
X251460000Y26035000D03*
%TD*%
D14*
%TO.C,LD65*%
X289762500Y72781250D03*
X289762500Y71681250D03*
X291262500Y71681250D03*
X291262500Y72781250D03*
%TD*%
D24*
%TO.C,LC127*%
X454025000Y19535000D03*
X454025000Y18565000D03*
%TD*%
D19*
%TO.C,K25*%
X342900000Y114300000D03*
D18*
X337820000Y114300000D03*
X347980000Y114300000D03*
D20*
X340360000Y109220000D03*
X346710000Y111760000D03*
%TD*%
D18*
%TO.C,K52*%
X33655000Y66675000D03*
D19*
X28575000Y66675000D03*
D18*
X23495000Y66675000D03*
D20*
X26035000Y61595000D03*
X32385000Y64135000D03*
%TD*%
D18*
%TO.C,K2*%
X85407500Y133350000D03*
X95567500Y133350000D03*
D19*
X90487500Y133350000D03*
D20*
X87947500Y128270000D03*
X94297500Y130810000D03*
%TD*%
D14*
%TO.C,LD62*%
X232612500Y72781250D03*
X232612500Y71681250D03*
X234112500Y71681250D03*
X234112500Y72781250D03*
%TD*%
%TO.C,LD23*%
X299287500Y120406250D03*
X299287500Y119306250D03*
X300787500Y119306250D03*
X300787500Y120406250D03*
%TD*%
%TO.C,LD60*%
X194512500Y72781250D03*
X194512500Y71681250D03*
X196012500Y71681250D03*
X196012500Y72781250D03*
%TD*%
D18*
%TO.C,K100*%
X166370000Y28575000D03*
D19*
X171450000Y28575000D03*
D18*
X176530000Y28575000D03*
D20*
X168910000Y23495000D03*
X175260000Y26035000D03*
%TD*%
D13*
%TO.C,LC35*%
X148122500Y93662500D03*
X147152500Y93662500D03*
%TD*%
%TO.C,LC82*%
X181460000Y55562500D03*
X180490000Y55562500D03*
%TD*%
D14*
%TO.C,LD37*%
X186487500Y90731250D03*
X186487500Y91831250D03*
X184987500Y91831250D03*
X184987500Y90731250D03*
%TD*%
%TO.C,LD57*%
X137362500Y72781250D03*
X137362500Y71681250D03*
X138862500Y71681250D03*
X138862500Y72781250D03*
%TD*%
D13*
%TO.C,LC43*%
X310047500Y93662500D03*
X309077500Y93662500D03*
%TD*%
D14*
%TO.C,LD22*%
X280237500Y120406250D03*
X280237500Y119306250D03*
X281737500Y119306250D03*
X281737500Y120406250D03*
%TD*%
D18*
%TO.C,K89*%
X409892500Y47625000D03*
X399732500Y47625000D03*
D19*
X404812500Y47625000D03*
D20*
X402272500Y42545000D03*
X408622500Y45085000D03*
%TD*%
D14*
%TO.C,LD9*%
X234112500Y138356250D03*
X234112500Y139456250D03*
X232612500Y139456250D03*
X232612500Y138356250D03*
%TD*%
D13*
%TO.C,LC119*%
X293378750Y17462500D03*
X292408750Y17462500D03*
%TD*%
%TO.C,LC3*%
X110022500Y141287500D03*
X109052500Y141287500D03*
%TD*%
D14*
%TO.C,LD77*%
X86475000Y52631250D03*
X86475000Y53731250D03*
X84975000Y53731250D03*
X84975000Y52631250D03*
%TD*%
D18*
%TO.C,K88*%
X312261250Y47625000D03*
X302101250Y47625000D03*
D19*
X307181250Y47625000D03*
D20*
X304641250Y42545000D03*
X310991250Y45085000D03*
%TD*%
D21*
%TO.C,LC102*%
X209065000Y36512500D03*
X210035000Y36512500D03*
%TD*%
D14*
%TO.C,LD2*%
X91237500Y138356250D03*
X91237500Y139456250D03*
X89737500Y139456250D03*
X89737500Y138356250D03*
%TD*%
D21*
%TO.C,LC97*%
X113815000Y36512500D03*
X114785000Y36512500D03*
%TD*%
%TO.C,LC110*%
X442427500Y36512500D03*
X443397500Y36512500D03*
%TD*%
D14*
%TO.C,LD112*%
X29325000Y14531250D03*
X29325000Y15631250D03*
X27825000Y15631250D03*
X27825000Y14531250D03*
%TD*%
D18*
%TO.C,K26*%
X356870000Y114300000D03*
D19*
X361950000Y114300000D03*
D18*
X367030000Y114300000D03*
D20*
X359410000Y109220000D03*
X365760000Y111760000D03*
%TD*%
D13*
%TO.C,LC8*%
X214797500Y141287500D03*
X213827500Y141287500D03*
%TD*%
D18*
%TO.C,K80*%
X137795000Y47625000D03*
D19*
X142875000Y47625000D03*
D18*
X147955000Y47625000D03*
D20*
X140335000Y42545000D03*
X146685000Y45085000D03*
%TD*%
D13*
%TO.C,LC50*%
X462447500Y93662500D03*
X461477500Y93662500D03*
%TD*%
%TO.C,LC91*%
X443397500Y55562500D03*
X442427500Y55562500D03*
%TD*%
D14*
%TO.C,LD109*%
X423112500Y34681250D03*
X423112500Y33581250D03*
X424612500Y33581250D03*
X424612500Y34681250D03*
%TD*%
%TO.C,LD16*%
X146887500Y120406250D03*
X146887500Y119306250D03*
X148387500Y119306250D03*
X148387500Y120406250D03*
%TD*%
D21*
%TO.C,LC105*%
X266215000Y36512500D03*
X267185000Y36512500D03*
%TD*%
D13*
%TO.C,LC46*%
X381485000Y93662500D03*
X380515000Y93662500D03*
%TD*%
D21*
%TO.C,LC20*%
X232877500Y122237500D03*
X233847500Y122237500D03*
%TD*%
D14*
%TO.C,LD29*%
X29325000Y90731250D03*
X29325000Y91831250D03*
X27825000Y91831250D03*
X27825000Y90731250D03*
%TD*%
D18*
%TO.C,K77*%
X80645000Y47625000D03*
D19*
X85725000Y47625000D03*
D18*
X90805000Y47625000D03*
D20*
X83185000Y42545000D03*
X89535000Y45085000D03*
%TD*%
D18*
%TO.C,K122*%
X356870000Y9525000D03*
X367030000Y9525000D03*
D19*
X361950000Y9525000D03*
D20*
X359410000Y4445000D03*
X365760000Y6985000D03*
%TD*%
D14*
%TO.C,LD64*%
X270712500Y72781250D03*
X270712500Y71681250D03*
X272212500Y71681250D03*
X272212500Y72781250D03*
%TD*%
D19*
%TO.C,K46*%
X381000000Y85725000D03*
D18*
X386080000Y85725000D03*
X375920000Y85725000D03*
D20*
X378460000Y80645000D03*
X384810000Y83185000D03*
%TD*%
D13*
%TO.C,LC77*%
X86210000Y55562500D03*
X85240000Y55562500D03*
%TD*%
D14*
%TO.C,LD43*%
X310312500Y90731250D03*
X310312500Y91831250D03*
X308812500Y91831250D03*
X308812500Y90731250D03*
%TD*%
%TO.C,LD14*%
X108787500Y120406250D03*
X108787500Y119306250D03*
X110287500Y119306250D03*
X110287500Y120406250D03*
%TD*%
D13*
%TO.C,LC28*%
X10010000Y93662500D03*
X9040000Y93662500D03*
%TD*%
D19*
%TO.C,K126*%
X442912500Y9525000D03*
D18*
X447992500Y9525000D03*
X437832500Y9525000D03*
D20*
X440372500Y4445000D03*
X446722500Y6985000D03*
%TD*%
D14*
%TO.C,LD85*%
X238875000Y52631250D03*
X238875000Y53731250D03*
X237375000Y53731250D03*
X237375000Y52631250D03*
%TD*%
%TO.C,LD63*%
X251662500Y72781250D03*
X251662500Y71681250D03*
X253162500Y71681250D03*
X253162500Y72781250D03*
%TD*%
D19*
%TO.C,K112*%
X28575000Y9525000D03*
D18*
X23495000Y9525000D03*
X33655000Y9525000D03*
D20*
X26035000Y4445000D03*
X32385000Y6985000D03*
%TD*%
D14*
%TO.C,LD121*%
X343650000Y14531250D03*
X343650000Y15631250D03*
X342150000Y15631250D03*
X342150000Y14531250D03*
%TD*%
D18*
%TO.C,K113*%
X59848750Y9525000D03*
X49688750Y9525000D03*
D19*
X54768750Y9525000D03*
D20*
X52228750Y4445000D03*
X58578750Y6985000D03*
%TD*%
D18*
%TO.C,K65*%
X295592500Y66675000D03*
X285432500Y66675000D03*
D19*
X290512500Y66675000D03*
D20*
X287972500Y61595000D03*
X294322500Y64135000D03*
%TD*%
D14*
%TO.C,LD127*%
X456956250Y19800000D03*
X455856250Y19800000D03*
X455856250Y18300000D03*
X456956250Y18300000D03*
%TD*%
D18*
%TO.C,K54*%
X75882500Y66675000D03*
D19*
X80962500Y66675000D03*
D18*
X86042500Y66675000D03*
D20*
X78422500Y61595000D03*
X84772500Y64135000D03*
%TD*%
D14*
%TO.C,LD36*%
X167437500Y90731250D03*
X167437500Y91831250D03*
X165937500Y91831250D03*
X165937500Y90731250D03*
%TD*%
D18*
%TO.C,K76*%
X64611250Y47625000D03*
X54451250Y47625000D03*
D19*
X59531250Y47625000D03*
D20*
X56991250Y42545000D03*
X63341250Y45085000D03*
%TD*%
D21*
%TO.C,LC100*%
X170965000Y36512500D03*
X171935000Y36512500D03*
%TD*%
D18*
%TO.C,K78*%
X109855000Y47625000D03*
X99695000Y47625000D03*
D19*
X104775000Y47625000D03*
D20*
X102235000Y42545000D03*
X108585000Y45085000D03*
%TD*%
D14*
%TO.C,LD30*%
X53137500Y90731250D03*
X53137500Y91831250D03*
X51637500Y91831250D03*
X51637500Y90731250D03*
%TD*%
D19*
%TO.C,K51*%
X9525000Y66675000D03*
D18*
X14605000Y66675000D03*
X4445000Y66675000D03*
D20*
X6985000Y61595000D03*
X13335000Y64135000D03*
%TD*%
D19*
%TO.C,K101*%
X190500000Y28575000D03*
D18*
X185420000Y28575000D03*
X195580000Y28575000D03*
D20*
X187960000Y23495000D03*
X194310000Y26035000D03*
%TD*%
D13*
%TO.C,LC116*%
X174316250Y17462500D03*
X173346250Y17462500D03*
%TD*%
%TO.C,LC49*%
X443397500Y93662500D03*
X442427500Y93662500D03*
%TD*%
D14*
%TO.C,LD11*%
X362700000Y138356250D03*
X362700000Y139456250D03*
X361200000Y139456250D03*
X361200000Y138356250D03*
%TD*%
%TO.C,LD75*%
X29325000Y52631250D03*
X29325000Y53731250D03*
X27825000Y53731250D03*
X27825000Y52631250D03*
%TD*%
D18*
%TO.C,K57*%
X143192500Y66675000D03*
X133032500Y66675000D03*
D19*
X138112500Y66675000D03*
D20*
X135572500Y61595000D03*
X141922500Y64135000D03*
%TD*%
D19*
%TO.C,K64*%
X271462500Y66675000D03*
D18*
X266382500Y66675000D03*
X276542500Y66675000D03*
D20*
X268922500Y61595000D03*
X275272500Y64135000D03*
%TD*%
D18*
%TO.C,K105*%
X271780000Y28575000D03*
X261620000Y28575000D03*
D19*
X266700000Y28575000D03*
D20*
X264160000Y23495000D03*
X270510000Y26035000D03*
%TD*%
D18*
%TO.C,K32*%
X85407500Y85725000D03*
D19*
X90487500Y85725000D03*
D18*
X95567500Y85725000D03*
D20*
X87947500Y80645000D03*
X94297500Y83185000D03*
%TD*%
D14*
%TO.C,LD45*%
X362700000Y90731250D03*
X362700000Y91831250D03*
X361200000Y91831250D03*
X361200000Y90731250D03*
%TD*%
%TO.C,LD80*%
X143625000Y52631250D03*
X143625000Y53731250D03*
X142125000Y53731250D03*
X142125000Y52631250D03*
%TD*%
D13*
%TO.C,LC44*%
X343385000Y93662500D03*
X342415000Y93662500D03*
%TD*%
D19*
%TO.C,K27*%
X381000000Y114300000D03*
D18*
X375920000Y114300000D03*
X386080000Y114300000D03*
D20*
X378460000Y109220000D03*
X384810000Y111760000D03*
%TD*%
D14*
%TO.C,LD13*%
X89737500Y120406250D03*
X89737500Y119306250D03*
X91237500Y119306250D03*
X91237500Y120406250D03*
%TD*%
D18*
%TO.C,K13*%
X85407500Y114300000D03*
D19*
X90487500Y114300000D03*
D18*
X95567500Y114300000D03*
D20*
X87947500Y109220000D03*
X94297500Y111760000D03*
%TD*%
D18*
%TO.C,K94*%
X33655000Y28575000D03*
D19*
X28575000Y28575000D03*
D18*
X23495000Y28575000D03*
D20*
X26035000Y23495000D03*
X32385000Y26035000D03*
%TD*%
D19*
%TO.C,K93*%
X9525000Y28575000D03*
D18*
X14605000Y28575000D03*
X4445000Y28575000D03*
D20*
X6985000Y23495000D03*
X13335000Y26035000D03*
%TD*%
D14*
%TO.C,LD61*%
X213562500Y72781250D03*
X213562500Y71681250D03*
X215062500Y71681250D03*
X215062500Y72781250D03*
%TD*%
%TO.C,LD32*%
X91237500Y90731250D03*
X91237500Y91831250D03*
X89737500Y91831250D03*
X89737500Y90731250D03*
%TD*%
%TO.C,LD115*%
X103143750Y14531250D03*
X103143750Y15631250D03*
X101643750Y15631250D03*
X101643750Y14531250D03*
%TD*%
D19*
%TO.C,K109*%
X423862500Y28575000D03*
D18*
X418782500Y28575000D03*
X428942500Y28575000D03*
D20*
X421322500Y23495000D03*
X427672500Y26035000D03*
%TD*%
D21*
%TO.C,LC63*%
X251927500Y74612500D03*
X252897500Y74612500D03*
%TD*%
D18*
%TO.C,K48*%
X428942500Y85725000D03*
D19*
X423862500Y85725000D03*
D18*
X418782500Y85725000D03*
D20*
X421322500Y80645000D03*
X427672500Y83185000D03*
%TD*%
D13*
%TO.C,LC87*%
X276710000Y55562500D03*
X275740000Y55562500D03*
%TD*%
D21*
%TO.C,LC106*%
X301933750Y36512500D03*
X302903750Y36512500D03*
%TD*%
D14*
%TO.C,LD10*%
X343650000Y138356250D03*
X343650000Y139456250D03*
X342150000Y139456250D03*
X342150000Y138356250D03*
%TD*%
D13*
%TO.C,LC90*%
X424347500Y55562500D03*
X423377500Y55562500D03*
%TD*%
D14*
%TO.C,LD88*%
X307931250Y52631250D03*
X307931250Y53731250D03*
X306431250Y53731250D03*
X306431250Y52631250D03*
%TD*%
D19*
%TO.C,K58*%
X157162500Y66675000D03*
D18*
X162242500Y66675000D03*
X152082500Y66675000D03*
D20*
X154622500Y61595000D03*
X160972500Y64135000D03*
%TD*%
D14*
%TO.C,LD35*%
X148387500Y90731250D03*
X148387500Y91831250D03*
X146887500Y91831250D03*
X146887500Y90731250D03*
%TD*%
D21*
%TO.C,LC58*%
X156677500Y74612500D03*
X157647500Y74612500D03*
%TD*%
D18*
%TO.C,K68*%
X367030000Y66675000D03*
D19*
X361950000Y66675000D03*
D18*
X356870000Y66675000D03*
D20*
X359410000Y61595000D03*
X365760000Y64135000D03*
%TD*%
D16*
%TO.C,KT2*%
X286479500Y133350000D03*
D17*
X286479500Y130810000D03*
%TD*%
D18*
%TO.C,K45*%
X356870000Y85725000D03*
X367030000Y85725000D03*
D19*
X361950000Y85725000D03*
D20*
X359410000Y80645000D03*
X365760000Y83185000D03*
%TD*%
D13*
%TO.C,LC88*%
X307666250Y55562500D03*
X306696250Y55562500D03*
%TD*%
D14*
%TO.C,LD124*%
X405562500Y14531250D03*
X405562500Y15631250D03*
X404062500Y15631250D03*
X404062500Y14531250D03*
%TD*%
%TO.C,LD120*%
X317456250Y14531250D03*
X317456250Y15631250D03*
X315956250Y15631250D03*
X315956250Y14531250D03*
%TD*%
D13*
%TO.C,LC37*%
X186222500Y93662500D03*
X185252500Y93662500D03*
%TD*%
D14*
%TO.C,LD101*%
X189750000Y34681250D03*
X189750000Y33581250D03*
X191250000Y33581250D03*
X191250000Y34681250D03*
%TD*%
D18*
%TO.C,K69*%
X386080000Y66675000D03*
X375920000Y66675000D03*
D19*
X381000000Y66675000D03*
D20*
X378460000Y61595000D03*
X384810000Y64135000D03*
%TD*%
D18*
%TO.C,K67*%
X347980000Y66675000D03*
D19*
X342900000Y66675000D03*
D18*
X337820000Y66675000D03*
D20*
X340360000Y61595000D03*
X346710000Y64135000D03*
%TD*%
D18*
%TO.C,K72*%
X447992500Y66675000D03*
D19*
X442912500Y66675000D03*
D18*
X437832500Y66675000D03*
D20*
X440372500Y61595000D03*
X446722500Y64135000D03*
%TD*%
D16*
%TO.C,KT1*%
X267429500Y133350000D03*
D17*
X267429500Y130810000D03*
%TD*%
D14*
%TO.C,LD42*%
X281737500Y90731250D03*
X281737500Y91831250D03*
X280237500Y91831250D03*
X280237500Y90731250D03*
%TD*%
%TO.C,LD102*%
X208800000Y34681250D03*
X208800000Y33581250D03*
X210300000Y33581250D03*
X210300000Y34681250D03*
%TD*%
D18*
%TO.C,K1*%
X14605000Y133350000D03*
X4445000Y133350000D03*
D19*
X9525000Y133350000D03*
D20*
X6985000Y128270000D03*
X13335000Y130810000D03*
%TD*%
D18*
%TO.C,K11*%
X356870000Y133350000D03*
X367030000Y133350000D03*
D19*
X361950000Y133350000D03*
D20*
X359410000Y128270000D03*
X365760000Y130810000D03*
%TD*%
D14*
%TO.C,LD58*%
X156412500Y72781250D03*
X156412500Y71681250D03*
X157912500Y71681250D03*
X157912500Y72781250D03*
%TD*%
D21*
%TO.C,LC60*%
X194777500Y74612500D03*
X195747500Y74612500D03*
%TD*%
D14*
%TO.C,LD50*%
X462712500Y90731250D03*
X462712500Y91831250D03*
X461212500Y91831250D03*
X461212500Y90731250D03*
%TD*%
D21*
%TO.C,LC70*%
X404327500Y74612500D03*
X405297500Y74612500D03*
%TD*%
D18*
%TO.C,K10*%
X347980000Y133350000D03*
X337820000Y133350000D03*
D19*
X342900000Y133350000D03*
D20*
X340360000Y128270000D03*
X346710000Y130810000D03*
%TD*%
D21*
%TO.C,LC23*%
X299552500Y122237500D03*
X300522500Y122237500D03*
%TD*%
D13*
%TO.C,LC5*%
X148122500Y141287500D03*
X147152500Y141287500D03*
%TD*%
%TO.C,LC117*%
X245753750Y17462500D03*
X244783750Y17462500D03*
%TD*%
D21*
%TO.C,LC27*%
X380515000Y122237500D03*
X381485000Y122237500D03*
%TD*%
D18*
%TO.C,K74*%
X4445000Y47625000D03*
D19*
X9525000Y47625000D03*
D18*
X14605000Y47625000D03*
D20*
X6985000Y42545000D03*
X13335000Y45085000D03*
%TD*%
D18*
%TO.C,K23*%
X294957500Y114300000D03*
X305117500Y114300000D03*
D19*
X300037500Y114300000D03*
D20*
X297497500Y109220000D03*
X303847500Y111760000D03*
%TD*%
D21*
%TO.C,LC15*%
X128102500Y122237500D03*
X129072500Y122237500D03*
%TD*%
D18*
%TO.C,K120*%
X311626250Y9525000D03*
D19*
X316706250Y9525000D03*
D18*
X321786250Y9525000D03*
D20*
X314166250Y4445000D03*
X320516250Y6985000D03*
%TD*%
D13*
%TO.C,LC123*%
X381485000Y17462500D03*
X380515000Y17462500D03*
%TD*%
D15*
%TO.C,H4*%
X452437500Y114300000D03*
%TD*%
D14*
%TO.C,LD83*%
X200775000Y52631250D03*
X200775000Y53731250D03*
X199275000Y53731250D03*
X199275000Y52631250D03*
%TD*%
%TO.C,LD71*%
X423112500Y72781250D03*
X423112500Y71681250D03*
X424612500Y71681250D03*
X424612500Y72781250D03*
%TD*%
%TO.C,LD24*%
X318337500Y120406250D03*
X318337500Y119306250D03*
X319837500Y119306250D03*
X319837500Y120406250D03*
%TD*%
D15*
%TO.C,H3*%
X330993750Y114300000D03*
%TD*%
D14*
%TO.C,LD86*%
X257925000Y52631250D03*
X257925000Y53731250D03*
X256425000Y53731250D03*
X256425000Y52631250D03*
%TD*%
D18*
%TO.C,K28*%
X4445000Y85725000D03*
D19*
X9525000Y85725000D03*
D18*
X14605000Y85725000D03*
D20*
X6985000Y80645000D03*
X13335000Y83185000D03*
%TD*%
D18*
%TO.C,K96*%
X90170000Y28575000D03*
X100330000Y28575000D03*
D19*
X95250000Y28575000D03*
D20*
X92710000Y23495000D03*
X99060000Y26035000D03*
%TD*%
D14*
%TO.C,LD53*%
X56400000Y72781250D03*
X56400000Y71681250D03*
X57900000Y71681250D03*
X57900000Y72781250D03*
%TD*%
D13*
%TO.C,LC9*%
X233847500Y141287500D03*
X232877500Y141287500D03*
%TD*%
D18*
%TO.C,K118*%
X264001250Y9525000D03*
D19*
X269081250Y9525000D03*
D18*
X274161250Y9525000D03*
D20*
X266541250Y4445000D03*
X272891250Y6985000D03*
%TD*%
D21*
%TO.C,LC24*%
X318602500Y122237500D03*
X319572500Y122237500D03*
%TD*%
D18*
%TO.C,K87*%
X271145000Y47625000D03*
D19*
X276225000Y47625000D03*
D18*
X281305000Y47625000D03*
D20*
X273685000Y42545000D03*
X280035000Y45085000D03*
%TD*%
D13*
%TO.C,LC78*%
X105260000Y55562500D03*
X104290000Y55562500D03*
%TD*%
D21*
%TO.C,LC64*%
X270977500Y74612500D03*
X271947500Y74612500D03*
%TD*%
D14*
%TO.C,LD113*%
X55518750Y14531250D03*
X55518750Y15631250D03*
X54018750Y15631250D03*
X54018750Y14531250D03*
%TD*%
%TO.C,LD4*%
X129337500Y138356250D03*
X129337500Y139456250D03*
X127837500Y139456250D03*
X127837500Y138356250D03*
%TD*%
D21*
%TO.C,LC95*%
X63808750Y36512500D03*
X64778750Y36512500D03*
%TD*%
D14*
%TO.C,LD73*%
X461212500Y72781250D03*
X461212500Y71681250D03*
X462712500Y71681250D03*
X462712500Y72781250D03*
%TD*%
D21*
%TO.C,LC13*%
X90002500Y122237500D03*
X90972500Y122237500D03*
%TD*%
D13*
%TO.C,LC120*%
X317191250Y17462500D03*
X316221250Y17462500D03*
%TD*%
D14*
%TO.C,LD116*%
X174581250Y14531250D03*
X174581250Y15631250D03*
X173081250Y15631250D03*
X173081250Y14531250D03*
%TD*%
D18*
%TO.C,K116*%
X168751250Y9525000D03*
X178911250Y9525000D03*
D19*
X173831250Y9525000D03*
D20*
X171291250Y4445000D03*
X177641250Y6985000D03*
%TD*%
D21*
%TO.C,LC54*%
X80477500Y74612500D03*
X81447500Y74612500D03*
%TD*%
D15*
%TO.C,H2*%
X161925000Y114300000D03*
%TD*%
D21*
%TO.C,LC108*%
X404327500Y36512500D03*
X405297500Y36512500D03*
%TD*%
D19*
%TO.C,K114*%
X78581250Y9525000D03*
D18*
X73501250Y9525000D03*
X83661250Y9525000D03*
D20*
X76041250Y4445000D03*
X82391250Y6985000D03*
%TD*%
D18*
%TO.C,K6*%
X181292500Y133350000D03*
X171132500Y133350000D03*
D19*
X176212500Y133350000D03*
D20*
X173672500Y128270000D03*
X180022500Y130810000D03*
%TD*%
D19*
%TO.C,K91*%
X442912500Y47625000D03*
D18*
X437832500Y47625000D03*
X447992500Y47625000D03*
D20*
X440372500Y42545000D03*
X446722500Y45085000D03*
%TD*%
D18*
%TO.C,K56*%
X124142500Y66675000D03*
X113982500Y66675000D03*
D19*
X119062500Y66675000D03*
D20*
X116522500Y61595000D03*
X122872500Y64135000D03*
%TD*%
D19*
%TO.C,K15*%
X128587500Y114300000D03*
D18*
X123507500Y114300000D03*
X133667500Y114300000D03*
D20*
X126047500Y109220000D03*
X132397500Y111760000D03*
%TD*%
D14*
%TO.C,LD67*%
X342150000Y72781250D03*
X342150000Y71681250D03*
X343650000Y71681250D03*
X343650000Y72781250D03*
%TD*%
D13*
%TO.C,LC79*%
X124310000Y55562500D03*
X123340000Y55562500D03*
%TD*%
D19*
%TO.C,K62*%
X233362500Y66675000D03*
D18*
X238442500Y66675000D03*
X228282500Y66675000D03*
D20*
X230822500Y61595000D03*
X237172500Y64135000D03*
%TD*%
D18*
%TO.C,K22*%
X275907500Y114300000D03*
D19*
X280987500Y114300000D03*
D18*
X286067500Y114300000D03*
D20*
X278447500Y109220000D03*
X284797500Y111760000D03*
%TD*%
D13*
%TO.C,LC2*%
X90972500Y141287500D03*
X90002500Y141287500D03*
%TD*%
D18*
%TO.C,K107*%
X356870000Y28575000D03*
X367030000Y28575000D03*
D19*
X361950000Y28575000D03*
D20*
X359410000Y23495000D03*
X365760000Y26035000D03*
%TD*%
D13*
%TO.C,LC10*%
X343385000Y141287500D03*
X342415000Y141287500D03*
%TD*%
%TO.C,LC33*%
X110022500Y93662500D03*
X109052500Y93662500D03*
%TD*%
D21*
%TO.C,LC109*%
X423377500Y36512500D03*
X424347500Y36512500D03*
%TD*%
D14*
%TO.C,LD26*%
X361200000Y120406250D03*
X361200000Y119306250D03*
X362700000Y119306250D03*
X362700000Y120406250D03*
%TD*%
D15*
%TO.C,H5*%
X19050000Y28575000D03*
%TD*%
D18*
%TO.C,K98*%
X128270000Y28575000D03*
D19*
X133350000Y28575000D03*
D18*
X138430000Y28575000D03*
D20*
X130810000Y23495000D03*
X137160000Y26035000D03*
%TD*%
D18*
%TO.C,K66*%
X319405000Y66675000D03*
D19*
X314325000Y66675000D03*
D18*
X309245000Y66675000D03*
D20*
X311785000Y61595000D03*
X318135000Y64135000D03*
%TD*%
D18*
%TO.C,K47*%
X409892500Y85725000D03*
X399732500Y85725000D03*
D19*
X404812500Y85725000D03*
D20*
X402272500Y80645000D03*
X408622500Y83185000D03*
%TD*%
D19*
%TO.C,K102*%
X209550000Y28575000D03*
D18*
X214630000Y28575000D03*
X204470000Y28575000D03*
D20*
X207010000Y23495000D03*
X213360000Y26035000D03*
%TD*%
D14*
%TO.C,LD52*%
X27825000Y72781250D03*
X27825000Y71681250D03*
X29325000Y71681250D03*
X29325000Y72781250D03*
%TD*%
%TO.C,LD99*%
X151650000Y34681250D03*
X151650000Y33581250D03*
X153150000Y33581250D03*
X153150000Y34681250D03*
%TD*%
D21*
%TO.C,LC93*%
X9040000Y36512500D03*
X10010000Y36512500D03*
%TD*%
D14*
%TO.C,LD98*%
X132600000Y34681250D03*
X132600000Y33581250D03*
X134100000Y33581250D03*
X134100000Y34681250D03*
%TD*%
D13*
%TO.C,LC34*%
X129072500Y93662500D03*
X128102500Y93662500D03*
%TD*%
D14*
%TO.C,LD96*%
X94500000Y34681250D03*
X94500000Y33581250D03*
X96000000Y33581250D03*
X96000000Y34681250D03*
%TD*%
D18*
%TO.C,K12*%
X386080000Y133350000D03*
X375920000Y133350000D03*
D19*
X381000000Y133350000D03*
D20*
X378460000Y128270000D03*
X384810000Y130810000D03*
%TD*%
D13*
%TO.C,LC11*%
X362435000Y141287500D03*
X361465000Y141287500D03*
%TD*%
D14*
%TO.C,LD69*%
X380250000Y72781250D03*
X380250000Y71681250D03*
X381750000Y71681250D03*
X381750000Y72781250D03*
%TD*%
%TO.C,LD6*%
X176962500Y138356250D03*
X176962500Y139456250D03*
X175462500Y139456250D03*
X175462500Y138356250D03*
%TD*%
%TO.C,LD70*%
X404062500Y72781250D03*
X404062500Y71681250D03*
X405562500Y71681250D03*
X405562500Y72781250D03*
%TD*%
D18*
%TO.C,K99*%
X147320000Y28575000D03*
D19*
X152400000Y28575000D03*
D18*
X157480000Y28575000D03*
D20*
X149860000Y23495000D03*
X156210000Y26035000D03*
%TD*%
D16*
%TO.C,KT3*%
X305529500Y133350000D03*
D17*
X305529500Y130810000D03*
%TD*%
D13*
%TO.C,LC76*%
X60016250Y55562500D03*
X59046250Y55562500D03*
%TD*%
D21*
%TO.C,LC16*%
X147152500Y122237500D03*
X148122500Y122237500D03*
%TD*%
D19*
%TO.C,K117*%
X245268750Y9525000D03*
D18*
X250348750Y9525000D03*
X240188750Y9525000D03*
D20*
X242728750Y4445000D03*
X249078750Y6985000D03*
%TD*%
D13*
%TO.C,LC125*%
X424347500Y17462500D03*
X423377500Y17462500D03*
%TD*%
D18*
%TO.C,K60*%
X190182500Y66675000D03*
D19*
X195262500Y66675000D03*
D18*
X200342500Y66675000D03*
D20*
X192722500Y61595000D03*
X199072500Y64135000D03*
%TD*%
D14*
%TO.C,LD103*%
X227850000Y34681250D03*
X227850000Y33581250D03*
X229350000Y33581250D03*
X229350000Y34681250D03*
%TD*%
D15*
%TO.C,H6*%
X161925000Y28575000D03*
%TD*%
D13*
%TO.C,LC122*%
X362435000Y17462500D03*
X361465000Y17462500D03*
%TD*%
D14*
%TO.C,LD106*%
X301668750Y34681250D03*
X301668750Y33581250D03*
X303168750Y33581250D03*
X303168750Y34681250D03*
%TD*%
D19*
%TO.C,K33*%
X109537500Y85725000D03*
D18*
X104457500Y85725000D03*
X114617500Y85725000D03*
D20*
X106997500Y80645000D03*
X113347500Y83185000D03*
%TD*%
D13*
%TO.C,LC80*%
X143360000Y55562500D03*
X142390000Y55562500D03*
%TD*%
D21*
%TO.C,LC65*%
X290027500Y74612500D03*
X290997500Y74612500D03*
%TD*%
D18*
%TO.C,K36*%
X161607500Y85725000D03*
X171767500Y85725000D03*
D19*
X166687500Y85725000D03*
D20*
X164147500Y80645000D03*
X170497500Y83185000D03*
%TD*%
D14*
%TO.C,LD31*%
X72187500Y90731250D03*
X72187500Y91831250D03*
X70687500Y91831250D03*
X70687500Y90731250D03*
%TD*%
D18*
%TO.C,K97*%
X109220000Y28575000D03*
D19*
X114300000Y28575000D03*
D18*
X119380000Y28575000D03*
D20*
X111760000Y23495000D03*
X118110000Y26035000D03*
%TD*%
D13*
%TO.C,LC126*%
X443397500Y17462500D03*
X442427500Y17462500D03*
%TD*%
D19*
%TO.C,K34*%
X128587500Y85725000D03*
D18*
X123507500Y85725000D03*
X133667500Y85725000D03*
D20*
X126047500Y80645000D03*
X132397500Y83185000D03*
%TD*%
D19*
%TO.C,K53*%
X57150000Y66675000D03*
D18*
X52070000Y66675000D03*
X62230000Y66675000D03*
D20*
X54610000Y61595000D03*
X60960000Y64135000D03*
%TD*%
D18*
%TO.C,K124*%
X409892500Y9525000D03*
D19*
X404812500Y9525000D03*
D18*
X399732500Y9525000D03*
D20*
X402272500Y4445000D03*
X408622500Y6985000D03*
%TD*%
D14*
%TO.C,LD55*%
X99262500Y72781250D03*
X99262500Y71681250D03*
X100762500Y71681250D03*
X100762500Y72781250D03*
%TD*%
%TO.C,LD49*%
X443662500Y90731250D03*
X443662500Y91831250D03*
X442162500Y91831250D03*
X442162500Y90731250D03*
%TD*%
%TO.C,LD84*%
X219825000Y52631250D03*
X219825000Y53731250D03*
X218325000Y53731250D03*
X218325000Y52631250D03*
%TD*%
%TO.C,LD28*%
X10275000Y90731250D03*
X10275000Y91831250D03*
X8775000Y91831250D03*
X8775000Y90731250D03*
%TD*%
D18*
%TO.C,K19*%
X219392500Y114300000D03*
X209232500Y114300000D03*
D19*
X214312500Y114300000D03*
D20*
X211772500Y109220000D03*
X218122500Y111760000D03*
%TD*%
D21*
%TO.C,LC67*%
X342415000Y74612500D03*
X343385000Y74612500D03*
%TD*%
D15*
%TO.C,H7*%
X330993750Y28575000D03*
%TD*%
D18*
%TO.C,K119*%
X287813750Y9525000D03*
X297973750Y9525000D03*
D19*
X292893750Y9525000D03*
D20*
X290353750Y4445000D03*
X296703750Y6985000D03*
%TD*%
D18*
%TO.C,K86*%
X252095000Y47625000D03*
D19*
X257175000Y47625000D03*
D18*
X262255000Y47625000D03*
D20*
X254635000Y42545000D03*
X260985000Y45085000D03*
%TD*%
D21*
%TO.C,LC68*%
X361465000Y74612500D03*
X362435000Y74612500D03*
%TD*%
D14*
%TO.C,LD114*%
X79331250Y14531250D03*
X79331250Y15631250D03*
X77831250Y15631250D03*
X77831250Y14531250D03*
%TD*%
D18*
%TO.C,K18*%
X200342500Y114300000D03*
X190182500Y114300000D03*
D19*
X195262500Y114300000D03*
D20*
X192722500Y109220000D03*
X199072500Y111760000D03*
%TD*%
D14*
%TO.C,LD7*%
X196012500Y138356250D03*
X196012500Y139456250D03*
X194512500Y139456250D03*
X194512500Y138356250D03*
%TD*%
%TO.C,LD78*%
X105525000Y52631250D03*
X105525000Y53731250D03*
X104025000Y53731250D03*
X104025000Y52631250D03*
%TD*%
%TO.C,LD119*%
X293643750Y14531250D03*
X293643750Y15631250D03*
X292143750Y15631250D03*
X292143750Y14531250D03*
%TD*%
%TO.C,LD74*%
X10275000Y52631250D03*
X10275000Y53731250D03*
X8775000Y53731250D03*
X8775000Y52631250D03*
%TD*%
%TO.C,LD90*%
X424612500Y52631250D03*
X424612500Y53731250D03*
X423112500Y53731250D03*
X423112500Y52631250D03*
%TD*%
%TO.C,LD12*%
X381750000Y138356250D03*
X381750000Y139456250D03*
X380250000Y139456250D03*
X380250000Y138356250D03*
%TD*%
D13*
%TO.C,LC121*%
X343385000Y17462500D03*
X342415000Y17462500D03*
%TD*%
D14*
%TO.C,LD107*%
X361200000Y34681250D03*
X361200000Y33581250D03*
X362700000Y33581250D03*
X362700000Y34681250D03*
%TD*%
D13*
%TO.C,LC1*%
X10010000Y141287500D03*
X9040000Y141287500D03*
%TD*%
%TO.C,LC30*%
X52872500Y93662500D03*
X51902500Y93662500D03*
%TD*%
D14*
%TO.C,LD56*%
X118312500Y72781250D03*
X118312500Y71681250D03*
X119812500Y71681250D03*
X119812500Y72781250D03*
%TD*%
%TO.C,LD40*%
X243637500Y90731250D03*
X243637500Y91831250D03*
X242137500Y91831250D03*
X242137500Y90731250D03*
%TD*%
%TO.C,LD18*%
X194512500Y120406250D03*
X194512500Y119306250D03*
X196012500Y119306250D03*
X196012500Y120406250D03*
%TD*%
D21*
%TO.C,LC25*%
X342415000Y122237500D03*
X343385000Y122237500D03*
%TD*%
%TO.C,LC17*%
X175727500Y122237500D03*
X176697500Y122237500D03*
%TD*%
D18*
%TO.C,K108*%
X399732500Y28575000D03*
X409892500Y28575000D03*
D19*
X404812500Y28575000D03*
D20*
X402272500Y23495000D03*
X408622500Y26035000D03*
%TD*%
D18*
%TO.C,K115*%
X107473750Y9525000D03*
D19*
X102393750Y9525000D03*
D18*
X97313750Y9525000D03*
D20*
X99853750Y4445000D03*
X106203750Y6985000D03*
%TD*%
D14*
%TO.C,LD33*%
X110287500Y90731250D03*
X110287500Y91831250D03*
X108787500Y91831250D03*
X108787500Y90731250D03*
%TD*%
D18*
%TO.C,K5*%
X142557500Y133350000D03*
D19*
X147637500Y133350000D03*
D18*
X152717500Y133350000D03*
D20*
X145097500Y128270000D03*
X151447500Y130810000D03*
%TD*%
D21*
%TO.C,LC22*%
X280502500Y122237500D03*
X281472500Y122237500D03*
%TD*%
D13*
%TO.C,LC111*%
X10010000Y17462500D03*
X9040000Y17462500D03*
%TD*%
D18*
%TO.C,K127*%
X461962500Y24130000D03*
D19*
X461962500Y19050000D03*
D18*
X461962500Y13970000D03*
D20*
X467042500Y16510000D03*
X464502500Y22860000D03*
%TD*%
D13*
%TO.C,LC85*%
X238610000Y55562500D03*
X237640000Y55562500D03*
%TD*%
D18*
%TO.C,K63*%
X247332500Y66675000D03*
D19*
X252412500Y66675000D03*
D18*
X257492500Y66675000D03*
D20*
X249872500Y61595000D03*
X256222500Y64135000D03*
%TD*%
D18*
%TO.C,K41*%
X267017500Y85725000D03*
D19*
X261937500Y85725000D03*
D18*
X256857500Y85725000D03*
D20*
X259397500Y80645000D03*
X265747500Y83185000D03*
%TD*%
D19*
%TO.C,K31*%
X71437500Y85725000D03*
D18*
X66357500Y85725000D03*
X76517500Y85725000D03*
D20*
X68897500Y80645000D03*
X75247500Y83185000D03*
%TD*%
D14*
%TO.C,LD87*%
X276975000Y52631250D03*
X276975000Y53731250D03*
X275475000Y53731250D03*
X275475000Y52631250D03*
%TD*%
%TO.C,LD123*%
X381750000Y14531250D03*
X381750000Y15631250D03*
X380250000Y15631250D03*
X380250000Y14531250D03*
%TD*%
D13*
%TO.C,LC74*%
X10010000Y55562500D03*
X9040000Y55562500D03*
%TD*%
D14*
%TO.C,LD81*%
X162675000Y52631250D03*
X162675000Y53731250D03*
X161175000Y53731250D03*
X161175000Y52631250D03*
%TD*%
D21*
%TO.C,LC96*%
X94765000Y36512500D03*
X95735000Y36512500D03*
%TD*%
D14*
%TO.C,LD19*%
X213562500Y120406250D03*
X213562500Y119306250D03*
X215062500Y119306250D03*
X215062500Y120406250D03*
%TD*%
D19*
%TO.C,K75*%
X28575000Y47625000D03*
D18*
X33655000Y47625000D03*
X23495000Y47625000D03*
D20*
X26035000Y42545000D03*
X32385000Y45085000D03*
%TD*%
D13*
%TO.C,LC36*%
X167172500Y93662500D03*
X166202500Y93662500D03*
%TD*%
%TO.C,LC115*%
X102878750Y17462500D03*
X101908750Y17462500D03*
%TD*%
D14*
%TO.C,LD20*%
X232612500Y120406250D03*
X232612500Y119306250D03*
X234112500Y119306250D03*
X234112500Y120406250D03*
%TD*%
D21*
%TO.C,LC19*%
X213827500Y122237500D03*
X214797500Y122237500D03*
%TD*%
%TO.C,LC103*%
X228115000Y36512500D03*
X229085000Y36512500D03*
%TD*%
%TO.C,LC98*%
X132865000Y36512500D03*
X133835000Y36512500D03*
%TD*%
D18*
%TO.C,K4*%
X123507500Y133350000D03*
D19*
X128587500Y133350000D03*
D18*
X133667500Y133350000D03*
D20*
X126047500Y128270000D03*
X132397500Y130810000D03*
%TD*%
D21*
%TO.C,LC52*%
X28090000Y74612500D03*
X29060000Y74612500D03*
%TD*%
D14*
%TO.C,LD76*%
X60281250Y52631250D03*
X60281250Y53731250D03*
X58781250Y53731250D03*
X58781250Y52631250D03*
%TD*%
D13*
%TO.C,LC124*%
X405297500Y17462500D03*
X404327500Y17462500D03*
%TD*%
D14*
%TO.C,LD59*%
X175462500Y72781250D03*
X175462500Y71681250D03*
X176962500Y71681250D03*
X176962500Y72781250D03*
%TD*%
%TO.C,LD8*%
X215062500Y138356250D03*
X215062500Y139456250D03*
X213562500Y139456250D03*
X213562500Y138356250D03*
%TD*%
D13*
%TO.C,LC40*%
X243372500Y93662500D03*
X242402500Y93662500D03*
%TD*%
D19*
%TO.C,K43*%
X309562500Y85725000D03*
D18*
X314642500Y85725000D03*
X304482500Y85725000D03*
D20*
X307022500Y80645000D03*
X313372500Y83185000D03*
%TD*%
D14*
%TO.C,LD104*%
X246900000Y34681250D03*
X246900000Y33581250D03*
X248400000Y33581250D03*
X248400000Y34681250D03*
%TD*%
D19*
%TO.C,K106*%
X302418750Y28575000D03*
D18*
X297338750Y28575000D03*
X307498750Y28575000D03*
D20*
X299878750Y23495000D03*
X306228750Y26035000D03*
%TD*%
D14*
%TO.C,LD105*%
X265950000Y34681250D03*
X265950000Y33581250D03*
X267450000Y33581250D03*
X267450000Y34681250D03*
%TD*%
D18*
%TO.C,K21*%
X267017500Y114300000D03*
X256857500Y114300000D03*
D19*
X261937500Y114300000D03*
D20*
X259397500Y109220000D03*
X265747500Y111760000D03*
%TD*%
D18*
%TO.C,K55*%
X94932500Y66675000D03*
X105092500Y66675000D03*
D19*
X100012500Y66675000D03*
D20*
X97472500Y61595000D03*
X103822500Y64135000D03*
%TD*%
D21*
%TO.C,LC101*%
X190015000Y36512500D03*
X190985000Y36512500D03*
%TD*%
%TO.C,LC51*%
X9040000Y74612500D03*
X10010000Y74612500D03*
%TD*%
%TO.C,LC26*%
X361465000Y122237500D03*
X362435000Y122237500D03*
%TD*%
D19*
%TO.C,K9*%
X233362500Y133350000D03*
D18*
X238442500Y133350000D03*
X228282500Y133350000D03*
D20*
X230822500Y128270000D03*
X237172500Y130810000D03*
%TD*%
D21*
%TO.C,LC107*%
X361465000Y36512500D03*
X362435000Y36512500D03*
%TD*%
D18*
%TO.C,K40*%
X237807500Y85725000D03*
X247967500Y85725000D03*
D19*
X242887500Y85725000D03*
D20*
X240347500Y80645000D03*
X246697500Y83185000D03*
%TD*%
D18*
%TO.C,K121*%
X347980000Y9525000D03*
X337820000Y9525000D03*
D19*
X342900000Y9525000D03*
D20*
X340360000Y4445000D03*
X346710000Y6985000D03*
%TD*%
D18*
%TO.C,K16*%
X142557500Y114300000D03*
X152717500Y114300000D03*
D19*
X147637500Y114300000D03*
D20*
X145097500Y109220000D03*
X151447500Y111760000D03*
%TD*%
D13*
%TO.C,LC92*%
X462447500Y55562500D03*
X461477500Y55562500D03*
%TD*%
D14*
%TO.C,LD110*%
X442162500Y34681250D03*
X442162500Y33581250D03*
X443662500Y33581250D03*
X443662500Y34681250D03*
%TD*%
D13*
%TO.C,LC114*%
X79066250Y17462500D03*
X78096250Y17462500D03*
%TD*%
D18*
%TO.C,K85*%
X243205000Y47625000D03*
X233045000Y47625000D03*
D19*
X238125000Y47625000D03*
D20*
X235585000Y42545000D03*
X241935000Y45085000D03*
%TD*%
D15*
%TO.C,H1*%
X19050000Y114300000D03*
%TD*%
D14*
%TO.C,LD27*%
X380250000Y120406250D03*
X380250000Y119306250D03*
X381750000Y119306250D03*
X381750000Y120406250D03*
%TD*%
%TO.C,LD126*%
X443662500Y14531250D03*
X443662500Y15631250D03*
X442162500Y15631250D03*
X442162500Y14531250D03*
%TD*%
D17*
%TO.C,SWA1*%
X456470500Y135890000D03*
D16*
X456470500Y133350000D03*
D17*
X456470500Y130810000D03*
%TD*%
D21*
%TO.C,LC56*%
X118577500Y74612500D03*
X119547500Y74612500D03*
%TD*%
D14*
%TO.C,LD118*%
X269831250Y14531250D03*
X269831250Y15631250D03*
X268331250Y15631250D03*
X268331250Y14531250D03*
%TD*%
D13*
%TO.C,LC83*%
X200510000Y55562500D03*
X199540000Y55562500D03*
%TD*%
D18*
%TO.C,K14*%
X104457500Y114300000D03*
X114617500Y114300000D03*
D19*
X109537500Y114300000D03*
D20*
X106997500Y109220000D03*
X113347500Y111760000D03*
%TD*%
D19*
%TO.C,K7*%
X195262500Y133350000D03*
D18*
X190182500Y133350000D03*
X200342500Y133350000D03*
D20*
X192722500Y128270000D03*
X199072500Y130810000D03*
%TD*%
D14*
%TO.C,LD108*%
X404062500Y34681250D03*
X404062500Y33581250D03*
X405562500Y33581250D03*
X405562500Y34681250D03*
%TD*%
D21*
%TO.C,LC61*%
X213827500Y74612500D03*
X214797500Y74612500D03*
%TD*%
D18*
%TO.C,K71*%
X428942500Y66675000D03*
D19*
X423862500Y66675000D03*
D18*
X418782500Y66675000D03*
D20*
X421322500Y61595000D03*
X427672500Y64135000D03*
%TD*%
D21*
%TO.C,LC72*%
X442427500Y74612500D03*
X443397500Y74612500D03*
%TD*%
%TO.C,LC94*%
X28090000Y36512500D03*
X29060000Y36512500D03*
%TD*%
D18*
%TO.C,K103*%
X233680000Y28575000D03*
X223520000Y28575000D03*
D19*
X228600000Y28575000D03*
D20*
X226060000Y23495000D03*
X232410000Y26035000D03*
%TD*%
D25*
%TO.C,J4*%
X441833750Y136306250D03*
X436053750Y136306250D03*
D26*
X443263750Y139956250D03*
D27*
X443263750Y135776250D03*
X434623750Y135776250D03*
D26*
X434623750Y139956250D03*
%TD*%
M02*
