%TF.GenerationSoftware,KiCad,Pcbnew,(6.0.7)*%
%TF.CreationDate,2022-09-27T13:03:32-04:00*%
%TF.ProjectId,SweetBusiness,53776565-7442-4757-9369-6e6573732e6b,rev?*%
%TF.SameCoordinates,Original*%
%TF.FileFunction,Copper,L4,Bot*%
%TF.FilePolarity,Positive*%
%FSLAX46Y46*%
G04 Gerber Fmt 4.6, Leading zero omitted, Abs format (unit mm)*
G04 Created by KiCad (PCBNEW (6.0.7)) date 2022-09-27 13:03:32*
%MOMM*%
%LPD*%
G01*
G04 APERTURE LIST*
G04 Aperture macros list*
%AMRoundRect*
0 Rectangle with rounded corners*
0 $1 Rounding radius*
0 $2 $3 $4 $5 $6 $7 $8 $9 X,Y pos of 4 corners*
0 Add a 4 corners polygon primitive as box body*
4,1,4,$2,$3,$4,$5,$6,$7,$8,$9,$2,$3,0*
0 Add four circle primitives for the rounded corners*
1,1,$1+$1,$2,$3*
1,1,$1+$1,$4,$5*
1,1,$1+$1,$6,$7*
1,1,$1+$1,$8,$9*
0 Add four rect primitives between the rounded corners*
20,1,$1+$1,$2,$3,$4,$5,0*
20,1,$1+$1,$4,$5,$6,$7,0*
20,1,$1+$1,$6,$7,$8,$9,0*
20,1,$1+$1,$8,$9,$2,$3,0*%
G04 Aperture macros list end*
%TA.AperFunction,ComponentPad*%
%ADD10R,2.000000X2.000000*%
%TD*%
%TA.AperFunction,ComponentPad*%
%ADD11C,2.000000*%
%TD*%
%TA.AperFunction,ComponentPad*%
%ADD12C,2.286000*%
%TD*%
%TA.AperFunction,ComponentPad*%
%ADD13R,1.700000X1.700000*%
%TD*%
%TA.AperFunction,ComponentPad*%
%ADD14O,1.700000X1.700000*%
%TD*%
%TA.AperFunction,SMDPad,CuDef*%
%ADD15RoundRect,0.147500X-0.172500X0.147500X-0.172500X-0.147500X0.172500X-0.147500X0.172500X0.147500X0*%
%TD*%
%TA.AperFunction,SMDPad,CuDef*%
%ADD16R,0.700000X0.600000*%
%TD*%
%TA.AperFunction,SMDPad,CuDef*%
%ADD17RoundRect,0.147500X0.172500X-0.147500X0.172500X0.147500X-0.172500X0.147500X-0.172500X-0.147500X0*%
%TD*%
%TA.AperFunction,SMDPad,CuDef*%
%ADD18RoundRect,0.150000X0.150000X-0.512500X0.150000X0.512500X-0.150000X0.512500X-0.150000X-0.512500X0*%
%TD*%
%TA.AperFunction,SMDPad,CuDef*%
%ADD19RoundRect,0.050000X0.387500X0.050000X-0.387500X0.050000X-0.387500X-0.050000X0.387500X-0.050000X0*%
%TD*%
%TA.AperFunction,SMDPad,CuDef*%
%ADD20RoundRect,0.050000X0.050000X0.387500X-0.050000X0.387500X-0.050000X-0.387500X0.050000X-0.387500X0*%
%TD*%
%TA.AperFunction,ComponentPad*%
%ADD21C,0.500000*%
%TD*%
%TA.AperFunction,SMDPad,CuDef*%
%ADD22R,2.550000X2.550000*%
%TD*%
%TA.AperFunction,SMDPad,CuDef*%
%ADD23RoundRect,0.147500X-0.147500X-0.172500X0.147500X-0.172500X0.147500X0.172500X-0.147500X0.172500X0*%
%TD*%
%TA.AperFunction,SMDPad,CuDef*%
%ADD24RoundRect,0.147500X0.147500X0.172500X-0.147500X0.172500X-0.147500X-0.172500X0.147500X-0.172500X0*%
%TD*%
%TA.AperFunction,SMDPad,CuDef*%
%ADD25R,2.000000X4.200000*%
%TD*%
%TA.AperFunction,SMDPad,CuDef*%
%ADD26RoundRect,0.150000X0.150000X-0.650000X0.150000X0.650000X-0.150000X0.650000X-0.150000X-0.650000X0*%
%TD*%
%TA.AperFunction,SMDPad,CuDef*%
%ADD27R,1.800000X1.100000*%
%TD*%
%TA.AperFunction,SMDPad,CuDef*%
%ADD28R,0.600000X0.700000*%
%TD*%
%TA.AperFunction,SMDPad,CuDef*%
%ADD29R,3.500000X4.000000*%
%TD*%
%TA.AperFunction,SMDPad,CuDef*%
%ADD30R,0.400000X1.900000*%
%TD*%
%TA.AperFunction,SMDPad,CuDef*%
%ADD31RoundRect,0.218750X0.218750X0.256250X-0.218750X0.256250X-0.218750X-0.256250X0.218750X-0.256250X0*%
%TD*%
%TA.AperFunction,SMDPad,CuDef*%
%ADD32R,0.600000X1.450000*%
%TD*%
%TA.AperFunction,SMDPad,CuDef*%
%ADD33R,0.300000X1.450000*%
%TD*%
%TA.AperFunction,ComponentPad*%
%ADD34O,1.000000X1.600000*%
%TD*%
%TA.AperFunction,ComponentPad*%
%ADD35O,1.000000X2.100000*%
%TD*%
%TA.AperFunction,SMDPad,CuDef*%
%ADD36RoundRect,0.150000X-0.512500X-0.150000X0.512500X-0.150000X0.512500X0.150000X-0.512500X0.150000X0*%
%TD*%
%TA.AperFunction,ViaPad*%
%ADD37C,0.600000*%
%TD*%
%TA.AperFunction,ViaPad*%
%ADD38C,0.900000*%
%TD*%
%TA.AperFunction,Conductor*%
%ADD39C,0.200000*%
%TD*%
%TA.AperFunction,Conductor*%
%ADD40C,1.000000*%
%TD*%
%TA.AperFunction,Conductor*%
%ADD41C,0.500000*%
%TD*%
%TA.AperFunction,Conductor*%
%ADD42C,0.300000*%
%TD*%
G04 APERTURE END LIST*
D10*
%TO.P,KT4,1*%
%TO.N,14*%
X324579500Y133350000D03*
D11*
%TO.P,KT4,2*%
%TO.N,Net-(DT4-Pad2)*%
X324579500Y130810000D03*
%TD*%
D12*
%TO.P,K70,1*%
%TO.N,12*%
X402272500Y61595000D03*
%TO.P,K70,2*%
%TO.N,Net-(D70-Pad2)*%
X408622500Y64135000D03*
%TD*%
%TO.P,K42,1*%
%TO.N,14*%
X278447500Y80645000D03*
%TO.P,K42,2*%
%TO.N,Net-(D42-Pad2)*%
X284797500Y83185000D03*
%TD*%
%TO.P,K44,1*%
%TO.N,13*%
X340360000Y80645000D03*
%TO.P,K44,2*%
%TO.N,Net-(D44-Pad2)*%
X346710000Y83185000D03*
%TD*%
%TO.P,K8,1*%
%TO.N,16*%
X211772500Y128270000D03*
%TO.P,K8,2*%
%TO.N,Net-(D8-Pad2)*%
X218122500Y130810000D03*
%TD*%
%TO.P,K125,1*%
%TO.N,11*%
X421322500Y4445000D03*
%TO.P,K125,2*%
%TO.N,Net-(D125-Pad2)*%
X427672500Y6985000D03*
%TD*%
%TO.P,K110,1*%
%TO.N,11*%
X440372500Y23495000D03*
%TO.P,K110,2*%
%TO.N,Net-(D110-Pad2)*%
X446722500Y26035000D03*
%TD*%
%TO.P,K84,1*%
%TO.N,16*%
X216535000Y42545000D03*
%TO.P,K84,2*%
%TO.N,Net-(D84-Pad2)*%
X222885000Y45085000D03*
%TD*%
%TO.P,K79,1*%
%TO.N,19*%
X121285000Y42545000D03*
%TO.P,K79,2*%
%TO.N,Net-(D79-Pad2)*%
X127635000Y45085000D03*
%TD*%
%TO.P,K38,1*%
%TO.N,16*%
X202247500Y80645000D03*
%TO.P,K38,2*%
%TO.N,Net-(D38-Pad2)*%
X208597500Y83185000D03*
%TD*%
%TO.P,K37,1*%
%TO.N,17*%
X183197500Y80645000D03*
%TO.P,K37,2*%
%TO.N,Net-(D37-Pad2)*%
X189547500Y83185000D03*
%TD*%
%TO.P,K29,1*%
%TO.N,21*%
X26035000Y80645000D03*
%TO.P,K29,2*%
%TO.N,Net-(D29-Pad2)*%
X32385000Y83185000D03*
%TD*%
%TO.P,K49,1*%
%TO.N,11*%
X440372500Y80645000D03*
%TO.P,K49,2*%
%TO.N,Net-(D49-Pad2)*%
X446722500Y83185000D03*
%TD*%
%TO.P,K82,1*%
%TO.N,17*%
X178435000Y42545000D03*
%TO.P,K82,2*%
%TO.N,Net-(D82-Pad2)*%
X184785000Y45085000D03*
%TD*%
%TO.P,K3,1*%
%TO.N,19*%
X106997500Y128270000D03*
%TO.P,K3,2*%
%TO.N,Net-(D3-Pad2)*%
X113347500Y130810000D03*
%TD*%
%TO.P,K39,1*%
%TO.N,16*%
X221297500Y80645000D03*
%TO.P,K39,2*%
%TO.N,Net-(D39-Pad2)*%
X227647500Y83185000D03*
%TD*%
%TO.P,K123,1*%
%TO.N,12*%
X378460000Y4445000D03*
%TO.P,K123,2*%
%TO.N,Net-(D123-Pad2)*%
X384810000Y6985000D03*
%TD*%
%TO.P,K24,1*%
%TO.N,14*%
X316547500Y109220000D03*
%TO.P,K24,2*%
%TO.N,Net-(D24-Pad2)*%
X322897500Y111760000D03*
%TD*%
%TO.P,K17,1*%
%TO.N,17*%
X173672500Y109220000D03*
%TO.P,K17,2*%
%TO.N,Net-(D17-Pad2)*%
X180022500Y111760000D03*
%TD*%
%TO.P,K73,1*%
%TO.N,10*%
X459422500Y61595000D03*
%TO.P,K73,2*%
%TO.N,Net-(D73-Pad2)*%
X465772500Y64135000D03*
%TD*%
%TO.P,K35,1*%
%TO.N,18*%
X145097500Y80645000D03*
%TO.P,K35,2*%
%TO.N,Net-(D35-Pad2)*%
X151447500Y83185000D03*
%TD*%
D13*
%TO.P,J2,1,Pin_1*%
%TO.N,28{slash}A2*%
X392080750Y137594500D03*
D14*
%TO.P,J2,2,Pin_2*%
%TO.N,29{slash}A3*%
X392080750Y135054500D03*
%TO.P,J2,3,Pin_3*%
%TO.N,+3V3*%
X392080750Y132514500D03*
%TO.P,J2,4,Pin_4*%
%TO.N,GND*%
X392080750Y129974500D03*
%TD*%
D12*
%TO.P,K92,1*%
%TO.N,10*%
X459422500Y42545000D03*
%TO.P,K92,2*%
%TO.N,Net-(D92-Pad2)*%
X465772500Y45085000D03*
%TD*%
%TO.P,K61,1*%
%TO.N,16*%
X211772500Y61595000D03*
%TO.P,K61,2*%
%TO.N,Net-(D61-Pad2)*%
X218122500Y64135000D03*
%TD*%
%TO.P,K30,1*%
%TO.N,20*%
X49847500Y80645000D03*
%TO.P,K30,2*%
%TO.N,Net-(D30-Pad2)*%
X56197500Y83185000D03*
%TD*%
%TO.P,K83,1*%
%TO.N,17*%
X197485000Y42545000D03*
%TO.P,K83,2*%
%TO.N,Net-(D83-Pad2)*%
X203835000Y45085000D03*
%TD*%
%TO.P,K81,1*%
%TO.N,18*%
X159385000Y42545000D03*
%TO.P,K81,2*%
%TO.N,Net-(D81-Pad2)*%
X165735000Y45085000D03*
%TD*%
%TO.P,K90,1*%
%TO.N,11*%
X421322500Y42545000D03*
%TO.P,K90,2*%
%TO.N,Net-(D90-Pad2)*%
X427672500Y45085000D03*
%TD*%
%TO.P,K20,1*%
%TO.N,16*%
X230822500Y109220000D03*
%TO.P,K20,2*%
%TO.N,Net-(D20-Pad2)*%
X237172500Y111760000D03*
%TD*%
%TO.P,K59,1*%
%TO.N,17*%
X173672500Y61595000D03*
%TO.P,K59,2*%
%TO.N,Net-(D59-Pad2)*%
X180022500Y64135000D03*
%TD*%
%TO.P,K95,1*%
%TO.N,20*%
X61753750Y23495000D03*
%TO.P,K95,2*%
%TO.N,Net-(D95-Pad2)*%
X68103750Y26035000D03*
%TD*%
%TO.P,K111,1*%
%TO.N,21*%
X6985000Y4445000D03*
%TO.P,K111,2*%
%TO.N,Net-(D111-Pad2)*%
X13335000Y6985000D03*
%TD*%
%TO.P,K50,1*%
%TO.N,10*%
X459422500Y80645000D03*
%TO.P,K50,2*%
%TO.N,Net-(D50-Pad2)*%
X465772500Y83185000D03*
%TD*%
%TO.P,K104,1*%
%TO.N,16*%
X245110000Y23495000D03*
%TO.P,K104,2*%
%TO.N,Net-(D104-Pad2)*%
X251460000Y26035000D03*
%TD*%
%TO.P,K25,1*%
%TO.N,13*%
X340360000Y109220000D03*
%TO.P,K25,2*%
%TO.N,Net-(D25-Pad2)*%
X346710000Y111760000D03*
%TD*%
%TO.P,K52,1*%
%TO.N,21*%
X26035000Y61595000D03*
%TO.P,K52,2*%
%TO.N,Net-(D52-Pad2)*%
X32385000Y64135000D03*
%TD*%
%TO.P,K2,1*%
%TO.N,19*%
X87947500Y128270000D03*
%TO.P,K2,2*%
%TO.N,Net-(D2-Pad2)*%
X94297500Y130810000D03*
%TD*%
%TO.P,K100,1*%
%TO.N,18*%
X168910000Y23495000D03*
%TO.P,K100,2*%
%TO.N,Net-(D100-Pad2)*%
X175260000Y26035000D03*
%TD*%
%TO.P,K89,1*%
%TO.N,12*%
X402272500Y42545000D03*
%TO.P,K89,2*%
%TO.N,Net-(D89-Pad2)*%
X408622500Y45085000D03*
%TD*%
%TO.P,K88,1*%
%TO.N,14*%
X304641250Y42545000D03*
%TO.P,K88,2*%
%TO.N,Net-(D88-Pad2)*%
X310991250Y45085000D03*
%TD*%
%TO.P,K26,1*%
%TO.N,13*%
X359410000Y109220000D03*
%TO.P,K26,2*%
%TO.N,Net-(D26-Pad2)*%
X365760000Y111760000D03*
%TD*%
%TO.P,K80,1*%
%TO.N,18*%
X140335000Y42545000D03*
%TO.P,K80,2*%
%TO.N,Net-(D80-Pad2)*%
X146685000Y45085000D03*
%TD*%
%TO.P,K77,1*%
%TO.N,20*%
X83185000Y42545000D03*
%TO.P,K77,2*%
%TO.N,Net-(D77-Pad2)*%
X89535000Y45085000D03*
%TD*%
%TO.P,K122,1*%
%TO.N,13*%
X359410000Y4445000D03*
%TO.P,K122,2*%
%TO.N,Net-(D122-Pad2)*%
X365760000Y6985000D03*
%TD*%
%TO.P,K46,1*%
%TO.N,12*%
X378460000Y80645000D03*
%TO.P,K46,2*%
%TO.N,Net-(D46-Pad2)*%
X384810000Y83185000D03*
%TD*%
%TO.P,K126,1*%
%TO.N,11*%
X440372500Y4445000D03*
%TO.P,K126,2*%
%TO.N,Net-(D126-Pad2)*%
X446722500Y6985000D03*
%TD*%
%TO.P,K112,1*%
%TO.N,21*%
X26035000Y4445000D03*
%TO.P,K112,2*%
%TO.N,Net-(D112-Pad2)*%
X32385000Y6985000D03*
%TD*%
%TO.P,K113,1*%
%TO.N,20*%
X52228750Y4445000D03*
%TO.P,K113,2*%
%TO.N,Net-(D113-Pad2)*%
X58578750Y6985000D03*
%TD*%
%TO.P,K65,1*%
%TO.N,14*%
X287972500Y61595000D03*
%TO.P,K65,2*%
%TO.N,Net-(D65-Pad2)*%
X294322500Y64135000D03*
%TD*%
%TO.P,K54,1*%
%TO.N,20*%
X78422500Y61595000D03*
%TO.P,K54,2*%
%TO.N,Net-(D54-Pad2)*%
X84772500Y64135000D03*
%TD*%
%TO.P,K76,1*%
%TO.N,20*%
X56991250Y42545000D03*
%TO.P,K76,2*%
%TO.N,Net-(D76-Pad2)*%
X63341250Y45085000D03*
%TD*%
%TO.P,K78,1*%
%TO.N,19*%
X102235000Y42545000D03*
%TO.P,K78,2*%
%TO.N,Net-(D78-Pad2)*%
X108585000Y45085000D03*
%TD*%
%TO.P,K51,1*%
%TO.N,21*%
X6985000Y61595000D03*
%TO.P,K51,2*%
%TO.N,Net-(D51-Pad2)*%
X13335000Y64135000D03*
%TD*%
%TO.P,K101,1*%
%TO.N,17*%
X187960000Y23495000D03*
%TO.P,K101,2*%
%TO.N,Net-(D101-Pad2)*%
X194310000Y26035000D03*
%TD*%
%TO.P,K57,1*%
%TO.N,18*%
X135572500Y61595000D03*
%TO.P,K57,2*%
%TO.N,Net-(D57-Pad2)*%
X141922500Y64135000D03*
%TD*%
%TO.P,K64,1*%
%TO.N,15*%
X268922500Y61595000D03*
%TO.P,K64,2*%
%TO.N,Net-(D64-Pad2)*%
X275272500Y64135000D03*
%TD*%
%TO.P,K105,1*%
%TO.N,15*%
X264160000Y23495000D03*
%TO.P,K105,2*%
%TO.N,Net-(D105-Pad2)*%
X270510000Y26035000D03*
%TD*%
%TO.P,K32,1*%
%TO.N,19*%
X87947500Y80645000D03*
%TO.P,K32,2*%
%TO.N,Net-(D32-Pad2)*%
X94297500Y83185000D03*
%TD*%
%TO.P,K27,1*%
%TO.N,12*%
X378460000Y109220000D03*
%TO.P,K27,2*%
%TO.N,Net-(D27-Pad2)*%
X384810000Y111760000D03*
%TD*%
%TO.P,K13,1*%
%TO.N,19*%
X87947500Y109220000D03*
%TO.P,K13,2*%
%TO.N,Net-(D13-Pad2)*%
X94297500Y111760000D03*
%TD*%
%TO.P,K94,1*%
%TO.N,21*%
X26035000Y23495000D03*
%TO.P,K94,2*%
%TO.N,Net-(D94-Pad2)*%
X32385000Y26035000D03*
%TD*%
%TO.P,K93,1*%
%TO.N,21*%
X6985000Y23495000D03*
%TO.P,K93,2*%
%TO.N,Net-(D93-Pad2)*%
X13335000Y26035000D03*
%TD*%
%TO.P,K109,1*%
%TO.N,11*%
X421322500Y23495000D03*
%TO.P,K109,2*%
%TO.N,Net-(D109-Pad2)*%
X427672500Y26035000D03*
%TD*%
%TO.P,K48,1*%
%TO.N,11*%
X421322500Y80645000D03*
%TO.P,K48,2*%
%TO.N,Net-(D48-Pad2)*%
X427672500Y83185000D03*
%TD*%
%TO.P,K58,1*%
%TO.N,18*%
X154622500Y61595000D03*
%TO.P,K58,2*%
%TO.N,Net-(D58-Pad2)*%
X160972500Y64135000D03*
%TD*%
%TO.P,K68,1*%
%TO.N,13*%
X359410000Y61595000D03*
%TO.P,K68,2*%
%TO.N,Net-(D68-Pad2)*%
X365760000Y64135000D03*
%TD*%
D10*
%TO.P,KT2,1*%
%TO.N,15*%
X286479500Y133350000D03*
D11*
%TO.P,KT2,2*%
%TO.N,Net-(DT2-Pad2)*%
X286479500Y130810000D03*
%TD*%
D12*
%TO.P,K45,1*%
%TO.N,13*%
X359410000Y80645000D03*
%TO.P,K45,2*%
%TO.N,Net-(D45-Pad2)*%
X365760000Y83185000D03*
%TD*%
%TO.P,K69,1*%
%TO.N,12*%
X378460000Y61595000D03*
%TO.P,K69,2*%
%TO.N,Net-(D69-Pad2)*%
X384810000Y64135000D03*
%TD*%
%TO.P,K67,1*%
%TO.N,13*%
X340360000Y61595000D03*
%TO.P,K67,2*%
%TO.N,Net-(D67-Pad2)*%
X346710000Y64135000D03*
%TD*%
%TO.P,K72,1*%
%TO.N,11*%
X440372500Y61595000D03*
%TO.P,K72,2*%
%TO.N,Net-(D72-Pad2)*%
X446722500Y64135000D03*
%TD*%
D10*
%TO.P,KT1,1*%
%TO.N,15*%
X267429500Y133350000D03*
D11*
%TO.P,KT1,2*%
%TO.N,Net-(DT1-Pad2)*%
X267429500Y130810000D03*
%TD*%
D12*
%TO.P,K1,1*%
%TO.N,21*%
X6985000Y128270000D03*
%TO.P,K1,2*%
%TO.N,Net-(D1-Pad2)*%
X13335000Y130810000D03*
%TD*%
%TO.P,K11,1*%
%TO.N,13*%
X359410000Y128270000D03*
%TO.P,K11,2*%
%TO.N,Net-(D11-Pad2)*%
X365760000Y130810000D03*
%TD*%
%TO.P,K10,1*%
%TO.N,13*%
X340360000Y128270000D03*
%TO.P,K10,2*%
%TO.N,Net-(D10-Pad2)*%
X346710000Y130810000D03*
%TD*%
%TO.P,K74,1*%
%TO.N,21*%
X6985000Y42545000D03*
%TO.P,K74,2*%
%TO.N,Net-(D74-Pad2)*%
X13335000Y45085000D03*
%TD*%
%TO.P,K23,1*%
%TO.N,14*%
X297497500Y109220000D03*
%TO.P,K23,2*%
%TO.N,Net-(D23-Pad2)*%
X303847500Y111760000D03*
%TD*%
%TO.P,K120,1*%
%TO.N,15*%
X314166250Y4445000D03*
%TO.P,K120,2*%
%TO.N,Net-(D120-Pad2)*%
X320516250Y6985000D03*
%TD*%
%TO.P,K28,1*%
%TO.N,21*%
X6985000Y80645000D03*
%TO.P,K28,2*%
%TO.N,Net-(D28-Pad2)*%
X13335000Y83185000D03*
%TD*%
%TO.P,K96,1*%
%TO.N,20*%
X92710000Y23495000D03*
%TO.P,K96,2*%
%TO.N,Net-(D96-Pad2)*%
X99060000Y26035000D03*
%TD*%
%TO.P,K118,1*%
%TO.N,16*%
X266541250Y4445000D03*
%TO.P,K118,2*%
%TO.N,Net-(D118-Pad2)*%
X272891250Y6985000D03*
%TD*%
%TO.P,K87,1*%
%TO.N,15*%
X273685000Y42545000D03*
%TO.P,K87,2*%
%TO.N,Net-(D87-Pad2)*%
X280035000Y45085000D03*
%TD*%
%TO.P,K116,1*%
%TO.N,18*%
X171291250Y4445000D03*
%TO.P,K116,2*%
%TO.N,Net-(D116-Pad2)*%
X177641250Y6985000D03*
%TD*%
%TO.P,K114,1*%
%TO.N,20*%
X76041250Y4445000D03*
%TO.P,K114,2*%
%TO.N,Net-(D114-Pad2)*%
X82391250Y6985000D03*
%TD*%
%TO.P,K6,1*%
%TO.N,17*%
X173672500Y128270000D03*
%TO.P,K6,2*%
%TO.N,Net-(D6-Pad2)*%
X180022500Y130810000D03*
%TD*%
%TO.P,K91,1*%
%TO.N,11*%
X440372500Y42545000D03*
%TO.P,K91,2*%
%TO.N,Net-(D91-Pad2)*%
X446722500Y45085000D03*
%TD*%
%TO.P,K56,1*%
%TO.N,19*%
X116522500Y61595000D03*
%TO.P,K56,2*%
%TO.N,Net-(D56-Pad2)*%
X122872500Y64135000D03*
%TD*%
%TO.P,K15,1*%
%TO.N,18*%
X126047500Y109220000D03*
%TO.P,K15,2*%
%TO.N,Net-(D15-Pad2)*%
X132397500Y111760000D03*
%TD*%
%TO.P,K62,1*%
%TO.N,16*%
X230822500Y61595000D03*
%TO.P,K62,2*%
%TO.N,Net-(D62-Pad2)*%
X237172500Y64135000D03*
%TD*%
%TO.P,K22,1*%
%TO.N,15*%
X278447500Y109220000D03*
%TO.P,K22,2*%
%TO.N,Net-(D22-Pad2)*%
X284797500Y111760000D03*
%TD*%
%TO.P,K107,1*%
%TO.N,13*%
X359410000Y23495000D03*
%TO.P,K107,2*%
%TO.N,Net-(D107-Pad2)*%
X365760000Y26035000D03*
%TD*%
%TO.P,K98,1*%
%TO.N,19*%
X130810000Y23495000D03*
%TO.P,K98,2*%
%TO.N,Net-(D98-Pad2)*%
X137160000Y26035000D03*
%TD*%
%TO.P,K66,1*%
%TO.N,14*%
X311785000Y61595000D03*
%TO.P,K66,2*%
%TO.N,Net-(D66-Pad2)*%
X318135000Y64135000D03*
%TD*%
%TO.P,K47,1*%
%TO.N,12*%
X402272500Y80645000D03*
%TO.P,K47,2*%
%TO.N,Net-(D47-Pad2)*%
X408622500Y83185000D03*
%TD*%
%TO.P,K102,1*%
%TO.N,17*%
X207010000Y23495000D03*
%TO.P,K102,2*%
%TO.N,Net-(D102-Pad2)*%
X213360000Y26035000D03*
%TD*%
%TO.P,K12,1*%
%TO.N,12*%
X378460000Y128270000D03*
%TO.P,K12,2*%
%TO.N,Net-(D12-Pad2)*%
X384810000Y130810000D03*
%TD*%
%TO.P,K99,1*%
%TO.N,18*%
X149860000Y23495000D03*
%TO.P,K99,2*%
%TO.N,Net-(D99-Pad2)*%
X156210000Y26035000D03*
%TD*%
D10*
%TO.P,KT3,1*%
%TO.N,14*%
X305529500Y133350000D03*
D11*
%TO.P,KT3,2*%
%TO.N,Net-(DT3-Pad2)*%
X305529500Y130810000D03*
%TD*%
D12*
%TO.P,K117,1*%
%TO.N,16*%
X242728750Y4445000D03*
%TO.P,K117,2*%
%TO.N,Net-(D117-Pad2)*%
X249078750Y6985000D03*
%TD*%
%TO.P,K60,1*%
%TO.N,17*%
X192722500Y61595000D03*
%TO.P,K60,2*%
%TO.N,Net-(D60-Pad2)*%
X199072500Y64135000D03*
%TD*%
%TO.P,K33,1*%
%TO.N,19*%
X106997500Y80645000D03*
%TO.P,K33,2*%
%TO.N,Net-(D33-Pad2)*%
X113347500Y83185000D03*
%TD*%
%TO.P,K36,1*%
%TO.N,17*%
X164147500Y80645000D03*
%TO.P,K36,2*%
%TO.N,Net-(D36-Pad2)*%
X170497500Y83185000D03*
%TD*%
%TO.P,K97,1*%
%TO.N,19*%
X111760000Y23495000D03*
%TO.P,K97,2*%
%TO.N,Net-(D97-Pad2)*%
X118110000Y26035000D03*
%TD*%
%TO.P,K34,1*%
%TO.N,18*%
X126047500Y80645000D03*
%TO.P,K34,2*%
%TO.N,Net-(D34-Pad2)*%
X132397500Y83185000D03*
%TD*%
%TO.P,K53,1*%
%TO.N,20*%
X54610000Y61595000D03*
%TO.P,K53,2*%
%TO.N,Net-(D53-Pad2)*%
X60960000Y64135000D03*
%TD*%
%TO.P,K124,1*%
%TO.N,12*%
X402272500Y4445000D03*
%TO.P,K124,2*%
%TO.N,Net-(D124-Pad2)*%
X408622500Y6985000D03*
%TD*%
%TO.P,K19,1*%
%TO.N,16*%
X211772500Y109220000D03*
%TO.P,K19,2*%
%TO.N,Net-(D19-Pad2)*%
X218122500Y111760000D03*
%TD*%
%TO.P,K119,1*%
%TO.N,15*%
X290353750Y4445000D03*
%TO.P,K119,2*%
%TO.N,Net-(D119-Pad2)*%
X296703750Y6985000D03*
%TD*%
%TO.P,K86,1*%
%TO.N,15*%
X254635000Y42545000D03*
%TO.P,K86,2*%
%TO.N,Net-(D86-Pad2)*%
X260985000Y45085000D03*
%TD*%
%TO.P,K18,1*%
%TO.N,17*%
X192722500Y109220000D03*
%TO.P,K18,2*%
%TO.N,Net-(D18-Pad2)*%
X199072500Y111760000D03*
%TD*%
%TO.P,K108,1*%
%TO.N,12*%
X402272500Y23495000D03*
%TO.P,K108,2*%
%TO.N,Net-(D108-Pad2)*%
X408622500Y26035000D03*
%TD*%
%TO.P,K115,1*%
%TO.N,19*%
X99853750Y4445000D03*
%TO.P,K115,2*%
%TO.N,Net-(D115-Pad2)*%
X106203750Y6985000D03*
%TD*%
%TO.P,K5,1*%
%TO.N,18*%
X145097500Y128270000D03*
%TO.P,K5,2*%
%TO.N,Net-(D5-Pad2)*%
X151447500Y130810000D03*
%TD*%
%TO.P,K127,1*%
%TO.N,10*%
X467042500Y16510000D03*
%TO.P,K127,2*%
%TO.N,Net-(D127-Pad2)*%
X464502500Y22860000D03*
%TD*%
%TO.P,K63,1*%
%TO.N,15*%
X249872500Y61595000D03*
%TO.P,K63,2*%
%TO.N,Net-(D63-Pad2)*%
X256222500Y64135000D03*
%TD*%
%TO.P,K41,1*%
%TO.N,15*%
X259397500Y80645000D03*
%TO.P,K41,2*%
%TO.N,Net-(D41-Pad2)*%
X265747500Y83185000D03*
%TD*%
%TO.P,K31,1*%
%TO.N,20*%
X68897500Y80645000D03*
%TO.P,K31,2*%
%TO.N,Net-(D31-Pad2)*%
X75247500Y83185000D03*
%TD*%
%TO.P,K75,1*%
%TO.N,21*%
X26035000Y42545000D03*
%TO.P,K75,2*%
%TO.N,Net-(D75-Pad2)*%
X32385000Y45085000D03*
%TD*%
%TO.P,K4,1*%
%TO.N,18*%
X126047500Y128270000D03*
%TO.P,K4,2*%
%TO.N,Net-(D4-Pad2)*%
X132397500Y130810000D03*
%TD*%
%TO.P,K43,1*%
%TO.N,14*%
X307022500Y80645000D03*
%TO.P,K43,2*%
%TO.N,Net-(D43-Pad2)*%
X313372500Y83185000D03*
%TD*%
%TO.P,K106,1*%
%TO.N,15*%
X299878750Y23495000D03*
%TO.P,K106,2*%
%TO.N,Net-(D106-Pad2)*%
X306228750Y26035000D03*
%TD*%
%TO.P,K21,1*%
%TO.N,15*%
X259397500Y109220000D03*
%TO.P,K21,2*%
%TO.N,Net-(D21-Pad2)*%
X265747500Y111760000D03*
%TD*%
%TO.P,K55,1*%
%TO.N,19*%
X97472500Y61595000D03*
%TO.P,K55,2*%
%TO.N,Net-(D55-Pad2)*%
X103822500Y64135000D03*
%TD*%
%TO.P,K9,1*%
%TO.N,16*%
X230822500Y128270000D03*
%TO.P,K9,2*%
%TO.N,Net-(D9-Pad2)*%
X237172500Y130810000D03*
%TD*%
%TO.P,K40,1*%
%TO.N,15*%
X240347500Y80645000D03*
%TO.P,K40,2*%
%TO.N,Net-(D40-Pad2)*%
X246697500Y83185000D03*
%TD*%
%TO.P,K121,1*%
%TO.N,13*%
X340360000Y4445000D03*
%TO.P,K121,2*%
%TO.N,Net-(D121-Pad2)*%
X346710000Y6985000D03*
%TD*%
%TO.P,K16,1*%
%TO.N,18*%
X145097500Y109220000D03*
%TO.P,K16,2*%
%TO.N,Net-(D16-Pad2)*%
X151447500Y111760000D03*
%TD*%
%TO.P,K85,1*%
%TO.N,16*%
X235585000Y42545000D03*
%TO.P,K85,2*%
%TO.N,Net-(D85-Pad2)*%
X241935000Y45085000D03*
%TD*%
D11*
%TO.P,SWA1,1,A*%
%TO.N,Net-(DA1-Pad2)*%
X456470500Y135890000D03*
D10*
%TO.P,SWA1,2,B*%
%TO.N,10*%
X456470500Y133350000D03*
D11*
%TO.P,SWA1,3,C*%
%TO.N,Net-(DA2-Pad2)*%
X456470500Y130810000D03*
%TD*%
D12*
%TO.P,K14,1*%
%TO.N,19*%
X106997500Y109220000D03*
%TO.P,K14,2*%
%TO.N,Net-(D14-Pad2)*%
X113347500Y111760000D03*
%TD*%
%TO.P,K7,1*%
%TO.N,17*%
X192722500Y128270000D03*
%TO.P,K7,2*%
%TO.N,Net-(D7-Pad2)*%
X199072500Y130810000D03*
%TD*%
%TO.P,K71,1*%
%TO.N,11*%
X421322500Y61595000D03*
%TO.P,K71,2*%
%TO.N,Net-(D71-Pad2)*%
X427672500Y64135000D03*
%TD*%
%TO.P,K103,1*%
%TO.N,16*%
X226060000Y23495000D03*
%TO.P,K103,2*%
%TO.N,Net-(D103-Pad2)*%
X232410000Y26035000D03*
%TD*%
D15*
%TO.P,CP4,1*%
%TO.N,GND*%
X422941750Y135320900D03*
%TO.P,CP4,2*%
%TO.N,VBUS*%
X422941750Y134350900D03*
%TD*%
D16*
%TO.P,D88,1,K*%
%TO.N,4*%
X310356250Y50706250D03*
%TO.P,D88,2,A*%
%TO.N,Net-(D88-Pad2)*%
X310356250Y49306250D03*
%TD*%
D15*
%TO.P,CP17,1*%
%TO.N,+3V3*%
X397287750Y133263500D03*
%TO.P,CP17,2*%
%TO.N,GND*%
X397287750Y132293500D03*
%TD*%
D16*
%TO.P,D11,1,K*%
%TO.N,25*%
X365125000Y136431250D03*
%TO.P,D11,2,A*%
%TO.N,Net-(D11-Pad2)*%
X365125000Y135031250D03*
%TD*%
%TO.P,D25,1,K*%
%TO.N,23*%
X346075000Y117381250D03*
%TO.P,D25,2,A*%
%TO.N,Net-(D25-Pad2)*%
X346075000Y115981250D03*
%TD*%
%TO.P,D103,1,K*%
%TO.N,6*%
X231775000Y31656250D03*
%TO.P,D103,2,A*%
%TO.N,Net-(D103-Pad2)*%
X231775000Y30256250D03*
%TD*%
%TO.P,D89,1,K*%
%TO.N,5*%
X407987500Y50706250D03*
%TO.P,D89,2,A*%
%TO.N,Net-(D89-Pad2)*%
X407987500Y49306250D03*
%TD*%
D17*
%TO.P,CP10,1*%
%TO.N,+3V3*%
X400716750Y134452500D03*
%TO.P,CP10,2*%
%TO.N,GND*%
X400716750Y135422500D03*
%TD*%
D16*
%TO.P,D71,1,K*%
%TO.N,2*%
X427037500Y69756250D03*
%TO.P,D71,2,A*%
%TO.N,Net-(D71-Pad2)*%
X427037500Y68356250D03*
%TD*%
%TO.P,D47,1,K*%
%TO.N,1*%
X407987500Y88806250D03*
%TO.P,D47,2,A*%
%TO.N,Net-(D47-Pad2)*%
X407987500Y87406250D03*
%TD*%
D15*
%TO.P,CP16,1*%
%TO.N,+3V3*%
X398430750Y133263500D03*
%TO.P,CP16,2*%
%TO.N,GND*%
X398430750Y132293500D03*
%TD*%
D16*
%TO.P,D59,1,K*%
%TO.N,2*%
X179387500Y69756250D03*
%TO.P,D59,2,A*%
%TO.N,Net-(D59-Pad2)*%
X179387500Y68356250D03*
%TD*%
D15*
%TO.P,RD1,1*%
%TO.N,DB+*%
X432746150Y121928750D03*
%TO.P,RD1,2*%
%TO.N,Net-(RD1-Pad2)*%
X432746150Y120958750D03*
%TD*%
D16*
%TO.P,D51,1,K*%
%TO.N,2*%
X12700000Y69756250D03*
%TO.P,D51,2,A*%
%TO.N,Net-(D51-Pad2)*%
X12700000Y68356250D03*
%TD*%
%TO.P,D82,1,K*%
%TO.N,4*%
X184150000Y50706250D03*
%TO.P,D82,2,A*%
%TO.N,Net-(D82-Pad2)*%
X184150000Y49306250D03*
%TD*%
D17*
%TO.P,RF1,1*%
%TO.N,CS*%
X444658750Y117815500D03*
%TO.P,RF1,2*%
%TO.N,GND*%
X444658750Y118785500D03*
%TD*%
D16*
%TO.P,D124,1,K*%
%TO.N,9*%
X407987500Y12606250D03*
%TO.P,D124,2,A*%
%TO.N,Net-(D124-Pad2)*%
X407987500Y11206250D03*
%TD*%
%TO.P,D125,1,K*%
%TO.N,8*%
X427037500Y12606250D03*
%TO.P,D125,2,A*%
%TO.N,Net-(D125-Pad2)*%
X427037500Y11206250D03*
%TD*%
%TO.P,D78,1,K*%
%TO.N,4*%
X107950000Y50706250D03*
%TO.P,D78,2,A*%
%TO.N,Net-(D78-Pad2)*%
X107950000Y49306250D03*
%TD*%
D18*
%TO.P,U3,1,I/O1*%
%TO.N,DB+*%
X440020750Y128275500D03*
%TO.P,U3,2,GND*%
%TO.N,GND*%
X439070750Y128275500D03*
%TO.P,U3,3,I/O2*%
%TO.N,DB-*%
X438120750Y128275500D03*
%TO.P,U3,4,I/O2*%
%TO.N,D-*%
X438120750Y130550500D03*
%TO.P,U3,5,VBUS*%
%TO.N,VBUS*%
X439070750Y130550500D03*
%TO.P,U3,6,I/O1*%
%TO.N,D+*%
X440020750Y130550500D03*
%TD*%
D16*
%TO.P,D58,1,K*%
%TO.N,3*%
X160337500Y69756250D03*
%TO.P,D58,2,A*%
%TO.N,Net-(D58-Pad2)*%
X160337500Y68356250D03*
%TD*%
%TO.P,D1,1,K*%
%TO.N,24*%
X12700000Y136431250D03*
%TO.P,D1,2,A*%
%TO.N,Net-(D1-Pad2)*%
X12700000Y135031250D03*
%TD*%
%TO.P,D116,1,K*%
%TO.N,9*%
X177006250Y12606250D03*
%TO.P,D116,2,A*%
%TO.N,Net-(D116-Pad2)*%
X177006250Y11206250D03*
%TD*%
%TO.P,D27,1,K*%
%TO.N,23*%
X384175000Y117381250D03*
%TO.P,D27,2,A*%
%TO.N,Net-(D27-Pad2)*%
X384175000Y115981250D03*
%TD*%
%TO.P,D24,1,K*%
%TO.N,22*%
X322262500Y117381250D03*
%TO.P,D24,2,A*%
%TO.N,Net-(D24-Pad2)*%
X322262500Y115981250D03*
%TD*%
%TO.P,D17,1,K*%
%TO.N,23*%
X179387500Y117381250D03*
%TO.P,D17,2,A*%
%TO.N,Net-(D17-Pad2)*%
X179387500Y115981250D03*
%TD*%
%TO.P,D43,1,K*%
%TO.N,1*%
X312737500Y88806250D03*
%TO.P,D43,2,A*%
%TO.N,Net-(D43-Pad2)*%
X312737500Y87406250D03*
%TD*%
%TO.P,D113,1,K*%
%TO.N,8*%
X57943750Y12606250D03*
%TO.P,D113,2,A*%
%TO.N,Net-(D113-Pad2)*%
X57943750Y11206250D03*
%TD*%
%TO.P,D76,1,K*%
%TO.N,4*%
X62706250Y50706250D03*
%TO.P,D76,2,A*%
%TO.N,Net-(D76-Pad2)*%
X62706250Y49306250D03*
%TD*%
%TO.P,D60,1,K*%
%TO.N,3*%
X198437500Y69756250D03*
%TO.P,D60,2,A*%
%TO.N,Net-(D60-Pad2)*%
X198437500Y68356250D03*
%TD*%
%TO.P,D20,1,K*%
%TO.N,22*%
X236537500Y117381250D03*
%TO.P,D20,2,A*%
%TO.N,Net-(D20-Pad2)*%
X236537500Y115981250D03*
%TD*%
%TO.P,D72,1,K*%
%TO.N,3*%
X446087500Y69756250D03*
%TO.P,D72,2,A*%
%TO.N,Net-(D72-Pad2)*%
X446087500Y68356250D03*
%TD*%
%TO.P,D54,1,K*%
%TO.N,3*%
X84137500Y69756250D03*
%TO.P,D54,2,A*%
%TO.N,Net-(D54-Pad2)*%
X84137500Y68356250D03*
%TD*%
D19*
%TO.P,U0,1,IOVDD*%
%TO.N,+3V3*%
X436825000Y113725000D03*
%TO.P,U0,2,GPIO0*%
%TO.N,0*%
X436825000Y113325000D03*
%TO.P,U0,3,GPIO1*%
%TO.N,1*%
X436825000Y112925000D03*
%TO.P,U0,4,GPIO2*%
%TO.N,2*%
X436825000Y112525000D03*
%TO.P,U0,5,GPIO3*%
%TO.N,3*%
X436825000Y112125000D03*
%TO.P,U0,6,GPIO4*%
%TO.N,4*%
X436825000Y111725000D03*
%TO.P,U0,7,GPIO5*%
%TO.N,5*%
X436825000Y111325000D03*
%TO.P,U0,8,GPIO6*%
%TO.N,6*%
X436825000Y110925000D03*
%TO.P,U0,9,GPIO7*%
%TO.N,7*%
X436825000Y110525000D03*
%TO.P,U0,10,IOVDD*%
%TO.N,+3V3*%
X436825000Y110125000D03*
%TO.P,U0,11,GPIO8*%
%TO.N,8*%
X436825000Y109725000D03*
%TO.P,U0,12,GPIO9*%
%TO.N,9*%
X436825000Y109325000D03*
%TO.P,U0,13,GPIO10*%
%TO.N,10*%
X436825000Y108925000D03*
%TO.P,U0,14,GPIO11*%
%TO.N,11*%
X436825000Y108525000D03*
D20*
%TO.P,U0,15,GPIO12*%
%TO.N,12*%
X435987500Y107687500D03*
%TO.P,U0,16,GPIO13*%
%TO.N,13*%
X435587500Y107687500D03*
%TO.P,U0,17,GPIO14*%
%TO.N,14*%
X435187500Y107687500D03*
%TO.P,U0,18,GPIO15*%
%TO.N,15*%
X434787500Y107687500D03*
%TO.P,U0,19,TESTEN*%
%TO.N,GND*%
X434387500Y107687500D03*
%TO.P,U0,20,XIN*%
%TO.N,XIN*%
X433987500Y107687500D03*
%TO.P,U0,21,XOUT*%
%TO.N,XOUT*%
X433587500Y107687500D03*
%TO.P,U0,22,IOVDD*%
%TO.N,+3V3*%
X433187500Y107687500D03*
%TO.P,U0,23,DVDD*%
%TO.N,+1V1*%
X432787500Y107687500D03*
%TO.P,U0,24,SWCLK*%
%TO.N,unconnected-(U0-Pad24)*%
X432387500Y107687500D03*
%TO.P,U0,25,SWDIO*%
%TO.N,unconnected-(U0-Pad25)*%
X431987500Y107687500D03*
%TO.P,U0,26,RUN*%
%TO.N,~{RESET}*%
X431587500Y107687500D03*
%TO.P,U0,27,GPIO16*%
%TO.N,16*%
X431187500Y107687500D03*
%TO.P,U0,28,GPIO17*%
%TO.N,17*%
X430787500Y107687500D03*
D19*
%TO.P,U0,29,GPIO18*%
%TO.N,18*%
X429950000Y108525000D03*
%TO.P,U0,30,GPIO19*%
%TO.N,19*%
X429950000Y108925000D03*
%TO.P,U0,31,GPIO20*%
%TO.N,20*%
X429950000Y109325000D03*
%TO.P,U0,32,GPIO21*%
%TO.N,21*%
X429950000Y109725000D03*
%TO.P,U0,33,IOVDD*%
%TO.N,+3V3*%
X429950000Y110125000D03*
%TO.P,U0,34,GPIO22*%
%TO.N,22*%
X429950000Y110525000D03*
%TO.P,U0,35,GPIO23*%
%TO.N,23*%
X429950000Y110925000D03*
%TO.P,U0,36,GPIO24*%
%TO.N,24*%
X429950000Y111325000D03*
%TO.P,U0,37,GPIO25*%
%TO.N,25*%
X429950000Y111725000D03*
%TO.P,U0,38,GPIO26/ADC0*%
%TO.N,26{slash}A0*%
X429950000Y112125000D03*
%TO.P,U0,39,GPIO27/ADC1*%
%TO.N,27{slash}A1*%
X429950000Y112525000D03*
%TO.P,U0,40,GPIO28/ADC2*%
%TO.N,28{slash}A2*%
X429950000Y112925000D03*
%TO.P,U0,41,GPIO29/ADC3*%
%TO.N,29{slash}A3*%
X429950000Y113325000D03*
%TO.P,U0,42,IOVDD*%
%TO.N,+3V3*%
X429950000Y113725000D03*
D20*
%TO.P,U0,43,ADC_AVDD*%
X430787500Y114562500D03*
%TO.P,U0,44,VREG_VIN*%
X431187500Y114562500D03*
%TO.P,U0,45,VREG_VOUT*%
%TO.N,+1V1*%
X431587500Y114562500D03*
%TO.P,U0,46,USB_DM*%
%TO.N,Net-(RD2-Pad2)*%
X431987500Y114562500D03*
%TO.P,U0,47,USB_DP*%
%TO.N,Net-(RD1-Pad2)*%
X432387500Y114562500D03*
%TO.P,U0,48,USB_VDD*%
%TO.N,+3V3*%
X432787500Y114562500D03*
%TO.P,U0,49,IOVDD*%
X433187500Y114562500D03*
%TO.P,U0,50,DVDD*%
%TO.N,+1V1*%
X433587500Y114562500D03*
%TO.P,U0,51,QSPI_SD3*%
%TO.N,SD3*%
X433987500Y114562500D03*
%TO.P,U0,52,QSPI_SCLK*%
%TO.N,CLOCK*%
X434387500Y114562500D03*
%TO.P,U0,53,QSPI_SD0*%
%TO.N,SD0*%
X434787500Y114562500D03*
%TO.P,U0,54,QSPI_SD2*%
%TO.N,SD2*%
X435187500Y114562500D03*
%TO.P,U0,55,QSPI_SD1*%
%TO.N,SD1*%
X435587500Y114562500D03*
%TO.P,U0,56,QSPI_SS_N*%
%TO.N,CS*%
X435987500Y114562500D03*
D21*
%TO.P,U0,57,GND*%
%TO.N,GND*%
X433387500Y112125000D03*
X433387500Y110125000D03*
D22*
X433387500Y111125000D03*
D21*
X432387500Y111125000D03*
X434387500Y111125000D03*
%TD*%
D16*
%TO.P,DT4,1,K*%
%TO.N,25*%
X324643750Y126300000D03*
%TO.P,DT4,2,A*%
%TO.N,Net-(DT4-Pad2)*%
X324643750Y127700000D03*
%TD*%
%TO.P,D57,1,K*%
%TO.N,2*%
X141287500Y69756250D03*
%TO.P,D57,2,A*%
%TO.N,Net-(D57-Pad2)*%
X141287500Y68356250D03*
%TD*%
%TO.P,D101,1,K*%
%TO.N,6*%
X193675000Y31656250D03*
%TO.P,D101,2,A*%
%TO.N,Net-(D101-Pad2)*%
X193675000Y30256250D03*
%TD*%
%TO.P,D2,1,K*%
%TO.N,24*%
X93662500Y136431250D03*
%TO.P,D2,2,A*%
%TO.N,Net-(D2-Pad2)*%
X93662500Y135031250D03*
%TD*%
%TO.P,D120,1,K*%
%TO.N,9*%
X319881250Y12606250D03*
%TO.P,D120,2,A*%
%TO.N,Net-(D120-Pad2)*%
X319881250Y11206250D03*
%TD*%
D17*
%TO.P,C8,1*%
%TO.N,+3V3*%
X430536350Y116494700D03*
%TO.P,C8,2*%
%TO.N,GND*%
X430536350Y117464700D03*
%TD*%
D23*
%TO.P,C2,1*%
%TO.N,+3V3*%
X438458750Y114617500D03*
%TO.P,C2,2*%
%TO.N,GND*%
X439428750Y114617500D03*
%TD*%
D16*
%TO.P,D95,1,K*%
%TO.N,6*%
X67468750Y31656250D03*
%TO.P,D95,2,A*%
%TO.N,Net-(D95-Pad2)*%
X67468750Y30256250D03*
%TD*%
D24*
%TO.P,C10,1*%
%TO.N,+1V1*%
X432570750Y105854500D03*
%TO.P,C10,2*%
%TO.N,GND*%
X431600750Y105854500D03*
%TD*%
D16*
%TO.P,D8,1,K*%
%TO.N,24*%
X217487500Y136431250D03*
%TO.P,D8,2,A*%
%TO.N,Net-(D8-Pad2)*%
X217487500Y135031250D03*
%TD*%
D15*
%TO.P,CP2,1*%
%TO.N,GND*%
X420655750Y135320900D03*
%TO.P,CP2,2*%
%TO.N,VBUS*%
X420655750Y134350900D03*
%TD*%
D16*
%TO.P,DT1,1,K*%
%TO.N,24*%
X267493750Y126300000D03*
%TO.P,DT1,2,A*%
%TO.N,Net-(DT1-Pad2)*%
X267493750Y127700000D03*
%TD*%
%TO.P,D63,1,K*%
%TO.N,2*%
X255587500Y69756250D03*
%TO.P,D63,2,A*%
%TO.N,Net-(D63-Pad2)*%
X255587500Y68356250D03*
%TD*%
%TO.P,D80,1,K*%
%TO.N,4*%
X146050000Y50706250D03*
%TO.P,D80,2,A*%
%TO.N,Net-(D80-Pad2)*%
X146050000Y49306250D03*
%TD*%
%TO.P,D12,1,K*%
%TO.N,24*%
X384175000Y136431250D03*
%TO.P,D12,2,A*%
%TO.N,Net-(D12-Pad2)*%
X384175000Y135031250D03*
%TD*%
%TO.P,D3,1,K*%
%TO.N,25*%
X112712500Y136431250D03*
%TO.P,D3,2,A*%
%TO.N,Net-(D3-Pad2)*%
X112712500Y135031250D03*
%TD*%
D24*
%TO.P,C5,1*%
%TO.N,+3V3*%
X427453750Y110162500D03*
%TO.P,C5,2*%
%TO.N,GND*%
X426483750Y110162500D03*
%TD*%
D16*
%TO.P,D34,1,K*%
%TO.N,0*%
X131762500Y88806250D03*
%TO.P,D34,2,A*%
%TO.N,Net-(D34-Pad2)*%
X131762500Y87406250D03*
%TD*%
%TO.P,D104,1,K*%
%TO.N,7*%
X250825000Y31656250D03*
%TO.P,D104,2,A*%
%TO.N,Net-(D104-Pad2)*%
X250825000Y30256250D03*
%TD*%
D25*
%TO.P,TX0,1,1*%
%TO.N,26{slash}A0*%
X411987500Y120650000D03*
%TO.P,TX0,2,2*%
%TO.N,GND*%
X403987500Y120650000D03*
%TD*%
D26*
%TO.P,U2,1,~{CS}*%
%TO.N,CS*%
X443134750Y117748500D03*
%TO.P,U2,2,DO(IO1)*%
%TO.N,SD1*%
X441864750Y117748500D03*
%TO.P,U2,3,IO2*%
%TO.N,SD2*%
X440594750Y117748500D03*
%TO.P,U2,4,GND*%
%TO.N,GND*%
X439324750Y117748500D03*
%TO.P,U2,5,DI(IO0)*%
%TO.N,SD0*%
X439324750Y124948500D03*
%TO.P,U2,6,CLK*%
%TO.N,CLOCK*%
X440594750Y124948500D03*
%TO.P,U2,7,IO3*%
%TO.N,SD3*%
X441864750Y124948500D03*
%TO.P,U2,8,VCC*%
%TO.N,+3V3*%
X443134750Y124948500D03*
%TD*%
D16*
%TO.P,D61,1,K*%
%TO.N,2*%
X217487500Y69756250D03*
%TO.P,D61,2,A*%
%TO.N,Net-(D61-Pad2)*%
X217487500Y68356250D03*
%TD*%
%TO.P,D97,1,K*%
%TO.N,6*%
X117475000Y31656250D03*
%TO.P,D97,2,A*%
%TO.N,Net-(D97-Pad2)*%
X117475000Y30256250D03*
%TD*%
D17*
%TO.P,CP13,1*%
%TO.N,+3V3*%
X397287750Y134452500D03*
%TO.P,CP13,2*%
%TO.N,GND*%
X397287750Y135422500D03*
%TD*%
D15*
%TO.P,CP5,1*%
%TO.N,GND*%
X424084750Y135320900D03*
%TO.P,CP5,2*%
%TO.N,VBUS*%
X424084750Y134350900D03*
%TD*%
D16*
%TO.P,D13,1,K*%
%TO.N,23*%
X93662500Y117381250D03*
%TO.P,D13,2,A*%
%TO.N,Net-(D13-Pad2)*%
X93662500Y115981250D03*
%TD*%
%TO.P,D118,1,K*%
%TO.N,9*%
X272256250Y12606250D03*
%TO.P,D118,2,A*%
%TO.N,Net-(D118-Pad2)*%
X272256250Y11206250D03*
%TD*%
%TO.P,D45,1,K*%
%TO.N,1*%
X365125000Y88806250D03*
%TO.P,D45,2,A*%
%TO.N,Net-(D45-Pad2)*%
X365125000Y87406250D03*
%TD*%
%TO.P,D70,1,K*%
%TO.N,3*%
X407987500Y69756250D03*
%TO.P,D70,2,A*%
%TO.N,Net-(D70-Pad2)*%
X407987500Y68356250D03*
%TD*%
D17*
%TO.P,CP8,1*%
%TO.N,GND*%
X422941750Y132191900D03*
%TO.P,CP8,2*%
%TO.N,VBUS*%
X422941750Y133161900D03*
%TD*%
D16*
%TO.P,D91,1,K*%
%TO.N,5*%
X446087500Y50706250D03*
%TO.P,D91,2,A*%
%TO.N,Net-(D91-Pad2)*%
X446087500Y49306250D03*
%TD*%
%TO.P,D36,1,K*%
%TO.N,0*%
X169862500Y88806250D03*
%TO.P,D36,2,A*%
%TO.N,Net-(D36-Pad2)*%
X169862500Y87406250D03*
%TD*%
D15*
%TO.P,RP1,1*%
%TO.N,+3V3*%
X414813750Y136692500D03*
%TO.P,RP1,2*%
%TO.N,Net-(RP1-Pad2)*%
X414813750Y135722500D03*
%TD*%
D16*
%TO.P,D79,1,K*%
%TO.N,5*%
X127000000Y50706250D03*
%TO.P,D79,2,A*%
%TO.N,Net-(D79-Pad2)*%
X127000000Y49306250D03*
%TD*%
%TO.P,D117,1,K*%
%TO.N,8*%
X248443750Y12606250D03*
%TO.P,D117,2,A*%
%TO.N,Net-(D117-Pad2)*%
X248443750Y11206250D03*
%TD*%
%TO.P,D39,1,K*%
%TO.N,1*%
X227012500Y88806250D03*
%TO.P,D39,2,A*%
%TO.N,Net-(D39-Pad2)*%
X227012500Y87406250D03*
%TD*%
%TO.P,D111,1,K*%
%TO.N,8*%
X12700000Y12606250D03*
%TO.P,D111,2,A*%
%TO.N,Net-(D111-Pad2)*%
X12700000Y11206250D03*
%TD*%
D27*
%TO.P,S2,1,A*%
%TO.N,GND*%
X404982750Y114054500D03*
X411182750Y114054500D03*
%TO.P,S2,2,B*%
%TO.N,~{RESET}*%
X411182750Y110354500D03*
X404982750Y110354500D03*
%TD*%
D16*
%TO.P,D22,1,K*%
%TO.N,22*%
X284162500Y117381250D03*
%TO.P,D22,2,A*%
%TO.N,Net-(D22-Pad2)*%
X284162500Y115981250D03*
%TD*%
%TO.P,D53,1,K*%
%TO.N,2*%
X60325000Y69756250D03*
%TO.P,D53,2,A*%
%TO.N,Net-(D53-Pad2)*%
X60325000Y68356250D03*
%TD*%
%TO.P,D6,1,K*%
%TO.N,24*%
X179387500Y136431250D03*
%TO.P,D6,2,A*%
%TO.N,Net-(D6-Pad2)*%
X179387500Y135031250D03*
%TD*%
%TO.P,D92,1,K*%
%TO.N,4*%
X465137500Y50706250D03*
%TO.P,D92,2,A*%
%TO.N,Net-(D92-Pad2)*%
X465137500Y49306250D03*
%TD*%
%TO.P,D38,1,K*%
%TO.N,0*%
X207962500Y88806250D03*
%TO.P,D38,2,A*%
%TO.N,Net-(D38-Pad2)*%
X207962500Y87406250D03*
%TD*%
%TO.P,D110,1,K*%
%TO.N,7*%
X446087500Y31656250D03*
%TO.P,D110,2,A*%
%TO.N,Net-(D110-Pad2)*%
X446087500Y30256250D03*
%TD*%
%TO.P,D115,1,K*%
%TO.N,8*%
X105568750Y12606250D03*
%TO.P,D115,2,A*%
%TO.N,Net-(D115-Pad2)*%
X105568750Y11206250D03*
%TD*%
D24*
%TO.P,C6,1*%
%TO.N,+3V3*%
X428506750Y114592100D03*
%TO.P,C6,2*%
%TO.N,GND*%
X427536750Y114592100D03*
%TD*%
D16*
%TO.P,D84,1,K*%
%TO.N,4*%
X222250000Y50706250D03*
%TO.P,D84,2,A*%
%TO.N,Net-(D84-Pad2)*%
X222250000Y49306250D03*
%TD*%
%TO.P,D18,1,K*%
%TO.N,22*%
X198437500Y117381250D03*
%TO.P,D18,2,A*%
%TO.N,Net-(D18-Pad2)*%
X198437500Y115981250D03*
%TD*%
D17*
%TO.P,RC1,1*%
%TO.N,GND*%
X441356750Y130960000D03*
%TO.P,RC1,2*%
%TO.N,Net-(J4-PadB5)*%
X441356750Y131930000D03*
%TD*%
D16*
%TO.P,D77,1,K*%
%TO.N,5*%
X88900000Y50706250D03*
%TO.P,D77,2,A*%
%TO.N,Net-(D77-Pad2)*%
X88900000Y49306250D03*
%TD*%
%TO.P,D83,1,K*%
%TO.N,5*%
X203200000Y50706250D03*
%TO.P,D83,2,A*%
%TO.N,Net-(D83-Pad2)*%
X203200000Y49306250D03*
%TD*%
D17*
%TO.P,RR1,1*%
%TO.N,+3V3*%
X430561750Y104861500D03*
%TO.P,RR1,2*%
%TO.N,~{RESET}*%
X430561750Y105831500D03*
%TD*%
D16*
%TO.P,D29,1,K*%
%TO.N,1*%
X31750000Y88806250D03*
%TO.P,D29,2,A*%
%TO.N,Net-(D29-Pad2)*%
X31750000Y87406250D03*
%TD*%
D24*
%TO.P,RX2,1*%
%TO.N,XOUT*%
X433332750Y103441500D03*
%TO.P,RX2,2*%
%TO.N,Net-(RX2-Pad2)*%
X432362750Y103441500D03*
%TD*%
D28*
%TO.P,DA2,1,K*%
%TO.N,25*%
X452975750Y130746500D03*
%TO.P,DA2,2,A*%
%TO.N,Net-(DA2-Pad2)*%
X454375750Y130746500D03*
%TD*%
D16*
%TO.P,D85,1,K*%
%TO.N,5*%
X241300000Y50706250D03*
%TO.P,D85,2,A*%
%TO.N,Net-(D85-Pad2)*%
X241300000Y49306250D03*
%TD*%
%TO.P,D16,1,K*%
%TO.N,22*%
X150812500Y117381250D03*
%TO.P,D16,2,A*%
%TO.N,Net-(D16-Pad2)*%
X150812500Y115981250D03*
%TD*%
D17*
%TO.P,CP11,1*%
%TO.N,+3V3*%
X399573750Y134452500D03*
%TO.P,CP11,2*%
%TO.N,GND*%
X399573750Y135422500D03*
%TD*%
D16*
%TO.P,D74,1,K*%
%TO.N,4*%
X12700000Y50706250D03*
%TO.P,D74,2,A*%
%TO.N,Net-(D74-Pad2)*%
X12700000Y49306250D03*
%TD*%
%TO.P,D68,1,K*%
%TO.N,3*%
X365125000Y69756250D03*
%TO.P,D68,2,A*%
%TO.N,Net-(D68-Pad2)*%
X365125000Y68356250D03*
%TD*%
%TO.P,D28,1,K*%
%TO.N,0*%
X12700000Y88806250D03*
%TO.P,D28,2,A*%
%TO.N,Net-(D28-Pad2)*%
X12700000Y87406250D03*
%TD*%
%TO.P,D35,1,K*%
%TO.N,1*%
X150812500Y88806250D03*
%TO.P,D35,2,A*%
%TO.N,Net-(D35-Pad2)*%
X150812500Y87406250D03*
%TD*%
%TO.P,D33,1,K*%
%TO.N,1*%
X112712500Y88806250D03*
%TO.P,D33,2,A*%
%TO.N,Net-(D33-Pad2)*%
X112712500Y87406250D03*
%TD*%
%TO.P,D14,1,K*%
%TO.N,22*%
X112712500Y117381250D03*
%TO.P,D14,2,A*%
%TO.N,Net-(D14-Pad2)*%
X112712500Y115981250D03*
%TD*%
%TO.P,D106,1,K*%
%TO.N,7*%
X305593750Y31656250D03*
%TO.P,D106,2,A*%
%TO.N,Net-(D106-Pad2)*%
X305593750Y30256250D03*
%TD*%
%TO.P,D67,1,K*%
%TO.N,2*%
X346075000Y69756250D03*
%TO.P,D67,2,A*%
%TO.N,Net-(D67-Pad2)*%
X346075000Y68356250D03*
%TD*%
D24*
%TO.P,C4,1*%
%TO.N,+3V3*%
X432570750Y104838500D03*
%TO.P,C4,2*%
%TO.N,GND*%
X431600750Y104838500D03*
%TD*%
D16*
%TO.P,D10,1,K*%
%TO.N,24*%
X346075000Y136431250D03*
%TO.P,D10,2,A*%
%TO.N,Net-(D10-Pad2)*%
X346075000Y135031250D03*
%TD*%
%TO.P,D30,1,K*%
%TO.N,0*%
X55562500Y88806250D03*
%TO.P,D30,2,A*%
%TO.N,Net-(D30-Pad2)*%
X55562500Y87406250D03*
%TD*%
%TO.P,D62,1,K*%
%TO.N,3*%
X236537500Y69756250D03*
%TO.P,D62,2,A*%
%TO.N,Net-(D62-Pad2)*%
X236537500Y68356250D03*
%TD*%
D17*
%TO.P,CP7,1*%
%TO.N,GND*%
X421798750Y132191900D03*
%TO.P,CP7,2*%
%TO.N,VBUS*%
X421798750Y133161900D03*
%TD*%
D15*
%TO.P,RC2,1*%
%TO.N,Net-(J4-PadA5)*%
X436784750Y131930000D03*
%TO.P,RC2,2*%
%TO.N,GND*%
X436784750Y130960000D03*
%TD*%
D16*
%TO.P,D41,1,K*%
%TO.N,1*%
X265112500Y88806250D03*
%TO.P,D41,2,A*%
%TO.N,Net-(D41-Pad2)*%
X265112500Y87406250D03*
%TD*%
D15*
%TO.P,CP14,1*%
%TO.N,+3V3*%
X400716750Y133263500D03*
%TO.P,CP14,2*%
%TO.N,GND*%
X400716750Y132293500D03*
%TD*%
D16*
%TO.P,D109,1,K*%
%TO.N,6*%
X427037500Y31656250D03*
%TO.P,D109,2,A*%
%TO.N,Net-(D109-Pad2)*%
X427037500Y30256250D03*
%TD*%
%TO.P,D98,1,K*%
%TO.N,7*%
X136525000Y31656250D03*
%TO.P,D98,2,A*%
%TO.N,Net-(D98-Pad2)*%
X136525000Y30256250D03*
%TD*%
%TO.P,D100,1,K*%
%TO.N,7*%
X174625000Y31656250D03*
%TO.P,D100,2,A*%
%TO.N,Net-(D100-Pad2)*%
X174625000Y30256250D03*
%TD*%
%TO.P,D19,1,K*%
%TO.N,23*%
X217487500Y117381250D03*
%TO.P,D19,2,A*%
%TO.N,Net-(D19-Pad2)*%
X217487500Y115981250D03*
%TD*%
%TO.P,D50,1,K*%
%TO.N,0*%
X465137500Y88806250D03*
%TO.P,D50,2,A*%
%TO.N,Net-(D50-Pad2)*%
X465137500Y87406250D03*
%TD*%
%TO.P,D69,1,K*%
%TO.N,2*%
X384175000Y69756250D03*
%TO.P,D69,2,A*%
%TO.N,Net-(D69-Pad2)*%
X384175000Y68356250D03*
%TD*%
D17*
%TO.P,C7,1*%
%TO.N,+3V3*%
X429469550Y116494700D03*
%TO.P,C7,2*%
%TO.N,GND*%
X429469550Y117464700D03*
%TD*%
D16*
%TO.P,D55,1,K*%
%TO.N,2*%
X103187500Y69756250D03*
%TO.P,D55,2,A*%
%TO.N,Net-(D55-Pad2)*%
X103187500Y68356250D03*
%TD*%
%TO.P,D23,1,K*%
%TO.N,23*%
X303212500Y117381250D03*
%TO.P,D23,2,A*%
%TO.N,Net-(D23-Pad2)*%
X303212500Y115981250D03*
%TD*%
%TO.P,D75,1,K*%
%TO.N,5*%
X31750000Y50706250D03*
%TO.P,D75,2,A*%
%TO.N,Net-(D75-Pad2)*%
X31750000Y49306250D03*
%TD*%
%TO.P,D56,1,K*%
%TO.N,3*%
X122237500Y69756250D03*
%TO.P,D56,2,A*%
%TO.N,Net-(D56-Pad2)*%
X122237500Y68356250D03*
%TD*%
%TO.P,D4,1,K*%
%TO.N,24*%
X131762500Y136431250D03*
%TO.P,D4,2,A*%
%TO.N,Net-(D4-Pad2)*%
X131762500Y135031250D03*
%TD*%
D15*
%TO.P,CP15,1*%
%TO.N,+3V3*%
X399573750Y133263500D03*
%TO.P,CP15,2*%
%TO.N,GND*%
X399573750Y132293500D03*
%TD*%
D16*
%TO.P,D64,1,K*%
%TO.N,3*%
X274637500Y69756250D03*
%TO.P,D64,2,A*%
%TO.N,Net-(D64-Pad2)*%
X274637500Y68356250D03*
%TD*%
%TO.P,D127,1,K*%
%TO.N,8*%
X458787500Y12793750D03*
%TO.P,D127,2,A*%
%TO.N,Net-(D127-Pad2)*%
X458787500Y14193750D03*
%TD*%
%TO.P,D5,1,K*%
%TO.N,25*%
X150812500Y136431250D03*
%TO.P,D5,2,A*%
%TO.N,Net-(D5-Pad2)*%
X150812500Y135031250D03*
%TD*%
D24*
%TO.P,CF1,1*%
%TO.N,+3V3*%
X443111750Y127825500D03*
%TO.P,CF1,2*%
%TO.N,GND*%
X442141750Y127825500D03*
%TD*%
D16*
%TO.P,D65,1,K*%
%TO.N,2*%
X293687500Y69756250D03*
%TO.P,D65,2,A*%
%TO.N,Net-(D65-Pad2)*%
X293687500Y68356250D03*
%TD*%
%TO.P,D42,1,K*%
%TO.N,0*%
X284162500Y88806250D03*
%TO.P,D42,2,A*%
%TO.N,Net-(D42-Pad2)*%
X284162500Y87406250D03*
%TD*%
%TO.P,D108,1,K*%
%TO.N,7*%
X407987500Y31656250D03*
%TO.P,D108,2,A*%
%TO.N,Net-(D108-Pad2)*%
X407987500Y30256250D03*
%TD*%
D29*
%TO.P,LP1,1,1*%
%TO.N,Net-(CP1-Pad2)*%
X412082750Y133794500D03*
%TO.P,LP1,2,2*%
%TO.N,+3V3*%
X404082750Y133794500D03*
%TD*%
D16*
%TO.P,D73,1,K*%
%TO.N,2*%
X465137500Y69756250D03*
%TO.P,D73,2,A*%
%TO.N,Net-(D73-Pad2)*%
X465137500Y68356250D03*
%TD*%
%TO.P,D93,1,K*%
%TO.N,6*%
X12700000Y31656250D03*
%TO.P,D93,2,A*%
%TO.N,Net-(D93-Pad2)*%
X12700000Y30256250D03*
%TD*%
D15*
%TO.P,RP2,1*%
%TO.N,Net-(RP1-Pad2)*%
X414813750Y134660500D03*
%TO.P,RP2,2*%
%TO.N,GND*%
X414813750Y133690500D03*
%TD*%
D16*
%TO.P,D7,1,K*%
%TO.N,25*%
X198437500Y136431250D03*
%TO.P,D7,2,A*%
%TO.N,Net-(D7-Pad2)*%
X198437500Y135031250D03*
%TD*%
%TO.P,D119,1,K*%
%TO.N,8*%
X296068750Y12606250D03*
%TO.P,D119,2,A*%
%TO.N,Net-(D119-Pad2)*%
X296068750Y11206250D03*
%TD*%
D30*
%TO.P,Y0,1,1*%
%TO.N,XIN*%
X434809750Y101663500D03*
%TO.P,Y0,2,2*%
%TO.N,GND*%
X433609750Y101663500D03*
%TO.P,Y0,3,3*%
%TO.N,Net-(RX2-Pad2)*%
X432409750Y101663500D03*
%TD*%
D16*
%TO.P,D96,1,K*%
%TO.N,7*%
X98425000Y31656250D03*
%TO.P,D96,2,A*%
%TO.N,Net-(D96-Pad2)*%
X98425000Y30256250D03*
%TD*%
%TO.P,D112,1,K*%
%TO.N,9*%
X31750000Y12606250D03*
%TO.P,D112,2,A*%
%TO.N,Net-(D112-Pad2)*%
X31750000Y11206250D03*
%TD*%
D17*
%TO.P,C9,1*%
%TO.N,+1V1*%
X431603150Y116494700D03*
%TO.P,C9,2*%
%TO.N,GND*%
X431603150Y117464700D03*
%TD*%
%TO.P,C11,1*%
%TO.N,+1V1*%
X434295550Y117586900D03*
%TO.P,C11,2*%
%TO.N,GND*%
X434295550Y118556900D03*
%TD*%
D16*
%TO.P,D40,1,K*%
%TO.N,0*%
X246062500Y88806250D03*
%TO.P,D40,2,A*%
%TO.N,Net-(D40-Pad2)*%
X246062500Y87406250D03*
%TD*%
D23*
%TO.P,C3,1*%
%TO.N,+3V3*%
X439474750Y109664500D03*
%TO.P,C3,2*%
%TO.N,GND*%
X440444750Y109664500D03*
%TD*%
D17*
%TO.P,CP12,1*%
%TO.N,+3V3*%
X398430750Y134452500D03*
%TO.P,CP12,2*%
%TO.N,GND*%
X398430750Y135422500D03*
%TD*%
D31*
%TO.P,F1,1*%
%TO.N,+5v*%
X432587500Y134937500D03*
%TO.P,F1,2*%
%TO.N,VBUS*%
X431012500Y134937500D03*
%TD*%
D16*
%TO.P,D87,1,K*%
%TO.N,5*%
X279400000Y50706250D03*
%TO.P,D87,2,A*%
%TO.N,Net-(D87-Pad2)*%
X279400000Y49306250D03*
%TD*%
%TO.P,D31,1,K*%
%TO.N,1*%
X74612500Y88806250D03*
%TO.P,D31,2,A*%
%TO.N,Net-(D31-Pad2)*%
X74612500Y87406250D03*
%TD*%
D17*
%TO.P,CP9,1*%
%TO.N,GND*%
X424084750Y132191900D03*
%TO.P,CP9,2*%
%TO.N,VBUS*%
X424084750Y133161900D03*
%TD*%
D16*
%TO.P,D94,1,K*%
%TO.N,7*%
X31750000Y31656250D03*
%TO.P,D94,2,A*%
%TO.N,Net-(D94-Pad2)*%
X31750000Y30256250D03*
%TD*%
D28*
%TO.P,DA1,1,K*%
%TO.N,24*%
X452975750Y135826500D03*
%TO.P,DA1,2,A*%
%TO.N,Net-(DA1-Pad2)*%
X454375750Y135826500D03*
%TD*%
D16*
%TO.P,D49,1,K*%
%TO.N,1*%
X446087500Y88806250D03*
%TO.P,D49,2,A*%
%TO.N,Net-(D49-Pad2)*%
X446087500Y87406250D03*
%TD*%
%TO.P,D48,1,K*%
%TO.N,0*%
X427037500Y88806250D03*
%TO.P,D48,2,A*%
%TO.N,Net-(D48-Pad2)*%
X427037500Y87406250D03*
%TD*%
%TO.P,D102,1,K*%
%TO.N,7*%
X212725000Y31656250D03*
%TO.P,D102,2,A*%
%TO.N,Net-(D102-Pad2)*%
X212725000Y30256250D03*
%TD*%
%TO.P,D46,1,K*%
%TO.N,0*%
X384175000Y88806250D03*
%TO.P,D46,2,A*%
%TO.N,Net-(D46-Pad2)*%
X384175000Y87406250D03*
%TD*%
D17*
%TO.P,C1,1*%
%TO.N,+3V3*%
X433254150Y117561500D03*
%TO.P,C1,2*%
%TO.N,GND*%
X433254150Y118531500D03*
%TD*%
%TO.P,CP6,1*%
%TO.N,GND*%
X420655750Y132191900D03*
%TO.P,CP6,2*%
%TO.N,VBUS*%
X420655750Y133161900D03*
%TD*%
D16*
%TO.P,D90,1,K*%
%TO.N,4*%
X427037500Y50706250D03*
%TO.P,D90,2,A*%
%TO.N,Net-(D90-Pad2)*%
X427037500Y49306250D03*
%TD*%
%TO.P,D107,1,K*%
%TO.N,7*%
X365125000Y31656250D03*
%TO.P,D107,2,A*%
%TO.N,Net-(D107-Pad2)*%
X365125000Y30256250D03*
%TD*%
%TO.P,D126,1,K*%
%TO.N,9*%
X446087500Y12606250D03*
%TO.P,D126,2,A*%
%TO.N,Net-(D126-Pad2)*%
X446087500Y11206250D03*
%TD*%
%TO.P,D114,1,K*%
%TO.N,9*%
X81756250Y12606250D03*
%TO.P,D114,2,A*%
%TO.N,Net-(D114-Pad2)*%
X81756250Y11206250D03*
%TD*%
%TO.P,D26,1,K*%
%TO.N,22*%
X365125000Y117381250D03*
%TO.P,D26,2,A*%
%TO.N,Net-(D26-Pad2)*%
X365125000Y115981250D03*
%TD*%
%TO.P,D15,1,K*%
%TO.N,23*%
X131762500Y117381250D03*
%TO.P,D15,2,A*%
%TO.N,Net-(D15-Pad2)*%
X131762500Y115981250D03*
%TD*%
%TO.P,D44,1,K*%
%TO.N,0*%
X346075000Y88806250D03*
%TO.P,D44,2,A*%
%TO.N,Net-(D44-Pad2)*%
X346075000Y87406250D03*
%TD*%
D15*
%TO.P,CP3,1*%
%TO.N,GND*%
X421798750Y135320900D03*
%TO.P,CP3,2*%
%TO.N,VBUS*%
X421798750Y134350900D03*
%TD*%
D16*
%TO.P,D99,1,K*%
%TO.N,6*%
X155575000Y31656250D03*
%TO.P,D99,2,A*%
%TO.N,Net-(D99-Pad2)*%
X155575000Y30256250D03*
%TD*%
%TO.P,D123,1,K*%
%TO.N,8*%
X384175000Y12606250D03*
%TO.P,D123,2,A*%
%TO.N,Net-(D123-Pad2)*%
X384175000Y11206250D03*
%TD*%
D15*
%TO.P,RD2,1*%
%TO.N,DB-*%
X431730150Y121928750D03*
%TO.P,RD2,2*%
%TO.N,Net-(RD2-Pad2)*%
X431730150Y120958750D03*
%TD*%
D16*
%TO.P,D52,1,K*%
%TO.N,3*%
X31750000Y69756250D03*
%TO.P,D52,2,A*%
%TO.N,Net-(D52-Pad2)*%
X31750000Y68356250D03*
%TD*%
%TO.P,D37,1,K*%
%TO.N,1*%
X188912500Y88806250D03*
%TO.P,D37,2,A*%
%TO.N,Net-(D37-Pad2)*%
X188912500Y87406250D03*
%TD*%
%TO.P,D66,1,K*%
%TO.N,3*%
X317500000Y69756250D03*
%TO.P,D66,2,A*%
%TO.N,Net-(D66-Pad2)*%
X317500000Y68356250D03*
%TD*%
D32*
%TO.P,J4,A1,GND*%
%TO.N,GND*%
X435693750Y134861250D03*
%TO.P,J4,A4,VBUS*%
%TO.N,+5v*%
X436493750Y134861250D03*
D33*
%TO.P,J4,A5,CC1*%
%TO.N,Net-(J4-PadA5)*%
X437693750Y134861250D03*
%TO.P,J4,A6,D+*%
%TO.N,D+*%
X438693750Y134861250D03*
%TO.P,J4,A7,D-*%
%TO.N,D-*%
X439193750Y134861250D03*
%TO.P,J4,A8,SBU1*%
%TO.N,unconnected-(J4-PadA8)*%
X440193750Y134861250D03*
D32*
%TO.P,J4,A9,VBUS*%
%TO.N,+5v*%
X441393750Y134861250D03*
%TO.P,J4,A12,GND*%
%TO.N,GND*%
X442193750Y134861250D03*
%TO.P,J4,B1,GND*%
X442193750Y134861250D03*
%TO.P,J4,B4,VBUS*%
%TO.N,+5v*%
X441393750Y134861250D03*
D33*
%TO.P,J4,B5,CC2*%
%TO.N,Net-(J4-PadB5)*%
X440693750Y134861250D03*
%TO.P,J4,B6,D+*%
%TO.N,D+*%
X439693750Y134861250D03*
%TO.P,J4,B7,D-*%
%TO.N,D-*%
X438193750Y134861250D03*
%TO.P,J4,B8,SBU2*%
%TO.N,unconnected-(J4-PadB8)*%
X437193750Y134861250D03*
D32*
%TO.P,J4,B9,VBUS*%
%TO.N,+5v*%
X436493750Y134861250D03*
%TO.P,J4,B12,GND*%
%TO.N,GND*%
X435693750Y134861250D03*
D34*
%TO.P,J4,S1,SHIELD*%
X443263750Y139956250D03*
D35*
X443263750Y135776250D03*
X434623750Y135776250D03*
D34*
X434623750Y139956250D03*
%TD*%
D16*
%TO.P,D105,1,K*%
%TO.N,6*%
X269875000Y31656250D03*
%TO.P,D105,2,A*%
%TO.N,Net-(D105-Pad2)*%
X269875000Y30256250D03*
%TD*%
%TO.P,D81,1,K*%
%TO.N,5*%
X165100000Y50706250D03*
%TO.P,D81,2,A*%
%TO.N,Net-(D81-Pad2)*%
X165100000Y49306250D03*
%TD*%
D36*
%TO.P,U1,1,BS*%
%TO.N,Net-(CP1-Pad1)*%
X416470250Y132717500D03*
%TO.P,U1,2,GND*%
%TO.N,GND*%
X416470250Y133667500D03*
%TO.P,U1,3,FB*%
%TO.N,Net-(RP1-Pad2)*%
X416470250Y134617500D03*
%TO.P,U1,4,EN*%
%TO.N,VBUS*%
X418745250Y134617500D03*
%TO.P,U1,5,VIN*%
X418745250Y133667500D03*
%TO.P,U1,6,SW*%
%TO.N,Net-(CP1-Pad2)*%
X418745250Y132717500D03*
%TD*%
D16*
%TO.P,D121,1,K*%
%TO.N,8*%
X346075000Y12606250D03*
%TO.P,D121,2,A*%
%TO.N,Net-(D121-Pad2)*%
X346075000Y11206250D03*
%TD*%
%TO.P,D32,1,K*%
%TO.N,0*%
X93662500Y88806250D03*
%TO.P,D32,2,A*%
%TO.N,Net-(D32-Pad2)*%
X93662500Y87406250D03*
%TD*%
%TO.P,D122,1,K*%
%TO.N,9*%
X365125000Y12606250D03*
%TO.P,D122,2,A*%
%TO.N,Net-(D122-Pad2)*%
X365125000Y11206250D03*
%TD*%
%TO.P,DT3,1,K*%
%TO.N,24*%
X305593750Y126300000D03*
%TO.P,DT3,2,A*%
%TO.N,Net-(DT3-Pad2)*%
X305593750Y127700000D03*
%TD*%
%TO.P,D86,1,K*%
%TO.N,4*%
X260350000Y50706250D03*
%TO.P,D86,2,A*%
%TO.N,Net-(D86-Pad2)*%
X260350000Y49306250D03*
%TD*%
%TO.P,DT2,1,K*%
%TO.N,25*%
X286543750Y126300000D03*
%TO.P,DT2,2,A*%
%TO.N,Net-(DT2-Pad2)*%
X286543750Y127700000D03*
%TD*%
%TO.P,D9,1,K*%
%TO.N,25*%
X236537500Y136431250D03*
%TO.P,D9,2,A*%
%TO.N,Net-(D9-Pad2)*%
X236537500Y135031250D03*
%TD*%
%TO.P,D21,1,K*%
%TO.N,23*%
X265112500Y117381250D03*
%TO.P,D21,2,A*%
%TO.N,Net-(D21-Pad2)*%
X265112500Y115981250D03*
%TD*%
D15*
%TO.P,CP1,1*%
%TO.N,Net-(CP1-Pad1)*%
X414813750Y132628500D03*
%TO.P,CP1,2*%
%TO.N,Net-(CP1-Pad2)*%
X414813750Y131658500D03*
%TD*%
D37*
%TO.N,GND*%
X233372500Y121407250D03*
X437927750Y117792500D03*
X72297500Y92666250D03*
X310312500Y92793250D03*
X219935000Y54566250D03*
X124685000Y54566250D03*
X308041250Y54566250D03*
X238985000Y54566250D03*
X440086750Y114617500D03*
X95260000Y35682250D03*
X404822500Y73782250D03*
X381750000Y92729750D03*
X422433750Y136207500D03*
X342910000Y121407250D03*
X29435000Y16466250D03*
X9535000Y73782250D03*
X404822500Y35682250D03*
X195272500Y73782250D03*
X190510000Y35682250D03*
X176222500Y121407250D03*
X110397500Y140291250D03*
X432325850Y118187400D03*
X205537500Y92793250D03*
X361960000Y121407250D03*
X53247500Y92666250D03*
X269941250Y16466250D03*
X152410000Y35682250D03*
X228610000Y35682250D03*
X408137750Y114054500D03*
X86585000Y54566250D03*
X133360000Y35682250D03*
X29435000Y54566250D03*
X381860000Y16466250D03*
X147647500Y121407250D03*
X405672500Y16466250D03*
X462712500Y92666250D03*
X234222500Y140291250D03*
X247660000Y35682250D03*
X80972500Y73782250D03*
X302428750Y35682250D03*
X10385000Y92666250D03*
X243637500Y92666250D03*
X177072500Y140291250D03*
X28585000Y35682250D03*
X271472500Y73782250D03*
X342910000Y73782250D03*
X361960000Y73782250D03*
X10275000Y140354750D03*
X425735750Y110172500D03*
X138122500Y73782250D03*
X129337500Y92666250D03*
X224587500Y92793250D03*
X114310000Y35682250D03*
X214322500Y73782250D03*
X181835000Y54566250D03*
X28585000Y73782250D03*
X29435000Y92666250D03*
X381860000Y140291250D03*
X319097500Y121407250D03*
X57160000Y73782250D03*
X405562500Y92793250D03*
X423872500Y35682250D03*
X442922500Y73782250D03*
X174691250Y16466250D03*
X196122500Y140291250D03*
X405672500Y54566250D03*
X195272500Y121407250D03*
X281737500Y92793250D03*
X442922500Y35682250D03*
X290522500Y73782250D03*
X60391250Y54566250D03*
X424722500Y16466250D03*
X293753750Y16466250D03*
X266710000Y35682250D03*
X443772500Y54566250D03*
X415471750Y133690500D03*
X55628750Y16466250D03*
X314335000Y73782250D03*
X454870250Y19800000D03*
X361960000Y35682250D03*
X431247550Y103416100D03*
X128597500Y121407250D03*
X90497500Y121407250D03*
X105635000Y54566250D03*
X148497500Y140291250D03*
X129447500Y140291250D03*
X167437500Y92793250D03*
X441229750Y129349500D03*
X362810000Y140291250D03*
X343760000Y16466250D03*
X424722500Y54566250D03*
X461972500Y73782250D03*
X443772500Y16466250D03*
X148387500Y92666250D03*
X343760000Y140291250D03*
X200885000Y54566250D03*
X109547500Y121407250D03*
X408006550Y120662700D03*
X277085000Y54566250D03*
X398938750Y131254500D03*
X91237500Y140291250D03*
X162785000Y54566250D03*
X157172500Y73782250D03*
X381010000Y73782250D03*
X422306750Y131254500D03*
X435844950Y103390700D03*
X424612500Y92793250D03*
X186487500Y92793250D03*
X79441250Y16466250D03*
X362810000Y16466250D03*
X9535000Y35682250D03*
X258035000Y54566250D03*
X233372500Y73782250D03*
X261947500Y121407250D03*
X103253750Y16466250D03*
X100022500Y73782250D03*
X431247550Y100190300D03*
X209560000Y35682250D03*
X462712500Y54693250D03*
X398938750Y136461500D03*
X443662500Y92793250D03*
X435844950Y100190300D03*
X10385000Y54566250D03*
X143735000Y54566250D03*
X262687500Y92793250D03*
X10385000Y16466250D03*
X441102750Y109664500D03*
X110397500Y92666250D03*
X436784750Y130111500D03*
X171460000Y35682250D03*
X214322500Y121407250D03*
X300047500Y121407250D03*
X176222500Y73782250D03*
X381010000Y121407250D03*
X444658750Y119570500D03*
X91347500Y92666250D03*
X246128750Y16466250D03*
X215172500Y140291250D03*
X64303750Y35682250D03*
X343650000Y92729750D03*
X317566250Y16466250D03*
X119072500Y73782250D03*
X426878750Y114617500D03*
X280997500Y121407250D03*
X252422500Y73782250D03*
X362700000Y92729750D03*
X423872500Y73782250D03*
%TO.N,27{slash}A1*%
X334803750Y125158500D03*
X7905750Y138874500D03*
X335946750Y137477500D03*
X249586750Y133413500D03*
X387762750Y137096500D03*
X248564411Y137350500D03*
X385722836Y137485414D03*
%TO.N,21*%
X6985000Y107632500D03*
%TO.N,20*%
X61817250Y4445000D03*
X49942750Y107033000D03*
%TO.N,18*%
X126047500Y106140250D03*
X149891750Y4457700D03*
%TO.N,15*%
X299815250Y4445000D03*
X259397500Y104997250D03*
%TO.N,1*%
X434596250Y88206739D03*
X443566550Y107378500D03*
%TO.N,8*%
X439553350Y107861100D03*
X431831750Y13398500D03*
%TO.N,7*%
X440102250Y107378500D03*
X432196250Y31053000D03*
%TO.N,2*%
X434196250Y70355761D03*
X442966600Y107826050D03*
%TO.N,14*%
X297497500Y104633000D03*
%TO.N,12*%
X378460000Y103833000D03*
%TO.N,11*%
X416464750Y103433000D03*
%TO.N,10*%
X458082921Y97434671D03*
%TO.N,9*%
X439003250Y107378500D03*
X431191511Y12006739D03*
%TO.N,6*%
X440645550Y107861100D03*
X432596250Y32321500D03*
%TO.N,5*%
X432996250Y50101500D03*
X441204350Y107378500D03*
%TO.N,13*%
X340360000Y104233000D03*
%TO.N,3*%
X433796250Y69156739D03*
X442321950Y107378500D03*
%TO.N,Net-(RD1-Pad2)*%
X432720750Y120078500D03*
X432188000Y115633500D03*
%TO.N,Net-(RD2-Pad2)*%
X431704750Y120078500D03*
X432186520Y113439000D03*
%TO.N,24*%
X385222750Y135191500D03*
X385095750Y136842500D03*
X414394442Y126134000D03*
X411589564Y126534000D03*
%TO.N,16*%
X211772500Y105378250D03*
%TO.N,17*%
X173672500Y105759250D03*
%TO.N,0*%
X435006750Y89471500D03*
X444176150Y107835700D03*
%TO.N,~{RESET}*%
X427640750Y106870500D03*
X408137750Y110354500D03*
%TO.N,+3V3*%
X342910000Y16632250D03*
X443772500Y35516250D03*
X253272500Y73616250D03*
X462822500Y73616250D03*
D38*
X395255750Y133794500D03*
D37*
X54778750Y16632250D03*
X173841250Y16632250D03*
X96110000Y35516250D03*
X9425000Y140368350D03*
X272322500Y73616250D03*
X248510000Y35516250D03*
X443134750Y126428500D03*
X177072500Y73616250D03*
X300897500Y121241250D03*
X381860000Y121241250D03*
X461762500Y92732250D03*
X234222500Y73616250D03*
X138972500Y73616250D03*
X147437500Y92732250D03*
X257185000Y54732250D03*
X430942750Y113601500D03*
X78591250Y16632250D03*
X280787500Y92732250D03*
X361960000Y16632250D03*
X158022500Y73616250D03*
X215172500Y121241250D03*
X432974750Y113601500D03*
X362810000Y35516250D03*
X430942750Y110045500D03*
X430561750Y104203500D03*
X245278750Y16632250D03*
X361750000Y92795750D03*
X90387500Y140457250D03*
X381010000Y140457250D03*
X91347500Y121241250D03*
X204587500Y92732250D03*
X316716250Y16632250D03*
X307191250Y54732250D03*
X191360000Y35516250D03*
X104785000Y54732250D03*
X161935000Y54732250D03*
X442712500Y92732250D03*
X342910000Y140457250D03*
X200035000Y54732250D03*
X10385000Y35516250D03*
X281847500Y121241250D03*
D38*
X396271750Y133794500D03*
D37*
X9535000Y54732250D03*
X404822500Y54732250D03*
X128597500Y140457250D03*
X269091250Y16632250D03*
X71447500Y92832250D03*
X58010000Y73616250D03*
X102403750Y16632250D03*
X234222500Y121241250D03*
X303278750Y35516250D03*
X424722500Y35516250D03*
X319947500Y121241250D03*
X52397500Y92832250D03*
X343760000Y73616250D03*
X9535000Y16632250D03*
X405672500Y73616250D03*
X65153750Y35516250D03*
X291372500Y73616250D03*
X147647500Y140457250D03*
X276235000Y54732250D03*
X85735000Y54732250D03*
X443772500Y73616250D03*
X28585000Y92832250D03*
X262797500Y121241250D03*
X196122500Y73616250D03*
X433228750Y108648500D03*
X242687500Y92732250D03*
X59541250Y54732250D03*
X177072500Y121241250D03*
X309362500Y92732250D03*
X195272500Y140457250D03*
X381010000Y16632250D03*
X343760000Y121241250D03*
X210410000Y35516250D03*
X142885000Y54732250D03*
X29435000Y35516250D03*
X342804750Y92773500D03*
X172310000Y35516250D03*
X219085000Y54732250D03*
X123835000Y54732250D03*
X119922500Y73616250D03*
X423872500Y16632250D03*
X404822500Y16632250D03*
X29435000Y73616250D03*
X315185000Y73616250D03*
X134210000Y35516250D03*
X176222500Y140457250D03*
X28585000Y54732250D03*
X381860000Y73616250D03*
X461803750Y54673500D03*
X100872500Y73616250D03*
X153260000Y35516250D03*
X454782250Y18950000D03*
X442922500Y54732250D03*
X362810000Y121241250D03*
D38*
X394239750Y133794500D03*
D37*
X362810000Y73616250D03*
D38*
X395255750Y134810500D03*
D37*
X442922500Y16632250D03*
X267560000Y35516250D03*
X404612500Y92732250D03*
X28585000Y16632250D03*
X215172500Y73616250D03*
D38*
X395255750Y132778500D03*
D37*
X223637500Y92732250D03*
X109547500Y92832250D03*
X115160000Y35516250D03*
X292903750Y16632250D03*
X423662500Y92859250D03*
X166487500Y92732250D03*
X180985000Y54732250D03*
X196122500Y121241250D03*
X423872500Y54732250D03*
X9535000Y92832250D03*
X128387500Y92732250D03*
X10385000Y73616250D03*
X424722500Y73616250D03*
X233372500Y140457250D03*
X148497500Y121241250D03*
X261737500Y92859250D03*
X361960000Y140457250D03*
X90497500Y92832250D03*
X110397500Y121241250D03*
X435895750Y110172500D03*
X229460000Y35516250D03*
X214322500Y140457250D03*
X81822500Y73616250D03*
X238135000Y54732250D03*
X129447500Y121241250D03*
X405672500Y35516250D03*
X380800000Y92795750D03*
X185537500Y92732250D03*
X109429550Y140398500D03*
%TO.N,25*%
X412299150Y126934000D03*
X413601311Y126527239D03*
%TO.N,4*%
X441763150Y107835700D03*
X433396250Y51305761D03*
%TO.N,19*%
X111715550Y4508500D03*
X87947500Y106521250D03*
%TO.N,Net-(LD1-Pad1)*%
X88106250Y138906250D03*
X11906250Y138906250D03*
%TO.N,Net-(LD2-Pad1)*%
X92868750Y138906250D03*
X107156250Y138906250D03*
%TO.N,Net-(LD3-Pad1)*%
X111918750Y138906250D03*
X126206250Y138906250D03*
%TO.N,Net-(LD4-Pad1)*%
X145256250Y138906250D03*
X130968750Y138906250D03*
%TO.N,Net-(LD5-Pad1)*%
X150018750Y138906250D03*
X173831250Y138906250D03*
%TO.N,Net-(LD6-Pad1)*%
X178593750Y138906250D03*
X192881250Y138906250D03*
%TO.N,Net-(LD7-Pad1)*%
X197643750Y138906250D03*
X211931250Y138906250D03*
%TO.N,Net-(LD8-Pad1)*%
X230981250Y138906250D03*
X216693750Y138906250D03*
%TO.N,Net-(LD10-Pad3)*%
X250059050Y132016500D03*
X340672786Y139060286D03*
X249586750Y138874500D03*
X326548750Y138112500D03*
X235743750Y138906250D03*
X325913750Y124650500D03*
%TO.N,Net-(LD10-Pad1)*%
X359568750Y138906250D03*
X345281250Y138906250D03*
%TO.N,Net-(LD11-Pad1)*%
X378618750Y138906250D03*
X364331250Y138906250D03*
%TO.N,Net-(LD13-Pad1)*%
X7584500Y117475000D03*
X88547000Y119856250D03*
%TO.N,Net-(LD13-Pad3)*%
X92868750Y119856250D03*
X107156250Y119856250D03*
%TO.N,Net-(LD14-Pad3)*%
X111918750Y119856250D03*
X126647000Y119856250D03*
%TO.N,Net-(LD15-Pad3)*%
X130968750Y119856250D03*
X145256250Y119856250D03*
%TO.N,Net-(LD16-Pad3)*%
X174272000Y119856250D03*
X150018750Y119856250D03*
%TO.N,Net-(LD17-Pad3)*%
X192881250Y119856250D03*
X178593750Y119856250D03*
%TO.N,Net-(LD18-Pad3)*%
X212372000Y119856250D03*
X197643750Y119856250D03*
%TO.N,Net-(LD19-Pad3)*%
X216693750Y119856250D03*
X230981250Y119856250D03*
%TO.N,Net-(LD20-Pad3)*%
X259556250Y119856250D03*
X235743750Y119856250D03*
%TO.N,Net-(LD21-Pad3)*%
X264318750Y119856250D03*
X278606250Y119856250D03*
%TO.N,Net-(LD22-Pad3)*%
X297656250Y119856250D03*
X283368750Y119856250D03*
%TO.N,Net-(LD23-Pad3)*%
X302418750Y119856250D03*
X316706250Y119856250D03*
%TO.N,Net-(LD24-Pad3)*%
X321468750Y119856250D03*
X340959500Y119856250D03*
%TO.N,Net-(LD25-Pad3)*%
X359568750Y119856250D03*
X345281250Y119856250D03*
%TO.N,Net-(LD26-Pad3)*%
X379059500Y119856250D03*
X364331250Y119856250D03*
%TO.N,Net-(LD28-Pad1)*%
X26193750Y91281250D03*
X11906250Y91281250D03*
%TO.N,Net-(LD29-Pad1)*%
X30956250Y91281250D03*
X50447000Y91281250D03*
%TO.N,Net-(LD30-Pad1)*%
X69056250Y91281250D03*
X54768750Y91281250D03*
%TO.N,Net-(LD31-Pad1)*%
X73818750Y91281250D03*
X88547000Y91281250D03*
%TO.N,Net-(LD32-Pad1)*%
X92868750Y91281250D03*
X107156250Y91281250D03*
%TO.N,Net-(LD33-Pad1)*%
X126647000Y91281250D03*
X111918750Y91281250D03*
%TO.N,Net-(LD34-Pad1)*%
X130968750Y91281250D03*
X145256250Y91281250D03*
%TO.N,Net-(LD35-Pad1)*%
X150018750Y91281250D03*
X164306250Y91281250D03*
%TO.N,Net-(LD36-Pad1)*%
X183356250Y91281250D03*
X169068750Y91281250D03*
%TO.N,Net-(LD37-Pad1)*%
X202406250Y91281250D03*
X188118750Y91281250D03*
%TO.N,Net-(LD38-Pad1)*%
X221456250Y91281250D03*
X207168750Y91281250D03*
%TO.N,Net-(LD39-Pad1)*%
X226218750Y91281250D03*
X240506250Y91281250D03*
%TO.N,Net-(LD40-Pad1)*%
X259997000Y91281250D03*
X245268750Y91281250D03*
%TO.N,Net-(LD41-Pad1)*%
X278606250Y91281250D03*
X264318750Y91281250D03*
%TO.N,Net-(LD42-Pad1)*%
X283368750Y91281250D03*
X307181250Y91281250D03*
%TO.N,Net-(LD43-Pad1)*%
X340959500Y91281250D03*
X311943750Y91281250D03*
%TO.N,Net-(LD44-Pad1)*%
X359568750Y91281250D03*
X345281250Y91281250D03*
%TO.N,Net-(LD45-Pad1)*%
X364331250Y91281250D03*
X379059500Y91281250D03*
%TO.N,Net-(LD46-Pad1)*%
X383381250Y91281250D03*
X402431250Y91281250D03*
%TO.N,Net-(LD47-Pad1)*%
X407193750Y91281250D03*
X421481250Y91281250D03*
%TO.N,Net-(LD48-Pad1)*%
X440531250Y91281250D03*
X426243750Y91281250D03*
%TO.N,Net-(LD49-Pad1)*%
X445293750Y91281250D03*
X459581250Y91281250D03*
%TO.N,Net-(LD51-Pad1)*%
X7584500Y72231250D03*
X9525000Y62706250D03*
%TO.N,Net-(LD51-Pad3)*%
X26193750Y72231250D03*
X11906250Y72231250D03*
%TO.N,Net-(LD52-Pad3)*%
X54768750Y72231250D03*
X30956250Y72231250D03*
%TO.N,Net-(LD53-Pad3)*%
X59531250Y72231250D03*
X78581250Y72231250D03*
%TO.N,Net-(LD54-Pad3)*%
X83343750Y72231250D03*
X97631250Y72231250D03*
%TO.N,Net-(LD55-Pad3)*%
X102393750Y72231250D03*
X116681250Y72231250D03*
%TO.N,Net-(LD56-Pad3)*%
X135731250Y72231250D03*
X121443750Y72231250D03*
%TO.N,Net-(LD57-Pad3)*%
X154781250Y72231250D03*
X140493750Y72231250D03*
%TO.N,Net-(LD58-Pad3)*%
X159543750Y72231250D03*
X173831250Y72231250D03*
%TO.N,Net-(LD59-Pad3)*%
X178593750Y72231250D03*
X192881250Y72231250D03*
%TO.N,Net-(LD60-Pad3)*%
X197643750Y72231250D03*
X211931250Y72231250D03*
%TO.N,Net-(LD61-Pad3)*%
X216693750Y72231250D03*
X230981250Y72231250D03*
%TO.N,Net-(LD62-Pad3)*%
X235743750Y72231250D03*
X250031250Y72231250D03*
%TO.N,Net-(LD63-Pad3)*%
X269081250Y72231250D03*
X254793750Y72231250D03*
%TO.N,Net-(LD64-Pad3)*%
X273843750Y72231250D03*
X288131250Y72231250D03*
%TO.N,Net-(LD65-Pad3)*%
X311943750Y72231250D03*
X292893750Y72231250D03*
%TO.N,Net-(LD66-Pad3)*%
X340959500Y72231250D03*
X316706250Y72231250D03*
%TO.N,Net-(LD67-Pad3)*%
X345281250Y72231250D03*
X359568750Y72231250D03*
%TO.N,Net-(LD68-Pad3)*%
X379059500Y72231250D03*
X364331250Y72231250D03*
%TO.N,Net-(LD69-Pad3)*%
X383381250Y72231250D03*
X402431250Y72231250D03*
%TO.N,Net-(LD70-Pad3)*%
X407193750Y72231250D03*
X421922000Y72231250D03*
%TO.N,Net-(LD71-Pad3)*%
X426243750Y72231250D03*
X440531250Y72231250D03*
%TO.N,Net-(LD72-Pad3)*%
X445293750Y72231250D03*
X460022000Y72231250D03*
%TO.N,Net-(LD74-Pad1)*%
X11906250Y53181250D03*
X26193750Y53181250D03*
%TO.N,Net-(LD75-Pad1)*%
X57150000Y53181250D03*
X30956250Y53181250D03*
%TO.N,Net-(LD76-Pad1)*%
X83343750Y53181250D03*
X61912500Y53181250D03*
%TO.N,Net-(LD77-Pad1)*%
X88106250Y53181250D03*
X102393750Y53181250D03*
%TO.N,Net-(LD78-Pad1)*%
X121443750Y53181250D03*
X107156250Y53181250D03*
%TO.N,Net-(LD79-Pad1)*%
X140493750Y53181250D03*
X126206250Y53181250D03*
%TO.N,Net-(LD80-Pad1)*%
X145256250Y53181250D03*
X159543750Y53181250D03*
%TO.N,Net-(LD81-Pad1)*%
X164306250Y53181250D03*
X178593750Y53181250D03*
%TO.N,Net-(LD82-Pad1)*%
X183356250Y53181250D03*
X197643750Y53181250D03*
%TO.N,Net-(LD83-Pad1)*%
X202406250Y53181250D03*
X216693750Y53181250D03*
%TO.N,Net-(LD84-Pad1)*%
X235743750Y53181250D03*
X221456250Y53181250D03*
%TO.N,Net-(LD85-Pad1)*%
X254793750Y53181250D03*
X240506250Y53181250D03*
%TO.N,Net-(LD86-Pad1)*%
X273843750Y53181250D03*
X259556250Y53181250D03*
%TO.N,Net-(LD87-Pad1)*%
X278606250Y53181250D03*
X304800000Y53181250D03*
%TO.N,Net-(LD88-Pad1)*%
X402872000Y53181250D03*
X309562500Y53181250D03*
%TO.N,Net-(LD89-Pad1)*%
X407193750Y53181250D03*
X421922000Y53181250D03*
%TO.N,Net-(LD90-Pad1)*%
X440531250Y53181250D03*
X426243750Y53181250D03*
%TO.N,Net-(LD91-Pad1)*%
X460022000Y53181250D03*
X445293750Y53181250D03*
%TO.N,Net-(LD110-Pad3)*%
X445293750Y34131250D03*
X464343750Y38893750D03*
%TO.N,Net-(LD111-Pad3)*%
X7584500Y34131250D03*
X9525000Y24606250D03*
%TO.N,Net-(LD93-Pad3)*%
X26193750Y34131250D03*
X11906250Y34131250D03*
%TO.N,Net-(LD94-Pad3)*%
X61912500Y34131250D03*
X30956250Y34131250D03*
%TO.N,Net-(LD95-Pad3)*%
X66675000Y34131250D03*
X92868750Y34131250D03*
%TO.N,Net-(LD96-Pad3)*%
X111918750Y34131250D03*
X97631250Y34131250D03*
%TO.N,Net-(LD97-Pad3)*%
X116681250Y34131250D03*
X130968750Y34131250D03*
%TO.N,Net-(LD98-Pad3)*%
X135731250Y34131250D03*
X150018750Y34131250D03*
%TO.N,Net-(LD100-Pad1)*%
X154781250Y34131250D03*
X169068750Y34131250D03*
%TO.N,Net-(LD100-Pad3)*%
X173831250Y34131250D03*
X188118750Y34131250D03*
%TO.N,Net-(LD101-Pad3)*%
X192881250Y34131250D03*
X207168750Y34131250D03*
%TO.N,Net-(LD102-Pad3)*%
X226218750Y34131250D03*
X211931250Y34131250D03*
%TO.N,Net-(LD103-Pad3)*%
X245268750Y34131250D03*
X230981250Y34131250D03*
%TO.N,Net-(LD104-Pad3)*%
X264318750Y34131250D03*
X250031250Y34131250D03*
%TO.N,Net-(LD105-Pad3)*%
X300037500Y34131250D03*
X269081250Y34131250D03*
%TO.N,Net-(LD106-Pad3)*%
X304800000Y34131250D03*
X360009500Y34131250D03*
%TO.N,Net-(LD107-Pad3)*%
X402872000Y34131250D03*
X364331250Y34131250D03*
%TO.N,Net-(LD108-Pad3)*%
X407193750Y34131250D03*
X421922000Y34131250D03*
%TO.N,Net-(LD109-Pad3)*%
X440531250Y34131250D03*
X426243750Y34131250D03*
%TO.N,Net-(LD111-Pad1)*%
X26193750Y15081250D03*
X11906250Y15081250D03*
%TO.N,Net-(LD112-Pad1)*%
X30956250Y15081250D03*
X52387500Y15081250D03*
%TO.N,Net-(LD113-Pad1)*%
X57150000Y15081250D03*
X76200000Y15081250D03*
%TO.N,Net-(LD114-Pad1)*%
X100012500Y15081250D03*
X80962500Y15081250D03*
%TO.N,Net-(LD115-Pad1)*%
X171450000Y15081250D03*
X104775000Y15081250D03*
%TO.N,Net-(LD116-Pad1)*%
X176212500Y15081250D03*
X243328250Y15081250D03*
%TO.N,Net-(LD117-Pad1)*%
X266700000Y15081250D03*
X247650000Y15081250D03*
%TO.N,Net-(LD118-Pad1)*%
X290512500Y15081250D03*
X271462500Y15081250D03*
%TO.N,Net-(LD119-Pad1)*%
X295275000Y15081250D03*
X314325000Y15081250D03*
%TO.N,Net-(LD120-Pad1)*%
X340959500Y15081250D03*
X319087500Y15081250D03*
%TO.N,Net-(LD121-Pad1)*%
X359568750Y15081250D03*
X345281250Y15081250D03*
%TO.N,Net-(LD122-Pad1)*%
X364331250Y15081250D03*
X379059500Y15081250D03*
%TO.N,Net-(LD123-Pad1)*%
X383381250Y15081250D03*
X402431250Y15081250D03*
%TO.N,Net-(LD124-Pad1)*%
X407193750Y15081250D03*
X421922000Y15081250D03*
%TO.N,Net-(LD125-Pad1)*%
X426243750Y15081250D03*
X440531250Y15081250D03*
%TO.N,Net-(LD126-Pad1)*%
X454818750Y15081250D03*
X445293750Y15081250D03*
%TD*%
D39*
%TO.N,GND*%
X422431350Y135320900D02*
X424084750Y135320900D01*
X399042750Y135422500D02*
X400716750Y135422500D01*
X432325850Y118187400D02*
X431603150Y117464700D01*
X399042750Y136357500D02*
X398938750Y136461500D01*
X440444750Y109664500D02*
X441102750Y109664500D01*
X407993850Y120650000D02*
X403987500Y120650000D01*
X442141750Y128437500D02*
X441229750Y129349500D01*
X426483750Y110162500D02*
X425745750Y110162500D01*
X425745750Y110162500D02*
X425735750Y110172500D01*
X420655750Y135320900D02*
X422431350Y135320900D01*
X439796533Y129349500D02*
X441229750Y129349500D01*
X431577750Y103746300D02*
X431577750Y104815500D01*
X427536750Y114592100D02*
X426904150Y114592100D01*
X441356750Y130960000D02*
X441356750Y129476500D01*
X431577750Y104815500D02*
X431600750Y104838500D01*
X442348750Y134861250D02*
X443263750Y135776250D01*
X441356750Y129476500D02*
X441229750Y129349500D01*
X434295550Y118556900D02*
X432695350Y118556900D01*
X397287750Y132293500D02*
X399042750Y132293500D01*
X439428750Y114617500D02*
X440086750Y114617500D01*
X431247550Y103416100D02*
X431577750Y103746300D01*
X420655750Y132191900D02*
X422355150Y132191900D01*
X399042750Y132293500D02*
X400716750Y132293500D01*
X437971750Y117748500D02*
X437927750Y117792500D01*
X442141750Y127825500D02*
X442141750Y128437500D01*
X439324750Y117748500D02*
X437971750Y117748500D01*
X432695350Y118556900D02*
X432325850Y118187400D01*
X399042750Y135422500D02*
X399042750Y136357500D01*
X408137750Y114054500D02*
X411182750Y114054500D01*
X415471750Y133690500D02*
X416447250Y133690500D01*
X422431350Y136205100D02*
X422433750Y136207500D01*
X422306750Y132143500D02*
X422306750Y131254500D01*
X444658750Y118785500D02*
X444658750Y119570500D01*
X422431350Y135320900D02*
X422431350Y136205100D01*
X434387500Y109125000D02*
X433387500Y110125000D01*
X408006550Y120662700D02*
X407993850Y120650000D01*
X414813750Y133690500D02*
X415471750Y133690500D01*
X435538750Y134861250D02*
X434623750Y135776250D01*
X399042750Y131358500D02*
X398938750Y131254500D01*
X426904150Y114592100D02*
X426878750Y114617500D01*
X422355150Y132191900D02*
X422306750Y132143500D01*
X439070750Y128623717D02*
X439796533Y129349500D01*
X404982750Y114054500D02*
X408137750Y114054500D01*
X399042750Y132293500D02*
X399042750Y131358500D01*
X431603150Y117464700D02*
X429469550Y117464700D01*
X434387500Y107687500D02*
X434387500Y109125000D01*
X397287750Y135422500D02*
X399042750Y135422500D01*
X422355150Y132191900D02*
X424084750Y132191900D01*
X436784750Y130960000D02*
X436784750Y130111500D01*
X431600750Y104838500D02*
X431600750Y105854500D01*
D40*
%TO.N,VBUS*%
X418745250Y134054000D02*
X419004750Y133794500D01*
D39*
X439070750Y130202283D02*
X438217967Y129349500D01*
D40*
X419004750Y133794500D02*
X429869500Y133794500D01*
X418745250Y134617500D02*
X418745250Y134054000D01*
D39*
X436073550Y129349500D02*
X431628550Y133794500D01*
D40*
X429869500Y133794500D02*
X431012500Y134937500D01*
D39*
X431628550Y133794500D02*
X429869500Y133794500D01*
X438217967Y129349500D02*
X436073550Y129349500D01*
%TO.N,Net-(D1-Pad2)*%
X12700000Y135031250D02*
X12700000Y131445000D01*
%TO.N,Net-(D2-Pad2)*%
X93662500Y135031250D02*
X93662500Y131445000D01*
%TO.N,+1V1*%
X432787500Y107687500D02*
X432787500Y108241912D01*
X432787500Y106071250D02*
X432570750Y105854500D01*
X431952978Y112839500D02*
X431587020Y112473542D01*
X432787500Y107687500D02*
X432787500Y106071250D01*
X431587020Y109442392D02*
X431587020Y114562020D01*
X433587500Y113366412D02*
X433060588Y112839500D01*
X433587500Y114562500D02*
X433587500Y113366412D01*
X433060588Y112839500D02*
X431952978Y112839500D01*
X431587500Y116479050D02*
X431587500Y114562500D01*
X434295550Y117586900D02*
X433587500Y116878850D01*
X433587500Y116878850D02*
X433587500Y114562500D01*
X432787500Y108241912D02*
X431587020Y109442392D01*
%TO.N,Net-(D4-Pad2)*%
X131762500Y135031250D02*
X131762500Y131445000D01*
%TO.N,Net-(D5-Pad2)*%
X150812500Y135031250D02*
X150812500Y131445000D01*
%TO.N,Net-(D6-Pad2)*%
X179387500Y135031250D02*
X179387500Y131445000D01*
%TO.N,Net-(D7-Pad2)*%
X198437500Y135031250D02*
X198437500Y131445000D01*
%TO.N,Net-(D8-Pad2)*%
X217487500Y135031250D02*
X217487500Y131445000D01*
%TO.N,Net-(D9-Pad2)*%
X236537500Y135031250D02*
X236537500Y131445000D01*
%TO.N,Net-(D10-Pad2)*%
X346075000Y135031250D02*
X346075000Y131445000D01*
%TO.N,Net-(D11-Pad2)*%
X365125000Y135031250D02*
X365125000Y131445000D01*
X365125000Y131445000D02*
X365760000Y130810000D01*
%TO.N,Net-(D12-Pad2)*%
X384175000Y135031250D02*
X384175000Y131445000D01*
%TO.N,Net-(D13-Pad2)*%
X93662500Y115981250D02*
X93662500Y112395000D01*
%TO.N,Net-(D15-Pad2)*%
X131762500Y115981250D02*
X131762500Y112395000D01*
%TO.N,Net-(D16-Pad2)*%
X150812500Y115981250D02*
X150812500Y112395000D01*
%TO.N,Net-(D17-Pad2)*%
X179387500Y115981250D02*
X179387500Y112395000D01*
%TO.N,Net-(D18-Pad2)*%
X198437500Y115981250D02*
X198437500Y112395000D01*
%TO.N,Net-(D19-Pad2)*%
X217487500Y115981250D02*
X217487500Y112395000D01*
%TO.N,Net-(D20-Pad2)*%
X236537500Y115981250D02*
X236537500Y112395000D01*
%TO.N,Net-(D21-Pad2)*%
X265112500Y115981250D02*
X265112500Y112395000D01*
%TO.N,Net-(D22-Pad2)*%
X284162500Y115981250D02*
X284162500Y112395000D01*
%TO.N,Net-(D23-Pad2)*%
X303212500Y115981250D02*
X303212500Y112395000D01*
%TO.N,Net-(D24-Pad2)*%
X322262500Y115981250D02*
X322262500Y112395000D01*
%TO.N,Net-(D25-Pad2)*%
X346075000Y115981250D02*
X346075000Y112395000D01*
%TO.N,Net-(D26-Pad2)*%
X365125000Y115981250D02*
X365125000Y112395000D01*
%TO.N,Net-(D27-Pad2)*%
X384175000Y115981250D02*
X384175000Y112395000D01*
%TO.N,Net-(D28-Pad2)*%
X12700000Y87406250D02*
X12700000Y83820000D01*
%TO.N,Net-(D29-Pad2)*%
X31750000Y87406250D02*
X31750000Y83820000D01*
%TO.N,Net-(D30-Pad2)*%
X55562500Y87406250D02*
X55562500Y83820000D01*
%TO.N,Net-(D31-Pad2)*%
X74612500Y87406250D02*
X74612500Y83820000D01*
%TO.N,Net-(D32-Pad2)*%
X93662500Y87406250D02*
X93662500Y83820000D01*
%TO.N,Net-(D34-Pad2)*%
X131762500Y87406250D02*
X131762500Y83820000D01*
%TO.N,Net-(D35-Pad2)*%
X150812500Y87406250D02*
X150812500Y83820000D01*
%TO.N,Net-(D36-Pad2)*%
X169862500Y87406250D02*
X169862500Y83820000D01*
%TO.N,Net-(D37-Pad2)*%
X188912500Y87406250D02*
X188912500Y83820000D01*
%TO.N,Net-(D38-Pad2)*%
X207962500Y87406250D02*
X207962500Y83820000D01*
%TO.N,Net-(D39-Pad2)*%
X227012500Y87406250D02*
X227012500Y83820000D01*
%TO.N,Net-(D40-Pad2)*%
X246062500Y87406250D02*
X246062500Y83820000D01*
%TO.N,Net-(D41-Pad2)*%
X265112500Y87406250D02*
X265112500Y83820000D01*
%TO.N,Net-(D42-Pad2)*%
X284162500Y87406250D02*
X284162500Y83820000D01*
%TO.N,Net-(D43-Pad2)*%
X312737500Y87406250D02*
X312737500Y83820000D01*
%TO.N,Net-(D44-Pad2)*%
X346075000Y87406250D02*
X346075000Y83820000D01*
%TO.N,Net-(D45-Pad2)*%
X365125000Y87406250D02*
X365125000Y83820000D01*
%TO.N,Net-(D46-Pad2)*%
X384175000Y87406250D02*
X384175000Y83820000D01*
%TO.N,Net-(D47-Pad2)*%
X407987500Y87406250D02*
X407987500Y83820000D01*
%TO.N,Net-(D48-Pad2)*%
X427037500Y87406250D02*
X427037500Y83820000D01*
%TO.N,Net-(D49-Pad2)*%
X446087500Y87406250D02*
X446087500Y83820000D01*
%TO.N,Net-(D50-Pad2)*%
X465137500Y87406250D02*
X465137500Y83820000D01*
%TO.N,Net-(D51-Pad2)*%
X12700000Y68356250D02*
X12700000Y64770000D01*
%TO.N,Net-(D52-Pad2)*%
X31750000Y68356250D02*
X31750000Y64770000D01*
%TO.N,Net-(D53-Pad2)*%
X60325000Y68356250D02*
X60325000Y64770000D01*
%TO.N,Net-(D54-Pad2)*%
X84137500Y68356250D02*
X84137500Y64770000D01*
%TO.N,Net-(D55-Pad2)*%
X103187500Y68356250D02*
X103187500Y64770000D01*
%TO.N,28{slash}A2*%
X429042478Y112925000D02*
X428501522Y113465957D01*
X429950000Y112925000D02*
X429042478Y112925000D01*
X391026064Y127933500D02*
X390156750Y128802815D01*
X423665064Y127933500D02*
X391026064Y127933500D01*
X428265293Y113455500D02*
X426626536Y113455500D01*
X426626536Y113455500D02*
X425843750Y114238286D01*
X425843750Y125754814D02*
X423665064Y127933500D01*
X390156750Y128802815D02*
X390156750Y135670500D01*
X428501522Y113465957D02*
X428275750Y113465957D01*
X428275750Y113465957D02*
X428265293Y113455500D01*
X390156750Y135670500D02*
X392080750Y137594500D01*
X425843750Y114238286D02*
X425843750Y125754814D01*
%TO.N,Net-(D57-Pad2)*%
X141287500Y68356250D02*
X141287500Y64770000D01*
%TO.N,Net-(D58-Pad2)*%
X160337500Y68356250D02*
X160337500Y64770000D01*
%TO.N,Net-(D59-Pad2)*%
X179387500Y68356250D02*
X179387500Y64770000D01*
%TO.N,Net-(D60-Pad2)*%
X198437500Y68356250D02*
X198437500Y64770000D01*
%TO.N,Net-(D61-Pad2)*%
X217487500Y68356250D02*
X217487500Y64770000D01*
%TO.N,Net-(D62-Pad2)*%
X236537500Y68356250D02*
X236537500Y64770000D01*
%TO.N,Net-(D63-Pad2)*%
X255587500Y68356250D02*
X255587500Y64770000D01*
%TO.N,Net-(D64-Pad2)*%
X274637500Y68356250D02*
X274637500Y64770000D01*
%TO.N,Net-(D65-Pad2)*%
X293687500Y68356250D02*
X293687500Y64770000D01*
%TO.N,Net-(D66-Pad2)*%
X317500000Y68356250D02*
X317500000Y64770000D01*
%TO.N,Net-(D67-Pad2)*%
X346075000Y68356250D02*
X346075000Y64770000D01*
%TO.N,Net-(D68-Pad2)*%
X365125000Y68356250D02*
X365125000Y64770000D01*
%TO.N,Net-(D69-Pad2)*%
X384175000Y68356250D02*
X384175000Y64770000D01*
%TO.N,Net-(D70-Pad2)*%
X407987500Y68356250D02*
X407987500Y64770000D01*
%TO.N,Net-(D71-Pad2)*%
X427037500Y68356250D02*
X427037500Y64770000D01*
%TO.N,Net-(D72-Pad2)*%
X446087500Y68356250D02*
X446087500Y64770000D01*
%TO.N,Net-(D73-Pad2)*%
X465137500Y68356250D02*
X465137500Y64770000D01*
%TO.N,Net-(D74-Pad2)*%
X12700000Y49306250D02*
X12700000Y45720000D01*
%TO.N,Net-(D75-Pad2)*%
X31750000Y49306250D02*
X31750000Y45720000D01*
%TO.N,Net-(D76-Pad2)*%
X62706250Y49306250D02*
X62706250Y45720000D01*
%TO.N,Net-(D77-Pad2)*%
X88900000Y49306250D02*
X88900000Y45720000D01*
%TO.N,Net-(D78-Pad2)*%
X107950000Y49306250D02*
X107950000Y45720000D01*
%TO.N,Net-(D80-Pad2)*%
X146050000Y49306250D02*
X146050000Y45720000D01*
%TO.N,Net-(D81-Pad2)*%
X165100000Y49306250D02*
X165100000Y45720000D01*
%TO.N,Net-(D82-Pad2)*%
X184150000Y49306250D02*
X184150000Y45720000D01*
%TO.N,Net-(D3-Pad2)*%
X112712500Y135031250D02*
X112712500Y131445000D01*
%TO.N,Net-(D84-Pad2)*%
X222250000Y49306250D02*
X222250000Y45720000D01*
%TO.N,Net-(D85-Pad2)*%
X241300000Y49306250D02*
X241300000Y45720000D01*
%TO.N,Net-(D86-Pad2)*%
X260350000Y49306250D02*
X260350000Y45720000D01*
%TO.N,Net-(D87-Pad2)*%
X279400000Y49306250D02*
X279400000Y45720000D01*
%TO.N,Net-(D88-Pad2)*%
X310356250Y49306250D02*
X310356250Y45720000D01*
%TO.N,Net-(D89-Pad2)*%
X407987500Y49306250D02*
X407987500Y45720000D01*
%TO.N,Net-(D90-Pad2)*%
X427037500Y49306250D02*
X427037500Y45720000D01*
%TO.N,Net-(D91-Pad2)*%
X446087500Y49306250D02*
X446087500Y45720000D01*
%TO.N,Net-(D92-Pad2)*%
X465137500Y49306250D02*
X465137500Y45720000D01*
%TO.N,Net-(D93-Pad2)*%
X12700000Y30256250D02*
X12700000Y26670000D01*
%TO.N,Net-(D94-Pad2)*%
X31750000Y30256250D02*
X31750000Y26670000D01*
%TO.N,Net-(D95-Pad2)*%
X67468750Y30256250D02*
X67468750Y26670000D01*
%TO.N,Net-(D96-Pad2)*%
X98425000Y30256250D02*
X98425000Y26670000D01*
%TO.N,Net-(D97-Pad2)*%
X117475000Y30256250D02*
X117475000Y26670000D01*
%TO.N,27{slash}A1*%
X389756750Y128625500D02*
X390848750Y127533500D01*
X335965750Y137496500D02*
X385711750Y137496500D01*
X425443750Y125589128D02*
X425443750Y114072600D01*
X387762750Y137096500D02*
X389756750Y135102500D01*
X423499378Y127533500D02*
X425443750Y125589128D01*
X9349489Y137430761D02*
X7905750Y138874500D01*
X334803750Y125158500D02*
X257841750Y125158500D01*
X428346293Y113055500D02*
X428876792Y112525001D01*
X428876792Y112525001D02*
X429950000Y112525000D01*
X389756750Y135102500D02*
X389756750Y128625500D01*
X248484150Y137430761D02*
X9349489Y137430761D01*
X385711750Y137496500D02*
X385722836Y137485414D01*
X426460850Y113055500D02*
X428346293Y113055500D01*
X257841750Y125158500D02*
X249586750Y133413500D01*
X248564411Y137350500D02*
X248484150Y137430761D01*
X390848750Y127533500D02*
X423499378Y127533500D01*
X425443750Y114072600D02*
X426460850Y113055500D01*
X335946750Y137477500D02*
X335965750Y137496500D01*
%TO.N,Net-(D99-Pad2)*%
X155575000Y30256250D02*
X155575000Y26670000D01*
%TO.N,Net-(D100-Pad2)*%
X174625000Y30256250D02*
X174625000Y26670000D01*
%TO.N,Net-(D101-Pad2)*%
X193675000Y30256250D02*
X193675000Y26670000D01*
%TO.N,Net-(D102-Pad2)*%
X212725000Y30256250D02*
X212725000Y26670000D01*
%TO.N,Net-(D103-Pad2)*%
X231775000Y30256250D02*
X231775000Y26670000D01*
%TO.N,Net-(D104-Pad2)*%
X250825000Y30256250D02*
X250825000Y26670000D01*
%TO.N,Net-(D105-Pad2)*%
X269875000Y30256250D02*
X269875000Y26670000D01*
%TO.N,Net-(D106-Pad2)*%
X305593750Y30256250D02*
X305593750Y26670000D01*
%TO.N,Net-(D107-Pad2)*%
X365125000Y30256250D02*
X365125000Y26670000D01*
%TO.N,Net-(D108-Pad2)*%
X407987500Y30256250D02*
X407987500Y26670000D01*
%TO.N,Net-(D109-Pad2)*%
X427037500Y30256250D02*
X427037500Y26670000D01*
%TO.N,Net-(D110-Pad2)*%
X446087500Y30256250D02*
X446087500Y26670000D01*
%TO.N,Net-(D111-Pad2)*%
X12700000Y11206250D02*
X12700000Y7620000D01*
%TO.N,Net-(D112-Pad2)*%
X31750000Y11206250D02*
X31750000Y7620000D01*
%TO.N,Net-(D113-Pad2)*%
X57943750Y11206250D02*
X57943750Y7620000D01*
%TO.N,Net-(D114-Pad2)*%
X81756250Y11206250D02*
X81756250Y7620000D01*
%TO.N,Net-(D115-Pad2)*%
X105568750Y11206250D02*
X105568750Y7620000D01*
%TO.N,Net-(D116-Pad2)*%
X177006250Y11206250D02*
X177006250Y7620000D01*
%TO.N,Net-(D117-Pad2)*%
X248443750Y11206250D02*
X248443750Y7620000D01*
%TO.N,Net-(D118-Pad2)*%
X272256250Y11206250D02*
X272256250Y7620000D01*
%TO.N,Net-(D119-Pad2)*%
X296068750Y11206250D02*
X296068750Y7620000D01*
%TO.N,Net-(D120-Pad2)*%
X319881250Y11206250D02*
X319881250Y7620000D01*
%TO.N,Net-(D121-Pad2)*%
X346075000Y11206250D02*
X346075000Y7620000D01*
%TO.N,Net-(D122-Pad2)*%
X365125000Y11206250D02*
X365125000Y7620000D01*
%TO.N,Net-(D123-Pad2)*%
X384175000Y11206250D02*
X384175000Y7620000D01*
%TO.N,Net-(DT1-Pad2)*%
X267429500Y130810000D02*
X267429500Y127764250D01*
%TO.N,Net-(D14-Pad2)*%
X112712500Y115981250D02*
X112712500Y112395000D01*
%TO.N,D-*%
X438193750Y134861250D02*
X438193750Y130623500D01*
X438193750Y135835272D02*
X438244239Y135885761D01*
X438244239Y135885761D02*
X439057978Y135885761D01*
X439193750Y135749989D02*
X439193750Y134861250D01*
X439057978Y135885761D02*
X439193750Y135749989D01*
X438193750Y134861250D02*
X438193750Y135835272D01*
%TO.N,D+*%
X438786478Y133794500D02*
X439601022Y133794500D01*
X438693750Y133887228D02*
X438786478Y133794500D01*
X438693750Y134861250D02*
X438693750Y133887228D01*
X439693750Y130877500D02*
X440020750Y130550500D01*
X439601022Y133794500D02*
X439693750Y133887228D01*
X439693750Y134861250D02*
X439693750Y130877500D01*
X439693750Y133887228D02*
X439693750Y134861250D01*
%TO.N,Net-(D126-Pad2)*%
X446087500Y11206250D02*
X446087500Y7620000D01*
%TO.N,Net-(DT2-Pad2)*%
X286479500Y130810000D02*
X286479500Y127764250D01*
%TO.N,Net-(DT3-Pad2)*%
X305529500Y130810000D02*
X305529500Y127764250D01*
%TO.N,Net-(DA1-Pad2)*%
X456470500Y135890000D02*
X454439250Y135890000D01*
%TO.N,Net-(DT4-Pad2)*%
X324579500Y130810000D02*
X324579500Y127764250D01*
%TO.N,Net-(D127-Pad2)*%
X462458401Y22860000D02*
X464502500Y22860000D01*
X458787500Y19189099D02*
X462458401Y22860000D01*
X458787500Y14193750D02*
X458787500Y19189099D01*
%TO.N,Net-(D125-Pad2)*%
X427037500Y11206250D02*
X427037500Y7620000D01*
%TO.N,Net-(D124-Pad2)*%
X407987500Y11206250D02*
X407987500Y7620000D01*
%TO.N,Net-(D33-Pad2)*%
X112712500Y87406250D02*
X112712500Y83820000D01*
%TO.N,Net-(D56-Pad2)*%
X122237500Y68356250D02*
X122237500Y64770000D01*
D41*
%TO.N,Net-(CP1-Pad1)*%
X416470250Y132717500D02*
X414902750Y132717500D01*
X414902750Y132717500D02*
X414813750Y132628500D01*
%TO.N,Net-(CP1-Pad2)*%
X414727750Y131572500D02*
X414813750Y131658500D01*
X418745250Y132011000D02*
X418392750Y131658500D01*
X412082750Y131572500D02*
X414727750Y131572500D01*
X418392750Y131658500D02*
X414813750Y131658500D01*
X412082750Y133794500D02*
X412082750Y131572500D01*
X418745250Y132717500D02*
X418745250Y132011000D01*
%TO.N,Net-(RP1-Pad2)*%
X416470250Y134617500D02*
X414856750Y134617500D01*
X414813750Y135722500D02*
X414813750Y134660500D01*
D39*
%TO.N,26{slash}A0*%
X411987500Y125761250D02*
X411987500Y120650000D01*
X423333692Y127133500D02*
X413359750Y127133500D01*
X425043750Y113906915D02*
X425043750Y125423442D01*
X425043750Y125423442D02*
X423333692Y127133500D01*
X428180607Y112655500D02*
X426295164Y112655500D01*
X426295164Y112655500D02*
X425043750Y113906915D01*
X428711106Y112125001D02*
X428180607Y112655500D01*
X429950000Y112125000D02*
X428711106Y112125001D01*
X413359750Y127133500D02*
X411987500Y125761250D01*
%TO.N,23*%
X302612989Y117980761D02*
X265712011Y117980761D01*
X218087011Y117980761D02*
X217487500Y117381250D01*
X179387500Y117381250D02*
X179987011Y117980761D01*
X303812011Y117980761D02*
X303212500Y117381250D01*
X385145000Y117381250D02*
X384175000Y117381250D01*
X131762500Y117381250D02*
X132362011Y117980761D01*
X216887989Y117980761D02*
X217487500Y117381250D01*
X346075000Y117381250D02*
X345475489Y117980761D01*
X345475489Y117980761D02*
X303812011Y117980761D01*
X94262011Y117980761D02*
X131162989Y117980761D01*
X131162989Y117980761D02*
X131762500Y117381250D01*
X132362011Y117980761D02*
X178787989Y117980761D01*
X423843750Y113409857D02*
X423843750Y115747500D01*
X179987011Y117980761D02*
X216887989Y117980761D01*
X384175000Y117381250D02*
X383575489Y117980761D01*
X427683550Y111455500D02*
X428214048Y110925002D01*
X93662500Y117381250D02*
X94262011Y117980761D01*
X346674511Y117980761D02*
X346075000Y117381250D01*
X422414750Y117176500D02*
X385349750Y117176500D01*
X303212500Y117381250D02*
X302612989Y117980761D01*
X265112500Y117381250D02*
X264512989Y117980761D01*
X425798106Y111455500D02*
X427683550Y111455500D01*
X385349750Y117176500D02*
X385145000Y117381250D01*
X265712011Y117980761D02*
X265112500Y117381250D01*
X383575489Y117980761D02*
X346674511Y117980761D01*
X429950000Y110925000D02*
X428214048Y110925002D01*
X264512989Y117980761D02*
X218087011Y117980761D01*
X423843750Y115747500D02*
X422414750Y117176500D01*
X423843750Y113409857D02*
X425798106Y111455500D01*
X178787989Y117980761D02*
X179387500Y117381250D01*
%TO.N,Net-(D79-Pad2)*%
X127000000Y49306250D02*
X127000000Y45720000D01*
%TO.N,22*%
X237237500Y116681250D02*
X283462500Y116681250D01*
X321562500Y116681250D02*
X322262500Y117381250D01*
X150212989Y116781739D02*
X150812500Y117381250D01*
X198437500Y117381250D02*
X199037011Y116781739D01*
X235937989Y116781739D02*
X236537500Y117381250D01*
X365729750Y116776500D02*
X422249064Y116776500D01*
X284162500Y117381250D02*
X284862500Y116681250D01*
X425632420Y111055500D02*
X427517864Y111055500D01*
X197837989Y116781739D02*
X198437500Y117381250D01*
X429950000Y110525000D02*
X428044111Y110525000D01*
X427761611Y110807500D02*
X427761611Y110811753D01*
X428044111Y110525000D02*
X427761611Y110807500D01*
X365125000Y117381250D02*
X365729750Y116776500D01*
X422249064Y116776500D02*
X423443750Y115581814D01*
X423443750Y115581814D02*
X423443750Y113244170D01*
X236537500Y117381250D02*
X237237500Y116681250D01*
X423443750Y113244170D02*
X425632420Y111055500D01*
X199037011Y116781739D02*
X235937989Y116781739D01*
X284862500Y116681250D02*
X321562500Y116681250D01*
X322262500Y117381250D02*
X322862011Y116781739D01*
X427761611Y110811753D02*
X427517864Y111055500D01*
X322862011Y116781739D02*
X364525489Y116781739D01*
X151412011Y116781739D02*
X197837989Y116781739D01*
X113312011Y116781739D02*
X150212989Y116781739D01*
X283462500Y116681250D02*
X284162500Y117381250D01*
X150812500Y117381250D02*
X151412011Y116781739D01*
X112712500Y117381250D02*
X113312011Y116781739D01*
X364525489Y116781739D02*
X365125000Y117381250D01*
%TO.N,21*%
X26035000Y23495000D02*
X6985000Y23495000D01*
X428336250Y109725000D02*
X428148750Y109537500D01*
X421036750Y109537500D02*
X419131750Y107632500D01*
X26035000Y4445000D02*
X6985000Y4445000D01*
X6985000Y107632500D02*
X419131750Y107632500D01*
X429950000Y109725000D02*
X428336250Y109725000D01*
X6985000Y80645000D02*
X26035000Y80645000D01*
X428148750Y109537500D02*
X421036750Y109537500D01*
X26035000Y42545000D02*
X6985000Y42545000D01*
X26035000Y61595000D02*
X6985000Y61595000D01*
%TO.N,Net-(D98-Pad2)*%
X136525000Y30256250D02*
X136525000Y26670000D01*
%TO.N,20*%
X83185000Y42545000D02*
X56991250Y42545000D01*
X78422500Y61595000D02*
X54610000Y61595000D01*
X68897500Y80645000D02*
X49847500Y80645000D01*
X76041250Y4445000D02*
X61817250Y4445000D01*
X428501936Y109325000D02*
X428314436Y109137500D01*
X421202436Y109137500D02*
X419297436Y107232500D01*
X50142250Y107232500D02*
X419239750Y107232500D01*
X49942750Y107033000D02*
X50142250Y107232500D01*
X61817250Y4445000D02*
X52228750Y4445000D01*
X429950000Y109325000D02*
X428501936Y109325000D01*
X61753750Y23495000D02*
X92710000Y23495000D01*
X428314436Y109137500D02*
X421202436Y109137500D01*
X419297436Y107232500D02*
X419239750Y107232500D01*
%TO.N,18*%
X420043779Y106835844D02*
X419640435Y106432500D01*
X429950000Y108525000D02*
X428833308Y108525000D01*
X149860000Y23495000D02*
X168910000Y23495000D01*
X126047500Y80645000D02*
X145097500Y80645000D01*
X140335000Y42545000D02*
X159385000Y42545000D01*
X149891750Y4457700D02*
X149904450Y4445000D01*
X126047500Y106140250D02*
X126339750Y106432500D01*
X421533808Y108337500D02*
X420043779Y106847471D01*
X149904450Y4445000D02*
X171291250Y4445000D01*
X420043779Y106847471D02*
X420043779Y106835844D01*
X126047500Y109220000D02*
X145097500Y109220000D01*
X135572500Y61595000D02*
X154622500Y61595000D01*
X428833308Y108525000D02*
X428645807Y108337500D01*
X428645807Y108337500D02*
X421533808Y108337500D01*
X126047500Y128270000D02*
X145097500Y128270000D01*
X419640435Y106432500D02*
X419569750Y106432500D01*
X126339750Y106432500D02*
X419569750Y106432500D01*
%TO.N,15*%
X426116750Y99123500D02*
X435768750Y99123500D01*
X314166250Y4445000D02*
X299815250Y4445000D01*
X259397500Y109220000D02*
X278447500Y109220000D01*
X259397500Y104997250D02*
X259632750Y105232500D01*
X259397500Y80645000D02*
X240347500Y80645000D01*
X436403750Y103818767D02*
X434787500Y105435017D01*
X435768750Y99123500D02*
X436403750Y99758500D01*
X436403750Y99758500D02*
X436403750Y103818767D01*
X259632750Y105232500D02*
X420007750Y105232500D01*
X299815250Y4445000D02*
X290353750Y4445000D01*
X420007750Y105232500D02*
X426116750Y99123500D01*
X268922500Y61595000D02*
X249872500Y61595000D01*
X434787500Y105435017D02*
X434787500Y107687500D01*
X273685000Y42545000D02*
X254635000Y42545000D01*
X299878750Y23495000D02*
X264160000Y23495000D01*
%TO.N,1*%
X150812500Y88804750D02*
X151542750Y88074500D01*
X112112989Y88206739D02*
X75212011Y88206739D01*
X441728450Y112925000D02*
X436825000Y112925000D01*
X227012500Y88806250D02*
X227612011Y88206739D01*
X264512989Y88206739D02*
X265112500Y88806250D01*
X408587011Y88206739D02*
X445487989Y88206739D01*
X150207750Y88201500D02*
X150812500Y88806250D01*
X112712500Y88806250D02*
X112112989Y88206739D01*
X444102750Y108930700D02*
X444102750Y110550700D01*
X32349511Y88206739D02*
X74012989Y88206739D01*
X365125000Y88806250D02*
X365724511Y88206739D01*
X265112500Y88806250D02*
X265712011Y88206739D01*
X188180750Y88074500D02*
X188912500Y88806250D01*
X312737500Y88806250D02*
X313337011Y88206739D01*
X151542750Y88074500D02*
X188180750Y88074500D01*
X312137989Y88206739D02*
X312737500Y88806250D01*
X74012989Y88206739D02*
X74612500Y88806250D01*
X443566550Y108394500D02*
X444102750Y108930700D01*
X112712500Y88804750D02*
X113315750Y88201500D01*
X226412989Y88206739D02*
X227012500Y88806250D01*
X189512011Y88206739D02*
X226412989Y88206739D01*
X113315750Y88201500D02*
X150207750Y88201500D01*
X75212011Y88206739D02*
X74612500Y88806250D01*
X313337011Y88206739D02*
X364525489Y88206739D01*
X188912500Y88806250D02*
X189512011Y88206739D01*
X444102750Y110550700D02*
X441728450Y112925000D01*
X31750000Y88806250D02*
X32349511Y88206739D01*
X443566550Y107378500D02*
X443566550Y108394500D01*
X365724511Y88206739D02*
X407387989Y88206739D01*
X265712011Y88206739D02*
X312137989Y88206739D01*
X407387989Y88206739D02*
X407987500Y88806250D01*
X364525489Y88206739D02*
X365125000Y88806250D01*
X227612011Y88206739D02*
X264512989Y88206739D01*
X407987500Y88806250D02*
X408587011Y88206739D01*
X445487989Y88206739D02*
X446087500Y88806250D01*
D42*
%TO.N,+5v*%
X436493750Y135721621D02*
X438503629Y137731500D01*
X438503629Y137731500D02*
X439383871Y137731500D01*
X441393750Y135721621D02*
X439383871Y137731500D01*
X434686176Y137731500D02*
X432587500Y135632824D01*
X436493750Y134861250D02*
X436493750Y135721621D01*
X432587500Y135632824D02*
X432587500Y134937500D01*
X438503629Y137731500D02*
X434686176Y137731500D01*
X441393750Y134861250D02*
X441393750Y135721621D01*
D39*
%TO.N,8*%
X438040307Y109725000D02*
X436825000Y109725000D01*
X346075000Y12606250D02*
X346674511Y13205761D01*
X104969239Y13205761D02*
X105568750Y12606250D01*
X105568750Y12606250D02*
X106168261Y13205761D01*
X296668261Y13205761D02*
X345475489Y13205761D01*
X295469239Y13205761D02*
X296068750Y12606250D01*
X439553350Y108211957D02*
X438040307Y109725000D01*
X13299511Y13205761D02*
X57344239Y13205761D01*
X106168261Y13205761D02*
X247844239Y13205761D01*
X431831750Y13398500D02*
X458182750Y13398500D01*
X247844239Y13205761D02*
X248443750Y12606250D01*
X296068750Y12606250D02*
X296668261Y13205761D01*
X57943750Y12606250D02*
X58543261Y13205761D01*
X427037500Y12668250D02*
X427767750Y13398500D01*
X248443750Y12606250D02*
X249043261Y13205761D01*
X458182750Y13398500D02*
X458787500Y12793750D01*
X346674511Y13205761D02*
X383575489Y13205761D01*
X426437989Y13205761D02*
X427037500Y12606250D01*
X345475489Y13205761D02*
X346075000Y12606250D01*
X384175000Y12606250D02*
X384774511Y13205761D01*
X249043261Y13205761D02*
X295469239Y13205761D01*
X58543261Y13205761D02*
X104969239Y13205761D01*
X384774511Y13205761D02*
X426437989Y13205761D01*
X12700000Y12606250D02*
X13299511Y13205761D01*
X57344239Y13205761D02*
X57943750Y12606250D01*
X427767750Y13398500D02*
X431831750Y13398500D01*
X439553350Y107861100D02*
X439553350Y108211957D01*
X383575489Y13205761D02*
X384175000Y12606250D01*
%TO.N,7*%
X441105850Y110525000D02*
X436825000Y110525000D01*
X364648750Y31051500D02*
X365125000Y31527750D01*
X305593750Y31656250D02*
X304994239Y31056739D01*
X211987171Y30918421D02*
X212725000Y31656250D01*
X305624000Y31656250D02*
X306228750Y31051500D01*
X136525000Y31656250D02*
X137262829Y30918421D01*
X441702750Y109502500D02*
X441702750Y109928100D01*
X440721750Y109054900D02*
X441255150Y109054900D01*
X408590750Y31053000D02*
X445484250Y31053000D01*
X175362829Y30918421D02*
X211987171Y30918421D01*
X440122750Y107399000D02*
X440122750Y108455900D01*
X440122750Y108455900D02*
X440721750Y109054900D01*
X407987500Y31656250D02*
X408590750Y31053000D01*
X213462829Y30918421D02*
X250087171Y30918421D01*
X251424511Y31056739D02*
X250825000Y31656250D01*
X173887171Y30918421D02*
X174625000Y31656250D01*
X32349511Y31056739D02*
X31750000Y31656250D01*
X407447750Y31051500D02*
X407987500Y31591250D01*
X365729750Y31051500D02*
X407447750Y31051500D01*
X441255150Y109054900D02*
X441702750Y109502500D01*
X212725000Y31656250D02*
X213462829Y30918421D01*
X98425000Y31656250D02*
X99162829Y30918421D01*
X440102250Y107378500D02*
X440122750Y107399000D01*
X99162829Y30918421D02*
X135787171Y30918421D01*
X250087171Y30918421D02*
X250825000Y31656250D01*
X98425000Y31656250D02*
X97825489Y31056739D01*
X445484250Y31053000D02*
X446087500Y31656250D01*
X306228750Y31051500D02*
X364648750Y31051500D01*
X304994239Y31056739D02*
X251424511Y31056739D01*
X135787171Y30918421D02*
X136525000Y31656250D01*
X97825489Y31056739D02*
X32349511Y31056739D01*
X174625000Y31656250D02*
X175362829Y30918421D01*
X441702750Y109928100D02*
X441105850Y110525000D01*
X365125000Y31656250D02*
X365729750Y31051500D01*
X137262829Y30918421D02*
X173887171Y30918421D01*
%TO.N,2*%
X464537989Y70355761D02*
X465137500Y69756250D01*
X218137011Y70355761D02*
X254987989Y70355761D01*
X60375000Y69756250D02*
X60974511Y70355761D01*
X345475489Y70355761D02*
X346075000Y69756250D01*
X443702750Y109064100D02*
X443702750Y110442700D01*
X217537500Y69756250D02*
X218137011Y70355761D01*
X254987989Y70355761D02*
X255587500Y69756250D01*
X442966600Y108327950D02*
X443702750Y109064100D01*
X443702750Y110442700D02*
X441620450Y112525000D01*
X179387500Y69756250D02*
X180052750Y70421500D01*
X427637011Y70355761D02*
X464537989Y70355761D01*
X102587989Y70355761D02*
X103187500Y69756250D01*
X103187500Y69756250D02*
X103787011Y70355761D01*
X178787989Y70355761D02*
X179387500Y69756250D01*
X383575489Y70355761D02*
X384175000Y69756250D01*
X441620450Y112525000D02*
X436825000Y112525000D01*
X426437989Y70355761D02*
X427037500Y69756250D01*
X346674511Y70355761D02*
X383575489Y70355761D01*
X140687989Y70355761D02*
X141287500Y69756250D01*
X293087989Y70355761D02*
X293687500Y69756250D01*
X294287011Y70355761D02*
X345475489Y70355761D01*
X427037500Y69756250D02*
X427637011Y70355761D01*
X141287500Y69756250D02*
X141887011Y70355761D01*
X103787011Y70355761D02*
X140687989Y70355761D01*
X384774511Y70355761D02*
X426437989Y70355761D01*
X180052750Y70421500D02*
X216822250Y70421500D01*
X216822250Y70421500D02*
X217487500Y69756250D01*
X442966600Y107826050D02*
X442966600Y108327950D01*
X141887011Y70355761D02*
X178787989Y70355761D01*
X255587500Y69756250D02*
X256187011Y70355761D01*
X59725489Y70355761D02*
X60325000Y69756250D01*
X60974511Y70355761D02*
X102587989Y70355761D01*
X13299511Y70355761D02*
X59725489Y70355761D01*
X384175000Y69756250D02*
X384774511Y70355761D01*
X12700000Y69756250D02*
X13299511Y70355761D01*
X293687500Y69756250D02*
X294287011Y70355761D01*
X346075000Y69756250D02*
X346674511Y70355761D01*
X256187011Y70355761D02*
X293087989Y70355761D01*
%TO.N,Net-(J4-PadB5)*%
X440693750Y134861250D02*
X440693750Y132593000D01*
X440693750Y132593000D02*
X441356750Y131930000D01*
%TO.N,Net-(J4-PadA5)*%
X437693750Y132839000D02*
X437693750Y134861250D01*
X436784750Y131930000D02*
X437693750Y132839000D01*
%TO.N,14*%
X436803750Y103984452D02*
X436803750Y99592814D01*
X435187500Y105600703D02*
X436803750Y103984452D01*
X287972500Y61595000D02*
X311785000Y61595000D01*
X278447500Y80645000D02*
X307022500Y80645000D01*
X435934435Y98723500D02*
X425957950Y98723500D01*
X297697000Y104832500D02*
X297497500Y104633000D01*
X297497500Y109220000D02*
X316547500Y109220000D01*
X425957950Y98723500D02*
X419848950Y104832500D01*
X419848950Y104832500D02*
X297697000Y104832500D01*
X436803750Y99592814D02*
X435934435Y98723500D01*
X435187500Y107687500D02*
X435187500Y105600703D01*
%TO.N,12*%
X435987500Y107687500D02*
X435987500Y105932075D01*
X425640350Y97923500D02*
X419531350Y104032500D01*
X378460000Y4445000D02*
X402272500Y4445000D01*
X378460000Y80645000D02*
X402272500Y80645000D01*
X437603749Y99261442D02*
X436265805Y97923500D01*
X436265805Y97923500D02*
X425640350Y97923500D01*
X435987500Y105932075D02*
X437603750Y104315822D01*
X419531350Y104032500D02*
X378659500Y104032500D01*
X437603750Y104315822D02*
X437603749Y99261442D01*
X378659500Y104032500D02*
X378460000Y103833000D01*
X378460000Y61595000D02*
X402272500Y61595000D01*
%TO.N,11*%
X421322500Y42545000D02*
X440372500Y42545000D01*
X438003749Y99095756D02*
X438003750Y108064500D01*
X421322500Y4445000D02*
X440372500Y4445000D01*
X425506950Y97523500D02*
X436431490Y97523500D01*
X421322500Y80645000D02*
X440372500Y80645000D01*
X421322500Y61595000D02*
X440372500Y61595000D01*
X436431490Y97523500D02*
X438003749Y99095756D01*
X416464750Y103433000D02*
X416664250Y103632500D01*
X416664250Y103632500D02*
X419397950Y103632500D01*
X438003750Y108064500D02*
X437543250Y108525000D01*
X437543250Y108525000D02*
X436825000Y108525000D01*
X419397950Y103632500D02*
X425506950Y97523500D01*
X421322500Y23495000D02*
X440372500Y23495000D01*
%TO.N,10*%
X440054749Y97472500D02*
X458045092Y97472500D01*
X436825000Y108925000D02*
X437708936Y108925000D01*
X458045092Y97472500D02*
X458082921Y97434671D01*
X437708936Y108925000D02*
X438403750Y108230185D01*
X438403749Y99123500D02*
X438403750Y108230185D01*
X438403749Y99123500D02*
X440054749Y97472500D01*
%TO.N,9*%
X272954750Y11874500D02*
X319149500Y11874500D01*
X32481750Y11874500D02*
X81024500Y11874500D01*
X176307750Y11907750D02*
X177006250Y12606250D01*
X407987500Y12606250D02*
X408587011Y12006739D01*
X320579750Y11874500D02*
X364393250Y11874500D01*
X408587011Y12006739D02*
X431191511Y12006739D01*
X365125000Y12606250D02*
X365724511Y12006739D01*
X177006250Y12573000D02*
X177704750Y11874500D01*
X445487989Y12006739D02*
X446087500Y12606250D01*
X437874622Y109325000D02*
X439003250Y108196371D01*
X365724511Y12006739D02*
X407387989Y12006739D01*
X364393250Y11874500D02*
X365125000Y12606250D01*
X31750000Y12606250D02*
X32481750Y11874500D01*
X319881250Y12573000D02*
X320579750Y11874500D01*
X271524500Y11874500D02*
X272256250Y12606250D01*
X407387989Y12006739D02*
X407987500Y12606250D01*
X81756250Y12606250D02*
X82454750Y11907750D01*
X81024500Y11874500D02*
X81756250Y12606250D01*
X177704750Y11874500D02*
X271524500Y11874500D01*
X82454750Y11907750D02*
X176307750Y11907750D01*
X319149500Y11874500D02*
X319881250Y12606250D01*
X272256250Y12573000D02*
X272954750Y11874500D01*
X439003250Y108196371D02*
X439003250Y107378500D01*
X431191511Y12006739D02*
X445487989Y12006739D01*
X436825000Y109325000D02*
X437874622Y109325000D01*
%TO.N,6*%
X441386950Y108704100D02*
X442102750Y109419900D01*
X231776500Y31656250D02*
X232441750Y32321500D01*
X12701500Y31656250D02*
X13366750Y32321500D01*
X440645550Y107861100D02*
X440645550Y108554436D01*
X270474511Y32255761D02*
X426437989Y32255761D01*
X440645550Y108554436D02*
X440795214Y108704100D01*
X441213850Y110925000D02*
X436825000Y110925000D01*
X440795214Y108704100D02*
X441386950Y108704100D01*
X269875000Y31656250D02*
X270474511Y32255761D01*
X193009750Y32321500D02*
X193675000Y31656250D01*
X155575000Y31656250D02*
X156240250Y32321500D01*
X427037500Y31718250D02*
X427640750Y32321500D01*
X426437989Y32255761D02*
X427037500Y31656250D01*
X442102750Y109419900D02*
X442102750Y110036100D01*
X194341750Y32321500D02*
X231109750Y32321500D01*
X156240250Y32321500D02*
X193009750Y32321500D01*
X116875489Y32255761D02*
X117475000Y31656250D01*
X442102750Y110036100D02*
X441213850Y110925000D01*
X232441750Y32321500D02*
X269209750Y32321500D01*
X155575000Y31656250D02*
X154975489Y32255761D01*
X193676500Y31656250D02*
X194341750Y32321500D01*
X154975489Y32255761D02*
X118074511Y32255761D01*
X269209750Y32321500D02*
X269875000Y31656250D01*
X427640750Y32321500D02*
X432596250Y32321500D01*
X13366750Y32321500D02*
X66803500Y32321500D01*
X68068261Y32255761D02*
X116875489Y32255761D01*
X118074511Y32255761D02*
X117475000Y31656250D01*
X231109750Y32321500D02*
X231775000Y31656250D01*
X67468750Y31656250D02*
X68068261Y32255761D01*
X66803500Y32321500D02*
X67468750Y31656250D01*
%TO.N,5*%
X441204350Y107378500D02*
X441204350Y108318300D01*
X127599511Y50106739D02*
X164500489Y50106739D01*
X127000000Y50706250D02*
X127599511Y50106739D01*
X445482750Y50101500D02*
X446087500Y50706250D01*
X88900000Y50706250D02*
X89499511Y50106739D01*
X165699511Y50106739D02*
X202600489Y50106739D01*
X279999511Y50106739D02*
X407387989Y50106739D01*
X241300000Y50706250D02*
X241899511Y50106739D01*
X240700489Y50106739D02*
X241300000Y50706250D01*
X278800489Y50106739D02*
X279400000Y50706250D01*
X203799511Y50106739D02*
X240700489Y50106739D01*
X32349511Y50106739D02*
X88300489Y50106739D01*
X165100000Y50706250D02*
X165699511Y50106739D01*
X441290150Y108404100D02*
X441544150Y108404100D01*
X31750000Y50706250D02*
X32349511Y50106739D01*
X88300489Y50106739D02*
X88900000Y50706250D01*
X442502750Y109362700D02*
X442502750Y110118700D01*
X241899511Y50106739D02*
X278800489Y50106739D01*
X441544150Y108404100D02*
X442502750Y109362700D01*
X89499511Y50106739D02*
X126400489Y50106739D01*
X164500489Y50106739D02*
X165100000Y50706250D01*
X203200000Y50706250D02*
X203799511Y50106739D01*
X407387989Y50106739D02*
X407987500Y50706250D01*
X407987500Y50706250D02*
X408592250Y50101500D01*
X441296450Y111325000D02*
X436825000Y111325000D01*
X441204350Y108318300D02*
X441290150Y108404100D01*
X408592250Y50101500D02*
X445482750Y50101500D01*
X442502750Y110118700D02*
X441296450Y111325000D01*
X202600489Y50106739D02*
X203200000Y50706250D01*
X279400000Y50706250D02*
X279999511Y50106739D01*
X126400489Y50106739D02*
X127000000Y50706250D01*
%TO.N,13*%
X340360000Y109220000D02*
X359410000Y109220000D01*
X340360000Y61595000D02*
X359410000Y61595000D01*
X419690150Y104432500D02*
X340559500Y104432500D01*
X435587500Y105766389D02*
X437203750Y104150137D01*
X436100120Y98323500D02*
X425799150Y98323500D01*
X340360000Y128270000D02*
X359410000Y128270000D01*
X340360000Y80645000D02*
X359410000Y80645000D01*
X437203750Y99427128D02*
X436100120Y98323500D01*
X437203750Y104150137D02*
X437203750Y99427128D01*
X340360000Y4445000D02*
X359410000Y4445000D01*
X435587500Y107687500D02*
X435587500Y105766389D01*
X340559500Y104432500D02*
X340360000Y104233000D01*
X425799150Y98323500D02*
X419690150Y104432500D01*
%TO.N,3*%
X445487989Y69156739D02*
X446087500Y69756250D01*
X442321950Y108191300D02*
X443302750Y109172100D01*
X365724511Y69156739D02*
X407387989Y69156739D01*
X364525489Y69156739D02*
X365125000Y69756250D01*
X235937989Y69156739D02*
X236537500Y69756250D01*
X122837011Y69156739D02*
X159737989Y69156739D01*
X274037989Y69156739D02*
X274637500Y69756250D01*
X31750000Y69756250D02*
X32349511Y69156739D01*
X407987500Y69756250D02*
X408587011Y69156739D01*
X84737011Y69156739D02*
X121637989Y69156739D01*
X365125000Y69756250D02*
X365724511Y69156739D01*
X316900489Y69156739D02*
X317500000Y69756250D01*
X236537500Y69756250D02*
X237137011Y69156739D01*
X443302750Y109172100D02*
X443302750Y110334700D01*
X198437500Y69756250D02*
X199037011Y69156739D01*
X441512450Y112125000D02*
X436825000Y112125000D01*
X237137011Y69156739D02*
X274037989Y69156739D01*
X159737989Y69156739D02*
X160337500Y69756250D01*
X318099511Y69156739D02*
X364525489Y69156739D01*
X121637989Y69156739D02*
X122237500Y69756250D01*
X197837989Y69156739D02*
X198437500Y69756250D01*
X442321950Y107378500D02*
X442321950Y108191300D01*
X317500000Y69756250D02*
X318099511Y69156739D01*
X275237011Y69156739D02*
X316900489Y69156739D01*
X84137500Y69756250D02*
X84737011Y69156739D01*
X83537989Y69156739D02*
X84137500Y69756250D01*
X408587011Y69156739D02*
X445487989Y69156739D01*
X443302750Y110334700D02*
X441512450Y112125000D01*
X160937011Y69156739D02*
X197837989Y69156739D01*
X160337500Y69756250D02*
X160937011Y69156739D01*
X32349511Y69156739D02*
X83537989Y69156739D01*
X199037011Y69156739D02*
X235937989Y69156739D01*
X407387989Y69156739D02*
X407987500Y69756250D01*
X274637500Y69756250D02*
X275237011Y69156739D01*
X122237500Y69756250D02*
X122837011Y69156739D01*
%TO.N,DB+*%
X433228750Y123126500D02*
X432746150Y122643900D01*
X432746150Y122643900D02*
X432746150Y121928750D01*
X438143264Y126955020D02*
X434314744Y123126500D01*
X440020750Y128275500D02*
X440020750Y127124500D01*
X434314744Y123126500D02*
X433228750Y123126500D01*
X439851270Y126955020D02*
X438143264Y126955020D01*
X440020750Y127124500D02*
X439851270Y126955020D01*
%TO.N,Net-(RD1-Pad2)*%
X432720750Y120078500D02*
X432720750Y120933350D01*
X432387500Y114562500D02*
X432387500Y115434000D01*
X432387500Y115434000D02*
X432188000Y115633500D01*
%TO.N,DB-*%
X431730150Y122770900D02*
X431730150Y121928750D01*
X438120750Y127497512D02*
X434149258Y123526020D01*
X434149258Y123526020D02*
X432485270Y123526020D01*
X432485270Y123526020D02*
X431730150Y122770900D01*
X438120750Y128275500D02*
X438120750Y127497512D01*
%TO.N,Net-(RD2-Pad2)*%
X431987500Y114562500D02*
X431987500Y113638020D01*
X431704750Y120078500D02*
X431704750Y120933350D01*
X431987500Y113638020D02*
X432186520Y113439000D01*
%TO.N,CS*%
X442626750Y115379500D02*
X443134750Y115887500D01*
X436804500Y115379500D02*
X442626750Y115379500D01*
X443134750Y115887500D02*
X443134750Y117748500D01*
X443134750Y117748500D02*
X444591750Y117748500D01*
X435987500Y114562500D02*
X436804500Y115379500D01*
%TO.N,24*%
X12700000Y136431250D02*
X93662500Y136431250D01*
X285894239Y126899511D02*
X285294728Y126300000D01*
X423002320Y126333500D02*
X424243750Y125092070D01*
X388956750Y128282500D02*
X388956750Y134771814D01*
X285294728Y126300000D02*
X267493750Y126300000D01*
X216887989Y137030761D02*
X217487500Y136431250D01*
X427849236Y111855500D02*
X428379734Y111325001D01*
X452151750Y135826500D02*
X451916270Y136061980D01*
X385462989Y135431739D02*
X385222750Y135191500D01*
X325188739Y127100489D02*
X325659750Y127571500D01*
X334011500Y136431250D02*
X346075000Y136431250D01*
X324195217Y127100489D02*
X325188739Y127100489D01*
X384176500Y136431250D02*
X384587750Y136842500D01*
X388740264Y139655020D02*
X385511747Y136426503D01*
X258478250Y126300000D02*
X267493750Y126300000D01*
X178787989Y137030761D02*
X179387500Y136431250D01*
X388956750Y134771814D02*
X388296825Y135431739D01*
X385511747Y136426503D02*
X385507000Y136431250D01*
X131762500Y136431250D02*
X132362011Y137030761D01*
X452975750Y135826500D02*
X452151750Y135826500D01*
X411390064Y126733500D02*
X390505750Y126733500D01*
X428379734Y111325001D02*
X429950000Y111325000D01*
X346740250Y137096500D02*
X383509750Y137096500D01*
X247747489Y137030761D02*
X258478250Y126300000D01*
X287815250Y126300000D02*
X287215739Y126899511D01*
X287215739Y126899511D02*
X285894239Y126899511D01*
X388296825Y135431739D02*
X385462989Y135431739D01*
X451916270Y137369020D02*
X451961250Y137414000D01*
X217487500Y136431250D02*
X218087011Y137030761D01*
X218087011Y137030761D02*
X247747489Y137030761D01*
X93662500Y136431250D02*
X94262011Y137030761D01*
X346075000Y136431250D02*
X346740250Y137096500D01*
X179987011Y137030761D02*
X216887989Y137030761D01*
X451961250Y137414000D02*
X450518520Y138856730D01*
X424243750Y113575542D02*
X425963792Y111855500D01*
X383509750Y137096500D02*
X384175000Y136431250D01*
X305593750Y126300000D02*
X287815250Y126300000D01*
X323394728Y126300000D02*
X324195217Y127100489D01*
X384587750Y136842500D02*
X385095750Y136842500D01*
X414394442Y126134000D02*
X414593942Y126333500D01*
X325659750Y127571500D02*
X325659750Y128079500D01*
X411589564Y126534000D02*
X411390064Y126733500D01*
X390505750Y126733500D02*
X388956750Y128282500D01*
X424243750Y125092070D02*
X424243750Y113575542D01*
X425963792Y111855500D02*
X427849236Y111855500D01*
X431432230Y139655020D02*
X388740264Y139655020D01*
X450518520Y138856730D02*
X432230520Y138856730D01*
X451916270Y136061980D02*
X451916270Y137369020D01*
X94262011Y137030761D02*
X131162989Y137030761D01*
X414593942Y126333500D02*
X423002320Y126333500D01*
X325659750Y128079500D02*
X334011500Y136431250D01*
X132362011Y137030761D02*
X178787989Y137030761D01*
X179387500Y136431250D02*
X179987011Y137030761D01*
X131162989Y137030761D02*
X131762500Y136431250D01*
X305593750Y126300000D02*
X323394728Y126300000D01*
X432230520Y138856730D02*
X431432230Y139655020D01*
X385507000Y136431250D02*
X384175000Y136431250D01*
%TO.N,29{slash}A3*%
X426243750Y125920500D02*
X423830750Y128333500D01*
X428667207Y113865957D02*
X427397207Y113865957D01*
X429950000Y113325000D02*
X429208164Y113325000D01*
X426243750Y114403971D02*
X426243750Y125920500D01*
X427386750Y113855500D02*
X426792220Y113855500D01*
X391191750Y128333500D02*
X390556750Y128968500D01*
X427397207Y113865957D02*
X427386750Y113855500D01*
X426792220Y113855500D02*
X426243750Y114403971D01*
X423830750Y128333500D02*
X391191750Y128333500D01*
X429208164Y113325000D02*
X428667207Y113865957D01*
X390556750Y128968500D02*
X390556750Y133530500D01*
X390556750Y133530500D02*
X392080750Y135054500D01*
%TO.N,SD3*%
X433987500Y115757250D02*
X433987500Y114562500D01*
X441483750Y126555500D02*
X438308750Y126555500D01*
X441864750Y126174500D02*
X441483750Y126555500D01*
X441864750Y124948500D02*
X441864750Y126174500D01*
X435006750Y116776500D02*
X433987500Y115757250D01*
X438308750Y126555500D02*
X435006750Y123253500D01*
X435006750Y123253500D02*
X435006750Y116776500D01*
%TO.N,CLOCK*%
X440496253Y126145997D02*
X438464253Y126145997D01*
X440594750Y126047500D02*
X440496253Y126145997D01*
X440594750Y124948500D02*
X440594750Y126047500D01*
X438464253Y126145997D02*
X435406270Y123088014D01*
X435406270Y123088014D02*
X435406270Y116611014D01*
X435406270Y116611014D02*
X434387500Y115592244D01*
X434387500Y115592244D02*
X434387500Y114562500D01*
%TO.N,SD0*%
X434787500Y114562500D02*
X434787500Y115427238D01*
X437831762Y124948500D02*
X439324750Y124948500D01*
X435805790Y116445528D02*
X435805790Y122922528D01*
X435805790Y122922528D02*
X437831762Y124948500D01*
X434787500Y115427238D02*
X435805790Y116445528D01*
%TO.N,SD2*%
X435187500Y115259301D02*
X436106739Y116178540D01*
X436106739Y116178540D02*
X440123790Y116178540D01*
X440594750Y116649500D02*
X440594750Y117748500D01*
X435187500Y114562500D02*
X435187500Y115259301D01*
X440123790Y116178540D02*
X440594750Y116649500D01*
%TO.N,SD1*%
X436272225Y115779020D02*
X441121270Y115779020D01*
X441864750Y116522500D02*
X441864750Y117748500D01*
X435587500Y114562500D02*
X435587500Y115094295D01*
X441121270Y115779020D02*
X441864750Y116522500D01*
X435587500Y115094295D02*
X436272225Y115779020D01*
%TO.N,Net-(DA2-Pad2)*%
X456470500Y130810000D02*
X454439250Y130810000D01*
%TO.N,Net-(D83-Pad2)*%
X203200000Y49306250D02*
X203200000Y45720000D01*
%TO.N,XIN*%
X434809750Y102876500D02*
X434809750Y101663500D01*
X433987500Y103698750D02*
X434809750Y102876500D01*
X433987500Y107687500D02*
X433987500Y103698750D01*
%TO.N,16*%
X421865180Y107537500D02*
X421865180Y107525875D01*
X211772500Y128270000D02*
X230822500Y128270000D01*
X242728750Y4445000D02*
X266541250Y4445000D01*
X211772500Y61595000D02*
X230822500Y61595000D01*
X211772500Y105378250D02*
X212026750Y105632500D01*
X211772500Y109220000D02*
X230822500Y109220000D01*
X427989750Y107537500D02*
X429037750Y106489500D01*
X226060000Y23495000D02*
X245110000Y23495000D01*
X216535000Y42545000D02*
X235585000Y42545000D01*
X431187500Y106959117D02*
X431187500Y107687500D01*
X212026750Y105632500D02*
X419971805Y105632500D01*
X421865180Y107537500D02*
X427989750Y107537500D01*
X421865180Y107525875D02*
X419971805Y105632500D01*
X202247500Y80645000D02*
X221297500Y80645000D01*
X429037750Y106489500D02*
X430717883Y106489500D01*
X430717883Y106489500D02*
X431187500Y106959117D01*
%TO.N,17*%
X428155436Y107937500D02*
X429203436Y106889500D01*
X173672500Y61595000D02*
X192722500Y61595000D01*
X430787500Y107124803D02*
X430787500Y107687500D01*
X430552197Y106889500D02*
X430787500Y107124803D01*
X164147500Y80645000D02*
X183197500Y80645000D01*
X173945750Y106032500D02*
X419806120Y106032500D01*
X187960000Y23495000D02*
X207010000Y23495000D01*
X429203436Y106889500D02*
X430552197Y106889500D01*
X173672500Y105759250D02*
X173945750Y106032500D01*
X173672500Y109220000D02*
X192722500Y109220000D01*
X178435000Y42545000D02*
X197485000Y42545000D01*
X173672500Y128270000D02*
X192722500Y128270000D01*
X419806120Y106032500D02*
X421465180Y107691560D01*
X421699494Y107937500D02*
X428155436Y107937500D01*
X421465180Y107703185D02*
X421699494Y107937500D01*
X421465180Y107691560D02*
X421465180Y107703185D01*
%TO.N,0*%
X283497250Y89471500D02*
X284162500Y88806250D01*
X383575489Y89405761D02*
X384175000Y88806250D01*
X131162989Y89405761D02*
X131762500Y88806250D01*
X132362011Y89405761D02*
X169262989Y89405761D01*
X246062500Y88806250D02*
X246727750Y89471500D01*
X54962989Y89405761D02*
X55562500Y88806250D01*
X93662500Y88806250D02*
X94262011Y89405761D01*
X94262011Y89405761D02*
X131162989Y89405761D01*
X207297250Y89471500D02*
X207962500Y88806250D01*
X131762500Y88806250D02*
X132362011Y89405761D01*
X169262989Y89405761D02*
X169862500Y88806250D01*
X444455550Y110705900D02*
X441836450Y113325000D01*
X207962500Y88806250D02*
X208627750Y89471500D01*
X444455550Y108750100D02*
X444455550Y110705900D01*
X93062989Y89405761D02*
X93662500Y88806250D01*
X246727750Y89471500D02*
X283497250Y89471500D01*
X284162500Y88806250D02*
X284762011Y89405761D01*
X346674511Y89405761D02*
X383575489Y89405761D01*
X427037500Y88806250D02*
X427702750Y89471500D01*
X384890250Y89471500D02*
X426372250Y89471500D01*
X441836450Y113325000D02*
X436825000Y113325000D01*
X444176150Y107835700D02*
X444176150Y108470700D01*
X427702750Y89471500D02*
X435006750Y89471500D01*
X384225000Y88806250D02*
X384890250Y89471500D01*
X12700000Y88806250D02*
X13299511Y89405761D01*
X208627750Y89471500D02*
X245397250Y89471500D01*
X346075000Y88806250D02*
X346674511Y89405761D01*
X55562500Y88806250D02*
X56162011Y89405761D01*
X170527750Y89471500D02*
X207297250Y89471500D01*
X13299511Y89405761D02*
X54962989Y89405761D01*
X345475489Y89405761D02*
X346075000Y88806250D01*
X435006750Y89471500D02*
X464472250Y89471500D01*
X426372250Y89471500D02*
X427037500Y88806250D01*
X284762011Y89405761D02*
X345475489Y89405761D01*
X444176150Y108470700D02*
X444455550Y108750100D01*
X56162011Y89405761D02*
X93062989Y89405761D01*
X169862500Y88806250D02*
X170527750Y89471500D01*
X245397250Y89471500D02*
X246062500Y88806250D01*
X464472250Y89471500D02*
X465137500Y88806250D01*
%TO.N,XOUT*%
X433587500Y107687500D02*
X433587500Y103696250D01*
X433587500Y103696250D02*
X433332750Y103441500D01*
%TO.N,~{RESET}*%
X430625569Y105831500D02*
X431587500Y106793431D01*
X408137750Y110354500D02*
X404982750Y110354500D01*
X428679750Y105831500D02*
X427640750Y106870500D01*
X431587500Y106793431D02*
X431587500Y107687500D01*
X411182750Y110354500D02*
X408137750Y110354500D01*
X430561750Y105831500D02*
X428679750Y105831500D01*
%TO.N,+3V3*%
X432787500Y117094850D02*
X432787500Y114562500D01*
X431187500Y114562500D02*
X431187500Y113846250D01*
X431187500Y115843550D02*
X430536350Y116494700D01*
X429950000Y113725000D02*
X429373850Y113725000D01*
D40*
X404082750Y133794500D02*
X404082750Y137160500D01*
D39*
X431187500Y113846250D02*
X430942750Y113601500D01*
X427491250Y110125000D02*
X429950000Y110125000D01*
D40*
X393360750Y133794500D02*
X392080750Y132514500D01*
D39*
X433187500Y107687500D02*
X433187500Y105455250D01*
X435895750Y113474500D02*
X435895750Y110172500D01*
X432787500Y114562500D02*
X432787500Y113788750D01*
X435943250Y110125000D02*
X435895750Y110172500D01*
X437717500Y114617500D02*
X436825000Y113725000D01*
X429373850Y113725000D02*
X428506750Y114592100D01*
X438458750Y114617500D02*
X437717500Y114617500D01*
D40*
X413670750Y137858500D02*
X414812230Y136717020D01*
D39*
X430787500Y113756750D02*
X430942750Y113601500D01*
X429950000Y113725000D02*
X430819250Y113725000D01*
X443111750Y127825500D02*
X443111750Y126451500D01*
X429672750Y115760500D02*
X429469550Y115963700D01*
X432787500Y113788750D02*
X432974750Y113601500D01*
D40*
X404780750Y137858500D02*
X413670750Y137858500D01*
D39*
X433187500Y114562500D02*
X433187500Y117494850D01*
X430787500Y115407750D02*
X430434750Y115760500D01*
X433187500Y105455250D02*
X432570750Y104838500D01*
X443111750Y126451500D02*
X443134750Y126428500D01*
X436146250Y113725000D02*
X435895750Y113474500D01*
X439014250Y110125000D02*
X436825000Y110125000D01*
X436825000Y113725000D02*
X436146250Y113725000D01*
X430434750Y115760500D02*
X429672750Y115760500D01*
X429469550Y115963700D02*
X429469550Y116494700D01*
X432974750Y113601500D02*
X433098250Y113725000D01*
X430787500Y114562500D02*
X430787500Y113756750D01*
X430787500Y114562500D02*
X430787500Y115407750D01*
X443134750Y124948500D02*
X443134750Y126428500D01*
D40*
X394239750Y133794500D02*
X393360750Y133794500D01*
D39*
X433187500Y114562500D02*
X433187500Y113814250D01*
X439474750Y109664500D02*
X439014250Y110125000D01*
D40*
X404082750Y137160500D02*
X404780750Y137858500D01*
D39*
X433187500Y107687500D02*
X433187500Y108607250D01*
X430561750Y104861500D02*
X430561750Y104203500D01*
X431187500Y114562500D02*
X431187500Y115843550D01*
X429950000Y110125000D02*
X430863250Y110125000D01*
X436825000Y110125000D02*
X435943250Y110125000D01*
D40*
X414812230Y136717020D02*
X414813750Y136717020D01*
D39*
X433187500Y113814250D02*
X432974750Y113601500D01*
X433187500Y108607250D02*
X433228750Y108648500D01*
X430863250Y110125000D02*
X430942750Y110045500D01*
X433254150Y117561500D02*
X432787500Y117094850D01*
X430819250Y113725000D02*
X430942750Y113601500D01*
%TO.N,25*%
X151412011Y135831739D02*
X197837989Y135831739D01*
X113312011Y135831739D02*
X150212989Y135831739D01*
X451897750Y130746500D02*
X452975750Y130746500D01*
X112712500Y136431250D02*
X113312011Y135831739D01*
X247458000Y136431250D02*
X236537500Y136431250D01*
X286543750Y126300000D02*
X285944239Y125700489D01*
X413807572Y126733500D02*
X423168006Y126733500D01*
X390683064Y127133500D02*
X389356750Y128459815D01*
X382967000Y136431250D02*
X383566511Y135831739D01*
X451516750Y137293494D02*
X451516750Y131127500D01*
X346620829Y135693421D02*
X334346677Y135693421D01*
X383566511Y135831739D02*
X385481989Y135831739D01*
X428014921Y112255500D02*
X428545420Y111725001D01*
X423168006Y126733500D02*
X424643750Y125257756D01*
X347358658Y136431250D02*
X346620829Y135693421D01*
X428545420Y111725001D02*
X429950000Y111725000D01*
X413601311Y126527239D02*
X413807572Y126733500D01*
X388905750Y139255500D02*
X431266744Y139255500D01*
X431266744Y139255500D02*
X432065034Y138457210D01*
X412299150Y126934000D02*
X412099650Y127133500D01*
X450353034Y138457210D02*
X451516750Y137293494D01*
X286543750Y126300000D02*
X287143261Y125700489D01*
X424643750Y125257756D02*
X424643750Y113741230D01*
X150212989Y135831739D02*
X150812500Y136431250D01*
X197837989Y135831739D02*
X198437500Y136431250D01*
X235937989Y135831739D02*
X236537500Y136431250D01*
X389356750Y128459815D02*
X389356750Y134937500D01*
X324044239Y125700489D02*
X324643750Y126300000D01*
X285944239Y125700489D02*
X258188761Y125700489D01*
X365125000Y136431250D02*
X382967000Y136431250D01*
X334346677Y135693421D02*
X324953256Y126300000D01*
X385481989Y135831739D02*
X388905750Y139255500D01*
X365125000Y136431250D02*
X347358658Y136431250D01*
X389356750Y134937500D02*
X388462511Y135831739D01*
X258188761Y125700489D02*
X247458000Y136431250D01*
X324953256Y126300000D02*
X324643750Y126300000D01*
X424643750Y113741230D02*
X426129478Y112255500D01*
X451516750Y131127500D02*
X451897750Y130746500D01*
X198437500Y136431250D02*
X199037011Y135831739D01*
X388462511Y135831739D02*
X385481989Y135831739D01*
X432065034Y138457210D02*
X450353034Y138457210D01*
X150812500Y136431250D02*
X151412011Y135831739D01*
X426129478Y112255500D02*
X428014921Y112255500D01*
X199037011Y135831739D02*
X235937989Y135831739D01*
X412099650Y127133500D02*
X390683064Y127133500D01*
X287143261Y125700489D02*
X324044239Y125700489D01*
%TO.N,4*%
X12700000Y50706250D02*
X13619250Y51625500D01*
X260949511Y51305761D02*
X309756739Y51305761D01*
X145450489Y51305761D02*
X146050000Y50706250D01*
X427637011Y51305761D02*
X464537989Y51305761D01*
X184749511Y51305761D02*
X221650489Y51305761D01*
X184150000Y50706250D02*
X184749511Y51305761D01*
X63305761Y51305761D02*
X107350489Y51305761D01*
X309756739Y51305761D02*
X310356250Y50706250D01*
X426437989Y51305761D02*
X427037500Y50706250D01*
X260350000Y50706250D02*
X260949511Y51305761D01*
X259750489Y51305761D02*
X260350000Y50706250D01*
X441404450Y111725000D02*
X436825000Y111725000D01*
X183550489Y51305761D02*
X184150000Y50706250D01*
X441763150Y107835700D02*
X441763150Y108140500D01*
X464537989Y51305761D02*
X465137500Y50706250D01*
X107950000Y50706250D02*
X108549511Y51305761D01*
X221650489Y51305761D02*
X222250000Y50706250D01*
X13619250Y51625500D02*
X61787000Y51625500D01*
X442902750Y110226700D02*
X441404450Y111725000D01*
X310356250Y50706250D02*
X310955761Y51305761D01*
X62706250Y50706250D02*
X63305761Y51305761D01*
X146050000Y50706250D02*
X146649511Y51305761D01*
X441763150Y108140500D02*
X442902750Y109280100D01*
X442902750Y109280100D02*
X442902750Y110226700D01*
X108549511Y51305761D02*
X145450489Y51305761D01*
X222849511Y51305761D02*
X259750489Y51305761D01*
X427037500Y50706250D02*
X427637011Y51305761D01*
X310955761Y51305761D02*
X426437989Y51305761D01*
X107350489Y51305761D02*
X107950000Y50706250D01*
X61787000Y51625500D02*
X62706250Y50706250D01*
X222250000Y50706250D02*
X222849511Y51305761D01*
X146649511Y51305761D02*
X183550489Y51305761D01*
%TO.N,19*%
X428667622Y108925000D02*
X428480122Y108737500D01*
X88258750Y106832500D02*
X419474750Y106832500D01*
X419474750Y106844128D02*
X419474750Y106832500D01*
X111652050Y4445000D02*
X99853750Y4445000D01*
X106997500Y128270000D02*
X87947500Y128270000D01*
X421368122Y108737500D02*
X419474750Y106844128D01*
X87947500Y109220000D02*
X106997500Y109220000D01*
X116522500Y61595000D02*
X97472500Y61595000D01*
X111715550Y4508500D02*
X111652050Y4445000D01*
X87947500Y106521250D02*
X88258750Y106832500D01*
X130810000Y23495000D02*
X111760000Y23495000D01*
X102235000Y42545000D02*
X121285000Y42545000D01*
X429950000Y108925000D02*
X428667622Y108925000D01*
X428480122Y108737500D02*
X421368122Y108737500D01*
X87947500Y80645000D02*
X106997500Y80645000D01*
%TO.N,Net-(LD1-Pad1)*%
X11906250Y138906250D02*
X88106250Y138906250D01*
%TO.N,Net-(LD2-Pad1)*%
X92868750Y138906250D02*
X107156250Y138906250D01*
%TO.N,Net-(LD3-Pad1)*%
X111918750Y138906250D02*
X126206250Y138906250D01*
%TO.N,Net-(LD4-Pad1)*%
X130968750Y138906250D02*
X145256250Y138906250D01*
%TO.N,Net-(LD5-Pad1)*%
X150018750Y138906250D02*
X173831250Y138906250D01*
%TO.N,Net-(LD6-Pad1)*%
X178593750Y138906250D02*
X192881250Y138906250D01*
%TO.N,Net-(LD7-Pad1)*%
X197643750Y138906250D02*
X211931250Y138906250D01*
%TO.N,Net-(LD8-Pad1)*%
X216693750Y138906250D02*
X230981250Y138906250D01*
%TO.N,Net-(LD10-Pad3)*%
X249555000Y138906250D02*
X235743750Y138906250D01*
X325786750Y124523500D02*
X325913750Y124650500D01*
X250059050Y132016500D02*
X250094750Y132016500D01*
X249586750Y138874500D02*
X249555000Y138906250D01*
X250094750Y132016500D02*
X257587750Y124523500D01*
X339725000Y138112500D02*
X340672786Y139060286D01*
X257587750Y124523500D02*
X325786750Y124523500D01*
X326548750Y138112500D02*
X339725000Y138112500D01*
%TO.N,Net-(LD10-Pad1)*%
X345281250Y138906250D02*
X359568750Y138906250D01*
%TO.N,Net-(LD11-Pad1)*%
X364331250Y138906250D02*
X378618750Y138906250D01*
%TO.N,Net-(LD13-Pad1)*%
X9525000Y119856250D02*
X7584500Y117915750D01*
X88547000Y119856250D02*
X9525000Y119856250D01*
X7584500Y117915750D02*
X7584500Y117475000D01*
%TO.N,Net-(LD13-Pad3)*%
X107156250Y119856250D02*
X92868750Y119856250D01*
%TO.N,Net-(LD14-Pad3)*%
X126647000Y119856250D02*
X111918750Y119856250D01*
%TO.N,Net-(LD15-Pad3)*%
X145256250Y119856250D02*
X130968750Y119856250D01*
%TO.N,Net-(LD16-Pad3)*%
X174272000Y119856250D02*
X150018750Y119856250D01*
%TO.N,Net-(LD17-Pad3)*%
X192881250Y119856250D02*
X178593750Y119856250D01*
%TO.N,Net-(LD18-Pad3)*%
X212372000Y119856250D02*
X197643750Y119856250D01*
%TO.N,Net-(LD19-Pad3)*%
X230981250Y119856250D02*
X216693750Y119856250D01*
%TO.N,Net-(LD20-Pad3)*%
X259556250Y119856250D02*
X235743750Y119856250D01*
%TO.N,Net-(LD21-Pad3)*%
X278606250Y119856250D02*
X264318750Y119856250D01*
%TO.N,Net-(LD22-Pad3)*%
X297656250Y119856250D02*
X283368750Y119856250D01*
%TO.N,Net-(LD23-Pad3)*%
X316706250Y119856250D02*
X302418750Y119856250D01*
%TO.N,Net-(LD24-Pad3)*%
X340959500Y119856250D02*
X321468750Y119856250D01*
%TO.N,Net-(LD25-Pad3)*%
X359568750Y119856250D02*
X345281250Y119856250D01*
%TO.N,Net-(LD26-Pad3)*%
X379059500Y119856250D02*
X364331250Y119856250D01*
%TO.N,Net-(LD28-Pad1)*%
X11906250Y91281250D02*
X26193750Y91281250D01*
%TO.N,Net-(LD29-Pad1)*%
X30956250Y91281250D02*
X50447000Y91281250D01*
%TO.N,Net-(LD30-Pad1)*%
X54768750Y91281250D02*
X69056250Y91281250D01*
%TO.N,Net-(LD31-Pad1)*%
X73818750Y91281250D02*
X88547000Y91281250D01*
%TO.N,Net-(LD32-Pad1)*%
X92868750Y91281250D02*
X107156250Y91281250D01*
%TO.N,Net-(LD33-Pad1)*%
X111918750Y91281250D02*
X126647000Y91281250D01*
%TO.N,Net-(LD34-Pad1)*%
X130968750Y91281250D02*
X145256250Y91281250D01*
%TO.N,Net-(LD35-Pad1)*%
X150018750Y91281250D02*
X164306250Y91281250D01*
%TO.N,Net-(LD36-Pad1)*%
X169068750Y91281250D02*
X183356250Y91281250D01*
%TO.N,Net-(LD37-Pad1)*%
X188118750Y91281250D02*
X202406250Y91281250D01*
%TO.N,Net-(LD38-Pad1)*%
X207168750Y91281250D02*
X221456250Y91281250D01*
%TO.N,Net-(LD39-Pad1)*%
X226218750Y91281250D02*
X240506250Y91281250D01*
%TO.N,Net-(LD40-Pad1)*%
X245268750Y91281250D02*
X259997000Y91281250D01*
%TO.N,Net-(LD41-Pad1)*%
X264318750Y91281250D02*
X278606250Y91281250D01*
%TO.N,Net-(LD42-Pad1)*%
X283368750Y91281250D02*
X307181250Y91281250D01*
%TO.N,Net-(LD43-Pad1)*%
X311943750Y91281250D02*
X340959500Y91281250D01*
%TO.N,Net-(LD44-Pad1)*%
X345281250Y91281250D02*
X359568750Y91281250D01*
%TO.N,Net-(LD45-Pad1)*%
X364331250Y91281250D02*
X379059500Y91281250D01*
%TO.N,Net-(LD46-Pad1)*%
X383381250Y91281250D02*
X402431250Y91281250D01*
%TO.N,Net-(LD47-Pad1)*%
X407193750Y91281250D02*
X421481250Y91281250D01*
%TO.N,Net-(LD48-Pad1)*%
X426243750Y91281250D02*
X440531250Y91281250D01*
%TO.N,Net-(LD49-Pad1)*%
X445293750Y91281250D02*
X459581250Y91281250D01*
%TO.N,Net-(LD51-Pad1)*%
X7143750Y71790500D02*
X7143750Y65087500D01*
X7143750Y65087500D02*
X9525000Y62706250D01*
X7584500Y72231250D02*
X7143750Y71790500D01*
%TO.N,Net-(LD51-Pad3)*%
X26193750Y72231250D02*
X11906250Y72231250D01*
%TO.N,Net-(LD52-Pad3)*%
X54768750Y72231250D02*
X30956250Y72231250D01*
%TO.N,Net-(LD53-Pad3)*%
X78581250Y72231250D02*
X59531250Y72231250D01*
%TO.N,Net-(LD54-Pad3)*%
X97631250Y72231250D02*
X83343750Y72231250D01*
%TO.N,Net-(LD55-Pad3)*%
X116681250Y72231250D02*
X102393750Y72231250D01*
%TO.N,Net-(LD56-Pad3)*%
X135731250Y72231250D02*
X121443750Y72231250D01*
%TO.N,Net-(LD57-Pad3)*%
X154781250Y72231250D02*
X140493750Y72231250D01*
%TO.N,Net-(LD58-Pad3)*%
X173831250Y72231250D02*
X159543750Y72231250D01*
%TO.N,Net-(LD59-Pad3)*%
X192881250Y72231250D02*
X178593750Y72231250D01*
%TO.N,Net-(LD60-Pad3)*%
X211931250Y72231250D02*
X197643750Y72231250D01*
%TO.N,Net-(LD61-Pad3)*%
X230981250Y72231250D02*
X216693750Y72231250D01*
%TO.N,Net-(LD62-Pad3)*%
X250031250Y72231250D02*
X235743750Y72231250D01*
%TO.N,Net-(LD63-Pad3)*%
X269081250Y72231250D02*
X254793750Y72231250D01*
%TO.N,Net-(LD64-Pad3)*%
X288131250Y72231250D02*
X273843750Y72231250D01*
%TO.N,Net-(LD65-Pad3)*%
X311943750Y72231250D02*
X292893750Y72231250D01*
%TO.N,Net-(LD66-Pad3)*%
X340959500Y72231250D02*
X316706250Y72231250D01*
%TO.N,Net-(LD67-Pad3)*%
X359568750Y72231250D02*
X345281250Y72231250D01*
%TO.N,Net-(LD68-Pad3)*%
X379059500Y72231250D02*
X364331250Y72231250D01*
%TO.N,Net-(LD69-Pad3)*%
X402431250Y72231250D02*
X383381250Y72231250D01*
%TO.N,Net-(LD70-Pad3)*%
X421922000Y72231250D02*
X407193750Y72231250D01*
%TO.N,Net-(LD71-Pad3)*%
X440531250Y72231250D02*
X426243750Y72231250D01*
%TO.N,Net-(LD72-Pad3)*%
X445293750Y72231250D02*
X460022000Y72231250D01*
%TO.N,Net-(LD74-Pad1)*%
X11906250Y53181250D02*
X26193750Y53181250D01*
%TO.N,Net-(LD75-Pad1)*%
X30956250Y53181250D02*
X57150000Y53181250D01*
%TO.N,Net-(LD76-Pad1)*%
X61912500Y53181250D02*
X83343750Y53181250D01*
%TO.N,Net-(LD77-Pad1)*%
X88106250Y53181250D02*
X102393750Y53181250D01*
%TO.N,Net-(LD78-Pad1)*%
X107156250Y53181250D02*
X121443750Y53181250D01*
%TO.N,Net-(LD79-Pad1)*%
X126206250Y53181250D02*
X140493750Y53181250D01*
%TO.N,Net-(LD80-Pad1)*%
X145256250Y53181250D02*
X159543750Y53181250D01*
%TO.N,Net-(LD81-Pad1)*%
X164306250Y53181250D02*
X178593750Y53181250D01*
%TO.N,Net-(LD82-Pad1)*%
X183356250Y53181250D02*
X197643750Y53181250D01*
%TO.N,Net-(LD83-Pad1)*%
X202406250Y53181250D02*
X216693750Y53181250D01*
%TO.N,Net-(LD84-Pad1)*%
X221456250Y53181250D02*
X235743750Y53181250D01*
%TO.N,Net-(LD85-Pad1)*%
X240506250Y53181250D02*
X254793750Y53181250D01*
%TO.N,Net-(LD86-Pad1)*%
X259556250Y53181250D02*
X273843750Y53181250D01*
%TO.N,Net-(LD87-Pad1)*%
X278606250Y53181250D02*
X304800000Y53181250D01*
%TO.N,Net-(LD88-Pad1)*%
X309562500Y53181250D02*
X402872000Y53181250D01*
%TO.N,Net-(LD89-Pad1)*%
X407193750Y53181250D02*
X421922000Y53181250D01*
%TO.N,Net-(LD90-Pad1)*%
X426243750Y53181250D02*
X440531250Y53181250D01*
%TO.N,Net-(LD91-Pad1)*%
X445293750Y53181250D02*
X460022000Y53181250D01*
%TO.N,Net-(LD110-Pad3)*%
X464343750Y38893750D02*
X464343750Y36512500D01*
X464343750Y36512500D02*
X461962500Y34131250D01*
X461962500Y34131250D02*
X445293750Y34131250D01*
%TO.N,Net-(LD111-Pad3)*%
X7584500Y34131250D02*
X7143750Y33690500D01*
X7143750Y26987500D02*
X9525000Y24606250D01*
X7143750Y33690500D02*
X7143750Y26987500D01*
%TO.N,Net-(LD93-Pad3)*%
X26193750Y34131250D02*
X11906250Y34131250D01*
%TO.N,Net-(LD94-Pad3)*%
X61912500Y34131250D02*
X30956250Y34131250D01*
%TO.N,Net-(LD95-Pad3)*%
X92868750Y34131250D02*
X66675000Y34131250D01*
%TO.N,Net-(LD96-Pad3)*%
X111918750Y34131250D02*
X97631250Y34131250D01*
%TO.N,Net-(LD97-Pad3)*%
X130968750Y34131250D02*
X116681250Y34131250D01*
%TO.N,Net-(LD98-Pad3)*%
X150018750Y34131250D02*
X135731250Y34131250D01*
%TO.N,Net-(LD100-Pad1)*%
X169068750Y34131250D02*
X154781250Y34131250D01*
%TO.N,Net-(LD100-Pad3)*%
X188118750Y34131250D02*
X173831250Y34131250D01*
%TO.N,Net-(LD101-Pad3)*%
X207168750Y34131250D02*
X192881250Y34131250D01*
%TO.N,Net-(LD102-Pad3)*%
X226218750Y34131250D02*
X211931250Y34131250D01*
%TO.N,Net-(LD103-Pad3)*%
X245268750Y34131250D02*
X230981250Y34131250D01*
%TO.N,Net-(LD104-Pad3)*%
X264318750Y34131250D02*
X250031250Y34131250D01*
%TO.N,Net-(LD105-Pad3)*%
X300037500Y34131250D02*
X269081250Y34131250D01*
%TO.N,Net-(LD106-Pad3)*%
X360009500Y34131250D02*
X304800000Y34131250D01*
%TO.N,Net-(LD107-Pad3)*%
X402872000Y34131250D02*
X364331250Y34131250D01*
%TO.N,Net-(LD108-Pad3)*%
X421922000Y34131250D02*
X407193750Y34131250D01*
%TO.N,Net-(LD109-Pad3)*%
X440531250Y34131250D02*
X426243750Y34131250D01*
%TO.N,Net-(LD111-Pad1)*%
X11906250Y15081250D02*
X26193750Y15081250D01*
%TO.N,Net-(LD112-Pad1)*%
X30956250Y15081250D02*
X52387500Y15081250D01*
%TO.N,Net-(LD113-Pad1)*%
X57150000Y15081250D02*
X76200000Y15081250D01*
%TO.N,Net-(LD114-Pad1)*%
X80962500Y15081250D02*
X100012500Y15081250D01*
%TO.N,Net-(LD115-Pad1)*%
X104775000Y15081250D02*
X171450000Y15081250D01*
%TO.N,Net-(LD116-Pad1)*%
X176212500Y15081250D02*
X243328250Y15081250D01*
%TO.N,Net-(LD117-Pad1)*%
X247650000Y15081250D02*
X266700000Y15081250D01*
%TO.N,Net-(LD118-Pad1)*%
X271462500Y15081250D02*
X290512500Y15081250D01*
%TO.N,Net-(LD119-Pad1)*%
X295275000Y15081250D02*
X314325000Y15081250D01*
%TO.N,Net-(LD120-Pad1)*%
X319087500Y15081250D02*
X340959500Y15081250D01*
%TO.N,Net-(LD121-Pad1)*%
X345281250Y15081250D02*
X359568750Y15081250D01*
%TO.N,Net-(LD122-Pad1)*%
X364331250Y15081250D02*
X379059500Y15081250D01*
%TO.N,Net-(LD123-Pad1)*%
X383381250Y15081250D02*
X402431250Y15081250D01*
%TO.N,Net-(LD124-Pad1)*%
X407193750Y15081250D02*
X421922000Y15081250D01*
%TO.N,Net-(LD125-Pad1)*%
X426243750Y15081250D02*
X440531250Y15081250D01*
%TO.N,Net-(LD126-Pad1)*%
X445293750Y15081250D02*
X454818750Y15081250D01*
%TO.N,Net-(RX2-Pad2)*%
X432409750Y103394500D02*
X432362750Y103441500D01*
X432409750Y101663500D02*
X432409750Y103394500D01*
%TD*%
%TA.AperFunction,Conductor*%
%TO.N,+3V3*%
G36*
X406500871Y138626998D02*
G01*
X406547364Y138573342D01*
X406558750Y138521000D01*
X406558750Y136000243D01*
X406538748Y135932122D01*
X406485092Y135885629D01*
X406414818Y135875525D01*
X406350238Y135905019D01*
X406314768Y135956013D01*
X406286074Y136032554D01*
X406277536Y136048149D01*
X406201035Y136150224D01*
X406188474Y136162785D01*
X406086399Y136239286D01*
X406070804Y136247824D01*
X405950356Y136292978D01*
X405935101Y136296605D01*
X405884236Y136302131D01*
X405877422Y136302500D01*
X404354865Y136302500D01*
X404339626Y136298025D01*
X404338421Y136296635D01*
X404336750Y136288952D01*
X404336750Y131304616D01*
X404341225Y131289377D01*
X404342615Y131288172D01*
X404350298Y131286501D01*
X405877419Y131286501D01*
X405884240Y131286871D01*
X405935102Y131292395D01*
X405950354Y131296021D01*
X406070804Y131341176D01*
X406086399Y131349714D01*
X406188474Y131426215D01*
X406201035Y131438776D01*
X406277536Y131540851D01*
X406286074Y131556446D01*
X406314768Y131632987D01*
X406357410Y131689751D01*
X406423971Y131714451D01*
X406493320Y131699244D01*
X406543438Y131648958D01*
X406558750Y131588757D01*
X406558750Y129507250D01*
X406538748Y129439129D01*
X406485092Y129392636D01*
X406432750Y129381250D01*
X393490367Y129381250D01*
X393422246Y129401252D01*
X393375753Y129454908D01*
X393365649Y129525182D01*
X393369809Y129543879D01*
X393375114Y129561338D01*
X393413120Y129686431D01*
X393442279Y129907910D01*
X393443906Y129974500D01*
X393425602Y130197139D01*
X393371181Y130413798D01*
X393282104Y130618660D01*
X393160764Y130806223D01*
X393010420Y130971449D01*
X393006369Y130974648D01*
X393006365Y130974652D01*
X392839164Y131106700D01*
X392839160Y131106702D01*
X392835109Y131109902D01*
X392793319Y131132971D01*
X392743348Y131183403D01*
X392728576Y131252846D01*
X392753692Y131319252D01*
X392781044Y131345859D01*
X392956078Y131470708D01*
X392963950Y131477361D01*
X393114802Y131627688D01*
X393121480Y131635535D01*
X393245753Y131808480D01*
X393251063Y131817317D01*
X393345420Y132008233D01*
X393349219Y132017828D01*
X393411127Y132221590D01*
X393413305Y132231663D01*
X393414736Y132242538D01*
X393412525Y132256722D01*
X393399367Y132260500D01*
X391952750Y132260500D01*
X391884629Y132280502D01*
X391838136Y132334158D01*
X391826750Y132386500D01*
X391826750Y132507247D01*
X396459250Y132507247D01*
X396459251Y132079754D01*
X396462177Y132042563D01*
X396508418Y131883400D01*
X396592788Y131740737D01*
X396709987Y131623538D01*
X396852650Y131539168D01*
X396860261Y131536957D01*
X396860263Y131536956D01*
X396907592Y131523206D01*
X397011813Y131492927D01*
X397018218Y131492423D01*
X397018223Y131492422D01*
X397046547Y131490193D01*
X397046555Y131490193D01*
X397049003Y131490000D01*
X397287605Y131490000D01*
X397526496Y131490001D01*
X397563687Y131492927D01*
X397667908Y131523206D01*
X397715237Y131536956D01*
X397715239Y131536957D01*
X397722850Y131539168D01*
X397795112Y131581903D01*
X397863927Y131599362D01*
X397923388Y131581903D01*
X397995650Y131539168D01*
X398003264Y131536956D01*
X398050591Y131523206D01*
X398110426Y131484992D01*
X398140103Y131420496D01*
X398140443Y131386417D01*
X398125213Y131265860D01*
X398142913Y131085340D01*
X398200168Y130913227D01*
X398203815Y130907205D01*
X398203816Y130907203D01*
X398267600Y130801883D01*
X398294130Y130758076D01*
X398420132Y130627598D01*
X398571909Y130528278D01*
X398578513Y130525822D01*
X398578515Y130525821D01*
X398735308Y130467510D01*
X398735310Y130467510D01*
X398741918Y130465052D01*
X398825745Y130453867D01*
X398914730Y130441993D01*
X398914734Y130441993D01*
X398921711Y130441062D01*
X398928722Y130441700D01*
X398928726Y130441700D01*
X399071209Y130454668D01*
X399102350Y130457502D01*
X399109052Y130459680D01*
X399109054Y130459680D01*
X399268159Y130511376D01*
X399268162Y130511377D01*
X399274858Y130513553D01*
X399430662Y130606431D01*
X399562016Y130731518D01*
X399662393Y130882598D01*
X399726805Y131052162D01*
X399727785Y131059134D01*
X399751498Y131227861D01*
X399751498Y131227864D01*
X399752049Y131231783D01*
X399752366Y131254500D01*
X399741148Y131354511D01*
X399753432Y131424437D01*
X399801571Y131476621D01*
X399843569Y131492446D01*
X399849687Y131492927D01*
X399855863Y131494721D01*
X399855867Y131494722D01*
X400001237Y131536956D01*
X400001239Y131536957D01*
X400008850Y131539168D01*
X400081112Y131581903D01*
X400149927Y131599362D01*
X400209388Y131581903D01*
X400281650Y131539168D01*
X400289261Y131536957D01*
X400289263Y131536956D01*
X400336592Y131523206D01*
X400440813Y131492927D01*
X400447218Y131492423D01*
X400447223Y131492422D01*
X400475547Y131490193D01*
X400475555Y131490193D01*
X400478003Y131490000D01*
X400716605Y131490000D01*
X400955496Y131490001D01*
X400992687Y131492927D01*
X401096908Y131523206D01*
X401144237Y131536956D01*
X401144239Y131536957D01*
X401151850Y131539168D01*
X401294513Y131623538D01*
X401411712Y131740737D01*
X401417090Y131749831D01*
X401824751Y131749831D01*
X401825121Y131743010D01*
X401830645Y131692148D01*
X401834271Y131676896D01*
X401879426Y131556446D01*
X401887964Y131540851D01*
X401964465Y131438776D01*
X401977026Y131426215D01*
X402079101Y131349714D01*
X402094696Y131341176D01*
X402215144Y131296022D01*
X402230399Y131292395D01*
X402281264Y131286869D01*
X402288078Y131286500D01*
X403810635Y131286500D01*
X403825874Y131290975D01*
X403827079Y131292365D01*
X403828750Y131300048D01*
X403828750Y133522385D01*
X403824275Y133537624D01*
X403822885Y133538829D01*
X403815202Y133540500D01*
X401842866Y133540500D01*
X401827627Y133536025D01*
X401826422Y133534635D01*
X401824751Y133526952D01*
X401824751Y131749831D01*
X401417090Y131749831D01*
X401496082Y131883400D01*
X401542323Y132042563D01*
X401542827Y132048968D01*
X401542828Y132048973D01*
X401545057Y132077297D01*
X401545057Y132077305D01*
X401545250Y132079753D01*
X401545249Y132507246D01*
X401542323Y132544437D01*
X401496082Y132703600D01*
X401492046Y132710425D01*
X401492044Y132710429D01*
X401489427Y132714855D01*
X401471969Y132783671D01*
X401489427Y132843128D01*
X401491584Y132846776D01*
X401497832Y132861213D01*
X401535859Y132992105D01*
X401535819Y133006205D01*
X401528549Y133009500D01*
X401251136Y133009500D01*
X401186997Y133027047D01*
X401158679Y133043794D01*
X401158675Y133043796D01*
X401151850Y133047832D01*
X401144239Y133050043D01*
X401144237Y133050044D01*
X401093554Y133064768D01*
X400992687Y133094073D01*
X400986282Y133094577D01*
X400986277Y133094578D01*
X400957953Y133096807D01*
X400957945Y133096807D01*
X400955497Y133097000D01*
X400716895Y133097000D01*
X400478004Y133096999D01*
X400440813Y133094073D01*
X400342733Y133065578D01*
X400289263Y133050044D01*
X400289261Y133050043D01*
X400281650Y133047832D01*
X400274825Y133043796D01*
X400274821Y133043794D01*
X400246503Y133027047D01*
X400182364Y133009500D01*
X400108136Y133009500D01*
X400043997Y133027047D01*
X400015679Y133043794D01*
X400015675Y133043796D01*
X400008850Y133047832D01*
X400001239Y133050043D01*
X400001237Y133050044D01*
X399950554Y133064768D01*
X399849687Y133094073D01*
X399843282Y133094577D01*
X399843277Y133094578D01*
X399814953Y133096807D01*
X399814945Y133096807D01*
X399812497Y133097000D01*
X399573895Y133097000D01*
X399335004Y133096999D01*
X399297813Y133094073D01*
X399199733Y133065578D01*
X399146263Y133050044D01*
X399146261Y133050043D01*
X399138650Y133047832D01*
X399131825Y133043796D01*
X399131821Y133043794D01*
X399103503Y133027047D01*
X399039364Y133009500D01*
X398965136Y133009500D01*
X398900997Y133027047D01*
X398872679Y133043794D01*
X398872675Y133043796D01*
X398865850Y133047832D01*
X398858239Y133050043D01*
X398858237Y133050044D01*
X398807554Y133064768D01*
X398706687Y133094073D01*
X398700282Y133094577D01*
X398700277Y133094578D01*
X398671953Y133096807D01*
X398671945Y133096807D01*
X398669497Y133097000D01*
X398430895Y133097000D01*
X398192004Y133096999D01*
X398154813Y133094073D01*
X398056733Y133065578D01*
X398003263Y133050044D01*
X398003261Y133050043D01*
X397995650Y133047832D01*
X397988825Y133043796D01*
X397988821Y133043794D01*
X397960503Y133027047D01*
X397896364Y133009500D01*
X397822136Y133009500D01*
X397757997Y133027047D01*
X397729679Y133043794D01*
X397729675Y133043796D01*
X397722850Y133047832D01*
X397715239Y133050043D01*
X397715237Y133050044D01*
X397664554Y133064768D01*
X397563687Y133094073D01*
X397557282Y133094577D01*
X397557277Y133094578D01*
X397528953Y133096807D01*
X397528945Y133096807D01*
X397526497Y133097000D01*
X397287895Y133097000D01*
X397049004Y133096999D01*
X397011813Y133094073D01*
X396913733Y133065578D01*
X396860263Y133050044D01*
X396860261Y133050043D01*
X396852650Y133047832D01*
X396845825Y133043796D01*
X396845821Y133043794D01*
X396817503Y133027047D01*
X396753364Y133009500D01*
X396481702Y133009500D01*
X396468171Y133005527D01*
X396467036Y132997629D01*
X396506668Y132861213D01*
X396512916Y132846776D01*
X396515073Y132843128D01*
X396515893Y132839897D01*
X396516064Y132839501D01*
X396516000Y132839473D01*
X396532531Y132774311D01*
X396515073Y132714855D01*
X396512456Y132710429D01*
X396512454Y132710425D01*
X396508418Y132703600D01*
X396462177Y132544437D01*
X396461673Y132538032D01*
X396461672Y132538027D01*
X396459443Y132509703D01*
X396459250Y132507247D01*
X391826750Y132507247D01*
X391826750Y132642500D01*
X391846752Y132710621D01*
X391900408Y132757114D01*
X391952750Y132768500D01*
X393399094Y132768500D01*
X393412625Y132772473D01*
X393413930Y132781553D01*
X393371964Y132948625D01*
X393368644Y132958376D01*
X393283722Y133153686D01*
X393278855Y133162761D01*
X393163176Y133341574D01*
X393156886Y133349743D01*
X393013556Y133507260D01*
X393006023Y133514285D01*
X392838889Y133646278D01*
X392830306Y133651980D01*
X392793352Y133672380D01*
X392743381Y133722813D01*
X392728609Y133792255D01*
X392753725Y133858661D01*
X392781077Y133885268D01*
X392847395Y133932572D01*
X392960610Y134013327D01*
X393118846Y134171011D01*
X393130069Y134186629D01*
X396467036Y134186629D01*
X396506668Y134050213D01*
X396512916Y134035776D01*
X396580121Y133922140D01*
X396597581Y133853324D01*
X396580121Y133793860D01*
X396512916Y133680224D01*
X396506668Y133665787D01*
X396468641Y133534895D01*
X396468681Y133520795D01*
X396475951Y133517500D01*
X397015635Y133517500D01*
X397030874Y133521975D01*
X397032079Y133523365D01*
X397033750Y133531048D01*
X397033750Y133535615D01*
X397541750Y133535615D01*
X397546225Y133520376D01*
X397547615Y133519171D01*
X397555298Y133517500D01*
X398158635Y133517500D01*
X398173874Y133521975D01*
X398175079Y133523365D01*
X398176750Y133531048D01*
X398176750Y133535615D01*
X398684750Y133535615D01*
X398689225Y133520376D01*
X398690615Y133519171D01*
X398698298Y133517500D01*
X399301635Y133517500D01*
X399316874Y133521975D01*
X399318079Y133523365D01*
X399319750Y133531048D01*
X399319750Y133535615D01*
X399827750Y133535615D01*
X399832225Y133520376D01*
X399833615Y133519171D01*
X399841298Y133517500D01*
X400444635Y133517500D01*
X400459874Y133521975D01*
X400461079Y133523365D01*
X400462750Y133531048D01*
X400462750Y133535615D01*
X400970750Y133535615D01*
X400975225Y133520376D01*
X400976615Y133519171D01*
X400984298Y133517500D01*
X401522798Y133517500D01*
X401536329Y133521473D01*
X401537464Y133529371D01*
X401497832Y133665787D01*
X401491584Y133680224D01*
X401424379Y133793860D01*
X401406919Y133862676D01*
X401424379Y133922140D01*
X401491584Y134035776D01*
X401497832Y134050213D01*
X401502597Y134066615D01*
X401824750Y134066615D01*
X401829225Y134051376D01*
X401830615Y134050171D01*
X401838298Y134048500D01*
X403810635Y134048500D01*
X403825874Y134052975D01*
X403827079Y134054365D01*
X403828750Y134062048D01*
X403828750Y136284384D01*
X403824275Y136299623D01*
X403822885Y136300828D01*
X403815202Y136302499D01*
X402288081Y136302499D01*
X402281260Y136302129D01*
X402230398Y136296605D01*
X402215146Y136292979D01*
X402094696Y136247824D01*
X402079101Y136239286D01*
X401977026Y136162785D01*
X401964465Y136150224D01*
X401887964Y136048149D01*
X401879426Y136032554D01*
X401834272Y135912106D01*
X401830645Y135896851D01*
X401825119Y135845986D01*
X401824750Y135839172D01*
X401824750Y134066615D01*
X401502597Y134066615D01*
X401535859Y134181105D01*
X401535819Y134195205D01*
X401528549Y134198500D01*
X400988865Y134198500D01*
X400973626Y134194025D01*
X400972421Y134192635D01*
X400970750Y134184952D01*
X400970750Y133535615D01*
X400462750Y133535615D01*
X400462750Y134180385D01*
X400458275Y134195624D01*
X400456885Y134196829D01*
X400449202Y134198500D01*
X399845865Y134198500D01*
X399830626Y134194025D01*
X399829421Y134192635D01*
X399827750Y134184952D01*
X399827750Y133535615D01*
X399319750Y133535615D01*
X399319750Y134180385D01*
X399315275Y134195624D01*
X399313885Y134196829D01*
X399306202Y134198500D01*
X398702865Y134198500D01*
X398687626Y134194025D01*
X398686421Y134192635D01*
X398684750Y134184952D01*
X398684750Y133535615D01*
X398176750Y133535615D01*
X398176750Y134180385D01*
X398172275Y134195624D01*
X398170885Y134196829D01*
X398163202Y134198500D01*
X397559865Y134198500D01*
X397544626Y134194025D01*
X397543421Y134192635D01*
X397541750Y134184952D01*
X397541750Y133535615D01*
X397033750Y133535615D01*
X397033750Y134180385D01*
X397029275Y134195624D01*
X397027885Y134196829D01*
X397020202Y134198500D01*
X396481702Y134198500D01*
X396468171Y134194527D01*
X396467036Y134186629D01*
X393130069Y134186629D01*
X393249203Y134352423D01*
X393348180Y134552689D01*
X393413120Y134766431D01*
X393442279Y134987910D01*
X393442361Y134991260D01*
X393443824Y135051135D01*
X393443824Y135051139D01*
X393443906Y135054500D01*
X393425602Y135277139D01*
X393371181Y135493798D01*
X393309242Y135636247D01*
X396459250Y135636247D01*
X396459251Y135208754D01*
X396462177Y135171563D01*
X396508418Y135012400D01*
X396512454Y135005575D01*
X396512456Y135005571D01*
X396515073Y135001145D01*
X396532531Y134932329D01*
X396515073Y134872872D01*
X396512916Y134869224D01*
X396506668Y134854787D01*
X396468641Y134723895D01*
X396468681Y134709795D01*
X396475951Y134706500D01*
X396753364Y134706500D01*
X396817503Y134688953D01*
X396845821Y134672206D01*
X396845825Y134672204D01*
X396852650Y134668168D01*
X396860261Y134665957D01*
X396860263Y134665956D01*
X396910946Y134651232D01*
X397011813Y134621927D01*
X397018218Y134621423D01*
X397018223Y134621422D01*
X397046547Y134619193D01*
X397046555Y134619193D01*
X397049003Y134619000D01*
X397287605Y134619000D01*
X397526496Y134619001D01*
X397563687Y134621927D01*
X397661767Y134650422D01*
X397715237Y134665956D01*
X397715239Y134665957D01*
X397722850Y134668168D01*
X397729675Y134672204D01*
X397729679Y134672206D01*
X397757997Y134688953D01*
X397822136Y134706500D01*
X397896364Y134706500D01*
X397960503Y134688953D01*
X397988821Y134672206D01*
X397988825Y134672204D01*
X397995650Y134668168D01*
X398003261Y134665957D01*
X398003263Y134665956D01*
X398053946Y134651232D01*
X398154813Y134621927D01*
X398161218Y134621423D01*
X398161223Y134621422D01*
X398189547Y134619193D01*
X398189555Y134619193D01*
X398192003Y134619000D01*
X398430605Y134619000D01*
X398669496Y134619001D01*
X398706687Y134621927D01*
X398804767Y134650422D01*
X398858237Y134665956D01*
X398858239Y134665957D01*
X398865850Y134668168D01*
X398872675Y134672204D01*
X398872679Y134672206D01*
X398900997Y134688953D01*
X398965136Y134706500D01*
X399039364Y134706500D01*
X399103503Y134688953D01*
X399131821Y134672206D01*
X399131825Y134672204D01*
X399138650Y134668168D01*
X399146261Y134665957D01*
X399146263Y134665956D01*
X399196946Y134651232D01*
X399297813Y134621927D01*
X399304218Y134621423D01*
X399304223Y134621422D01*
X399332547Y134619193D01*
X399332555Y134619193D01*
X399335003Y134619000D01*
X399573605Y134619000D01*
X399812496Y134619001D01*
X399849687Y134621927D01*
X399947767Y134650422D01*
X400001237Y134665956D01*
X400001239Y134665957D01*
X400008850Y134668168D01*
X400015675Y134672204D01*
X400015679Y134672206D01*
X400043997Y134688953D01*
X400108136Y134706500D01*
X400182364Y134706500D01*
X400246503Y134688953D01*
X400274821Y134672206D01*
X400274825Y134672204D01*
X400281650Y134668168D01*
X400289261Y134665957D01*
X400289263Y134665956D01*
X400339946Y134651232D01*
X400440813Y134621927D01*
X400447218Y134621423D01*
X400447223Y134621422D01*
X400475547Y134619193D01*
X400475555Y134619193D01*
X400478003Y134619000D01*
X400716605Y134619000D01*
X400955496Y134619001D01*
X400992687Y134621927D01*
X401090767Y134650422D01*
X401144237Y134665956D01*
X401144239Y134665957D01*
X401151850Y134668168D01*
X401158675Y134672204D01*
X401158679Y134672206D01*
X401186997Y134688953D01*
X401251136Y134706500D01*
X401522798Y134706500D01*
X401536329Y134710473D01*
X401537464Y134718371D01*
X401497832Y134854787D01*
X401491584Y134869224D01*
X401489427Y134872872D01*
X401488607Y134876103D01*
X401488436Y134876499D01*
X401488500Y134876527D01*
X401471969Y134941689D01*
X401489427Y135001145D01*
X401492044Y135005571D01*
X401492046Y135005575D01*
X401496082Y135012400D01*
X401542323Y135171563D01*
X401542827Y135177968D01*
X401542828Y135177973D01*
X401545057Y135206297D01*
X401545057Y135206305D01*
X401545250Y135208753D01*
X401545249Y135636246D01*
X401542323Y135673437D01*
X401496082Y135832600D01*
X401488166Y135845986D01*
X401415746Y135968442D01*
X401415746Y135968443D01*
X401411712Y135975263D01*
X401294513Y136092462D01*
X401175603Y136162785D01*
X401158673Y136172797D01*
X401151850Y136176832D01*
X401144239Y136179043D01*
X401144237Y136179044D01*
X401093554Y136193768D01*
X400992687Y136223073D01*
X400986282Y136223577D01*
X400986277Y136223578D01*
X400957953Y136225807D01*
X400957945Y136225807D01*
X400955497Y136226000D01*
X400716895Y136226000D01*
X400478004Y136225999D01*
X400440813Y136223073D01*
X400342733Y136194578D01*
X400289263Y136179044D01*
X400289261Y136179043D01*
X400281650Y136176832D01*
X400209388Y136134097D01*
X400140573Y136116638D01*
X400081112Y136134097D01*
X400008850Y136176832D01*
X400001239Y136179043D01*
X400001237Y136179044D01*
X399855873Y136221276D01*
X399855871Y136221276D01*
X399849687Y136223073D01*
X399843677Y136223546D01*
X399780392Y136255395D01*
X399744296Y136316531D01*
X399741675Y136364964D01*
X399751498Y136434858D01*
X399751499Y136434868D01*
X399752049Y136438783D01*
X399752366Y136461500D01*
X399732147Y136641755D01*
X399729830Y136648409D01*
X399674814Y136806394D01*
X399674812Y136806397D01*
X399672495Y136813052D01*
X399576376Y136966876D01*
X399562691Y136980657D01*
X399453528Y137090585D01*
X399453524Y137090588D01*
X399448565Y137095582D01*
X399437447Y137102638D01*
X399389288Y137133200D01*
X399295416Y137192773D01*
X399266213Y137203172D01*
X399131175Y137251257D01*
X399131170Y137251258D01*
X399124540Y137253619D01*
X399117552Y137254452D01*
X399117549Y137254453D01*
X398994448Y137269132D01*
X398944430Y137275096D01*
X398937427Y137274360D01*
X398937426Y137274360D01*
X398771038Y137256872D01*
X398771036Y137256871D01*
X398764038Y137256136D01*
X398592329Y137197682D01*
X398586325Y137193988D01*
X398443845Y137106334D01*
X398443842Y137106332D01*
X398437838Y137102638D01*
X398432803Y137097707D01*
X398432800Y137097705D01*
X398313275Y136980657D01*
X398308243Y136975729D01*
X398209985Y136823262D01*
X398207576Y136816642D01*
X398207574Y136816639D01*
X398165042Y136699783D01*
X398147947Y136652815D01*
X398125213Y136472860D01*
X398128166Y136442743D01*
X398139638Y136325738D01*
X398126378Y136255991D01*
X398077515Y136204484D01*
X398049393Y136192446D01*
X398040637Y136189902D01*
X397995650Y136176832D01*
X397923388Y136134097D01*
X397854573Y136116638D01*
X397795112Y136134097D01*
X397722850Y136176832D01*
X397715239Y136179043D01*
X397715237Y136179044D01*
X397664554Y136193768D01*
X397563687Y136223073D01*
X397557282Y136223577D01*
X397557277Y136223578D01*
X397528953Y136225807D01*
X397528945Y136225807D01*
X397526497Y136226000D01*
X397287895Y136226000D01*
X397049004Y136225999D01*
X397011813Y136223073D01*
X396913733Y136194578D01*
X396860263Y136179044D01*
X396860261Y136179043D01*
X396852650Y136176832D01*
X396845827Y136172797D01*
X396828898Y136162785D01*
X396709987Y136092462D01*
X396592788Y135975263D01*
X396588754Y135968443D01*
X396588754Y135968442D01*
X396516334Y135845986D01*
X396508418Y135832600D01*
X396462177Y135673437D01*
X396461673Y135667032D01*
X396461672Y135667027D01*
X396459443Y135638703D01*
X396459250Y135636247D01*
X393309242Y135636247D01*
X393282104Y135698660D01*
X393242656Y135759638D01*
X393163572Y135881883D01*
X393163570Y135881886D01*
X393160764Y135886223D01*
X393157282Y135890050D01*
X393013548Y136048012D01*
X392982496Y136111858D01*
X392990891Y136182357D01*
X393036067Y136237125D01*
X393062511Y136250794D01*
X393169047Y136290733D01*
X393177455Y136293885D01*
X393294011Y136381239D01*
X393381365Y136497795D01*
X393432495Y136634184D01*
X393439250Y136696366D01*
X393439250Y138492634D01*
X393438882Y138496026D01*
X393438881Y138496036D01*
X393437647Y138507394D01*
X393450176Y138577276D01*
X393498497Y138629291D01*
X393562910Y138647000D01*
X406432750Y138647000D01*
X406500871Y138626998D01*
G37*
%TD.AperFunction*%
%TD*%
%TA.AperFunction,Conductor*%
%TO.N,GND*%
G36*
X431501371Y103675498D02*
G01*
X431547864Y103621842D01*
X431559250Y103569500D01*
X431559251Y103340819D01*
X431559251Y103202754D01*
X431562177Y103165563D01*
X431563974Y103159379D01*
X431598823Y103039428D01*
X431608418Y103006400D01*
X431612453Y102999577D01*
X431688753Y102870559D01*
X431688755Y102870556D01*
X431692788Y102863737D01*
X431696206Y102860319D01*
X431721650Y102795515D01*
X431714125Y102740142D01*
X431708005Y102723816D01*
X431701250Y102661634D01*
X431701250Y100665366D01*
X431708005Y100603184D01*
X431759135Y100466795D01*
X431846489Y100350239D01*
X431963045Y100262885D01*
X432099434Y100211755D01*
X432161616Y100205000D01*
X432657884Y100205000D01*
X432720066Y100211755D01*
X432856455Y100262885D01*
X432934602Y100321453D01*
X433001108Y100346301D01*
X433070491Y100331248D01*
X433085732Y100321453D01*
X433156102Y100268714D01*
X433171696Y100260176D01*
X433292144Y100215022D01*
X433307399Y100211395D01*
X433358264Y100205869D01*
X433365078Y100205500D01*
X433391635Y100205500D01*
X433406874Y100209975D01*
X433408079Y100211365D01*
X433409750Y100219048D01*
X433409750Y101737500D01*
X433429752Y101805621D01*
X433483408Y101852114D01*
X433535750Y101863500D01*
X433683750Y101863500D01*
X433751871Y101843498D01*
X433798364Y101789842D01*
X433809750Y101737500D01*
X433809750Y100223616D01*
X433814225Y100208377D01*
X433815615Y100207172D01*
X433823298Y100205501D01*
X433854419Y100205501D01*
X433861240Y100205871D01*
X433912102Y100211395D01*
X433927354Y100215021D01*
X434047804Y100260176D01*
X434063398Y100268714D01*
X434133768Y100321453D01*
X434200274Y100346301D01*
X434269657Y100331248D01*
X434284898Y100321453D01*
X434363045Y100262885D01*
X434499434Y100211755D01*
X434561616Y100205000D01*
X435057884Y100205000D01*
X435120066Y100211755D01*
X435256455Y100262885D01*
X435373011Y100350239D01*
X435460365Y100466795D01*
X435511495Y100603184D01*
X435518250Y100665366D01*
X435518250Y102661634D01*
X435511495Y102723816D01*
X435460365Y102860205D01*
X435438037Y102889998D01*
X435413941Y102949116D01*
X435402588Y103035350D01*
X435400899Y103039428D01*
X435341274Y103183376D01*
X435268227Y103278572D01*
X435268224Y103278575D01*
X435243737Y103310487D01*
X435237182Y103315517D01*
X435218371Y103329952D01*
X435205980Y103340819D01*
X435066394Y103480405D01*
X435032368Y103542717D01*
X435037433Y103613532D01*
X435079980Y103670368D01*
X435146500Y103695179D01*
X435155489Y103695500D01*
X435614278Y103695500D01*
X435682399Y103675498D01*
X435703373Y103658595D01*
X435758345Y103603623D01*
X435792371Y103541311D01*
X435795250Y103514528D01*
X435795250Y100062739D01*
X435775248Y99994618D01*
X435758345Y99973644D01*
X435707106Y99922405D01*
X435644794Y99888379D01*
X435618011Y99885500D01*
X431068750Y99885500D01*
X431000629Y99905502D01*
X430954136Y99959158D01*
X430942750Y100011500D01*
X430942750Y103417736D01*
X430962752Y103485857D01*
X431004233Y103525965D01*
X431047613Y103551824D01*
X431047620Y103551829D01*
X431053662Y103555431D01*
X431058757Y103560283D01*
X431058765Y103560289D01*
X431164253Y103660745D01*
X431227378Y103693238D01*
X431251145Y103695500D01*
X431433250Y103695500D01*
X431501371Y103675498D01*
G37*
%TD.AperFunction*%
%TD*%
M02*
