%TF.GenerationSoftware,KiCad,Pcbnew,(6.0.7)*%
%TF.CreationDate,2022-09-27T13:03:32-04:00*%
%TF.ProjectId,SweetBusiness,53776565-7442-4757-9369-6e6573732e6b,rev?*%
%TF.SameCoordinates,Original*%
%TF.FileFunction,Profile,NP*%
%FSLAX46Y46*%
G04 Gerber Fmt 4.6, Leading zero omitted, Abs format (unit mm)*
G04 Created by KiCad (PCBNEW (6.0.7)) date 2022-09-27 13:03:32*
%MOMM*%
%LPD*%
G01*
G04 APERTURE LIST*
%TA.AperFunction,Profile*%
%ADD10C,0.050000*%
%TD*%
%TA.AperFunction,Profile*%
%ADD11C,0.120000*%
%TD*%
G04 APERTURE END LIST*
D10*
X471487550Y140493750D02*
G75*
G03*
X469106250Y142875000I-2381300J-50D01*
G01*
X-50Y2381250D02*
G75*
G03*
X2381250Y0I2381300J50D01*
G01*
X30956250Y142875000D02*
X469106250Y142875000D01*
X469106250Y0D02*
X2381250Y0D01*
X2381250Y142875000D02*
G75*
G03*
X0Y140493750I0J-2381250D01*
G01*
X2381250Y142875000D02*
X30956250Y142875000D01*
X469106250Y50D02*
G75*
G03*
X471487500Y2381250I0J2381250D01*
G01*
X0Y2381250D02*
X0Y140493750D01*
X471487500Y140493750D02*
X471487500Y2381250D01*
D11*
%TO.C,KT4*%
X315587500Y139850000D02*
X322587500Y139850000D01*
X322587500Y139850000D02*
X322587500Y126850000D01*
X322587500Y126850000D02*
X315587500Y126850000D01*
X315587500Y126850000D02*
X315587500Y139850000D01*
%TO.C,KT2*%
X277487500Y139850000D02*
X284487500Y139850000D01*
X284487500Y139850000D02*
X284487500Y126850000D01*
X284487500Y126850000D02*
X277487500Y126850000D01*
X277487500Y126850000D02*
X277487500Y139850000D01*
%TO.C,KT1*%
X258437500Y139850000D02*
X265437500Y139850000D01*
X265437500Y139850000D02*
X265437500Y126850000D01*
X265437500Y126850000D02*
X258437500Y126850000D01*
X258437500Y126850000D02*
X258437500Y139850000D01*
%TO.C,KT3*%
X296537500Y139850000D02*
X303537500Y139850000D01*
X303537500Y139850000D02*
X303537500Y126850000D01*
X303537500Y126850000D02*
X296537500Y126850000D01*
X296537500Y126850000D02*
X296537500Y139850000D01*
%TO.C,SWA1*%
X465462500Y126850000D02*
X458462500Y126850000D01*
X458462500Y126850000D02*
X458462500Y139850000D01*
X458462500Y139850000D02*
X465462500Y139850000D01*
X465462500Y139850000D02*
X465462500Y126850000D01*
%TD*%
M02*
