M48
; DRILL file {KiCad (6.0.0)} date Sat Apr 30 21:46:17 2022
; FORMAT={-:-/ absolute / inch / decimal}
; #@! TF.CreationDate,2022-04-30T21:46:17-04:00
; #@! TF.GenerationSoftware,Kicad,Pcbnew,(6.0.0)
; #@! TF.FileFunction,Plated,1,2,PTH
FMAT,2
INCH
; #@! TA.AperFunction,Plated,PTH,ViaDrill
T1C0.0118
; #@! TA.AperFunction,Plated,PTH,ComponentDrill
T2C0.0118
; #@! TA.AperFunction,Plated,PTH,ViaDrill
T3C0.0177
; #@! TA.AperFunction,Plated,PTH,ComponentDrill
T4C0.0236
; #@! TA.AperFunction,Plated,PTH,ComponentDrill
T5C0.0394
; #@! TA.AperFunction,Plated,PTH,ComponentDrill
T6C0.0500
; #@! TA.AperFunction,Plated,PTH,ComponentDrill
T7C0.0590
; #@! TA.AperFunction,Plated,PTH,ComponentDrill
T8C0.1102
%
G90
G05
T1
X3.9219Y-6.2219
X4.32Y-6.2455
X5.8062Y-6.2612
X7.3062Y-6.2769
X9.0219Y-6.2969
X10.5094Y-6.3094
X12.5563Y-6.3241
X14.0563Y-6.3412
X16.4937Y-6.3556
X17.2437Y-6.3713
X17.675Y-5.675
X17.75Y-5.4375
X18.885Y-6.23
X18.9068Y-6.2073
X18.925Y-5.675
X18.9845Y-6.1307
X19.02Y-6.185
X19.08Y-6.79
X19.1Y-5.675
X19.1041Y-6.1807
X19.109Y-6.1
X19.2Y-6.2
X19.295Y-6.345
X19.295Y-6.38
X19.295Y-6.44
X19.295Y-6.5
X19.335Y-6.53
X19.39Y-5.97
X19.405Y-6.53
X19.43Y-6.845
X19.4535Y-6.2792
X19.47Y-6.53
X19.515Y-6.385
X19.515Y-6.44
X19.515Y-6.5
X19.5312Y-5.125
X19.5766Y-5.9493
X19.595Y-5.825
X19.63Y-5.175
X19.65Y-6.2
X19.69Y-5.915
X19.7091Y-6.1
X19.7188Y-5.125
X19.72Y-5.28
X19.83Y-6.79
X19.89Y-5.76
X19.89Y-5.86
X19.92Y-4.93
X19.92Y-5.01
X19.9235Y-5.765
X19.9235Y-5.8586
X19.9363Y-8.4688
X19.9398Y-7.7202
X19.9452Y-9.9648
X19.955Y-5.765
X19.955Y-5.8586
X19.985Y-6.0357
X19.9973Y-5.4373
X20.0412Y-6.9688
X20.25Y-6.97
X20.3753Y-9.9648
X20.4098Y-7.7202
X20.4112Y-8.4688
T2
X19.3669Y-6.0625
X19.4062Y-6.0231
X19.4062Y-6.1019
X19.4456Y-6.0625
T3
X17.92Y-5.5
X19.1869Y-5.1731
X19.3148Y-5.97
X19.3148Y-6.1452
X19.4121Y-6.15
X19.4991Y-5.9699
X19.84Y-5.5
T5
X12.2311Y-5.0379
X12.2311Y-5.1379
X12.2311Y-5.2379
X12.2311Y-5.3379
X12.3311Y-5.0379
X12.3311Y-5.1379
X12.3311Y-5.2379
X12.3311Y-5.3379
X17.6998Y-5.7879
X17.6998Y-5.8879
X17.6998Y-5.9879
X17.6998Y-6.0879
X17.78Y-5.0204
X17.78Y-5.1204
X17.78Y-5.2204
X17.78Y-5.3204
X17.7998Y-5.7879
X17.7998Y-5.8879
X17.7998Y-5.9879
X17.7998Y-6.0879
X20.4328Y-4.8922
X20.4328Y-5.4631
X20.5312Y-4.8922
X20.6297Y-4.8922
X20.6297Y-5.4631
T6
X2.5219Y-7.2121
X2.5219Y-7.9621
X2.5219Y-8.7121
X2.5219Y-9.4621
X2.5219Y-10.2121
X2.7188Y-7.2948
X2.7188Y-8.0448
X2.7188Y-8.7948
X2.7188Y-9.5448
X2.7188Y-10.2948
X3.2719Y-7.2121
X3.2719Y-7.9621
X3.2719Y-8.7121
X3.2719Y-9.4621
X3.2719Y-10.2121
X3.4688Y-7.2948
X3.4688Y-8.0448
X3.4688Y-8.7948
X3.4688Y-9.5448
X3.4688Y-10.2948
X4.2094Y-6.0871
X4.2094Y-7.2121
X4.3031Y-10.2121
X4.3969Y-7.9621
X4.4062Y-6.1698
X4.4062Y-7.2948
X4.4906Y-8.7121
X4.5Y-10.2948
X4.5938Y-8.0448
X4.6781Y-9.4621
X4.6875Y-8.7948
X4.875Y-9.5448
X4.9594Y-7.2121
X5.1562Y-7.2948
X5.2406Y-10.2121
X5.3344Y-7.9621
X5.4375Y-10.2948
X5.5219Y-8.7121
X5.5312Y-8.0448
X5.7094Y-5.3371
X5.7094Y-6.0871
X5.7094Y-7.2121
X5.7188Y-8.7948
X5.8969Y-9.4621
X5.9062Y-5.4198
X5.9062Y-6.1698
X5.9062Y-7.2948
X6.0844Y-7.9621
X6.0938Y-9.5448
X6.1781Y-10.2121
X6.2719Y-8.7121
X6.2812Y-8.0448
X6.375Y-10.2948
X6.4594Y-5.3371
X6.4594Y-6.0871
X6.4594Y-7.2121
X6.4688Y-8.7948
X6.6469Y-9.4621
X6.6562Y-5.4198
X6.6562Y-6.1698
X6.6562Y-7.2948
X6.8344Y-7.9621
X6.8438Y-9.5448
X7.0219Y-8.7121
X7.0312Y-8.0448
X7.2094Y-5.3371
X7.2094Y-6.0871
X7.2094Y-7.2121
X7.2188Y-8.7948
X7.3969Y-9.4621
X7.4062Y-5.4198
X7.4062Y-6.1698
X7.4062Y-7.2948
X7.5844Y-7.9621
X7.5938Y-9.5448
X7.7719Y-8.7121
X7.7812Y-8.0448
X7.9594Y-5.3371
X7.9594Y-6.0871
X7.9594Y-7.2121
X7.9688Y-8.7948
X8.1469Y-9.4621
X8.1562Y-5.4198
X8.1562Y-6.1698
X8.1562Y-7.2948
X8.3344Y-7.9621
X8.3438Y-9.5448
X8.5219Y-8.7121
X8.5312Y-8.0448
X8.7094Y-7.2121
X8.7188Y-8.7948
X8.8969Y-9.4621
X8.9062Y-7.2948
X8.9906Y-10.2121
X9.0844Y-5.3371
X9.0844Y-6.0871
X9.0844Y-7.9621
X9.0938Y-9.5448
X9.1875Y-10.2948
X9.2719Y-8.7121
X9.2812Y-5.4198
X9.2812Y-6.1698
X9.2812Y-8.0448
X9.4594Y-7.2121
X9.4688Y-8.7948
X9.6469Y-9.4621
X9.6562Y-7.2948
X9.8344Y-5.3371
X9.8344Y-6.0871
X9.8344Y-7.9621
X9.8438Y-9.5448
X10.0219Y-8.7121
X10.0312Y-5.4198
X10.0312Y-6.1698
X10.0312Y-8.0448
X10.2094Y-7.2121
X10.2188Y-8.7948
X10.3969Y-9.4621
X10.4062Y-7.2948
X10.5844Y-5.3371
X10.5844Y-6.0871
X10.5844Y-7.9621
X10.5938Y-9.5448
X10.7719Y-8.7121
X10.7812Y-5.4198
X10.7812Y-6.1698
X10.7812Y-8.0448
X10.9594Y-7.2121
X10.9688Y-8.7948
X11.1469Y-9.4621
X11.1562Y-7.2948
X11.3344Y-5.3371
X11.3344Y-6.0871
X11.3344Y-7.9621
X11.3438Y-9.5448
X11.5219Y-8.7121
X11.5312Y-5.4198
X11.5312Y-6.1698
X11.5312Y-8.0448
X11.7094Y-7.2121
X11.7188Y-8.7948
X11.8031Y-10.2121
X11.8969Y-9.4621
X11.9062Y-7.2948
X12.0Y-10.2948
X12.0844Y-7.9621
X12.0938Y-9.5448
X12.2719Y-8.7121
X12.2812Y-8.0448
X12.4594Y-6.0871
X12.4594Y-7.2121
X12.4688Y-8.7948
X12.6469Y-9.4621
X12.6562Y-6.1698
X12.6562Y-7.2948
X12.7406Y-10.2121
X12.8344Y-7.9621
X12.8438Y-9.5448
X12.9375Y-10.2948
X13.0219Y-8.7121
X13.0312Y-8.0448
X13.2094Y-6.0871
X13.2094Y-7.2121
X13.2188Y-8.7948
X13.4062Y-6.1698
X13.4062Y-7.2948
X13.5844Y-7.9621
X13.6781Y-10.2121
X13.7812Y-8.0448
X13.875Y-10.2948
X13.9594Y-6.0871
X14.0531Y-9.4621
X14.1562Y-6.1698
X14.2406Y-8.7121
X14.25Y-9.5448
X14.3344Y-7.2121
X14.4375Y-8.7948
X14.5219Y-7.9621
X14.5312Y-7.2948
X14.6156Y-10.2121
X14.7094Y-6.0871
X14.7188Y-8.0448
X14.8125Y-10.2948
X14.9062Y-6.1698
X15.6469Y-5.3371
X15.6469Y-6.0871
X15.6469Y-7.2121
X15.6469Y-7.9621
X15.6469Y-10.2121
X15.8438Y-5.4198
X15.8438Y-6.1698
X15.8438Y-7.2948
X15.8438Y-8.0448
X15.8438Y-10.2948
X16.3969Y-5.3371
X16.3969Y-6.0871
X16.3969Y-7.2121
X16.3969Y-7.9621
X16.3969Y-9.4621
X16.3969Y-10.2121
X16.5938Y-5.4198
X16.5938Y-6.1698
X16.5938Y-7.2948
X16.5938Y-8.0448
X16.5938Y-9.5448
X16.5938Y-10.2948
X17.1469Y-5.3371
X17.1469Y-6.0871
X17.1469Y-7.2121
X17.1469Y-7.9621
X17.1469Y-10.2121
X17.3438Y-5.4198
X17.3438Y-6.1698
X17.3438Y-7.2948
X17.3438Y-8.0448
X17.3438Y-10.2948
X18.0844Y-7.2121
X18.0844Y-7.9621
X18.0844Y-8.7121
X18.0844Y-9.4621
X18.0844Y-10.2121
X18.2812Y-7.2948
X18.2812Y-8.0448
X18.2812Y-8.7948
X18.2812Y-9.5448
X18.2812Y-10.2948
X18.8344Y-7.2121
X18.8344Y-7.9621
X18.8344Y-8.7121
X18.8344Y-9.4621
X18.8344Y-10.2121
X19.0312Y-7.2948
X19.0312Y-8.0448
X19.0312Y-8.7948
X19.0312Y-9.5448
X19.0312Y-10.2948
X19.5844Y-7.2121
X19.5844Y-7.9621
X19.5844Y-8.7121
X19.5844Y-9.4621
X19.5844Y-10.2121
X19.7812Y-7.2948
X19.7812Y-8.0448
X19.7812Y-8.7948
X19.7812Y-9.5448
X19.7812Y-10.2948
X20.3344Y-5.3371
X20.3344Y-7.2121
X20.3344Y-7.9621
X20.3344Y-8.7121
X20.5312Y-5.4198
X20.5312Y-7.2948
X20.5312Y-8.0448
X20.5312Y-8.7948
X20.6809Y-9.8844
X20.7635Y-9.6875
T7
X2.6187Y-7.2625
X2.6187Y-8.0125
X2.6187Y-8.7625
X2.6187Y-9.5125
X2.6187Y-10.2625
X2.8687Y-7.1625
X2.8687Y-7.9125
X2.8687Y-8.6625
X2.8687Y-9.4125
X2.8687Y-10.1625
X3.3687Y-7.2625
X3.3687Y-8.0125
X3.3687Y-8.7625
X3.3687Y-9.5125
X3.3687Y-10.2625
X3.6187Y-7.1625
X3.6187Y-7.9125
X3.6187Y-8.6625
X3.6187Y-9.4125
X3.6187Y-10.1625
X4.3062Y-6.1375
X4.3062Y-7.2625
X4.4Y-10.2625
X4.4937Y-8.0125
X4.5562Y-6.0375
X4.5562Y-7.1625
X4.5875Y-8.7625
X4.65Y-10.1625
X4.7437Y-7.9125
X4.775Y-9.5125
X4.8375Y-8.6625
X5.025Y-9.4125
X5.0562Y-7.2625
X5.3062Y-7.1625
X5.3375Y-10.2625
X5.4312Y-8.0125
X5.5875Y-10.1625
X5.6187Y-8.7625
X5.6812Y-7.9125
X5.8062Y-5.3875
X5.8062Y-6.1375
X5.8062Y-7.2625
X5.8687Y-8.6625
X5.9937Y-9.5125
X6.0562Y-5.2875
X6.0562Y-6.0375
X6.0562Y-7.1625
X6.1812Y-8.0125
X6.2437Y-9.4125
X6.275Y-10.2625
X6.3687Y-8.7625
X6.4312Y-7.9125
X6.525Y-10.1625
X6.5562Y-5.3875
X6.5562Y-6.1375
X6.5562Y-7.2625
X6.6187Y-8.6625
X6.7437Y-9.5125
X6.8062Y-5.2875
X6.8062Y-6.0375
X6.8062Y-7.1625
X6.9312Y-8.0125
X6.9937Y-9.4125
X7.1187Y-8.7625
X7.1812Y-7.9125
X7.3062Y-5.3875
X7.3062Y-6.1375
X7.3062Y-7.2625
X7.3687Y-8.6625
X7.4937Y-9.5125
X7.5562Y-5.2875
X7.5562Y-6.0375
X7.5562Y-7.1625
X7.6812Y-8.0125
X7.7437Y-9.4125
X7.8687Y-8.7625
X7.9312Y-7.9125
X8.0563Y-5.3875
X8.0563Y-6.1375
X8.0563Y-7.2625
X8.1188Y-8.6625
X8.2438Y-9.5125
X8.3063Y-5.2875
X8.3063Y-6.0375
X8.3063Y-7.1625
X8.4313Y-8.0125
X8.4938Y-9.4125
X8.6188Y-8.7625
X8.6813Y-7.9125
X8.8063Y-7.2625
X8.8688Y-8.6625
X8.9938Y-9.5125
X9.0563Y-7.1625
X9.0875Y-10.2625
X9.1813Y-5.3875
X9.1813Y-6.1375
X9.1813Y-8.0125
X9.2438Y-9.4125
X9.3375Y-10.1625
X9.3688Y-8.7625
X9.4313Y-5.2875
X9.4313Y-6.0375
X9.4313Y-7.9125
X9.5563Y-7.2625
X9.6188Y-8.6625
X9.7438Y-9.5125
X9.8063Y-7.1625
X9.9313Y-5.3875
X9.9313Y-6.1375
X9.9313Y-8.0125
X9.9938Y-9.4125
X10.1188Y-8.7625
X10.1813Y-5.2875
X10.1813Y-6.0375
X10.1813Y-7.9125
X10.3063Y-7.2625
X10.3688Y-8.6625
X10.4938Y-9.5125
X10.5563Y-7.1625
X10.6813Y-5.3875
X10.6813Y-6.1375
X10.6813Y-8.0125
X10.7438Y-9.4125
X10.8688Y-8.7625
X10.9313Y-5.2875
X10.9313Y-6.0375
X10.9313Y-7.9125
X11.0563Y-7.2625
X11.1188Y-8.6625
X11.2438Y-9.5125
X11.3063Y-7.1625
X11.4313Y-5.3875
X11.4313Y-6.1375
X11.4313Y-8.0125
X11.4938Y-9.4125
X11.6188Y-8.7625
X11.6813Y-5.2875
X11.6813Y-6.0375
X11.6813Y-7.9125
X11.8063Y-7.2625
X11.8688Y-8.6625
X11.9Y-10.2625
X11.9938Y-9.5125
X12.0563Y-7.1625
X12.15Y-10.1625
X12.1813Y-8.0125
X12.2438Y-9.4125
X12.3688Y-8.7625
X12.4313Y-7.9125
X12.5563Y-6.1375
X12.5563Y-7.2625
X12.6188Y-8.6625
X12.7438Y-9.5125
X12.8063Y-6.0375
X12.8063Y-7.1625
X12.8375Y-10.2625
X12.9313Y-8.0125
X12.9938Y-9.4125
X13.0875Y-10.1625
X13.1188Y-8.7625
X13.1813Y-7.9125
X13.3063Y-6.1375
X13.3063Y-7.2625
X13.3688Y-8.6625
X13.5563Y-6.0375
X13.5563Y-7.1625
X13.6813Y-8.0125
X13.775Y-10.2625
X13.9313Y-7.9125
X14.025Y-10.1625
X14.0563Y-6.1375
X14.15Y-9.5125
X14.3063Y-6.0375
X14.3375Y-8.7625
X14.4Y-9.4125
X14.4313Y-7.2625
X14.5875Y-8.6625
X14.6188Y-8.0125
X14.6813Y-7.1625
X14.7125Y-10.2625
X14.8063Y-6.1375
X14.8688Y-7.9125
X14.9625Y-10.1625
X15.0563Y-6.0375
X15.7438Y-5.3875
X15.7438Y-6.1375
X15.7438Y-7.2625
X15.7438Y-8.0125
X15.7438Y-10.2625
X15.9938Y-5.2875
X15.9938Y-6.0375
X15.9938Y-7.1625
X15.9938Y-7.9125
X15.9938Y-10.1625
X16.4937Y-5.3875
X16.4937Y-6.1375
X16.4937Y-7.2625
X16.4937Y-8.0125
X16.4937Y-9.5125
X16.4937Y-10.2625
X16.7437Y-5.2875
X16.7437Y-6.0375
X16.7437Y-7.1625
X16.7437Y-7.9125
X16.7437Y-9.4125
X16.7437Y-10.1625
X17.2437Y-5.3875
X17.2437Y-6.1375
X17.2437Y-7.2625
X17.2437Y-8.0125
X17.2437Y-10.2625
X17.4937Y-5.2875
X17.4937Y-6.0375
X17.4937Y-7.1625
X17.4937Y-7.9125
X17.4937Y-10.1625
X18.1812Y-7.2625
X18.1812Y-8.0125
X18.1812Y-8.7625
X18.1812Y-9.5125
X18.1812Y-10.2625
X18.4312Y-7.1625
X18.4312Y-7.9125
X18.4312Y-8.6625
X18.4312Y-9.4125
X18.4312Y-10.1625
X18.9312Y-7.2625
X18.9312Y-8.0125
X18.9312Y-8.7625
X18.9312Y-9.5125
X18.9312Y-10.2625
X19.1812Y-7.1625
X19.1812Y-7.9125
X19.1812Y-8.6625
X19.1812Y-9.4125
X19.1812Y-10.1625
X19.6812Y-7.2625
X19.6812Y-8.0125
X19.6812Y-8.7625
X19.6812Y-9.5125
X19.6812Y-10.2625
X19.9312Y-7.1625
X19.9312Y-7.9125
X19.9312Y-8.6625
X19.9312Y-9.4125
X19.9312Y-10.1625
X20.4312Y-5.3875
X20.4312Y-7.2625
X20.4312Y-8.0125
X20.4312Y-8.7625
X20.6312Y-9.5375
X20.6812Y-5.2875
X20.6812Y-7.1625
X20.6812Y-7.9125
X20.6812Y-8.6625
X20.7312Y-9.7875
T8
X3.0938Y-5.9375
X3.0938Y-9.3125
X8.7188Y-5.9375
X8.7188Y-9.3125
X15.375Y-5.9375
X15.375Y-9.3125
X20.1562Y-5.9375
X20.1562Y-9.3125
T4
G00X19.4549Y-4.8531
M15
G01X19.4549Y-4.8767
M16
G05
G00X19.4549Y-5.0078
M15
G01X19.4549Y-5.0511
M16
G05
G00X19.7951Y-4.8531
M15
G01X19.7951Y-4.8767
M16
G05
G00X19.7951Y-5.0078
M15
G01X19.7951Y-5.0511
M16
G05
T0
M30
