%TF.GenerationSoftware,KiCad,Pcbnew,(6.0.7)*%
%TF.CreationDate,2022-09-27T13:03:32-04:00*%
%TF.ProjectId,SweetBusiness,53776565-7442-4757-9369-6e6573732e6b,rev?*%
%TF.SameCoordinates,Original*%
%TF.FileFunction,Soldermask,Top*%
%TF.FilePolarity,Negative*%
%FSLAX46Y46*%
G04 Gerber Fmt 4.6, Leading zero omitted, Abs format (unit mm)*
G04 Created by KiCad (PCBNEW (6.0.7)) date 2022-09-27 13:03:32*
%MOMM*%
%LPD*%
G01*
G04 APERTURE LIST*
G04 Aperture macros list*
%AMRoundRect*
0 Rectangle with rounded corners*
0 $1 Rounding radius*
0 $2 $3 $4 $5 $6 $7 $8 $9 X,Y pos of 4 corners*
0 Add a 4 corners polygon primitive as box body*
4,1,4,$2,$3,$4,$5,$6,$7,$8,$9,$2,$3,0*
0 Add four circle primitives for the rounded corners*
1,1,$1+$1,$2,$3*
1,1,$1+$1,$4,$5*
1,1,$1+$1,$6,$7*
1,1,$1+$1,$8,$9*
0 Add four rect primitives between the rounded corners*
20,1,$1+$1,$2,$3,$4,$5,0*
20,1,$1+$1,$4,$5,$6,$7,0*
20,1,$1+$1,$6,$7,$8,$9,0*
20,1,$1+$1,$8,$9,$2,$3,0*%
G04 Aperture macros list end*
%ADD10RoundRect,0.147500X0.147500X0.172500X-0.147500X0.172500X-0.147500X-0.172500X0.147500X-0.172500X0*%
%ADD11R,0.700000X0.700000*%
%ADD12C,3.200000*%
%ADD13R,2.000000X2.000000*%
%ADD14C,2.000000*%
%ADD15C,1.701800*%
%ADD16C,3.987800*%
%ADD17C,2.286000*%
%ADD18RoundRect,0.147500X-0.147500X-0.172500X0.147500X-0.172500X0.147500X0.172500X-0.147500X0.172500X0*%
%ADD19R,1.700000X1.700000*%
%ADD20O,1.700000X1.700000*%
%ADD21RoundRect,0.147500X-0.172500X0.147500X-0.172500X-0.147500X0.172500X-0.147500X0.172500X0.147500X0*%
%ADD22C,0.650000*%
%ADD23O,1.000000X1.600000*%
%ADD24O,1.000000X2.100000*%
G04 APERTURE END LIST*
D10*
%TO.C,LC84*%
X219560000Y55562500D03*
X218590000Y55562500D03*
%TD*%
%TO.C,LC32*%
X90972500Y93662500D03*
X90002500Y93662500D03*
%TD*%
D11*
%TO.C,LD125*%
X424612500Y14531250D03*
X424612500Y15631250D03*
X423112500Y15631250D03*
X423112500Y14531250D03*
%TD*%
%TO.C,LD15*%
X127837500Y120406250D03*
X127837500Y119306250D03*
X129337500Y119306250D03*
X129337500Y120406250D03*
%TD*%
%TO.C,LD95*%
X63543750Y34681250D03*
X63543750Y33581250D03*
X65043750Y33581250D03*
X65043750Y34681250D03*
%TD*%
%TO.C,LD5*%
X148387500Y138356250D03*
X148387500Y139456250D03*
X146887500Y139456250D03*
X146887500Y138356250D03*
%TD*%
D12*
%TO.C,H8*%
X452437500Y28575000D03*
%TD*%
D13*
%TO.C,KT4*%
X324579500Y133350000D03*
D14*
X324579500Y130810000D03*
%TD*%
D10*
%TO.C,LC86*%
X257660000Y55562500D03*
X256690000Y55562500D03*
%TD*%
D15*
%TO.C,K70*%
X409892500Y66675000D03*
D16*
X404812500Y66675000D03*
D15*
X399732500Y66675000D03*
D17*
X402272500Y61595000D03*
X408622500Y64135000D03*
%TD*%
D10*
%TO.C,LC112*%
X29060000Y17462500D03*
X28090000Y17462500D03*
%TD*%
D15*
%TO.C,K42*%
X275907500Y85725000D03*
X286067500Y85725000D03*
D16*
X280987500Y85725000D03*
D17*
X278447500Y80645000D03*
X284797500Y83185000D03*
%TD*%
D11*
%TO.C,LD66*%
X313575000Y72781250D03*
X313575000Y71681250D03*
X315075000Y71681250D03*
X315075000Y72781250D03*
%TD*%
D15*
%TO.C,K44*%
X347980000Y85725000D03*
X337820000Y85725000D03*
D16*
X342900000Y85725000D03*
D17*
X340360000Y80645000D03*
X346710000Y83185000D03*
%TD*%
D11*
%TO.C,LD17*%
X175462500Y120406250D03*
X175462500Y119306250D03*
X176962500Y119306250D03*
X176962500Y120406250D03*
%TD*%
D15*
%TO.C,K8*%
X219392500Y133350000D03*
D16*
X214312500Y133350000D03*
D15*
X209232500Y133350000D03*
D17*
X211772500Y128270000D03*
X218122500Y130810000D03*
%TD*%
D18*
%TO.C,LC21*%
X261452500Y122237500D03*
X262422500Y122237500D03*
%TD*%
D10*
%TO.C,LC29*%
X29060000Y93662500D03*
X28090000Y93662500D03*
%TD*%
D11*
%TO.C,LD100*%
X170700000Y34681250D03*
X170700000Y33581250D03*
X172200000Y33581250D03*
X172200000Y34681250D03*
%TD*%
D15*
%TO.C,K125*%
X428942500Y9525000D03*
D16*
X423862500Y9525000D03*
D15*
X418782500Y9525000D03*
D17*
X421322500Y4445000D03*
X427672500Y6985000D03*
%TD*%
D18*
%TO.C,LC104*%
X247165000Y36512500D03*
X248135000Y36512500D03*
%TD*%
D11*
%TO.C,LD39*%
X224587500Y90731250D03*
X224587500Y91831250D03*
X223087500Y91831250D03*
X223087500Y90731250D03*
%TD*%
D10*
%TO.C,LC41*%
X262422500Y93662500D03*
X261452500Y93662500D03*
%TD*%
D11*
%TO.C,LD47*%
X405562500Y90731250D03*
X405562500Y91831250D03*
X404062500Y91831250D03*
X404062500Y90731250D03*
%TD*%
D16*
%TO.C,K110*%
X442912500Y28575000D03*
D15*
X447992500Y28575000D03*
X437832500Y28575000D03*
D17*
X440372500Y23495000D03*
X446722500Y26035000D03*
%TD*%
D15*
%TO.C,K84*%
X224155000Y47625000D03*
D16*
X219075000Y47625000D03*
D15*
X213995000Y47625000D03*
D17*
X216535000Y42545000D03*
X222885000Y45085000D03*
%TD*%
D18*
%TO.C,LC55*%
X99527500Y74612500D03*
X100497500Y74612500D03*
%TD*%
D11*
%TO.C,LD48*%
X424612500Y90731250D03*
X424612500Y91831250D03*
X423112500Y91831250D03*
X423112500Y90731250D03*
%TD*%
%TO.C,LD3*%
X110287500Y138356250D03*
X110287500Y139456250D03*
X108787500Y139456250D03*
X108787500Y138356250D03*
%TD*%
D15*
%TO.C,K79*%
X118745000Y47625000D03*
X128905000Y47625000D03*
D16*
X123825000Y47625000D03*
D17*
X121285000Y42545000D03*
X127635000Y45085000D03*
%TD*%
D11*
%TO.C,LD117*%
X246018750Y14531250D03*
X246018750Y15631250D03*
X244518750Y15631250D03*
X244518750Y14531250D03*
%TD*%
D18*
%TO.C,LC59*%
X175727500Y74612500D03*
X176697500Y74612500D03*
%TD*%
D10*
%TO.C,LC81*%
X162410000Y55562500D03*
X161440000Y55562500D03*
%TD*%
D11*
%TO.C,LD54*%
X80212500Y72781250D03*
X80212500Y71681250D03*
X81712500Y71681250D03*
X81712500Y72781250D03*
%TD*%
D15*
%TO.C,K38*%
X209867500Y85725000D03*
D16*
X204787500Y85725000D03*
D15*
X199707500Y85725000D03*
D17*
X202247500Y80645000D03*
X208597500Y83185000D03*
%TD*%
D15*
%TO.C,K37*%
X180657500Y85725000D03*
D16*
X185737500Y85725000D03*
D15*
X190817500Y85725000D03*
D17*
X183197500Y80645000D03*
X189547500Y83185000D03*
%TD*%
D10*
%TO.C,LC113*%
X55253750Y17462500D03*
X54283750Y17462500D03*
%TD*%
D18*
%TO.C,LC69*%
X380515000Y74612500D03*
X381485000Y74612500D03*
%TD*%
D11*
%TO.C,LD51*%
X8775000Y72781250D03*
X8775000Y71681250D03*
X10275000Y71681250D03*
X10275000Y72781250D03*
%TD*%
D10*
%TO.C,LC7*%
X195747500Y141287500D03*
X194777500Y141287500D03*
%TD*%
D11*
%TO.C,LD68*%
X361200000Y72781250D03*
X361200000Y71681250D03*
X362700000Y71681250D03*
X362700000Y72781250D03*
%TD*%
D16*
%TO.C,K29*%
X28575000Y85725000D03*
D15*
X23495000Y85725000D03*
X33655000Y85725000D03*
D17*
X26035000Y80645000D03*
X32385000Y83185000D03*
%TD*%
D15*
%TO.C,K49*%
X447992500Y85725000D03*
X437832500Y85725000D03*
D16*
X442912500Y85725000D03*
D17*
X440372500Y80645000D03*
X446722500Y83185000D03*
%TD*%
D15*
%TO.C,K82*%
X186055000Y47625000D03*
D16*
X180975000Y47625000D03*
D15*
X175895000Y47625000D03*
D17*
X178435000Y42545000D03*
X184785000Y45085000D03*
%TD*%
D11*
%TO.C,LD44*%
X343650000Y90731250D03*
X343650000Y91831250D03*
X342150000Y91831250D03*
X342150000Y90731250D03*
%TD*%
%TO.C,LD41*%
X262687500Y90731250D03*
X262687500Y91831250D03*
X261187500Y91831250D03*
X261187500Y90731250D03*
%TD*%
D16*
%TO.C,K3*%
X109537500Y133350000D03*
D15*
X104457500Y133350000D03*
X114617500Y133350000D03*
D17*
X106997500Y128270000D03*
X113347500Y130810000D03*
%TD*%
D10*
%TO.C,LC47*%
X405297500Y93662500D03*
X404327500Y93662500D03*
%TD*%
D11*
%TO.C,LD25*%
X342150000Y120406250D03*
X342150000Y119306250D03*
X343650000Y119306250D03*
X343650000Y120406250D03*
%TD*%
D18*
%TO.C,LC73*%
X461477500Y74612500D03*
X462447500Y74612500D03*
%TD*%
D15*
%TO.C,K39*%
X228917500Y85725000D03*
D16*
X223837500Y85725000D03*
D15*
X218757500Y85725000D03*
D17*
X221297500Y80645000D03*
X227647500Y83185000D03*
%TD*%
D11*
%TO.C,LD91*%
X443662500Y52631250D03*
X443662500Y53731250D03*
X442162500Y53731250D03*
X442162500Y52631250D03*
%TD*%
%TO.C,LD122*%
X362700000Y14531250D03*
X362700000Y15631250D03*
X361200000Y15631250D03*
X361200000Y14531250D03*
%TD*%
%TO.C,LD89*%
X405562500Y52631250D03*
X405562500Y53731250D03*
X404062500Y53731250D03*
X404062500Y52631250D03*
%TD*%
%TO.C,LD79*%
X124575000Y52631250D03*
X124575000Y53731250D03*
X123075000Y53731250D03*
X123075000Y52631250D03*
%TD*%
D10*
%TO.C,LC42*%
X281472500Y93662500D03*
X280502500Y93662500D03*
%TD*%
D11*
%TO.C,LD34*%
X129337500Y90731250D03*
X129337500Y91831250D03*
X127837500Y91831250D03*
X127837500Y90731250D03*
%TD*%
D10*
%TO.C,LC48*%
X424347500Y93662500D03*
X423377500Y93662500D03*
%TD*%
%TO.C,LC6*%
X176697500Y141287500D03*
X175727500Y141287500D03*
%TD*%
D11*
%TO.C,LD111*%
X10275000Y14531250D03*
X10275000Y15631250D03*
X8775000Y15631250D03*
X8775000Y14531250D03*
%TD*%
D10*
%TO.C,LC4*%
X129072500Y141287500D03*
X128102500Y141287500D03*
%TD*%
D18*
%TO.C,LC66*%
X313840000Y74612500D03*
X314810000Y74612500D03*
%TD*%
D15*
%TO.C,K123*%
X375920000Y9525000D03*
X386080000Y9525000D03*
D16*
X381000000Y9525000D03*
D17*
X378460000Y4445000D03*
X384810000Y6985000D03*
%TD*%
D11*
%TO.C,LD97*%
X113550000Y34681250D03*
X113550000Y33581250D03*
X115050000Y33581250D03*
X115050000Y34681250D03*
%TD*%
D10*
%TO.C,LC39*%
X224322500Y93662500D03*
X223352500Y93662500D03*
%TD*%
D11*
%TO.C,LD72*%
X442162500Y72781250D03*
X442162500Y71681250D03*
X443662500Y71681250D03*
X443662500Y72781250D03*
%TD*%
D16*
%TO.C,K24*%
X319087500Y114300000D03*
D15*
X314007500Y114300000D03*
X324167500Y114300000D03*
D17*
X316547500Y109220000D03*
X322897500Y111760000D03*
%TD*%
D18*
%TO.C,LC57*%
X137627500Y74612500D03*
X138597500Y74612500D03*
%TD*%
D11*
%TO.C,LD82*%
X181725000Y52631250D03*
X181725000Y53731250D03*
X180225000Y53731250D03*
X180225000Y52631250D03*
%TD*%
%TO.C,LD1*%
X10275000Y138356250D03*
X10275000Y139456250D03*
X8775000Y139456250D03*
X8775000Y138356250D03*
%TD*%
D16*
%TO.C,K17*%
X176212500Y114300000D03*
D15*
X171132500Y114300000D03*
X181292500Y114300000D03*
D17*
X173672500Y109220000D03*
X180022500Y111760000D03*
%TD*%
D15*
%TO.C,K73*%
X456882500Y66675000D03*
X467042500Y66675000D03*
D16*
X461962500Y66675000D03*
D17*
X459422500Y61595000D03*
X465772500Y64135000D03*
%TD*%
D16*
%TO.C,K35*%
X147637500Y85725000D03*
D15*
X152717500Y85725000D03*
X142557500Y85725000D03*
D17*
X145097500Y80645000D03*
X151447500Y83185000D03*
%TD*%
D19*
%TO.C,J2*%
X392080750Y137594500D03*
D20*
X392080750Y135054500D03*
X392080750Y132514500D03*
X392080750Y129974500D03*
%TD*%
D11*
%TO.C,LD46*%
X381750000Y90731250D03*
X381750000Y91831250D03*
X380250000Y91831250D03*
X380250000Y90731250D03*
%TD*%
D10*
%TO.C,LC75*%
X29060000Y55562500D03*
X28090000Y55562500D03*
%TD*%
D15*
%TO.C,K92*%
X467042500Y47625000D03*
D16*
X461962500Y47625000D03*
D15*
X456882500Y47625000D03*
D17*
X459422500Y42545000D03*
X465772500Y45085000D03*
%TD*%
D18*
%TO.C,LC18*%
X194777500Y122237500D03*
X195747500Y122237500D03*
%TD*%
D16*
%TO.C,K61*%
X214312500Y66675000D03*
D15*
X219392500Y66675000D03*
X209232500Y66675000D03*
D17*
X211772500Y61595000D03*
X218122500Y64135000D03*
%TD*%
D18*
%TO.C,LC53*%
X56665000Y74612500D03*
X57635000Y74612500D03*
%TD*%
D16*
%TO.C,K30*%
X52387500Y85725000D03*
D15*
X57467500Y85725000D03*
X47307500Y85725000D03*
D17*
X49847500Y80645000D03*
X56197500Y83185000D03*
%TD*%
D15*
%TO.C,K83*%
X205105000Y47625000D03*
D16*
X200025000Y47625000D03*
D15*
X194945000Y47625000D03*
D17*
X197485000Y42545000D03*
X203835000Y45085000D03*
%TD*%
D15*
%TO.C,K81*%
X156845000Y47625000D03*
D16*
X161925000Y47625000D03*
D15*
X167005000Y47625000D03*
D17*
X159385000Y42545000D03*
X165735000Y45085000D03*
%TD*%
D11*
%TO.C,LD38*%
X205537500Y90731250D03*
X205537500Y91831250D03*
X204037500Y91831250D03*
X204037500Y90731250D03*
%TD*%
D18*
%TO.C,LC14*%
X109052500Y122237500D03*
X110022500Y122237500D03*
%TD*%
%TO.C,LC99*%
X151915000Y36512500D03*
X152885000Y36512500D03*
%TD*%
D11*
%TO.C,LD93*%
X8775000Y34681250D03*
X8775000Y33581250D03*
X10275000Y33581250D03*
X10275000Y34681250D03*
%TD*%
D18*
%TO.C,LC71*%
X423377500Y74612500D03*
X424347500Y74612500D03*
%TD*%
D11*
%TO.C,LD92*%
X462712500Y52631250D03*
X462712500Y53731250D03*
X461212500Y53731250D03*
X461212500Y52631250D03*
%TD*%
D10*
%TO.C,LC118*%
X269566250Y17462500D03*
X268596250Y17462500D03*
%TD*%
D11*
%TO.C,LD94*%
X27825000Y34681250D03*
X27825000Y33581250D03*
X29325000Y33581250D03*
X29325000Y34681250D03*
%TD*%
D15*
%TO.C,K90*%
X418782500Y47625000D03*
D16*
X423862500Y47625000D03*
D15*
X428942500Y47625000D03*
D17*
X421322500Y42545000D03*
X427672500Y45085000D03*
%TD*%
D15*
%TO.C,K20*%
X228282500Y114300000D03*
D16*
X233362500Y114300000D03*
D15*
X238442500Y114300000D03*
D17*
X230822500Y109220000D03*
X237172500Y111760000D03*
%TD*%
D18*
%TO.C,LC62*%
X232877500Y74612500D03*
X233847500Y74612500D03*
%TD*%
D10*
%TO.C,LC12*%
X381485000Y141287500D03*
X380515000Y141287500D03*
%TD*%
D15*
%TO.C,K59*%
X171132500Y66675000D03*
X181292500Y66675000D03*
D16*
X176212500Y66675000D03*
D17*
X173672500Y61595000D03*
X180022500Y64135000D03*
%TD*%
D10*
%TO.C,LC89*%
X405297500Y55562500D03*
X404327500Y55562500D03*
%TD*%
%TO.C,LC45*%
X362435000Y93662500D03*
X361465000Y93662500D03*
%TD*%
D15*
%TO.C,K95*%
X59213750Y28575000D03*
D16*
X64293750Y28575000D03*
D15*
X69373750Y28575000D03*
D17*
X61753750Y23495000D03*
X68103750Y26035000D03*
%TD*%
D15*
%TO.C,K111*%
X4445000Y9525000D03*
D16*
X9525000Y9525000D03*
D15*
X14605000Y9525000D03*
D17*
X6985000Y4445000D03*
X13335000Y6985000D03*
%TD*%
D15*
%TO.C,K50*%
X456882500Y85725000D03*
X467042500Y85725000D03*
D16*
X461962500Y85725000D03*
D17*
X459422500Y80645000D03*
X465772500Y83185000D03*
%TD*%
D10*
%TO.C,LC31*%
X71922500Y93662500D03*
X70952500Y93662500D03*
%TD*%
D11*
%TO.C,LD21*%
X261187500Y120406250D03*
X261187500Y119306250D03*
X262687500Y119306250D03*
X262687500Y120406250D03*
%TD*%
D10*
%TO.C,LC38*%
X205272500Y93662500D03*
X204302500Y93662500D03*
%TD*%
D15*
%TO.C,K104*%
X252730000Y28575000D03*
X242570000Y28575000D03*
D16*
X247650000Y28575000D03*
D17*
X245110000Y23495000D03*
X251460000Y26035000D03*
%TD*%
D11*
%TO.C,LD65*%
X289762500Y72781250D03*
X289762500Y71681250D03*
X291262500Y71681250D03*
X291262500Y72781250D03*
%TD*%
D21*
%TO.C,LC127*%
X454025000Y19535000D03*
X454025000Y18565000D03*
%TD*%
D16*
%TO.C,K25*%
X342900000Y114300000D03*
D15*
X337820000Y114300000D03*
X347980000Y114300000D03*
D17*
X340360000Y109220000D03*
X346710000Y111760000D03*
%TD*%
D15*
%TO.C,K52*%
X33655000Y66675000D03*
D16*
X28575000Y66675000D03*
D15*
X23495000Y66675000D03*
D17*
X26035000Y61595000D03*
X32385000Y64135000D03*
%TD*%
D15*
%TO.C,K2*%
X85407500Y133350000D03*
X95567500Y133350000D03*
D16*
X90487500Y133350000D03*
D17*
X87947500Y128270000D03*
X94297500Y130810000D03*
%TD*%
D11*
%TO.C,LD62*%
X232612500Y72781250D03*
X232612500Y71681250D03*
X234112500Y71681250D03*
X234112500Y72781250D03*
%TD*%
%TO.C,LD23*%
X299287500Y120406250D03*
X299287500Y119306250D03*
X300787500Y119306250D03*
X300787500Y120406250D03*
%TD*%
%TO.C,LD60*%
X194512500Y72781250D03*
X194512500Y71681250D03*
X196012500Y71681250D03*
X196012500Y72781250D03*
%TD*%
D15*
%TO.C,K100*%
X166370000Y28575000D03*
D16*
X171450000Y28575000D03*
D15*
X176530000Y28575000D03*
D17*
X168910000Y23495000D03*
X175260000Y26035000D03*
%TD*%
D10*
%TO.C,LC35*%
X148122500Y93662500D03*
X147152500Y93662500D03*
%TD*%
%TO.C,LC82*%
X181460000Y55562500D03*
X180490000Y55562500D03*
%TD*%
D11*
%TO.C,LD37*%
X186487500Y90731250D03*
X186487500Y91831250D03*
X184987500Y91831250D03*
X184987500Y90731250D03*
%TD*%
%TO.C,LD57*%
X137362500Y72781250D03*
X137362500Y71681250D03*
X138862500Y71681250D03*
X138862500Y72781250D03*
%TD*%
D10*
%TO.C,LC43*%
X310047500Y93662500D03*
X309077500Y93662500D03*
%TD*%
D11*
%TO.C,LD22*%
X280237500Y120406250D03*
X280237500Y119306250D03*
X281737500Y119306250D03*
X281737500Y120406250D03*
%TD*%
D15*
%TO.C,K89*%
X409892500Y47625000D03*
X399732500Y47625000D03*
D16*
X404812500Y47625000D03*
D17*
X402272500Y42545000D03*
X408622500Y45085000D03*
%TD*%
D11*
%TO.C,LD9*%
X234112500Y138356250D03*
X234112500Y139456250D03*
X232612500Y139456250D03*
X232612500Y138356250D03*
%TD*%
D10*
%TO.C,LC119*%
X293378750Y17462500D03*
X292408750Y17462500D03*
%TD*%
%TO.C,LC3*%
X110022500Y141287500D03*
X109052500Y141287500D03*
%TD*%
D11*
%TO.C,LD77*%
X86475000Y52631250D03*
X86475000Y53731250D03*
X84975000Y53731250D03*
X84975000Y52631250D03*
%TD*%
D15*
%TO.C,K88*%
X312261250Y47625000D03*
X302101250Y47625000D03*
D16*
X307181250Y47625000D03*
D17*
X304641250Y42545000D03*
X310991250Y45085000D03*
%TD*%
D18*
%TO.C,LC102*%
X209065000Y36512500D03*
X210035000Y36512500D03*
%TD*%
D11*
%TO.C,LD2*%
X91237500Y138356250D03*
X91237500Y139456250D03*
X89737500Y139456250D03*
X89737500Y138356250D03*
%TD*%
D18*
%TO.C,LC97*%
X113815000Y36512500D03*
X114785000Y36512500D03*
%TD*%
%TO.C,LC110*%
X442427500Y36512500D03*
X443397500Y36512500D03*
%TD*%
D11*
%TO.C,LD112*%
X29325000Y14531250D03*
X29325000Y15631250D03*
X27825000Y15631250D03*
X27825000Y14531250D03*
%TD*%
D15*
%TO.C,K26*%
X356870000Y114300000D03*
D16*
X361950000Y114300000D03*
D15*
X367030000Y114300000D03*
D17*
X359410000Y109220000D03*
X365760000Y111760000D03*
%TD*%
D10*
%TO.C,LC8*%
X214797500Y141287500D03*
X213827500Y141287500D03*
%TD*%
D15*
%TO.C,K80*%
X137795000Y47625000D03*
D16*
X142875000Y47625000D03*
D15*
X147955000Y47625000D03*
D17*
X140335000Y42545000D03*
X146685000Y45085000D03*
%TD*%
D10*
%TO.C,LC50*%
X462447500Y93662500D03*
X461477500Y93662500D03*
%TD*%
%TO.C,LC91*%
X443397500Y55562500D03*
X442427500Y55562500D03*
%TD*%
D11*
%TO.C,LD109*%
X423112500Y34681250D03*
X423112500Y33581250D03*
X424612500Y33581250D03*
X424612500Y34681250D03*
%TD*%
%TO.C,LD16*%
X146887500Y120406250D03*
X146887500Y119306250D03*
X148387500Y119306250D03*
X148387500Y120406250D03*
%TD*%
D18*
%TO.C,LC105*%
X266215000Y36512500D03*
X267185000Y36512500D03*
%TD*%
D10*
%TO.C,LC46*%
X381485000Y93662500D03*
X380515000Y93662500D03*
%TD*%
D18*
%TO.C,LC20*%
X232877500Y122237500D03*
X233847500Y122237500D03*
%TD*%
D11*
%TO.C,LD29*%
X29325000Y90731250D03*
X29325000Y91831250D03*
X27825000Y91831250D03*
X27825000Y90731250D03*
%TD*%
D15*
%TO.C,K77*%
X80645000Y47625000D03*
D16*
X85725000Y47625000D03*
D15*
X90805000Y47625000D03*
D17*
X83185000Y42545000D03*
X89535000Y45085000D03*
%TD*%
D15*
%TO.C,K122*%
X356870000Y9525000D03*
X367030000Y9525000D03*
D16*
X361950000Y9525000D03*
D17*
X359410000Y4445000D03*
X365760000Y6985000D03*
%TD*%
D11*
%TO.C,LD64*%
X270712500Y72781250D03*
X270712500Y71681250D03*
X272212500Y71681250D03*
X272212500Y72781250D03*
%TD*%
D16*
%TO.C,K46*%
X381000000Y85725000D03*
D15*
X386080000Y85725000D03*
X375920000Y85725000D03*
D17*
X378460000Y80645000D03*
X384810000Y83185000D03*
%TD*%
D10*
%TO.C,LC77*%
X86210000Y55562500D03*
X85240000Y55562500D03*
%TD*%
D11*
%TO.C,LD43*%
X310312500Y90731250D03*
X310312500Y91831250D03*
X308812500Y91831250D03*
X308812500Y90731250D03*
%TD*%
%TO.C,LD14*%
X108787500Y120406250D03*
X108787500Y119306250D03*
X110287500Y119306250D03*
X110287500Y120406250D03*
%TD*%
D10*
%TO.C,LC28*%
X10010000Y93662500D03*
X9040000Y93662500D03*
%TD*%
D16*
%TO.C,K126*%
X442912500Y9525000D03*
D15*
X447992500Y9525000D03*
X437832500Y9525000D03*
D17*
X440372500Y4445000D03*
X446722500Y6985000D03*
%TD*%
D11*
%TO.C,LD85*%
X238875000Y52631250D03*
X238875000Y53731250D03*
X237375000Y53731250D03*
X237375000Y52631250D03*
%TD*%
%TO.C,LD63*%
X251662500Y72781250D03*
X251662500Y71681250D03*
X253162500Y71681250D03*
X253162500Y72781250D03*
%TD*%
D16*
%TO.C,K112*%
X28575000Y9525000D03*
D15*
X23495000Y9525000D03*
X33655000Y9525000D03*
D17*
X26035000Y4445000D03*
X32385000Y6985000D03*
%TD*%
D11*
%TO.C,LD121*%
X343650000Y14531250D03*
X343650000Y15631250D03*
X342150000Y15631250D03*
X342150000Y14531250D03*
%TD*%
D15*
%TO.C,K113*%
X59848750Y9525000D03*
X49688750Y9525000D03*
D16*
X54768750Y9525000D03*
D17*
X52228750Y4445000D03*
X58578750Y6985000D03*
%TD*%
D15*
%TO.C,K65*%
X295592500Y66675000D03*
X285432500Y66675000D03*
D16*
X290512500Y66675000D03*
D17*
X287972500Y61595000D03*
X294322500Y64135000D03*
%TD*%
D11*
%TO.C,LD127*%
X456956250Y19800000D03*
X455856250Y19800000D03*
X455856250Y18300000D03*
X456956250Y18300000D03*
%TD*%
D15*
%TO.C,K54*%
X75882500Y66675000D03*
D16*
X80962500Y66675000D03*
D15*
X86042500Y66675000D03*
D17*
X78422500Y61595000D03*
X84772500Y64135000D03*
%TD*%
D11*
%TO.C,LD36*%
X167437500Y90731250D03*
X167437500Y91831250D03*
X165937500Y91831250D03*
X165937500Y90731250D03*
%TD*%
D15*
%TO.C,K76*%
X64611250Y47625000D03*
X54451250Y47625000D03*
D16*
X59531250Y47625000D03*
D17*
X56991250Y42545000D03*
X63341250Y45085000D03*
%TD*%
D18*
%TO.C,LC100*%
X170965000Y36512500D03*
X171935000Y36512500D03*
%TD*%
D15*
%TO.C,K78*%
X109855000Y47625000D03*
X99695000Y47625000D03*
D16*
X104775000Y47625000D03*
D17*
X102235000Y42545000D03*
X108585000Y45085000D03*
%TD*%
D11*
%TO.C,LD30*%
X53137500Y90731250D03*
X53137500Y91831250D03*
X51637500Y91831250D03*
X51637500Y90731250D03*
%TD*%
D16*
%TO.C,K51*%
X9525000Y66675000D03*
D15*
X14605000Y66675000D03*
X4445000Y66675000D03*
D17*
X6985000Y61595000D03*
X13335000Y64135000D03*
%TD*%
D16*
%TO.C,K101*%
X190500000Y28575000D03*
D15*
X185420000Y28575000D03*
X195580000Y28575000D03*
D17*
X187960000Y23495000D03*
X194310000Y26035000D03*
%TD*%
D10*
%TO.C,LC116*%
X174316250Y17462500D03*
X173346250Y17462500D03*
%TD*%
%TO.C,LC49*%
X443397500Y93662500D03*
X442427500Y93662500D03*
%TD*%
D11*
%TO.C,LD11*%
X362700000Y138356250D03*
X362700000Y139456250D03*
X361200000Y139456250D03*
X361200000Y138356250D03*
%TD*%
%TO.C,LD75*%
X29325000Y52631250D03*
X29325000Y53731250D03*
X27825000Y53731250D03*
X27825000Y52631250D03*
%TD*%
D15*
%TO.C,K57*%
X143192500Y66675000D03*
X133032500Y66675000D03*
D16*
X138112500Y66675000D03*
D17*
X135572500Y61595000D03*
X141922500Y64135000D03*
%TD*%
D16*
%TO.C,K64*%
X271462500Y66675000D03*
D15*
X266382500Y66675000D03*
X276542500Y66675000D03*
D17*
X268922500Y61595000D03*
X275272500Y64135000D03*
%TD*%
D15*
%TO.C,K105*%
X271780000Y28575000D03*
X261620000Y28575000D03*
D16*
X266700000Y28575000D03*
D17*
X264160000Y23495000D03*
X270510000Y26035000D03*
%TD*%
D15*
%TO.C,K32*%
X85407500Y85725000D03*
D16*
X90487500Y85725000D03*
D15*
X95567500Y85725000D03*
D17*
X87947500Y80645000D03*
X94297500Y83185000D03*
%TD*%
D11*
%TO.C,LD45*%
X362700000Y90731250D03*
X362700000Y91831250D03*
X361200000Y91831250D03*
X361200000Y90731250D03*
%TD*%
%TO.C,LD80*%
X143625000Y52631250D03*
X143625000Y53731250D03*
X142125000Y53731250D03*
X142125000Y52631250D03*
%TD*%
D10*
%TO.C,LC44*%
X343385000Y93662500D03*
X342415000Y93662500D03*
%TD*%
D16*
%TO.C,K27*%
X381000000Y114300000D03*
D15*
X375920000Y114300000D03*
X386080000Y114300000D03*
D17*
X378460000Y109220000D03*
X384810000Y111760000D03*
%TD*%
D11*
%TO.C,LD13*%
X89737500Y120406250D03*
X89737500Y119306250D03*
X91237500Y119306250D03*
X91237500Y120406250D03*
%TD*%
D15*
%TO.C,K13*%
X85407500Y114300000D03*
D16*
X90487500Y114300000D03*
D15*
X95567500Y114300000D03*
D17*
X87947500Y109220000D03*
X94297500Y111760000D03*
%TD*%
D15*
%TO.C,K94*%
X33655000Y28575000D03*
D16*
X28575000Y28575000D03*
D15*
X23495000Y28575000D03*
D17*
X26035000Y23495000D03*
X32385000Y26035000D03*
%TD*%
D16*
%TO.C,K93*%
X9525000Y28575000D03*
D15*
X14605000Y28575000D03*
X4445000Y28575000D03*
D17*
X6985000Y23495000D03*
X13335000Y26035000D03*
%TD*%
D11*
%TO.C,LD61*%
X213562500Y72781250D03*
X213562500Y71681250D03*
X215062500Y71681250D03*
X215062500Y72781250D03*
%TD*%
%TO.C,LD32*%
X91237500Y90731250D03*
X91237500Y91831250D03*
X89737500Y91831250D03*
X89737500Y90731250D03*
%TD*%
%TO.C,LD115*%
X103143750Y14531250D03*
X103143750Y15631250D03*
X101643750Y15631250D03*
X101643750Y14531250D03*
%TD*%
D16*
%TO.C,K109*%
X423862500Y28575000D03*
D15*
X418782500Y28575000D03*
X428942500Y28575000D03*
D17*
X421322500Y23495000D03*
X427672500Y26035000D03*
%TD*%
D18*
%TO.C,LC63*%
X251927500Y74612500D03*
X252897500Y74612500D03*
%TD*%
D15*
%TO.C,K48*%
X428942500Y85725000D03*
D16*
X423862500Y85725000D03*
D15*
X418782500Y85725000D03*
D17*
X421322500Y80645000D03*
X427672500Y83185000D03*
%TD*%
D10*
%TO.C,LC87*%
X276710000Y55562500D03*
X275740000Y55562500D03*
%TD*%
D18*
%TO.C,LC106*%
X301933750Y36512500D03*
X302903750Y36512500D03*
%TD*%
D11*
%TO.C,LD10*%
X343650000Y138356250D03*
X343650000Y139456250D03*
X342150000Y139456250D03*
X342150000Y138356250D03*
%TD*%
D10*
%TO.C,LC90*%
X424347500Y55562500D03*
X423377500Y55562500D03*
%TD*%
D11*
%TO.C,LD88*%
X307931250Y52631250D03*
X307931250Y53731250D03*
X306431250Y53731250D03*
X306431250Y52631250D03*
%TD*%
D16*
%TO.C,K58*%
X157162500Y66675000D03*
D15*
X162242500Y66675000D03*
X152082500Y66675000D03*
D17*
X154622500Y61595000D03*
X160972500Y64135000D03*
%TD*%
D11*
%TO.C,LD35*%
X148387500Y90731250D03*
X148387500Y91831250D03*
X146887500Y91831250D03*
X146887500Y90731250D03*
%TD*%
D18*
%TO.C,LC58*%
X156677500Y74612500D03*
X157647500Y74612500D03*
%TD*%
D15*
%TO.C,K68*%
X367030000Y66675000D03*
D16*
X361950000Y66675000D03*
D15*
X356870000Y66675000D03*
D17*
X359410000Y61595000D03*
X365760000Y64135000D03*
%TD*%
D13*
%TO.C,KT2*%
X286479500Y133350000D03*
D14*
X286479500Y130810000D03*
%TD*%
D15*
%TO.C,K45*%
X356870000Y85725000D03*
X367030000Y85725000D03*
D16*
X361950000Y85725000D03*
D17*
X359410000Y80645000D03*
X365760000Y83185000D03*
%TD*%
D10*
%TO.C,LC88*%
X307666250Y55562500D03*
X306696250Y55562500D03*
%TD*%
D11*
%TO.C,LD124*%
X405562500Y14531250D03*
X405562500Y15631250D03*
X404062500Y15631250D03*
X404062500Y14531250D03*
%TD*%
%TO.C,LD120*%
X317456250Y14531250D03*
X317456250Y15631250D03*
X315956250Y15631250D03*
X315956250Y14531250D03*
%TD*%
D10*
%TO.C,LC37*%
X186222500Y93662500D03*
X185252500Y93662500D03*
%TD*%
D11*
%TO.C,LD101*%
X189750000Y34681250D03*
X189750000Y33581250D03*
X191250000Y33581250D03*
X191250000Y34681250D03*
%TD*%
D15*
%TO.C,K69*%
X386080000Y66675000D03*
X375920000Y66675000D03*
D16*
X381000000Y66675000D03*
D17*
X378460000Y61595000D03*
X384810000Y64135000D03*
%TD*%
D15*
%TO.C,K67*%
X347980000Y66675000D03*
D16*
X342900000Y66675000D03*
D15*
X337820000Y66675000D03*
D17*
X340360000Y61595000D03*
X346710000Y64135000D03*
%TD*%
D15*
%TO.C,K72*%
X447992500Y66675000D03*
D16*
X442912500Y66675000D03*
D15*
X437832500Y66675000D03*
D17*
X440372500Y61595000D03*
X446722500Y64135000D03*
%TD*%
D13*
%TO.C,KT1*%
X267429500Y133350000D03*
D14*
X267429500Y130810000D03*
%TD*%
D11*
%TO.C,LD42*%
X281737500Y90731250D03*
X281737500Y91831250D03*
X280237500Y91831250D03*
X280237500Y90731250D03*
%TD*%
%TO.C,LD102*%
X208800000Y34681250D03*
X208800000Y33581250D03*
X210300000Y33581250D03*
X210300000Y34681250D03*
%TD*%
D15*
%TO.C,K1*%
X14605000Y133350000D03*
X4445000Y133350000D03*
D16*
X9525000Y133350000D03*
D17*
X6985000Y128270000D03*
X13335000Y130810000D03*
%TD*%
D15*
%TO.C,K11*%
X356870000Y133350000D03*
X367030000Y133350000D03*
D16*
X361950000Y133350000D03*
D17*
X359410000Y128270000D03*
X365760000Y130810000D03*
%TD*%
D11*
%TO.C,LD58*%
X156412500Y72781250D03*
X156412500Y71681250D03*
X157912500Y71681250D03*
X157912500Y72781250D03*
%TD*%
D18*
%TO.C,LC60*%
X194777500Y74612500D03*
X195747500Y74612500D03*
%TD*%
D11*
%TO.C,LD50*%
X462712500Y90731250D03*
X462712500Y91831250D03*
X461212500Y91831250D03*
X461212500Y90731250D03*
%TD*%
D18*
%TO.C,LC70*%
X404327500Y74612500D03*
X405297500Y74612500D03*
%TD*%
D15*
%TO.C,K10*%
X347980000Y133350000D03*
X337820000Y133350000D03*
D16*
X342900000Y133350000D03*
D17*
X340360000Y128270000D03*
X346710000Y130810000D03*
%TD*%
D18*
%TO.C,LC23*%
X299552500Y122237500D03*
X300522500Y122237500D03*
%TD*%
D10*
%TO.C,LC5*%
X148122500Y141287500D03*
X147152500Y141287500D03*
%TD*%
%TO.C,LC117*%
X245753750Y17462500D03*
X244783750Y17462500D03*
%TD*%
D18*
%TO.C,LC27*%
X380515000Y122237500D03*
X381485000Y122237500D03*
%TD*%
D15*
%TO.C,K74*%
X4445000Y47625000D03*
D16*
X9525000Y47625000D03*
D15*
X14605000Y47625000D03*
D17*
X6985000Y42545000D03*
X13335000Y45085000D03*
%TD*%
D15*
%TO.C,K23*%
X294957500Y114300000D03*
X305117500Y114300000D03*
D16*
X300037500Y114300000D03*
D17*
X297497500Y109220000D03*
X303847500Y111760000D03*
%TD*%
D18*
%TO.C,LC15*%
X128102500Y122237500D03*
X129072500Y122237500D03*
%TD*%
D15*
%TO.C,K120*%
X311626250Y9525000D03*
D16*
X316706250Y9525000D03*
D15*
X321786250Y9525000D03*
D17*
X314166250Y4445000D03*
X320516250Y6985000D03*
%TD*%
D10*
%TO.C,LC123*%
X381485000Y17462500D03*
X380515000Y17462500D03*
%TD*%
D12*
%TO.C,H4*%
X452437500Y114300000D03*
%TD*%
D11*
%TO.C,LD83*%
X200775000Y52631250D03*
X200775000Y53731250D03*
X199275000Y53731250D03*
X199275000Y52631250D03*
%TD*%
%TO.C,LD71*%
X423112500Y72781250D03*
X423112500Y71681250D03*
X424612500Y71681250D03*
X424612500Y72781250D03*
%TD*%
%TO.C,LD24*%
X318337500Y120406250D03*
X318337500Y119306250D03*
X319837500Y119306250D03*
X319837500Y120406250D03*
%TD*%
D12*
%TO.C,H3*%
X330993750Y114300000D03*
%TD*%
D11*
%TO.C,LD86*%
X257925000Y52631250D03*
X257925000Y53731250D03*
X256425000Y53731250D03*
X256425000Y52631250D03*
%TD*%
D15*
%TO.C,K28*%
X4445000Y85725000D03*
D16*
X9525000Y85725000D03*
D15*
X14605000Y85725000D03*
D17*
X6985000Y80645000D03*
X13335000Y83185000D03*
%TD*%
D15*
%TO.C,K96*%
X90170000Y28575000D03*
X100330000Y28575000D03*
D16*
X95250000Y28575000D03*
D17*
X92710000Y23495000D03*
X99060000Y26035000D03*
%TD*%
D11*
%TO.C,LD53*%
X56400000Y72781250D03*
X56400000Y71681250D03*
X57900000Y71681250D03*
X57900000Y72781250D03*
%TD*%
D10*
%TO.C,LC9*%
X233847500Y141287500D03*
X232877500Y141287500D03*
%TD*%
D15*
%TO.C,K118*%
X264001250Y9525000D03*
D16*
X269081250Y9525000D03*
D15*
X274161250Y9525000D03*
D17*
X266541250Y4445000D03*
X272891250Y6985000D03*
%TD*%
D18*
%TO.C,LC24*%
X318602500Y122237500D03*
X319572500Y122237500D03*
%TD*%
D15*
%TO.C,K87*%
X271145000Y47625000D03*
D16*
X276225000Y47625000D03*
D15*
X281305000Y47625000D03*
D17*
X273685000Y42545000D03*
X280035000Y45085000D03*
%TD*%
D10*
%TO.C,LC78*%
X105260000Y55562500D03*
X104290000Y55562500D03*
%TD*%
D18*
%TO.C,LC64*%
X270977500Y74612500D03*
X271947500Y74612500D03*
%TD*%
D11*
%TO.C,LD113*%
X55518750Y14531250D03*
X55518750Y15631250D03*
X54018750Y15631250D03*
X54018750Y14531250D03*
%TD*%
%TO.C,LD4*%
X129337500Y138356250D03*
X129337500Y139456250D03*
X127837500Y139456250D03*
X127837500Y138356250D03*
%TD*%
D18*
%TO.C,LC95*%
X63808750Y36512500D03*
X64778750Y36512500D03*
%TD*%
D11*
%TO.C,LD73*%
X461212500Y72781250D03*
X461212500Y71681250D03*
X462712500Y71681250D03*
X462712500Y72781250D03*
%TD*%
D18*
%TO.C,LC13*%
X90002500Y122237500D03*
X90972500Y122237500D03*
%TD*%
D10*
%TO.C,LC120*%
X317191250Y17462500D03*
X316221250Y17462500D03*
%TD*%
D11*
%TO.C,LD116*%
X174581250Y14531250D03*
X174581250Y15631250D03*
X173081250Y15631250D03*
X173081250Y14531250D03*
%TD*%
D15*
%TO.C,K116*%
X168751250Y9525000D03*
X178911250Y9525000D03*
D16*
X173831250Y9525000D03*
D17*
X171291250Y4445000D03*
X177641250Y6985000D03*
%TD*%
D18*
%TO.C,LC54*%
X80477500Y74612500D03*
X81447500Y74612500D03*
%TD*%
D12*
%TO.C,H2*%
X161925000Y114300000D03*
%TD*%
D18*
%TO.C,LC108*%
X404327500Y36512500D03*
X405297500Y36512500D03*
%TD*%
D16*
%TO.C,K114*%
X78581250Y9525000D03*
D15*
X73501250Y9525000D03*
X83661250Y9525000D03*
D17*
X76041250Y4445000D03*
X82391250Y6985000D03*
%TD*%
D15*
%TO.C,K6*%
X181292500Y133350000D03*
X171132500Y133350000D03*
D16*
X176212500Y133350000D03*
D17*
X173672500Y128270000D03*
X180022500Y130810000D03*
%TD*%
D16*
%TO.C,K91*%
X442912500Y47625000D03*
D15*
X437832500Y47625000D03*
X447992500Y47625000D03*
D17*
X440372500Y42545000D03*
X446722500Y45085000D03*
%TD*%
D15*
%TO.C,K56*%
X124142500Y66675000D03*
X113982500Y66675000D03*
D16*
X119062500Y66675000D03*
D17*
X116522500Y61595000D03*
X122872500Y64135000D03*
%TD*%
D16*
%TO.C,K15*%
X128587500Y114300000D03*
D15*
X123507500Y114300000D03*
X133667500Y114300000D03*
D17*
X126047500Y109220000D03*
X132397500Y111760000D03*
%TD*%
D11*
%TO.C,LD67*%
X342150000Y72781250D03*
X342150000Y71681250D03*
X343650000Y71681250D03*
X343650000Y72781250D03*
%TD*%
D10*
%TO.C,LC79*%
X124310000Y55562500D03*
X123340000Y55562500D03*
%TD*%
D16*
%TO.C,K62*%
X233362500Y66675000D03*
D15*
X238442500Y66675000D03*
X228282500Y66675000D03*
D17*
X230822500Y61595000D03*
X237172500Y64135000D03*
%TD*%
D15*
%TO.C,K22*%
X275907500Y114300000D03*
D16*
X280987500Y114300000D03*
D15*
X286067500Y114300000D03*
D17*
X278447500Y109220000D03*
X284797500Y111760000D03*
%TD*%
D10*
%TO.C,LC2*%
X90972500Y141287500D03*
X90002500Y141287500D03*
%TD*%
D15*
%TO.C,K107*%
X356870000Y28575000D03*
X367030000Y28575000D03*
D16*
X361950000Y28575000D03*
D17*
X359410000Y23495000D03*
X365760000Y26035000D03*
%TD*%
D10*
%TO.C,LC10*%
X343385000Y141287500D03*
X342415000Y141287500D03*
%TD*%
%TO.C,LC33*%
X110022500Y93662500D03*
X109052500Y93662500D03*
%TD*%
D18*
%TO.C,LC109*%
X423377500Y36512500D03*
X424347500Y36512500D03*
%TD*%
D11*
%TO.C,LD26*%
X361200000Y120406250D03*
X361200000Y119306250D03*
X362700000Y119306250D03*
X362700000Y120406250D03*
%TD*%
D12*
%TO.C,H5*%
X19050000Y28575000D03*
%TD*%
D15*
%TO.C,K98*%
X128270000Y28575000D03*
D16*
X133350000Y28575000D03*
D15*
X138430000Y28575000D03*
D17*
X130810000Y23495000D03*
X137160000Y26035000D03*
%TD*%
D15*
%TO.C,K66*%
X319405000Y66675000D03*
D16*
X314325000Y66675000D03*
D15*
X309245000Y66675000D03*
D17*
X311785000Y61595000D03*
X318135000Y64135000D03*
%TD*%
D15*
%TO.C,K47*%
X409892500Y85725000D03*
X399732500Y85725000D03*
D16*
X404812500Y85725000D03*
D17*
X402272500Y80645000D03*
X408622500Y83185000D03*
%TD*%
D16*
%TO.C,K102*%
X209550000Y28575000D03*
D15*
X214630000Y28575000D03*
X204470000Y28575000D03*
D17*
X207010000Y23495000D03*
X213360000Y26035000D03*
%TD*%
D11*
%TO.C,LD52*%
X27825000Y72781250D03*
X27825000Y71681250D03*
X29325000Y71681250D03*
X29325000Y72781250D03*
%TD*%
%TO.C,LD99*%
X151650000Y34681250D03*
X151650000Y33581250D03*
X153150000Y33581250D03*
X153150000Y34681250D03*
%TD*%
D18*
%TO.C,LC93*%
X9040000Y36512500D03*
X10010000Y36512500D03*
%TD*%
D11*
%TO.C,LD98*%
X132600000Y34681250D03*
X132600000Y33581250D03*
X134100000Y33581250D03*
X134100000Y34681250D03*
%TD*%
D10*
%TO.C,LC34*%
X129072500Y93662500D03*
X128102500Y93662500D03*
%TD*%
D11*
%TO.C,LD96*%
X94500000Y34681250D03*
X94500000Y33581250D03*
X96000000Y33581250D03*
X96000000Y34681250D03*
%TD*%
D15*
%TO.C,K12*%
X386080000Y133350000D03*
X375920000Y133350000D03*
D16*
X381000000Y133350000D03*
D17*
X378460000Y128270000D03*
X384810000Y130810000D03*
%TD*%
D10*
%TO.C,LC11*%
X362435000Y141287500D03*
X361465000Y141287500D03*
%TD*%
D11*
%TO.C,LD69*%
X380250000Y72781250D03*
X380250000Y71681250D03*
X381750000Y71681250D03*
X381750000Y72781250D03*
%TD*%
%TO.C,LD6*%
X176962500Y138356250D03*
X176962500Y139456250D03*
X175462500Y139456250D03*
X175462500Y138356250D03*
%TD*%
%TO.C,LD70*%
X404062500Y72781250D03*
X404062500Y71681250D03*
X405562500Y71681250D03*
X405562500Y72781250D03*
%TD*%
D15*
%TO.C,K99*%
X147320000Y28575000D03*
D16*
X152400000Y28575000D03*
D15*
X157480000Y28575000D03*
D17*
X149860000Y23495000D03*
X156210000Y26035000D03*
%TD*%
D13*
%TO.C,KT3*%
X305529500Y133350000D03*
D14*
X305529500Y130810000D03*
%TD*%
D10*
%TO.C,LC76*%
X60016250Y55562500D03*
X59046250Y55562500D03*
%TD*%
D18*
%TO.C,LC16*%
X147152500Y122237500D03*
X148122500Y122237500D03*
%TD*%
D16*
%TO.C,K117*%
X245268750Y9525000D03*
D15*
X250348750Y9525000D03*
X240188750Y9525000D03*
D17*
X242728750Y4445000D03*
X249078750Y6985000D03*
%TD*%
D10*
%TO.C,LC125*%
X424347500Y17462500D03*
X423377500Y17462500D03*
%TD*%
D15*
%TO.C,K60*%
X190182500Y66675000D03*
D16*
X195262500Y66675000D03*
D15*
X200342500Y66675000D03*
D17*
X192722500Y61595000D03*
X199072500Y64135000D03*
%TD*%
D11*
%TO.C,LD103*%
X227850000Y34681250D03*
X227850000Y33581250D03*
X229350000Y33581250D03*
X229350000Y34681250D03*
%TD*%
D12*
%TO.C,H6*%
X161925000Y28575000D03*
%TD*%
D10*
%TO.C,LC122*%
X362435000Y17462500D03*
X361465000Y17462500D03*
%TD*%
D11*
%TO.C,LD106*%
X301668750Y34681250D03*
X301668750Y33581250D03*
X303168750Y33581250D03*
X303168750Y34681250D03*
%TD*%
D16*
%TO.C,K33*%
X109537500Y85725000D03*
D15*
X104457500Y85725000D03*
X114617500Y85725000D03*
D17*
X106997500Y80645000D03*
X113347500Y83185000D03*
%TD*%
D10*
%TO.C,LC80*%
X143360000Y55562500D03*
X142390000Y55562500D03*
%TD*%
D18*
%TO.C,LC65*%
X290027500Y74612500D03*
X290997500Y74612500D03*
%TD*%
D15*
%TO.C,K36*%
X161607500Y85725000D03*
X171767500Y85725000D03*
D16*
X166687500Y85725000D03*
D17*
X164147500Y80645000D03*
X170497500Y83185000D03*
%TD*%
D11*
%TO.C,LD31*%
X72187500Y90731250D03*
X72187500Y91831250D03*
X70687500Y91831250D03*
X70687500Y90731250D03*
%TD*%
D15*
%TO.C,K97*%
X109220000Y28575000D03*
D16*
X114300000Y28575000D03*
D15*
X119380000Y28575000D03*
D17*
X111760000Y23495000D03*
X118110000Y26035000D03*
%TD*%
D10*
%TO.C,LC126*%
X443397500Y17462500D03*
X442427500Y17462500D03*
%TD*%
D16*
%TO.C,K34*%
X128587500Y85725000D03*
D15*
X123507500Y85725000D03*
X133667500Y85725000D03*
D17*
X126047500Y80645000D03*
X132397500Y83185000D03*
%TD*%
D16*
%TO.C,K53*%
X57150000Y66675000D03*
D15*
X52070000Y66675000D03*
X62230000Y66675000D03*
D17*
X54610000Y61595000D03*
X60960000Y64135000D03*
%TD*%
D15*
%TO.C,K124*%
X409892500Y9525000D03*
D16*
X404812500Y9525000D03*
D15*
X399732500Y9525000D03*
D17*
X402272500Y4445000D03*
X408622500Y6985000D03*
%TD*%
D11*
%TO.C,LD55*%
X99262500Y72781250D03*
X99262500Y71681250D03*
X100762500Y71681250D03*
X100762500Y72781250D03*
%TD*%
%TO.C,LD49*%
X443662500Y90731250D03*
X443662500Y91831250D03*
X442162500Y91831250D03*
X442162500Y90731250D03*
%TD*%
%TO.C,LD84*%
X219825000Y52631250D03*
X219825000Y53731250D03*
X218325000Y53731250D03*
X218325000Y52631250D03*
%TD*%
%TO.C,LD28*%
X10275000Y90731250D03*
X10275000Y91831250D03*
X8775000Y91831250D03*
X8775000Y90731250D03*
%TD*%
D15*
%TO.C,K19*%
X219392500Y114300000D03*
X209232500Y114300000D03*
D16*
X214312500Y114300000D03*
D17*
X211772500Y109220000D03*
X218122500Y111760000D03*
%TD*%
D18*
%TO.C,LC67*%
X342415000Y74612500D03*
X343385000Y74612500D03*
%TD*%
D12*
%TO.C,H7*%
X330993750Y28575000D03*
%TD*%
D15*
%TO.C,K119*%
X287813750Y9525000D03*
X297973750Y9525000D03*
D16*
X292893750Y9525000D03*
D17*
X290353750Y4445000D03*
X296703750Y6985000D03*
%TD*%
D15*
%TO.C,K86*%
X252095000Y47625000D03*
D16*
X257175000Y47625000D03*
D15*
X262255000Y47625000D03*
D17*
X254635000Y42545000D03*
X260985000Y45085000D03*
%TD*%
D18*
%TO.C,LC68*%
X361465000Y74612500D03*
X362435000Y74612500D03*
%TD*%
D11*
%TO.C,LD114*%
X79331250Y14531250D03*
X79331250Y15631250D03*
X77831250Y15631250D03*
X77831250Y14531250D03*
%TD*%
D15*
%TO.C,K18*%
X200342500Y114300000D03*
X190182500Y114300000D03*
D16*
X195262500Y114300000D03*
D17*
X192722500Y109220000D03*
X199072500Y111760000D03*
%TD*%
D11*
%TO.C,LD7*%
X196012500Y138356250D03*
X196012500Y139456250D03*
X194512500Y139456250D03*
X194512500Y138356250D03*
%TD*%
%TO.C,LD78*%
X105525000Y52631250D03*
X105525000Y53731250D03*
X104025000Y53731250D03*
X104025000Y52631250D03*
%TD*%
%TO.C,LD119*%
X293643750Y14531250D03*
X293643750Y15631250D03*
X292143750Y15631250D03*
X292143750Y14531250D03*
%TD*%
%TO.C,LD74*%
X10275000Y52631250D03*
X10275000Y53731250D03*
X8775000Y53731250D03*
X8775000Y52631250D03*
%TD*%
%TO.C,LD90*%
X424612500Y52631250D03*
X424612500Y53731250D03*
X423112500Y53731250D03*
X423112500Y52631250D03*
%TD*%
%TO.C,LD12*%
X381750000Y138356250D03*
X381750000Y139456250D03*
X380250000Y139456250D03*
X380250000Y138356250D03*
%TD*%
D10*
%TO.C,LC121*%
X343385000Y17462500D03*
X342415000Y17462500D03*
%TD*%
D11*
%TO.C,LD107*%
X361200000Y34681250D03*
X361200000Y33581250D03*
X362700000Y33581250D03*
X362700000Y34681250D03*
%TD*%
D10*
%TO.C,LC1*%
X10010000Y141287500D03*
X9040000Y141287500D03*
%TD*%
%TO.C,LC30*%
X52872500Y93662500D03*
X51902500Y93662500D03*
%TD*%
D11*
%TO.C,LD56*%
X118312500Y72781250D03*
X118312500Y71681250D03*
X119812500Y71681250D03*
X119812500Y72781250D03*
%TD*%
%TO.C,LD40*%
X243637500Y90731250D03*
X243637500Y91831250D03*
X242137500Y91831250D03*
X242137500Y90731250D03*
%TD*%
%TO.C,LD18*%
X194512500Y120406250D03*
X194512500Y119306250D03*
X196012500Y119306250D03*
X196012500Y120406250D03*
%TD*%
D18*
%TO.C,LC25*%
X342415000Y122237500D03*
X343385000Y122237500D03*
%TD*%
%TO.C,LC17*%
X175727500Y122237500D03*
X176697500Y122237500D03*
%TD*%
D15*
%TO.C,K108*%
X399732500Y28575000D03*
X409892500Y28575000D03*
D16*
X404812500Y28575000D03*
D17*
X402272500Y23495000D03*
X408622500Y26035000D03*
%TD*%
D15*
%TO.C,K115*%
X107473750Y9525000D03*
D16*
X102393750Y9525000D03*
D15*
X97313750Y9525000D03*
D17*
X99853750Y4445000D03*
X106203750Y6985000D03*
%TD*%
D11*
%TO.C,LD33*%
X110287500Y90731250D03*
X110287500Y91831250D03*
X108787500Y91831250D03*
X108787500Y90731250D03*
%TD*%
D15*
%TO.C,K5*%
X142557500Y133350000D03*
D16*
X147637500Y133350000D03*
D15*
X152717500Y133350000D03*
D17*
X145097500Y128270000D03*
X151447500Y130810000D03*
%TD*%
D18*
%TO.C,LC22*%
X280502500Y122237500D03*
X281472500Y122237500D03*
%TD*%
D10*
%TO.C,LC111*%
X10010000Y17462500D03*
X9040000Y17462500D03*
%TD*%
D15*
%TO.C,K127*%
X461962500Y24130000D03*
D16*
X461962500Y19050000D03*
D15*
X461962500Y13970000D03*
D17*
X467042500Y16510000D03*
X464502500Y22860000D03*
%TD*%
D10*
%TO.C,LC85*%
X238610000Y55562500D03*
X237640000Y55562500D03*
%TD*%
D15*
%TO.C,K63*%
X247332500Y66675000D03*
D16*
X252412500Y66675000D03*
D15*
X257492500Y66675000D03*
D17*
X249872500Y61595000D03*
X256222500Y64135000D03*
%TD*%
D15*
%TO.C,K41*%
X267017500Y85725000D03*
D16*
X261937500Y85725000D03*
D15*
X256857500Y85725000D03*
D17*
X259397500Y80645000D03*
X265747500Y83185000D03*
%TD*%
D16*
%TO.C,K31*%
X71437500Y85725000D03*
D15*
X66357500Y85725000D03*
X76517500Y85725000D03*
D17*
X68897500Y80645000D03*
X75247500Y83185000D03*
%TD*%
D11*
%TO.C,LD87*%
X276975000Y52631250D03*
X276975000Y53731250D03*
X275475000Y53731250D03*
X275475000Y52631250D03*
%TD*%
%TO.C,LD123*%
X381750000Y14531250D03*
X381750000Y15631250D03*
X380250000Y15631250D03*
X380250000Y14531250D03*
%TD*%
D10*
%TO.C,LC74*%
X10010000Y55562500D03*
X9040000Y55562500D03*
%TD*%
D11*
%TO.C,LD81*%
X162675000Y52631250D03*
X162675000Y53731250D03*
X161175000Y53731250D03*
X161175000Y52631250D03*
%TD*%
D18*
%TO.C,LC96*%
X94765000Y36512500D03*
X95735000Y36512500D03*
%TD*%
D11*
%TO.C,LD19*%
X213562500Y120406250D03*
X213562500Y119306250D03*
X215062500Y119306250D03*
X215062500Y120406250D03*
%TD*%
D16*
%TO.C,K75*%
X28575000Y47625000D03*
D15*
X33655000Y47625000D03*
X23495000Y47625000D03*
D17*
X26035000Y42545000D03*
X32385000Y45085000D03*
%TD*%
D10*
%TO.C,LC36*%
X167172500Y93662500D03*
X166202500Y93662500D03*
%TD*%
%TO.C,LC115*%
X102878750Y17462500D03*
X101908750Y17462500D03*
%TD*%
D11*
%TO.C,LD20*%
X232612500Y120406250D03*
X232612500Y119306250D03*
X234112500Y119306250D03*
X234112500Y120406250D03*
%TD*%
D18*
%TO.C,LC19*%
X213827500Y122237500D03*
X214797500Y122237500D03*
%TD*%
%TO.C,LC103*%
X228115000Y36512500D03*
X229085000Y36512500D03*
%TD*%
%TO.C,LC98*%
X132865000Y36512500D03*
X133835000Y36512500D03*
%TD*%
D15*
%TO.C,K4*%
X123507500Y133350000D03*
D16*
X128587500Y133350000D03*
D15*
X133667500Y133350000D03*
D17*
X126047500Y128270000D03*
X132397500Y130810000D03*
%TD*%
D18*
%TO.C,LC52*%
X28090000Y74612500D03*
X29060000Y74612500D03*
%TD*%
D11*
%TO.C,LD76*%
X60281250Y52631250D03*
X60281250Y53731250D03*
X58781250Y53731250D03*
X58781250Y52631250D03*
%TD*%
D10*
%TO.C,LC124*%
X405297500Y17462500D03*
X404327500Y17462500D03*
%TD*%
D11*
%TO.C,LD59*%
X175462500Y72781250D03*
X175462500Y71681250D03*
X176962500Y71681250D03*
X176962500Y72781250D03*
%TD*%
%TO.C,LD8*%
X215062500Y138356250D03*
X215062500Y139456250D03*
X213562500Y139456250D03*
X213562500Y138356250D03*
%TD*%
D10*
%TO.C,LC40*%
X243372500Y93662500D03*
X242402500Y93662500D03*
%TD*%
D16*
%TO.C,K43*%
X309562500Y85725000D03*
D15*
X314642500Y85725000D03*
X304482500Y85725000D03*
D17*
X307022500Y80645000D03*
X313372500Y83185000D03*
%TD*%
D11*
%TO.C,LD104*%
X246900000Y34681250D03*
X246900000Y33581250D03*
X248400000Y33581250D03*
X248400000Y34681250D03*
%TD*%
D16*
%TO.C,K106*%
X302418750Y28575000D03*
D15*
X297338750Y28575000D03*
X307498750Y28575000D03*
D17*
X299878750Y23495000D03*
X306228750Y26035000D03*
%TD*%
D11*
%TO.C,LD105*%
X265950000Y34681250D03*
X265950000Y33581250D03*
X267450000Y33581250D03*
X267450000Y34681250D03*
%TD*%
D15*
%TO.C,K21*%
X267017500Y114300000D03*
X256857500Y114300000D03*
D16*
X261937500Y114300000D03*
D17*
X259397500Y109220000D03*
X265747500Y111760000D03*
%TD*%
D15*
%TO.C,K55*%
X94932500Y66675000D03*
X105092500Y66675000D03*
D16*
X100012500Y66675000D03*
D17*
X97472500Y61595000D03*
X103822500Y64135000D03*
%TD*%
D18*
%TO.C,LC101*%
X190015000Y36512500D03*
X190985000Y36512500D03*
%TD*%
%TO.C,LC51*%
X9040000Y74612500D03*
X10010000Y74612500D03*
%TD*%
%TO.C,LC26*%
X361465000Y122237500D03*
X362435000Y122237500D03*
%TD*%
D16*
%TO.C,K9*%
X233362500Y133350000D03*
D15*
X238442500Y133350000D03*
X228282500Y133350000D03*
D17*
X230822500Y128270000D03*
X237172500Y130810000D03*
%TD*%
D18*
%TO.C,LC107*%
X361465000Y36512500D03*
X362435000Y36512500D03*
%TD*%
D15*
%TO.C,K40*%
X237807500Y85725000D03*
X247967500Y85725000D03*
D16*
X242887500Y85725000D03*
D17*
X240347500Y80645000D03*
X246697500Y83185000D03*
%TD*%
D15*
%TO.C,K121*%
X347980000Y9525000D03*
X337820000Y9525000D03*
D16*
X342900000Y9525000D03*
D17*
X340360000Y4445000D03*
X346710000Y6985000D03*
%TD*%
D15*
%TO.C,K16*%
X142557500Y114300000D03*
X152717500Y114300000D03*
D16*
X147637500Y114300000D03*
D17*
X145097500Y109220000D03*
X151447500Y111760000D03*
%TD*%
D10*
%TO.C,LC92*%
X462447500Y55562500D03*
X461477500Y55562500D03*
%TD*%
D11*
%TO.C,LD110*%
X442162500Y34681250D03*
X442162500Y33581250D03*
X443662500Y33581250D03*
X443662500Y34681250D03*
%TD*%
D10*
%TO.C,LC114*%
X79066250Y17462500D03*
X78096250Y17462500D03*
%TD*%
D15*
%TO.C,K85*%
X243205000Y47625000D03*
X233045000Y47625000D03*
D16*
X238125000Y47625000D03*
D17*
X235585000Y42545000D03*
X241935000Y45085000D03*
%TD*%
D12*
%TO.C,H1*%
X19050000Y114300000D03*
%TD*%
D11*
%TO.C,LD27*%
X380250000Y120406250D03*
X380250000Y119306250D03*
X381750000Y119306250D03*
X381750000Y120406250D03*
%TD*%
%TO.C,LD126*%
X443662500Y14531250D03*
X443662500Y15631250D03*
X442162500Y15631250D03*
X442162500Y14531250D03*
%TD*%
D14*
%TO.C,SWA1*%
X456470500Y135890000D03*
D13*
X456470500Y133350000D03*
D14*
X456470500Y130810000D03*
%TD*%
D18*
%TO.C,LC56*%
X118577500Y74612500D03*
X119547500Y74612500D03*
%TD*%
D11*
%TO.C,LD118*%
X269831250Y14531250D03*
X269831250Y15631250D03*
X268331250Y15631250D03*
X268331250Y14531250D03*
%TD*%
D10*
%TO.C,LC83*%
X200510000Y55562500D03*
X199540000Y55562500D03*
%TD*%
D15*
%TO.C,K14*%
X104457500Y114300000D03*
X114617500Y114300000D03*
D16*
X109537500Y114300000D03*
D17*
X106997500Y109220000D03*
X113347500Y111760000D03*
%TD*%
D16*
%TO.C,K7*%
X195262500Y133350000D03*
D15*
X190182500Y133350000D03*
X200342500Y133350000D03*
D17*
X192722500Y128270000D03*
X199072500Y130810000D03*
%TD*%
D11*
%TO.C,LD108*%
X404062500Y34681250D03*
X404062500Y33581250D03*
X405562500Y33581250D03*
X405562500Y34681250D03*
%TD*%
D18*
%TO.C,LC61*%
X213827500Y74612500D03*
X214797500Y74612500D03*
%TD*%
D15*
%TO.C,K71*%
X428942500Y66675000D03*
D16*
X423862500Y66675000D03*
D15*
X418782500Y66675000D03*
D17*
X421322500Y61595000D03*
X427672500Y64135000D03*
%TD*%
D18*
%TO.C,LC72*%
X442427500Y74612500D03*
X443397500Y74612500D03*
%TD*%
%TO.C,LC94*%
X28090000Y36512500D03*
X29060000Y36512500D03*
%TD*%
D15*
%TO.C,K103*%
X233680000Y28575000D03*
X223520000Y28575000D03*
D16*
X228600000Y28575000D03*
D17*
X226060000Y23495000D03*
X232410000Y26035000D03*
%TD*%
D22*
%TO.C,J4*%
X441833750Y136306250D03*
X436053750Y136306250D03*
D23*
X443263750Y139956250D03*
D24*
X443263750Y135776250D03*
X434623750Y135776250D03*
D23*
X434623750Y139956250D03*
%TD*%
M02*
