%TF.GenerationSoftware,KiCad,Pcbnew,(6.0.0)*%
%TF.CreationDate,2022-04-30T21:46:17-04:00*%
%TF.ProjectId,SweetBusiness,53776565-7442-4757-9369-6e6573732e6b,rev?*%
%TF.SameCoordinates,Original*%
%TF.FileFunction,Paste,Bot*%
%TF.FilePolarity,Positive*%
%FSLAX46Y46*%
G04 Gerber Fmt 4.6, Leading zero omitted, Abs format (unit mm)*
G04 Created by KiCad (PCBNEW (6.0.0)) date 2022-04-30 21:46:17*
%MOMM*%
%LPD*%
G01*
G04 APERTURE LIST*
G04 Aperture macros list*
%AMRoundRect*
0 Rectangle with rounded corners*
0 $1 Rounding radius*
0 $2 $3 $4 $5 $6 $7 $8 $9 X,Y pos of 4 corners*
0 Add a 4 corners polygon primitive as box body*
4,1,4,$2,$3,$4,$5,$6,$7,$8,$9,$2,$3,0*
0 Add four circle primitives for the rounded corners*
1,1,$1+$1,$2,$3*
1,1,$1+$1,$4,$5*
1,1,$1+$1,$6,$7*
1,1,$1+$1,$8,$9*
0 Add four rect primitives between the rounded corners*
20,1,$1+$1,$2,$3,$4,$5,0*
20,1,$1+$1,$4,$5,$6,$7,0*
20,1,$1+$1,$6,$7,$8,$9,0*
20,1,$1+$1,$8,$9,$2,$3,0*%
G04 Aperture macros list end*
%ADD10C,0.010000*%
%ADD11RoundRect,0.250000X0.292217X0.292217X-0.292217X0.292217X-0.292217X-0.292217X0.292217X-0.292217X0*%
%ADD12RoundRect,0.050000X0.387500X0.050000X-0.387500X0.050000X-0.387500X-0.050000X0.387500X-0.050000X0*%
%ADD13RoundRect,0.050000X0.050000X0.387500X-0.050000X0.387500X-0.050000X-0.387500X0.050000X-0.387500X0*%
%ADD14R,4.200000X2.000000*%
%ADD15RoundRect,0.147500X0.172500X-0.147500X0.172500X0.147500X-0.172500X0.147500X-0.172500X-0.147500X0*%
%ADD16RoundRect,0.147500X-0.172500X0.147500X-0.172500X-0.147500X0.172500X-0.147500X0.172500X0.147500X0*%
%ADD17R,0.700000X0.600000*%
%ADD18RoundRect,0.147500X-0.147500X-0.172500X0.147500X-0.172500X0.147500X0.172500X-0.147500X0.172500X0*%
%ADD19RoundRect,0.150000X0.150000X-0.512500X0.150000X0.512500X-0.150000X0.512500X-0.150000X-0.512500X0*%
%ADD20RoundRect,0.147500X0.147500X0.172500X-0.147500X0.172500X-0.147500X-0.172500X0.147500X-0.172500X0*%
%ADD21R,0.600000X0.700000*%
%ADD22RoundRect,0.150000X0.150000X-0.650000X0.150000X0.650000X-0.150000X0.650000X-0.150000X-0.650000X0*%
%ADD23R,1.400000X1.200000*%
%ADD24R,3.500000X4.000000*%
%ADD25RoundRect,0.218750X0.218750X0.256250X-0.218750X0.256250X-0.218750X-0.256250X0.218750X-0.256250X0*%
%ADD26R,0.600000X1.450000*%
%ADD27R,0.300000X1.450000*%
%ADD28RoundRect,0.150000X-0.512500X-0.150000X0.512500X-0.150000X0.512500X0.150000X-0.512500X0.150000X0*%
G04 APERTURE END LIST*
D10*
%TO.C,S1*%
X512217000Y-146085000D02*
X511767000Y-146085000D01*
X511767000Y-146085000D02*
X511767000Y-146535000D01*
X511767000Y-146535000D02*
X512217000Y-146535000D01*
X512217000Y-146535000D02*
X512217000Y-146085000D01*
G36*
X512217000Y-146535000D02*
G01*
X511767000Y-146535000D01*
X511767000Y-146085000D01*
X512217000Y-146085000D01*
X512217000Y-146535000D01*
G37*
X512217000Y-146535000D02*
X511767000Y-146535000D01*
X511767000Y-146085000D01*
X512217000Y-146085000D01*
X512217000Y-146535000D01*
X512217000Y-146835000D02*
X511767000Y-146835000D01*
X511767000Y-146835000D02*
X511767000Y-147285000D01*
X511767000Y-147285000D02*
X512217000Y-147285000D01*
X512217000Y-147285000D02*
X512217000Y-146835000D01*
G36*
X512217000Y-147285000D02*
G01*
X511767000Y-147285000D01*
X511767000Y-146835000D01*
X512217000Y-146835000D01*
X512217000Y-147285000D01*
G37*
X512217000Y-147285000D02*
X511767000Y-147285000D01*
X511767000Y-146835000D01*
X512217000Y-146835000D01*
X512217000Y-147285000D01*
X509567000Y-146085000D02*
X509117000Y-146085000D01*
X509117000Y-146085000D02*
X509117000Y-146535000D01*
X509117000Y-146535000D02*
X509567000Y-146535000D01*
X509567000Y-146535000D02*
X509567000Y-146085000D01*
G36*
X509567000Y-146535000D02*
G01*
X509117000Y-146535000D01*
X509117000Y-146085000D01*
X509567000Y-146085000D01*
X509567000Y-146535000D01*
G37*
X509567000Y-146535000D02*
X509117000Y-146535000D01*
X509117000Y-146085000D01*
X509567000Y-146085000D01*
X509567000Y-146535000D01*
X509567000Y-146835000D02*
X509117000Y-146835000D01*
X509117000Y-146835000D02*
X509117000Y-147285000D01*
X509117000Y-147285000D02*
X509567000Y-147285000D01*
X509567000Y-147285000D02*
X509567000Y-146835000D01*
G36*
X509567000Y-147285000D02*
G01*
X509117000Y-147285000D01*
X509117000Y-146835000D01*
X509567000Y-146835000D01*
X509567000Y-147285000D01*
G37*
X509567000Y-147285000D02*
X509117000Y-147285000D01*
X509117000Y-146835000D01*
X509567000Y-146835000D01*
X509567000Y-147285000D01*
%TD*%
D11*
%TO.C,U0*%
X492281250Y-154625000D03*
X492281250Y-153350000D03*
X493556250Y-154625000D03*
X493556250Y-153350000D03*
D12*
X496356250Y-151387500D03*
X496356250Y-151787500D03*
X496356250Y-152187500D03*
X496356250Y-152587500D03*
X496356250Y-152987500D03*
X496356250Y-153387500D03*
X496356250Y-153787500D03*
X496356250Y-154187500D03*
X496356250Y-154587500D03*
X496356250Y-154987500D03*
X496356250Y-155387500D03*
X496356250Y-155787500D03*
X496356250Y-156187500D03*
X496356250Y-156587500D03*
D13*
X495518750Y-157425000D03*
X495118750Y-157425000D03*
X494718750Y-157425000D03*
X494318750Y-157425000D03*
X493918750Y-157425000D03*
X493518750Y-157425000D03*
X493118750Y-157425000D03*
X492718750Y-157425000D03*
X492318750Y-157425000D03*
X491918750Y-157425000D03*
X491518750Y-157425000D03*
X491118750Y-157425000D03*
X490718750Y-157425000D03*
X490318750Y-157425000D03*
D12*
X489481250Y-156587500D03*
X489481250Y-156187500D03*
X489481250Y-155787500D03*
X489481250Y-155387500D03*
X489481250Y-154987500D03*
X489481250Y-154587500D03*
X489481250Y-154187500D03*
X489481250Y-153787500D03*
X489481250Y-153387500D03*
X489481250Y-152987500D03*
X489481250Y-152587500D03*
X489481250Y-152187500D03*
X489481250Y-151787500D03*
X489481250Y-151387500D03*
D13*
X490318750Y-150550000D03*
X490718750Y-150550000D03*
X491118750Y-150550000D03*
X491518750Y-150550000D03*
X491918750Y-150550000D03*
X492318750Y-150550000D03*
X492718750Y-150550000D03*
X493118750Y-150550000D03*
X493518750Y-150550000D03*
X493918750Y-150550000D03*
X494318750Y-150550000D03*
X494718750Y-150550000D03*
X495118750Y-150550000D03*
X495518750Y-150550000D03*
%TD*%
D14*
%TO.C,TX1*%
X520700000Y-146876000D03*
X520700000Y-154876000D03*
%TD*%
D15*
%TO.C,C5*%
X488950000Y-148313000D03*
X488950000Y-147343000D03*
%TD*%
D16*
%TO.C,CP4*%
X482473000Y-129791600D03*
X482473000Y-130761600D03*
%TD*%
D17*
%TO.C,D88*%
X369887500Y-214406250D03*
X369887500Y-215806250D03*
%TD*%
D16*
%TO.C,CP17*%
X456819000Y-131849000D03*
X456819000Y-132819000D03*
%TD*%
D17*
%TO.C,D11*%
X424656250Y-128681250D03*
X424656250Y-130081250D03*
%TD*%
%TO.C,D25*%
X405606250Y-147731250D03*
X405606250Y-149131250D03*
%TD*%
%TO.C,D103*%
X291306250Y-233456250D03*
X291306250Y-234856250D03*
%TD*%
%TO.C,D89*%
X467518750Y-214406250D03*
X467518750Y-215806250D03*
%TD*%
D15*
%TO.C,CP10*%
X460248000Y-130660000D03*
X460248000Y-129690000D03*
%TD*%
D17*
%TO.C,D71*%
X486568750Y-195356250D03*
X486568750Y-196756250D03*
%TD*%
%TO.C,D47*%
X467518750Y-176306250D03*
X467518750Y-177706250D03*
%TD*%
D16*
%TO.C,CP16*%
X457962000Y-131849000D03*
X457962000Y-132819000D03*
%TD*%
D17*
%TO.C,D59*%
X238918750Y-195356250D03*
X238918750Y-196756250D03*
%TD*%
D16*
%TO.C,RD1*%
X491236000Y-145311000D03*
X491236000Y-146281000D03*
%TD*%
D17*
%TO.C,D51*%
X72231250Y-195356250D03*
X72231250Y-196756250D03*
%TD*%
%TO.C,D82*%
X243681250Y-214406250D03*
X243681250Y-215806250D03*
%TD*%
D18*
%TO.C,RF1*%
X504213000Y-147320000D03*
X505183000Y-147320000D03*
%TD*%
D17*
%TO.C,D124*%
X467518750Y-252506250D03*
X467518750Y-253906250D03*
%TD*%
%TO.C,D125*%
X486568750Y-252506250D03*
X486568750Y-253906250D03*
%TD*%
%TO.C,D78*%
X167481250Y-214406250D03*
X167481250Y-215806250D03*
%TD*%
D19*
%TO.C,U3*%
X499552000Y-135249500D03*
X498602000Y-135249500D03*
X497652000Y-135249500D03*
X497652000Y-132974500D03*
X498602000Y-132974500D03*
X499552000Y-132974500D03*
%TD*%
D17*
%TO.C,D58*%
X219868750Y-195356250D03*
X219868750Y-196756250D03*
%TD*%
%TO.C,D1*%
X115093750Y-147731250D03*
X115093750Y-149131250D03*
%TD*%
%TO.C,D116*%
X236537500Y-252506250D03*
X236537500Y-253906250D03*
%TD*%
%TO.C,D27*%
X443706250Y-147731250D03*
X443706250Y-149131250D03*
%TD*%
%TO.C,D24*%
X381793750Y-147731250D03*
X381793750Y-149131250D03*
%TD*%
%TO.C,D17*%
X238918750Y-147731250D03*
X238918750Y-149131250D03*
%TD*%
%TO.C,D43*%
X372268750Y-176306250D03*
X372268750Y-177706250D03*
%TD*%
%TO.C,D113*%
X117475000Y-252506250D03*
X117475000Y-253906250D03*
%TD*%
%TO.C,D76*%
X122237500Y-214406250D03*
X122237500Y-215806250D03*
%TD*%
%TO.C,D60*%
X257968750Y-195356250D03*
X257968750Y-196756250D03*
%TD*%
%TO.C,D20*%
X296068750Y-147731250D03*
X296068750Y-149131250D03*
%TD*%
%TO.C,D72*%
X505618750Y-195356250D03*
X505618750Y-196756250D03*
%TD*%
%TO.C,D54*%
X143668750Y-195356250D03*
X143668750Y-196756250D03*
%TD*%
D20*
%TO.C,C3*%
X492102000Y-160274000D03*
X491132000Y-160274000D03*
%TD*%
D21*
%TO.C,DT4*%
X306481250Y-134143750D03*
X307881250Y-134143750D03*
%TD*%
D17*
%TO.C,D57*%
X200818750Y-195356250D03*
X200818750Y-196756250D03*
%TD*%
%TO.C,D101*%
X253206250Y-233456250D03*
X253206250Y-234856250D03*
%TD*%
%TO.C,D2*%
X153193750Y-128681250D03*
X153193750Y-130081250D03*
%TD*%
%TO.C,D120*%
X379412500Y-252506250D03*
X379412500Y-253906250D03*
%TD*%
%TO.C,D95*%
X127000000Y-233456250D03*
X127000000Y-234856250D03*
%TD*%
D20*
%TO.C,CX1*%
X492102000Y-161290000D03*
X491132000Y-161290000D03*
%TD*%
D17*
%TO.C,D8*%
X277018750Y-128681250D03*
X277018750Y-130081250D03*
%TD*%
D16*
%TO.C,CP2*%
X480187000Y-129791600D03*
X480187000Y-130761600D03*
%TD*%
D21*
%TO.C,DT1*%
X306481250Y-129381250D03*
X307881250Y-129381250D03*
%TD*%
D17*
%TO.C,D63*%
X315118750Y-195356250D03*
X315118750Y-196756250D03*
%TD*%
D20*
%TO.C,C11*%
X486027500Y-154940000D03*
X486997500Y-154940000D03*
%TD*%
D17*
%TO.C,D80*%
X205581250Y-214406250D03*
X205581250Y-215806250D03*
%TD*%
%TO.C,D12*%
X443706250Y-128681250D03*
X443706250Y-130081250D03*
%TD*%
%TO.C,D3*%
X172243750Y-128681250D03*
X172243750Y-130081250D03*
%TD*%
%TO.C,D34*%
X191293750Y-176306250D03*
X191293750Y-177706250D03*
%TD*%
%TO.C,D104*%
X310356250Y-233456250D03*
X310356250Y-234856250D03*
%TD*%
D22*
%TO.C,U2*%
X502666000Y-147364000D03*
X501396000Y-147364000D03*
X500126000Y-147364000D03*
X498856000Y-147364000D03*
X498856000Y-140164000D03*
X500126000Y-140164000D03*
X501396000Y-140164000D03*
X502666000Y-140164000D03*
%TD*%
D23*
%TO.C,Y1*%
X494018750Y-164362500D03*
X491818750Y-164362500D03*
X491818750Y-162662500D03*
X494018750Y-162662500D03*
%TD*%
D17*
%TO.C,D61*%
X277018750Y-195356250D03*
X277018750Y-196756250D03*
%TD*%
%TO.C,D97*%
X177006250Y-233456250D03*
X177006250Y-234856250D03*
%TD*%
D18*
%TO.C,C9*%
X498983000Y-154940000D03*
X499953000Y-154940000D03*
%TD*%
D15*
%TO.C,CP13*%
X456819000Y-130660000D03*
X456819000Y-129690000D03*
%TD*%
D16*
%TO.C,CP5*%
X483616000Y-129791600D03*
X483616000Y-130761600D03*
%TD*%
D17*
%TO.C,D13*%
X153193750Y-147731250D03*
X153193750Y-149131250D03*
%TD*%
%TO.C,D118*%
X331787500Y-252506250D03*
X331787500Y-253906250D03*
%TD*%
%TO.C,D45*%
X424656250Y-176306250D03*
X424656250Y-177706250D03*
%TD*%
%TO.C,D70*%
X467518750Y-195356250D03*
X467518750Y-196756250D03*
%TD*%
D15*
%TO.C,CP8*%
X482473000Y-132920600D03*
X482473000Y-131950600D03*
%TD*%
D17*
%TO.C,D91*%
X505618750Y-214406250D03*
X505618750Y-215806250D03*
%TD*%
%TO.C,D36*%
X229393750Y-176306250D03*
X229393750Y-177706250D03*
%TD*%
D16*
%TO.C,RP1*%
X474345000Y-128420000D03*
X474345000Y-129390000D03*
%TD*%
D17*
%TO.C,D79*%
X186531250Y-214406250D03*
X186531250Y-215806250D03*
%TD*%
%TO.C,D117*%
X307975000Y-252506250D03*
X307975000Y-253906250D03*
%TD*%
%TO.C,D39*%
X286543750Y-176306250D03*
X286543750Y-177706250D03*
%TD*%
%TO.C,D111*%
X72231250Y-252506250D03*
X72231250Y-253906250D03*
%TD*%
%TO.C,D22*%
X343693750Y-147731250D03*
X343693750Y-149131250D03*
%TD*%
%TO.C,D53*%
X119856250Y-195356250D03*
X119856250Y-196756250D03*
%TD*%
%TO.C,D6*%
X238918750Y-128681250D03*
X238918750Y-130081250D03*
%TD*%
%TO.C,D92*%
X524668750Y-214406250D03*
X524668750Y-215806250D03*
%TD*%
%TO.C,D38*%
X267493750Y-176306250D03*
X267493750Y-177706250D03*
%TD*%
%TO.C,D110*%
X505618750Y-233456250D03*
X505618750Y-234856250D03*
%TD*%
%TO.C,D115*%
X165100000Y-252506250D03*
X165100000Y-253906250D03*
%TD*%
D18*
%TO.C,C10*%
X497863000Y-150495000D03*
X498833000Y-150495000D03*
%TD*%
D17*
%TO.C,D84*%
X281781250Y-214406250D03*
X281781250Y-215806250D03*
%TD*%
%TO.C,DR1*%
X524668750Y-128681250D03*
X524668750Y-130081250D03*
%TD*%
%TO.C,D18*%
X257968750Y-147731250D03*
X257968750Y-149131250D03*
%TD*%
D15*
%TO.C,RC1*%
X500888000Y-132565000D03*
X500888000Y-131595000D03*
%TD*%
D17*
%TO.C,D77*%
X148431250Y-214406250D03*
X148431250Y-215806250D03*
%TD*%
%TO.C,D83*%
X262731250Y-214406250D03*
X262731250Y-215806250D03*
%TD*%
D15*
%TO.C,RR1*%
X490093000Y-160251000D03*
X490093000Y-159281000D03*
%TD*%
D17*
%TO.C,D29*%
X91281250Y-176306250D03*
X91281250Y-177706250D03*
%TD*%
%TO.C,DR3*%
X516731250Y-125318750D03*
X516731250Y-123918750D03*
%TD*%
D18*
%TO.C,RX2*%
X493672000Y-160274000D03*
X494642000Y-160274000D03*
%TD*%
D20*
%TO.C,C1*%
X492102000Y-159258000D03*
X491132000Y-159258000D03*
%TD*%
D17*
%TO.C,D85*%
X300831250Y-214406250D03*
X300831250Y-215806250D03*
%TD*%
%TO.C,D16*%
X210343750Y-147731250D03*
X210343750Y-149131250D03*
%TD*%
D15*
%TO.C,CP11*%
X459105000Y-130660000D03*
X459105000Y-129690000D03*
%TD*%
D17*
%TO.C,D74*%
X72231250Y-214406250D03*
X72231250Y-215806250D03*
%TD*%
D15*
%TO.C,C2*%
X493649000Y-147932000D03*
X493649000Y-146962000D03*
%TD*%
D17*
%TO.C,D68*%
X424656250Y-195356250D03*
X424656250Y-196756250D03*
%TD*%
%TO.C,DR2*%
X526256250Y-125318750D03*
X526256250Y-123918750D03*
%TD*%
%TO.C,D28*%
X72231250Y-176306250D03*
X72231250Y-177706250D03*
%TD*%
%TO.C,D35*%
X210343750Y-176306250D03*
X210343750Y-177706250D03*
%TD*%
%TO.C,D33*%
X172243750Y-176306250D03*
X172243750Y-177706250D03*
%TD*%
%TO.C,D14*%
X172243750Y-147731250D03*
X172243750Y-149131250D03*
%TD*%
%TO.C,D106*%
X365125000Y-233456250D03*
X365125000Y-234856250D03*
%TD*%
%TO.C,D67*%
X405606250Y-195356250D03*
X405606250Y-196756250D03*
%TD*%
%TO.C,D10*%
X405606250Y-128681250D03*
X405606250Y-130081250D03*
%TD*%
%TO.C,D30*%
X115093750Y-176306250D03*
X115093750Y-177706250D03*
%TD*%
%TO.C,D62*%
X296068750Y-195356250D03*
X296068750Y-196756250D03*
%TD*%
D15*
%TO.C,CP7*%
X481330000Y-132920600D03*
X481330000Y-131950600D03*
%TD*%
D16*
%TO.C,RC2*%
X496316000Y-131595000D03*
X496316000Y-132565000D03*
%TD*%
D17*
%TO.C,D41*%
X324643750Y-176306250D03*
X324643750Y-177706250D03*
%TD*%
D16*
%TO.C,CP14*%
X460248000Y-131849000D03*
X460248000Y-132819000D03*
%TD*%
D17*
%TO.C,D109*%
X486568750Y-233456250D03*
X486568750Y-234856250D03*
%TD*%
%TO.C,D98*%
X196056250Y-233456250D03*
X196056250Y-234856250D03*
%TD*%
%TO.C,D100*%
X234156250Y-233456250D03*
X234156250Y-234856250D03*
%TD*%
%TO.C,D19*%
X277018750Y-147731250D03*
X277018750Y-149131250D03*
%TD*%
%TO.C,D50*%
X524668750Y-176306250D03*
X524668750Y-177706250D03*
%TD*%
%TO.C,D69*%
X443706250Y-195356250D03*
X443706250Y-196756250D03*
%TD*%
%TO.C,D55*%
X162718750Y-195356250D03*
X162718750Y-196756250D03*
%TD*%
%TO.C,D23*%
X362743750Y-147731250D03*
X362743750Y-149131250D03*
%TD*%
D15*
%TO.C,C7*%
X491617000Y-148313000D03*
X491617000Y-147343000D03*
%TD*%
D17*
%TO.C,D75*%
X91281250Y-214406250D03*
X91281250Y-215806250D03*
%TD*%
%TO.C,D56*%
X181768750Y-195356250D03*
X181768750Y-196756250D03*
%TD*%
%TO.C,D4*%
X191293750Y-128681250D03*
X191293750Y-130081250D03*
%TD*%
D16*
%TO.C,CP15*%
X459105000Y-131849000D03*
X459105000Y-132819000D03*
%TD*%
D17*
%TO.C,D64*%
X334168750Y-195356250D03*
X334168750Y-196756250D03*
%TD*%
%TO.C,D127*%
X518318750Y-252318750D03*
X518318750Y-250918750D03*
%TD*%
%TO.C,D5*%
X210343750Y-128681250D03*
X210343750Y-130081250D03*
%TD*%
D20*
%TO.C,CF1*%
X502643000Y-137287000D03*
X501673000Y-137287000D03*
%TD*%
D17*
%TO.C,D65*%
X353218750Y-195356250D03*
X353218750Y-196756250D03*
%TD*%
%TO.C,D42*%
X343693750Y-176306250D03*
X343693750Y-177706250D03*
%TD*%
%TO.C,D108*%
X467518750Y-233456250D03*
X467518750Y-234856250D03*
%TD*%
D24*
%TO.C,LP1*%
X471614000Y-131318000D03*
X463614000Y-131318000D03*
%TD*%
D17*
%TO.C,D73*%
X524668750Y-195356250D03*
X524668750Y-196756250D03*
%TD*%
%TO.C,D93*%
X72231250Y-233456250D03*
X72231250Y-234856250D03*
%TD*%
D16*
%TO.C,RP2*%
X474345000Y-130452000D03*
X474345000Y-131422000D03*
%TD*%
D17*
%TO.C,D7*%
X257968750Y-128681250D03*
X257968750Y-130081250D03*
%TD*%
%TO.C,D119*%
X355600000Y-252506250D03*
X355600000Y-253906250D03*
%TD*%
%TO.C,D96*%
X157956250Y-233456250D03*
X157956250Y-234856250D03*
%TD*%
%TO.C,D112*%
X91281250Y-252506250D03*
X91281250Y-253906250D03*
%TD*%
%TO.C,D40*%
X305593750Y-176306250D03*
X305593750Y-177706250D03*
%TD*%
D15*
%TO.C,CP12*%
X457962000Y-130660000D03*
X457962000Y-129690000D03*
%TD*%
D25*
%TO.C,F1*%
X492118750Y-128587500D03*
X490543750Y-128587500D03*
%TD*%
D17*
%TO.C,D87*%
X338931250Y-214406250D03*
X338931250Y-215806250D03*
%TD*%
D15*
%TO.C,C8*%
X492633000Y-148313000D03*
X492633000Y-147343000D03*
%TD*%
D17*
%TO.C,D31*%
X134143750Y-176306250D03*
X134143750Y-177706250D03*
%TD*%
D15*
%TO.C,CP9*%
X483616000Y-132920600D03*
X483616000Y-131950600D03*
%TD*%
D17*
%TO.C,D94*%
X91281250Y-233456250D03*
X91281250Y-234856250D03*
%TD*%
%TO.C,D49*%
X505618750Y-176306250D03*
X505618750Y-177706250D03*
%TD*%
%TO.C,D48*%
X486568750Y-176306250D03*
X486568750Y-177706250D03*
%TD*%
%TO.C,D102*%
X272256250Y-233456250D03*
X272256250Y-234856250D03*
%TD*%
%TO.C,D46*%
X443706250Y-176306250D03*
X443706250Y-177706250D03*
%TD*%
D15*
%TO.C,CP6*%
X480187000Y-132920600D03*
X480187000Y-131950600D03*
%TD*%
D17*
%TO.C,D90*%
X486568750Y-214406250D03*
X486568750Y-215806250D03*
%TD*%
%TO.C,D107*%
X424656250Y-233456250D03*
X424656250Y-234856250D03*
%TD*%
D15*
%TO.C,C6*%
X489966000Y-148313000D03*
X489966000Y-147343000D03*
%TD*%
D17*
%TO.C,D126*%
X505618750Y-252506250D03*
X505618750Y-253906250D03*
%TD*%
%TO.C,D114*%
X141287500Y-252506250D03*
X141287500Y-253906250D03*
%TD*%
%TO.C,D26*%
X424656250Y-147731250D03*
X424656250Y-149131250D03*
%TD*%
%TO.C,D15*%
X191293750Y-147731250D03*
X191293750Y-149131250D03*
%TD*%
D20*
%TO.C,CX2*%
X494642000Y-161290000D03*
X493672000Y-161290000D03*
%TD*%
D17*
%TO.C,D44*%
X405606250Y-176306250D03*
X405606250Y-177706250D03*
%TD*%
D16*
%TO.C,CP3*%
X481330000Y-129791600D03*
X481330000Y-130761600D03*
%TD*%
D17*
%TO.C,D99*%
X215106250Y-233456250D03*
X215106250Y-234856250D03*
%TD*%
%TO.C,D123*%
X443706250Y-252506250D03*
X443706250Y-253906250D03*
%TD*%
D16*
%TO.C,RD2*%
X490220000Y-145311000D03*
X490220000Y-146281000D03*
%TD*%
D17*
%TO.C,D52*%
X91281250Y-195356250D03*
X91281250Y-196756250D03*
%TD*%
%TO.C,D37*%
X248443750Y-176306250D03*
X248443750Y-177706250D03*
%TD*%
%TO.C,D66*%
X377031250Y-195356250D03*
X377031250Y-196756250D03*
%TD*%
D26*
%TO.C,J4*%
X495225000Y-128663750D03*
X496025000Y-128663750D03*
D27*
X497225000Y-128663750D03*
X498225000Y-128663750D03*
X498725000Y-128663750D03*
X499725000Y-128663750D03*
D26*
X500925000Y-128663750D03*
X501725000Y-128663750D03*
X501725000Y-128663750D03*
X500925000Y-128663750D03*
D27*
X500225000Y-128663750D03*
X499225000Y-128663750D03*
X497725000Y-128663750D03*
X496725000Y-128663750D03*
D26*
X496025000Y-128663750D03*
X495225000Y-128663750D03*
%TD*%
D17*
%TO.C,D105*%
X329406250Y-233456250D03*
X329406250Y-234856250D03*
%TD*%
%TO.C,D81*%
X224631250Y-214406250D03*
X224631250Y-215806250D03*
%TD*%
D28*
%TO.C,U1*%
X476001500Y-132395000D03*
X476001500Y-131445000D03*
X476001500Y-130495000D03*
X478276500Y-130495000D03*
X478276500Y-131445000D03*
X478276500Y-132395000D03*
%TD*%
D17*
%TO.C,D121*%
X405606250Y-252506250D03*
X405606250Y-253906250D03*
%TD*%
%TO.C,D32*%
X153193750Y-176306250D03*
X153193750Y-177706250D03*
%TD*%
D20*
%TO.C,C4*%
X488038000Y-150495000D03*
X487068000Y-150495000D03*
%TD*%
D17*
%TO.C,D122*%
X424656250Y-252506250D03*
X424656250Y-253906250D03*
%TD*%
D21*
%TO.C,DT3*%
X306481250Y-132556250D03*
X307881250Y-132556250D03*
%TD*%
D17*
%TO.C,D86*%
X319881250Y-214406250D03*
X319881250Y-215806250D03*
%TD*%
D21*
%TO.C,DT2*%
X306481250Y-130968750D03*
X307881250Y-130968750D03*
%TD*%
D17*
%TO.C,D9*%
X296068750Y-128681250D03*
X296068750Y-130081250D03*
%TD*%
%TO.C,D21*%
X324643750Y-147731250D03*
X324643750Y-149131250D03*
%TD*%
D16*
%TO.C,CP1*%
X474345000Y-132484000D03*
X474345000Y-133454000D03*
%TD*%
M02*
