%TF.GenerationSoftware,KiCad,Pcbnew,(6.0.7)*%
%TF.CreationDate,2022-09-27T13:03:32-04:00*%
%TF.ProjectId,SweetBusiness,53776565-7442-4757-9369-6e6573732e6b,rev?*%
%TF.SameCoordinates,Original*%
%TF.FileFunction,Other,Comment*%
%FSLAX46Y46*%
G04 Gerber Fmt 4.6, Leading zero omitted, Abs format (unit mm)*
G04 Created by KiCad (PCBNEW (6.0.7)) date 2022-09-27 13:03:32*
%MOMM*%
%LPD*%
G01*
G04 APERTURE LIST*
%ADD10C,0.150000*%
%ADD11C,0.030000*%
G04 APERTURE END LIST*
D10*
%TO.C,D88*%
X309508630Y48791965D02*
X308508630Y48791965D01*
X308508630Y49030060D01*
X308556250Y49172917D01*
X308651488Y49268155D01*
X308746726Y49315774D01*
X308937202Y49363393D01*
X309080059Y49363393D01*
X309270535Y49315774D01*
X309365773Y49268155D01*
X309461011Y49172917D01*
X309508630Y49030060D01*
X309508630Y48791965D01*
X308937202Y49934822D02*
X308889583Y49839584D01*
X308841964Y49791965D01*
X308746726Y49744346D01*
X308699107Y49744346D01*
X308603869Y49791965D01*
X308556250Y49839584D01*
X308508630Y49934822D01*
X308508630Y50125298D01*
X308556250Y50220536D01*
X308603869Y50268155D01*
X308699107Y50315774D01*
X308746726Y50315774D01*
X308841964Y50268155D01*
X308889583Y50220536D01*
X308937202Y50125298D01*
X308937202Y49934822D01*
X308984821Y49839584D01*
X309032440Y49791965D01*
X309127678Y49744346D01*
X309318154Y49744346D01*
X309413392Y49791965D01*
X309461011Y49839584D01*
X309508630Y49934822D01*
X309508630Y50125298D01*
X309461011Y50220536D01*
X309413392Y50268155D01*
X309318154Y50315774D01*
X309127678Y50315774D01*
X309032440Y50268155D01*
X308984821Y50220536D01*
X308937202Y50125298D01*
X308937202Y50887203D02*
X308889583Y50791965D01*
X308841964Y50744346D01*
X308746726Y50696727D01*
X308699107Y50696727D01*
X308603869Y50744346D01*
X308556250Y50791965D01*
X308508630Y50887203D01*
X308508630Y51077679D01*
X308556250Y51172917D01*
X308603869Y51220536D01*
X308699107Y51268155D01*
X308746726Y51268155D01*
X308841964Y51220536D01*
X308889583Y51172917D01*
X308937202Y51077679D01*
X308937202Y50887203D01*
X308984821Y50791965D01*
X309032440Y50744346D01*
X309127678Y50696727D01*
X309318154Y50696727D01*
X309413392Y50744346D01*
X309461011Y50791965D01*
X309508630Y50887203D01*
X309508630Y51077679D01*
X309461011Y51172917D01*
X309413392Y51220536D01*
X309318154Y51268155D01*
X309127678Y51268155D01*
X309032440Y51220536D01*
X308984821Y51172917D01*
X308937202Y51077679D01*
%TO.C,D11*%
X364277380Y134516965D02*
X363277380Y134516965D01*
X363277380Y134755060D01*
X363325000Y134897917D01*
X363420238Y134993155D01*
X363515476Y135040774D01*
X363705952Y135088393D01*
X363848809Y135088393D01*
X364039285Y135040774D01*
X364134523Y134993155D01*
X364229761Y134897917D01*
X364277380Y134755060D01*
X364277380Y134516965D01*
X364277380Y136040774D02*
X364277380Y135469346D01*
X364277380Y135755060D02*
X363277380Y135755060D01*
X363420238Y135659822D01*
X363515476Y135564584D01*
X363563095Y135469346D01*
X364277380Y136993155D02*
X364277380Y136421727D01*
X364277380Y136707441D02*
X363277380Y136707441D01*
X363420238Y136612203D01*
X363515476Y136516965D01*
X363563095Y136421727D01*
%TO.C,D25*%
X345227380Y115466965D02*
X344227380Y115466965D01*
X344227380Y115705060D01*
X344275000Y115847917D01*
X344370238Y115943155D01*
X344465476Y115990774D01*
X344655952Y116038393D01*
X344798809Y116038393D01*
X344989285Y115990774D01*
X345084523Y115943155D01*
X345179761Y115847917D01*
X345227380Y115705060D01*
X345227380Y115466965D01*
X344322619Y116419346D02*
X344275000Y116466965D01*
X344227380Y116562203D01*
X344227380Y116800298D01*
X344275000Y116895536D01*
X344322619Y116943155D01*
X344417857Y116990774D01*
X344513095Y116990774D01*
X344655952Y116943155D01*
X345227380Y116371727D01*
X345227380Y116990774D01*
X344227380Y117895536D02*
X344227380Y117419346D01*
X344703571Y117371727D01*
X344655952Y117419346D01*
X344608333Y117514584D01*
X344608333Y117752679D01*
X344655952Y117847917D01*
X344703571Y117895536D01*
X344798809Y117943155D01*
X345036904Y117943155D01*
X345132142Y117895536D01*
X345179761Y117847917D01*
X345227380Y117752679D01*
X345227380Y117514584D01*
X345179761Y117419346D01*
X345132142Y117371727D01*
%TO.C,D103*%
X230927380Y29265774D02*
X229927380Y29265774D01*
X229927380Y29503870D01*
X229975000Y29646727D01*
X230070238Y29741965D01*
X230165476Y29789584D01*
X230355952Y29837203D01*
X230498809Y29837203D01*
X230689285Y29789584D01*
X230784523Y29741965D01*
X230879761Y29646727D01*
X230927380Y29503870D01*
X230927380Y29265774D01*
X230927380Y30789584D02*
X230927380Y30218155D01*
X230927380Y30503870D02*
X229927380Y30503870D01*
X230070238Y30408631D01*
X230165476Y30313393D01*
X230213095Y30218155D01*
X229927380Y31408631D02*
X229927380Y31503870D01*
X229975000Y31599108D01*
X230022619Y31646727D01*
X230117857Y31694346D01*
X230308333Y31741965D01*
X230546428Y31741965D01*
X230736904Y31694346D01*
X230832142Y31646727D01*
X230879761Y31599108D01*
X230927380Y31503870D01*
X230927380Y31408631D01*
X230879761Y31313393D01*
X230832142Y31265774D01*
X230736904Y31218155D01*
X230546428Y31170536D01*
X230308333Y31170536D01*
X230117857Y31218155D01*
X230022619Y31265774D01*
X229975000Y31313393D01*
X229927380Y31408631D01*
X229927380Y32075298D02*
X229927380Y32694346D01*
X230308333Y32361012D01*
X230308333Y32503870D01*
X230355952Y32599108D01*
X230403571Y32646727D01*
X230498809Y32694346D01*
X230736904Y32694346D01*
X230832142Y32646727D01*
X230879761Y32599108D01*
X230927380Y32503870D01*
X230927380Y32218155D01*
X230879761Y32122917D01*
X230832142Y32075298D01*
%TO.C,D89*%
X407139880Y48791965D02*
X406139880Y48791965D01*
X406139880Y49030060D01*
X406187500Y49172917D01*
X406282738Y49268155D01*
X406377976Y49315774D01*
X406568452Y49363393D01*
X406711309Y49363393D01*
X406901785Y49315774D01*
X406997023Y49268155D01*
X407092261Y49172917D01*
X407139880Y49030060D01*
X407139880Y48791965D01*
X406568452Y49934822D02*
X406520833Y49839584D01*
X406473214Y49791965D01*
X406377976Y49744346D01*
X406330357Y49744346D01*
X406235119Y49791965D01*
X406187500Y49839584D01*
X406139880Y49934822D01*
X406139880Y50125298D01*
X406187500Y50220536D01*
X406235119Y50268155D01*
X406330357Y50315774D01*
X406377976Y50315774D01*
X406473214Y50268155D01*
X406520833Y50220536D01*
X406568452Y50125298D01*
X406568452Y49934822D01*
X406616071Y49839584D01*
X406663690Y49791965D01*
X406758928Y49744346D01*
X406949404Y49744346D01*
X407044642Y49791965D01*
X407092261Y49839584D01*
X407139880Y49934822D01*
X407139880Y50125298D01*
X407092261Y50220536D01*
X407044642Y50268155D01*
X406949404Y50315774D01*
X406758928Y50315774D01*
X406663690Y50268155D01*
X406616071Y50220536D01*
X406568452Y50125298D01*
X407139880Y50791965D02*
X407139880Y50982441D01*
X407092261Y51077679D01*
X407044642Y51125298D01*
X406901785Y51220536D01*
X406711309Y51268155D01*
X406330357Y51268155D01*
X406235119Y51220536D01*
X406187500Y51172917D01*
X406139880Y51077679D01*
X406139880Y50887203D01*
X406187500Y50791965D01*
X406235119Y50744346D01*
X406330357Y50696727D01*
X406568452Y50696727D01*
X406663690Y50744346D01*
X406711309Y50791965D01*
X406758928Y50887203D01*
X406758928Y51077679D01*
X406711309Y51172917D01*
X406663690Y51220536D01*
X406568452Y51268155D01*
%TO.C,D71*%
X426189880Y67841965D02*
X425189880Y67841965D01*
X425189880Y68080060D01*
X425237500Y68222917D01*
X425332738Y68318155D01*
X425427976Y68365774D01*
X425618452Y68413393D01*
X425761309Y68413393D01*
X425951785Y68365774D01*
X426047023Y68318155D01*
X426142261Y68222917D01*
X426189880Y68080060D01*
X426189880Y67841965D01*
X425189880Y68746727D02*
X425189880Y69413393D01*
X426189880Y68984822D01*
X426189880Y70318155D02*
X426189880Y69746727D01*
X426189880Y70032441D02*
X425189880Y70032441D01*
X425332738Y69937203D01*
X425427976Y69841965D01*
X425475595Y69746727D01*
%TO.C,D47*%
X407139880Y86891965D02*
X406139880Y86891965D01*
X406139880Y87130060D01*
X406187500Y87272917D01*
X406282738Y87368155D01*
X406377976Y87415774D01*
X406568452Y87463393D01*
X406711309Y87463393D01*
X406901785Y87415774D01*
X406997023Y87368155D01*
X407092261Y87272917D01*
X407139880Y87130060D01*
X407139880Y86891965D01*
X406473214Y88320536D02*
X407139880Y88320536D01*
X406092261Y88082441D02*
X406806547Y87844346D01*
X406806547Y88463393D01*
X406139880Y88749108D02*
X406139880Y89415774D01*
X407139880Y88987203D01*
%TO.C,D59*%
X178539880Y67841965D02*
X177539880Y67841965D01*
X177539880Y68080060D01*
X177587500Y68222917D01*
X177682738Y68318155D01*
X177777976Y68365774D01*
X177968452Y68413393D01*
X178111309Y68413393D01*
X178301785Y68365774D01*
X178397023Y68318155D01*
X178492261Y68222917D01*
X178539880Y68080060D01*
X178539880Y67841965D01*
X177539880Y69318155D02*
X177539880Y68841965D01*
X178016071Y68794346D01*
X177968452Y68841965D01*
X177920833Y68937203D01*
X177920833Y69175298D01*
X177968452Y69270536D01*
X178016071Y69318155D01*
X178111309Y69365774D01*
X178349404Y69365774D01*
X178444642Y69318155D01*
X178492261Y69270536D01*
X178539880Y69175298D01*
X178539880Y68937203D01*
X178492261Y68841965D01*
X178444642Y68794346D01*
X178539880Y69841965D02*
X178539880Y70032441D01*
X178492261Y70127679D01*
X178444642Y70175298D01*
X178301785Y70270536D01*
X178111309Y70318155D01*
X177730357Y70318155D01*
X177635119Y70270536D01*
X177587500Y70222917D01*
X177539880Y70127679D01*
X177539880Y69937203D01*
X177587500Y69841965D01*
X177635119Y69794346D01*
X177730357Y69746727D01*
X177968452Y69746727D01*
X178063690Y69794346D01*
X178111309Y69841965D01*
X178158928Y69937203D01*
X178158928Y70127679D01*
X178111309Y70222917D01*
X178063690Y70270536D01*
X177968452Y70318155D01*
%TO.C,D51*%
X11852380Y67841965D02*
X10852380Y67841965D01*
X10852380Y68080060D01*
X10900000Y68222917D01*
X10995238Y68318155D01*
X11090476Y68365774D01*
X11280952Y68413393D01*
X11423809Y68413393D01*
X11614285Y68365774D01*
X11709523Y68318155D01*
X11804761Y68222917D01*
X11852380Y68080060D01*
X11852380Y67841965D01*
X10852380Y69318155D02*
X10852380Y68841965D01*
X11328571Y68794346D01*
X11280952Y68841965D01*
X11233333Y68937203D01*
X11233333Y69175298D01*
X11280952Y69270536D01*
X11328571Y69318155D01*
X11423809Y69365774D01*
X11661904Y69365774D01*
X11757142Y69318155D01*
X11804761Y69270536D01*
X11852380Y69175298D01*
X11852380Y68937203D01*
X11804761Y68841965D01*
X11757142Y68794346D01*
X11852380Y70318155D02*
X11852380Y69746727D01*
X11852380Y70032441D02*
X10852380Y70032441D01*
X10995238Y69937203D01*
X11090476Y69841965D01*
X11138095Y69746727D01*
%TO.C,D82*%
X183302380Y48791965D02*
X182302380Y48791965D01*
X182302380Y49030060D01*
X182350000Y49172917D01*
X182445238Y49268155D01*
X182540476Y49315774D01*
X182730952Y49363393D01*
X182873809Y49363393D01*
X183064285Y49315774D01*
X183159523Y49268155D01*
X183254761Y49172917D01*
X183302380Y49030060D01*
X183302380Y48791965D01*
X182730952Y49934822D02*
X182683333Y49839584D01*
X182635714Y49791965D01*
X182540476Y49744346D01*
X182492857Y49744346D01*
X182397619Y49791965D01*
X182350000Y49839584D01*
X182302380Y49934822D01*
X182302380Y50125298D01*
X182350000Y50220536D01*
X182397619Y50268155D01*
X182492857Y50315774D01*
X182540476Y50315774D01*
X182635714Y50268155D01*
X182683333Y50220536D01*
X182730952Y50125298D01*
X182730952Y49934822D01*
X182778571Y49839584D01*
X182826190Y49791965D01*
X182921428Y49744346D01*
X183111904Y49744346D01*
X183207142Y49791965D01*
X183254761Y49839584D01*
X183302380Y49934822D01*
X183302380Y50125298D01*
X183254761Y50220536D01*
X183207142Y50268155D01*
X183111904Y50315774D01*
X182921428Y50315774D01*
X182826190Y50268155D01*
X182778571Y50220536D01*
X182730952Y50125298D01*
X182397619Y50696727D02*
X182350000Y50744346D01*
X182302380Y50839584D01*
X182302380Y51077679D01*
X182350000Y51172917D01*
X182397619Y51220536D01*
X182492857Y51268155D01*
X182588095Y51268155D01*
X182730952Y51220536D01*
X183302380Y50649108D01*
X183302380Y51268155D01*
%TO.C,D124*%
X407139880Y10215774D02*
X406139880Y10215774D01*
X406139880Y10453870D01*
X406187500Y10596727D01*
X406282738Y10691965D01*
X406377976Y10739584D01*
X406568452Y10787203D01*
X406711309Y10787203D01*
X406901785Y10739584D01*
X406997023Y10691965D01*
X407092261Y10596727D01*
X407139880Y10453870D01*
X407139880Y10215774D01*
X407139880Y11739584D02*
X407139880Y11168155D01*
X407139880Y11453870D02*
X406139880Y11453870D01*
X406282738Y11358631D01*
X406377976Y11263393D01*
X406425595Y11168155D01*
X406235119Y12120536D02*
X406187500Y12168155D01*
X406139880Y12263393D01*
X406139880Y12501489D01*
X406187500Y12596727D01*
X406235119Y12644346D01*
X406330357Y12691965D01*
X406425595Y12691965D01*
X406568452Y12644346D01*
X407139880Y12072917D01*
X407139880Y12691965D01*
X406473214Y13549108D02*
X407139880Y13549108D01*
X406092261Y13311012D02*
X406806547Y13072917D01*
X406806547Y13691965D01*
%TO.C,D125*%
X426189880Y10215774D02*
X425189880Y10215774D01*
X425189880Y10453870D01*
X425237500Y10596727D01*
X425332738Y10691965D01*
X425427976Y10739584D01*
X425618452Y10787203D01*
X425761309Y10787203D01*
X425951785Y10739584D01*
X426047023Y10691965D01*
X426142261Y10596727D01*
X426189880Y10453870D01*
X426189880Y10215774D01*
X426189880Y11739584D02*
X426189880Y11168155D01*
X426189880Y11453870D02*
X425189880Y11453870D01*
X425332738Y11358631D01*
X425427976Y11263393D01*
X425475595Y11168155D01*
X425285119Y12120536D02*
X425237500Y12168155D01*
X425189880Y12263393D01*
X425189880Y12501489D01*
X425237500Y12596727D01*
X425285119Y12644346D01*
X425380357Y12691965D01*
X425475595Y12691965D01*
X425618452Y12644346D01*
X426189880Y12072917D01*
X426189880Y12691965D01*
X425189880Y13596727D02*
X425189880Y13120536D01*
X425666071Y13072917D01*
X425618452Y13120536D01*
X425570833Y13215774D01*
X425570833Y13453870D01*
X425618452Y13549108D01*
X425666071Y13596727D01*
X425761309Y13644346D01*
X425999404Y13644346D01*
X426094642Y13596727D01*
X426142261Y13549108D01*
X426189880Y13453870D01*
X426189880Y13215774D01*
X426142261Y13120536D01*
X426094642Y13072917D01*
%TO.C,D78*%
X107102380Y48791965D02*
X106102380Y48791965D01*
X106102380Y49030060D01*
X106150000Y49172917D01*
X106245238Y49268155D01*
X106340476Y49315774D01*
X106530952Y49363393D01*
X106673809Y49363393D01*
X106864285Y49315774D01*
X106959523Y49268155D01*
X107054761Y49172917D01*
X107102380Y49030060D01*
X107102380Y48791965D01*
X106102380Y49696727D02*
X106102380Y50363393D01*
X107102380Y49934822D01*
X106530952Y50887203D02*
X106483333Y50791965D01*
X106435714Y50744346D01*
X106340476Y50696727D01*
X106292857Y50696727D01*
X106197619Y50744346D01*
X106150000Y50791965D01*
X106102380Y50887203D01*
X106102380Y51077679D01*
X106150000Y51172917D01*
X106197619Y51220536D01*
X106292857Y51268155D01*
X106340476Y51268155D01*
X106435714Y51220536D01*
X106483333Y51172917D01*
X106530952Y51077679D01*
X106530952Y50887203D01*
X106578571Y50791965D01*
X106626190Y50744346D01*
X106721428Y50696727D01*
X106911904Y50696727D01*
X107007142Y50744346D01*
X107054761Y50791965D01*
X107102380Y50887203D01*
X107102380Y51077679D01*
X107054761Y51172917D01*
X107007142Y51220536D01*
X106911904Y51268155D01*
X106721428Y51268155D01*
X106626190Y51220536D01*
X106578571Y51172917D01*
X106530952Y51077679D01*
%TO.C,D58*%
X159489880Y67841965D02*
X158489880Y67841965D01*
X158489880Y68080060D01*
X158537500Y68222917D01*
X158632738Y68318155D01*
X158727976Y68365774D01*
X158918452Y68413393D01*
X159061309Y68413393D01*
X159251785Y68365774D01*
X159347023Y68318155D01*
X159442261Y68222917D01*
X159489880Y68080060D01*
X159489880Y67841965D01*
X158489880Y69318155D02*
X158489880Y68841965D01*
X158966071Y68794346D01*
X158918452Y68841965D01*
X158870833Y68937203D01*
X158870833Y69175298D01*
X158918452Y69270536D01*
X158966071Y69318155D01*
X159061309Y69365774D01*
X159299404Y69365774D01*
X159394642Y69318155D01*
X159442261Y69270536D01*
X159489880Y69175298D01*
X159489880Y68937203D01*
X159442261Y68841965D01*
X159394642Y68794346D01*
X158918452Y69937203D02*
X158870833Y69841965D01*
X158823214Y69794346D01*
X158727976Y69746727D01*
X158680357Y69746727D01*
X158585119Y69794346D01*
X158537500Y69841965D01*
X158489880Y69937203D01*
X158489880Y70127679D01*
X158537500Y70222917D01*
X158585119Y70270536D01*
X158680357Y70318155D01*
X158727976Y70318155D01*
X158823214Y70270536D01*
X158870833Y70222917D01*
X158918452Y70127679D01*
X158918452Y69937203D01*
X158966071Y69841965D01*
X159013690Y69794346D01*
X159108928Y69746727D01*
X159299404Y69746727D01*
X159394642Y69794346D01*
X159442261Y69841965D01*
X159489880Y69937203D01*
X159489880Y70127679D01*
X159442261Y70222917D01*
X159394642Y70270536D01*
X159299404Y70318155D01*
X159108928Y70318155D01*
X159013690Y70270536D01*
X158966071Y70222917D01*
X158918452Y70127679D01*
%TO.C,D1*%
X11852380Y134993155D02*
X10852380Y134993155D01*
X10852380Y135231250D01*
X10900000Y135374108D01*
X10995238Y135469346D01*
X11090476Y135516965D01*
X11280952Y135564584D01*
X11423809Y135564584D01*
X11614285Y135516965D01*
X11709523Y135469346D01*
X11804761Y135374108D01*
X11852380Y135231250D01*
X11852380Y134993155D01*
X11852380Y136516965D02*
X11852380Y135945536D01*
X11852380Y136231250D02*
X10852380Y136231250D01*
X10995238Y136136012D01*
X11090476Y136040774D01*
X11138095Y135945536D01*
%TO.C,D116*%
X176158630Y10215774D02*
X175158630Y10215774D01*
X175158630Y10453870D01*
X175206250Y10596727D01*
X175301488Y10691965D01*
X175396726Y10739584D01*
X175587202Y10787203D01*
X175730059Y10787203D01*
X175920535Y10739584D01*
X176015773Y10691965D01*
X176111011Y10596727D01*
X176158630Y10453870D01*
X176158630Y10215774D01*
X176158630Y11739584D02*
X176158630Y11168155D01*
X176158630Y11453870D02*
X175158630Y11453870D01*
X175301488Y11358631D01*
X175396726Y11263393D01*
X175444345Y11168155D01*
X176158630Y12691965D02*
X176158630Y12120536D01*
X176158630Y12406250D02*
X175158630Y12406250D01*
X175301488Y12311012D01*
X175396726Y12215774D01*
X175444345Y12120536D01*
X175158630Y13549108D02*
X175158630Y13358631D01*
X175206250Y13263393D01*
X175253869Y13215774D01*
X175396726Y13120536D01*
X175587202Y13072917D01*
X175968154Y13072917D01*
X176063392Y13120536D01*
X176111011Y13168155D01*
X176158630Y13263393D01*
X176158630Y13453870D01*
X176111011Y13549108D01*
X176063392Y13596727D01*
X175968154Y13644346D01*
X175730059Y13644346D01*
X175634821Y13596727D01*
X175587202Y13549108D01*
X175539583Y13453870D01*
X175539583Y13263393D01*
X175587202Y13168155D01*
X175634821Y13120536D01*
X175730059Y13072917D01*
%TO.C,D27*%
X383327380Y115466965D02*
X382327380Y115466965D01*
X382327380Y115705060D01*
X382375000Y115847917D01*
X382470238Y115943155D01*
X382565476Y115990774D01*
X382755952Y116038393D01*
X382898809Y116038393D01*
X383089285Y115990774D01*
X383184523Y115943155D01*
X383279761Y115847917D01*
X383327380Y115705060D01*
X383327380Y115466965D01*
X382422619Y116419346D02*
X382375000Y116466965D01*
X382327380Y116562203D01*
X382327380Y116800298D01*
X382375000Y116895536D01*
X382422619Y116943155D01*
X382517857Y116990774D01*
X382613095Y116990774D01*
X382755952Y116943155D01*
X383327380Y116371727D01*
X383327380Y116990774D01*
X382327380Y117324108D02*
X382327380Y117990774D01*
X383327380Y117562203D01*
%TO.C,D24*%
X321414880Y115466965D02*
X320414880Y115466965D01*
X320414880Y115705060D01*
X320462500Y115847917D01*
X320557738Y115943155D01*
X320652976Y115990774D01*
X320843452Y116038393D01*
X320986309Y116038393D01*
X321176785Y115990774D01*
X321272023Y115943155D01*
X321367261Y115847917D01*
X321414880Y115705060D01*
X321414880Y115466965D01*
X320510119Y116419346D02*
X320462500Y116466965D01*
X320414880Y116562203D01*
X320414880Y116800298D01*
X320462500Y116895536D01*
X320510119Y116943155D01*
X320605357Y116990774D01*
X320700595Y116990774D01*
X320843452Y116943155D01*
X321414880Y116371727D01*
X321414880Y116990774D01*
X320748214Y117847917D02*
X321414880Y117847917D01*
X320367261Y117609822D02*
X321081547Y117371727D01*
X321081547Y117990774D01*
%TO.C,D17*%
X178539880Y115466965D02*
X177539880Y115466965D01*
X177539880Y115705060D01*
X177587500Y115847917D01*
X177682738Y115943155D01*
X177777976Y115990774D01*
X177968452Y116038393D01*
X178111309Y116038393D01*
X178301785Y115990774D01*
X178397023Y115943155D01*
X178492261Y115847917D01*
X178539880Y115705060D01*
X178539880Y115466965D01*
X178539880Y116990774D02*
X178539880Y116419346D01*
X178539880Y116705060D02*
X177539880Y116705060D01*
X177682738Y116609822D01*
X177777976Y116514584D01*
X177825595Y116419346D01*
X177539880Y117324108D02*
X177539880Y117990774D01*
X178539880Y117562203D01*
%TO.C,D43*%
X311889880Y86891965D02*
X310889880Y86891965D01*
X310889880Y87130060D01*
X310937500Y87272917D01*
X311032738Y87368155D01*
X311127976Y87415774D01*
X311318452Y87463393D01*
X311461309Y87463393D01*
X311651785Y87415774D01*
X311747023Y87368155D01*
X311842261Y87272917D01*
X311889880Y87130060D01*
X311889880Y86891965D01*
X311223214Y88320536D02*
X311889880Y88320536D01*
X310842261Y88082441D02*
X311556547Y87844346D01*
X311556547Y88463393D01*
X310889880Y88749108D02*
X310889880Y89368155D01*
X311270833Y89034822D01*
X311270833Y89177679D01*
X311318452Y89272917D01*
X311366071Y89320536D01*
X311461309Y89368155D01*
X311699404Y89368155D01*
X311794642Y89320536D01*
X311842261Y89272917D01*
X311889880Y89177679D01*
X311889880Y88891965D01*
X311842261Y88796727D01*
X311794642Y88749108D01*
%TO.C,D113*%
X57096130Y10215774D02*
X56096130Y10215774D01*
X56096130Y10453870D01*
X56143750Y10596727D01*
X56238988Y10691965D01*
X56334226Y10739584D01*
X56524702Y10787203D01*
X56667559Y10787203D01*
X56858035Y10739584D01*
X56953273Y10691965D01*
X57048511Y10596727D01*
X57096130Y10453870D01*
X57096130Y10215774D01*
X57096130Y11739584D02*
X57096130Y11168155D01*
X57096130Y11453870D02*
X56096130Y11453870D01*
X56238988Y11358631D01*
X56334226Y11263393D01*
X56381845Y11168155D01*
X57096130Y12691965D02*
X57096130Y12120536D01*
X57096130Y12406250D02*
X56096130Y12406250D01*
X56238988Y12311012D01*
X56334226Y12215774D01*
X56381845Y12120536D01*
X56096130Y13025298D02*
X56096130Y13644346D01*
X56477083Y13311012D01*
X56477083Y13453870D01*
X56524702Y13549108D01*
X56572321Y13596727D01*
X56667559Y13644346D01*
X56905654Y13644346D01*
X57000892Y13596727D01*
X57048511Y13549108D01*
X57096130Y13453870D01*
X57096130Y13168155D01*
X57048511Y13072917D01*
X57000892Y13025298D01*
%TO.C,D76*%
X61858630Y48791965D02*
X60858630Y48791965D01*
X60858630Y49030060D01*
X60906250Y49172917D01*
X61001488Y49268155D01*
X61096726Y49315774D01*
X61287202Y49363393D01*
X61430059Y49363393D01*
X61620535Y49315774D01*
X61715773Y49268155D01*
X61811011Y49172917D01*
X61858630Y49030060D01*
X61858630Y48791965D01*
X60858630Y49696727D02*
X60858630Y50363393D01*
X61858630Y49934822D01*
X60858630Y51172917D02*
X60858630Y50982441D01*
X60906250Y50887203D01*
X60953869Y50839584D01*
X61096726Y50744346D01*
X61287202Y50696727D01*
X61668154Y50696727D01*
X61763392Y50744346D01*
X61811011Y50791965D01*
X61858630Y50887203D01*
X61858630Y51077679D01*
X61811011Y51172917D01*
X61763392Y51220536D01*
X61668154Y51268155D01*
X61430059Y51268155D01*
X61334821Y51220536D01*
X61287202Y51172917D01*
X61239583Y51077679D01*
X61239583Y50887203D01*
X61287202Y50791965D01*
X61334821Y50744346D01*
X61430059Y50696727D01*
%TO.C,D60*%
X197589880Y67841965D02*
X196589880Y67841965D01*
X196589880Y68080060D01*
X196637500Y68222917D01*
X196732738Y68318155D01*
X196827976Y68365774D01*
X197018452Y68413393D01*
X197161309Y68413393D01*
X197351785Y68365774D01*
X197447023Y68318155D01*
X197542261Y68222917D01*
X197589880Y68080060D01*
X197589880Y67841965D01*
X196589880Y69270536D02*
X196589880Y69080060D01*
X196637500Y68984822D01*
X196685119Y68937203D01*
X196827976Y68841965D01*
X197018452Y68794346D01*
X197399404Y68794346D01*
X197494642Y68841965D01*
X197542261Y68889584D01*
X197589880Y68984822D01*
X197589880Y69175298D01*
X197542261Y69270536D01*
X197494642Y69318155D01*
X197399404Y69365774D01*
X197161309Y69365774D01*
X197066071Y69318155D01*
X197018452Y69270536D01*
X196970833Y69175298D01*
X196970833Y68984822D01*
X197018452Y68889584D01*
X197066071Y68841965D01*
X197161309Y68794346D01*
X196589880Y69984822D02*
X196589880Y70080060D01*
X196637500Y70175298D01*
X196685119Y70222917D01*
X196780357Y70270536D01*
X196970833Y70318155D01*
X197208928Y70318155D01*
X197399404Y70270536D01*
X197494642Y70222917D01*
X197542261Y70175298D01*
X197589880Y70080060D01*
X197589880Y69984822D01*
X197542261Y69889584D01*
X197494642Y69841965D01*
X197399404Y69794346D01*
X197208928Y69746727D01*
X196970833Y69746727D01*
X196780357Y69794346D01*
X196685119Y69841965D01*
X196637500Y69889584D01*
X196589880Y69984822D01*
%TO.C,D20*%
X235689880Y115466965D02*
X234689880Y115466965D01*
X234689880Y115705060D01*
X234737500Y115847917D01*
X234832738Y115943155D01*
X234927976Y115990774D01*
X235118452Y116038393D01*
X235261309Y116038393D01*
X235451785Y115990774D01*
X235547023Y115943155D01*
X235642261Y115847917D01*
X235689880Y115705060D01*
X235689880Y115466965D01*
X234785119Y116419346D02*
X234737500Y116466965D01*
X234689880Y116562203D01*
X234689880Y116800298D01*
X234737500Y116895536D01*
X234785119Y116943155D01*
X234880357Y116990774D01*
X234975595Y116990774D01*
X235118452Y116943155D01*
X235689880Y116371727D01*
X235689880Y116990774D01*
X234689880Y117609822D02*
X234689880Y117705060D01*
X234737500Y117800298D01*
X234785119Y117847917D01*
X234880357Y117895536D01*
X235070833Y117943155D01*
X235308928Y117943155D01*
X235499404Y117895536D01*
X235594642Y117847917D01*
X235642261Y117800298D01*
X235689880Y117705060D01*
X235689880Y117609822D01*
X235642261Y117514584D01*
X235594642Y117466965D01*
X235499404Y117419346D01*
X235308928Y117371727D01*
X235070833Y117371727D01*
X234880357Y117419346D01*
X234785119Y117466965D01*
X234737500Y117514584D01*
X234689880Y117609822D01*
%TO.C,D72*%
X445239880Y67841965D02*
X444239880Y67841965D01*
X444239880Y68080060D01*
X444287500Y68222917D01*
X444382738Y68318155D01*
X444477976Y68365774D01*
X444668452Y68413393D01*
X444811309Y68413393D01*
X445001785Y68365774D01*
X445097023Y68318155D01*
X445192261Y68222917D01*
X445239880Y68080060D01*
X445239880Y67841965D01*
X444239880Y68746727D02*
X444239880Y69413393D01*
X445239880Y68984822D01*
X444335119Y69746727D02*
X444287500Y69794346D01*
X444239880Y69889584D01*
X444239880Y70127679D01*
X444287500Y70222917D01*
X444335119Y70270536D01*
X444430357Y70318155D01*
X444525595Y70318155D01*
X444668452Y70270536D01*
X445239880Y69699108D01*
X445239880Y70318155D01*
%TO.C,D54*%
X83289880Y67841965D02*
X82289880Y67841965D01*
X82289880Y68080060D01*
X82337500Y68222917D01*
X82432738Y68318155D01*
X82527976Y68365774D01*
X82718452Y68413393D01*
X82861309Y68413393D01*
X83051785Y68365774D01*
X83147023Y68318155D01*
X83242261Y68222917D01*
X83289880Y68080060D01*
X83289880Y67841965D01*
X82289880Y69318155D02*
X82289880Y68841965D01*
X82766071Y68794346D01*
X82718452Y68841965D01*
X82670833Y68937203D01*
X82670833Y69175298D01*
X82718452Y69270536D01*
X82766071Y69318155D01*
X82861309Y69365774D01*
X83099404Y69365774D01*
X83194642Y69318155D01*
X83242261Y69270536D01*
X83289880Y69175298D01*
X83289880Y68937203D01*
X83242261Y68841965D01*
X83194642Y68794346D01*
X82623214Y70222917D02*
X83289880Y70222917D01*
X82242261Y69984822D02*
X82956547Y69746727D01*
X82956547Y70365774D01*
%TO.C,DT4*%
X326396130Y125880953D02*
X325396130Y125880953D01*
X325396130Y126119048D01*
X325443750Y126261905D01*
X325538988Y126357143D01*
X325634226Y126404762D01*
X325824702Y126452381D01*
X325967559Y126452381D01*
X326158035Y126404762D01*
X326253273Y126357143D01*
X326348511Y126261905D01*
X326396130Y126119048D01*
X326396130Y125880953D01*
X325396130Y126738096D02*
X325396130Y127309524D01*
X326396130Y127023810D02*
X325396130Y127023810D01*
X325729464Y128071429D02*
X326396130Y128071429D01*
X325348511Y127833334D02*
X326062797Y127595239D01*
X326062797Y128214286D01*
%TO.C,D57*%
X140439880Y67841965D02*
X139439880Y67841965D01*
X139439880Y68080060D01*
X139487500Y68222917D01*
X139582738Y68318155D01*
X139677976Y68365774D01*
X139868452Y68413393D01*
X140011309Y68413393D01*
X140201785Y68365774D01*
X140297023Y68318155D01*
X140392261Y68222917D01*
X140439880Y68080060D01*
X140439880Y67841965D01*
X139439880Y69318155D02*
X139439880Y68841965D01*
X139916071Y68794346D01*
X139868452Y68841965D01*
X139820833Y68937203D01*
X139820833Y69175298D01*
X139868452Y69270536D01*
X139916071Y69318155D01*
X140011309Y69365774D01*
X140249404Y69365774D01*
X140344642Y69318155D01*
X140392261Y69270536D01*
X140439880Y69175298D01*
X140439880Y68937203D01*
X140392261Y68841965D01*
X140344642Y68794346D01*
X139439880Y69699108D02*
X139439880Y70365774D01*
X140439880Y69937203D01*
%TO.C,D101*%
X192827380Y29265774D02*
X191827380Y29265774D01*
X191827380Y29503870D01*
X191875000Y29646727D01*
X191970238Y29741965D01*
X192065476Y29789584D01*
X192255952Y29837203D01*
X192398809Y29837203D01*
X192589285Y29789584D01*
X192684523Y29741965D01*
X192779761Y29646727D01*
X192827380Y29503870D01*
X192827380Y29265774D01*
X192827380Y30789584D02*
X192827380Y30218155D01*
X192827380Y30503870D02*
X191827380Y30503870D01*
X191970238Y30408631D01*
X192065476Y30313393D01*
X192113095Y30218155D01*
X191827380Y31408631D02*
X191827380Y31503870D01*
X191875000Y31599108D01*
X191922619Y31646727D01*
X192017857Y31694346D01*
X192208333Y31741965D01*
X192446428Y31741965D01*
X192636904Y31694346D01*
X192732142Y31646727D01*
X192779761Y31599108D01*
X192827380Y31503870D01*
X192827380Y31408631D01*
X192779761Y31313393D01*
X192732142Y31265774D01*
X192636904Y31218155D01*
X192446428Y31170536D01*
X192208333Y31170536D01*
X192017857Y31218155D01*
X191922619Y31265774D01*
X191875000Y31313393D01*
X191827380Y31408631D01*
X192827380Y32694346D02*
X192827380Y32122917D01*
X192827380Y32408631D02*
X191827380Y32408631D01*
X191970238Y32313393D01*
X192065476Y32218155D01*
X192113095Y32122917D01*
%TO.C,D2*%
X92814880Y134993155D02*
X91814880Y134993155D01*
X91814880Y135231250D01*
X91862500Y135374108D01*
X91957738Y135469346D01*
X92052976Y135516965D01*
X92243452Y135564584D01*
X92386309Y135564584D01*
X92576785Y135516965D01*
X92672023Y135469346D01*
X92767261Y135374108D01*
X92814880Y135231250D01*
X92814880Y134993155D01*
X91910119Y135945536D02*
X91862500Y135993155D01*
X91814880Y136088393D01*
X91814880Y136326489D01*
X91862500Y136421727D01*
X91910119Y136469346D01*
X92005357Y136516965D01*
X92100595Y136516965D01*
X92243452Y136469346D01*
X92814880Y135897917D01*
X92814880Y136516965D01*
%TO.C,D120*%
X319033630Y10215774D02*
X318033630Y10215774D01*
X318033630Y10453870D01*
X318081250Y10596727D01*
X318176488Y10691965D01*
X318271726Y10739584D01*
X318462202Y10787203D01*
X318605059Y10787203D01*
X318795535Y10739584D01*
X318890773Y10691965D01*
X318986011Y10596727D01*
X319033630Y10453870D01*
X319033630Y10215774D01*
X319033630Y11739584D02*
X319033630Y11168155D01*
X319033630Y11453870D02*
X318033630Y11453870D01*
X318176488Y11358631D01*
X318271726Y11263393D01*
X318319345Y11168155D01*
X318128869Y12120536D02*
X318081250Y12168155D01*
X318033630Y12263393D01*
X318033630Y12501489D01*
X318081250Y12596727D01*
X318128869Y12644346D01*
X318224107Y12691965D01*
X318319345Y12691965D01*
X318462202Y12644346D01*
X319033630Y12072917D01*
X319033630Y12691965D01*
X318033630Y13311012D02*
X318033630Y13406250D01*
X318081250Y13501489D01*
X318128869Y13549108D01*
X318224107Y13596727D01*
X318414583Y13644346D01*
X318652678Y13644346D01*
X318843154Y13596727D01*
X318938392Y13549108D01*
X318986011Y13501489D01*
X319033630Y13406250D01*
X319033630Y13311012D01*
X318986011Y13215774D01*
X318938392Y13168155D01*
X318843154Y13120536D01*
X318652678Y13072917D01*
X318414583Y13072917D01*
X318224107Y13120536D01*
X318128869Y13168155D01*
X318081250Y13215774D01*
X318033630Y13311012D01*
%TO.C,D95*%
X66621130Y29741965D02*
X65621130Y29741965D01*
X65621130Y29980060D01*
X65668750Y30122917D01*
X65763988Y30218155D01*
X65859226Y30265774D01*
X66049702Y30313393D01*
X66192559Y30313393D01*
X66383035Y30265774D01*
X66478273Y30218155D01*
X66573511Y30122917D01*
X66621130Y29980060D01*
X66621130Y29741965D01*
X66621130Y30789584D02*
X66621130Y30980060D01*
X66573511Y31075298D01*
X66525892Y31122917D01*
X66383035Y31218155D01*
X66192559Y31265774D01*
X65811607Y31265774D01*
X65716369Y31218155D01*
X65668750Y31170536D01*
X65621130Y31075298D01*
X65621130Y30884822D01*
X65668750Y30789584D01*
X65716369Y30741965D01*
X65811607Y30694346D01*
X66049702Y30694346D01*
X66144940Y30741965D01*
X66192559Y30789584D01*
X66240178Y30884822D01*
X66240178Y31075298D01*
X66192559Y31170536D01*
X66144940Y31218155D01*
X66049702Y31265774D01*
X65621130Y32170536D02*
X65621130Y31694346D01*
X66097321Y31646727D01*
X66049702Y31694346D01*
X66002083Y31789584D01*
X66002083Y32027679D01*
X66049702Y32122917D01*
X66097321Y32170536D01*
X66192559Y32218155D01*
X66430654Y32218155D01*
X66525892Y32170536D01*
X66573511Y32122917D01*
X66621130Y32027679D01*
X66621130Y31789584D01*
X66573511Y31694346D01*
X66525892Y31646727D01*
%TO.C,D8*%
X216639880Y134993155D02*
X215639880Y134993155D01*
X215639880Y135231250D01*
X215687500Y135374108D01*
X215782738Y135469346D01*
X215877976Y135516965D01*
X216068452Y135564584D01*
X216211309Y135564584D01*
X216401785Y135516965D01*
X216497023Y135469346D01*
X216592261Y135374108D01*
X216639880Y135231250D01*
X216639880Y134993155D01*
X216068452Y136136012D02*
X216020833Y136040774D01*
X215973214Y135993155D01*
X215877976Y135945536D01*
X215830357Y135945536D01*
X215735119Y135993155D01*
X215687500Y136040774D01*
X215639880Y136136012D01*
X215639880Y136326489D01*
X215687500Y136421727D01*
X215735119Y136469346D01*
X215830357Y136516965D01*
X215877976Y136516965D01*
X215973214Y136469346D01*
X216020833Y136421727D01*
X216068452Y136326489D01*
X216068452Y136136012D01*
X216116071Y136040774D01*
X216163690Y135993155D01*
X216258928Y135945536D01*
X216449404Y135945536D01*
X216544642Y135993155D01*
X216592261Y136040774D01*
X216639880Y136136012D01*
X216639880Y136326489D01*
X216592261Y136421727D01*
X216544642Y136469346D01*
X216449404Y136516965D01*
X216258928Y136516965D01*
X216163690Y136469346D01*
X216116071Y136421727D01*
X216068452Y136326489D01*
%TO.C,DT1*%
X269246130Y125880953D02*
X268246130Y125880953D01*
X268246130Y126119048D01*
X268293750Y126261905D01*
X268388988Y126357143D01*
X268484226Y126404762D01*
X268674702Y126452381D01*
X268817559Y126452381D01*
X269008035Y126404762D01*
X269103273Y126357143D01*
X269198511Y126261905D01*
X269246130Y126119048D01*
X269246130Y125880953D01*
X268246130Y126738096D02*
X268246130Y127309524D01*
X269246130Y127023810D02*
X268246130Y127023810D01*
X269246130Y128166667D02*
X269246130Y127595239D01*
X269246130Y127880953D02*
X268246130Y127880953D01*
X268388988Y127785715D01*
X268484226Y127690477D01*
X268531845Y127595239D01*
%TO.C,D63*%
X254739880Y67841965D02*
X253739880Y67841965D01*
X253739880Y68080060D01*
X253787500Y68222917D01*
X253882738Y68318155D01*
X253977976Y68365774D01*
X254168452Y68413393D01*
X254311309Y68413393D01*
X254501785Y68365774D01*
X254597023Y68318155D01*
X254692261Y68222917D01*
X254739880Y68080060D01*
X254739880Y67841965D01*
X253739880Y69270536D02*
X253739880Y69080060D01*
X253787500Y68984822D01*
X253835119Y68937203D01*
X253977976Y68841965D01*
X254168452Y68794346D01*
X254549404Y68794346D01*
X254644642Y68841965D01*
X254692261Y68889584D01*
X254739880Y68984822D01*
X254739880Y69175298D01*
X254692261Y69270536D01*
X254644642Y69318155D01*
X254549404Y69365774D01*
X254311309Y69365774D01*
X254216071Y69318155D01*
X254168452Y69270536D01*
X254120833Y69175298D01*
X254120833Y68984822D01*
X254168452Y68889584D01*
X254216071Y68841965D01*
X254311309Y68794346D01*
X253739880Y69699108D02*
X253739880Y70318155D01*
X254120833Y69984822D01*
X254120833Y70127679D01*
X254168452Y70222917D01*
X254216071Y70270536D01*
X254311309Y70318155D01*
X254549404Y70318155D01*
X254644642Y70270536D01*
X254692261Y70222917D01*
X254739880Y70127679D01*
X254739880Y69841965D01*
X254692261Y69746727D01*
X254644642Y69699108D01*
%TO.C,D80*%
X145202380Y48791965D02*
X144202380Y48791965D01*
X144202380Y49030060D01*
X144250000Y49172917D01*
X144345238Y49268155D01*
X144440476Y49315774D01*
X144630952Y49363393D01*
X144773809Y49363393D01*
X144964285Y49315774D01*
X145059523Y49268155D01*
X145154761Y49172917D01*
X145202380Y49030060D01*
X145202380Y48791965D01*
X144630952Y49934822D02*
X144583333Y49839584D01*
X144535714Y49791965D01*
X144440476Y49744346D01*
X144392857Y49744346D01*
X144297619Y49791965D01*
X144250000Y49839584D01*
X144202380Y49934822D01*
X144202380Y50125298D01*
X144250000Y50220536D01*
X144297619Y50268155D01*
X144392857Y50315774D01*
X144440476Y50315774D01*
X144535714Y50268155D01*
X144583333Y50220536D01*
X144630952Y50125298D01*
X144630952Y49934822D01*
X144678571Y49839584D01*
X144726190Y49791965D01*
X144821428Y49744346D01*
X145011904Y49744346D01*
X145107142Y49791965D01*
X145154761Y49839584D01*
X145202380Y49934822D01*
X145202380Y50125298D01*
X145154761Y50220536D01*
X145107142Y50268155D01*
X145011904Y50315774D01*
X144821428Y50315774D01*
X144726190Y50268155D01*
X144678571Y50220536D01*
X144630952Y50125298D01*
X144202380Y50934822D02*
X144202380Y51030060D01*
X144250000Y51125298D01*
X144297619Y51172917D01*
X144392857Y51220536D01*
X144583333Y51268155D01*
X144821428Y51268155D01*
X145011904Y51220536D01*
X145107142Y51172917D01*
X145154761Y51125298D01*
X145202380Y51030060D01*
X145202380Y50934822D01*
X145154761Y50839584D01*
X145107142Y50791965D01*
X145011904Y50744346D01*
X144821428Y50696727D01*
X144583333Y50696727D01*
X144392857Y50744346D01*
X144297619Y50791965D01*
X144250000Y50839584D01*
X144202380Y50934822D01*
%TO.C,D12*%
X383327380Y134516965D02*
X382327380Y134516965D01*
X382327380Y134755060D01*
X382375000Y134897917D01*
X382470238Y134993155D01*
X382565476Y135040774D01*
X382755952Y135088393D01*
X382898809Y135088393D01*
X383089285Y135040774D01*
X383184523Y134993155D01*
X383279761Y134897917D01*
X383327380Y134755060D01*
X383327380Y134516965D01*
X383327380Y136040774D02*
X383327380Y135469346D01*
X383327380Y135755060D02*
X382327380Y135755060D01*
X382470238Y135659822D01*
X382565476Y135564584D01*
X382613095Y135469346D01*
X382422619Y136421727D02*
X382375000Y136469346D01*
X382327380Y136564584D01*
X382327380Y136802679D01*
X382375000Y136897917D01*
X382422619Y136945536D01*
X382517857Y136993155D01*
X382613095Y136993155D01*
X382755952Y136945536D01*
X383327380Y136374108D01*
X383327380Y136993155D01*
%TO.C,D3*%
X111864880Y134993155D02*
X110864880Y134993155D01*
X110864880Y135231250D01*
X110912500Y135374108D01*
X111007738Y135469346D01*
X111102976Y135516965D01*
X111293452Y135564584D01*
X111436309Y135564584D01*
X111626785Y135516965D01*
X111722023Y135469346D01*
X111817261Y135374108D01*
X111864880Y135231250D01*
X111864880Y134993155D01*
X110864880Y135897917D02*
X110864880Y136516965D01*
X111245833Y136183631D01*
X111245833Y136326489D01*
X111293452Y136421727D01*
X111341071Y136469346D01*
X111436309Y136516965D01*
X111674404Y136516965D01*
X111769642Y136469346D01*
X111817261Y136421727D01*
X111864880Y136326489D01*
X111864880Y136040774D01*
X111817261Y135945536D01*
X111769642Y135897917D01*
%TO.C,D34*%
X130914880Y86891965D02*
X129914880Y86891965D01*
X129914880Y87130060D01*
X129962500Y87272917D01*
X130057738Y87368155D01*
X130152976Y87415774D01*
X130343452Y87463393D01*
X130486309Y87463393D01*
X130676785Y87415774D01*
X130772023Y87368155D01*
X130867261Y87272917D01*
X130914880Y87130060D01*
X130914880Y86891965D01*
X129914880Y87796727D02*
X129914880Y88415774D01*
X130295833Y88082441D01*
X130295833Y88225298D01*
X130343452Y88320536D01*
X130391071Y88368155D01*
X130486309Y88415774D01*
X130724404Y88415774D01*
X130819642Y88368155D01*
X130867261Y88320536D01*
X130914880Y88225298D01*
X130914880Y87939584D01*
X130867261Y87844346D01*
X130819642Y87796727D01*
X130248214Y89272917D02*
X130914880Y89272917D01*
X129867261Y89034822D02*
X130581547Y88796727D01*
X130581547Y89415774D01*
%TO.C,D104*%
X249977380Y29265774D02*
X248977380Y29265774D01*
X248977380Y29503870D01*
X249025000Y29646727D01*
X249120238Y29741965D01*
X249215476Y29789584D01*
X249405952Y29837203D01*
X249548809Y29837203D01*
X249739285Y29789584D01*
X249834523Y29741965D01*
X249929761Y29646727D01*
X249977380Y29503870D01*
X249977380Y29265774D01*
X249977380Y30789584D02*
X249977380Y30218155D01*
X249977380Y30503870D02*
X248977380Y30503870D01*
X249120238Y30408631D01*
X249215476Y30313393D01*
X249263095Y30218155D01*
X248977380Y31408631D02*
X248977380Y31503870D01*
X249025000Y31599108D01*
X249072619Y31646727D01*
X249167857Y31694346D01*
X249358333Y31741965D01*
X249596428Y31741965D01*
X249786904Y31694346D01*
X249882142Y31646727D01*
X249929761Y31599108D01*
X249977380Y31503870D01*
X249977380Y31408631D01*
X249929761Y31313393D01*
X249882142Y31265774D01*
X249786904Y31218155D01*
X249596428Y31170536D01*
X249358333Y31170536D01*
X249167857Y31218155D01*
X249072619Y31265774D01*
X249025000Y31313393D01*
X248977380Y31408631D01*
X249310714Y32599108D02*
X249977380Y32599108D01*
X248929761Y32361012D02*
X249644047Y32122917D01*
X249644047Y32741965D01*
%TO.C,D61*%
X216639880Y67841965D02*
X215639880Y67841965D01*
X215639880Y68080060D01*
X215687500Y68222917D01*
X215782738Y68318155D01*
X215877976Y68365774D01*
X216068452Y68413393D01*
X216211309Y68413393D01*
X216401785Y68365774D01*
X216497023Y68318155D01*
X216592261Y68222917D01*
X216639880Y68080060D01*
X216639880Y67841965D01*
X215639880Y69270536D02*
X215639880Y69080060D01*
X215687500Y68984822D01*
X215735119Y68937203D01*
X215877976Y68841965D01*
X216068452Y68794346D01*
X216449404Y68794346D01*
X216544642Y68841965D01*
X216592261Y68889584D01*
X216639880Y68984822D01*
X216639880Y69175298D01*
X216592261Y69270536D01*
X216544642Y69318155D01*
X216449404Y69365774D01*
X216211309Y69365774D01*
X216116071Y69318155D01*
X216068452Y69270536D01*
X216020833Y69175298D01*
X216020833Y68984822D01*
X216068452Y68889584D01*
X216116071Y68841965D01*
X216211309Y68794346D01*
X216639880Y70318155D02*
X216639880Y69746727D01*
X216639880Y70032441D02*
X215639880Y70032441D01*
X215782738Y69937203D01*
X215877976Y69841965D01*
X215925595Y69746727D01*
%TO.C,D97*%
X116627380Y29741965D02*
X115627380Y29741965D01*
X115627380Y29980060D01*
X115675000Y30122917D01*
X115770238Y30218155D01*
X115865476Y30265774D01*
X116055952Y30313393D01*
X116198809Y30313393D01*
X116389285Y30265774D01*
X116484523Y30218155D01*
X116579761Y30122917D01*
X116627380Y29980060D01*
X116627380Y29741965D01*
X116627380Y30789584D02*
X116627380Y30980060D01*
X116579761Y31075298D01*
X116532142Y31122917D01*
X116389285Y31218155D01*
X116198809Y31265774D01*
X115817857Y31265774D01*
X115722619Y31218155D01*
X115675000Y31170536D01*
X115627380Y31075298D01*
X115627380Y30884822D01*
X115675000Y30789584D01*
X115722619Y30741965D01*
X115817857Y30694346D01*
X116055952Y30694346D01*
X116151190Y30741965D01*
X116198809Y30789584D01*
X116246428Y30884822D01*
X116246428Y31075298D01*
X116198809Y31170536D01*
X116151190Y31218155D01*
X116055952Y31265774D01*
X115627380Y31599108D02*
X115627380Y32265774D01*
X116627380Y31837203D01*
%TO.C,D13*%
X92814880Y115466965D02*
X91814880Y115466965D01*
X91814880Y115705060D01*
X91862500Y115847917D01*
X91957738Y115943155D01*
X92052976Y115990774D01*
X92243452Y116038393D01*
X92386309Y116038393D01*
X92576785Y115990774D01*
X92672023Y115943155D01*
X92767261Y115847917D01*
X92814880Y115705060D01*
X92814880Y115466965D01*
X92814880Y116990774D02*
X92814880Y116419346D01*
X92814880Y116705060D02*
X91814880Y116705060D01*
X91957738Y116609822D01*
X92052976Y116514584D01*
X92100595Y116419346D01*
X91814880Y117324108D02*
X91814880Y117943155D01*
X92195833Y117609822D01*
X92195833Y117752679D01*
X92243452Y117847917D01*
X92291071Y117895536D01*
X92386309Y117943155D01*
X92624404Y117943155D01*
X92719642Y117895536D01*
X92767261Y117847917D01*
X92814880Y117752679D01*
X92814880Y117466965D01*
X92767261Y117371727D01*
X92719642Y117324108D01*
%TO.C,D118*%
X271408630Y10215774D02*
X270408630Y10215774D01*
X270408630Y10453870D01*
X270456250Y10596727D01*
X270551488Y10691965D01*
X270646726Y10739584D01*
X270837202Y10787203D01*
X270980059Y10787203D01*
X271170535Y10739584D01*
X271265773Y10691965D01*
X271361011Y10596727D01*
X271408630Y10453870D01*
X271408630Y10215774D01*
X271408630Y11739584D02*
X271408630Y11168155D01*
X271408630Y11453870D02*
X270408630Y11453870D01*
X270551488Y11358631D01*
X270646726Y11263393D01*
X270694345Y11168155D01*
X271408630Y12691965D02*
X271408630Y12120536D01*
X271408630Y12406250D02*
X270408630Y12406250D01*
X270551488Y12311012D01*
X270646726Y12215774D01*
X270694345Y12120536D01*
X270837202Y13263393D02*
X270789583Y13168155D01*
X270741964Y13120536D01*
X270646726Y13072917D01*
X270599107Y13072917D01*
X270503869Y13120536D01*
X270456250Y13168155D01*
X270408630Y13263393D01*
X270408630Y13453870D01*
X270456250Y13549108D01*
X270503869Y13596727D01*
X270599107Y13644346D01*
X270646726Y13644346D01*
X270741964Y13596727D01*
X270789583Y13549108D01*
X270837202Y13453870D01*
X270837202Y13263393D01*
X270884821Y13168155D01*
X270932440Y13120536D01*
X271027678Y13072917D01*
X271218154Y13072917D01*
X271313392Y13120536D01*
X271361011Y13168155D01*
X271408630Y13263393D01*
X271408630Y13453870D01*
X271361011Y13549108D01*
X271313392Y13596727D01*
X271218154Y13644346D01*
X271027678Y13644346D01*
X270932440Y13596727D01*
X270884821Y13549108D01*
X270837202Y13453870D01*
%TO.C,D45*%
X364277380Y86891965D02*
X363277380Y86891965D01*
X363277380Y87130060D01*
X363325000Y87272917D01*
X363420238Y87368155D01*
X363515476Y87415774D01*
X363705952Y87463393D01*
X363848809Y87463393D01*
X364039285Y87415774D01*
X364134523Y87368155D01*
X364229761Y87272917D01*
X364277380Y87130060D01*
X364277380Y86891965D01*
X363610714Y88320536D02*
X364277380Y88320536D01*
X363229761Y88082441D02*
X363944047Y87844346D01*
X363944047Y88463393D01*
X363277380Y89320536D02*
X363277380Y88844346D01*
X363753571Y88796727D01*
X363705952Y88844346D01*
X363658333Y88939584D01*
X363658333Y89177679D01*
X363705952Y89272917D01*
X363753571Y89320536D01*
X363848809Y89368155D01*
X364086904Y89368155D01*
X364182142Y89320536D01*
X364229761Y89272917D01*
X364277380Y89177679D01*
X364277380Y88939584D01*
X364229761Y88844346D01*
X364182142Y88796727D01*
%TO.C,D70*%
X407139880Y67841965D02*
X406139880Y67841965D01*
X406139880Y68080060D01*
X406187500Y68222917D01*
X406282738Y68318155D01*
X406377976Y68365774D01*
X406568452Y68413393D01*
X406711309Y68413393D01*
X406901785Y68365774D01*
X406997023Y68318155D01*
X407092261Y68222917D01*
X407139880Y68080060D01*
X407139880Y67841965D01*
X406139880Y68746727D02*
X406139880Y69413393D01*
X407139880Y68984822D01*
X406139880Y69984822D02*
X406139880Y70080060D01*
X406187500Y70175298D01*
X406235119Y70222917D01*
X406330357Y70270536D01*
X406520833Y70318155D01*
X406758928Y70318155D01*
X406949404Y70270536D01*
X407044642Y70222917D01*
X407092261Y70175298D01*
X407139880Y70080060D01*
X407139880Y69984822D01*
X407092261Y69889584D01*
X407044642Y69841965D01*
X406949404Y69794346D01*
X406758928Y69746727D01*
X406520833Y69746727D01*
X406330357Y69794346D01*
X406235119Y69841965D01*
X406187500Y69889584D01*
X406139880Y69984822D01*
%TO.C,D91*%
X445239880Y48791965D02*
X444239880Y48791965D01*
X444239880Y49030060D01*
X444287500Y49172917D01*
X444382738Y49268155D01*
X444477976Y49315774D01*
X444668452Y49363393D01*
X444811309Y49363393D01*
X445001785Y49315774D01*
X445097023Y49268155D01*
X445192261Y49172917D01*
X445239880Y49030060D01*
X445239880Y48791965D01*
X445239880Y49839584D02*
X445239880Y50030060D01*
X445192261Y50125298D01*
X445144642Y50172917D01*
X445001785Y50268155D01*
X444811309Y50315774D01*
X444430357Y50315774D01*
X444335119Y50268155D01*
X444287500Y50220536D01*
X444239880Y50125298D01*
X444239880Y49934822D01*
X444287500Y49839584D01*
X444335119Y49791965D01*
X444430357Y49744346D01*
X444668452Y49744346D01*
X444763690Y49791965D01*
X444811309Y49839584D01*
X444858928Y49934822D01*
X444858928Y50125298D01*
X444811309Y50220536D01*
X444763690Y50268155D01*
X444668452Y50315774D01*
X445239880Y51268155D02*
X445239880Y50696727D01*
X445239880Y50982441D02*
X444239880Y50982441D01*
X444382738Y50887203D01*
X444477976Y50791965D01*
X444525595Y50696727D01*
%TO.C,D36*%
X169014880Y86891965D02*
X168014880Y86891965D01*
X168014880Y87130060D01*
X168062500Y87272917D01*
X168157738Y87368155D01*
X168252976Y87415774D01*
X168443452Y87463393D01*
X168586309Y87463393D01*
X168776785Y87415774D01*
X168872023Y87368155D01*
X168967261Y87272917D01*
X169014880Y87130060D01*
X169014880Y86891965D01*
X168014880Y87796727D02*
X168014880Y88415774D01*
X168395833Y88082441D01*
X168395833Y88225298D01*
X168443452Y88320536D01*
X168491071Y88368155D01*
X168586309Y88415774D01*
X168824404Y88415774D01*
X168919642Y88368155D01*
X168967261Y88320536D01*
X169014880Y88225298D01*
X169014880Y87939584D01*
X168967261Y87844346D01*
X168919642Y87796727D01*
X168014880Y89272917D02*
X168014880Y89082441D01*
X168062500Y88987203D01*
X168110119Y88939584D01*
X168252976Y88844346D01*
X168443452Y88796727D01*
X168824404Y88796727D01*
X168919642Y88844346D01*
X168967261Y88891965D01*
X169014880Y88987203D01*
X169014880Y89177679D01*
X168967261Y89272917D01*
X168919642Y89320536D01*
X168824404Y89368155D01*
X168586309Y89368155D01*
X168491071Y89320536D01*
X168443452Y89272917D01*
X168395833Y89177679D01*
X168395833Y88987203D01*
X168443452Y88891965D01*
X168491071Y88844346D01*
X168586309Y88796727D01*
%TO.C,D79*%
X126152380Y48791965D02*
X125152380Y48791965D01*
X125152380Y49030060D01*
X125200000Y49172917D01*
X125295238Y49268155D01*
X125390476Y49315774D01*
X125580952Y49363393D01*
X125723809Y49363393D01*
X125914285Y49315774D01*
X126009523Y49268155D01*
X126104761Y49172917D01*
X126152380Y49030060D01*
X126152380Y48791965D01*
X125152380Y49696727D02*
X125152380Y50363393D01*
X126152380Y49934822D01*
X126152380Y50791965D02*
X126152380Y50982441D01*
X126104761Y51077679D01*
X126057142Y51125298D01*
X125914285Y51220536D01*
X125723809Y51268155D01*
X125342857Y51268155D01*
X125247619Y51220536D01*
X125200000Y51172917D01*
X125152380Y51077679D01*
X125152380Y50887203D01*
X125200000Y50791965D01*
X125247619Y50744346D01*
X125342857Y50696727D01*
X125580952Y50696727D01*
X125676190Y50744346D01*
X125723809Y50791965D01*
X125771428Y50887203D01*
X125771428Y51077679D01*
X125723809Y51172917D01*
X125676190Y51220536D01*
X125580952Y51268155D01*
%TO.C,D117*%
X247596130Y10215774D02*
X246596130Y10215774D01*
X246596130Y10453870D01*
X246643750Y10596727D01*
X246738988Y10691965D01*
X246834226Y10739584D01*
X247024702Y10787203D01*
X247167559Y10787203D01*
X247358035Y10739584D01*
X247453273Y10691965D01*
X247548511Y10596727D01*
X247596130Y10453870D01*
X247596130Y10215774D01*
X247596130Y11739584D02*
X247596130Y11168155D01*
X247596130Y11453870D02*
X246596130Y11453870D01*
X246738988Y11358631D01*
X246834226Y11263393D01*
X246881845Y11168155D01*
X247596130Y12691965D02*
X247596130Y12120536D01*
X247596130Y12406250D02*
X246596130Y12406250D01*
X246738988Y12311012D01*
X246834226Y12215774D01*
X246881845Y12120536D01*
X246596130Y13025298D02*
X246596130Y13691965D01*
X247596130Y13263393D01*
%TO.C,D39*%
X226164880Y86891965D02*
X225164880Y86891965D01*
X225164880Y87130060D01*
X225212500Y87272917D01*
X225307738Y87368155D01*
X225402976Y87415774D01*
X225593452Y87463393D01*
X225736309Y87463393D01*
X225926785Y87415774D01*
X226022023Y87368155D01*
X226117261Y87272917D01*
X226164880Y87130060D01*
X226164880Y86891965D01*
X225164880Y87796727D02*
X225164880Y88415774D01*
X225545833Y88082441D01*
X225545833Y88225298D01*
X225593452Y88320536D01*
X225641071Y88368155D01*
X225736309Y88415774D01*
X225974404Y88415774D01*
X226069642Y88368155D01*
X226117261Y88320536D01*
X226164880Y88225298D01*
X226164880Y87939584D01*
X226117261Y87844346D01*
X226069642Y87796727D01*
X226164880Y88891965D02*
X226164880Y89082441D01*
X226117261Y89177679D01*
X226069642Y89225298D01*
X225926785Y89320536D01*
X225736309Y89368155D01*
X225355357Y89368155D01*
X225260119Y89320536D01*
X225212500Y89272917D01*
X225164880Y89177679D01*
X225164880Y88987203D01*
X225212500Y88891965D01*
X225260119Y88844346D01*
X225355357Y88796727D01*
X225593452Y88796727D01*
X225688690Y88844346D01*
X225736309Y88891965D01*
X225783928Y88987203D01*
X225783928Y89177679D01*
X225736309Y89272917D01*
X225688690Y89320536D01*
X225593452Y89368155D01*
%TO.C,D111*%
X11852380Y10215774D02*
X10852380Y10215774D01*
X10852380Y10453870D01*
X10900000Y10596727D01*
X10995238Y10691965D01*
X11090476Y10739584D01*
X11280952Y10787203D01*
X11423809Y10787203D01*
X11614285Y10739584D01*
X11709523Y10691965D01*
X11804761Y10596727D01*
X11852380Y10453870D01*
X11852380Y10215774D01*
X11852380Y11739584D02*
X11852380Y11168155D01*
X11852380Y11453870D02*
X10852380Y11453870D01*
X10995238Y11358631D01*
X11090476Y11263393D01*
X11138095Y11168155D01*
X11852380Y12691965D02*
X11852380Y12120536D01*
X11852380Y12406250D02*
X10852380Y12406250D01*
X10995238Y12311012D01*
X11090476Y12215774D01*
X11138095Y12120536D01*
X11852380Y13644346D02*
X11852380Y13072917D01*
X11852380Y13358631D02*
X10852380Y13358631D01*
X10995238Y13263393D01*
X11090476Y13168155D01*
X11138095Y13072917D01*
D11*
%TO.C,S2*%
X404368464Y112314024D02*
X404368464Y112514024D01*
X404482750Y112314024D02*
X404397035Y112428310D01*
X404482750Y112514024D02*
X404368464Y112399739D01*
X404568464Y112418786D02*
X404635130Y112418786D01*
X404663702Y112314024D02*
X404568464Y112314024D01*
X404568464Y112514024D01*
X404663702Y112514024D01*
X404749416Y112418786D02*
X404816083Y112418786D01*
X404844654Y112314024D02*
X404749416Y112314024D01*
X404749416Y112514024D01*
X404844654Y112514024D01*
X404930369Y112314024D02*
X404930369Y112514024D01*
X405006559Y112514024D01*
X405025607Y112504500D01*
X405035130Y112494977D01*
X405044654Y112475929D01*
X405044654Y112447358D01*
X405035130Y112428310D01*
X405025607Y112418786D01*
X405006559Y112409262D01*
X404930369Y112409262D01*
X405130369Y112390215D02*
X405282750Y112390215D01*
X405416083Y112514024D02*
X405454178Y112514024D01*
X405473226Y112504500D01*
X405492273Y112485453D01*
X405501797Y112447358D01*
X405501797Y112380691D01*
X405492273Y112342596D01*
X405473226Y112323548D01*
X405454178Y112314024D01*
X405416083Y112314024D01*
X405397035Y112323548D01*
X405377988Y112342596D01*
X405368464Y112380691D01*
X405368464Y112447358D01*
X405377988Y112485453D01*
X405397035Y112504500D01*
X405416083Y112514024D01*
X405587511Y112514024D02*
X405587511Y112352120D01*
X405597035Y112333072D01*
X405606559Y112323548D01*
X405625607Y112314024D01*
X405663702Y112314024D01*
X405682750Y112323548D01*
X405692273Y112333072D01*
X405701797Y112352120D01*
X405701797Y112514024D01*
X405768464Y112514024D02*
X405882750Y112514024D01*
X405825607Y112314024D02*
X405825607Y112514024D01*
X406082750Y112514024D02*
X406216083Y112514024D01*
X406082750Y112314024D01*
X406216083Y112314024D01*
X406330369Y112514024D02*
X406368464Y112514024D01*
X406387511Y112504500D01*
X406406559Y112485453D01*
X406416083Y112447358D01*
X406416083Y112380691D01*
X406406559Y112342596D01*
X406387511Y112323548D01*
X406368464Y112314024D01*
X406330369Y112314024D01*
X406311321Y112323548D01*
X406292273Y112342596D01*
X406282750Y112380691D01*
X406282750Y112447358D01*
X406292273Y112485453D01*
X406311321Y112504500D01*
X406330369Y112514024D01*
X406501797Y112314024D02*
X406501797Y112514024D01*
X406616083Y112314024D01*
X406616083Y112514024D01*
X406711321Y112418786D02*
X406777988Y112418786D01*
X406806559Y112314024D02*
X406711321Y112314024D01*
X406711321Y112514024D01*
X406806559Y112514024D01*
X409368464Y112314024D02*
X409368464Y112514024D01*
X409482750Y112314024D02*
X409397035Y112428310D01*
X409482750Y112514024D02*
X409368464Y112399739D01*
X409568464Y112418786D02*
X409635130Y112418786D01*
X409663702Y112314024D02*
X409568464Y112314024D01*
X409568464Y112514024D01*
X409663702Y112514024D01*
X409749416Y112418786D02*
X409816083Y112418786D01*
X409844654Y112314024D02*
X409749416Y112314024D01*
X409749416Y112514024D01*
X409844654Y112514024D01*
X409930369Y112314024D02*
X409930369Y112514024D01*
X410006559Y112514024D01*
X410025607Y112504500D01*
X410035130Y112494977D01*
X410044654Y112475929D01*
X410044654Y112447358D01*
X410035130Y112428310D01*
X410025607Y112418786D01*
X410006559Y112409262D01*
X409930369Y112409262D01*
X410130369Y112390215D02*
X410282750Y112390215D01*
X410416083Y112514024D02*
X410454178Y112514024D01*
X410473226Y112504500D01*
X410492273Y112485453D01*
X410501797Y112447358D01*
X410501797Y112380691D01*
X410492273Y112342596D01*
X410473226Y112323548D01*
X410454178Y112314024D01*
X410416083Y112314024D01*
X410397035Y112323548D01*
X410377988Y112342596D01*
X410368464Y112380691D01*
X410368464Y112447358D01*
X410377988Y112485453D01*
X410397035Y112504500D01*
X410416083Y112514024D01*
X410587511Y112514024D02*
X410587511Y112352120D01*
X410597035Y112333072D01*
X410606559Y112323548D01*
X410625607Y112314024D01*
X410663702Y112314024D01*
X410682750Y112323548D01*
X410692273Y112333072D01*
X410701797Y112352120D01*
X410701797Y112514024D01*
X410768464Y112514024D02*
X410882750Y112514024D01*
X410825607Y112314024D02*
X410825607Y112514024D01*
X411082750Y112514024D02*
X411216083Y112514024D01*
X411082750Y112314024D01*
X411216083Y112314024D01*
X411330369Y112514024D02*
X411368464Y112514024D01*
X411387511Y112504500D01*
X411406559Y112485453D01*
X411416083Y112447358D01*
X411416083Y112380691D01*
X411406559Y112342596D01*
X411387511Y112323548D01*
X411368464Y112314024D01*
X411330369Y112314024D01*
X411311321Y112323548D01*
X411292273Y112342596D01*
X411282750Y112380691D01*
X411282750Y112447358D01*
X411292273Y112485453D01*
X411311321Y112504500D01*
X411330369Y112514024D01*
X411501797Y112314024D02*
X411501797Y112514024D01*
X411616083Y112314024D01*
X411616083Y112514024D01*
X411711321Y112418786D02*
X411777988Y112418786D01*
X411806559Y112314024D02*
X411711321Y112314024D01*
X411711321Y112514024D01*
X411806559Y112514024D01*
X404501797Y111914024D02*
X404501797Y112114024D01*
X404616083Y111914024D01*
X404616083Y112114024D01*
X404739892Y111914024D02*
X404720845Y111923548D01*
X404711321Y111933072D01*
X404701797Y111952120D01*
X404701797Y112009262D01*
X404711321Y112028310D01*
X404720845Y112037834D01*
X404739892Y112047358D01*
X404768464Y112047358D01*
X404787511Y112037834D01*
X404797035Y112028310D01*
X404806559Y112009262D01*
X404806559Y111952120D01*
X404797035Y111933072D01*
X404787511Y111923548D01*
X404768464Y111914024D01*
X404739892Y111914024D01*
X405111321Y112018786D02*
X405044654Y112018786D01*
X405044654Y111914024D02*
X405044654Y112114024D01*
X405139892Y112114024D01*
X405216083Y111933072D02*
X405225607Y111923548D01*
X405216083Y111914024D01*
X405206559Y111923548D01*
X405216083Y111933072D01*
X405216083Y111914024D01*
X405425607Y111933072D02*
X405416083Y111923548D01*
X405387511Y111914024D01*
X405368464Y111914024D01*
X405339892Y111923548D01*
X405320845Y111942596D01*
X405311321Y111961643D01*
X405301797Y111999739D01*
X405301797Y112028310D01*
X405311321Y112066405D01*
X405320845Y112085453D01*
X405339892Y112104500D01*
X405368464Y112114024D01*
X405387511Y112114024D01*
X405416083Y112104500D01*
X405425607Y112094977D01*
X405597035Y112047358D02*
X405597035Y111914024D01*
X405511321Y112047358D02*
X405511321Y111942596D01*
X405520845Y111923548D01*
X405539892Y111914024D01*
X405568464Y111914024D01*
X405587511Y111923548D01*
X405597035Y111933072D01*
X405816083Y112047358D02*
X405892273Y112047358D01*
X405844654Y112114024D02*
X405844654Y111942596D01*
X405854178Y111923548D01*
X405873226Y111914024D01*
X405892273Y111914024D01*
X405958940Y111914024D02*
X405958940Y112047358D01*
X405958940Y112009262D02*
X405968464Y112028310D01*
X405977988Y112037834D01*
X405997035Y112047358D01*
X406016083Y112047358D01*
X406168464Y111914024D02*
X406168464Y112018786D01*
X406158940Y112037834D01*
X406139892Y112047358D01*
X406101797Y112047358D01*
X406082750Y112037834D01*
X406168464Y111923548D02*
X406149416Y111914024D01*
X406101797Y111914024D01*
X406082750Y111923548D01*
X406073226Y111942596D01*
X406073226Y111961643D01*
X406082750Y111980691D01*
X406101797Y111990215D01*
X406149416Y111990215D01*
X406168464Y111999739D01*
X406349416Y111923548D02*
X406330369Y111914024D01*
X406292273Y111914024D01*
X406273226Y111923548D01*
X406263702Y111933072D01*
X406254178Y111952120D01*
X406254178Y112009262D01*
X406263702Y112028310D01*
X406273226Y112037834D01*
X406292273Y112047358D01*
X406330369Y112047358D01*
X406349416Y112037834D01*
X406435130Y111914024D02*
X406435130Y112114024D01*
X406454178Y111990215D02*
X406511321Y111914024D01*
X406511321Y112047358D02*
X406435130Y111971167D01*
X406587511Y111923548D02*
X406606559Y111914024D01*
X406644654Y111914024D01*
X406663702Y111923548D01*
X406673226Y111942596D01*
X406673226Y111952120D01*
X406663702Y111971167D01*
X406644654Y111980691D01*
X406616083Y111980691D01*
X406597035Y111990215D01*
X406587511Y112009262D01*
X406587511Y112018786D01*
X406597035Y112037834D01*
X406616083Y112047358D01*
X406644654Y112047358D01*
X406663702Y112037834D01*
X409501797Y111914024D02*
X409501797Y112114024D01*
X409616083Y111914024D01*
X409616083Y112114024D01*
X409739892Y111914024D02*
X409720845Y111923548D01*
X409711321Y111933072D01*
X409701797Y111952120D01*
X409701797Y112009262D01*
X409711321Y112028310D01*
X409720845Y112037834D01*
X409739892Y112047358D01*
X409768464Y112047358D01*
X409787511Y112037834D01*
X409797035Y112028310D01*
X409806559Y112009262D01*
X409806559Y111952120D01*
X409797035Y111933072D01*
X409787511Y111923548D01*
X409768464Y111914024D01*
X409739892Y111914024D01*
X410111321Y112018786D02*
X410044654Y112018786D01*
X410044654Y111914024D02*
X410044654Y112114024D01*
X410139892Y112114024D01*
X410216083Y111933072D02*
X410225607Y111923548D01*
X410216083Y111914024D01*
X410206559Y111923548D01*
X410216083Y111933072D01*
X410216083Y111914024D01*
X410425607Y111933072D02*
X410416083Y111923548D01*
X410387511Y111914024D01*
X410368464Y111914024D01*
X410339892Y111923548D01*
X410320845Y111942596D01*
X410311321Y111961643D01*
X410301797Y111999739D01*
X410301797Y112028310D01*
X410311321Y112066405D01*
X410320845Y112085453D01*
X410339892Y112104500D01*
X410368464Y112114024D01*
X410387511Y112114024D01*
X410416083Y112104500D01*
X410425607Y112094977D01*
X410597035Y112047358D02*
X410597035Y111914024D01*
X410511321Y112047358D02*
X410511321Y111942596D01*
X410520845Y111923548D01*
X410539892Y111914024D01*
X410568464Y111914024D01*
X410587511Y111923548D01*
X410597035Y111933072D01*
X410816083Y112047358D02*
X410892273Y112047358D01*
X410844654Y112114024D02*
X410844654Y111942596D01*
X410854178Y111923548D01*
X410873226Y111914024D01*
X410892273Y111914024D01*
X410958940Y111914024D02*
X410958940Y112047358D01*
X410958940Y112009262D02*
X410968464Y112028310D01*
X410977988Y112037834D01*
X410997035Y112047358D01*
X411016083Y112047358D01*
X411168464Y111914024D02*
X411168464Y112018786D01*
X411158940Y112037834D01*
X411139892Y112047358D01*
X411101797Y112047358D01*
X411082750Y112037834D01*
X411168464Y111923548D02*
X411149416Y111914024D01*
X411101797Y111914024D01*
X411082750Y111923548D01*
X411073226Y111942596D01*
X411073226Y111961643D01*
X411082750Y111980691D01*
X411101797Y111990215D01*
X411149416Y111990215D01*
X411168464Y111999739D01*
X411349416Y111923548D02*
X411330369Y111914024D01*
X411292273Y111914024D01*
X411273226Y111923548D01*
X411263702Y111933072D01*
X411254178Y111952120D01*
X411254178Y112009262D01*
X411263702Y112028310D01*
X411273226Y112037834D01*
X411292273Y112047358D01*
X411330369Y112047358D01*
X411349416Y112037834D01*
X411435130Y111914024D02*
X411435130Y112114024D01*
X411454178Y111990215D02*
X411511321Y111914024D01*
X411511321Y112047358D02*
X411435130Y111971167D01*
X411587511Y111923548D02*
X411606559Y111914024D01*
X411644654Y111914024D01*
X411663702Y111923548D01*
X411673226Y111942596D01*
X411673226Y111952120D01*
X411663702Y111971167D01*
X411644654Y111980691D01*
X411616083Y111980691D01*
X411597035Y111990215D01*
X411587511Y112009262D01*
X411587511Y112018786D01*
X411597035Y112037834D01*
X411616083Y112047358D01*
X411644654Y112047358D01*
X411663702Y112037834D01*
D10*
%TO.C,D22*%
X283314880Y115466965D02*
X282314880Y115466965D01*
X282314880Y115705060D01*
X282362500Y115847917D01*
X282457738Y115943155D01*
X282552976Y115990774D01*
X282743452Y116038393D01*
X282886309Y116038393D01*
X283076785Y115990774D01*
X283172023Y115943155D01*
X283267261Y115847917D01*
X283314880Y115705060D01*
X283314880Y115466965D01*
X282410119Y116419346D02*
X282362500Y116466965D01*
X282314880Y116562203D01*
X282314880Y116800298D01*
X282362500Y116895536D01*
X282410119Y116943155D01*
X282505357Y116990774D01*
X282600595Y116990774D01*
X282743452Y116943155D01*
X283314880Y116371727D01*
X283314880Y116990774D01*
X282410119Y117371727D02*
X282362500Y117419346D01*
X282314880Y117514584D01*
X282314880Y117752679D01*
X282362500Y117847917D01*
X282410119Y117895536D01*
X282505357Y117943155D01*
X282600595Y117943155D01*
X282743452Y117895536D01*
X283314880Y117324108D01*
X283314880Y117943155D01*
%TO.C,D53*%
X59477380Y67841965D02*
X58477380Y67841965D01*
X58477380Y68080060D01*
X58525000Y68222917D01*
X58620238Y68318155D01*
X58715476Y68365774D01*
X58905952Y68413393D01*
X59048809Y68413393D01*
X59239285Y68365774D01*
X59334523Y68318155D01*
X59429761Y68222917D01*
X59477380Y68080060D01*
X59477380Y67841965D01*
X58477380Y69318155D02*
X58477380Y68841965D01*
X58953571Y68794346D01*
X58905952Y68841965D01*
X58858333Y68937203D01*
X58858333Y69175298D01*
X58905952Y69270536D01*
X58953571Y69318155D01*
X59048809Y69365774D01*
X59286904Y69365774D01*
X59382142Y69318155D01*
X59429761Y69270536D01*
X59477380Y69175298D01*
X59477380Y68937203D01*
X59429761Y68841965D01*
X59382142Y68794346D01*
X58477380Y69699108D02*
X58477380Y70318155D01*
X58858333Y69984822D01*
X58858333Y70127679D01*
X58905952Y70222917D01*
X58953571Y70270536D01*
X59048809Y70318155D01*
X59286904Y70318155D01*
X59382142Y70270536D01*
X59429761Y70222917D01*
X59477380Y70127679D01*
X59477380Y69841965D01*
X59429761Y69746727D01*
X59382142Y69699108D01*
%TO.C,D6*%
X178539880Y134993155D02*
X177539880Y134993155D01*
X177539880Y135231250D01*
X177587500Y135374108D01*
X177682738Y135469346D01*
X177777976Y135516965D01*
X177968452Y135564584D01*
X178111309Y135564584D01*
X178301785Y135516965D01*
X178397023Y135469346D01*
X178492261Y135374108D01*
X178539880Y135231250D01*
X178539880Y134993155D01*
X177539880Y136421727D02*
X177539880Y136231250D01*
X177587500Y136136012D01*
X177635119Y136088393D01*
X177777976Y135993155D01*
X177968452Y135945536D01*
X178349404Y135945536D01*
X178444642Y135993155D01*
X178492261Y136040774D01*
X178539880Y136136012D01*
X178539880Y136326489D01*
X178492261Y136421727D01*
X178444642Y136469346D01*
X178349404Y136516965D01*
X178111309Y136516965D01*
X178016071Y136469346D01*
X177968452Y136421727D01*
X177920833Y136326489D01*
X177920833Y136136012D01*
X177968452Y136040774D01*
X178016071Y135993155D01*
X178111309Y135945536D01*
%TO.C,D92*%
X464289880Y48791965D02*
X463289880Y48791965D01*
X463289880Y49030060D01*
X463337500Y49172917D01*
X463432738Y49268155D01*
X463527976Y49315774D01*
X463718452Y49363393D01*
X463861309Y49363393D01*
X464051785Y49315774D01*
X464147023Y49268155D01*
X464242261Y49172917D01*
X464289880Y49030060D01*
X464289880Y48791965D01*
X464289880Y49839584D02*
X464289880Y50030060D01*
X464242261Y50125298D01*
X464194642Y50172917D01*
X464051785Y50268155D01*
X463861309Y50315774D01*
X463480357Y50315774D01*
X463385119Y50268155D01*
X463337500Y50220536D01*
X463289880Y50125298D01*
X463289880Y49934822D01*
X463337500Y49839584D01*
X463385119Y49791965D01*
X463480357Y49744346D01*
X463718452Y49744346D01*
X463813690Y49791965D01*
X463861309Y49839584D01*
X463908928Y49934822D01*
X463908928Y50125298D01*
X463861309Y50220536D01*
X463813690Y50268155D01*
X463718452Y50315774D01*
X463385119Y50696727D02*
X463337500Y50744346D01*
X463289880Y50839584D01*
X463289880Y51077679D01*
X463337500Y51172917D01*
X463385119Y51220536D01*
X463480357Y51268155D01*
X463575595Y51268155D01*
X463718452Y51220536D01*
X464289880Y50649108D01*
X464289880Y51268155D01*
%TO.C,D38*%
X207114880Y86891965D02*
X206114880Y86891965D01*
X206114880Y87130060D01*
X206162500Y87272917D01*
X206257738Y87368155D01*
X206352976Y87415774D01*
X206543452Y87463393D01*
X206686309Y87463393D01*
X206876785Y87415774D01*
X206972023Y87368155D01*
X207067261Y87272917D01*
X207114880Y87130060D01*
X207114880Y86891965D01*
X206114880Y87796727D02*
X206114880Y88415774D01*
X206495833Y88082441D01*
X206495833Y88225298D01*
X206543452Y88320536D01*
X206591071Y88368155D01*
X206686309Y88415774D01*
X206924404Y88415774D01*
X207019642Y88368155D01*
X207067261Y88320536D01*
X207114880Y88225298D01*
X207114880Y87939584D01*
X207067261Y87844346D01*
X207019642Y87796727D01*
X206543452Y88987203D02*
X206495833Y88891965D01*
X206448214Y88844346D01*
X206352976Y88796727D01*
X206305357Y88796727D01*
X206210119Y88844346D01*
X206162500Y88891965D01*
X206114880Y88987203D01*
X206114880Y89177679D01*
X206162500Y89272917D01*
X206210119Y89320536D01*
X206305357Y89368155D01*
X206352976Y89368155D01*
X206448214Y89320536D01*
X206495833Y89272917D01*
X206543452Y89177679D01*
X206543452Y88987203D01*
X206591071Y88891965D01*
X206638690Y88844346D01*
X206733928Y88796727D01*
X206924404Y88796727D01*
X207019642Y88844346D01*
X207067261Y88891965D01*
X207114880Y88987203D01*
X207114880Y89177679D01*
X207067261Y89272917D01*
X207019642Y89320536D01*
X206924404Y89368155D01*
X206733928Y89368155D01*
X206638690Y89320536D01*
X206591071Y89272917D01*
X206543452Y89177679D01*
%TO.C,D110*%
X445239880Y29265774D02*
X444239880Y29265774D01*
X444239880Y29503870D01*
X444287500Y29646727D01*
X444382738Y29741965D01*
X444477976Y29789584D01*
X444668452Y29837203D01*
X444811309Y29837203D01*
X445001785Y29789584D01*
X445097023Y29741965D01*
X445192261Y29646727D01*
X445239880Y29503870D01*
X445239880Y29265774D01*
X445239880Y30789584D02*
X445239880Y30218155D01*
X445239880Y30503870D02*
X444239880Y30503870D01*
X444382738Y30408631D01*
X444477976Y30313393D01*
X444525595Y30218155D01*
X445239880Y31741965D02*
X445239880Y31170536D01*
X445239880Y31456250D02*
X444239880Y31456250D01*
X444382738Y31361012D01*
X444477976Y31265774D01*
X444525595Y31170536D01*
X444239880Y32361012D02*
X444239880Y32456250D01*
X444287500Y32551489D01*
X444335119Y32599108D01*
X444430357Y32646727D01*
X444620833Y32694346D01*
X444858928Y32694346D01*
X445049404Y32646727D01*
X445144642Y32599108D01*
X445192261Y32551489D01*
X445239880Y32456250D01*
X445239880Y32361012D01*
X445192261Y32265774D01*
X445144642Y32218155D01*
X445049404Y32170536D01*
X444858928Y32122917D01*
X444620833Y32122917D01*
X444430357Y32170536D01*
X444335119Y32218155D01*
X444287500Y32265774D01*
X444239880Y32361012D01*
%TO.C,D115*%
X104721130Y10215774D02*
X103721130Y10215774D01*
X103721130Y10453870D01*
X103768750Y10596727D01*
X103863988Y10691965D01*
X103959226Y10739584D01*
X104149702Y10787203D01*
X104292559Y10787203D01*
X104483035Y10739584D01*
X104578273Y10691965D01*
X104673511Y10596727D01*
X104721130Y10453870D01*
X104721130Y10215774D01*
X104721130Y11739584D02*
X104721130Y11168155D01*
X104721130Y11453870D02*
X103721130Y11453870D01*
X103863988Y11358631D01*
X103959226Y11263393D01*
X104006845Y11168155D01*
X104721130Y12691965D02*
X104721130Y12120536D01*
X104721130Y12406250D02*
X103721130Y12406250D01*
X103863988Y12311012D01*
X103959226Y12215774D01*
X104006845Y12120536D01*
X103721130Y13596727D02*
X103721130Y13120536D01*
X104197321Y13072917D01*
X104149702Y13120536D01*
X104102083Y13215774D01*
X104102083Y13453870D01*
X104149702Y13549108D01*
X104197321Y13596727D01*
X104292559Y13644346D01*
X104530654Y13644346D01*
X104625892Y13596727D01*
X104673511Y13549108D01*
X104721130Y13453870D01*
X104721130Y13215774D01*
X104673511Y13120536D01*
X104625892Y13072917D01*
%TO.C,D84*%
X221402380Y48791965D02*
X220402380Y48791965D01*
X220402380Y49030060D01*
X220450000Y49172917D01*
X220545238Y49268155D01*
X220640476Y49315774D01*
X220830952Y49363393D01*
X220973809Y49363393D01*
X221164285Y49315774D01*
X221259523Y49268155D01*
X221354761Y49172917D01*
X221402380Y49030060D01*
X221402380Y48791965D01*
X220830952Y49934822D02*
X220783333Y49839584D01*
X220735714Y49791965D01*
X220640476Y49744346D01*
X220592857Y49744346D01*
X220497619Y49791965D01*
X220450000Y49839584D01*
X220402380Y49934822D01*
X220402380Y50125298D01*
X220450000Y50220536D01*
X220497619Y50268155D01*
X220592857Y50315774D01*
X220640476Y50315774D01*
X220735714Y50268155D01*
X220783333Y50220536D01*
X220830952Y50125298D01*
X220830952Y49934822D01*
X220878571Y49839584D01*
X220926190Y49791965D01*
X221021428Y49744346D01*
X221211904Y49744346D01*
X221307142Y49791965D01*
X221354761Y49839584D01*
X221402380Y49934822D01*
X221402380Y50125298D01*
X221354761Y50220536D01*
X221307142Y50268155D01*
X221211904Y50315774D01*
X221021428Y50315774D01*
X220926190Y50268155D01*
X220878571Y50220536D01*
X220830952Y50125298D01*
X220735714Y51172917D02*
X221402380Y51172917D01*
X220354761Y50934822D02*
X221069047Y50696727D01*
X221069047Y51315774D01*
%TO.C,D18*%
X197589880Y115466965D02*
X196589880Y115466965D01*
X196589880Y115705060D01*
X196637500Y115847917D01*
X196732738Y115943155D01*
X196827976Y115990774D01*
X197018452Y116038393D01*
X197161309Y116038393D01*
X197351785Y115990774D01*
X197447023Y115943155D01*
X197542261Y115847917D01*
X197589880Y115705060D01*
X197589880Y115466965D01*
X197589880Y116990774D02*
X197589880Y116419346D01*
X197589880Y116705060D02*
X196589880Y116705060D01*
X196732738Y116609822D01*
X196827976Y116514584D01*
X196875595Y116419346D01*
X197018452Y117562203D02*
X196970833Y117466965D01*
X196923214Y117419346D01*
X196827976Y117371727D01*
X196780357Y117371727D01*
X196685119Y117419346D01*
X196637500Y117466965D01*
X196589880Y117562203D01*
X196589880Y117752679D01*
X196637500Y117847917D01*
X196685119Y117895536D01*
X196780357Y117943155D01*
X196827976Y117943155D01*
X196923214Y117895536D01*
X196970833Y117847917D01*
X197018452Y117752679D01*
X197018452Y117562203D01*
X197066071Y117466965D01*
X197113690Y117419346D01*
X197208928Y117371727D01*
X197399404Y117371727D01*
X197494642Y117419346D01*
X197542261Y117466965D01*
X197589880Y117562203D01*
X197589880Y117752679D01*
X197542261Y117847917D01*
X197494642Y117895536D01*
X197399404Y117943155D01*
X197208928Y117943155D01*
X197113690Y117895536D01*
X197066071Y117847917D01*
X197018452Y117752679D01*
%TO.C,D77*%
X88052380Y48791965D02*
X87052380Y48791965D01*
X87052380Y49030060D01*
X87100000Y49172917D01*
X87195238Y49268155D01*
X87290476Y49315774D01*
X87480952Y49363393D01*
X87623809Y49363393D01*
X87814285Y49315774D01*
X87909523Y49268155D01*
X88004761Y49172917D01*
X88052380Y49030060D01*
X88052380Y48791965D01*
X87052380Y49696727D02*
X87052380Y50363393D01*
X88052380Y49934822D01*
X87052380Y50649108D02*
X87052380Y51315774D01*
X88052380Y50887203D01*
%TO.C,D83*%
X202352380Y48791965D02*
X201352380Y48791965D01*
X201352380Y49030060D01*
X201400000Y49172917D01*
X201495238Y49268155D01*
X201590476Y49315774D01*
X201780952Y49363393D01*
X201923809Y49363393D01*
X202114285Y49315774D01*
X202209523Y49268155D01*
X202304761Y49172917D01*
X202352380Y49030060D01*
X202352380Y48791965D01*
X201780952Y49934822D02*
X201733333Y49839584D01*
X201685714Y49791965D01*
X201590476Y49744346D01*
X201542857Y49744346D01*
X201447619Y49791965D01*
X201400000Y49839584D01*
X201352380Y49934822D01*
X201352380Y50125298D01*
X201400000Y50220536D01*
X201447619Y50268155D01*
X201542857Y50315774D01*
X201590476Y50315774D01*
X201685714Y50268155D01*
X201733333Y50220536D01*
X201780952Y50125298D01*
X201780952Y49934822D01*
X201828571Y49839584D01*
X201876190Y49791965D01*
X201971428Y49744346D01*
X202161904Y49744346D01*
X202257142Y49791965D01*
X202304761Y49839584D01*
X202352380Y49934822D01*
X202352380Y50125298D01*
X202304761Y50220536D01*
X202257142Y50268155D01*
X202161904Y50315774D01*
X201971428Y50315774D01*
X201876190Y50268155D01*
X201828571Y50220536D01*
X201780952Y50125298D01*
X201352380Y50649108D02*
X201352380Y51268155D01*
X201733333Y50934822D01*
X201733333Y51077679D01*
X201780952Y51172917D01*
X201828571Y51220536D01*
X201923809Y51268155D01*
X202161904Y51268155D01*
X202257142Y51220536D01*
X202304761Y51172917D01*
X202352380Y51077679D01*
X202352380Y50791965D01*
X202304761Y50696727D01*
X202257142Y50649108D01*
%TO.C,D29*%
X30902380Y86891965D02*
X29902380Y86891965D01*
X29902380Y87130060D01*
X29950000Y87272917D01*
X30045238Y87368155D01*
X30140476Y87415774D01*
X30330952Y87463393D01*
X30473809Y87463393D01*
X30664285Y87415774D01*
X30759523Y87368155D01*
X30854761Y87272917D01*
X30902380Y87130060D01*
X30902380Y86891965D01*
X29997619Y87844346D02*
X29950000Y87891965D01*
X29902380Y87987203D01*
X29902380Y88225298D01*
X29950000Y88320536D01*
X29997619Y88368155D01*
X30092857Y88415774D01*
X30188095Y88415774D01*
X30330952Y88368155D01*
X30902380Y87796727D01*
X30902380Y88415774D01*
X30902380Y88891965D02*
X30902380Y89082441D01*
X30854761Y89177679D01*
X30807142Y89225298D01*
X30664285Y89320536D01*
X30473809Y89368155D01*
X30092857Y89368155D01*
X29997619Y89320536D01*
X29950000Y89272917D01*
X29902380Y89177679D01*
X29902380Y88987203D01*
X29950000Y88891965D01*
X29997619Y88844346D01*
X30092857Y88796727D01*
X30330952Y88796727D01*
X30426190Y88844346D01*
X30473809Y88891965D01*
X30521428Y88987203D01*
X30521428Y89177679D01*
X30473809Y89272917D01*
X30426190Y89320536D01*
X30330952Y89368155D01*
%TO.C,DA2*%
X452509083Y128994120D02*
X452509083Y129994120D01*
X452747178Y129994120D01*
X452890035Y129946500D01*
X452985273Y129851262D01*
X453032892Y129756024D01*
X453080511Y129565548D01*
X453080511Y129422691D01*
X453032892Y129232215D01*
X452985273Y129136977D01*
X452890035Y129041739D01*
X452747178Y128994120D01*
X452509083Y128994120D01*
X453461464Y129279834D02*
X453937654Y129279834D01*
X453366226Y128994120D02*
X453699559Y129994120D01*
X454032892Y128994120D01*
X454318607Y129898881D02*
X454366226Y129946500D01*
X454461464Y129994120D01*
X454699559Y129994120D01*
X454794797Y129946500D01*
X454842416Y129898881D01*
X454890035Y129803643D01*
X454890035Y129708405D01*
X454842416Y129565548D01*
X454270988Y128994120D01*
X454890035Y128994120D01*
%TO.C,D85*%
X240452380Y48791965D02*
X239452380Y48791965D01*
X239452380Y49030060D01*
X239500000Y49172917D01*
X239595238Y49268155D01*
X239690476Y49315774D01*
X239880952Y49363393D01*
X240023809Y49363393D01*
X240214285Y49315774D01*
X240309523Y49268155D01*
X240404761Y49172917D01*
X240452380Y49030060D01*
X240452380Y48791965D01*
X239880952Y49934822D02*
X239833333Y49839584D01*
X239785714Y49791965D01*
X239690476Y49744346D01*
X239642857Y49744346D01*
X239547619Y49791965D01*
X239500000Y49839584D01*
X239452380Y49934822D01*
X239452380Y50125298D01*
X239500000Y50220536D01*
X239547619Y50268155D01*
X239642857Y50315774D01*
X239690476Y50315774D01*
X239785714Y50268155D01*
X239833333Y50220536D01*
X239880952Y50125298D01*
X239880952Y49934822D01*
X239928571Y49839584D01*
X239976190Y49791965D01*
X240071428Y49744346D01*
X240261904Y49744346D01*
X240357142Y49791965D01*
X240404761Y49839584D01*
X240452380Y49934822D01*
X240452380Y50125298D01*
X240404761Y50220536D01*
X240357142Y50268155D01*
X240261904Y50315774D01*
X240071428Y50315774D01*
X239976190Y50268155D01*
X239928571Y50220536D01*
X239880952Y50125298D01*
X239452380Y51220536D02*
X239452380Y50744346D01*
X239928571Y50696727D01*
X239880952Y50744346D01*
X239833333Y50839584D01*
X239833333Y51077679D01*
X239880952Y51172917D01*
X239928571Y51220536D01*
X240023809Y51268155D01*
X240261904Y51268155D01*
X240357142Y51220536D01*
X240404761Y51172917D01*
X240452380Y51077679D01*
X240452380Y50839584D01*
X240404761Y50744346D01*
X240357142Y50696727D01*
%TO.C,D16*%
X149964880Y115466965D02*
X148964880Y115466965D01*
X148964880Y115705060D01*
X149012500Y115847917D01*
X149107738Y115943155D01*
X149202976Y115990774D01*
X149393452Y116038393D01*
X149536309Y116038393D01*
X149726785Y115990774D01*
X149822023Y115943155D01*
X149917261Y115847917D01*
X149964880Y115705060D01*
X149964880Y115466965D01*
X149964880Y116990774D02*
X149964880Y116419346D01*
X149964880Y116705060D02*
X148964880Y116705060D01*
X149107738Y116609822D01*
X149202976Y116514584D01*
X149250595Y116419346D01*
X148964880Y117847917D02*
X148964880Y117657441D01*
X149012500Y117562203D01*
X149060119Y117514584D01*
X149202976Y117419346D01*
X149393452Y117371727D01*
X149774404Y117371727D01*
X149869642Y117419346D01*
X149917261Y117466965D01*
X149964880Y117562203D01*
X149964880Y117752679D01*
X149917261Y117847917D01*
X149869642Y117895536D01*
X149774404Y117943155D01*
X149536309Y117943155D01*
X149441071Y117895536D01*
X149393452Y117847917D01*
X149345833Y117752679D01*
X149345833Y117562203D01*
X149393452Y117466965D01*
X149441071Y117419346D01*
X149536309Y117371727D01*
%TO.C,D74*%
X11852380Y48791965D02*
X10852380Y48791965D01*
X10852380Y49030060D01*
X10900000Y49172917D01*
X10995238Y49268155D01*
X11090476Y49315774D01*
X11280952Y49363393D01*
X11423809Y49363393D01*
X11614285Y49315774D01*
X11709523Y49268155D01*
X11804761Y49172917D01*
X11852380Y49030060D01*
X11852380Y48791965D01*
X10852380Y49696727D02*
X10852380Y50363393D01*
X11852380Y49934822D01*
X11185714Y51172917D02*
X11852380Y51172917D01*
X10804761Y50934822D02*
X11519047Y50696727D01*
X11519047Y51315774D01*
%TO.C,D68*%
X364277380Y67841965D02*
X363277380Y67841965D01*
X363277380Y68080060D01*
X363325000Y68222917D01*
X363420238Y68318155D01*
X363515476Y68365774D01*
X363705952Y68413393D01*
X363848809Y68413393D01*
X364039285Y68365774D01*
X364134523Y68318155D01*
X364229761Y68222917D01*
X364277380Y68080060D01*
X364277380Y67841965D01*
X363277380Y69270536D02*
X363277380Y69080060D01*
X363325000Y68984822D01*
X363372619Y68937203D01*
X363515476Y68841965D01*
X363705952Y68794346D01*
X364086904Y68794346D01*
X364182142Y68841965D01*
X364229761Y68889584D01*
X364277380Y68984822D01*
X364277380Y69175298D01*
X364229761Y69270536D01*
X364182142Y69318155D01*
X364086904Y69365774D01*
X363848809Y69365774D01*
X363753571Y69318155D01*
X363705952Y69270536D01*
X363658333Y69175298D01*
X363658333Y68984822D01*
X363705952Y68889584D01*
X363753571Y68841965D01*
X363848809Y68794346D01*
X363705952Y69937203D02*
X363658333Y69841965D01*
X363610714Y69794346D01*
X363515476Y69746727D01*
X363467857Y69746727D01*
X363372619Y69794346D01*
X363325000Y69841965D01*
X363277380Y69937203D01*
X363277380Y70127679D01*
X363325000Y70222917D01*
X363372619Y70270536D01*
X363467857Y70318155D01*
X363515476Y70318155D01*
X363610714Y70270536D01*
X363658333Y70222917D01*
X363705952Y70127679D01*
X363705952Y69937203D01*
X363753571Y69841965D01*
X363801190Y69794346D01*
X363896428Y69746727D01*
X364086904Y69746727D01*
X364182142Y69794346D01*
X364229761Y69841965D01*
X364277380Y69937203D01*
X364277380Y70127679D01*
X364229761Y70222917D01*
X364182142Y70270536D01*
X364086904Y70318155D01*
X363896428Y70318155D01*
X363801190Y70270536D01*
X363753571Y70222917D01*
X363705952Y70127679D01*
%TO.C,D28*%
X11852380Y86891965D02*
X10852380Y86891965D01*
X10852380Y87130060D01*
X10900000Y87272917D01*
X10995238Y87368155D01*
X11090476Y87415774D01*
X11280952Y87463393D01*
X11423809Y87463393D01*
X11614285Y87415774D01*
X11709523Y87368155D01*
X11804761Y87272917D01*
X11852380Y87130060D01*
X11852380Y86891965D01*
X10947619Y87844346D02*
X10900000Y87891965D01*
X10852380Y87987203D01*
X10852380Y88225298D01*
X10900000Y88320536D01*
X10947619Y88368155D01*
X11042857Y88415774D01*
X11138095Y88415774D01*
X11280952Y88368155D01*
X11852380Y87796727D01*
X11852380Y88415774D01*
X11280952Y88987203D02*
X11233333Y88891965D01*
X11185714Y88844346D01*
X11090476Y88796727D01*
X11042857Y88796727D01*
X10947619Y88844346D01*
X10900000Y88891965D01*
X10852380Y88987203D01*
X10852380Y89177679D01*
X10900000Y89272917D01*
X10947619Y89320536D01*
X11042857Y89368155D01*
X11090476Y89368155D01*
X11185714Y89320536D01*
X11233333Y89272917D01*
X11280952Y89177679D01*
X11280952Y88987203D01*
X11328571Y88891965D01*
X11376190Y88844346D01*
X11471428Y88796727D01*
X11661904Y88796727D01*
X11757142Y88844346D01*
X11804761Y88891965D01*
X11852380Y88987203D01*
X11852380Y89177679D01*
X11804761Y89272917D01*
X11757142Y89320536D01*
X11661904Y89368155D01*
X11471428Y89368155D01*
X11376190Y89320536D01*
X11328571Y89272917D01*
X11280952Y89177679D01*
%TO.C,D35*%
X149964880Y86891965D02*
X148964880Y86891965D01*
X148964880Y87130060D01*
X149012500Y87272917D01*
X149107738Y87368155D01*
X149202976Y87415774D01*
X149393452Y87463393D01*
X149536309Y87463393D01*
X149726785Y87415774D01*
X149822023Y87368155D01*
X149917261Y87272917D01*
X149964880Y87130060D01*
X149964880Y86891965D01*
X148964880Y87796727D02*
X148964880Y88415774D01*
X149345833Y88082441D01*
X149345833Y88225298D01*
X149393452Y88320536D01*
X149441071Y88368155D01*
X149536309Y88415774D01*
X149774404Y88415774D01*
X149869642Y88368155D01*
X149917261Y88320536D01*
X149964880Y88225298D01*
X149964880Y87939584D01*
X149917261Y87844346D01*
X149869642Y87796727D01*
X148964880Y89320536D02*
X148964880Y88844346D01*
X149441071Y88796727D01*
X149393452Y88844346D01*
X149345833Y88939584D01*
X149345833Y89177679D01*
X149393452Y89272917D01*
X149441071Y89320536D01*
X149536309Y89368155D01*
X149774404Y89368155D01*
X149869642Y89320536D01*
X149917261Y89272917D01*
X149964880Y89177679D01*
X149964880Y88939584D01*
X149917261Y88844346D01*
X149869642Y88796727D01*
%TO.C,D33*%
X111864880Y86891965D02*
X110864880Y86891965D01*
X110864880Y87130060D01*
X110912500Y87272917D01*
X111007738Y87368155D01*
X111102976Y87415774D01*
X111293452Y87463393D01*
X111436309Y87463393D01*
X111626785Y87415774D01*
X111722023Y87368155D01*
X111817261Y87272917D01*
X111864880Y87130060D01*
X111864880Y86891965D01*
X110864880Y87796727D02*
X110864880Y88415774D01*
X111245833Y88082441D01*
X111245833Y88225298D01*
X111293452Y88320536D01*
X111341071Y88368155D01*
X111436309Y88415774D01*
X111674404Y88415774D01*
X111769642Y88368155D01*
X111817261Y88320536D01*
X111864880Y88225298D01*
X111864880Y87939584D01*
X111817261Y87844346D01*
X111769642Y87796727D01*
X110864880Y88749108D02*
X110864880Y89368155D01*
X111245833Y89034822D01*
X111245833Y89177679D01*
X111293452Y89272917D01*
X111341071Y89320536D01*
X111436309Y89368155D01*
X111674404Y89368155D01*
X111769642Y89320536D01*
X111817261Y89272917D01*
X111864880Y89177679D01*
X111864880Y88891965D01*
X111817261Y88796727D01*
X111769642Y88749108D01*
%TO.C,D14*%
X111864880Y115466965D02*
X110864880Y115466965D01*
X110864880Y115705060D01*
X110912500Y115847917D01*
X111007738Y115943155D01*
X111102976Y115990774D01*
X111293452Y116038393D01*
X111436309Y116038393D01*
X111626785Y115990774D01*
X111722023Y115943155D01*
X111817261Y115847917D01*
X111864880Y115705060D01*
X111864880Y115466965D01*
X111864880Y116990774D02*
X111864880Y116419346D01*
X111864880Y116705060D02*
X110864880Y116705060D01*
X111007738Y116609822D01*
X111102976Y116514584D01*
X111150595Y116419346D01*
X111198214Y117847917D02*
X111864880Y117847917D01*
X110817261Y117609822D02*
X111531547Y117371727D01*
X111531547Y117990774D01*
%TO.C,D106*%
X304746130Y29265774D02*
X303746130Y29265774D01*
X303746130Y29503870D01*
X303793750Y29646727D01*
X303888988Y29741965D01*
X303984226Y29789584D01*
X304174702Y29837203D01*
X304317559Y29837203D01*
X304508035Y29789584D01*
X304603273Y29741965D01*
X304698511Y29646727D01*
X304746130Y29503870D01*
X304746130Y29265774D01*
X304746130Y30789584D02*
X304746130Y30218155D01*
X304746130Y30503870D02*
X303746130Y30503870D01*
X303888988Y30408631D01*
X303984226Y30313393D01*
X304031845Y30218155D01*
X303746130Y31408631D02*
X303746130Y31503870D01*
X303793750Y31599108D01*
X303841369Y31646727D01*
X303936607Y31694346D01*
X304127083Y31741965D01*
X304365178Y31741965D01*
X304555654Y31694346D01*
X304650892Y31646727D01*
X304698511Y31599108D01*
X304746130Y31503870D01*
X304746130Y31408631D01*
X304698511Y31313393D01*
X304650892Y31265774D01*
X304555654Y31218155D01*
X304365178Y31170536D01*
X304127083Y31170536D01*
X303936607Y31218155D01*
X303841369Y31265774D01*
X303793750Y31313393D01*
X303746130Y31408631D01*
X303746130Y32599108D02*
X303746130Y32408631D01*
X303793750Y32313393D01*
X303841369Y32265774D01*
X303984226Y32170536D01*
X304174702Y32122917D01*
X304555654Y32122917D01*
X304650892Y32170536D01*
X304698511Y32218155D01*
X304746130Y32313393D01*
X304746130Y32503870D01*
X304698511Y32599108D01*
X304650892Y32646727D01*
X304555654Y32694346D01*
X304317559Y32694346D01*
X304222321Y32646727D01*
X304174702Y32599108D01*
X304127083Y32503870D01*
X304127083Y32313393D01*
X304174702Y32218155D01*
X304222321Y32170536D01*
X304317559Y32122917D01*
%TO.C,D67*%
X345227380Y67841965D02*
X344227380Y67841965D01*
X344227380Y68080060D01*
X344275000Y68222917D01*
X344370238Y68318155D01*
X344465476Y68365774D01*
X344655952Y68413393D01*
X344798809Y68413393D01*
X344989285Y68365774D01*
X345084523Y68318155D01*
X345179761Y68222917D01*
X345227380Y68080060D01*
X345227380Y67841965D01*
X344227380Y69270536D02*
X344227380Y69080060D01*
X344275000Y68984822D01*
X344322619Y68937203D01*
X344465476Y68841965D01*
X344655952Y68794346D01*
X345036904Y68794346D01*
X345132142Y68841965D01*
X345179761Y68889584D01*
X345227380Y68984822D01*
X345227380Y69175298D01*
X345179761Y69270536D01*
X345132142Y69318155D01*
X345036904Y69365774D01*
X344798809Y69365774D01*
X344703571Y69318155D01*
X344655952Y69270536D01*
X344608333Y69175298D01*
X344608333Y68984822D01*
X344655952Y68889584D01*
X344703571Y68841965D01*
X344798809Y68794346D01*
X344227380Y69699108D02*
X344227380Y70365774D01*
X345227380Y69937203D01*
%TO.C,D10*%
X345227380Y134516965D02*
X344227380Y134516965D01*
X344227380Y134755060D01*
X344275000Y134897917D01*
X344370238Y134993155D01*
X344465476Y135040774D01*
X344655952Y135088393D01*
X344798809Y135088393D01*
X344989285Y135040774D01*
X345084523Y134993155D01*
X345179761Y134897917D01*
X345227380Y134755060D01*
X345227380Y134516965D01*
X345227380Y136040774D02*
X345227380Y135469346D01*
X345227380Y135755060D02*
X344227380Y135755060D01*
X344370238Y135659822D01*
X344465476Y135564584D01*
X344513095Y135469346D01*
X344227380Y136659822D02*
X344227380Y136755060D01*
X344275000Y136850298D01*
X344322619Y136897917D01*
X344417857Y136945536D01*
X344608333Y136993155D01*
X344846428Y136993155D01*
X345036904Y136945536D01*
X345132142Y136897917D01*
X345179761Y136850298D01*
X345227380Y136755060D01*
X345227380Y136659822D01*
X345179761Y136564584D01*
X345132142Y136516965D01*
X345036904Y136469346D01*
X344846428Y136421727D01*
X344608333Y136421727D01*
X344417857Y136469346D01*
X344322619Y136516965D01*
X344275000Y136564584D01*
X344227380Y136659822D01*
%TO.C,D30*%
X54714880Y86891965D02*
X53714880Y86891965D01*
X53714880Y87130060D01*
X53762500Y87272917D01*
X53857738Y87368155D01*
X53952976Y87415774D01*
X54143452Y87463393D01*
X54286309Y87463393D01*
X54476785Y87415774D01*
X54572023Y87368155D01*
X54667261Y87272917D01*
X54714880Y87130060D01*
X54714880Y86891965D01*
X53714880Y87796727D02*
X53714880Y88415774D01*
X54095833Y88082441D01*
X54095833Y88225298D01*
X54143452Y88320536D01*
X54191071Y88368155D01*
X54286309Y88415774D01*
X54524404Y88415774D01*
X54619642Y88368155D01*
X54667261Y88320536D01*
X54714880Y88225298D01*
X54714880Y87939584D01*
X54667261Y87844346D01*
X54619642Y87796727D01*
X53714880Y89034822D02*
X53714880Y89130060D01*
X53762500Y89225298D01*
X53810119Y89272917D01*
X53905357Y89320536D01*
X54095833Y89368155D01*
X54333928Y89368155D01*
X54524404Y89320536D01*
X54619642Y89272917D01*
X54667261Y89225298D01*
X54714880Y89130060D01*
X54714880Y89034822D01*
X54667261Y88939584D01*
X54619642Y88891965D01*
X54524404Y88844346D01*
X54333928Y88796727D01*
X54095833Y88796727D01*
X53905357Y88844346D01*
X53810119Y88891965D01*
X53762500Y88939584D01*
X53714880Y89034822D01*
%TO.C,D62*%
X235689880Y67841965D02*
X234689880Y67841965D01*
X234689880Y68080060D01*
X234737500Y68222917D01*
X234832738Y68318155D01*
X234927976Y68365774D01*
X235118452Y68413393D01*
X235261309Y68413393D01*
X235451785Y68365774D01*
X235547023Y68318155D01*
X235642261Y68222917D01*
X235689880Y68080060D01*
X235689880Y67841965D01*
X234689880Y69270536D02*
X234689880Y69080060D01*
X234737500Y68984822D01*
X234785119Y68937203D01*
X234927976Y68841965D01*
X235118452Y68794346D01*
X235499404Y68794346D01*
X235594642Y68841965D01*
X235642261Y68889584D01*
X235689880Y68984822D01*
X235689880Y69175298D01*
X235642261Y69270536D01*
X235594642Y69318155D01*
X235499404Y69365774D01*
X235261309Y69365774D01*
X235166071Y69318155D01*
X235118452Y69270536D01*
X235070833Y69175298D01*
X235070833Y68984822D01*
X235118452Y68889584D01*
X235166071Y68841965D01*
X235261309Y68794346D01*
X234785119Y69746727D02*
X234737500Y69794346D01*
X234689880Y69889584D01*
X234689880Y70127679D01*
X234737500Y70222917D01*
X234785119Y70270536D01*
X234880357Y70318155D01*
X234975595Y70318155D01*
X235118452Y70270536D01*
X235689880Y69699108D01*
X235689880Y70318155D01*
%TO.C,D41*%
X264264880Y86891965D02*
X263264880Y86891965D01*
X263264880Y87130060D01*
X263312500Y87272917D01*
X263407738Y87368155D01*
X263502976Y87415774D01*
X263693452Y87463393D01*
X263836309Y87463393D01*
X264026785Y87415774D01*
X264122023Y87368155D01*
X264217261Y87272917D01*
X264264880Y87130060D01*
X264264880Y86891965D01*
X263598214Y88320536D02*
X264264880Y88320536D01*
X263217261Y88082441D02*
X263931547Y87844346D01*
X263931547Y88463393D01*
X264264880Y89368155D02*
X264264880Y88796727D01*
X264264880Y89082441D02*
X263264880Y89082441D01*
X263407738Y88987203D01*
X263502976Y88891965D01*
X263550595Y88796727D01*
%TO.C,D109*%
X426189880Y29265774D02*
X425189880Y29265774D01*
X425189880Y29503870D01*
X425237500Y29646727D01*
X425332738Y29741965D01*
X425427976Y29789584D01*
X425618452Y29837203D01*
X425761309Y29837203D01*
X425951785Y29789584D01*
X426047023Y29741965D01*
X426142261Y29646727D01*
X426189880Y29503870D01*
X426189880Y29265774D01*
X426189880Y30789584D02*
X426189880Y30218155D01*
X426189880Y30503870D02*
X425189880Y30503870D01*
X425332738Y30408631D01*
X425427976Y30313393D01*
X425475595Y30218155D01*
X425189880Y31408631D02*
X425189880Y31503870D01*
X425237500Y31599108D01*
X425285119Y31646727D01*
X425380357Y31694346D01*
X425570833Y31741965D01*
X425808928Y31741965D01*
X425999404Y31694346D01*
X426094642Y31646727D01*
X426142261Y31599108D01*
X426189880Y31503870D01*
X426189880Y31408631D01*
X426142261Y31313393D01*
X426094642Y31265774D01*
X425999404Y31218155D01*
X425808928Y31170536D01*
X425570833Y31170536D01*
X425380357Y31218155D01*
X425285119Y31265774D01*
X425237500Y31313393D01*
X425189880Y31408631D01*
X426189880Y32218155D02*
X426189880Y32408631D01*
X426142261Y32503870D01*
X426094642Y32551489D01*
X425951785Y32646727D01*
X425761309Y32694346D01*
X425380357Y32694346D01*
X425285119Y32646727D01*
X425237500Y32599108D01*
X425189880Y32503870D01*
X425189880Y32313393D01*
X425237500Y32218155D01*
X425285119Y32170536D01*
X425380357Y32122917D01*
X425618452Y32122917D01*
X425713690Y32170536D01*
X425761309Y32218155D01*
X425808928Y32313393D01*
X425808928Y32503870D01*
X425761309Y32599108D01*
X425713690Y32646727D01*
X425618452Y32694346D01*
%TO.C,D98*%
X135677380Y29741965D02*
X134677380Y29741965D01*
X134677380Y29980060D01*
X134725000Y30122917D01*
X134820238Y30218155D01*
X134915476Y30265774D01*
X135105952Y30313393D01*
X135248809Y30313393D01*
X135439285Y30265774D01*
X135534523Y30218155D01*
X135629761Y30122917D01*
X135677380Y29980060D01*
X135677380Y29741965D01*
X135677380Y30789584D02*
X135677380Y30980060D01*
X135629761Y31075298D01*
X135582142Y31122917D01*
X135439285Y31218155D01*
X135248809Y31265774D01*
X134867857Y31265774D01*
X134772619Y31218155D01*
X134725000Y31170536D01*
X134677380Y31075298D01*
X134677380Y30884822D01*
X134725000Y30789584D01*
X134772619Y30741965D01*
X134867857Y30694346D01*
X135105952Y30694346D01*
X135201190Y30741965D01*
X135248809Y30789584D01*
X135296428Y30884822D01*
X135296428Y31075298D01*
X135248809Y31170536D01*
X135201190Y31218155D01*
X135105952Y31265774D01*
X135105952Y31837203D02*
X135058333Y31741965D01*
X135010714Y31694346D01*
X134915476Y31646727D01*
X134867857Y31646727D01*
X134772619Y31694346D01*
X134725000Y31741965D01*
X134677380Y31837203D01*
X134677380Y32027679D01*
X134725000Y32122917D01*
X134772619Y32170536D01*
X134867857Y32218155D01*
X134915476Y32218155D01*
X135010714Y32170536D01*
X135058333Y32122917D01*
X135105952Y32027679D01*
X135105952Y31837203D01*
X135153571Y31741965D01*
X135201190Y31694346D01*
X135296428Y31646727D01*
X135486904Y31646727D01*
X135582142Y31694346D01*
X135629761Y31741965D01*
X135677380Y31837203D01*
X135677380Y32027679D01*
X135629761Y32122917D01*
X135582142Y32170536D01*
X135486904Y32218155D01*
X135296428Y32218155D01*
X135201190Y32170536D01*
X135153571Y32122917D01*
X135105952Y32027679D01*
%TO.C,D100*%
X173777380Y29265774D02*
X172777380Y29265774D01*
X172777380Y29503870D01*
X172825000Y29646727D01*
X172920238Y29741965D01*
X173015476Y29789584D01*
X173205952Y29837203D01*
X173348809Y29837203D01*
X173539285Y29789584D01*
X173634523Y29741965D01*
X173729761Y29646727D01*
X173777380Y29503870D01*
X173777380Y29265774D01*
X173777380Y30789584D02*
X173777380Y30218155D01*
X173777380Y30503870D02*
X172777380Y30503870D01*
X172920238Y30408631D01*
X173015476Y30313393D01*
X173063095Y30218155D01*
X172777380Y31408631D02*
X172777380Y31503870D01*
X172825000Y31599108D01*
X172872619Y31646727D01*
X172967857Y31694346D01*
X173158333Y31741965D01*
X173396428Y31741965D01*
X173586904Y31694346D01*
X173682142Y31646727D01*
X173729761Y31599108D01*
X173777380Y31503870D01*
X173777380Y31408631D01*
X173729761Y31313393D01*
X173682142Y31265774D01*
X173586904Y31218155D01*
X173396428Y31170536D01*
X173158333Y31170536D01*
X172967857Y31218155D01*
X172872619Y31265774D01*
X172825000Y31313393D01*
X172777380Y31408631D01*
X172777380Y32361012D02*
X172777380Y32456250D01*
X172825000Y32551489D01*
X172872619Y32599108D01*
X172967857Y32646727D01*
X173158333Y32694346D01*
X173396428Y32694346D01*
X173586904Y32646727D01*
X173682142Y32599108D01*
X173729761Y32551489D01*
X173777380Y32456250D01*
X173777380Y32361012D01*
X173729761Y32265774D01*
X173682142Y32218155D01*
X173586904Y32170536D01*
X173396428Y32122917D01*
X173158333Y32122917D01*
X172967857Y32170536D01*
X172872619Y32218155D01*
X172825000Y32265774D01*
X172777380Y32361012D01*
%TO.C,D19*%
X216639880Y115466965D02*
X215639880Y115466965D01*
X215639880Y115705060D01*
X215687500Y115847917D01*
X215782738Y115943155D01*
X215877976Y115990774D01*
X216068452Y116038393D01*
X216211309Y116038393D01*
X216401785Y115990774D01*
X216497023Y115943155D01*
X216592261Y115847917D01*
X216639880Y115705060D01*
X216639880Y115466965D01*
X216639880Y116990774D02*
X216639880Y116419346D01*
X216639880Y116705060D02*
X215639880Y116705060D01*
X215782738Y116609822D01*
X215877976Y116514584D01*
X215925595Y116419346D01*
X216639880Y117466965D02*
X216639880Y117657441D01*
X216592261Y117752679D01*
X216544642Y117800298D01*
X216401785Y117895536D01*
X216211309Y117943155D01*
X215830357Y117943155D01*
X215735119Y117895536D01*
X215687500Y117847917D01*
X215639880Y117752679D01*
X215639880Y117562203D01*
X215687500Y117466965D01*
X215735119Y117419346D01*
X215830357Y117371727D01*
X216068452Y117371727D01*
X216163690Y117419346D01*
X216211309Y117466965D01*
X216258928Y117562203D01*
X216258928Y117752679D01*
X216211309Y117847917D01*
X216163690Y117895536D01*
X216068452Y117943155D01*
%TO.C,D50*%
X464289880Y86891965D02*
X463289880Y86891965D01*
X463289880Y87130060D01*
X463337500Y87272917D01*
X463432738Y87368155D01*
X463527976Y87415774D01*
X463718452Y87463393D01*
X463861309Y87463393D01*
X464051785Y87415774D01*
X464147023Y87368155D01*
X464242261Y87272917D01*
X464289880Y87130060D01*
X464289880Y86891965D01*
X463289880Y88368155D02*
X463289880Y87891965D01*
X463766071Y87844346D01*
X463718452Y87891965D01*
X463670833Y87987203D01*
X463670833Y88225298D01*
X463718452Y88320536D01*
X463766071Y88368155D01*
X463861309Y88415774D01*
X464099404Y88415774D01*
X464194642Y88368155D01*
X464242261Y88320536D01*
X464289880Y88225298D01*
X464289880Y87987203D01*
X464242261Y87891965D01*
X464194642Y87844346D01*
X463289880Y89034822D02*
X463289880Y89130060D01*
X463337500Y89225298D01*
X463385119Y89272917D01*
X463480357Y89320536D01*
X463670833Y89368155D01*
X463908928Y89368155D01*
X464099404Y89320536D01*
X464194642Y89272917D01*
X464242261Y89225298D01*
X464289880Y89130060D01*
X464289880Y89034822D01*
X464242261Y88939584D01*
X464194642Y88891965D01*
X464099404Y88844346D01*
X463908928Y88796727D01*
X463670833Y88796727D01*
X463480357Y88844346D01*
X463385119Y88891965D01*
X463337500Y88939584D01*
X463289880Y89034822D01*
%TO.C,D69*%
X383327380Y67841965D02*
X382327380Y67841965D01*
X382327380Y68080060D01*
X382375000Y68222917D01*
X382470238Y68318155D01*
X382565476Y68365774D01*
X382755952Y68413393D01*
X382898809Y68413393D01*
X383089285Y68365774D01*
X383184523Y68318155D01*
X383279761Y68222917D01*
X383327380Y68080060D01*
X383327380Y67841965D01*
X382327380Y69270536D02*
X382327380Y69080060D01*
X382375000Y68984822D01*
X382422619Y68937203D01*
X382565476Y68841965D01*
X382755952Y68794346D01*
X383136904Y68794346D01*
X383232142Y68841965D01*
X383279761Y68889584D01*
X383327380Y68984822D01*
X383327380Y69175298D01*
X383279761Y69270536D01*
X383232142Y69318155D01*
X383136904Y69365774D01*
X382898809Y69365774D01*
X382803571Y69318155D01*
X382755952Y69270536D01*
X382708333Y69175298D01*
X382708333Y68984822D01*
X382755952Y68889584D01*
X382803571Y68841965D01*
X382898809Y68794346D01*
X383327380Y69841965D02*
X383327380Y70032441D01*
X383279761Y70127679D01*
X383232142Y70175298D01*
X383089285Y70270536D01*
X382898809Y70318155D01*
X382517857Y70318155D01*
X382422619Y70270536D01*
X382375000Y70222917D01*
X382327380Y70127679D01*
X382327380Y69937203D01*
X382375000Y69841965D01*
X382422619Y69794346D01*
X382517857Y69746727D01*
X382755952Y69746727D01*
X382851190Y69794346D01*
X382898809Y69841965D01*
X382946428Y69937203D01*
X382946428Y70127679D01*
X382898809Y70222917D01*
X382851190Y70270536D01*
X382755952Y70318155D01*
%TO.C,D55*%
X102339880Y67841965D02*
X101339880Y67841965D01*
X101339880Y68080060D01*
X101387500Y68222917D01*
X101482738Y68318155D01*
X101577976Y68365774D01*
X101768452Y68413393D01*
X101911309Y68413393D01*
X102101785Y68365774D01*
X102197023Y68318155D01*
X102292261Y68222917D01*
X102339880Y68080060D01*
X102339880Y67841965D01*
X101339880Y69318155D02*
X101339880Y68841965D01*
X101816071Y68794346D01*
X101768452Y68841965D01*
X101720833Y68937203D01*
X101720833Y69175298D01*
X101768452Y69270536D01*
X101816071Y69318155D01*
X101911309Y69365774D01*
X102149404Y69365774D01*
X102244642Y69318155D01*
X102292261Y69270536D01*
X102339880Y69175298D01*
X102339880Y68937203D01*
X102292261Y68841965D01*
X102244642Y68794346D01*
X101339880Y70270536D02*
X101339880Y69794346D01*
X101816071Y69746727D01*
X101768452Y69794346D01*
X101720833Y69889584D01*
X101720833Y70127679D01*
X101768452Y70222917D01*
X101816071Y70270536D01*
X101911309Y70318155D01*
X102149404Y70318155D01*
X102244642Y70270536D01*
X102292261Y70222917D01*
X102339880Y70127679D01*
X102339880Y69889584D01*
X102292261Y69794346D01*
X102244642Y69746727D01*
%TO.C,D23*%
X302364880Y115466965D02*
X301364880Y115466965D01*
X301364880Y115705060D01*
X301412500Y115847917D01*
X301507738Y115943155D01*
X301602976Y115990774D01*
X301793452Y116038393D01*
X301936309Y116038393D01*
X302126785Y115990774D01*
X302222023Y115943155D01*
X302317261Y115847917D01*
X302364880Y115705060D01*
X302364880Y115466965D01*
X301460119Y116419346D02*
X301412500Y116466965D01*
X301364880Y116562203D01*
X301364880Y116800298D01*
X301412500Y116895536D01*
X301460119Y116943155D01*
X301555357Y116990774D01*
X301650595Y116990774D01*
X301793452Y116943155D01*
X302364880Y116371727D01*
X302364880Y116990774D01*
X301364880Y117324108D02*
X301364880Y117943155D01*
X301745833Y117609822D01*
X301745833Y117752679D01*
X301793452Y117847917D01*
X301841071Y117895536D01*
X301936309Y117943155D01*
X302174404Y117943155D01*
X302269642Y117895536D01*
X302317261Y117847917D01*
X302364880Y117752679D01*
X302364880Y117466965D01*
X302317261Y117371727D01*
X302269642Y117324108D01*
%TO.C,D75*%
X30902380Y48791965D02*
X29902380Y48791965D01*
X29902380Y49030060D01*
X29950000Y49172917D01*
X30045238Y49268155D01*
X30140476Y49315774D01*
X30330952Y49363393D01*
X30473809Y49363393D01*
X30664285Y49315774D01*
X30759523Y49268155D01*
X30854761Y49172917D01*
X30902380Y49030060D01*
X30902380Y48791965D01*
X29902380Y49696727D02*
X29902380Y50363393D01*
X30902380Y49934822D01*
X29902380Y51220536D02*
X29902380Y50744346D01*
X30378571Y50696727D01*
X30330952Y50744346D01*
X30283333Y50839584D01*
X30283333Y51077679D01*
X30330952Y51172917D01*
X30378571Y51220536D01*
X30473809Y51268155D01*
X30711904Y51268155D01*
X30807142Y51220536D01*
X30854761Y51172917D01*
X30902380Y51077679D01*
X30902380Y50839584D01*
X30854761Y50744346D01*
X30807142Y50696727D01*
%TO.C,D56*%
X121389880Y67841965D02*
X120389880Y67841965D01*
X120389880Y68080060D01*
X120437500Y68222917D01*
X120532738Y68318155D01*
X120627976Y68365774D01*
X120818452Y68413393D01*
X120961309Y68413393D01*
X121151785Y68365774D01*
X121247023Y68318155D01*
X121342261Y68222917D01*
X121389880Y68080060D01*
X121389880Y67841965D01*
X120389880Y69318155D02*
X120389880Y68841965D01*
X120866071Y68794346D01*
X120818452Y68841965D01*
X120770833Y68937203D01*
X120770833Y69175298D01*
X120818452Y69270536D01*
X120866071Y69318155D01*
X120961309Y69365774D01*
X121199404Y69365774D01*
X121294642Y69318155D01*
X121342261Y69270536D01*
X121389880Y69175298D01*
X121389880Y68937203D01*
X121342261Y68841965D01*
X121294642Y68794346D01*
X120389880Y70222917D02*
X120389880Y70032441D01*
X120437500Y69937203D01*
X120485119Y69889584D01*
X120627976Y69794346D01*
X120818452Y69746727D01*
X121199404Y69746727D01*
X121294642Y69794346D01*
X121342261Y69841965D01*
X121389880Y69937203D01*
X121389880Y70127679D01*
X121342261Y70222917D01*
X121294642Y70270536D01*
X121199404Y70318155D01*
X120961309Y70318155D01*
X120866071Y70270536D01*
X120818452Y70222917D01*
X120770833Y70127679D01*
X120770833Y69937203D01*
X120818452Y69841965D01*
X120866071Y69794346D01*
X120961309Y69746727D01*
%TO.C,D4*%
X130914880Y134993155D02*
X129914880Y134993155D01*
X129914880Y135231250D01*
X129962500Y135374108D01*
X130057738Y135469346D01*
X130152976Y135516965D01*
X130343452Y135564584D01*
X130486309Y135564584D01*
X130676785Y135516965D01*
X130772023Y135469346D01*
X130867261Y135374108D01*
X130914880Y135231250D01*
X130914880Y134993155D01*
X130248214Y136421727D02*
X130914880Y136421727D01*
X129867261Y136183631D02*
X130581547Y135945536D01*
X130581547Y136564584D01*
%TO.C,D64*%
X273789880Y67841965D02*
X272789880Y67841965D01*
X272789880Y68080060D01*
X272837500Y68222917D01*
X272932738Y68318155D01*
X273027976Y68365774D01*
X273218452Y68413393D01*
X273361309Y68413393D01*
X273551785Y68365774D01*
X273647023Y68318155D01*
X273742261Y68222917D01*
X273789880Y68080060D01*
X273789880Y67841965D01*
X272789880Y69270536D02*
X272789880Y69080060D01*
X272837500Y68984822D01*
X272885119Y68937203D01*
X273027976Y68841965D01*
X273218452Y68794346D01*
X273599404Y68794346D01*
X273694642Y68841965D01*
X273742261Y68889584D01*
X273789880Y68984822D01*
X273789880Y69175298D01*
X273742261Y69270536D01*
X273694642Y69318155D01*
X273599404Y69365774D01*
X273361309Y69365774D01*
X273266071Y69318155D01*
X273218452Y69270536D01*
X273170833Y69175298D01*
X273170833Y68984822D01*
X273218452Y68889584D01*
X273266071Y68841965D01*
X273361309Y68794346D01*
X273123214Y70222917D02*
X273789880Y70222917D01*
X272742261Y69984822D02*
X273456547Y69746727D01*
X273456547Y70365774D01*
%TO.C,D127*%
X460539880Y11803274D02*
X459539880Y11803274D01*
X459539880Y12041370D01*
X459587500Y12184227D01*
X459682738Y12279465D01*
X459777976Y12327084D01*
X459968452Y12374703D01*
X460111309Y12374703D01*
X460301785Y12327084D01*
X460397023Y12279465D01*
X460492261Y12184227D01*
X460539880Y12041370D01*
X460539880Y11803274D01*
X460539880Y13327084D02*
X460539880Y12755655D01*
X460539880Y13041370D02*
X459539880Y13041370D01*
X459682738Y12946131D01*
X459777976Y12850893D01*
X459825595Y12755655D01*
X459635119Y13708036D02*
X459587500Y13755655D01*
X459539880Y13850893D01*
X459539880Y14088989D01*
X459587500Y14184227D01*
X459635119Y14231846D01*
X459730357Y14279465D01*
X459825595Y14279465D01*
X459968452Y14231846D01*
X460539880Y13660417D01*
X460539880Y14279465D01*
X459539880Y14612798D02*
X459539880Y15279465D01*
X460539880Y14850893D01*
%TO.C,D5*%
X149964880Y134993155D02*
X148964880Y134993155D01*
X148964880Y135231250D01*
X149012500Y135374108D01*
X149107738Y135469346D01*
X149202976Y135516965D01*
X149393452Y135564584D01*
X149536309Y135564584D01*
X149726785Y135516965D01*
X149822023Y135469346D01*
X149917261Y135374108D01*
X149964880Y135231250D01*
X149964880Y134993155D01*
X148964880Y136469346D02*
X148964880Y135993155D01*
X149441071Y135945536D01*
X149393452Y135993155D01*
X149345833Y136088393D01*
X149345833Y136326489D01*
X149393452Y136421727D01*
X149441071Y136469346D01*
X149536309Y136516965D01*
X149774404Y136516965D01*
X149869642Y136469346D01*
X149917261Y136421727D01*
X149964880Y136326489D01*
X149964880Y136088393D01*
X149917261Y135993155D01*
X149869642Y135945536D01*
%TO.C,D65*%
X292839880Y67841965D02*
X291839880Y67841965D01*
X291839880Y68080060D01*
X291887500Y68222917D01*
X291982738Y68318155D01*
X292077976Y68365774D01*
X292268452Y68413393D01*
X292411309Y68413393D01*
X292601785Y68365774D01*
X292697023Y68318155D01*
X292792261Y68222917D01*
X292839880Y68080060D01*
X292839880Y67841965D01*
X291839880Y69270536D02*
X291839880Y69080060D01*
X291887500Y68984822D01*
X291935119Y68937203D01*
X292077976Y68841965D01*
X292268452Y68794346D01*
X292649404Y68794346D01*
X292744642Y68841965D01*
X292792261Y68889584D01*
X292839880Y68984822D01*
X292839880Y69175298D01*
X292792261Y69270536D01*
X292744642Y69318155D01*
X292649404Y69365774D01*
X292411309Y69365774D01*
X292316071Y69318155D01*
X292268452Y69270536D01*
X292220833Y69175298D01*
X292220833Y68984822D01*
X292268452Y68889584D01*
X292316071Y68841965D01*
X292411309Y68794346D01*
X291839880Y70270536D02*
X291839880Y69794346D01*
X292316071Y69746727D01*
X292268452Y69794346D01*
X292220833Y69889584D01*
X292220833Y70127679D01*
X292268452Y70222917D01*
X292316071Y70270536D01*
X292411309Y70318155D01*
X292649404Y70318155D01*
X292744642Y70270536D01*
X292792261Y70222917D01*
X292839880Y70127679D01*
X292839880Y69889584D01*
X292792261Y69794346D01*
X292744642Y69746727D01*
%TO.C,D42*%
X283314880Y86891965D02*
X282314880Y86891965D01*
X282314880Y87130060D01*
X282362500Y87272917D01*
X282457738Y87368155D01*
X282552976Y87415774D01*
X282743452Y87463393D01*
X282886309Y87463393D01*
X283076785Y87415774D01*
X283172023Y87368155D01*
X283267261Y87272917D01*
X283314880Y87130060D01*
X283314880Y86891965D01*
X282648214Y88320536D02*
X283314880Y88320536D01*
X282267261Y88082441D02*
X282981547Y87844346D01*
X282981547Y88463393D01*
X282410119Y88796727D02*
X282362500Y88844346D01*
X282314880Y88939584D01*
X282314880Y89177679D01*
X282362500Y89272917D01*
X282410119Y89320536D01*
X282505357Y89368155D01*
X282600595Y89368155D01*
X282743452Y89320536D01*
X283314880Y88749108D01*
X283314880Y89368155D01*
%TO.C,D108*%
X407139880Y29265774D02*
X406139880Y29265774D01*
X406139880Y29503870D01*
X406187500Y29646727D01*
X406282738Y29741965D01*
X406377976Y29789584D01*
X406568452Y29837203D01*
X406711309Y29837203D01*
X406901785Y29789584D01*
X406997023Y29741965D01*
X407092261Y29646727D01*
X407139880Y29503870D01*
X407139880Y29265774D01*
X407139880Y30789584D02*
X407139880Y30218155D01*
X407139880Y30503870D02*
X406139880Y30503870D01*
X406282738Y30408631D01*
X406377976Y30313393D01*
X406425595Y30218155D01*
X406139880Y31408631D02*
X406139880Y31503870D01*
X406187500Y31599108D01*
X406235119Y31646727D01*
X406330357Y31694346D01*
X406520833Y31741965D01*
X406758928Y31741965D01*
X406949404Y31694346D01*
X407044642Y31646727D01*
X407092261Y31599108D01*
X407139880Y31503870D01*
X407139880Y31408631D01*
X407092261Y31313393D01*
X407044642Y31265774D01*
X406949404Y31218155D01*
X406758928Y31170536D01*
X406520833Y31170536D01*
X406330357Y31218155D01*
X406235119Y31265774D01*
X406187500Y31313393D01*
X406139880Y31408631D01*
X406568452Y32313393D02*
X406520833Y32218155D01*
X406473214Y32170536D01*
X406377976Y32122917D01*
X406330357Y32122917D01*
X406235119Y32170536D01*
X406187500Y32218155D01*
X406139880Y32313393D01*
X406139880Y32503870D01*
X406187500Y32599108D01*
X406235119Y32646727D01*
X406330357Y32694346D01*
X406377976Y32694346D01*
X406473214Y32646727D01*
X406520833Y32599108D01*
X406568452Y32503870D01*
X406568452Y32313393D01*
X406616071Y32218155D01*
X406663690Y32170536D01*
X406758928Y32122917D01*
X406949404Y32122917D01*
X407044642Y32170536D01*
X407092261Y32218155D01*
X407139880Y32313393D01*
X407139880Y32503870D01*
X407092261Y32599108D01*
X407044642Y32646727D01*
X406949404Y32694346D01*
X406758928Y32694346D01*
X406663690Y32646727D01*
X406616071Y32599108D01*
X406568452Y32503870D01*
%TO.C,D73*%
X464289880Y67841965D02*
X463289880Y67841965D01*
X463289880Y68080060D01*
X463337500Y68222917D01*
X463432738Y68318155D01*
X463527976Y68365774D01*
X463718452Y68413393D01*
X463861309Y68413393D01*
X464051785Y68365774D01*
X464147023Y68318155D01*
X464242261Y68222917D01*
X464289880Y68080060D01*
X464289880Y67841965D01*
X463289880Y68746727D02*
X463289880Y69413393D01*
X464289880Y68984822D01*
X463289880Y69699108D02*
X463289880Y70318155D01*
X463670833Y69984822D01*
X463670833Y70127679D01*
X463718452Y70222917D01*
X463766071Y70270536D01*
X463861309Y70318155D01*
X464099404Y70318155D01*
X464194642Y70270536D01*
X464242261Y70222917D01*
X464289880Y70127679D01*
X464289880Y69841965D01*
X464242261Y69746727D01*
X464194642Y69699108D01*
%TO.C,D93*%
X11852380Y29741965D02*
X10852380Y29741965D01*
X10852380Y29980060D01*
X10900000Y30122917D01*
X10995238Y30218155D01*
X11090476Y30265774D01*
X11280952Y30313393D01*
X11423809Y30313393D01*
X11614285Y30265774D01*
X11709523Y30218155D01*
X11804761Y30122917D01*
X11852380Y29980060D01*
X11852380Y29741965D01*
X11852380Y30789584D02*
X11852380Y30980060D01*
X11804761Y31075298D01*
X11757142Y31122917D01*
X11614285Y31218155D01*
X11423809Y31265774D01*
X11042857Y31265774D01*
X10947619Y31218155D01*
X10900000Y31170536D01*
X10852380Y31075298D01*
X10852380Y30884822D01*
X10900000Y30789584D01*
X10947619Y30741965D01*
X11042857Y30694346D01*
X11280952Y30694346D01*
X11376190Y30741965D01*
X11423809Y30789584D01*
X11471428Y30884822D01*
X11471428Y31075298D01*
X11423809Y31170536D01*
X11376190Y31218155D01*
X11280952Y31265774D01*
X10852380Y31599108D02*
X10852380Y32218155D01*
X11233333Y31884822D01*
X11233333Y32027679D01*
X11280952Y32122917D01*
X11328571Y32170536D01*
X11423809Y32218155D01*
X11661904Y32218155D01*
X11757142Y32170536D01*
X11804761Y32122917D01*
X11852380Y32027679D01*
X11852380Y31741965D01*
X11804761Y31646727D01*
X11757142Y31599108D01*
%TO.C,D7*%
X197589880Y134993155D02*
X196589880Y134993155D01*
X196589880Y135231250D01*
X196637500Y135374108D01*
X196732738Y135469346D01*
X196827976Y135516965D01*
X197018452Y135564584D01*
X197161309Y135564584D01*
X197351785Y135516965D01*
X197447023Y135469346D01*
X197542261Y135374108D01*
X197589880Y135231250D01*
X197589880Y134993155D01*
X196589880Y135897917D02*
X196589880Y136564584D01*
X197589880Y136136012D01*
%TO.C,D119*%
X295221130Y10215774D02*
X294221130Y10215774D01*
X294221130Y10453870D01*
X294268750Y10596727D01*
X294363988Y10691965D01*
X294459226Y10739584D01*
X294649702Y10787203D01*
X294792559Y10787203D01*
X294983035Y10739584D01*
X295078273Y10691965D01*
X295173511Y10596727D01*
X295221130Y10453870D01*
X295221130Y10215774D01*
X295221130Y11739584D02*
X295221130Y11168155D01*
X295221130Y11453870D02*
X294221130Y11453870D01*
X294363988Y11358631D01*
X294459226Y11263393D01*
X294506845Y11168155D01*
X295221130Y12691965D02*
X295221130Y12120536D01*
X295221130Y12406250D02*
X294221130Y12406250D01*
X294363988Y12311012D01*
X294459226Y12215774D01*
X294506845Y12120536D01*
X295221130Y13168155D02*
X295221130Y13358631D01*
X295173511Y13453870D01*
X295125892Y13501489D01*
X294983035Y13596727D01*
X294792559Y13644346D01*
X294411607Y13644346D01*
X294316369Y13596727D01*
X294268750Y13549108D01*
X294221130Y13453870D01*
X294221130Y13263393D01*
X294268750Y13168155D01*
X294316369Y13120536D01*
X294411607Y13072917D01*
X294649702Y13072917D01*
X294744940Y13120536D01*
X294792559Y13168155D01*
X294840178Y13263393D01*
X294840178Y13453870D01*
X294792559Y13549108D01*
X294744940Y13596727D01*
X294649702Y13644346D01*
%TO.C,D96*%
X97577380Y29741965D02*
X96577380Y29741965D01*
X96577380Y29980060D01*
X96625000Y30122917D01*
X96720238Y30218155D01*
X96815476Y30265774D01*
X97005952Y30313393D01*
X97148809Y30313393D01*
X97339285Y30265774D01*
X97434523Y30218155D01*
X97529761Y30122917D01*
X97577380Y29980060D01*
X97577380Y29741965D01*
X97577380Y30789584D02*
X97577380Y30980060D01*
X97529761Y31075298D01*
X97482142Y31122917D01*
X97339285Y31218155D01*
X97148809Y31265774D01*
X96767857Y31265774D01*
X96672619Y31218155D01*
X96625000Y31170536D01*
X96577380Y31075298D01*
X96577380Y30884822D01*
X96625000Y30789584D01*
X96672619Y30741965D01*
X96767857Y30694346D01*
X97005952Y30694346D01*
X97101190Y30741965D01*
X97148809Y30789584D01*
X97196428Y30884822D01*
X97196428Y31075298D01*
X97148809Y31170536D01*
X97101190Y31218155D01*
X97005952Y31265774D01*
X96577380Y32122917D02*
X96577380Y31932441D01*
X96625000Y31837203D01*
X96672619Y31789584D01*
X96815476Y31694346D01*
X97005952Y31646727D01*
X97386904Y31646727D01*
X97482142Y31694346D01*
X97529761Y31741965D01*
X97577380Y31837203D01*
X97577380Y32027679D01*
X97529761Y32122917D01*
X97482142Y32170536D01*
X97386904Y32218155D01*
X97148809Y32218155D01*
X97053571Y32170536D01*
X97005952Y32122917D01*
X96958333Y32027679D01*
X96958333Y31837203D01*
X97005952Y31741965D01*
X97053571Y31694346D01*
X97148809Y31646727D01*
%TO.C,D112*%
X30902380Y10215774D02*
X29902380Y10215774D01*
X29902380Y10453870D01*
X29950000Y10596727D01*
X30045238Y10691965D01*
X30140476Y10739584D01*
X30330952Y10787203D01*
X30473809Y10787203D01*
X30664285Y10739584D01*
X30759523Y10691965D01*
X30854761Y10596727D01*
X30902380Y10453870D01*
X30902380Y10215774D01*
X30902380Y11739584D02*
X30902380Y11168155D01*
X30902380Y11453870D02*
X29902380Y11453870D01*
X30045238Y11358631D01*
X30140476Y11263393D01*
X30188095Y11168155D01*
X30902380Y12691965D02*
X30902380Y12120536D01*
X30902380Y12406250D02*
X29902380Y12406250D01*
X30045238Y12311012D01*
X30140476Y12215774D01*
X30188095Y12120536D01*
X29997619Y13072917D02*
X29950000Y13120536D01*
X29902380Y13215774D01*
X29902380Y13453870D01*
X29950000Y13549108D01*
X29997619Y13596727D01*
X30092857Y13644346D01*
X30188095Y13644346D01*
X30330952Y13596727D01*
X30902380Y13025298D01*
X30902380Y13644346D01*
%TO.C,D40*%
X245214880Y86891965D02*
X244214880Y86891965D01*
X244214880Y87130060D01*
X244262500Y87272917D01*
X244357738Y87368155D01*
X244452976Y87415774D01*
X244643452Y87463393D01*
X244786309Y87463393D01*
X244976785Y87415774D01*
X245072023Y87368155D01*
X245167261Y87272917D01*
X245214880Y87130060D01*
X245214880Y86891965D01*
X244548214Y88320536D02*
X245214880Y88320536D01*
X244167261Y88082441D02*
X244881547Y87844346D01*
X244881547Y88463393D01*
X244214880Y89034822D02*
X244214880Y89130060D01*
X244262500Y89225298D01*
X244310119Y89272917D01*
X244405357Y89320536D01*
X244595833Y89368155D01*
X244833928Y89368155D01*
X245024404Y89320536D01*
X245119642Y89272917D01*
X245167261Y89225298D01*
X245214880Y89130060D01*
X245214880Y89034822D01*
X245167261Y88939584D01*
X245119642Y88891965D01*
X245024404Y88844346D01*
X244833928Y88796727D01*
X244595833Y88796727D01*
X244405357Y88844346D01*
X244310119Y88891965D01*
X244262500Y88939584D01*
X244214880Y89034822D01*
%TO.C,D87*%
X278552380Y48791965D02*
X277552380Y48791965D01*
X277552380Y49030060D01*
X277600000Y49172917D01*
X277695238Y49268155D01*
X277790476Y49315774D01*
X277980952Y49363393D01*
X278123809Y49363393D01*
X278314285Y49315774D01*
X278409523Y49268155D01*
X278504761Y49172917D01*
X278552380Y49030060D01*
X278552380Y48791965D01*
X277980952Y49934822D02*
X277933333Y49839584D01*
X277885714Y49791965D01*
X277790476Y49744346D01*
X277742857Y49744346D01*
X277647619Y49791965D01*
X277600000Y49839584D01*
X277552380Y49934822D01*
X277552380Y50125298D01*
X277600000Y50220536D01*
X277647619Y50268155D01*
X277742857Y50315774D01*
X277790476Y50315774D01*
X277885714Y50268155D01*
X277933333Y50220536D01*
X277980952Y50125298D01*
X277980952Y49934822D01*
X278028571Y49839584D01*
X278076190Y49791965D01*
X278171428Y49744346D01*
X278361904Y49744346D01*
X278457142Y49791965D01*
X278504761Y49839584D01*
X278552380Y49934822D01*
X278552380Y50125298D01*
X278504761Y50220536D01*
X278457142Y50268155D01*
X278361904Y50315774D01*
X278171428Y50315774D01*
X278076190Y50268155D01*
X278028571Y50220536D01*
X277980952Y50125298D01*
X277552380Y50649108D02*
X277552380Y51315774D01*
X278552380Y50887203D01*
%TO.C,D31*%
X73764880Y86891965D02*
X72764880Y86891965D01*
X72764880Y87130060D01*
X72812500Y87272917D01*
X72907738Y87368155D01*
X73002976Y87415774D01*
X73193452Y87463393D01*
X73336309Y87463393D01*
X73526785Y87415774D01*
X73622023Y87368155D01*
X73717261Y87272917D01*
X73764880Y87130060D01*
X73764880Y86891965D01*
X72764880Y87796727D02*
X72764880Y88415774D01*
X73145833Y88082441D01*
X73145833Y88225298D01*
X73193452Y88320536D01*
X73241071Y88368155D01*
X73336309Y88415774D01*
X73574404Y88415774D01*
X73669642Y88368155D01*
X73717261Y88320536D01*
X73764880Y88225298D01*
X73764880Y87939584D01*
X73717261Y87844346D01*
X73669642Y87796727D01*
X73764880Y89368155D02*
X73764880Y88796727D01*
X73764880Y89082441D02*
X72764880Y89082441D01*
X72907738Y88987203D01*
X73002976Y88891965D01*
X73050595Y88796727D01*
%TO.C,D94*%
X30902380Y29741965D02*
X29902380Y29741965D01*
X29902380Y29980060D01*
X29950000Y30122917D01*
X30045238Y30218155D01*
X30140476Y30265774D01*
X30330952Y30313393D01*
X30473809Y30313393D01*
X30664285Y30265774D01*
X30759523Y30218155D01*
X30854761Y30122917D01*
X30902380Y29980060D01*
X30902380Y29741965D01*
X30902380Y30789584D02*
X30902380Y30980060D01*
X30854761Y31075298D01*
X30807142Y31122917D01*
X30664285Y31218155D01*
X30473809Y31265774D01*
X30092857Y31265774D01*
X29997619Y31218155D01*
X29950000Y31170536D01*
X29902380Y31075298D01*
X29902380Y30884822D01*
X29950000Y30789584D01*
X29997619Y30741965D01*
X30092857Y30694346D01*
X30330952Y30694346D01*
X30426190Y30741965D01*
X30473809Y30789584D01*
X30521428Y30884822D01*
X30521428Y31075298D01*
X30473809Y31170536D01*
X30426190Y31218155D01*
X30330952Y31265774D01*
X30235714Y32122917D02*
X30902380Y32122917D01*
X29854761Y31884822D02*
X30569047Y31646727D01*
X30569047Y32265774D01*
%TO.C,DA1*%
X452509083Y134074120D02*
X452509083Y135074120D01*
X452747178Y135074120D01*
X452890035Y135026500D01*
X452985273Y134931262D01*
X453032892Y134836024D01*
X453080511Y134645548D01*
X453080511Y134502691D01*
X453032892Y134312215D01*
X452985273Y134216977D01*
X452890035Y134121739D01*
X452747178Y134074120D01*
X452509083Y134074120D01*
X453461464Y134359834D02*
X453937654Y134359834D01*
X453366226Y134074120D02*
X453699559Y135074120D01*
X454032892Y134074120D01*
X454890035Y134074120D02*
X454318607Y134074120D01*
X454604321Y134074120D02*
X454604321Y135074120D01*
X454509083Y134931262D01*
X454413845Y134836024D01*
X454318607Y134788405D01*
%TO.C,D49*%
X445239880Y86891965D02*
X444239880Y86891965D01*
X444239880Y87130060D01*
X444287500Y87272917D01*
X444382738Y87368155D01*
X444477976Y87415774D01*
X444668452Y87463393D01*
X444811309Y87463393D01*
X445001785Y87415774D01*
X445097023Y87368155D01*
X445192261Y87272917D01*
X445239880Y87130060D01*
X445239880Y86891965D01*
X444573214Y88320536D02*
X445239880Y88320536D01*
X444192261Y88082441D02*
X444906547Y87844346D01*
X444906547Y88463393D01*
X445239880Y88891965D02*
X445239880Y89082441D01*
X445192261Y89177679D01*
X445144642Y89225298D01*
X445001785Y89320536D01*
X444811309Y89368155D01*
X444430357Y89368155D01*
X444335119Y89320536D01*
X444287500Y89272917D01*
X444239880Y89177679D01*
X444239880Y88987203D01*
X444287500Y88891965D01*
X444335119Y88844346D01*
X444430357Y88796727D01*
X444668452Y88796727D01*
X444763690Y88844346D01*
X444811309Y88891965D01*
X444858928Y88987203D01*
X444858928Y89177679D01*
X444811309Y89272917D01*
X444763690Y89320536D01*
X444668452Y89368155D01*
%TO.C,D48*%
X426189880Y86891965D02*
X425189880Y86891965D01*
X425189880Y87130060D01*
X425237500Y87272917D01*
X425332738Y87368155D01*
X425427976Y87415774D01*
X425618452Y87463393D01*
X425761309Y87463393D01*
X425951785Y87415774D01*
X426047023Y87368155D01*
X426142261Y87272917D01*
X426189880Y87130060D01*
X426189880Y86891965D01*
X425523214Y88320536D02*
X426189880Y88320536D01*
X425142261Y88082441D02*
X425856547Y87844346D01*
X425856547Y88463393D01*
X425618452Y88987203D02*
X425570833Y88891965D01*
X425523214Y88844346D01*
X425427976Y88796727D01*
X425380357Y88796727D01*
X425285119Y88844346D01*
X425237500Y88891965D01*
X425189880Y88987203D01*
X425189880Y89177679D01*
X425237500Y89272917D01*
X425285119Y89320536D01*
X425380357Y89368155D01*
X425427976Y89368155D01*
X425523214Y89320536D01*
X425570833Y89272917D01*
X425618452Y89177679D01*
X425618452Y88987203D01*
X425666071Y88891965D01*
X425713690Y88844346D01*
X425808928Y88796727D01*
X425999404Y88796727D01*
X426094642Y88844346D01*
X426142261Y88891965D01*
X426189880Y88987203D01*
X426189880Y89177679D01*
X426142261Y89272917D01*
X426094642Y89320536D01*
X425999404Y89368155D01*
X425808928Y89368155D01*
X425713690Y89320536D01*
X425666071Y89272917D01*
X425618452Y89177679D01*
%TO.C,D102*%
X211877380Y29265774D02*
X210877380Y29265774D01*
X210877380Y29503870D01*
X210925000Y29646727D01*
X211020238Y29741965D01*
X211115476Y29789584D01*
X211305952Y29837203D01*
X211448809Y29837203D01*
X211639285Y29789584D01*
X211734523Y29741965D01*
X211829761Y29646727D01*
X211877380Y29503870D01*
X211877380Y29265774D01*
X211877380Y30789584D02*
X211877380Y30218155D01*
X211877380Y30503870D02*
X210877380Y30503870D01*
X211020238Y30408631D01*
X211115476Y30313393D01*
X211163095Y30218155D01*
X210877380Y31408631D02*
X210877380Y31503870D01*
X210925000Y31599108D01*
X210972619Y31646727D01*
X211067857Y31694346D01*
X211258333Y31741965D01*
X211496428Y31741965D01*
X211686904Y31694346D01*
X211782142Y31646727D01*
X211829761Y31599108D01*
X211877380Y31503870D01*
X211877380Y31408631D01*
X211829761Y31313393D01*
X211782142Y31265774D01*
X211686904Y31218155D01*
X211496428Y31170536D01*
X211258333Y31170536D01*
X211067857Y31218155D01*
X210972619Y31265774D01*
X210925000Y31313393D01*
X210877380Y31408631D01*
X210972619Y32122917D02*
X210925000Y32170536D01*
X210877380Y32265774D01*
X210877380Y32503870D01*
X210925000Y32599108D01*
X210972619Y32646727D01*
X211067857Y32694346D01*
X211163095Y32694346D01*
X211305952Y32646727D01*
X211877380Y32075298D01*
X211877380Y32694346D01*
%TO.C,D46*%
X383327380Y86891965D02*
X382327380Y86891965D01*
X382327380Y87130060D01*
X382375000Y87272917D01*
X382470238Y87368155D01*
X382565476Y87415774D01*
X382755952Y87463393D01*
X382898809Y87463393D01*
X383089285Y87415774D01*
X383184523Y87368155D01*
X383279761Y87272917D01*
X383327380Y87130060D01*
X383327380Y86891965D01*
X382660714Y88320536D02*
X383327380Y88320536D01*
X382279761Y88082441D02*
X382994047Y87844346D01*
X382994047Y88463393D01*
X382327380Y89272917D02*
X382327380Y89082441D01*
X382375000Y88987203D01*
X382422619Y88939584D01*
X382565476Y88844346D01*
X382755952Y88796727D01*
X383136904Y88796727D01*
X383232142Y88844346D01*
X383279761Y88891965D01*
X383327380Y88987203D01*
X383327380Y89177679D01*
X383279761Y89272917D01*
X383232142Y89320536D01*
X383136904Y89368155D01*
X382898809Y89368155D01*
X382803571Y89320536D01*
X382755952Y89272917D01*
X382708333Y89177679D01*
X382708333Y88987203D01*
X382755952Y88891965D01*
X382803571Y88844346D01*
X382898809Y88796727D01*
%TO.C,D90*%
X426189880Y48791965D02*
X425189880Y48791965D01*
X425189880Y49030060D01*
X425237500Y49172917D01*
X425332738Y49268155D01*
X425427976Y49315774D01*
X425618452Y49363393D01*
X425761309Y49363393D01*
X425951785Y49315774D01*
X426047023Y49268155D01*
X426142261Y49172917D01*
X426189880Y49030060D01*
X426189880Y48791965D01*
X426189880Y49839584D02*
X426189880Y50030060D01*
X426142261Y50125298D01*
X426094642Y50172917D01*
X425951785Y50268155D01*
X425761309Y50315774D01*
X425380357Y50315774D01*
X425285119Y50268155D01*
X425237500Y50220536D01*
X425189880Y50125298D01*
X425189880Y49934822D01*
X425237500Y49839584D01*
X425285119Y49791965D01*
X425380357Y49744346D01*
X425618452Y49744346D01*
X425713690Y49791965D01*
X425761309Y49839584D01*
X425808928Y49934822D01*
X425808928Y50125298D01*
X425761309Y50220536D01*
X425713690Y50268155D01*
X425618452Y50315774D01*
X425189880Y50934822D02*
X425189880Y51030060D01*
X425237500Y51125298D01*
X425285119Y51172917D01*
X425380357Y51220536D01*
X425570833Y51268155D01*
X425808928Y51268155D01*
X425999404Y51220536D01*
X426094642Y51172917D01*
X426142261Y51125298D01*
X426189880Y51030060D01*
X426189880Y50934822D01*
X426142261Y50839584D01*
X426094642Y50791965D01*
X425999404Y50744346D01*
X425808928Y50696727D01*
X425570833Y50696727D01*
X425380357Y50744346D01*
X425285119Y50791965D01*
X425237500Y50839584D01*
X425189880Y50934822D01*
%TO.C,D107*%
X364277380Y29265774D02*
X363277380Y29265774D01*
X363277380Y29503870D01*
X363325000Y29646727D01*
X363420238Y29741965D01*
X363515476Y29789584D01*
X363705952Y29837203D01*
X363848809Y29837203D01*
X364039285Y29789584D01*
X364134523Y29741965D01*
X364229761Y29646727D01*
X364277380Y29503870D01*
X364277380Y29265774D01*
X364277380Y30789584D02*
X364277380Y30218155D01*
X364277380Y30503870D02*
X363277380Y30503870D01*
X363420238Y30408631D01*
X363515476Y30313393D01*
X363563095Y30218155D01*
X363277380Y31408631D02*
X363277380Y31503870D01*
X363325000Y31599108D01*
X363372619Y31646727D01*
X363467857Y31694346D01*
X363658333Y31741965D01*
X363896428Y31741965D01*
X364086904Y31694346D01*
X364182142Y31646727D01*
X364229761Y31599108D01*
X364277380Y31503870D01*
X364277380Y31408631D01*
X364229761Y31313393D01*
X364182142Y31265774D01*
X364086904Y31218155D01*
X363896428Y31170536D01*
X363658333Y31170536D01*
X363467857Y31218155D01*
X363372619Y31265774D01*
X363325000Y31313393D01*
X363277380Y31408631D01*
X363277380Y32075298D02*
X363277380Y32741965D01*
X364277380Y32313393D01*
%TO.C,D126*%
X445239880Y10215774D02*
X444239880Y10215774D01*
X444239880Y10453870D01*
X444287500Y10596727D01*
X444382738Y10691965D01*
X444477976Y10739584D01*
X444668452Y10787203D01*
X444811309Y10787203D01*
X445001785Y10739584D01*
X445097023Y10691965D01*
X445192261Y10596727D01*
X445239880Y10453870D01*
X445239880Y10215774D01*
X445239880Y11739584D02*
X445239880Y11168155D01*
X445239880Y11453870D02*
X444239880Y11453870D01*
X444382738Y11358631D01*
X444477976Y11263393D01*
X444525595Y11168155D01*
X444335119Y12120536D02*
X444287500Y12168155D01*
X444239880Y12263393D01*
X444239880Y12501489D01*
X444287500Y12596727D01*
X444335119Y12644346D01*
X444430357Y12691965D01*
X444525595Y12691965D01*
X444668452Y12644346D01*
X445239880Y12072917D01*
X445239880Y12691965D01*
X444239880Y13549108D02*
X444239880Y13358631D01*
X444287500Y13263393D01*
X444335119Y13215774D01*
X444477976Y13120536D01*
X444668452Y13072917D01*
X445049404Y13072917D01*
X445144642Y13120536D01*
X445192261Y13168155D01*
X445239880Y13263393D01*
X445239880Y13453870D01*
X445192261Y13549108D01*
X445144642Y13596727D01*
X445049404Y13644346D01*
X444811309Y13644346D01*
X444716071Y13596727D01*
X444668452Y13549108D01*
X444620833Y13453870D01*
X444620833Y13263393D01*
X444668452Y13168155D01*
X444716071Y13120536D01*
X444811309Y13072917D01*
%TO.C,D114*%
X80908630Y10215774D02*
X79908630Y10215774D01*
X79908630Y10453870D01*
X79956250Y10596727D01*
X80051488Y10691965D01*
X80146726Y10739584D01*
X80337202Y10787203D01*
X80480059Y10787203D01*
X80670535Y10739584D01*
X80765773Y10691965D01*
X80861011Y10596727D01*
X80908630Y10453870D01*
X80908630Y10215774D01*
X80908630Y11739584D02*
X80908630Y11168155D01*
X80908630Y11453870D02*
X79908630Y11453870D01*
X80051488Y11358631D01*
X80146726Y11263393D01*
X80194345Y11168155D01*
X80908630Y12691965D02*
X80908630Y12120536D01*
X80908630Y12406250D02*
X79908630Y12406250D01*
X80051488Y12311012D01*
X80146726Y12215774D01*
X80194345Y12120536D01*
X80241964Y13549108D02*
X80908630Y13549108D01*
X79861011Y13311012D02*
X80575297Y13072917D01*
X80575297Y13691965D01*
%TO.C,D26*%
X364277380Y115466965D02*
X363277380Y115466965D01*
X363277380Y115705060D01*
X363325000Y115847917D01*
X363420238Y115943155D01*
X363515476Y115990774D01*
X363705952Y116038393D01*
X363848809Y116038393D01*
X364039285Y115990774D01*
X364134523Y115943155D01*
X364229761Y115847917D01*
X364277380Y115705060D01*
X364277380Y115466965D01*
X363372619Y116419346D02*
X363325000Y116466965D01*
X363277380Y116562203D01*
X363277380Y116800298D01*
X363325000Y116895536D01*
X363372619Y116943155D01*
X363467857Y116990774D01*
X363563095Y116990774D01*
X363705952Y116943155D01*
X364277380Y116371727D01*
X364277380Y116990774D01*
X363277380Y117847917D02*
X363277380Y117657441D01*
X363325000Y117562203D01*
X363372619Y117514584D01*
X363515476Y117419346D01*
X363705952Y117371727D01*
X364086904Y117371727D01*
X364182142Y117419346D01*
X364229761Y117466965D01*
X364277380Y117562203D01*
X364277380Y117752679D01*
X364229761Y117847917D01*
X364182142Y117895536D01*
X364086904Y117943155D01*
X363848809Y117943155D01*
X363753571Y117895536D01*
X363705952Y117847917D01*
X363658333Y117752679D01*
X363658333Y117562203D01*
X363705952Y117466965D01*
X363753571Y117419346D01*
X363848809Y117371727D01*
%TO.C,D15*%
X130914880Y115466965D02*
X129914880Y115466965D01*
X129914880Y115705060D01*
X129962500Y115847917D01*
X130057738Y115943155D01*
X130152976Y115990774D01*
X130343452Y116038393D01*
X130486309Y116038393D01*
X130676785Y115990774D01*
X130772023Y115943155D01*
X130867261Y115847917D01*
X130914880Y115705060D01*
X130914880Y115466965D01*
X130914880Y116990774D02*
X130914880Y116419346D01*
X130914880Y116705060D02*
X129914880Y116705060D01*
X130057738Y116609822D01*
X130152976Y116514584D01*
X130200595Y116419346D01*
X129914880Y117895536D02*
X129914880Y117419346D01*
X130391071Y117371727D01*
X130343452Y117419346D01*
X130295833Y117514584D01*
X130295833Y117752679D01*
X130343452Y117847917D01*
X130391071Y117895536D01*
X130486309Y117943155D01*
X130724404Y117943155D01*
X130819642Y117895536D01*
X130867261Y117847917D01*
X130914880Y117752679D01*
X130914880Y117514584D01*
X130867261Y117419346D01*
X130819642Y117371727D01*
%TO.C,D44*%
X345227380Y86891965D02*
X344227380Y86891965D01*
X344227380Y87130060D01*
X344275000Y87272917D01*
X344370238Y87368155D01*
X344465476Y87415774D01*
X344655952Y87463393D01*
X344798809Y87463393D01*
X344989285Y87415774D01*
X345084523Y87368155D01*
X345179761Y87272917D01*
X345227380Y87130060D01*
X345227380Y86891965D01*
X344560714Y88320536D02*
X345227380Y88320536D01*
X344179761Y88082441D02*
X344894047Y87844346D01*
X344894047Y88463393D01*
X344560714Y89272917D02*
X345227380Y89272917D01*
X344179761Y89034822D02*
X344894047Y88796727D01*
X344894047Y89415774D01*
%TO.C,D99*%
X154727380Y29741965D02*
X153727380Y29741965D01*
X153727380Y29980060D01*
X153775000Y30122917D01*
X153870238Y30218155D01*
X153965476Y30265774D01*
X154155952Y30313393D01*
X154298809Y30313393D01*
X154489285Y30265774D01*
X154584523Y30218155D01*
X154679761Y30122917D01*
X154727380Y29980060D01*
X154727380Y29741965D01*
X154727380Y30789584D02*
X154727380Y30980060D01*
X154679761Y31075298D01*
X154632142Y31122917D01*
X154489285Y31218155D01*
X154298809Y31265774D01*
X153917857Y31265774D01*
X153822619Y31218155D01*
X153775000Y31170536D01*
X153727380Y31075298D01*
X153727380Y30884822D01*
X153775000Y30789584D01*
X153822619Y30741965D01*
X153917857Y30694346D01*
X154155952Y30694346D01*
X154251190Y30741965D01*
X154298809Y30789584D01*
X154346428Y30884822D01*
X154346428Y31075298D01*
X154298809Y31170536D01*
X154251190Y31218155D01*
X154155952Y31265774D01*
X154727380Y31741965D02*
X154727380Y31932441D01*
X154679761Y32027679D01*
X154632142Y32075298D01*
X154489285Y32170536D01*
X154298809Y32218155D01*
X153917857Y32218155D01*
X153822619Y32170536D01*
X153775000Y32122917D01*
X153727380Y32027679D01*
X153727380Y31837203D01*
X153775000Y31741965D01*
X153822619Y31694346D01*
X153917857Y31646727D01*
X154155952Y31646727D01*
X154251190Y31694346D01*
X154298809Y31741965D01*
X154346428Y31837203D01*
X154346428Y32027679D01*
X154298809Y32122917D01*
X154251190Y32170536D01*
X154155952Y32218155D01*
%TO.C,D123*%
X383327380Y10215774D02*
X382327380Y10215774D01*
X382327380Y10453870D01*
X382375000Y10596727D01*
X382470238Y10691965D01*
X382565476Y10739584D01*
X382755952Y10787203D01*
X382898809Y10787203D01*
X383089285Y10739584D01*
X383184523Y10691965D01*
X383279761Y10596727D01*
X383327380Y10453870D01*
X383327380Y10215774D01*
X383327380Y11739584D02*
X383327380Y11168155D01*
X383327380Y11453870D02*
X382327380Y11453870D01*
X382470238Y11358631D01*
X382565476Y11263393D01*
X382613095Y11168155D01*
X382422619Y12120536D02*
X382375000Y12168155D01*
X382327380Y12263393D01*
X382327380Y12501489D01*
X382375000Y12596727D01*
X382422619Y12644346D01*
X382517857Y12691965D01*
X382613095Y12691965D01*
X382755952Y12644346D01*
X383327380Y12072917D01*
X383327380Y12691965D01*
X382327380Y13025298D02*
X382327380Y13644346D01*
X382708333Y13311012D01*
X382708333Y13453870D01*
X382755952Y13549108D01*
X382803571Y13596727D01*
X382898809Y13644346D01*
X383136904Y13644346D01*
X383232142Y13596727D01*
X383279761Y13549108D01*
X383327380Y13453870D01*
X383327380Y13168155D01*
X383279761Y13072917D01*
X383232142Y13025298D01*
%TO.C,D52*%
X30902380Y67841965D02*
X29902380Y67841965D01*
X29902380Y68080060D01*
X29950000Y68222917D01*
X30045238Y68318155D01*
X30140476Y68365774D01*
X30330952Y68413393D01*
X30473809Y68413393D01*
X30664285Y68365774D01*
X30759523Y68318155D01*
X30854761Y68222917D01*
X30902380Y68080060D01*
X30902380Y67841965D01*
X29902380Y69318155D02*
X29902380Y68841965D01*
X30378571Y68794346D01*
X30330952Y68841965D01*
X30283333Y68937203D01*
X30283333Y69175298D01*
X30330952Y69270536D01*
X30378571Y69318155D01*
X30473809Y69365774D01*
X30711904Y69365774D01*
X30807142Y69318155D01*
X30854761Y69270536D01*
X30902380Y69175298D01*
X30902380Y68937203D01*
X30854761Y68841965D01*
X30807142Y68794346D01*
X29997619Y69746727D02*
X29950000Y69794346D01*
X29902380Y69889584D01*
X29902380Y70127679D01*
X29950000Y70222917D01*
X29997619Y70270536D01*
X30092857Y70318155D01*
X30188095Y70318155D01*
X30330952Y70270536D01*
X30902380Y69699108D01*
X30902380Y70318155D01*
%TO.C,D37*%
X188064880Y86891965D02*
X187064880Y86891965D01*
X187064880Y87130060D01*
X187112500Y87272917D01*
X187207738Y87368155D01*
X187302976Y87415774D01*
X187493452Y87463393D01*
X187636309Y87463393D01*
X187826785Y87415774D01*
X187922023Y87368155D01*
X188017261Y87272917D01*
X188064880Y87130060D01*
X188064880Y86891965D01*
X187064880Y87796727D02*
X187064880Y88415774D01*
X187445833Y88082441D01*
X187445833Y88225298D01*
X187493452Y88320536D01*
X187541071Y88368155D01*
X187636309Y88415774D01*
X187874404Y88415774D01*
X187969642Y88368155D01*
X188017261Y88320536D01*
X188064880Y88225298D01*
X188064880Y87939584D01*
X188017261Y87844346D01*
X187969642Y87796727D01*
X187064880Y88749108D02*
X187064880Y89415774D01*
X188064880Y88987203D01*
%TO.C,D66*%
X316652380Y67841965D02*
X315652380Y67841965D01*
X315652380Y68080060D01*
X315700000Y68222917D01*
X315795238Y68318155D01*
X315890476Y68365774D01*
X316080952Y68413393D01*
X316223809Y68413393D01*
X316414285Y68365774D01*
X316509523Y68318155D01*
X316604761Y68222917D01*
X316652380Y68080060D01*
X316652380Y67841965D01*
X315652380Y69270536D02*
X315652380Y69080060D01*
X315700000Y68984822D01*
X315747619Y68937203D01*
X315890476Y68841965D01*
X316080952Y68794346D01*
X316461904Y68794346D01*
X316557142Y68841965D01*
X316604761Y68889584D01*
X316652380Y68984822D01*
X316652380Y69175298D01*
X316604761Y69270536D01*
X316557142Y69318155D01*
X316461904Y69365774D01*
X316223809Y69365774D01*
X316128571Y69318155D01*
X316080952Y69270536D01*
X316033333Y69175298D01*
X316033333Y68984822D01*
X316080952Y68889584D01*
X316128571Y68841965D01*
X316223809Y68794346D01*
X315652380Y70222917D02*
X315652380Y70032441D01*
X315700000Y69937203D01*
X315747619Y69889584D01*
X315890476Y69794346D01*
X316080952Y69746727D01*
X316461904Y69746727D01*
X316557142Y69794346D01*
X316604761Y69841965D01*
X316652380Y69937203D01*
X316652380Y70127679D01*
X316604761Y70222917D01*
X316557142Y70270536D01*
X316461904Y70318155D01*
X316223809Y70318155D01*
X316128571Y70270536D01*
X316080952Y70222917D01*
X316033333Y70127679D01*
X316033333Y69937203D01*
X316080952Y69841965D01*
X316128571Y69794346D01*
X316223809Y69746727D01*
%TO.C,D105*%
X269027380Y29265774D02*
X268027380Y29265774D01*
X268027380Y29503870D01*
X268075000Y29646727D01*
X268170238Y29741965D01*
X268265476Y29789584D01*
X268455952Y29837203D01*
X268598809Y29837203D01*
X268789285Y29789584D01*
X268884523Y29741965D01*
X268979761Y29646727D01*
X269027380Y29503870D01*
X269027380Y29265774D01*
X269027380Y30789584D02*
X269027380Y30218155D01*
X269027380Y30503870D02*
X268027380Y30503870D01*
X268170238Y30408631D01*
X268265476Y30313393D01*
X268313095Y30218155D01*
X268027380Y31408631D02*
X268027380Y31503870D01*
X268075000Y31599108D01*
X268122619Y31646727D01*
X268217857Y31694346D01*
X268408333Y31741965D01*
X268646428Y31741965D01*
X268836904Y31694346D01*
X268932142Y31646727D01*
X268979761Y31599108D01*
X269027380Y31503870D01*
X269027380Y31408631D01*
X268979761Y31313393D01*
X268932142Y31265774D01*
X268836904Y31218155D01*
X268646428Y31170536D01*
X268408333Y31170536D01*
X268217857Y31218155D01*
X268122619Y31265774D01*
X268075000Y31313393D01*
X268027380Y31408631D01*
X268027380Y32646727D02*
X268027380Y32170536D01*
X268503571Y32122917D01*
X268455952Y32170536D01*
X268408333Y32265774D01*
X268408333Y32503870D01*
X268455952Y32599108D01*
X268503571Y32646727D01*
X268598809Y32694346D01*
X268836904Y32694346D01*
X268932142Y32646727D01*
X268979761Y32599108D01*
X269027380Y32503870D01*
X269027380Y32265774D01*
X268979761Y32170536D01*
X268932142Y32122917D01*
%TO.C,D81*%
X164252380Y48791965D02*
X163252380Y48791965D01*
X163252380Y49030060D01*
X163300000Y49172917D01*
X163395238Y49268155D01*
X163490476Y49315774D01*
X163680952Y49363393D01*
X163823809Y49363393D01*
X164014285Y49315774D01*
X164109523Y49268155D01*
X164204761Y49172917D01*
X164252380Y49030060D01*
X164252380Y48791965D01*
X163680952Y49934822D02*
X163633333Y49839584D01*
X163585714Y49791965D01*
X163490476Y49744346D01*
X163442857Y49744346D01*
X163347619Y49791965D01*
X163300000Y49839584D01*
X163252380Y49934822D01*
X163252380Y50125298D01*
X163300000Y50220536D01*
X163347619Y50268155D01*
X163442857Y50315774D01*
X163490476Y50315774D01*
X163585714Y50268155D01*
X163633333Y50220536D01*
X163680952Y50125298D01*
X163680952Y49934822D01*
X163728571Y49839584D01*
X163776190Y49791965D01*
X163871428Y49744346D01*
X164061904Y49744346D01*
X164157142Y49791965D01*
X164204761Y49839584D01*
X164252380Y49934822D01*
X164252380Y50125298D01*
X164204761Y50220536D01*
X164157142Y50268155D01*
X164061904Y50315774D01*
X163871428Y50315774D01*
X163776190Y50268155D01*
X163728571Y50220536D01*
X163680952Y50125298D01*
X164252380Y51268155D02*
X164252380Y50696727D01*
X164252380Y50982441D02*
X163252380Y50982441D01*
X163395238Y50887203D01*
X163490476Y50791965D01*
X163538095Y50696727D01*
%TO.C,D121*%
X345227380Y10215774D02*
X344227380Y10215774D01*
X344227380Y10453870D01*
X344275000Y10596727D01*
X344370238Y10691965D01*
X344465476Y10739584D01*
X344655952Y10787203D01*
X344798809Y10787203D01*
X344989285Y10739584D01*
X345084523Y10691965D01*
X345179761Y10596727D01*
X345227380Y10453870D01*
X345227380Y10215774D01*
X345227380Y11739584D02*
X345227380Y11168155D01*
X345227380Y11453870D02*
X344227380Y11453870D01*
X344370238Y11358631D01*
X344465476Y11263393D01*
X344513095Y11168155D01*
X344322619Y12120536D02*
X344275000Y12168155D01*
X344227380Y12263393D01*
X344227380Y12501489D01*
X344275000Y12596727D01*
X344322619Y12644346D01*
X344417857Y12691965D01*
X344513095Y12691965D01*
X344655952Y12644346D01*
X345227380Y12072917D01*
X345227380Y12691965D01*
X345227380Y13644346D02*
X345227380Y13072917D01*
X345227380Y13358631D02*
X344227380Y13358631D01*
X344370238Y13263393D01*
X344465476Y13168155D01*
X344513095Y13072917D01*
%TO.C,D32*%
X92814880Y86891965D02*
X91814880Y86891965D01*
X91814880Y87130060D01*
X91862500Y87272917D01*
X91957738Y87368155D01*
X92052976Y87415774D01*
X92243452Y87463393D01*
X92386309Y87463393D01*
X92576785Y87415774D01*
X92672023Y87368155D01*
X92767261Y87272917D01*
X92814880Y87130060D01*
X92814880Y86891965D01*
X91814880Y87796727D02*
X91814880Y88415774D01*
X92195833Y88082441D01*
X92195833Y88225298D01*
X92243452Y88320536D01*
X92291071Y88368155D01*
X92386309Y88415774D01*
X92624404Y88415774D01*
X92719642Y88368155D01*
X92767261Y88320536D01*
X92814880Y88225298D01*
X92814880Y87939584D01*
X92767261Y87844346D01*
X92719642Y87796727D01*
X91910119Y88796727D02*
X91862500Y88844346D01*
X91814880Y88939584D01*
X91814880Y89177679D01*
X91862500Y89272917D01*
X91910119Y89320536D01*
X92005357Y89368155D01*
X92100595Y89368155D01*
X92243452Y89320536D01*
X92814880Y88749108D01*
X92814880Y89368155D01*
%TO.C,D122*%
X364277380Y10215774D02*
X363277380Y10215774D01*
X363277380Y10453870D01*
X363325000Y10596727D01*
X363420238Y10691965D01*
X363515476Y10739584D01*
X363705952Y10787203D01*
X363848809Y10787203D01*
X364039285Y10739584D01*
X364134523Y10691965D01*
X364229761Y10596727D01*
X364277380Y10453870D01*
X364277380Y10215774D01*
X364277380Y11739584D02*
X364277380Y11168155D01*
X364277380Y11453870D02*
X363277380Y11453870D01*
X363420238Y11358631D01*
X363515476Y11263393D01*
X363563095Y11168155D01*
X363372619Y12120536D02*
X363325000Y12168155D01*
X363277380Y12263393D01*
X363277380Y12501489D01*
X363325000Y12596727D01*
X363372619Y12644346D01*
X363467857Y12691965D01*
X363563095Y12691965D01*
X363705952Y12644346D01*
X364277380Y12072917D01*
X364277380Y12691965D01*
X363372619Y13072917D02*
X363325000Y13120536D01*
X363277380Y13215774D01*
X363277380Y13453870D01*
X363325000Y13549108D01*
X363372619Y13596727D01*
X363467857Y13644346D01*
X363563095Y13644346D01*
X363705952Y13596727D01*
X364277380Y13025298D01*
X364277380Y13644346D01*
%TO.C,DT3*%
X307346130Y125880953D02*
X306346130Y125880953D01*
X306346130Y126119048D01*
X306393750Y126261905D01*
X306488988Y126357143D01*
X306584226Y126404762D01*
X306774702Y126452381D01*
X306917559Y126452381D01*
X307108035Y126404762D01*
X307203273Y126357143D01*
X307298511Y126261905D01*
X307346130Y126119048D01*
X307346130Y125880953D01*
X306346130Y126738096D02*
X306346130Y127309524D01*
X307346130Y127023810D02*
X306346130Y127023810D01*
X306346130Y127547620D02*
X306346130Y128166667D01*
X306727083Y127833334D01*
X306727083Y127976191D01*
X306774702Y128071429D01*
X306822321Y128119048D01*
X306917559Y128166667D01*
X307155654Y128166667D01*
X307250892Y128119048D01*
X307298511Y128071429D01*
X307346130Y127976191D01*
X307346130Y127690477D01*
X307298511Y127595239D01*
X307250892Y127547620D01*
%TO.C,D86*%
X259502380Y48791965D02*
X258502380Y48791965D01*
X258502380Y49030060D01*
X258550000Y49172917D01*
X258645238Y49268155D01*
X258740476Y49315774D01*
X258930952Y49363393D01*
X259073809Y49363393D01*
X259264285Y49315774D01*
X259359523Y49268155D01*
X259454761Y49172917D01*
X259502380Y49030060D01*
X259502380Y48791965D01*
X258930952Y49934822D02*
X258883333Y49839584D01*
X258835714Y49791965D01*
X258740476Y49744346D01*
X258692857Y49744346D01*
X258597619Y49791965D01*
X258550000Y49839584D01*
X258502380Y49934822D01*
X258502380Y50125298D01*
X258550000Y50220536D01*
X258597619Y50268155D01*
X258692857Y50315774D01*
X258740476Y50315774D01*
X258835714Y50268155D01*
X258883333Y50220536D01*
X258930952Y50125298D01*
X258930952Y49934822D01*
X258978571Y49839584D01*
X259026190Y49791965D01*
X259121428Y49744346D01*
X259311904Y49744346D01*
X259407142Y49791965D01*
X259454761Y49839584D01*
X259502380Y49934822D01*
X259502380Y50125298D01*
X259454761Y50220536D01*
X259407142Y50268155D01*
X259311904Y50315774D01*
X259121428Y50315774D01*
X259026190Y50268155D01*
X258978571Y50220536D01*
X258930952Y50125298D01*
X258502380Y51172917D02*
X258502380Y50982441D01*
X258550000Y50887203D01*
X258597619Y50839584D01*
X258740476Y50744346D01*
X258930952Y50696727D01*
X259311904Y50696727D01*
X259407142Y50744346D01*
X259454761Y50791965D01*
X259502380Y50887203D01*
X259502380Y51077679D01*
X259454761Y51172917D01*
X259407142Y51220536D01*
X259311904Y51268155D01*
X259073809Y51268155D01*
X258978571Y51220536D01*
X258930952Y51172917D01*
X258883333Y51077679D01*
X258883333Y50887203D01*
X258930952Y50791965D01*
X258978571Y50744346D01*
X259073809Y50696727D01*
%TO.C,DT2*%
X288296130Y125880953D02*
X287296130Y125880953D01*
X287296130Y126119048D01*
X287343750Y126261905D01*
X287438988Y126357143D01*
X287534226Y126404762D01*
X287724702Y126452381D01*
X287867559Y126452381D01*
X288058035Y126404762D01*
X288153273Y126357143D01*
X288248511Y126261905D01*
X288296130Y126119048D01*
X288296130Y125880953D01*
X287296130Y126738096D02*
X287296130Y127309524D01*
X288296130Y127023810D02*
X287296130Y127023810D01*
X287391369Y127595239D02*
X287343750Y127642858D01*
X287296130Y127738096D01*
X287296130Y127976191D01*
X287343750Y128071429D01*
X287391369Y128119048D01*
X287486607Y128166667D01*
X287581845Y128166667D01*
X287724702Y128119048D01*
X288296130Y127547620D01*
X288296130Y128166667D01*
%TO.C,D9*%
X235689880Y134993155D02*
X234689880Y134993155D01*
X234689880Y135231250D01*
X234737500Y135374108D01*
X234832738Y135469346D01*
X234927976Y135516965D01*
X235118452Y135564584D01*
X235261309Y135564584D01*
X235451785Y135516965D01*
X235547023Y135469346D01*
X235642261Y135374108D01*
X235689880Y135231250D01*
X235689880Y134993155D01*
X235689880Y136040774D02*
X235689880Y136231250D01*
X235642261Y136326489D01*
X235594642Y136374108D01*
X235451785Y136469346D01*
X235261309Y136516965D01*
X234880357Y136516965D01*
X234785119Y136469346D01*
X234737500Y136421727D01*
X234689880Y136326489D01*
X234689880Y136136012D01*
X234737500Y136040774D01*
X234785119Y135993155D01*
X234880357Y135945536D01*
X235118452Y135945536D01*
X235213690Y135993155D01*
X235261309Y136040774D01*
X235308928Y136136012D01*
X235308928Y136326489D01*
X235261309Y136421727D01*
X235213690Y136469346D01*
X235118452Y136516965D01*
%TO.C,D21*%
X264264880Y115466965D02*
X263264880Y115466965D01*
X263264880Y115705060D01*
X263312500Y115847917D01*
X263407738Y115943155D01*
X263502976Y115990774D01*
X263693452Y116038393D01*
X263836309Y116038393D01*
X264026785Y115990774D01*
X264122023Y115943155D01*
X264217261Y115847917D01*
X264264880Y115705060D01*
X264264880Y115466965D01*
X263360119Y116419346D02*
X263312500Y116466965D01*
X263264880Y116562203D01*
X263264880Y116800298D01*
X263312500Y116895536D01*
X263360119Y116943155D01*
X263455357Y116990774D01*
X263550595Y116990774D01*
X263693452Y116943155D01*
X264264880Y116371727D01*
X264264880Y116990774D01*
X264264880Y117943155D02*
X264264880Y117371727D01*
X264264880Y117657441D02*
X263264880Y117657441D01*
X263407738Y117562203D01*
X263502976Y117466965D01*
X263550595Y117371727D01*
%TO.C,H8*%
X455637500Y28575000D02*
G75*
G03*
X455637500Y28575000I-3200000J0D01*
G01*
%TO.C,H4*%
X455637500Y114300000D02*
G75*
G03*
X455637500Y114300000I-3200000J0D01*
G01*
%TO.C,H3*%
X334193750Y114300000D02*
G75*
G03*
X334193750Y114300000I-3200000J0D01*
G01*
%TO.C,H2*%
X165125000Y114300000D02*
G75*
G03*
X165125000Y114300000I-3200000J0D01*
G01*
%TO.C,H5*%
X22250000Y28575000D02*
G75*
G03*
X22250000Y28575000I-3200000J0D01*
G01*
%TO.C,H6*%
X165125000Y28575000D02*
G75*
G03*
X165125000Y28575000I-3200000J0D01*
G01*
%TO.C,H7*%
X334193750Y28575000D02*
G75*
G03*
X334193750Y28575000I-3200000J0D01*
G01*
%TO.C,H1*%
X22250000Y114300000D02*
G75*
G03*
X22250000Y114300000I-3200000J0D01*
G01*
%TD*%
M02*
