%TF.GenerationSoftware,KiCad,Pcbnew,(6.0.7)*%
%TF.CreationDate,2022-09-27T13:03:32-04:00*%
%TF.ProjectId,SweetBusiness,53776565-7442-4757-9369-6e6573732e6b,rev?*%
%TF.SameCoordinates,Original*%
%TF.FileFunction,Copper,L1,Top*%
%TF.FilePolarity,Positive*%
%FSLAX46Y46*%
G04 Gerber Fmt 4.6, Leading zero omitted, Abs format (unit mm)*
G04 Created by KiCad (PCBNEW (6.0.7)) date 2022-09-27 13:03:32*
%MOMM*%
%LPD*%
G01*
G04 APERTURE LIST*
G04 Aperture macros list*
%AMRoundRect*
0 Rectangle with rounded corners*
0 $1 Rounding radius*
0 $2 $3 $4 $5 $6 $7 $8 $9 X,Y pos of 4 corners*
0 Add a 4 corners polygon primitive as box body*
4,1,4,$2,$3,$4,$5,$6,$7,$8,$9,$2,$3,0*
0 Add four circle primitives for the rounded corners*
1,1,$1+$1,$2,$3*
1,1,$1+$1,$4,$5*
1,1,$1+$1,$6,$7*
1,1,$1+$1,$8,$9*
0 Add four rect primitives between the rounded corners*
20,1,$1+$1,$2,$3,$4,$5,0*
20,1,$1+$1,$4,$5,$6,$7,0*
20,1,$1+$1,$6,$7,$8,$9,0*
20,1,$1+$1,$8,$9,$2,$3,0*%
G04 Aperture macros list end*
%TA.AperFunction,SMDPad,CuDef*%
%ADD10RoundRect,0.147500X0.147500X0.172500X-0.147500X0.172500X-0.147500X-0.172500X0.147500X-0.172500X0*%
%TD*%
%TA.AperFunction,SMDPad,CuDef*%
%ADD11R,0.700000X0.700000*%
%TD*%
%TA.AperFunction,ComponentPad*%
%ADD12R,2.000000X2.000000*%
%TD*%
%TA.AperFunction,ComponentPad*%
%ADD13C,2.000000*%
%TD*%
%TA.AperFunction,ComponentPad*%
%ADD14C,2.286000*%
%TD*%
%TA.AperFunction,SMDPad,CuDef*%
%ADD15RoundRect,0.147500X-0.147500X-0.172500X0.147500X-0.172500X0.147500X0.172500X-0.147500X0.172500X0*%
%TD*%
%TA.AperFunction,ComponentPad*%
%ADD16R,1.700000X1.700000*%
%TD*%
%TA.AperFunction,ComponentPad*%
%ADD17O,1.700000X1.700000*%
%TD*%
%TA.AperFunction,SMDPad,CuDef*%
%ADD18RoundRect,0.147500X-0.172500X0.147500X-0.172500X-0.147500X0.172500X-0.147500X0.172500X0.147500X0*%
%TD*%
%TA.AperFunction,ComponentPad*%
%ADD19C,0.500000*%
%TD*%
%TA.AperFunction,ComponentPad*%
%ADD20O,1.000000X1.600000*%
%TD*%
%TA.AperFunction,ComponentPad*%
%ADD21O,1.000000X2.100000*%
%TD*%
%TA.AperFunction,ViaPad*%
%ADD22C,0.600000*%
%TD*%
%TA.AperFunction,ViaPad*%
%ADD23C,0.900000*%
%TD*%
%TA.AperFunction,Conductor*%
%ADD24C,0.200000*%
%TD*%
G04 APERTURE END LIST*
D10*
%TO.P,LC84,1*%
%TO.N,GND*%
X219560000Y55562500D03*
%TO.P,LC84,2*%
%TO.N,+3V3*%
X218590000Y55562500D03*
%TD*%
%TO.P,LC32,1*%
%TO.N,GND*%
X90972500Y93662500D03*
%TO.P,LC32,2*%
%TO.N,+3V3*%
X90002500Y93662500D03*
%TD*%
D11*
%TO.P,LD125,1,DOUT*%
%TO.N,Net-(LD125-Pad1)*%
X424612500Y14531250D03*
%TO.P,LD125,2,GND*%
%TO.N,GND*%
X424612500Y15631250D03*
%TO.P,LD125,3,DIN*%
%TO.N,Net-(LD124-Pad1)*%
X423112500Y15631250D03*
%TO.P,LD125,4,VDD*%
%TO.N,+3V3*%
X423112500Y14531250D03*
%TD*%
%TO.P,LD15,1,DOUT*%
%TO.N,Net-(LD14-Pad3)*%
X127837500Y120406250D03*
%TO.P,LD15,2,GND*%
%TO.N,GND*%
X127837500Y119306250D03*
%TO.P,LD15,3,DIN*%
%TO.N,Net-(LD15-Pad3)*%
X129337500Y119306250D03*
%TO.P,LD15,4,VDD*%
%TO.N,+3V3*%
X129337500Y120406250D03*
%TD*%
%TO.P,LD95,1,DOUT*%
%TO.N,Net-(LD94-Pad3)*%
X63543750Y34681250D03*
%TO.P,LD95,2,GND*%
%TO.N,GND*%
X63543750Y33581250D03*
%TO.P,LD95,3,DIN*%
%TO.N,Net-(LD95-Pad3)*%
X65043750Y33581250D03*
%TO.P,LD95,4,VDD*%
%TO.N,+3V3*%
X65043750Y34681250D03*
%TD*%
%TO.P,LD5,1,DOUT*%
%TO.N,Net-(LD5-Pad1)*%
X148387500Y138356250D03*
%TO.P,LD5,2,GND*%
%TO.N,GND*%
X148387500Y139456250D03*
%TO.P,LD5,3,DIN*%
%TO.N,Net-(LD4-Pad1)*%
X146887500Y139456250D03*
%TO.P,LD5,4,VDD*%
%TO.N,+3V3*%
X146887500Y138356250D03*
%TD*%
D12*
%TO.P,KT4,1*%
%TO.N,14*%
X324579500Y133350000D03*
D13*
%TO.P,KT4,2*%
%TO.N,Net-(DT4-Pad2)*%
X324579500Y130810000D03*
%TD*%
D10*
%TO.P,LC86,1*%
%TO.N,GND*%
X257660000Y55562500D03*
%TO.P,LC86,2*%
%TO.N,+3V3*%
X256690000Y55562500D03*
%TD*%
D14*
%TO.P,K70,1*%
%TO.N,12*%
X402272500Y61595000D03*
%TO.P,K70,2*%
%TO.N,Net-(D70-Pad2)*%
X408622500Y64135000D03*
%TD*%
D10*
%TO.P,LC112,1*%
%TO.N,GND*%
X29060000Y17462500D03*
%TO.P,LC112,2*%
%TO.N,+3V3*%
X28090000Y17462500D03*
%TD*%
D14*
%TO.P,K42,1*%
%TO.N,14*%
X278447500Y80645000D03*
%TO.P,K42,2*%
%TO.N,Net-(D42-Pad2)*%
X284797500Y83185000D03*
%TD*%
D11*
%TO.P,LD66,1,DOUT*%
%TO.N,Net-(LD65-Pad3)*%
X313575000Y72781250D03*
%TO.P,LD66,2,GND*%
%TO.N,GND*%
X313575000Y71681250D03*
%TO.P,LD66,3,DIN*%
%TO.N,Net-(LD66-Pad3)*%
X315075000Y71681250D03*
%TO.P,LD66,4,VDD*%
%TO.N,+3V3*%
X315075000Y72781250D03*
%TD*%
D14*
%TO.P,K44,1*%
%TO.N,13*%
X340360000Y80645000D03*
%TO.P,K44,2*%
%TO.N,Net-(D44-Pad2)*%
X346710000Y83185000D03*
%TD*%
D11*
%TO.P,LD17,1,DOUT*%
%TO.N,Net-(LD16-Pad3)*%
X175462500Y120406250D03*
%TO.P,LD17,2,GND*%
%TO.N,GND*%
X175462500Y119306250D03*
%TO.P,LD17,3,DIN*%
%TO.N,Net-(LD17-Pad3)*%
X176962500Y119306250D03*
%TO.P,LD17,4,VDD*%
%TO.N,+3V3*%
X176962500Y120406250D03*
%TD*%
D14*
%TO.P,K8,1*%
%TO.N,16*%
X211772500Y128270000D03*
%TO.P,K8,2*%
%TO.N,Net-(D8-Pad2)*%
X218122500Y130810000D03*
%TD*%
D15*
%TO.P,LC21,1*%
%TO.N,GND*%
X261452500Y122237500D03*
%TO.P,LC21,2*%
%TO.N,+3V3*%
X262422500Y122237500D03*
%TD*%
D10*
%TO.P,LC29,1*%
%TO.N,GND*%
X29060000Y93662500D03*
%TO.P,LC29,2*%
%TO.N,+3V3*%
X28090000Y93662500D03*
%TD*%
D11*
%TO.P,LD100,1,DOUT*%
%TO.N,Net-(LD100-Pad1)*%
X170700000Y34681250D03*
%TO.P,LD100,2,GND*%
%TO.N,GND*%
X170700000Y33581250D03*
%TO.P,LD100,3,DIN*%
%TO.N,Net-(LD100-Pad3)*%
X172200000Y33581250D03*
%TO.P,LD100,4,VDD*%
%TO.N,+3V3*%
X172200000Y34681250D03*
%TD*%
D14*
%TO.P,K125,1*%
%TO.N,11*%
X421322500Y4445000D03*
%TO.P,K125,2*%
%TO.N,Net-(D125-Pad2)*%
X427672500Y6985000D03*
%TD*%
D15*
%TO.P,LC104,1*%
%TO.N,GND*%
X247165000Y36512500D03*
%TO.P,LC104,2*%
%TO.N,+3V3*%
X248135000Y36512500D03*
%TD*%
D11*
%TO.P,LD39,1,DOUT*%
%TO.N,Net-(LD39-Pad1)*%
X224587500Y90731250D03*
%TO.P,LD39,2,GND*%
%TO.N,GND*%
X224587500Y91831250D03*
%TO.P,LD39,3,DIN*%
%TO.N,Net-(LD38-Pad1)*%
X223087500Y91831250D03*
%TO.P,LD39,4,VDD*%
%TO.N,+3V3*%
X223087500Y90731250D03*
%TD*%
D10*
%TO.P,LC41,1*%
%TO.N,GND*%
X262422500Y93662500D03*
%TO.P,LC41,2*%
%TO.N,+3V3*%
X261452500Y93662500D03*
%TD*%
D11*
%TO.P,LD47,1,DOUT*%
%TO.N,Net-(LD47-Pad1)*%
X405562500Y90731250D03*
%TO.P,LD47,2,GND*%
%TO.N,GND*%
X405562500Y91831250D03*
%TO.P,LD47,3,DIN*%
%TO.N,Net-(LD46-Pad1)*%
X404062500Y91831250D03*
%TO.P,LD47,4,VDD*%
%TO.N,+3V3*%
X404062500Y90731250D03*
%TD*%
D14*
%TO.P,K110,1*%
%TO.N,11*%
X440372500Y23495000D03*
%TO.P,K110,2*%
%TO.N,Net-(D110-Pad2)*%
X446722500Y26035000D03*
%TD*%
%TO.P,K84,1*%
%TO.N,16*%
X216535000Y42545000D03*
%TO.P,K84,2*%
%TO.N,Net-(D84-Pad2)*%
X222885000Y45085000D03*
%TD*%
D15*
%TO.P,LC55,1*%
%TO.N,GND*%
X99527500Y74612500D03*
%TO.P,LC55,2*%
%TO.N,+3V3*%
X100497500Y74612500D03*
%TD*%
D11*
%TO.P,LD48,1,DOUT*%
%TO.N,Net-(LD48-Pad1)*%
X424612500Y90731250D03*
%TO.P,LD48,2,GND*%
%TO.N,GND*%
X424612500Y91831250D03*
%TO.P,LD48,3,DIN*%
%TO.N,Net-(LD47-Pad1)*%
X423112500Y91831250D03*
%TO.P,LD48,4,VDD*%
%TO.N,+3V3*%
X423112500Y90731250D03*
%TD*%
%TO.P,LD3,1,DOUT*%
%TO.N,Net-(LD3-Pad1)*%
X110287500Y138356250D03*
%TO.P,LD3,2,GND*%
%TO.N,GND*%
X110287500Y139456250D03*
%TO.P,LD3,3,DIN*%
%TO.N,Net-(LD2-Pad1)*%
X108787500Y139456250D03*
%TO.P,LD3,4,VDD*%
%TO.N,+3V3*%
X108787500Y138356250D03*
%TD*%
D14*
%TO.P,K79,1*%
%TO.N,19*%
X121285000Y42545000D03*
%TO.P,K79,2*%
%TO.N,Net-(D79-Pad2)*%
X127635000Y45085000D03*
%TD*%
D11*
%TO.P,LD117,1,DOUT*%
%TO.N,Net-(LD117-Pad1)*%
X246018750Y14531250D03*
%TO.P,LD117,2,GND*%
%TO.N,GND*%
X246018750Y15631250D03*
%TO.P,LD117,3,DIN*%
%TO.N,Net-(LD116-Pad1)*%
X244518750Y15631250D03*
%TO.P,LD117,4,VDD*%
%TO.N,+3V3*%
X244518750Y14531250D03*
%TD*%
D15*
%TO.P,LC59,1*%
%TO.N,GND*%
X175727500Y74612500D03*
%TO.P,LC59,2*%
%TO.N,+3V3*%
X176697500Y74612500D03*
%TD*%
D10*
%TO.P,LC81,1*%
%TO.N,GND*%
X162410000Y55562500D03*
%TO.P,LC81,2*%
%TO.N,+3V3*%
X161440000Y55562500D03*
%TD*%
D11*
%TO.P,LD54,1,DOUT*%
%TO.N,Net-(LD53-Pad3)*%
X80212500Y72781250D03*
%TO.P,LD54,2,GND*%
%TO.N,GND*%
X80212500Y71681250D03*
%TO.P,LD54,3,DIN*%
%TO.N,Net-(LD54-Pad3)*%
X81712500Y71681250D03*
%TO.P,LD54,4,VDD*%
%TO.N,+3V3*%
X81712500Y72781250D03*
%TD*%
D14*
%TO.P,K38,1*%
%TO.N,16*%
X202247500Y80645000D03*
%TO.P,K38,2*%
%TO.N,Net-(D38-Pad2)*%
X208597500Y83185000D03*
%TD*%
%TO.P,K37,1*%
%TO.N,17*%
X183197500Y80645000D03*
%TO.P,K37,2*%
%TO.N,Net-(D37-Pad2)*%
X189547500Y83185000D03*
%TD*%
D10*
%TO.P,LC113,1*%
%TO.N,GND*%
X55253750Y17462500D03*
%TO.P,LC113,2*%
%TO.N,+3V3*%
X54283750Y17462500D03*
%TD*%
D15*
%TO.P,LC69,1*%
%TO.N,GND*%
X380515000Y74612500D03*
%TO.P,LC69,2*%
%TO.N,+3V3*%
X381485000Y74612500D03*
%TD*%
D11*
%TO.P,LD51,1,DOUT*%
%TO.N,Net-(LD51-Pad1)*%
X8775000Y72781250D03*
%TO.P,LD51,2,GND*%
%TO.N,GND*%
X8775000Y71681250D03*
%TO.P,LD51,3,DIN*%
%TO.N,Net-(LD51-Pad3)*%
X10275000Y71681250D03*
%TO.P,LD51,4,VDD*%
%TO.N,+3V3*%
X10275000Y72781250D03*
%TD*%
D10*
%TO.P,LC7,1*%
%TO.N,GND*%
X195747500Y141287500D03*
%TO.P,LC7,2*%
%TO.N,+3V3*%
X194777500Y141287500D03*
%TD*%
D11*
%TO.P,LD68,1,DOUT*%
%TO.N,Net-(LD67-Pad3)*%
X361200000Y72781250D03*
%TO.P,LD68,2,GND*%
%TO.N,GND*%
X361200000Y71681250D03*
%TO.P,LD68,3,DIN*%
%TO.N,Net-(LD68-Pad3)*%
X362700000Y71681250D03*
%TO.P,LD68,4,VDD*%
%TO.N,+3V3*%
X362700000Y72781250D03*
%TD*%
D14*
%TO.P,K29,1*%
%TO.N,21*%
X26035000Y80645000D03*
%TO.P,K29,2*%
%TO.N,Net-(D29-Pad2)*%
X32385000Y83185000D03*
%TD*%
%TO.P,K49,1*%
%TO.N,11*%
X440372500Y80645000D03*
%TO.P,K49,2*%
%TO.N,Net-(D49-Pad2)*%
X446722500Y83185000D03*
%TD*%
%TO.P,K82,1*%
%TO.N,17*%
X178435000Y42545000D03*
%TO.P,K82,2*%
%TO.N,Net-(D82-Pad2)*%
X184785000Y45085000D03*
%TD*%
D11*
%TO.P,LD44,1,DOUT*%
%TO.N,Net-(LD44-Pad1)*%
X343650000Y90731250D03*
%TO.P,LD44,2,GND*%
%TO.N,GND*%
X343650000Y91831250D03*
%TO.P,LD44,3,DIN*%
%TO.N,Net-(LD43-Pad1)*%
X342150000Y91831250D03*
%TO.P,LD44,4,VDD*%
%TO.N,+3V3*%
X342150000Y90731250D03*
%TD*%
%TO.P,LD41,1,DOUT*%
%TO.N,Net-(LD41-Pad1)*%
X262687500Y90731250D03*
%TO.P,LD41,2,GND*%
%TO.N,GND*%
X262687500Y91831250D03*
%TO.P,LD41,3,DIN*%
%TO.N,Net-(LD40-Pad1)*%
X261187500Y91831250D03*
%TO.P,LD41,4,VDD*%
%TO.N,+3V3*%
X261187500Y90731250D03*
%TD*%
D14*
%TO.P,K3,1*%
%TO.N,19*%
X106997500Y128270000D03*
%TO.P,K3,2*%
%TO.N,Net-(D3-Pad2)*%
X113347500Y130810000D03*
%TD*%
D10*
%TO.P,LC47,1*%
%TO.N,GND*%
X405297500Y93662500D03*
%TO.P,LC47,2*%
%TO.N,+3V3*%
X404327500Y93662500D03*
%TD*%
D11*
%TO.P,LD25,1,DOUT*%
%TO.N,Net-(LD24-Pad3)*%
X342150000Y120406250D03*
%TO.P,LD25,2,GND*%
%TO.N,GND*%
X342150000Y119306250D03*
%TO.P,LD25,3,DIN*%
%TO.N,Net-(LD25-Pad3)*%
X343650000Y119306250D03*
%TO.P,LD25,4,VDD*%
%TO.N,+3V3*%
X343650000Y120406250D03*
%TD*%
D15*
%TO.P,LC73,1*%
%TO.N,GND*%
X461477500Y74612500D03*
%TO.P,LC73,2*%
%TO.N,+3V3*%
X462447500Y74612500D03*
%TD*%
D14*
%TO.P,K39,1*%
%TO.N,16*%
X221297500Y80645000D03*
%TO.P,K39,2*%
%TO.N,Net-(D39-Pad2)*%
X227647500Y83185000D03*
%TD*%
D11*
%TO.P,LD91,1,DOUT*%
%TO.N,Net-(LD91-Pad1)*%
X443662500Y52631250D03*
%TO.P,LD91,2,GND*%
%TO.N,GND*%
X443662500Y53731250D03*
%TO.P,LD91,3,DIN*%
%TO.N,Net-(LD90-Pad1)*%
X442162500Y53731250D03*
%TO.P,LD91,4,VDD*%
%TO.N,+3V3*%
X442162500Y52631250D03*
%TD*%
%TO.P,LD122,1,DOUT*%
%TO.N,Net-(LD122-Pad1)*%
X362700000Y14531250D03*
%TO.P,LD122,2,GND*%
%TO.N,GND*%
X362700000Y15631250D03*
%TO.P,LD122,3,DIN*%
%TO.N,Net-(LD121-Pad1)*%
X361200000Y15631250D03*
%TO.P,LD122,4,VDD*%
%TO.N,+3V3*%
X361200000Y14531250D03*
%TD*%
%TO.P,LD89,1,DOUT*%
%TO.N,Net-(LD89-Pad1)*%
X405562500Y52631250D03*
%TO.P,LD89,2,GND*%
%TO.N,GND*%
X405562500Y53731250D03*
%TO.P,LD89,3,DIN*%
%TO.N,Net-(LD88-Pad1)*%
X404062500Y53731250D03*
%TO.P,LD89,4,VDD*%
%TO.N,+3V3*%
X404062500Y52631250D03*
%TD*%
%TO.P,LD79,1,DOUT*%
%TO.N,Net-(LD79-Pad1)*%
X124575000Y52631250D03*
%TO.P,LD79,2,GND*%
%TO.N,GND*%
X124575000Y53731250D03*
%TO.P,LD79,3,DIN*%
%TO.N,Net-(LD78-Pad1)*%
X123075000Y53731250D03*
%TO.P,LD79,4,VDD*%
%TO.N,+3V3*%
X123075000Y52631250D03*
%TD*%
D10*
%TO.P,LC42,1*%
%TO.N,GND*%
X281472500Y93662500D03*
%TO.P,LC42,2*%
%TO.N,+3V3*%
X280502500Y93662500D03*
%TD*%
D11*
%TO.P,LD34,1,DOUT*%
%TO.N,Net-(LD34-Pad1)*%
X129337500Y90731250D03*
%TO.P,LD34,2,GND*%
%TO.N,GND*%
X129337500Y91831250D03*
%TO.P,LD34,3,DIN*%
%TO.N,Net-(LD33-Pad1)*%
X127837500Y91831250D03*
%TO.P,LD34,4,VDD*%
%TO.N,+3V3*%
X127837500Y90731250D03*
%TD*%
D10*
%TO.P,LC48,1*%
%TO.N,GND*%
X424347500Y93662500D03*
%TO.P,LC48,2*%
%TO.N,+3V3*%
X423377500Y93662500D03*
%TD*%
%TO.P,LC6,1*%
%TO.N,GND*%
X176697500Y141287500D03*
%TO.P,LC6,2*%
%TO.N,+3V3*%
X175727500Y141287500D03*
%TD*%
D11*
%TO.P,LD111,1,DOUT*%
%TO.N,Net-(LD111-Pad1)*%
X10275000Y14531250D03*
%TO.P,LD111,2,GND*%
%TO.N,GND*%
X10275000Y15631250D03*
%TO.P,LD111,3,DIN*%
%TO.N,Net-(LD111-Pad3)*%
X8775000Y15631250D03*
%TO.P,LD111,4,VDD*%
%TO.N,+3V3*%
X8775000Y14531250D03*
%TD*%
D10*
%TO.P,LC4,1*%
%TO.N,GND*%
X129072500Y141287500D03*
%TO.P,LC4,2*%
%TO.N,+3V3*%
X128102500Y141287500D03*
%TD*%
D15*
%TO.P,LC66,1*%
%TO.N,GND*%
X313840000Y74612500D03*
%TO.P,LC66,2*%
%TO.N,+3V3*%
X314810000Y74612500D03*
%TD*%
D14*
%TO.P,K123,1*%
%TO.N,12*%
X378460000Y4445000D03*
%TO.P,K123,2*%
%TO.N,Net-(D123-Pad2)*%
X384810000Y6985000D03*
%TD*%
D11*
%TO.P,LD97,1,DOUT*%
%TO.N,Net-(LD96-Pad3)*%
X113550000Y34681250D03*
%TO.P,LD97,2,GND*%
%TO.N,GND*%
X113550000Y33581250D03*
%TO.P,LD97,3,DIN*%
%TO.N,Net-(LD97-Pad3)*%
X115050000Y33581250D03*
%TO.P,LD97,4,VDD*%
%TO.N,+3V3*%
X115050000Y34681250D03*
%TD*%
D10*
%TO.P,LC39,1*%
%TO.N,GND*%
X224322500Y93662500D03*
%TO.P,LC39,2*%
%TO.N,+3V3*%
X223352500Y93662500D03*
%TD*%
D11*
%TO.P,LD72,1,DOUT*%
%TO.N,Net-(LD71-Pad3)*%
X442162500Y72781250D03*
%TO.P,LD72,2,GND*%
%TO.N,GND*%
X442162500Y71681250D03*
%TO.P,LD72,3,DIN*%
%TO.N,Net-(LD72-Pad3)*%
X443662500Y71681250D03*
%TO.P,LD72,4,VDD*%
%TO.N,+3V3*%
X443662500Y72781250D03*
%TD*%
D14*
%TO.P,K24,1*%
%TO.N,14*%
X316547500Y109220000D03*
%TO.P,K24,2*%
%TO.N,Net-(D24-Pad2)*%
X322897500Y111760000D03*
%TD*%
D15*
%TO.P,LC57,1*%
%TO.N,GND*%
X137627500Y74612500D03*
%TO.P,LC57,2*%
%TO.N,+3V3*%
X138597500Y74612500D03*
%TD*%
D11*
%TO.P,LD82,1,DOUT*%
%TO.N,Net-(LD82-Pad1)*%
X181725000Y52631250D03*
%TO.P,LD82,2,GND*%
%TO.N,GND*%
X181725000Y53731250D03*
%TO.P,LD82,3,DIN*%
%TO.N,Net-(LD81-Pad1)*%
X180225000Y53731250D03*
%TO.P,LD82,4,VDD*%
%TO.N,+3V3*%
X180225000Y52631250D03*
%TD*%
%TO.P,LD1,1,DOUT*%
%TO.N,Net-(LD1-Pad1)*%
X10275000Y138356250D03*
%TO.P,LD1,2,GND*%
%TO.N,GND*%
X10275000Y139456250D03*
%TO.P,LD1,3,DIN*%
%TO.N,27{slash}A1*%
X8775000Y139456250D03*
%TO.P,LD1,4,VDD*%
%TO.N,+3V3*%
X8775000Y138356250D03*
%TD*%
D14*
%TO.P,K17,1*%
%TO.N,17*%
X173672500Y109220000D03*
%TO.P,K17,2*%
%TO.N,Net-(D17-Pad2)*%
X180022500Y111760000D03*
%TD*%
%TO.P,K73,1*%
%TO.N,10*%
X459422500Y61595000D03*
%TO.P,K73,2*%
%TO.N,Net-(D73-Pad2)*%
X465772500Y64135000D03*
%TD*%
%TO.P,K35,1*%
%TO.N,18*%
X145097500Y80645000D03*
%TO.P,K35,2*%
%TO.N,Net-(D35-Pad2)*%
X151447500Y83185000D03*
%TD*%
D16*
%TO.P,J2,1,Pin_1*%
%TO.N,28{slash}A2*%
X392080750Y137594500D03*
D17*
%TO.P,J2,2,Pin_2*%
%TO.N,29{slash}A3*%
X392080750Y135054500D03*
%TO.P,J2,3,Pin_3*%
%TO.N,+3V3*%
X392080750Y132514500D03*
%TO.P,J2,4,Pin_4*%
%TO.N,GND*%
X392080750Y129974500D03*
%TD*%
D11*
%TO.P,LD46,1,DOUT*%
%TO.N,Net-(LD46-Pad1)*%
X381750000Y90731250D03*
%TO.P,LD46,2,GND*%
%TO.N,GND*%
X381750000Y91831250D03*
%TO.P,LD46,3,DIN*%
%TO.N,Net-(LD45-Pad1)*%
X380250000Y91831250D03*
%TO.P,LD46,4,VDD*%
%TO.N,+3V3*%
X380250000Y90731250D03*
%TD*%
D10*
%TO.P,LC75,1*%
%TO.N,GND*%
X29060000Y55562500D03*
%TO.P,LC75,2*%
%TO.N,+3V3*%
X28090000Y55562500D03*
%TD*%
D14*
%TO.P,K92,1*%
%TO.N,10*%
X459422500Y42545000D03*
%TO.P,K92,2*%
%TO.N,Net-(D92-Pad2)*%
X465772500Y45085000D03*
%TD*%
D15*
%TO.P,LC18,1*%
%TO.N,GND*%
X194777500Y122237500D03*
%TO.P,LC18,2*%
%TO.N,+3V3*%
X195747500Y122237500D03*
%TD*%
D14*
%TO.P,K61,1*%
%TO.N,16*%
X211772500Y61595000D03*
%TO.P,K61,2*%
%TO.N,Net-(D61-Pad2)*%
X218122500Y64135000D03*
%TD*%
D15*
%TO.P,LC53,1*%
%TO.N,GND*%
X56665000Y74612500D03*
%TO.P,LC53,2*%
%TO.N,+3V3*%
X57635000Y74612500D03*
%TD*%
D14*
%TO.P,K30,1*%
%TO.N,20*%
X49847500Y80645000D03*
%TO.P,K30,2*%
%TO.N,Net-(D30-Pad2)*%
X56197500Y83185000D03*
%TD*%
%TO.P,K83,1*%
%TO.N,17*%
X197485000Y42545000D03*
%TO.P,K83,2*%
%TO.N,Net-(D83-Pad2)*%
X203835000Y45085000D03*
%TD*%
%TO.P,K81,1*%
%TO.N,18*%
X159385000Y42545000D03*
%TO.P,K81,2*%
%TO.N,Net-(D81-Pad2)*%
X165735000Y45085000D03*
%TD*%
D11*
%TO.P,LD38,1,DOUT*%
%TO.N,Net-(LD38-Pad1)*%
X205537500Y90731250D03*
%TO.P,LD38,2,GND*%
%TO.N,GND*%
X205537500Y91831250D03*
%TO.P,LD38,3,DIN*%
%TO.N,Net-(LD37-Pad1)*%
X204037500Y91831250D03*
%TO.P,LD38,4,VDD*%
%TO.N,+3V3*%
X204037500Y90731250D03*
%TD*%
D15*
%TO.P,LC14,1*%
%TO.N,GND*%
X109052500Y122237500D03*
%TO.P,LC14,2*%
%TO.N,+3V3*%
X110022500Y122237500D03*
%TD*%
%TO.P,LC99,1*%
%TO.N,GND*%
X151915000Y36512500D03*
%TO.P,LC99,2*%
%TO.N,+3V3*%
X152885000Y36512500D03*
%TD*%
D11*
%TO.P,LD93,1,DOUT*%
%TO.N,Net-(LD111-Pad3)*%
X8775000Y34681250D03*
%TO.P,LD93,2,GND*%
%TO.N,GND*%
X8775000Y33581250D03*
%TO.P,LD93,3,DIN*%
%TO.N,Net-(LD93-Pad3)*%
X10275000Y33581250D03*
%TO.P,LD93,4,VDD*%
%TO.N,+3V3*%
X10275000Y34681250D03*
%TD*%
D15*
%TO.P,LC71,1*%
%TO.N,GND*%
X423377500Y74612500D03*
%TO.P,LC71,2*%
%TO.N,+3V3*%
X424347500Y74612500D03*
%TD*%
D11*
%TO.P,LD92,1,DOUT*%
%TO.N,Net-(LD110-Pad3)*%
X462712500Y52631250D03*
%TO.P,LD92,2,GND*%
%TO.N,GND*%
X462712500Y53731250D03*
%TO.P,LD92,3,DIN*%
%TO.N,Net-(LD91-Pad1)*%
X461212500Y53731250D03*
%TO.P,LD92,4,VDD*%
%TO.N,+3V3*%
X461212500Y52631250D03*
%TD*%
D10*
%TO.P,LC118,1*%
%TO.N,GND*%
X269566250Y17462500D03*
%TO.P,LC118,2*%
%TO.N,+3V3*%
X268596250Y17462500D03*
%TD*%
D11*
%TO.P,LD94,1,DOUT*%
%TO.N,Net-(LD93-Pad3)*%
X27825000Y34681250D03*
%TO.P,LD94,2,GND*%
%TO.N,GND*%
X27825000Y33581250D03*
%TO.P,LD94,3,DIN*%
%TO.N,Net-(LD94-Pad3)*%
X29325000Y33581250D03*
%TO.P,LD94,4,VDD*%
%TO.N,+3V3*%
X29325000Y34681250D03*
%TD*%
D14*
%TO.P,K90,1*%
%TO.N,11*%
X421322500Y42545000D03*
%TO.P,K90,2*%
%TO.N,Net-(D90-Pad2)*%
X427672500Y45085000D03*
%TD*%
%TO.P,K20,1*%
%TO.N,16*%
X230822500Y109220000D03*
%TO.P,K20,2*%
%TO.N,Net-(D20-Pad2)*%
X237172500Y111760000D03*
%TD*%
D15*
%TO.P,LC62,1*%
%TO.N,GND*%
X232877500Y74612500D03*
%TO.P,LC62,2*%
%TO.N,+3V3*%
X233847500Y74612500D03*
%TD*%
D10*
%TO.P,LC12,1*%
%TO.N,GND*%
X381485000Y141287500D03*
%TO.P,LC12,2*%
%TO.N,+3V3*%
X380515000Y141287500D03*
%TD*%
D14*
%TO.P,K59,1*%
%TO.N,17*%
X173672500Y61595000D03*
%TO.P,K59,2*%
%TO.N,Net-(D59-Pad2)*%
X180022500Y64135000D03*
%TD*%
D10*
%TO.P,LC89,1*%
%TO.N,GND*%
X405297500Y55562500D03*
%TO.P,LC89,2*%
%TO.N,+3V3*%
X404327500Y55562500D03*
%TD*%
%TO.P,LC45,1*%
%TO.N,GND*%
X362435000Y93662500D03*
%TO.P,LC45,2*%
%TO.N,+3V3*%
X361465000Y93662500D03*
%TD*%
D14*
%TO.P,K95,1*%
%TO.N,20*%
X61753750Y23495000D03*
%TO.P,K95,2*%
%TO.N,Net-(D95-Pad2)*%
X68103750Y26035000D03*
%TD*%
%TO.P,K111,1*%
%TO.N,21*%
X6985000Y4445000D03*
%TO.P,K111,2*%
%TO.N,Net-(D111-Pad2)*%
X13335000Y6985000D03*
%TD*%
%TO.P,K50,1*%
%TO.N,10*%
X459422500Y80645000D03*
%TO.P,K50,2*%
%TO.N,Net-(D50-Pad2)*%
X465772500Y83185000D03*
%TD*%
D10*
%TO.P,LC31,1*%
%TO.N,GND*%
X71922500Y93662500D03*
%TO.P,LC31,2*%
%TO.N,+3V3*%
X70952500Y93662500D03*
%TD*%
D11*
%TO.P,LD21,1,DOUT*%
%TO.N,Net-(LD20-Pad3)*%
X261187500Y120406250D03*
%TO.P,LD21,2,GND*%
%TO.N,GND*%
X261187500Y119306250D03*
%TO.P,LD21,3,DIN*%
%TO.N,Net-(LD21-Pad3)*%
X262687500Y119306250D03*
%TO.P,LD21,4,VDD*%
%TO.N,+3V3*%
X262687500Y120406250D03*
%TD*%
D10*
%TO.P,LC38,1*%
%TO.N,GND*%
X205272500Y93662500D03*
%TO.P,LC38,2*%
%TO.N,+3V3*%
X204302500Y93662500D03*
%TD*%
D14*
%TO.P,K104,1*%
%TO.N,16*%
X245110000Y23495000D03*
%TO.P,K104,2*%
%TO.N,Net-(D104-Pad2)*%
X251460000Y26035000D03*
%TD*%
D11*
%TO.P,LD65,1,DOUT*%
%TO.N,Net-(LD64-Pad3)*%
X289762500Y72781250D03*
%TO.P,LD65,2,GND*%
%TO.N,GND*%
X289762500Y71681250D03*
%TO.P,LD65,3,DIN*%
%TO.N,Net-(LD65-Pad3)*%
X291262500Y71681250D03*
%TO.P,LD65,4,VDD*%
%TO.N,+3V3*%
X291262500Y72781250D03*
%TD*%
D18*
%TO.P,LC127,1*%
%TO.N,GND*%
X454025000Y19535000D03*
%TO.P,LC127,2*%
%TO.N,+3V3*%
X454025000Y18565000D03*
%TD*%
D14*
%TO.P,K25,1*%
%TO.N,13*%
X340360000Y109220000D03*
%TO.P,K25,2*%
%TO.N,Net-(D25-Pad2)*%
X346710000Y111760000D03*
%TD*%
%TO.P,K52,1*%
%TO.N,21*%
X26035000Y61595000D03*
%TO.P,K52,2*%
%TO.N,Net-(D52-Pad2)*%
X32385000Y64135000D03*
%TD*%
%TO.P,K2,1*%
%TO.N,19*%
X87947500Y128270000D03*
%TO.P,K2,2*%
%TO.N,Net-(D2-Pad2)*%
X94297500Y130810000D03*
%TD*%
D11*
%TO.P,LD62,1,DOUT*%
%TO.N,Net-(LD61-Pad3)*%
X232612500Y72781250D03*
%TO.P,LD62,2,GND*%
%TO.N,GND*%
X232612500Y71681250D03*
%TO.P,LD62,3,DIN*%
%TO.N,Net-(LD62-Pad3)*%
X234112500Y71681250D03*
%TO.P,LD62,4,VDD*%
%TO.N,+3V3*%
X234112500Y72781250D03*
%TD*%
%TO.P,LD23,1,DOUT*%
%TO.N,Net-(LD22-Pad3)*%
X299287500Y120406250D03*
%TO.P,LD23,2,GND*%
%TO.N,GND*%
X299287500Y119306250D03*
%TO.P,LD23,3,DIN*%
%TO.N,Net-(LD23-Pad3)*%
X300787500Y119306250D03*
%TO.P,LD23,4,VDD*%
%TO.N,+3V3*%
X300787500Y120406250D03*
%TD*%
%TO.P,LD60,1,DOUT*%
%TO.N,Net-(LD59-Pad3)*%
X194512500Y72781250D03*
%TO.P,LD60,2,GND*%
%TO.N,GND*%
X194512500Y71681250D03*
%TO.P,LD60,3,DIN*%
%TO.N,Net-(LD60-Pad3)*%
X196012500Y71681250D03*
%TO.P,LD60,4,VDD*%
%TO.N,+3V3*%
X196012500Y72781250D03*
%TD*%
D14*
%TO.P,K100,1*%
%TO.N,18*%
X168910000Y23495000D03*
%TO.P,K100,2*%
%TO.N,Net-(D100-Pad2)*%
X175260000Y26035000D03*
%TD*%
D10*
%TO.P,LC35,1*%
%TO.N,GND*%
X148122500Y93662500D03*
%TO.P,LC35,2*%
%TO.N,+3V3*%
X147152500Y93662500D03*
%TD*%
%TO.P,LC82,1*%
%TO.N,GND*%
X181460000Y55562500D03*
%TO.P,LC82,2*%
%TO.N,+3V3*%
X180490000Y55562500D03*
%TD*%
D11*
%TO.P,LD37,1,DOUT*%
%TO.N,Net-(LD37-Pad1)*%
X186487500Y90731250D03*
%TO.P,LD37,2,GND*%
%TO.N,GND*%
X186487500Y91831250D03*
%TO.P,LD37,3,DIN*%
%TO.N,Net-(LD36-Pad1)*%
X184987500Y91831250D03*
%TO.P,LD37,4,VDD*%
%TO.N,+3V3*%
X184987500Y90731250D03*
%TD*%
%TO.P,LD57,1,DOUT*%
%TO.N,Net-(LD56-Pad3)*%
X137362500Y72781250D03*
%TO.P,LD57,2,GND*%
%TO.N,GND*%
X137362500Y71681250D03*
%TO.P,LD57,3,DIN*%
%TO.N,Net-(LD57-Pad3)*%
X138862500Y71681250D03*
%TO.P,LD57,4,VDD*%
%TO.N,+3V3*%
X138862500Y72781250D03*
%TD*%
D10*
%TO.P,LC43,1*%
%TO.N,GND*%
X310047500Y93662500D03*
%TO.P,LC43,2*%
%TO.N,+3V3*%
X309077500Y93662500D03*
%TD*%
D11*
%TO.P,LD22,1,DOUT*%
%TO.N,Net-(LD21-Pad3)*%
X280237500Y120406250D03*
%TO.P,LD22,2,GND*%
%TO.N,GND*%
X280237500Y119306250D03*
%TO.P,LD22,3,DIN*%
%TO.N,Net-(LD22-Pad3)*%
X281737500Y119306250D03*
%TO.P,LD22,4,VDD*%
%TO.N,+3V3*%
X281737500Y120406250D03*
%TD*%
D14*
%TO.P,K89,1*%
%TO.N,12*%
X402272500Y42545000D03*
%TO.P,K89,2*%
%TO.N,Net-(D89-Pad2)*%
X408622500Y45085000D03*
%TD*%
D11*
%TO.P,LD9,1,DOUT*%
%TO.N,Net-(LD10-Pad3)*%
X234112500Y138356250D03*
%TO.P,LD9,2,GND*%
%TO.N,GND*%
X234112500Y139456250D03*
%TO.P,LD9,3,DIN*%
%TO.N,Net-(LD8-Pad1)*%
X232612500Y139456250D03*
%TO.P,LD9,4,VDD*%
%TO.N,+3V3*%
X232612500Y138356250D03*
%TD*%
D10*
%TO.P,LC119,1*%
%TO.N,GND*%
X293378750Y17462500D03*
%TO.P,LC119,2*%
%TO.N,+3V3*%
X292408750Y17462500D03*
%TD*%
%TO.P,LC3,1*%
%TO.N,GND*%
X110022500Y141287500D03*
%TO.P,LC3,2*%
%TO.N,+3V3*%
X109052500Y141287500D03*
%TD*%
D11*
%TO.P,LD77,1,DOUT*%
%TO.N,Net-(LD77-Pad1)*%
X86475000Y52631250D03*
%TO.P,LD77,2,GND*%
%TO.N,GND*%
X86475000Y53731250D03*
%TO.P,LD77,3,DIN*%
%TO.N,Net-(LD76-Pad1)*%
X84975000Y53731250D03*
%TO.P,LD77,4,VDD*%
%TO.N,+3V3*%
X84975000Y52631250D03*
%TD*%
D14*
%TO.P,K88,1*%
%TO.N,14*%
X304641250Y42545000D03*
%TO.P,K88,2*%
%TO.N,Net-(D88-Pad2)*%
X310991250Y45085000D03*
%TD*%
D15*
%TO.P,LC102,1*%
%TO.N,GND*%
X209065000Y36512500D03*
%TO.P,LC102,2*%
%TO.N,+3V3*%
X210035000Y36512500D03*
%TD*%
D11*
%TO.P,LD2,1,DOUT*%
%TO.N,Net-(LD2-Pad1)*%
X91237500Y138356250D03*
%TO.P,LD2,2,GND*%
%TO.N,GND*%
X91237500Y139456250D03*
%TO.P,LD2,3,DIN*%
%TO.N,Net-(LD1-Pad1)*%
X89737500Y139456250D03*
%TO.P,LD2,4,VDD*%
%TO.N,+3V3*%
X89737500Y138356250D03*
%TD*%
D15*
%TO.P,LC97,1*%
%TO.N,GND*%
X113815000Y36512500D03*
%TO.P,LC97,2*%
%TO.N,+3V3*%
X114785000Y36512500D03*
%TD*%
%TO.P,LC110,1*%
%TO.N,GND*%
X442427500Y36512500D03*
%TO.P,LC110,2*%
%TO.N,+3V3*%
X443397500Y36512500D03*
%TD*%
D11*
%TO.P,LD112,1,DOUT*%
%TO.N,Net-(LD112-Pad1)*%
X29325000Y14531250D03*
%TO.P,LD112,2,GND*%
%TO.N,GND*%
X29325000Y15631250D03*
%TO.P,LD112,3,DIN*%
%TO.N,Net-(LD111-Pad1)*%
X27825000Y15631250D03*
%TO.P,LD112,4,VDD*%
%TO.N,+3V3*%
X27825000Y14531250D03*
%TD*%
D14*
%TO.P,K26,1*%
%TO.N,13*%
X359410000Y109220000D03*
%TO.P,K26,2*%
%TO.N,Net-(D26-Pad2)*%
X365760000Y111760000D03*
%TD*%
D10*
%TO.P,LC8,1*%
%TO.N,GND*%
X214797500Y141287500D03*
%TO.P,LC8,2*%
%TO.N,+3V3*%
X213827500Y141287500D03*
%TD*%
D14*
%TO.P,K80,1*%
%TO.N,18*%
X140335000Y42545000D03*
%TO.P,K80,2*%
%TO.N,Net-(D80-Pad2)*%
X146685000Y45085000D03*
%TD*%
D10*
%TO.P,LC50,1*%
%TO.N,GND*%
X462447500Y93662500D03*
%TO.P,LC50,2*%
%TO.N,+3V3*%
X461477500Y93662500D03*
%TD*%
%TO.P,LC91,1*%
%TO.N,GND*%
X443397500Y55562500D03*
%TO.P,LC91,2*%
%TO.N,+3V3*%
X442427500Y55562500D03*
%TD*%
D11*
%TO.P,LD109,1,DOUT*%
%TO.N,Net-(LD108-Pad3)*%
X423112500Y34681250D03*
%TO.P,LD109,2,GND*%
%TO.N,GND*%
X423112500Y33581250D03*
%TO.P,LD109,3,DIN*%
%TO.N,Net-(LD109-Pad3)*%
X424612500Y33581250D03*
%TO.P,LD109,4,VDD*%
%TO.N,+3V3*%
X424612500Y34681250D03*
%TD*%
%TO.P,LD16,1,DOUT*%
%TO.N,Net-(LD15-Pad3)*%
X146887500Y120406250D03*
%TO.P,LD16,2,GND*%
%TO.N,GND*%
X146887500Y119306250D03*
%TO.P,LD16,3,DIN*%
%TO.N,Net-(LD16-Pad3)*%
X148387500Y119306250D03*
%TO.P,LD16,4,VDD*%
%TO.N,+3V3*%
X148387500Y120406250D03*
%TD*%
D15*
%TO.P,LC105,1*%
%TO.N,GND*%
X266215000Y36512500D03*
%TO.P,LC105,2*%
%TO.N,+3V3*%
X267185000Y36512500D03*
%TD*%
D10*
%TO.P,LC46,1*%
%TO.N,GND*%
X381485000Y93662500D03*
%TO.P,LC46,2*%
%TO.N,+3V3*%
X380515000Y93662500D03*
%TD*%
D15*
%TO.P,LC20,1*%
%TO.N,GND*%
X232877500Y122237500D03*
%TO.P,LC20,2*%
%TO.N,+3V3*%
X233847500Y122237500D03*
%TD*%
D11*
%TO.P,LD29,1,DOUT*%
%TO.N,Net-(LD29-Pad1)*%
X29325000Y90731250D03*
%TO.P,LD29,2,GND*%
%TO.N,GND*%
X29325000Y91831250D03*
%TO.P,LD29,3,DIN*%
%TO.N,Net-(LD28-Pad1)*%
X27825000Y91831250D03*
%TO.P,LD29,4,VDD*%
%TO.N,+3V3*%
X27825000Y90731250D03*
%TD*%
D14*
%TO.P,K77,1*%
%TO.N,20*%
X83185000Y42545000D03*
%TO.P,K77,2*%
%TO.N,Net-(D77-Pad2)*%
X89535000Y45085000D03*
%TD*%
%TO.P,K122,1*%
%TO.N,13*%
X359410000Y4445000D03*
%TO.P,K122,2*%
%TO.N,Net-(D122-Pad2)*%
X365760000Y6985000D03*
%TD*%
D11*
%TO.P,LD64,1,DOUT*%
%TO.N,Net-(LD63-Pad3)*%
X270712500Y72781250D03*
%TO.P,LD64,2,GND*%
%TO.N,GND*%
X270712500Y71681250D03*
%TO.P,LD64,3,DIN*%
%TO.N,Net-(LD64-Pad3)*%
X272212500Y71681250D03*
%TO.P,LD64,4,VDD*%
%TO.N,+3V3*%
X272212500Y72781250D03*
%TD*%
D14*
%TO.P,K46,1*%
%TO.N,12*%
X378460000Y80645000D03*
%TO.P,K46,2*%
%TO.N,Net-(D46-Pad2)*%
X384810000Y83185000D03*
%TD*%
D10*
%TO.P,LC77,1*%
%TO.N,GND*%
X86210000Y55562500D03*
%TO.P,LC77,2*%
%TO.N,+3V3*%
X85240000Y55562500D03*
%TD*%
D11*
%TO.P,LD43,1,DOUT*%
%TO.N,Net-(LD43-Pad1)*%
X310312500Y90731250D03*
%TO.P,LD43,2,GND*%
%TO.N,GND*%
X310312500Y91831250D03*
%TO.P,LD43,3,DIN*%
%TO.N,Net-(LD42-Pad1)*%
X308812500Y91831250D03*
%TO.P,LD43,4,VDD*%
%TO.N,+3V3*%
X308812500Y90731250D03*
%TD*%
%TO.P,LD14,1,DOUT*%
%TO.N,Net-(LD13-Pad3)*%
X108787500Y120406250D03*
%TO.P,LD14,2,GND*%
%TO.N,GND*%
X108787500Y119306250D03*
%TO.P,LD14,3,DIN*%
%TO.N,Net-(LD14-Pad3)*%
X110287500Y119306250D03*
%TO.P,LD14,4,VDD*%
%TO.N,+3V3*%
X110287500Y120406250D03*
%TD*%
D10*
%TO.P,LC28,1*%
%TO.N,GND*%
X10010000Y93662500D03*
%TO.P,LC28,2*%
%TO.N,+3V3*%
X9040000Y93662500D03*
%TD*%
D14*
%TO.P,K126,1*%
%TO.N,11*%
X440372500Y4445000D03*
%TO.P,K126,2*%
%TO.N,Net-(D126-Pad2)*%
X446722500Y6985000D03*
%TD*%
D11*
%TO.P,LD85,1,DOUT*%
%TO.N,Net-(LD85-Pad1)*%
X238875000Y52631250D03*
%TO.P,LD85,2,GND*%
%TO.N,GND*%
X238875000Y53731250D03*
%TO.P,LD85,3,DIN*%
%TO.N,Net-(LD84-Pad1)*%
X237375000Y53731250D03*
%TO.P,LD85,4,VDD*%
%TO.N,+3V3*%
X237375000Y52631250D03*
%TD*%
%TO.P,LD63,1,DOUT*%
%TO.N,Net-(LD62-Pad3)*%
X251662500Y72781250D03*
%TO.P,LD63,2,GND*%
%TO.N,GND*%
X251662500Y71681250D03*
%TO.P,LD63,3,DIN*%
%TO.N,Net-(LD63-Pad3)*%
X253162500Y71681250D03*
%TO.P,LD63,4,VDD*%
%TO.N,+3V3*%
X253162500Y72781250D03*
%TD*%
D14*
%TO.P,K112,1*%
%TO.N,21*%
X26035000Y4445000D03*
%TO.P,K112,2*%
%TO.N,Net-(D112-Pad2)*%
X32385000Y6985000D03*
%TD*%
D11*
%TO.P,LD121,1,DOUT*%
%TO.N,Net-(LD121-Pad1)*%
X343650000Y14531250D03*
%TO.P,LD121,2,GND*%
%TO.N,GND*%
X343650000Y15631250D03*
%TO.P,LD121,3,DIN*%
%TO.N,Net-(LD120-Pad1)*%
X342150000Y15631250D03*
%TO.P,LD121,4,VDD*%
%TO.N,+3V3*%
X342150000Y14531250D03*
%TD*%
D14*
%TO.P,K113,1*%
%TO.N,20*%
X52228750Y4445000D03*
%TO.P,K113,2*%
%TO.N,Net-(D113-Pad2)*%
X58578750Y6985000D03*
%TD*%
%TO.P,K65,1*%
%TO.N,14*%
X287972500Y61595000D03*
%TO.P,K65,2*%
%TO.N,Net-(D65-Pad2)*%
X294322500Y64135000D03*
%TD*%
D11*
%TO.P,LD127,1,DOUT*%
%TO.N,unconnected-(LD127-Pad1)*%
X456956250Y19800000D03*
%TO.P,LD127,2,GND*%
%TO.N,GND*%
X455856250Y19800000D03*
%TO.P,LD127,3,DIN*%
%TO.N,Net-(LD126-Pad1)*%
X455856250Y18300000D03*
%TO.P,LD127,4,VDD*%
%TO.N,+3V3*%
X456956250Y18300000D03*
%TD*%
D14*
%TO.P,K54,1*%
%TO.N,20*%
X78422500Y61595000D03*
%TO.P,K54,2*%
%TO.N,Net-(D54-Pad2)*%
X84772500Y64135000D03*
%TD*%
D11*
%TO.P,LD36,1,DOUT*%
%TO.N,Net-(LD36-Pad1)*%
X167437500Y90731250D03*
%TO.P,LD36,2,GND*%
%TO.N,GND*%
X167437500Y91831250D03*
%TO.P,LD36,3,DIN*%
%TO.N,Net-(LD35-Pad1)*%
X165937500Y91831250D03*
%TO.P,LD36,4,VDD*%
%TO.N,+3V3*%
X165937500Y90731250D03*
%TD*%
D14*
%TO.P,K76,1*%
%TO.N,20*%
X56991250Y42545000D03*
%TO.P,K76,2*%
%TO.N,Net-(D76-Pad2)*%
X63341250Y45085000D03*
%TD*%
D15*
%TO.P,LC100,1*%
%TO.N,GND*%
X170965000Y36512500D03*
%TO.P,LC100,2*%
%TO.N,+3V3*%
X171935000Y36512500D03*
%TD*%
D14*
%TO.P,K78,1*%
%TO.N,19*%
X102235000Y42545000D03*
%TO.P,K78,2*%
%TO.N,Net-(D78-Pad2)*%
X108585000Y45085000D03*
%TD*%
D11*
%TO.P,LD30,1,DOUT*%
%TO.N,Net-(LD30-Pad1)*%
X53137500Y90731250D03*
%TO.P,LD30,2,GND*%
%TO.N,GND*%
X53137500Y91831250D03*
%TO.P,LD30,3,DIN*%
%TO.N,Net-(LD29-Pad1)*%
X51637500Y91831250D03*
%TO.P,LD30,4,VDD*%
%TO.N,+3V3*%
X51637500Y90731250D03*
%TD*%
D14*
%TO.P,K51,1*%
%TO.N,21*%
X6985000Y61595000D03*
%TO.P,K51,2*%
%TO.N,Net-(D51-Pad2)*%
X13335000Y64135000D03*
%TD*%
%TO.P,K101,1*%
%TO.N,17*%
X187960000Y23495000D03*
%TO.P,K101,2*%
%TO.N,Net-(D101-Pad2)*%
X194310000Y26035000D03*
%TD*%
D10*
%TO.P,LC116,1*%
%TO.N,GND*%
X174316250Y17462500D03*
%TO.P,LC116,2*%
%TO.N,+3V3*%
X173346250Y17462500D03*
%TD*%
%TO.P,LC49,1*%
%TO.N,GND*%
X443397500Y93662500D03*
%TO.P,LC49,2*%
%TO.N,+3V3*%
X442427500Y93662500D03*
%TD*%
D11*
%TO.P,LD11,1,DOUT*%
%TO.N,Net-(LD11-Pad1)*%
X362700000Y138356250D03*
%TO.P,LD11,2,GND*%
%TO.N,GND*%
X362700000Y139456250D03*
%TO.P,LD11,3,DIN*%
%TO.N,Net-(LD10-Pad1)*%
X361200000Y139456250D03*
%TO.P,LD11,4,VDD*%
%TO.N,+3V3*%
X361200000Y138356250D03*
%TD*%
%TO.P,LD75,1,DOUT*%
%TO.N,Net-(LD75-Pad1)*%
X29325000Y52631250D03*
%TO.P,LD75,2,GND*%
%TO.N,GND*%
X29325000Y53731250D03*
%TO.P,LD75,3,DIN*%
%TO.N,Net-(LD74-Pad1)*%
X27825000Y53731250D03*
%TO.P,LD75,4,VDD*%
%TO.N,+3V3*%
X27825000Y52631250D03*
%TD*%
D14*
%TO.P,K57,1*%
%TO.N,18*%
X135572500Y61595000D03*
%TO.P,K57,2*%
%TO.N,Net-(D57-Pad2)*%
X141922500Y64135000D03*
%TD*%
%TO.P,K64,1*%
%TO.N,15*%
X268922500Y61595000D03*
%TO.P,K64,2*%
%TO.N,Net-(D64-Pad2)*%
X275272500Y64135000D03*
%TD*%
%TO.P,K105,1*%
%TO.N,15*%
X264160000Y23495000D03*
%TO.P,K105,2*%
%TO.N,Net-(D105-Pad2)*%
X270510000Y26035000D03*
%TD*%
%TO.P,K32,1*%
%TO.N,19*%
X87947500Y80645000D03*
%TO.P,K32,2*%
%TO.N,Net-(D32-Pad2)*%
X94297500Y83185000D03*
%TD*%
D11*
%TO.P,LD45,1,DOUT*%
%TO.N,Net-(LD45-Pad1)*%
X362700000Y90731250D03*
%TO.P,LD45,2,GND*%
%TO.N,GND*%
X362700000Y91831250D03*
%TO.P,LD45,3,DIN*%
%TO.N,Net-(LD44-Pad1)*%
X361200000Y91831250D03*
%TO.P,LD45,4,VDD*%
%TO.N,+3V3*%
X361200000Y90731250D03*
%TD*%
%TO.P,LD80,1,DOUT*%
%TO.N,Net-(LD80-Pad1)*%
X143625000Y52631250D03*
%TO.P,LD80,2,GND*%
%TO.N,GND*%
X143625000Y53731250D03*
%TO.P,LD80,3,DIN*%
%TO.N,Net-(LD79-Pad1)*%
X142125000Y53731250D03*
%TO.P,LD80,4,VDD*%
%TO.N,+3V3*%
X142125000Y52631250D03*
%TD*%
D10*
%TO.P,LC44,1*%
%TO.N,GND*%
X343385000Y93662500D03*
%TO.P,LC44,2*%
%TO.N,+3V3*%
X342415000Y93662500D03*
%TD*%
D14*
%TO.P,K27,1*%
%TO.N,12*%
X378460000Y109220000D03*
%TO.P,K27,2*%
%TO.N,Net-(D27-Pad2)*%
X384810000Y111760000D03*
%TD*%
D11*
%TO.P,LD13,1,DOUT*%
%TO.N,Net-(LD13-Pad1)*%
X89737500Y120406250D03*
%TO.P,LD13,2,GND*%
%TO.N,GND*%
X89737500Y119306250D03*
%TO.P,LD13,3,DIN*%
%TO.N,Net-(LD13-Pad3)*%
X91237500Y119306250D03*
%TO.P,LD13,4,VDD*%
%TO.N,+3V3*%
X91237500Y120406250D03*
%TD*%
D14*
%TO.P,K13,1*%
%TO.N,19*%
X87947500Y109220000D03*
%TO.P,K13,2*%
%TO.N,Net-(D13-Pad2)*%
X94297500Y111760000D03*
%TD*%
%TO.P,K94,1*%
%TO.N,21*%
X26035000Y23495000D03*
%TO.P,K94,2*%
%TO.N,Net-(D94-Pad2)*%
X32385000Y26035000D03*
%TD*%
%TO.P,K93,1*%
%TO.N,21*%
X6985000Y23495000D03*
%TO.P,K93,2*%
%TO.N,Net-(D93-Pad2)*%
X13335000Y26035000D03*
%TD*%
D11*
%TO.P,LD61,1,DOUT*%
%TO.N,Net-(LD60-Pad3)*%
X213562500Y72781250D03*
%TO.P,LD61,2,GND*%
%TO.N,GND*%
X213562500Y71681250D03*
%TO.P,LD61,3,DIN*%
%TO.N,Net-(LD61-Pad3)*%
X215062500Y71681250D03*
%TO.P,LD61,4,VDD*%
%TO.N,+3V3*%
X215062500Y72781250D03*
%TD*%
%TO.P,LD32,1,DOUT*%
%TO.N,Net-(LD32-Pad1)*%
X91237500Y90731250D03*
%TO.P,LD32,2,GND*%
%TO.N,GND*%
X91237500Y91831250D03*
%TO.P,LD32,3,DIN*%
%TO.N,Net-(LD31-Pad1)*%
X89737500Y91831250D03*
%TO.P,LD32,4,VDD*%
%TO.N,+3V3*%
X89737500Y90731250D03*
%TD*%
%TO.P,LD115,1,DOUT*%
%TO.N,Net-(LD115-Pad1)*%
X103143750Y14531250D03*
%TO.P,LD115,2,GND*%
%TO.N,GND*%
X103143750Y15631250D03*
%TO.P,LD115,3,DIN*%
%TO.N,Net-(LD114-Pad1)*%
X101643750Y15631250D03*
%TO.P,LD115,4,VDD*%
%TO.N,+3V3*%
X101643750Y14531250D03*
%TD*%
D14*
%TO.P,K109,1*%
%TO.N,11*%
X421322500Y23495000D03*
%TO.P,K109,2*%
%TO.N,Net-(D109-Pad2)*%
X427672500Y26035000D03*
%TD*%
D15*
%TO.P,LC63,1*%
%TO.N,GND*%
X251927500Y74612500D03*
%TO.P,LC63,2*%
%TO.N,+3V3*%
X252897500Y74612500D03*
%TD*%
D14*
%TO.P,K48,1*%
%TO.N,11*%
X421322500Y80645000D03*
%TO.P,K48,2*%
%TO.N,Net-(D48-Pad2)*%
X427672500Y83185000D03*
%TD*%
D10*
%TO.P,LC87,1*%
%TO.N,GND*%
X276710000Y55562500D03*
%TO.P,LC87,2*%
%TO.N,+3V3*%
X275740000Y55562500D03*
%TD*%
D15*
%TO.P,LC106,1*%
%TO.N,GND*%
X301933750Y36512500D03*
%TO.P,LC106,2*%
%TO.N,+3V3*%
X302903750Y36512500D03*
%TD*%
D11*
%TO.P,LD10,1,DOUT*%
%TO.N,Net-(LD10-Pad1)*%
X343650000Y138356250D03*
%TO.P,LD10,2,GND*%
%TO.N,GND*%
X343650000Y139456250D03*
%TO.P,LD10,3,DIN*%
%TO.N,Net-(LD10-Pad3)*%
X342150000Y139456250D03*
%TO.P,LD10,4,VDD*%
%TO.N,+3V3*%
X342150000Y138356250D03*
%TD*%
D10*
%TO.P,LC90,1*%
%TO.N,GND*%
X424347500Y55562500D03*
%TO.P,LC90,2*%
%TO.N,+3V3*%
X423377500Y55562500D03*
%TD*%
D11*
%TO.P,LD88,1,DOUT*%
%TO.N,Net-(LD88-Pad1)*%
X307931250Y52631250D03*
%TO.P,LD88,2,GND*%
%TO.N,GND*%
X307931250Y53731250D03*
%TO.P,LD88,3,DIN*%
%TO.N,Net-(LD87-Pad1)*%
X306431250Y53731250D03*
%TO.P,LD88,4,VDD*%
%TO.N,+3V3*%
X306431250Y52631250D03*
%TD*%
D14*
%TO.P,K58,1*%
%TO.N,18*%
X154622500Y61595000D03*
%TO.P,K58,2*%
%TO.N,Net-(D58-Pad2)*%
X160972500Y64135000D03*
%TD*%
D11*
%TO.P,LD35,1,DOUT*%
%TO.N,Net-(LD35-Pad1)*%
X148387500Y90731250D03*
%TO.P,LD35,2,GND*%
%TO.N,GND*%
X148387500Y91831250D03*
%TO.P,LD35,3,DIN*%
%TO.N,Net-(LD34-Pad1)*%
X146887500Y91831250D03*
%TO.P,LD35,4,VDD*%
%TO.N,+3V3*%
X146887500Y90731250D03*
%TD*%
D15*
%TO.P,LC58,1*%
%TO.N,GND*%
X156677500Y74612500D03*
%TO.P,LC58,2*%
%TO.N,+3V3*%
X157647500Y74612500D03*
%TD*%
D14*
%TO.P,K68,1*%
%TO.N,13*%
X359410000Y61595000D03*
%TO.P,K68,2*%
%TO.N,Net-(D68-Pad2)*%
X365760000Y64135000D03*
%TD*%
D12*
%TO.P,KT2,1*%
%TO.N,15*%
X286479500Y133350000D03*
D13*
%TO.P,KT2,2*%
%TO.N,Net-(DT2-Pad2)*%
X286479500Y130810000D03*
%TD*%
D14*
%TO.P,K45,1*%
%TO.N,13*%
X359410000Y80645000D03*
%TO.P,K45,2*%
%TO.N,Net-(D45-Pad2)*%
X365760000Y83185000D03*
%TD*%
D10*
%TO.P,LC88,1*%
%TO.N,GND*%
X307666250Y55562500D03*
%TO.P,LC88,2*%
%TO.N,+3V3*%
X306696250Y55562500D03*
%TD*%
D11*
%TO.P,LD124,1,DOUT*%
%TO.N,Net-(LD124-Pad1)*%
X405562500Y14531250D03*
%TO.P,LD124,2,GND*%
%TO.N,GND*%
X405562500Y15631250D03*
%TO.P,LD124,3,DIN*%
%TO.N,Net-(LD123-Pad1)*%
X404062500Y15631250D03*
%TO.P,LD124,4,VDD*%
%TO.N,+3V3*%
X404062500Y14531250D03*
%TD*%
%TO.P,LD120,1,DOUT*%
%TO.N,Net-(LD120-Pad1)*%
X317456250Y14531250D03*
%TO.P,LD120,2,GND*%
%TO.N,GND*%
X317456250Y15631250D03*
%TO.P,LD120,3,DIN*%
%TO.N,Net-(LD119-Pad1)*%
X315956250Y15631250D03*
%TO.P,LD120,4,VDD*%
%TO.N,+3V3*%
X315956250Y14531250D03*
%TD*%
D10*
%TO.P,LC37,1*%
%TO.N,GND*%
X186222500Y93662500D03*
%TO.P,LC37,2*%
%TO.N,+3V3*%
X185252500Y93662500D03*
%TD*%
D11*
%TO.P,LD101,1,DOUT*%
%TO.N,Net-(LD100-Pad3)*%
X189750000Y34681250D03*
%TO.P,LD101,2,GND*%
%TO.N,GND*%
X189750000Y33581250D03*
%TO.P,LD101,3,DIN*%
%TO.N,Net-(LD101-Pad3)*%
X191250000Y33581250D03*
%TO.P,LD101,4,VDD*%
%TO.N,+3V3*%
X191250000Y34681250D03*
%TD*%
D14*
%TO.P,K69,1*%
%TO.N,12*%
X378460000Y61595000D03*
%TO.P,K69,2*%
%TO.N,Net-(D69-Pad2)*%
X384810000Y64135000D03*
%TD*%
%TO.P,K67,1*%
%TO.N,13*%
X340360000Y61595000D03*
%TO.P,K67,2*%
%TO.N,Net-(D67-Pad2)*%
X346710000Y64135000D03*
%TD*%
%TO.P,K72,1*%
%TO.N,11*%
X440372500Y61595000D03*
%TO.P,K72,2*%
%TO.N,Net-(D72-Pad2)*%
X446722500Y64135000D03*
%TD*%
D12*
%TO.P,KT1,1*%
%TO.N,15*%
X267429500Y133350000D03*
D13*
%TO.P,KT1,2*%
%TO.N,Net-(DT1-Pad2)*%
X267429500Y130810000D03*
%TD*%
D11*
%TO.P,LD42,1,DOUT*%
%TO.N,Net-(LD42-Pad1)*%
X281737500Y90731250D03*
%TO.P,LD42,2,GND*%
%TO.N,GND*%
X281737500Y91831250D03*
%TO.P,LD42,3,DIN*%
%TO.N,Net-(LD41-Pad1)*%
X280237500Y91831250D03*
%TO.P,LD42,4,VDD*%
%TO.N,+3V3*%
X280237500Y90731250D03*
%TD*%
%TO.P,LD102,1,DOUT*%
%TO.N,Net-(LD101-Pad3)*%
X208800000Y34681250D03*
%TO.P,LD102,2,GND*%
%TO.N,GND*%
X208800000Y33581250D03*
%TO.P,LD102,3,DIN*%
%TO.N,Net-(LD102-Pad3)*%
X210300000Y33581250D03*
%TO.P,LD102,4,VDD*%
%TO.N,+3V3*%
X210300000Y34681250D03*
%TD*%
D14*
%TO.P,K1,1*%
%TO.N,21*%
X6985000Y128270000D03*
%TO.P,K1,2*%
%TO.N,Net-(D1-Pad2)*%
X13335000Y130810000D03*
%TD*%
%TO.P,K11,1*%
%TO.N,13*%
X359410000Y128270000D03*
%TO.P,K11,2*%
%TO.N,Net-(D11-Pad2)*%
X365760000Y130810000D03*
%TD*%
D11*
%TO.P,LD58,1,DOUT*%
%TO.N,Net-(LD57-Pad3)*%
X156412500Y72781250D03*
%TO.P,LD58,2,GND*%
%TO.N,GND*%
X156412500Y71681250D03*
%TO.P,LD58,3,DIN*%
%TO.N,Net-(LD58-Pad3)*%
X157912500Y71681250D03*
%TO.P,LD58,4,VDD*%
%TO.N,+3V3*%
X157912500Y72781250D03*
%TD*%
D15*
%TO.P,LC60,1*%
%TO.N,GND*%
X194777500Y74612500D03*
%TO.P,LC60,2*%
%TO.N,+3V3*%
X195747500Y74612500D03*
%TD*%
D11*
%TO.P,LD50,1,DOUT*%
%TO.N,Net-(LD50-Pad1)*%
X462712500Y90731250D03*
%TO.P,LD50,2,GND*%
%TO.N,GND*%
X462712500Y91831250D03*
%TO.P,LD50,3,DIN*%
%TO.N,Net-(LD49-Pad1)*%
X461212500Y91831250D03*
%TO.P,LD50,4,VDD*%
%TO.N,+3V3*%
X461212500Y90731250D03*
%TD*%
D15*
%TO.P,LC70,1*%
%TO.N,GND*%
X404327500Y74612500D03*
%TO.P,LC70,2*%
%TO.N,+3V3*%
X405297500Y74612500D03*
%TD*%
D14*
%TO.P,K10,1*%
%TO.N,13*%
X340360000Y128270000D03*
%TO.P,K10,2*%
%TO.N,Net-(D10-Pad2)*%
X346710000Y130810000D03*
%TD*%
D15*
%TO.P,LC23,1*%
%TO.N,GND*%
X299552500Y122237500D03*
%TO.P,LC23,2*%
%TO.N,+3V3*%
X300522500Y122237500D03*
%TD*%
D10*
%TO.P,LC5,1*%
%TO.N,GND*%
X148122500Y141287500D03*
%TO.P,LC5,2*%
%TO.N,+3V3*%
X147152500Y141287500D03*
%TD*%
%TO.P,LC117,1*%
%TO.N,GND*%
X245753750Y17462500D03*
%TO.P,LC117,2*%
%TO.N,+3V3*%
X244783750Y17462500D03*
%TD*%
D15*
%TO.P,LC27,1*%
%TO.N,GND*%
X380515000Y122237500D03*
%TO.P,LC27,2*%
%TO.N,+3V3*%
X381485000Y122237500D03*
%TD*%
D14*
%TO.P,K74,1*%
%TO.N,21*%
X6985000Y42545000D03*
%TO.P,K74,2*%
%TO.N,Net-(D74-Pad2)*%
X13335000Y45085000D03*
%TD*%
%TO.P,K23,1*%
%TO.N,14*%
X297497500Y109220000D03*
%TO.P,K23,2*%
%TO.N,Net-(D23-Pad2)*%
X303847500Y111760000D03*
%TD*%
D15*
%TO.P,LC15,1*%
%TO.N,GND*%
X128102500Y122237500D03*
%TO.P,LC15,2*%
%TO.N,+3V3*%
X129072500Y122237500D03*
%TD*%
D14*
%TO.P,K120,1*%
%TO.N,15*%
X314166250Y4445000D03*
%TO.P,K120,2*%
%TO.N,Net-(D120-Pad2)*%
X320516250Y6985000D03*
%TD*%
D10*
%TO.P,LC123,1*%
%TO.N,GND*%
X381485000Y17462500D03*
%TO.P,LC123,2*%
%TO.N,+3V3*%
X380515000Y17462500D03*
%TD*%
D11*
%TO.P,LD83,1,DOUT*%
%TO.N,Net-(LD83-Pad1)*%
X200775000Y52631250D03*
%TO.P,LD83,2,GND*%
%TO.N,GND*%
X200775000Y53731250D03*
%TO.P,LD83,3,DIN*%
%TO.N,Net-(LD82-Pad1)*%
X199275000Y53731250D03*
%TO.P,LD83,4,VDD*%
%TO.N,+3V3*%
X199275000Y52631250D03*
%TD*%
%TO.P,LD71,1,DOUT*%
%TO.N,Net-(LD70-Pad3)*%
X423112500Y72781250D03*
%TO.P,LD71,2,GND*%
%TO.N,GND*%
X423112500Y71681250D03*
%TO.P,LD71,3,DIN*%
%TO.N,Net-(LD71-Pad3)*%
X424612500Y71681250D03*
%TO.P,LD71,4,VDD*%
%TO.N,+3V3*%
X424612500Y72781250D03*
%TD*%
%TO.P,LD24,1,DOUT*%
%TO.N,Net-(LD23-Pad3)*%
X318337500Y120406250D03*
%TO.P,LD24,2,GND*%
%TO.N,GND*%
X318337500Y119306250D03*
%TO.P,LD24,3,DIN*%
%TO.N,Net-(LD24-Pad3)*%
X319837500Y119306250D03*
%TO.P,LD24,4,VDD*%
%TO.N,+3V3*%
X319837500Y120406250D03*
%TD*%
%TO.P,LD86,1,DOUT*%
%TO.N,Net-(LD86-Pad1)*%
X257925000Y52631250D03*
%TO.P,LD86,2,GND*%
%TO.N,GND*%
X257925000Y53731250D03*
%TO.P,LD86,3,DIN*%
%TO.N,Net-(LD85-Pad1)*%
X256425000Y53731250D03*
%TO.P,LD86,4,VDD*%
%TO.N,+3V3*%
X256425000Y52631250D03*
%TD*%
D14*
%TO.P,K28,1*%
%TO.N,21*%
X6985000Y80645000D03*
%TO.P,K28,2*%
%TO.N,Net-(D28-Pad2)*%
X13335000Y83185000D03*
%TD*%
%TO.P,K96,1*%
%TO.N,20*%
X92710000Y23495000D03*
%TO.P,K96,2*%
%TO.N,Net-(D96-Pad2)*%
X99060000Y26035000D03*
%TD*%
D11*
%TO.P,LD53,1,DOUT*%
%TO.N,Net-(LD52-Pad3)*%
X56400000Y72781250D03*
%TO.P,LD53,2,GND*%
%TO.N,GND*%
X56400000Y71681250D03*
%TO.P,LD53,3,DIN*%
%TO.N,Net-(LD53-Pad3)*%
X57900000Y71681250D03*
%TO.P,LD53,4,VDD*%
%TO.N,+3V3*%
X57900000Y72781250D03*
%TD*%
D10*
%TO.P,LC9,1*%
%TO.N,GND*%
X233847500Y141287500D03*
%TO.P,LC9,2*%
%TO.N,+3V3*%
X232877500Y141287500D03*
%TD*%
D14*
%TO.P,K118,1*%
%TO.N,16*%
X266541250Y4445000D03*
%TO.P,K118,2*%
%TO.N,Net-(D118-Pad2)*%
X272891250Y6985000D03*
%TD*%
D15*
%TO.P,LC24,1*%
%TO.N,GND*%
X318602500Y122237500D03*
%TO.P,LC24,2*%
%TO.N,+3V3*%
X319572500Y122237500D03*
%TD*%
D14*
%TO.P,K87,1*%
%TO.N,15*%
X273685000Y42545000D03*
%TO.P,K87,2*%
%TO.N,Net-(D87-Pad2)*%
X280035000Y45085000D03*
%TD*%
D10*
%TO.P,LC78,1*%
%TO.N,GND*%
X105260000Y55562500D03*
%TO.P,LC78,2*%
%TO.N,+3V3*%
X104290000Y55562500D03*
%TD*%
D15*
%TO.P,LC64,1*%
%TO.N,GND*%
X270977500Y74612500D03*
%TO.P,LC64,2*%
%TO.N,+3V3*%
X271947500Y74612500D03*
%TD*%
D11*
%TO.P,LD113,1,DOUT*%
%TO.N,Net-(LD113-Pad1)*%
X55518750Y14531250D03*
%TO.P,LD113,2,GND*%
%TO.N,GND*%
X55518750Y15631250D03*
%TO.P,LD113,3,DIN*%
%TO.N,Net-(LD112-Pad1)*%
X54018750Y15631250D03*
%TO.P,LD113,4,VDD*%
%TO.N,+3V3*%
X54018750Y14531250D03*
%TD*%
%TO.P,LD4,1,DOUT*%
%TO.N,Net-(LD4-Pad1)*%
X129337500Y138356250D03*
%TO.P,LD4,2,GND*%
%TO.N,GND*%
X129337500Y139456250D03*
%TO.P,LD4,3,DIN*%
%TO.N,Net-(LD3-Pad1)*%
X127837500Y139456250D03*
%TO.P,LD4,4,VDD*%
%TO.N,+3V3*%
X127837500Y138356250D03*
%TD*%
D15*
%TO.P,LC95,1*%
%TO.N,GND*%
X63808750Y36512500D03*
%TO.P,LC95,2*%
%TO.N,+3V3*%
X64778750Y36512500D03*
%TD*%
D11*
%TO.P,LD73,1,DOUT*%
%TO.N,Net-(LD72-Pad3)*%
X461212500Y72781250D03*
%TO.P,LD73,2,GND*%
%TO.N,GND*%
X461212500Y71681250D03*
%TO.P,LD73,3,DIN*%
%TO.N,Net-(LD50-Pad1)*%
X462712500Y71681250D03*
%TO.P,LD73,4,VDD*%
%TO.N,+3V3*%
X462712500Y72781250D03*
%TD*%
D15*
%TO.P,LC13,1*%
%TO.N,GND*%
X90002500Y122237500D03*
%TO.P,LC13,2*%
%TO.N,+3V3*%
X90972500Y122237500D03*
%TD*%
D10*
%TO.P,LC120,1*%
%TO.N,GND*%
X317191250Y17462500D03*
%TO.P,LC120,2*%
%TO.N,+3V3*%
X316221250Y17462500D03*
%TD*%
D11*
%TO.P,LD116,1,DOUT*%
%TO.N,Net-(LD116-Pad1)*%
X174581250Y14531250D03*
%TO.P,LD116,2,GND*%
%TO.N,GND*%
X174581250Y15631250D03*
%TO.P,LD116,3,DIN*%
%TO.N,Net-(LD115-Pad1)*%
X173081250Y15631250D03*
%TO.P,LD116,4,VDD*%
%TO.N,+3V3*%
X173081250Y14531250D03*
%TD*%
D14*
%TO.P,K116,1*%
%TO.N,18*%
X171291250Y4445000D03*
%TO.P,K116,2*%
%TO.N,Net-(D116-Pad2)*%
X177641250Y6985000D03*
%TD*%
D15*
%TO.P,LC54,1*%
%TO.N,GND*%
X80477500Y74612500D03*
%TO.P,LC54,2*%
%TO.N,+3V3*%
X81447500Y74612500D03*
%TD*%
%TO.P,LC108,1*%
%TO.N,GND*%
X404327500Y36512500D03*
%TO.P,LC108,2*%
%TO.N,+3V3*%
X405297500Y36512500D03*
%TD*%
D14*
%TO.P,K114,1*%
%TO.N,20*%
X76041250Y4445000D03*
%TO.P,K114,2*%
%TO.N,Net-(D114-Pad2)*%
X82391250Y6985000D03*
%TD*%
%TO.P,K6,1*%
%TO.N,17*%
X173672500Y128270000D03*
%TO.P,K6,2*%
%TO.N,Net-(D6-Pad2)*%
X180022500Y130810000D03*
%TD*%
%TO.P,K91,1*%
%TO.N,11*%
X440372500Y42545000D03*
%TO.P,K91,2*%
%TO.N,Net-(D91-Pad2)*%
X446722500Y45085000D03*
%TD*%
%TO.P,K56,1*%
%TO.N,19*%
X116522500Y61595000D03*
%TO.P,K56,2*%
%TO.N,Net-(D56-Pad2)*%
X122872500Y64135000D03*
%TD*%
%TO.P,K15,1*%
%TO.N,18*%
X126047500Y109220000D03*
%TO.P,K15,2*%
%TO.N,Net-(D15-Pad2)*%
X132397500Y111760000D03*
%TD*%
D11*
%TO.P,LD67,1,DOUT*%
%TO.N,Net-(LD66-Pad3)*%
X342150000Y72781250D03*
%TO.P,LD67,2,GND*%
%TO.N,GND*%
X342150000Y71681250D03*
%TO.P,LD67,3,DIN*%
%TO.N,Net-(LD67-Pad3)*%
X343650000Y71681250D03*
%TO.P,LD67,4,VDD*%
%TO.N,+3V3*%
X343650000Y72781250D03*
%TD*%
D10*
%TO.P,LC79,1*%
%TO.N,GND*%
X124310000Y55562500D03*
%TO.P,LC79,2*%
%TO.N,+3V3*%
X123340000Y55562500D03*
%TD*%
D14*
%TO.P,K62,1*%
%TO.N,16*%
X230822500Y61595000D03*
%TO.P,K62,2*%
%TO.N,Net-(D62-Pad2)*%
X237172500Y64135000D03*
%TD*%
%TO.P,K22,1*%
%TO.N,15*%
X278447500Y109220000D03*
%TO.P,K22,2*%
%TO.N,Net-(D22-Pad2)*%
X284797500Y111760000D03*
%TD*%
D10*
%TO.P,LC2,1*%
%TO.N,GND*%
X90972500Y141287500D03*
%TO.P,LC2,2*%
%TO.N,+3V3*%
X90002500Y141287500D03*
%TD*%
D14*
%TO.P,K107,1*%
%TO.N,13*%
X359410000Y23495000D03*
%TO.P,K107,2*%
%TO.N,Net-(D107-Pad2)*%
X365760000Y26035000D03*
%TD*%
D10*
%TO.P,LC10,1*%
%TO.N,GND*%
X343385000Y141287500D03*
%TO.P,LC10,2*%
%TO.N,+3V3*%
X342415000Y141287500D03*
%TD*%
%TO.P,LC33,1*%
%TO.N,GND*%
X110022500Y93662500D03*
%TO.P,LC33,2*%
%TO.N,+3V3*%
X109052500Y93662500D03*
%TD*%
D15*
%TO.P,LC109,1*%
%TO.N,GND*%
X423377500Y36512500D03*
%TO.P,LC109,2*%
%TO.N,+3V3*%
X424347500Y36512500D03*
%TD*%
D11*
%TO.P,LD26,1,DOUT*%
%TO.N,Net-(LD25-Pad3)*%
X361200000Y120406250D03*
%TO.P,LD26,2,GND*%
%TO.N,GND*%
X361200000Y119306250D03*
%TO.P,LD26,3,DIN*%
%TO.N,Net-(LD26-Pad3)*%
X362700000Y119306250D03*
%TO.P,LD26,4,VDD*%
%TO.N,+3V3*%
X362700000Y120406250D03*
%TD*%
D14*
%TO.P,K98,1*%
%TO.N,19*%
X130810000Y23495000D03*
%TO.P,K98,2*%
%TO.N,Net-(D98-Pad2)*%
X137160000Y26035000D03*
%TD*%
%TO.P,K66,1*%
%TO.N,14*%
X311785000Y61595000D03*
%TO.P,K66,2*%
%TO.N,Net-(D66-Pad2)*%
X318135000Y64135000D03*
%TD*%
%TO.P,K47,1*%
%TO.N,12*%
X402272500Y80645000D03*
%TO.P,K47,2*%
%TO.N,Net-(D47-Pad2)*%
X408622500Y83185000D03*
%TD*%
%TO.P,K102,1*%
%TO.N,17*%
X207010000Y23495000D03*
%TO.P,K102,2*%
%TO.N,Net-(D102-Pad2)*%
X213360000Y26035000D03*
%TD*%
D11*
%TO.P,LD52,1,DOUT*%
%TO.N,Net-(LD51-Pad3)*%
X27825000Y72781250D03*
%TO.P,LD52,2,GND*%
%TO.N,GND*%
X27825000Y71681250D03*
%TO.P,LD52,3,DIN*%
%TO.N,Net-(LD52-Pad3)*%
X29325000Y71681250D03*
%TO.P,LD52,4,VDD*%
%TO.N,+3V3*%
X29325000Y72781250D03*
%TD*%
%TO.P,LD99,1,DOUT*%
%TO.N,Net-(LD98-Pad3)*%
X151650000Y34681250D03*
%TO.P,LD99,2,GND*%
%TO.N,GND*%
X151650000Y33581250D03*
%TO.P,LD99,3,DIN*%
%TO.N,Net-(LD100-Pad1)*%
X153150000Y33581250D03*
%TO.P,LD99,4,VDD*%
%TO.N,+3V3*%
X153150000Y34681250D03*
%TD*%
D15*
%TO.P,LC93,1*%
%TO.N,GND*%
X9040000Y36512500D03*
%TO.P,LC93,2*%
%TO.N,+3V3*%
X10010000Y36512500D03*
%TD*%
D11*
%TO.P,LD98,1,DOUT*%
%TO.N,Net-(LD97-Pad3)*%
X132600000Y34681250D03*
%TO.P,LD98,2,GND*%
%TO.N,GND*%
X132600000Y33581250D03*
%TO.P,LD98,3,DIN*%
%TO.N,Net-(LD98-Pad3)*%
X134100000Y33581250D03*
%TO.P,LD98,4,VDD*%
%TO.N,+3V3*%
X134100000Y34681250D03*
%TD*%
D10*
%TO.P,LC34,1*%
%TO.N,GND*%
X129072500Y93662500D03*
%TO.P,LC34,2*%
%TO.N,+3V3*%
X128102500Y93662500D03*
%TD*%
D11*
%TO.P,LD96,1,DOUT*%
%TO.N,Net-(LD95-Pad3)*%
X94500000Y34681250D03*
%TO.P,LD96,2,GND*%
%TO.N,GND*%
X94500000Y33581250D03*
%TO.P,LD96,3,DIN*%
%TO.N,Net-(LD96-Pad3)*%
X96000000Y33581250D03*
%TO.P,LD96,4,VDD*%
%TO.N,+3V3*%
X96000000Y34681250D03*
%TD*%
D14*
%TO.P,K12,1*%
%TO.N,12*%
X378460000Y128270000D03*
%TO.P,K12,2*%
%TO.N,Net-(D12-Pad2)*%
X384810000Y130810000D03*
%TD*%
D10*
%TO.P,LC11,1*%
%TO.N,GND*%
X362435000Y141287500D03*
%TO.P,LC11,2*%
%TO.N,+3V3*%
X361465000Y141287500D03*
%TD*%
D11*
%TO.P,LD69,1,DOUT*%
%TO.N,Net-(LD68-Pad3)*%
X380250000Y72781250D03*
%TO.P,LD69,2,GND*%
%TO.N,GND*%
X380250000Y71681250D03*
%TO.P,LD69,3,DIN*%
%TO.N,Net-(LD69-Pad3)*%
X381750000Y71681250D03*
%TO.P,LD69,4,VDD*%
%TO.N,+3V3*%
X381750000Y72781250D03*
%TD*%
%TO.P,LD6,1,DOUT*%
%TO.N,Net-(LD6-Pad1)*%
X176962500Y138356250D03*
%TO.P,LD6,2,GND*%
%TO.N,GND*%
X176962500Y139456250D03*
%TO.P,LD6,3,DIN*%
%TO.N,Net-(LD5-Pad1)*%
X175462500Y139456250D03*
%TO.P,LD6,4,VDD*%
%TO.N,+3V3*%
X175462500Y138356250D03*
%TD*%
%TO.P,LD70,1,DOUT*%
%TO.N,Net-(LD69-Pad3)*%
X404062500Y72781250D03*
%TO.P,LD70,2,GND*%
%TO.N,GND*%
X404062500Y71681250D03*
%TO.P,LD70,3,DIN*%
%TO.N,Net-(LD70-Pad3)*%
X405562500Y71681250D03*
%TO.P,LD70,4,VDD*%
%TO.N,+3V3*%
X405562500Y72781250D03*
%TD*%
D14*
%TO.P,K99,1*%
%TO.N,18*%
X149860000Y23495000D03*
%TO.P,K99,2*%
%TO.N,Net-(D99-Pad2)*%
X156210000Y26035000D03*
%TD*%
D12*
%TO.P,KT3,1*%
%TO.N,14*%
X305529500Y133350000D03*
D13*
%TO.P,KT3,2*%
%TO.N,Net-(DT3-Pad2)*%
X305529500Y130810000D03*
%TD*%
D10*
%TO.P,LC76,1*%
%TO.N,GND*%
X60016250Y55562500D03*
%TO.P,LC76,2*%
%TO.N,+3V3*%
X59046250Y55562500D03*
%TD*%
D15*
%TO.P,LC16,1*%
%TO.N,GND*%
X147152500Y122237500D03*
%TO.P,LC16,2*%
%TO.N,+3V3*%
X148122500Y122237500D03*
%TD*%
D14*
%TO.P,K117,1*%
%TO.N,16*%
X242728750Y4445000D03*
%TO.P,K117,2*%
%TO.N,Net-(D117-Pad2)*%
X249078750Y6985000D03*
%TD*%
D10*
%TO.P,LC125,1*%
%TO.N,GND*%
X424347500Y17462500D03*
%TO.P,LC125,2*%
%TO.N,+3V3*%
X423377500Y17462500D03*
%TD*%
D14*
%TO.P,K60,1*%
%TO.N,17*%
X192722500Y61595000D03*
%TO.P,K60,2*%
%TO.N,Net-(D60-Pad2)*%
X199072500Y64135000D03*
%TD*%
D11*
%TO.P,LD103,1,DOUT*%
%TO.N,Net-(LD102-Pad3)*%
X227850000Y34681250D03*
%TO.P,LD103,2,GND*%
%TO.N,GND*%
X227850000Y33581250D03*
%TO.P,LD103,3,DIN*%
%TO.N,Net-(LD103-Pad3)*%
X229350000Y33581250D03*
%TO.P,LD103,4,VDD*%
%TO.N,+3V3*%
X229350000Y34681250D03*
%TD*%
D10*
%TO.P,LC122,1*%
%TO.N,GND*%
X362435000Y17462500D03*
%TO.P,LC122,2*%
%TO.N,+3V3*%
X361465000Y17462500D03*
%TD*%
D11*
%TO.P,LD106,1,DOUT*%
%TO.N,Net-(LD105-Pad3)*%
X301668750Y34681250D03*
%TO.P,LD106,2,GND*%
%TO.N,GND*%
X301668750Y33581250D03*
%TO.P,LD106,3,DIN*%
%TO.N,Net-(LD106-Pad3)*%
X303168750Y33581250D03*
%TO.P,LD106,4,VDD*%
%TO.N,+3V3*%
X303168750Y34681250D03*
%TD*%
D14*
%TO.P,K33,1*%
%TO.N,19*%
X106997500Y80645000D03*
%TO.P,K33,2*%
%TO.N,Net-(D33-Pad2)*%
X113347500Y83185000D03*
%TD*%
D10*
%TO.P,LC80,1*%
%TO.N,GND*%
X143360000Y55562500D03*
%TO.P,LC80,2*%
%TO.N,+3V3*%
X142390000Y55562500D03*
%TD*%
D15*
%TO.P,LC65,1*%
%TO.N,GND*%
X290027500Y74612500D03*
%TO.P,LC65,2*%
%TO.N,+3V3*%
X290997500Y74612500D03*
%TD*%
D14*
%TO.P,K36,1*%
%TO.N,17*%
X164147500Y80645000D03*
%TO.P,K36,2*%
%TO.N,Net-(D36-Pad2)*%
X170497500Y83185000D03*
%TD*%
D11*
%TO.P,LD31,1,DOUT*%
%TO.N,Net-(LD31-Pad1)*%
X72187500Y90731250D03*
%TO.P,LD31,2,GND*%
%TO.N,GND*%
X72187500Y91831250D03*
%TO.P,LD31,3,DIN*%
%TO.N,Net-(LD30-Pad1)*%
X70687500Y91831250D03*
%TO.P,LD31,4,VDD*%
%TO.N,+3V3*%
X70687500Y90731250D03*
%TD*%
D14*
%TO.P,K97,1*%
%TO.N,19*%
X111760000Y23495000D03*
%TO.P,K97,2*%
%TO.N,Net-(D97-Pad2)*%
X118110000Y26035000D03*
%TD*%
D10*
%TO.P,LC126,1*%
%TO.N,GND*%
X443397500Y17462500D03*
%TO.P,LC126,2*%
%TO.N,+3V3*%
X442427500Y17462500D03*
%TD*%
D14*
%TO.P,K34,1*%
%TO.N,18*%
X126047500Y80645000D03*
%TO.P,K34,2*%
%TO.N,Net-(D34-Pad2)*%
X132397500Y83185000D03*
%TD*%
%TO.P,K53,1*%
%TO.N,20*%
X54610000Y61595000D03*
%TO.P,K53,2*%
%TO.N,Net-(D53-Pad2)*%
X60960000Y64135000D03*
%TD*%
%TO.P,K124,1*%
%TO.N,12*%
X402272500Y4445000D03*
%TO.P,K124,2*%
%TO.N,Net-(D124-Pad2)*%
X408622500Y6985000D03*
%TD*%
D11*
%TO.P,LD55,1,DOUT*%
%TO.N,Net-(LD54-Pad3)*%
X99262500Y72781250D03*
%TO.P,LD55,2,GND*%
%TO.N,GND*%
X99262500Y71681250D03*
%TO.P,LD55,3,DIN*%
%TO.N,Net-(LD55-Pad3)*%
X100762500Y71681250D03*
%TO.P,LD55,4,VDD*%
%TO.N,+3V3*%
X100762500Y72781250D03*
%TD*%
%TO.P,LD49,1,DOUT*%
%TO.N,Net-(LD49-Pad1)*%
X443662500Y90731250D03*
%TO.P,LD49,2,GND*%
%TO.N,GND*%
X443662500Y91831250D03*
%TO.P,LD49,3,DIN*%
%TO.N,Net-(LD48-Pad1)*%
X442162500Y91831250D03*
%TO.P,LD49,4,VDD*%
%TO.N,+3V3*%
X442162500Y90731250D03*
%TD*%
%TO.P,LD84,1,DOUT*%
%TO.N,Net-(LD84-Pad1)*%
X219825000Y52631250D03*
%TO.P,LD84,2,GND*%
%TO.N,GND*%
X219825000Y53731250D03*
%TO.P,LD84,3,DIN*%
%TO.N,Net-(LD83-Pad1)*%
X218325000Y53731250D03*
%TO.P,LD84,4,VDD*%
%TO.N,+3V3*%
X218325000Y52631250D03*
%TD*%
%TO.P,LD28,1,DOUT*%
%TO.N,Net-(LD28-Pad1)*%
X10275000Y90731250D03*
%TO.P,LD28,2,GND*%
%TO.N,GND*%
X10275000Y91831250D03*
%TO.P,LD28,3,DIN*%
%TO.N,Net-(LD13-Pad1)*%
X8775000Y91831250D03*
%TO.P,LD28,4,VDD*%
%TO.N,+3V3*%
X8775000Y90731250D03*
%TD*%
D14*
%TO.P,K19,1*%
%TO.N,16*%
X211772500Y109220000D03*
%TO.P,K19,2*%
%TO.N,Net-(D19-Pad2)*%
X218122500Y111760000D03*
%TD*%
D15*
%TO.P,LC67,1*%
%TO.N,GND*%
X342415000Y74612500D03*
%TO.P,LC67,2*%
%TO.N,+3V3*%
X343385000Y74612500D03*
%TD*%
D14*
%TO.P,K119,1*%
%TO.N,15*%
X290353750Y4445000D03*
%TO.P,K119,2*%
%TO.N,Net-(D119-Pad2)*%
X296703750Y6985000D03*
%TD*%
%TO.P,K86,1*%
%TO.N,15*%
X254635000Y42545000D03*
%TO.P,K86,2*%
%TO.N,Net-(D86-Pad2)*%
X260985000Y45085000D03*
%TD*%
D15*
%TO.P,LC68,1*%
%TO.N,GND*%
X361465000Y74612500D03*
%TO.P,LC68,2*%
%TO.N,+3V3*%
X362435000Y74612500D03*
%TD*%
D11*
%TO.P,LD114,1,DOUT*%
%TO.N,Net-(LD114-Pad1)*%
X79331250Y14531250D03*
%TO.P,LD114,2,GND*%
%TO.N,GND*%
X79331250Y15631250D03*
%TO.P,LD114,3,DIN*%
%TO.N,Net-(LD113-Pad1)*%
X77831250Y15631250D03*
%TO.P,LD114,4,VDD*%
%TO.N,+3V3*%
X77831250Y14531250D03*
%TD*%
D14*
%TO.P,K18,1*%
%TO.N,17*%
X192722500Y109220000D03*
%TO.P,K18,2*%
%TO.N,Net-(D18-Pad2)*%
X199072500Y111760000D03*
%TD*%
D11*
%TO.P,LD7,1,DOUT*%
%TO.N,Net-(LD7-Pad1)*%
X196012500Y138356250D03*
%TO.P,LD7,2,GND*%
%TO.N,GND*%
X196012500Y139456250D03*
%TO.P,LD7,3,DIN*%
%TO.N,Net-(LD6-Pad1)*%
X194512500Y139456250D03*
%TO.P,LD7,4,VDD*%
%TO.N,+3V3*%
X194512500Y138356250D03*
%TD*%
%TO.P,LD78,1,DOUT*%
%TO.N,Net-(LD78-Pad1)*%
X105525000Y52631250D03*
%TO.P,LD78,2,GND*%
%TO.N,GND*%
X105525000Y53731250D03*
%TO.P,LD78,3,DIN*%
%TO.N,Net-(LD77-Pad1)*%
X104025000Y53731250D03*
%TO.P,LD78,4,VDD*%
%TO.N,+3V3*%
X104025000Y52631250D03*
%TD*%
%TO.P,LD119,1,DOUT*%
%TO.N,Net-(LD119-Pad1)*%
X293643750Y14531250D03*
%TO.P,LD119,2,GND*%
%TO.N,GND*%
X293643750Y15631250D03*
%TO.P,LD119,3,DIN*%
%TO.N,Net-(LD118-Pad1)*%
X292143750Y15631250D03*
%TO.P,LD119,4,VDD*%
%TO.N,+3V3*%
X292143750Y14531250D03*
%TD*%
%TO.P,LD74,1,DOUT*%
%TO.N,Net-(LD74-Pad1)*%
X10275000Y52631250D03*
%TO.P,LD74,2,GND*%
%TO.N,GND*%
X10275000Y53731250D03*
%TO.P,LD74,3,DIN*%
%TO.N,Net-(LD51-Pad1)*%
X8775000Y53731250D03*
%TO.P,LD74,4,VDD*%
%TO.N,+3V3*%
X8775000Y52631250D03*
%TD*%
%TO.P,LD90,1,DOUT*%
%TO.N,Net-(LD90-Pad1)*%
X424612500Y52631250D03*
%TO.P,LD90,2,GND*%
%TO.N,GND*%
X424612500Y53731250D03*
%TO.P,LD90,3,DIN*%
%TO.N,Net-(LD89-Pad1)*%
X423112500Y53731250D03*
%TO.P,LD90,4,VDD*%
%TO.N,+3V3*%
X423112500Y52631250D03*
%TD*%
%TO.P,LD12,1,DOUT*%
%TO.N,Net-(LD12-Pad1)*%
X381750000Y138356250D03*
%TO.P,LD12,2,GND*%
%TO.N,GND*%
X381750000Y139456250D03*
%TO.P,LD12,3,DIN*%
%TO.N,Net-(LD11-Pad1)*%
X380250000Y139456250D03*
%TO.P,LD12,4,VDD*%
%TO.N,+3V3*%
X380250000Y138356250D03*
%TD*%
D10*
%TO.P,LC121,1*%
%TO.N,GND*%
X343385000Y17462500D03*
%TO.P,LC121,2*%
%TO.N,+3V3*%
X342415000Y17462500D03*
%TD*%
D11*
%TO.P,LD107,1,DOUT*%
%TO.N,Net-(LD106-Pad3)*%
X361200000Y34681250D03*
%TO.P,LD107,2,GND*%
%TO.N,GND*%
X361200000Y33581250D03*
%TO.P,LD107,3,DIN*%
%TO.N,Net-(LD107-Pad3)*%
X362700000Y33581250D03*
%TO.P,LD107,4,VDD*%
%TO.N,+3V3*%
X362700000Y34681250D03*
%TD*%
D10*
%TO.P,LC1,1*%
%TO.N,GND*%
X10010000Y141287500D03*
%TO.P,LC1,2*%
%TO.N,+3V3*%
X9040000Y141287500D03*
%TD*%
%TO.P,LC30,1*%
%TO.N,GND*%
X52872500Y93662500D03*
%TO.P,LC30,2*%
%TO.N,+3V3*%
X51902500Y93662500D03*
%TD*%
D11*
%TO.P,LD56,1,DOUT*%
%TO.N,Net-(LD55-Pad3)*%
X118312500Y72781250D03*
%TO.P,LD56,2,GND*%
%TO.N,GND*%
X118312500Y71681250D03*
%TO.P,LD56,3,DIN*%
%TO.N,Net-(LD56-Pad3)*%
X119812500Y71681250D03*
%TO.P,LD56,4,VDD*%
%TO.N,+3V3*%
X119812500Y72781250D03*
%TD*%
%TO.P,LD40,1,DOUT*%
%TO.N,Net-(LD40-Pad1)*%
X243637500Y90731250D03*
%TO.P,LD40,2,GND*%
%TO.N,GND*%
X243637500Y91831250D03*
%TO.P,LD40,3,DIN*%
%TO.N,Net-(LD39-Pad1)*%
X242137500Y91831250D03*
%TO.P,LD40,4,VDD*%
%TO.N,+3V3*%
X242137500Y90731250D03*
%TD*%
%TO.P,LD18,1,DOUT*%
%TO.N,Net-(LD17-Pad3)*%
X194512500Y120406250D03*
%TO.P,LD18,2,GND*%
%TO.N,GND*%
X194512500Y119306250D03*
%TO.P,LD18,3,DIN*%
%TO.N,Net-(LD18-Pad3)*%
X196012500Y119306250D03*
%TO.P,LD18,4,VDD*%
%TO.N,+3V3*%
X196012500Y120406250D03*
%TD*%
D15*
%TO.P,LC25,1*%
%TO.N,GND*%
X342415000Y122237500D03*
%TO.P,LC25,2*%
%TO.N,+3V3*%
X343385000Y122237500D03*
%TD*%
%TO.P,LC17,1*%
%TO.N,GND*%
X175727500Y122237500D03*
%TO.P,LC17,2*%
%TO.N,+3V3*%
X176697500Y122237500D03*
%TD*%
D14*
%TO.P,K108,1*%
%TO.N,12*%
X402272500Y23495000D03*
%TO.P,K108,2*%
%TO.N,Net-(D108-Pad2)*%
X408622500Y26035000D03*
%TD*%
%TO.P,K115,1*%
%TO.N,19*%
X99853750Y4445000D03*
%TO.P,K115,2*%
%TO.N,Net-(D115-Pad2)*%
X106203750Y6985000D03*
%TD*%
D11*
%TO.P,LD33,1,DOUT*%
%TO.N,Net-(LD33-Pad1)*%
X110287500Y90731250D03*
%TO.P,LD33,2,GND*%
%TO.N,GND*%
X110287500Y91831250D03*
%TO.P,LD33,3,DIN*%
%TO.N,Net-(LD32-Pad1)*%
X108787500Y91831250D03*
%TO.P,LD33,4,VDD*%
%TO.N,+3V3*%
X108787500Y90731250D03*
%TD*%
D14*
%TO.P,K5,1*%
%TO.N,18*%
X145097500Y128270000D03*
%TO.P,K5,2*%
%TO.N,Net-(D5-Pad2)*%
X151447500Y130810000D03*
%TD*%
D15*
%TO.P,LC22,1*%
%TO.N,GND*%
X280502500Y122237500D03*
%TO.P,LC22,2*%
%TO.N,+3V3*%
X281472500Y122237500D03*
%TD*%
D10*
%TO.P,LC111,1*%
%TO.N,GND*%
X10010000Y17462500D03*
%TO.P,LC111,2*%
%TO.N,+3V3*%
X9040000Y17462500D03*
%TD*%
D14*
%TO.P,K127,1*%
%TO.N,10*%
X467042500Y16510000D03*
%TO.P,K127,2*%
%TO.N,Net-(D127-Pad2)*%
X464502500Y22860000D03*
%TD*%
D10*
%TO.P,LC85,1*%
%TO.N,GND*%
X238610000Y55562500D03*
%TO.P,LC85,2*%
%TO.N,+3V3*%
X237640000Y55562500D03*
%TD*%
D14*
%TO.P,K63,1*%
%TO.N,15*%
X249872500Y61595000D03*
%TO.P,K63,2*%
%TO.N,Net-(D63-Pad2)*%
X256222500Y64135000D03*
%TD*%
%TO.P,K41,1*%
%TO.N,15*%
X259397500Y80645000D03*
%TO.P,K41,2*%
%TO.N,Net-(D41-Pad2)*%
X265747500Y83185000D03*
%TD*%
%TO.P,K31,1*%
%TO.N,20*%
X68897500Y80645000D03*
%TO.P,K31,2*%
%TO.N,Net-(D31-Pad2)*%
X75247500Y83185000D03*
%TD*%
D11*
%TO.P,LD87,1,DOUT*%
%TO.N,Net-(LD87-Pad1)*%
X276975000Y52631250D03*
%TO.P,LD87,2,GND*%
%TO.N,GND*%
X276975000Y53731250D03*
%TO.P,LD87,3,DIN*%
%TO.N,Net-(LD86-Pad1)*%
X275475000Y53731250D03*
%TO.P,LD87,4,VDD*%
%TO.N,+3V3*%
X275475000Y52631250D03*
%TD*%
%TO.P,LD123,1,DOUT*%
%TO.N,Net-(LD123-Pad1)*%
X381750000Y14531250D03*
%TO.P,LD123,2,GND*%
%TO.N,GND*%
X381750000Y15631250D03*
%TO.P,LD123,3,DIN*%
%TO.N,Net-(LD122-Pad1)*%
X380250000Y15631250D03*
%TO.P,LD123,4,VDD*%
%TO.N,+3V3*%
X380250000Y14531250D03*
%TD*%
D10*
%TO.P,LC74,1*%
%TO.N,GND*%
X10010000Y55562500D03*
%TO.P,LC74,2*%
%TO.N,+3V3*%
X9040000Y55562500D03*
%TD*%
D11*
%TO.P,LD81,1,DOUT*%
%TO.N,Net-(LD81-Pad1)*%
X162675000Y52631250D03*
%TO.P,LD81,2,GND*%
%TO.N,GND*%
X162675000Y53731250D03*
%TO.P,LD81,3,DIN*%
%TO.N,Net-(LD80-Pad1)*%
X161175000Y53731250D03*
%TO.P,LD81,4,VDD*%
%TO.N,+3V3*%
X161175000Y52631250D03*
%TD*%
D15*
%TO.P,LC96,1*%
%TO.N,GND*%
X94765000Y36512500D03*
%TO.P,LC96,2*%
%TO.N,+3V3*%
X95735000Y36512500D03*
%TD*%
D11*
%TO.P,LD19,1,DOUT*%
%TO.N,Net-(LD18-Pad3)*%
X213562500Y120406250D03*
%TO.P,LD19,2,GND*%
%TO.N,GND*%
X213562500Y119306250D03*
%TO.P,LD19,3,DIN*%
%TO.N,Net-(LD19-Pad3)*%
X215062500Y119306250D03*
%TO.P,LD19,4,VDD*%
%TO.N,+3V3*%
X215062500Y120406250D03*
%TD*%
D14*
%TO.P,K75,1*%
%TO.N,21*%
X26035000Y42545000D03*
%TO.P,K75,2*%
%TO.N,Net-(D75-Pad2)*%
X32385000Y45085000D03*
%TD*%
D10*
%TO.P,LC36,1*%
%TO.N,GND*%
X167172500Y93662500D03*
%TO.P,LC36,2*%
%TO.N,+3V3*%
X166202500Y93662500D03*
%TD*%
%TO.P,LC115,1*%
%TO.N,GND*%
X102878750Y17462500D03*
%TO.P,LC115,2*%
%TO.N,+3V3*%
X101908750Y17462500D03*
%TD*%
D11*
%TO.P,LD20,1,DOUT*%
%TO.N,Net-(LD19-Pad3)*%
X232612500Y120406250D03*
%TO.P,LD20,2,GND*%
%TO.N,GND*%
X232612500Y119306250D03*
%TO.P,LD20,3,DIN*%
%TO.N,Net-(LD20-Pad3)*%
X234112500Y119306250D03*
%TO.P,LD20,4,VDD*%
%TO.N,+3V3*%
X234112500Y120406250D03*
%TD*%
D15*
%TO.P,LC19,1*%
%TO.N,GND*%
X213827500Y122237500D03*
%TO.P,LC19,2*%
%TO.N,+3V3*%
X214797500Y122237500D03*
%TD*%
%TO.P,LC103,1*%
%TO.N,GND*%
X228115000Y36512500D03*
%TO.P,LC103,2*%
%TO.N,+3V3*%
X229085000Y36512500D03*
%TD*%
%TO.P,LC98,1*%
%TO.N,GND*%
X132865000Y36512500D03*
%TO.P,LC98,2*%
%TO.N,+3V3*%
X133835000Y36512500D03*
%TD*%
D14*
%TO.P,K4,1*%
%TO.N,18*%
X126047500Y128270000D03*
%TO.P,K4,2*%
%TO.N,Net-(D4-Pad2)*%
X132397500Y130810000D03*
%TD*%
D15*
%TO.P,LC52,1*%
%TO.N,GND*%
X28090000Y74612500D03*
%TO.P,LC52,2*%
%TO.N,+3V3*%
X29060000Y74612500D03*
%TD*%
D11*
%TO.P,LD76,1,DOUT*%
%TO.N,Net-(LD76-Pad1)*%
X60281250Y52631250D03*
%TO.P,LD76,2,GND*%
%TO.N,GND*%
X60281250Y53731250D03*
%TO.P,LD76,3,DIN*%
%TO.N,Net-(LD75-Pad1)*%
X58781250Y53731250D03*
%TO.P,LD76,4,VDD*%
%TO.N,+3V3*%
X58781250Y52631250D03*
%TD*%
D10*
%TO.P,LC124,1*%
%TO.N,GND*%
X405297500Y17462500D03*
%TO.P,LC124,2*%
%TO.N,+3V3*%
X404327500Y17462500D03*
%TD*%
D11*
%TO.P,LD59,1,DOUT*%
%TO.N,Net-(LD58-Pad3)*%
X175462500Y72781250D03*
%TO.P,LD59,2,GND*%
%TO.N,GND*%
X175462500Y71681250D03*
%TO.P,LD59,3,DIN*%
%TO.N,Net-(LD59-Pad3)*%
X176962500Y71681250D03*
%TO.P,LD59,4,VDD*%
%TO.N,+3V3*%
X176962500Y72781250D03*
%TD*%
%TO.P,LD8,1,DOUT*%
%TO.N,Net-(LD8-Pad1)*%
X215062500Y138356250D03*
%TO.P,LD8,2,GND*%
%TO.N,GND*%
X215062500Y139456250D03*
%TO.P,LD8,3,DIN*%
%TO.N,Net-(LD7-Pad1)*%
X213562500Y139456250D03*
%TO.P,LD8,4,VDD*%
%TO.N,+3V3*%
X213562500Y138356250D03*
%TD*%
D10*
%TO.P,LC40,1*%
%TO.N,GND*%
X243372500Y93662500D03*
%TO.P,LC40,2*%
%TO.N,+3V3*%
X242402500Y93662500D03*
%TD*%
D14*
%TO.P,K43,1*%
%TO.N,14*%
X307022500Y80645000D03*
%TO.P,K43,2*%
%TO.N,Net-(D43-Pad2)*%
X313372500Y83185000D03*
%TD*%
D11*
%TO.P,LD104,1,DOUT*%
%TO.N,Net-(LD103-Pad3)*%
X246900000Y34681250D03*
%TO.P,LD104,2,GND*%
%TO.N,GND*%
X246900000Y33581250D03*
%TO.P,LD104,3,DIN*%
%TO.N,Net-(LD104-Pad3)*%
X248400000Y33581250D03*
%TO.P,LD104,4,VDD*%
%TO.N,+3V3*%
X248400000Y34681250D03*
%TD*%
D14*
%TO.P,K106,1*%
%TO.N,15*%
X299878750Y23495000D03*
%TO.P,K106,2*%
%TO.N,Net-(D106-Pad2)*%
X306228750Y26035000D03*
%TD*%
D11*
%TO.P,LD105,1,DOUT*%
%TO.N,Net-(LD104-Pad3)*%
X265950000Y34681250D03*
%TO.P,LD105,2,GND*%
%TO.N,GND*%
X265950000Y33581250D03*
%TO.P,LD105,3,DIN*%
%TO.N,Net-(LD105-Pad3)*%
X267450000Y33581250D03*
%TO.P,LD105,4,VDD*%
%TO.N,+3V3*%
X267450000Y34681250D03*
%TD*%
D14*
%TO.P,K21,1*%
%TO.N,15*%
X259397500Y109220000D03*
%TO.P,K21,2*%
%TO.N,Net-(D21-Pad2)*%
X265747500Y111760000D03*
%TD*%
%TO.P,K55,1*%
%TO.N,19*%
X97472500Y61595000D03*
%TO.P,K55,2*%
%TO.N,Net-(D55-Pad2)*%
X103822500Y64135000D03*
%TD*%
D15*
%TO.P,LC101,1*%
%TO.N,GND*%
X190015000Y36512500D03*
%TO.P,LC101,2*%
%TO.N,+3V3*%
X190985000Y36512500D03*
%TD*%
%TO.P,LC51,1*%
%TO.N,GND*%
X9040000Y74612500D03*
%TO.P,LC51,2*%
%TO.N,+3V3*%
X10010000Y74612500D03*
%TD*%
%TO.P,LC26,1*%
%TO.N,GND*%
X361465000Y122237500D03*
%TO.P,LC26,2*%
%TO.N,+3V3*%
X362435000Y122237500D03*
%TD*%
D14*
%TO.P,K9,1*%
%TO.N,16*%
X230822500Y128270000D03*
%TO.P,K9,2*%
%TO.N,Net-(D9-Pad2)*%
X237172500Y130810000D03*
%TD*%
D15*
%TO.P,LC107,1*%
%TO.N,GND*%
X361465000Y36512500D03*
%TO.P,LC107,2*%
%TO.N,+3V3*%
X362435000Y36512500D03*
%TD*%
D14*
%TO.P,K40,1*%
%TO.N,15*%
X240347500Y80645000D03*
%TO.P,K40,2*%
%TO.N,Net-(D40-Pad2)*%
X246697500Y83185000D03*
%TD*%
%TO.P,K121,1*%
%TO.N,13*%
X340360000Y4445000D03*
%TO.P,K121,2*%
%TO.N,Net-(D121-Pad2)*%
X346710000Y6985000D03*
%TD*%
%TO.P,K16,1*%
%TO.N,18*%
X145097500Y109220000D03*
%TO.P,K16,2*%
%TO.N,Net-(D16-Pad2)*%
X151447500Y111760000D03*
%TD*%
D10*
%TO.P,LC92,1*%
%TO.N,GND*%
X462447500Y55562500D03*
%TO.P,LC92,2*%
%TO.N,+3V3*%
X461477500Y55562500D03*
%TD*%
D11*
%TO.P,LD110,1,DOUT*%
%TO.N,Net-(LD109-Pad3)*%
X442162500Y34681250D03*
%TO.P,LD110,2,GND*%
%TO.N,GND*%
X442162500Y33581250D03*
%TO.P,LD110,3,DIN*%
%TO.N,Net-(LD110-Pad3)*%
X443662500Y33581250D03*
%TO.P,LD110,4,VDD*%
%TO.N,+3V3*%
X443662500Y34681250D03*
%TD*%
D10*
%TO.P,LC114,1*%
%TO.N,GND*%
X79066250Y17462500D03*
%TO.P,LC114,2*%
%TO.N,+3V3*%
X78096250Y17462500D03*
%TD*%
D14*
%TO.P,K85,1*%
%TO.N,16*%
X235585000Y42545000D03*
%TO.P,K85,2*%
%TO.N,Net-(D85-Pad2)*%
X241935000Y45085000D03*
%TD*%
D11*
%TO.P,LD27,1,DOUT*%
%TO.N,Net-(LD26-Pad3)*%
X380250000Y120406250D03*
%TO.P,LD27,2,GND*%
%TO.N,GND*%
X380250000Y119306250D03*
%TO.P,LD27,3,DIN*%
%TO.N,Net-(LD12-Pad1)*%
X381750000Y119306250D03*
%TO.P,LD27,4,VDD*%
%TO.N,+3V3*%
X381750000Y120406250D03*
%TD*%
%TO.P,LD126,1,DOUT*%
%TO.N,Net-(LD126-Pad1)*%
X443662500Y14531250D03*
%TO.P,LD126,2,GND*%
%TO.N,GND*%
X443662500Y15631250D03*
%TO.P,LD126,3,DIN*%
%TO.N,Net-(LD125-Pad1)*%
X442162500Y15631250D03*
%TO.P,LD126,4,VDD*%
%TO.N,+3V3*%
X442162500Y14531250D03*
%TD*%
D13*
%TO.P,SWA1,1,A*%
%TO.N,Net-(DA1-Pad2)*%
X456470500Y135890000D03*
D12*
%TO.P,SWA1,2,B*%
%TO.N,10*%
X456470500Y133350000D03*
D13*
%TO.P,SWA1,3,C*%
%TO.N,Net-(DA2-Pad2)*%
X456470500Y130810000D03*
%TD*%
D15*
%TO.P,LC56,1*%
%TO.N,GND*%
X118577500Y74612500D03*
%TO.P,LC56,2*%
%TO.N,+3V3*%
X119547500Y74612500D03*
%TD*%
D11*
%TO.P,LD118,1,DOUT*%
%TO.N,Net-(LD118-Pad1)*%
X269831250Y14531250D03*
%TO.P,LD118,2,GND*%
%TO.N,GND*%
X269831250Y15631250D03*
%TO.P,LD118,3,DIN*%
%TO.N,Net-(LD117-Pad1)*%
X268331250Y15631250D03*
%TO.P,LD118,4,VDD*%
%TO.N,+3V3*%
X268331250Y14531250D03*
%TD*%
D10*
%TO.P,LC83,1*%
%TO.N,GND*%
X200510000Y55562500D03*
%TO.P,LC83,2*%
%TO.N,+3V3*%
X199540000Y55562500D03*
%TD*%
D14*
%TO.P,K14,1*%
%TO.N,19*%
X106997500Y109220000D03*
%TO.P,K14,2*%
%TO.N,Net-(D14-Pad2)*%
X113347500Y111760000D03*
%TD*%
%TO.P,K7,1*%
%TO.N,17*%
X192722500Y128270000D03*
%TO.P,K7,2*%
%TO.N,Net-(D7-Pad2)*%
X199072500Y130810000D03*
%TD*%
D11*
%TO.P,LD108,1,DOUT*%
%TO.N,Net-(LD107-Pad3)*%
X404062500Y34681250D03*
%TO.P,LD108,2,GND*%
%TO.N,GND*%
X404062500Y33581250D03*
%TO.P,LD108,3,DIN*%
%TO.N,Net-(LD108-Pad3)*%
X405562500Y33581250D03*
%TO.P,LD108,4,VDD*%
%TO.N,+3V3*%
X405562500Y34681250D03*
%TD*%
D15*
%TO.P,LC61,1*%
%TO.N,GND*%
X213827500Y74612500D03*
%TO.P,LC61,2*%
%TO.N,+3V3*%
X214797500Y74612500D03*
%TD*%
D14*
%TO.P,K71,1*%
%TO.N,11*%
X421322500Y61595000D03*
%TO.P,K71,2*%
%TO.N,Net-(D71-Pad2)*%
X427672500Y64135000D03*
%TD*%
D15*
%TO.P,LC72,1*%
%TO.N,GND*%
X442427500Y74612500D03*
%TO.P,LC72,2*%
%TO.N,+3V3*%
X443397500Y74612500D03*
%TD*%
%TO.P,LC94,1*%
%TO.N,GND*%
X28090000Y36512500D03*
%TO.P,LC94,2*%
%TO.N,+3V3*%
X29060000Y36512500D03*
%TD*%
D14*
%TO.P,K103,1*%
%TO.N,16*%
X226060000Y23495000D03*
%TO.P,K103,2*%
%TO.N,Net-(D103-Pad2)*%
X232410000Y26035000D03*
%TD*%
D19*
%TO.P,U0,57,GND*%
%TO.N,GND*%
X433387500Y112125000D03*
X433387500Y110125000D03*
X432387500Y111125000D03*
X434387500Y111125000D03*
%TD*%
D20*
%TO.P,J4,S1,SHIELD*%
%TO.N,GND*%
X443263750Y139956250D03*
D21*
X443263750Y135776250D03*
X434623750Y135776250D03*
D20*
X434623750Y139956250D03*
%TD*%
D22*
%TO.N,GND*%
X233372500Y121407250D03*
X437927750Y117792500D03*
X72297500Y92666250D03*
X310312500Y92793250D03*
X219935000Y54566250D03*
X124685000Y54566250D03*
X308041250Y54566250D03*
X238985000Y54566250D03*
X440086750Y114617500D03*
X95260000Y35682250D03*
X404822500Y73782250D03*
X381750000Y92729750D03*
X422433750Y136207500D03*
X342910000Y121407250D03*
X29435000Y16466250D03*
X9535000Y73782250D03*
X404822500Y35682250D03*
X195272500Y73782250D03*
X190510000Y35682250D03*
X176222500Y121407250D03*
X110397500Y140291250D03*
X432325850Y118187400D03*
X205537500Y92793250D03*
X361960000Y121407250D03*
X53247500Y92666250D03*
X269941250Y16466250D03*
X152410000Y35682250D03*
X228610000Y35682250D03*
X408137750Y114054500D03*
X86585000Y54566250D03*
X133360000Y35682250D03*
X29435000Y54566250D03*
X381860000Y16466250D03*
X147647500Y121407250D03*
X405672500Y16466250D03*
X462712500Y92666250D03*
X234222500Y140291250D03*
X247660000Y35682250D03*
X80972500Y73782250D03*
X302428750Y35682250D03*
X10385000Y92666250D03*
X243637500Y92666250D03*
X177072500Y140291250D03*
X28585000Y35682250D03*
X271472500Y73782250D03*
X342910000Y73782250D03*
X361960000Y73782250D03*
X10275000Y140354750D03*
X425735750Y110172500D03*
X138122500Y73782250D03*
X129337500Y92666250D03*
X224587500Y92793250D03*
X114310000Y35682250D03*
X214322500Y73782250D03*
X181835000Y54566250D03*
X28585000Y73782250D03*
X29435000Y92666250D03*
X381860000Y140291250D03*
X319097500Y121407250D03*
X57160000Y73782250D03*
X405562500Y92793250D03*
X423872500Y35682250D03*
X442922500Y73782250D03*
X174691250Y16466250D03*
X196122500Y140291250D03*
X405672500Y54566250D03*
X195272500Y121407250D03*
X281737500Y92793250D03*
X442922500Y35682250D03*
X290522500Y73782250D03*
X60391250Y54566250D03*
X424722500Y16466250D03*
X293753750Y16466250D03*
X266710000Y35682250D03*
X443772500Y54566250D03*
X415471750Y133690500D03*
X55628750Y16466250D03*
X314335000Y73782250D03*
X454870250Y19800000D03*
X361960000Y35682250D03*
X431247550Y103416100D03*
X128597500Y121407250D03*
X90497500Y121407250D03*
X105635000Y54566250D03*
X148497500Y140291250D03*
X129447500Y140291250D03*
X167437500Y92793250D03*
X441229750Y129349500D03*
X362810000Y140291250D03*
X343760000Y16466250D03*
X424722500Y54566250D03*
X461972500Y73782250D03*
X443772500Y16466250D03*
X148387500Y92666250D03*
X343760000Y140291250D03*
X200885000Y54566250D03*
X109547500Y121407250D03*
X408006550Y120662700D03*
X277085000Y54566250D03*
X398938750Y131254500D03*
X91237500Y140291250D03*
X162785000Y54566250D03*
X157172500Y73782250D03*
X381010000Y73782250D03*
X422306750Y131254500D03*
X435844950Y103390700D03*
X424612500Y92793250D03*
X186487500Y92793250D03*
X79441250Y16466250D03*
X362810000Y16466250D03*
X9535000Y35682250D03*
X258035000Y54566250D03*
X233372500Y73782250D03*
X261947500Y121407250D03*
X103253750Y16466250D03*
X100022500Y73782250D03*
X431247550Y100190300D03*
X209560000Y35682250D03*
X462712500Y54693250D03*
X398938750Y136461500D03*
X443662500Y92793250D03*
X435844950Y100190300D03*
X10385000Y54566250D03*
X143735000Y54566250D03*
X262687500Y92793250D03*
X10385000Y16466250D03*
X441102750Y109664500D03*
X110397500Y92666250D03*
X436784750Y130111500D03*
X171460000Y35682250D03*
X214322500Y121407250D03*
X300047500Y121407250D03*
X176222500Y73782250D03*
X381010000Y121407250D03*
X444658750Y119570500D03*
X91347500Y92666250D03*
X246128750Y16466250D03*
X215172500Y140291250D03*
X64303750Y35682250D03*
X343650000Y92729750D03*
X317566250Y16466250D03*
X119072500Y73782250D03*
X426878750Y114617500D03*
X280997500Y121407250D03*
X252422500Y73782250D03*
X362700000Y92729750D03*
X423872500Y73782250D03*
%TO.N,27{slash}A1*%
X334803750Y125158500D03*
X7905750Y138874500D03*
X335946750Y137477500D03*
X249586750Y133413500D03*
X387762750Y137096500D03*
X248564411Y137350500D03*
X385722836Y137485414D03*
%TO.N,21*%
X6985000Y107632500D03*
%TO.N,20*%
X61817250Y4445000D03*
X49942750Y107033000D03*
%TO.N,18*%
X126047500Y106140250D03*
X149891750Y4457700D03*
%TO.N,15*%
X299815250Y4445000D03*
X259397500Y104997250D03*
%TO.N,1*%
X434596250Y88206739D03*
X443566550Y107378500D03*
%TO.N,8*%
X439553350Y107861100D03*
X431831750Y13398500D03*
%TO.N,7*%
X440102250Y107378500D03*
X432196250Y31053000D03*
%TO.N,2*%
X434196250Y70355761D03*
X442966600Y107826050D03*
%TO.N,14*%
X297497500Y104633000D03*
%TO.N,12*%
X378460000Y103833000D03*
%TO.N,11*%
X416464750Y103433000D03*
%TO.N,10*%
X458082921Y97434671D03*
%TO.N,9*%
X439003250Y107378500D03*
X431191511Y12006739D03*
%TO.N,6*%
X440645550Y107861100D03*
X432596250Y32321500D03*
%TO.N,5*%
X432996250Y50101500D03*
X441204350Y107378500D03*
%TO.N,13*%
X340360000Y104233000D03*
%TO.N,3*%
X433796250Y69156739D03*
X442321950Y107378500D03*
%TO.N,Net-(RD1-Pad2)*%
X432720750Y120078500D03*
X432188000Y115633500D03*
%TO.N,Net-(RD2-Pad2)*%
X431704750Y120078500D03*
X432186520Y113439000D03*
%TO.N,24*%
X385222750Y135191500D03*
X385095750Y136842500D03*
X414394442Y126134000D03*
X411589564Y126534000D03*
%TO.N,16*%
X211772500Y105378250D03*
%TO.N,17*%
X173672500Y105759250D03*
%TO.N,0*%
X435006750Y89471500D03*
X444176150Y107835700D03*
%TO.N,~{RESET}*%
X427640750Y106870500D03*
X408137750Y110354500D03*
%TO.N,+3V3*%
X342910000Y16632250D03*
X443772500Y35516250D03*
X253272500Y73616250D03*
X462822500Y73616250D03*
D23*
X395255750Y133794500D03*
D22*
X54778750Y16632250D03*
X173841250Y16632250D03*
X96110000Y35516250D03*
X9425000Y140368350D03*
X272322500Y73616250D03*
X248510000Y35516250D03*
X443134750Y126428500D03*
X177072500Y73616250D03*
X300897500Y121241250D03*
X381860000Y121241250D03*
X461762500Y92732250D03*
X234222500Y73616250D03*
X138972500Y73616250D03*
X147437500Y92732250D03*
X257185000Y54732250D03*
X430942750Y113601500D03*
X78591250Y16632250D03*
X280787500Y92732250D03*
X361960000Y16632250D03*
X158022500Y73616250D03*
X215172500Y121241250D03*
X432974750Y113601500D03*
X362810000Y35516250D03*
X430942750Y110045500D03*
X430561750Y104203500D03*
X245278750Y16632250D03*
X361750000Y92795750D03*
X90387500Y140457250D03*
X381010000Y140457250D03*
X91347500Y121241250D03*
X204587500Y92732250D03*
X316716250Y16632250D03*
X307191250Y54732250D03*
X191360000Y35516250D03*
X104785000Y54732250D03*
X161935000Y54732250D03*
X442712500Y92732250D03*
X342910000Y140457250D03*
X200035000Y54732250D03*
X10385000Y35516250D03*
X281847500Y121241250D03*
D23*
X396271750Y133794500D03*
D22*
X9535000Y54732250D03*
X404822500Y54732250D03*
X128597500Y140457250D03*
X269091250Y16632250D03*
X71447500Y92832250D03*
X58010000Y73616250D03*
X102403750Y16632250D03*
X234222500Y121241250D03*
X303278750Y35516250D03*
X424722500Y35516250D03*
X319947500Y121241250D03*
X52397500Y92832250D03*
X343760000Y73616250D03*
X9535000Y16632250D03*
X405672500Y73616250D03*
X65153750Y35516250D03*
X291372500Y73616250D03*
X147647500Y140457250D03*
X276235000Y54732250D03*
X85735000Y54732250D03*
X443772500Y73616250D03*
X28585000Y92832250D03*
X262797500Y121241250D03*
X196122500Y73616250D03*
X433228750Y108648500D03*
X242687500Y92732250D03*
X59541250Y54732250D03*
X177072500Y121241250D03*
X309362500Y92732250D03*
X195272500Y140457250D03*
X381010000Y16632250D03*
X343760000Y121241250D03*
X210410000Y35516250D03*
X142885000Y54732250D03*
X29435000Y35516250D03*
X342804750Y92773500D03*
X172310000Y35516250D03*
X219085000Y54732250D03*
X123835000Y54732250D03*
X119922500Y73616250D03*
X423872500Y16632250D03*
X404822500Y16632250D03*
X29435000Y73616250D03*
X315185000Y73616250D03*
X134210000Y35516250D03*
X176222500Y140457250D03*
X28585000Y54732250D03*
X381860000Y73616250D03*
X461803750Y54673500D03*
X100872500Y73616250D03*
X153260000Y35516250D03*
X454782250Y18950000D03*
X442922500Y54732250D03*
X362810000Y121241250D03*
D23*
X394239750Y133794500D03*
D22*
X362810000Y73616250D03*
D23*
X395255750Y134810500D03*
D22*
X442922500Y16632250D03*
X267560000Y35516250D03*
X404612500Y92732250D03*
X28585000Y16632250D03*
X215172500Y73616250D03*
D23*
X395255750Y132778500D03*
D22*
X223637500Y92732250D03*
X109547500Y92832250D03*
X115160000Y35516250D03*
X292903750Y16632250D03*
X423662500Y92859250D03*
X166487500Y92732250D03*
X180985000Y54732250D03*
X196122500Y121241250D03*
X423872500Y54732250D03*
X9535000Y92832250D03*
X128387500Y92732250D03*
X10385000Y73616250D03*
X424722500Y73616250D03*
X233372500Y140457250D03*
X148497500Y121241250D03*
X261737500Y92859250D03*
X361960000Y140457250D03*
X90497500Y92832250D03*
X110397500Y121241250D03*
X435895750Y110172500D03*
X229460000Y35516250D03*
X214322500Y140457250D03*
X81822500Y73616250D03*
X238135000Y54732250D03*
X129447500Y121241250D03*
X405672500Y35516250D03*
X380800000Y92795750D03*
X185537500Y92732250D03*
X109429550Y140398500D03*
%TO.N,25*%
X412299150Y126934000D03*
X413601311Y126527239D03*
%TO.N,4*%
X441763150Y107835700D03*
X433396250Y51305761D03*
%TO.N,19*%
X111715550Y4508500D03*
X87947500Y106521250D03*
%TO.N,Net-(LD1-Pad1)*%
X88106250Y138906250D03*
X11906250Y138906250D03*
%TO.N,Net-(LD2-Pad1)*%
X92868750Y138906250D03*
X107156250Y138906250D03*
%TO.N,Net-(LD3-Pad1)*%
X111918750Y138906250D03*
X126206250Y138906250D03*
%TO.N,Net-(LD4-Pad1)*%
X145256250Y138906250D03*
X130968750Y138906250D03*
%TO.N,Net-(LD5-Pad1)*%
X150018750Y138906250D03*
X173831250Y138906250D03*
%TO.N,Net-(LD6-Pad1)*%
X178593750Y138906250D03*
X192881250Y138906250D03*
%TO.N,Net-(LD7-Pad1)*%
X197643750Y138906250D03*
X211931250Y138906250D03*
%TO.N,Net-(LD8-Pad1)*%
X230981250Y138906250D03*
X216693750Y138906250D03*
%TO.N,Net-(LD10-Pad3)*%
X250059050Y132016500D03*
X340672786Y139060286D03*
X249586750Y138874500D03*
X326548750Y138112500D03*
X235743750Y138906250D03*
X325913750Y124650500D03*
%TO.N,Net-(LD10-Pad1)*%
X359568750Y138906250D03*
X345281250Y138906250D03*
%TO.N,Net-(LD11-Pad1)*%
X378618750Y138906250D03*
X364331250Y138906250D03*
%TO.N,Net-(LD13-Pad1)*%
X7584500Y117475000D03*
X88547000Y119856250D03*
%TO.N,Net-(LD13-Pad3)*%
X92868750Y119856250D03*
X107156250Y119856250D03*
%TO.N,Net-(LD14-Pad3)*%
X111918750Y119856250D03*
X126647000Y119856250D03*
%TO.N,Net-(LD15-Pad3)*%
X130968750Y119856250D03*
X145256250Y119856250D03*
%TO.N,Net-(LD16-Pad3)*%
X174272000Y119856250D03*
X150018750Y119856250D03*
%TO.N,Net-(LD17-Pad3)*%
X192881250Y119856250D03*
X178593750Y119856250D03*
%TO.N,Net-(LD18-Pad3)*%
X212372000Y119856250D03*
X197643750Y119856250D03*
%TO.N,Net-(LD19-Pad3)*%
X216693750Y119856250D03*
X230981250Y119856250D03*
%TO.N,Net-(LD20-Pad3)*%
X259556250Y119856250D03*
X235743750Y119856250D03*
%TO.N,Net-(LD21-Pad3)*%
X264318750Y119856250D03*
X278606250Y119856250D03*
%TO.N,Net-(LD22-Pad3)*%
X297656250Y119856250D03*
X283368750Y119856250D03*
%TO.N,Net-(LD23-Pad3)*%
X302418750Y119856250D03*
X316706250Y119856250D03*
%TO.N,Net-(LD24-Pad3)*%
X321468750Y119856250D03*
X340959500Y119856250D03*
%TO.N,Net-(LD25-Pad3)*%
X359568750Y119856250D03*
X345281250Y119856250D03*
%TO.N,Net-(LD26-Pad3)*%
X379059500Y119856250D03*
X364331250Y119856250D03*
%TO.N,Net-(LD28-Pad1)*%
X26193750Y91281250D03*
X11906250Y91281250D03*
%TO.N,Net-(LD29-Pad1)*%
X30956250Y91281250D03*
X50447000Y91281250D03*
%TO.N,Net-(LD30-Pad1)*%
X69056250Y91281250D03*
X54768750Y91281250D03*
%TO.N,Net-(LD31-Pad1)*%
X73818750Y91281250D03*
X88547000Y91281250D03*
%TO.N,Net-(LD32-Pad1)*%
X92868750Y91281250D03*
X107156250Y91281250D03*
%TO.N,Net-(LD33-Pad1)*%
X126647000Y91281250D03*
X111918750Y91281250D03*
%TO.N,Net-(LD34-Pad1)*%
X130968750Y91281250D03*
X145256250Y91281250D03*
%TO.N,Net-(LD35-Pad1)*%
X150018750Y91281250D03*
X164306250Y91281250D03*
%TO.N,Net-(LD36-Pad1)*%
X183356250Y91281250D03*
X169068750Y91281250D03*
%TO.N,Net-(LD37-Pad1)*%
X202406250Y91281250D03*
X188118750Y91281250D03*
%TO.N,Net-(LD38-Pad1)*%
X221456250Y91281250D03*
X207168750Y91281250D03*
%TO.N,Net-(LD39-Pad1)*%
X226218750Y91281250D03*
X240506250Y91281250D03*
%TO.N,Net-(LD40-Pad1)*%
X259997000Y91281250D03*
X245268750Y91281250D03*
%TO.N,Net-(LD41-Pad1)*%
X278606250Y91281250D03*
X264318750Y91281250D03*
%TO.N,Net-(LD42-Pad1)*%
X283368750Y91281250D03*
X307181250Y91281250D03*
%TO.N,Net-(LD43-Pad1)*%
X340959500Y91281250D03*
X311943750Y91281250D03*
%TO.N,Net-(LD44-Pad1)*%
X359568750Y91281250D03*
X345281250Y91281250D03*
%TO.N,Net-(LD45-Pad1)*%
X364331250Y91281250D03*
X379059500Y91281250D03*
%TO.N,Net-(LD46-Pad1)*%
X383381250Y91281250D03*
X402431250Y91281250D03*
%TO.N,Net-(LD47-Pad1)*%
X407193750Y91281250D03*
X421481250Y91281250D03*
%TO.N,Net-(LD48-Pad1)*%
X440531250Y91281250D03*
X426243750Y91281250D03*
%TO.N,Net-(LD49-Pad1)*%
X445293750Y91281250D03*
X459581250Y91281250D03*
%TO.N,Net-(LD51-Pad1)*%
X7584500Y72231250D03*
X9525000Y62706250D03*
%TO.N,Net-(LD51-Pad3)*%
X26193750Y72231250D03*
X11906250Y72231250D03*
%TO.N,Net-(LD52-Pad3)*%
X54768750Y72231250D03*
X30956250Y72231250D03*
%TO.N,Net-(LD53-Pad3)*%
X59531250Y72231250D03*
X78581250Y72231250D03*
%TO.N,Net-(LD54-Pad3)*%
X83343750Y72231250D03*
X97631250Y72231250D03*
%TO.N,Net-(LD55-Pad3)*%
X102393750Y72231250D03*
X116681250Y72231250D03*
%TO.N,Net-(LD56-Pad3)*%
X135731250Y72231250D03*
X121443750Y72231250D03*
%TO.N,Net-(LD57-Pad3)*%
X154781250Y72231250D03*
X140493750Y72231250D03*
%TO.N,Net-(LD58-Pad3)*%
X159543750Y72231250D03*
X173831250Y72231250D03*
%TO.N,Net-(LD59-Pad3)*%
X178593750Y72231250D03*
X192881250Y72231250D03*
%TO.N,Net-(LD60-Pad3)*%
X197643750Y72231250D03*
X211931250Y72231250D03*
%TO.N,Net-(LD61-Pad3)*%
X216693750Y72231250D03*
X230981250Y72231250D03*
%TO.N,Net-(LD62-Pad3)*%
X235743750Y72231250D03*
X250031250Y72231250D03*
%TO.N,Net-(LD63-Pad3)*%
X269081250Y72231250D03*
X254793750Y72231250D03*
%TO.N,Net-(LD64-Pad3)*%
X273843750Y72231250D03*
X288131250Y72231250D03*
%TO.N,Net-(LD65-Pad3)*%
X311943750Y72231250D03*
X292893750Y72231250D03*
%TO.N,Net-(LD66-Pad3)*%
X340959500Y72231250D03*
X316706250Y72231250D03*
%TO.N,Net-(LD67-Pad3)*%
X345281250Y72231250D03*
X359568750Y72231250D03*
%TO.N,Net-(LD68-Pad3)*%
X379059500Y72231250D03*
X364331250Y72231250D03*
%TO.N,Net-(LD69-Pad3)*%
X383381250Y72231250D03*
X402431250Y72231250D03*
%TO.N,Net-(LD70-Pad3)*%
X407193750Y72231250D03*
X421922000Y72231250D03*
%TO.N,Net-(LD71-Pad3)*%
X426243750Y72231250D03*
X440531250Y72231250D03*
%TO.N,Net-(LD72-Pad3)*%
X445293750Y72231250D03*
X460022000Y72231250D03*
%TO.N,Net-(LD74-Pad1)*%
X11906250Y53181250D03*
X26193750Y53181250D03*
%TO.N,Net-(LD75-Pad1)*%
X57150000Y53181250D03*
X30956250Y53181250D03*
%TO.N,Net-(LD76-Pad1)*%
X83343750Y53181250D03*
X61912500Y53181250D03*
%TO.N,Net-(LD77-Pad1)*%
X88106250Y53181250D03*
X102393750Y53181250D03*
%TO.N,Net-(LD78-Pad1)*%
X121443750Y53181250D03*
X107156250Y53181250D03*
%TO.N,Net-(LD79-Pad1)*%
X140493750Y53181250D03*
X126206250Y53181250D03*
%TO.N,Net-(LD80-Pad1)*%
X145256250Y53181250D03*
X159543750Y53181250D03*
%TO.N,Net-(LD81-Pad1)*%
X164306250Y53181250D03*
X178593750Y53181250D03*
%TO.N,Net-(LD82-Pad1)*%
X183356250Y53181250D03*
X197643750Y53181250D03*
%TO.N,Net-(LD83-Pad1)*%
X202406250Y53181250D03*
X216693750Y53181250D03*
%TO.N,Net-(LD84-Pad1)*%
X235743750Y53181250D03*
X221456250Y53181250D03*
%TO.N,Net-(LD85-Pad1)*%
X254793750Y53181250D03*
X240506250Y53181250D03*
%TO.N,Net-(LD86-Pad1)*%
X273843750Y53181250D03*
X259556250Y53181250D03*
%TO.N,Net-(LD87-Pad1)*%
X278606250Y53181250D03*
X304800000Y53181250D03*
%TO.N,Net-(LD88-Pad1)*%
X402872000Y53181250D03*
X309562500Y53181250D03*
%TO.N,Net-(LD89-Pad1)*%
X407193750Y53181250D03*
X421922000Y53181250D03*
%TO.N,Net-(LD90-Pad1)*%
X440531250Y53181250D03*
X426243750Y53181250D03*
%TO.N,Net-(LD91-Pad1)*%
X460022000Y53181250D03*
X445293750Y53181250D03*
%TO.N,Net-(LD110-Pad3)*%
X445293750Y34131250D03*
X464343750Y38893750D03*
%TO.N,Net-(LD111-Pad3)*%
X7584500Y34131250D03*
X9525000Y24606250D03*
%TO.N,Net-(LD93-Pad3)*%
X26193750Y34131250D03*
X11906250Y34131250D03*
%TO.N,Net-(LD94-Pad3)*%
X61912500Y34131250D03*
X30956250Y34131250D03*
%TO.N,Net-(LD95-Pad3)*%
X66675000Y34131250D03*
X92868750Y34131250D03*
%TO.N,Net-(LD96-Pad3)*%
X111918750Y34131250D03*
X97631250Y34131250D03*
%TO.N,Net-(LD97-Pad3)*%
X116681250Y34131250D03*
X130968750Y34131250D03*
%TO.N,Net-(LD98-Pad3)*%
X135731250Y34131250D03*
X150018750Y34131250D03*
%TO.N,Net-(LD100-Pad1)*%
X154781250Y34131250D03*
X169068750Y34131250D03*
%TO.N,Net-(LD100-Pad3)*%
X173831250Y34131250D03*
X188118750Y34131250D03*
%TO.N,Net-(LD101-Pad3)*%
X192881250Y34131250D03*
X207168750Y34131250D03*
%TO.N,Net-(LD102-Pad3)*%
X226218750Y34131250D03*
X211931250Y34131250D03*
%TO.N,Net-(LD103-Pad3)*%
X245268750Y34131250D03*
X230981250Y34131250D03*
%TO.N,Net-(LD104-Pad3)*%
X264318750Y34131250D03*
X250031250Y34131250D03*
%TO.N,Net-(LD105-Pad3)*%
X300037500Y34131250D03*
X269081250Y34131250D03*
%TO.N,Net-(LD106-Pad3)*%
X304800000Y34131250D03*
X360009500Y34131250D03*
%TO.N,Net-(LD107-Pad3)*%
X402872000Y34131250D03*
X364331250Y34131250D03*
%TO.N,Net-(LD108-Pad3)*%
X407193750Y34131250D03*
X421922000Y34131250D03*
%TO.N,Net-(LD109-Pad3)*%
X440531250Y34131250D03*
X426243750Y34131250D03*
%TO.N,Net-(LD111-Pad1)*%
X26193750Y15081250D03*
X11906250Y15081250D03*
%TO.N,Net-(LD112-Pad1)*%
X30956250Y15081250D03*
X52387500Y15081250D03*
%TO.N,Net-(LD113-Pad1)*%
X57150000Y15081250D03*
X76200000Y15081250D03*
%TO.N,Net-(LD114-Pad1)*%
X100012500Y15081250D03*
X80962500Y15081250D03*
%TO.N,Net-(LD115-Pad1)*%
X171450000Y15081250D03*
X104775000Y15081250D03*
%TO.N,Net-(LD116-Pad1)*%
X176212500Y15081250D03*
X243328250Y15081250D03*
%TO.N,Net-(LD117-Pad1)*%
X266700000Y15081250D03*
X247650000Y15081250D03*
%TO.N,Net-(LD118-Pad1)*%
X290512500Y15081250D03*
X271462500Y15081250D03*
%TO.N,Net-(LD119-Pad1)*%
X295275000Y15081250D03*
X314325000Y15081250D03*
%TO.N,Net-(LD120-Pad1)*%
X340959500Y15081250D03*
X319087500Y15081250D03*
%TO.N,Net-(LD121-Pad1)*%
X359568750Y15081250D03*
X345281250Y15081250D03*
%TO.N,Net-(LD122-Pad1)*%
X364331250Y15081250D03*
X379059500Y15081250D03*
%TO.N,Net-(LD123-Pad1)*%
X383381250Y15081250D03*
X402431250Y15081250D03*
%TO.N,Net-(LD124-Pad1)*%
X407193750Y15081250D03*
X421922000Y15081250D03*
%TO.N,Net-(LD125-Pad1)*%
X426243750Y15081250D03*
X440531250Y15081250D03*
%TO.N,Net-(LD126-Pad1)*%
X454818750Y15081250D03*
X445293750Y15081250D03*
%TD*%
D24*
%TO.N,GND*%
X177072500Y140291250D02*
X177072500Y141022500D01*
X200885000Y55297500D02*
X200620000Y55562500D01*
X196122500Y141022500D02*
X195857500Y141287500D01*
X380625000Y74612500D02*
X381010000Y74227500D01*
X343760000Y139456250D02*
X343760000Y140291250D01*
X266710000Y33681250D02*
X266610000Y33581250D01*
X86585000Y53731250D02*
X86585000Y54566250D01*
X110397500Y93397500D02*
X110132500Y93662500D01*
X91347500Y93397500D02*
X91082500Y93662500D01*
X209560000Y36127500D02*
X209560000Y35682250D01*
X381010000Y74227500D02*
X381010000Y73782250D01*
X100022500Y73782250D02*
X100022500Y71781250D01*
X280997500Y119406250D02*
X280897500Y119306250D01*
X152025000Y36512500D02*
X152410000Y36127500D01*
X302328750Y33581250D02*
X301778750Y33581250D01*
X10385000Y91831250D02*
X10385000Y92666250D01*
X9535000Y35682250D02*
X9535000Y33681250D01*
X28485000Y71681250D02*
X27935000Y71681250D01*
X247660000Y33681250D02*
X247560000Y33581250D01*
X266325000Y36512500D02*
X266710000Y36127500D01*
X243637500Y91831250D02*
X243637500Y92666250D01*
X10385000Y93397500D02*
X10120000Y93662500D01*
X143735000Y54566250D02*
X143735000Y55297500D01*
X342810000Y119306250D02*
X342260000Y119306250D01*
X300047500Y121407250D02*
X300047500Y119406250D01*
X258035000Y53731250D02*
X258035000Y54566250D01*
X361960000Y33681250D02*
X361860000Y33581250D01*
X80972500Y71781250D02*
X80872500Y71681250D01*
X314335000Y71781250D02*
X314235000Y71681250D01*
X181835000Y53731250D02*
X181835000Y54566250D01*
X10275000Y139456250D02*
X10275000Y140354750D01*
X423872500Y36127500D02*
X423872500Y35682250D01*
X454290000Y19800000D02*
X454025000Y19535000D01*
X205537500Y92793250D02*
X205537500Y93397500D01*
X234222500Y139456250D02*
X234222500Y140291250D01*
X233372500Y119406250D02*
X233272500Y119306250D01*
X443662500Y91831250D02*
X443662500Y92793250D01*
X147647500Y121852500D02*
X147647500Y121407250D01*
X233372500Y121407250D02*
X233372500Y119406250D01*
X462712500Y91831250D02*
X462712500Y92666250D01*
X233372500Y74227500D02*
X233372500Y73782250D01*
X90497500Y121407250D02*
X90497500Y119406250D01*
X381010000Y71781250D02*
X380910000Y71681250D01*
X380910000Y119306250D02*
X380360000Y119306250D01*
X228510000Y33581250D02*
X227960000Y33581250D01*
X462712500Y93397500D02*
X462447500Y93662500D01*
X91347500Y92666250D02*
X91347500Y93397500D01*
X299662500Y122237500D02*
X300047500Y121852500D01*
X138122500Y71781250D02*
X138022500Y71681250D01*
X129447500Y140291250D02*
X129447500Y141022500D01*
X205537500Y91831250D02*
X205537500Y92793250D01*
X462712500Y53731250D02*
X462712500Y54693250D01*
X281737500Y91831250D02*
X281737500Y92793250D01*
X461872500Y71681250D02*
X461322500Y71681250D01*
X176122500Y119306250D02*
X175572500Y119306250D01*
X86585000Y54566250D02*
X86585000Y55297500D01*
X262687500Y93397500D02*
X262422500Y93662500D01*
X281737500Y92793250D02*
X281737500Y93397500D01*
X119072500Y74227500D02*
X119072500Y73782250D01*
X423772500Y71681250D02*
X423222500Y71681250D01*
X461972500Y71781250D02*
X461872500Y71681250D01*
X133360000Y35682250D02*
X133360000Y33681250D01*
X361960000Y73782250D02*
X361960000Y71781250D01*
X247560000Y33581250D02*
X247010000Y33581250D01*
X29435000Y91831250D02*
X29435000Y92666250D01*
X10275000Y140354750D02*
X10275000Y141022500D01*
X277085000Y54566250D02*
X277085000Y55297500D01*
X405562500Y93397500D02*
X405297500Y93662500D01*
X196122500Y140291250D02*
X196122500Y141022500D01*
X28585000Y36127500D02*
X28585000Y35682250D01*
X269941250Y17197500D02*
X269676250Y17462500D01*
X195272500Y121852500D02*
X195272500Y121407250D01*
X190125000Y36512500D02*
X190510000Y36127500D01*
X381010000Y73782250D02*
X381010000Y71781250D01*
X118972500Y71681250D02*
X118422500Y71681250D01*
X194887500Y122237500D02*
X195272500Y121852500D01*
X9435000Y71681250D02*
X8885000Y71681250D01*
X442822500Y33581250D02*
X442272500Y33581250D01*
X342525000Y122237500D02*
X342910000Y121852500D01*
X361960000Y119406250D02*
X361860000Y119306250D01*
X95160000Y33581250D02*
X94610000Y33581250D01*
X91237500Y141022500D02*
X90972500Y141287500D01*
X266610000Y33581250D02*
X266060000Y33581250D01*
X157072500Y71681250D02*
X156522500Y71681250D01*
X152410000Y33681250D02*
X152310000Y33581250D01*
X280997500Y121407250D02*
X280997500Y119406250D01*
X462712500Y92666250D02*
X462712500Y93397500D01*
X233272500Y71681250D02*
X232722500Y71681250D01*
X443772500Y54566250D02*
X443772500Y55297500D01*
X174691250Y17197500D02*
X174426250Y17462500D01*
X343760000Y141022500D02*
X343495000Y141287500D01*
X380625000Y122237500D02*
X381010000Y121852500D01*
X10385000Y15631250D02*
X10385000Y16466250D01*
X424722500Y16466250D02*
X424722500Y17197500D01*
X29435000Y53731250D02*
X29435000Y54566250D01*
X190410000Y33581250D02*
X189860000Y33581250D01*
X343650000Y92729750D02*
X343650000Y93397500D01*
X105635000Y55297500D02*
X105370000Y55562500D01*
X90397500Y119306250D02*
X89847500Y119306250D01*
X423872500Y73782250D02*
X423872500Y71781250D01*
X246128750Y16466250D02*
X246128750Y17197500D01*
X405672500Y15631250D02*
X405672500Y16466250D01*
X213937500Y74612500D02*
X214322500Y74227500D01*
X462712500Y54693250D02*
X462712500Y55297500D01*
X195272500Y119406250D02*
X195172500Y119306250D01*
X404822500Y33681250D02*
X404722500Y33581250D01*
X209560000Y33681250D02*
X209460000Y33581250D01*
X181835000Y54566250D02*
X181835000Y55297500D01*
X262687500Y91831250D02*
X262687500Y92793250D01*
X10385000Y16466250D02*
X10385000Y17197500D01*
X174691250Y16466250D02*
X174691250Y17197500D01*
X228225000Y36512500D02*
X228610000Y36127500D01*
X381860000Y139456250D02*
X381860000Y140291250D01*
X103253750Y17197500D02*
X102988750Y17462500D01*
X405672500Y17197500D02*
X405407500Y17462500D01*
X186487500Y93397500D02*
X186222500Y93662500D01*
X152310000Y33581250D02*
X151760000Y33581250D01*
X110397500Y141022500D02*
X110132500Y141287500D01*
X124685000Y53731250D02*
X124685000Y54566250D01*
X424722500Y55297500D02*
X424457500Y55562500D01*
X314235000Y71681250D02*
X313685000Y71681250D01*
X60391250Y54566250D02*
X60391250Y55297500D01*
X246128750Y15631250D02*
X246128750Y16466250D01*
X247660000Y36127500D02*
X247660000Y35682250D01*
X424612500Y91831250D02*
X424612500Y92793250D01*
X342910000Y119406250D02*
X342810000Y119306250D01*
X362810000Y17197500D02*
X362545000Y17462500D01*
X57160000Y74227500D02*
X57160000Y73782250D01*
X72297500Y91831250D02*
X72297500Y92666250D01*
X381860000Y140291250D02*
X381860000Y141022500D01*
X404437500Y74612500D02*
X404822500Y74227500D01*
X233372500Y121742500D02*
X232877500Y122237500D01*
X233372500Y71781250D02*
X233272500Y71681250D01*
X317566250Y17197500D02*
X317301250Y17462500D01*
X361860000Y33581250D02*
X361310000Y33581250D01*
X342910000Y71781250D02*
X342810000Y71681250D01*
X128597500Y121407250D02*
X128597500Y119406250D01*
X261947500Y121407250D02*
X261947500Y121742500D01*
X176122500Y71681250D02*
X175572500Y71681250D01*
X53247500Y91831250D02*
X53247500Y92666250D01*
X319097500Y121852500D02*
X319097500Y121407250D01*
X461972500Y74227500D02*
X461972500Y73782250D01*
X64303750Y35682250D02*
X64303750Y33681250D01*
X214322500Y121407250D02*
X214322500Y119406250D01*
X29435000Y16466250D02*
X29435000Y17197500D01*
X109447500Y119306250D02*
X108897500Y119306250D01*
X91237500Y139456250D02*
X91237500Y140291250D01*
X29435000Y17197500D02*
X29170000Y17462500D01*
X362700000Y91831250D02*
X362700000Y92729750D01*
X109162500Y122237500D02*
X109547500Y121852500D01*
X205537500Y93397500D02*
X205272500Y93662500D01*
X110397500Y92666250D02*
X110397500Y93397500D01*
X9535000Y71781250D02*
X9435000Y71681250D01*
X423872500Y71781250D02*
X423772500Y71681250D01*
X171075000Y36512500D02*
X171460000Y36127500D01*
X175837500Y74612500D02*
X176222500Y74227500D01*
X167437500Y92793250D02*
X167437500Y93397500D01*
X290522500Y74227500D02*
X290522500Y73782250D01*
X404822500Y35682250D02*
X404822500Y33681250D01*
X443662500Y92793250D02*
X443662500Y93397500D01*
X361575000Y74612500D02*
X361960000Y74227500D01*
X109547500Y121407250D02*
X109547500Y119406250D01*
X162785000Y53731250D02*
X162785000Y54566250D01*
X281737500Y93397500D02*
X281472500Y93662500D01*
X219935000Y54566250D02*
X219935000Y55297500D01*
X55628750Y17197500D02*
X55363750Y17462500D01*
X28585000Y73782250D02*
X28585000Y71781250D01*
X90497500Y119406250D02*
X90397500Y119306250D01*
X233372500Y121407250D02*
X233372500Y121742500D01*
X63918750Y36512500D02*
X64303750Y36127500D01*
X442922500Y71781250D02*
X442822500Y71681250D01*
X55628750Y16466250D02*
X55628750Y17197500D01*
X157172500Y73782250D02*
X157172500Y71781250D01*
X119072500Y71781250D02*
X118972500Y71681250D01*
X147647500Y119406250D02*
X147547500Y119306250D01*
X133360000Y33681250D02*
X133260000Y33581250D01*
X443772500Y53731250D02*
X443772500Y54566250D01*
X214222500Y71681250D02*
X213672500Y71681250D01*
X258035000Y54566250D02*
X258035000Y55297500D01*
X28585000Y71781250D02*
X28485000Y71681250D01*
X60391250Y53731250D02*
X60391250Y54566250D01*
X442922500Y36127500D02*
X442922500Y35682250D01*
X232987500Y74612500D02*
X233372500Y74227500D01*
X214222500Y119306250D02*
X213672500Y119306250D01*
X28585000Y74227500D02*
X28585000Y73782250D01*
X361860000Y119306250D02*
X361310000Y119306250D01*
X404822500Y36127500D02*
X404822500Y35682250D01*
X361575000Y122237500D02*
X361960000Y121852500D01*
X72297500Y93397500D02*
X72032500Y93662500D01*
X90497500Y121852500D02*
X90497500Y121407250D01*
X238985000Y54566250D02*
X238985000Y55297500D01*
X79441250Y15631250D02*
X79441250Y16466250D01*
X10275000Y141022500D02*
X10010000Y141287500D01*
X362700000Y92729750D02*
X362700000Y93397500D01*
X404822500Y74227500D02*
X404822500Y73782250D01*
X280612500Y122237500D02*
X280997500Y121852500D01*
X128212500Y122237500D02*
X128597500Y121852500D01*
X361960000Y121852500D02*
X361960000Y121407250D01*
X271087500Y74612500D02*
X271472500Y74227500D01*
X228610000Y33681250D02*
X228510000Y33581250D01*
X442922500Y35682250D02*
X442922500Y33681250D01*
X381860000Y16466250D02*
X381860000Y17197500D01*
X110397500Y139456250D02*
X110397500Y140291250D01*
X290522500Y71781250D02*
X290422500Y71681250D01*
X109547500Y121852500D02*
X109547500Y121407250D01*
X308041250Y53731250D02*
X308041250Y54566250D01*
X234222500Y141022500D02*
X233957500Y141287500D01*
X246128750Y17197500D02*
X245863750Y17462500D01*
X113925000Y36512500D02*
X114310000Y36127500D01*
X343760000Y140291250D02*
X343760000Y141022500D01*
X10385000Y55297500D02*
X10120000Y55562500D01*
X128597500Y119406250D02*
X128497500Y119306250D01*
X277085000Y55297500D02*
X276820000Y55562500D01*
X424722500Y15631250D02*
X424722500Y16466250D01*
X194887500Y74612500D02*
X195272500Y74227500D01*
X423872500Y35682250D02*
X423872500Y33681250D01*
X343650000Y91831250D02*
X343650000Y92729750D01*
X342910000Y121852500D02*
X342910000Y121407250D01*
X129337500Y92666250D02*
X129337500Y93397500D01*
X72297500Y92666250D02*
X72297500Y93397500D01*
X381010000Y119406250D02*
X380910000Y119306250D01*
X214322500Y74227500D02*
X214322500Y73782250D01*
X215172500Y140291250D02*
X215172500Y141022500D01*
X280897500Y119306250D02*
X280347500Y119306250D01*
X424612500Y92793250D02*
X424612500Y93397500D01*
X28200000Y36512500D02*
X28585000Y36127500D01*
X9435000Y33581250D02*
X8885000Y33581250D01*
X118687500Y74612500D02*
X119072500Y74227500D01*
X442922500Y73782250D02*
X442922500Y71781250D01*
X148497500Y140291250D02*
X148497500Y141022500D01*
X162785000Y55297500D02*
X162520000Y55562500D01*
X124685000Y54566250D02*
X124685000Y55297500D01*
X9535000Y33681250D02*
X9435000Y33581250D01*
X110397500Y140291250D02*
X110397500Y141022500D01*
X404822500Y73782250D02*
X404822500Y71781250D01*
X196122500Y139456250D02*
X196122500Y140291250D01*
X215172500Y139456250D02*
X215172500Y140291250D01*
X148387500Y92666250D02*
X148387500Y93397500D01*
X252422500Y74227500D02*
X252422500Y73782250D01*
X174691250Y15631250D02*
X174691250Y16466250D01*
X361860000Y71681250D02*
X361310000Y71681250D01*
X318997500Y119306250D02*
X318447500Y119306250D01*
X209560000Y35682250D02*
X209560000Y33681250D01*
X138022500Y71681250D02*
X137472500Y71681250D01*
X57060000Y71681250D02*
X56510000Y71681250D01*
X343760000Y15631250D02*
X343760000Y16466250D01*
X342910000Y74227500D02*
X342910000Y73782250D01*
X147647500Y121407250D02*
X147647500Y119406250D01*
X343760000Y17197500D02*
X343495000Y17462500D01*
X308041250Y54566250D02*
X308041250Y55297500D01*
X214322500Y121852500D02*
X214322500Y121407250D01*
X461972500Y73782250D02*
X461972500Y71781250D01*
X56775000Y74612500D02*
X57160000Y74227500D01*
X343650000Y93397500D02*
X343385000Y93662500D01*
X200885000Y54566250D02*
X200885000Y55297500D01*
X195272500Y121407250D02*
X195272500Y119406250D01*
X9150000Y36512500D02*
X9535000Y36127500D01*
X293753750Y16466250D02*
X293753750Y17197500D01*
X175837500Y122237500D02*
X176222500Y121852500D01*
X128597500Y121852500D02*
X128597500Y121407250D01*
X137737500Y74612500D02*
X138122500Y74227500D01*
X181835000Y55297500D02*
X181570000Y55562500D01*
X195272500Y73782250D02*
X195272500Y71781250D01*
X190510000Y36127500D02*
X190510000Y35682250D01*
X53247500Y93397500D02*
X52982500Y93662500D01*
X176222500Y71781250D02*
X176122500Y71681250D01*
X443772500Y16466250D02*
X443772500Y17197500D01*
X138122500Y74227500D02*
X138122500Y73782250D01*
X176222500Y121407250D02*
X176222500Y119406250D01*
X133360000Y36127500D02*
X133360000Y35682250D01*
X29435000Y15631250D02*
X29435000Y16466250D01*
X442537500Y36512500D02*
X442922500Y36127500D01*
X442922500Y33681250D02*
X442822500Y33581250D01*
X190510000Y33681250D02*
X190410000Y33581250D01*
X381750000Y92729750D02*
X381750000Y93397500D01*
X228610000Y35682250D02*
X228610000Y33681250D01*
X381860000Y141022500D02*
X381595000Y141287500D01*
X209460000Y33581250D02*
X208910000Y33581250D01*
X110397500Y91831250D02*
X110397500Y92666250D01*
X443772500Y15631250D02*
X443772500Y16466250D01*
X252037500Y74612500D02*
X252422500Y74227500D01*
X195272500Y71781250D02*
X195172500Y71681250D01*
X114310000Y35682250D02*
X114310000Y33681250D01*
X290137500Y74612500D02*
X290522500Y74227500D01*
X361960000Y74227500D02*
X361960000Y73782250D01*
X423772500Y33581250D02*
X423222500Y33581250D01*
X28200000Y74612500D02*
X28585000Y74227500D01*
X362810000Y16466250D02*
X362810000Y17197500D01*
X103253750Y15631250D02*
X103253750Y16466250D01*
X405672500Y53731250D02*
X405672500Y54566250D01*
X29435000Y92666250D02*
X29435000Y93397500D01*
X99922500Y71681250D02*
X99372500Y71681250D01*
X195172500Y71681250D02*
X194622500Y71681250D01*
X314335000Y74227500D02*
X314335000Y73782250D01*
X171360000Y33581250D02*
X170810000Y33581250D01*
X129447500Y139456250D02*
X129447500Y140291250D01*
X177072500Y139456250D02*
X177072500Y140291250D01*
X147547500Y119306250D02*
X146997500Y119306250D01*
X261947500Y121407250D02*
X261947500Y119406250D01*
X261947500Y121742500D02*
X261452500Y122237500D01*
X238985000Y55297500D02*
X238720000Y55562500D01*
X405672500Y54566250D02*
X405672500Y55297500D01*
X152410000Y36127500D02*
X152410000Y35682250D01*
X10385000Y92666250D02*
X10385000Y93397500D01*
X271472500Y74227500D02*
X271472500Y73782250D01*
X302428750Y36127500D02*
X302428750Y35682250D01*
X361960000Y35682250D02*
X361960000Y33681250D01*
X302428750Y33681250D02*
X302328750Y33581250D01*
X381750000Y93397500D02*
X381485000Y93662500D01*
X133260000Y33581250D02*
X132710000Y33581250D01*
X171460000Y33681250D02*
X171360000Y33581250D01*
X91237500Y140291250D02*
X91237500Y141022500D01*
X124685000Y55297500D02*
X124420000Y55562500D01*
X404437500Y36512500D02*
X404822500Y36127500D01*
X271372500Y71681250D02*
X270822500Y71681250D01*
X195172500Y119306250D02*
X194622500Y119306250D01*
X213937500Y122237500D02*
X214322500Y121852500D01*
X318712500Y122237500D02*
X319097500Y121852500D01*
X238985000Y53731250D02*
X238985000Y54566250D01*
X186487500Y92793250D02*
X186487500Y93397500D01*
X362810000Y141022500D02*
X362545000Y141287500D01*
X114310000Y36127500D02*
X114310000Y35682250D01*
X186487500Y91831250D02*
X186487500Y92793250D01*
X290522500Y73782250D02*
X290522500Y71781250D01*
X293753750Y17197500D02*
X293488750Y17462500D01*
X308041250Y55297500D02*
X307776250Y55562500D01*
X361960000Y36127500D02*
X361960000Y35682250D01*
X361960000Y121407250D02*
X361960000Y119406250D01*
X243637500Y93397500D02*
X243372500Y93662500D01*
X95260000Y36127500D02*
X95260000Y35682250D01*
X247660000Y35682250D02*
X247660000Y33681250D01*
X300047500Y119406250D02*
X299947500Y119306250D01*
X171460000Y35682250D02*
X171460000Y33681250D01*
X167437500Y91831250D02*
X167437500Y92793250D01*
X128497500Y119306250D02*
X127947500Y119306250D01*
X266710000Y35682250D02*
X266710000Y33681250D01*
X423487500Y36512500D02*
X423872500Y36127500D01*
X404722500Y33581250D02*
X404172500Y33581250D01*
X129337500Y91831250D02*
X129337500Y92666250D01*
X219935000Y55297500D02*
X219670000Y55562500D01*
X405562500Y92793250D02*
X405562500Y93397500D01*
X443263750Y139956250D02*
X443263750Y135776250D01*
X361575000Y36512500D02*
X361960000Y36127500D01*
X342525000Y74612500D02*
X342910000Y74227500D01*
X442822500Y71681250D02*
X442272500Y71681250D01*
X176222500Y121852500D02*
X176222500Y121407250D01*
X105635000Y53731250D02*
X105635000Y54566250D01*
X319097500Y121407250D02*
X319097500Y119406250D01*
X277085000Y53731250D02*
X277085000Y54566250D01*
X28585000Y35682250D02*
X28585000Y33681250D01*
X157172500Y71781250D02*
X157072500Y71681250D01*
X454870250Y19800000D02*
X454290000Y19800000D01*
X310312500Y91831250D02*
X310312500Y92793250D01*
X443772500Y55297500D02*
X443507500Y55562500D01*
X423872500Y33681250D02*
X423772500Y33581250D01*
X343760000Y16466250D02*
X343760000Y17197500D01*
X214322500Y119406250D02*
X214222500Y119306250D01*
X132975000Y36512500D02*
X133360000Y36127500D01*
X234222500Y140291250D02*
X234222500Y141022500D01*
X293753750Y15631250D02*
X293753750Y16466250D01*
X53247500Y92666250D02*
X53247500Y93397500D01*
X60391250Y55297500D02*
X60126250Y55562500D01*
X362810000Y139456250D02*
X362810000Y140291250D01*
X224587500Y91831250D02*
X224587500Y92793250D01*
X99637500Y74612500D02*
X100022500Y74227500D01*
X91347500Y91831250D02*
X91347500Y92666250D01*
X262687500Y92793250D02*
X262687500Y93397500D01*
X176222500Y73782250D02*
X176222500Y71781250D01*
X29435000Y54566250D02*
X29435000Y55297500D01*
X405672500Y16466250D02*
X405672500Y17197500D01*
X103253750Y16466250D02*
X103253750Y17197500D01*
X405672500Y55297500D02*
X405407500Y55562500D01*
X423487500Y74612500D02*
X423872500Y74227500D01*
X119072500Y73782250D02*
X119072500Y71781250D01*
X79441250Y17197500D02*
X79176250Y17462500D01*
X224587500Y92793250D02*
X224587500Y93397500D01*
X162785000Y54566250D02*
X162785000Y55297500D01*
X9535000Y74227500D02*
X9535000Y73782250D01*
X100022500Y71781250D02*
X99922500Y71681250D01*
X57160000Y71781250D02*
X57060000Y71681250D01*
X90112500Y122237500D02*
X90497500Y121852500D01*
X86585000Y55297500D02*
X86320000Y55562500D01*
X200885000Y53731250D02*
X200885000Y54566250D01*
X269941250Y15631250D02*
X269941250Y16466250D01*
X258035000Y55297500D02*
X257770000Y55562500D01*
X64303750Y36127500D02*
X64303750Y35682250D01*
X319097500Y119406250D02*
X318997500Y119306250D01*
X313950000Y74612500D02*
X314335000Y74227500D01*
X214322500Y73782250D02*
X214322500Y71781250D01*
X361960000Y71781250D02*
X361860000Y71681250D01*
X314335000Y73782250D02*
X314335000Y71781250D01*
X29435000Y93397500D02*
X29170000Y93662500D01*
X9150000Y74612500D02*
X9535000Y74227500D01*
X317566250Y15631250D02*
X317566250Y16466250D01*
X342910000Y121407250D02*
X342910000Y119406250D01*
X209175000Y36512500D02*
X209560000Y36127500D01*
X381010000Y121407250D02*
X381010000Y119406250D01*
X219935000Y53731250D02*
X219935000Y54566250D01*
X443662500Y93397500D02*
X443397500Y93662500D01*
X195272500Y74227500D02*
X195272500Y73782250D01*
X28585000Y33681250D02*
X28485000Y33581250D01*
X247275000Y36512500D02*
X247660000Y36127500D01*
X10385000Y17197500D02*
X10120000Y17462500D01*
X405562500Y91831250D02*
X405562500Y92793250D01*
X64303750Y33681250D02*
X64203750Y33581250D01*
X28485000Y33581250D02*
X27935000Y33581250D01*
X233272500Y119306250D02*
X232722500Y119306250D01*
X79441250Y16466250D02*
X79441250Y17197500D01*
X299947500Y119306250D02*
X299397500Y119306250D01*
X302043750Y36512500D02*
X302428750Y36127500D01*
X461587500Y74612500D02*
X461972500Y74227500D01*
X404822500Y71781250D02*
X404722500Y71681250D01*
X362810000Y140291250D02*
X362810000Y141022500D01*
X147262500Y122237500D02*
X147647500Y121852500D01*
X434623750Y135776250D02*
X434623750Y139956250D01*
X261947500Y119406250D02*
X261847500Y119306250D01*
X114210000Y33581250D02*
X113660000Y33581250D01*
X95260000Y33681250D02*
X95160000Y33581250D01*
X80872500Y71681250D02*
X80322500Y71681250D01*
X252322500Y71681250D02*
X251772500Y71681250D01*
X177072500Y141022500D02*
X176807500Y141287500D01*
X157172500Y74227500D02*
X157172500Y73782250D01*
X252422500Y73782250D02*
X252422500Y71781250D01*
X310312500Y92793250D02*
X310312500Y93397500D01*
X10385000Y54566250D02*
X10385000Y55297500D01*
X423872500Y74227500D02*
X423872500Y73782250D01*
X342810000Y71681250D02*
X342260000Y71681250D01*
X114310000Y33681250D02*
X114210000Y33581250D01*
X381860000Y17197500D02*
X381595000Y17462500D01*
X80972500Y74227500D02*
X80972500Y73782250D01*
X105635000Y54566250D02*
X105635000Y55297500D01*
X9535000Y36127500D02*
X9535000Y35682250D01*
X94875000Y36512500D02*
X95260000Y36127500D01*
X55628750Y15631250D02*
X55628750Y16466250D01*
X404722500Y71681250D02*
X404172500Y71681250D01*
X129337500Y93397500D02*
X129072500Y93662500D01*
X442537500Y74612500D02*
X442922500Y74227500D01*
X215172500Y141022500D02*
X214907500Y141287500D01*
X148387500Y91831250D02*
X148387500Y92666250D01*
X100022500Y74227500D02*
X100022500Y73782250D01*
X228610000Y36127500D02*
X228610000Y35682250D01*
X148387500Y93397500D02*
X148122500Y93662500D01*
X442922500Y74227500D02*
X442922500Y73782250D01*
X455856250Y19800000D02*
X454870250Y19800000D01*
X80972500Y73782250D02*
X80972500Y71781250D01*
X300047500Y121852500D02*
X300047500Y121407250D01*
X129447500Y141022500D02*
X129182500Y141287500D01*
X243637500Y92666250D02*
X243637500Y93397500D01*
X290422500Y71681250D02*
X289872500Y71681250D01*
X152410000Y35682250D02*
X152410000Y33681250D01*
X148497500Y141022500D02*
X148232500Y141287500D01*
X9535000Y73782250D02*
X9535000Y71781250D01*
X171460000Y36127500D02*
X171460000Y35682250D01*
X317566250Y16466250D02*
X317566250Y17197500D01*
X302428750Y35682250D02*
X302428750Y33681250D01*
X380910000Y71681250D02*
X380360000Y71681250D01*
X138122500Y73782250D02*
X138122500Y71781250D01*
X233372500Y73782250D02*
X233372500Y71781250D01*
X252422500Y71781250D02*
X252322500Y71681250D01*
X424612500Y93397500D02*
X424347500Y93662500D01*
X176222500Y119406250D02*
X176122500Y119306250D01*
X381750000Y91831250D02*
X381750000Y92729750D01*
X342910000Y73782250D02*
X342910000Y71781250D01*
X176222500Y74227500D02*
X176222500Y73782250D01*
X156787500Y74612500D02*
X157172500Y74227500D01*
X109547500Y119406250D02*
X109447500Y119306250D01*
X310312500Y93397500D02*
X310047500Y93662500D01*
X80587500Y74612500D02*
X80972500Y74227500D01*
X362700000Y93397500D02*
X362435000Y93662500D01*
X167437500Y93397500D02*
X167172500Y93662500D01*
X269941250Y16466250D02*
X269941250Y17197500D01*
X29435000Y55297500D02*
X29170000Y55562500D01*
X424722500Y53731250D02*
X424722500Y54566250D01*
X271472500Y71781250D02*
X271372500Y71681250D01*
X143735000Y53731250D02*
X143735000Y54566250D01*
X224587500Y93397500D02*
X224322500Y93662500D01*
X271472500Y73782250D02*
X271472500Y71781250D01*
X362810000Y15631250D02*
X362810000Y16466250D01*
X424722500Y54566250D02*
X424722500Y55297500D01*
X190510000Y35682250D02*
X190510000Y33681250D01*
X462712500Y55297500D02*
X462447500Y55562500D01*
X214322500Y71781250D02*
X214222500Y71681250D01*
X95260000Y35682250D02*
X95260000Y33681250D01*
X280997500Y121852500D02*
X280997500Y121407250D01*
X381860000Y15631250D02*
X381860000Y16466250D01*
X266710000Y36127500D02*
X266710000Y35682250D01*
X10385000Y53731250D02*
X10385000Y54566250D01*
X381010000Y121852500D02*
X381010000Y121407250D01*
X443772500Y17197500D02*
X443507500Y17462500D01*
X143735000Y55297500D02*
X143470000Y55562500D01*
X424722500Y17197500D02*
X424457500Y17462500D01*
X64203750Y33581250D02*
X63653750Y33581250D01*
X57160000Y73782250D02*
X57160000Y71781250D01*
X148497500Y139456250D02*
X148497500Y140291250D01*
X261847500Y119306250D02*
X261297500Y119306250D01*
%TO.N,27{slash}A1*%
X8487500Y139456250D02*
X7905750Y138874500D01*
X249586750Y136328161D02*
X249586750Y133413500D01*
X335184750Y125539500D02*
X334803750Y125158500D01*
X8775000Y139456250D02*
X8487500Y139456250D01*
X387762750Y137096500D02*
X387381750Y137477500D01*
X248564411Y137350500D02*
X249586750Y136328161D01*
X385730750Y137477500D02*
X385722836Y137485414D01*
X335946750Y137477500D02*
X335819750Y137477500D01*
X387381750Y137477500D02*
X385730750Y137477500D01*
X335819750Y137477500D02*
X335184750Y136842500D01*
X335184750Y136842500D02*
X335184750Y125539500D01*
%TO.N,21*%
X6985000Y128270000D02*
X6985000Y107632500D01*
X6985000Y107632500D02*
X6985000Y4445000D01*
%TO.N,20*%
X52355750Y47180500D02*
X56991250Y42545000D01*
X49847500Y66357500D02*
X54610000Y61595000D01*
X49847500Y106937750D02*
X49847500Y80645000D01*
X52355750Y59340750D02*
X52355750Y47180500D01*
X56991250Y28257500D02*
X61753750Y23495000D01*
X61753750Y4508500D02*
X61817250Y4445000D01*
X49942750Y107033000D02*
X49847500Y106937750D01*
X54610000Y61595000D02*
X52355750Y59340750D01*
X49847500Y80645000D02*
X49847500Y66357500D01*
X56991250Y42545000D02*
X56991250Y28257500D01*
X61753750Y23495000D02*
X61753750Y4508500D01*
%TO.N,18*%
X126047500Y71120000D02*
X135572500Y61595000D01*
X135572500Y47307500D02*
X140335000Y42545000D01*
X140335000Y42545000D02*
X140335000Y33020000D01*
X135572500Y61595000D02*
X135572500Y47307500D01*
X140335000Y33020000D02*
X149860000Y23495000D01*
X126047500Y80645000D02*
X126047500Y71120000D01*
X149860000Y4489450D02*
X149860000Y23495000D01*
X126047500Y106140250D02*
X126047500Y80645000D01*
X149891750Y4457700D02*
X149860000Y4489450D01*
X126047500Y128270000D02*
X126047500Y106140250D01*
%TO.N,15*%
X273685000Y42545000D02*
X273685000Y27169980D01*
X267429500Y133350000D02*
X265906250Y131826750D01*
X268922500Y61595000D02*
X268922500Y47307500D01*
X265906250Y114954651D02*
X260171599Y109220000D01*
X270010020Y23495000D02*
X264160000Y23495000D01*
X286479500Y133350000D02*
X285179989Y132050489D01*
X259397500Y104997250D02*
X259397500Y80645000D01*
X259397500Y71120000D02*
X268922500Y61595000D01*
X285179989Y115178390D02*
X279221599Y109220000D01*
X259397500Y109220000D02*
X259397500Y104997250D01*
X265906250Y131826750D02*
X265906250Y114954651D01*
X299878750Y23495000D02*
X299878750Y4508500D01*
X268922500Y47307500D02*
X273685000Y42545000D01*
X299878750Y4508500D02*
X299815250Y4445000D01*
X273685000Y27169980D02*
X270010020Y23495000D01*
X259397500Y80645000D02*
X259397500Y71120000D01*
X285179989Y132050489D02*
X285179989Y115178390D01*
%TO.N,1*%
X434396750Y92718014D02*
X434396750Y88406239D01*
X434396750Y88406239D02*
X434596250Y88206739D01*
X442203250Y106015200D02*
X442203250Y100524512D01*
X443566550Y107378500D02*
X442203250Y106015200D01*
X442203250Y100524512D02*
X434396750Y92718014D01*
%TO.N,8*%
X439403250Y106929971D02*
X439403250Y101684314D01*
X431596750Y93877814D02*
X431596750Y13633500D01*
X439553350Y107080071D02*
X439403250Y106929971D01*
X439553350Y107861100D02*
X439553350Y107080071D01*
X431596750Y13633500D02*
X431831750Y13398500D01*
X439403250Y101684314D02*
X431596750Y93877814D01*
%TO.N,7*%
X440102250Y107378500D02*
X440002750Y107279000D01*
X431996750Y93712128D02*
X431996750Y31252500D01*
X440002750Y106963785D02*
X439803250Y106764285D01*
X439803250Y101518628D02*
X431996750Y93712128D01*
X431996750Y31252500D02*
X432196250Y31053000D01*
X439803250Y106764285D02*
X439803250Y101518628D01*
X440002750Y107279000D02*
X440002750Y106963785D01*
%TO.N,2*%
X442966600Y107235750D02*
X441803250Y106072400D01*
X433996750Y70555261D02*
X434196250Y70355761D01*
X442966600Y107826050D02*
X442966600Y107235750D01*
X441803250Y106072400D02*
X441803250Y100690198D01*
X433996750Y92883700D02*
X433996750Y70555261D01*
X441803250Y100690198D02*
X433996750Y92883700D01*
%TO.N,14*%
X313461671Y59918329D02*
X313461671Y45269421D01*
X307022500Y80645000D02*
X307022500Y66357500D01*
X323056250Y114954651D02*
X317321599Y109220000D01*
X303917079Y114845829D02*
X298291250Y109220000D01*
X297497500Y109220000D02*
X297497500Y90170000D01*
X303917079Y131737579D02*
X303917079Y114845829D01*
X313461671Y45269421D02*
X310737250Y42545000D01*
X323056250Y131826750D02*
X323056250Y114954651D01*
X324579500Y133350000D02*
X323056250Y131826750D01*
X297497500Y90170000D02*
X307022500Y80645000D01*
X311785000Y61595000D02*
X313461671Y59918329D01*
X307022500Y66357500D02*
X311785000Y61595000D01*
X310737250Y42545000D02*
X304641250Y42545000D01*
X305529500Y133350000D02*
X303917079Y131737579D01*
%TO.N,12*%
X402272500Y61595000D02*
X402272500Y23495000D01*
X378460000Y128270000D02*
X378460000Y4445000D01*
%TO.N,11*%
X421322500Y80645000D02*
X421322500Y75342750D01*
X416464750Y80200500D02*
X421322500Y75342750D01*
X416464750Y103433000D02*
X416464750Y80200500D01*
X421322500Y75342750D02*
X421322500Y4445000D01*
%TO.N,10*%
X459422500Y80645000D02*
X459422500Y42545000D01*
X458082921Y97434671D02*
X458082921Y81984579D01*
X459422500Y42545000D02*
X467042500Y34925000D01*
X467042500Y34925000D02*
X467042500Y16510000D01*
X456470500Y133350000D02*
X458082921Y131737579D01*
X458082921Y81984579D02*
X459422500Y80645000D01*
X458082921Y131737579D02*
X458082921Y97434671D01*
%TO.N,9*%
X431196750Y94043500D02*
X431196750Y12011978D01*
X439003250Y101850000D02*
X431196750Y94043500D01*
X431196750Y12011978D02*
X431191511Y12006739D01*
X439003250Y107378500D02*
X439003250Y101850000D01*
%TO.N,6*%
X440203250Y101352942D02*
X432396750Y93546442D01*
X432396750Y32521000D02*
X432596250Y32321500D01*
X440645550Y106975992D02*
X440203250Y106533692D01*
X440203250Y106533692D02*
X440203250Y101352942D01*
X432396750Y93546442D02*
X432396750Y32521000D01*
X440645550Y107861100D02*
X440645550Y106975992D01*
%TO.N,5*%
X432796750Y50301000D02*
X432996250Y50101500D01*
X441204350Y106969106D02*
X440603250Y106368006D01*
X441204350Y107378500D02*
X441204350Y106969106D01*
X440603250Y101187256D02*
X432796750Y93380757D01*
X432796750Y93380757D02*
X432796750Y50301000D01*
X440603250Y106368006D02*
X440603250Y101187256D01*
%TO.N,13*%
X340360000Y128270000D02*
X340360000Y4445000D01*
X359410000Y61595000D02*
X359410000Y23495000D01*
%TO.N,3*%
X433596750Y93049386D02*
X433596750Y69356239D01*
X442321950Y107378500D02*
X442321950Y107058678D01*
X441403250Y106139978D02*
X441403250Y100855884D01*
X442321950Y107058678D02*
X441403250Y106139978D01*
X433596750Y69356239D02*
X433796250Y69156739D01*
X441403250Y100855884D02*
X433596750Y93049386D01*
%TO.N,Net-(RD1-Pad2)*%
X431726339Y116095161D02*
X431726339Y119084089D01*
X432188000Y115633500D02*
X431726339Y116095161D01*
X431726339Y119084089D02*
X432720750Y120078500D01*
%TO.N,Net-(RD2-Pad2)*%
X431326819Y114298701D02*
X431326819Y119700569D01*
X431326819Y119700569D02*
X431704750Y120078500D01*
X432186520Y113439000D02*
X431326819Y114298701D01*
%TO.N,24*%
X413849840Y125927239D02*
X414056601Y126134000D01*
X412553150Y126326900D02*
X412953121Y126326900D01*
X413352782Y125927239D02*
X413849840Y125927239D01*
X412546050Y126334000D02*
X412553150Y126326900D01*
X412953121Y126326900D02*
X413352782Y125927239D01*
X414056601Y126134000D02*
X414394442Y126134000D01*
X385095750Y135318500D02*
X385222750Y135191500D01*
X385095750Y136842500D02*
X385095750Y135318500D01*
X411789564Y126334000D02*
X412546050Y126334000D01*
X411589564Y126534000D02*
X411789564Y126334000D01*
%TO.N,16*%
X221297500Y71120000D02*
X221297500Y80645000D01*
X211772500Y128270000D02*
X211772500Y105378250D01*
X211772500Y105378250D02*
X211772500Y90170000D01*
X242728750Y4445000D02*
X242728750Y21113750D01*
X211772500Y90170000D02*
X221297500Y80645000D01*
X245110000Y23495000D02*
X235585000Y33020000D01*
X230822500Y61595000D02*
X221297500Y71120000D01*
X235585000Y42545000D02*
X230822500Y47307500D01*
X230822500Y47307500D02*
X230822500Y61595000D01*
X242728750Y21113750D02*
X245110000Y23495000D01*
X235585000Y33020000D02*
X235585000Y42545000D01*
%TO.N,17*%
X197485000Y33020000D02*
X207010000Y23495000D01*
X192722500Y47307500D02*
X197485000Y42545000D01*
X173672500Y128270000D02*
X173672500Y109220000D01*
X183197500Y80645000D02*
X183197500Y71120000D01*
X173672500Y109220000D02*
X173672500Y105759250D01*
X197485000Y42545000D02*
X197485000Y33020000D01*
X183197500Y71120000D02*
X192722500Y61595000D01*
X192722500Y61595000D02*
X192722500Y47307500D01*
X173672500Y105759250D02*
X173672500Y87788750D01*
X173672500Y87788750D02*
X180816250Y80645000D01*
X180816250Y80645000D02*
X183197500Y80645000D01*
%TO.N,0*%
X443554550Y106858500D02*
X442603250Y105907200D01*
X434796750Y92552326D02*
X434796750Y89681500D01*
X434796750Y89681500D02*
X435006750Y89471500D01*
X444176150Y107835700D02*
X444138750Y107798300D01*
X444138750Y107215308D02*
X443781942Y106858500D01*
X444138750Y107798300D02*
X444138750Y107215308D01*
X442603250Y105907200D02*
X442603250Y100358826D01*
X443781942Y106858500D02*
X443554550Y106858500D01*
X442603250Y100358826D02*
X434796750Y92552326D01*
%TO.N,~{RESET}*%
X424160950Y110350300D02*
X427640750Y106870500D01*
X408137750Y110354500D02*
X424156750Y110354500D01*
%TO.N,+3V3*%
X71062500Y93662500D02*
X71447500Y93277500D01*
X280787500Y92732250D02*
X280787500Y91281250D01*
X123835000Y54732250D02*
X123835000Y52731250D01*
X381860000Y121241250D02*
X381860000Y121972500D01*
X300897500Y120406250D02*
X300897500Y121241250D01*
X280787500Y91281250D02*
X280237500Y90731250D01*
X142500000Y55562500D02*
X142885000Y55177500D01*
X71447500Y92832250D02*
X71447500Y90831250D01*
X196122500Y121972500D02*
X195857500Y122237500D01*
X362810000Y121972500D02*
X362545000Y122237500D01*
X276235000Y54732250D02*
X276235000Y52731250D01*
X9425000Y140902500D02*
X9425000Y140368350D01*
X442922500Y16632250D02*
X442922500Y14631250D01*
X424722500Y35516250D02*
X424722500Y36247500D01*
X29435000Y72781250D02*
X29435000Y73616250D01*
X9535000Y52731250D02*
X9435000Y52631250D01*
X91347500Y121972500D02*
X91082500Y122237500D01*
X244893750Y17462500D02*
X245278750Y17077500D01*
X223637500Y93377500D02*
X223637500Y92732250D01*
X78491250Y14531250D02*
X77941250Y14531250D01*
X58010000Y74347500D02*
X57745000Y74612500D01*
X180885000Y52631250D02*
X180335000Y52631250D01*
X456956250Y18850000D02*
X456856250Y18950000D01*
X128387500Y92732250D02*
X128387500Y91281250D01*
X281847500Y121241250D02*
X281847500Y121972500D01*
X292903750Y16632250D02*
X292903750Y14631250D01*
X65153750Y34681250D02*
X65153750Y35516250D01*
X461762500Y93377500D02*
X461477500Y93662500D01*
X59541250Y54732250D02*
X59541250Y52731250D01*
X381010000Y138456250D02*
X380910000Y138356250D01*
X380800000Y93377500D02*
X380800000Y92795750D01*
X196122500Y73616250D02*
X196122500Y74347500D01*
X233372500Y140457250D02*
X233372500Y138456250D01*
X316716250Y17077500D02*
X316716250Y16632250D01*
X456856250Y18950000D02*
X454782250Y18950000D01*
X307191250Y54732250D02*
X307191250Y52731250D01*
X81822500Y74347500D02*
X81557500Y74612500D01*
X262797500Y121241250D02*
X262797500Y121862500D01*
X10385000Y73616250D02*
X10385000Y74347500D01*
X147437500Y91281250D02*
X146887500Y90731250D01*
X200035000Y52731250D02*
X199935000Y52631250D01*
X442922500Y55177500D02*
X442922500Y54732250D01*
X234222500Y74347500D02*
X233957500Y74612500D01*
X119922500Y72781250D02*
X119922500Y73616250D01*
X96110000Y36247500D02*
X95845000Y36512500D01*
X233372500Y138456250D02*
X233272500Y138356250D01*
X404822500Y54732250D02*
X404822500Y52731250D01*
X307191250Y55177500D02*
X307191250Y54732250D01*
X461803750Y55308500D02*
X461803750Y54673500D01*
X85350000Y55562500D02*
X85735000Y55177500D01*
X91347500Y121241250D02*
X91347500Y121972500D01*
X123735000Y52631250D02*
X123185000Y52631250D01*
X104785000Y54732250D02*
X104785000Y52731250D01*
X248510000Y34681250D02*
X248510000Y35516250D01*
X245278750Y16632250D02*
X245278750Y14631250D01*
X442427500Y93662500D02*
X442712500Y93377500D01*
X161935000Y52731250D02*
X161835000Y52631250D01*
X58010000Y72781250D02*
X58010000Y73616250D01*
X52397500Y92832250D02*
X52397500Y90831250D01*
X343760000Y72781250D02*
X343760000Y73616250D01*
X204037500Y90731250D02*
X204587500Y91281250D01*
X342910000Y16632250D02*
X342910000Y14631250D01*
X176222500Y140457250D02*
X176222500Y138456250D01*
X233372500Y140902500D02*
X233372500Y140457250D01*
X109429550Y140398500D02*
X109437500Y140390550D01*
X102303750Y14531250D02*
X101753750Y14531250D01*
X272322500Y74347500D02*
X272057500Y74612500D01*
X242402500Y93662500D02*
X242687500Y93377500D01*
X361860000Y138356250D02*
X361310000Y138356250D01*
X115160000Y34681250D02*
X115160000Y35516250D01*
X309077500Y93662500D02*
X309362500Y93377500D01*
X161935000Y55177500D02*
X161935000Y54732250D01*
X85735000Y55177500D02*
X85735000Y54732250D01*
X342525000Y17462500D02*
X342910000Y17077500D01*
X342910000Y14631250D02*
X342810000Y14531250D01*
X142885000Y52731250D02*
X142785000Y52631250D01*
X28200000Y55562500D02*
X28585000Y55177500D01*
X267560000Y36247500D02*
X267295000Y36512500D01*
X185252500Y93662500D02*
X185537500Y93377500D01*
X28485000Y52631250D02*
X27935000Y52631250D01*
X81822500Y73616250D02*
X81822500Y74347500D01*
X138972500Y73616250D02*
X138972500Y74347500D01*
X443772500Y34681250D02*
X443772500Y35516250D01*
X362810000Y72781250D02*
X362810000Y73616250D01*
X381010000Y17077500D02*
X381010000Y16632250D01*
X173841250Y14631250D02*
X173741250Y14531250D01*
X194887500Y141287500D02*
X195272500Y140902500D01*
X307091250Y52631250D02*
X306541250Y52631250D01*
X128597500Y140902500D02*
X128597500Y140457250D01*
X100872500Y74347500D02*
X100607500Y74612500D01*
X257085000Y52631250D02*
X256535000Y52631250D01*
X10385000Y35516250D02*
X10385000Y36247500D01*
X362810000Y36247500D02*
X362545000Y36512500D01*
X404822500Y52731250D02*
X404722500Y52631250D01*
X147647500Y140457250D02*
X147647500Y138456250D01*
X424722500Y36247500D02*
X424457500Y36512500D01*
X342804750Y93272750D02*
X342804750Y92773500D01*
X54393750Y17462500D02*
X54778750Y17077500D01*
X102403750Y17077500D02*
X102403750Y16632250D01*
X196122500Y72781250D02*
X196122500Y73616250D01*
X404722500Y14531250D02*
X404172500Y14531250D01*
X109429550Y141020450D02*
X109162500Y141287500D01*
X177072500Y72781250D02*
X177072500Y73616250D01*
X29435000Y73616250D02*
X29435000Y74347500D01*
X461803750Y54673500D02*
X461803750Y53222500D01*
X54778750Y14631250D02*
X54678750Y14531250D01*
X200035000Y55177500D02*
X200035000Y54732250D01*
X153260000Y35516250D02*
X153260000Y36247500D01*
X253272500Y72781250D02*
X253272500Y73616250D01*
X85735000Y52731250D02*
X85635000Y52631250D01*
X85635000Y52631250D02*
X85085000Y52631250D01*
X29435000Y74347500D02*
X29170000Y74612500D01*
X229460000Y36247500D02*
X229195000Y36512500D01*
X109447500Y90731250D02*
X108897500Y90731250D01*
X462822500Y72781250D02*
X462822500Y73616250D01*
X303278750Y36247500D02*
X303013750Y36512500D01*
X214322500Y140902500D02*
X214322500Y140457250D01*
X380800000Y92795750D02*
X380800000Y91281250D01*
X342667500Y90731250D02*
X342150000Y90731250D01*
X9535000Y93277500D02*
X9535000Y92832250D01*
X29435000Y35516250D02*
X29435000Y36247500D01*
X238135000Y55177500D02*
X238135000Y54732250D01*
X29435000Y34681250D02*
X29435000Y35516250D01*
X9435000Y14531250D02*
X8885000Y14531250D01*
X234222500Y72781250D02*
X234222500Y73616250D01*
X423772500Y52631250D02*
X423222500Y52631250D01*
X219085000Y54732250D02*
X219085000Y52731250D01*
X269091250Y16632250D02*
X269091250Y14631250D01*
X381010000Y16632250D02*
X381010000Y14631250D01*
X96110000Y35516250D02*
X96110000Y36247500D01*
X142885000Y54732250D02*
X142885000Y52731250D01*
X303278750Y35516250D02*
X303278750Y36247500D01*
X342810000Y138356250D02*
X342260000Y138356250D01*
X81822500Y72781250D02*
X81822500Y73616250D01*
X404612500Y91281250D02*
X404062500Y90731250D01*
X29435000Y36247500D02*
X29170000Y36512500D01*
X71447500Y90831250D02*
X71347500Y90731250D01*
X276135000Y52631250D02*
X275585000Y52631250D01*
X443772500Y73616250D02*
X443772500Y74347500D01*
X9535000Y54732250D02*
X9535000Y52731250D01*
X9535000Y14631250D02*
X9435000Y14531250D01*
X54678750Y14531250D02*
X54128750Y14531250D01*
X213937500Y141287500D02*
X214322500Y140902500D01*
X253272500Y73616250D02*
X253272500Y74347500D01*
X129447500Y120406250D02*
X129447500Y121241250D01*
X342810000Y14531250D02*
X342260000Y14531250D01*
X166202500Y93662500D02*
X166487500Y93377500D01*
X267560000Y34681250D02*
X267560000Y35516250D01*
X177072500Y121241250D02*
X177072500Y121972500D01*
X380515000Y93662500D02*
X380800000Y93377500D01*
X65153750Y35516250D02*
X65153750Y36247500D01*
X214222500Y138356250D02*
X213672500Y138356250D01*
X245278750Y17077500D02*
X245278750Y16632250D01*
X229460000Y34681250D02*
X229460000Y35516250D01*
X307191250Y52731250D02*
X307091250Y52631250D01*
X115160000Y35516250D02*
X115160000Y36247500D01*
X424722500Y34681250D02*
X424722500Y35516250D01*
X461762500Y92732250D02*
X461762500Y93377500D01*
X461477500Y55562500D02*
X461549750Y55562500D01*
X59541250Y52731250D02*
X59441250Y52631250D01*
X123835000Y55177500D02*
X123835000Y54732250D01*
X404437500Y55562500D02*
X404822500Y55177500D01*
X342910000Y138456250D02*
X342810000Y138356250D01*
X267560000Y35516250D02*
X267560000Y36247500D01*
X343760000Y121972500D02*
X343495000Y122237500D01*
X210410000Y34681250D02*
X210410000Y35516250D01*
X280502500Y93662500D02*
X280787500Y93377500D01*
X180600000Y55562500D02*
X180985000Y55177500D01*
X180985000Y52731250D02*
X180885000Y52631250D01*
X342415000Y93662500D02*
X342804750Y93272750D01*
X147437500Y92732250D02*
X147437500Y91281250D01*
X461212500Y90731250D02*
X461762500Y91281250D01*
X232987500Y141287500D02*
X233372500Y140902500D01*
X362810000Y120406250D02*
X362810000Y121241250D01*
X153260000Y34681250D02*
X153260000Y35516250D01*
X129447500Y121972500D02*
X129182500Y122237500D01*
X442822500Y52631250D02*
X442272500Y52631250D01*
X28485000Y90731250D02*
X27935000Y90731250D01*
X234222500Y121241250D02*
X234222500Y121862500D01*
X52397500Y90831250D02*
X52297500Y90731250D01*
X404722500Y52631250D02*
X404172500Y52631250D01*
X237750000Y55562500D02*
X238135000Y55177500D01*
X173741250Y14531250D02*
X173191250Y14531250D01*
X233272500Y138356250D02*
X232722500Y138356250D01*
X176222500Y140902500D02*
X176222500Y140457250D01*
X10385000Y34681250D02*
X10385000Y35516250D01*
X319947500Y121241250D02*
X319947500Y121972500D01*
X128387500Y91281250D02*
X127837500Y90731250D01*
X65153750Y36247500D02*
X64888750Y36512500D01*
X109437500Y140390550D02*
X109437500Y138896250D01*
X90387500Y140457250D02*
X90387500Y138456250D01*
X442922500Y17077500D02*
X442922500Y16632250D01*
X28200000Y17462500D02*
X28585000Y17077500D01*
X292803750Y14531250D02*
X292253750Y14531250D01*
X343760000Y73616250D02*
X343760000Y74347500D01*
X102403750Y14631250D02*
X102303750Y14531250D01*
X405672500Y72781250D02*
X405672500Y73616250D01*
X343760000Y121241250D02*
X343760000Y121972500D01*
X52297500Y90731250D02*
X51747500Y90731250D01*
X381860000Y72781250D02*
X381860000Y73616250D01*
X9425000Y138456250D02*
X9325000Y138356250D01*
X147647500Y140902500D02*
X147647500Y140457250D01*
X28585000Y90831250D02*
X28485000Y90731250D01*
X9535000Y16632250D02*
X9535000Y14631250D01*
X90497500Y90831250D02*
X90397500Y90731250D01*
X90112500Y93662500D02*
X90497500Y93277500D01*
X315185000Y74347500D02*
X314920000Y74612500D01*
X180985000Y54732250D02*
X180985000Y52731250D01*
X442712500Y92732250D02*
X442712500Y91281250D01*
X138972500Y74347500D02*
X138707500Y74612500D01*
X309362500Y92732250D02*
X309362500Y91281250D01*
X462822500Y73616250D02*
X462822500Y74347500D01*
X275850000Y55562500D02*
X276235000Y55177500D01*
X210410000Y35516250D02*
X210410000Y36247500D01*
X28585000Y55177500D02*
X28585000Y54732250D01*
X175837500Y141287500D02*
X176222500Y140902500D01*
X177072500Y73616250D02*
X177072500Y74347500D01*
X361860000Y14531250D02*
X361310000Y14531250D01*
X456956250Y18300000D02*
X456956250Y18850000D01*
X214322500Y140457250D02*
X214322500Y138456250D01*
X109547500Y90831250D02*
X109447500Y90731250D01*
X238135000Y52731250D02*
X238035000Y52631250D01*
X405672500Y36247500D02*
X405407500Y36512500D01*
X461762500Y91281250D02*
X461762500Y92732250D01*
X276235000Y55177500D02*
X276235000Y54732250D01*
X59441250Y52631250D02*
X58891250Y52631250D01*
X381860000Y121972500D02*
X381595000Y122237500D01*
X196122500Y74347500D02*
X195857500Y74612500D01*
X199650000Y55562500D02*
X200035000Y55177500D01*
X204587500Y92732250D02*
X204587500Y93377500D01*
X204587500Y91281250D02*
X204587500Y92732250D01*
X90497500Y93277500D02*
X90497500Y92832250D01*
X9535000Y90831250D02*
X9435000Y90731250D01*
X306806250Y55562500D02*
X307191250Y55177500D01*
X9150000Y55562500D02*
X9535000Y55177500D01*
X59156250Y55562500D02*
X59541250Y55177500D01*
X185537500Y92732250D02*
X185537500Y91281250D01*
X196122500Y121241250D02*
X196122500Y121972500D01*
X315185000Y72781250D02*
X315185000Y73616250D01*
X9150000Y93662500D02*
X9535000Y93277500D01*
X9535000Y55177500D02*
X9535000Y54732250D01*
X215172500Y121241250D02*
X215172500Y121972500D01*
X9435000Y52631250D02*
X8885000Y52631250D01*
X443772500Y72781250D02*
X443772500Y73616250D01*
X248510000Y35516250D02*
X248510000Y36247500D01*
X361960000Y17077500D02*
X361960000Y16632250D01*
X442922500Y54732250D02*
X442922500Y52731250D01*
X90002500Y141287500D02*
X90387500Y140902500D01*
X256800000Y55562500D02*
X257185000Y55177500D01*
X292518750Y17462500D02*
X292903750Y17077500D01*
X234222500Y73616250D02*
X234222500Y74347500D01*
X257185000Y52731250D02*
X257085000Y52631250D01*
X423872500Y16632250D02*
X423872500Y14631250D01*
X404822500Y16632250D02*
X404822500Y14631250D01*
X257185000Y54732250D02*
X257185000Y52731250D01*
X245178750Y14531250D02*
X244628750Y14531250D01*
X261452500Y93662500D02*
X261737500Y93377500D01*
X292903750Y14631250D02*
X292803750Y14531250D01*
X115160000Y36247500D02*
X114895000Y36512500D01*
X128597500Y140457250D02*
X128597500Y138456250D01*
X223637500Y91281250D02*
X223087500Y90731250D01*
X405672500Y74347500D02*
X405407500Y74612500D01*
X104400000Y55562500D02*
X104785000Y55177500D01*
X229460000Y35516250D02*
X229460000Y36247500D01*
X78591250Y17077500D02*
X78591250Y16632250D01*
X342910000Y17077500D02*
X342910000Y16632250D01*
X110397500Y120406250D02*
X110397500Y121241250D01*
X223637500Y92732250D02*
X223637500Y91281250D01*
X361750000Y91281250D02*
X361200000Y90731250D01*
X361465000Y93662500D02*
X361750000Y93377500D01*
X109547500Y92832250D02*
X109547500Y90831250D01*
X166487500Y93377500D02*
X166487500Y92732250D01*
X180985000Y55177500D02*
X180985000Y54732250D01*
X172310000Y34681250D02*
X172310000Y35516250D01*
X54778750Y16632250D02*
X54778750Y14631250D01*
X281847500Y121972500D02*
X281582500Y122237500D01*
X147262500Y141287500D02*
X147647500Y140902500D01*
X52012500Y93662500D02*
X52397500Y93277500D01*
X423872500Y52731250D02*
X423772500Y52631250D01*
X195272500Y140902500D02*
X195272500Y140457250D01*
X257185000Y55177500D02*
X257185000Y54732250D01*
X91347500Y120406250D02*
X91347500Y121241250D01*
X361750000Y93377500D02*
X361750000Y92795750D01*
X90397500Y90731250D02*
X89847500Y90731250D01*
X9535000Y92832250D02*
X9535000Y90831250D01*
X343760000Y74347500D02*
X343495000Y74612500D01*
X54778750Y17077500D02*
X54778750Y16632250D01*
X291372500Y73616250D02*
X291372500Y74347500D01*
X177072500Y121972500D02*
X176807500Y122237500D01*
X404612500Y92732250D02*
X404612500Y91281250D01*
X123450000Y55562500D02*
X123835000Y55177500D01*
X442537500Y55562500D02*
X442922500Y55177500D01*
X191360000Y34681250D02*
X191360000Y35516250D01*
X129447500Y121241250D02*
X129447500Y121972500D01*
X214322500Y138456250D02*
X214222500Y138356250D01*
X291372500Y72781250D02*
X291372500Y73616250D01*
X204587500Y93377500D02*
X204302500Y93662500D01*
X381860000Y73616250D02*
X381860000Y74347500D01*
X291372500Y74347500D02*
X291107500Y74612500D01*
X362810000Y121241250D02*
X362810000Y121972500D01*
X110397500Y121241250D02*
X110397500Y121972500D01*
X361575000Y141287500D02*
X361960000Y140902500D01*
X100872500Y72781250D02*
X100872500Y73616250D01*
X316616250Y14531250D02*
X316066250Y14531250D01*
X78591250Y16632250D02*
X78591250Y14631250D01*
X161550000Y55562500D02*
X161935000Y55177500D01*
X28585000Y93277500D02*
X28585000Y92832250D01*
X96110000Y34681250D02*
X96110000Y35516250D01*
X423872500Y55177500D02*
X423872500Y54732250D01*
X134210000Y34681250D02*
X134210000Y35516250D01*
X110397500Y121972500D02*
X110132500Y122237500D01*
X28485000Y14531250D02*
X27935000Y14531250D01*
X424722500Y74347500D02*
X424457500Y74612500D01*
X196122500Y120406250D02*
X196122500Y121241250D01*
X78591250Y14631250D02*
X78491250Y14531250D01*
X442922500Y52731250D02*
X442822500Y52631250D01*
X242687500Y92732250D02*
X242687500Y91281250D01*
X381010000Y140457250D02*
X381010000Y138456250D01*
X195272500Y138456250D02*
X195172500Y138356250D01*
X423487500Y17462500D02*
X423872500Y17077500D01*
X238035000Y52631250D02*
X237485000Y52631250D01*
X90287500Y138356250D02*
X89737500Y138356250D01*
X423377500Y93662500D02*
X423662500Y93377500D01*
X269091250Y14631250D02*
X268991250Y14531250D01*
X280787500Y93377500D02*
X280787500Y92732250D01*
X199935000Y52631250D02*
X199385000Y52631250D01*
X90387500Y140902500D02*
X90387500Y140457250D01*
X404822500Y55177500D02*
X404822500Y54732250D01*
X219085000Y52731250D02*
X218985000Y52631250D01*
X215172500Y73616250D02*
X215172500Y74347500D01*
X148497500Y121241250D02*
X148497500Y121972500D01*
X153260000Y36247500D02*
X152995000Y36512500D01*
X172310000Y36247500D02*
X172045000Y36512500D01*
X109429550Y140398500D02*
X109429550Y141020450D01*
X443772500Y74347500D02*
X443507500Y74612500D01*
X161835000Y52631250D02*
X161285000Y52631250D01*
X28585000Y16632250D02*
X28585000Y14631250D01*
X147647500Y138456250D02*
X147547500Y138356250D01*
X245278750Y14631250D02*
X245178750Y14531250D01*
X195272500Y140457250D02*
X195272500Y138456250D01*
X443772500Y36247500D02*
X443507500Y36512500D01*
X109437500Y138896250D02*
X108897500Y138356250D01*
X362810000Y73616250D02*
X362810000Y74347500D01*
X128102500Y93662500D02*
X128387500Y93377500D01*
X381860000Y120406250D02*
X381860000Y121241250D01*
X176122500Y138356250D02*
X175572500Y138356250D01*
X158022500Y74347500D02*
X157757500Y74612500D01*
X102403750Y16632250D02*
X102403750Y14631250D01*
X28200000Y93662500D02*
X28585000Y93277500D01*
X276235000Y52731250D02*
X276135000Y52631250D01*
X104785000Y52731250D02*
X104685000Y52631250D01*
X147547500Y138356250D02*
X146997500Y138356250D01*
X9325000Y138356250D02*
X8775000Y138356250D01*
X404612500Y93377500D02*
X404612500Y92732250D01*
X424722500Y73616250D02*
X424722500Y74347500D01*
X109162500Y93662500D02*
X109547500Y93277500D01*
X9040000Y141287500D02*
X9425000Y140902500D01*
X158022500Y73616250D02*
X158022500Y74347500D01*
X404327500Y93662500D02*
X404612500Y93377500D01*
X109547500Y93277500D02*
X109547500Y92832250D01*
X28585000Y17077500D02*
X28585000Y16632250D01*
X443772500Y35516250D02*
X443772500Y36247500D01*
X281847500Y120406250D02*
X281847500Y121241250D01*
X423872500Y54732250D02*
X423872500Y52731250D01*
X423662500Y91281250D02*
X423112500Y90731250D01*
X316716250Y14631250D02*
X316616250Y14531250D01*
X90497500Y92832250D02*
X90497500Y90831250D01*
X342804750Y90868500D02*
X342667500Y90731250D01*
X128212500Y141287500D02*
X128597500Y140902500D01*
X28585000Y92832250D02*
X28585000Y90831250D01*
X28585000Y52731250D02*
X28485000Y52631250D01*
X423772500Y14531250D02*
X423222500Y14531250D01*
X404822500Y17077500D02*
X404822500Y16632250D01*
X59541250Y55177500D02*
X59541250Y54732250D01*
X158022500Y72781250D02*
X158022500Y73616250D01*
X424722500Y72781250D02*
X424722500Y73616250D01*
X380800000Y91281250D02*
X380250000Y90731250D01*
X234222500Y120406250D02*
X234222500Y121241250D01*
X381860000Y74347500D02*
X381595000Y74612500D01*
X58010000Y73616250D02*
X58010000Y74347500D01*
X423487500Y55562500D02*
X423872500Y55177500D01*
X404437500Y17462500D02*
X404822500Y17077500D01*
X315185000Y73616250D02*
X315185000Y74347500D01*
X71347500Y90731250D02*
X70797500Y90731250D01*
X52397500Y93277500D02*
X52397500Y92832250D01*
X262797500Y120406250D02*
X262797500Y121241250D01*
X362810000Y35516250D02*
X362810000Y36247500D01*
X362810000Y34681250D02*
X362810000Y35516250D01*
X319947500Y121972500D02*
X319682500Y122237500D01*
X176222500Y138456250D02*
X176122500Y138356250D01*
X166487500Y92732250D02*
X166487500Y91281250D01*
X147437500Y93377500D02*
X147437500Y92732250D01*
X423872500Y14631250D02*
X423772500Y14531250D01*
X362810000Y74347500D02*
X362545000Y74612500D01*
X9150000Y17462500D02*
X9535000Y17077500D01*
X100872500Y73616250D02*
X100872500Y74347500D01*
X191360000Y35516250D02*
X191360000Y36247500D01*
X405672500Y35516250D02*
X405672500Y36247500D01*
X342910000Y140902500D02*
X342910000Y140457250D01*
X85735000Y54732250D02*
X85735000Y52731250D01*
X342804750Y92773500D02*
X342804750Y90868500D01*
X261737500Y92859250D02*
X261737500Y91281250D01*
X215172500Y74347500D02*
X214907500Y74612500D01*
X380910000Y14531250D02*
X380360000Y14531250D01*
X173456250Y17462500D02*
X173841250Y17077500D01*
X185537500Y93377500D02*
X185537500Y92732250D01*
X454782250Y18950000D02*
X454410000Y18950000D01*
X215172500Y72781250D02*
X215172500Y73616250D01*
X218985000Y52631250D02*
X218435000Y52631250D01*
X185537500Y91281250D02*
X184987500Y90731250D01*
X219085000Y55177500D02*
X219085000Y54732250D01*
X148497500Y121972500D02*
X148232500Y122237500D01*
X404822500Y14631250D02*
X404722500Y14531250D01*
X119922500Y74347500D02*
X119657500Y74612500D01*
X380625000Y17462500D02*
X381010000Y17077500D01*
X269091250Y17077500D02*
X269091250Y16632250D01*
X261737500Y93377500D02*
X261737500Y92859250D01*
X423662500Y92859250D02*
X423662500Y91281250D01*
X300897500Y121241250D02*
X300897500Y121972500D01*
X10385000Y72781250D02*
X10385000Y73616250D01*
X195172500Y138356250D02*
X194622500Y138356250D01*
X10385000Y36247500D02*
X10120000Y36512500D01*
X147152500Y93662500D02*
X147437500Y93377500D01*
X210410000Y36247500D02*
X210145000Y36512500D01*
X462822500Y74347500D02*
X462557500Y74612500D01*
X442712500Y93377500D02*
X442712500Y92732250D01*
X380910000Y138356250D02*
X380360000Y138356250D01*
X191360000Y36247500D02*
X191095000Y36512500D01*
X442822500Y14531250D02*
X442272500Y14531250D01*
X9425000Y140368350D02*
X9425000Y138456250D01*
X28585000Y54732250D02*
X28585000Y52731250D01*
X261737500Y91281250D02*
X261187500Y90731250D01*
X123835000Y52731250D02*
X123735000Y52631250D01*
X104785000Y55177500D02*
X104785000Y54732250D01*
X215172500Y120406250D02*
X215172500Y121241250D01*
X361960000Y140457250D02*
X361960000Y138456250D01*
X343760000Y120406250D02*
X343760000Y121241250D01*
X405672500Y73616250D02*
X405672500Y74347500D01*
X28585000Y14631250D02*
X28485000Y14531250D01*
X9535000Y17077500D02*
X9535000Y16632250D01*
X177072500Y74347500D02*
X176807500Y74612500D01*
X361960000Y140902500D02*
X361960000Y140457250D01*
X134210000Y36247500D02*
X133945000Y36512500D01*
X454410000Y18950000D02*
X454025000Y18565000D01*
X292903750Y17077500D02*
X292903750Y16632250D01*
X316716250Y16632250D02*
X316716250Y14631250D01*
X223352500Y93662500D02*
X223637500Y93377500D01*
X161935000Y54732250D02*
X161935000Y52731250D01*
X272322500Y72781250D02*
X272322500Y73616250D01*
X10385000Y74347500D02*
X10120000Y74612500D01*
X300897500Y121972500D02*
X300632500Y122237500D01*
X128497500Y138356250D02*
X127947500Y138356250D01*
X361575000Y17462500D02*
X361960000Y17077500D01*
X242687500Y91281250D02*
X242137500Y90731250D01*
X381010000Y14631250D02*
X380910000Y14531250D01*
X78206250Y17462500D02*
X78591250Y17077500D01*
X442922500Y14631250D02*
X442822500Y14531250D01*
X380625000Y141287500D02*
X381010000Y140902500D01*
X148497500Y120406250D02*
X148497500Y121241250D01*
X461549750Y55562500D02*
X461803750Y55308500D01*
X238135000Y54732250D02*
X238135000Y52731250D01*
X71447500Y93277500D02*
X71447500Y92832250D01*
X461803750Y53222500D02*
X461212500Y52631250D01*
X316331250Y17462500D02*
X316716250Y17077500D01*
X119922500Y73616250D02*
X119922500Y74347500D01*
X234222500Y121862500D02*
X233847500Y122237500D01*
X177072500Y120406250D02*
X177072500Y121241250D01*
X200035000Y54732250D02*
X200035000Y52731250D01*
X381010000Y140902500D02*
X381010000Y140457250D01*
X128597500Y138456250D02*
X128497500Y138356250D01*
X173841250Y17077500D02*
X173841250Y16632250D01*
X253272500Y74347500D02*
X253007500Y74612500D01*
X142785000Y52631250D02*
X142235000Y52631250D01*
X142885000Y55177500D02*
X142885000Y54732250D01*
X104685000Y52631250D02*
X104135000Y52631250D01*
X361750000Y92795750D02*
X361750000Y91281250D01*
X218700000Y55562500D02*
X219085000Y55177500D01*
X361960000Y14631250D02*
X361860000Y14531250D01*
X215172500Y121972500D02*
X214907500Y122237500D01*
X90387500Y138456250D02*
X90287500Y138356250D01*
X138972500Y72781250D02*
X138972500Y73616250D01*
X303278750Y34681250D02*
X303278750Y35516250D01*
X309362500Y91281250D02*
X308812500Y90731250D01*
X128387500Y93377500D02*
X128387500Y92732250D01*
X405672500Y34681250D02*
X405672500Y35516250D01*
X272322500Y73616250D02*
X272322500Y74347500D01*
X361960000Y138456250D02*
X361860000Y138356250D01*
X102018750Y17462500D02*
X102403750Y17077500D01*
X172310000Y35516250D02*
X172310000Y36247500D01*
X268706250Y17462500D02*
X269091250Y17077500D01*
X166487500Y91281250D02*
X165937500Y90731250D01*
X442537500Y17462500D02*
X442922500Y17077500D01*
X442712500Y91281250D02*
X442162500Y90731250D01*
X242687500Y93377500D02*
X242687500Y92732250D01*
X319947500Y120406250D02*
X319947500Y121241250D01*
X268991250Y14531250D02*
X268441250Y14531250D01*
X342525000Y141287500D02*
X342910000Y140902500D01*
X134210000Y35516250D02*
X134210000Y36247500D01*
X423872500Y17077500D02*
X423872500Y16632250D01*
X248510000Y36247500D02*
X248245000Y36512500D01*
X173841250Y16632250D02*
X173841250Y14631250D01*
X342910000Y140457250D02*
X342910000Y138456250D01*
X423662500Y93377500D02*
X423662500Y92859250D01*
X262797500Y121862500D02*
X262422500Y122237500D01*
X9435000Y90731250D02*
X8885000Y90731250D01*
X361960000Y16632250D02*
X361960000Y14631250D01*
X309362500Y93377500D02*
X309362500Y92732250D01*
%TO.N,25*%
X413194550Y126934000D02*
X413601311Y126527239D01*
X412299150Y126934000D02*
X413194550Y126934000D01*
%TO.N,4*%
X441763150Y107835700D02*
X441763150Y106997500D01*
X441003250Y106237600D02*
X441003250Y101021570D01*
X433196750Y93215072D02*
X433196750Y51505261D01*
X441003250Y101021570D02*
X433196750Y93215072D01*
X433196750Y51505261D02*
X433396250Y51305761D01*
X441763150Y106997500D02*
X441003250Y106237600D01*
%TO.N,19*%
X111760000Y4552950D02*
X111760000Y23495000D01*
X87947500Y128270000D02*
X87947500Y106521250D01*
X97472500Y47307500D02*
X102235000Y42545000D01*
X97472500Y61595000D02*
X97472500Y47307500D01*
X87947500Y106521250D02*
X87947500Y80645000D01*
X87947500Y71120000D02*
X97472500Y61595000D01*
X102235000Y42545000D02*
X102235000Y33020000D01*
X102235000Y33020000D02*
X111760000Y23495000D01*
X111715550Y4508500D02*
X111760000Y4552950D01*
X87947500Y80645000D02*
X87947500Y71120000D01*
%TO.N,Net-(LD1-Pad1)*%
X88106250Y138906250D02*
X88656250Y139456250D01*
X11356250Y138356250D02*
X11906250Y138906250D01*
X88656250Y139456250D02*
X89737500Y139456250D01*
X10275000Y138356250D02*
X11356250Y138356250D01*
%TO.N,Net-(LD2-Pad1)*%
X107706250Y139456250D02*
X108787500Y139456250D01*
X92318750Y138356250D02*
X92868750Y138906250D01*
X107156250Y138906250D02*
X107706250Y139456250D01*
X91237500Y138356250D02*
X92318750Y138356250D01*
%TO.N,Net-(LD3-Pad1)*%
X111368750Y138356250D02*
X111918750Y138906250D01*
X126756250Y139456250D02*
X127837500Y139456250D01*
X126206250Y138906250D02*
X126756250Y139456250D01*
X110287500Y138356250D02*
X111368750Y138356250D01*
%TO.N,Net-(LD4-Pad1)*%
X129337500Y138356250D02*
X130418750Y138356250D01*
X145806250Y139456250D02*
X145256250Y138906250D01*
X146887500Y139456250D02*
X145806250Y139456250D01*
X130418750Y138356250D02*
X130968750Y138906250D01*
%TO.N,Net-(LD5-Pad1)*%
X174381250Y139456250D02*
X175462500Y139456250D01*
X148387500Y138356250D02*
X149468750Y138356250D01*
X173831250Y138906250D02*
X174381250Y139456250D01*
X149468750Y138356250D02*
X150018750Y138906250D01*
%TO.N,Net-(LD6-Pad1)*%
X176962500Y138356250D02*
X178043750Y138356250D01*
X178043750Y138356250D02*
X178593750Y138906250D01*
X192881250Y138906250D02*
X193431250Y139456250D01*
X193431250Y139456250D02*
X194512500Y139456250D01*
%TO.N,Net-(LD7-Pad1)*%
X212481250Y139456250D02*
X213562500Y139456250D01*
X196012500Y138356250D02*
X197093750Y138356250D01*
X211931250Y138906250D02*
X212481250Y139456250D01*
X197093750Y138356250D02*
X197643750Y138906250D01*
%TO.N,Net-(LD8-Pad1)*%
X231531250Y139456250D02*
X232612500Y139456250D01*
X230981250Y138906250D02*
X231531250Y139456250D01*
X216143750Y138356250D02*
X216693750Y138906250D01*
X215062500Y138356250D02*
X216143750Y138356250D01*
%TO.N,Net-(LD10-Pad3)*%
X250106750Y138354500D02*
X250106750Y132064200D01*
X249586750Y138874500D02*
X250106750Y138354500D01*
X341068750Y139456250D02*
X340672786Y139060286D01*
X250106750Y132064200D02*
X250059050Y132016500D01*
X326167750Y137731500D02*
X326548750Y138112500D01*
X325913750Y124650500D02*
X326167750Y124904500D01*
X342150000Y139456250D02*
X341068750Y139456250D01*
X234112500Y138356250D02*
X235193750Y138356250D01*
X326167750Y124904500D02*
X326167750Y137731500D01*
X235193750Y138356250D02*
X235743750Y138906250D01*
%TO.N,Net-(LD10-Pad1)*%
X359568750Y138906250D02*
X360118750Y139456250D01*
X343650000Y138356250D02*
X344731250Y138356250D01*
X344731250Y138356250D02*
X345281250Y138906250D01*
X360118750Y139456250D02*
X361200000Y139456250D01*
%TO.N,Net-(LD11-Pad1)*%
X379168750Y139456250D02*
X380250000Y139456250D01*
X378618750Y138906250D02*
X379168750Y139456250D01*
X362700000Y138356250D02*
X363781250Y138356250D01*
X363781250Y138356250D02*
X364331250Y138906250D01*
%TO.N,Net-(LD12-Pad1)*%
X381750000Y119306250D02*
X382522890Y119306250D01*
X382522890Y119306250D02*
X383227070Y120010430D01*
X383381250Y136725000D02*
X383381250Y132547110D01*
X383381250Y132547110D02*
X383227070Y132392930D01*
X381750000Y138356250D02*
X383381250Y136725000D01*
X383227070Y132392930D02*
X383227070Y120010430D01*
%TO.N,Net-(LD13-Pad1)*%
X89737500Y120406250D02*
X89097000Y120406250D01*
X89097000Y120406250D02*
X88547000Y119856250D01*
X8775000Y91831250D02*
X7584500Y93021750D01*
X7584500Y93021750D02*
X7584500Y117475000D01*
%TO.N,Net-(LD13-Pad3)*%
X92318750Y119306250D02*
X91237500Y119306250D01*
X108787500Y120406250D02*
X107706250Y120406250D01*
X92868750Y119856250D02*
X92318750Y119306250D01*
X107706250Y120406250D02*
X107156250Y119856250D01*
%TO.N,Net-(LD14-Pad3)*%
X111368750Y119306250D02*
X110287500Y119306250D01*
X127837500Y120406250D02*
X127197000Y120406250D01*
X111918750Y119856250D02*
X111368750Y119306250D01*
X127197000Y120406250D02*
X126647000Y119856250D01*
%TO.N,Net-(LD15-Pad3)*%
X146887500Y120406250D02*
X145806250Y120406250D01*
X130418750Y119306250D02*
X130968750Y119856250D01*
X129337500Y119306250D02*
X130418750Y119306250D01*
X145806250Y120406250D02*
X145256250Y119856250D01*
%TO.N,Net-(LD16-Pad3)*%
X149468750Y119306250D02*
X148387500Y119306250D01*
X175462500Y120406250D02*
X174822000Y120406250D01*
X174822000Y120406250D02*
X174272000Y119856250D01*
X150018750Y119856250D02*
X149468750Y119306250D01*
%TO.N,Net-(LD17-Pad3)*%
X178593750Y119856250D02*
X178043750Y119306250D01*
X194512500Y120406250D02*
X193431250Y120406250D01*
X193431250Y120406250D02*
X192881250Y119856250D01*
X178043750Y119306250D02*
X176962500Y119306250D01*
%TO.N,Net-(LD18-Pad3)*%
X213562500Y120406250D02*
X212922000Y120406250D01*
X197093750Y119306250D02*
X196012500Y119306250D01*
X197643750Y119856250D02*
X197093750Y119306250D01*
X212922000Y120406250D02*
X212372000Y119856250D01*
%TO.N,Net-(LD19-Pad3)*%
X216143750Y119306250D02*
X215062500Y119306250D01*
X231531250Y120406250D02*
X230981250Y119856250D01*
X216693750Y119856250D02*
X216143750Y119306250D01*
X232612500Y120406250D02*
X231531250Y120406250D01*
%TO.N,Net-(LD20-Pad3)*%
X260106250Y120406250D02*
X259556250Y119856250D01*
X261187500Y120406250D02*
X260106250Y120406250D01*
X235193750Y119306250D02*
X234112500Y119306250D01*
X235743750Y119856250D02*
X235193750Y119306250D01*
%TO.N,Net-(LD21-Pad3)*%
X264318750Y119856250D02*
X263768750Y119306250D01*
X280237500Y120406250D02*
X279156250Y120406250D01*
X263768750Y119306250D02*
X262687500Y119306250D01*
X279156250Y120406250D02*
X278606250Y119856250D01*
%TO.N,Net-(LD22-Pad3)*%
X282818750Y119306250D02*
X281737500Y119306250D01*
X283368750Y119856250D02*
X282818750Y119306250D01*
X298206250Y120406250D02*
X297656250Y119856250D01*
X299287500Y120406250D02*
X298206250Y120406250D01*
%TO.N,Net-(LD23-Pad3)*%
X318337500Y120406250D02*
X317256250Y120406250D01*
X301868750Y119306250D02*
X300787500Y119306250D01*
X302418750Y119856250D02*
X301868750Y119306250D01*
X317256250Y120406250D02*
X316706250Y119856250D01*
%TO.N,Net-(LD24-Pad3)*%
X320918750Y119306250D02*
X319837500Y119306250D01*
X342150000Y120406250D02*
X341509500Y120406250D01*
X341509500Y120406250D02*
X340959500Y119856250D01*
X321468750Y119856250D02*
X320918750Y119306250D01*
%TO.N,Net-(LD25-Pad3)*%
X345281250Y119856250D02*
X344731250Y119306250D01*
X360118750Y120406250D02*
X359568750Y119856250D01*
X361200000Y120406250D02*
X360118750Y120406250D01*
X344731250Y119306250D02*
X343650000Y119306250D01*
%TO.N,Net-(LD26-Pad3)*%
X364331250Y119856250D02*
X363781250Y119306250D01*
X379609500Y120406250D02*
X379059500Y119856250D01*
X363781250Y119306250D02*
X362700000Y119306250D01*
X380250000Y120406250D02*
X379609500Y120406250D01*
%TO.N,Net-(LD28-Pad1)*%
X26743750Y91831250D02*
X27825000Y91831250D01*
X26193750Y91281250D02*
X26743750Y91831250D01*
X11356250Y90731250D02*
X11906250Y91281250D01*
X10275000Y90731250D02*
X11356250Y90731250D01*
%TO.N,Net-(LD29-Pad1)*%
X50997000Y91831250D02*
X51637500Y91831250D01*
X30406250Y90731250D02*
X30956250Y91281250D01*
X29325000Y90731250D02*
X30406250Y90731250D01*
X50447000Y91281250D02*
X50997000Y91831250D01*
%TO.N,Net-(LD30-Pad1)*%
X69606250Y91831250D02*
X70687500Y91831250D01*
X54218750Y90731250D02*
X54768750Y91281250D01*
X69056250Y91281250D02*
X69606250Y91831250D01*
X53137500Y90731250D02*
X54218750Y90731250D01*
%TO.N,Net-(LD31-Pad1)*%
X73268750Y90731250D02*
X73818750Y91281250D01*
X72187500Y90731250D02*
X73268750Y90731250D01*
X88547000Y91281250D02*
X89097000Y91831250D01*
X89097000Y91831250D02*
X89737500Y91831250D01*
%TO.N,Net-(LD32-Pad1)*%
X91237500Y90731250D02*
X92318750Y90731250D01*
X92318750Y90731250D02*
X92868750Y91281250D01*
X107156250Y91281250D02*
X107706250Y91831250D01*
X107706250Y91831250D02*
X108787500Y91831250D01*
%TO.N,Net-(LD33-Pad1)*%
X111368750Y90731250D02*
X111918750Y91281250D01*
X126647000Y91281250D02*
X127197000Y91831250D01*
X110287500Y90731250D02*
X111368750Y90731250D01*
X127197000Y91831250D02*
X127837500Y91831250D01*
%TO.N,Net-(LD34-Pad1)*%
X129337500Y90731250D02*
X130418750Y90731250D01*
X130418750Y90731250D02*
X130968750Y91281250D01*
X145256250Y91281250D02*
X145806250Y91831250D01*
X145806250Y91831250D02*
X146887500Y91831250D01*
%TO.N,Net-(LD35-Pad1)*%
X148387500Y90731250D02*
X149468750Y90731250D01*
X164856250Y91831250D02*
X165937500Y91831250D01*
X149468750Y90731250D02*
X150018750Y91281250D01*
X164306250Y91281250D02*
X164856250Y91831250D01*
%TO.N,Net-(LD36-Pad1)*%
X167437500Y90731250D02*
X168518750Y90731250D01*
X168518750Y90731250D02*
X169068750Y91281250D01*
X183906250Y91831250D02*
X184987500Y91831250D01*
X183356250Y91281250D02*
X183906250Y91831250D01*
%TO.N,Net-(LD37-Pad1)*%
X202956250Y91831250D02*
X204037500Y91831250D01*
X187568750Y90731250D02*
X188118750Y91281250D01*
X186487500Y90731250D02*
X187568750Y90731250D01*
X202406250Y91281250D02*
X202956250Y91831250D01*
%TO.N,Net-(LD38-Pad1)*%
X205537500Y90731250D02*
X206618750Y90731250D01*
X222006250Y91831250D02*
X223087500Y91831250D01*
X206618750Y90731250D02*
X207168750Y91281250D01*
X221456250Y91281250D02*
X222006250Y91831250D01*
%TO.N,Net-(LD39-Pad1)*%
X240506250Y91281250D02*
X241056250Y91831250D01*
X224587500Y90731250D02*
X225668750Y90731250D01*
X225668750Y90731250D02*
X226218750Y91281250D01*
X241056250Y91831250D02*
X242137500Y91831250D01*
%TO.N,Net-(LD40-Pad1)*%
X243637500Y90731250D02*
X244718750Y90731250D01*
X260547000Y91831250D02*
X261187500Y91831250D01*
X244718750Y90731250D02*
X245268750Y91281250D01*
X259997000Y91281250D02*
X260547000Y91831250D01*
%TO.N,Net-(LD41-Pad1)*%
X263768750Y90731250D02*
X264318750Y91281250D01*
X279156250Y91831250D02*
X280237500Y91831250D01*
X262687500Y90731250D02*
X263768750Y90731250D01*
X278606250Y91281250D02*
X279156250Y91831250D01*
%TO.N,Net-(LD42-Pad1)*%
X281737500Y90731250D02*
X282818750Y90731250D01*
X307731250Y91831250D02*
X308812500Y91831250D01*
X307181250Y91281250D02*
X307731250Y91831250D01*
X282818750Y90731250D02*
X283368750Y91281250D01*
%TO.N,Net-(LD43-Pad1)*%
X340959500Y91281250D02*
X341509500Y91831250D01*
X311393750Y90731250D02*
X311943750Y91281250D01*
X341509500Y91831250D02*
X342150000Y91831250D01*
X310312500Y90731250D02*
X311393750Y90731250D01*
%TO.N,Net-(LD44-Pad1)*%
X360118750Y91831250D02*
X361200000Y91831250D01*
X359568750Y91281250D02*
X360118750Y91831250D01*
X343650000Y90731250D02*
X344731250Y90731250D01*
X344731250Y90731250D02*
X345281250Y91281250D01*
%TO.N,Net-(LD45-Pad1)*%
X379059500Y91281250D02*
X379609500Y91831250D01*
X362700000Y90731250D02*
X363781250Y90731250D01*
X363781250Y90731250D02*
X364331250Y91281250D01*
X379609500Y91831250D02*
X380250000Y91831250D01*
%TO.N,Net-(LD46-Pad1)*%
X381750000Y90731250D02*
X382831250Y90731250D01*
X382831250Y90731250D02*
X383381250Y91281250D01*
X402431250Y91281250D02*
X402981250Y91831250D01*
X402981250Y91831250D02*
X404062500Y91831250D01*
%TO.N,Net-(LD47-Pad1)*%
X405562500Y90731250D02*
X406643750Y90731250D01*
X421481250Y91281250D02*
X422031250Y91831250D01*
X422031250Y91831250D02*
X423112500Y91831250D01*
X406643750Y90731250D02*
X407193750Y91281250D01*
%TO.N,Net-(LD48-Pad1)*%
X440531250Y91281250D02*
X441081250Y91831250D01*
X425693750Y90731250D02*
X426243750Y91281250D01*
X424612500Y90731250D02*
X425693750Y90731250D01*
X441081250Y91831250D02*
X442162500Y91831250D01*
%TO.N,Net-(LD49-Pad1)*%
X460131250Y91831250D02*
X461212500Y91831250D01*
X444743750Y90731250D02*
X445293750Y91281250D01*
X443662500Y90731250D02*
X444743750Y90731250D01*
X459581250Y91281250D02*
X460131250Y91831250D01*
%TO.N,Net-(LD50-Pad1)*%
X464329500Y84123250D02*
X464329500Y72245500D01*
X464343750Y89100000D02*
X464343750Y84137500D01*
X463793750Y71681250D02*
X462712500Y71681250D01*
X464343750Y84137500D02*
X464329500Y84123250D01*
X462712500Y90731250D02*
X464343750Y89100000D01*
X464343750Y72231250D02*
X463793750Y71681250D01*
X464329500Y72245500D02*
X464343750Y72231250D01*
%TO.N,Net-(LD51-Pad1)*%
X8775000Y72781250D02*
X8134500Y72781250D01*
X9525000Y60083750D02*
X7385000Y57943750D01*
X7385000Y55121250D02*
X8775000Y53731250D01*
X8134500Y72781250D02*
X7584500Y72231250D01*
X9525000Y62706250D02*
X9525000Y60083750D01*
X7385000Y57943750D02*
X7385000Y55121250D01*
%TO.N,Net-(LD51-Pad3)*%
X11906250Y72231250D02*
X11356250Y71681250D01*
X27825000Y72781250D02*
X26743750Y72781250D01*
X26743750Y72781250D02*
X26193750Y72231250D01*
X11356250Y71681250D02*
X10275000Y71681250D01*
%TO.N,Net-(LD52-Pad3)*%
X56400000Y72781250D02*
X55318750Y72781250D01*
X55318750Y72781250D02*
X54768750Y72231250D01*
X30406250Y71681250D02*
X29325000Y71681250D01*
X30956250Y72231250D02*
X30406250Y71681250D01*
%TO.N,Net-(LD53-Pad3)*%
X80212500Y72781250D02*
X79131250Y72781250D01*
X79131250Y72781250D02*
X78581250Y72231250D01*
X59531250Y72231250D02*
X58981250Y71681250D01*
X58981250Y71681250D02*
X57900000Y71681250D01*
%TO.N,Net-(LD54-Pad3)*%
X99262500Y72781250D02*
X98181250Y72781250D01*
X98181250Y72781250D02*
X97631250Y72231250D01*
X83343750Y72231250D02*
X82793750Y71681250D01*
X82793750Y71681250D02*
X81712500Y71681250D01*
%TO.N,Net-(LD55-Pad3)*%
X102393750Y72231250D02*
X101843750Y71681250D01*
X118312500Y72781250D02*
X117231250Y72781250D01*
X117231250Y72781250D02*
X116681250Y72231250D01*
X101843750Y71681250D02*
X100762500Y71681250D01*
%TO.N,Net-(LD56-Pad3)*%
X120893750Y71681250D02*
X119812500Y71681250D01*
X136281250Y72781250D02*
X135731250Y72231250D01*
X137362500Y72781250D02*
X136281250Y72781250D01*
X121443750Y72231250D02*
X120893750Y71681250D01*
%TO.N,Net-(LD57-Pad3)*%
X155331250Y72781250D02*
X154781250Y72231250D01*
X140493750Y72231250D02*
X139943750Y71681250D01*
X139943750Y71681250D02*
X138862500Y71681250D01*
X156412500Y72781250D02*
X155331250Y72781250D01*
%TO.N,Net-(LD58-Pad3)*%
X159543750Y72231250D02*
X158993750Y71681250D01*
X174381250Y72781250D02*
X173831250Y72231250D01*
X175462500Y72781250D02*
X174381250Y72781250D01*
X158993750Y71681250D02*
X157912500Y71681250D01*
%TO.N,Net-(LD59-Pad3)*%
X178593750Y72231250D02*
X178043750Y71681250D01*
X194512500Y72781250D02*
X193431250Y72781250D01*
X178043750Y71681250D02*
X176962500Y71681250D01*
X193431250Y72781250D02*
X192881250Y72231250D01*
%TO.N,Net-(LD60-Pad3)*%
X197093750Y71681250D02*
X196012500Y71681250D01*
X213562500Y72781250D02*
X212481250Y72781250D01*
X197643750Y72231250D02*
X197093750Y71681250D01*
X212481250Y72781250D02*
X211931250Y72231250D01*
%TO.N,Net-(LD61-Pad3)*%
X232612500Y72781250D02*
X231531250Y72781250D01*
X231531250Y72781250D02*
X230981250Y72231250D01*
X216693750Y72231250D02*
X216143750Y71681250D01*
X216143750Y71681250D02*
X215062500Y71681250D01*
%TO.N,Net-(LD62-Pad3)*%
X250581250Y72781250D02*
X250031250Y72231250D01*
X235743750Y72231250D02*
X235193750Y71681250D01*
X251662500Y72781250D02*
X250581250Y72781250D01*
X235193750Y71681250D02*
X234112500Y71681250D01*
%TO.N,Net-(LD63-Pad3)*%
X254793750Y72231250D02*
X254243750Y71681250D01*
X270712500Y72781250D02*
X269631250Y72781250D01*
X269631250Y72781250D02*
X269081250Y72231250D01*
X254243750Y71681250D02*
X253162500Y71681250D01*
%TO.N,Net-(LD64-Pad3)*%
X288681250Y72781250D02*
X288131250Y72231250D01*
X273843750Y72231250D02*
X273293750Y71681250D01*
X289762500Y72781250D02*
X288681250Y72781250D01*
X273293750Y71681250D02*
X272212500Y71681250D01*
%TO.N,Net-(LD65-Pad3)*%
X292343750Y71681250D02*
X292893750Y72231250D01*
X312493750Y72781250D02*
X311943750Y72231250D01*
X313575000Y72781250D02*
X312493750Y72781250D01*
X291262500Y71681250D02*
X292343750Y71681250D01*
%TO.N,Net-(LD66-Pad3)*%
X316706250Y72231250D02*
X316156250Y71681250D01*
X341509500Y72781250D02*
X340959500Y72231250D01*
X342150000Y72781250D02*
X341509500Y72781250D01*
X316156250Y71681250D02*
X315075000Y71681250D01*
%TO.N,Net-(LD67-Pad3)*%
X360118750Y72781250D02*
X359568750Y72231250D01*
X345281250Y72231250D02*
X344731250Y71681250D01*
X344731250Y71681250D02*
X343650000Y71681250D01*
X361200000Y72781250D02*
X360118750Y72781250D01*
%TO.N,Net-(LD68-Pad3)*%
X380250000Y72781250D02*
X379609500Y72781250D01*
X363781250Y71681250D02*
X362700000Y71681250D01*
X379609500Y72781250D02*
X379059500Y72231250D01*
X364331250Y72231250D02*
X363781250Y71681250D01*
%TO.N,Net-(LD69-Pad3)*%
X402981250Y72781250D02*
X402431250Y72231250D01*
X404062500Y72781250D02*
X402981250Y72781250D01*
X382831250Y71681250D02*
X381750000Y71681250D01*
X383381250Y72231250D02*
X382831250Y71681250D01*
%TO.N,Net-(LD70-Pad3)*%
X405562500Y71681250D02*
X406643750Y71681250D01*
X423112500Y72781250D02*
X422472000Y72781250D01*
X422472000Y72781250D02*
X421922000Y72231250D01*
X406643750Y71681250D02*
X407193750Y72231250D01*
%TO.N,Net-(LD71-Pad3)*%
X442162500Y72781250D02*
X441081250Y72781250D01*
X441081250Y72781250D02*
X440531250Y72231250D01*
X425693750Y71681250D02*
X424612500Y71681250D01*
X426243750Y72231250D02*
X425693750Y71681250D01*
%TO.N,Net-(LD72-Pad3)*%
X461212500Y72781250D02*
X460572000Y72781250D01*
X444743750Y71681250D02*
X445293750Y72231250D01*
X443662500Y71681250D02*
X444743750Y71681250D01*
X460572000Y72781250D02*
X460022000Y72231250D01*
%TO.N,Net-(LD74-Pad1)*%
X11356250Y52631250D02*
X11906250Y53181250D01*
X10275000Y52631250D02*
X11356250Y52631250D01*
X26743750Y53731250D02*
X27825000Y53731250D01*
X26193750Y53181250D02*
X26743750Y53731250D01*
%TO.N,Net-(LD75-Pad1)*%
X57150000Y53181250D02*
X57700000Y53731250D01*
X57700000Y53731250D02*
X58781250Y53731250D01*
X30406250Y52631250D02*
X30956250Y53181250D01*
X29325000Y52631250D02*
X30406250Y52631250D01*
%TO.N,Net-(LD76-Pad1)*%
X83343750Y53181250D02*
X83893750Y53731250D01*
X60281250Y52631250D02*
X61362500Y52631250D01*
X83893750Y53731250D02*
X84975000Y53731250D01*
X61362500Y52631250D02*
X61912500Y53181250D01*
%TO.N,Net-(LD77-Pad1)*%
X86475000Y52631250D02*
X87556250Y52631250D01*
X102393750Y53181250D02*
X102943750Y53731250D01*
X102943750Y53731250D02*
X104025000Y53731250D01*
X87556250Y52631250D02*
X88106250Y53181250D01*
%TO.N,Net-(LD78-Pad1)*%
X105525000Y52631250D02*
X106606250Y52631250D01*
X121443750Y53181250D02*
X121993750Y53731250D01*
X121993750Y53731250D02*
X123075000Y53731250D01*
X106606250Y52631250D02*
X107156250Y53181250D01*
%TO.N,Net-(LD79-Pad1)*%
X140493750Y53181250D02*
X141043750Y53731250D01*
X124575000Y52631250D02*
X125656250Y52631250D01*
X141043750Y53731250D02*
X142125000Y53731250D01*
X125656250Y52631250D02*
X126206250Y53181250D01*
%TO.N,Net-(LD80-Pad1)*%
X159543750Y53181250D02*
X160093750Y53731250D01*
X144706250Y52631250D02*
X145256250Y53181250D01*
X143625000Y52631250D02*
X144706250Y52631250D01*
X160093750Y53731250D02*
X161175000Y53731250D01*
%TO.N,Net-(LD81-Pad1)*%
X162675000Y52631250D02*
X163756250Y52631250D01*
X179143750Y53731250D02*
X180225000Y53731250D01*
X163756250Y52631250D02*
X164306250Y53181250D01*
X178593750Y53181250D02*
X179143750Y53731250D01*
%TO.N,Net-(LD82-Pad1)*%
X182806250Y52631250D02*
X183356250Y53181250D01*
X198193750Y53731250D02*
X199275000Y53731250D01*
X181725000Y52631250D02*
X182806250Y52631250D01*
X197643750Y53181250D02*
X198193750Y53731250D01*
%TO.N,Net-(LD83-Pad1)*%
X216693750Y53181250D02*
X217243750Y53731250D01*
X200775000Y52631250D02*
X201856250Y52631250D01*
X217243750Y53731250D02*
X218325000Y53731250D01*
X201856250Y52631250D02*
X202406250Y53181250D01*
%TO.N,Net-(LD84-Pad1)*%
X220906250Y52631250D02*
X221456250Y53181250D01*
X236293750Y53731250D02*
X237375000Y53731250D01*
X219825000Y52631250D02*
X220906250Y52631250D01*
X235743750Y53181250D02*
X236293750Y53731250D01*
%TO.N,Net-(LD85-Pad1)*%
X238875000Y52631250D02*
X239956250Y52631250D01*
X255343750Y53731250D02*
X256425000Y53731250D01*
X254793750Y53181250D02*
X255343750Y53731250D01*
X239956250Y52631250D02*
X240506250Y53181250D01*
%TO.N,Net-(LD86-Pad1)*%
X257925000Y52631250D02*
X259006250Y52631250D01*
X273843750Y53181250D02*
X274393750Y53731250D01*
X274393750Y53731250D02*
X275475000Y53731250D01*
X259006250Y52631250D02*
X259556250Y53181250D01*
%TO.N,Net-(LD87-Pad1)*%
X276975000Y52631250D02*
X278056250Y52631250D01*
X278056250Y52631250D02*
X278606250Y53181250D01*
X304800000Y53181250D02*
X305350000Y53731250D01*
X305350000Y53731250D02*
X306431250Y53731250D01*
%TO.N,Net-(LD88-Pad1)*%
X402872000Y53181250D02*
X403422000Y53731250D01*
X309012500Y52631250D02*
X309562500Y53181250D01*
X307931250Y52631250D02*
X309012500Y52631250D01*
X403422000Y53731250D02*
X404062500Y53731250D01*
%TO.N,Net-(LD89-Pad1)*%
X422472000Y53731250D02*
X423112500Y53731250D01*
X421922000Y53181250D02*
X422472000Y53731250D01*
X406643750Y52631250D02*
X407193750Y53181250D01*
X405562500Y52631250D02*
X406643750Y52631250D01*
%TO.N,Net-(LD90-Pad1)*%
X441081250Y53731250D02*
X442162500Y53731250D01*
X425693750Y52631250D02*
X426243750Y53181250D01*
X440531250Y53181250D02*
X441081250Y53731250D01*
X424612500Y52631250D02*
X425693750Y52631250D01*
%TO.N,Net-(LD91-Pad1)*%
X460572000Y53731250D02*
X461212500Y53731250D01*
X443662500Y52631250D02*
X444743750Y52631250D01*
X444743750Y52631250D02*
X445293750Y53181250D01*
X460022000Y53181250D02*
X460572000Y53731250D01*
%TO.N,Net-(LD110-Pad3)*%
X464343750Y41275000D02*
X464343750Y38893750D01*
X464343750Y51550000D02*
X464343750Y46037500D01*
X464329500Y41289250D02*
X464343750Y41275000D01*
X462712500Y52631250D02*
X463262500Y52631250D01*
X464343750Y46037500D02*
X464329500Y46023250D01*
X443662500Y33581250D02*
X444743750Y33581250D01*
X463262500Y52631250D02*
X464343750Y51550000D01*
X464329500Y46023250D02*
X464329500Y41289250D01*
X444743750Y33581250D02*
X445293750Y34131250D01*
%TO.N,Net-(LD111-Pad3)*%
X9525000Y21983750D02*
X7385000Y19843750D01*
X8134500Y34681250D02*
X7584500Y34131250D01*
X9525000Y24606250D02*
X9525000Y21983750D01*
X7385000Y19843750D02*
X7385000Y17021250D01*
X7385000Y17021250D02*
X8775000Y15631250D01*
X8775000Y34681250D02*
X8134500Y34681250D01*
%TO.N,Net-(LD93-Pad3)*%
X26743750Y34681250D02*
X26193750Y34131250D01*
X11356250Y33581250D02*
X10275000Y33581250D01*
X11906250Y34131250D02*
X11356250Y33581250D01*
X27825000Y34681250D02*
X26743750Y34681250D01*
%TO.N,Net-(LD94-Pad3)*%
X30406250Y33581250D02*
X29325000Y33581250D01*
X63543750Y34681250D02*
X62462500Y34681250D01*
X62462500Y34681250D02*
X61912500Y34131250D01*
X30956250Y34131250D02*
X30406250Y33581250D01*
%TO.N,Net-(LD95-Pad3)*%
X66125000Y33581250D02*
X65043750Y33581250D01*
X94500000Y34681250D02*
X93418750Y34681250D01*
X93418750Y34681250D02*
X92868750Y34131250D01*
X66675000Y34131250D02*
X66125000Y33581250D01*
%TO.N,Net-(LD96-Pad3)*%
X97631250Y34131250D02*
X97081250Y33581250D01*
X97081250Y33581250D02*
X96000000Y33581250D01*
X112468750Y34681250D02*
X111918750Y34131250D01*
X113550000Y34681250D02*
X112468750Y34681250D01*
%TO.N,Net-(LD97-Pad3)*%
X131518750Y34681250D02*
X130968750Y34131250D01*
X132600000Y34681250D02*
X131518750Y34681250D01*
X116131250Y33581250D02*
X115050000Y33581250D01*
X116681250Y34131250D02*
X116131250Y33581250D01*
%TO.N,Net-(LD98-Pad3)*%
X134100000Y33581250D02*
X135181250Y33581250D01*
X150568750Y34681250D02*
X150018750Y34131250D01*
X135181250Y33581250D02*
X135731250Y34131250D01*
X151650000Y34681250D02*
X150568750Y34681250D01*
%TO.N,Net-(LD100-Pad1)*%
X154231250Y33581250D02*
X153150000Y33581250D01*
X169618750Y34681250D02*
X169068750Y34131250D01*
X154781250Y34131250D02*
X154231250Y33581250D01*
X170700000Y34681250D02*
X169618750Y34681250D01*
%TO.N,Net-(LD100-Pad3)*%
X189750000Y34681250D02*
X188668750Y34681250D01*
X188668750Y34681250D02*
X188118750Y34131250D01*
X173831250Y34131250D02*
X173281250Y33581250D01*
X173281250Y33581250D02*
X172200000Y33581250D01*
%TO.N,Net-(LD101-Pad3)*%
X192881250Y34131250D02*
X192331250Y33581250D01*
X207718750Y34681250D02*
X207168750Y34131250D01*
X192331250Y33581250D02*
X191250000Y33581250D01*
X208800000Y34681250D02*
X207718750Y34681250D01*
%TO.N,Net-(LD102-Pad3)*%
X211931250Y34131250D02*
X211381250Y33581250D01*
X227850000Y34681250D02*
X226768750Y34681250D01*
X211381250Y33581250D02*
X210300000Y33581250D01*
X226768750Y34681250D02*
X226218750Y34131250D01*
%TO.N,Net-(LD103-Pad3)*%
X230431250Y33581250D02*
X229350000Y33581250D01*
X246900000Y34681250D02*
X245818750Y34681250D01*
X230981250Y34131250D02*
X230431250Y33581250D01*
X245818750Y34681250D02*
X245268750Y34131250D01*
%TO.N,Net-(LD104-Pad3)*%
X250031250Y34131250D02*
X249481250Y33581250D01*
X265950000Y34681250D02*
X264868750Y34681250D01*
X264868750Y34681250D02*
X264318750Y34131250D01*
X249481250Y33581250D02*
X248400000Y33581250D01*
%TO.N,Net-(LD105-Pad3)*%
X269081250Y34131250D02*
X268531250Y33581250D01*
X268531250Y33581250D02*
X267450000Y33581250D01*
X301668750Y34681250D02*
X300587500Y34681250D01*
X300587500Y34681250D02*
X300037500Y34131250D01*
%TO.N,Net-(LD106-Pad3)*%
X304250000Y33581250D02*
X303168750Y33581250D01*
X304800000Y34131250D02*
X304250000Y33581250D01*
X360559500Y34681250D02*
X360009500Y34131250D01*
X361200000Y34681250D02*
X360559500Y34681250D01*
%TO.N,Net-(LD107-Pad3)*%
X404062500Y34681250D02*
X403422000Y34681250D01*
X403422000Y34681250D02*
X402872000Y34131250D01*
X364331250Y34131250D02*
X363781250Y33581250D01*
X363781250Y33581250D02*
X362700000Y33581250D01*
%TO.N,Net-(LD108-Pad3)*%
X406643750Y33581250D02*
X405562500Y33581250D01*
X422472000Y34681250D02*
X421922000Y34131250D01*
X407193750Y34131250D02*
X406643750Y33581250D01*
X423112500Y34681250D02*
X422472000Y34681250D01*
%TO.N,Net-(LD109-Pad3)*%
X425693750Y33581250D02*
X424612500Y33581250D01*
X442162500Y34681250D02*
X441081250Y34681250D01*
X441081250Y34681250D02*
X440531250Y34131250D01*
X426243750Y34131250D02*
X425693750Y33581250D01*
%TO.N,Net-(LD111-Pad1)*%
X26743750Y15631250D02*
X27825000Y15631250D01*
X10275000Y14531250D02*
X11356250Y14531250D01*
X11356250Y14531250D02*
X11906250Y15081250D01*
X26193750Y15081250D02*
X26743750Y15631250D01*
%TO.N,Net-(LD112-Pad1)*%
X30406250Y14531250D02*
X30956250Y15081250D01*
X29325000Y14531250D02*
X30406250Y14531250D01*
X52937500Y15631250D02*
X54018750Y15631250D01*
X52387500Y15081250D02*
X52937500Y15631250D01*
%TO.N,Net-(LD113-Pad1)*%
X76200000Y15081250D02*
X76750000Y15631250D01*
X56600000Y14531250D02*
X57150000Y15081250D01*
X76750000Y15631250D02*
X77831250Y15631250D01*
X55518750Y14531250D02*
X56600000Y14531250D01*
%TO.N,Net-(LD114-Pad1)*%
X100562500Y15631250D02*
X101643750Y15631250D01*
X100012500Y15081250D02*
X100562500Y15631250D01*
X79331250Y14531250D02*
X80412500Y14531250D01*
X80412500Y14531250D02*
X80962500Y15081250D01*
%TO.N,Net-(LD115-Pad1)*%
X172000000Y15631250D02*
X173081250Y15631250D01*
X104225000Y14531250D02*
X104775000Y15081250D01*
X103143750Y14531250D02*
X104225000Y14531250D01*
X171450000Y15081250D02*
X172000000Y15631250D01*
%TO.N,Net-(LD116-Pad1)*%
X174581250Y14531250D02*
X175662500Y14531250D01*
X175662500Y14531250D02*
X176212500Y15081250D01*
X243328250Y15081250D02*
X243878250Y15631250D01*
X243878250Y15631250D02*
X244518750Y15631250D01*
%TO.N,Net-(LD117-Pad1)*%
X267250000Y15631250D02*
X268331250Y15631250D01*
X246018750Y14531250D02*
X247100000Y14531250D01*
X266700000Y15081250D02*
X267250000Y15631250D01*
X247100000Y14531250D02*
X247650000Y15081250D01*
%TO.N,Net-(LD118-Pad1)*%
X269831250Y14531250D02*
X270912500Y14531250D01*
X270912500Y14531250D02*
X271462500Y15081250D01*
X290512500Y15081250D02*
X291062500Y15631250D01*
X291062500Y15631250D02*
X292143750Y15631250D01*
%TO.N,Net-(LD119-Pad1)*%
X293643750Y14531250D02*
X294725000Y14531250D01*
X314875000Y15631250D02*
X315956250Y15631250D01*
X314325000Y15081250D02*
X314875000Y15631250D01*
X294725000Y14531250D02*
X295275000Y15081250D01*
%TO.N,Net-(LD120-Pad1)*%
X341509500Y15631250D02*
X342150000Y15631250D01*
X318537500Y14531250D02*
X319087500Y15081250D01*
X317456250Y14531250D02*
X318537500Y14531250D01*
X340959500Y15081250D02*
X341509500Y15631250D01*
%TO.N,Net-(LD121-Pad1)*%
X344731250Y14531250D02*
X345281250Y15081250D01*
X359568750Y15081250D02*
X360118750Y15631250D01*
X360118750Y15631250D02*
X361200000Y15631250D01*
X343650000Y14531250D02*
X344731250Y14531250D01*
%TO.N,Net-(LD122-Pad1)*%
X363781250Y14531250D02*
X364331250Y15081250D01*
X379609500Y15631250D02*
X380250000Y15631250D01*
X379059500Y15081250D02*
X379609500Y15631250D01*
X362700000Y14531250D02*
X363781250Y14531250D01*
%TO.N,Net-(LD123-Pad1)*%
X402431250Y15081250D02*
X402981250Y15631250D01*
X402981250Y15631250D02*
X404062500Y15631250D01*
X382831250Y14531250D02*
X383381250Y15081250D01*
X381750000Y14531250D02*
X382831250Y14531250D01*
%TO.N,Net-(LD124-Pad1)*%
X422472000Y15631250D02*
X423112500Y15631250D01*
X421922000Y15081250D02*
X422472000Y15631250D01*
X405562500Y14531250D02*
X406643750Y14531250D01*
X406643750Y14531250D02*
X407193750Y15081250D01*
%TO.N,Net-(LD125-Pad1)*%
X441081250Y15631250D02*
X442162500Y15631250D01*
X424612500Y14531250D02*
X425693750Y14531250D01*
X440531250Y15081250D02*
X441081250Y15631250D01*
X425693750Y14531250D02*
X426243750Y15081250D01*
%TO.N,Net-(LD126-Pad1)*%
X443662500Y14531250D02*
X444743750Y14531250D01*
X454818750Y15081250D02*
X455856250Y16118750D01*
X455856250Y16118750D02*
X455856250Y18300000D01*
X444743750Y14531250D02*
X445293750Y15081250D01*
%TD*%
M02*
