M48
; DRILL file {KiCad (6.0.7)} date Tue Sep 27 13:03:32 2022
; FORMAT={-:-/ absolute / inch / decimal}
; #@! TF.CreationDate,2022-09-27T13:03:32-04:00
; #@! TF.GenerationSoftware,Kicad,Pcbnew,(6.0.7)
; #@! TF.FileFunction,Plated,1,4,PTH
FMAT,2
INCH
; #@! TA.AperFunction,Plated,PTH,ViaDrill
T1C0.0118
; #@! TA.AperFunction,Plated,PTH,ComponentDrill
T2C0.0118
; #@! TA.AperFunction,Plated,PTH,ViaDrill
T3C0.0177
; #@! TA.AperFunction,Plated,PTH,ComponentDrill
T4C0.0236
; #@! TA.AperFunction,Plated,PTH,ComponentDrill
T5C0.0394
; #@! TA.AperFunction,Plated,PTH,ComponentDrill
T6C0.0590
%
G90
G05
T1
X2.6187Y-6.2
X2.6424Y-5.8125
X2.6424Y-7.5938
X2.6424Y-9.0938
X2.655Y-4.97
X2.7148Y-4.9112
X2.7188Y-7.9688
X2.7188Y-9.4688
X2.7191Y-6.7827
X2.7191Y-7.5327
X2.7191Y-8.2827
X2.7191Y-9.0327
X2.7191Y-9.7827
X2.7483Y-4.9117
X2.7526Y-6.7892
X2.7526Y-7.5392
X2.7526Y-8.2892
X2.7526Y-9.0392
X2.7526Y-9.7892
X2.8125Y-4.9688
X2.8125Y-6.8438
X2.8125Y-7.5938
X2.8125Y-8.3438
X2.8125Y-9.0938
X2.8125Y-9.8438
X3.375Y-6.8438
X3.375Y-7.5938
X3.375Y-8.3438
X3.375Y-9.0938
X3.375Y-9.8438
X3.4691Y-6.7827
X3.4691Y-7.5327
X3.4691Y-8.2827
X3.4691Y-9.0327
X3.4691Y-9.7827
X3.5026Y-6.7892
X3.5026Y-7.5392
X3.5026Y-8.2892
X3.5026Y-9.0392
X3.5026Y-9.7892
X3.5625Y-6.8438
X3.5625Y-7.5938
X3.5625Y-8.3438
X3.5625Y-9.0938
X3.5625Y-9.8438
X4.31Y-6.2236
X4.3299Y-6.8438
X4.4062Y-9.8438
X4.4066Y-6.7827
X4.4401Y-6.7892
X4.5Y-6.8438
X4.5Y-7.5938
X4.5004Y-9.7827
X4.5339Y-9.7892
X4.5938Y-8.3438
X4.5938Y-9.8438
X4.5941Y-7.5327
X4.6276Y-7.5392
X4.6875Y-7.5938
X4.6879Y-8.2827
X4.7214Y-8.2892
X4.7775Y-10.2625
X4.7812Y-8.3438
X4.7812Y-9.0938
X4.8754Y-9.0327
X4.9089Y-9.0392
X4.9688Y-9.0938
X5.0625Y-6.8438
X5.1566Y-6.7827
X5.1901Y-6.7892
X5.25Y-6.8438
X5.3438Y-9.8438
X5.4375Y-7.5938
X5.4379Y-9.7827
X5.4714Y-9.7892
X5.5312Y-9.8438
X5.5316Y-7.5327
X5.5651Y-7.5392
X5.625Y-7.5938
X5.625Y-8.3438
X5.7191Y-8.2827
X5.7526Y-8.2892
X5.8062Y-6.2437
X5.8125Y-4.9688
X5.8125Y-8.3438
X5.8299Y-5.7188
X5.8299Y-6.8438
X5.9023Y-4.9077
X5.9066Y-5.6577
X5.9066Y-6.7827
X5.9358Y-4.9142
X5.9401Y-5.6642
X5.9401Y-6.7892
X6.0Y-4.9688
X6.0Y-5.7188
X6.0Y-6.8438
X6.0Y-9.0938
X6.0941Y-9.0327
X6.1276Y-9.0392
X6.1875Y-7.5938
X6.1875Y-9.0938
X6.2812Y-9.8438
X6.2816Y-7.5327
X6.3151Y-7.5392
X6.375Y-7.5938
X6.375Y-8.3438
X6.3754Y-9.7827
X6.4089Y-9.7892
X6.4688Y-9.8438
X6.4691Y-8.2827
X6.5026Y-8.2892
X6.5625Y-4.9688
X6.5625Y-5.7188
X6.5625Y-6.8438
X6.5625Y-8.3438
X6.652Y-4.91
X6.6566Y-5.6577
X6.6566Y-6.7827
X6.6901Y-4.9142
X6.6901Y-5.6642
X6.6901Y-6.7892
X6.742Y-10.26
X6.75Y-4.9688
X6.75Y-5.7188
X6.75Y-6.8438
X6.75Y-9.0938
X6.8441Y-9.0327
X6.8776Y-9.0392
X6.9375Y-7.5938
X6.9375Y-9.0938
X7.0316Y-7.5327
X7.0651Y-7.5392
X7.125Y-7.5938
X7.125Y-8.3438
X7.2191Y-8.2827
X7.2526Y-8.2892
X7.3062Y-6.2588
X7.3125Y-4.9688
X7.3125Y-8.3438
X7.3299Y-5.7188
X7.3299Y-6.8438
X7.3984Y-6.7866
X7.4066Y-4.9077
X7.4066Y-5.6577
X7.4358Y-6.7892
X7.4401Y-4.9142
X7.4401Y-5.6642
X7.5Y-4.9688
X7.5Y-5.7188
X7.5Y-6.8438
X7.5Y-9.0938
X7.5941Y-9.0327
X7.6276Y-9.0392
X7.6875Y-7.5938
X7.6875Y-9.0938
X7.7816Y-7.5327
X7.8151Y-7.5392
X7.875Y-7.5938
X7.875Y-8.3438
X7.9691Y-8.2827
X8.0026Y-8.2892
X8.0625Y-4.9688
X8.0625Y-5.7188
X8.0625Y-6.8438
X8.0625Y-8.3438
X8.1484Y-6.7866
X8.1566Y-4.9077
X8.1566Y-5.6577
X8.1858Y-6.7892
X8.1901Y-4.9142
X8.1901Y-5.6642
X8.245Y-10.262
X8.25Y-4.9688
X8.25Y-5.7188
X8.25Y-6.8438
X8.25Y-9.0938
X8.3441Y-9.0327
X8.3776Y-9.0392
X8.4375Y-7.5938
X8.4375Y-9.0938
X8.5316Y-7.5327
X8.5651Y-7.5392
X8.625Y-7.5938
X8.625Y-8.3438
X8.7191Y-8.2827
X8.7526Y-8.2892
X8.8125Y-6.8438
X8.8125Y-8.3438
X8.8984Y-6.7866
X8.9358Y-6.7842
X9.0Y-6.8438
X9.0Y-9.0938
X9.0938Y-9.8438
X9.0941Y-9.0327
X9.1276Y-9.0392
X9.1813Y-6.2737
X9.1875Y-4.9688
X9.1875Y-7.5938
X9.1875Y-9.0938
X9.1879Y-9.7827
X9.2049Y-5.7188
X9.2214Y-9.7892
X9.2812Y-9.8438
X9.2816Y-4.9077
X9.2816Y-5.6577
X9.2816Y-7.5327
X9.3151Y-4.9142
X9.3151Y-5.6642
X9.3151Y-7.5392
X9.375Y-4.9688
X9.375Y-5.7188
X9.375Y-7.5938
X9.375Y-8.3438
X9.4691Y-8.2827
X9.5026Y-8.2892
X9.5625Y-6.8438
X9.5625Y-8.3438
X9.6484Y-6.7866
X9.6858Y-6.7842
X9.75Y-6.8438
X9.75Y-9.0938
X9.8441Y-9.0327
X9.8776Y-9.0392
X9.9375Y-4.9688
X9.9375Y-5.7188
X9.9375Y-7.5938
X9.9375Y-9.0938
X10.0316Y-4.9077
X10.0316Y-5.6577
X10.0316Y-7.5327
X10.0651Y-4.9142
X10.0651Y-5.6642
X10.0651Y-7.5392
X10.125Y-4.9688
X10.125Y-5.7188
X10.125Y-7.5938
X10.125Y-8.3438
X10.2191Y-8.2827
X10.2526Y-8.2892
X10.3125Y-6.8438
X10.3125Y-8.3438
X10.3984Y-6.7866
X10.4358Y-6.7842
X10.5Y-6.8438
X10.5Y-9.0938
X10.5941Y-9.0327
X10.6276Y-9.0392
X10.6813Y-6.2888
X10.6875Y-4.9688
X10.6875Y-7.5938
X10.6875Y-9.0938
X10.7049Y-5.7188
X10.7816Y-4.9077
X10.7816Y-5.6577
X10.7816Y-7.5327
X10.8151Y-4.9142
X10.8151Y-5.6642
X10.8151Y-7.5392
X10.875Y-4.9688
X10.875Y-5.7188
X10.875Y-7.5938
X10.875Y-8.3438
X10.9691Y-8.2827
X11.0026Y-8.2892
X11.0625Y-6.8438
X11.0625Y-8.3438
X11.1484Y-6.7866
X11.1858Y-6.7842
X11.25Y-6.8438
X11.25Y-9.0938
X11.3441Y-9.0327
X11.3776Y-9.0392
X11.4375Y-4.9688
X11.4375Y-5.7188
X11.4375Y-7.5938
X11.4375Y-9.0938
X11.5316Y-4.9077
X11.5316Y-5.6577
X11.5316Y-7.5327
X11.5651Y-4.9142
X11.5651Y-5.6642
X11.5651Y-7.5392
X11.625Y-4.9688
X11.625Y-5.7188
X11.625Y-7.5938
X11.625Y-8.3438
X11.7191Y-8.2827
X11.7526Y-8.2892
X11.8125Y-6.8438
X11.8125Y-8.3438
X11.8984Y-6.7866
X11.9236Y-9.8438
X11.9358Y-6.7892
X12.0Y-6.8438
X12.0Y-9.0938
X12.0004Y-9.7827
X12.0339Y-9.7892
X12.0938Y-9.8438
X12.0941Y-9.0327
X12.1276Y-9.0392
X12.1298Y-5.03
X12.17Y-4.97
X12.17Y-5.185
X12.1875Y-7.5938
X12.1875Y-9.0938
X12.1886Y-5.24
X12.2816Y-7.5327
X12.3151Y-7.5392
X12.375Y-7.5938
X12.375Y-8.3438
X12.4691Y-8.2827
X12.5026Y-8.2892
X12.5563Y-6.3037
X12.5625Y-5.7188
X12.5625Y-8.3438
X12.5799Y-6.8438
X12.6484Y-6.7816
X12.6566Y-5.6577
X12.6858Y-6.7842
X12.6901Y-5.6642
X12.75Y-5.7188
X12.75Y-6.8438
X12.75Y-9.0938
X12.8438Y-9.8438
X12.8441Y-9.0327
X12.8776Y-9.0392
X12.9375Y-7.5938
X12.9375Y-9.0938
X12.9379Y-9.7827
X12.9714Y-9.7892
X13.0312Y-9.8438
X13.0316Y-7.5327
X13.0651Y-7.5392
X13.125Y-7.5938
X13.125Y-8.3438
X13.2191Y-8.2827
X13.2526Y-8.2892
X13.3125Y-5.7188
X13.3125Y-6.8438
X13.3125Y-8.3438
X13.3984Y-6.7866
X13.4066Y-5.6577
X13.4358Y-6.7842
X13.4401Y-5.6642
X13.5Y-5.7188
X13.5Y-6.8438
X13.6875Y-7.5938
X13.7812Y-9.8438
X13.7816Y-7.5327
X13.8151Y-7.5392
X13.875Y-7.5938
X13.8754Y-9.7827
X13.9089Y-9.7892
X13.9688Y-9.8438
X14.0563Y-6.3181
X14.0625Y-5.7188
X14.1475Y-10.2625
X14.1562Y-9.0938
X14.1566Y-5.6577
X14.1901Y-5.6642
X14.25Y-5.7188
X14.2504Y-9.0327
X14.2839Y-9.0392
X14.3438Y-8.3438
X14.3438Y-9.0938
X14.4375Y-6.8438
X14.4379Y-8.2827
X14.4714Y-8.2892
X14.5234Y-6.7866
X14.5312Y-8.3438
X14.5608Y-6.7842
X14.625Y-6.8438
X14.625Y-7.5938
X14.7188Y-9.8438
X14.7191Y-7.5327
X14.7526Y-7.5392
X14.8125Y-5.7188
X14.8125Y-7.5938
X14.8129Y-9.7827
X14.8464Y-9.7892
X14.9062Y-9.8438
X14.9066Y-5.6577
X14.9401Y-5.6642
X15.0Y-5.7188
X15.175Y-5.53
X15.2Y-5.0
X15.525Y-5.51
X15.57Y-5.025
X15.7438Y-6.3338
X15.7561Y-4.9627
X15.7674Y-5.7188
X15.7674Y-6.8438
X15.7674Y-7.5938
X15.7674Y-9.8438
X15.84Y-6.785
X15.8441Y-4.9077
X15.8441Y-5.6577
X15.8441Y-7.5327
X15.8441Y-9.7827
X15.8733Y-6.7867
X15.8776Y-4.9142
X15.8776Y-5.6642
X15.8776Y-7.5392
X15.8776Y-9.7892
X15.9375Y-4.9688
X15.9375Y-5.7188
X15.9375Y-6.8438
X15.9375Y-7.5938
X15.9375Y-9.8438
X16.5Y-4.9688
X16.5Y-5.7188
X16.5Y-6.8438
X16.5Y-7.5938
X16.5Y-9.8438
X16.5174Y-9.0938
X16.5859Y-6.7841
X16.5941Y-4.9077
X16.5941Y-5.6577
X16.5941Y-7.5327
X16.5941Y-9.0327
X16.5941Y-9.7827
X16.6233Y-6.7867
X16.6276Y-4.9142
X16.6276Y-5.6642
X16.6276Y-7.5392
X16.6276Y-9.0392
X16.6276Y-9.7892
X16.6875Y-4.9688
X16.6875Y-5.7188
X16.6875Y-6.8438
X16.6875Y-7.5938
X16.6875Y-9.0938
X16.6875Y-9.8438
X17.2437Y-6.3496
X17.25Y-4.9688
X17.2674Y-5.7188
X17.2674Y-6.8438
X17.2674Y-7.5938
X17.2674Y-9.8438
X17.3359Y-6.7841
X17.3441Y-4.9077
X17.3441Y-5.6577
X17.3441Y-7.5327
X17.3441Y-9.7827
X17.3733Y-6.7867
X17.3776Y-4.9142
X17.3776Y-5.6642
X17.3776Y-7.5392
X17.3776Y-9.7892
X17.4375Y-6.8438
X17.4375Y-7.5938
X17.4375Y-9.8438
X17.505Y-5.05
X17.51Y-5.115
X17.5297Y-5.0247
X17.61Y-5.04
X18.05Y-5.065
X18.05Y-5.27
X18.1875Y-6.8438
X18.1875Y-7.5938
X18.1875Y-9.8438
X18.2049Y-8.3438
X18.2049Y-9.0938
X18.2734Y-6.7866
X18.2816Y-7.5327
X18.2816Y-8.2827
X18.2816Y-9.0327
X18.2816Y-9.7827
X18.3108Y-6.7842
X18.3151Y-7.5392
X18.3151Y-8.2892
X18.3151Y-9.0392
X18.3151Y-9.7892
X18.375Y-6.8438
X18.375Y-7.5938
X18.375Y-8.3438
X18.375Y-9.0938
X18.375Y-9.8438
X18.407Y-5.687
X18.4122Y-5.9472
X18.4122Y-6.0928
X18.5481Y-5.4558
X18.576Y-5.4401
X18.6273Y-5.4561
X18.6585Y-5.4716
X18.7009Y-5.1741
X18.74Y-6.3653
X18.9375Y-6.8438
X18.9549Y-7.5938
X18.9549Y-8.3438
X18.9549Y-9.0938
X18.9549Y-9.8438
X18.97Y-5.27
X18.975Y-5.075
X19.0234Y-6.7816
X19.0316Y-7.5327
X19.0316Y-8.2827
X19.0316Y-9.0327
X19.0316Y-9.7827
X19.0608Y-6.7842
X19.0651Y-7.5392
X19.0651Y-8.2892
X19.0651Y-9.0392
X19.0651Y-9.7892
X19.105Y-6.1
X19.125Y-6.8438
X19.125Y-7.5938
X19.125Y-8.3438
X19.125Y-9.0938
X19.125Y-9.8438
X19.15Y-5.925
X19.18Y-6.23
X19.295Y-6.335
X19.31Y-5.965
X19.31Y-6.105
X19.3198Y-9.9648
X19.322Y-6.366
X19.322Y-6.493
X19.34Y-5.71
X19.345Y-9.91
X19.359Y-5.9714
X19.359Y-5.885
X19.3594Y-9.2149
X19.3645Y-5.7845
X19.3751Y-9.165
X19.38Y-5.71
X19.39Y-5.965
X19.3908Y-8.465
X19.4Y-6.16
X19.4066Y-8.4176
X19.4223Y-7.7148
X19.4381Y-7.6676
X19.4538Y-6.9648
X19.47Y-6.915
X19.503Y-6.367
X19.503Y-6.493
X19.505Y-6.1
X19.54Y-5.315
X19.585Y-5.8
X19.6273Y-6.21
X19.649Y-6.191
X19.67Y-5.925
X19.6706Y-6.21
X19.6875Y-6.8438
X19.6875Y-7.5938
X19.6875Y-8.3438
X19.6875Y-9.0938
X19.6875Y-9.8438
X19.692Y-6.191
X19.71Y-6.12
X19.714Y-6.21
X19.715Y-5.345
X19.736Y-6.192
X19.758Y-6.21
X19.7734Y-6.7866
X19.7816Y-7.5327
X19.7816Y-8.2827
X19.7816Y-9.0327
X19.7816Y-9.7827
X19.7834Y-6.1924
X19.79Y-5.46
X19.807Y-6.21
X19.8108Y-6.7842
X19.8151Y-7.5392
X19.8151Y-8.2892
X19.8151Y-9.0392
X19.8151Y-9.7892
X19.831Y-6.192
X19.85Y-5.73
X19.875Y-6.8438
X19.875Y-7.5938
X19.875Y-8.3438
X19.875Y-9.0938
X19.875Y-9.8438
X20.2486Y-9.6914
X20.25Y-9.8438
X20.252Y-9.658
X20.3785Y-6.6015
X20.4375Y-6.8438
X20.4549Y-7.5938
X20.4549Y-8.3438
X20.5234Y-6.7866
X20.525Y-8.285
X20.5316Y-7.5327
X20.5608Y-6.7892
X20.5608Y-8.2842
X20.5651Y-7.5392
X20.625Y-8.9062
T2
X19.3669Y-6.0625
X19.4062Y-6.0231
X19.4062Y-6.1019
X19.4456Y-6.0625
T3
X17.865Y-5.17
X17.905Y-5.13
X17.905Y-5.17
X17.905Y-5.21
X17.945Y-5.17
T5
X12.8725Y-5.1875
X12.8725Y-5.2875
X13.6225Y-5.1875
X13.6225Y-5.2875
X14.3725Y-5.1875
X14.3725Y-5.2875
X15.1225Y-5.1875
X15.1225Y-5.2875
X17.78Y-5.0204
X17.78Y-5.1204
X17.78Y-5.2204
X17.78Y-5.3204
X20.315Y-5.0875
X20.315Y-5.1875
X20.315Y-5.2875
T6
X2.6187Y-5.3875
X2.6187Y-7.2625
X2.6187Y-8.0125
X2.6187Y-8.7625
X2.6187Y-9.5125
X2.6187Y-10.2625
X2.8687Y-5.2875
X2.8687Y-7.1625
X2.8687Y-7.9125
X2.8687Y-8.6625
X2.8687Y-9.4125
X2.8687Y-10.1625
X3.3687Y-7.2625
X3.3687Y-8.0125
X3.3687Y-8.7625
X3.3687Y-9.5125
X3.3687Y-10.2625
X3.6187Y-7.1625
X3.6187Y-7.9125
X3.6187Y-8.6625
X3.6187Y-9.4125
X3.6187Y-10.1625
X4.3062Y-7.2625
X4.4Y-10.2625
X4.4937Y-8.0125
X4.5562Y-7.1625
X4.5875Y-8.7625
X4.65Y-10.1625
X4.7437Y-7.9125
X4.775Y-9.5125
X4.8375Y-8.6625
X5.025Y-9.4125
X5.0562Y-7.2625
X5.3062Y-7.1625
X5.3375Y-10.2625
X5.4312Y-8.0125
X5.5875Y-10.1625
X5.6187Y-8.7625
X5.6812Y-7.9125
X5.8062Y-5.3875
X5.8062Y-6.1375
X5.8062Y-7.2625
X5.8687Y-8.6625
X5.9937Y-9.5125
X6.0562Y-5.2875
X6.0562Y-6.0375
X6.0562Y-7.1625
X6.1812Y-8.0125
X6.2437Y-9.4125
X6.275Y-10.2625
X6.3687Y-8.7625
X6.4312Y-7.9125
X6.525Y-10.1625
X6.5562Y-5.3875
X6.5562Y-6.1375
X6.5562Y-7.2625
X6.6187Y-8.6625
X6.7437Y-9.5125
X6.8062Y-5.2875
X6.8062Y-6.0375
X6.8062Y-7.1625
X6.9312Y-8.0125
X6.9937Y-9.4125
X7.1187Y-8.7625
X7.1812Y-7.9125
X7.3062Y-5.3875
X7.3062Y-6.1375
X7.3062Y-7.2625
X7.3687Y-8.6625
X7.4937Y-9.5125
X7.5562Y-5.2875
X7.5562Y-6.0375
X7.5562Y-7.1625
X7.6812Y-8.0125
X7.7437Y-9.4125
X7.8687Y-8.7625
X7.9312Y-7.9125
X8.0563Y-5.3875
X8.0563Y-6.1375
X8.0563Y-7.2625
X8.1188Y-8.6625
X8.2438Y-9.5125
X8.3063Y-5.2875
X8.3063Y-6.0375
X8.3063Y-7.1625
X8.4313Y-8.0125
X8.4938Y-9.4125
X8.6188Y-8.7625
X8.6813Y-7.9125
X8.8063Y-7.2625
X8.8688Y-8.6625
X8.9938Y-9.5125
X9.0563Y-7.1625
X9.0875Y-10.2625
X9.1813Y-5.3875
X9.1813Y-6.1375
X9.1813Y-8.0125
X9.2438Y-9.4125
X9.3375Y-10.1625
X9.3688Y-8.7625
X9.4313Y-5.2875
X9.4313Y-6.0375
X9.4313Y-7.9125
X9.5563Y-7.2625
X9.6188Y-8.6625
X9.7438Y-9.5125
X9.8063Y-7.1625
X9.9313Y-5.3875
X9.9313Y-6.1375
X9.9313Y-8.0125
X9.9938Y-9.4125
X10.1188Y-8.7625
X10.1813Y-5.2875
X10.1813Y-6.0375
X10.1813Y-7.9125
X10.3063Y-7.2625
X10.3688Y-8.6625
X10.4938Y-9.5125
X10.5563Y-7.1625
X10.6813Y-5.3875
X10.6813Y-6.1375
X10.6813Y-8.0125
X10.7438Y-9.4125
X10.8688Y-8.7625
X10.9313Y-5.2875
X10.9313Y-6.0375
X10.9313Y-7.9125
X11.0563Y-7.2625
X11.1188Y-8.6625
X11.2438Y-9.5125
X11.3063Y-7.1625
X11.4313Y-5.3875
X11.4313Y-6.1375
X11.4313Y-8.0125
X11.4938Y-9.4125
X11.6188Y-8.7625
X11.6813Y-5.2875
X11.6813Y-6.0375
X11.6813Y-7.9125
X11.8063Y-7.2625
X11.8688Y-8.6625
X11.9Y-10.2625
X11.9938Y-9.5125
X12.0563Y-7.1625
X12.15Y-10.1625
X12.1813Y-8.0125
X12.2438Y-9.4125
X12.3688Y-8.7625
X12.4313Y-7.9125
X12.5563Y-6.1375
X12.5563Y-7.2625
X12.6188Y-8.6625
X12.7438Y-9.5125
X12.8063Y-6.0375
X12.8063Y-7.1625
X12.8375Y-10.2625
X12.9313Y-8.0125
X12.9938Y-9.4125
X13.0875Y-10.1625
X13.1188Y-8.7625
X13.1813Y-7.9125
X13.3063Y-6.1375
X13.3063Y-7.2625
X13.3688Y-8.6625
X13.5563Y-6.0375
X13.5563Y-7.1625
X13.6813Y-8.0125
X13.775Y-10.2625
X13.9313Y-7.9125
X14.025Y-10.1625
X14.0563Y-6.1375
X14.15Y-9.5125
X14.3063Y-6.0375
X14.3375Y-8.7625
X14.4Y-9.4125
X14.4313Y-7.2625
X14.5875Y-8.6625
X14.6188Y-8.0125
X14.6813Y-7.1625
X14.7125Y-10.2625
X14.8063Y-6.1375
X14.8688Y-7.9125
X14.9625Y-10.1625
X15.0563Y-6.0375
X15.7438Y-5.3875
X15.7438Y-6.1375
X15.7438Y-7.2625
X15.7438Y-8.0125
X15.7438Y-10.2625
X15.9938Y-5.2875
X15.9938Y-6.0375
X15.9938Y-7.1625
X15.9938Y-7.9125
X15.9938Y-10.1625
X16.4937Y-5.3875
X16.4937Y-6.1375
X16.4937Y-7.2625
X16.4937Y-8.0125
X16.4937Y-9.5125
X16.4937Y-10.2625
X16.7437Y-5.2875
X16.7437Y-6.0375
X16.7437Y-7.1625
X16.7437Y-7.9125
X16.7437Y-9.4125
X16.7437Y-10.1625
X17.2437Y-5.3875
X17.2437Y-6.1375
X17.2437Y-7.2625
X17.2437Y-8.0125
X17.2437Y-10.2625
X17.4937Y-5.2875
X17.4937Y-6.0375
X17.4937Y-7.1625
X17.4937Y-7.9125
X17.4937Y-10.1625
X18.1812Y-7.2625
X18.1812Y-8.0125
X18.1812Y-8.7625
X18.1812Y-9.5125
X18.1812Y-10.2625
X18.4312Y-7.1625
X18.4312Y-7.9125
X18.4312Y-8.6625
X18.4312Y-9.4125
X18.4312Y-10.1625
X18.9312Y-7.2625
X18.9312Y-8.0125
X18.9312Y-8.7625
X18.9312Y-9.5125
X18.9312Y-10.2625
X19.1812Y-7.1625
X19.1812Y-7.9125
X19.1812Y-8.6625
X19.1812Y-9.4125
X19.1812Y-10.1625
X19.6812Y-7.2625
X19.6812Y-8.0125
X19.6812Y-8.7625
X19.6812Y-9.5125
X19.6812Y-10.2625
X19.9312Y-7.1625
X19.9312Y-7.9125
X19.9312Y-8.6625
X19.9312Y-9.4125
X19.9312Y-10.1625
X20.4312Y-7.2625
X20.4312Y-8.0125
X20.4312Y-8.7625
X20.6312Y-9.5375
X20.6812Y-7.1625
X20.6812Y-7.9125
X20.6812Y-8.6625
X20.7312Y-9.7875
T4
G00X19.4549Y-4.9156
M15
G01X19.4549Y-4.9392
M16
G05
G00X19.4549Y-5.0703
M15
G01X19.4549Y-5.1136
M16
G05
G00X19.7951Y-4.9156
M15
G01X19.7951Y-4.9392
M16
G05
G00X19.7951Y-5.0703
M15
G01X19.7951Y-5.1136
M16
G05
T0
M30
