%TF.GenerationSoftware,KiCad,Pcbnew,(6.0.7)*%
%TF.CreationDate,2022-09-27T13:03:32-04:00*%
%TF.ProjectId,SweetBusiness,53776565-7442-4757-9369-6e6573732e6b,rev?*%
%TF.SameCoordinates,Original*%
%TF.FileFunction,Paste,Top*%
%TF.FilePolarity,Positive*%
%FSLAX46Y46*%
G04 Gerber Fmt 4.6, Leading zero omitted, Abs format (unit mm)*
G04 Created by KiCad (PCBNEW (6.0.7)) date 2022-09-27 13:03:32*
%MOMM*%
%LPD*%
G01*
G04 APERTURE LIST*
G04 Aperture macros list*
%AMRoundRect*
0 Rectangle with rounded corners*
0 $1 Rounding radius*
0 $2 $3 $4 $5 $6 $7 $8 $9 X,Y pos of 4 corners*
0 Add a 4 corners polygon primitive as box body*
4,1,4,$2,$3,$4,$5,$6,$7,$8,$9,$2,$3,0*
0 Add four circle primitives for the rounded corners*
1,1,$1+$1,$2,$3*
1,1,$1+$1,$4,$5*
1,1,$1+$1,$6,$7*
1,1,$1+$1,$8,$9*
0 Add four rect primitives between the rounded corners*
20,1,$1+$1,$2,$3,$4,$5,0*
20,1,$1+$1,$4,$5,$6,$7,0*
20,1,$1+$1,$6,$7,$8,$9,0*
20,1,$1+$1,$8,$9,$2,$3,0*%
G04 Aperture macros list end*
%ADD10RoundRect,0.147500X0.147500X0.172500X-0.147500X0.172500X-0.147500X-0.172500X0.147500X-0.172500X0*%
%ADD11R,0.700000X0.700000*%
%ADD12RoundRect,0.147500X-0.147500X-0.172500X0.147500X-0.172500X0.147500X0.172500X-0.147500X0.172500X0*%
%ADD13RoundRect,0.147500X-0.172500X0.147500X-0.172500X-0.147500X0.172500X-0.147500X0.172500X0.147500X0*%
G04 APERTURE END LIST*
D10*
%TO.C,LC84*%
X219560000Y55562500D03*
X218590000Y55562500D03*
%TD*%
%TO.C,LC32*%
X90972500Y93662500D03*
X90002500Y93662500D03*
%TD*%
D11*
%TO.C,LD125*%
X424612500Y14531250D03*
X424612500Y15631250D03*
X423112500Y15631250D03*
X423112500Y14531250D03*
%TD*%
%TO.C,LD15*%
X127837500Y120406250D03*
X127837500Y119306250D03*
X129337500Y119306250D03*
X129337500Y120406250D03*
%TD*%
%TO.C,LD95*%
X63543750Y34681250D03*
X63543750Y33581250D03*
X65043750Y33581250D03*
X65043750Y34681250D03*
%TD*%
%TO.C,LD5*%
X148387500Y138356250D03*
X148387500Y139456250D03*
X146887500Y139456250D03*
X146887500Y138356250D03*
%TD*%
D10*
%TO.C,LC86*%
X257660000Y55562500D03*
X256690000Y55562500D03*
%TD*%
%TO.C,LC112*%
X29060000Y17462500D03*
X28090000Y17462500D03*
%TD*%
D11*
%TO.C,LD66*%
X313575000Y72781250D03*
X313575000Y71681250D03*
X315075000Y71681250D03*
X315075000Y72781250D03*
%TD*%
%TO.C,LD17*%
X175462500Y120406250D03*
X175462500Y119306250D03*
X176962500Y119306250D03*
X176962500Y120406250D03*
%TD*%
D12*
%TO.C,LC21*%
X261452500Y122237500D03*
X262422500Y122237500D03*
%TD*%
D10*
%TO.C,LC29*%
X29060000Y93662500D03*
X28090000Y93662500D03*
%TD*%
D11*
%TO.C,LD100*%
X170700000Y34681250D03*
X170700000Y33581250D03*
X172200000Y33581250D03*
X172200000Y34681250D03*
%TD*%
D12*
%TO.C,LC104*%
X247165000Y36512500D03*
X248135000Y36512500D03*
%TD*%
D11*
%TO.C,LD39*%
X224587500Y90731250D03*
X224587500Y91831250D03*
X223087500Y91831250D03*
X223087500Y90731250D03*
%TD*%
D10*
%TO.C,LC41*%
X262422500Y93662500D03*
X261452500Y93662500D03*
%TD*%
D11*
%TO.C,LD47*%
X405562500Y90731250D03*
X405562500Y91831250D03*
X404062500Y91831250D03*
X404062500Y90731250D03*
%TD*%
D12*
%TO.C,LC55*%
X99527500Y74612500D03*
X100497500Y74612500D03*
%TD*%
D11*
%TO.C,LD48*%
X424612500Y90731250D03*
X424612500Y91831250D03*
X423112500Y91831250D03*
X423112500Y90731250D03*
%TD*%
%TO.C,LD3*%
X110287500Y138356250D03*
X110287500Y139456250D03*
X108787500Y139456250D03*
X108787500Y138356250D03*
%TD*%
%TO.C,LD117*%
X246018750Y14531250D03*
X246018750Y15631250D03*
X244518750Y15631250D03*
X244518750Y14531250D03*
%TD*%
D12*
%TO.C,LC59*%
X175727500Y74612500D03*
X176697500Y74612500D03*
%TD*%
D10*
%TO.C,LC81*%
X162410000Y55562500D03*
X161440000Y55562500D03*
%TD*%
D11*
%TO.C,LD54*%
X80212500Y72781250D03*
X80212500Y71681250D03*
X81712500Y71681250D03*
X81712500Y72781250D03*
%TD*%
D10*
%TO.C,LC113*%
X55253750Y17462500D03*
X54283750Y17462500D03*
%TD*%
D12*
%TO.C,LC69*%
X380515000Y74612500D03*
X381485000Y74612500D03*
%TD*%
D11*
%TO.C,LD51*%
X8775000Y72781250D03*
X8775000Y71681250D03*
X10275000Y71681250D03*
X10275000Y72781250D03*
%TD*%
D10*
%TO.C,LC7*%
X195747500Y141287500D03*
X194777500Y141287500D03*
%TD*%
D11*
%TO.C,LD68*%
X361200000Y72781250D03*
X361200000Y71681250D03*
X362700000Y71681250D03*
X362700000Y72781250D03*
%TD*%
%TO.C,LD44*%
X343650000Y90731250D03*
X343650000Y91831250D03*
X342150000Y91831250D03*
X342150000Y90731250D03*
%TD*%
%TO.C,LD41*%
X262687500Y90731250D03*
X262687500Y91831250D03*
X261187500Y91831250D03*
X261187500Y90731250D03*
%TD*%
D10*
%TO.C,LC47*%
X405297500Y93662500D03*
X404327500Y93662500D03*
%TD*%
D11*
%TO.C,LD25*%
X342150000Y120406250D03*
X342150000Y119306250D03*
X343650000Y119306250D03*
X343650000Y120406250D03*
%TD*%
D12*
%TO.C,LC73*%
X461477500Y74612500D03*
X462447500Y74612500D03*
%TD*%
D11*
%TO.C,LD91*%
X443662500Y52631250D03*
X443662500Y53731250D03*
X442162500Y53731250D03*
X442162500Y52631250D03*
%TD*%
%TO.C,LD122*%
X362700000Y14531250D03*
X362700000Y15631250D03*
X361200000Y15631250D03*
X361200000Y14531250D03*
%TD*%
%TO.C,LD89*%
X405562500Y52631250D03*
X405562500Y53731250D03*
X404062500Y53731250D03*
X404062500Y52631250D03*
%TD*%
%TO.C,LD79*%
X124575000Y52631250D03*
X124575000Y53731250D03*
X123075000Y53731250D03*
X123075000Y52631250D03*
%TD*%
D10*
%TO.C,LC42*%
X281472500Y93662500D03*
X280502500Y93662500D03*
%TD*%
D11*
%TO.C,LD34*%
X129337500Y90731250D03*
X129337500Y91831250D03*
X127837500Y91831250D03*
X127837500Y90731250D03*
%TD*%
D10*
%TO.C,LC48*%
X424347500Y93662500D03*
X423377500Y93662500D03*
%TD*%
%TO.C,LC6*%
X176697500Y141287500D03*
X175727500Y141287500D03*
%TD*%
D11*
%TO.C,LD111*%
X10275000Y14531250D03*
X10275000Y15631250D03*
X8775000Y15631250D03*
X8775000Y14531250D03*
%TD*%
D10*
%TO.C,LC4*%
X129072500Y141287500D03*
X128102500Y141287500D03*
%TD*%
D12*
%TO.C,LC66*%
X313840000Y74612500D03*
X314810000Y74612500D03*
%TD*%
D11*
%TO.C,LD97*%
X113550000Y34681250D03*
X113550000Y33581250D03*
X115050000Y33581250D03*
X115050000Y34681250D03*
%TD*%
D10*
%TO.C,LC39*%
X224322500Y93662500D03*
X223352500Y93662500D03*
%TD*%
D11*
%TO.C,LD72*%
X442162500Y72781250D03*
X442162500Y71681250D03*
X443662500Y71681250D03*
X443662500Y72781250D03*
%TD*%
D12*
%TO.C,LC57*%
X137627500Y74612500D03*
X138597500Y74612500D03*
%TD*%
D11*
%TO.C,LD82*%
X181725000Y52631250D03*
X181725000Y53731250D03*
X180225000Y53731250D03*
X180225000Y52631250D03*
%TD*%
%TO.C,LD1*%
X10275000Y138356250D03*
X10275000Y139456250D03*
X8775000Y139456250D03*
X8775000Y138356250D03*
%TD*%
%TO.C,LD46*%
X381750000Y90731250D03*
X381750000Y91831250D03*
X380250000Y91831250D03*
X380250000Y90731250D03*
%TD*%
D10*
%TO.C,LC75*%
X29060000Y55562500D03*
X28090000Y55562500D03*
%TD*%
D12*
%TO.C,LC18*%
X194777500Y122237500D03*
X195747500Y122237500D03*
%TD*%
%TO.C,LC53*%
X56665000Y74612500D03*
X57635000Y74612500D03*
%TD*%
D11*
%TO.C,LD38*%
X205537500Y90731250D03*
X205537500Y91831250D03*
X204037500Y91831250D03*
X204037500Y90731250D03*
%TD*%
D12*
%TO.C,LC14*%
X109052500Y122237500D03*
X110022500Y122237500D03*
%TD*%
%TO.C,LC99*%
X151915000Y36512500D03*
X152885000Y36512500D03*
%TD*%
D11*
%TO.C,LD93*%
X8775000Y34681250D03*
X8775000Y33581250D03*
X10275000Y33581250D03*
X10275000Y34681250D03*
%TD*%
D12*
%TO.C,LC71*%
X423377500Y74612500D03*
X424347500Y74612500D03*
%TD*%
D11*
%TO.C,LD92*%
X462712500Y52631250D03*
X462712500Y53731250D03*
X461212500Y53731250D03*
X461212500Y52631250D03*
%TD*%
D10*
%TO.C,LC118*%
X269566250Y17462500D03*
X268596250Y17462500D03*
%TD*%
D11*
%TO.C,LD94*%
X27825000Y34681250D03*
X27825000Y33581250D03*
X29325000Y33581250D03*
X29325000Y34681250D03*
%TD*%
D12*
%TO.C,LC62*%
X232877500Y74612500D03*
X233847500Y74612500D03*
%TD*%
D10*
%TO.C,LC12*%
X381485000Y141287500D03*
X380515000Y141287500D03*
%TD*%
%TO.C,LC89*%
X405297500Y55562500D03*
X404327500Y55562500D03*
%TD*%
%TO.C,LC45*%
X362435000Y93662500D03*
X361465000Y93662500D03*
%TD*%
%TO.C,LC31*%
X71922500Y93662500D03*
X70952500Y93662500D03*
%TD*%
D11*
%TO.C,LD21*%
X261187500Y120406250D03*
X261187500Y119306250D03*
X262687500Y119306250D03*
X262687500Y120406250D03*
%TD*%
D10*
%TO.C,LC38*%
X205272500Y93662500D03*
X204302500Y93662500D03*
%TD*%
D11*
%TO.C,LD65*%
X289762500Y72781250D03*
X289762500Y71681250D03*
X291262500Y71681250D03*
X291262500Y72781250D03*
%TD*%
D13*
%TO.C,LC127*%
X454025000Y19535000D03*
X454025000Y18565000D03*
%TD*%
D11*
%TO.C,LD62*%
X232612500Y72781250D03*
X232612500Y71681250D03*
X234112500Y71681250D03*
X234112500Y72781250D03*
%TD*%
%TO.C,LD23*%
X299287500Y120406250D03*
X299287500Y119306250D03*
X300787500Y119306250D03*
X300787500Y120406250D03*
%TD*%
%TO.C,LD60*%
X194512500Y72781250D03*
X194512500Y71681250D03*
X196012500Y71681250D03*
X196012500Y72781250D03*
%TD*%
D10*
%TO.C,LC35*%
X148122500Y93662500D03*
X147152500Y93662500D03*
%TD*%
%TO.C,LC82*%
X181460000Y55562500D03*
X180490000Y55562500D03*
%TD*%
D11*
%TO.C,LD37*%
X186487500Y90731250D03*
X186487500Y91831250D03*
X184987500Y91831250D03*
X184987500Y90731250D03*
%TD*%
%TO.C,LD57*%
X137362500Y72781250D03*
X137362500Y71681250D03*
X138862500Y71681250D03*
X138862500Y72781250D03*
%TD*%
D10*
%TO.C,LC43*%
X310047500Y93662500D03*
X309077500Y93662500D03*
%TD*%
D11*
%TO.C,LD22*%
X280237500Y120406250D03*
X280237500Y119306250D03*
X281737500Y119306250D03*
X281737500Y120406250D03*
%TD*%
%TO.C,LD9*%
X234112500Y138356250D03*
X234112500Y139456250D03*
X232612500Y139456250D03*
X232612500Y138356250D03*
%TD*%
D10*
%TO.C,LC119*%
X293378750Y17462500D03*
X292408750Y17462500D03*
%TD*%
%TO.C,LC3*%
X110022500Y141287500D03*
X109052500Y141287500D03*
%TD*%
D11*
%TO.C,LD77*%
X86475000Y52631250D03*
X86475000Y53731250D03*
X84975000Y53731250D03*
X84975000Y52631250D03*
%TD*%
D12*
%TO.C,LC102*%
X209065000Y36512500D03*
X210035000Y36512500D03*
%TD*%
D11*
%TO.C,LD2*%
X91237500Y138356250D03*
X91237500Y139456250D03*
X89737500Y139456250D03*
X89737500Y138356250D03*
%TD*%
D12*
%TO.C,LC97*%
X113815000Y36512500D03*
X114785000Y36512500D03*
%TD*%
%TO.C,LC110*%
X442427500Y36512500D03*
X443397500Y36512500D03*
%TD*%
D11*
%TO.C,LD112*%
X29325000Y14531250D03*
X29325000Y15631250D03*
X27825000Y15631250D03*
X27825000Y14531250D03*
%TD*%
D10*
%TO.C,LC8*%
X214797500Y141287500D03*
X213827500Y141287500D03*
%TD*%
%TO.C,LC50*%
X462447500Y93662500D03*
X461477500Y93662500D03*
%TD*%
%TO.C,LC91*%
X443397500Y55562500D03*
X442427500Y55562500D03*
%TD*%
D11*
%TO.C,LD109*%
X423112500Y34681250D03*
X423112500Y33581250D03*
X424612500Y33581250D03*
X424612500Y34681250D03*
%TD*%
%TO.C,LD16*%
X146887500Y120406250D03*
X146887500Y119306250D03*
X148387500Y119306250D03*
X148387500Y120406250D03*
%TD*%
D12*
%TO.C,LC105*%
X266215000Y36512500D03*
X267185000Y36512500D03*
%TD*%
D10*
%TO.C,LC46*%
X381485000Y93662500D03*
X380515000Y93662500D03*
%TD*%
D12*
%TO.C,LC20*%
X232877500Y122237500D03*
X233847500Y122237500D03*
%TD*%
D11*
%TO.C,LD29*%
X29325000Y90731250D03*
X29325000Y91831250D03*
X27825000Y91831250D03*
X27825000Y90731250D03*
%TD*%
%TO.C,LD64*%
X270712500Y72781250D03*
X270712500Y71681250D03*
X272212500Y71681250D03*
X272212500Y72781250D03*
%TD*%
D10*
%TO.C,LC77*%
X86210000Y55562500D03*
X85240000Y55562500D03*
%TD*%
D11*
%TO.C,LD43*%
X310312500Y90731250D03*
X310312500Y91831250D03*
X308812500Y91831250D03*
X308812500Y90731250D03*
%TD*%
%TO.C,LD14*%
X108787500Y120406250D03*
X108787500Y119306250D03*
X110287500Y119306250D03*
X110287500Y120406250D03*
%TD*%
D10*
%TO.C,LC28*%
X10010000Y93662500D03*
X9040000Y93662500D03*
%TD*%
D11*
%TO.C,LD85*%
X238875000Y52631250D03*
X238875000Y53731250D03*
X237375000Y53731250D03*
X237375000Y52631250D03*
%TD*%
%TO.C,LD63*%
X251662500Y72781250D03*
X251662500Y71681250D03*
X253162500Y71681250D03*
X253162500Y72781250D03*
%TD*%
%TO.C,LD121*%
X343650000Y14531250D03*
X343650000Y15631250D03*
X342150000Y15631250D03*
X342150000Y14531250D03*
%TD*%
%TO.C,LD127*%
X456956250Y19800000D03*
X455856250Y19800000D03*
X455856250Y18300000D03*
X456956250Y18300000D03*
%TD*%
%TO.C,LD36*%
X167437500Y90731250D03*
X167437500Y91831250D03*
X165937500Y91831250D03*
X165937500Y90731250D03*
%TD*%
D12*
%TO.C,LC100*%
X170965000Y36512500D03*
X171935000Y36512500D03*
%TD*%
D11*
%TO.C,LD30*%
X53137500Y90731250D03*
X53137500Y91831250D03*
X51637500Y91831250D03*
X51637500Y90731250D03*
%TD*%
D10*
%TO.C,LC116*%
X174316250Y17462500D03*
X173346250Y17462500D03*
%TD*%
%TO.C,LC49*%
X443397500Y93662500D03*
X442427500Y93662500D03*
%TD*%
D11*
%TO.C,LD11*%
X362700000Y138356250D03*
X362700000Y139456250D03*
X361200000Y139456250D03*
X361200000Y138356250D03*
%TD*%
%TO.C,LD75*%
X29325000Y52631250D03*
X29325000Y53731250D03*
X27825000Y53731250D03*
X27825000Y52631250D03*
%TD*%
%TO.C,LD45*%
X362700000Y90731250D03*
X362700000Y91831250D03*
X361200000Y91831250D03*
X361200000Y90731250D03*
%TD*%
%TO.C,LD80*%
X143625000Y52631250D03*
X143625000Y53731250D03*
X142125000Y53731250D03*
X142125000Y52631250D03*
%TD*%
D10*
%TO.C,LC44*%
X343385000Y93662500D03*
X342415000Y93662500D03*
%TD*%
D11*
%TO.C,LD13*%
X89737500Y120406250D03*
X89737500Y119306250D03*
X91237500Y119306250D03*
X91237500Y120406250D03*
%TD*%
%TO.C,LD61*%
X213562500Y72781250D03*
X213562500Y71681250D03*
X215062500Y71681250D03*
X215062500Y72781250D03*
%TD*%
%TO.C,LD32*%
X91237500Y90731250D03*
X91237500Y91831250D03*
X89737500Y91831250D03*
X89737500Y90731250D03*
%TD*%
%TO.C,LD115*%
X103143750Y14531250D03*
X103143750Y15631250D03*
X101643750Y15631250D03*
X101643750Y14531250D03*
%TD*%
D12*
%TO.C,LC63*%
X251927500Y74612500D03*
X252897500Y74612500D03*
%TD*%
D10*
%TO.C,LC87*%
X276710000Y55562500D03*
X275740000Y55562500D03*
%TD*%
D12*
%TO.C,LC106*%
X301933750Y36512500D03*
X302903750Y36512500D03*
%TD*%
D11*
%TO.C,LD10*%
X343650000Y138356250D03*
X343650000Y139456250D03*
X342150000Y139456250D03*
X342150000Y138356250D03*
%TD*%
D10*
%TO.C,LC90*%
X424347500Y55562500D03*
X423377500Y55562500D03*
%TD*%
D11*
%TO.C,LD88*%
X307931250Y52631250D03*
X307931250Y53731250D03*
X306431250Y53731250D03*
X306431250Y52631250D03*
%TD*%
%TO.C,LD35*%
X148387500Y90731250D03*
X148387500Y91831250D03*
X146887500Y91831250D03*
X146887500Y90731250D03*
%TD*%
D12*
%TO.C,LC58*%
X156677500Y74612500D03*
X157647500Y74612500D03*
%TD*%
D10*
%TO.C,LC88*%
X307666250Y55562500D03*
X306696250Y55562500D03*
%TD*%
D11*
%TO.C,LD124*%
X405562500Y14531250D03*
X405562500Y15631250D03*
X404062500Y15631250D03*
X404062500Y14531250D03*
%TD*%
%TO.C,LD120*%
X317456250Y14531250D03*
X317456250Y15631250D03*
X315956250Y15631250D03*
X315956250Y14531250D03*
%TD*%
D10*
%TO.C,LC37*%
X186222500Y93662500D03*
X185252500Y93662500D03*
%TD*%
D11*
%TO.C,LD101*%
X189750000Y34681250D03*
X189750000Y33581250D03*
X191250000Y33581250D03*
X191250000Y34681250D03*
%TD*%
%TO.C,LD42*%
X281737500Y90731250D03*
X281737500Y91831250D03*
X280237500Y91831250D03*
X280237500Y90731250D03*
%TD*%
%TO.C,LD102*%
X208800000Y34681250D03*
X208800000Y33581250D03*
X210300000Y33581250D03*
X210300000Y34681250D03*
%TD*%
%TO.C,LD58*%
X156412500Y72781250D03*
X156412500Y71681250D03*
X157912500Y71681250D03*
X157912500Y72781250D03*
%TD*%
D12*
%TO.C,LC60*%
X194777500Y74612500D03*
X195747500Y74612500D03*
%TD*%
D11*
%TO.C,LD50*%
X462712500Y90731250D03*
X462712500Y91831250D03*
X461212500Y91831250D03*
X461212500Y90731250D03*
%TD*%
D12*
%TO.C,LC70*%
X404327500Y74612500D03*
X405297500Y74612500D03*
%TD*%
%TO.C,LC23*%
X299552500Y122237500D03*
X300522500Y122237500D03*
%TD*%
D10*
%TO.C,LC5*%
X148122500Y141287500D03*
X147152500Y141287500D03*
%TD*%
%TO.C,LC117*%
X245753750Y17462500D03*
X244783750Y17462500D03*
%TD*%
D12*
%TO.C,LC27*%
X380515000Y122237500D03*
X381485000Y122237500D03*
%TD*%
%TO.C,LC15*%
X128102500Y122237500D03*
X129072500Y122237500D03*
%TD*%
D10*
%TO.C,LC123*%
X381485000Y17462500D03*
X380515000Y17462500D03*
%TD*%
D11*
%TO.C,LD83*%
X200775000Y52631250D03*
X200775000Y53731250D03*
X199275000Y53731250D03*
X199275000Y52631250D03*
%TD*%
%TO.C,LD71*%
X423112500Y72781250D03*
X423112500Y71681250D03*
X424612500Y71681250D03*
X424612500Y72781250D03*
%TD*%
%TO.C,LD24*%
X318337500Y120406250D03*
X318337500Y119306250D03*
X319837500Y119306250D03*
X319837500Y120406250D03*
%TD*%
%TO.C,LD86*%
X257925000Y52631250D03*
X257925000Y53731250D03*
X256425000Y53731250D03*
X256425000Y52631250D03*
%TD*%
%TO.C,LD53*%
X56400000Y72781250D03*
X56400000Y71681250D03*
X57900000Y71681250D03*
X57900000Y72781250D03*
%TD*%
D10*
%TO.C,LC9*%
X233847500Y141287500D03*
X232877500Y141287500D03*
%TD*%
D12*
%TO.C,LC24*%
X318602500Y122237500D03*
X319572500Y122237500D03*
%TD*%
D10*
%TO.C,LC78*%
X105260000Y55562500D03*
X104290000Y55562500D03*
%TD*%
D12*
%TO.C,LC64*%
X270977500Y74612500D03*
X271947500Y74612500D03*
%TD*%
D11*
%TO.C,LD113*%
X55518750Y14531250D03*
X55518750Y15631250D03*
X54018750Y15631250D03*
X54018750Y14531250D03*
%TD*%
%TO.C,LD4*%
X129337500Y138356250D03*
X129337500Y139456250D03*
X127837500Y139456250D03*
X127837500Y138356250D03*
%TD*%
D12*
%TO.C,LC95*%
X63808750Y36512500D03*
X64778750Y36512500D03*
%TD*%
D11*
%TO.C,LD73*%
X461212500Y72781250D03*
X461212500Y71681250D03*
X462712500Y71681250D03*
X462712500Y72781250D03*
%TD*%
D12*
%TO.C,LC13*%
X90002500Y122237500D03*
X90972500Y122237500D03*
%TD*%
D10*
%TO.C,LC120*%
X317191250Y17462500D03*
X316221250Y17462500D03*
%TD*%
D11*
%TO.C,LD116*%
X174581250Y14531250D03*
X174581250Y15631250D03*
X173081250Y15631250D03*
X173081250Y14531250D03*
%TD*%
D12*
%TO.C,LC54*%
X80477500Y74612500D03*
X81447500Y74612500D03*
%TD*%
%TO.C,LC108*%
X404327500Y36512500D03*
X405297500Y36512500D03*
%TD*%
D11*
%TO.C,LD67*%
X342150000Y72781250D03*
X342150000Y71681250D03*
X343650000Y71681250D03*
X343650000Y72781250D03*
%TD*%
D10*
%TO.C,LC79*%
X124310000Y55562500D03*
X123340000Y55562500D03*
%TD*%
%TO.C,LC2*%
X90972500Y141287500D03*
X90002500Y141287500D03*
%TD*%
%TO.C,LC10*%
X343385000Y141287500D03*
X342415000Y141287500D03*
%TD*%
%TO.C,LC33*%
X110022500Y93662500D03*
X109052500Y93662500D03*
%TD*%
D12*
%TO.C,LC109*%
X423377500Y36512500D03*
X424347500Y36512500D03*
%TD*%
D11*
%TO.C,LD26*%
X361200000Y120406250D03*
X361200000Y119306250D03*
X362700000Y119306250D03*
X362700000Y120406250D03*
%TD*%
%TO.C,LD52*%
X27825000Y72781250D03*
X27825000Y71681250D03*
X29325000Y71681250D03*
X29325000Y72781250D03*
%TD*%
%TO.C,LD99*%
X151650000Y34681250D03*
X151650000Y33581250D03*
X153150000Y33581250D03*
X153150000Y34681250D03*
%TD*%
D12*
%TO.C,LC93*%
X9040000Y36512500D03*
X10010000Y36512500D03*
%TD*%
D11*
%TO.C,LD98*%
X132600000Y34681250D03*
X132600000Y33581250D03*
X134100000Y33581250D03*
X134100000Y34681250D03*
%TD*%
D10*
%TO.C,LC34*%
X129072500Y93662500D03*
X128102500Y93662500D03*
%TD*%
D11*
%TO.C,LD96*%
X94500000Y34681250D03*
X94500000Y33581250D03*
X96000000Y33581250D03*
X96000000Y34681250D03*
%TD*%
D10*
%TO.C,LC11*%
X362435000Y141287500D03*
X361465000Y141287500D03*
%TD*%
D11*
%TO.C,LD69*%
X380250000Y72781250D03*
X380250000Y71681250D03*
X381750000Y71681250D03*
X381750000Y72781250D03*
%TD*%
%TO.C,LD6*%
X176962500Y138356250D03*
X176962500Y139456250D03*
X175462500Y139456250D03*
X175462500Y138356250D03*
%TD*%
%TO.C,LD70*%
X404062500Y72781250D03*
X404062500Y71681250D03*
X405562500Y71681250D03*
X405562500Y72781250D03*
%TD*%
D10*
%TO.C,LC76*%
X60016250Y55562500D03*
X59046250Y55562500D03*
%TD*%
D12*
%TO.C,LC16*%
X147152500Y122237500D03*
X148122500Y122237500D03*
%TD*%
D10*
%TO.C,LC125*%
X424347500Y17462500D03*
X423377500Y17462500D03*
%TD*%
D11*
%TO.C,LD103*%
X227850000Y34681250D03*
X227850000Y33581250D03*
X229350000Y33581250D03*
X229350000Y34681250D03*
%TD*%
D10*
%TO.C,LC122*%
X362435000Y17462500D03*
X361465000Y17462500D03*
%TD*%
D11*
%TO.C,LD106*%
X301668750Y34681250D03*
X301668750Y33581250D03*
X303168750Y33581250D03*
X303168750Y34681250D03*
%TD*%
D10*
%TO.C,LC80*%
X143360000Y55562500D03*
X142390000Y55562500D03*
%TD*%
D12*
%TO.C,LC65*%
X290027500Y74612500D03*
X290997500Y74612500D03*
%TD*%
D11*
%TO.C,LD31*%
X72187500Y90731250D03*
X72187500Y91831250D03*
X70687500Y91831250D03*
X70687500Y90731250D03*
%TD*%
D10*
%TO.C,LC126*%
X443397500Y17462500D03*
X442427500Y17462500D03*
%TD*%
D11*
%TO.C,LD55*%
X99262500Y72781250D03*
X99262500Y71681250D03*
X100762500Y71681250D03*
X100762500Y72781250D03*
%TD*%
%TO.C,LD49*%
X443662500Y90731250D03*
X443662500Y91831250D03*
X442162500Y91831250D03*
X442162500Y90731250D03*
%TD*%
%TO.C,LD84*%
X219825000Y52631250D03*
X219825000Y53731250D03*
X218325000Y53731250D03*
X218325000Y52631250D03*
%TD*%
%TO.C,LD28*%
X10275000Y90731250D03*
X10275000Y91831250D03*
X8775000Y91831250D03*
X8775000Y90731250D03*
%TD*%
D12*
%TO.C,LC67*%
X342415000Y74612500D03*
X343385000Y74612500D03*
%TD*%
%TO.C,LC68*%
X361465000Y74612500D03*
X362435000Y74612500D03*
%TD*%
D11*
%TO.C,LD114*%
X79331250Y14531250D03*
X79331250Y15631250D03*
X77831250Y15631250D03*
X77831250Y14531250D03*
%TD*%
%TO.C,LD7*%
X196012500Y138356250D03*
X196012500Y139456250D03*
X194512500Y139456250D03*
X194512500Y138356250D03*
%TD*%
%TO.C,LD78*%
X105525000Y52631250D03*
X105525000Y53731250D03*
X104025000Y53731250D03*
X104025000Y52631250D03*
%TD*%
%TO.C,LD119*%
X293643750Y14531250D03*
X293643750Y15631250D03*
X292143750Y15631250D03*
X292143750Y14531250D03*
%TD*%
%TO.C,LD74*%
X10275000Y52631250D03*
X10275000Y53731250D03*
X8775000Y53731250D03*
X8775000Y52631250D03*
%TD*%
%TO.C,LD90*%
X424612500Y52631250D03*
X424612500Y53731250D03*
X423112500Y53731250D03*
X423112500Y52631250D03*
%TD*%
%TO.C,LD12*%
X381750000Y138356250D03*
X381750000Y139456250D03*
X380250000Y139456250D03*
X380250000Y138356250D03*
%TD*%
D10*
%TO.C,LC121*%
X343385000Y17462500D03*
X342415000Y17462500D03*
%TD*%
D11*
%TO.C,LD107*%
X361200000Y34681250D03*
X361200000Y33581250D03*
X362700000Y33581250D03*
X362700000Y34681250D03*
%TD*%
D10*
%TO.C,LC1*%
X10010000Y141287500D03*
X9040000Y141287500D03*
%TD*%
%TO.C,LC30*%
X52872500Y93662500D03*
X51902500Y93662500D03*
%TD*%
D11*
%TO.C,LD56*%
X118312500Y72781250D03*
X118312500Y71681250D03*
X119812500Y71681250D03*
X119812500Y72781250D03*
%TD*%
%TO.C,LD40*%
X243637500Y90731250D03*
X243637500Y91831250D03*
X242137500Y91831250D03*
X242137500Y90731250D03*
%TD*%
%TO.C,LD18*%
X194512500Y120406250D03*
X194512500Y119306250D03*
X196012500Y119306250D03*
X196012500Y120406250D03*
%TD*%
D12*
%TO.C,LC25*%
X342415000Y122237500D03*
X343385000Y122237500D03*
%TD*%
%TO.C,LC17*%
X175727500Y122237500D03*
X176697500Y122237500D03*
%TD*%
D11*
%TO.C,LD33*%
X110287500Y90731250D03*
X110287500Y91831250D03*
X108787500Y91831250D03*
X108787500Y90731250D03*
%TD*%
D12*
%TO.C,LC22*%
X280502500Y122237500D03*
X281472500Y122237500D03*
%TD*%
D10*
%TO.C,LC111*%
X10010000Y17462500D03*
X9040000Y17462500D03*
%TD*%
%TO.C,LC85*%
X238610000Y55562500D03*
X237640000Y55562500D03*
%TD*%
D11*
%TO.C,LD87*%
X276975000Y52631250D03*
X276975000Y53731250D03*
X275475000Y53731250D03*
X275475000Y52631250D03*
%TD*%
%TO.C,LD123*%
X381750000Y14531250D03*
X381750000Y15631250D03*
X380250000Y15631250D03*
X380250000Y14531250D03*
%TD*%
D10*
%TO.C,LC74*%
X10010000Y55562500D03*
X9040000Y55562500D03*
%TD*%
D11*
%TO.C,LD81*%
X162675000Y52631250D03*
X162675000Y53731250D03*
X161175000Y53731250D03*
X161175000Y52631250D03*
%TD*%
D12*
%TO.C,LC96*%
X94765000Y36512500D03*
X95735000Y36512500D03*
%TD*%
D11*
%TO.C,LD19*%
X213562500Y120406250D03*
X213562500Y119306250D03*
X215062500Y119306250D03*
X215062500Y120406250D03*
%TD*%
D10*
%TO.C,LC36*%
X167172500Y93662500D03*
X166202500Y93662500D03*
%TD*%
%TO.C,LC115*%
X102878750Y17462500D03*
X101908750Y17462500D03*
%TD*%
D11*
%TO.C,LD20*%
X232612500Y120406250D03*
X232612500Y119306250D03*
X234112500Y119306250D03*
X234112500Y120406250D03*
%TD*%
D12*
%TO.C,LC19*%
X213827500Y122237500D03*
X214797500Y122237500D03*
%TD*%
%TO.C,LC103*%
X228115000Y36512500D03*
X229085000Y36512500D03*
%TD*%
%TO.C,LC98*%
X132865000Y36512500D03*
X133835000Y36512500D03*
%TD*%
%TO.C,LC52*%
X28090000Y74612500D03*
X29060000Y74612500D03*
%TD*%
D11*
%TO.C,LD76*%
X60281250Y52631250D03*
X60281250Y53731250D03*
X58781250Y53731250D03*
X58781250Y52631250D03*
%TD*%
D10*
%TO.C,LC124*%
X405297500Y17462500D03*
X404327500Y17462500D03*
%TD*%
D11*
%TO.C,LD59*%
X175462500Y72781250D03*
X175462500Y71681250D03*
X176962500Y71681250D03*
X176962500Y72781250D03*
%TD*%
%TO.C,LD8*%
X215062500Y138356250D03*
X215062500Y139456250D03*
X213562500Y139456250D03*
X213562500Y138356250D03*
%TD*%
D10*
%TO.C,LC40*%
X243372500Y93662500D03*
X242402500Y93662500D03*
%TD*%
D11*
%TO.C,LD104*%
X246900000Y34681250D03*
X246900000Y33581250D03*
X248400000Y33581250D03*
X248400000Y34681250D03*
%TD*%
%TO.C,LD105*%
X265950000Y34681250D03*
X265950000Y33581250D03*
X267450000Y33581250D03*
X267450000Y34681250D03*
%TD*%
D12*
%TO.C,LC101*%
X190015000Y36512500D03*
X190985000Y36512500D03*
%TD*%
%TO.C,LC51*%
X9040000Y74612500D03*
X10010000Y74612500D03*
%TD*%
%TO.C,LC26*%
X361465000Y122237500D03*
X362435000Y122237500D03*
%TD*%
%TO.C,LC107*%
X361465000Y36512500D03*
X362435000Y36512500D03*
%TD*%
D10*
%TO.C,LC92*%
X462447500Y55562500D03*
X461477500Y55562500D03*
%TD*%
D11*
%TO.C,LD110*%
X442162500Y34681250D03*
X442162500Y33581250D03*
X443662500Y33581250D03*
X443662500Y34681250D03*
%TD*%
D10*
%TO.C,LC114*%
X79066250Y17462500D03*
X78096250Y17462500D03*
%TD*%
D11*
%TO.C,LD27*%
X380250000Y120406250D03*
X380250000Y119306250D03*
X381750000Y119306250D03*
X381750000Y120406250D03*
%TD*%
%TO.C,LD126*%
X443662500Y14531250D03*
X443662500Y15631250D03*
X442162500Y15631250D03*
X442162500Y14531250D03*
%TD*%
D12*
%TO.C,LC56*%
X118577500Y74612500D03*
X119547500Y74612500D03*
%TD*%
D11*
%TO.C,LD118*%
X269831250Y14531250D03*
X269831250Y15631250D03*
X268331250Y15631250D03*
X268331250Y14531250D03*
%TD*%
D10*
%TO.C,LC83*%
X200510000Y55562500D03*
X199540000Y55562500D03*
%TD*%
D11*
%TO.C,LD108*%
X404062500Y34681250D03*
X404062500Y33581250D03*
X405562500Y33581250D03*
X405562500Y34681250D03*
%TD*%
D12*
%TO.C,LC61*%
X213827500Y74612500D03*
X214797500Y74612500D03*
%TD*%
%TO.C,LC72*%
X442427500Y74612500D03*
X443397500Y74612500D03*
%TD*%
%TO.C,LC94*%
X28090000Y36512500D03*
X29060000Y36512500D03*
%TD*%
M02*
