M48
; DRILL file {KiCad (6.0.0)} date Sat May 21 11:05:54 2022
; FORMAT={-:-/ absolute / inch / decimal}
; #@! TF.CreationDate,2022-05-21T11:05:54-04:00
; #@! TF.GenerationSoftware,Kicad,Pcbnew,(6.0.0)
; #@! TF.FileFunction,Plated,1,2,PTH
FMAT,2
INCH
; #@! TA.AperFunction,Plated,PTH,ViaDrill
T1C0.0118
; #@! TA.AperFunction,Plated,PTH,ComponentDrill
T2C0.0236
; #@! TA.AperFunction,Plated,PTH,ComponentDrill
T3C0.0500
; #@! TA.AperFunction,Plated,PTH,ComponentDrill
T4C0.0590
; #@! TA.AperFunction,Plated,PTH,ComponentDrill
T5C0.0866
%
G90
G05
T1
X1.5312Y-4.1247
X1.6312Y-4.0213
X1.6561Y-3.281
X1.675Y-3.87
X1.68Y-3.11
X1.7327Y-3.3123
X1.7499Y-3.406
X1.76Y-4.375
X1.7844Y-3.985
X1.81Y-4.195
X1.8144Y-3.37
X1.865Y-3.14
X1.895Y-3.35
X1.9061Y-4.4372
X1.92Y-3.38
X1.955Y-3.06
X1.955Y-3.28
X1.99Y-3.755
X2.027Y-3.3075
X2.06Y-3.12
X2.085Y-3.275
X2.2811Y-4.1247
X2.5912Y-4.0588
X2.5936Y-4.4372
X2.6238Y-4.8088
X2.6538Y-5.5588
X2.6562Y-3.7188
X2.7186Y-4.4372
X2.765Y-3.605
X2.81Y-3.59
X2.85Y-3.59
X2.875Y-3.7188
X2.885Y-2.92
X2.8862Y-3.5899
X3.0Y-3.295
X3.0Y-3.425
X3.005Y-3.06
X3.0311Y-4.1247
X3.046Y-3.497
X3.05Y-3.03
X3.07Y-3.595
X3.09Y-2.875
X3.09Y-3.07
X3.092Y-3.387
X3.105Y-3.276
X3.1554Y-3.2693
X3.18Y-4.98
X3.1873Y-3.1248
X3.19Y-3.399
X3.2Y-4.9
X3.2Y-5.05
X3.21Y-2.905
X3.2498Y-3.8748
X3.27Y-3.425
X3.271Y-3.732
X3.279Y-3.698
X3.281Y-2.9686
X3.305Y-3.265
X3.335Y-3.665
X3.3435Y-3.9685
X3.3567Y-3.4633
X3.37Y-3.66
X3.3748Y-3.5623
X3.406Y-3.531
X3.406Y-3.5935
X3.4224Y-3.4633
X3.425Y-2.9
X3.425Y-2.975
X3.425Y-3.08
X3.425Y-3.27
X3.4373Y-3.5623
X3.4373Y-4.4372
X3.4641Y-3.7915
X3.495Y-3.15
X3.52Y-3.81
X3.595Y-3.38
X3.605Y-3.31
X3.64Y-2.92
X3.68Y-3.605
X3.69Y-3.725
X3.72Y-3.44
X3.781Y-3.3748
X3.781Y-4.1247
X3.8Y-3.44
X3.8435Y-3.425
X3.855Y-3.675
X3.985Y-3.425
X4.031Y-3.3435
X4.04Y-3.76
X4.156Y-4.4372
X4.531Y-4.1247
X4.6312Y-3.4987
X4.9059Y-4.4372
X5.3122Y-4.1247
X5.3122Y-5.5934
X5.3812Y-3.4838
X5.5621Y-5.3747
X5.5621Y-5.4997
X5.6246Y-5.5934
X5.6559Y-4.4372
X6.0309Y-4.1247
X6.1312Y-3.4712
X6.4058Y-4.4372
X6.7808Y-4.1247
X6.8812Y-3.4612
X7.1558Y-4.4372
X7.5308Y-4.1247
X7.6312Y-3.4438
X7.9058Y-4.4372
X8.2807Y-4.1247
X8.3432Y-5.6246
X8.3812Y-3.4287
X8.562Y-5.3747
X8.562Y-5.4997
X8.6245Y-5.5621
X8.687Y-4.4372
X9.0307Y-4.1247
X9.1312Y-3.4187
X9.4057Y-4.4372
X9.7806Y-4.1247
X9.8812Y-3.4038
X10.1869Y-4.4372
X10.5306Y-4.1247
X10.6312Y-3.3887
X10.9056Y-4.4372
X11.2805Y-4.1247
X11.3812Y-3.3788
X11.6555Y-4.4372
X12.0305Y-4.0935
X12.1312Y-3.3678
X12.4055Y-4.4372
X12.7804Y-4.1247
X12.8812Y-3.3365
T3
X1.5312Y-2.9552
X1.5312Y-3.7052
X1.5312Y-4.4552
X1.5312Y-5.2052
X1.7281Y-3.0379
X1.7281Y-3.7879
X1.7281Y-4.5379
X1.7281Y-5.2879
X2.2812Y-2.9552
X2.2812Y-3.7052
X2.2812Y-4.4552
X2.2812Y-5.2052
X2.4781Y-3.0379
X2.4781Y-3.7879
X2.4781Y-4.5379
X2.4781Y-5.2879
X3.0312Y-2.9547
X3.0312Y-3.7052
X3.0312Y-4.4552
X3.0312Y-5.2052
X3.2281Y-3.0374
X3.2281Y-3.7879
X3.2281Y-4.5379
X3.2281Y-5.2879
X3.7812Y-2.9552
X3.7812Y-3.7052
X3.7812Y-4.4552
X3.7812Y-5.2052
X3.9781Y-3.0379
X3.9781Y-3.7879
X3.9781Y-4.5379
X3.9781Y-5.2879
X4.5312Y-2.9552
X4.5312Y-3.7052
X4.5312Y-4.4552
X4.5312Y-5.2052
X4.7281Y-3.0379
X4.7281Y-3.7879
X4.7281Y-4.5379
X4.7281Y-5.2879
X5.2812Y-2.9552
X5.2812Y-3.7052
X5.2812Y-4.4552
X5.2812Y-5.2052
X5.4594Y-5.5871
X5.4781Y-3.0379
X5.4781Y-3.7879
X5.4781Y-4.5379
X5.4781Y-5.2879
X5.6562Y-5.6698
X6.0312Y-2.9552
X6.0312Y-3.7052
X6.0312Y-4.4552
X6.0312Y-5.2052
X6.2281Y-3.0379
X6.2281Y-3.7879
X6.2281Y-4.5379
X6.2281Y-5.2879
X6.7812Y-2.9552
X6.7812Y-3.7052
X6.7812Y-4.4552
X6.7812Y-5.2052
X6.9781Y-3.0379
X6.9781Y-3.7879
X6.9781Y-4.5379
X6.9781Y-5.2879
X7.5312Y-2.9552
X7.5312Y-3.7052
X7.5312Y-4.4552
X7.5312Y-5.2052
X7.7281Y-3.0379
X7.7281Y-3.7879
X7.7281Y-4.5379
X7.7281Y-5.2879
X8.2812Y-2.9552
X8.2812Y-3.7052
X8.2812Y-4.4552
X8.2812Y-5.2052
X8.4594Y-5.5871
X8.4781Y-3.0379
X8.4781Y-3.7879
X8.4781Y-4.5379
X8.4781Y-5.2879
X8.6562Y-5.6698
X9.0312Y-2.9552
X9.0312Y-3.7052
X9.0312Y-4.4552
X9.0312Y-5.2052
X9.2281Y-3.0379
X9.2281Y-3.7879
X9.2281Y-4.5379
X9.2281Y-5.2879
X9.7812Y-2.9552
X9.7812Y-3.7052
X9.7812Y-4.4552
X9.7812Y-5.2052
X9.9781Y-3.0379
X9.9781Y-3.7879
X9.9781Y-4.5379
X9.9781Y-5.2879
X10.5312Y-2.9552
X10.5312Y-3.7052
X10.5312Y-4.4552
X10.5312Y-5.2052
X10.7281Y-3.0379
X10.7281Y-3.7879
X10.7281Y-4.5379
X10.7281Y-5.2879
X11.2812Y-2.9552
X11.2812Y-3.7052
X11.2812Y-4.4552
X11.2812Y-5.2052
X11.4781Y-3.0379
X11.4781Y-3.7879
X11.4781Y-4.5379
X11.4781Y-5.2879
X12.0312Y-2.9552
X12.0312Y-3.7052
X12.0312Y-4.4552
X12.0312Y-5.2052
X12.2281Y-3.0379
X12.2281Y-3.7879
X12.2281Y-4.5379
X12.2281Y-5.2879
X12.7812Y-2.9552
X12.7812Y-3.7052
X12.7812Y-4.4552
X12.7812Y-5.2052
X12.9781Y-3.0379
X12.9781Y-3.7879
X12.9781Y-4.5379
X12.9781Y-5.2879
T4
X1.3812Y-3.0875
X1.3812Y-3.8375
X1.3812Y-4.5875
X1.3812Y-5.3375
X1.6312Y-2.9875
X1.6312Y-3.7375
X1.6312Y-4.4875
X1.6312Y-5.2375
X2.1313Y-3.0875
X2.1313Y-3.8375
X2.1313Y-4.5875
X2.1313Y-5.3375
X2.3813Y-2.9875
X2.3813Y-3.7375
X2.3813Y-4.4875
X2.3813Y-5.2375
X2.8813Y-3.087
X2.8813Y-3.8375
X2.8813Y-4.5875
X2.8813Y-5.3375
X3.1313Y-2.987
X3.1313Y-3.7375
X3.1313Y-4.4875
X3.1313Y-5.2375
X3.6313Y-3.0875
X3.6313Y-3.8375
X3.6313Y-4.5875
X3.6313Y-5.3375
X3.8813Y-2.9875
X3.8813Y-3.7375
X3.8813Y-4.4875
X3.8813Y-5.2375
X4.3812Y-3.0875
X4.3812Y-3.8375
X4.3812Y-4.5875
X4.3812Y-5.3375
X4.6312Y-2.9875
X4.6312Y-3.7375
X4.6312Y-4.4875
X4.6312Y-5.2375
X5.1312Y-3.0875
X5.1312Y-3.8375
X5.1312Y-4.5875
X5.1312Y-5.3375
X5.3812Y-2.9875
X5.3812Y-3.7375
X5.3812Y-4.4875
X5.3812Y-5.2375
X5.5562Y-5.6375
X5.8062Y-5.5375
X5.8812Y-3.0875
X5.8812Y-3.8375
X5.8812Y-4.5875
X5.8812Y-5.3375
X6.1312Y-2.9875
X6.1312Y-3.7375
X6.1312Y-4.4875
X6.1312Y-5.2375
X6.6312Y-3.0875
X6.6312Y-3.8375
X6.6312Y-4.5875
X6.6312Y-5.3375
X6.8812Y-2.9875
X6.8812Y-3.7375
X6.8812Y-4.4875
X6.8812Y-5.2375
X7.3812Y-3.0875
X7.3812Y-3.8375
X7.3812Y-4.5875
X7.3812Y-5.3375
X7.6312Y-2.9875
X7.6312Y-3.7375
X7.6312Y-4.4875
X7.6312Y-5.2375
X8.1312Y-3.0875
X8.1312Y-3.8375
X8.1312Y-4.5875
X8.1312Y-5.3375
X8.3812Y-2.9875
X8.3812Y-3.7375
X8.3812Y-4.4875
X8.3812Y-5.2375
X8.5563Y-5.6375
X8.8063Y-5.5375
X8.8812Y-3.0875
X8.8812Y-3.8375
X8.8812Y-4.5875
X8.8812Y-5.3375
X9.1312Y-2.9875
X9.1312Y-3.7375
X9.1312Y-4.4875
X9.1312Y-5.2375
X9.6312Y-3.0875
X9.6312Y-3.8375
X9.6312Y-4.5875
X9.6312Y-5.3375
X9.8812Y-2.9875
X9.8812Y-3.7375
X9.8812Y-4.4875
X9.8812Y-5.2375
X10.3812Y-3.0875
X10.3812Y-3.8375
X10.3812Y-4.5875
X10.3812Y-5.3375
X10.6312Y-2.9875
X10.6312Y-3.7375
X10.6312Y-4.4875
X10.6312Y-5.2375
X11.1312Y-3.0875
X11.1312Y-3.8375
X11.1312Y-4.5875
X11.1312Y-5.3375
X11.3812Y-2.9875
X11.3812Y-3.7375
X11.3812Y-4.4875
X11.3812Y-5.2375
X11.8812Y-3.0875
X11.8812Y-3.8375
X11.8812Y-4.5875
X11.8812Y-5.3375
X12.1312Y-2.9875
X12.1312Y-3.7375
X12.1312Y-4.4875
X12.1312Y-5.2375
X12.6312Y-3.0875
X12.6312Y-3.8375
X12.6312Y-4.5875
X12.6312Y-5.3375
X12.8812Y-2.9875
X12.8812Y-3.7375
X12.8812Y-4.4875
X12.8812Y-5.2375
T5
X2.6562Y-3.5623
X2.6562Y-5.0622
X5.6562Y-3.5625
X5.6562Y-5.0624
X8.6562Y-3.5623
X8.6562Y-5.0622
X11.6561Y-3.5623
X11.6561Y-5.0622
T2
G00X1.7749Y-2.7519
M15
G01X1.7749Y-2.7755
M16
G05
G00X1.7749Y-2.9066
M15
G01X1.7749Y-2.9499
M16
G05
G00X2.1151Y-2.7519
M15
G01X2.1151Y-2.7755
M16
G05
G00X2.1151Y-2.9066
M15
G01X2.1151Y-2.9499
M16
G05
T0
M30
