%TF.GenerationSoftware,KiCad,Pcbnew,(6.0.0)*%
%TF.CreationDate,2022-05-03T01:33:48-04:00*%
%TF.ProjectId,HL-2040,484c2d32-3034-4302-9e6b-696361645f70,Mark 2 Rev F*%
%TF.SameCoordinates,Original*%
%TF.FileFunction,Paste,Bot*%
%TF.FilePolarity,Positive*%
%FSLAX46Y46*%
G04 Gerber Fmt 4.6, Leading zero omitted, Abs format (unit mm)*
G04 Created by KiCad (PCBNEW (6.0.0)) date 2022-05-03 01:33:48*
%MOMM*%
%LPD*%
G01*
G04 APERTURE LIST*
G04 Aperture macros list*
%AMRoundRect*
0 Rectangle with rounded corners*
0 $1 Rounding radius*
0 $2 $3 $4 $5 $6 $7 $8 $9 X,Y pos of 4 corners*
0 Add a 4 corners polygon primitive as box body*
4,1,4,$2,$3,$4,$5,$6,$7,$8,$9,$2,$3,0*
0 Add four circle primitives for the rounded corners*
1,1,$1+$1,$2,$3*
1,1,$1+$1,$4,$5*
1,1,$1+$1,$6,$7*
1,1,$1+$1,$8,$9*
0 Add four rect primitives between the rounded corners*
20,1,$1+$1,$2,$3,$4,$5,0*
20,1,$1+$1,$4,$5,$6,$7,0*
20,1,$1+$1,$6,$7,$8,$9,0*
20,1,$1+$1,$8,$9,$2,$3,0*%
%AMFreePoly0*
4,1,11,2.050000,0.700000,1.609078,0.700000,0.750000,0.169394,0.750000,-0.500000,-0.750000,-0.500000,-0.750000,0.500000,0.333781,0.500000,1.350000,1.127665,1.350000,1.400000,2.050000,1.400000,2.050000,0.700000,2.050000,0.700000,$1*%
%AMFreePoly1*
4,1,11,0.750000,-0.169394,1.609078,-0.700000,2.050000,-0.700000,2.050000,-1.400000,1.350000,-1.400000,1.350000,-1.127665,0.333781,-0.500000,-0.750000,-0.500000,-0.750000,0.500000,0.750000,0.500000,0.750000,-0.169394,0.750000,-0.169394,$1*%
%AMFreePoly2*
4,1,11,0.750000,-0.500000,-0.333780,-0.500000,-1.350000,-1.127665,-1.350000,-1.400000,-2.050000,-1.400000,-2.050000,-0.700000,-1.609076,-0.700000,-0.750000,-0.169394,-0.750000,0.500000,0.750000,0.500000,0.750000,-0.500000,0.750000,-0.500000,$1*%
%AMFreePoly3*
4,1,11,-1.350000,1.127665,-0.333780,0.500000,0.750000,0.500000,0.750000,-0.500000,-0.750000,-0.500000,-0.750000,0.169394,-1.609076,0.700000,-2.050000,0.700000,-2.050000,1.400000,-1.350000,1.400000,-1.350000,1.127665,-1.350000,1.127665,$1*%
G04 Aperture macros list end*
%ADD10C,0.010000*%
%ADD11RoundRect,0.147500X-0.147500X-0.172500X0.147500X-0.172500X0.147500X0.172500X-0.147500X0.172500X0*%
%ADD12RoundRect,0.147500X0.147500X0.172500X-0.147500X0.172500X-0.147500X-0.172500X0.147500X-0.172500X0*%
%ADD13RoundRect,0.147500X0.172500X-0.147500X0.172500X0.147500X-0.172500X0.147500X-0.172500X-0.147500X0*%
%ADD14RoundRect,0.250000X0.292217X0.292217X-0.292217X0.292217X-0.292217X-0.292217X0.292217X-0.292217X0*%
%ADD15RoundRect,0.050000X0.387500X0.050000X-0.387500X0.050000X-0.387500X-0.050000X0.387500X-0.050000X0*%
%ADD16RoundRect,0.050000X0.050000X0.387500X-0.050000X0.387500X-0.050000X-0.387500X0.050000X-0.387500X0*%
%ADD17R,3.050000X3.050000*%
%ADD18R,0.700000X0.600000*%
%ADD19RoundRect,0.147500X-0.172500X0.147500X-0.172500X-0.147500X0.172500X-0.147500X0.172500X0.147500X0*%
%ADD20RoundRect,0.212500X-0.212500X0.400000X-0.212500X-0.400000X0.212500X-0.400000X0.212500X0.400000X0*%
%ADD21R,0.800000X0.900000*%
%ADD22R,0.600000X1.450000*%
%ADD23R,0.300000X1.450000*%
%ADD24FreePoly0,180.000000*%
%ADD25FreePoly1,180.000000*%
%ADD26FreePoly2,180.000000*%
%ADD27FreePoly3,180.000000*%
%ADD28R,2.000000X4.200000*%
%ADD29RoundRect,0.250000X0.435000X0.615000X-0.435000X0.615000X-0.435000X-0.615000X0.435000X-0.615000X0*%
%ADD30RoundRect,0.125000X0.250000X0.125000X-0.250000X0.125000X-0.250000X-0.125000X0.250000X-0.125000X0*%
%ADD31R,1.400000X1.200000*%
%ADD32RoundRect,0.150000X0.150000X-0.587500X0.150000X0.587500X-0.150000X0.587500X-0.150000X-0.587500X0*%
%ADD33RoundRect,0.150000X0.150000X-0.512500X0.150000X0.512500X-0.150000X0.512500X-0.150000X-0.512500X0*%
G04 APERTURE END LIST*
D10*
%TO.C,S2*%
X107214000Y-74203000D02*
X106764000Y-74203000D01*
X106764000Y-74203000D02*
X106764000Y-74653000D01*
X106764000Y-74653000D02*
X107214000Y-74653000D01*
X107214000Y-74653000D02*
X107214000Y-74203000D01*
G36*
X107214000Y-74653000D02*
G01*
X106764000Y-74653000D01*
X106764000Y-74203000D01*
X107214000Y-74203000D01*
X107214000Y-74653000D01*
G37*
X107214000Y-74653000D02*
X106764000Y-74653000D01*
X106764000Y-74203000D01*
X107214000Y-74203000D01*
X107214000Y-74653000D01*
X104564000Y-74953000D02*
X104114000Y-74953000D01*
X104114000Y-74953000D02*
X104114000Y-75403000D01*
X104114000Y-75403000D02*
X104564000Y-75403000D01*
X104564000Y-75403000D02*
X104564000Y-74953000D01*
G36*
X104564000Y-75403000D02*
G01*
X104114000Y-75403000D01*
X104114000Y-74953000D01*
X104564000Y-74953000D01*
X104564000Y-75403000D01*
G37*
X104564000Y-75403000D02*
X104114000Y-75403000D01*
X104114000Y-74953000D01*
X104564000Y-74953000D01*
X104564000Y-75403000D01*
X104564000Y-74203000D02*
X104114000Y-74203000D01*
X104114000Y-74203000D02*
X104114000Y-74653000D01*
X104114000Y-74653000D02*
X104564000Y-74653000D01*
X104564000Y-74653000D02*
X104564000Y-74203000D01*
G36*
X104564000Y-74653000D02*
G01*
X104114000Y-74653000D01*
X104114000Y-74203000D01*
X104564000Y-74203000D01*
X104564000Y-74653000D01*
G37*
X104564000Y-74653000D02*
X104114000Y-74653000D01*
X104114000Y-74203000D01*
X104564000Y-74203000D01*
X104564000Y-74653000D01*
X107214000Y-74953000D02*
X106764000Y-74953000D01*
X106764000Y-74953000D02*
X106764000Y-75403000D01*
X106764000Y-75403000D02*
X107214000Y-75403000D01*
X107214000Y-75403000D02*
X107214000Y-74953000D01*
G36*
X107214000Y-75403000D02*
G01*
X106764000Y-75403000D01*
X106764000Y-74953000D01*
X107214000Y-74953000D01*
X107214000Y-75403000D01*
G37*
X107214000Y-75403000D02*
X106764000Y-75403000D01*
X106764000Y-74953000D01*
X107214000Y-74953000D01*
X107214000Y-75403000D01*
%TD*%
D11*
%TO.C,C1*%
X91158200Y-87477600D03*
X92128200Y-87477600D03*
%TD*%
D12*
%TO.C,C2*%
X86108400Y-95808800D03*
X85138400Y-95808800D03*
%TD*%
D11*
%TO.C,C3*%
X92479000Y-91694000D03*
X93449000Y-91694000D03*
%TD*%
D13*
%TO.C,C6*%
X82296000Y-85321000D03*
X82296000Y-84351000D03*
%TD*%
%TO.C,C8*%
X85090000Y-84886800D03*
X85090000Y-83916800D03*
%TD*%
D14*
%TO.C,U0*%
X87124500Y-91125000D03*
X85849500Y-89850000D03*
X87124500Y-89850000D03*
X85849500Y-91125000D03*
D15*
X89924500Y-87887500D03*
X89924500Y-88287500D03*
X89924500Y-88687500D03*
X89924500Y-89087500D03*
X89924500Y-89487500D03*
X89924500Y-89887500D03*
X89924500Y-90287500D03*
X89924500Y-90687500D03*
X89924500Y-91087500D03*
X89924500Y-91487500D03*
X89924500Y-91887500D03*
X89924500Y-92287500D03*
X89924500Y-92687500D03*
X89924500Y-93087500D03*
D16*
X89087000Y-93925000D03*
X88687000Y-93925000D03*
X88287000Y-93925000D03*
X87887000Y-93925000D03*
X87487000Y-93925000D03*
X87087000Y-93925000D03*
X86687000Y-93925000D03*
X86287000Y-93925000D03*
X85887000Y-93925000D03*
X85487000Y-93925000D03*
X85087000Y-93925000D03*
X84687000Y-93925000D03*
X84287000Y-93925000D03*
X83887000Y-93925000D03*
D15*
X83049500Y-93087500D03*
X83049500Y-92687500D03*
X83049500Y-92287500D03*
X83049500Y-91887500D03*
X83049500Y-91487500D03*
X83049500Y-91087500D03*
X83049500Y-90687500D03*
X83049500Y-90287500D03*
X83049500Y-89887500D03*
X83049500Y-89487500D03*
X83049500Y-89087500D03*
X83049500Y-88687500D03*
X83049500Y-88287500D03*
X83049500Y-87887500D03*
D16*
X83887000Y-87050000D03*
X84287000Y-87050000D03*
X84687000Y-87050000D03*
X85087000Y-87050000D03*
X85487000Y-87050000D03*
X85887000Y-87050000D03*
X86287000Y-87050000D03*
X86687000Y-87050000D03*
X87087000Y-87050000D03*
X87487000Y-87050000D03*
X87887000Y-87050000D03*
X88287000Y-87050000D03*
X88687000Y-87050000D03*
X89087000Y-87050000D03*
D17*
X86487000Y-90487500D03*
%TD*%
D13*
%TO.C,C7*%
X83312000Y-85321000D03*
X83312000Y-84351000D03*
%TD*%
D18*
%TO.C,D1*%
X35718750Y-84043750D03*
X35718750Y-82643750D03*
%TD*%
%TO.C,D2*%
X54768750Y-84043750D03*
X54768750Y-82643750D03*
%TD*%
%TO.C,D3*%
X73818750Y-84043750D03*
X73818750Y-82643750D03*
%TD*%
%TO.C,D4*%
X92868750Y-84043750D03*
X92868750Y-82643750D03*
%TD*%
%TO.C,D5*%
X111918750Y-84043750D03*
X111918750Y-82643750D03*
%TD*%
%TO.C,D6*%
X130968750Y-84043750D03*
X130968750Y-82643750D03*
%TD*%
%TO.C,D7*%
X150018750Y-84043750D03*
X150018750Y-82643750D03*
%TD*%
%TO.C,D8*%
X169068750Y-84043750D03*
X169068750Y-82643750D03*
%TD*%
%TO.C,D9*%
X188118750Y-84043750D03*
X188118750Y-82643750D03*
%TD*%
%TO.C,D10*%
X207168750Y-84043750D03*
X207168750Y-82643750D03*
%TD*%
%TO.C,D11*%
X226218750Y-84043750D03*
X226218750Y-82643750D03*
%TD*%
%TO.C,D12*%
X245268750Y-84043750D03*
X245268750Y-82643750D03*
%TD*%
%TO.C,D13*%
X264318750Y-84043750D03*
X264318750Y-82643750D03*
%TD*%
%TO.C,D14*%
X283368750Y-84043750D03*
X283368750Y-82643750D03*
%TD*%
%TO.C,D15*%
X302418750Y-84043750D03*
X302418750Y-82643750D03*
%TD*%
%TO.C,D16*%
X321468750Y-84043750D03*
X321468750Y-82643750D03*
%TD*%
%TO.C,D17*%
X35718750Y-103093750D03*
X35718750Y-101693750D03*
%TD*%
%TO.C,D18*%
X54768750Y-103093750D03*
X54768750Y-101693750D03*
%TD*%
%TO.C,D19*%
X73818750Y-103093750D03*
X73818750Y-101693750D03*
%TD*%
%TO.C,D20*%
X92868750Y-103093750D03*
X92868750Y-101693750D03*
%TD*%
%TO.C,D21*%
X111918750Y-103093750D03*
X111918750Y-101693750D03*
%TD*%
%TO.C,D22*%
X130968750Y-103093750D03*
X130968750Y-101693750D03*
%TD*%
%TO.C,D23*%
X150018750Y-103093750D03*
X150018750Y-101693750D03*
%TD*%
%TO.C,D24*%
X169068750Y-103093750D03*
X169068750Y-101693750D03*
%TD*%
%TO.C,D25*%
X188118750Y-103031250D03*
X188118750Y-101631250D03*
%TD*%
%TO.C,D26*%
X207168750Y-103106250D03*
X207168750Y-101706250D03*
%TD*%
%TO.C,D27*%
X226218750Y-103093750D03*
X226218750Y-101693750D03*
%TD*%
%TO.C,D28*%
X245268750Y-103093750D03*
X245268750Y-101693750D03*
%TD*%
%TO.C,D29*%
X264318750Y-103093750D03*
X264318750Y-101693750D03*
%TD*%
%TO.C,D30*%
X283368750Y-103093750D03*
X283368750Y-101693750D03*
%TD*%
%TO.C,D31*%
X302418750Y-103093750D03*
X302418750Y-101693750D03*
%TD*%
%TO.C,D32*%
X321468750Y-103093750D03*
X321468750Y-101693750D03*
%TD*%
%TO.C,D33*%
X35718750Y-122143750D03*
X35718750Y-120743750D03*
%TD*%
%TO.C,D34*%
X54768750Y-122143750D03*
X54768750Y-120743750D03*
%TD*%
%TO.C,D35*%
X73818750Y-122143750D03*
X73818750Y-120743750D03*
%TD*%
%TO.C,D36*%
X92868750Y-122143750D03*
X92868750Y-120743750D03*
%TD*%
%TO.C,D37*%
X111918750Y-122143750D03*
X111918750Y-120743750D03*
%TD*%
%TO.C,D38*%
X130968750Y-122143750D03*
X130968750Y-120743750D03*
%TD*%
%TO.C,D39*%
X150018750Y-122143750D03*
X150018750Y-120743750D03*
%TD*%
%TO.C,D40*%
X169068750Y-122143750D03*
X169068750Y-120743750D03*
%TD*%
%TO.C,D41*%
X188118750Y-122143750D03*
X188118750Y-120743750D03*
%TD*%
%TO.C,D42*%
X207168750Y-122143750D03*
X207168750Y-120743750D03*
%TD*%
%TO.C,D43*%
X226218750Y-122143750D03*
X226218750Y-120743750D03*
%TD*%
%TO.C,D44*%
X245268750Y-122143750D03*
X245268750Y-120743750D03*
%TD*%
%TO.C,D45*%
X264318750Y-122143750D03*
X264318750Y-120743750D03*
%TD*%
%TO.C,D46*%
X283368750Y-122143750D03*
X283368750Y-120743750D03*
%TD*%
%TO.C,D47*%
X302418750Y-122143750D03*
X302418750Y-120743750D03*
%TD*%
%TO.C,D48*%
X321468750Y-122143750D03*
X321468750Y-120743750D03*
%TD*%
%TO.C,D49*%
X35718750Y-141193750D03*
X35718750Y-139793750D03*
%TD*%
%TO.C,D50*%
X54768750Y-141193750D03*
X54768750Y-139793750D03*
%TD*%
%TO.C,D51*%
X73818750Y-141193750D03*
X73818750Y-139793750D03*
%TD*%
%TO.C,D52*%
X92868750Y-141193750D03*
X92868750Y-139793750D03*
%TD*%
%TO.C,D53*%
X111918750Y-141193750D03*
X111918750Y-139793750D03*
%TD*%
%TO.C,D54*%
X130968750Y-141193750D03*
X130968750Y-139793750D03*
%TD*%
%TO.C,D55*%
X150018750Y-141193750D03*
X150018750Y-139793750D03*
%TD*%
%TO.C,D56*%
X169068750Y-141193750D03*
X169068750Y-139793750D03*
%TD*%
%TO.C,D57*%
X188118750Y-141193750D03*
X188118750Y-139793750D03*
%TD*%
%TO.C,D58*%
X207168750Y-141193750D03*
X207168750Y-139793750D03*
%TD*%
%TO.C,D59*%
X226218750Y-141193750D03*
X226218750Y-139793750D03*
%TD*%
%TO.C,D60*%
X245268750Y-141193750D03*
X245268750Y-139793750D03*
%TD*%
%TO.C,D61*%
X264318750Y-141193750D03*
X264318750Y-139793750D03*
%TD*%
%TO.C,D62*%
X283368750Y-141193750D03*
X283368750Y-139793750D03*
%TD*%
%TO.C,D63*%
X302418750Y-141193750D03*
X302418750Y-139793750D03*
%TD*%
%TO.C,D64*%
X321468750Y-141193750D03*
X321468750Y-139793750D03*
%TD*%
D13*
%TO.C,RC2*%
X51593750Y-78272500D03*
X51593750Y-77302500D03*
%TD*%
D19*
%TO.C,RC1*%
X47625000Y-77302500D03*
X47625000Y-78272500D03*
%TD*%
D11*
%TO.C,RD1*%
X78581250Y-83916800D03*
X79551250Y-83916800D03*
%TD*%
D20*
%TO.C,F0*%
X46069250Y-77737000D03*
X46069250Y-79362000D03*
%TD*%
D21*
%TO.C,U1*%
X47781250Y-85124800D03*
X45881250Y-85124800D03*
X46831250Y-83124800D03*
%TD*%
D12*
%TO.C,LC1*%
X48992475Y-105480000D03*
X48022475Y-105480000D03*
%TD*%
%TO.C,C4*%
X80241000Y-91690000D03*
X79271000Y-91690000D03*
%TD*%
D22*
%TO.C,J0*%
X46153000Y-75292000D03*
X46953000Y-75292000D03*
D23*
X48153000Y-75292000D03*
X49153000Y-75292000D03*
X49653000Y-75292000D03*
X50653000Y-75292000D03*
D22*
X51853000Y-75292000D03*
X52653000Y-75292000D03*
X52653000Y-75292000D03*
X51853000Y-75292000D03*
D23*
X51153000Y-75292000D03*
X50153000Y-75292000D03*
X48653000Y-75292000D03*
X47653000Y-75292000D03*
D22*
X46953000Y-75292000D03*
X46153000Y-75292000D03*
%TD*%
D12*
%TO.C,LC3*%
X66104700Y-105480000D03*
X65134700Y-105480000D03*
%TD*%
%TO.C,LC10*%
X126327275Y-105480000D03*
X125357275Y-105480000D03*
%TD*%
%TO.C,LC12*%
X143533725Y-105480000D03*
X142563725Y-105480000D03*
%TD*%
%TO.C,LC6*%
X91914375Y-105480000D03*
X90944375Y-105480000D03*
%TD*%
%TO.C,LC8*%
X109120825Y-105480000D03*
X108150825Y-105480000D03*
%TD*%
%TO.C,LC9*%
X117724050Y-105480000D03*
X116754050Y-105480000D03*
%TD*%
%TO.C,LC7*%
X100517600Y-105480000D03*
X99547600Y-105480000D03*
%TD*%
%TO.C,LC5*%
X83311150Y-105480000D03*
X82341150Y-105480000D03*
%TD*%
%TO.C,LC11*%
X134930500Y-105480000D03*
X133960500Y-105480000D03*
%TD*%
%TO.C,LC13*%
X152136950Y-105480000D03*
X151166950Y-105480000D03*
%TD*%
%TO.C,LC4*%
X74707925Y-105480000D03*
X73737925Y-105480000D03*
%TD*%
%TO.C,LC14*%
X160740175Y-105480000D03*
X159770175Y-105480000D03*
%TD*%
%TO.C,LC15*%
X169343400Y-105480000D03*
X168373400Y-105480000D03*
%TD*%
%TO.C,LC16*%
X177946625Y-105480000D03*
X176976625Y-105480000D03*
%TD*%
%TO.C,LC17*%
X186549850Y-105480000D03*
X185579850Y-105480000D03*
%TD*%
%TO.C,LC18*%
X195153075Y-105480000D03*
X194183075Y-105480000D03*
%TD*%
%TO.C,LC19*%
X203756300Y-105480000D03*
X202786300Y-105480000D03*
%TD*%
%TO.C,LC20*%
X212359525Y-105480000D03*
X211389525Y-105480000D03*
%TD*%
%TO.C,LC21*%
X220950475Y-105480000D03*
X219980475Y-105480000D03*
%TD*%
%TO.C,LC22*%
X229565975Y-105480000D03*
X228595975Y-105480000D03*
%TD*%
%TO.C,LC23*%
X238169200Y-105480000D03*
X237199200Y-105480000D03*
%TD*%
%TO.C,LC24*%
X246772425Y-105480000D03*
X245802425Y-105480000D03*
%TD*%
%TO.C,LC25*%
X255341275Y-105480000D03*
X254371275Y-105480000D03*
%TD*%
%TO.C,LC26*%
X263978875Y-105480000D03*
X263008875Y-105480000D03*
%TD*%
%TO.C,LC27*%
X272582100Y-105480000D03*
X271612100Y-105480000D03*
%TD*%
%TO.C,LC28*%
X281185325Y-105480000D03*
X280215325Y-105480000D03*
%TD*%
%TO.C,LC29*%
X289788550Y-105480000D03*
X288818550Y-105480000D03*
%TD*%
%TO.C,LC30*%
X298319900Y-105480000D03*
X297349900Y-105480000D03*
%TD*%
%TO.C,LC31*%
X306995000Y-105480000D03*
X306025000Y-105480000D03*
%TD*%
%TO.C,LC32*%
X315598225Y-105480000D03*
X314628225Y-105480000D03*
%TD*%
D24*
%TO.C,LD16*%
X179917125Y-107937500D03*
D25*
X179917125Y-111137500D03*
D26*
X175017125Y-111137500D03*
D27*
X175017125Y-107937500D03*
%TD*%
D24*
%TO.C,LD17*%
X188520350Y-107937500D03*
D25*
X188520350Y-111137500D03*
D26*
X183620350Y-111137500D03*
D27*
X183620350Y-107937500D03*
%TD*%
D24*
%TO.C,LD18*%
X197123575Y-107937500D03*
D25*
X197123575Y-111137500D03*
D26*
X192223575Y-111137500D03*
D27*
X192223575Y-107937500D03*
%TD*%
D24*
%TO.C,LD19*%
X205726800Y-107937500D03*
D25*
X205726800Y-111137500D03*
D26*
X200826800Y-111137500D03*
D27*
X200826800Y-107937500D03*
%TD*%
D24*
%TO.C,LD20*%
X214330025Y-107937500D03*
D25*
X214330025Y-111137500D03*
D26*
X209430025Y-111137500D03*
D27*
X209430025Y-107937500D03*
%TD*%
D24*
%TO.C,LD21*%
X222933250Y-107937500D03*
D25*
X222933250Y-111137500D03*
D26*
X218033250Y-111137500D03*
D27*
X218033250Y-107937500D03*
%TD*%
D24*
%TO.C,LD22*%
X231536475Y-107937500D03*
D25*
X231536475Y-111137500D03*
D26*
X226636475Y-111137500D03*
D27*
X226636475Y-107937500D03*
%TD*%
D24*
%TO.C,LD23*%
X240139700Y-107937500D03*
D25*
X240139700Y-111137500D03*
D26*
X235239700Y-111137500D03*
D27*
X235239700Y-107937500D03*
%TD*%
D24*
%TO.C,LD24*%
X248742925Y-107937500D03*
D25*
X248742925Y-111137500D03*
D26*
X243842925Y-111137500D03*
D27*
X243842925Y-107937500D03*
%TD*%
D24*
%TO.C,LD25*%
X257380525Y-107937500D03*
D25*
X257380525Y-111137500D03*
D26*
X252480525Y-111137500D03*
D27*
X252480525Y-107937500D03*
%TD*%
D24*
%TO.C,LD26*%
X265949375Y-107937500D03*
D25*
X265949375Y-111137500D03*
D26*
X261049375Y-111137500D03*
D27*
X261049375Y-107937500D03*
%TD*%
D24*
%TO.C,LD27*%
X274552600Y-107937500D03*
D25*
X274552600Y-111137500D03*
D26*
X269652600Y-111137500D03*
D27*
X269652600Y-107937500D03*
%TD*%
D24*
%TO.C,LD28*%
X283155825Y-107937500D03*
D25*
X283155825Y-111137500D03*
D26*
X278255825Y-111137500D03*
D27*
X278255825Y-107937500D03*
%TD*%
D24*
%TO.C,LD29*%
X291759050Y-107937500D03*
D25*
X291759050Y-111137500D03*
D26*
X286859050Y-111137500D03*
D27*
X286859050Y-107937500D03*
%TD*%
D24*
%TO.C,LD30*%
X300434150Y-107937500D03*
D25*
X300434150Y-111137500D03*
D26*
X295534150Y-111137500D03*
D27*
X295534150Y-107937500D03*
%TD*%
D24*
%TO.C,LD32*%
X317568725Y-107937500D03*
D25*
X317568725Y-111137500D03*
D26*
X312668725Y-111137500D03*
D27*
X312668725Y-107937500D03*
%TD*%
D24*
%TO.C,LD31*%
X308965500Y-107937500D03*
D25*
X308965500Y-111137500D03*
D26*
X304065500Y-111137500D03*
D27*
X304065500Y-107937500D03*
%TD*%
D24*
%TO.C,LD15*%
X171313900Y-107937500D03*
D25*
X171313900Y-111137500D03*
D26*
X166413900Y-111137500D03*
D27*
X166413900Y-107937500D03*
%TD*%
D24*
%TO.C,LD14*%
X162710675Y-107937500D03*
D25*
X162710675Y-111137500D03*
D26*
X157810675Y-111137500D03*
D27*
X157810675Y-107937500D03*
%TD*%
D24*
%TO.C,LD12*%
X145504225Y-107937500D03*
D25*
X145504225Y-111137500D03*
D26*
X140604225Y-111137500D03*
D27*
X140604225Y-107937500D03*
%TD*%
D24*
%TO.C,LD10*%
X128297775Y-107937500D03*
D25*
X128297775Y-111137500D03*
D26*
X123397775Y-111137500D03*
D27*
X123397775Y-107937500D03*
%TD*%
D24*
%TO.C,LD13*%
X154107450Y-107937500D03*
D25*
X154107450Y-111137500D03*
D26*
X149207450Y-111137500D03*
D27*
X149207450Y-107937500D03*
%TD*%
D24*
%TO.C,LD5*%
X85281650Y-107937500D03*
D25*
X85281650Y-111137500D03*
D26*
X80381650Y-111137500D03*
D27*
X80381650Y-107937500D03*
%TD*%
D24*
%TO.C,LD11*%
X136901000Y-107937500D03*
D25*
X136901000Y-111137500D03*
D26*
X132001000Y-111137500D03*
D27*
X132001000Y-107937500D03*
%TD*%
D24*
%TO.C,LD6*%
X93884875Y-107937500D03*
D25*
X93884875Y-111137500D03*
D26*
X88984875Y-111137500D03*
D27*
X88984875Y-107937500D03*
%TD*%
D24*
%TO.C,LD7*%
X102488100Y-107937500D03*
D25*
X102488100Y-111137500D03*
D26*
X97588100Y-111137500D03*
D27*
X97588100Y-107937500D03*
%TD*%
D24*
%TO.C,LD8*%
X111091325Y-107937500D03*
D25*
X111091325Y-111137500D03*
D26*
X106191325Y-111137500D03*
D27*
X106191325Y-107937500D03*
%TD*%
D24*
%TO.C,LD9*%
X119694550Y-107937500D03*
D25*
X119694550Y-111137500D03*
D26*
X114794550Y-111137500D03*
D27*
X114794550Y-107937500D03*
%TD*%
D24*
%TO.C,LD2*%
X59471975Y-107937500D03*
D25*
X59471975Y-111137500D03*
D26*
X54571975Y-111137500D03*
D27*
X54571975Y-107937500D03*
%TD*%
D24*
%TO.C,LD1*%
X50868750Y-107937500D03*
D25*
X50868750Y-111137500D03*
D26*
X45968750Y-111137500D03*
D27*
X45968750Y-107937500D03*
%TD*%
D24*
%TO.C,LD3*%
X68075200Y-107937500D03*
D25*
X68075200Y-111137500D03*
D26*
X63175200Y-111137500D03*
D27*
X63175200Y-107937500D03*
%TD*%
D24*
%TO.C,LD4*%
X76678425Y-107937500D03*
D25*
X76678425Y-111137500D03*
D26*
X71778425Y-111137500D03*
D27*
X71778425Y-107937500D03*
%TD*%
D12*
%TO.C,LC2*%
X57501475Y-105480000D03*
X56531475Y-105480000D03*
%TD*%
%TO.C,C5*%
X81815800Y-87503000D03*
X80845800Y-87503000D03*
%TD*%
D28*
%TO.C,TX0*%
X81788000Y-127762000D03*
X89788000Y-127762000D03*
%TD*%
%TO.C,TX1*%
X70802000Y-127762000D03*
X62802000Y-127762000D03*
%TD*%
D19*
%TO.C,CF1*%
X83100000Y-73115000D03*
X83100000Y-74085000D03*
%TD*%
D13*
%TO.C,C10*%
X87122000Y-84886800D03*
X87122000Y-83916800D03*
%TD*%
D19*
%TO.C,C11*%
X83820000Y-97813000D03*
X83820000Y-98783000D03*
%TD*%
D29*
%TO.C,U3*%
X86150000Y-76075000D03*
X87850000Y-73925000D03*
X86150000Y-73925000D03*
X87850000Y-76075000D03*
D30*
X89700000Y-73095000D03*
X89700000Y-74365000D03*
X89700000Y-75635000D03*
X89700000Y-76905000D03*
X84300000Y-76905000D03*
X84300000Y-75635000D03*
X84300000Y-74365000D03*
X84300000Y-73095000D03*
%TD*%
D18*
%TO.C,D58.1*%
X222504000Y-134237500D03*
X222504000Y-135637500D03*
%TD*%
D31*
%TO.C,Y0*%
X87841000Y-100037000D03*
X85641000Y-100037000D03*
X85641000Y-98337000D03*
X87841000Y-98337000D03*
%TD*%
D13*
%TO.C,RR1*%
X83820000Y-96751000D03*
X83820000Y-95781000D03*
%TD*%
D32*
%TO.C,Q0*%
X42860000Y-86027500D03*
X40960000Y-86027500D03*
X41910000Y-84152500D03*
%TD*%
D33*
%TO.C,U2*%
X51343600Y-85262300D03*
X50393600Y-85262300D03*
X49443600Y-85262300D03*
X49443600Y-82987300D03*
X50393600Y-82987300D03*
X51343600Y-82987300D03*
%TD*%
D19*
%TO.C,RQ0*%
X44196000Y-85367000D03*
X44196000Y-86337000D03*
%TD*%
D11*
%TO.C,RD0*%
X78581250Y-84932800D03*
X79551250Y-84932800D03*
%TD*%
D19*
%TO.C,RF1*%
X103251000Y-74318000D03*
X103251000Y-75288000D03*
%TD*%
D18*
%TO.C,D54.1*%
X146558000Y-134301000D03*
X146558000Y-135701000D03*
%TD*%
D12*
%TO.C,CX2*%
X88343600Y-96901000D03*
X87373600Y-96901000D03*
%TD*%
%TO.C,CP2*%
X46840000Y-86436200D03*
X45870000Y-86436200D03*
%TD*%
D13*
%TO.C,C9*%
X86106000Y-84886800D03*
X86106000Y-83916800D03*
%TD*%
D11*
%TO.C,CP1*%
X45844600Y-81813400D03*
X46814600Y-81813400D03*
%TD*%
D12*
%TO.C,CX1*%
X86108400Y-96901000D03*
X85138400Y-96901000D03*
%TD*%
D19*
%TO.C,RQ1*%
X39624000Y-85367000D03*
X39624000Y-86337000D03*
%TD*%
D11*
%TO.C,RX1*%
X87373600Y-95808800D03*
X88343600Y-95808800D03*
%TD*%
M02*
