%TF.GenerationSoftware,KiCad,Pcbnew,(6.0.0)*%
%TF.CreationDate,2022-05-03T01:33:48-04:00*%
%TF.ProjectId,HL-2040,484c2d32-3034-4302-9e6b-696361645f70,Mark 2 Rev F*%
%TF.SameCoordinates,Original*%
%TF.FileFunction,Legend,Top*%
%TF.FilePolarity,Positive*%
%FSLAX46Y46*%
G04 Gerber Fmt 4.6, Leading zero omitted, Abs format (unit mm)*
G04 Created by KiCad (PCBNEW (6.0.0)) date 2022-05-03 01:33:48*
%MOMM*%
%LPD*%
G01*
G04 APERTURE LIST*
%ADD10C,0.150000*%
%ADD11C,0.120000*%
G04 APERTURE END LIST*
D10*
%TO.C,J1*%
X66484380Y-89233333D02*
X67198666Y-89233333D01*
X67341523Y-89280952D01*
X67436761Y-89376190D01*
X67484380Y-89519047D01*
X67484380Y-89614285D01*
X67484380Y-88233333D02*
X67484380Y-88804761D01*
X67484380Y-88519047D02*
X66484380Y-88519047D01*
X66627238Y-88614285D01*
X66722476Y-88709523D01*
X66770095Y-88804761D01*
D11*
%TO.C,K2*%
X65087050Y-73819200D02*
X65087050Y-74612900D01*
X50800450Y-88105800D02*
X51594150Y-88105800D01*
X65087050Y-88105800D02*
X64293350Y-88105800D01*
X50800450Y-74612900D02*
X50800450Y-73819200D01*
X50800450Y-73819200D02*
X51594150Y-73819200D01*
X64293350Y-73819200D02*
X65087050Y-73819200D01*
X50800450Y-87312100D02*
X50800450Y-88105800D01*
X65087050Y-87312100D02*
X65087050Y-88105800D01*
%TO.C,K3*%
X69850450Y-74600200D02*
X69850450Y-73806500D01*
X84137050Y-73806500D02*
X84137050Y-74600200D01*
X84137050Y-88093100D02*
X83343350Y-88093100D01*
X84137050Y-87299400D02*
X84137050Y-88093100D01*
X69850450Y-87299400D02*
X69850450Y-88093100D01*
X69850450Y-73806500D02*
X70644150Y-73806500D01*
X69850450Y-88093100D02*
X70644150Y-88093100D01*
X83343350Y-73806500D02*
X84137050Y-73806500D01*
%TO.C,K6*%
X141287050Y-73819200D02*
X141287050Y-74612900D01*
X140493350Y-73819200D02*
X141287050Y-73819200D01*
X141287050Y-87312100D02*
X141287050Y-88105800D01*
X127000450Y-74612900D02*
X127000450Y-73819200D01*
X127000450Y-73819200D02*
X127794150Y-73819200D01*
X127000450Y-87312100D02*
X127000450Y-88105800D01*
X127000450Y-88105800D02*
X127794150Y-88105800D01*
X141287050Y-88105800D02*
X140493350Y-88105800D01*
%TO.C,K7*%
X160337050Y-73819200D02*
X160337050Y-74612900D01*
X146050450Y-74612900D02*
X146050450Y-73819200D01*
X160337050Y-88105800D02*
X159543350Y-88105800D01*
X160337050Y-87312100D02*
X160337050Y-88105800D01*
X146050450Y-88105800D02*
X146844150Y-88105800D01*
X146050450Y-87312100D02*
X146050450Y-88105800D01*
X146050450Y-73819200D02*
X146844150Y-73819200D01*
X159543350Y-73819200D02*
X160337050Y-73819200D01*
%TO.C,K8*%
X179387050Y-88105800D02*
X178593350Y-88105800D01*
X179387050Y-73819200D02*
X179387050Y-74612900D01*
X165100450Y-87312100D02*
X165100450Y-88105800D01*
X179387050Y-87312100D02*
X179387050Y-88105800D01*
X178593350Y-73819200D02*
X179387050Y-73819200D01*
X165100450Y-88105800D02*
X165894150Y-88105800D01*
X165100450Y-74612900D02*
X165100450Y-73819200D01*
X165100450Y-73819200D02*
X165894150Y-73819200D01*
%TO.C,K9*%
X197643350Y-73819200D02*
X198437050Y-73819200D01*
X184150450Y-88105800D02*
X184944150Y-88105800D01*
X184150450Y-74612900D02*
X184150450Y-73819200D01*
X184150450Y-73819200D02*
X184944150Y-73819200D01*
X198437050Y-88105800D02*
X197643350Y-88105800D01*
X198437050Y-73819200D02*
X198437050Y-74612900D01*
X184150450Y-87312100D02*
X184150450Y-88105800D01*
X198437050Y-87312100D02*
X198437050Y-88105800D01*
%TO.C,K10*%
X203200450Y-73819200D02*
X203994150Y-73819200D01*
X203200450Y-88105800D02*
X203994150Y-88105800D01*
X203200450Y-87312100D02*
X203200450Y-88105800D01*
X217487050Y-73819200D02*
X217487050Y-74612900D01*
X217487050Y-88105800D02*
X216693350Y-88105800D01*
X217487050Y-87312100D02*
X217487050Y-88105800D01*
X216693350Y-73819200D02*
X217487050Y-73819200D01*
X203200450Y-74612900D02*
X203200450Y-73819200D01*
%TO.C,K11*%
X222250450Y-74612900D02*
X222250450Y-73819200D01*
X236537050Y-87312100D02*
X236537050Y-88105800D01*
X222250450Y-88105800D02*
X223044150Y-88105800D01*
X222250450Y-73819200D02*
X223044150Y-73819200D01*
X236537050Y-88105800D02*
X235743350Y-88105800D01*
X222250450Y-87312100D02*
X222250450Y-88105800D01*
X236537050Y-73819200D02*
X236537050Y-74612900D01*
X235743350Y-73819200D02*
X236537050Y-73819200D01*
%TO.C,K12*%
X241300450Y-87312100D02*
X241300450Y-88105800D01*
X241300450Y-88105800D02*
X242094150Y-88105800D01*
X254793350Y-73819200D02*
X255587050Y-73819200D01*
X241300450Y-73819200D02*
X242094150Y-73819200D01*
X255587050Y-88105800D02*
X254793350Y-88105800D01*
X255587050Y-73819200D02*
X255587050Y-74612900D01*
X241300450Y-74612900D02*
X241300450Y-73819200D01*
X255587050Y-87312100D02*
X255587050Y-88105800D01*
%TO.C,K13*%
X274637050Y-73819200D02*
X274637050Y-74612900D01*
X274637050Y-87312100D02*
X274637050Y-88105800D01*
X260350450Y-87312100D02*
X260350450Y-88105800D01*
X273843350Y-73819200D02*
X274637050Y-73819200D01*
X260350450Y-73819200D02*
X261144150Y-73819200D01*
X260350450Y-88105800D02*
X261144150Y-88105800D01*
X260350450Y-74612900D02*
X260350450Y-73819200D01*
X274637050Y-88105800D02*
X273843350Y-88105800D01*
%TO.C,K14*%
X292893350Y-73819200D02*
X293687050Y-73819200D01*
X293687050Y-73819200D02*
X293687050Y-74612900D01*
X279400450Y-87312100D02*
X279400450Y-88105800D01*
X293687050Y-87312100D02*
X293687050Y-88105800D01*
X279400450Y-88105800D02*
X280194150Y-88105800D01*
X279400450Y-74612900D02*
X279400450Y-73819200D01*
X293687050Y-88105800D02*
X292893350Y-88105800D01*
X279400450Y-73819200D02*
X280194150Y-73819200D01*
%TO.C,K15*%
X312737050Y-73819200D02*
X312737050Y-74612900D01*
X312737050Y-88105800D02*
X311943350Y-88105800D01*
X298450450Y-87312100D02*
X298450450Y-88105800D01*
X298450450Y-88105800D02*
X299244150Y-88105800D01*
X298450450Y-74612900D02*
X298450450Y-73819200D01*
X312737050Y-87312100D02*
X312737050Y-88105800D01*
X298450450Y-73819200D02*
X299244150Y-73819200D01*
X311943350Y-73819200D02*
X312737050Y-73819200D01*
%TO.C,K16*%
X330993350Y-73819200D02*
X331787050Y-73819200D01*
X317500450Y-88105800D02*
X318294150Y-88105800D01*
X317500450Y-73819200D02*
X318294150Y-73819200D01*
X331787050Y-88105800D02*
X330993350Y-88105800D01*
X317500450Y-87312100D02*
X317500450Y-88105800D01*
X331787050Y-87312100D02*
X331787050Y-88105800D01*
X317500450Y-74612900D02*
X317500450Y-73819200D01*
X331787050Y-73819200D02*
X331787050Y-74612900D01*
%TO.C,K17*%
X31750450Y-93662900D02*
X31750450Y-92869200D01*
X31750450Y-106362100D02*
X31750450Y-107155800D01*
X46037050Y-107155800D02*
X45243350Y-107155800D01*
X45243350Y-92869200D02*
X46037050Y-92869200D01*
X46037050Y-92869200D02*
X46037050Y-93662900D01*
X31750450Y-92869200D02*
X32544150Y-92869200D01*
X46037050Y-106362100D02*
X46037050Y-107155800D01*
X31750450Y-107155800D02*
X32544150Y-107155800D01*
%TO.C,K18*%
X50800450Y-93662900D02*
X50800450Y-92869200D01*
X50800450Y-107155800D02*
X51594150Y-107155800D01*
X50800450Y-106362100D02*
X50800450Y-107155800D01*
X65087050Y-92869200D02*
X65087050Y-93662900D01*
X50800450Y-92869200D02*
X51594150Y-92869200D01*
X65087050Y-106362100D02*
X65087050Y-107155800D01*
X65087050Y-107155800D02*
X64293350Y-107155800D01*
X64293350Y-92869200D02*
X65087050Y-92869200D01*
%TO.C,K19*%
X84137050Y-92869200D02*
X84137050Y-93662900D01*
X84137050Y-107155800D02*
X83343350Y-107155800D01*
X69850450Y-106362100D02*
X69850450Y-107155800D01*
X83343350Y-92869200D02*
X84137050Y-92869200D01*
X69850450Y-93662900D02*
X69850450Y-92869200D01*
X69850450Y-107155800D02*
X70644150Y-107155800D01*
X69850450Y-92869200D02*
X70644150Y-92869200D01*
X84137050Y-106362100D02*
X84137050Y-107155800D01*
%TO.C,K22*%
X141287050Y-92869200D02*
X141287050Y-93662900D01*
X127000450Y-92869200D02*
X127794150Y-92869200D01*
X141287050Y-107155800D02*
X140493350Y-107155800D01*
X127000450Y-107155800D02*
X127794150Y-107155800D01*
X127000450Y-93662900D02*
X127000450Y-92869200D01*
X141287050Y-106362100D02*
X141287050Y-107155800D01*
X127000450Y-106362100D02*
X127000450Y-107155800D01*
X140493350Y-92869200D02*
X141287050Y-92869200D01*
%TO.C,K23*%
X146050450Y-107155800D02*
X146844150Y-107155800D01*
X160337050Y-106362100D02*
X160337050Y-107155800D01*
X159543350Y-92869200D02*
X160337050Y-92869200D01*
X160337050Y-92869200D02*
X160337050Y-93662900D01*
X146050450Y-93662900D02*
X146050450Y-92869200D01*
X160337050Y-107155800D02*
X159543350Y-107155800D01*
X146050450Y-92869200D02*
X146844150Y-92869200D01*
X146050450Y-106362100D02*
X146050450Y-107155800D01*
%TO.C,K24*%
X165100450Y-107155800D02*
X165894150Y-107155800D01*
X178593350Y-92869200D02*
X179387050Y-92869200D01*
X179387050Y-92869200D02*
X179387050Y-93662900D01*
X165100450Y-92869200D02*
X165894150Y-92869200D01*
X179387050Y-106362100D02*
X179387050Y-107155800D01*
X165100450Y-106362100D02*
X165100450Y-107155800D01*
X179387050Y-107155800D02*
X178593350Y-107155800D01*
X165100450Y-93662900D02*
X165100450Y-92869200D01*
%TO.C,K25*%
X184150450Y-106362100D02*
X184150450Y-107155800D01*
X184150450Y-93662900D02*
X184150450Y-92869200D01*
X184150450Y-107155800D02*
X184944150Y-107155800D01*
X198437050Y-106362100D02*
X198437050Y-107155800D01*
X198437050Y-92869200D02*
X198437050Y-93662900D01*
X198437050Y-107155800D02*
X197643350Y-107155800D01*
X197643350Y-92869200D02*
X198437050Y-92869200D01*
X184150450Y-92869200D02*
X184944150Y-92869200D01*
%TO.C,K26*%
X217487050Y-107155800D02*
X216693350Y-107155800D01*
X217487050Y-106362100D02*
X217487050Y-107155800D01*
X203200450Y-93662900D02*
X203200450Y-92869200D01*
X217487050Y-92869200D02*
X217487050Y-93662900D01*
X203200450Y-92869200D02*
X203994150Y-92869200D01*
X203200450Y-106362100D02*
X203200450Y-107155800D01*
X216693350Y-92869200D02*
X217487050Y-92869200D01*
X203200450Y-107155800D02*
X203994150Y-107155800D01*
%TO.C,K27*%
X222250450Y-92869200D02*
X223044150Y-92869200D01*
X235743350Y-92869200D02*
X236537050Y-92869200D01*
X236537050Y-106362100D02*
X236537050Y-107155800D01*
X222250450Y-106362100D02*
X222250450Y-107155800D01*
X222250450Y-93662900D02*
X222250450Y-92869200D01*
X236537050Y-92869200D02*
X236537050Y-93662900D01*
X222250450Y-107155800D02*
X223044150Y-107155800D01*
X236537050Y-107155800D02*
X235743350Y-107155800D01*
%TO.C,K28*%
X254793350Y-92869200D02*
X255587050Y-92869200D01*
X241300450Y-93662900D02*
X241300450Y-92869200D01*
X255587050Y-92869200D02*
X255587050Y-93662900D01*
X241300450Y-106362100D02*
X241300450Y-107155800D01*
X241300450Y-92869200D02*
X242094150Y-92869200D01*
X255587050Y-107155800D02*
X254793350Y-107155800D01*
X255587050Y-106362100D02*
X255587050Y-107155800D01*
X241300450Y-107155800D02*
X242094150Y-107155800D01*
%TO.C,K29*%
X273843350Y-92869200D02*
X274637050Y-92869200D01*
X260350450Y-107155800D02*
X261144150Y-107155800D01*
X260350450Y-93662900D02*
X260350450Y-92869200D01*
X274637050Y-106362100D02*
X274637050Y-107155800D01*
X274637050Y-92869200D02*
X274637050Y-93662900D01*
X260350450Y-92869200D02*
X261144150Y-92869200D01*
X274637050Y-107155800D02*
X273843350Y-107155800D01*
X260350450Y-106362100D02*
X260350450Y-107155800D01*
%TO.C,K30*%
X293687050Y-106362100D02*
X293687050Y-107155800D01*
X293687050Y-107155800D02*
X292893350Y-107155800D01*
X279400450Y-106362100D02*
X279400450Y-107155800D01*
X279400450Y-92869200D02*
X280194150Y-92869200D01*
X279400450Y-93662900D02*
X279400450Y-92869200D01*
X293687050Y-92869200D02*
X293687050Y-93662900D01*
X292893350Y-92869200D02*
X293687050Y-92869200D01*
X279400450Y-107155800D02*
X280194150Y-107155800D01*
%TO.C,K31*%
X298450450Y-92869200D02*
X299244150Y-92869200D01*
X298450450Y-107155800D02*
X299244150Y-107155800D01*
X298450450Y-106362100D02*
X298450450Y-107155800D01*
X312737050Y-92869200D02*
X312737050Y-93662900D01*
X298450450Y-93662900D02*
X298450450Y-92869200D01*
X312737050Y-107155800D02*
X311943350Y-107155800D01*
X311943350Y-92869200D02*
X312737050Y-92869200D01*
X312737050Y-106362100D02*
X312737050Y-107155800D01*
%TO.C,K32*%
X331787050Y-106362100D02*
X331787050Y-107155800D01*
X330993350Y-92869200D02*
X331787050Y-92869200D01*
X317500450Y-92869200D02*
X318294150Y-92869200D01*
X317500450Y-107155800D02*
X318294150Y-107155800D01*
X331787050Y-92869200D02*
X331787050Y-93662900D01*
X317500450Y-106362100D02*
X317500450Y-107155800D01*
X317500450Y-93662900D02*
X317500450Y-92869200D01*
X331787050Y-107155800D02*
X330993350Y-107155800D01*
%TO.C,K33*%
X46037050Y-126205800D02*
X45243350Y-126205800D01*
X31750450Y-125412100D02*
X31750450Y-126205800D01*
X31750450Y-126205800D02*
X32544150Y-126205800D01*
X31750450Y-112712900D02*
X31750450Y-111919200D01*
X31750450Y-111919200D02*
X32544150Y-111919200D01*
X46037050Y-111919200D02*
X46037050Y-112712900D01*
X45243350Y-111919200D02*
X46037050Y-111919200D01*
X46037050Y-125412100D02*
X46037050Y-126205800D01*
%TO.C,K34*%
X50800450Y-111919200D02*
X51594150Y-111919200D01*
X65087050Y-111919200D02*
X65087050Y-112712900D01*
X50800450Y-112712900D02*
X50800450Y-111919200D01*
X50800450Y-126205800D02*
X51594150Y-126205800D01*
X65087050Y-125412100D02*
X65087050Y-126205800D01*
X65087050Y-126205800D02*
X64293350Y-126205800D01*
X64293350Y-111919200D02*
X65087050Y-111919200D01*
X50800450Y-125412100D02*
X50800450Y-126205800D01*
%TO.C,K35*%
X84137050Y-111919200D02*
X84137050Y-112712900D01*
X69850450Y-112712900D02*
X69850450Y-111919200D01*
X83343350Y-111919200D02*
X84137050Y-111919200D01*
X84137050Y-126205800D02*
X83343350Y-126205800D01*
X69850450Y-126205800D02*
X70644150Y-126205800D01*
X69850450Y-125412100D02*
X69850450Y-126205800D01*
X69850450Y-111919200D02*
X70644150Y-111919200D01*
X84137050Y-125412100D02*
X84137050Y-126205800D01*
%TO.C,K36*%
X103187050Y-125412100D02*
X103187050Y-126205800D01*
X88900450Y-112712900D02*
X88900450Y-111919200D01*
X88900450Y-126205800D02*
X89694150Y-126205800D01*
X103187050Y-111919200D02*
X103187050Y-112712900D01*
X103187050Y-126205800D02*
X102393350Y-126205800D01*
X88900450Y-111919200D02*
X89694150Y-111919200D01*
X88900450Y-125412100D02*
X88900450Y-126205800D01*
X102393350Y-111919200D02*
X103187050Y-111919200D01*
%TO.C,K37*%
X107950450Y-111919200D02*
X108744150Y-111919200D01*
X122237050Y-125412100D02*
X122237050Y-126205800D01*
X122237050Y-126205800D02*
X121443350Y-126205800D01*
X107950450Y-126205800D02*
X108744150Y-126205800D01*
X107950450Y-125412100D02*
X107950450Y-126205800D01*
X122237050Y-111919200D02*
X122237050Y-112712900D01*
X107950450Y-112712900D02*
X107950450Y-111919200D01*
X121443350Y-111919200D02*
X122237050Y-111919200D01*
%TO.C,K38*%
X140493350Y-111919200D02*
X141287050Y-111919200D01*
X127000450Y-112712900D02*
X127000450Y-111919200D01*
X141287050Y-125412100D02*
X141287050Y-126205800D01*
X127000450Y-111919200D02*
X127794150Y-111919200D01*
X141287050Y-126205800D02*
X140493350Y-126205800D01*
X127000450Y-126205800D02*
X127794150Y-126205800D01*
X141287050Y-111919200D02*
X141287050Y-112712900D01*
X127000450Y-125412100D02*
X127000450Y-126205800D01*
%TO.C,K39*%
X146050450Y-112712900D02*
X146050450Y-111919200D01*
X160337050Y-111919200D02*
X160337050Y-112712900D01*
X146050450Y-125412100D02*
X146050450Y-126205800D01*
X146050450Y-111919200D02*
X146844150Y-111919200D01*
X159543350Y-111919200D02*
X160337050Y-111919200D01*
X160337050Y-126205800D02*
X159543350Y-126205800D01*
X160337050Y-125412100D02*
X160337050Y-126205800D01*
X146050450Y-126205800D02*
X146844150Y-126205800D01*
%TO.C,K40*%
X165100450Y-112712900D02*
X165100450Y-111919200D01*
X179387050Y-125412100D02*
X179387050Y-126205800D01*
X178593350Y-111919200D02*
X179387050Y-111919200D01*
X179387050Y-111919200D02*
X179387050Y-112712900D01*
X179387050Y-126205800D02*
X178593350Y-126205800D01*
X165100450Y-126205800D02*
X165894150Y-126205800D01*
X165100450Y-111919200D02*
X165894150Y-111919200D01*
X165100450Y-125412100D02*
X165100450Y-126205800D01*
%TO.C,K41*%
X184150450Y-125412100D02*
X184150450Y-126205800D01*
X197643350Y-111919200D02*
X198437050Y-111919200D01*
X184150450Y-112712900D02*
X184150450Y-111919200D01*
X198437050Y-126205800D02*
X197643350Y-126205800D01*
X184150450Y-126205800D02*
X184944150Y-126205800D01*
X198437050Y-111919200D02*
X198437050Y-112712900D01*
X198437050Y-125412100D02*
X198437050Y-126205800D01*
X184150450Y-111919200D02*
X184944150Y-111919200D01*
%TO.C,K42*%
X203200450Y-111919200D02*
X203994150Y-111919200D01*
X203200450Y-126205800D02*
X203994150Y-126205800D01*
X216693350Y-111919200D02*
X217487050Y-111919200D01*
X217487050Y-125412100D02*
X217487050Y-126205800D01*
X203200450Y-112712900D02*
X203200450Y-111919200D01*
X217487050Y-111919200D02*
X217487050Y-112712900D01*
X217487050Y-126205800D02*
X216693350Y-126205800D01*
X203200450Y-125412100D02*
X203200450Y-126205800D01*
%TO.C,K43*%
X222250450Y-111919200D02*
X223044150Y-111919200D01*
X222250450Y-112712900D02*
X222250450Y-111919200D01*
X236537050Y-126205800D02*
X235743350Y-126205800D01*
X236537050Y-111919200D02*
X236537050Y-112712900D01*
X236537050Y-125412100D02*
X236537050Y-126205800D01*
X235743350Y-111919200D02*
X236537050Y-111919200D01*
X222250450Y-126205800D02*
X223044150Y-126205800D01*
X222250450Y-125412100D02*
X222250450Y-126205800D01*
%TO.C,K44*%
X241300450Y-111919200D02*
X242094150Y-111919200D01*
X254793350Y-111919200D02*
X255587050Y-111919200D01*
X241300450Y-125412100D02*
X241300450Y-126205800D01*
X241300450Y-126205800D02*
X242094150Y-126205800D01*
X241300450Y-112712900D02*
X241300450Y-111919200D01*
X255587050Y-126205800D02*
X254793350Y-126205800D01*
X255587050Y-111919200D02*
X255587050Y-112712900D01*
X255587050Y-125412100D02*
X255587050Y-126205800D01*
%TO.C,K45*%
X260350450Y-126205800D02*
X261144150Y-126205800D01*
X260350450Y-125412100D02*
X260350450Y-126205800D01*
X260350450Y-111919200D02*
X261144150Y-111919200D01*
X274637050Y-125412100D02*
X274637050Y-126205800D01*
X273843350Y-111919200D02*
X274637050Y-111919200D01*
X260350450Y-112712900D02*
X260350450Y-111919200D01*
X274637050Y-126205800D02*
X273843350Y-126205800D01*
X274637050Y-111919200D02*
X274637050Y-112712900D01*
%TO.C,K46*%
X292893350Y-111919200D02*
X293687050Y-111919200D01*
X279400450Y-112712900D02*
X279400450Y-111919200D01*
X293687050Y-111919200D02*
X293687050Y-112712900D01*
X293687050Y-125412100D02*
X293687050Y-126205800D01*
X279400450Y-126205800D02*
X280194150Y-126205800D01*
X279400450Y-125412100D02*
X279400450Y-126205800D01*
X279400450Y-111919200D02*
X280194150Y-111919200D01*
X293687050Y-126205800D02*
X292893350Y-126205800D01*
%TO.C,K47*%
X298450450Y-112712900D02*
X298450450Y-111919200D01*
X311943350Y-111919200D02*
X312737050Y-111919200D01*
X298450450Y-126205800D02*
X299244150Y-126205800D01*
X312737050Y-125412100D02*
X312737050Y-126205800D01*
X298450450Y-111919200D02*
X299244150Y-111919200D01*
X298450450Y-125412100D02*
X298450450Y-126205800D01*
X312737050Y-111919200D02*
X312737050Y-112712900D01*
X312737050Y-126205800D02*
X311943350Y-126205800D01*
%TO.C,K48*%
X331787050Y-125412100D02*
X331787050Y-126205800D01*
X317500450Y-125412100D02*
X317500450Y-126205800D01*
X331787050Y-126205800D02*
X330993350Y-126205800D01*
X331787050Y-111919200D02*
X331787050Y-112712900D01*
X330993350Y-111919200D02*
X331787050Y-111919200D01*
X317500450Y-112712900D02*
X317500450Y-111919200D01*
X317500450Y-111919200D02*
X318294150Y-111919200D01*
X317500450Y-126205800D02*
X318294150Y-126205800D01*
%TO.C,K49*%
X31750450Y-130969200D02*
X32544150Y-130969200D01*
X46037050Y-130969200D02*
X46037050Y-131762900D01*
X46037050Y-144462100D02*
X46037050Y-145255800D01*
X46037050Y-145255800D02*
X45243350Y-145255800D01*
X31750450Y-131762900D02*
X31750450Y-130969200D01*
X31750450Y-144462100D02*
X31750450Y-145255800D01*
X31750450Y-145255800D02*
X32544150Y-145255800D01*
X45243350Y-130969200D02*
X46037050Y-130969200D01*
%TO.C,K50*%
X50800450Y-130969200D02*
X51594150Y-130969200D01*
X50800450Y-145255800D02*
X51594150Y-145255800D01*
X65087050Y-144462100D02*
X65087050Y-145255800D01*
X64293350Y-130969200D02*
X65087050Y-130969200D01*
X65087050Y-145255800D02*
X64293350Y-145255800D01*
X65087050Y-130969200D02*
X65087050Y-131762900D01*
X50800450Y-131762900D02*
X50800450Y-130969200D01*
X50800450Y-144462100D02*
X50800450Y-145255800D01*
%TO.C,K51*%
X84137050Y-144462100D02*
X84137050Y-145255800D01*
X83343350Y-130969200D02*
X84137050Y-130969200D01*
X69850450Y-145255800D02*
X70644150Y-145255800D01*
X84137050Y-145255800D02*
X83343350Y-145255800D01*
X69850450Y-144462100D02*
X69850450Y-145255800D01*
X84137050Y-130969200D02*
X84137050Y-131762900D01*
X69850450Y-130969200D02*
X70644150Y-130969200D01*
X69850450Y-131762900D02*
X69850450Y-130969200D01*
%TO.C,K52*%
X88900450Y-145255800D02*
X89694150Y-145255800D01*
X88900450Y-144462100D02*
X88900450Y-145255800D01*
X102393350Y-130969200D02*
X103187050Y-130969200D01*
X88900450Y-130969200D02*
X89694150Y-130969200D01*
X103187050Y-144462100D02*
X103187050Y-145255800D01*
X103187050Y-130969200D02*
X103187050Y-131762900D01*
X88900450Y-131762900D02*
X88900450Y-130969200D01*
X103187050Y-145255800D02*
X102393350Y-145255800D01*
%TO.C,K53*%
X121443350Y-130969200D02*
X122237050Y-130969200D01*
X107950450Y-130969200D02*
X108744150Y-130969200D01*
X107950450Y-131762900D02*
X107950450Y-130969200D01*
X122237050Y-130969200D02*
X122237050Y-131762900D01*
X107950450Y-144462100D02*
X107950450Y-145255800D01*
X107950450Y-145255800D02*
X108744150Y-145255800D01*
X122237050Y-144462100D02*
X122237050Y-145255800D01*
X122237050Y-145255800D02*
X121443350Y-145255800D01*
%TO.C,K54*%
X127000450Y-145255800D02*
X127794150Y-145255800D01*
X141287050Y-144462100D02*
X141287050Y-145255800D01*
X127000450Y-131762900D02*
X127000450Y-130969200D01*
X140493350Y-130969200D02*
X141287050Y-130969200D01*
X141287050Y-130969200D02*
X141287050Y-131762900D01*
X127000450Y-144462100D02*
X127000450Y-145255800D01*
X141287050Y-145255800D02*
X140493350Y-145255800D01*
X127000450Y-130969200D02*
X127794150Y-130969200D01*
%TO.C,K55*%
X160337050Y-144462100D02*
X160337050Y-145255800D01*
X146050450Y-130969200D02*
X146844150Y-130969200D01*
X160337050Y-145255800D02*
X159543350Y-145255800D01*
X146050450Y-145255800D02*
X146844150Y-145255800D01*
X146050450Y-131762900D02*
X146050450Y-130969200D01*
X159543350Y-130969200D02*
X160337050Y-130969200D01*
X146050450Y-144462100D02*
X146050450Y-145255800D01*
X160337050Y-130969200D02*
X160337050Y-131762900D01*
%TO.C,K56*%
X178593350Y-130969200D02*
X179387050Y-130969200D01*
X165100450Y-144462100D02*
X165100450Y-145255800D01*
X165100450Y-130969200D02*
X165894150Y-130969200D01*
X179387050Y-145255800D02*
X178593350Y-145255800D01*
X179387050Y-130969200D02*
X179387050Y-131762900D01*
X165100450Y-145255800D02*
X165894150Y-145255800D01*
X165100450Y-131762900D02*
X165100450Y-130969200D01*
X179387050Y-144462100D02*
X179387050Y-145255800D01*
%TO.C,K57*%
X198437050Y-144462100D02*
X198437050Y-145255800D01*
X184150450Y-144462100D02*
X184150450Y-145255800D01*
X184150450Y-131762900D02*
X184150450Y-130969200D01*
X197643350Y-130969200D02*
X198437050Y-130969200D01*
X198437050Y-145255800D02*
X197643350Y-145255800D01*
X184150450Y-145255800D02*
X184944150Y-145255800D01*
X184150450Y-130969200D02*
X184944150Y-130969200D01*
X198437050Y-130969200D02*
X198437050Y-131762900D01*
%TO.C,K58*%
X217487050Y-145255800D02*
X216693350Y-145255800D01*
X203200450Y-145255800D02*
X203994150Y-145255800D01*
X203200450Y-144462100D02*
X203200450Y-145255800D01*
X217487050Y-144462100D02*
X217487050Y-145255800D01*
X203200450Y-130969200D02*
X203994150Y-130969200D01*
X203200450Y-131762900D02*
X203200450Y-130969200D01*
X216693350Y-130969200D02*
X217487050Y-130969200D01*
X217487050Y-130969200D02*
X217487050Y-131762900D01*
%TO.C,K59*%
X222250450Y-131762900D02*
X222250450Y-130969200D01*
X222250450Y-130969200D02*
X223044150Y-130969200D01*
X236537050Y-144462100D02*
X236537050Y-145255800D01*
X235743350Y-130969200D02*
X236537050Y-130969200D01*
X236537050Y-145255800D02*
X235743350Y-145255800D01*
X222250450Y-145255800D02*
X223044150Y-145255800D01*
X236537050Y-130969200D02*
X236537050Y-131762900D01*
X222250450Y-144462100D02*
X222250450Y-145255800D01*
%TO.C,K60*%
X254793350Y-130969200D02*
X255587050Y-130969200D01*
X255587050Y-130969200D02*
X255587050Y-131762900D01*
X241300450Y-130969200D02*
X242094150Y-130969200D01*
X255587050Y-145255800D02*
X254793350Y-145255800D01*
X241300450Y-131762900D02*
X241300450Y-130969200D01*
X255587050Y-144462100D02*
X255587050Y-145255800D01*
X241300450Y-144462100D02*
X241300450Y-145255800D01*
X241300450Y-145255800D02*
X242094150Y-145255800D01*
%TO.C,K61*%
X274637050Y-145255800D02*
X273843350Y-145255800D01*
X260350450Y-144462100D02*
X260350450Y-145255800D01*
X274637050Y-130969200D02*
X274637050Y-131762900D01*
X260350450Y-130969200D02*
X261144150Y-130969200D01*
X274637050Y-144462100D02*
X274637050Y-145255800D01*
X260350450Y-145255800D02*
X261144150Y-145255800D01*
X260350450Y-131762900D02*
X260350450Y-130969200D01*
X273843350Y-130969200D02*
X274637050Y-130969200D01*
%TO.C,K62*%
X279400450Y-144462100D02*
X279400450Y-145255800D01*
X293687050Y-145255800D02*
X292893350Y-145255800D01*
X292893350Y-130969200D02*
X293687050Y-130969200D01*
X279400450Y-130969200D02*
X280194150Y-130969200D01*
X293687050Y-130969200D02*
X293687050Y-131762900D01*
X279400450Y-145255800D02*
X280194150Y-145255800D01*
X279400450Y-131762900D02*
X279400450Y-130969200D01*
X293687050Y-144462100D02*
X293687050Y-145255800D01*
%TO.C,K63*%
X298450450Y-144462100D02*
X298450450Y-145255800D01*
X311943350Y-130969200D02*
X312737050Y-130969200D01*
X312737050Y-144462100D02*
X312737050Y-145255800D01*
X298450450Y-131762900D02*
X298450450Y-130969200D01*
X298450450Y-145255800D02*
X299244150Y-145255800D01*
X298450450Y-130969200D02*
X299244150Y-130969200D01*
X312737050Y-145255800D02*
X311943350Y-145255800D01*
X312737050Y-130969200D02*
X312737050Y-131762900D01*
%TO.C,K64*%
X330993350Y-130969200D02*
X331787050Y-130969200D01*
X331787050Y-130969200D02*
X331787050Y-131762900D01*
X317500450Y-144462100D02*
X317500450Y-145255800D01*
X317500450Y-131762900D02*
X317500450Y-130969200D01*
X317500450Y-130969200D02*
X318294150Y-130969200D01*
X317500450Y-145255800D02*
X318294150Y-145255800D01*
X331787050Y-144462100D02*
X331787050Y-145255800D01*
X331787050Y-145255800D02*
X330993350Y-145255800D01*
%TO.C,K1*%
X31750450Y-73819200D02*
X32544150Y-73819200D01*
X46037050Y-88105800D02*
X45243350Y-88105800D01*
X31750450Y-88105800D02*
X32544150Y-88105800D01*
X31750450Y-74612900D02*
X31750450Y-73819200D01*
X46037050Y-87312100D02*
X46037050Y-88105800D01*
X46037050Y-73819200D02*
X46037050Y-74612900D01*
X31750450Y-87312100D02*
X31750450Y-88105800D01*
X45243350Y-73819200D02*
X46037050Y-73819200D01*
%TO.C,K4*%
X102393350Y-73819200D02*
X103187050Y-73819200D01*
X88900450Y-73819200D02*
X89694150Y-73819200D01*
X103187050Y-73819200D02*
X103187050Y-74612900D01*
X103187050Y-88105800D02*
X102393350Y-88105800D01*
X88900450Y-88105800D02*
X89694150Y-88105800D01*
X88900450Y-87312100D02*
X88900450Y-88105800D01*
X103187050Y-87312100D02*
X103187050Y-88105800D01*
X88900450Y-74612900D02*
X88900450Y-73819200D01*
%TO.C,K5*%
X107950450Y-87312100D02*
X107950450Y-88105800D01*
X107950450Y-88105800D02*
X108744150Y-88105800D01*
X121443350Y-73819200D02*
X122237050Y-73819200D01*
X122237050Y-88105800D02*
X121443350Y-88105800D01*
X122237050Y-73819200D02*
X122237050Y-74612900D01*
X122237050Y-87312100D02*
X122237050Y-88105800D01*
X107950450Y-73819200D02*
X108744150Y-73819200D01*
X107950450Y-74612900D02*
X107950450Y-73819200D01*
%TO.C,K21*%
X107950450Y-107155800D02*
X108744150Y-107155800D01*
X107950450Y-106362100D02*
X107950450Y-107155800D01*
X122237050Y-107155800D02*
X121443350Y-107155800D01*
X107950450Y-92869200D02*
X108744150Y-92869200D01*
X107950450Y-93662900D02*
X107950450Y-92869200D01*
X121443350Y-92869200D02*
X122237050Y-92869200D01*
X122237050Y-106362100D02*
X122237050Y-107155800D01*
X122237050Y-92869200D02*
X122237050Y-93662900D01*
%TO.C,K20*%
X88900450Y-106362100D02*
X88900450Y-107155800D01*
X88900450Y-93662900D02*
X88900450Y-92869200D01*
X103187050Y-107155800D02*
X102393350Y-107155800D01*
X103187050Y-92869200D02*
X103187050Y-93662900D01*
X103187050Y-106362100D02*
X103187050Y-107155800D01*
X102393350Y-92869200D02*
X103187050Y-92869200D01*
X88900450Y-107155800D02*
X89694150Y-107155800D01*
X88900450Y-92869200D02*
X89694150Y-92869200D01*
%TO.C,J1*%
X62992000Y-87570000D02*
X62992000Y-90230000D01*
X62992000Y-90230000D02*
X52772000Y-90230000D01*
X65592000Y-88900000D02*
X65592000Y-90230000D01*
X52772000Y-87570000D02*
X52772000Y-90230000D01*
X62992000Y-87570000D02*
X52772000Y-87570000D01*
X65592000Y-90230000D02*
X64262000Y-90230000D01*
%TO.C,K54.1*%
X150812050Y-145255800D02*
X150018350Y-145255800D01*
X136525450Y-145255800D02*
X136525450Y-144462100D01*
X150812050Y-131762900D02*
X150812050Y-130969200D01*
X150812050Y-130969200D02*
X150018350Y-130969200D01*
X136525450Y-131762900D02*
X136525450Y-130969200D01*
X137319150Y-145255800D02*
X136525450Y-145255800D01*
X136525450Y-130969200D02*
X137319150Y-130969200D01*
X150812050Y-144462100D02*
X150812050Y-145255800D01*
%TO.C,K58.1*%
X212725450Y-130969200D02*
X213519150Y-130969200D01*
X227012050Y-130969200D02*
X226218350Y-130969200D01*
X213519150Y-145255800D02*
X212725450Y-145255800D01*
X227012050Y-131762900D02*
X227012050Y-130969200D01*
X212725450Y-145255800D02*
X212725450Y-144462100D01*
X227012050Y-145255800D02*
X226218350Y-145255800D01*
X212725450Y-131762900D02*
X212725450Y-130969200D01*
X227012050Y-144462100D02*
X227012050Y-145255800D01*
%TD*%
M02*
