M48
; DRILL file {KiCad (6.0.0)} date Tue May  3 01:33:48 2022
; FORMAT={-:-/ absolute / inch / decimal}
; #@! TF.CreationDate,2022-05-03T01:33:48-04:00
; #@! TF.GenerationSoftware,Kicad,Pcbnew,(6.0.0)
; #@! TF.FileFunction,Plated,1,2,PTH
FMAT,2
INCH
; #@! TA.AperFunction,Plated,PTH,ViaDrill
T1C0.0118
; #@! TA.AperFunction,Plated,PTH,ViaDrill
T2C0.0157
; #@! TA.AperFunction,Plated,PTH,ComponentDrill
T3C0.0236
; #@! TA.AperFunction,Plated,PTH,ComponentDrill
T4C0.0394
; #@! TA.AperFunction,Plated,PTH,ComponentDrill
T5C0.0500
; #@! TA.AperFunction,Plated,PTH,ComponentDrill
T6C0.0590
; #@! TA.AperFunction,Plated,PTH,ComponentDrill
T7C0.1654
%
G90
G05
T1
X1.5354Y-3.3091
X1.65Y-3.1
X1.8485Y-3.0115
X1.975Y-3.085
X2.065Y-3.03
X2.1024Y-3.3091
X2.3361Y-3.3088
X2.3811Y-3.2835
X2.3811Y-3.3815
X2.3813Y-3.5875
X2.4254Y-3.3088
X2.43Y-3.59
X2.53Y-3.59
X2.5717Y-3.6877
X2.6126Y-3.6862
X2.6382Y-4.0588
X2.655Y-3.475
X2.6807Y-3.5024
X2.7049Y-4.8088
X2.7063Y-3.526
X2.79Y-3.75
X2.7912Y-3.3088
X2.8346Y-2.9626
X2.84Y-3.385
X2.8438Y-3.2812
X2.8662Y-3.3088
X2.9547Y-3.3071
X2.9547Y-3.385
X2.9547Y-3.4773
X3.0Y-5.0312
X3.0088Y-3.5713
X3.0625Y-5.0312
X3.065Y-3.585
X3.2402Y-2.8789
X3.2589Y-3.8622
X3.278Y-5.1732
X3.3031Y-3.6019
X3.3069Y-3.4796
X3.366Y-5.5588
X3.3661Y-3.5236
X3.3661Y-3.563
X3.3661Y-3.6024
X3.374Y-3.4665
X3.3976Y-3.6526
X3.405Y-3.5625
X3.4055Y-3.5236
X3.4055Y-3.6024
X3.4444Y-3.6019
X3.4449Y-3.5236
X3.4449Y-3.563
X3.4838Y-3.4828
X3.4941Y-3.6024
X3.565Y-3.735
X3.6024Y-3.3091
X3.65Y-2.95
X3.6575Y-3.4439
X3.6608Y-3.6915
X3.695Y-3.69
X3.7195Y-3.6024
X3.795Y-3.615
X3.825Y-3.63
X3.8813Y-3.6287
X4.6312Y-3.6138
X5.3812Y-3.5987
X5.5312Y-5.5312
X5.7188Y-5.3438
X6.1312Y-3.5837
X6.8812Y-3.5713
X7.6312Y-3.5562
X8.2Y-5.365
X8.3812Y-3.5463
X8.5625Y-5.5312
X8.7188Y-5.3438
X9.1312Y-3.5288
X9.8812Y-3.5162
X10.6312Y-3.5012
X11.3812Y-3.4888
X12.1312Y-3.4737
X12.8812Y-3.4537
T2
X1.4823Y-3.4215
X1.5157Y-3.3602
X1.81Y-4.313
X1.822Y-4.192
X1.8415Y-3.3524
X1.86Y-3.82
X1.875Y-3.135
X1.8976Y-3.3967
X2.002Y-4.312
X2.063Y-3.2756
X2.315Y-3.5775
X2.342Y-4.312
X2.68Y-4.312
X3.018Y-4.312
X3.185Y-3.405
X3.2Y-3.325
X3.3386Y-3.2598
X3.358Y-4.312
X3.42Y-3.1
X3.5315Y-3.0827
X3.696Y-4.312
X3.72Y-3.405
X4.034Y-4.312
X4.374Y-4.312
X4.714Y-4.31
X5.05Y-4.31
X5.39Y-4.312
X5.728Y-4.312
X6.068Y-4.312
X6.406Y-4.312
X6.744Y-4.312
X7.084Y-4.312
X7.422Y-4.312
X7.762Y-4.312
X8.1Y-4.312
X8.436Y-4.312
X8.776Y-4.312
X9.114Y-4.312
X9.454Y-4.312
X9.792Y-4.312
X10.134Y-4.312
X10.47Y-4.312
X10.81Y-4.312
X11.148Y-4.312
X11.488Y-4.312
X11.828Y-4.312
X12.164Y-4.312
X12.504Y-4.312
T4
X2.13Y-3.5
X2.23Y-3.5
X2.33Y-3.5
X2.43Y-3.5
X2.53Y-3.5
T5
X1.5312Y-2.9552
X1.5312Y-3.7052
X1.5312Y-4.4552
X1.5312Y-5.2052
X1.7281Y-3.0379
X1.7281Y-3.7879
X1.7281Y-4.5379
X1.7281Y-5.2879
X2.2812Y-2.9552
X2.2812Y-3.7052
X2.2812Y-4.4552
X2.2812Y-5.2052
X2.4781Y-3.0379
X2.4781Y-3.7879
X2.4781Y-4.5379
X2.4781Y-5.2879
X3.0312Y-2.9547
X3.0312Y-3.7052
X3.0312Y-4.4552
X3.0312Y-5.2052
X3.2281Y-3.0374
X3.2281Y-3.7879
X3.2281Y-4.5379
X3.2281Y-5.2879
X3.7812Y-2.9552
X3.7812Y-3.7052
X3.7812Y-4.4552
X3.7812Y-5.2052
X3.9781Y-3.0379
X3.9781Y-3.7879
X3.9781Y-4.5379
X3.9781Y-5.2879
X4.5312Y-2.9552
X4.5312Y-3.7052
X4.5312Y-4.4552
X4.5312Y-5.2052
X4.7281Y-3.0379
X4.7281Y-3.7879
X4.7281Y-4.5379
X4.7281Y-5.2879
X5.2812Y-2.9552
X5.2812Y-3.7052
X5.2812Y-4.4552
X5.2812Y-5.2052
X5.4594Y-5.5871
X5.4781Y-3.0379
X5.4781Y-3.7879
X5.4781Y-4.5379
X5.4781Y-5.2879
X5.6562Y-5.6698
X6.0312Y-2.9552
X6.0312Y-3.7052
X6.0312Y-4.4552
X6.0312Y-5.2052
X6.2281Y-3.0379
X6.2281Y-3.7879
X6.2281Y-4.5379
X6.2281Y-5.2879
X6.7812Y-2.9552
X6.7812Y-3.7052
X6.7812Y-4.4552
X6.7812Y-5.2052
X6.9781Y-3.0379
X6.9781Y-3.7879
X6.9781Y-4.5379
X6.9781Y-5.2879
X7.5312Y-2.9552
X7.5312Y-3.7052
X7.5312Y-4.4552
X7.5312Y-5.2052
X7.7281Y-3.0379
X7.7281Y-3.7879
X7.7281Y-4.5379
X7.7281Y-5.2879
X8.2812Y-2.9552
X8.2812Y-3.7052
X8.2812Y-4.4552
X8.2812Y-5.2052
X8.4594Y-5.5871
X8.4781Y-3.0379
X8.4781Y-3.7879
X8.4781Y-4.5379
X8.4781Y-5.2879
X8.6562Y-5.6698
X9.0312Y-2.9552
X9.0312Y-3.7052
X9.0312Y-4.4552
X9.0312Y-5.2052
X9.2281Y-3.0379
X9.2281Y-3.7879
X9.2281Y-4.5379
X9.2281Y-5.2879
X9.7812Y-2.9552
X9.7812Y-3.7052
X9.7812Y-4.4552
X9.7812Y-5.2052
X9.9781Y-3.0379
X9.9781Y-3.7879
X9.9781Y-4.5379
X9.9781Y-5.2879
X10.5312Y-2.9552
X10.5312Y-3.7052
X10.5312Y-4.4552
X10.5312Y-5.2052
X10.7281Y-3.0379
X10.7281Y-3.7879
X10.7281Y-4.5379
X10.7281Y-5.2879
X11.2812Y-2.9552
X11.2812Y-3.7052
X11.2812Y-4.4552
X11.2812Y-5.2052
X11.4781Y-3.0379
X11.4781Y-3.7879
X11.4781Y-4.5379
X11.4781Y-5.2879
X12.0312Y-2.9552
X12.0312Y-3.7052
X12.0312Y-4.4552
X12.0312Y-5.2052
X12.2281Y-3.0379
X12.2281Y-3.7879
X12.2281Y-4.5379
X12.2281Y-5.2879
X12.7812Y-2.9552
X12.7812Y-3.7052
X12.7812Y-4.4552
X12.7812Y-5.2052
X12.9781Y-3.0379
X12.9781Y-3.7879
X12.9781Y-4.5379
X12.9781Y-5.2879
T6
X1.3812Y-3.0875
X1.3812Y-3.8375
X1.3812Y-4.5875
X1.3812Y-5.3375
X1.6312Y-2.9875
X1.6312Y-3.7375
X1.6312Y-4.4875
X1.6312Y-5.2375
X2.1313Y-3.0875
X2.1313Y-3.8375
X2.1313Y-4.5875
X2.1313Y-5.3375
X2.3813Y-2.9875
X2.3813Y-3.7375
X2.3813Y-4.4875
X2.3813Y-5.2375
X2.8813Y-3.087
X2.8813Y-3.8375
X2.8813Y-4.5875
X2.8813Y-5.3375
X3.1313Y-2.987
X3.1313Y-3.7375
X3.1313Y-4.4875
X3.1313Y-5.2375
X3.6313Y-3.0875
X3.6313Y-3.8375
X3.6313Y-4.5875
X3.6313Y-5.3375
X3.8813Y-2.9875
X3.8813Y-3.7375
X3.8813Y-4.4875
X3.8813Y-5.2375
X4.3812Y-3.0875
X4.3812Y-3.8375
X4.3812Y-4.5875
X4.3812Y-5.3375
X4.6312Y-2.9875
X4.6312Y-3.7375
X4.6312Y-4.4875
X4.6312Y-5.2375
X5.1312Y-3.0875
X5.1312Y-3.8375
X5.1312Y-4.5875
X5.1312Y-5.3375
X5.3812Y-2.9875
X5.3812Y-3.7375
X5.3812Y-4.4875
X5.3812Y-5.2375
X5.5562Y-5.6375
X5.8062Y-5.5375
X5.8812Y-3.0875
X5.8812Y-3.8375
X5.8812Y-4.5875
X5.8812Y-5.3375
X6.1312Y-2.9875
X6.1312Y-3.7375
X6.1312Y-4.4875
X6.1312Y-5.2375
X6.6312Y-3.0875
X6.6312Y-3.8375
X6.6312Y-4.5875
X6.6312Y-5.3375
X6.8812Y-2.9875
X6.8812Y-3.7375
X6.8812Y-4.4875
X6.8812Y-5.2375
X7.3812Y-3.0875
X7.3812Y-3.8375
X7.3812Y-4.5875
X7.3812Y-5.3375
X7.6312Y-2.9875
X7.6312Y-3.7375
X7.6312Y-4.4875
X7.6312Y-5.2375
X8.1312Y-3.0875
X8.1312Y-3.8375
X8.1312Y-4.5875
X8.1312Y-5.3375
X8.3812Y-2.9875
X8.3812Y-3.7375
X8.3812Y-4.4875
X8.3812Y-5.2375
X8.5563Y-5.6375
X8.8063Y-5.5375
X8.8812Y-3.0875
X8.8812Y-3.8375
X8.8812Y-4.5875
X8.8812Y-5.3375
X9.1312Y-2.9875
X9.1312Y-3.7375
X9.1312Y-4.4875
X9.1312Y-5.2375
X9.6312Y-3.0875
X9.6312Y-3.8375
X9.6312Y-4.5875
X9.6312Y-5.3375
X9.8812Y-2.9875
X9.8812Y-3.7375
X9.8812Y-4.4875
X9.8812Y-5.2375
X10.3812Y-3.0875
X10.3812Y-3.8375
X10.3812Y-4.5875
X10.3812Y-5.3375
X10.6312Y-2.9875
X10.6312Y-3.7375
X10.6312Y-4.4875
X10.6312Y-5.2375
X11.1312Y-3.0875
X11.1312Y-3.8375
X11.1312Y-4.5875
X11.1312Y-5.3375
X11.3812Y-2.9875
X11.3812Y-3.7375
X11.3812Y-4.4875
X11.3812Y-5.2375
X11.8812Y-3.0875
X11.8812Y-3.8375
X11.8812Y-4.5875
X11.8812Y-5.3375
X12.1312Y-2.9875
X12.1312Y-3.7375
X12.1312Y-4.4875
X12.1312Y-5.2375
X12.6312Y-3.0875
X12.6312Y-3.8375
X12.6312Y-4.5875
X12.6312Y-5.3375
X12.8812Y-2.9875
X12.8812Y-3.7375
X12.8812Y-4.4875
X12.8812Y-5.2375
T7
X1.9061Y-3.5623
X1.9061Y-5.0622
X7.1558Y-3.281
X7.1558Y-5.3434
X12.4055Y-3.5623
X12.4055Y-5.0622
T3
G00X1.7749Y-2.7519
M15
G01X1.7749Y-2.7755
M16
G05
G00X1.7749Y-2.9066
M15
G01X1.7749Y-2.9499
M16
G05
G00X2.1151Y-2.7519
M15
G01X2.1151Y-2.7755
M16
G05
G00X2.1151Y-2.9066
M15
G01X2.1151Y-2.9499
M16
G05
T0
M30
