M48
; DRILL file {KiCad 7.0.7} date Wed Oct 11 09:13:37 2023
; FORMAT={-:-/ absolute / inch / decimal}
; #@! TF.CreationDate,2023-10-11T09:13:37-04:00
; #@! TF.GenerationSoftware,Kicad,Pcbnew,7.0.7
; #@! TF.FileFunction,Plated,1,4,PTH
FMAT,2
INCH
; #@! TA.AperFunction,Plated,PTH,ViaDrill
T1C0.0118
; #@! TA.AperFunction,Plated,PTH,ViaDrill
T2C0.0157
; #@! TA.AperFunction,Plated,PTH,ComponentDrill
T3C0.0236
; #@! TA.AperFunction,Plated,PTH,ComponentDrill
T4C0.0394
; #@! TA.AperFunction,Plated,PTH,ComponentDrill
T5C0.0500
; #@! TA.AperFunction,Plated,PTH,ComponentDrill
T6C0.0590
%
G90
G05
T1
X1.4003Y-3.7259
X1.4003Y-4.4739
X1.4633Y-3.7259
X1.4633Y-4.4739
X1.5263Y-2.9424
X1.5303Y-3.6905
X1.5303Y-4.4424
X1.5303Y-5.1983
X1.5618Y-2.9286
X1.5657Y-3.6767
X1.5657Y-4.4286
X1.5657Y-5.1845
X1.6956Y-3.6235
X1.7192Y-3.5999
X1.7468Y-3.5802
X1.7704Y-3.5566
X1.794Y-3.5305
X1.8019Y-3.4779
X1.8492Y-3.4109
X1.8492Y-3.4542
X1.8492Y-3.4975
X1.8492Y-3.9621
X1.8492Y-4.0054
X1.8492Y-4.0487
X1.8688Y-3.3125
X1.8885Y-3.9149
X1.8885Y-3.9621
X1.8885Y-4.0015
X1.8885Y-4.0448
X1.9082Y-3.6353
X1.9279Y-3.9149
X1.9279Y-3.9621
X1.9279Y-4.0015
X1.9279Y-4.0448
X1.9397Y-3.3125
X1.9673Y-3.4109
X1.9673Y-3.4542
X1.9673Y-3.4975
X1.9673Y-3.9621
X1.9673Y-4.0054
X1.9673Y-4.0487
X1.998Y-3.635
X1.9989Y-3.5772
X2.0145Y-3.4818
X2.0204Y-3.6649
X2.0224Y-3.5487
X2.0224Y-3.6069
X2.1444Y-3.2574
X2.1484Y-3.7259
X2.1484Y-4.4739
X2.1484Y-5.2377
X2.1562Y-3.5129
X2.1602Y-3.2849
X2.1779Y-3.0979
X2.2074Y-3.5133
X2.2114Y-3.7259
X2.2114Y-4.4739
X2.2114Y-5.2377
X2.2803Y-3.6885
X2.2803Y-4.4424
X2.2803Y-5.1983
X2.2822Y-2.9424
X2.3157Y-3.6747
X2.3157Y-4.4286
X2.3157Y-5.1845
X2.3177Y-2.9286
X2.55Y-3.1531
X2.5519Y-3.1216
X2.5716Y-4.9995
X2.6326Y-4.2515
X2.6326Y-4.9523
X2.6366Y-2.9306
X2.6405Y-4.2023
X2.6681Y-4.2515
X2.684Y-4.2023
X2.7101Y-3.6754
X2.7101Y-3.7788
X2.7434Y-3.6754
X2.7434Y-3.7788
X2.7507Y-3.1216
X2.7547Y-3.1531
X2.7766Y-3.6754
X2.7766Y-3.7788
X2.8984Y-3.8083
X2.9043Y-3.5319
X2.9043Y-4.4975
X2.9043Y-5.2298
X2.9062Y-3.5664
X2.9552Y-3.5648
X2.9574Y-3.533
X2.9594Y-3.7653
X2.9594Y-4.4975
X2.9594Y-5.2298
X3.0224Y-3.529
X3.0283Y-5.2003
X3.0303Y-2.9424
X3.0303Y-4.4424
X3.0637Y-5.1865
X3.0657Y-2.9286
X3.0657Y-4.4286
X3.0854Y-3.4818
X3.0972Y-3.7219
X3.1444Y-3.4779
X3.2035Y-4.2003
X3.2035Y-4.2534
X3.2425Y-4.2531
X3.2429Y-4.2003
X3.294Y-2.907
X3.3068Y-3.5192
X3.3094Y-3.4601
X3.3098Y-3.6078
X3.3751Y-3.4633
X3.4062Y-3.5625
X3.4141Y-3.6471
X3.42Y-2.9464
X3.42Y-3.0015
X3.42Y-3.0566
X3.4909Y-3.4641
X3.5094Y-3.6019
X3.5118Y-3.7824
X3.5137Y-3.7345
X3.5362Y-3.7594
X3.6523Y-4.4975
X3.6523Y-5.2377
X3.6562Y-3.7456
X3.6567Y-3.4527
X3.6812Y-3.7003
X3.7074Y-4.4975
X3.7114Y-4.2027
X3.7153Y-3.7456
X3.7153Y-5.2377
X3.7783Y-2.9424
X3.7783Y-3.6924
X3.7803Y-4.4424
X3.7803Y-5.2003
X3.7976Y-4.3003
X3.8015Y-4.3397
X3.8137Y-2.9286
X3.8137Y-3.6786
X3.8157Y-4.4286
X3.8157Y-5.1865
X4.4003Y-4.4818
X4.4003Y-5.2298
X4.4043Y-3.7456
X4.4312Y-3.659
X4.4633Y-3.7456
X4.4633Y-4.4818
X4.4633Y-5.2298
X4.5303Y-2.9444
X4.5303Y-3.6924
X4.5303Y-4.4424
X4.5303Y-5.1983
X4.5657Y-2.9306
X4.5657Y-3.6786
X4.5657Y-4.4286
X4.5657Y-5.1845
X5.1484Y-5.2377
X5.1523Y-3.7456
X5.1562Y-4.4739
X5.1812Y-3.6452
X5.1818Y-5.0251
X5.2114Y-3.7456
X5.2114Y-4.4739
X5.2114Y-5.2377
X5.2803Y-2.9444
X5.2803Y-3.6924
X5.2803Y-4.4424
X5.2803Y-5.2003
X5.3157Y-2.9306
X5.3157Y-3.6786
X5.3157Y-4.4286
X5.3157Y-5.1865
X5.7232Y-5.1432
X5.7527Y-5.0349
X5.8964Y-4.4739
X5.9003Y-3.8243
X5.9312Y-3.779
X5.9594Y-3.8243
X5.9594Y-4.4739
X5.9594Y-5.2298
X6.0283Y-2.9424
X6.0283Y-4.4444
X6.0322Y-5.2003
X6.0519Y-3.6137
X6.0637Y-2.9286
X6.0637Y-4.4306
X6.0677Y-5.1865
X6.6444Y-4.4739
X6.6484Y-3.8046
X6.6523Y-5.2298
X6.6812Y-3.7653
X6.7074Y-4.4739
X6.7153Y-5.2298
X6.7203Y-3.7872
X6.7783Y-2.9424
X6.7783Y-4.4405
X6.7822Y-5.1964
X6.8019Y-3.6117
X6.8137Y-2.9286
X6.8137Y-4.4267
X6.8177Y-5.1826
X7.3925Y-4.4739
X7.3964Y-3.7849
X7.4003Y-5.2298
X7.4312Y-3.7515
X7.4633Y-4.4739
X7.4633Y-5.2298
X7.47Y-3.7864
X7.5303Y-2.9424
X7.5303Y-4.4444
X7.5303Y-5.1983
X7.5539Y-3.6078
X7.5657Y-2.9286
X7.5657Y-4.4306
X7.5657Y-5.1845
X8.1444Y-3.7653
X8.1484Y-4.4739
X8.1484Y-5.2377
X8.1813Y-3.7377
X8.2114Y-4.4739
X8.2114Y-5.2377
X8.2193Y-3.7653
X8.2803Y-2.9424
X8.2803Y-4.4424
X8.2803Y-5.1983
X8.3019Y-3.6097
X8.3157Y-2.9286
X8.3157Y-4.4286
X8.3157Y-5.1845
X8.7232Y-5.1353
X8.9043Y-4.4739
X8.9067Y-3.7672
X8.9313Y-3.7219
X8.9594Y-4.4739
X8.9673Y-5.2377
X8.9712Y-3.7259
X9.0283Y-2.9405
X9.0303Y-4.4444
X9.0322Y-5.1983
X9.0519Y-3.6117
X9.0637Y-2.9267
X9.0657Y-4.4306
X9.0677Y-5.1845
X9.6444Y-4.4739
X9.6523Y-5.2377
X9.6567Y-3.7672
X9.6813Y-3.7082
X9.7074Y-4.4739
X9.7153Y-5.2377
X9.7192Y-3.7259
X9.7744Y-2.9385
X9.7803Y-4.4385
X9.7822Y-5.1983
X9.8015Y-3.6097
X9.8157Y-2.9247
X9.8157Y-4.4247
X9.8177Y-5.1845
X10.3885Y-3.7259
X10.3925Y-4.4739
X10.4003Y-5.2377
X10.4313Y-3.6944
X10.4633Y-4.4739
X10.4633Y-5.2377
X10.4673Y-3.7259
X10.5303Y-2.9405
X10.5322Y-4.4405
X10.5322Y-5.1983
X10.5519Y-3.6097
X10.5677Y-2.9286
X10.5677Y-4.4267
X10.5677Y-5.1845
X11.1405Y-4.4739
X11.1484Y-5.2377
X11.1562Y-3.7259
X11.1813Y-3.6806
X11.2114Y-4.4739
X11.2114Y-5.2377
X11.2153Y-3.7259
X11.2803Y-2.9385
X11.2803Y-3.6924
X11.2803Y-4.4424
X11.2803Y-5.1983
X11.3157Y-2.9247
X11.3157Y-3.6845
X11.3157Y-4.4286
X11.3157Y-5.1845
X11.8964Y-4.4739
X11.8964Y-5.2377
X11.9023Y-3.7239
X11.9313Y-3.6658
X11.9574Y-3.7239
X11.9673Y-4.4739
X11.9673Y-5.2377
X12.0244Y-2.9405
X12.0283Y-3.6924
X12.0303Y-4.4424
X12.0322Y-5.1983
X12.0637Y-3.6845
X12.0657Y-2.9267
X12.0657Y-4.4286
X12.0677Y-5.1845
X12.6444Y-4.4739
X12.6444Y-5.2377
X12.6503Y-3.7239
X12.6809Y-3.6521
X12.7074Y-3.7239
X12.7153Y-4.4739
X12.7153Y-5.2377
X12.7803Y-2.9444
X12.7803Y-3.6924
X12.7803Y-4.4464
X12.7822Y-5.1964
X12.8157Y-2.9306
X12.8157Y-3.6786
X12.8157Y-4.4326
X12.8177Y-5.1826
T2
X1.8054Y-3.2136
X1.9043Y-3.3125
X2.0816Y-3.1237
X2.5972Y-2.908
X2.6153Y-4.3834
X3.0027Y-3.7987
X3.0913Y-3.6156
X3.1838Y-3.4109
X3.295Y-3.2731
X3.3177Y-3.8548
X3.4161Y-3.9542
X3.42Y-3.2692
X3.5236Y-3.8538
X3.55Y-4.3834
X3.5588Y-3.3976
X3.7088Y-3.6078
X4.0362Y-4.3873
X6.0125Y-3.6137
X6.7625Y-3.6097
X7.5165Y-3.6058
X8.2625Y-3.6097
X9.0125Y-3.6117
X9.7634Y-3.6097
X10.5125Y-3.6097
T4
X1.2311Y-3.3235
X1.2311Y-3.4235
X1.2311Y-3.5235
X1.2311Y-3.6235
X1.2311Y-3.7235
X1.2311Y-3.8235
T5
X1.3344Y-3.3371
X1.3344Y-4.0871
X1.3344Y-4.8371
X1.3344Y-5.5871
X1.5312Y-3.4198
X1.5312Y-4.1698
X1.5312Y-4.9198
X1.5312Y-5.6698
X2.0844Y-3.3371
X2.0844Y-4.0871
X2.0844Y-4.8371
X2.0844Y-5.5871
X2.2812Y-3.4198
X2.2812Y-4.1698
X2.2812Y-4.9198
X2.2812Y-5.6698
X2.8344Y-3.3366
X2.8344Y-4.0871
X2.8344Y-4.8371
X2.8344Y-5.5871
X3.0312Y-3.4193
X3.0312Y-4.1698
X3.0312Y-4.9198
X3.0312Y-5.6698
X3.5844Y-3.3371
X3.5844Y-4.0871
X3.5844Y-4.8371
X3.5844Y-5.5871
X3.7812Y-3.4198
X3.7812Y-4.1698
X3.7812Y-4.9198
X3.7812Y-5.6698
X4.3344Y-3.3371
X4.3344Y-4.0871
X4.3344Y-4.8371
X4.3344Y-5.5871
X4.5312Y-3.4198
X4.5312Y-4.1698
X4.5312Y-4.9198
X4.5312Y-5.6698
X5.0844Y-3.3371
X5.0844Y-4.0871
X5.0844Y-4.8371
X5.0844Y-5.5871
X5.2812Y-3.4198
X5.2812Y-4.1698
X5.2812Y-4.9198
X5.2812Y-5.6698
X5.6562Y-5.2052
X5.8344Y-3.3371
X5.8344Y-4.0871
X5.8344Y-4.8371
X5.8344Y-5.5871
X5.8531Y-5.2879
X6.0312Y-3.4198
X6.0312Y-4.1698
X6.0312Y-4.9198
X6.0312Y-5.6698
X6.5844Y-3.3371
X6.5844Y-4.0871
X6.5844Y-4.8371
X6.5844Y-5.5871
X6.7812Y-3.4198
X6.7812Y-4.1698
X6.7812Y-4.9198
X6.7812Y-5.6698
X7.3344Y-3.3371
X7.3344Y-4.0871
X7.3344Y-4.8371
X7.3344Y-5.5871
X7.5312Y-3.4198
X7.5312Y-4.1698
X7.5312Y-4.9198
X7.5312Y-5.6698
X8.0844Y-3.3371
X8.0844Y-4.0871
X8.0844Y-4.8371
X8.0844Y-5.5871
X8.2812Y-3.4198
X8.2812Y-4.1698
X8.2812Y-4.9198
X8.2812Y-5.6698
X8.6562Y-5.2052
X8.8344Y-3.3371
X8.8344Y-4.0871
X8.8344Y-4.8371
X8.8344Y-5.5871
X8.8531Y-5.2879
X9.0312Y-3.4198
X9.0312Y-4.1698
X9.0312Y-4.9198
X9.0312Y-5.6698
X9.5844Y-3.3371
X9.5844Y-4.0871
X9.5844Y-4.8371
X9.5844Y-5.5871
X9.7812Y-3.4198
X9.7812Y-4.1698
X9.7812Y-4.9198
X9.7812Y-5.6698
X10.3344Y-3.3371
X10.3344Y-4.0871
X10.3344Y-4.8371
X10.3344Y-5.5871
X10.5312Y-3.4198
X10.5312Y-4.1698
X10.5312Y-4.9198
X10.5312Y-5.6698
X11.0844Y-3.3371
X11.0844Y-4.0871
X11.0844Y-4.8371
X11.0844Y-5.5871
X11.2812Y-3.4198
X11.2812Y-4.1698
X11.2812Y-4.9198
X11.2812Y-5.6698
X11.8344Y-3.3371
X11.8344Y-4.0871
X11.8344Y-4.8371
X11.8344Y-5.5871
X12.0312Y-3.4198
X12.0312Y-4.1698
X12.0312Y-4.9198
X12.0312Y-5.6698
X12.5844Y-3.3371
X12.5844Y-4.0871
X12.5844Y-4.8371
X12.5844Y-5.5871
X12.7812Y-3.4198
X12.7812Y-4.1698
X12.7812Y-4.9198
X12.7812Y-5.6698
T6
X1.4312Y-3.3875
X1.4312Y-4.1375
X1.4312Y-4.8875
X1.4312Y-5.6375
X1.6812Y-3.2875
X1.6812Y-4.0375
X1.6812Y-4.7875
X1.6812Y-5.5375
X2.1812Y-3.3875
X2.1812Y-4.1375
X2.1812Y-4.8875
X2.1812Y-5.6375
X2.4312Y-3.2875
X2.4312Y-4.0375
X2.4312Y-4.7875
X2.4312Y-5.5375
X2.9312Y-3.387
X2.9312Y-4.1375
X2.9312Y-4.8875
X2.9312Y-5.6375
X3.1812Y-3.287
X3.1812Y-4.0375
X3.1812Y-4.7875
X3.1812Y-5.5375
X3.6812Y-3.3875
X3.6812Y-4.1375
X3.6812Y-4.8875
X3.6812Y-5.6375
X3.9312Y-3.2875
X3.9312Y-4.0375
X3.9312Y-4.7875
X3.9312Y-5.5375
X4.4312Y-3.3875
X4.4312Y-4.1375
X4.4312Y-4.8875
X4.4312Y-5.6375
X4.6812Y-3.2875
X4.6812Y-4.0375
X4.6812Y-4.7875
X4.6812Y-5.5375
X5.1812Y-3.3875
X5.1812Y-4.1375
X5.1812Y-4.8875
X5.1812Y-5.6375
X5.4312Y-3.2875
X5.4312Y-4.0375
X5.4312Y-4.7875
X5.4312Y-5.5375
X5.5062Y-5.3375
X5.7562Y-5.2375
X5.9312Y-3.3875
X5.9312Y-4.1375
X5.9312Y-4.8875
X5.9312Y-5.6375
X6.1812Y-3.2875
X6.1812Y-4.0375
X6.1812Y-4.7875
X6.1812Y-5.5375
X6.6812Y-3.3875
X6.6812Y-4.1375
X6.6812Y-4.8875
X6.6812Y-5.6375
X6.9312Y-3.2875
X6.9312Y-4.0375
X6.9312Y-4.7875
X6.9312Y-5.5375
X7.4312Y-3.3875
X7.4312Y-4.1375
X7.4312Y-4.8875
X7.4312Y-5.6375
X7.6812Y-3.2875
X7.6812Y-4.0375
X7.6812Y-4.7875
X7.6812Y-5.5375
X8.1813Y-3.3875
X8.1813Y-4.1375
X8.1813Y-4.8875
X8.1813Y-5.6375
X8.4313Y-3.2875
X8.4313Y-4.0375
X8.4313Y-4.7875
X8.4313Y-5.5375
X8.5062Y-5.3375
X8.7562Y-5.2375
X8.9313Y-3.3875
X8.9313Y-4.1375
X8.9313Y-4.8875
X8.9313Y-5.6375
X9.1813Y-3.2875
X9.1813Y-4.0375
X9.1813Y-4.7875
X9.1813Y-5.5375
X9.6813Y-3.3875
X9.6813Y-4.1375
X9.6813Y-4.8875
X9.6813Y-5.6375
X9.9313Y-3.2875
X9.9313Y-4.0375
X9.9313Y-4.7875
X9.9313Y-5.5375
X10.4313Y-3.3875
X10.4313Y-4.1375
X10.4313Y-4.8875
X10.4313Y-5.6375
X10.6813Y-3.2875
X10.6813Y-4.0375
X10.6813Y-4.7875
X10.6813Y-5.5375
X11.1813Y-3.3875
X11.1813Y-4.1375
X11.1813Y-4.8875
X11.1813Y-5.6375
X11.4313Y-3.2875
X11.4313Y-4.0375
X11.4313Y-4.7875
X11.4313Y-5.5375
X11.9313Y-3.3875
X11.9313Y-4.1375
X11.9313Y-4.8875
X11.9313Y-5.6375
X12.1813Y-3.2875
X12.1813Y-4.0375
X12.1813Y-4.7875
X12.1813Y-5.5375
X12.6813Y-3.3875
X12.6813Y-4.1375
X12.6813Y-4.8875
X12.6813Y-5.6375
X12.9313Y-3.2875
X12.9313Y-4.0375
X12.9313Y-4.7875
X12.9313Y-5.5375
T3
G00X1.8326Y-2.846
M15
G01X1.8326Y-2.8696
M16
G05
G00X1.8326Y-3.0007
M15
G01X1.8326Y-3.044
M16
G05
G00X2.1728Y-2.846
M15
G01X2.1728Y-2.8696
M16
G05
G00X2.1728Y-3.0007
M15
G01X2.1728Y-3.044
M16
G05
T0
M30
