M48
; DRILL file {KiCad 7.0.7} date Wed Oct 11 09:13:37 2023
; FORMAT={-:-/ absolute / inch / decimal}
; #@! TF.CreationDate,2023-10-11T09:13:37-04:00
; #@! TF.GenerationSoftware,Kicad,Pcbnew,7.0.7
; #@! TF.FileFunction,NonPlated,1,4,NPTH
FMAT,2
INCH
; #@! TA.AperFunction,NonPlated,NPTH,ComponentDrill
T1C0.0256
; #@! TA.AperFunction,NonPlated,NPTH,ComponentDrill
T2C0.0670
; #@! TA.AperFunction,NonPlated,NPTH,ComponentDrill
T3C0.1260
; #@! TA.AperFunction,NonPlated,NPTH,ComponentDrill
T4C0.1570
%
G90
G05
T1
X1.8889Y-3.0015
X2.1165Y-3.0015
T3
X2.6562Y-3.5623
X2.6562Y-5.0622
X5.8438Y-3.5625
X5.8438Y-5.0624
X8.4688Y-3.5623
X8.4688Y-5.0622
X11.6561Y-3.5623
X11.6561Y-5.0622
T4
X1.5312Y-3.1875
X1.5312Y-3.9375
X1.5312Y-4.6875
X1.5312Y-5.4375
X2.2812Y-3.1875
X2.2812Y-3.9375
X2.2812Y-4.6875
X2.2812Y-5.4375
X3.0312Y-3.187
X3.0312Y-3.9375
X3.0312Y-4.6875
X3.0312Y-5.4375
X3.7812Y-3.1875
X3.7812Y-3.9375
X3.7812Y-4.6875
X3.7812Y-5.4375
X4.5312Y-3.1875
X4.5312Y-3.9375
X4.5312Y-4.6875
X4.5312Y-5.4375
X5.2812Y-3.1875
X5.2812Y-3.9375
X5.2812Y-4.6875
X5.2812Y-5.4375
X5.6562Y-5.4375
X6.0312Y-3.1875
X6.0312Y-3.9375
X6.0312Y-4.6875
X6.0312Y-5.4375
X6.7812Y-3.1875
X6.7812Y-3.9375
X6.7812Y-4.6875
X6.7812Y-5.4375
X7.5312Y-3.1875
X7.5312Y-3.9375
X7.5312Y-4.6875
X7.5312Y-5.4375
X8.2812Y-3.1875
X8.2812Y-3.9375
X8.2812Y-4.6875
X8.2812Y-5.4375
X8.6562Y-5.4375
X9.0312Y-3.1875
X9.0312Y-3.9375
X9.0312Y-4.6875
X9.0312Y-5.4375
X9.7812Y-3.1875
X9.7812Y-3.9375
X9.7812Y-4.6875
X9.7812Y-5.4375
X10.5312Y-3.1875
X10.5312Y-3.9375
X10.5312Y-4.6875
X10.5312Y-5.4375
X11.2812Y-3.1875
X11.2812Y-3.9375
X11.2812Y-4.6875
X11.2812Y-5.4375
X12.0312Y-3.1875
X12.0312Y-3.9375
X12.0312Y-4.6875
X12.0312Y-5.4375
X12.7812Y-3.1875
X12.7812Y-3.9375
X12.7812Y-4.6875
X12.7812Y-5.4375
T2
G00X1.3147Y-3.1875
M15
G01X1.3313Y-3.1875
M16
G05
G00X1.3147Y-3.9375
M15
G01X1.3313Y-3.9375
M16
G05
G00X1.3147Y-4.6875
M15
G01X1.3313Y-4.6875
M16
G05
G00X1.3147Y-5.4375
M15
G01X1.3313Y-5.4375
M16
G05
G00X1.7312Y-3.1875
M15
G01X1.7478Y-3.1875
M16
G05
G00X1.7312Y-3.9375
M15
G01X1.7478Y-3.9375
M16
G05
G00X1.7312Y-4.6875
M15
G01X1.7478Y-4.6875
M16
G05
G00X1.7312Y-5.4375
M15
G01X1.7478Y-5.4375
M16
G05
G00X2.0647Y-3.1875
M15
G01X2.0813Y-3.1875
M16
G05
G00X2.0647Y-3.9375
M15
G01X2.0813Y-3.9375
M16
G05
G00X2.0647Y-4.6875
M15
G01X2.0813Y-4.6875
M16
G05
G00X2.0647Y-5.4375
M15
G01X2.0813Y-5.4375
M16
G05
G00X2.4812Y-3.1875
M15
G01X2.4978Y-3.1875
M16
G05
G00X2.4812Y-3.9375
M15
G01X2.4978Y-3.9375
M16
G05
G00X2.4812Y-4.6875
M15
G01X2.4978Y-4.6875
M16
G05
G00X2.4812Y-5.4375
M15
G01X2.4978Y-5.4375
M16
G05
G00X2.8147Y-3.187
M15
G01X2.8313Y-3.187
M16
G05
G00X2.8147Y-3.9375
M15
G01X2.8313Y-3.9375
M16
G05
G00X2.8147Y-4.6875
M15
G01X2.8313Y-4.6875
M16
G05
G00X2.8147Y-5.4375
M15
G01X2.8313Y-5.4375
M16
G05
G00X3.2312Y-3.187
M15
G01X3.2478Y-3.187
M16
G05
G00X3.2312Y-3.9375
M15
G01X3.2478Y-3.9375
M16
G05
G00X3.2312Y-4.6875
M15
G01X3.2478Y-4.6875
M16
G05
G00X3.2312Y-5.4375
M15
G01X3.2478Y-5.4375
M16
G05
G00X3.5647Y-3.1875
M15
G01X3.5813Y-3.1875
M16
G05
G00X3.5647Y-3.9375
M15
G01X3.5813Y-3.9375
M16
G05
G00X3.5647Y-4.6875
M15
G01X3.5813Y-4.6875
M16
G05
G00X3.5647Y-5.4375
M15
G01X3.5813Y-5.4375
M16
G05
G00X3.9812Y-3.1875
M15
G01X3.9978Y-3.1875
M16
G05
G00X3.9812Y-3.9375
M15
G01X3.9978Y-3.9375
M16
G05
G00X3.9812Y-4.6875
M15
G01X3.9978Y-4.6875
M16
G05
G00X3.9812Y-5.4375
M15
G01X3.9978Y-5.4375
M16
G05
G00X4.3147Y-3.1875
M15
G01X4.3313Y-3.1875
M16
G05
G00X4.3147Y-3.9375
M15
G01X4.3313Y-3.9375
M16
G05
G00X4.3147Y-4.6875
M15
G01X4.3313Y-4.6875
M16
G05
G00X4.3147Y-5.4375
M15
G01X4.3313Y-5.4375
M16
G05
G00X4.7312Y-3.1875
M15
G01X4.7478Y-3.1875
M16
G05
G00X4.7312Y-3.9375
M15
G01X4.7478Y-3.9375
M16
G05
G00X4.7312Y-4.6875
M15
G01X4.7478Y-4.6875
M16
G05
G00X4.7312Y-5.4375
M15
G01X4.7478Y-5.4375
M16
G05
G00X5.0647Y-3.1875
M15
G01X5.0813Y-3.1875
M16
G05
G00X5.0647Y-3.9375
M15
G01X5.0813Y-3.9375
M16
G05
G00X5.0647Y-4.6875
M15
G01X5.0813Y-4.6875
M16
G05
G00X5.0647Y-5.4375
M15
G01X5.0813Y-5.4375
M16
G05
G00X5.4563Y-5.4375
M15
G01X5.4397Y-5.4375
M16
G05
G00X5.4812Y-3.1875
M15
G01X5.4978Y-3.1875
M16
G05
G00X5.4812Y-3.9375
M15
G01X5.4978Y-3.9375
M16
G05
G00X5.4812Y-4.6875
M15
G01X5.4978Y-4.6875
M16
G05
G00X5.4812Y-5.4375
M15
G01X5.4978Y-5.4375
M16
G05
G00X5.8147Y-3.1875
M15
G01X5.8313Y-3.1875
M16
G05
G00X5.8147Y-3.9375
M15
G01X5.8313Y-3.9375
M16
G05
G00X5.8147Y-4.6875
M15
G01X5.8313Y-4.6875
M16
G05
G00X5.8147Y-5.4375
M15
G01X5.8313Y-5.4375
M16
G05
G00X5.8728Y-5.4375
M15
G01X5.8562Y-5.4375
M16
G05
G00X6.2312Y-3.1875
M15
G01X6.2478Y-3.1875
M16
G05
G00X6.2312Y-3.9375
M15
G01X6.2478Y-3.9375
M16
G05
G00X6.2312Y-4.6875
M15
G01X6.2478Y-4.6875
M16
G05
G00X6.2312Y-5.4375
M15
G01X6.2478Y-5.4375
M16
G05
G00X6.5647Y-3.1875
M15
G01X6.5813Y-3.1875
M16
G05
G00X6.5647Y-3.9375
M15
G01X6.5813Y-3.9375
M16
G05
G00X6.5647Y-4.6875
M15
G01X6.5813Y-4.6875
M16
G05
G00X6.5647Y-5.4375
M15
G01X6.5813Y-5.4375
M16
G05
G00X6.9812Y-3.1875
M15
G01X6.9978Y-3.1875
M16
G05
G00X6.9812Y-3.9375
M15
G01X6.9978Y-3.9375
M16
G05
G00X6.9812Y-4.6875
M15
G01X6.9978Y-4.6875
M16
G05
G00X6.9812Y-5.4375
M15
G01X6.9978Y-5.4375
M16
G05
G00X7.3147Y-3.1875
M15
G01X7.3313Y-3.1875
M16
G05
G00X7.3147Y-3.9375
M15
G01X7.3313Y-3.9375
M16
G05
G00X7.3147Y-4.6875
M15
G01X7.3313Y-4.6875
M16
G05
G00X7.3147Y-5.4375
M15
G01X7.3313Y-5.4375
M16
G05
G00X7.7312Y-3.1875
M15
G01X7.7478Y-3.1875
M16
G05
G00X7.7312Y-3.9375
M15
G01X7.7478Y-3.9375
M16
G05
G00X7.7312Y-4.6875
M15
G01X7.7478Y-4.6875
M16
G05
G00X7.7312Y-5.4375
M15
G01X7.7478Y-5.4375
M16
G05
G00X8.0647Y-3.1875
M15
G01X8.0813Y-3.1875
M16
G05
G00X8.0647Y-3.9375
M15
G01X8.0813Y-3.9375
M16
G05
G00X8.0647Y-4.6875
M15
G01X8.0813Y-4.6875
M16
G05
G00X8.0647Y-5.4375
M15
G01X8.0813Y-5.4375
M16
G05
G00X8.4563Y-5.4375
M15
G01X8.4397Y-5.4375
M16
G05
G00X8.4812Y-3.1875
M15
G01X8.4978Y-3.1875
M16
G05
G00X8.4812Y-3.9375
M15
G01X8.4978Y-3.9375
M16
G05
G00X8.4812Y-4.6875
M15
G01X8.4978Y-4.6875
M16
G05
G00X8.4812Y-5.4375
M15
G01X8.4978Y-5.4375
M16
G05
G00X8.8147Y-3.1875
M15
G01X8.8313Y-3.1875
M16
G05
G00X8.8147Y-3.9375
M15
G01X8.8313Y-3.9375
M16
G05
G00X8.8147Y-4.6875
M15
G01X8.8313Y-4.6875
M16
G05
G00X8.8147Y-5.4375
M15
G01X8.8313Y-5.4375
M16
G05
G00X8.8728Y-5.4375
M15
G01X8.8562Y-5.4375
M16
G05
G00X9.2312Y-3.1875
M15
G01X9.2478Y-3.1875
M16
G05
G00X9.2312Y-3.9375
M15
G01X9.2478Y-3.9375
M16
G05
G00X9.2312Y-4.6875
M15
G01X9.2478Y-4.6875
M16
G05
G00X9.2312Y-5.4375
M15
G01X9.2478Y-5.4375
M16
G05
G00X9.5647Y-3.1875
M15
G01X9.5813Y-3.1875
M16
G05
G00X9.5647Y-3.9375
M15
G01X9.5813Y-3.9375
M16
G05
G00X9.5647Y-4.6875
M15
G01X9.5813Y-4.6875
M16
G05
G00X9.5647Y-5.4375
M15
G01X9.5813Y-5.4375
M16
G05
G00X9.9812Y-3.1875
M15
G01X9.9978Y-3.1875
M16
G05
G00X9.9812Y-3.9375
M15
G01X9.9978Y-3.9375
M16
G05
G00X9.9812Y-4.6875
M15
G01X9.9978Y-4.6875
M16
G05
G00X9.9812Y-5.4375
M15
G01X9.9978Y-5.4375
M16
G05
G00X10.3147Y-3.1875
M15
G01X10.3313Y-3.1875
M16
G05
G00X10.3147Y-3.9375
M15
G01X10.3313Y-3.9375
M16
G05
G00X10.3147Y-4.6875
M15
G01X10.3313Y-4.6875
M16
G05
G00X10.3147Y-5.4375
M15
G01X10.3313Y-5.4375
M16
G05
G00X10.7312Y-3.1875
M15
G01X10.7478Y-3.1875
M16
G05
G00X10.7312Y-3.9375
M15
G01X10.7478Y-3.9375
M16
G05
G00X10.7312Y-4.6875
M15
G01X10.7478Y-4.6875
M16
G05
G00X10.7312Y-5.4375
M15
G01X10.7478Y-5.4375
M16
G05
G00X11.0647Y-3.1875
M15
G01X11.0813Y-3.1875
M16
G05
G00X11.0647Y-3.9375
M15
G01X11.0813Y-3.9375
M16
G05
G00X11.0647Y-4.6875
M15
G01X11.0813Y-4.6875
M16
G05
G00X11.0647Y-5.4375
M15
G01X11.0813Y-5.4375
M16
G05
G00X11.4812Y-3.1875
M15
G01X11.4978Y-3.1875
M16
G05
G00X11.4812Y-3.9375
M15
G01X11.4978Y-3.9375
M16
G05
G00X11.4812Y-4.6875
M15
G01X11.4978Y-4.6875
M16
G05
G00X11.4812Y-5.4375
M15
G01X11.4978Y-5.4375
M16
G05
G00X11.8147Y-3.1875
M15
G01X11.8313Y-3.1875
M16
G05
G00X11.8147Y-3.9375
M15
G01X11.8313Y-3.9375
M16
G05
G00X11.8147Y-4.6875
M15
G01X11.8313Y-4.6875
M16
G05
G00X11.8147Y-5.4375
M15
G01X11.8313Y-5.4375
M16
G05
G00X12.2312Y-3.1875
M15
G01X12.2478Y-3.1875
M16
G05
G00X12.2312Y-3.9375
M15
G01X12.2478Y-3.9375
M16
G05
G00X12.2312Y-4.6875
M15
G01X12.2478Y-4.6875
M16
G05
G00X12.2312Y-5.4375
M15
G01X12.2478Y-5.4375
M16
G05
G00X12.5647Y-3.1875
M15
G01X12.5813Y-3.1875
M16
G05
G00X12.5647Y-3.9375
M15
G01X12.5813Y-3.9375
M16
G05
G00X12.5647Y-4.6875
M15
G01X12.5813Y-4.6875
M16
G05
G00X12.5647Y-5.4375
M15
G01X12.5813Y-5.4375
M16
G05
G00X12.9812Y-3.1875
M15
G01X12.9978Y-3.1875
M16
G05
G00X12.9812Y-3.9375
M15
G01X12.9978Y-3.9375
M16
G05
G00X12.9812Y-4.6875
M15
G01X12.9978Y-4.6875
M16
G05
G00X12.9812Y-5.4375
M15
G01X12.9978Y-5.4375
M16
G05
T0
M30
