%TF.GenerationSoftware,KiCad,Pcbnew,7.0.7*%
%TF.CreationDate,2023-10-11T09:13:37-04:00*%
%TF.ProjectId,HardLight,48617264-4c69-4676-9874-2e6b69636164,Mark 2 Rev F*%
%TF.SameCoordinates,Original*%
%TF.FileFunction,Copper,L1,Top*%
%TF.FilePolarity,Positive*%
%FSLAX46Y46*%
G04 Gerber Fmt 4.6, Leading zero omitted, Abs format (unit mm)*
G04 Created by KiCad (PCBNEW 7.0.7) date 2023-10-11 09:13:37*
%MOMM*%
%LPD*%
G01*
G04 APERTURE LIST*
G04 Aperture macros list*
%AMRoundRect*
0 Rectangle with rounded corners*
0 $1 Rounding radius*
0 $2 $3 $4 $5 $6 $7 $8 $9 X,Y pos of 4 corners*
0 Add a 4 corners polygon primitive as box body*
4,1,4,$2,$3,$4,$5,$6,$7,$8,$9,$2,$3,0*
0 Add four circle primitives for the rounded corners*
1,1,$1+$1,$2,$3*
1,1,$1+$1,$4,$5*
1,1,$1+$1,$6,$7*
1,1,$1+$1,$8,$9*
0 Add four rect primitives between the rounded corners*
20,1,$1+$1,$2,$3,$4,$5,0*
20,1,$1+$1,$4,$5,$6,$7,0*
20,1,$1+$1,$6,$7,$8,$9,0*
20,1,$1+$1,$8,$9,$2,$3,0*%
%AMRotRect*
0 Rectangle, with rotation*
0 The origin of the aperture is its center*
0 $1 length*
0 $2 width*
0 $3 Rotation angle, in degrees counterclockwise*
0 Add horizontal line*
21,1,$1,$2,0,0,$3*%
G04 Aperture macros list end*
%TA.AperFunction,ComponentPad*%
%ADD10C,2.286000*%
%TD*%
%TA.AperFunction,SMDPad,CuDef*%
%ADD11RotRect,1.350000X0.300000X150.000000*%
%TD*%
%TA.AperFunction,ComponentPad*%
%ADD12C,2.032000*%
%TD*%
%TA.AperFunction,SMDPad,CuDef*%
%ADD13RotRect,3.500000X0.300000X222.500000*%
%TD*%
%TA.AperFunction,SMDPad,CuDef*%
%ADD14RoundRect,0.147500X0.147500X0.172500X-0.147500X0.172500X-0.147500X-0.172500X0.147500X-0.172500X0*%
%TD*%
%TA.AperFunction,SMDPad,CuDef*%
%ADD15R,0.700000X0.700000*%
%TD*%
%TA.AperFunction,SMDPad,CuDef*%
%ADD16RotRect,1.350000X0.300000X330.000000*%
%TD*%
%TA.AperFunction,SMDPad,CuDef*%
%ADD17RotRect,3.500000X0.300000X42.500000*%
%TD*%
%TA.AperFunction,ComponentPad*%
%ADD18O,1.000000X1.600000*%
%TD*%
%TA.AperFunction,ComponentPad*%
%ADD19O,1.000000X2.100000*%
%TD*%
%TA.AperFunction,ComponentPad*%
%ADD20R,1.700000X1.700000*%
%TD*%
%TA.AperFunction,ComponentPad*%
%ADD21O,1.700000X1.700000*%
%TD*%
%TA.AperFunction,ViaPad*%
%ADD22C,0.600000*%
%TD*%
%TA.AperFunction,ViaPad*%
%ADD23C,0.800000*%
%TD*%
%TA.AperFunction,Conductor*%
%ADD24C,0.200000*%
%TD*%
%TA.AperFunction,Conductor*%
%ADD25C,0.300000*%
%TD*%
%TA.AperFunction,Conductor*%
%ADD26C,0.250000*%
%TD*%
G04 APERTURE END LIST*
D10*
%TO.P,K2,1*%
%TO.N,14*%
X55403750Y-86042500D03*
D11*
X54103750Y-85422500D03*
D12*
X52943750Y-84762500D03*
D10*
%TO.P,K2,2*%
%TO.N,Net-(D2-A)*%
X61753750Y-83502500D03*
D13*
X59803750Y-85182500D03*
D12*
X57943750Y-86862500D03*
%TD*%
D10*
%TO.P,K3,1*%
%TO.N,13*%
X74453750Y-86029800D03*
D11*
X73153750Y-85409800D03*
D12*
X71993750Y-84749800D03*
D10*
%TO.P,K3,2*%
%TO.N,Net-(D3-A)*%
X80803750Y-83489800D03*
D13*
X78853750Y-85169800D03*
D12*
X76993750Y-86849800D03*
%TD*%
D10*
%TO.P,K6,1*%
%TO.N,10*%
X131603750Y-86042500D03*
D11*
X130303750Y-85422500D03*
D12*
X129143750Y-84762500D03*
D10*
%TO.P,K6,2*%
%TO.N,Net-(D6-A)*%
X137953750Y-83502500D03*
D13*
X136003750Y-85182500D03*
D12*
X134143750Y-86862500D03*
%TD*%
D10*
%TO.P,K7,1*%
%TO.N,9*%
X150653750Y-86042500D03*
D11*
X149353750Y-85422500D03*
D12*
X148193750Y-84762500D03*
D10*
%TO.P,K7,2*%
%TO.N,Net-(D7-A)*%
X157003750Y-83502500D03*
D13*
X155053750Y-85182500D03*
D12*
X153193750Y-86862500D03*
%TD*%
D10*
%TO.P,K8,1*%
%TO.N,8*%
X169703750Y-86042500D03*
D11*
X168403750Y-85422500D03*
D12*
X167243750Y-84762500D03*
D10*
%TO.P,K8,2*%
%TO.N,Net-(D8-A)*%
X176053750Y-83502500D03*
D13*
X174103750Y-85182500D03*
D12*
X172243750Y-86862500D03*
%TD*%
D10*
%TO.P,K9,1*%
%TO.N,7*%
X188753750Y-86042500D03*
D11*
X187453750Y-85422500D03*
D12*
X186293750Y-84762500D03*
D10*
%TO.P,K9,2*%
%TO.N,Net-(D9-A)*%
X195103750Y-83502500D03*
D13*
X193153750Y-85182500D03*
D12*
X191293750Y-86862500D03*
%TD*%
D10*
%TO.P,K10,1*%
%TO.N,6*%
X207803750Y-86042500D03*
D11*
X206503750Y-85422500D03*
D12*
X205343750Y-84762500D03*
D10*
%TO.P,K10,2*%
%TO.N,Net-(D10-A)*%
X214153750Y-83502500D03*
D13*
X212203750Y-85182500D03*
D12*
X210343750Y-86862500D03*
%TD*%
D10*
%TO.P,K11,1*%
%TO.N,5*%
X226853750Y-86042500D03*
D11*
X225553750Y-85422500D03*
D12*
X224393750Y-84762500D03*
D10*
%TO.P,K11,2*%
%TO.N,Net-(D11-A)*%
X233203750Y-83502500D03*
D13*
X231253750Y-85182500D03*
D12*
X229393750Y-86862500D03*
%TD*%
D10*
%TO.P,K12,1*%
%TO.N,4*%
X245903750Y-86042500D03*
D11*
X244603750Y-85422500D03*
D12*
X243443750Y-84762500D03*
D10*
%TO.P,K12,2*%
%TO.N,Net-(D12-A)*%
X252253750Y-83502500D03*
D13*
X250303750Y-85182500D03*
D12*
X248443750Y-86862500D03*
%TD*%
D10*
%TO.P,K13,1*%
%TO.N,3*%
X264953750Y-86042500D03*
D11*
X263653750Y-85422500D03*
D12*
X262493750Y-84762500D03*
D10*
%TO.P,K13,2*%
%TO.N,Net-(D13-A)*%
X271303750Y-83502500D03*
D13*
X269353750Y-85182500D03*
D12*
X267493750Y-86862500D03*
%TD*%
D10*
%TO.P,K14,1*%
%TO.N,2*%
X284003750Y-86042500D03*
D11*
X282703750Y-85422500D03*
D12*
X281543750Y-84762500D03*
D10*
%TO.P,K14,2*%
%TO.N,Net-(D14-A)*%
X290353750Y-83502500D03*
D13*
X288403750Y-85182500D03*
D12*
X286543750Y-86862500D03*
%TD*%
D10*
%TO.P,K15,1*%
%TO.N,1*%
X303053750Y-86042500D03*
D11*
X301753750Y-85422500D03*
D12*
X300593750Y-84762500D03*
D10*
%TO.P,K15,2*%
%TO.N,Net-(D15-A)*%
X309403750Y-83502500D03*
D13*
X307453750Y-85182500D03*
D12*
X305593750Y-86862500D03*
%TD*%
D10*
%TO.P,K16,1*%
%TO.N,0*%
X322103750Y-86042500D03*
D11*
X320803750Y-85422500D03*
D12*
X319643750Y-84762500D03*
D10*
%TO.P,K16,2*%
%TO.N,Net-(D16-A)*%
X328453750Y-83502500D03*
D13*
X326503750Y-85182500D03*
D12*
X324643750Y-86862500D03*
%TD*%
D10*
%TO.P,K17,1*%
%TO.N,15*%
X36353750Y-105092500D03*
D11*
X35053750Y-104472500D03*
D12*
X33893750Y-103812500D03*
D10*
%TO.P,K17,2*%
%TO.N,Net-(D17-A)*%
X42703750Y-102552500D03*
D13*
X40753750Y-104232500D03*
D12*
X38893750Y-105912500D03*
%TD*%
D10*
%TO.P,K18,1*%
%TO.N,14*%
X55403750Y-105092500D03*
D11*
X54103750Y-104472500D03*
D12*
X52943750Y-103812500D03*
D10*
%TO.P,K18,2*%
%TO.N,Net-(D18-A)*%
X61753750Y-102552500D03*
D13*
X59803750Y-104232500D03*
D12*
X57943750Y-105912500D03*
%TD*%
D10*
%TO.P,K19,1*%
%TO.N,13*%
X74453750Y-105092500D03*
D11*
X73153750Y-104472500D03*
D12*
X71993750Y-103812500D03*
D10*
%TO.P,K19,2*%
%TO.N,Net-(D19-A)*%
X80803750Y-102552500D03*
D13*
X78853750Y-104232500D03*
D12*
X76993750Y-105912500D03*
%TD*%
D10*
%TO.P,K22,1*%
%TO.N,10*%
X131603750Y-105092500D03*
D11*
X130303750Y-104472500D03*
D12*
X129143750Y-103812500D03*
D10*
%TO.P,K22,2*%
%TO.N,Net-(D22-A)*%
X137953750Y-102552500D03*
D13*
X136003750Y-104232500D03*
D12*
X134143750Y-105912500D03*
%TD*%
D10*
%TO.P,K23,1*%
%TO.N,9*%
X150653750Y-105092500D03*
D11*
X149353750Y-104472500D03*
D12*
X148193750Y-103812500D03*
D10*
%TO.P,K23,2*%
%TO.N,Net-(D23-A)*%
X157003750Y-102552500D03*
D13*
X155053750Y-104232500D03*
D12*
X153193750Y-105912500D03*
%TD*%
D10*
%TO.P,K24,1*%
%TO.N,8*%
X169703750Y-105092500D03*
D11*
X168403750Y-104472500D03*
D12*
X167243750Y-103812500D03*
D10*
%TO.P,K24,2*%
%TO.N,Net-(D24-A)*%
X176053750Y-102552500D03*
D13*
X174103750Y-104232500D03*
D12*
X172243750Y-105912500D03*
%TD*%
D10*
%TO.P,K25,1*%
%TO.N,7*%
X188753750Y-105092500D03*
D11*
X187453750Y-104472500D03*
D12*
X186293750Y-103812500D03*
D10*
%TO.P,K25,2*%
%TO.N,Net-(D25-A)*%
X195103750Y-102552500D03*
D13*
X193153750Y-104232500D03*
D12*
X191293750Y-105912500D03*
%TD*%
D10*
%TO.P,K26,1*%
%TO.N,6*%
X207803750Y-105092500D03*
D11*
X206503750Y-104472500D03*
D12*
X205343750Y-103812500D03*
D10*
%TO.P,K26,2*%
%TO.N,Net-(D26-A)*%
X214153750Y-102552500D03*
D13*
X212203750Y-104232500D03*
D12*
X210343750Y-105912500D03*
%TD*%
D10*
%TO.P,K27,1*%
%TO.N,5*%
X226853750Y-105092500D03*
D11*
X225553750Y-104472500D03*
D12*
X224393750Y-103812500D03*
D10*
%TO.P,K27,2*%
%TO.N,Net-(D27-A)*%
X233203750Y-102552500D03*
D13*
X231253750Y-104232500D03*
D12*
X229393750Y-105912500D03*
%TD*%
D10*
%TO.P,K28,1*%
%TO.N,4*%
X245903750Y-105092500D03*
D11*
X244603750Y-104472500D03*
D12*
X243443750Y-103812500D03*
D10*
%TO.P,K28,2*%
%TO.N,Net-(D28-A)*%
X252253750Y-102552500D03*
D13*
X250303750Y-104232500D03*
D12*
X248443750Y-105912500D03*
%TD*%
D10*
%TO.P,K29,1*%
%TO.N,3*%
X264953750Y-105092500D03*
D11*
X263653750Y-104472500D03*
D12*
X262493750Y-103812500D03*
D10*
%TO.P,K29,2*%
%TO.N,Net-(D29-A)*%
X271303750Y-102552500D03*
D13*
X269353750Y-104232500D03*
D12*
X267493750Y-105912500D03*
%TD*%
D10*
%TO.P,K30,1*%
%TO.N,2*%
X284003750Y-105092500D03*
D11*
X282703750Y-104472500D03*
D12*
X281543750Y-103812500D03*
D10*
%TO.P,K30,2*%
%TO.N,Net-(D30-A)*%
X290353750Y-102552500D03*
D13*
X288403750Y-104232500D03*
D12*
X286543750Y-105912500D03*
%TD*%
D10*
%TO.P,K31,1*%
%TO.N,1*%
X303053750Y-105092500D03*
D11*
X301753750Y-104472500D03*
D12*
X300593750Y-103812500D03*
D10*
%TO.P,K31,2*%
%TO.N,Net-(D31-A)*%
X309403750Y-102552500D03*
D13*
X307453750Y-104232500D03*
D12*
X305593750Y-105912500D03*
%TD*%
D10*
%TO.P,K32,1*%
%TO.N,0*%
X322103750Y-105092500D03*
D11*
X320803750Y-104472500D03*
D12*
X319643750Y-103812500D03*
D10*
%TO.P,K32,2*%
%TO.N,Net-(D32-A)*%
X328453750Y-102552500D03*
D13*
X326503750Y-104232500D03*
D12*
X324643750Y-105912500D03*
%TD*%
D10*
%TO.P,K33,1*%
%TO.N,15*%
X36353750Y-124142500D03*
D11*
X35053750Y-123522500D03*
D12*
X33893750Y-122862500D03*
D10*
%TO.P,K33,2*%
%TO.N,Net-(D33-A)*%
X42703750Y-121602500D03*
D13*
X40753750Y-123282500D03*
D12*
X38893750Y-124962500D03*
%TD*%
D10*
%TO.P,K34,1*%
%TO.N,14*%
X55403750Y-124142500D03*
D11*
X54103750Y-123522500D03*
D12*
X52943750Y-122862500D03*
D10*
%TO.P,K34,2*%
%TO.N,Net-(D34-A)*%
X61753750Y-121602500D03*
D13*
X59803750Y-123282500D03*
D12*
X57943750Y-124962500D03*
%TD*%
D10*
%TO.P,K35,1*%
%TO.N,13*%
X74453750Y-124142500D03*
D11*
X73153750Y-123522500D03*
D12*
X71993750Y-122862500D03*
D10*
%TO.P,K35,2*%
%TO.N,Net-(D35-A)*%
X80803750Y-121602500D03*
D13*
X78853750Y-123282500D03*
D12*
X76993750Y-124962500D03*
%TD*%
D10*
%TO.P,K36,1*%
%TO.N,12*%
X93503750Y-124142500D03*
D11*
X92203750Y-123522500D03*
D12*
X91043750Y-122862500D03*
D10*
%TO.P,K36,2*%
%TO.N,Net-(D36-A)*%
X99853750Y-121602500D03*
D13*
X97903750Y-123282500D03*
D12*
X96043750Y-124962500D03*
%TD*%
D10*
%TO.P,K37,1*%
%TO.N,11*%
X112553750Y-124142500D03*
D11*
X111253750Y-123522500D03*
D12*
X110093750Y-122862500D03*
D10*
%TO.P,K37,2*%
%TO.N,Net-(D37-A)*%
X118903750Y-121602500D03*
D13*
X116953750Y-123282500D03*
D12*
X115093750Y-124962500D03*
%TD*%
D10*
%TO.P,K38,1*%
%TO.N,10*%
X131603750Y-124142500D03*
D11*
X130303750Y-123522500D03*
D12*
X129143750Y-122862500D03*
D10*
%TO.P,K38,2*%
%TO.N,Net-(D38-A)*%
X137953750Y-121602500D03*
D13*
X136003750Y-123282500D03*
D12*
X134143750Y-124962500D03*
%TD*%
D10*
%TO.P,K39,1*%
%TO.N,9*%
X150653750Y-124142500D03*
D11*
X149353750Y-123522500D03*
D12*
X148193750Y-122862500D03*
D10*
%TO.P,K39,2*%
%TO.N,Net-(D39-A)*%
X157003750Y-121602500D03*
D13*
X155053750Y-123282500D03*
D12*
X153193750Y-124962500D03*
%TD*%
D10*
%TO.P,K40,1*%
%TO.N,8*%
X169703750Y-124142500D03*
D11*
X168403750Y-123522500D03*
D12*
X167243750Y-122862500D03*
D10*
%TO.P,K40,2*%
%TO.N,Net-(D40-A)*%
X176053750Y-121602500D03*
D13*
X174103750Y-123282500D03*
D12*
X172243750Y-124962500D03*
%TD*%
D10*
%TO.P,K41,1*%
%TO.N,7*%
X188753750Y-124142500D03*
D11*
X187453750Y-123522500D03*
D12*
X186293750Y-122862500D03*
D10*
%TO.P,K41,2*%
%TO.N,Net-(D41-A)*%
X195103750Y-121602500D03*
D13*
X193153750Y-123282500D03*
D12*
X191293750Y-124962500D03*
%TD*%
D10*
%TO.P,K42,1*%
%TO.N,6*%
X207803750Y-124142500D03*
D11*
X206503750Y-123522500D03*
D12*
X205343750Y-122862500D03*
D10*
%TO.P,K42,2*%
%TO.N,Net-(D42-A)*%
X214153750Y-121602500D03*
D13*
X212203750Y-123282500D03*
D12*
X210343750Y-124962500D03*
%TD*%
D10*
%TO.P,K43,1*%
%TO.N,5*%
X226853750Y-124142500D03*
D11*
X225553750Y-123522500D03*
D12*
X224393750Y-122862500D03*
D10*
%TO.P,K43,2*%
%TO.N,Net-(D43-A)*%
X233203750Y-121602500D03*
D13*
X231253750Y-123282500D03*
D12*
X229393750Y-124962500D03*
%TD*%
D10*
%TO.P,K44,1*%
%TO.N,4*%
X245903750Y-124142500D03*
D11*
X244603750Y-123522500D03*
D12*
X243443750Y-122862500D03*
D10*
%TO.P,K44,2*%
%TO.N,Net-(D44-A)*%
X252253750Y-121602500D03*
D13*
X250303750Y-123282500D03*
D12*
X248443750Y-124962500D03*
%TD*%
D10*
%TO.P,K45,1*%
%TO.N,3*%
X264953750Y-124142500D03*
D11*
X263653750Y-123522500D03*
D12*
X262493750Y-122862500D03*
D10*
%TO.P,K45,2*%
%TO.N,Net-(D45-A)*%
X271303750Y-121602500D03*
D13*
X269353750Y-123282500D03*
D12*
X267493750Y-124962500D03*
%TD*%
D10*
%TO.P,K46,1*%
%TO.N,2*%
X284003750Y-124142500D03*
D11*
X282703750Y-123522500D03*
D12*
X281543750Y-122862500D03*
D10*
%TO.P,K46,2*%
%TO.N,Net-(D46-A)*%
X290353750Y-121602500D03*
D13*
X288403750Y-123282500D03*
D12*
X286543750Y-124962500D03*
%TD*%
D10*
%TO.P,K47,1*%
%TO.N,1*%
X303053750Y-124142500D03*
D11*
X301753750Y-123522500D03*
D12*
X300593750Y-122862500D03*
D10*
%TO.P,K47,2*%
%TO.N,Net-(D47-A)*%
X309403750Y-121602500D03*
D13*
X307453750Y-123282500D03*
D12*
X305593750Y-124962500D03*
%TD*%
D10*
%TO.P,K48,1*%
%TO.N,0*%
X322103750Y-124142500D03*
D11*
X320803750Y-123522500D03*
D12*
X319643750Y-122862500D03*
D10*
%TO.P,K48,2*%
%TO.N,Net-(D48-A)*%
X328453750Y-121602500D03*
D13*
X326503750Y-123282500D03*
D12*
X324643750Y-124962500D03*
%TD*%
D10*
%TO.P,K49,1*%
%TO.N,15*%
X36353750Y-143192500D03*
D11*
X35053750Y-142572500D03*
D12*
X33893750Y-141912500D03*
D10*
%TO.P,K49,2*%
%TO.N,Net-(D49-A)*%
X42703750Y-140652500D03*
D13*
X40753750Y-142332500D03*
D12*
X38893750Y-144012500D03*
%TD*%
D10*
%TO.P,K50,1*%
%TO.N,14*%
X55403750Y-143192500D03*
D11*
X54103750Y-142572500D03*
D12*
X52943750Y-141912500D03*
D10*
%TO.P,K50,2*%
%TO.N,Net-(D50-A)*%
X61753750Y-140652500D03*
D13*
X59803750Y-142332500D03*
D12*
X57943750Y-144012500D03*
%TD*%
D10*
%TO.P,K51,1*%
%TO.N,13*%
X74453750Y-143192500D03*
D11*
X73153750Y-142572500D03*
D12*
X71993750Y-141912500D03*
D10*
%TO.P,K51,2*%
%TO.N,Net-(D51-A)*%
X80803750Y-140652500D03*
D13*
X78853750Y-142332500D03*
D12*
X76993750Y-144012500D03*
%TD*%
D10*
%TO.P,K52,1*%
%TO.N,12*%
X93503750Y-143192500D03*
D11*
X92203750Y-142572500D03*
D12*
X91043750Y-141912500D03*
D10*
%TO.P,K52,2*%
%TO.N,Net-(D52-A)*%
X99853750Y-140652500D03*
D13*
X97903750Y-142332500D03*
D12*
X96043750Y-144012500D03*
%TD*%
D10*
%TO.P,K53,1*%
%TO.N,11*%
X112553750Y-143192500D03*
D11*
X111253750Y-142572500D03*
D12*
X110093750Y-141912500D03*
D10*
%TO.P,K53,2*%
%TO.N,Net-(D53-A)*%
X118903750Y-140652500D03*
D13*
X116953750Y-142332500D03*
D12*
X115093750Y-144012500D03*
%TD*%
D10*
%TO.P,K54,1*%
%TO.N,10*%
X131603750Y-143192500D03*
D11*
X130303750Y-142572500D03*
D12*
X129143750Y-141912500D03*
D10*
%TO.P,K54,2*%
%TO.N,Net-(D54-A)*%
X137953750Y-140652500D03*
D13*
X136003750Y-142332500D03*
D12*
X134143750Y-144012500D03*
%TD*%
D10*
%TO.P,K55,1*%
%TO.N,9*%
X150653750Y-143192500D03*
D11*
X149353750Y-142572500D03*
D12*
X148193750Y-141912500D03*
D10*
%TO.P,K55,2*%
%TO.N,Net-(D55-A)*%
X157003750Y-140652500D03*
D13*
X155053750Y-142332500D03*
D12*
X153193750Y-144012500D03*
%TD*%
D10*
%TO.P,K56,1*%
%TO.N,8*%
X169703750Y-143192500D03*
D11*
X168403750Y-142572500D03*
D12*
X167243750Y-141912500D03*
D10*
%TO.P,K56,2*%
%TO.N,Net-(D56-A)*%
X176053750Y-140652500D03*
D13*
X174103750Y-142332500D03*
D12*
X172243750Y-144012500D03*
%TD*%
D10*
%TO.P,K57,1*%
%TO.N,7*%
X188753750Y-143192500D03*
D11*
X187453750Y-142572500D03*
D12*
X186293750Y-141912500D03*
D10*
%TO.P,K57,2*%
%TO.N,Net-(D57-A)*%
X195103750Y-140652500D03*
D13*
X193153750Y-142332500D03*
D12*
X191293750Y-144012500D03*
%TD*%
D10*
%TO.P,K58,1*%
%TO.N,6*%
X207803750Y-143192500D03*
D11*
X206503750Y-142572500D03*
D12*
X205343750Y-141912500D03*
D10*
%TO.P,K58,2*%
%TO.N,Net-(D58-A)*%
X214153750Y-140652500D03*
D13*
X212203750Y-142332500D03*
D12*
X210343750Y-144012500D03*
%TD*%
D10*
%TO.P,K59,1*%
%TO.N,5*%
X226853750Y-143192500D03*
D11*
X225553750Y-142572500D03*
D12*
X224393750Y-141912500D03*
D10*
%TO.P,K59,2*%
%TO.N,Net-(D59-A)*%
X233203750Y-140652500D03*
D13*
X231253750Y-142332500D03*
D12*
X229393750Y-144012500D03*
%TD*%
D10*
%TO.P,K60,1*%
%TO.N,4*%
X245903750Y-143192500D03*
D11*
X244603750Y-142572500D03*
D12*
X243443750Y-141912500D03*
D10*
%TO.P,K60,2*%
%TO.N,Net-(D60-A)*%
X252253750Y-140652500D03*
D13*
X250303750Y-142332500D03*
D12*
X248443750Y-144012500D03*
%TD*%
D10*
%TO.P,K61,1*%
%TO.N,3*%
X264953750Y-143192500D03*
D11*
X263653750Y-142572500D03*
D12*
X262493750Y-141912500D03*
D10*
%TO.P,K61,2*%
%TO.N,Net-(D61-A)*%
X271303750Y-140652500D03*
D13*
X269353750Y-142332500D03*
D12*
X267493750Y-144012500D03*
%TD*%
D10*
%TO.P,K62,1*%
%TO.N,2*%
X284003750Y-143192500D03*
D11*
X282703750Y-142572500D03*
D12*
X281543750Y-141912500D03*
D10*
%TO.P,K62,2*%
%TO.N,Net-(D62-A)*%
X290353750Y-140652500D03*
D13*
X288403750Y-142332500D03*
D12*
X286543750Y-144012500D03*
%TD*%
D10*
%TO.P,K63,1*%
%TO.N,1*%
X303053750Y-143192500D03*
D11*
X301753750Y-142572500D03*
D12*
X300593750Y-141912500D03*
D10*
%TO.P,K63,2*%
%TO.N,Net-(D63-A)*%
X309403750Y-140652500D03*
D13*
X307453750Y-142332500D03*
D12*
X305593750Y-144012500D03*
%TD*%
D10*
%TO.P,K64,1*%
%TO.N,0*%
X322103750Y-143192500D03*
D11*
X320803750Y-142572500D03*
D12*
X319643750Y-141912500D03*
D10*
%TO.P,K64,2*%
%TO.N,Net-(D64-A)*%
X328453750Y-140652500D03*
D13*
X326503750Y-142332500D03*
D12*
X324643750Y-144012500D03*
%TD*%
D10*
%TO.P,K1,1*%
%TO.N,15*%
X36353750Y-86042500D03*
D11*
X35053750Y-85422500D03*
D12*
X33893750Y-84762500D03*
D10*
%TO.P,K1,2*%
%TO.N,Net-(D1-A)*%
X42703750Y-83502500D03*
D13*
X40753750Y-85182500D03*
D12*
X38893750Y-86862500D03*
%TD*%
D14*
%TO.P,LC1,1*%
%TO.N,GND*%
X39315025Y-73596000D03*
%TO.P,LC1,2*%
%TO.N,+3V3*%
X38345025Y-73596000D03*
%TD*%
D10*
%TO.P,K4,1*%
%TO.N,12*%
X93503750Y-86042500D03*
D11*
X92203750Y-85422500D03*
D12*
X91043750Y-84762500D03*
D10*
%TO.P,K4,2*%
%TO.N,Net-(D4-A)*%
X99853750Y-83502500D03*
D13*
X97903750Y-85182500D03*
D12*
X96043750Y-86862500D03*
%TD*%
D14*
%TO.P,LC3,1*%
%TO.N,GND*%
X77509250Y-73570600D03*
%TO.P,LC3,2*%
%TO.N,+3V3*%
X76539250Y-73570600D03*
%TD*%
D10*
%TO.P,K5,1*%
%TO.N,11*%
X112553750Y-86042500D03*
D11*
X111253750Y-85422500D03*
D12*
X110093750Y-84762500D03*
D10*
%TO.P,K5,2*%
%TO.N,Net-(D5-A)*%
X118903750Y-83502500D03*
D13*
X116953750Y-85182500D03*
D12*
X115093750Y-86862500D03*
%TD*%
D10*
%TO.P,K21,1*%
%TO.N,11*%
X112553750Y-105092500D03*
D11*
X111253750Y-104472500D03*
D12*
X110093750Y-103812500D03*
D10*
%TO.P,K21,2*%
%TO.N,Net-(D21-A)*%
X118903750Y-102552500D03*
D13*
X116953750Y-104232500D03*
D12*
X115093750Y-105912500D03*
%TD*%
D10*
%TO.P,K20,1*%
%TO.N,12*%
X93503750Y-105092500D03*
D11*
X92203750Y-104472500D03*
D12*
X91043750Y-103812500D03*
D10*
%TO.P,K20,2*%
%TO.N,Net-(D20-A)*%
X99853750Y-102552500D03*
D13*
X97903750Y-104232500D03*
D12*
X96043750Y-105912500D03*
%TD*%
D14*
%TO.P,LC10,1*%
%TO.N,GND*%
X210859250Y-73596000D03*
%TO.P,LC10,2*%
%TO.N,+3V3*%
X209889250Y-73596000D03*
%TD*%
%TO.P,LC12,1*%
%TO.N,GND*%
X248959250Y-73596000D03*
%TO.P,LC12,2*%
%TO.N,+3V3*%
X247989250Y-73596000D03*
%TD*%
%TO.P,LC6,1*%
%TO.N,GND*%
X134659250Y-73596000D03*
%TO.P,LC6,2*%
%TO.N,+3V3*%
X133689250Y-73596000D03*
%TD*%
%TO.P,LC8,1*%
%TO.N,GND*%
X172759250Y-73596000D03*
%TO.P,LC8,2*%
%TO.N,+3V3*%
X171789250Y-73596000D03*
%TD*%
%TO.P,LC9,1*%
%TO.N,GND*%
X191809250Y-73596000D03*
%TO.P,LC9,2*%
%TO.N,+3V3*%
X190839250Y-73596000D03*
%TD*%
%TO.P,LC7,1*%
%TO.N,GND*%
X153709250Y-73596000D03*
%TO.P,LC7,2*%
%TO.N,+3V3*%
X152739250Y-73596000D03*
%TD*%
%TO.P,LC5,1*%
%TO.N,GND*%
X115609250Y-73596000D03*
%TO.P,LC5,2*%
%TO.N,+3V3*%
X114639250Y-73596000D03*
%TD*%
%TO.P,LC11,1*%
%TO.N,GND*%
X229909250Y-73596000D03*
%TO.P,LC11,2*%
%TO.N,+3V3*%
X228939250Y-73596000D03*
%TD*%
%TO.P,LC13,1*%
%TO.N,GND*%
X268009250Y-73596000D03*
%TO.P,LC13,2*%
%TO.N,+3V3*%
X267039250Y-73596000D03*
%TD*%
%TO.P,LC4,1*%
%TO.N,GND*%
X96559250Y-73596000D03*
%TO.P,LC4,2*%
%TO.N,+3V3*%
X95589250Y-73596000D03*
%TD*%
%TO.P,LC14,1*%
%TO.N,GND*%
X287059250Y-73596000D03*
%TO.P,LC14,2*%
%TO.N,+3V3*%
X286089250Y-73596000D03*
%TD*%
%TO.P,LC15,1*%
%TO.N,GND*%
X306109250Y-73596000D03*
%TO.P,LC15,2*%
%TO.N,+3V3*%
X305139250Y-73596000D03*
%TD*%
%TO.P,LC16,1*%
%TO.N,GND*%
X325159250Y-73596000D03*
%TO.P,LC16,2*%
%TO.N,+3V3*%
X324189250Y-73596000D03*
%TD*%
%TO.P,LC17,1*%
%TO.N,+3V3*%
X39409250Y-92646000D03*
%TO.P,LC17,2*%
%TO.N,GND*%
X38439250Y-92646000D03*
%TD*%
%TO.P,LC18,1*%
%TO.N,+3V3*%
X58459250Y-92646000D03*
%TO.P,LC18,2*%
%TO.N,GND*%
X57489250Y-92646000D03*
%TD*%
%TO.P,LC19,1*%
%TO.N,+3V3*%
X77509250Y-92646000D03*
%TO.P,LC19,2*%
%TO.N,GND*%
X76539250Y-92646000D03*
%TD*%
%TO.P,LC20,1*%
%TO.N,+3V3*%
X96559250Y-92646000D03*
%TO.P,LC20,2*%
%TO.N,GND*%
X95589250Y-92646000D03*
%TD*%
%TO.P,LC21,1*%
%TO.N,+3V3*%
X115621525Y-92646000D03*
%TO.P,LC21,2*%
%TO.N,GND*%
X114651525Y-92646000D03*
%TD*%
%TO.P,LC22,1*%
%TO.N,+3V3*%
X134659250Y-92646000D03*
%TO.P,LC22,2*%
%TO.N,GND*%
X133689250Y-92646000D03*
%TD*%
%TO.P,LC23,1*%
%TO.N,+3V3*%
X153709250Y-92646000D03*
%TO.P,LC23,2*%
%TO.N,GND*%
X152739250Y-92646000D03*
%TD*%
%TO.P,LC24,1*%
%TO.N,+3V3*%
X172759250Y-92646000D03*
%TO.P,LC24,2*%
%TO.N,GND*%
X171789250Y-92646000D03*
%TD*%
%TO.P,LC25,1*%
%TO.N,+3V3*%
X191878000Y-92646000D03*
%TO.P,LC25,2*%
%TO.N,GND*%
X190908000Y-92646000D03*
%TD*%
%TO.P,LC26,1*%
%TO.N,+3V3*%
X210859250Y-92646000D03*
%TO.P,LC26,2*%
%TO.N,GND*%
X209889250Y-92646000D03*
%TD*%
%TO.P,LC27,1*%
%TO.N,+3V3*%
X229909250Y-92646000D03*
%TO.P,LC27,2*%
%TO.N,GND*%
X228939250Y-92646000D03*
%TD*%
%TO.P,LC28,1*%
%TO.N,+3V3*%
X248959250Y-92646000D03*
%TO.P,LC28,2*%
%TO.N,GND*%
X247989250Y-92646000D03*
%TD*%
%TO.P,LC29,1*%
%TO.N,+3V3*%
X268009250Y-92646000D03*
%TO.P,LC29,2*%
%TO.N,GND*%
X267039250Y-92646000D03*
%TD*%
%TO.P,LC30,1*%
%TO.N,+3V3*%
X287203000Y-92646000D03*
%TO.P,LC30,2*%
%TO.N,GND*%
X286233000Y-92646000D03*
%TD*%
%TO.P,LC31,1*%
%TO.N,+3V3*%
X306109250Y-92646000D03*
%TO.P,LC31,2*%
%TO.N,GND*%
X305139250Y-92646000D03*
%TD*%
%TO.P,LC32,1*%
%TO.N,+3V3*%
X325159250Y-92646000D03*
%TO.P,LC32,2*%
%TO.N,GND*%
X324189250Y-92646000D03*
%TD*%
D15*
%TO.P,LD16,1,DOUT*%
%TO.N,Net-(LD16-DOUT)*%
X325418750Y-76637500D03*
%TO.P,LD16,2,GND*%
%TO.N,GND*%
X325418750Y-75537500D03*
%TO.P,LD16,3,DIN*%
%TO.N,Net-(LD15-DOUT)*%
X323918750Y-75537500D03*
%TO.P,LD16,4,VDD*%
%TO.N,+3V3*%
X323918750Y-76637500D03*
%TD*%
%TO.P,LD17,1,DOUT*%
%TO.N,Net-(LD17-DOUT)*%
X38168750Y-94587500D03*
%TO.P,LD17,2,GND*%
%TO.N,GND*%
X38168750Y-95687500D03*
%TO.P,LD17,3,DIN*%
%TO.N,Net-(LD17-DIN)*%
X39668750Y-95687500D03*
%TO.P,LD17,4,VDD*%
%TO.N,+3V3*%
X39668750Y-94587500D03*
%TD*%
%TO.P,LD18,1,DOUT*%
%TO.N,Net-(LD17-DIN)*%
X57218750Y-94587500D03*
%TO.P,LD18,2,GND*%
%TO.N,GND*%
X57218750Y-95687500D03*
%TO.P,LD18,3,DIN*%
%TO.N,Net-(LD18-DIN)*%
X58718750Y-95687500D03*
%TO.P,LD18,4,VDD*%
%TO.N,+3V3*%
X58718750Y-94587500D03*
%TD*%
%TO.P,LD19,1,DOUT*%
%TO.N,Net-(LD18-DIN)*%
X76268750Y-94587500D03*
%TO.P,LD19,2,GND*%
%TO.N,GND*%
X76268750Y-95687500D03*
%TO.P,LD19,3,DIN*%
%TO.N,Net-(LD19-DIN)*%
X77768750Y-95687500D03*
%TO.P,LD19,4,VDD*%
%TO.N,+3V3*%
X77768750Y-94587500D03*
%TD*%
%TO.P,LD20,1,DOUT*%
%TO.N,Net-(LD19-DIN)*%
X95318750Y-94587500D03*
%TO.P,LD20,2,GND*%
%TO.N,GND*%
X95318750Y-95687500D03*
%TO.P,LD20,3,DIN*%
%TO.N,Net-(LD20-DIN)*%
X96818750Y-95687500D03*
%TO.P,LD20,4,VDD*%
%TO.N,+3V3*%
X96818750Y-94587500D03*
%TD*%
%TO.P,LD21,1,DOUT*%
%TO.N,Net-(LD20-DIN)*%
X114368750Y-94587500D03*
%TO.P,LD21,2,GND*%
%TO.N,GND*%
X114368750Y-95687500D03*
%TO.P,LD21,3,DIN*%
%TO.N,Net-(LD21-DIN)*%
X115868750Y-95687500D03*
%TO.P,LD21,4,VDD*%
%TO.N,+3V3*%
X115868750Y-94587500D03*
%TD*%
%TO.P,LD22,1,DOUT*%
%TO.N,Net-(LD21-DIN)*%
X133418750Y-94587500D03*
%TO.P,LD22,2,GND*%
%TO.N,GND*%
X133418750Y-95687500D03*
%TO.P,LD22,3,DIN*%
%TO.N,Net-(LD22-DIN)*%
X134918750Y-95687500D03*
%TO.P,LD22,4,VDD*%
%TO.N,+3V3*%
X134918750Y-94587500D03*
%TD*%
%TO.P,LD23,1,DOUT*%
%TO.N,Net-(LD22-DIN)*%
X152468750Y-94587500D03*
%TO.P,LD23,2,GND*%
%TO.N,GND*%
X152468750Y-95687500D03*
%TO.P,LD23,3,DIN*%
%TO.N,Net-(LD23-DIN)*%
X153968750Y-95687500D03*
%TO.P,LD23,4,VDD*%
%TO.N,+3V3*%
X153968750Y-94587500D03*
%TD*%
%TO.P,LD24,1,DOUT*%
%TO.N,Net-(LD23-DIN)*%
X171518750Y-94587500D03*
%TO.P,LD24,2,GND*%
%TO.N,GND*%
X171518750Y-95687500D03*
%TO.P,LD24,3,DIN*%
%TO.N,Net-(LD24-DIN)*%
X173018750Y-95687500D03*
%TO.P,LD24,4,VDD*%
%TO.N,+3V3*%
X173018750Y-94587500D03*
%TD*%
%TO.P,LD25,1,DOUT*%
%TO.N,Net-(LD24-DIN)*%
X190568750Y-94587500D03*
%TO.P,LD25,2,GND*%
%TO.N,GND*%
X190568750Y-95687500D03*
%TO.P,LD25,3,DIN*%
%TO.N,Net-(LD25-DIN)*%
X192068750Y-95687500D03*
%TO.P,LD25,4,VDD*%
%TO.N,+3V3*%
X192068750Y-94587500D03*
%TD*%
%TO.P,LD26,1,DOUT*%
%TO.N,Net-(LD25-DIN)*%
X209618750Y-94587500D03*
%TO.P,LD26,2,GND*%
%TO.N,GND*%
X209618750Y-95687500D03*
%TO.P,LD26,3,DIN*%
%TO.N,Net-(LD26-DIN)*%
X211118750Y-95687500D03*
%TO.P,LD26,4,VDD*%
%TO.N,+3V3*%
X211118750Y-94587500D03*
%TD*%
%TO.P,LD27,1,DOUT*%
%TO.N,Net-(LD26-DIN)*%
X228668750Y-94587500D03*
%TO.P,LD27,2,GND*%
%TO.N,GND*%
X228668750Y-95687500D03*
%TO.P,LD27,3,DIN*%
%TO.N,Net-(LD27-DIN)*%
X230168750Y-95687500D03*
%TO.P,LD27,4,VDD*%
%TO.N,+3V3*%
X230168750Y-94587500D03*
%TD*%
%TO.P,LD28,1,DOUT*%
%TO.N,Net-(LD27-DIN)*%
X247718750Y-94587500D03*
%TO.P,LD28,2,GND*%
%TO.N,GND*%
X247718750Y-95687500D03*
%TO.P,LD28,3,DIN*%
%TO.N,Net-(LD28-DIN)*%
X249218750Y-95687500D03*
%TO.P,LD28,4,VDD*%
%TO.N,+3V3*%
X249218750Y-94587500D03*
%TD*%
%TO.P,LD29,1,DOUT*%
%TO.N,Net-(LD28-DIN)*%
X266768750Y-94587500D03*
%TO.P,LD29,2,GND*%
%TO.N,GND*%
X266768750Y-95687500D03*
%TO.P,LD29,3,DIN*%
%TO.N,Net-(LD29-DIN)*%
X268268750Y-95687500D03*
%TO.P,LD29,4,VDD*%
%TO.N,+3V3*%
X268268750Y-94587500D03*
%TD*%
%TO.P,LD30,1,DOUT*%
%TO.N,Net-(LD29-DIN)*%
X285818750Y-94587500D03*
%TO.P,LD30,2,GND*%
%TO.N,GND*%
X285818750Y-95687500D03*
%TO.P,LD30,3,DIN*%
%TO.N,Net-(LD30-DIN)*%
X287318750Y-95687500D03*
%TO.P,LD30,4,VDD*%
%TO.N,+3V3*%
X287318750Y-94587500D03*
%TD*%
%TO.P,LD32,1,DOUT*%
%TO.N,Net-(LD31-DIN)*%
X323918750Y-94587500D03*
%TO.P,LD32,2,GND*%
%TO.N,GND*%
X323918750Y-95687500D03*
%TO.P,LD32,3,DIN*%
%TO.N,Net-(LD16-DOUT)*%
X325418750Y-95687500D03*
%TO.P,LD32,4,VDD*%
%TO.N,+3V3*%
X325418750Y-94587500D03*
%TD*%
%TO.P,LD31,1,DOUT*%
%TO.N,Net-(LD30-DIN)*%
X304868750Y-94587500D03*
%TO.P,LD31,2,GND*%
%TO.N,GND*%
X304868750Y-95687500D03*
%TO.P,LD31,3,DIN*%
%TO.N,Net-(LD31-DIN)*%
X306368750Y-95687500D03*
%TO.P,LD31,4,VDD*%
%TO.N,+3V3*%
X306368750Y-94587500D03*
%TD*%
%TO.P,LD15,1,DOUT*%
%TO.N,Net-(LD15-DOUT)*%
X306368750Y-76637500D03*
%TO.P,LD15,2,GND*%
%TO.N,GND*%
X306368750Y-75537500D03*
%TO.P,LD15,3,DIN*%
%TO.N,Net-(LD14-DOUT)*%
X304868750Y-75537500D03*
%TO.P,LD15,4,VDD*%
%TO.N,+3V3*%
X304868750Y-76637500D03*
%TD*%
%TO.P,LD14,1,DOUT*%
%TO.N,Net-(LD14-DOUT)*%
X287318750Y-76637500D03*
%TO.P,LD14,2,GND*%
%TO.N,GND*%
X287318750Y-75537500D03*
%TO.P,LD14,3,DIN*%
%TO.N,Net-(LD13-DOUT)*%
X285818750Y-75537500D03*
%TO.P,LD14,4,VDD*%
%TO.N,+3V3*%
X285818750Y-76637500D03*
%TD*%
%TO.P,LD12,1,DOUT*%
%TO.N,Net-(LD12-DOUT)*%
X249218750Y-76637500D03*
%TO.P,LD12,2,GND*%
%TO.N,GND*%
X249218750Y-75537500D03*
%TO.P,LD12,3,DIN*%
%TO.N,Net-(LD11-DOUT)*%
X247718750Y-75537500D03*
%TO.P,LD12,4,VDD*%
%TO.N,+3V3*%
X247718750Y-76637500D03*
%TD*%
%TO.P,LD10,1,DOUT*%
%TO.N,Net-(LD10-DOUT)*%
X211118750Y-76637500D03*
%TO.P,LD10,2,GND*%
%TO.N,GND*%
X211118750Y-75537500D03*
%TO.P,LD10,3,DIN*%
%TO.N,Net-(LD10-DIN)*%
X209618750Y-75537500D03*
%TO.P,LD10,4,VDD*%
%TO.N,+3V3*%
X209618750Y-76637500D03*
%TD*%
%TO.P,LD13,1,DOUT*%
%TO.N,Net-(LD13-DOUT)*%
X268268750Y-76637500D03*
%TO.P,LD13,2,GND*%
%TO.N,GND*%
X268268750Y-75537500D03*
%TO.P,LD13,3,DIN*%
%TO.N,Net-(LD12-DOUT)*%
X266768750Y-75537500D03*
%TO.P,LD13,4,VDD*%
%TO.N,+3V3*%
X266768750Y-76637500D03*
%TD*%
%TO.P,LD5,1,DOUT*%
%TO.N,Net-(LD5-DOUT)*%
X115868750Y-76637500D03*
%TO.P,LD5,2,GND*%
%TO.N,GND*%
X115868750Y-75537500D03*
%TO.P,LD5,3,DIN*%
%TO.N,Net-(LD4-DOUT)*%
X114368750Y-75537500D03*
%TO.P,LD5,4,VDD*%
%TO.N,+3V3*%
X114368750Y-76637500D03*
%TD*%
%TO.P,LD11,1,DOUT*%
%TO.N,Net-(LD11-DOUT)*%
X230168750Y-76637500D03*
%TO.P,LD11,2,GND*%
%TO.N,GND*%
X230168750Y-75537500D03*
%TO.P,LD11,3,DIN*%
%TO.N,Net-(LD10-DOUT)*%
X228668750Y-75537500D03*
%TO.P,LD11,4,VDD*%
%TO.N,+3V3*%
X228668750Y-76637500D03*
%TD*%
%TO.P,LD6,1,DOUT*%
%TO.N,Net-(LD6-DOUT)*%
X134918750Y-76637500D03*
%TO.P,LD6,2,GND*%
%TO.N,GND*%
X134918750Y-75537500D03*
%TO.P,LD6,3,DIN*%
%TO.N,Net-(LD5-DOUT)*%
X133418750Y-75537500D03*
%TO.P,LD6,4,VDD*%
%TO.N,+3V3*%
X133418750Y-76637500D03*
%TD*%
%TO.P,LD7,1,DOUT*%
%TO.N,Net-(LD7-DOUT)*%
X153968750Y-76637500D03*
%TO.P,LD7,2,GND*%
%TO.N,GND*%
X153968750Y-75537500D03*
%TO.P,LD7,3,DIN*%
%TO.N,Net-(LD6-DOUT)*%
X152468750Y-75537500D03*
%TO.P,LD7,4,VDD*%
%TO.N,+3V3*%
X152468750Y-76637500D03*
%TD*%
%TO.P,LD8,1,DOUT*%
%TO.N,Net-(LD8-DOUT)*%
X173018750Y-76637500D03*
%TO.P,LD8,2,GND*%
%TO.N,GND*%
X173018750Y-75537500D03*
%TO.P,LD8,3,DIN*%
%TO.N,Net-(LD7-DOUT)*%
X171518750Y-75537500D03*
%TO.P,LD8,4,VDD*%
%TO.N,+3V3*%
X171518750Y-76637500D03*
%TD*%
%TO.P,LD9,1,DOUT*%
%TO.N,Net-(LD10-DIN)*%
X192068750Y-76637500D03*
%TO.P,LD9,2,GND*%
%TO.N,GND*%
X192068750Y-75537500D03*
%TO.P,LD9,3,DIN*%
%TO.N,Net-(LD8-DOUT)*%
X190568750Y-75537500D03*
%TO.P,LD9,4,VDD*%
%TO.N,+3V3*%
X190568750Y-76637500D03*
%TD*%
%TO.P,LD2,1,DOUT*%
%TO.N,Net-(LD2-DOUT)*%
X58718750Y-76637500D03*
%TO.P,LD2,2,GND*%
%TO.N,GND*%
X58718750Y-75537500D03*
%TO.P,LD2,3,DIN*%
%TO.N,Net-(LD1-DOUT)*%
X57218750Y-75537500D03*
%TO.P,LD2,4,VDD*%
%TO.N,+3V3*%
X57218750Y-76637500D03*
%TD*%
%TO.P,LD1,1,DOUT*%
%TO.N,Net-(LD1-DOUT)*%
X39668750Y-76637500D03*
%TO.P,LD1,2,GND*%
%TO.N,GND*%
X39668750Y-75537500D03*
%TO.P,LD1,3,DIN*%
%TO.N,27{slash}A1*%
X38168750Y-75537500D03*
%TO.P,LD1,4,VDD*%
%TO.N,+3V3*%
X38168750Y-76637500D03*
%TD*%
%TO.P,LD3,1,DOUT*%
%TO.N,Net-(LD3-DOUT)*%
X77768750Y-76612100D03*
%TO.P,LD3,2,GND*%
%TO.N,GND*%
X77768750Y-75512100D03*
%TO.P,LD3,3,DIN*%
%TO.N,Net-(LD2-DOUT)*%
X76268750Y-75512100D03*
%TO.P,LD3,4,VDD*%
%TO.N,+3V3*%
X76268750Y-76612100D03*
%TD*%
%TO.P,LD4,1,DOUT*%
%TO.N,Net-(LD4-DOUT)*%
X96818750Y-76637500D03*
%TO.P,LD4,2,GND*%
%TO.N,GND*%
X96818750Y-75537500D03*
%TO.P,LD4,3,DIN*%
%TO.N,Net-(LD3-DOUT)*%
X95318750Y-75537500D03*
%TO.P,LD4,4,VDD*%
%TO.N,+3V3*%
X95318750Y-76637500D03*
%TD*%
D14*
%TO.P,LC2,1*%
%TO.N,GND*%
X58459250Y-73596000D03*
%TO.P,LC2,2*%
%TO.N,+3V3*%
X57489250Y-73596000D03*
%TD*%
D15*
%TO.P,LD56,1,DOUT*%
%TO.N,Net-(LD55-DIN)*%
X171518750Y-132887500D03*
%TO.P,LD56,2,GND*%
%TO.N,GND*%
X171518750Y-133987500D03*
%TO.P,LD56,3,DIN*%
%TO.N,Net-(LD56-DIN)*%
X173018750Y-133987500D03*
%TO.P,LD56,4,VDD*%
%TO.N,+3V3*%
X173018750Y-132887500D03*
%TD*%
%TO.P,LD54,1,DOUT*%
%TO.N,Net-(LD53-DIN)*%
X133418750Y-132887500D03*
%TO.P,LD54,2,GND*%
%TO.N,GND*%
X133418750Y-133987500D03*
%TO.P,LD54,3,DIN*%
%TO.N,Net-(LD54-DIN)*%
X134918750Y-133987500D03*
%TO.P,LD54,4,VDD*%
%TO.N,+3V3*%
X134918750Y-132887500D03*
%TD*%
D14*
%TO.P,LC36,1*%
%TO.N,GND*%
X96553750Y-111737500D03*
%TO.P,LC36,2*%
%TO.N,+3V3*%
X95583750Y-111737500D03*
%TD*%
D15*
%TO.P,LD43,1,DOUT*%
%TO.N,Net-(LD43-DOUT)*%
X230168750Y-114737500D03*
%TO.P,LD43,2,GND*%
%TO.N,GND*%
X230168750Y-113637500D03*
%TO.P,LD43,3,DIN*%
%TO.N,Net-(LD42-DOUT)*%
X228668750Y-113637500D03*
%TO.P,LD43,4,VDD*%
%TO.N,+3V3*%
X228668750Y-114737500D03*
%TD*%
%TO.P,LD47,1,DOUT*%
%TO.N,Net-(LD47-DOUT)*%
X306368750Y-114737500D03*
%TO.P,LD47,2,GND*%
%TO.N,GND*%
X306368750Y-113637500D03*
%TO.P,LD47,3,DIN*%
%TO.N,Net-(LD46-DOUT)*%
X304868750Y-113637500D03*
%TO.P,LD47,4,VDD*%
%TO.N,+3V3*%
X304868750Y-114737500D03*
%TD*%
%TO.P,LD46,1,DOUT*%
%TO.N,Net-(LD46-DOUT)*%
X287318750Y-114737500D03*
%TO.P,LD46,2,GND*%
%TO.N,GND*%
X287318750Y-113637500D03*
%TO.P,LD46,3,DIN*%
%TO.N,Net-(LD45-DOUT)*%
X285818750Y-113637500D03*
%TO.P,LD46,4,VDD*%
%TO.N,+3V3*%
X285818750Y-114737500D03*
%TD*%
%TO.P,LD60,1,DOUT*%
%TO.N,Net-(LD59-DIN)*%
X247718750Y-132887500D03*
%TO.P,LD60,2,GND*%
%TO.N,GND*%
X247718750Y-133987500D03*
%TO.P,LD60,3,DIN*%
%TO.N,Net-(LD60-DIN)*%
X249218750Y-133987500D03*
%TO.P,LD60,4,VDD*%
%TO.N,+3V3*%
X249218750Y-132887500D03*
%TD*%
%TO.P,LD61,1,DOUT*%
%TO.N,Net-(LD60-DIN)*%
X266768750Y-132887500D03*
%TO.P,LD61,2,GND*%
%TO.N,GND*%
X266768750Y-133987500D03*
%TO.P,LD61,3,DIN*%
%TO.N,Net-(LD61-DIN)*%
X268268750Y-133987500D03*
%TO.P,LD61,4,VDD*%
%TO.N,+3V3*%
X268268750Y-132887500D03*
%TD*%
%TO.P,LD36,1,DOUT*%
%TO.N,Net-(LD36-DOUT)*%
X96818750Y-114737500D03*
%TO.P,LD36,2,GND*%
%TO.N,GND*%
X96818750Y-113637500D03*
%TO.P,LD36,3,DIN*%
%TO.N,Net-(LD35-DOUT)*%
X95318750Y-113637500D03*
%TO.P,LD36,4,VDD*%
%TO.N,+3V3*%
X95318750Y-114737500D03*
%TD*%
%TO.P,LD57,1,DOUT*%
%TO.N,Net-(LD56-DIN)*%
X190568750Y-132887500D03*
%TO.P,LD57,2,GND*%
%TO.N,GND*%
X190568750Y-133987500D03*
%TO.P,LD57,3,DIN*%
%TO.N,Net-(LD57-DIN)*%
X192068750Y-133987500D03*
%TO.P,LD57,4,VDD*%
%TO.N,+3V3*%
X192068750Y-132887500D03*
%TD*%
D14*
%TO.P,LC61,1*%
%TO.N,+3V3*%
X268003750Y-130787500D03*
%TO.P,LC61,2*%
%TO.N,GND*%
X267033750Y-130787500D03*
%TD*%
%TO.P,LC64,1*%
%TO.N,+3V3*%
X325153750Y-130787500D03*
%TO.P,LC64,2*%
%TO.N,GND*%
X324183750Y-130787500D03*
%TD*%
%TO.P,LC39,1*%
%TO.N,GND*%
X153703750Y-111737500D03*
%TO.P,LC39,2*%
%TO.N,+3V3*%
X152733750Y-111737500D03*
%TD*%
D15*
%TO.P,LD55,1,DOUT*%
%TO.N,Net-(LD54-DIN)*%
X152468750Y-132887500D03*
%TO.P,LD55,2,GND*%
%TO.N,GND*%
X152468750Y-133987500D03*
%TO.P,LD55,3,DIN*%
%TO.N,Net-(LD55-DIN)*%
X153968750Y-133987500D03*
%TO.P,LD55,4,VDD*%
%TO.N,+3V3*%
X153968750Y-132887500D03*
%TD*%
%TO.P,LD64,1,DOUT*%
%TO.N,Net-(LD63-DIN)*%
X323918750Y-132887500D03*
%TO.P,LD64,2,GND*%
%TO.N,GND*%
X323918750Y-133987500D03*
%TO.P,LD64,3,DIN*%
%TO.N,Net-(LD48-DOUT)*%
X325418750Y-133987500D03*
%TO.P,LD64,4,VDD*%
%TO.N,+3V3*%
X325418750Y-132887500D03*
%TD*%
D14*
%TO.P,LC52,1*%
%TO.N,+3V3*%
X96553750Y-130787500D03*
%TO.P,LC52,2*%
%TO.N,GND*%
X95583750Y-130787500D03*
%TD*%
D15*
%TO.P,LD53,1,DOUT*%
%TO.N,Net-(LD52-DIN)*%
X114368750Y-132887500D03*
%TO.P,LD53,2,GND*%
%TO.N,GND*%
X114368750Y-133987500D03*
%TO.P,LD53,3,DIN*%
%TO.N,Net-(LD53-DIN)*%
X115868750Y-133987500D03*
%TO.P,LD53,4,VDD*%
%TO.N,+3V3*%
X115868750Y-132887500D03*
%TD*%
D14*
%TO.P,LC45,1*%
%TO.N,GND*%
X268003750Y-111737500D03*
%TO.P,LC45,2*%
%TO.N,+3V3*%
X267033750Y-111737500D03*
%TD*%
D15*
%TO.P,LD38,1,DOUT*%
%TO.N,Net-(LD38-DOUT)*%
X134918750Y-114737500D03*
%TO.P,LD38,2,GND*%
%TO.N,GND*%
X134918750Y-113637500D03*
%TO.P,LD38,3,DIN*%
%TO.N,Net-(LD37-DOUT)*%
X133418750Y-113637500D03*
%TO.P,LD38,4,VDD*%
%TO.N,+3V3*%
X133418750Y-114737500D03*
%TD*%
%TO.P,LD42,1,DOUT*%
%TO.N,Net-(LD42-DOUT)*%
X211118750Y-114737500D03*
%TO.P,LD42,2,GND*%
%TO.N,GND*%
X211118750Y-113637500D03*
%TO.P,LD42,3,DIN*%
%TO.N,Net-(LD41-DOUT)*%
X209618750Y-113637500D03*
%TO.P,LD42,4,VDD*%
%TO.N,+3V3*%
X209618750Y-114737500D03*
%TD*%
D14*
%TO.P,LC35,1*%
%TO.N,GND*%
X77503750Y-111737500D03*
%TO.P,LC35,2*%
%TO.N,+3V3*%
X76533750Y-111737500D03*
%TD*%
D10*
%TO.P,K54.1,1*%
%TO.N,10*%
X146208750Y-133032500D03*
D16*
X147508750Y-133652500D03*
D12*
X148668750Y-134312500D03*
D10*
%TO.P,K54.1,2*%
%TO.N,Net-(D54-A)*%
X139858750Y-135572500D03*
D17*
X141808750Y-133892500D03*
D12*
X143668750Y-132212500D03*
%TD*%
D14*
%TO.P,LC48,1*%
%TO.N,GND*%
X325153750Y-111737500D03*
%TO.P,LC48,2*%
%TO.N,+3V3*%
X324183750Y-111737500D03*
%TD*%
%TO.P,LC34,1*%
%TO.N,GND*%
X58428750Y-111725000D03*
%TO.P,LC34,2*%
%TO.N,+3V3*%
X57458750Y-111725000D03*
%TD*%
D15*
%TO.P,LD58,1,DOUT*%
%TO.N,Net-(LD57-DIN)*%
X209618750Y-132887500D03*
%TO.P,LD58,2,GND*%
%TO.N,GND*%
X209618750Y-133987500D03*
%TO.P,LD58,3,DIN*%
%TO.N,Net-(LD58-DIN)*%
X211118750Y-133987500D03*
%TO.P,LD58,4,VDD*%
%TO.N,+3V3*%
X211118750Y-132887500D03*
%TD*%
%TO.P,LD59,1,DOUT*%
%TO.N,Net-(LD58-DIN)*%
X228668750Y-132887500D03*
%TO.P,LD59,2,GND*%
%TO.N,GND*%
X228668750Y-133987500D03*
%TO.P,LD59,3,DIN*%
%TO.N,Net-(LD59-DIN)*%
X230168750Y-133987500D03*
%TO.P,LD59,4,VDD*%
%TO.N,+3V3*%
X230168750Y-132887500D03*
%TD*%
D14*
%TO.P,LC42,1*%
%TO.N,GND*%
X210853750Y-111737500D03*
%TO.P,LC42,2*%
%TO.N,+3V3*%
X209883750Y-111737500D03*
%TD*%
%TO.P,LC59,1*%
%TO.N,+3V3*%
X229903750Y-130787500D03*
%TO.P,LC59,2*%
%TO.N,GND*%
X228933750Y-130787500D03*
%TD*%
%TO.P,LC57,1*%
%TO.N,+3V3*%
X191803750Y-130787500D03*
%TO.P,LC57,2*%
%TO.N,GND*%
X190833750Y-130787500D03*
%TD*%
%TO.P,LC49,1*%
%TO.N,+3V3*%
X39403750Y-130787500D03*
%TO.P,LC49,2*%
%TO.N,GND*%
X38433750Y-130787500D03*
%TD*%
D15*
%TO.P,LD40,1,DOUT*%
%TO.N,Net-(LD40-DOUT)*%
X173018750Y-114737500D03*
%TO.P,LD40,2,GND*%
%TO.N,GND*%
X173018750Y-113637500D03*
%TO.P,LD40,3,DIN*%
%TO.N,Net-(LD39-DOUT)*%
X171518750Y-113637500D03*
%TO.P,LD40,4,VDD*%
%TO.N,+3V3*%
X171518750Y-114737500D03*
%TD*%
D14*
%TO.P,LC43,1*%
%TO.N,GND*%
X229903750Y-111737500D03*
%TO.P,LC43,2*%
%TO.N,+3V3*%
X228933750Y-111737500D03*
%TD*%
D15*
%TO.P,LD44,1,DOUT*%
%TO.N,Net-(LD44-DOUT)*%
X249218750Y-114737500D03*
%TO.P,LD44,2,GND*%
%TO.N,GND*%
X249218750Y-113637500D03*
%TO.P,LD44,3,DIN*%
%TO.N,Net-(LD43-DOUT)*%
X247718750Y-113637500D03*
%TO.P,LD44,4,VDD*%
%TO.N,+3V3*%
X247718750Y-114737500D03*
%TD*%
%TO.P,LD34,1,DOUT*%
%TO.N,Net-(LD34-DOUT)*%
X58718750Y-114737500D03*
%TO.P,LD34,2,GND*%
%TO.N,GND*%
X58718750Y-113637500D03*
%TO.P,LD34,3,DIN*%
%TO.N,Net-(LD33-DOUT)*%
X57218750Y-113637500D03*
%TO.P,LD34,4,VDD*%
%TO.N,+3V3*%
X57218750Y-114737500D03*
%TD*%
D14*
%TO.P,LC41,1*%
%TO.N,GND*%
X191803750Y-111737500D03*
%TO.P,LC41,2*%
%TO.N,+3V3*%
X190833750Y-111737500D03*
%TD*%
D15*
%TO.P,LD62,1,DOUT*%
%TO.N,Net-(LD61-DIN)*%
X285818750Y-132887500D03*
%TO.P,LD62,2,GND*%
%TO.N,GND*%
X285818750Y-133987500D03*
%TO.P,LD62,3,DIN*%
%TO.N,Net-(LD62-DIN)*%
X287318750Y-133987500D03*
%TO.P,LD62,4,VDD*%
%TO.N,+3V3*%
X287318750Y-132887500D03*
%TD*%
%TO.P,LD49,1,DOUT*%
%TO.N,unconnected-(LD49-DOUT-Pad1)*%
X38168750Y-132887500D03*
%TO.P,LD49,2,GND*%
%TO.N,GND*%
X38168750Y-133987500D03*
%TO.P,LD49,3,DIN*%
%TO.N,Net-(LD49-DIN)*%
X39668750Y-133987500D03*
%TO.P,LD49,4,VDD*%
%TO.N,+3V3*%
X39668750Y-132887500D03*
%TD*%
%TO.P,LD35,1,DOUT*%
%TO.N,Net-(LD35-DOUT)*%
X77768750Y-114737500D03*
%TO.P,LD35,2,GND*%
%TO.N,GND*%
X77768750Y-113637500D03*
%TO.P,LD35,3,DIN*%
%TO.N,Net-(LD34-DOUT)*%
X76268750Y-113637500D03*
%TO.P,LD35,4,VDD*%
%TO.N,+3V3*%
X76268750Y-114737500D03*
%TD*%
D14*
%TO.P,LC55,1*%
%TO.N,+3V3*%
X153703750Y-130787500D03*
%TO.P,LC55,2*%
%TO.N,GND*%
X152733750Y-130787500D03*
%TD*%
D15*
%TO.P,LD37,1,DOUT*%
%TO.N,Net-(LD37-DOUT)*%
X115868750Y-114737500D03*
%TO.P,LD37,2,GND*%
%TO.N,GND*%
X115868750Y-113637500D03*
%TO.P,LD37,3,DIN*%
%TO.N,Net-(LD36-DOUT)*%
X114368750Y-113637500D03*
%TO.P,LD37,4,VDD*%
%TO.N,+3V3*%
X114368750Y-114737500D03*
%TD*%
%TO.P,LD51,1,DOUT*%
%TO.N,Net-(LD50-DIN)*%
X76268750Y-132887500D03*
%TO.P,LD51,2,GND*%
%TO.N,GND*%
X76268750Y-133987500D03*
%TO.P,LD51,3,DIN*%
%TO.N,Net-(LD51-DIN)*%
X77768750Y-133987500D03*
%TO.P,LD51,4,VDD*%
%TO.N,+3V3*%
X77768750Y-132887500D03*
%TD*%
D14*
%TO.P,LC62,1*%
%TO.N,+3V3*%
X287053750Y-130787500D03*
%TO.P,LC62,2*%
%TO.N,GND*%
X286083750Y-130787500D03*
%TD*%
%TO.P,LC58,1*%
%TO.N,+3V3*%
X210788750Y-130787500D03*
%TO.P,LC58,2*%
%TO.N,GND*%
X209818750Y-130787500D03*
%TD*%
%TO.P,LC53,1*%
%TO.N,+3V3*%
X115603750Y-130787500D03*
%TO.P,LC53,2*%
%TO.N,GND*%
X114633750Y-130787500D03*
%TD*%
D15*
%TO.P,LD45,1,DOUT*%
%TO.N,Net-(LD45-DOUT)*%
X268268750Y-114737500D03*
%TO.P,LD45,2,GND*%
%TO.N,GND*%
X268268750Y-113637500D03*
%TO.P,LD45,3,DIN*%
%TO.N,Net-(LD44-DOUT)*%
X266768750Y-113637500D03*
%TO.P,LD45,4,VDD*%
%TO.N,+3V3*%
X266768750Y-114737500D03*
%TD*%
%TO.P,LD50,1,DOUT*%
%TO.N,Net-(LD49-DIN)*%
X57218750Y-132887500D03*
%TO.P,LD50,2,GND*%
%TO.N,GND*%
X57218750Y-133987500D03*
%TO.P,LD50,3,DIN*%
%TO.N,Net-(LD50-DIN)*%
X58718750Y-133987500D03*
%TO.P,LD50,4,VDD*%
%TO.N,+3V3*%
X58718750Y-132887500D03*
%TD*%
D14*
%TO.P,LC33,1*%
%TO.N,GND*%
X39328750Y-111725000D03*
%TO.P,LC33,2*%
%TO.N,+3V3*%
X38358750Y-111725000D03*
%TD*%
%TO.P,LC54,1*%
%TO.N,+3V3*%
X134653750Y-130787500D03*
%TO.P,LC54,2*%
%TO.N,GND*%
X133683750Y-130787500D03*
%TD*%
%TO.P,LC44,1*%
%TO.N,GND*%
X248953750Y-111737500D03*
%TO.P,LC44,2*%
%TO.N,+3V3*%
X247983750Y-111737500D03*
%TD*%
D15*
%TO.P,LD48,1,DOUT*%
%TO.N,Net-(LD48-DOUT)*%
X325418750Y-114737500D03*
%TO.P,LD48,2,GND*%
%TO.N,GND*%
X325418750Y-113637500D03*
%TO.P,LD48,3,DIN*%
%TO.N,Net-(LD47-DOUT)*%
X323918750Y-113637500D03*
%TO.P,LD48,4,VDD*%
%TO.N,+3V3*%
X323918750Y-114737500D03*
%TD*%
%TO.P,LD39,1,DOUT*%
%TO.N,Net-(LD39-DOUT)*%
X153968750Y-114737500D03*
%TO.P,LD39,2,GND*%
%TO.N,GND*%
X153968750Y-113637500D03*
%TO.P,LD39,3,DIN*%
%TO.N,Net-(LD38-DOUT)*%
X152468750Y-113637500D03*
%TO.P,LD39,4,VDD*%
%TO.N,+3V3*%
X152468750Y-114737500D03*
%TD*%
%TO.P,LD33,1,DOUT*%
%TO.N,Net-(LD33-DOUT)*%
X39668750Y-114737500D03*
%TO.P,LD33,2,GND*%
%TO.N,GND*%
X39668750Y-113637500D03*
%TO.P,LD33,3,DIN*%
%TO.N,Net-(LD17-DOUT)*%
X38168750Y-113637500D03*
%TO.P,LD33,4,VDD*%
%TO.N,+3V3*%
X38168750Y-114737500D03*
%TD*%
D14*
%TO.P,LC50,1*%
%TO.N,+3V3*%
X58453750Y-130787500D03*
%TO.P,LC50,2*%
%TO.N,GND*%
X57483750Y-130787500D03*
%TD*%
D10*
%TO.P,K58.1,1*%
%TO.N,6*%
X222408750Y-133032500D03*
D16*
X223708750Y-133652500D03*
D12*
X224868750Y-134312500D03*
D10*
%TO.P,K58.1,2*%
%TO.N,Net-(D58-A)*%
X216058750Y-135572500D03*
D17*
X218008750Y-133892500D03*
D12*
X219868750Y-132212500D03*
%TD*%
D14*
%TO.P,LC51,1*%
%TO.N,+3V3*%
X77503750Y-130787500D03*
%TO.P,LC51,2*%
%TO.N,GND*%
X76533750Y-130787500D03*
%TD*%
%TO.P,LC46,1*%
%TO.N,GND*%
X287053750Y-111737500D03*
%TO.P,LC46,2*%
%TO.N,+3V3*%
X286083750Y-111737500D03*
%TD*%
D15*
%TO.P,LD41,1,DOUT*%
%TO.N,Net-(LD41-DOUT)*%
X192068750Y-114737500D03*
%TO.P,LD41,2,GND*%
%TO.N,GND*%
X192068750Y-113637500D03*
%TO.P,LD41,3,DIN*%
%TO.N,Net-(LD40-DOUT)*%
X190568750Y-113637500D03*
%TO.P,LD41,4,VDD*%
%TO.N,+3V3*%
X190568750Y-114737500D03*
%TD*%
D14*
%TO.P,LC63,1*%
%TO.N,+3V3*%
X306103750Y-130787500D03*
%TO.P,LC63,2*%
%TO.N,GND*%
X305133750Y-130787500D03*
%TD*%
%TO.P,LC56,1*%
%TO.N,+3V3*%
X172753750Y-130787500D03*
%TO.P,LC56,2*%
%TO.N,GND*%
X171783750Y-130787500D03*
%TD*%
%TO.P,LC37,1*%
%TO.N,GND*%
X115553750Y-111737500D03*
%TO.P,LC37,2*%
%TO.N,+3V3*%
X114583750Y-111737500D03*
%TD*%
%TO.P,LC60,1*%
%TO.N,+3V3*%
X248953750Y-130787500D03*
%TO.P,LC60,2*%
%TO.N,GND*%
X247983750Y-130787500D03*
%TD*%
D15*
%TO.P,LD63,1,DOUT*%
%TO.N,Net-(LD62-DIN)*%
X304868750Y-132887500D03*
%TO.P,LD63,2,GND*%
%TO.N,GND*%
X304868750Y-133987500D03*
%TO.P,LD63,3,DIN*%
%TO.N,Net-(LD63-DIN)*%
X306368750Y-133987500D03*
%TO.P,LD63,4,VDD*%
%TO.N,+3V3*%
X306368750Y-132887500D03*
%TD*%
D14*
%TO.P,LC40,1*%
%TO.N,GND*%
X172753750Y-111737500D03*
%TO.P,LC40,2*%
%TO.N,+3V3*%
X171783750Y-111737500D03*
%TD*%
%TO.P,LC47,1*%
%TO.N,GND*%
X306103750Y-111737500D03*
%TO.P,LC47,2*%
%TO.N,+3V3*%
X305133750Y-111737500D03*
%TD*%
%TO.P,LC38,1*%
%TO.N,GND*%
X134653750Y-111737500D03*
%TO.P,LC38,2*%
%TO.N,+3V3*%
X133683750Y-111737500D03*
%TD*%
D15*
%TO.P,LD52,1,DOUT*%
%TO.N,Net-(LD51-DIN)*%
X95318750Y-132887500D03*
%TO.P,LD52,2,GND*%
%TO.N,GND*%
X95318750Y-133987500D03*
%TO.P,LD52,3,DIN*%
%TO.N,Net-(LD52-DIN)*%
X96818750Y-133987500D03*
%TO.P,LD52,4,VDD*%
%TO.N,+3V3*%
X96818750Y-132887500D03*
%TD*%
D18*
%TO.P,J0,S1,SHIELD*%
%TO.N,GND*%
X46548750Y-72587500D03*
D19*
X46548750Y-76767500D03*
D18*
X55188750Y-72587500D03*
D19*
X55188750Y-76767500D03*
%TD*%
D20*
%TO.P,J2,1,Pin_1*%
%TO.N,GND*%
X31268750Y-84417500D03*
D21*
%TO.P,J2,2,Pin_2*%
%TO.N,22*%
X31268750Y-86957500D03*
%TO.P,J2,3,Pin_3*%
%TO.N,21*%
X31268750Y-89497500D03*
%TO.P,J2,4,Pin_4*%
%TO.N,20*%
X31268750Y-92037500D03*
%TO.P,J2,5,Pin_5*%
%TO.N,19*%
X31268750Y-94577500D03*
%TO.P,J2,6,Pin_6*%
%TO.N,18*%
X31268750Y-97117500D03*
%TD*%
D22*
%TO.N,GND*%
X49968750Y-86637500D03*
X39668750Y-74387500D03*
X49968750Y-100637500D03*
X39768750Y-112487500D03*
X192168750Y-74387500D03*
X154018750Y-112537500D03*
X287418750Y-112487500D03*
X49968750Y-87737500D03*
X46968750Y-101737500D03*
D23*
X190918750Y-91587500D03*
D22*
X86868750Y-74837500D03*
D23*
X84268750Y-97912500D03*
D22*
X135018750Y-112487500D03*
X96868750Y-74387500D03*
X267518750Y-132037500D03*
X306468750Y-112487500D03*
D23*
X89498750Y-97887500D03*
X52872684Y-79342810D03*
D22*
X96918750Y-112487500D03*
X287418750Y-74287500D03*
X324668750Y-131987500D03*
X86518750Y-90487500D03*
X230268750Y-112537500D03*
X249318750Y-112387500D03*
X211218750Y-112487500D03*
X46968750Y-86637500D03*
D23*
X90168750Y-111337500D03*
D22*
X286518750Y-93787500D03*
D23*
X86768750Y-100437500D03*
D22*
X154018750Y-74387500D03*
X57918750Y-93687500D03*
D23*
X45857169Y-81624178D03*
X48368750Y-84137500D03*
X65968750Y-73862500D03*
D22*
X49968750Y-88837500D03*
X49968750Y-101737500D03*
D23*
X86868750Y-83037500D03*
D22*
X192168750Y-112537500D03*
D23*
X267018750Y-91687500D03*
D22*
X57918750Y-132037500D03*
X173068750Y-112437500D03*
X135018750Y-74437500D03*
X58818750Y-112487500D03*
X153218750Y-132087500D03*
D23*
X94203250Y-91637500D03*
X66428750Y-111337500D03*
D22*
X49968750Y-102837500D03*
X305518750Y-93787500D03*
X115068750Y-93787500D03*
X134118750Y-132087500D03*
X305618750Y-132037500D03*
X249318750Y-74287500D03*
X191268750Y-132037500D03*
X134118750Y-93787500D03*
D23*
X171768750Y-91687500D03*
X152718750Y-91787500D03*
D22*
X230218750Y-74337500D03*
X210318750Y-132037500D03*
X306468750Y-74337500D03*
D23*
X78518750Y-91837000D03*
D22*
X115068750Y-132037500D03*
D23*
X102518750Y-111437500D03*
D22*
X46968750Y-102837500D03*
X115968750Y-74437500D03*
X38868750Y-93737500D03*
D23*
X209868750Y-91687500D03*
D22*
X58868750Y-74387500D03*
X48468750Y-92337500D03*
X77868750Y-112487500D03*
X115968750Y-112487500D03*
X38868750Y-132037500D03*
D23*
X83693000Y-83137500D03*
X76268750Y-96487500D03*
D22*
X86868750Y-76237500D03*
X76918750Y-132087500D03*
X229418750Y-132037500D03*
X173068750Y-74387500D03*
X286518750Y-132037500D03*
X86868750Y-77637500D03*
X248468750Y-132037500D03*
X96018750Y-132087500D03*
X46968750Y-87737500D03*
X46968750Y-88837500D03*
X325518750Y-74437500D03*
D23*
X247989250Y-91687500D03*
D22*
X325518750Y-112587500D03*
X268418750Y-74387500D03*
D23*
X80868750Y-86637500D03*
D22*
X268418750Y-112437500D03*
X77868750Y-74387500D03*
X172268750Y-131987500D03*
D23*
X90394290Y-86298816D03*
D22*
X46968750Y-100637500D03*
X211218750Y-74387500D03*
D23*
X228918750Y-91737500D03*
D22*
X324618750Y-93787500D03*
X95968750Y-93787500D03*
%TO.N,~{RESET}*%
X94268750Y-106747500D03*
X96458750Y-109227500D03*
%TO.N,DB+*%
X69868750Y-79287500D03*
X49268750Y-84137500D03*
X64818750Y-79287500D03*
X54468750Y-82737500D03*
%TO.N,DB-*%
X69968750Y-80087500D03*
X47468750Y-84137500D03*
X64768750Y-80087500D03*
X54868750Y-83437500D03*
%TO.N,0*%
X322093750Y-92762500D03*
%TO.N,1*%
X303053750Y-93112500D03*
%TO.N,2*%
X284003750Y-93487500D03*
%TO.N,3*%
X264953750Y-93837500D03*
%TO.N,4*%
X245903750Y-94187500D03*
%TO.N,5*%
X226853750Y-94537500D03*
%TO.N,6*%
X207803750Y-94937500D03*
%TO.N,7*%
X188753750Y-95287500D03*
%TO.N,8*%
X169703750Y-95637500D03*
%TO.N,9*%
X150653750Y-95987500D03*
%TO.N,10*%
X146118750Y-127887500D03*
X131618750Y-127637500D03*
X131603750Y-92587500D03*
%TO.N,11*%
X112553750Y-92937500D03*
%TO.N,12*%
X93503750Y-93987500D03*
%TO.N,13*%
X89248750Y-94857500D03*
%TO.N,14*%
X75118750Y-89737997D03*
X89818750Y-95487500D03*
X73768750Y-89710389D03*
%TO.N,15*%
X56068750Y-89237500D03*
X89199718Y-96072857D03*
X54768750Y-89227500D03*
X73818750Y-90587500D03*
X75061000Y-90545250D03*
%TO.N,18*%
X43068750Y-92037500D03*
X51318750Y-93087500D03*
%TO.N,19*%
X50748660Y-92330130D03*
X43668750Y-91437500D03*
%TO.N,20*%
X44368750Y-90937500D03*
X51368750Y-91615823D03*
%TO.N,23*%
X70525000Y-93356250D03*
X70525000Y-95981250D03*
X67768750Y-107987500D03*
X65318750Y-126987500D03*
X68173775Y-106737500D03*
X66868750Y-125787500D03*
%TO.N,24*%
X67068750Y-106737500D03*
X66868750Y-107987500D03*
X69681250Y-93356250D03*
X69681250Y-95981250D03*
%TO.N,26{slash}A0*%
X51168750Y-88437500D03*
X45768750Y-88337500D03*
X78368750Y-88437500D03*
X79868750Y-88337500D03*
X83993750Y-89387500D03*
X92880971Y-87699721D03*
X76768750Y-89637500D03*
%TO.N,27{slash}A1*%
X55318750Y-78687500D03*
%TO.N,+3V3*%
X229918750Y-91737500D03*
X84058750Y-87887500D03*
X47968750Y-102737500D03*
X306418750Y-93587500D03*
X115068750Y-74787500D03*
X248418750Y-112737500D03*
X39768750Y-93387500D03*
X287418750Y-131687500D03*
X76968750Y-74737500D03*
X286518750Y-74637500D03*
X153118750Y-112887500D03*
X135018750Y-93437500D03*
X47968750Y-100637500D03*
X154118750Y-131737500D03*
X96918750Y-131737500D03*
X77818750Y-131737500D03*
X210868750Y-91687500D03*
X38768750Y-74737500D03*
X248268750Y-74637500D03*
X248959250Y-91687500D03*
X48968750Y-102737500D03*
X268418750Y-131687500D03*
X58818750Y-131687500D03*
X134118750Y-112837500D03*
X85728750Y-87967500D03*
X83668750Y-73837500D03*
X48968750Y-99437500D03*
X306518750Y-131687500D03*
X66968750Y-74437500D03*
X96868750Y-93437500D03*
X172168750Y-112787500D03*
X153118750Y-74737500D03*
X325568750Y-131637500D03*
X76968750Y-112837500D03*
X38868750Y-112837500D03*
X48968750Y-101637500D03*
X115968750Y-131687500D03*
X325518750Y-93437500D03*
X57968750Y-74737500D03*
X192168750Y-131687500D03*
X39768750Y-131687500D03*
X95968750Y-74737500D03*
X324618750Y-112937500D03*
X135018750Y-131737500D03*
X58818750Y-93337500D03*
X229368750Y-112887500D03*
X172168750Y-74737500D03*
X96558750Y-110227500D03*
X287418750Y-93587500D03*
X57918750Y-112837500D03*
X229318750Y-74687500D03*
X324618750Y-74787500D03*
X89138750Y-91487500D03*
X48968750Y-100637500D03*
X305568750Y-112837500D03*
X249368750Y-131687500D03*
X230318750Y-131687500D03*
X96018750Y-112837500D03*
X134118750Y-74787500D03*
X286518750Y-112837500D03*
X88668750Y-87987500D03*
X267468750Y-74687500D03*
X47968750Y-101637500D03*
X210318750Y-74737500D03*
X115068750Y-112837500D03*
X210318750Y-112837500D03*
X211218750Y-131687500D03*
X173168750Y-131637500D03*
X305418750Y-74687500D03*
X267518750Y-112787500D03*
X78668750Y-94537500D03*
X172768750Y-91737500D03*
X191868750Y-91637500D03*
X153718750Y-91787500D03*
X84068750Y-91637500D03*
X191268750Y-112887500D03*
X86718750Y-92637500D03*
X115968750Y-93437500D03*
X268018750Y-91687500D03*
X47968750Y-99437500D03*
X191268750Y-74737500D03*
%TO.N,25*%
X68837500Y-95981250D03*
X68837500Y-93356250D03*
%TO.N,17*%
X81368750Y-108037500D03*
X81368750Y-106687500D03*
%TO.N,16*%
X82358750Y-108027500D03*
X82368750Y-106687500D03*
%TO.N,21*%
X44968750Y-90337500D03*
X50771543Y-90860593D03*
%TO.N,22*%
X51368750Y-90137500D03*
X45568750Y-89675933D03*
%TO.N,Net-(LD17-DOUT)*%
X37168750Y-94637500D03*
X35568750Y-94637500D03*
X37168750Y-113637500D03*
X35568750Y-113637500D03*
%TO.N,Net-(LD17-DIN)*%
X54568750Y-94637500D03*
X56168750Y-94637500D03*
%TO.N,Net-(LD18-DIN)*%
X75168750Y-95637500D03*
X73618750Y-96731250D03*
%TO.N,Net-(LD19-DIN)*%
X92868750Y-95137500D03*
X94368750Y-95137500D03*
%TO.N,Net-(LD20-DIN)*%
X111868750Y-95137500D03*
X113368750Y-95137500D03*
%TO.N,Net-(LD21-DIN)*%
X130868750Y-95137500D03*
X132368750Y-95137500D03*
%TO.N,Net-(LD22-DIN)*%
X151368750Y-97137500D03*
X149868750Y-97137500D03*
%TO.N,Net-(LD23-DIN)*%
X168868750Y-96637500D03*
X170694881Y-96195456D03*
%TO.N,Net-(LD24-DIN)*%
X187868750Y-96137500D03*
X189738467Y-96174724D03*
%TO.N,Net-(LD25-DIN)*%
X208769248Y-95637500D03*
X206868750Y-95637500D03*
%TO.N,Net-(LD26-DIN)*%
X226229250Y-95687500D03*
X227868750Y-94637500D03*
%TO.N,Net-(LD27-DIN)*%
X246868750Y-94637500D03*
X245279250Y-95687500D03*
%TO.N,Net-(LD28-DIN)*%
X265868750Y-94637500D03*
X263868750Y-94637500D03*
%TO.N,Net-(LD29-DIN)*%
X284868750Y-94637500D03*
X283368750Y-94637500D03*
%TO.N,Net-(LD30-DIN)*%
X302318750Y-94587500D03*
X303718750Y-94587500D03*
%TO.N,Net-(LD31-DIN)*%
X321318750Y-94587500D03*
X322768750Y-94587500D03*
%TO.N,Net-(LD33-DOUT)*%
X56168750Y-113637500D03*
X54568750Y-113637500D03*
%TO.N,Net-(LD34-DOUT)*%
X73768750Y-114237500D03*
X75168750Y-114237500D03*
%TO.N,Net-(LD35-DOUT)*%
X92768750Y-114237500D03*
X94168750Y-114237500D03*
%TO.N,Net-(LD36-DOUT)*%
X111768750Y-113837500D03*
X113368750Y-113837500D03*
%TO.N,Net-(LD37-DOUT)*%
X130968750Y-113637500D03*
X132368750Y-113637500D03*
%TO.N,Net-(LD38-DOUT)*%
X151368750Y-113637500D03*
X149768750Y-113637500D03*
%TO.N,Net-(LD39-DOUT)*%
X168768750Y-113637500D03*
X170368750Y-113637500D03*
%TO.N,Net-(LD40-DOUT)*%
X189568750Y-113637500D03*
X187768750Y-113637500D03*
%TO.N,Net-(LD41-DOUT)*%
X208568750Y-113637500D03*
X206968750Y-113637500D03*
%TO.N,Net-(LD42-DOUT)*%
X227568750Y-113637500D03*
X226168750Y-113637500D03*
%TO.N,Net-(LD43-DOUT)*%
X246568750Y-113637500D03*
X244968750Y-113637500D03*
%TO.N,Net-(LD44-DOUT)*%
X263968750Y-113637500D03*
X265768750Y-113637500D03*
%TO.N,Net-(LD45-DOUT)*%
X284768750Y-113637500D03*
X282968750Y-113637500D03*
%TO.N,Net-(LD46-DOUT)*%
X302168750Y-113637500D03*
X303968750Y-113637500D03*
%TO.N,Net-(LD47-DOUT)*%
X321168750Y-113637500D03*
X322968750Y-113637500D03*
%TO.N,Net-(LD49-DIN)*%
X56168750Y-133037500D03*
X54568750Y-133037500D03*
%TO.N,Net-(LD50-DIN)*%
X73768750Y-132837500D03*
X75168750Y-132837500D03*
%TO.N,Net-(LD51-DIN)*%
X94368750Y-133037500D03*
X92768750Y-133037500D03*
%TO.N,Net-(LD52-DIN)*%
X111768750Y-132837500D03*
X113368750Y-132837500D03*
%TO.N,Net-(LD53-DIN)*%
X132368750Y-133037500D03*
X130768750Y-133037500D03*
%TO.N,Net-(LD54-DIN)*%
X151368750Y-132837500D03*
X145368750Y-130637500D03*
%TO.N,Net-(LD55-DIN)*%
X168968750Y-132837500D03*
X170568750Y-132837500D03*
%TO.N,Net-(LD56-DIN)*%
X189568750Y-132837500D03*
X187968750Y-132837500D03*
%TO.N,Net-(LD57-DIN)*%
X208568750Y-133037500D03*
X206968750Y-133037500D03*
%TO.N,Net-(LD58-DIN)*%
X227768750Y-133037500D03*
X221568750Y-130437500D03*
%TO.N,Net-(LD59-DIN)*%
X245168750Y-133037500D03*
X246768750Y-133037500D03*
%TO.N,Net-(LD60-DIN)*%
X264168750Y-133037500D03*
X265768750Y-133037500D03*
%TO.N,Net-(LD61-DIN)*%
X284768750Y-133037500D03*
X283168750Y-133037500D03*
%TO.N,Net-(LD62-DIN)*%
X302168750Y-133037500D03*
X303968750Y-133037500D03*
%TO.N,Net-(LD63-DIN)*%
X321168750Y-133037500D03*
X322968750Y-133037500D03*
%TD*%
D24*
%TO.N,GND*%
X305018750Y-133937500D02*
X305618750Y-133337500D01*
D25*
X268418750Y-73949725D02*
X268065025Y-73596000D01*
D24*
X57918750Y-93687500D02*
X57918750Y-93437500D01*
X304918750Y-95687500D02*
X305518750Y-95087500D01*
D25*
X229418750Y-95087500D02*
X229418750Y-93179071D01*
D24*
X267518750Y-133337500D02*
X267518750Y-132037500D01*
D25*
X247989250Y-92699571D02*
X247989250Y-92646000D01*
X268418750Y-113587500D02*
X268418750Y-112437500D01*
D24*
X38445025Y-92963775D02*
X38445025Y-92596000D01*
D25*
X135018750Y-75587500D02*
X135018750Y-74437500D01*
D24*
X172168750Y-93069725D02*
X171745025Y-92646000D01*
X171668750Y-133887500D02*
X172268750Y-133287500D01*
D25*
X267039250Y-92646000D02*
X267039250Y-91708000D01*
D24*
X134118750Y-133387500D02*
X134118750Y-132087500D01*
D25*
X209618750Y-95687500D02*
X209768750Y-95687500D01*
X306468750Y-112487500D02*
X306468750Y-112049725D01*
D24*
X38268750Y-95637500D02*
X38868750Y-95037500D01*
D25*
X191268750Y-95137500D02*
X191268750Y-93006750D01*
X192168750Y-75537500D02*
X192168750Y-74387500D01*
X39768750Y-112487500D02*
X39768750Y-112049725D01*
X115968750Y-112049725D02*
X115615025Y-111696000D01*
X77868750Y-112487500D02*
X77868750Y-112049725D01*
D24*
X191268750Y-133337500D02*
X191268750Y-132037500D01*
D25*
X154018750Y-112537500D02*
X154018750Y-112099725D01*
D24*
X152618750Y-133987500D02*
X153218750Y-133387500D01*
D25*
X76268750Y-96487500D02*
X76268750Y-95687500D01*
X77868750Y-112049725D02*
X77515025Y-111696000D01*
D24*
X248468750Y-132037500D02*
X248468750Y-131319725D01*
X210318750Y-132037500D02*
X210318750Y-131319725D01*
X324668750Y-131987500D02*
X324668750Y-131269725D01*
D25*
X192168750Y-112537500D02*
X192168750Y-112099725D01*
X249318750Y-75437500D02*
X249318750Y-74287500D01*
X287418750Y-74287500D02*
X287418750Y-73849725D01*
D24*
X247868750Y-133937500D02*
X248468750Y-133337500D01*
D25*
X58868750Y-73949725D02*
X58515025Y-73596000D01*
D24*
X229418750Y-131319725D02*
X228995025Y-130896000D01*
D25*
X249318750Y-111949725D02*
X248965025Y-111596000D01*
X135018750Y-73999725D02*
X134665025Y-73646000D01*
D24*
X285918750Y-133937500D02*
X286518750Y-133337500D01*
X305518750Y-93787500D02*
X305518750Y-93069725D01*
D25*
X96918750Y-113637500D02*
X96918750Y-112487500D01*
X77868750Y-74387500D02*
X77868750Y-73949725D01*
D24*
X305518750Y-95087500D02*
X305518750Y-93787500D01*
X38868750Y-132037500D02*
X38868750Y-131319725D01*
D25*
X306468750Y-112049725D02*
X306115025Y-111696000D01*
D24*
X57495025Y-93013775D02*
X57495025Y-92546000D01*
X153118750Y-93019725D02*
X152745025Y-92646000D01*
D25*
X211218750Y-112487500D02*
X211218750Y-112049725D01*
X115968750Y-73999725D02*
X115615025Y-73646000D01*
X266768750Y-95687500D02*
X266868750Y-95687500D01*
D24*
X248468750Y-133337500D02*
X248468750Y-132037500D01*
D25*
X209768750Y-95687500D02*
X210368750Y-95087500D01*
D24*
X191268750Y-131319725D02*
X190845025Y-130896000D01*
D25*
X287418750Y-112049725D02*
X287065025Y-111696000D01*
D24*
X152568750Y-95687500D02*
X153118750Y-95137500D01*
X133518750Y-95687500D02*
X134118750Y-95087500D01*
X38868750Y-93387500D02*
X38445025Y-92963775D01*
D25*
X209889250Y-92646000D02*
X209889250Y-91708000D01*
X77868750Y-75537500D02*
X77868750Y-74387500D01*
X211218750Y-75537500D02*
X211218750Y-74387500D01*
X135018750Y-112487500D02*
X135018750Y-112049725D01*
D24*
X172168750Y-95087500D02*
X172168750Y-93787500D01*
X172268750Y-133287500D02*
X172268750Y-131987500D01*
D25*
X229418750Y-93179071D02*
X228939250Y-92699571D01*
X96918750Y-112049725D02*
X96565025Y-111696000D01*
D24*
X133518750Y-133987500D02*
X134118750Y-133387500D01*
X324618750Y-93069725D02*
X324195025Y-92646000D01*
X114468750Y-133937500D02*
X115068750Y-133337500D01*
D25*
X228939250Y-91758000D02*
X228918750Y-91737500D01*
D24*
X76368750Y-95637500D02*
X76968750Y-95037500D01*
X172268750Y-131269725D02*
X171845025Y-130846000D01*
X38868750Y-133337500D02*
X38868750Y-132037500D01*
X171568750Y-95687500D02*
X172168750Y-95087500D01*
X115068750Y-93069725D02*
X114645025Y-92646000D01*
D25*
X209889250Y-92699571D02*
X209889250Y-92646000D01*
X230218750Y-74337500D02*
X230218750Y-73899725D01*
D24*
X57918750Y-93437500D02*
X57495025Y-93013775D01*
D25*
X173068750Y-75537500D02*
X173068750Y-74387500D01*
X77868750Y-73949725D02*
X77515025Y-73596000D01*
X247989250Y-91687500D02*
X247989250Y-92646000D01*
X192168750Y-74387500D02*
X192168750Y-73949725D01*
X249318750Y-112387500D02*
X249318750Y-111949725D01*
X211218750Y-74387500D02*
X211218750Y-73949725D01*
X325518750Y-73999725D02*
X325165025Y-73646000D01*
X58818750Y-112049725D02*
X58465025Y-111696000D01*
X115968750Y-74437500D02*
X115968750Y-73999725D01*
X39668750Y-74387500D02*
X39668750Y-73949725D01*
D24*
X134118750Y-131369725D02*
X133695025Y-130946000D01*
X286518750Y-131319725D02*
X286095025Y-130896000D01*
D25*
X287418750Y-75437500D02*
X287418750Y-74287500D01*
X268418750Y-75537500D02*
X268418750Y-74387500D01*
D24*
X57318750Y-133937500D02*
X57918750Y-133337500D01*
X266918750Y-133937500D02*
X267518750Y-133337500D01*
X285918750Y-95687500D02*
X286518750Y-95087500D01*
X76318750Y-133987500D02*
X76918750Y-133387500D01*
D25*
X58868750Y-74387500D02*
X58868750Y-73949725D01*
X192168750Y-73949725D02*
X191815025Y-73596000D01*
X228939250Y-92699571D02*
X228939250Y-92646000D01*
D24*
X115068750Y-131319725D02*
X114645025Y-130896000D01*
D25*
X247718750Y-95687500D02*
X247918750Y-95687500D01*
X325518750Y-75587500D02*
X325518750Y-74437500D01*
D24*
X57468750Y-95587500D02*
X57918750Y-95137500D01*
X286518750Y-132037500D02*
X286518750Y-131319725D01*
D25*
X96868750Y-73949725D02*
X96515025Y-73596000D01*
X58818750Y-112487500D02*
X58818750Y-112049725D01*
X190568750Y-95687500D02*
X190718750Y-95687500D01*
X96868750Y-74387500D02*
X96868750Y-73949725D01*
D24*
X96018750Y-132087500D02*
X96018750Y-131369725D01*
D25*
X325518750Y-112149725D02*
X325165025Y-111796000D01*
D24*
X153118750Y-95137500D02*
X153118750Y-93019725D01*
D25*
X173068750Y-73949725D02*
X172715025Y-73596000D01*
X249318750Y-73849725D02*
X248965025Y-73496000D01*
D24*
X305518750Y-93069725D02*
X305095025Y-92646000D01*
D25*
X39768750Y-113637500D02*
X39768750Y-112487500D01*
D24*
X286518750Y-93069725D02*
X286095025Y-92646000D01*
X153218750Y-132087500D02*
X153218750Y-131369725D01*
D25*
X306468750Y-74337500D02*
X306468750Y-73899725D01*
D24*
X76918750Y-132087500D02*
X76918750Y-131369725D01*
X210318750Y-131319725D02*
X209895025Y-130896000D01*
D25*
X306468750Y-75487500D02*
X306468750Y-74337500D01*
D24*
X286518750Y-93787500D02*
X286518750Y-93069725D01*
D25*
X267039250Y-92699571D02*
X267039250Y-92646000D01*
X154018750Y-112099725D02*
X153665025Y-111746000D01*
D24*
X57918750Y-95137500D02*
X57918750Y-93687500D01*
X134118750Y-93069725D02*
X133695025Y-92646000D01*
D25*
X58818750Y-113637500D02*
X58818750Y-112487500D01*
X211218750Y-73949725D02*
X210865025Y-73596000D01*
X154018750Y-74387500D02*
X154018750Y-73949725D01*
X135018750Y-74437500D02*
X135018750Y-73999725D01*
D24*
X95968750Y-93069725D02*
X95545025Y-92646000D01*
X57918750Y-131319725D02*
X57495025Y-130896000D01*
D25*
X268418750Y-74387500D02*
X268418750Y-73949725D01*
D24*
X229418750Y-132037500D02*
X229418750Y-131319725D01*
X95968750Y-95087500D02*
X95968750Y-93787500D01*
D25*
X247918750Y-95687500D02*
X248468750Y-95137500D01*
D24*
X76545025Y-93213775D02*
X76545025Y-92596000D01*
D25*
X173068750Y-112437500D02*
X173068750Y-111999725D01*
X267039250Y-91708000D02*
X267018750Y-91687500D01*
D24*
X95368750Y-95687500D02*
X95968750Y-95087500D01*
D25*
X209889250Y-91708000D02*
X209868750Y-91687500D01*
D24*
X96018750Y-131369725D02*
X95595025Y-130946000D01*
D25*
X154018750Y-113687500D02*
X154018750Y-112537500D01*
D24*
X76918750Y-133387500D02*
X76918750Y-132087500D01*
D25*
X325518750Y-112587500D02*
X325518750Y-112149725D01*
X39768750Y-112049725D02*
X39415025Y-111696000D01*
D24*
X95418750Y-133987500D02*
X96018750Y-133387500D01*
X57318750Y-95587500D02*
X57468750Y-95587500D01*
D25*
X228818750Y-95687500D02*
X229418750Y-95087500D01*
D24*
X209718750Y-133937500D02*
X210318750Y-133337500D01*
D25*
X39668750Y-73949725D02*
X39315025Y-73596000D01*
D24*
X267518750Y-131319725D02*
X267095025Y-130896000D01*
X115068750Y-93787500D02*
X115068750Y-93069725D01*
X76968750Y-95037500D02*
X76968750Y-93637500D01*
X305618750Y-131319725D02*
X305195025Y-130896000D01*
X57918750Y-132037500D02*
X57918750Y-131319725D01*
D25*
X228939250Y-92646000D02*
X228939250Y-91758000D01*
X248468750Y-95137500D02*
X248468750Y-93179071D01*
X230268750Y-112099725D02*
X229915025Y-111746000D01*
X230218750Y-73899725D02*
X229865025Y-73546000D01*
X135018750Y-113637500D02*
X135018750Y-112487500D01*
D24*
X210318750Y-133337500D02*
X210318750Y-132037500D01*
X115068750Y-133337500D02*
X115068750Y-132037500D01*
D25*
X266868750Y-95687500D02*
X267518750Y-95037500D01*
X39668750Y-75537500D02*
X39668750Y-74387500D01*
X306468750Y-113637500D02*
X306468750Y-112487500D01*
X135018750Y-112049725D02*
X134665025Y-111696000D01*
D24*
X153218750Y-131369725D02*
X152795025Y-130946000D01*
X134118750Y-95087500D02*
X134118750Y-93787500D01*
D25*
X211218750Y-112049725D02*
X210865025Y-111696000D01*
X152739250Y-92646000D02*
X152739250Y-91808000D01*
X267518750Y-93179071D02*
X267039250Y-92699571D01*
D24*
X96018750Y-133387500D02*
X96018750Y-132087500D01*
X286518750Y-133337500D02*
X286518750Y-132037500D01*
D25*
X171789250Y-92646000D02*
X171789250Y-91708000D01*
D24*
X190668750Y-133937500D02*
X191268750Y-133337500D01*
D25*
X96918750Y-112487500D02*
X96918750Y-112049725D01*
X210368750Y-93179071D02*
X209889250Y-92699571D01*
X287418750Y-73849725D02*
X287065025Y-73496000D01*
X173068750Y-113587500D02*
X173068750Y-112437500D01*
D24*
X115068750Y-95087500D02*
X115068750Y-93787500D01*
D25*
X325518750Y-113737500D02*
X325518750Y-112587500D01*
X152739250Y-91808000D02*
X152718750Y-91787500D01*
D24*
X172168750Y-93787500D02*
X172168750Y-93069725D01*
X305618750Y-133337500D02*
X305618750Y-132037500D01*
D25*
X268418750Y-112437500D02*
X268418750Y-111999725D01*
X77868750Y-113637500D02*
X77868750Y-112487500D01*
X192168750Y-113687500D02*
X192168750Y-112537500D01*
D24*
X38868750Y-95037500D02*
X38868750Y-93737500D01*
X38868750Y-93737500D02*
X38868750Y-93387500D01*
X76918750Y-131369725D02*
X76495025Y-130946000D01*
D25*
X230218750Y-75487500D02*
X230218750Y-74337500D01*
X249318750Y-113537500D02*
X249318750Y-112387500D01*
D24*
X172268750Y-131987500D02*
X172268750Y-131269725D01*
D25*
X287418750Y-112487500D02*
X287418750Y-112049725D01*
X191268750Y-93006750D02*
X190908000Y-92646000D01*
X190908000Y-91598250D02*
X190918750Y-91587500D01*
D24*
X38868750Y-131319725D02*
X38445025Y-130896000D01*
D25*
X171789250Y-91708000D02*
X171768750Y-91687500D01*
D24*
X324018750Y-95687500D02*
X324618750Y-95087500D01*
D25*
X267518750Y-95037500D02*
X267518750Y-93179071D01*
D24*
X134118750Y-93787500D02*
X134118750Y-93069725D01*
D25*
X190908000Y-92646000D02*
X190908000Y-91598250D01*
X230268750Y-113687500D02*
X230268750Y-112537500D01*
X154018750Y-73949725D02*
X153665025Y-73596000D01*
D24*
X228818750Y-133937500D02*
X229418750Y-133337500D01*
X114468750Y-95687500D02*
X115068750Y-95087500D01*
X191268750Y-132037500D02*
X191268750Y-131319725D01*
D25*
X228668750Y-95687500D02*
X228818750Y-95687500D01*
X210368750Y-95087500D02*
X210368750Y-93179071D01*
X154018750Y-75537500D02*
X154018750Y-74387500D01*
D24*
X95968750Y-93787500D02*
X95968750Y-93069725D01*
X286518750Y-95087500D02*
X286518750Y-93787500D01*
D25*
X190718750Y-95687500D02*
X191268750Y-95137500D01*
D24*
X324618750Y-93787500D02*
X324618750Y-93069725D01*
X248468750Y-131319725D02*
X248045025Y-130896000D01*
X324668750Y-133287500D02*
X324668750Y-131987500D01*
D25*
X115968750Y-112487500D02*
X115968750Y-112049725D01*
X192168750Y-112099725D02*
X191815025Y-111746000D01*
X268418750Y-111999725D02*
X268065025Y-111646000D01*
X115968750Y-75587500D02*
X115968750Y-74437500D01*
D24*
X324618750Y-95087500D02*
X324618750Y-93787500D01*
D25*
X173068750Y-74387500D02*
X173068750Y-73949725D01*
X58868750Y-75537500D02*
X58868750Y-74387500D01*
X230268750Y-112537500D02*
X230268750Y-112099725D01*
X306468750Y-73899725D02*
X306115025Y-73546000D01*
D24*
X57918750Y-133337500D02*
X57918750Y-132037500D01*
D25*
X211218750Y-113637500D02*
X211218750Y-112487500D01*
X248468750Y-93179071D02*
X247989250Y-92699571D01*
X115968750Y-113637500D02*
X115968750Y-112487500D01*
D24*
X267518750Y-132037500D02*
X267518750Y-131319725D01*
X38268750Y-133937500D02*
X38868750Y-133337500D01*
D25*
X249318750Y-74287500D02*
X249318750Y-73849725D01*
X287418750Y-113637500D02*
X287418750Y-112487500D01*
D24*
X305618750Y-132037500D02*
X305618750Y-131319725D01*
X229418750Y-133337500D02*
X229418750Y-132037500D01*
D25*
X325518750Y-74437500D02*
X325518750Y-73999725D01*
D24*
X153218750Y-133387500D02*
X153218750Y-132087500D01*
X324068750Y-133887500D02*
X324668750Y-133287500D01*
X76968750Y-93637500D02*
X76545025Y-93213775D01*
X324668750Y-131269725D02*
X324245025Y-130846000D01*
D25*
X173068750Y-111999725D02*
X172715025Y-111646000D01*
X96868750Y-75537500D02*
X96868750Y-74387500D01*
D24*
X115068750Y-132037500D02*
X115068750Y-131319725D01*
X134118750Y-132087500D02*
X134118750Y-131369725D01*
D26*
%TO.N,Net-(D54-A)*%
X136618750Y-139317500D02*
X137953750Y-140652500D01*
X138522790Y-135572500D02*
X136618750Y-137476540D01*
X139858750Y-135572500D02*
X138522790Y-135572500D01*
X136618750Y-137476540D02*
X136618750Y-139317500D01*
%TO.N,Net-(D58-A)*%
X212868750Y-139367500D02*
X214153750Y-140652500D01*
X214442304Y-135572500D02*
X212868750Y-137146054D01*
X216058750Y-135572500D02*
X214442304Y-135572500D01*
X212868750Y-137146054D02*
X212868750Y-139367500D01*
D24*
%TO.N,Net-(LD1-DOUT)*%
X46217379Y-75417500D02*
X57098750Y-75417500D01*
X57098750Y-75417500D02*
X57218750Y-75537500D01*
X39668750Y-76637500D02*
X44997379Y-76637500D01*
X44997379Y-76637500D02*
X46217379Y-75417500D01*
%TO.N,~{RESET}*%
X94268750Y-106747500D02*
X96458750Y-108937500D01*
X96458750Y-108937500D02*
X96458750Y-109227500D01*
%TO.N,DB+*%
X50523776Y-84487500D02*
X49618750Y-84487500D01*
X54118750Y-83087500D02*
X51923776Y-83087500D01*
X65268750Y-79737500D02*
X64818750Y-79287500D01*
X54468750Y-82737500D02*
X54118750Y-83087500D01*
X51923776Y-83087500D02*
X50523776Y-84487500D01*
X69418750Y-79737500D02*
X65268750Y-79737500D01*
X69868750Y-79287500D02*
X69418750Y-79737500D01*
X49618750Y-84487500D02*
X49268750Y-84137500D01*
%TO.N,DB-*%
X48078800Y-84837500D02*
X47468750Y-84227450D01*
X47468750Y-84227450D02*
X47468750Y-84137500D01*
X54868750Y-83437500D02*
X52068750Y-83437500D01*
X50668750Y-84837500D02*
X48078800Y-84837500D01*
X69968750Y-80087500D02*
X64768750Y-80087500D01*
X52068750Y-83437500D02*
X50668750Y-84837500D01*
D26*
%TO.N,0*%
X322103750Y-92752500D02*
X322103750Y-86042500D01*
X322103750Y-92772500D02*
X322093750Y-92762500D01*
X322103750Y-143192500D02*
X322103750Y-92772500D01*
X322093750Y-92762500D02*
X322103750Y-92752500D01*
%TO.N,1*%
X303053750Y-143192500D02*
X303053750Y-93112500D01*
X303053750Y-93112500D02*
X303053750Y-86042500D01*
%TO.N,2*%
X284003750Y-143192500D02*
X284003750Y-93487500D01*
X284003750Y-93487500D02*
X284003750Y-86042500D01*
%TO.N,3*%
X264953750Y-143192500D02*
X264953750Y-93837500D01*
X264953750Y-93837500D02*
X264953750Y-86042500D01*
%TO.N,4*%
X245903750Y-86042500D02*
X245903750Y-143192500D01*
%TO.N,5*%
X226853750Y-143192500D02*
X226853750Y-94537500D01*
X226853750Y-94537500D02*
X226853750Y-86042500D01*
D24*
%TO.N,6*%
X207803750Y-94937500D02*
X207803750Y-86042500D01*
X221368750Y-126387500D02*
X208303750Y-126387500D01*
X208303750Y-126387500D02*
X207803750Y-125887500D01*
X222408750Y-133032500D02*
X222408750Y-127427500D01*
X222408750Y-127427500D02*
X221368750Y-126387500D01*
X207803750Y-143192500D02*
X207803750Y-125887500D01*
X207803750Y-125887500D02*
X207803750Y-94937500D01*
%TO.N,7*%
X188753750Y-95287500D02*
X188753750Y-143192500D01*
X188753750Y-86042500D02*
X188753750Y-95287500D01*
%TO.N,8*%
X169703750Y-143192500D02*
X169703750Y-86042500D01*
%TO.N,9*%
X150653750Y-86042500D02*
X150653750Y-95987500D01*
X150653750Y-95987500D02*
X150653750Y-143192500D01*
%TO.N,10*%
X131603750Y-127622500D02*
X131603750Y-92587500D01*
X146208750Y-127977500D02*
X146208750Y-133032500D01*
X146118750Y-127887500D02*
X146208750Y-127977500D01*
X131618750Y-127637500D02*
X131603750Y-127622500D01*
X131603750Y-92587500D02*
X131603750Y-86042500D01*
X131603750Y-127652500D02*
X131618750Y-127637500D01*
X131603750Y-143192500D02*
X131603750Y-127652500D01*
%TO.N,11*%
X112553750Y-92937500D02*
X112553750Y-143192500D01*
X112553750Y-86042500D02*
X112553750Y-92937500D01*
%TO.N,12*%
X93503750Y-93987500D02*
X93503750Y-86042500D01*
X93503750Y-143192500D02*
X93503750Y-93987500D01*
%TO.N,13*%
X75698750Y-89517500D02*
X75698750Y-89497753D01*
X85892659Y-93733591D02*
X85892659Y-91483591D01*
X74453750Y-86029800D02*
X74453750Y-89057500D01*
X84646568Y-90237500D02*
X76418750Y-90237500D01*
X75358994Y-89157997D02*
X74554247Y-89157997D01*
X88973413Y-95132837D02*
X87264087Y-95132837D01*
X89248750Y-94857500D02*
X88973413Y-95132837D01*
X74554247Y-89157997D02*
X74453750Y-89057500D01*
X85892659Y-91483591D02*
X84646568Y-90237500D01*
X87264087Y-95132837D02*
X85878750Y-93747500D01*
X75698750Y-89497753D02*
X75358994Y-89157997D01*
X85878750Y-93747500D02*
X85892659Y-93733591D01*
X76418750Y-90237500D02*
X75698750Y-89517500D01*
X74453750Y-89057500D02*
X74453750Y-143192500D01*
%TO.N,14*%
X85528750Y-93892474D02*
X87119113Y-95482837D01*
X55403750Y-143192500D02*
X55403750Y-88707500D01*
X89814087Y-95482837D02*
X89818750Y-95487500D01*
X85528750Y-92851409D02*
X85528750Y-93892474D01*
X85542659Y-92837500D02*
X85528750Y-92851409D01*
X58519145Y-88077500D02*
X58468145Y-88128500D01*
X71458750Y-88077500D02*
X58519145Y-88077500D01*
X75424273Y-89737997D02*
X76273776Y-90587500D01*
X55403750Y-88707500D02*
X55403750Y-86042500D01*
X55982750Y-88128500D02*
X55403750Y-88707500D01*
X76273776Y-90587500D02*
X84501594Y-90587500D01*
X84501594Y-90587500D02*
X85542659Y-91628565D01*
X85542659Y-91628565D02*
X85542659Y-92837500D01*
X73091639Y-89710389D02*
X71458750Y-88077500D01*
X58468145Y-88128500D02*
X55982750Y-88128500D01*
X73768750Y-89710389D02*
X73091639Y-89710389D01*
X87119113Y-95482837D02*
X89814087Y-95482837D01*
X75118750Y-89737997D02*
X75424273Y-89737997D01*
%TO.N,15*%
X36353750Y-86042500D02*
X36353750Y-89867500D01*
X37126999Y-89094251D02*
X36353750Y-89867500D01*
X76128802Y-90937500D02*
X84356620Y-90937500D01*
X75061000Y-90545250D02*
X75736552Y-90545250D01*
X46575247Y-89787500D02*
X45881998Y-89094251D01*
X73473776Y-90587500D02*
X73818750Y-90587500D01*
X54768750Y-89227500D02*
X50973724Y-89227500D01*
X58664120Y-88427500D02*
X71313776Y-88427500D01*
X84356620Y-90937500D02*
X85178750Y-91759630D01*
X71313776Y-88427500D02*
X73473776Y-90587500D01*
X88959698Y-95832837D02*
X89199718Y-96072857D01*
X50973724Y-89227500D02*
X50413725Y-89787500D01*
X75736552Y-90545250D02*
X76128802Y-90937500D01*
X50413725Y-89787500D02*
X46575247Y-89787500D01*
X56827750Y-88478500D02*
X58613120Y-88478500D01*
X85178750Y-91759630D02*
X85178750Y-94037448D01*
X85178750Y-94037448D02*
X86974139Y-95832837D01*
X58613120Y-88478500D02*
X58664120Y-88427500D01*
X56068750Y-89237500D02*
X56827750Y-88478500D01*
X36353750Y-89867500D02*
X36353750Y-143192500D01*
X86974139Y-95832837D02*
X88959698Y-95832837D01*
X45881998Y-89094251D02*
X37126999Y-89094251D01*
%TO.N,Net-(LD2-DOUT)*%
X58718750Y-76637500D02*
X75143350Y-76637500D01*
X75143350Y-76637500D02*
X76268750Y-75512100D01*
%TO.N,18*%
X49461056Y-91537500D02*
X50118750Y-92195194D01*
X50118750Y-92687500D02*
X50518750Y-93087500D01*
X50118750Y-92195194D02*
X50118750Y-92687500D01*
X45118750Y-92037500D02*
X45618750Y-91537500D01*
X43068750Y-92037500D02*
X45118750Y-92037500D01*
X50518750Y-93087500D02*
X51318750Y-93087500D01*
X45618750Y-91537500D02*
X49461056Y-91537500D01*
%TO.N,19*%
X45473776Y-91187500D02*
X49606031Y-91187500D01*
X43768750Y-91537500D02*
X45123776Y-91537500D01*
X45123776Y-91537500D02*
X45473776Y-91187500D01*
X43668750Y-91437500D02*
X43768750Y-91537500D01*
X49606031Y-91187500D02*
X50748660Y-92330130D01*
%TO.N,20*%
X45228801Y-90937500D02*
X45328801Y-90837500D01*
X50451004Y-91537500D02*
X51290427Y-91537500D01*
X49751006Y-90837500D02*
X50451004Y-91537500D01*
X51290427Y-91537500D02*
X51368750Y-91615823D01*
X45328801Y-90837500D02*
X49751006Y-90837500D01*
X44368750Y-90937500D02*
X45228801Y-90937500D01*
%TO.N,23*%
X66868750Y-125787500D02*
X66696875Y-125787500D01*
X66696875Y-125787500D02*
X65496875Y-126987500D01*
X70525000Y-93356250D02*
X70525000Y-95981250D01*
X65496875Y-126987500D02*
X65318750Y-126987500D01*
X68173775Y-106737500D02*
X68173775Y-107582475D01*
X68173775Y-107582475D02*
X67768750Y-107987500D01*
%TO.N,24*%
X69681250Y-93356250D02*
X69681250Y-95981250D01*
X66868750Y-107987500D02*
X67068750Y-107787500D01*
X67068750Y-107787500D02*
X67068750Y-106737500D01*
%TO.N,26{slash}A0*%
X51168750Y-88537500D02*
X51168750Y-88437500D01*
X50268750Y-89437500D02*
X51168750Y-88537500D01*
X91993192Y-88587500D02*
X84443750Y-88587500D01*
X76768750Y-89637500D02*
X77968750Y-88437500D01*
X45768750Y-88337500D02*
X45768750Y-88486029D01*
X46720221Y-89437500D02*
X50268750Y-89437500D01*
X83993750Y-89037500D02*
X84443750Y-88587500D01*
X83993750Y-89387500D02*
X83993750Y-89037500D01*
X77968750Y-88437500D02*
X78368750Y-88437500D01*
X92880971Y-87699721D02*
X91993192Y-88587500D01*
X80118750Y-88587500D02*
X79868750Y-88337500D01*
X45768750Y-88486029D02*
X46720221Y-89437500D01*
X84443750Y-88587500D02*
X80118750Y-88587500D01*
%TO.N,27{slash}A1*%
X55068750Y-78437500D02*
X55318750Y-78687500D01*
X36968750Y-75937500D02*
X36968750Y-77487500D01*
X38168750Y-75537500D02*
X37368750Y-75537500D01*
X37918750Y-78437500D02*
X55068750Y-78437500D01*
X37368750Y-75537500D02*
X36968750Y-75937500D01*
X36968750Y-77487500D02*
X37918750Y-78437500D01*
D25*
%TO.N,+3V3*%
X115968750Y-131249725D02*
X115615025Y-130896000D01*
X58818750Y-131687500D02*
X58818750Y-131249725D01*
X306418750Y-94587500D02*
X306418750Y-93587500D01*
X77818750Y-132887500D02*
X77818750Y-131737500D01*
D24*
X267468750Y-74687500D02*
X267468750Y-76087500D01*
D25*
X306418750Y-92999725D02*
X306065025Y-92646000D01*
D24*
X134118750Y-76087500D02*
X134118750Y-74787500D01*
X38768750Y-74019725D02*
X38345025Y-73596000D01*
X133695025Y-112163775D02*
X133695025Y-111696000D01*
D25*
X287418750Y-131249725D02*
X287065025Y-130896000D01*
D24*
X286518750Y-74637500D02*
X286068750Y-74187500D01*
D25*
X306518750Y-131687500D02*
X306518750Y-131249725D01*
X96918750Y-131737500D02*
X96918750Y-131299725D01*
X325518750Y-92999725D02*
X325165025Y-92646000D01*
X173168750Y-132787500D02*
X173168750Y-131637500D01*
D24*
X324018750Y-114837500D02*
X324618750Y-114237500D01*
X230168750Y-94587500D02*
X230168750Y-92905500D01*
D25*
X154068750Y-94587500D02*
X154068750Y-93437500D01*
D24*
X57545025Y-73913775D02*
X57545025Y-73596000D01*
X172168750Y-112069725D02*
X171745025Y-111646000D01*
X153709250Y-92646000D02*
X153709250Y-91797000D01*
X77768750Y-94587500D02*
X78618750Y-94587500D01*
X115068750Y-114137500D02*
X115068750Y-112837500D01*
X153118750Y-74737500D02*
X153118750Y-74019725D01*
X267095025Y-112213775D02*
X267095025Y-111646000D01*
D25*
X115968750Y-94587500D02*
X115968750Y-93437500D01*
X192168750Y-132837500D02*
X192168750Y-131687500D01*
D24*
X76818750Y-112237500D02*
X76818750Y-111969725D01*
X57968750Y-74737500D02*
X57968750Y-74337500D01*
D25*
X58818750Y-131249725D02*
X58465025Y-130896000D01*
D24*
X210318750Y-76037500D02*
X210318750Y-74737500D01*
X134118750Y-114137500D02*
X134118750Y-112837500D01*
X38868750Y-114137500D02*
X38868750Y-112837500D01*
X229368750Y-112887500D02*
X229368750Y-112169725D01*
D25*
X115968750Y-93437500D02*
X115968750Y-92999725D01*
X287418750Y-132837500D02*
X287418750Y-131687500D01*
D24*
X95368750Y-76637500D02*
X95968750Y-76037500D01*
X191268750Y-114187500D02*
X191268750Y-112887500D01*
X229318750Y-74687500D02*
X229318750Y-73969725D01*
D25*
X287418750Y-92999725D02*
X287065025Y-92646000D01*
D24*
X153709250Y-91797000D02*
X153718750Y-91787500D01*
X248318750Y-76037500D02*
X247818750Y-76537500D01*
X96018750Y-112837500D02*
X96018750Y-112537500D01*
X230168750Y-92905500D02*
X229909250Y-92646000D01*
X114468750Y-76687500D02*
X115068750Y-76087500D01*
X228718750Y-76587500D02*
X229318750Y-75987500D01*
D25*
X39768750Y-132837500D02*
X39768750Y-131687500D01*
D24*
X133518750Y-114737500D02*
X134118750Y-114137500D01*
X247995025Y-112163775D02*
X247995025Y-111596000D01*
D25*
X96918750Y-131299725D02*
X96565025Y-130946000D01*
D24*
X267468750Y-74687500D02*
X267468750Y-74137500D01*
X268009250Y-92646000D02*
X268009250Y-91697000D01*
X152518750Y-76637500D02*
X153118750Y-76037500D01*
X286068750Y-74187500D02*
X286068750Y-73522275D01*
X172168750Y-114087500D02*
X172168750Y-112787500D01*
X248268750Y-74637500D02*
X248318750Y-74687500D01*
X115068750Y-76087500D02*
X115068750Y-74787500D01*
X268009250Y-91697000D02*
X268018750Y-91687500D01*
X172168750Y-76037500D02*
X172168750Y-74737500D01*
X95968750Y-76037500D02*
X95968750Y-74737500D01*
D25*
X77868750Y-92949725D02*
X77515025Y-92596000D01*
D24*
X76368750Y-76637500D02*
X76968750Y-76037500D01*
X95418750Y-114737500D02*
X96018750Y-114137500D01*
D25*
X115968750Y-131687500D02*
X115968750Y-131249725D01*
D24*
X191268750Y-112887500D02*
X191268750Y-112169725D01*
D25*
X39768750Y-92949725D02*
X39415025Y-92596000D01*
D24*
X248268750Y-74637500D02*
X248268750Y-73769725D01*
D25*
X287418750Y-131687500D02*
X287418750Y-131249725D01*
D24*
X210318750Y-74019725D02*
X209895025Y-73596000D01*
X286518750Y-112437500D02*
X286095025Y-112013775D01*
X191268750Y-112169725D02*
X190845025Y-111746000D01*
X172168750Y-112787500D02*
X172168750Y-112069725D01*
D25*
X135018750Y-132887500D02*
X135018750Y-131737500D01*
D24*
X115068750Y-112837500D02*
X115068750Y-112687500D01*
D25*
X39768750Y-93387500D02*
X39768750Y-92949725D01*
D24*
X114645025Y-112263775D02*
X114645025Y-111696000D01*
X191878000Y-91646750D02*
X191868750Y-91637500D01*
X115068750Y-112687500D02*
X114645025Y-112263775D01*
X171568750Y-76637500D02*
X172168750Y-76037500D01*
X172168750Y-74019725D02*
X171745025Y-73596000D01*
X324618750Y-112219725D02*
X324195025Y-111796000D01*
D25*
X154068750Y-92999725D02*
X153715025Y-92646000D01*
D24*
X134118750Y-74069725D02*
X133695025Y-73646000D01*
X324618750Y-114237500D02*
X324618750Y-112937500D01*
X78618750Y-94587500D02*
X78668750Y-94537500D01*
D25*
X154118750Y-132887500D02*
X154118750Y-131737500D01*
D24*
X191268750Y-74737500D02*
X191268750Y-74019725D01*
X248959250Y-91687500D02*
X248959250Y-92646000D01*
X172759250Y-91747000D02*
X172768750Y-91737500D01*
X153118750Y-112887500D02*
X153118750Y-112169725D01*
X115068750Y-74069725D02*
X114645025Y-73646000D01*
X172759250Y-92646000D02*
X172759250Y-91747000D01*
X210318750Y-74737500D02*
X210318750Y-74019725D01*
X76968750Y-112837500D02*
X76968750Y-112387500D01*
X305145025Y-112113775D02*
X305145025Y-111696000D01*
D25*
X154118750Y-131299725D02*
X153765025Y-130946000D01*
D24*
X305568750Y-114137500D02*
X305568750Y-112837500D01*
X76968750Y-112387500D02*
X76818750Y-112237500D01*
X76968750Y-76037500D02*
X76968750Y-74737500D01*
X247818750Y-114637500D02*
X248418750Y-114037500D01*
D25*
X173168750Y-131637500D02*
X173168750Y-131199725D01*
X192168750Y-131249725D02*
X191815025Y-130896000D01*
D24*
X134118750Y-112837500D02*
X134118750Y-112587500D01*
X209895025Y-112113775D02*
X209895025Y-111696000D01*
D25*
X230318750Y-132837500D02*
X230318750Y-131687500D01*
D24*
X285918750Y-114737500D02*
X286518750Y-114137500D01*
D25*
X135018750Y-131737500D02*
X135018750Y-131299725D01*
X39768750Y-131249725D02*
X39415025Y-130896000D01*
D24*
X305418750Y-74687500D02*
X305418750Y-73819725D01*
D25*
X211218750Y-131687500D02*
X211218750Y-131249725D01*
X96868750Y-93437500D02*
X96868750Y-92999725D01*
D24*
X285918750Y-76537500D02*
X286518750Y-75937500D01*
X229909250Y-91747000D02*
X229918750Y-91737500D01*
D25*
X230318750Y-131687500D02*
X230318750Y-131249725D01*
D24*
X267468750Y-76087500D02*
X266918750Y-76637500D01*
D25*
X268418750Y-131249725D02*
X268065025Y-130896000D01*
D24*
X95968750Y-74019725D02*
X95545025Y-73596000D01*
X229318750Y-75987500D02*
X229318750Y-74687500D01*
D25*
X306518750Y-132837500D02*
X306518750Y-131687500D01*
D24*
X191268750Y-74019725D02*
X190845025Y-73596000D01*
X57918750Y-112537500D02*
X57495025Y-112113775D01*
D25*
X325568750Y-132787500D02*
X325568750Y-131637500D01*
D24*
X229368750Y-114187500D02*
X229368750Y-112887500D01*
D25*
X77868750Y-94537500D02*
X77868750Y-93387500D01*
D24*
X210318750Y-112537500D02*
X209895025Y-112113775D01*
X38868750Y-112487500D02*
X38445025Y-112063775D01*
X305568750Y-112537500D02*
X305145025Y-112113775D01*
X76368750Y-114737500D02*
X76968750Y-114137500D01*
X57968750Y-74337500D02*
X57545025Y-73913775D01*
D25*
X249368750Y-131687500D02*
X249368750Y-131249725D01*
D24*
X229368750Y-112169725D02*
X228945025Y-111746000D01*
X57918750Y-114137500D02*
X57918750Y-112837500D01*
X286518750Y-114137500D02*
X286518750Y-112837500D01*
X267518750Y-114087500D02*
X267518750Y-112787500D01*
D25*
X135018750Y-92999725D02*
X134665025Y-92646000D01*
X135018750Y-93437500D02*
X135018750Y-92999725D01*
D24*
X38445025Y-112063775D02*
X38445025Y-111696000D01*
X248418750Y-114037500D02*
X248418750Y-112737500D01*
X134118750Y-112587500D02*
X133695025Y-112163775D01*
X210859250Y-91697000D02*
X210868750Y-91687500D01*
D25*
X192168750Y-131687500D02*
X192168750Y-131249725D01*
X135018750Y-94587500D02*
X135018750Y-93437500D01*
D24*
X171568750Y-114687500D02*
X172168750Y-114087500D01*
X38268750Y-114737500D02*
X38868750Y-114137500D01*
X134118750Y-74787500D02*
X134118750Y-74069725D01*
X57495025Y-112113775D02*
X57495025Y-111696000D01*
X95968750Y-74737500D02*
X95968750Y-74019725D01*
D25*
X58818750Y-93337500D02*
X58818750Y-92899725D01*
D24*
X114468750Y-114737500D02*
X115068750Y-114137500D01*
X38768750Y-74737500D02*
X38768750Y-74019725D01*
X192068750Y-92836750D02*
X191878000Y-92646000D01*
D25*
X77818750Y-131299725D02*
X77465025Y-130946000D01*
D24*
X133518750Y-76687500D02*
X134118750Y-76087500D01*
X211118750Y-92905500D02*
X210859250Y-92646000D01*
X305468750Y-74737500D02*
X305468750Y-76087500D01*
D25*
X325518750Y-94587500D02*
X325518750Y-93437500D01*
D24*
X248268750Y-73769725D02*
X247995025Y-73496000D01*
X57918750Y-112837500D02*
X57918750Y-112537500D01*
X286518750Y-75937500D02*
X286518750Y-74637500D01*
X210318750Y-112837500D02*
X210318750Y-112537500D01*
X190668750Y-76637500D02*
X191268750Y-76037500D01*
X267518750Y-112787500D02*
X267518750Y-112637500D01*
D25*
X58818750Y-94487500D02*
X58818750Y-93337500D01*
D24*
X172168750Y-74737500D02*
X172168750Y-74019725D01*
X286518750Y-112837500D02*
X286518750Y-112437500D01*
X267095025Y-73763775D02*
X267095025Y-73596000D01*
X305418750Y-74687500D02*
X305468750Y-74737500D01*
D25*
X306518750Y-131249725D02*
X306165025Y-130896000D01*
D24*
X229909250Y-92646000D02*
X229909250Y-91747000D01*
X190668750Y-114787500D02*
X191268750Y-114187500D01*
X304968750Y-114737500D02*
X305568750Y-114137500D01*
X76968750Y-74019725D02*
X76545025Y-73596000D01*
D25*
X58818750Y-92899725D02*
X58465025Y-92546000D01*
D24*
X210859250Y-92646000D02*
X210859250Y-91697000D01*
X38168750Y-76637500D02*
X38768750Y-76037500D01*
D25*
X211218750Y-131249725D02*
X210865025Y-130896000D01*
X325568750Y-131199725D02*
X325215025Y-130846000D01*
X173068750Y-94587500D02*
X173068750Y-93437500D01*
D24*
X210318750Y-114137500D02*
X210318750Y-112837500D01*
X153118750Y-114187500D02*
X153118750Y-112887500D01*
D25*
X115968750Y-132837500D02*
X115968750Y-131687500D01*
X268418750Y-131687500D02*
X268418750Y-131249725D01*
D24*
X249218750Y-92905500D02*
X248959250Y-92646000D01*
X211118750Y-94587500D02*
X211118750Y-92905500D01*
X324618750Y-74069725D02*
X324195025Y-73646000D01*
D25*
X211218750Y-132837500D02*
X211218750Y-131687500D01*
D24*
X267518750Y-112637500D02*
X267095025Y-112213775D01*
X152518750Y-114787500D02*
X153118750Y-114187500D01*
X191878000Y-92646000D02*
X191878000Y-91646750D01*
X267468750Y-74137500D02*
X267095025Y-73763775D01*
X76968750Y-114137500D02*
X76968750Y-112837500D01*
D25*
X96918750Y-132887500D02*
X96918750Y-131737500D01*
X115968750Y-92999725D02*
X115615025Y-92646000D01*
X268418750Y-132837500D02*
X268418750Y-131687500D01*
D24*
X57368750Y-76637500D02*
X57968750Y-76037500D01*
X57968750Y-76037500D02*
X57968750Y-74737500D01*
X248418750Y-112737500D02*
X248418750Y-112587500D01*
D25*
X249368750Y-132837500D02*
X249368750Y-131687500D01*
D24*
X249218750Y-94587500D02*
X249218750Y-92905500D01*
X209718750Y-76637500D02*
X210318750Y-76037500D01*
X286095025Y-112013775D02*
X286095025Y-111696000D01*
X95595025Y-112113775D02*
X95595025Y-111696000D01*
X268268750Y-94587500D02*
X268268750Y-92905500D01*
X96018750Y-114137500D02*
X96018750Y-112837500D01*
X38768750Y-76037500D02*
X38768750Y-74737500D01*
X324018750Y-76687500D02*
X324618750Y-76087500D01*
D25*
X325568750Y-131637500D02*
X325568750Y-131199725D01*
X39768750Y-94537500D02*
X39768750Y-93387500D01*
D24*
X229318750Y-73969725D02*
X228895025Y-73546000D01*
D25*
X306418750Y-93587500D02*
X306418750Y-92999725D01*
X173068750Y-93437500D02*
X173068750Y-92999725D01*
X230318750Y-131249725D02*
X229965025Y-130896000D01*
D24*
X248418750Y-112587500D02*
X247995025Y-112163775D01*
X76968750Y-74737500D02*
X76968750Y-74019725D01*
X248318750Y-74687500D02*
X248318750Y-76037500D01*
X305418750Y-73819725D02*
X305145025Y-73546000D01*
X266918750Y-114687500D02*
X267518750Y-114087500D01*
X115068750Y-74787500D02*
X115068750Y-74069725D01*
D25*
X96868750Y-94587500D02*
X96868750Y-93437500D01*
D24*
X209718750Y-114737500D02*
X210318750Y-114137500D01*
D25*
X287418750Y-93587500D02*
X287418750Y-92999725D01*
X249368750Y-131249725D02*
X249015025Y-130896000D01*
D24*
X191268750Y-76037500D02*
X191268750Y-74737500D01*
X324618750Y-74787500D02*
X324618750Y-74069725D01*
D25*
X77818750Y-131737500D02*
X77818750Y-131299725D01*
X154068750Y-93437500D02*
X154068750Y-92999725D01*
D24*
X153118750Y-112169725D02*
X152695025Y-111746000D01*
X324618750Y-76087500D02*
X324618750Y-74787500D01*
X228768750Y-114787500D02*
X229368750Y-114187500D01*
D25*
X77868750Y-93387500D02*
X77868750Y-92949725D01*
D24*
X268268750Y-92905500D02*
X268009250Y-92646000D01*
X57318750Y-114737500D02*
X57918750Y-114137500D01*
X305468750Y-76087500D02*
X304968750Y-76587500D01*
X192068750Y-94587500D02*
X192068750Y-92836750D01*
D25*
X96868750Y-92999725D02*
X96515025Y-92646000D01*
X287418750Y-94587500D02*
X287418750Y-93587500D01*
X135018750Y-131299725D02*
X134665025Y-130946000D01*
D24*
X324618750Y-112937500D02*
X324618750Y-112219725D01*
X153118750Y-74019725D02*
X152695025Y-73596000D01*
D25*
X173168750Y-131199725D02*
X172815025Y-130846000D01*
D24*
X38868750Y-112837500D02*
X38868750Y-112487500D01*
X76818750Y-111969725D02*
X76545025Y-111696000D01*
D25*
X58818750Y-132837500D02*
X58818750Y-131687500D01*
X39768750Y-131687500D02*
X39768750Y-131249725D01*
X325518750Y-93437500D02*
X325518750Y-92999725D01*
D24*
X96018750Y-112537500D02*
X95595025Y-112113775D01*
X153118750Y-76037500D02*
X153118750Y-74737500D01*
X305568750Y-112837500D02*
X305568750Y-112537500D01*
D25*
X154118750Y-131737500D02*
X154118750Y-131299725D01*
X173068750Y-92999725D02*
X172715025Y-92646000D01*
D24*
%TO.N,25*%
X68837500Y-93356250D02*
X68837500Y-95981250D01*
%TO.N,17*%
X81368750Y-106687500D02*
X81368750Y-108037500D01*
%TO.N,16*%
X82358750Y-108027500D02*
X82368750Y-108017500D01*
X82368750Y-108017500D02*
X82368750Y-106687500D01*
%TO.N,21*%
X46068750Y-90337500D02*
X46218750Y-90487500D01*
X44968750Y-90337500D02*
X46068750Y-90337500D01*
X50398450Y-90487500D02*
X50771543Y-90860593D01*
X46218750Y-90487500D02*
X50398450Y-90487500D01*
%TO.N,22*%
X46430272Y-90137500D02*
X51368750Y-90137500D01*
X45968705Y-89675933D02*
X46430272Y-90137500D01*
X45568750Y-89675933D02*
X45968705Y-89675933D01*
%TO.N,Net-(LD3-DOUT)*%
X85645621Y-76612100D02*
X86720221Y-75537500D01*
X86720221Y-75537500D02*
X95318750Y-75537500D01*
X77768750Y-76612100D02*
X85645621Y-76612100D01*
%TO.N,Net-(LD4-DOUT)*%
X113268750Y-76637500D02*
X114368750Y-75537500D01*
X96818750Y-76637500D02*
X113268750Y-76637500D01*
%TO.N,Net-(LD5-DOUT)*%
X132318750Y-76637500D02*
X133418750Y-75537500D01*
X115868750Y-76637500D02*
X132318750Y-76637500D01*
%TO.N,Net-(LD6-DOUT)*%
X134918750Y-76637500D02*
X151368750Y-76637500D01*
X151368750Y-76637500D02*
X152468750Y-75537500D01*
%TO.N,Net-(LD7-DOUT)*%
X170418750Y-76637500D02*
X171518750Y-75537500D01*
X153968750Y-76637500D02*
X170418750Y-76637500D01*
%TO.N,Net-(LD8-DOUT)*%
X189468750Y-76637500D02*
X190568750Y-75537500D01*
X173018750Y-76637500D02*
X189468750Y-76637500D01*
%TO.N,Net-(LD10-DIN)*%
X192068750Y-76637500D02*
X208518750Y-76637500D01*
X208518750Y-76637500D02*
X209618750Y-75537500D01*
%TO.N,Net-(LD10-DOUT)*%
X211118750Y-76637500D02*
X227568750Y-76637500D01*
X227568750Y-76637500D02*
X228668750Y-75537500D01*
%TO.N,Net-(LD11-DOUT)*%
X246618750Y-76637500D02*
X247718750Y-75537500D01*
X230168750Y-76637500D02*
X246618750Y-76637500D01*
%TO.N,Net-(LD12-DOUT)*%
X249218750Y-76637500D02*
X265668750Y-76637500D01*
X265668750Y-76637500D02*
X266768750Y-75537500D01*
%TO.N,Net-(LD13-DOUT)*%
X268268750Y-76637500D02*
X284718750Y-76637500D01*
X284718750Y-76637500D02*
X285818750Y-75537500D01*
%TO.N,Net-(LD14-DOUT)*%
X287318750Y-76637500D02*
X303768750Y-76637500D01*
X303768750Y-76637500D02*
X304868750Y-75537500D01*
%TO.N,Net-(LD15-DOUT)*%
X306368750Y-76637500D02*
X322818750Y-76637500D01*
X322818750Y-76637500D02*
X323918750Y-75537500D01*
%TO.N,Net-(LD16-DOUT)*%
X331818750Y-94537500D02*
X331818750Y-77737500D01*
X331818750Y-77737500D02*
X330718750Y-76637500D01*
X325418750Y-95687500D02*
X330668750Y-95687500D01*
X330718750Y-76637500D02*
X325418750Y-76637500D01*
X330668750Y-95687500D02*
X331818750Y-94537500D01*
%TO.N,Net-(LD17-DOUT)*%
X38168750Y-94587500D02*
X37218750Y-94587500D01*
X33768750Y-113637500D02*
X35568750Y-113637500D01*
X35568750Y-94637500D02*
X35568750Y-95037500D01*
X37218750Y-94587500D02*
X37168750Y-94637500D01*
X37168750Y-113637500D02*
X38168750Y-113637500D01*
X31768750Y-111637500D02*
X33768750Y-113637500D01*
X31768750Y-98837500D02*
X31768750Y-111637500D01*
X35568750Y-95037500D02*
X31768750Y-98837500D01*
%TO.N,Net-(LD17-DIN)*%
X54568750Y-94637500D02*
X53518750Y-95687500D01*
X53518750Y-95687500D02*
X39668750Y-95687500D01*
X56218750Y-94587500D02*
X56168750Y-94637500D01*
X57218750Y-94587500D02*
X56218750Y-94587500D01*
%TO.N,Net-(LD18-DIN)*%
X76268750Y-94587500D02*
X76218750Y-94587500D01*
X73618750Y-96731250D02*
X59762500Y-96731250D01*
X59762500Y-96731250D02*
X58718750Y-95687500D01*
X76218750Y-94587500D02*
X75168750Y-95637500D01*
%TO.N,Net-(LD19-DIN)*%
X78918750Y-96837500D02*
X77768750Y-95687500D01*
X95318750Y-94587500D02*
X94918750Y-94587500D01*
X92868750Y-95137500D02*
X91168750Y-96837500D01*
X91168750Y-96837500D02*
X78918750Y-96837500D01*
X94918750Y-94587500D02*
X94368750Y-95137500D01*
%TO.N,Net-(LD20-DIN)*%
X111318750Y-95687500D02*
X96818750Y-95687500D01*
X114368750Y-94587500D02*
X113918750Y-94587500D01*
X111868750Y-95137500D02*
X111318750Y-95687500D01*
X113918750Y-94587500D02*
X113368750Y-95137500D01*
%TO.N,Net-(LD21-DIN)*%
X133418750Y-94587500D02*
X132918750Y-94587500D01*
X132918750Y-94587500D02*
X132368750Y-95137500D01*
X130318750Y-95687500D02*
X115868750Y-95687500D01*
X130868750Y-95137500D02*
X130318750Y-95687500D01*
%TO.N,Net-(LD22-DIN)*%
X152468750Y-94587500D02*
X151918750Y-94587500D01*
X149868750Y-97137500D02*
X148418750Y-95687500D01*
X151918750Y-94587500D02*
X151368750Y-95137500D01*
X148418750Y-95687500D02*
X134918750Y-95687500D01*
X151368750Y-95137500D02*
X151368750Y-97137500D01*
%TO.N,Net-(LD23-DIN)*%
X170694881Y-94861369D02*
X170694881Y-96195456D01*
X167918750Y-95687500D02*
X153968750Y-95687500D01*
X168868750Y-96637500D02*
X167918750Y-95687500D01*
X171518750Y-94587500D02*
X170968750Y-94587500D01*
X170968750Y-94587500D02*
X170694881Y-94861369D01*
%TO.N,Net-(LD24-DIN)*%
X187418750Y-95687500D02*
X173018750Y-95687500D01*
X190418750Y-94587500D02*
X190568750Y-94587500D01*
X187868750Y-96137500D02*
X187418750Y-95687500D01*
X189738467Y-95267783D02*
X190418750Y-94587500D01*
X189738467Y-96174724D02*
X189738467Y-95267783D01*
%TO.N,Net-(LD25-DIN)*%
X206868750Y-95637500D02*
X206818750Y-95687500D01*
X209618750Y-94587500D02*
X209068750Y-94587500D01*
X206818750Y-95687500D02*
X192068750Y-95687500D01*
X209068750Y-94587500D02*
X208769248Y-94887002D01*
X208769248Y-94887002D02*
X208769248Y-95637500D01*
%TO.N,Net-(LD26-DIN)*%
X228668750Y-94587500D02*
X227918750Y-94587500D01*
X226229250Y-95687500D02*
X211118750Y-95687500D01*
X227918750Y-94587500D02*
X227868750Y-94637500D01*
%TO.N,Net-(LD27-DIN)*%
X246918750Y-94587500D02*
X246868750Y-94637500D01*
X245279250Y-95687500D02*
X230168750Y-95687500D01*
X247718750Y-94587500D02*
X246918750Y-94587500D01*
%TO.N,Net-(LD28-DIN)*%
X263868750Y-94637500D02*
X262818750Y-95687500D01*
X266768750Y-94587500D02*
X265918750Y-94587500D01*
X265918750Y-94587500D02*
X265868750Y-94637500D01*
X262818750Y-95687500D02*
X249218750Y-95687500D01*
%TO.N,Net-(LD29-DIN)*%
X285818750Y-94587500D02*
X284918750Y-94587500D01*
X283368750Y-94637500D02*
X282318750Y-95687500D01*
X282318750Y-95687500D02*
X268268750Y-95687500D01*
X284918750Y-94587500D02*
X284868750Y-94637500D01*
%TO.N,Net-(LD30-DIN)*%
X302318750Y-94587500D02*
X301218750Y-95687500D01*
X304868750Y-94587500D02*
X303718750Y-94587500D01*
X301218750Y-95687500D02*
X287318750Y-95687500D01*
%TO.N,Net-(LD31-DIN)*%
X320218750Y-95687500D02*
X306368750Y-95687500D01*
X323918750Y-94587500D02*
X322768750Y-94587500D01*
X321318750Y-94587500D02*
X320218750Y-95687500D01*
%TO.N,Net-(LD33-DOUT)*%
X56168750Y-113637500D02*
X57218750Y-113637500D01*
X39668750Y-114737500D02*
X53468750Y-114737500D01*
X53468750Y-114737500D02*
X54568750Y-113637500D01*
%TO.N,Net-(LD34-DOUT)*%
X58718750Y-114737500D02*
X73268750Y-114737500D01*
X75168750Y-114237500D02*
X75668750Y-114237500D01*
X75668750Y-114237500D02*
X76268750Y-113637500D01*
X73268750Y-114737500D02*
X73768750Y-114237500D01*
%TO.N,Net-(LD35-DOUT)*%
X94168750Y-114237500D02*
X94718750Y-114237500D01*
X77768750Y-114737500D02*
X92268750Y-114737500D01*
X92268750Y-114737500D02*
X92768750Y-114237500D01*
X94718750Y-114237500D02*
X95318750Y-113637500D01*
%TO.N,Net-(LD36-DOUT)*%
X97268750Y-114287500D02*
X97468750Y-114287500D01*
X113368750Y-113837500D02*
X114168750Y-113837500D01*
X110768750Y-112837500D02*
X111768750Y-113837500D01*
X114168750Y-113837500D02*
X114368750Y-113637500D01*
X97468750Y-114287500D02*
X98918750Y-112837500D01*
X98918750Y-112837500D02*
X110768750Y-112837500D01*
X96818750Y-114737500D02*
X97268750Y-114287500D01*
%TO.N,Net-(LD37-DOUT)*%
X129868750Y-114737500D02*
X130968750Y-113637500D01*
X132368750Y-113637500D02*
X133418750Y-113637500D01*
X115868750Y-114737500D02*
X129868750Y-114737500D01*
%TO.N,Net-(LD38-DOUT)*%
X148668750Y-114737500D02*
X149768750Y-113637500D01*
X151368750Y-113637500D02*
X152468750Y-113637500D01*
X134918750Y-114737500D02*
X148668750Y-114737500D01*
%TO.N,Net-(LD39-DOUT)*%
X170368750Y-113637500D02*
X171518750Y-113637500D01*
X153968750Y-114737500D02*
X167668750Y-114737500D01*
X167668750Y-114737500D02*
X168768750Y-113637500D01*
%TO.N,Net-(LD40-DOUT)*%
X186668750Y-114737500D02*
X187768750Y-113637500D01*
X189568750Y-113637500D02*
X190568750Y-113637500D01*
X173018750Y-114737500D02*
X186668750Y-114737500D01*
%TO.N,Net-(LD41-DOUT)*%
X205868750Y-114737500D02*
X206968750Y-113637500D01*
X208568750Y-113637500D02*
X209618750Y-113637500D01*
X192068750Y-114737500D02*
X205868750Y-114737500D01*
%TO.N,Net-(LD42-DOUT)*%
X226168750Y-113637500D02*
X225068750Y-114737500D01*
X225068750Y-114737500D02*
X211118750Y-114737500D01*
X227568750Y-113637500D02*
X228668750Y-113637500D01*
%TO.N,Net-(LD43-DOUT)*%
X246568750Y-113637500D02*
X247718750Y-113637500D01*
X243868750Y-114737500D02*
X244968750Y-113637500D01*
X230168750Y-114737500D02*
X243868750Y-114737500D01*
%TO.N,Net-(LD44-DOUT)*%
X249218750Y-114737500D02*
X262868750Y-114737500D01*
X262868750Y-114737500D02*
X263968750Y-113637500D01*
X265768750Y-113637500D02*
X266768750Y-113637500D01*
%TO.N,Net-(LD45-DOUT)*%
X284768750Y-113637500D02*
X285818750Y-113637500D01*
X268268750Y-114737500D02*
X281868750Y-114737500D01*
X281868750Y-114737500D02*
X282968750Y-113637500D01*
%TO.N,Net-(LD46-DOUT)*%
X303968750Y-113637500D02*
X304868750Y-113637500D01*
X301068750Y-114737500D02*
X302168750Y-113637500D01*
X287318750Y-114737500D02*
X301068750Y-114737500D01*
%TO.N,Net-(LD47-DOUT)*%
X320068750Y-114737500D02*
X321168750Y-113637500D01*
X322968750Y-113637500D02*
X323918750Y-113637500D01*
X306368750Y-114737500D02*
X320068750Y-114737500D01*
%TO.N,Net-(LD48-DOUT)*%
X331768750Y-132237500D02*
X330018750Y-133987500D01*
X330018750Y-133987500D02*
X325418750Y-133987500D01*
X330268750Y-114737500D02*
X331768750Y-116237500D01*
X325418750Y-114737500D02*
X330268750Y-114737500D01*
X331768750Y-116237500D02*
X331768750Y-132237500D01*
%TO.N,Net-(LD49-DIN)*%
X56318750Y-132887500D02*
X56168750Y-133037500D01*
X57218750Y-132887500D02*
X56318750Y-132887500D01*
X53618750Y-133987500D02*
X39668750Y-133987500D01*
X54568750Y-133037500D02*
X53618750Y-133987500D01*
%TO.N,Net-(LD50-DIN)*%
X72618750Y-133987500D02*
X58718750Y-133987500D01*
X73768750Y-132837500D02*
X72618750Y-133987500D01*
X75218750Y-132887500D02*
X75168750Y-132837500D01*
X76268750Y-132887500D02*
X75218750Y-132887500D01*
%TO.N,Net-(LD51-DIN)*%
X92768750Y-133037500D02*
X91818750Y-133987500D01*
X91818750Y-133987500D02*
X77768750Y-133987500D01*
X94518750Y-132887500D02*
X94368750Y-133037500D01*
X95318750Y-132887500D02*
X94518750Y-132887500D01*
%TO.N,Net-(LD52-DIN)*%
X110618750Y-133987500D02*
X96818750Y-133987500D01*
X111768750Y-132837500D02*
X110618750Y-133987500D01*
X114368750Y-132887500D02*
X113418750Y-132887500D01*
X113418750Y-132887500D02*
X113368750Y-132837500D01*
%TO.N,Net-(LD53-DIN)*%
X132518750Y-132887500D02*
X132368750Y-133037500D01*
X129818750Y-133987500D02*
X115868750Y-133987500D01*
X130768750Y-133037500D02*
X129818750Y-133987500D01*
X133418750Y-132887500D02*
X132518750Y-132887500D01*
%TO.N,Net-(LD54-DIN)*%
X145368750Y-130637500D02*
X138268750Y-130637500D01*
X151418750Y-132887500D02*
X151368750Y-132837500D01*
X138268750Y-130637500D02*
X134918750Y-133987500D01*
X152468750Y-132887500D02*
X151418750Y-132887500D01*
%TO.N,Net-(LD55-DIN)*%
X168968750Y-132837500D02*
X167818750Y-133987500D01*
X167818750Y-133987500D02*
X153968750Y-133987500D01*
X171518750Y-132887500D02*
X170618750Y-132887500D01*
X170618750Y-132887500D02*
X170568750Y-132837500D01*
%TO.N,Net-(LD56-DIN)*%
X187968750Y-132837500D02*
X186818750Y-133987500D01*
X186818750Y-133987500D02*
X173018750Y-133987500D01*
X189618750Y-132887500D02*
X189568750Y-132837500D01*
X190568750Y-132887500D02*
X189618750Y-132887500D01*
%TO.N,Net-(LD57-DIN)*%
X206968750Y-133037500D02*
X206018750Y-133987500D01*
X206018750Y-133987500D02*
X192068750Y-133987500D01*
X208718750Y-132887500D02*
X208568750Y-133037500D01*
X209618750Y-132887500D02*
X208718750Y-132887500D01*
%TO.N,Net-(LD58-DIN)*%
X227918750Y-132887500D02*
X227768750Y-133037500D01*
X228668750Y-132887500D02*
X227918750Y-132887500D01*
X214818750Y-133987500D02*
X211118750Y-133987500D01*
X221568750Y-130437500D02*
X218368750Y-130437500D01*
X218368750Y-130437500D02*
X214818750Y-133987500D01*
%TO.N,Net-(LD59-DIN)*%
X247718750Y-132887500D02*
X246918750Y-132887500D01*
X244218750Y-133987500D02*
X230168750Y-133987500D01*
X246918750Y-132887500D02*
X246768750Y-133037500D01*
X245168750Y-133037500D02*
X244218750Y-133987500D01*
%TO.N,Net-(LD60-DIN)*%
X264168750Y-133037500D02*
X263218750Y-133987500D01*
X266768750Y-132887500D02*
X265918750Y-132887500D01*
X263218750Y-133987500D02*
X249218750Y-133987500D01*
X265918750Y-132887500D02*
X265768750Y-133037500D01*
%TO.N,Net-(LD61-DIN)*%
X283168750Y-133037500D02*
X282218750Y-133987500D01*
X285818750Y-132887500D02*
X284918750Y-132887500D01*
X284918750Y-132887500D02*
X284768750Y-133037500D01*
X282218750Y-133987500D02*
X268268750Y-133987500D01*
%TO.N,Net-(LD62-DIN)*%
X304118750Y-132887500D02*
X303968750Y-133037500D01*
X301218750Y-133987500D02*
X287318750Y-133987500D01*
X302168750Y-133037500D02*
X301218750Y-133987500D01*
X304868750Y-132887500D02*
X304118750Y-132887500D01*
%TO.N,Net-(LD63-DIN)*%
X323118750Y-132887500D02*
X322968750Y-133037500D01*
X321168750Y-133037500D02*
X320218750Y-133987500D01*
X320218750Y-133987500D02*
X306368750Y-133987500D01*
X323918750Y-132887500D02*
X323118750Y-132887500D01*
%TD*%
M02*
