%TF.GenerationSoftware,KiCad,Pcbnew,(6.0.0)*%
%TF.CreationDate,2022-04-30T21:46:17-04:00*%
%TF.ProjectId,SweetBusiness,53776565-7442-4757-9369-6e6573732e6b,rev?*%
%TF.SameCoordinates,Original*%
%TF.FileFunction,Legend,Bot*%
%TF.FilePolarity,Positive*%
%FSLAX46Y46*%
G04 Gerber Fmt 4.6, Leading zero omitted, Abs format (unit mm)*
G04 Created by KiCad (PCBNEW (6.0.0)) date 2022-04-30 21:46:17*
%MOMM*%
%LPD*%
G01*
G04 APERTURE LIST*
%ADD10C,0.120000*%
%ADD11C,0.150000*%
%ADD12C,0.040000*%
%ADD13C,0.127000*%
G04 APERTURE END LIST*
D10*
X509079500Y-141128750D02*
X507492000Y-141128750D01*
X510667000Y-142716250D02*
X509079500Y-141128750D01*
X512254500Y-141128750D02*
X510667000Y-142716250D01*
X513842000Y-141128750D02*
X512254500Y-141128750D01*
X513842000Y-141128750D02*
G75*
G03*
X513842000Y-141128750I-3175000J0D01*
G01*
D11*
%TO.C,U0*%
X493680654Y-151339880D02*
X493680654Y-152149404D01*
X493633035Y-152244642D01*
X493585416Y-152292261D01*
X493490178Y-152339880D01*
X493299702Y-152339880D01*
X493204464Y-152292261D01*
X493156845Y-152244642D01*
X493109226Y-152149404D01*
X493109226Y-151339880D01*
X492442559Y-151339880D02*
X492347321Y-151339880D01*
X492252083Y-151387500D01*
X492204464Y-151435119D01*
X492156845Y-151530357D01*
X492109226Y-151720833D01*
X492109226Y-151958928D01*
X492156845Y-152149404D01*
X492204464Y-152244642D01*
X492252083Y-152292261D01*
X492347321Y-152339880D01*
X492442559Y-152339880D01*
X492537797Y-152292261D01*
X492585416Y-152244642D01*
X492633035Y-152149404D01*
X492680654Y-151958928D01*
X492680654Y-151720833D01*
X492633035Y-151530357D01*
X492585416Y-151435119D01*
X492537797Y-151387500D01*
X492442559Y-151339880D01*
%TO.C,TX1*%
X514652380Y-149637904D02*
X514652380Y-150209333D01*
X515652380Y-149923619D02*
X514652380Y-149923619D01*
X514652380Y-150447428D02*
X515652380Y-151114095D01*
X514652380Y-151114095D02*
X515652380Y-150447428D01*
X515652380Y-152018857D02*
X515652380Y-151447428D01*
X515652380Y-151733142D02*
X514652380Y-151733142D01*
X514795238Y-151637904D01*
X514890476Y-151542666D01*
X514938095Y-151447428D01*
%TO.C,K70*%
X465558035Y-202064680D02*
X465558035Y-201064680D01*
X464986607Y-202064680D02*
X465415178Y-201493252D01*
X464986607Y-201064680D02*
X465558035Y-201636109D01*
X464653273Y-201064680D02*
X463986607Y-201064680D01*
X464415178Y-202064680D01*
X463415178Y-201064680D02*
X463319940Y-201064680D01*
X463224702Y-201112300D01*
X463177083Y-201159919D01*
X463129464Y-201255157D01*
X463081845Y-201445633D01*
X463081845Y-201683728D01*
X463129464Y-201874204D01*
X463177083Y-201969442D01*
X463224702Y-202017061D01*
X463319940Y-202064680D01*
X463415178Y-202064680D01*
X463510416Y-202017061D01*
X463558035Y-201969442D01*
X463605654Y-201874204D01*
X463653273Y-201683728D01*
X463653273Y-201445633D01*
X463605654Y-201255157D01*
X463558035Y-201159919D01*
X463510416Y-201112300D01*
X463415178Y-201064680D01*
%TO.C,K42*%
X341733035Y-183014680D02*
X341733035Y-182014680D01*
X341161607Y-183014680D02*
X341590178Y-182443252D01*
X341161607Y-182014680D02*
X341733035Y-182586109D01*
X340304464Y-182348014D02*
X340304464Y-183014680D01*
X340542559Y-181967061D02*
X340780654Y-182681347D01*
X340161607Y-182681347D01*
X339828273Y-182109919D02*
X339780654Y-182062300D01*
X339685416Y-182014680D01*
X339447321Y-182014680D01*
X339352083Y-182062300D01*
X339304464Y-182109919D01*
X339256845Y-182205157D01*
X339256845Y-182300395D01*
X339304464Y-182443252D01*
X339875892Y-183014680D01*
X339256845Y-183014680D01*
%TO.C,K44*%
X403645535Y-183014680D02*
X403645535Y-182014680D01*
X403074107Y-183014680D02*
X403502678Y-182443252D01*
X403074107Y-182014680D02*
X403645535Y-182586109D01*
X402216964Y-182348014D02*
X402216964Y-183014680D01*
X402455059Y-181967061D02*
X402693154Y-182681347D01*
X402074107Y-182681347D01*
X401264583Y-182348014D02*
X401264583Y-183014680D01*
X401502678Y-181967061D02*
X401740773Y-182681347D01*
X401121726Y-182681347D01*
%TO.C,K8*%
X274581845Y-135389680D02*
X274581845Y-134389680D01*
X274010416Y-135389680D02*
X274438988Y-134818252D01*
X274010416Y-134389680D02*
X274581845Y-134961109D01*
X273438988Y-134818252D02*
X273534226Y-134770633D01*
X273581845Y-134723014D01*
X273629464Y-134627776D01*
X273629464Y-134580157D01*
X273581845Y-134484919D01*
X273534226Y-134437300D01*
X273438988Y-134389680D01*
X273248511Y-134389680D01*
X273153273Y-134437300D01*
X273105654Y-134484919D01*
X273058035Y-134580157D01*
X273058035Y-134627776D01*
X273105654Y-134723014D01*
X273153273Y-134770633D01*
X273248511Y-134818252D01*
X273438988Y-134818252D01*
X273534226Y-134865871D01*
X273581845Y-134913490D01*
X273629464Y-135008728D01*
X273629464Y-135199204D01*
X273581845Y-135294442D01*
X273534226Y-135342061D01*
X273438988Y-135389680D01*
X273248511Y-135389680D01*
X273153273Y-135342061D01*
X273105654Y-135294442D01*
X273058035Y-135199204D01*
X273058035Y-135008728D01*
X273105654Y-134913490D01*
X273153273Y-134865871D01*
X273248511Y-134818252D01*
%TO.C,K125*%
X485084226Y-259214680D02*
X485084226Y-258214680D01*
X484512797Y-259214680D02*
X484941369Y-258643252D01*
X484512797Y-258214680D02*
X485084226Y-258786109D01*
X483560416Y-259214680D02*
X484131845Y-259214680D01*
X483846130Y-259214680D02*
X483846130Y-258214680D01*
X483941369Y-258357538D01*
X484036607Y-258452776D01*
X484131845Y-258500395D01*
X483179464Y-258309919D02*
X483131845Y-258262300D01*
X483036607Y-258214680D01*
X482798511Y-258214680D01*
X482703273Y-258262300D01*
X482655654Y-258309919D01*
X482608035Y-258405157D01*
X482608035Y-258500395D01*
X482655654Y-258643252D01*
X483227083Y-259214680D01*
X482608035Y-259214680D01*
X481703273Y-258214680D02*
X482179464Y-258214680D01*
X482227083Y-258690871D01*
X482179464Y-258643252D01*
X482084226Y-258595633D01*
X481846130Y-258595633D01*
X481750892Y-258643252D01*
X481703273Y-258690871D01*
X481655654Y-258786109D01*
X481655654Y-259024204D01*
X481703273Y-259119442D01*
X481750892Y-259167061D01*
X481846130Y-259214680D01*
X482084226Y-259214680D01*
X482179464Y-259167061D01*
X482227083Y-259119442D01*
%TO.C,K110*%
X504134226Y-240164680D02*
X504134226Y-239164680D01*
X503562797Y-240164680D02*
X503991369Y-239593252D01*
X503562797Y-239164680D02*
X504134226Y-239736109D01*
X502610416Y-240164680D02*
X503181845Y-240164680D01*
X502896130Y-240164680D02*
X502896130Y-239164680D01*
X502991369Y-239307538D01*
X503086607Y-239402776D01*
X503181845Y-239450395D01*
X501658035Y-240164680D02*
X502229464Y-240164680D01*
X501943750Y-240164680D02*
X501943750Y-239164680D01*
X502038988Y-239307538D01*
X502134226Y-239402776D01*
X502229464Y-239450395D01*
X501038988Y-239164680D02*
X500943750Y-239164680D01*
X500848511Y-239212300D01*
X500800892Y-239259919D01*
X500753273Y-239355157D01*
X500705654Y-239545633D01*
X500705654Y-239783728D01*
X500753273Y-239974204D01*
X500800892Y-240069442D01*
X500848511Y-240117061D01*
X500943750Y-240164680D01*
X501038988Y-240164680D01*
X501134226Y-240117061D01*
X501181845Y-240069442D01*
X501229464Y-239974204D01*
X501277083Y-239783728D01*
X501277083Y-239545633D01*
X501229464Y-239355157D01*
X501181845Y-239259919D01*
X501134226Y-239212300D01*
X501038988Y-239164680D01*
%TO.C,K84*%
X279820535Y-221114680D02*
X279820535Y-220114680D01*
X279249107Y-221114680D02*
X279677678Y-220543252D01*
X279249107Y-220114680D02*
X279820535Y-220686109D01*
X278677678Y-220543252D02*
X278772916Y-220495633D01*
X278820535Y-220448014D01*
X278868154Y-220352776D01*
X278868154Y-220305157D01*
X278820535Y-220209919D01*
X278772916Y-220162300D01*
X278677678Y-220114680D01*
X278487202Y-220114680D01*
X278391964Y-220162300D01*
X278344345Y-220209919D01*
X278296726Y-220305157D01*
X278296726Y-220352776D01*
X278344345Y-220448014D01*
X278391964Y-220495633D01*
X278487202Y-220543252D01*
X278677678Y-220543252D01*
X278772916Y-220590871D01*
X278820535Y-220638490D01*
X278868154Y-220733728D01*
X278868154Y-220924204D01*
X278820535Y-221019442D01*
X278772916Y-221067061D01*
X278677678Y-221114680D01*
X278487202Y-221114680D01*
X278391964Y-221067061D01*
X278344345Y-221019442D01*
X278296726Y-220924204D01*
X278296726Y-220733728D01*
X278344345Y-220638490D01*
X278391964Y-220590871D01*
X278487202Y-220543252D01*
X277439583Y-220448014D02*
X277439583Y-221114680D01*
X277677678Y-220067061D02*
X277915773Y-220781347D01*
X277296726Y-220781347D01*
%TO.C,K79*%
X184570535Y-221114680D02*
X184570535Y-220114680D01*
X183999107Y-221114680D02*
X184427678Y-220543252D01*
X183999107Y-220114680D02*
X184570535Y-220686109D01*
X183665773Y-220114680D02*
X182999107Y-220114680D01*
X183427678Y-221114680D01*
X182570535Y-221114680D02*
X182380059Y-221114680D01*
X182284821Y-221067061D01*
X182237202Y-221019442D01*
X182141964Y-220876585D01*
X182094345Y-220686109D01*
X182094345Y-220305157D01*
X182141964Y-220209919D01*
X182189583Y-220162300D01*
X182284821Y-220114680D01*
X182475297Y-220114680D01*
X182570535Y-220162300D01*
X182618154Y-220209919D01*
X182665773Y-220305157D01*
X182665773Y-220543252D01*
X182618154Y-220638490D01*
X182570535Y-220686109D01*
X182475297Y-220733728D01*
X182284821Y-220733728D01*
X182189583Y-220686109D01*
X182141964Y-220638490D01*
X182094345Y-220543252D01*
%TO.C,K38*%
X265533035Y-183014680D02*
X265533035Y-182014680D01*
X264961607Y-183014680D02*
X265390178Y-182443252D01*
X264961607Y-182014680D02*
X265533035Y-182586109D01*
X264628273Y-182014680D02*
X264009226Y-182014680D01*
X264342559Y-182395633D01*
X264199702Y-182395633D01*
X264104464Y-182443252D01*
X264056845Y-182490871D01*
X264009226Y-182586109D01*
X264009226Y-182824204D01*
X264056845Y-182919442D01*
X264104464Y-182967061D01*
X264199702Y-183014680D01*
X264485416Y-183014680D01*
X264580654Y-182967061D01*
X264628273Y-182919442D01*
X263437797Y-182443252D02*
X263533035Y-182395633D01*
X263580654Y-182348014D01*
X263628273Y-182252776D01*
X263628273Y-182205157D01*
X263580654Y-182109919D01*
X263533035Y-182062300D01*
X263437797Y-182014680D01*
X263247321Y-182014680D01*
X263152083Y-182062300D01*
X263104464Y-182109919D01*
X263056845Y-182205157D01*
X263056845Y-182252776D01*
X263104464Y-182348014D01*
X263152083Y-182395633D01*
X263247321Y-182443252D01*
X263437797Y-182443252D01*
X263533035Y-182490871D01*
X263580654Y-182538490D01*
X263628273Y-182633728D01*
X263628273Y-182824204D01*
X263580654Y-182919442D01*
X263533035Y-182967061D01*
X263437797Y-183014680D01*
X263247321Y-183014680D01*
X263152083Y-182967061D01*
X263104464Y-182919442D01*
X263056845Y-182824204D01*
X263056845Y-182633728D01*
X263104464Y-182538490D01*
X263152083Y-182490871D01*
X263247321Y-182443252D01*
%TO.C,K37*%
X246483035Y-183014680D02*
X246483035Y-182014680D01*
X245911607Y-183014680D02*
X246340178Y-182443252D01*
X245911607Y-182014680D02*
X246483035Y-182586109D01*
X245578273Y-182014680D02*
X244959226Y-182014680D01*
X245292559Y-182395633D01*
X245149702Y-182395633D01*
X245054464Y-182443252D01*
X245006845Y-182490871D01*
X244959226Y-182586109D01*
X244959226Y-182824204D01*
X245006845Y-182919442D01*
X245054464Y-182967061D01*
X245149702Y-183014680D01*
X245435416Y-183014680D01*
X245530654Y-182967061D01*
X245578273Y-182919442D01*
X244625892Y-182014680D02*
X243959226Y-182014680D01*
X244387797Y-183014680D01*
%TO.C,K29*%
X89320535Y-183014680D02*
X89320535Y-182014680D01*
X88749107Y-183014680D02*
X89177678Y-182443252D01*
X88749107Y-182014680D02*
X89320535Y-182586109D01*
X88368154Y-182109919D02*
X88320535Y-182062300D01*
X88225297Y-182014680D01*
X87987202Y-182014680D01*
X87891964Y-182062300D01*
X87844345Y-182109919D01*
X87796726Y-182205157D01*
X87796726Y-182300395D01*
X87844345Y-182443252D01*
X88415773Y-183014680D01*
X87796726Y-183014680D01*
X87320535Y-183014680D02*
X87130059Y-183014680D01*
X87034821Y-182967061D01*
X86987202Y-182919442D01*
X86891964Y-182776585D01*
X86844345Y-182586109D01*
X86844345Y-182205157D01*
X86891964Y-182109919D01*
X86939583Y-182062300D01*
X87034821Y-182014680D01*
X87225297Y-182014680D01*
X87320535Y-182062300D01*
X87368154Y-182109919D01*
X87415773Y-182205157D01*
X87415773Y-182443252D01*
X87368154Y-182538490D01*
X87320535Y-182586109D01*
X87225297Y-182633728D01*
X87034821Y-182633728D01*
X86939583Y-182586109D01*
X86891964Y-182538490D01*
X86844345Y-182443252D01*
%TO.C,K49*%
X503658035Y-183014680D02*
X503658035Y-182014680D01*
X503086607Y-183014680D02*
X503515178Y-182443252D01*
X503086607Y-182014680D02*
X503658035Y-182586109D01*
X502229464Y-182348014D02*
X502229464Y-183014680D01*
X502467559Y-181967061D02*
X502705654Y-182681347D01*
X502086607Y-182681347D01*
X501658035Y-183014680D02*
X501467559Y-183014680D01*
X501372321Y-182967061D01*
X501324702Y-182919442D01*
X501229464Y-182776585D01*
X501181845Y-182586109D01*
X501181845Y-182205157D01*
X501229464Y-182109919D01*
X501277083Y-182062300D01*
X501372321Y-182014680D01*
X501562797Y-182014680D01*
X501658035Y-182062300D01*
X501705654Y-182109919D01*
X501753273Y-182205157D01*
X501753273Y-182443252D01*
X501705654Y-182538490D01*
X501658035Y-182586109D01*
X501562797Y-182633728D01*
X501372321Y-182633728D01*
X501277083Y-182586109D01*
X501229464Y-182538490D01*
X501181845Y-182443252D01*
%TO.C,K82*%
X241720535Y-221114680D02*
X241720535Y-220114680D01*
X241149107Y-221114680D02*
X241577678Y-220543252D01*
X241149107Y-220114680D02*
X241720535Y-220686109D01*
X240577678Y-220543252D02*
X240672916Y-220495633D01*
X240720535Y-220448014D01*
X240768154Y-220352776D01*
X240768154Y-220305157D01*
X240720535Y-220209919D01*
X240672916Y-220162300D01*
X240577678Y-220114680D01*
X240387202Y-220114680D01*
X240291964Y-220162300D01*
X240244345Y-220209919D01*
X240196726Y-220305157D01*
X240196726Y-220352776D01*
X240244345Y-220448014D01*
X240291964Y-220495633D01*
X240387202Y-220543252D01*
X240577678Y-220543252D01*
X240672916Y-220590871D01*
X240720535Y-220638490D01*
X240768154Y-220733728D01*
X240768154Y-220924204D01*
X240720535Y-221019442D01*
X240672916Y-221067061D01*
X240577678Y-221114680D01*
X240387202Y-221114680D01*
X240291964Y-221067061D01*
X240244345Y-221019442D01*
X240196726Y-220924204D01*
X240196726Y-220733728D01*
X240244345Y-220638490D01*
X240291964Y-220590871D01*
X240387202Y-220543252D01*
X239815773Y-220209919D02*
X239768154Y-220162300D01*
X239672916Y-220114680D01*
X239434821Y-220114680D01*
X239339583Y-220162300D01*
X239291964Y-220209919D01*
X239244345Y-220305157D01*
X239244345Y-220400395D01*
X239291964Y-220543252D01*
X239863392Y-221114680D01*
X239244345Y-221114680D01*
%TO.C,K3*%
X169806845Y-135389680D02*
X169806845Y-134389680D01*
X169235416Y-135389680D02*
X169663988Y-134818252D01*
X169235416Y-134389680D02*
X169806845Y-134961109D01*
X168902083Y-134389680D02*
X168283035Y-134389680D01*
X168616369Y-134770633D01*
X168473511Y-134770633D01*
X168378273Y-134818252D01*
X168330654Y-134865871D01*
X168283035Y-134961109D01*
X168283035Y-135199204D01*
X168330654Y-135294442D01*
X168378273Y-135342061D01*
X168473511Y-135389680D01*
X168759226Y-135389680D01*
X168854464Y-135342061D01*
X168902083Y-135294442D01*
%TO.C,K39*%
X284583035Y-183014680D02*
X284583035Y-182014680D01*
X284011607Y-183014680D02*
X284440178Y-182443252D01*
X284011607Y-182014680D02*
X284583035Y-182586109D01*
X283678273Y-182014680D02*
X283059226Y-182014680D01*
X283392559Y-182395633D01*
X283249702Y-182395633D01*
X283154464Y-182443252D01*
X283106845Y-182490871D01*
X283059226Y-182586109D01*
X283059226Y-182824204D01*
X283106845Y-182919442D01*
X283154464Y-182967061D01*
X283249702Y-183014680D01*
X283535416Y-183014680D01*
X283630654Y-182967061D01*
X283678273Y-182919442D01*
X282583035Y-183014680D02*
X282392559Y-183014680D01*
X282297321Y-182967061D01*
X282249702Y-182919442D01*
X282154464Y-182776585D01*
X282106845Y-182586109D01*
X282106845Y-182205157D01*
X282154464Y-182109919D01*
X282202083Y-182062300D01*
X282297321Y-182014680D01*
X282487797Y-182014680D01*
X282583035Y-182062300D01*
X282630654Y-182109919D01*
X282678273Y-182205157D01*
X282678273Y-182443252D01*
X282630654Y-182538490D01*
X282583035Y-182586109D01*
X282487797Y-182633728D01*
X282297321Y-182633728D01*
X282202083Y-182586109D01*
X282154464Y-182538490D01*
X282106845Y-182443252D01*
%TO.C,K123*%
X442221726Y-259214680D02*
X442221726Y-258214680D01*
X441650297Y-259214680D02*
X442078869Y-258643252D01*
X441650297Y-258214680D02*
X442221726Y-258786109D01*
X440697916Y-259214680D02*
X441269345Y-259214680D01*
X440983630Y-259214680D02*
X440983630Y-258214680D01*
X441078869Y-258357538D01*
X441174107Y-258452776D01*
X441269345Y-258500395D01*
X440316964Y-258309919D02*
X440269345Y-258262300D01*
X440174107Y-258214680D01*
X439936011Y-258214680D01*
X439840773Y-258262300D01*
X439793154Y-258309919D01*
X439745535Y-258405157D01*
X439745535Y-258500395D01*
X439793154Y-258643252D01*
X440364583Y-259214680D01*
X439745535Y-259214680D01*
X439412202Y-258214680D02*
X438793154Y-258214680D01*
X439126488Y-258595633D01*
X438983630Y-258595633D01*
X438888392Y-258643252D01*
X438840773Y-258690871D01*
X438793154Y-258786109D01*
X438793154Y-259024204D01*
X438840773Y-259119442D01*
X438888392Y-259167061D01*
X438983630Y-259214680D01*
X439269345Y-259214680D01*
X439364583Y-259167061D01*
X439412202Y-259119442D01*
%TO.C,K24*%
X379833035Y-154439680D02*
X379833035Y-153439680D01*
X379261607Y-154439680D02*
X379690178Y-153868252D01*
X379261607Y-153439680D02*
X379833035Y-154011109D01*
X378880654Y-153534919D02*
X378833035Y-153487300D01*
X378737797Y-153439680D01*
X378499702Y-153439680D01*
X378404464Y-153487300D01*
X378356845Y-153534919D01*
X378309226Y-153630157D01*
X378309226Y-153725395D01*
X378356845Y-153868252D01*
X378928273Y-154439680D01*
X378309226Y-154439680D01*
X377452083Y-153773014D02*
X377452083Y-154439680D01*
X377690178Y-153392061D02*
X377928273Y-154106347D01*
X377309226Y-154106347D01*
%TO.C,K17*%
X236958035Y-154439680D02*
X236958035Y-153439680D01*
X236386607Y-154439680D02*
X236815178Y-153868252D01*
X236386607Y-153439680D02*
X236958035Y-154011109D01*
X235434226Y-154439680D02*
X236005654Y-154439680D01*
X235719940Y-154439680D02*
X235719940Y-153439680D01*
X235815178Y-153582538D01*
X235910416Y-153677776D01*
X236005654Y-153725395D01*
X235100892Y-153439680D02*
X234434226Y-153439680D01*
X234862797Y-154439680D01*
%TO.C,K73*%
X522708035Y-202064680D02*
X522708035Y-201064680D01*
X522136607Y-202064680D02*
X522565178Y-201493252D01*
X522136607Y-201064680D02*
X522708035Y-201636109D01*
X521803273Y-201064680D02*
X521136607Y-201064680D01*
X521565178Y-202064680D01*
X520850892Y-201064680D02*
X520231845Y-201064680D01*
X520565178Y-201445633D01*
X520422321Y-201445633D01*
X520327083Y-201493252D01*
X520279464Y-201540871D01*
X520231845Y-201636109D01*
X520231845Y-201874204D01*
X520279464Y-201969442D01*
X520327083Y-202017061D01*
X520422321Y-202064680D01*
X520708035Y-202064680D01*
X520803273Y-202017061D01*
X520850892Y-201969442D01*
%TO.C,K35*%
X208383035Y-183014680D02*
X208383035Y-182014680D01*
X207811607Y-183014680D02*
X208240178Y-182443252D01*
X207811607Y-182014680D02*
X208383035Y-182586109D01*
X207478273Y-182014680D02*
X206859226Y-182014680D01*
X207192559Y-182395633D01*
X207049702Y-182395633D01*
X206954464Y-182443252D01*
X206906845Y-182490871D01*
X206859226Y-182586109D01*
X206859226Y-182824204D01*
X206906845Y-182919442D01*
X206954464Y-182967061D01*
X207049702Y-183014680D01*
X207335416Y-183014680D01*
X207430654Y-182967061D01*
X207478273Y-182919442D01*
X205954464Y-182014680D02*
X206430654Y-182014680D01*
X206478273Y-182490871D01*
X206430654Y-182443252D01*
X206335416Y-182395633D01*
X206097321Y-182395633D01*
X206002083Y-182443252D01*
X205954464Y-182490871D01*
X205906845Y-182586109D01*
X205906845Y-182824204D01*
X205954464Y-182919442D01*
X206002083Y-182967061D01*
X206097321Y-183014680D01*
X206335416Y-183014680D01*
X206430654Y-182967061D01*
X206478273Y-182919442D01*
%TO.C,K92*%
X522708035Y-221114680D02*
X522708035Y-220114680D01*
X522136607Y-221114680D02*
X522565178Y-220543252D01*
X522136607Y-220114680D02*
X522708035Y-220686109D01*
X521660416Y-221114680D02*
X521469940Y-221114680D01*
X521374702Y-221067061D01*
X521327083Y-221019442D01*
X521231845Y-220876585D01*
X521184226Y-220686109D01*
X521184226Y-220305157D01*
X521231845Y-220209919D01*
X521279464Y-220162300D01*
X521374702Y-220114680D01*
X521565178Y-220114680D01*
X521660416Y-220162300D01*
X521708035Y-220209919D01*
X521755654Y-220305157D01*
X521755654Y-220543252D01*
X521708035Y-220638490D01*
X521660416Y-220686109D01*
X521565178Y-220733728D01*
X521374702Y-220733728D01*
X521279464Y-220686109D01*
X521231845Y-220638490D01*
X521184226Y-220543252D01*
X520803273Y-220209919D02*
X520755654Y-220162300D01*
X520660416Y-220114680D01*
X520422321Y-220114680D01*
X520327083Y-220162300D01*
X520279464Y-220209919D01*
X520231845Y-220305157D01*
X520231845Y-220400395D01*
X520279464Y-220543252D01*
X520850892Y-221114680D01*
X520231845Y-221114680D01*
%TO.C,K61*%
X275058035Y-202064680D02*
X275058035Y-201064680D01*
X274486607Y-202064680D02*
X274915178Y-201493252D01*
X274486607Y-201064680D02*
X275058035Y-201636109D01*
X273629464Y-201064680D02*
X273819940Y-201064680D01*
X273915178Y-201112300D01*
X273962797Y-201159919D01*
X274058035Y-201302776D01*
X274105654Y-201493252D01*
X274105654Y-201874204D01*
X274058035Y-201969442D01*
X274010416Y-202017061D01*
X273915178Y-202064680D01*
X273724702Y-202064680D01*
X273629464Y-202017061D01*
X273581845Y-201969442D01*
X273534226Y-201874204D01*
X273534226Y-201636109D01*
X273581845Y-201540871D01*
X273629464Y-201493252D01*
X273724702Y-201445633D01*
X273915178Y-201445633D01*
X274010416Y-201493252D01*
X274058035Y-201540871D01*
X274105654Y-201636109D01*
X272581845Y-202064680D02*
X273153273Y-202064680D01*
X272867559Y-202064680D02*
X272867559Y-201064680D01*
X272962797Y-201207538D01*
X273058035Y-201302776D01*
X273153273Y-201350395D01*
%TO.C,K30*%
X113133035Y-183014680D02*
X113133035Y-182014680D01*
X112561607Y-183014680D02*
X112990178Y-182443252D01*
X112561607Y-182014680D02*
X113133035Y-182586109D01*
X112228273Y-182014680D02*
X111609226Y-182014680D01*
X111942559Y-182395633D01*
X111799702Y-182395633D01*
X111704464Y-182443252D01*
X111656845Y-182490871D01*
X111609226Y-182586109D01*
X111609226Y-182824204D01*
X111656845Y-182919442D01*
X111704464Y-182967061D01*
X111799702Y-183014680D01*
X112085416Y-183014680D01*
X112180654Y-182967061D01*
X112228273Y-182919442D01*
X110990178Y-182014680D02*
X110894940Y-182014680D01*
X110799702Y-182062300D01*
X110752083Y-182109919D01*
X110704464Y-182205157D01*
X110656845Y-182395633D01*
X110656845Y-182633728D01*
X110704464Y-182824204D01*
X110752083Y-182919442D01*
X110799702Y-182967061D01*
X110894940Y-183014680D01*
X110990178Y-183014680D01*
X111085416Y-182967061D01*
X111133035Y-182919442D01*
X111180654Y-182824204D01*
X111228273Y-182633728D01*
X111228273Y-182395633D01*
X111180654Y-182205157D01*
X111133035Y-182109919D01*
X111085416Y-182062300D01*
X110990178Y-182014680D01*
%TO.C,K83*%
X260770535Y-221114680D02*
X260770535Y-220114680D01*
X260199107Y-221114680D02*
X260627678Y-220543252D01*
X260199107Y-220114680D02*
X260770535Y-220686109D01*
X259627678Y-220543252D02*
X259722916Y-220495633D01*
X259770535Y-220448014D01*
X259818154Y-220352776D01*
X259818154Y-220305157D01*
X259770535Y-220209919D01*
X259722916Y-220162300D01*
X259627678Y-220114680D01*
X259437202Y-220114680D01*
X259341964Y-220162300D01*
X259294345Y-220209919D01*
X259246726Y-220305157D01*
X259246726Y-220352776D01*
X259294345Y-220448014D01*
X259341964Y-220495633D01*
X259437202Y-220543252D01*
X259627678Y-220543252D01*
X259722916Y-220590871D01*
X259770535Y-220638490D01*
X259818154Y-220733728D01*
X259818154Y-220924204D01*
X259770535Y-221019442D01*
X259722916Y-221067061D01*
X259627678Y-221114680D01*
X259437202Y-221114680D01*
X259341964Y-221067061D01*
X259294345Y-221019442D01*
X259246726Y-220924204D01*
X259246726Y-220733728D01*
X259294345Y-220638490D01*
X259341964Y-220590871D01*
X259437202Y-220543252D01*
X258913392Y-220114680D02*
X258294345Y-220114680D01*
X258627678Y-220495633D01*
X258484821Y-220495633D01*
X258389583Y-220543252D01*
X258341964Y-220590871D01*
X258294345Y-220686109D01*
X258294345Y-220924204D01*
X258341964Y-221019442D01*
X258389583Y-221067061D01*
X258484821Y-221114680D01*
X258770535Y-221114680D01*
X258865773Y-221067061D01*
X258913392Y-221019442D01*
%TO.C,K81*%
X222670535Y-221114680D02*
X222670535Y-220114680D01*
X222099107Y-221114680D02*
X222527678Y-220543252D01*
X222099107Y-220114680D02*
X222670535Y-220686109D01*
X221527678Y-220543252D02*
X221622916Y-220495633D01*
X221670535Y-220448014D01*
X221718154Y-220352776D01*
X221718154Y-220305157D01*
X221670535Y-220209919D01*
X221622916Y-220162300D01*
X221527678Y-220114680D01*
X221337202Y-220114680D01*
X221241964Y-220162300D01*
X221194345Y-220209919D01*
X221146726Y-220305157D01*
X221146726Y-220352776D01*
X221194345Y-220448014D01*
X221241964Y-220495633D01*
X221337202Y-220543252D01*
X221527678Y-220543252D01*
X221622916Y-220590871D01*
X221670535Y-220638490D01*
X221718154Y-220733728D01*
X221718154Y-220924204D01*
X221670535Y-221019442D01*
X221622916Y-221067061D01*
X221527678Y-221114680D01*
X221337202Y-221114680D01*
X221241964Y-221067061D01*
X221194345Y-221019442D01*
X221146726Y-220924204D01*
X221146726Y-220733728D01*
X221194345Y-220638490D01*
X221241964Y-220590871D01*
X221337202Y-220543252D01*
X220194345Y-221114680D02*
X220765773Y-221114680D01*
X220480059Y-221114680D02*
X220480059Y-220114680D01*
X220575297Y-220257538D01*
X220670535Y-220352776D01*
X220765773Y-220400395D01*
%TO.C,K90*%
X484608035Y-221114680D02*
X484608035Y-220114680D01*
X484036607Y-221114680D02*
X484465178Y-220543252D01*
X484036607Y-220114680D02*
X484608035Y-220686109D01*
X483560416Y-221114680D02*
X483369940Y-221114680D01*
X483274702Y-221067061D01*
X483227083Y-221019442D01*
X483131845Y-220876585D01*
X483084226Y-220686109D01*
X483084226Y-220305157D01*
X483131845Y-220209919D01*
X483179464Y-220162300D01*
X483274702Y-220114680D01*
X483465178Y-220114680D01*
X483560416Y-220162300D01*
X483608035Y-220209919D01*
X483655654Y-220305157D01*
X483655654Y-220543252D01*
X483608035Y-220638490D01*
X483560416Y-220686109D01*
X483465178Y-220733728D01*
X483274702Y-220733728D01*
X483179464Y-220686109D01*
X483131845Y-220638490D01*
X483084226Y-220543252D01*
X482465178Y-220114680D02*
X482369940Y-220114680D01*
X482274702Y-220162300D01*
X482227083Y-220209919D01*
X482179464Y-220305157D01*
X482131845Y-220495633D01*
X482131845Y-220733728D01*
X482179464Y-220924204D01*
X482227083Y-221019442D01*
X482274702Y-221067061D01*
X482369940Y-221114680D01*
X482465178Y-221114680D01*
X482560416Y-221067061D01*
X482608035Y-221019442D01*
X482655654Y-220924204D01*
X482703273Y-220733728D01*
X482703273Y-220495633D01*
X482655654Y-220305157D01*
X482608035Y-220209919D01*
X482560416Y-220162300D01*
X482465178Y-220114680D01*
%TO.C,K20*%
X294108035Y-154439680D02*
X294108035Y-153439680D01*
X293536607Y-154439680D02*
X293965178Y-153868252D01*
X293536607Y-153439680D02*
X294108035Y-154011109D01*
X293155654Y-153534919D02*
X293108035Y-153487300D01*
X293012797Y-153439680D01*
X292774702Y-153439680D01*
X292679464Y-153487300D01*
X292631845Y-153534919D01*
X292584226Y-153630157D01*
X292584226Y-153725395D01*
X292631845Y-153868252D01*
X293203273Y-154439680D01*
X292584226Y-154439680D01*
X291965178Y-153439680D02*
X291869940Y-153439680D01*
X291774702Y-153487300D01*
X291727083Y-153534919D01*
X291679464Y-153630157D01*
X291631845Y-153820633D01*
X291631845Y-154058728D01*
X291679464Y-154249204D01*
X291727083Y-154344442D01*
X291774702Y-154392061D01*
X291869940Y-154439680D01*
X291965178Y-154439680D01*
X292060416Y-154392061D01*
X292108035Y-154344442D01*
X292155654Y-154249204D01*
X292203273Y-154058728D01*
X292203273Y-153820633D01*
X292155654Y-153630157D01*
X292108035Y-153534919D01*
X292060416Y-153487300D01*
X291965178Y-153439680D01*
%TO.C,K59*%
X236958035Y-202064680D02*
X236958035Y-201064680D01*
X236386607Y-202064680D02*
X236815178Y-201493252D01*
X236386607Y-201064680D02*
X236958035Y-201636109D01*
X235481845Y-201064680D02*
X235958035Y-201064680D01*
X236005654Y-201540871D01*
X235958035Y-201493252D01*
X235862797Y-201445633D01*
X235624702Y-201445633D01*
X235529464Y-201493252D01*
X235481845Y-201540871D01*
X235434226Y-201636109D01*
X235434226Y-201874204D01*
X235481845Y-201969442D01*
X235529464Y-202017061D01*
X235624702Y-202064680D01*
X235862797Y-202064680D01*
X235958035Y-202017061D01*
X236005654Y-201969442D01*
X234958035Y-202064680D02*
X234767559Y-202064680D01*
X234672321Y-202017061D01*
X234624702Y-201969442D01*
X234529464Y-201826585D01*
X234481845Y-201636109D01*
X234481845Y-201255157D01*
X234529464Y-201159919D01*
X234577083Y-201112300D01*
X234672321Y-201064680D01*
X234862797Y-201064680D01*
X234958035Y-201112300D01*
X235005654Y-201159919D01*
X235053273Y-201255157D01*
X235053273Y-201493252D01*
X235005654Y-201588490D01*
X234958035Y-201636109D01*
X234862797Y-201683728D01*
X234672321Y-201683728D01*
X234577083Y-201636109D01*
X234529464Y-201588490D01*
X234481845Y-201493252D01*
%TO.C,K95*%
X125039285Y-240164680D02*
X125039285Y-239164680D01*
X124467857Y-240164680D02*
X124896428Y-239593252D01*
X124467857Y-239164680D02*
X125039285Y-239736109D01*
X123991666Y-240164680D02*
X123801190Y-240164680D01*
X123705952Y-240117061D01*
X123658333Y-240069442D01*
X123563095Y-239926585D01*
X123515476Y-239736109D01*
X123515476Y-239355157D01*
X123563095Y-239259919D01*
X123610714Y-239212300D01*
X123705952Y-239164680D01*
X123896428Y-239164680D01*
X123991666Y-239212300D01*
X124039285Y-239259919D01*
X124086904Y-239355157D01*
X124086904Y-239593252D01*
X124039285Y-239688490D01*
X123991666Y-239736109D01*
X123896428Y-239783728D01*
X123705952Y-239783728D01*
X123610714Y-239736109D01*
X123563095Y-239688490D01*
X123515476Y-239593252D01*
X122610714Y-239164680D02*
X123086904Y-239164680D01*
X123134523Y-239640871D01*
X123086904Y-239593252D01*
X122991666Y-239545633D01*
X122753571Y-239545633D01*
X122658333Y-239593252D01*
X122610714Y-239640871D01*
X122563095Y-239736109D01*
X122563095Y-239974204D01*
X122610714Y-240069442D01*
X122658333Y-240117061D01*
X122753571Y-240164680D01*
X122991666Y-240164680D01*
X123086904Y-240117061D01*
X123134523Y-240069442D01*
%TO.C,K111*%
X70746726Y-259214680D02*
X70746726Y-258214680D01*
X70175297Y-259214680D02*
X70603869Y-258643252D01*
X70175297Y-258214680D02*
X70746726Y-258786109D01*
X69222916Y-259214680D02*
X69794345Y-259214680D01*
X69508630Y-259214680D02*
X69508630Y-258214680D01*
X69603869Y-258357538D01*
X69699107Y-258452776D01*
X69794345Y-258500395D01*
X68270535Y-259214680D02*
X68841964Y-259214680D01*
X68556250Y-259214680D02*
X68556250Y-258214680D01*
X68651488Y-258357538D01*
X68746726Y-258452776D01*
X68841964Y-258500395D01*
X67318154Y-259214680D02*
X67889583Y-259214680D01*
X67603869Y-259214680D02*
X67603869Y-258214680D01*
X67699107Y-258357538D01*
X67794345Y-258452776D01*
X67889583Y-258500395D01*
%TO.C,K50*%
X522708035Y-183014680D02*
X522708035Y-182014680D01*
X522136607Y-183014680D02*
X522565178Y-182443252D01*
X522136607Y-182014680D02*
X522708035Y-182586109D01*
X521231845Y-182014680D02*
X521708035Y-182014680D01*
X521755654Y-182490871D01*
X521708035Y-182443252D01*
X521612797Y-182395633D01*
X521374702Y-182395633D01*
X521279464Y-182443252D01*
X521231845Y-182490871D01*
X521184226Y-182586109D01*
X521184226Y-182824204D01*
X521231845Y-182919442D01*
X521279464Y-182967061D01*
X521374702Y-183014680D01*
X521612797Y-183014680D01*
X521708035Y-182967061D01*
X521755654Y-182919442D01*
X520565178Y-182014680D02*
X520469940Y-182014680D01*
X520374702Y-182062300D01*
X520327083Y-182109919D01*
X520279464Y-182205157D01*
X520231845Y-182395633D01*
X520231845Y-182633728D01*
X520279464Y-182824204D01*
X520327083Y-182919442D01*
X520374702Y-182967061D01*
X520469940Y-183014680D01*
X520565178Y-183014680D01*
X520660416Y-182967061D01*
X520708035Y-182919442D01*
X520755654Y-182824204D01*
X520803273Y-182633728D01*
X520803273Y-182395633D01*
X520755654Y-182205157D01*
X520708035Y-182109919D01*
X520660416Y-182062300D01*
X520565178Y-182014680D01*
%TO.C,K104*%
X308871726Y-240164680D02*
X308871726Y-239164680D01*
X308300297Y-240164680D02*
X308728869Y-239593252D01*
X308300297Y-239164680D02*
X308871726Y-239736109D01*
X307347916Y-240164680D02*
X307919345Y-240164680D01*
X307633630Y-240164680D02*
X307633630Y-239164680D01*
X307728869Y-239307538D01*
X307824107Y-239402776D01*
X307919345Y-239450395D01*
X306728869Y-239164680D02*
X306633630Y-239164680D01*
X306538392Y-239212300D01*
X306490773Y-239259919D01*
X306443154Y-239355157D01*
X306395535Y-239545633D01*
X306395535Y-239783728D01*
X306443154Y-239974204D01*
X306490773Y-240069442D01*
X306538392Y-240117061D01*
X306633630Y-240164680D01*
X306728869Y-240164680D01*
X306824107Y-240117061D01*
X306871726Y-240069442D01*
X306919345Y-239974204D01*
X306966964Y-239783728D01*
X306966964Y-239545633D01*
X306919345Y-239355157D01*
X306871726Y-239259919D01*
X306824107Y-239212300D01*
X306728869Y-239164680D01*
X305538392Y-239498014D02*
X305538392Y-240164680D01*
X305776488Y-239117061D02*
X306014583Y-239831347D01*
X305395535Y-239831347D01*
%TO.C,K25*%
X403645535Y-154439680D02*
X403645535Y-153439680D01*
X403074107Y-154439680D02*
X403502678Y-153868252D01*
X403074107Y-153439680D02*
X403645535Y-154011109D01*
X402693154Y-153534919D02*
X402645535Y-153487300D01*
X402550297Y-153439680D01*
X402312202Y-153439680D01*
X402216964Y-153487300D01*
X402169345Y-153534919D01*
X402121726Y-153630157D01*
X402121726Y-153725395D01*
X402169345Y-153868252D01*
X402740773Y-154439680D01*
X402121726Y-154439680D01*
X401216964Y-153439680D02*
X401693154Y-153439680D01*
X401740773Y-153915871D01*
X401693154Y-153868252D01*
X401597916Y-153820633D01*
X401359821Y-153820633D01*
X401264583Y-153868252D01*
X401216964Y-153915871D01*
X401169345Y-154011109D01*
X401169345Y-154249204D01*
X401216964Y-154344442D01*
X401264583Y-154392061D01*
X401359821Y-154439680D01*
X401597916Y-154439680D01*
X401693154Y-154392061D01*
X401740773Y-154344442D01*
%TO.C,K52*%
X89320535Y-202064680D02*
X89320535Y-201064680D01*
X88749107Y-202064680D02*
X89177678Y-201493252D01*
X88749107Y-201064680D02*
X89320535Y-201636109D01*
X87844345Y-201064680D02*
X88320535Y-201064680D01*
X88368154Y-201540871D01*
X88320535Y-201493252D01*
X88225297Y-201445633D01*
X87987202Y-201445633D01*
X87891964Y-201493252D01*
X87844345Y-201540871D01*
X87796726Y-201636109D01*
X87796726Y-201874204D01*
X87844345Y-201969442D01*
X87891964Y-202017061D01*
X87987202Y-202064680D01*
X88225297Y-202064680D01*
X88320535Y-202017061D01*
X88368154Y-201969442D01*
X87415773Y-201159919D02*
X87368154Y-201112300D01*
X87272916Y-201064680D01*
X87034821Y-201064680D01*
X86939583Y-201112300D01*
X86891964Y-201159919D01*
X86844345Y-201255157D01*
X86844345Y-201350395D01*
X86891964Y-201493252D01*
X87463392Y-202064680D01*
X86844345Y-202064680D01*
%TO.C,K2*%
X150756845Y-135389680D02*
X150756845Y-134389680D01*
X150185416Y-135389680D02*
X150613988Y-134818252D01*
X150185416Y-134389680D02*
X150756845Y-134961109D01*
X149804464Y-134484919D02*
X149756845Y-134437300D01*
X149661607Y-134389680D01*
X149423511Y-134389680D01*
X149328273Y-134437300D01*
X149280654Y-134484919D01*
X149233035Y-134580157D01*
X149233035Y-134675395D01*
X149280654Y-134818252D01*
X149852083Y-135389680D01*
X149233035Y-135389680D01*
%TO.C,K100*%
X232671726Y-240164680D02*
X232671726Y-239164680D01*
X232100297Y-240164680D02*
X232528869Y-239593252D01*
X232100297Y-239164680D02*
X232671726Y-239736109D01*
X231147916Y-240164680D02*
X231719345Y-240164680D01*
X231433630Y-240164680D02*
X231433630Y-239164680D01*
X231528869Y-239307538D01*
X231624107Y-239402776D01*
X231719345Y-239450395D01*
X230528869Y-239164680D02*
X230433630Y-239164680D01*
X230338392Y-239212300D01*
X230290773Y-239259919D01*
X230243154Y-239355157D01*
X230195535Y-239545633D01*
X230195535Y-239783728D01*
X230243154Y-239974204D01*
X230290773Y-240069442D01*
X230338392Y-240117061D01*
X230433630Y-240164680D01*
X230528869Y-240164680D01*
X230624107Y-240117061D01*
X230671726Y-240069442D01*
X230719345Y-239974204D01*
X230766964Y-239783728D01*
X230766964Y-239545633D01*
X230719345Y-239355157D01*
X230671726Y-239259919D01*
X230624107Y-239212300D01*
X230528869Y-239164680D01*
X229576488Y-239164680D02*
X229481250Y-239164680D01*
X229386011Y-239212300D01*
X229338392Y-239259919D01*
X229290773Y-239355157D01*
X229243154Y-239545633D01*
X229243154Y-239783728D01*
X229290773Y-239974204D01*
X229338392Y-240069442D01*
X229386011Y-240117061D01*
X229481250Y-240164680D01*
X229576488Y-240164680D01*
X229671726Y-240117061D01*
X229719345Y-240069442D01*
X229766964Y-239974204D01*
X229814583Y-239783728D01*
X229814583Y-239545633D01*
X229766964Y-239355157D01*
X229719345Y-239259919D01*
X229671726Y-239212300D01*
X229576488Y-239164680D01*
%TO.C,K89*%
X465558035Y-221114680D02*
X465558035Y-220114680D01*
X464986607Y-221114680D02*
X465415178Y-220543252D01*
X464986607Y-220114680D02*
X465558035Y-220686109D01*
X464415178Y-220543252D02*
X464510416Y-220495633D01*
X464558035Y-220448014D01*
X464605654Y-220352776D01*
X464605654Y-220305157D01*
X464558035Y-220209919D01*
X464510416Y-220162300D01*
X464415178Y-220114680D01*
X464224702Y-220114680D01*
X464129464Y-220162300D01*
X464081845Y-220209919D01*
X464034226Y-220305157D01*
X464034226Y-220352776D01*
X464081845Y-220448014D01*
X464129464Y-220495633D01*
X464224702Y-220543252D01*
X464415178Y-220543252D01*
X464510416Y-220590871D01*
X464558035Y-220638490D01*
X464605654Y-220733728D01*
X464605654Y-220924204D01*
X464558035Y-221019442D01*
X464510416Y-221067061D01*
X464415178Y-221114680D01*
X464224702Y-221114680D01*
X464129464Y-221067061D01*
X464081845Y-221019442D01*
X464034226Y-220924204D01*
X464034226Y-220733728D01*
X464081845Y-220638490D01*
X464129464Y-220590871D01*
X464224702Y-220543252D01*
X463558035Y-221114680D02*
X463367559Y-221114680D01*
X463272321Y-221067061D01*
X463224702Y-221019442D01*
X463129464Y-220876585D01*
X463081845Y-220686109D01*
X463081845Y-220305157D01*
X463129464Y-220209919D01*
X463177083Y-220162300D01*
X463272321Y-220114680D01*
X463462797Y-220114680D01*
X463558035Y-220162300D01*
X463605654Y-220209919D01*
X463653273Y-220305157D01*
X463653273Y-220543252D01*
X463605654Y-220638490D01*
X463558035Y-220686109D01*
X463462797Y-220733728D01*
X463272321Y-220733728D01*
X463177083Y-220686109D01*
X463129464Y-220638490D01*
X463081845Y-220543252D01*
%TO.C,K88*%
X367926785Y-221114680D02*
X367926785Y-220114680D01*
X367355357Y-221114680D02*
X367783928Y-220543252D01*
X367355357Y-220114680D02*
X367926785Y-220686109D01*
X366783928Y-220543252D02*
X366879166Y-220495633D01*
X366926785Y-220448014D01*
X366974404Y-220352776D01*
X366974404Y-220305157D01*
X366926785Y-220209919D01*
X366879166Y-220162300D01*
X366783928Y-220114680D01*
X366593452Y-220114680D01*
X366498214Y-220162300D01*
X366450595Y-220209919D01*
X366402976Y-220305157D01*
X366402976Y-220352776D01*
X366450595Y-220448014D01*
X366498214Y-220495633D01*
X366593452Y-220543252D01*
X366783928Y-220543252D01*
X366879166Y-220590871D01*
X366926785Y-220638490D01*
X366974404Y-220733728D01*
X366974404Y-220924204D01*
X366926785Y-221019442D01*
X366879166Y-221067061D01*
X366783928Y-221114680D01*
X366593452Y-221114680D01*
X366498214Y-221067061D01*
X366450595Y-221019442D01*
X366402976Y-220924204D01*
X366402976Y-220733728D01*
X366450595Y-220638490D01*
X366498214Y-220590871D01*
X366593452Y-220543252D01*
X365831547Y-220543252D02*
X365926785Y-220495633D01*
X365974404Y-220448014D01*
X366022023Y-220352776D01*
X366022023Y-220305157D01*
X365974404Y-220209919D01*
X365926785Y-220162300D01*
X365831547Y-220114680D01*
X365641071Y-220114680D01*
X365545833Y-220162300D01*
X365498214Y-220209919D01*
X365450595Y-220305157D01*
X365450595Y-220352776D01*
X365498214Y-220448014D01*
X365545833Y-220495633D01*
X365641071Y-220543252D01*
X365831547Y-220543252D01*
X365926785Y-220590871D01*
X365974404Y-220638490D01*
X366022023Y-220733728D01*
X366022023Y-220924204D01*
X365974404Y-221019442D01*
X365926785Y-221067061D01*
X365831547Y-221114680D01*
X365641071Y-221114680D01*
X365545833Y-221067061D01*
X365498214Y-221019442D01*
X365450595Y-220924204D01*
X365450595Y-220733728D01*
X365498214Y-220638490D01*
X365545833Y-220590871D01*
X365641071Y-220543252D01*
%TO.C,K26*%
X422695535Y-154439680D02*
X422695535Y-153439680D01*
X422124107Y-154439680D02*
X422552678Y-153868252D01*
X422124107Y-153439680D02*
X422695535Y-154011109D01*
X421743154Y-153534919D02*
X421695535Y-153487300D01*
X421600297Y-153439680D01*
X421362202Y-153439680D01*
X421266964Y-153487300D01*
X421219345Y-153534919D01*
X421171726Y-153630157D01*
X421171726Y-153725395D01*
X421219345Y-153868252D01*
X421790773Y-154439680D01*
X421171726Y-154439680D01*
X420314583Y-153439680D02*
X420505059Y-153439680D01*
X420600297Y-153487300D01*
X420647916Y-153534919D01*
X420743154Y-153677776D01*
X420790773Y-153868252D01*
X420790773Y-154249204D01*
X420743154Y-154344442D01*
X420695535Y-154392061D01*
X420600297Y-154439680D01*
X420409821Y-154439680D01*
X420314583Y-154392061D01*
X420266964Y-154344442D01*
X420219345Y-154249204D01*
X420219345Y-154011109D01*
X420266964Y-153915871D01*
X420314583Y-153868252D01*
X420409821Y-153820633D01*
X420600297Y-153820633D01*
X420695535Y-153868252D01*
X420743154Y-153915871D01*
X420790773Y-154011109D01*
%TO.C,K80*%
X203620535Y-221114680D02*
X203620535Y-220114680D01*
X203049107Y-221114680D02*
X203477678Y-220543252D01*
X203049107Y-220114680D02*
X203620535Y-220686109D01*
X202477678Y-220543252D02*
X202572916Y-220495633D01*
X202620535Y-220448014D01*
X202668154Y-220352776D01*
X202668154Y-220305157D01*
X202620535Y-220209919D01*
X202572916Y-220162300D01*
X202477678Y-220114680D01*
X202287202Y-220114680D01*
X202191964Y-220162300D01*
X202144345Y-220209919D01*
X202096726Y-220305157D01*
X202096726Y-220352776D01*
X202144345Y-220448014D01*
X202191964Y-220495633D01*
X202287202Y-220543252D01*
X202477678Y-220543252D01*
X202572916Y-220590871D01*
X202620535Y-220638490D01*
X202668154Y-220733728D01*
X202668154Y-220924204D01*
X202620535Y-221019442D01*
X202572916Y-221067061D01*
X202477678Y-221114680D01*
X202287202Y-221114680D01*
X202191964Y-221067061D01*
X202144345Y-221019442D01*
X202096726Y-220924204D01*
X202096726Y-220733728D01*
X202144345Y-220638490D01*
X202191964Y-220590871D01*
X202287202Y-220543252D01*
X201477678Y-220114680D02*
X201382440Y-220114680D01*
X201287202Y-220162300D01*
X201239583Y-220209919D01*
X201191964Y-220305157D01*
X201144345Y-220495633D01*
X201144345Y-220733728D01*
X201191964Y-220924204D01*
X201239583Y-221019442D01*
X201287202Y-221067061D01*
X201382440Y-221114680D01*
X201477678Y-221114680D01*
X201572916Y-221067061D01*
X201620535Y-221019442D01*
X201668154Y-220924204D01*
X201715773Y-220733728D01*
X201715773Y-220495633D01*
X201668154Y-220305157D01*
X201620535Y-220209919D01*
X201572916Y-220162300D01*
X201477678Y-220114680D01*
%TO.C,K77*%
X146470535Y-221114680D02*
X146470535Y-220114680D01*
X145899107Y-221114680D02*
X146327678Y-220543252D01*
X145899107Y-220114680D02*
X146470535Y-220686109D01*
X145565773Y-220114680D02*
X144899107Y-220114680D01*
X145327678Y-221114680D01*
X144613392Y-220114680D02*
X143946726Y-220114680D01*
X144375297Y-221114680D01*
%TO.C,K122*%
X423171726Y-259214680D02*
X423171726Y-258214680D01*
X422600297Y-259214680D02*
X423028869Y-258643252D01*
X422600297Y-258214680D02*
X423171726Y-258786109D01*
X421647916Y-259214680D02*
X422219345Y-259214680D01*
X421933630Y-259214680D02*
X421933630Y-258214680D01*
X422028869Y-258357538D01*
X422124107Y-258452776D01*
X422219345Y-258500395D01*
X421266964Y-258309919D02*
X421219345Y-258262300D01*
X421124107Y-258214680D01*
X420886011Y-258214680D01*
X420790773Y-258262300D01*
X420743154Y-258309919D01*
X420695535Y-258405157D01*
X420695535Y-258500395D01*
X420743154Y-258643252D01*
X421314583Y-259214680D01*
X420695535Y-259214680D01*
X420314583Y-258309919D02*
X420266964Y-258262300D01*
X420171726Y-258214680D01*
X419933630Y-258214680D01*
X419838392Y-258262300D01*
X419790773Y-258309919D01*
X419743154Y-258405157D01*
X419743154Y-258500395D01*
X419790773Y-258643252D01*
X420362202Y-259214680D01*
X419743154Y-259214680D01*
%TO.C,K46*%
X441745535Y-183014680D02*
X441745535Y-182014680D01*
X441174107Y-183014680D02*
X441602678Y-182443252D01*
X441174107Y-182014680D02*
X441745535Y-182586109D01*
X440316964Y-182348014D02*
X440316964Y-183014680D01*
X440555059Y-181967061D02*
X440793154Y-182681347D01*
X440174107Y-182681347D01*
X439364583Y-182014680D02*
X439555059Y-182014680D01*
X439650297Y-182062300D01*
X439697916Y-182109919D01*
X439793154Y-182252776D01*
X439840773Y-182443252D01*
X439840773Y-182824204D01*
X439793154Y-182919442D01*
X439745535Y-182967061D01*
X439650297Y-183014680D01*
X439459821Y-183014680D01*
X439364583Y-182967061D01*
X439316964Y-182919442D01*
X439269345Y-182824204D01*
X439269345Y-182586109D01*
X439316964Y-182490871D01*
X439364583Y-182443252D01*
X439459821Y-182395633D01*
X439650297Y-182395633D01*
X439745535Y-182443252D01*
X439793154Y-182490871D01*
X439840773Y-182586109D01*
%TO.C,K126*%
X504134226Y-259214680D02*
X504134226Y-258214680D01*
X503562797Y-259214680D02*
X503991369Y-258643252D01*
X503562797Y-258214680D02*
X504134226Y-258786109D01*
X502610416Y-259214680D02*
X503181845Y-259214680D01*
X502896130Y-259214680D02*
X502896130Y-258214680D01*
X502991369Y-258357538D01*
X503086607Y-258452776D01*
X503181845Y-258500395D01*
X502229464Y-258309919D02*
X502181845Y-258262300D01*
X502086607Y-258214680D01*
X501848511Y-258214680D01*
X501753273Y-258262300D01*
X501705654Y-258309919D01*
X501658035Y-258405157D01*
X501658035Y-258500395D01*
X501705654Y-258643252D01*
X502277083Y-259214680D01*
X501658035Y-259214680D01*
X500800892Y-258214680D02*
X500991369Y-258214680D01*
X501086607Y-258262300D01*
X501134226Y-258309919D01*
X501229464Y-258452776D01*
X501277083Y-258643252D01*
X501277083Y-259024204D01*
X501229464Y-259119442D01*
X501181845Y-259167061D01*
X501086607Y-259214680D01*
X500896130Y-259214680D01*
X500800892Y-259167061D01*
X500753273Y-259119442D01*
X500705654Y-259024204D01*
X500705654Y-258786109D01*
X500753273Y-258690871D01*
X500800892Y-258643252D01*
X500896130Y-258595633D01*
X501086607Y-258595633D01*
X501181845Y-258643252D01*
X501229464Y-258690871D01*
X501277083Y-258786109D01*
%TO.C,K112*%
X89796726Y-259214680D02*
X89796726Y-258214680D01*
X89225297Y-259214680D02*
X89653869Y-258643252D01*
X89225297Y-258214680D02*
X89796726Y-258786109D01*
X88272916Y-259214680D02*
X88844345Y-259214680D01*
X88558630Y-259214680D02*
X88558630Y-258214680D01*
X88653869Y-258357538D01*
X88749107Y-258452776D01*
X88844345Y-258500395D01*
X87320535Y-259214680D02*
X87891964Y-259214680D01*
X87606250Y-259214680D02*
X87606250Y-258214680D01*
X87701488Y-258357538D01*
X87796726Y-258452776D01*
X87891964Y-258500395D01*
X86939583Y-258309919D02*
X86891964Y-258262300D01*
X86796726Y-258214680D01*
X86558630Y-258214680D01*
X86463392Y-258262300D01*
X86415773Y-258309919D01*
X86368154Y-258405157D01*
X86368154Y-258500395D01*
X86415773Y-258643252D01*
X86987202Y-259214680D01*
X86368154Y-259214680D01*
%TO.C,K113*%
X115990476Y-259214680D02*
X115990476Y-258214680D01*
X115419047Y-259214680D02*
X115847619Y-258643252D01*
X115419047Y-258214680D02*
X115990476Y-258786109D01*
X114466666Y-259214680D02*
X115038095Y-259214680D01*
X114752380Y-259214680D02*
X114752380Y-258214680D01*
X114847619Y-258357538D01*
X114942857Y-258452776D01*
X115038095Y-258500395D01*
X113514285Y-259214680D02*
X114085714Y-259214680D01*
X113800000Y-259214680D02*
X113800000Y-258214680D01*
X113895238Y-258357538D01*
X113990476Y-258452776D01*
X114085714Y-258500395D01*
X113180952Y-258214680D02*
X112561904Y-258214680D01*
X112895238Y-258595633D01*
X112752380Y-258595633D01*
X112657142Y-258643252D01*
X112609523Y-258690871D01*
X112561904Y-258786109D01*
X112561904Y-259024204D01*
X112609523Y-259119442D01*
X112657142Y-259167061D01*
X112752380Y-259214680D01*
X113038095Y-259214680D01*
X113133333Y-259167061D01*
X113180952Y-259119442D01*
%TO.C,K65*%
X351258035Y-202064680D02*
X351258035Y-201064680D01*
X350686607Y-202064680D02*
X351115178Y-201493252D01*
X350686607Y-201064680D02*
X351258035Y-201636109D01*
X349829464Y-201064680D02*
X350019940Y-201064680D01*
X350115178Y-201112300D01*
X350162797Y-201159919D01*
X350258035Y-201302776D01*
X350305654Y-201493252D01*
X350305654Y-201874204D01*
X350258035Y-201969442D01*
X350210416Y-202017061D01*
X350115178Y-202064680D01*
X349924702Y-202064680D01*
X349829464Y-202017061D01*
X349781845Y-201969442D01*
X349734226Y-201874204D01*
X349734226Y-201636109D01*
X349781845Y-201540871D01*
X349829464Y-201493252D01*
X349924702Y-201445633D01*
X350115178Y-201445633D01*
X350210416Y-201493252D01*
X350258035Y-201540871D01*
X350305654Y-201636109D01*
X348829464Y-201064680D02*
X349305654Y-201064680D01*
X349353273Y-201540871D01*
X349305654Y-201493252D01*
X349210416Y-201445633D01*
X348972321Y-201445633D01*
X348877083Y-201493252D01*
X348829464Y-201540871D01*
X348781845Y-201636109D01*
X348781845Y-201874204D01*
X348829464Y-201969442D01*
X348877083Y-202017061D01*
X348972321Y-202064680D01*
X349210416Y-202064680D01*
X349305654Y-202017061D01*
X349353273Y-201969442D01*
%TO.C,K54*%
X141708035Y-202064680D02*
X141708035Y-201064680D01*
X141136607Y-202064680D02*
X141565178Y-201493252D01*
X141136607Y-201064680D02*
X141708035Y-201636109D01*
X140231845Y-201064680D02*
X140708035Y-201064680D01*
X140755654Y-201540871D01*
X140708035Y-201493252D01*
X140612797Y-201445633D01*
X140374702Y-201445633D01*
X140279464Y-201493252D01*
X140231845Y-201540871D01*
X140184226Y-201636109D01*
X140184226Y-201874204D01*
X140231845Y-201969442D01*
X140279464Y-202017061D01*
X140374702Y-202064680D01*
X140612797Y-202064680D01*
X140708035Y-202017061D01*
X140755654Y-201969442D01*
X139327083Y-201398014D02*
X139327083Y-202064680D01*
X139565178Y-201017061D02*
X139803273Y-201731347D01*
X139184226Y-201731347D01*
%TO.C,K76*%
X120276785Y-221114680D02*
X120276785Y-220114680D01*
X119705357Y-221114680D02*
X120133928Y-220543252D01*
X119705357Y-220114680D02*
X120276785Y-220686109D01*
X119372023Y-220114680D02*
X118705357Y-220114680D01*
X119133928Y-221114680D01*
X117895833Y-220114680D02*
X118086309Y-220114680D01*
X118181547Y-220162300D01*
X118229166Y-220209919D01*
X118324404Y-220352776D01*
X118372023Y-220543252D01*
X118372023Y-220924204D01*
X118324404Y-221019442D01*
X118276785Y-221067061D01*
X118181547Y-221114680D01*
X117991071Y-221114680D01*
X117895833Y-221067061D01*
X117848214Y-221019442D01*
X117800595Y-220924204D01*
X117800595Y-220686109D01*
X117848214Y-220590871D01*
X117895833Y-220543252D01*
X117991071Y-220495633D01*
X118181547Y-220495633D01*
X118276785Y-220543252D01*
X118324404Y-220590871D01*
X118372023Y-220686109D01*
%TO.C,K78*%
X165520535Y-221114680D02*
X165520535Y-220114680D01*
X164949107Y-221114680D02*
X165377678Y-220543252D01*
X164949107Y-220114680D02*
X165520535Y-220686109D01*
X164615773Y-220114680D02*
X163949107Y-220114680D01*
X164377678Y-221114680D01*
X163425297Y-220543252D02*
X163520535Y-220495633D01*
X163568154Y-220448014D01*
X163615773Y-220352776D01*
X163615773Y-220305157D01*
X163568154Y-220209919D01*
X163520535Y-220162300D01*
X163425297Y-220114680D01*
X163234821Y-220114680D01*
X163139583Y-220162300D01*
X163091964Y-220209919D01*
X163044345Y-220305157D01*
X163044345Y-220352776D01*
X163091964Y-220448014D01*
X163139583Y-220495633D01*
X163234821Y-220543252D01*
X163425297Y-220543252D01*
X163520535Y-220590871D01*
X163568154Y-220638490D01*
X163615773Y-220733728D01*
X163615773Y-220924204D01*
X163568154Y-221019442D01*
X163520535Y-221067061D01*
X163425297Y-221114680D01*
X163234821Y-221114680D01*
X163139583Y-221067061D01*
X163091964Y-221019442D01*
X163044345Y-220924204D01*
X163044345Y-220733728D01*
X163091964Y-220638490D01*
X163139583Y-220590871D01*
X163234821Y-220543252D01*
%TO.C,K51*%
X70270535Y-202064680D02*
X70270535Y-201064680D01*
X69699107Y-202064680D02*
X70127678Y-201493252D01*
X69699107Y-201064680D02*
X70270535Y-201636109D01*
X68794345Y-201064680D02*
X69270535Y-201064680D01*
X69318154Y-201540871D01*
X69270535Y-201493252D01*
X69175297Y-201445633D01*
X68937202Y-201445633D01*
X68841964Y-201493252D01*
X68794345Y-201540871D01*
X68746726Y-201636109D01*
X68746726Y-201874204D01*
X68794345Y-201969442D01*
X68841964Y-202017061D01*
X68937202Y-202064680D01*
X69175297Y-202064680D01*
X69270535Y-202017061D01*
X69318154Y-201969442D01*
X67794345Y-202064680D02*
X68365773Y-202064680D01*
X68080059Y-202064680D02*
X68080059Y-201064680D01*
X68175297Y-201207538D01*
X68270535Y-201302776D01*
X68365773Y-201350395D01*
%TO.C,K101*%
X251721726Y-240164680D02*
X251721726Y-239164680D01*
X251150297Y-240164680D02*
X251578869Y-239593252D01*
X251150297Y-239164680D02*
X251721726Y-239736109D01*
X250197916Y-240164680D02*
X250769345Y-240164680D01*
X250483630Y-240164680D02*
X250483630Y-239164680D01*
X250578869Y-239307538D01*
X250674107Y-239402776D01*
X250769345Y-239450395D01*
X249578869Y-239164680D02*
X249483630Y-239164680D01*
X249388392Y-239212300D01*
X249340773Y-239259919D01*
X249293154Y-239355157D01*
X249245535Y-239545633D01*
X249245535Y-239783728D01*
X249293154Y-239974204D01*
X249340773Y-240069442D01*
X249388392Y-240117061D01*
X249483630Y-240164680D01*
X249578869Y-240164680D01*
X249674107Y-240117061D01*
X249721726Y-240069442D01*
X249769345Y-239974204D01*
X249816964Y-239783728D01*
X249816964Y-239545633D01*
X249769345Y-239355157D01*
X249721726Y-239259919D01*
X249674107Y-239212300D01*
X249578869Y-239164680D01*
X248293154Y-240164680D02*
X248864583Y-240164680D01*
X248578869Y-240164680D02*
X248578869Y-239164680D01*
X248674107Y-239307538D01*
X248769345Y-239402776D01*
X248864583Y-239450395D01*
%TO.C,K57*%
X198858035Y-202064680D02*
X198858035Y-201064680D01*
X198286607Y-202064680D02*
X198715178Y-201493252D01*
X198286607Y-201064680D02*
X198858035Y-201636109D01*
X197381845Y-201064680D02*
X197858035Y-201064680D01*
X197905654Y-201540871D01*
X197858035Y-201493252D01*
X197762797Y-201445633D01*
X197524702Y-201445633D01*
X197429464Y-201493252D01*
X197381845Y-201540871D01*
X197334226Y-201636109D01*
X197334226Y-201874204D01*
X197381845Y-201969442D01*
X197429464Y-202017061D01*
X197524702Y-202064680D01*
X197762797Y-202064680D01*
X197858035Y-202017061D01*
X197905654Y-201969442D01*
X197000892Y-201064680D02*
X196334226Y-201064680D01*
X196762797Y-202064680D01*
%TO.C,K64*%
X332208035Y-202064680D02*
X332208035Y-201064680D01*
X331636607Y-202064680D02*
X332065178Y-201493252D01*
X331636607Y-201064680D02*
X332208035Y-201636109D01*
X330779464Y-201064680D02*
X330969940Y-201064680D01*
X331065178Y-201112300D01*
X331112797Y-201159919D01*
X331208035Y-201302776D01*
X331255654Y-201493252D01*
X331255654Y-201874204D01*
X331208035Y-201969442D01*
X331160416Y-202017061D01*
X331065178Y-202064680D01*
X330874702Y-202064680D01*
X330779464Y-202017061D01*
X330731845Y-201969442D01*
X330684226Y-201874204D01*
X330684226Y-201636109D01*
X330731845Y-201540871D01*
X330779464Y-201493252D01*
X330874702Y-201445633D01*
X331065178Y-201445633D01*
X331160416Y-201493252D01*
X331208035Y-201540871D01*
X331255654Y-201636109D01*
X329827083Y-201398014D02*
X329827083Y-202064680D01*
X330065178Y-201017061D02*
X330303273Y-201731347D01*
X329684226Y-201731347D01*
%TO.C,K105*%
X327921726Y-240164680D02*
X327921726Y-239164680D01*
X327350297Y-240164680D02*
X327778869Y-239593252D01*
X327350297Y-239164680D02*
X327921726Y-239736109D01*
X326397916Y-240164680D02*
X326969345Y-240164680D01*
X326683630Y-240164680D02*
X326683630Y-239164680D01*
X326778869Y-239307538D01*
X326874107Y-239402776D01*
X326969345Y-239450395D01*
X325778869Y-239164680D02*
X325683630Y-239164680D01*
X325588392Y-239212300D01*
X325540773Y-239259919D01*
X325493154Y-239355157D01*
X325445535Y-239545633D01*
X325445535Y-239783728D01*
X325493154Y-239974204D01*
X325540773Y-240069442D01*
X325588392Y-240117061D01*
X325683630Y-240164680D01*
X325778869Y-240164680D01*
X325874107Y-240117061D01*
X325921726Y-240069442D01*
X325969345Y-239974204D01*
X326016964Y-239783728D01*
X326016964Y-239545633D01*
X325969345Y-239355157D01*
X325921726Y-239259919D01*
X325874107Y-239212300D01*
X325778869Y-239164680D01*
X324540773Y-239164680D02*
X325016964Y-239164680D01*
X325064583Y-239640871D01*
X325016964Y-239593252D01*
X324921726Y-239545633D01*
X324683630Y-239545633D01*
X324588392Y-239593252D01*
X324540773Y-239640871D01*
X324493154Y-239736109D01*
X324493154Y-239974204D01*
X324540773Y-240069442D01*
X324588392Y-240117061D01*
X324683630Y-240164680D01*
X324921726Y-240164680D01*
X325016964Y-240117061D01*
X325064583Y-240069442D01*
%TO.C,K32*%
X151233035Y-183014680D02*
X151233035Y-182014680D01*
X150661607Y-183014680D02*
X151090178Y-182443252D01*
X150661607Y-182014680D02*
X151233035Y-182586109D01*
X150328273Y-182014680D02*
X149709226Y-182014680D01*
X150042559Y-182395633D01*
X149899702Y-182395633D01*
X149804464Y-182443252D01*
X149756845Y-182490871D01*
X149709226Y-182586109D01*
X149709226Y-182824204D01*
X149756845Y-182919442D01*
X149804464Y-182967061D01*
X149899702Y-183014680D01*
X150185416Y-183014680D01*
X150280654Y-182967061D01*
X150328273Y-182919442D01*
X149328273Y-182109919D02*
X149280654Y-182062300D01*
X149185416Y-182014680D01*
X148947321Y-182014680D01*
X148852083Y-182062300D01*
X148804464Y-182109919D01*
X148756845Y-182205157D01*
X148756845Y-182300395D01*
X148804464Y-182443252D01*
X149375892Y-183014680D01*
X148756845Y-183014680D01*
%TO.C,K27*%
X441745535Y-154439680D02*
X441745535Y-153439680D01*
X441174107Y-154439680D02*
X441602678Y-153868252D01*
X441174107Y-153439680D02*
X441745535Y-154011109D01*
X440793154Y-153534919D02*
X440745535Y-153487300D01*
X440650297Y-153439680D01*
X440412202Y-153439680D01*
X440316964Y-153487300D01*
X440269345Y-153534919D01*
X440221726Y-153630157D01*
X440221726Y-153725395D01*
X440269345Y-153868252D01*
X440840773Y-154439680D01*
X440221726Y-154439680D01*
X439888392Y-153439680D02*
X439221726Y-153439680D01*
X439650297Y-154439680D01*
%TO.C,K13*%
X151233035Y-154439680D02*
X151233035Y-153439680D01*
X150661607Y-154439680D02*
X151090178Y-153868252D01*
X150661607Y-153439680D02*
X151233035Y-154011109D01*
X149709226Y-154439680D02*
X150280654Y-154439680D01*
X149994940Y-154439680D02*
X149994940Y-153439680D01*
X150090178Y-153582538D01*
X150185416Y-153677776D01*
X150280654Y-153725395D01*
X149375892Y-153439680D02*
X148756845Y-153439680D01*
X149090178Y-153820633D01*
X148947321Y-153820633D01*
X148852083Y-153868252D01*
X148804464Y-153915871D01*
X148756845Y-154011109D01*
X148756845Y-154249204D01*
X148804464Y-154344442D01*
X148852083Y-154392061D01*
X148947321Y-154439680D01*
X149233035Y-154439680D01*
X149328273Y-154392061D01*
X149375892Y-154344442D01*
%TO.C,K94*%
X89320535Y-240164680D02*
X89320535Y-239164680D01*
X88749107Y-240164680D02*
X89177678Y-239593252D01*
X88749107Y-239164680D02*
X89320535Y-239736109D01*
X88272916Y-240164680D02*
X88082440Y-240164680D01*
X87987202Y-240117061D01*
X87939583Y-240069442D01*
X87844345Y-239926585D01*
X87796726Y-239736109D01*
X87796726Y-239355157D01*
X87844345Y-239259919D01*
X87891964Y-239212300D01*
X87987202Y-239164680D01*
X88177678Y-239164680D01*
X88272916Y-239212300D01*
X88320535Y-239259919D01*
X88368154Y-239355157D01*
X88368154Y-239593252D01*
X88320535Y-239688490D01*
X88272916Y-239736109D01*
X88177678Y-239783728D01*
X87987202Y-239783728D01*
X87891964Y-239736109D01*
X87844345Y-239688490D01*
X87796726Y-239593252D01*
X86939583Y-239498014D02*
X86939583Y-240164680D01*
X87177678Y-239117061D02*
X87415773Y-239831347D01*
X86796726Y-239831347D01*
%TO.C,K93*%
X70270535Y-240164680D02*
X70270535Y-239164680D01*
X69699107Y-240164680D02*
X70127678Y-239593252D01*
X69699107Y-239164680D02*
X70270535Y-239736109D01*
X69222916Y-240164680D02*
X69032440Y-240164680D01*
X68937202Y-240117061D01*
X68889583Y-240069442D01*
X68794345Y-239926585D01*
X68746726Y-239736109D01*
X68746726Y-239355157D01*
X68794345Y-239259919D01*
X68841964Y-239212300D01*
X68937202Y-239164680D01*
X69127678Y-239164680D01*
X69222916Y-239212300D01*
X69270535Y-239259919D01*
X69318154Y-239355157D01*
X69318154Y-239593252D01*
X69270535Y-239688490D01*
X69222916Y-239736109D01*
X69127678Y-239783728D01*
X68937202Y-239783728D01*
X68841964Y-239736109D01*
X68794345Y-239688490D01*
X68746726Y-239593252D01*
X68413392Y-239164680D02*
X67794345Y-239164680D01*
X68127678Y-239545633D01*
X67984821Y-239545633D01*
X67889583Y-239593252D01*
X67841964Y-239640871D01*
X67794345Y-239736109D01*
X67794345Y-239974204D01*
X67841964Y-240069442D01*
X67889583Y-240117061D01*
X67984821Y-240164680D01*
X68270535Y-240164680D01*
X68365773Y-240117061D01*
X68413392Y-240069442D01*
%TO.C,K109*%
X485084226Y-240164680D02*
X485084226Y-239164680D01*
X484512797Y-240164680D02*
X484941369Y-239593252D01*
X484512797Y-239164680D02*
X485084226Y-239736109D01*
X483560416Y-240164680D02*
X484131845Y-240164680D01*
X483846130Y-240164680D02*
X483846130Y-239164680D01*
X483941369Y-239307538D01*
X484036607Y-239402776D01*
X484131845Y-239450395D01*
X482941369Y-239164680D02*
X482846130Y-239164680D01*
X482750892Y-239212300D01*
X482703273Y-239259919D01*
X482655654Y-239355157D01*
X482608035Y-239545633D01*
X482608035Y-239783728D01*
X482655654Y-239974204D01*
X482703273Y-240069442D01*
X482750892Y-240117061D01*
X482846130Y-240164680D01*
X482941369Y-240164680D01*
X483036607Y-240117061D01*
X483084226Y-240069442D01*
X483131845Y-239974204D01*
X483179464Y-239783728D01*
X483179464Y-239545633D01*
X483131845Y-239355157D01*
X483084226Y-239259919D01*
X483036607Y-239212300D01*
X482941369Y-239164680D01*
X482131845Y-240164680D02*
X481941369Y-240164680D01*
X481846130Y-240117061D01*
X481798511Y-240069442D01*
X481703273Y-239926585D01*
X481655654Y-239736109D01*
X481655654Y-239355157D01*
X481703273Y-239259919D01*
X481750892Y-239212300D01*
X481846130Y-239164680D01*
X482036607Y-239164680D01*
X482131845Y-239212300D01*
X482179464Y-239259919D01*
X482227083Y-239355157D01*
X482227083Y-239593252D01*
X482179464Y-239688490D01*
X482131845Y-239736109D01*
X482036607Y-239783728D01*
X481846130Y-239783728D01*
X481750892Y-239736109D01*
X481703273Y-239688490D01*
X481655654Y-239593252D01*
%TO.C,K48*%
X484608035Y-183014680D02*
X484608035Y-182014680D01*
X484036607Y-183014680D02*
X484465178Y-182443252D01*
X484036607Y-182014680D02*
X484608035Y-182586109D01*
X483179464Y-182348014D02*
X483179464Y-183014680D01*
X483417559Y-181967061D02*
X483655654Y-182681347D01*
X483036607Y-182681347D01*
X482512797Y-182443252D02*
X482608035Y-182395633D01*
X482655654Y-182348014D01*
X482703273Y-182252776D01*
X482703273Y-182205157D01*
X482655654Y-182109919D01*
X482608035Y-182062300D01*
X482512797Y-182014680D01*
X482322321Y-182014680D01*
X482227083Y-182062300D01*
X482179464Y-182109919D01*
X482131845Y-182205157D01*
X482131845Y-182252776D01*
X482179464Y-182348014D01*
X482227083Y-182395633D01*
X482322321Y-182443252D01*
X482512797Y-182443252D01*
X482608035Y-182490871D01*
X482655654Y-182538490D01*
X482703273Y-182633728D01*
X482703273Y-182824204D01*
X482655654Y-182919442D01*
X482608035Y-182967061D01*
X482512797Y-183014680D01*
X482322321Y-183014680D01*
X482227083Y-182967061D01*
X482179464Y-182919442D01*
X482131845Y-182824204D01*
X482131845Y-182633728D01*
X482179464Y-182538490D01*
X482227083Y-182490871D01*
X482322321Y-182443252D01*
%TO.C,K58*%
X217908035Y-202064680D02*
X217908035Y-201064680D01*
X217336607Y-202064680D02*
X217765178Y-201493252D01*
X217336607Y-201064680D02*
X217908035Y-201636109D01*
X216431845Y-201064680D02*
X216908035Y-201064680D01*
X216955654Y-201540871D01*
X216908035Y-201493252D01*
X216812797Y-201445633D01*
X216574702Y-201445633D01*
X216479464Y-201493252D01*
X216431845Y-201540871D01*
X216384226Y-201636109D01*
X216384226Y-201874204D01*
X216431845Y-201969442D01*
X216479464Y-202017061D01*
X216574702Y-202064680D01*
X216812797Y-202064680D01*
X216908035Y-202017061D01*
X216955654Y-201969442D01*
X215812797Y-201493252D02*
X215908035Y-201445633D01*
X215955654Y-201398014D01*
X216003273Y-201302776D01*
X216003273Y-201255157D01*
X215955654Y-201159919D01*
X215908035Y-201112300D01*
X215812797Y-201064680D01*
X215622321Y-201064680D01*
X215527083Y-201112300D01*
X215479464Y-201159919D01*
X215431845Y-201255157D01*
X215431845Y-201302776D01*
X215479464Y-201398014D01*
X215527083Y-201445633D01*
X215622321Y-201493252D01*
X215812797Y-201493252D01*
X215908035Y-201540871D01*
X215955654Y-201588490D01*
X216003273Y-201683728D01*
X216003273Y-201874204D01*
X215955654Y-201969442D01*
X215908035Y-202017061D01*
X215812797Y-202064680D01*
X215622321Y-202064680D01*
X215527083Y-202017061D01*
X215479464Y-201969442D01*
X215431845Y-201874204D01*
X215431845Y-201683728D01*
X215479464Y-201588490D01*
X215527083Y-201540871D01*
X215622321Y-201493252D01*
%TO.C,K68*%
X422695535Y-202064680D02*
X422695535Y-201064680D01*
X422124107Y-202064680D02*
X422552678Y-201493252D01*
X422124107Y-201064680D02*
X422695535Y-201636109D01*
X421266964Y-201064680D02*
X421457440Y-201064680D01*
X421552678Y-201112300D01*
X421600297Y-201159919D01*
X421695535Y-201302776D01*
X421743154Y-201493252D01*
X421743154Y-201874204D01*
X421695535Y-201969442D01*
X421647916Y-202017061D01*
X421552678Y-202064680D01*
X421362202Y-202064680D01*
X421266964Y-202017061D01*
X421219345Y-201969442D01*
X421171726Y-201874204D01*
X421171726Y-201636109D01*
X421219345Y-201540871D01*
X421266964Y-201493252D01*
X421362202Y-201445633D01*
X421552678Y-201445633D01*
X421647916Y-201493252D01*
X421695535Y-201540871D01*
X421743154Y-201636109D01*
X420600297Y-201493252D02*
X420695535Y-201445633D01*
X420743154Y-201398014D01*
X420790773Y-201302776D01*
X420790773Y-201255157D01*
X420743154Y-201159919D01*
X420695535Y-201112300D01*
X420600297Y-201064680D01*
X420409821Y-201064680D01*
X420314583Y-201112300D01*
X420266964Y-201159919D01*
X420219345Y-201255157D01*
X420219345Y-201302776D01*
X420266964Y-201398014D01*
X420314583Y-201445633D01*
X420409821Y-201493252D01*
X420600297Y-201493252D01*
X420695535Y-201540871D01*
X420743154Y-201588490D01*
X420790773Y-201683728D01*
X420790773Y-201874204D01*
X420743154Y-201969442D01*
X420695535Y-202017061D01*
X420600297Y-202064680D01*
X420409821Y-202064680D01*
X420314583Y-202017061D01*
X420266964Y-201969442D01*
X420219345Y-201874204D01*
X420219345Y-201683728D01*
X420266964Y-201588490D01*
X420314583Y-201540871D01*
X420409821Y-201493252D01*
%TO.C,K45*%
X422695535Y-183014680D02*
X422695535Y-182014680D01*
X422124107Y-183014680D02*
X422552678Y-182443252D01*
X422124107Y-182014680D02*
X422695535Y-182586109D01*
X421266964Y-182348014D02*
X421266964Y-183014680D01*
X421505059Y-181967061D02*
X421743154Y-182681347D01*
X421124107Y-182681347D01*
X420266964Y-182014680D02*
X420743154Y-182014680D01*
X420790773Y-182490871D01*
X420743154Y-182443252D01*
X420647916Y-182395633D01*
X420409821Y-182395633D01*
X420314583Y-182443252D01*
X420266964Y-182490871D01*
X420219345Y-182586109D01*
X420219345Y-182824204D01*
X420266964Y-182919442D01*
X420314583Y-182967061D01*
X420409821Y-183014680D01*
X420647916Y-183014680D01*
X420743154Y-182967061D01*
X420790773Y-182919442D01*
%TO.C,K69*%
X441745535Y-202064680D02*
X441745535Y-201064680D01*
X441174107Y-202064680D02*
X441602678Y-201493252D01*
X441174107Y-201064680D02*
X441745535Y-201636109D01*
X440316964Y-201064680D02*
X440507440Y-201064680D01*
X440602678Y-201112300D01*
X440650297Y-201159919D01*
X440745535Y-201302776D01*
X440793154Y-201493252D01*
X440793154Y-201874204D01*
X440745535Y-201969442D01*
X440697916Y-202017061D01*
X440602678Y-202064680D01*
X440412202Y-202064680D01*
X440316964Y-202017061D01*
X440269345Y-201969442D01*
X440221726Y-201874204D01*
X440221726Y-201636109D01*
X440269345Y-201540871D01*
X440316964Y-201493252D01*
X440412202Y-201445633D01*
X440602678Y-201445633D01*
X440697916Y-201493252D01*
X440745535Y-201540871D01*
X440793154Y-201636109D01*
X439745535Y-202064680D02*
X439555059Y-202064680D01*
X439459821Y-202017061D01*
X439412202Y-201969442D01*
X439316964Y-201826585D01*
X439269345Y-201636109D01*
X439269345Y-201255157D01*
X439316964Y-201159919D01*
X439364583Y-201112300D01*
X439459821Y-201064680D01*
X439650297Y-201064680D01*
X439745535Y-201112300D01*
X439793154Y-201159919D01*
X439840773Y-201255157D01*
X439840773Y-201493252D01*
X439793154Y-201588490D01*
X439745535Y-201636109D01*
X439650297Y-201683728D01*
X439459821Y-201683728D01*
X439364583Y-201636109D01*
X439316964Y-201588490D01*
X439269345Y-201493252D01*
%TO.C,K67*%
X403645535Y-202064680D02*
X403645535Y-201064680D01*
X403074107Y-202064680D02*
X403502678Y-201493252D01*
X403074107Y-201064680D02*
X403645535Y-201636109D01*
X402216964Y-201064680D02*
X402407440Y-201064680D01*
X402502678Y-201112300D01*
X402550297Y-201159919D01*
X402645535Y-201302776D01*
X402693154Y-201493252D01*
X402693154Y-201874204D01*
X402645535Y-201969442D01*
X402597916Y-202017061D01*
X402502678Y-202064680D01*
X402312202Y-202064680D01*
X402216964Y-202017061D01*
X402169345Y-201969442D01*
X402121726Y-201874204D01*
X402121726Y-201636109D01*
X402169345Y-201540871D01*
X402216964Y-201493252D01*
X402312202Y-201445633D01*
X402502678Y-201445633D01*
X402597916Y-201493252D01*
X402645535Y-201540871D01*
X402693154Y-201636109D01*
X401788392Y-201064680D02*
X401121726Y-201064680D01*
X401550297Y-202064680D01*
%TO.C,K72*%
X503658035Y-202064680D02*
X503658035Y-201064680D01*
X503086607Y-202064680D02*
X503515178Y-201493252D01*
X503086607Y-201064680D02*
X503658035Y-201636109D01*
X502753273Y-201064680D02*
X502086607Y-201064680D01*
X502515178Y-202064680D01*
X501753273Y-201159919D02*
X501705654Y-201112300D01*
X501610416Y-201064680D01*
X501372321Y-201064680D01*
X501277083Y-201112300D01*
X501229464Y-201159919D01*
X501181845Y-201255157D01*
X501181845Y-201350395D01*
X501229464Y-201493252D01*
X501800892Y-202064680D01*
X501181845Y-202064680D01*
%TO.C,K1*%
X112656845Y-154439680D02*
X112656845Y-153439680D01*
X112085416Y-154439680D02*
X112513988Y-153868252D01*
X112085416Y-153439680D02*
X112656845Y-154011109D01*
X111133035Y-154439680D02*
X111704464Y-154439680D01*
X111418750Y-154439680D02*
X111418750Y-153439680D01*
X111513988Y-153582538D01*
X111609226Y-153677776D01*
X111704464Y-153725395D01*
%TO.C,K10*%
X403645535Y-135389680D02*
X403645535Y-134389680D01*
X403074107Y-135389680D02*
X403502678Y-134818252D01*
X403074107Y-134389680D02*
X403645535Y-134961109D01*
X402121726Y-135389680D02*
X402693154Y-135389680D01*
X402407440Y-135389680D02*
X402407440Y-134389680D01*
X402502678Y-134532538D01*
X402597916Y-134627776D01*
X402693154Y-134675395D01*
X401502678Y-134389680D02*
X401407440Y-134389680D01*
X401312202Y-134437300D01*
X401264583Y-134484919D01*
X401216964Y-134580157D01*
X401169345Y-134770633D01*
X401169345Y-135008728D01*
X401216964Y-135199204D01*
X401264583Y-135294442D01*
X401312202Y-135342061D01*
X401407440Y-135389680D01*
X401502678Y-135389680D01*
X401597916Y-135342061D01*
X401645535Y-135294442D01*
X401693154Y-135199204D01*
X401740773Y-135008728D01*
X401740773Y-134770633D01*
X401693154Y-134580157D01*
X401645535Y-134484919D01*
X401597916Y-134437300D01*
X401502678Y-134389680D01*
%TO.C,K74*%
X70270535Y-221114680D02*
X70270535Y-220114680D01*
X69699107Y-221114680D02*
X70127678Y-220543252D01*
X69699107Y-220114680D02*
X70270535Y-220686109D01*
X69365773Y-220114680D02*
X68699107Y-220114680D01*
X69127678Y-221114680D01*
X67889583Y-220448014D02*
X67889583Y-221114680D01*
X68127678Y-220067061D02*
X68365773Y-220781347D01*
X67746726Y-220781347D01*
%TO.C,K23*%
X360783035Y-154439680D02*
X360783035Y-153439680D01*
X360211607Y-154439680D02*
X360640178Y-153868252D01*
X360211607Y-153439680D02*
X360783035Y-154011109D01*
X359830654Y-153534919D02*
X359783035Y-153487300D01*
X359687797Y-153439680D01*
X359449702Y-153439680D01*
X359354464Y-153487300D01*
X359306845Y-153534919D01*
X359259226Y-153630157D01*
X359259226Y-153725395D01*
X359306845Y-153868252D01*
X359878273Y-154439680D01*
X359259226Y-154439680D01*
X358925892Y-153439680D02*
X358306845Y-153439680D01*
X358640178Y-153820633D01*
X358497321Y-153820633D01*
X358402083Y-153868252D01*
X358354464Y-153915871D01*
X358306845Y-154011109D01*
X358306845Y-154249204D01*
X358354464Y-154344442D01*
X358402083Y-154392061D01*
X358497321Y-154439680D01*
X358783035Y-154439680D01*
X358878273Y-154392061D01*
X358925892Y-154344442D01*
%TO.C,K120*%
X377927976Y-259214680D02*
X377927976Y-258214680D01*
X377356547Y-259214680D02*
X377785119Y-258643252D01*
X377356547Y-258214680D02*
X377927976Y-258786109D01*
X376404166Y-259214680D02*
X376975595Y-259214680D01*
X376689880Y-259214680D02*
X376689880Y-258214680D01*
X376785119Y-258357538D01*
X376880357Y-258452776D01*
X376975595Y-258500395D01*
X376023214Y-258309919D02*
X375975595Y-258262300D01*
X375880357Y-258214680D01*
X375642261Y-258214680D01*
X375547023Y-258262300D01*
X375499404Y-258309919D01*
X375451785Y-258405157D01*
X375451785Y-258500395D01*
X375499404Y-258643252D01*
X376070833Y-259214680D01*
X375451785Y-259214680D01*
X374832738Y-258214680D02*
X374737500Y-258214680D01*
X374642261Y-258262300D01*
X374594642Y-258309919D01*
X374547023Y-258405157D01*
X374499404Y-258595633D01*
X374499404Y-258833728D01*
X374547023Y-259024204D01*
X374594642Y-259119442D01*
X374642261Y-259167061D01*
X374737500Y-259214680D01*
X374832738Y-259214680D01*
X374927976Y-259167061D01*
X374975595Y-259119442D01*
X375023214Y-259024204D01*
X375070833Y-258833728D01*
X375070833Y-258595633D01*
X375023214Y-258405157D01*
X374975595Y-258309919D01*
X374927976Y-258262300D01*
X374832738Y-258214680D01*
%TO.C,K28*%
X70270535Y-183014680D02*
X70270535Y-182014680D01*
X69699107Y-183014680D02*
X70127678Y-182443252D01*
X69699107Y-182014680D02*
X70270535Y-182586109D01*
X69318154Y-182109919D02*
X69270535Y-182062300D01*
X69175297Y-182014680D01*
X68937202Y-182014680D01*
X68841964Y-182062300D01*
X68794345Y-182109919D01*
X68746726Y-182205157D01*
X68746726Y-182300395D01*
X68794345Y-182443252D01*
X69365773Y-183014680D01*
X68746726Y-183014680D01*
X68175297Y-182443252D02*
X68270535Y-182395633D01*
X68318154Y-182348014D01*
X68365773Y-182252776D01*
X68365773Y-182205157D01*
X68318154Y-182109919D01*
X68270535Y-182062300D01*
X68175297Y-182014680D01*
X67984821Y-182014680D01*
X67889583Y-182062300D01*
X67841964Y-182109919D01*
X67794345Y-182205157D01*
X67794345Y-182252776D01*
X67841964Y-182348014D01*
X67889583Y-182395633D01*
X67984821Y-182443252D01*
X68175297Y-182443252D01*
X68270535Y-182490871D01*
X68318154Y-182538490D01*
X68365773Y-182633728D01*
X68365773Y-182824204D01*
X68318154Y-182919442D01*
X68270535Y-182967061D01*
X68175297Y-183014680D01*
X67984821Y-183014680D01*
X67889583Y-182967061D01*
X67841964Y-182919442D01*
X67794345Y-182824204D01*
X67794345Y-182633728D01*
X67841964Y-182538490D01*
X67889583Y-182490871D01*
X67984821Y-182443252D01*
%TO.C,K96*%
X155995535Y-240164680D02*
X155995535Y-239164680D01*
X155424107Y-240164680D02*
X155852678Y-239593252D01*
X155424107Y-239164680D02*
X155995535Y-239736109D01*
X154947916Y-240164680D02*
X154757440Y-240164680D01*
X154662202Y-240117061D01*
X154614583Y-240069442D01*
X154519345Y-239926585D01*
X154471726Y-239736109D01*
X154471726Y-239355157D01*
X154519345Y-239259919D01*
X154566964Y-239212300D01*
X154662202Y-239164680D01*
X154852678Y-239164680D01*
X154947916Y-239212300D01*
X154995535Y-239259919D01*
X155043154Y-239355157D01*
X155043154Y-239593252D01*
X154995535Y-239688490D01*
X154947916Y-239736109D01*
X154852678Y-239783728D01*
X154662202Y-239783728D01*
X154566964Y-239736109D01*
X154519345Y-239688490D01*
X154471726Y-239593252D01*
X153614583Y-239164680D02*
X153805059Y-239164680D01*
X153900297Y-239212300D01*
X153947916Y-239259919D01*
X154043154Y-239402776D01*
X154090773Y-239593252D01*
X154090773Y-239974204D01*
X154043154Y-240069442D01*
X153995535Y-240117061D01*
X153900297Y-240164680D01*
X153709821Y-240164680D01*
X153614583Y-240117061D01*
X153566964Y-240069442D01*
X153519345Y-239974204D01*
X153519345Y-239736109D01*
X153566964Y-239640871D01*
X153614583Y-239593252D01*
X153709821Y-239545633D01*
X153900297Y-239545633D01*
X153995535Y-239593252D01*
X154043154Y-239640871D01*
X154090773Y-239736109D01*
%TO.C,K118*%
X330302976Y-259214680D02*
X330302976Y-258214680D01*
X329731547Y-259214680D02*
X330160119Y-258643252D01*
X329731547Y-258214680D02*
X330302976Y-258786109D01*
X328779166Y-259214680D02*
X329350595Y-259214680D01*
X329064880Y-259214680D02*
X329064880Y-258214680D01*
X329160119Y-258357538D01*
X329255357Y-258452776D01*
X329350595Y-258500395D01*
X327826785Y-259214680D02*
X328398214Y-259214680D01*
X328112500Y-259214680D02*
X328112500Y-258214680D01*
X328207738Y-258357538D01*
X328302976Y-258452776D01*
X328398214Y-258500395D01*
X327255357Y-258643252D02*
X327350595Y-258595633D01*
X327398214Y-258548014D01*
X327445833Y-258452776D01*
X327445833Y-258405157D01*
X327398214Y-258309919D01*
X327350595Y-258262300D01*
X327255357Y-258214680D01*
X327064880Y-258214680D01*
X326969642Y-258262300D01*
X326922023Y-258309919D01*
X326874404Y-258405157D01*
X326874404Y-258452776D01*
X326922023Y-258548014D01*
X326969642Y-258595633D01*
X327064880Y-258643252D01*
X327255357Y-258643252D01*
X327350595Y-258690871D01*
X327398214Y-258738490D01*
X327445833Y-258833728D01*
X327445833Y-259024204D01*
X327398214Y-259119442D01*
X327350595Y-259167061D01*
X327255357Y-259214680D01*
X327064880Y-259214680D01*
X326969642Y-259167061D01*
X326922023Y-259119442D01*
X326874404Y-259024204D01*
X326874404Y-258833728D01*
X326922023Y-258738490D01*
X326969642Y-258690871D01*
X327064880Y-258643252D01*
%TO.C,K87*%
X336970535Y-221114680D02*
X336970535Y-220114680D01*
X336399107Y-221114680D02*
X336827678Y-220543252D01*
X336399107Y-220114680D02*
X336970535Y-220686109D01*
X335827678Y-220543252D02*
X335922916Y-220495633D01*
X335970535Y-220448014D01*
X336018154Y-220352776D01*
X336018154Y-220305157D01*
X335970535Y-220209919D01*
X335922916Y-220162300D01*
X335827678Y-220114680D01*
X335637202Y-220114680D01*
X335541964Y-220162300D01*
X335494345Y-220209919D01*
X335446726Y-220305157D01*
X335446726Y-220352776D01*
X335494345Y-220448014D01*
X335541964Y-220495633D01*
X335637202Y-220543252D01*
X335827678Y-220543252D01*
X335922916Y-220590871D01*
X335970535Y-220638490D01*
X336018154Y-220733728D01*
X336018154Y-220924204D01*
X335970535Y-221019442D01*
X335922916Y-221067061D01*
X335827678Y-221114680D01*
X335637202Y-221114680D01*
X335541964Y-221067061D01*
X335494345Y-221019442D01*
X335446726Y-220924204D01*
X335446726Y-220733728D01*
X335494345Y-220638490D01*
X335541964Y-220590871D01*
X335637202Y-220543252D01*
X335113392Y-220114680D02*
X334446726Y-220114680D01*
X334875297Y-221114680D01*
%TO.C,RX1*%
X522136607Y-135389680D02*
X522469940Y-134913490D01*
X522708035Y-135389680D02*
X522708035Y-134389680D01*
X522327083Y-134389680D01*
X522231845Y-134437300D01*
X522184226Y-134484919D01*
X522136607Y-134580157D01*
X522136607Y-134723014D01*
X522184226Y-134818252D01*
X522231845Y-134865871D01*
X522327083Y-134913490D01*
X522708035Y-134913490D01*
X521803273Y-134389680D02*
X521136607Y-135389680D01*
X521136607Y-134389680D02*
X521803273Y-135389680D01*
X520231845Y-135389680D02*
X520803273Y-135389680D01*
X520517559Y-135389680D02*
X520517559Y-134389680D01*
X520612797Y-134532538D01*
X520708035Y-134627776D01*
X520803273Y-134675395D01*
%TO.C,K116*%
X235052976Y-259214680D02*
X235052976Y-258214680D01*
X234481547Y-259214680D02*
X234910119Y-258643252D01*
X234481547Y-258214680D02*
X235052976Y-258786109D01*
X233529166Y-259214680D02*
X234100595Y-259214680D01*
X233814880Y-259214680D02*
X233814880Y-258214680D01*
X233910119Y-258357538D01*
X234005357Y-258452776D01*
X234100595Y-258500395D01*
X232576785Y-259214680D02*
X233148214Y-259214680D01*
X232862500Y-259214680D02*
X232862500Y-258214680D01*
X232957738Y-258357538D01*
X233052976Y-258452776D01*
X233148214Y-258500395D01*
X231719642Y-258214680D02*
X231910119Y-258214680D01*
X232005357Y-258262300D01*
X232052976Y-258309919D01*
X232148214Y-258452776D01*
X232195833Y-258643252D01*
X232195833Y-259024204D01*
X232148214Y-259119442D01*
X232100595Y-259167061D01*
X232005357Y-259214680D01*
X231814880Y-259214680D01*
X231719642Y-259167061D01*
X231672023Y-259119442D01*
X231624404Y-259024204D01*
X231624404Y-258786109D01*
X231672023Y-258690871D01*
X231719642Y-258643252D01*
X231814880Y-258595633D01*
X232005357Y-258595633D01*
X232100595Y-258643252D01*
X232148214Y-258690871D01*
X232195833Y-258786109D01*
%TO.C,K114*%
X139802976Y-259214680D02*
X139802976Y-258214680D01*
X139231547Y-259214680D02*
X139660119Y-258643252D01*
X139231547Y-258214680D02*
X139802976Y-258786109D01*
X138279166Y-259214680D02*
X138850595Y-259214680D01*
X138564880Y-259214680D02*
X138564880Y-258214680D01*
X138660119Y-258357538D01*
X138755357Y-258452776D01*
X138850595Y-258500395D01*
X137326785Y-259214680D02*
X137898214Y-259214680D01*
X137612500Y-259214680D02*
X137612500Y-258214680D01*
X137707738Y-258357538D01*
X137802976Y-258452776D01*
X137898214Y-258500395D01*
X136469642Y-258548014D02*
X136469642Y-259214680D01*
X136707738Y-258167061D02*
X136945833Y-258881347D01*
X136326785Y-258881347D01*
%TO.C,K6*%
X236481845Y-135389680D02*
X236481845Y-134389680D01*
X235910416Y-135389680D02*
X236338988Y-134818252D01*
X235910416Y-134389680D02*
X236481845Y-134961109D01*
X235053273Y-134389680D02*
X235243750Y-134389680D01*
X235338988Y-134437300D01*
X235386607Y-134484919D01*
X235481845Y-134627776D01*
X235529464Y-134818252D01*
X235529464Y-135199204D01*
X235481845Y-135294442D01*
X235434226Y-135342061D01*
X235338988Y-135389680D01*
X235148511Y-135389680D01*
X235053273Y-135342061D01*
X235005654Y-135294442D01*
X234958035Y-135199204D01*
X234958035Y-134961109D01*
X235005654Y-134865871D01*
X235053273Y-134818252D01*
X235148511Y-134770633D01*
X235338988Y-134770633D01*
X235434226Y-134818252D01*
X235481845Y-134865871D01*
X235529464Y-134961109D01*
%TO.C,K91*%
X503658035Y-221114680D02*
X503658035Y-220114680D01*
X503086607Y-221114680D02*
X503515178Y-220543252D01*
X503086607Y-220114680D02*
X503658035Y-220686109D01*
X502610416Y-221114680D02*
X502419940Y-221114680D01*
X502324702Y-221067061D01*
X502277083Y-221019442D01*
X502181845Y-220876585D01*
X502134226Y-220686109D01*
X502134226Y-220305157D01*
X502181845Y-220209919D01*
X502229464Y-220162300D01*
X502324702Y-220114680D01*
X502515178Y-220114680D01*
X502610416Y-220162300D01*
X502658035Y-220209919D01*
X502705654Y-220305157D01*
X502705654Y-220543252D01*
X502658035Y-220638490D01*
X502610416Y-220686109D01*
X502515178Y-220733728D01*
X502324702Y-220733728D01*
X502229464Y-220686109D01*
X502181845Y-220638490D01*
X502134226Y-220543252D01*
X501181845Y-221114680D02*
X501753273Y-221114680D01*
X501467559Y-221114680D02*
X501467559Y-220114680D01*
X501562797Y-220257538D01*
X501658035Y-220352776D01*
X501753273Y-220400395D01*
%TO.C,K56*%
X179808035Y-202064680D02*
X179808035Y-201064680D01*
X179236607Y-202064680D02*
X179665178Y-201493252D01*
X179236607Y-201064680D02*
X179808035Y-201636109D01*
X178331845Y-201064680D02*
X178808035Y-201064680D01*
X178855654Y-201540871D01*
X178808035Y-201493252D01*
X178712797Y-201445633D01*
X178474702Y-201445633D01*
X178379464Y-201493252D01*
X178331845Y-201540871D01*
X178284226Y-201636109D01*
X178284226Y-201874204D01*
X178331845Y-201969442D01*
X178379464Y-202017061D01*
X178474702Y-202064680D01*
X178712797Y-202064680D01*
X178808035Y-202017061D01*
X178855654Y-201969442D01*
X177427083Y-201064680D02*
X177617559Y-201064680D01*
X177712797Y-201112300D01*
X177760416Y-201159919D01*
X177855654Y-201302776D01*
X177903273Y-201493252D01*
X177903273Y-201874204D01*
X177855654Y-201969442D01*
X177808035Y-202017061D01*
X177712797Y-202064680D01*
X177522321Y-202064680D01*
X177427083Y-202017061D01*
X177379464Y-201969442D01*
X177331845Y-201874204D01*
X177331845Y-201636109D01*
X177379464Y-201540871D01*
X177427083Y-201493252D01*
X177522321Y-201445633D01*
X177712797Y-201445633D01*
X177808035Y-201493252D01*
X177855654Y-201540871D01*
X177903273Y-201636109D01*
%TO.C,K15*%
X189333035Y-154439680D02*
X189333035Y-153439680D01*
X188761607Y-154439680D02*
X189190178Y-153868252D01*
X188761607Y-153439680D02*
X189333035Y-154011109D01*
X187809226Y-154439680D02*
X188380654Y-154439680D01*
X188094940Y-154439680D02*
X188094940Y-153439680D01*
X188190178Y-153582538D01*
X188285416Y-153677776D01*
X188380654Y-153725395D01*
X186904464Y-153439680D02*
X187380654Y-153439680D01*
X187428273Y-153915871D01*
X187380654Y-153868252D01*
X187285416Y-153820633D01*
X187047321Y-153820633D01*
X186952083Y-153868252D01*
X186904464Y-153915871D01*
X186856845Y-154011109D01*
X186856845Y-154249204D01*
X186904464Y-154344442D01*
X186952083Y-154392061D01*
X187047321Y-154439680D01*
X187285416Y-154439680D01*
X187380654Y-154392061D01*
X187428273Y-154344442D01*
%TO.C,K62*%
X294108035Y-202064680D02*
X294108035Y-201064680D01*
X293536607Y-202064680D02*
X293965178Y-201493252D01*
X293536607Y-201064680D02*
X294108035Y-201636109D01*
X292679464Y-201064680D02*
X292869940Y-201064680D01*
X292965178Y-201112300D01*
X293012797Y-201159919D01*
X293108035Y-201302776D01*
X293155654Y-201493252D01*
X293155654Y-201874204D01*
X293108035Y-201969442D01*
X293060416Y-202017061D01*
X292965178Y-202064680D01*
X292774702Y-202064680D01*
X292679464Y-202017061D01*
X292631845Y-201969442D01*
X292584226Y-201874204D01*
X292584226Y-201636109D01*
X292631845Y-201540871D01*
X292679464Y-201493252D01*
X292774702Y-201445633D01*
X292965178Y-201445633D01*
X293060416Y-201493252D01*
X293108035Y-201540871D01*
X293155654Y-201636109D01*
X292203273Y-201159919D02*
X292155654Y-201112300D01*
X292060416Y-201064680D01*
X291822321Y-201064680D01*
X291727083Y-201112300D01*
X291679464Y-201159919D01*
X291631845Y-201255157D01*
X291631845Y-201350395D01*
X291679464Y-201493252D01*
X292250892Y-202064680D01*
X291631845Y-202064680D01*
%TO.C,K22*%
X341733035Y-154439680D02*
X341733035Y-153439680D01*
X341161607Y-154439680D02*
X341590178Y-153868252D01*
X341161607Y-153439680D02*
X341733035Y-154011109D01*
X340780654Y-153534919D02*
X340733035Y-153487300D01*
X340637797Y-153439680D01*
X340399702Y-153439680D01*
X340304464Y-153487300D01*
X340256845Y-153534919D01*
X340209226Y-153630157D01*
X340209226Y-153725395D01*
X340256845Y-153868252D01*
X340828273Y-154439680D01*
X340209226Y-154439680D01*
X339828273Y-153534919D02*
X339780654Y-153487300D01*
X339685416Y-153439680D01*
X339447321Y-153439680D01*
X339352083Y-153487300D01*
X339304464Y-153534919D01*
X339256845Y-153630157D01*
X339256845Y-153725395D01*
X339304464Y-153868252D01*
X339875892Y-154439680D01*
X339256845Y-154439680D01*
%TO.C,K107*%
X423171726Y-240164680D02*
X423171726Y-239164680D01*
X422600297Y-240164680D02*
X423028869Y-239593252D01*
X422600297Y-239164680D02*
X423171726Y-239736109D01*
X421647916Y-240164680D02*
X422219345Y-240164680D01*
X421933630Y-240164680D02*
X421933630Y-239164680D01*
X422028869Y-239307538D01*
X422124107Y-239402776D01*
X422219345Y-239450395D01*
X421028869Y-239164680D02*
X420933630Y-239164680D01*
X420838392Y-239212300D01*
X420790773Y-239259919D01*
X420743154Y-239355157D01*
X420695535Y-239545633D01*
X420695535Y-239783728D01*
X420743154Y-239974204D01*
X420790773Y-240069442D01*
X420838392Y-240117061D01*
X420933630Y-240164680D01*
X421028869Y-240164680D01*
X421124107Y-240117061D01*
X421171726Y-240069442D01*
X421219345Y-239974204D01*
X421266964Y-239783728D01*
X421266964Y-239545633D01*
X421219345Y-239355157D01*
X421171726Y-239259919D01*
X421124107Y-239212300D01*
X421028869Y-239164680D01*
X420362202Y-239164680D02*
X419695535Y-239164680D01*
X420124107Y-240164680D01*
%TO.C,K98*%
X194095535Y-240164680D02*
X194095535Y-239164680D01*
X193524107Y-240164680D02*
X193952678Y-239593252D01*
X193524107Y-239164680D02*
X194095535Y-239736109D01*
X193047916Y-240164680D02*
X192857440Y-240164680D01*
X192762202Y-240117061D01*
X192714583Y-240069442D01*
X192619345Y-239926585D01*
X192571726Y-239736109D01*
X192571726Y-239355157D01*
X192619345Y-239259919D01*
X192666964Y-239212300D01*
X192762202Y-239164680D01*
X192952678Y-239164680D01*
X193047916Y-239212300D01*
X193095535Y-239259919D01*
X193143154Y-239355157D01*
X193143154Y-239593252D01*
X193095535Y-239688490D01*
X193047916Y-239736109D01*
X192952678Y-239783728D01*
X192762202Y-239783728D01*
X192666964Y-239736109D01*
X192619345Y-239688490D01*
X192571726Y-239593252D01*
X192000297Y-239593252D02*
X192095535Y-239545633D01*
X192143154Y-239498014D01*
X192190773Y-239402776D01*
X192190773Y-239355157D01*
X192143154Y-239259919D01*
X192095535Y-239212300D01*
X192000297Y-239164680D01*
X191809821Y-239164680D01*
X191714583Y-239212300D01*
X191666964Y-239259919D01*
X191619345Y-239355157D01*
X191619345Y-239402776D01*
X191666964Y-239498014D01*
X191714583Y-239545633D01*
X191809821Y-239593252D01*
X192000297Y-239593252D01*
X192095535Y-239640871D01*
X192143154Y-239688490D01*
X192190773Y-239783728D01*
X192190773Y-239974204D01*
X192143154Y-240069442D01*
X192095535Y-240117061D01*
X192000297Y-240164680D01*
X191809821Y-240164680D01*
X191714583Y-240117061D01*
X191666964Y-240069442D01*
X191619345Y-239974204D01*
X191619345Y-239783728D01*
X191666964Y-239688490D01*
X191714583Y-239640871D01*
X191809821Y-239593252D01*
%TO.C,K66*%
X375070535Y-202064680D02*
X375070535Y-201064680D01*
X374499107Y-202064680D02*
X374927678Y-201493252D01*
X374499107Y-201064680D02*
X375070535Y-201636109D01*
X373641964Y-201064680D02*
X373832440Y-201064680D01*
X373927678Y-201112300D01*
X373975297Y-201159919D01*
X374070535Y-201302776D01*
X374118154Y-201493252D01*
X374118154Y-201874204D01*
X374070535Y-201969442D01*
X374022916Y-202017061D01*
X373927678Y-202064680D01*
X373737202Y-202064680D01*
X373641964Y-202017061D01*
X373594345Y-201969442D01*
X373546726Y-201874204D01*
X373546726Y-201636109D01*
X373594345Y-201540871D01*
X373641964Y-201493252D01*
X373737202Y-201445633D01*
X373927678Y-201445633D01*
X374022916Y-201493252D01*
X374070535Y-201540871D01*
X374118154Y-201636109D01*
X372689583Y-201064680D02*
X372880059Y-201064680D01*
X372975297Y-201112300D01*
X373022916Y-201159919D01*
X373118154Y-201302776D01*
X373165773Y-201493252D01*
X373165773Y-201874204D01*
X373118154Y-201969442D01*
X373070535Y-202017061D01*
X372975297Y-202064680D01*
X372784821Y-202064680D01*
X372689583Y-202017061D01*
X372641964Y-201969442D01*
X372594345Y-201874204D01*
X372594345Y-201636109D01*
X372641964Y-201540871D01*
X372689583Y-201493252D01*
X372784821Y-201445633D01*
X372975297Y-201445633D01*
X373070535Y-201493252D01*
X373118154Y-201540871D01*
X373165773Y-201636109D01*
%TO.C,K47*%
X465558035Y-183014680D02*
X465558035Y-182014680D01*
X464986607Y-183014680D02*
X465415178Y-182443252D01*
X464986607Y-182014680D02*
X465558035Y-182586109D01*
X464129464Y-182348014D02*
X464129464Y-183014680D01*
X464367559Y-181967061D02*
X464605654Y-182681347D01*
X463986607Y-182681347D01*
X463700892Y-182014680D02*
X463034226Y-182014680D01*
X463462797Y-183014680D01*
%TO.C,K102*%
X270771726Y-240164680D02*
X270771726Y-239164680D01*
X270200297Y-240164680D02*
X270628869Y-239593252D01*
X270200297Y-239164680D02*
X270771726Y-239736109D01*
X269247916Y-240164680D02*
X269819345Y-240164680D01*
X269533630Y-240164680D02*
X269533630Y-239164680D01*
X269628869Y-239307538D01*
X269724107Y-239402776D01*
X269819345Y-239450395D01*
X268628869Y-239164680D02*
X268533630Y-239164680D01*
X268438392Y-239212300D01*
X268390773Y-239259919D01*
X268343154Y-239355157D01*
X268295535Y-239545633D01*
X268295535Y-239783728D01*
X268343154Y-239974204D01*
X268390773Y-240069442D01*
X268438392Y-240117061D01*
X268533630Y-240164680D01*
X268628869Y-240164680D01*
X268724107Y-240117061D01*
X268771726Y-240069442D01*
X268819345Y-239974204D01*
X268866964Y-239783728D01*
X268866964Y-239545633D01*
X268819345Y-239355157D01*
X268771726Y-239259919D01*
X268724107Y-239212300D01*
X268628869Y-239164680D01*
X267914583Y-239259919D02*
X267866964Y-239212300D01*
X267771726Y-239164680D01*
X267533630Y-239164680D01*
X267438392Y-239212300D01*
X267390773Y-239259919D01*
X267343154Y-239355157D01*
X267343154Y-239450395D01*
X267390773Y-239593252D01*
X267962202Y-240164680D01*
X267343154Y-240164680D01*
%TO.C,K12*%
X441745535Y-135389680D02*
X441745535Y-134389680D01*
X441174107Y-135389680D02*
X441602678Y-134818252D01*
X441174107Y-134389680D02*
X441745535Y-134961109D01*
X440221726Y-135389680D02*
X440793154Y-135389680D01*
X440507440Y-135389680D02*
X440507440Y-134389680D01*
X440602678Y-134532538D01*
X440697916Y-134627776D01*
X440793154Y-134675395D01*
X439840773Y-134484919D02*
X439793154Y-134437300D01*
X439697916Y-134389680D01*
X439459821Y-134389680D01*
X439364583Y-134437300D01*
X439316964Y-134484919D01*
X439269345Y-134580157D01*
X439269345Y-134675395D01*
X439316964Y-134818252D01*
X439888392Y-135389680D01*
X439269345Y-135389680D01*
%TO.C,K99*%
X213145535Y-240164680D02*
X213145535Y-239164680D01*
X212574107Y-240164680D02*
X213002678Y-239593252D01*
X212574107Y-239164680D02*
X213145535Y-239736109D01*
X212097916Y-240164680D02*
X211907440Y-240164680D01*
X211812202Y-240117061D01*
X211764583Y-240069442D01*
X211669345Y-239926585D01*
X211621726Y-239736109D01*
X211621726Y-239355157D01*
X211669345Y-239259919D01*
X211716964Y-239212300D01*
X211812202Y-239164680D01*
X212002678Y-239164680D01*
X212097916Y-239212300D01*
X212145535Y-239259919D01*
X212193154Y-239355157D01*
X212193154Y-239593252D01*
X212145535Y-239688490D01*
X212097916Y-239736109D01*
X212002678Y-239783728D01*
X211812202Y-239783728D01*
X211716964Y-239736109D01*
X211669345Y-239688490D01*
X211621726Y-239593252D01*
X211145535Y-240164680D02*
X210955059Y-240164680D01*
X210859821Y-240117061D01*
X210812202Y-240069442D01*
X210716964Y-239926585D01*
X210669345Y-239736109D01*
X210669345Y-239355157D01*
X210716964Y-239259919D01*
X210764583Y-239212300D01*
X210859821Y-239164680D01*
X211050297Y-239164680D01*
X211145535Y-239212300D01*
X211193154Y-239259919D01*
X211240773Y-239355157D01*
X211240773Y-239593252D01*
X211193154Y-239688490D01*
X211145535Y-239736109D01*
X211050297Y-239783728D01*
X210859821Y-239783728D01*
X210764583Y-239736109D01*
X210716964Y-239688490D01*
X210669345Y-239593252D01*
%TO.C,K117*%
X306490476Y-259214680D02*
X306490476Y-258214680D01*
X305919047Y-259214680D02*
X306347619Y-258643252D01*
X305919047Y-258214680D02*
X306490476Y-258786109D01*
X304966666Y-259214680D02*
X305538095Y-259214680D01*
X305252380Y-259214680D02*
X305252380Y-258214680D01*
X305347619Y-258357538D01*
X305442857Y-258452776D01*
X305538095Y-258500395D01*
X304014285Y-259214680D02*
X304585714Y-259214680D01*
X304300000Y-259214680D02*
X304300000Y-258214680D01*
X304395238Y-258357538D01*
X304490476Y-258452776D01*
X304585714Y-258500395D01*
X303680952Y-258214680D02*
X303014285Y-258214680D01*
X303442857Y-259214680D01*
%TO.C,K60*%
X256008035Y-202064680D02*
X256008035Y-201064680D01*
X255436607Y-202064680D02*
X255865178Y-201493252D01*
X255436607Y-201064680D02*
X256008035Y-201636109D01*
X254579464Y-201064680D02*
X254769940Y-201064680D01*
X254865178Y-201112300D01*
X254912797Y-201159919D01*
X255008035Y-201302776D01*
X255055654Y-201493252D01*
X255055654Y-201874204D01*
X255008035Y-201969442D01*
X254960416Y-202017061D01*
X254865178Y-202064680D01*
X254674702Y-202064680D01*
X254579464Y-202017061D01*
X254531845Y-201969442D01*
X254484226Y-201874204D01*
X254484226Y-201636109D01*
X254531845Y-201540871D01*
X254579464Y-201493252D01*
X254674702Y-201445633D01*
X254865178Y-201445633D01*
X254960416Y-201493252D01*
X255008035Y-201540871D01*
X255055654Y-201636109D01*
X253865178Y-201064680D02*
X253769940Y-201064680D01*
X253674702Y-201112300D01*
X253627083Y-201159919D01*
X253579464Y-201255157D01*
X253531845Y-201445633D01*
X253531845Y-201683728D01*
X253579464Y-201874204D01*
X253627083Y-201969442D01*
X253674702Y-202017061D01*
X253769940Y-202064680D01*
X253865178Y-202064680D01*
X253960416Y-202017061D01*
X254008035Y-201969442D01*
X254055654Y-201874204D01*
X254103273Y-201683728D01*
X254103273Y-201445633D01*
X254055654Y-201255157D01*
X254008035Y-201159919D01*
X253960416Y-201112300D01*
X253865178Y-201064680D01*
%TO.C,K33*%
X170283035Y-183014680D02*
X170283035Y-182014680D01*
X169711607Y-183014680D02*
X170140178Y-182443252D01*
X169711607Y-182014680D02*
X170283035Y-182586109D01*
X169378273Y-182014680D02*
X168759226Y-182014680D01*
X169092559Y-182395633D01*
X168949702Y-182395633D01*
X168854464Y-182443252D01*
X168806845Y-182490871D01*
X168759226Y-182586109D01*
X168759226Y-182824204D01*
X168806845Y-182919442D01*
X168854464Y-182967061D01*
X168949702Y-183014680D01*
X169235416Y-183014680D01*
X169330654Y-182967061D01*
X169378273Y-182919442D01*
X168425892Y-182014680D02*
X167806845Y-182014680D01*
X168140178Y-182395633D01*
X167997321Y-182395633D01*
X167902083Y-182443252D01*
X167854464Y-182490871D01*
X167806845Y-182586109D01*
X167806845Y-182824204D01*
X167854464Y-182919442D01*
X167902083Y-182967061D01*
X167997321Y-183014680D01*
X168283035Y-183014680D01*
X168378273Y-182967061D01*
X168425892Y-182919442D01*
%TO.C,K36*%
X227433035Y-183014680D02*
X227433035Y-182014680D01*
X226861607Y-183014680D02*
X227290178Y-182443252D01*
X226861607Y-182014680D02*
X227433035Y-182586109D01*
X226528273Y-182014680D02*
X225909226Y-182014680D01*
X226242559Y-182395633D01*
X226099702Y-182395633D01*
X226004464Y-182443252D01*
X225956845Y-182490871D01*
X225909226Y-182586109D01*
X225909226Y-182824204D01*
X225956845Y-182919442D01*
X226004464Y-182967061D01*
X226099702Y-183014680D01*
X226385416Y-183014680D01*
X226480654Y-182967061D01*
X226528273Y-182919442D01*
X225052083Y-182014680D02*
X225242559Y-182014680D01*
X225337797Y-182062300D01*
X225385416Y-182109919D01*
X225480654Y-182252776D01*
X225528273Y-182443252D01*
X225528273Y-182824204D01*
X225480654Y-182919442D01*
X225433035Y-182967061D01*
X225337797Y-183014680D01*
X225147321Y-183014680D01*
X225052083Y-182967061D01*
X225004464Y-182919442D01*
X224956845Y-182824204D01*
X224956845Y-182586109D01*
X225004464Y-182490871D01*
X225052083Y-182443252D01*
X225147321Y-182395633D01*
X225337797Y-182395633D01*
X225433035Y-182443252D01*
X225480654Y-182490871D01*
X225528273Y-182586109D01*
%TO.C,K97*%
X175045535Y-240164680D02*
X175045535Y-239164680D01*
X174474107Y-240164680D02*
X174902678Y-239593252D01*
X174474107Y-239164680D02*
X175045535Y-239736109D01*
X173997916Y-240164680D02*
X173807440Y-240164680D01*
X173712202Y-240117061D01*
X173664583Y-240069442D01*
X173569345Y-239926585D01*
X173521726Y-239736109D01*
X173521726Y-239355157D01*
X173569345Y-239259919D01*
X173616964Y-239212300D01*
X173712202Y-239164680D01*
X173902678Y-239164680D01*
X173997916Y-239212300D01*
X174045535Y-239259919D01*
X174093154Y-239355157D01*
X174093154Y-239593252D01*
X174045535Y-239688490D01*
X173997916Y-239736109D01*
X173902678Y-239783728D01*
X173712202Y-239783728D01*
X173616964Y-239736109D01*
X173569345Y-239688490D01*
X173521726Y-239593252D01*
X173188392Y-239164680D02*
X172521726Y-239164680D01*
X172950297Y-240164680D01*
%TO.C,K34*%
X189333035Y-183014680D02*
X189333035Y-182014680D01*
X188761607Y-183014680D02*
X189190178Y-182443252D01*
X188761607Y-182014680D02*
X189333035Y-182586109D01*
X188428273Y-182014680D02*
X187809226Y-182014680D01*
X188142559Y-182395633D01*
X187999702Y-182395633D01*
X187904464Y-182443252D01*
X187856845Y-182490871D01*
X187809226Y-182586109D01*
X187809226Y-182824204D01*
X187856845Y-182919442D01*
X187904464Y-182967061D01*
X187999702Y-183014680D01*
X188285416Y-183014680D01*
X188380654Y-182967061D01*
X188428273Y-182919442D01*
X186952083Y-182348014D02*
X186952083Y-183014680D01*
X187190178Y-181967061D02*
X187428273Y-182681347D01*
X186809226Y-182681347D01*
%TO.C,K53*%
X117895535Y-202064680D02*
X117895535Y-201064680D01*
X117324107Y-202064680D02*
X117752678Y-201493252D01*
X117324107Y-201064680D02*
X117895535Y-201636109D01*
X116419345Y-201064680D02*
X116895535Y-201064680D01*
X116943154Y-201540871D01*
X116895535Y-201493252D01*
X116800297Y-201445633D01*
X116562202Y-201445633D01*
X116466964Y-201493252D01*
X116419345Y-201540871D01*
X116371726Y-201636109D01*
X116371726Y-201874204D01*
X116419345Y-201969442D01*
X116466964Y-202017061D01*
X116562202Y-202064680D01*
X116800297Y-202064680D01*
X116895535Y-202017061D01*
X116943154Y-201969442D01*
X116038392Y-201064680D02*
X115419345Y-201064680D01*
X115752678Y-201445633D01*
X115609821Y-201445633D01*
X115514583Y-201493252D01*
X115466964Y-201540871D01*
X115419345Y-201636109D01*
X115419345Y-201874204D01*
X115466964Y-201969442D01*
X115514583Y-202017061D01*
X115609821Y-202064680D01*
X115895535Y-202064680D01*
X115990773Y-202017061D01*
X116038392Y-201969442D01*
%TO.C,K124*%
X466034226Y-259214680D02*
X466034226Y-258214680D01*
X465462797Y-259214680D02*
X465891369Y-258643252D01*
X465462797Y-258214680D02*
X466034226Y-258786109D01*
X464510416Y-259214680D02*
X465081845Y-259214680D01*
X464796130Y-259214680D02*
X464796130Y-258214680D01*
X464891369Y-258357538D01*
X464986607Y-258452776D01*
X465081845Y-258500395D01*
X464129464Y-258309919D02*
X464081845Y-258262300D01*
X463986607Y-258214680D01*
X463748511Y-258214680D01*
X463653273Y-258262300D01*
X463605654Y-258309919D01*
X463558035Y-258405157D01*
X463558035Y-258500395D01*
X463605654Y-258643252D01*
X464177083Y-259214680D01*
X463558035Y-259214680D01*
X462700892Y-258548014D02*
X462700892Y-259214680D01*
X462938988Y-258167061D02*
X463177083Y-258881347D01*
X462558035Y-258881347D01*
%TO.C,K19*%
X275058035Y-154439680D02*
X275058035Y-153439680D01*
X274486607Y-154439680D02*
X274915178Y-153868252D01*
X274486607Y-153439680D02*
X275058035Y-154011109D01*
X273534226Y-154439680D02*
X274105654Y-154439680D01*
X273819940Y-154439680D02*
X273819940Y-153439680D01*
X273915178Y-153582538D01*
X274010416Y-153677776D01*
X274105654Y-153725395D01*
X273058035Y-154439680D02*
X272867559Y-154439680D01*
X272772321Y-154392061D01*
X272724702Y-154344442D01*
X272629464Y-154201585D01*
X272581845Y-154011109D01*
X272581845Y-153630157D01*
X272629464Y-153534919D01*
X272677083Y-153487300D01*
X272772321Y-153439680D01*
X272962797Y-153439680D01*
X273058035Y-153487300D01*
X273105654Y-153534919D01*
X273153273Y-153630157D01*
X273153273Y-153868252D01*
X273105654Y-153963490D01*
X273058035Y-154011109D01*
X272962797Y-154058728D01*
X272772321Y-154058728D01*
X272677083Y-154011109D01*
X272629464Y-153963490D01*
X272581845Y-153868252D01*
%TO.C,K119*%
X354115476Y-259214680D02*
X354115476Y-258214680D01*
X353544047Y-259214680D02*
X353972619Y-258643252D01*
X353544047Y-258214680D02*
X354115476Y-258786109D01*
X352591666Y-259214680D02*
X353163095Y-259214680D01*
X352877380Y-259214680D02*
X352877380Y-258214680D01*
X352972619Y-258357538D01*
X353067857Y-258452776D01*
X353163095Y-258500395D01*
X351639285Y-259214680D02*
X352210714Y-259214680D01*
X351925000Y-259214680D02*
X351925000Y-258214680D01*
X352020238Y-258357538D01*
X352115476Y-258452776D01*
X352210714Y-258500395D01*
X351163095Y-259214680D02*
X350972619Y-259214680D01*
X350877380Y-259167061D01*
X350829761Y-259119442D01*
X350734523Y-258976585D01*
X350686904Y-258786109D01*
X350686904Y-258405157D01*
X350734523Y-258309919D01*
X350782142Y-258262300D01*
X350877380Y-258214680D01*
X351067857Y-258214680D01*
X351163095Y-258262300D01*
X351210714Y-258309919D01*
X351258333Y-258405157D01*
X351258333Y-258643252D01*
X351210714Y-258738490D01*
X351163095Y-258786109D01*
X351067857Y-258833728D01*
X350877380Y-258833728D01*
X350782142Y-258786109D01*
X350734523Y-258738490D01*
X350686904Y-258643252D01*
%TO.C,K86*%
X317920535Y-221114680D02*
X317920535Y-220114680D01*
X317349107Y-221114680D02*
X317777678Y-220543252D01*
X317349107Y-220114680D02*
X317920535Y-220686109D01*
X316777678Y-220543252D02*
X316872916Y-220495633D01*
X316920535Y-220448014D01*
X316968154Y-220352776D01*
X316968154Y-220305157D01*
X316920535Y-220209919D01*
X316872916Y-220162300D01*
X316777678Y-220114680D01*
X316587202Y-220114680D01*
X316491964Y-220162300D01*
X316444345Y-220209919D01*
X316396726Y-220305157D01*
X316396726Y-220352776D01*
X316444345Y-220448014D01*
X316491964Y-220495633D01*
X316587202Y-220543252D01*
X316777678Y-220543252D01*
X316872916Y-220590871D01*
X316920535Y-220638490D01*
X316968154Y-220733728D01*
X316968154Y-220924204D01*
X316920535Y-221019442D01*
X316872916Y-221067061D01*
X316777678Y-221114680D01*
X316587202Y-221114680D01*
X316491964Y-221067061D01*
X316444345Y-221019442D01*
X316396726Y-220924204D01*
X316396726Y-220733728D01*
X316444345Y-220638490D01*
X316491964Y-220590871D01*
X316587202Y-220543252D01*
X315539583Y-220114680D02*
X315730059Y-220114680D01*
X315825297Y-220162300D01*
X315872916Y-220209919D01*
X315968154Y-220352776D01*
X316015773Y-220543252D01*
X316015773Y-220924204D01*
X315968154Y-221019442D01*
X315920535Y-221067061D01*
X315825297Y-221114680D01*
X315634821Y-221114680D01*
X315539583Y-221067061D01*
X315491964Y-221019442D01*
X315444345Y-220924204D01*
X315444345Y-220686109D01*
X315491964Y-220590871D01*
X315539583Y-220543252D01*
X315634821Y-220495633D01*
X315825297Y-220495633D01*
X315920535Y-220543252D01*
X315968154Y-220590871D01*
X316015773Y-220686109D01*
%TO.C,K18*%
X256008035Y-154439680D02*
X256008035Y-153439680D01*
X255436607Y-154439680D02*
X255865178Y-153868252D01*
X255436607Y-153439680D02*
X256008035Y-154011109D01*
X254484226Y-154439680D02*
X255055654Y-154439680D01*
X254769940Y-154439680D02*
X254769940Y-153439680D01*
X254865178Y-153582538D01*
X254960416Y-153677776D01*
X255055654Y-153725395D01*
X253912797Y-153868252D02*
X254008035Y-153820633D01*
X254055654Y-153773014D01*
X254103273Y-153677776D01*
X254103273Y-153630157D01*
X254055654Y-153534919D01*
X254008035Y-153487300D01*
X253912797Y-153439680D01*
X253722321Y-153439680D01*
X253627083Y-153487300D01*
X253579464Y-153534919D01*
X253531845Y-153630157D01*
X253531845Y-153677776D01*
X253579464Y-153773014D01*
X253627083Y-153820633D01*
X253722321Y-153868252D01*
X253912797Y-153868252D01*
X254008035Y-153915871D01*
X254055654Y-153963490D01*
X254103273Y-154058728D01*
X254103273Y-154249204D01*
X254055654Y-154344442D01*
X254008035Y-154392061D01*
X253912797Y-154439680D01*
X253722321Y-154439680D01*
X253627083Y-154392061D01*
X253579464Y-154344442D01*
X253531845Y-154249204D01*
X253531845Y-154058728D01*
X253579464Y-153963490D01*
X253627083Y-153915871D01*
X253722321Y-153868252D01*
%TO.C,K108*%
X466034226Y-240164680D02*
X466034226Y-239164680D01*
X465462797Y-240164680D02*
X465891369Y-239593252D01*
X465462797Y-239164680D02*
X466034226Y-239736109D01*
X464510416Y-240164680D02*
X465081845Y-240164680D01*
X464796130Y-240164680D02*
X464796130Y-239164680D01*
X464891369Y-239307538D01*
X464986607Y-239402776D01*
X465081845Y-239450395D01*
X463891369Y-239164680D02*
X463796130Y-239164680D01*
X463700892Y-239212300D01*
X463653273Y-239259919D01*
X463605654Y-239355157D01*
X463558035Y-239545633D01*
X463558035Y-239783728D01*
X463605654Y-239974204D01*
X463653273Y-240069442D01*
X463700892Y-240117061D01*
X463796130Y-240164680D01*
X463891369Y-240164680D01*
X463986607Y-240117061D01*
X464034226Y-240069442D01*
X464081845Y-239974204D01*
X464129464Y-239783728D01*
X464129464Y-239545633D01*
X464081845Y-239355157D01*
X464034226Y-239259919D01*
X463986607Y-239212300D01*
X463891369Y-239164680D01*
X462986607Y-239593252D02*
X463081845Y-239545633D01*
X463129464Y-239498014D01*
X463177083Y-239402776D01*
X463177083Y-239355157D01*
X463129464Y-239259919D01*
X463081845Y-239212300D01*
X462986607Y-239164680D01*
X462796130Y-239164680D01*
X462700892Y-239212300D01*
X462653273Y-239259919D01*
X462605654Y-239355157D01*
X462605654Y-239402776D01*
X462653273Y-239498014D01*
X462700892Y-239545633D01*
X462796130Y-239593252D01*
X462986607Y-239593252D01*
X463081845Y-239640871D01*
X463129464Y-239688490D01*
X463177083Y-239783728D01*
X463177083Y-239974204D01*
X463129464Y-240069442D01*
X463081845Y-240117061D01*
X462986607Y-240164680D01*
X462796130Y-240164680D01*
X462700892Y-240117061D01*
X462653273Y-240069442D01*
X462605654Y-239974204D01*
X462605654Y-239783728D01*
X462653273Y-239688490D01*
X462700892Y-239640871D01*
X462796130Y-239593252D01*
%TO.C,K115*%
X163615476Y-259214680D02*
X163615476Y-258214680D01*
X163044047Y-259214680D02*
X163472619Y-258643252D01*
X163044047Y-258214680D02*
X163615476Y-258786109D01*
X162091666Y-259214680D02*
X162663095Y-259214680D01*
X162377380Y-259214680D02*
X162377380Y-258214680D01*
X162472619Y-258357538D01*
X162567857Y-258452776D01*
X162663095Y-258500395D01*
X161139285Y-259214680D02*
X161710714Y-259214680D01*
X161425000Y-259214680D02*
X161425000Y-258214680D01*
X161520238Y-258357538D01*
X161615476Y-258452776D01*
X161710714Y-258500395D01*
X160234523Y-258214680D02*
X160710714Y-258214680D01*
X160758333Y-258690871D01*
X160710714Y-258643252D01*
X160615476Y-258595633D01*
X160377380Y-258595633D01*
X160282142Y-258643252D01*
X160234523Y-258690871D01*
X160186904Y-258786109D01*
X160186904Y-259024204D01*
X160234523Y-259119442D01*
X160282142Y-259167061D01*
X160377380Y-259214680D01*
X160615476Y-259214680D01*
X160710714Y-259167061D01*
X160758333Y-259119442D01*
%TO.C,K5*%
X207906845Y-135389680D02*
X207906845Y-134389680D01*
X207335416Y-135389680D02*
X207763988Y-134818252D01*
X207335416Y-134389680D02*
X207906845Y-134961109D01*
X206430654Y-134389680D02*
X206906845Y-134389680D01*
X206954464Y-134865871D01*
X206906845Y-134818252D01*
X206811607Y-134770633D01*
X206573511Y-134770633D01*
X206478273Y-134818252D01*
X206430654Y-134865871D01*
X206383035Y-134961109D01*
X206383035Y-135199204D01*
X206430654Y-135294442D01*
X206478273Y-135342061D01*
X206573511Y-135389680D01*
X206811607Y-135389680D01*
X206906845Y-135342061D01*
X206954464Y-135294442D01*
%TO.C,K127*%
X525120930Y-244372023D02*
X524120930Y-244372023D01*
X525120930Y-244943452D02*
X524549502Y-244514880D01*
X524120930Y-244943452D02*
X524692359Y-244372023D01*
X525120930Y-245895833D02*
X525120930Y-245324404D01*
X525120930Y-245610119D02*
X524120930Y-245610119D01*
X524263788Y-245514880D01*
X524359026Y-245419642D01*
X524406645Y-245324404D01*
X524216169Y-246276785D02*
X524168550Y-246324404D01*
X524120930Y-246419642D01*
X524120930Y-246657738D01*
X524168550Y-246752976D01*
X524216169Y-246800595D01*
X524311407Y-246848214D01*
X524406645Y-246848214D01*
X524549502Y-246800595D01*
X525120930Y-246229166D01*
X525120930Y-246848214D01*
X524120930Y-247181547D02*
X524120930Y-247848214D01*
X525120930Y-247419642D01*
%TO.C,K63*%
X313158035Y-202064680D02*
X313158035Y-201064680D01*
X312586607Y-202064680D02*
X313015178Y-201493252D01*
X312586607Y-201064680D02*
X313158035Y-201636109D01*
X311729464Y-201064680D02*
X311919940Y-201064680D01*
X312015178Y-201112300D01*
X312062797Y-201159919D01*
X312158035Y-201302776D01*
X312205654Y-201493252D01*
X312205654Y-201874204D01*
X312158035Y-201969442D01*
X312110416Y-202017061D01*
X312015178Y-202064680D01*
X311824702Y-202064680D01*
X311729464Y-202017061D01*
X311681845Y-201969442D01*
X311634226Y-201874204D01*
X311634226Y-201636109D01*
X311681845Y-201540871D01*
X311729464Y-201493252D01*
X311824702Y-201445633D01*
X312015178Y-201445633D01*
X312110416Y-201493252D01*
X312158035Y-201540871D01*
X312205654Y-201636109D01*
X311300892Y-201064680D02*
X310681845Y-201064680D01*
X311015178Y-201445633D01*
X310872321Y-201445633D01*
X310777083Y-201493252D01*
X310729464Y-201540871D01*
X310681845Y-201636109D01*
X310681845Y-201874204D01*
X310729464Y-201969442D01*
X310777083Y-202017061D01*
X310872321Y-202064680D01*
X311158035Y-202064680D01*
X311253273Y-202017061D01*
X311300892Y-201969442D01*
%TO.C,K41*%
X322683035Y-183014680D02*
X322683035Y-182014680D01*
X322111607Y-183014680D02*
X322540178Y-182443252D01*
X322111607Y-182014680D02*
X322683035Y-182586109D01*
X321254464Y-182348014D02*
X321254464Y-183014680D01*
X321492559Y-181967061D02*
X321730654Y-182681347D01*
X321111607Y-182681347D01*
X320206845Y-183014680D02*
X320778273Y-183014680D01*
X320492559Y-183014680D02*
X320492559Y-182014680D01*
X320587797Y-182157538D01*
X320683035Y-182252776D01*
X320778273Y-182300395D01*
%TO.C,K31*%
X132183035Y-183014680D02*
X132183035Y-182014680D01*
X131611607Y-183014680D02*
X132040178Y-182443252D01*
X131611607Y-182014680D02*
X132183035Y-182586109D01*
X131278273Y-182014680D02*
X130659226Y-182014680D01*
X130992559Y-182395633D01*
X130849702Y-182395633D01*
X130754464Y-182443252D01*
X130706845Y-182490871D01*
X130659226Y-182586109D01*
X130659226Y-182824204D01*
X130706845Y-182919442D01*
X130754464Y-182967061D01*
X130849702Y-183014680D01*
X131135416Y-183014680D01*
X131230654Y-182967061D01*
X131278273Y-182919442D01*
X129706845Y-183014680D02*
X130278273Y-183014680D01*
X129992559Y-183014680D02*
X129992559Y-182014680D01*
X130087797Y-182157538D01*
X130183035Y-182252776D01*
X130278273Y-182300395D01*
%TO.C,K75*%
X89320535Y-221114680D02*
X89320535Y-220114680D01*
X88749107Y-221114680D02*
X89177678Y-220543252D01*
X88749107Y-220114680D02*
X89320535Y-220686109D01*
X88415773Y-220114680D02*
X87749107Y-220114680D01*
X88177678Y-221114680D01*
X86891964Y-220114680D02*
X87368154Y-220114680D01*
X87415773Y-220590871D01*
X87368154Y-220543252D01*
X87272916Y-220495633D01*
X87034821Y-220495633D01*
X86939583Y-220543252D01*
X86891964Y-220590871D01*
X86844345Y-220686109D01*
X86844345Y-220924204D01*
X86891964Y-221019442D01*
X86939583Y-221067061D01*
X87034821Y-221114680D01*
X87272916Y-221114680D01*
X87368154Y-221067061D01*
X87415773Y-221019442D01*
%TO.C,K4*%
X188856845Y-135389680D02*
X188856845Y-134389680D01*
X188285416Y-135389680D02*
X188713988Y-134818252D01*
X188285416Y-134389680D02*
X188856845Y-134961109D01*
X187428273Y-134723014D02*
X187428273Y-135389680D01*
X187666369Y-134342061D02*
X187904464Y-135056347D01*
X187285416Y-135056347D01*
%TO.C,K11*%
X422695535Y-135389680D02*
X422695535Y-134389680D01*
X422124107Y-135389680D02*
X422552678Y-134818252D01*
X422124107Y-134389680D02*
X422695535Y-134961109D01*
X421171726Y-135389680D02*
X421743154Y-135389680D01*
X421457440Y-135389680D02*
X421457440Y-134389680D01*
X421552678Y-134532538D01*
X421647916Y-134627776D01*
X421743154Y-134675395D01*
X420219345Y-135389680D02*
X420790773Y-135389680D01*
X420505059Y-135389680D02*
X420505059Y-134389680D01*
X420600297Y-134532538D01*
X420695535Y-134627776D01*
X420790773Y-134675395D01*
%TO.C,K43*%
X370308035Y-183014680D02*
X370308035Y-182014680D01*
X369736607Y-183014680D02*
X370165178Y-182443252D01*
X369736607Y-182014680D02*
X370308035Y-182586109D01*
X368879464Y-182348014D02*
X368879464Y-183014680D01*
X369117559Y-181967061D02*
X369355654Y-182681347D01*
X368736607Y-182681347D01*
X368450892Y-182014680D02*
X367831845Y-182014680D01*
X368165178Y-182395633D01*
X368022321Y-182395633D01*
X367927083Y-182443252D01*
X367879464Y-182490871D01*
X367831845Y-182586109D01*
X367831845Y-182824204D01*
X367879464Y-182919442D01*
X367927083Y-182967061D01*
X368022321Y-183014680D01*
X368308035Y-183014680D01*
X368403273Y-182967061D01*
X368450892Y-182919442D01*
%TO.C,K106*%
X363640476Y-240164680D02*
X363640476Y-239164680D01*
X363069047Y-240164680D02*
X363497619Y-239593252D01*
X363069047Y-239164680D02*
X363640476Y-239736109D01*
X362116666Y-240164680D02*
X362688095Y-240164680D01*
X362402380Y-240164680D02*
X362402380Y-239164680D01*
X362497619Y-239307538D01*
X362592857Y-239402776D01*
X362688095Y-239450395D01*
X361497619Y-239164680D02*
X361402380Y-239164680D01*
X361307142Y-239212300D01*
X361259523Y-239259919D01*
X361211904Y-239355157D01*
X361164285Y-239545633D01*
X361164285Y-239783728D01*
X361211904Y-239974204D01*
X361259523Y-240069442D01*
X361307142Y-240117061D01*
X361402380Y-240164680D01*
X361497619Y-240164680D01*
X361592857Y-240117061D01*
X361640476Y-240069442D01*
X361688095Y-239974204D01*
X361735714Y-239783728D01*
X361735714Y-239545633D01*
X361688095Y-239355157D01*
X361640476Y-239259919D01*
X361592857Y-239212300D01*
X361497619Y-239164680D01*
X360307142Y-239164680D02*
X360497619Y-239164680D01*
X360592857Y-239212300D01*
X360640476Y-239259919D01*
X360735714Y-239402776D01*
X360783333Y-239593252D01*
X360783333Y-239974204D01*
X360735714Y-240069442D01*
X360688095Y-240117061D01*
X360592857Y-240164680D01*
X360402380Y-240164680D01*
X360307142Y-240117061D01*
X360259523Y-240069442D01*
X360211904Y-239974204D01*
X360211904Y-239736109D01*
X360259523Y-239640871D01*
X360307142Y-239593252D01*
X360402380Y-239545633D01*
X360592857Y-239545633D01*
X360688095Y-239593252D01*
X360735714Y-239640871D01*
X360783333Y-239736109D01*
%TO.C,K21*%
X322683035Y-154439680D02*
X322683035Y-153439680D01*
X322111607Y-154439680D02*
X322540178Y-153868252D01*
X322111607Y-153439680D02*
X322683035Y-154011109D01*
X321730654Y-153534919D02*
X321683035Y-153487300D01*
X321587797Y-153439680D01*
X321349702Y-153439680D01*
X321254464Y-153487300D01*
X321206845Y-153534919D01*
X321159226Y-153630157D01*
X321159226Y-153725395D01*
X321206845Y-153868252D01*
X321778273Y-154439680D01*
X321159226Y-154439680D01*
X320206845Y-154439680D02*
X320778273Y-154439680D01*
X320492559Y-154439680D02*
X320492559Y-153439680D01*
X320587797Y-153582538D01*
X320683035Y-153677776D01*
X320778273Y-153725395D01*
%TO.C,K55*%
X160758035Y-202064680D02*
X160758035Y-201064680D01*
X160186607Y-202064680D02*
X160615178Y-201493252D01*
X160186607Y-201064680D02*
X160758035Y-201636109D01*
X159281845Y-201064680D02*
X159758035Y-201064680D01*
X159805654Y-201540871D01*
X159758035Y-201493252D01*
X159662797Y-201445633D01*
X159424702Y-201445633D01*
X159329464Y-201493252D01*
X159281845Y-201540871D01*
X159234226Y-201636109D01*
X159234226Y-201874204D01*
X159281845Y-201969442D01*
X159329464Y-202017061D01*
X159424702Y-202064680D01*
X159662797Y-202064680D01*
X159758035Y-202017061D01*
X159805654Y-201969442D01*
X158329464Y-201064680D02*
X158805654Y-201064680D01*
X158853273Y-201540871D01*
X158805654Y-201493252D01*
X158710416Y-201445633D01*
X158472321Y-201445633D01*
X158377083Y-201493252D01*
X158329464Y-201540871D01*
X158281845Y-201636109D01*
X158281845Y-201874204D01*
X158329464Y-201969442D01*
X158377083Y-202017061D01*
X158472321Y-202064680D01*
X158710416Y-202064680D01*
X158805654Y-202017061D01*
X158853273Y-201969442D01*
%TO.C,K9*%
X293631845Y-135389680D02*
X293631845Y-134389680D01*
X293060416Y-135389680D02*
X293488988Y-134818252D01*
X293060416Y-134389680D02*
X293631845Y-134961109D01*
X292584226Y-135389680D02*
X292393750Y-135389680D01*
X292298511Y-135342061D01*
X292250892Y-135294442D01*
X292155654Y-135151585D01*
X292108035Y-134961109D01*
X292108035Y-134580157D01*
X292155654Y-134484919D01*
X292203273Y-134437300D01*
X292298511Y-134389680D01*
X292488988Y-134389680D01*
X292584226Y-134437300D01*
X292631845Y-134484919D01*
X292679464Y-134580157D01*
X292679464Y-134818252D01*
X292631845Y-134913490D01*
X292584226Y-134961109D01*
X292488988Y-135008728D01*
X292298511Y-135008728D01*
X292203273Y-134961109D01*
X292155654Y-134913490D01*
X292108035Y-134818252D01*
%TO.C,K40*%
X303633035Y-183014680D02*
X303633035Y-182014680D01*
X303061607Y-183014680D02*
X303490178Y-182443252D01*
X303061607Y-182014680D02*
X303633035Y-182586109D01*
X302204464Y-182348014D02*
X302204464Y-183014680D01*
X302442559Y-181967061D02*
X302680654Y-182681347D01*
X302061607Y-182681347D01*
X301490178Y-182014680D02*
X301394940Y-182014680D01*
X301299702Y-182062300D01*
X301252083Y-182109919D01*
X301204464Y-182205157D01*
X301156845Y-182395633D01*
X301156845Y-182633728D01*
X301204464Y-182824204D01*
X301252083Y-182919442D01*
X301299702Y-182967061D01*
X301394940Y-183014680D01*
X301490178Y-183014680D01*
X301585416Y-182967061D01*
X301633035Y-182919442D01*
X301680654Y-182824204D01*
X301728273Y-182633728D01*
X301728273Y-182395633D01*
X301680654Y-182205157D01*
X301633035Y-182109919D01*
X301585416Y-182062300D01*
X301490178Y-182014680D01*
%TO.C,K121*%
X404121726Y-259214680D02*
X404121726Y-258214680D01*
X403550297Y-259214680D02*
X403978869Y-258643252D01*
X403550297Y-258214680D02*
X404121726Y-258786109D01*
X402597916Y-259214680D02*
X403169345Y-259214680D01*
X402883630Y-259214680D02*
X402883630Y-258214680D01*
X402978869Y-258357538D01*
X403074107Y-258452776D01*
X403169345Y-258500395D01*
X402216964Y-258309919D02*
X402169345Y-258262300D01*
X402074107Y-258214680D01*
X401836011Y-258214680D01*
X401740773Y-258262300D01*
X401693154Y-258309919D01*
X401645535Y-258405157D01*
X401645535Y-258500395D01*
X401693154Y-258643252D01*
X402264583Y-259214680D01*
X401645535Y-259214680D01*
X400693154Y-259214680D02*
X401264583Y-259214680D01*
X400978869Y-259214680D02*
X400978869Y-258214680D01*
X401074107Y-258357538D01*
X401169345Y-258452776D01*
X401264583Y-258500395D01*
%TO.C,K16*%
X208383035Y-154439680D02*
X208383035Y-153439680D01*
X207811607Y-154439680D02*
X208240178Y-153868252D01*
X207811607Y-153439680D02*
X208383035Y-154011109D01*
X206859226Y-154439680D02*
X207430654Y-154439680D01*
X207144940Y-154439680D02*
X207144940Y-153439680D01*
X207240178Y-153582538D01*
X207335416Y-153677776D01*
X207430654Y-153725395D01*
X206002083Y-153439680D02*
X206192559Y-153439680D01*
X206287797Y-153487300D01*
X206335416Y-153534919D01*
X206430654Y-153677776D01*
X206478273Y-153868252D01*
X206478273Y-154249204D01*
X206430654Y-154344442D01*
X206383035Y-154392061D01*
X206287797Y-154439680D01*
X206097321Y-154439680D01*
X206002083Y-154392061D01*
X205954464Y-154344442D01*
X205906845Y-154249204D01*
X205906845Y-154011109D01*
X205954464Y-153915871D01*
X206002083Y-153868252D01*
X206097321Y-153820633D01*
X206287797Y-153820633D01*
X206383035Y-153868252D01*
X206430654Y-153915871D01*
X206478273Y-154011109D01*
%TO.C,K85*%
X298870535Y-221114680D02*
X298870535Y-220114680D01*
X298299107Y-221114680D02*
X298727678Y-220543252D01*
X298299107Y-220114680D02*
X298870535Y-220686109D01*
X297727678Y-220543252D02*
X297822916Y-220495633D01*
X297870535Y-220448014D01*
X297918154Y-220352776D01*
X297918154Y-220305157D01*
X297870535Y-220209919D01*
X297822916Y-220162300D01*
X297727678Y-220114680D01*
X297537202Y-220114680D01*
X297441964Y-220162300D01*
X297394345Y-220209919D01*
X297346726Y-220305157D01*
X297346726Y-220352776D01*
X297394345Y-220448014D01*
X297441964Y-220495633D01*
X297537202Y-220543252D01*
X297727678Y-220543252D01*
X297822916Y-220590871D01*
X297870535Y-220638490D01*
X297918154Y-220733728D01*
X297918154Y-220924204D01*
X297870535Y-221019442D01*
X297822916Y-221067061D01*
X297727678Y-221114680D01*
X297537202Y-221114680D01*
X297441964Y-221067061D01*
X297394345Y-221019442D01*
X297346726Y-220924204D01*
X297346726Y-220733728D01*
X297394345Y-220638490D01*
X297441964Y-220590871D01*
X297537202Y-220543252D01*
X296441964Y-220114680D02*
X296918154Y-220114680D01*
X296965773Y-220590871D01*
X296918154Y-220543252D01*
X296822916Y-220495633D01*
X296584821Y-220495633D01*
X296489583Y-220543252D01*
X296441964Y-220590871D01*
X296394345Y-220686109D01*
X296394345Y-220924204D01*
X296441964Y-221019442D01*
X296489583Y-221067061D01*
X296584821Y-221114680D01*
X296822916Y-221114680D01*
X296918154Y-221067061D01*
X296965773Y-221019442D01*
%TO.C,K14*%
X170283035Y-154439680D02*
X170283035Y-153439680D01*
X169711607Y-154439680D02*
X170140178Y-153868252D01*
X169711607Y-153439680D02*
X170283035Y-154011109D01*
X168759226Y-154439680D02*
X169330654Y-154439680D01*
X169044940Y-154439680D02*
X169044940Y-153439680D01*
X169140178Y-153582538D01*
X169235416Y-153677776D01*
X169330654Y-153725395D01*
X167902083Y-153773014D02*
X167902083Y-154439680D01*
X168140178Y-153392061D02*
X168378273Y-154106347D01*
X167759226Y-154106347D01*
%TO.C,K7*%
X255531845Y-135389680D02*
X255531845Y-134389680D01*
X254960416Y-135389680D02*
X255388988Y-134818252D01*
X254960416Y-134389680D02*
X255531845Y-134961109D01*
X254627083Y-134389680D02*
X253960416Y-134389680D01*
X254388988Y-135389680D01*
%TO.C,K71*%
X484608035Y-202064680D02*
X484608035Y-201064680D01*
X484036607Y-202064680D02*
X484465178Y-201493252D01*
X484036607Y-201064680D02*
X484608035Y-201636109D01*
X483703273Y-201064680D02*
X483036607Y-201064680D01*
X483465178Y-202064680D01*
X482131845Y-202064680D02*
X482703273Y-202064680D01*
X482417559Y-202064680D02*
X482417559Y-201064680D01*
X482512797Y-201207538D01*
X482608035Y-201302776D01*
X482703273Y-201350395D01*
%TO.C,K103*%
X289821726Y-240164680D02*
X289821726Y-239164680D01*
X289250297Y-240164680D02*
X289678869Y-239593252D01*
X289250297Y-239164680D02*
X289821726Y-239736109D01*
X288297916Y-240164680D02*
X288869345Y-240164680D01*
X288583630Y-240164680D02*
X288583630Y-239164680D01*
X288678869Y-239307538D01*
X288774107Y-239402776D01*
X288869345Y-239450395D01*
X287678869Y-239164680D02*
X287583630Y-239164680D01*
X287488392Y-239212300D01*
X287440773Y-239259919D01*
X287393154Y-239355157D01*
X287345535Y-239545633D01*
X287345535Y-239783728D01*
X287393154Y-239974204D01*
X287440773Y-240069442D01*
X287488392Y-240117061D01*
X287583630Y-240164680D01*
X287678869Y-240164680D01*
X287774107Y-240117061D01*
X287821726Y-240069442D01*
X287869345Y-239974204D01*
X287916964Y-239783728D01*
X287916964Y-239545633D01*
X287869345Y-239355157D01*
X287821726Y-239259919D01*
X287774107Y-239212300D01*
X287678869Y-239164680D01*
X287012202Y-239164680D02*
X286393154Y-239164680D01*
X286726488Y-239545633D01*
X286583630Y-239545633D01*
X286488392Y-239593252D01*
X286440773Y-239640871D01*
X286393154Y-239736109D01*
X286393154Y-239974204D01*
X286440773Y-240069442D01*
X286488392Y-240117061D01*
X286583630Y-240164680D01*
X286869345Y-240164680D01*
X286964583Y-240117061D01*
X287012202Y-240069442D01*
D12*
%TO.C,CP4*%
X482562285Y-128712933D02*
X482574190Y-128701028D01*
X482586095Y-128665314D01*
X482586095Y-128641504D01*
X482574190Y-128605790D01*
X482550380Y-128581980D01*
X482526571Y-128570076D01*
X482478952Y-128558171D01*
X482443238Y-128558171D01*
X482395619Y-128570076D01*
X482371809Y-128581980D01*
X482348000Y-128605790D01*
X482336095Y-128641504D01*
X482336095Y-128665314D01*
X482348000Y-128701028D01*
X482359904Y-128712933D01*
X482586095Y-128820076D02*
X482336095Y-128820076D01*
X482336095Y-128915314D01*
X482348000Y-128939123D01*
X482359904Y-128951028D01*
X482383714Y-128962933D01*
X482419428Y-128962933D01*
X482443238Y-128951028D01*
X482455142Y-128939123D01*
X482467047Y-128915314D01*
X482467047Y-128820076D01*
X482419428Y-129177219D02*
X482586095Y-129177219D01*
X482324190Y-129117695D02*
X482502761Y-129058171D01*
X482502761Y-129212933D01*
%TO.C,CP17*%
X456908285Y-133572285D02*
X456920190Y-133560380D01*
X456932095Y-133524666D01*
X456932095Y-133500857D01*
X456920190Y-133465142D01*
X456896380Y-133441333D01*
X456872571Y-133429428D01*
X456824952Y-133417523D01*
X456789238Y-133417523D01*
X456741619Y-133429428D01*
X456717809Y-133441333D01*
X456694000Y-133465142D01*
X456682095Y-133500857D01*
X456682095Y-133524666D01*
X456694000Y-133560380D01*
X456705904Y-133572285D01*
X456932095Y-133679428D02*
X456682095Y-133679428D01*
X456682095Y-133774666D01*
X456694000Y-133798476D01*
X456705904Y-133810380D01*
X456729714Y-133822285D01*
X456765428Y-133822285D01*
X456789238Y-133810380D01*
X456801142Y-133798476D01*
X456813047Y-133774666D01*
X456813047Y-133679428D01*
X456932095Y-134060380D02*
X456932095Y-133917523D01*
X456932095Y-133988952D02*
X456682095Y-133988952D01*
X456717809Y-133965142D01*
X456741619Y-133941333D01*
X456753523Y-133917523D01*
X456682095Y-134143714D02*
X456682095Y-134310380D01*
X456932095Y-134203238D01*
%TO.C,CP10*%
X460337285Y-128365285D02*
X460349190Y-128353380D01*
X460361095Y-128317666D01*
X460361095Y-128293857D01*
X460349190Y-128258142D01*
X460325380Y-128234333D01*
X460301571Y-128222428D01*
X460253952Y-128210523D01*
X460218238Y-128210523D01*
X460170619Y-128222428D01*
X460146809Y-128234333D01*
X460123000Y-128258142D01*
X460111095Y-128293857D01*
X460111095Y-128317666D01*
X460123000Y-128353380D01*
X460134904Y-128365285D01*
X460361095Y-128472428D02*
X460111095Y-128472428D01*
X460111095Y-128567666D01*
X460123000Y-128591476D01*
X460134904Y-128603380D01*
X460158714Y-128615285D01*
X460194428Y-128615285D01*
X460218238Y-128603380D01*
X460230142Y-128591476D01*
X460242047Y-128567666D01*
X460242047Y-128472428D01*
X460361095Y-128853380D02*
X460361095Y-128710523D01*
X460361095Y-128781952D02*
X460111095Y-128781952D01*
X460146809Y-128758142D01*
X460170619Y-128734333D01*
X460182523Y-128710523D01*
X460111095Y-129008142D02*
X460111095Y-129031952D01*
X460123000Y-129055761D01*
X460134904Y-129067666D01*
X460158714Y-129079571D01*
X460206333Y-129091476D01*
X460265857Y-129091476D01*
X460313476Y-129079571D01*
X460337285Y-129067666D01*
X460349190Y-129055761D01*
X460361095Y-129031952D01*
X460361095Y-129008142D01*
X460349190Y-128984333D01*
X460337285Y-128972428D01*
X460313476Y-128960523D01*
X460265857Y-128948619D01*
X460206333Y-128948619D01*
X460158714Y-128960523D01*
X460134904Y-128972428D01*
X460123000Y-128984333D01*
X460111095Y-129008142D01*
%TO.C,CP16*%
X458051285Y-133572285D02*
X458063190Y-133560380D01*
X458075095Y-133524666D01*
X458075095Y-133500857D01*
X458063190Y-133465142D01*
X458039380Y-133441333D01*
X458015571Y-133429428D01*
X457967952Y-133417523D01*
X457932238Y-133417523D01*
X457884619Y-133429428D01*
X457860809Y-133441333D01*
X457837000Y-133465142D01*
X457825095Y-133500857D01*
X457825095Y-133524666D01*
X457837000Y-133560380D01*
X457848904Y-133572285D01*
X458075095Y-133679428D02*
X457825095Y-133679428D01*
X457825095Y-133774666D01*
X457837000Y-133798476D01*
X457848904Y-133810380D01*
X457872714Y-133822285D01*
X457908428Y-133822285D01*
X457932238Y-133810380D01*
X457944142Y-133798476D01*
X457956047Y-133774666D01*
X457956047Y-133679428D01*
X458075095Y-134060380D02*
X458075095Y-133917523D01*
X458075095Y-133988952D02*
X457825095Y-133988952D01*
X457860809Y-133965142D01*
X457884619Y-133941333D01*
X457896523Y-133917523D01*
X457825095Y-134274666D02*
X457825095Y-134227047D01*
X457837000Y-134203238D01*
X457848904Y-134191333D01*
X457884619Y-134167523D01*
X457932238Y-134155619D01*
X458027476Y-134155619D01*
X458051285Y-134167523D01*
X458063190Y-134179428D01*
X458075095Y-134203238D01*
X458075095Y-134250857D01*
X458063190Y-134274666D01*
X458051285Y-134286571D01*
X458027476Y-134298476D01*
X457967952Y-134298476D01*
X457944142Y-134286571D01*
X457932238Y-134274666D01*
X457920333Y-134250857D01*
X457920333Y-134203238D01*
X457932238Y-134179428D01*
X457944142Y-134167523D01*
X457967952Y-134155619D01*
D11*
%TO.C,U3*%
X499363904Y-133564380D02*
X499363904Y-134373904D01*
X499316285Y-134469142D01*
X499268666Y-134516761D01*
X499173428Y-134564380D01*
X498982952Y-134564380D01*
X498887714Y-134516761D01*
X498840095Y-134469142D01*
X498792476Y-134373904D01*
X498792476Y-133564380D01*
X498411523Y-133564380D02*
X497792476Y-133564380D01*
X498125809Y-133945333D01*
X497982952Y-133945333D01*
X497887714Y-133992952D01*
X497840095Y-134040571D01*
X497792476Y-134135809D01*
X497792476Y-134373904D01*
X497840095Y-134469142D01*
X497887714Y-134516761D01*
X497982952Y-134564380D01*
X498268666Y-134564380D01*
X498363904Y-134516761D01*
X498411523Y-134469142D01*
D12*
%TO.C,CP2*%
X480276285Y-128712933D02*
X480288190Y-128701028D01*
X480300095Y-128665314D01*
X480300095Y-128641504D01*
X480288190Y-128605790D01*
X480264380Y-128581980D01*
X480240571Y-128570076D01*
X480192952Y-128558171D01*
X480157238Y-128558171D01*
X480109619Y-128570076D01*
X480085809Y-128581980D01*
X480062000Y-128605790D01*
X480050095Y-128641504D01*
X480050095Y-128665314D01*
X480062000Y-128701028D01*
X480073904Y-128712933D01*
X480300095Y-128820076D02*
X480050095Y-128820076D01*
X480050095Y-128915314D01*
X480062000Y-128939123D01*
X480073904Y-128951028D01*
X480097714Y-128962933D01*
X480133428Y-128962933D01*
X480157238Y-128951028D01*
X480169142Y-128939123D01*
X480181047Y-128915314D01*
X480181047Y-128820076D01*
X480073904Y-129058171D02*
X480062000Y-129070076D01*
X480050095Y-129093885D01*
X480050095Y-129153409D01*
X480062000Y-129177219D01*
X480073904Y-129189123D01*
X480097714Y-129201028D01*
X480121523Y-129201028D01*
X480157238Y-129189123D01*
X480300095Y-129046266D01*
X480300095Y-129201028D01*
D11*
%TO.C,U2*%
X500213380Y-143002095D02*
X501022904Y-143002095D01*
X501118142Y-143049714D01*
X501165761Y-143097333D01*
X501213380Y-143192571D01*
X501213380Y-143383047D01*
X501165761Y-143478285D01*
X501118142Y-143525904D01*
X501022904Y-143573523D01*
X500213380Y-143573523D01*
X500308619Y-144002095D02*
X500261000Y-144049714D01*
X500213380Y-144144952D01*
X500213380Y-144383047D01*
X500261000Y-144478285D01*
X500308619Y-144525904D01*
X500403857Y-144573523D01*
X500499095Y-144573523D01*
X500641952Y-144525904D01*
X501213380Y-143954476D01*
X501213380Y-144573523D01*
%TO.C,Y1*%
X496474690Y-164631690D02*
X496474690Y-165107880D01*
X496808023Y-164107880D02*
X496474690Y-164631690D01*
X496141357Y-164107880D01*
X495284214Y-165107880D02*
X495855642Y-165107880D01*
X495569928Y-165107880D02*
X495569928Y-164107880D01*
X495665166Y-164250738D01*
X495760404Y-164345976D01*
X495855642Y-164393595D01*
D12*
%TO.C,CP13*%
X456908285Y-128365285D02*
X456920190Y-128353380D01*
X456932095Y-128317666D01*
X456932095Y-128293857D01*
X456920190Y-128258142D01*
X456896380Y-128234333D01*
X456872571Y-128222428D01*
X456824952Y-128210523D01*
X456789238Y-128210523D01*
X456741619Y-128222428D01*
X456717809Y-128234333D01*
X456694000Y-128258142D01*
X456682095Y-128293857D01*
X456682095Y-128317666D01*
X456694000Y-128353380D01*
X456705904Y-128365285D01*
X456932095Y-128472428D02*
X456682095Y-128472428D01*
X456682095Y-128567666D01*
X456694000Y-128591476D01*
X456705904Y-128603380D01*
X456729714Y-128615285D01*
X456765428Y-128615285D01*
X456789238Y-128603380D01*
X456801142Y-128591476D01*
X456813047Y-128567666D01*
X456813047Y-128472428D01*
X456932095Y-128853380D02*
X456932095Y-128710523D01*
X456932095Y-128781952D02*
X456682095Y-128781952D01*
X456717809Y-128758142D01*
X456741619Y-128734333D01*
X456753523Y-128710523D01*
X456682095Y-128936714D02*
X456682095Y-129091476D01*
X456777333Y-129008142D01*
X456777333Y-129043857D01*
X456789238Y-129067666D01*
X456801142Y-129079571D01*
X456824952Y-129091476D01*
X456884476Y-129091476D01*
X456908285Y-129079571D01*
X456920190Y-129067666D01*
X456932095Y-129043857D01*
X456932095Y-128972428D01*
X456920190Y-128948619D01*
X456908285Y-128936714D01*
%TO.C,CP5*%
X483705285Y-128712933D02*
X483717190Y-128701028D01*
X483729095Y-128665314D01*
X483729095Y-128641504D01*
X483717190Y-128605790D01*
X483693380Y-128581980D01*
X483669571Y-128570076D01*
X483621952Y-128558171D01*
X483586238Y-128558171D01*
X483538619Y-128570076D01*
X483514809Y-128581980D01*
X483491000Y-128605790D01*
X483479095Y-128641504D01*
X483479095Y-128665314D01*
X483491000Y-128701028D01*
X483502904Y-128712933D01*
X483729095Y-128820076D02*
X483479095Y-128820076D01*
X483479095Y-128915314D01*
X483491000Y-128939123D01*
X483502904Y-128951028D01*
X483526714Y-128962933D01*
X483562428Y-128962933D01*
X483586238Y-128951028D01*
X483598142Y-128939123D01*
X483610047Y-128915314D01*
X483610047Y-128820076D01*
X483479095Y-129189123D02*
X483479095Y-129070076D01*
X483598142Y-129058171D01*
X483586238Y-129070076D01*
X483574333Y-129093885D01*
X483574333Y-129153409D01*
X483586238Y-129177219D01*
X483598142Y-129189123D01*
X483621952Y-129201028D01*
X483681476Y-129201028D01*
X483705285Y-129189123D01*
X483717190Y-129177219D01*
X483729095Y-129153409D01*
X483729095Y-129093885D01*
X483717190Y-129070076D01*
X483705285Y-129058171D01*
%TO.C,CP8*%
X482562285Y-133665933D02*
X482574190Y-133654028D01*
X482586095Y-133618314D01*
X482586095Y-133594504D01*
X482574190Y-133558790D01*
X482550380Y-133534980D01*
X482526571Y-133523076D01*
X482478952Y-133511171D01*
X482443238Y-133511171D01*
X482395619Y-133523076D01*
X482371809Y-133534980D01*
X482348000Y-133558790D01*
X482336095Y-133594504D01*
X482336095Y-133618314D01*
X482348000Y-133654028D01*
X482359904Y-133665933D01*
X482586095Y-133773076D02*
X482336095Y-133773076D01*
X482336095Y-133868314D01*
X482348000Y-133892123D01*
X482359904Y-133904028D01*
X482383714Y-133915933D01*
X482419428Y-133915933D01*
X482443238Y-133904028D01*
X482455142Y-133892123D01*
X482467047Y-133868314D01*
X482467047Y-133773076D01*
X482443238Y-134058790D02*
X482431333Y-134034980D01*
X482419428Y-134023076D01*
X482395619Y-134011171D01*
X482383714Y-134011171D01*
X482359904Y-134023076D01*
X482348000Y-134034980D01*
X482336095Y-134058790D01*
X482336095Y-134106409D01*
X482348000Y-134130219D01*
X482359904Y-134142123D01*
X482383714Y-134154028D01*
X482395619Y-134154028D01*
X482419428Y-134142123D01*
X482431333Y-134130219D01*
X482443238Y-134106409D01*
X482443238Y-134058790D01*
X482455142Y-134034980D01*
X482467047Y-134023076D01*
X482490857Y-134011171D01*
X482538476Y-134011171D01*
X482562285Y-134023076D01*
X482574190Y-134034980D01*
X482586095Y-134058790D01*
X482586095Y-134106409D01*
X482574190Y-134130219D01*
X482562285Y-134142123D01*
X482538476Y-134154028D01*
X482490857Y-134154028D01*
X482467047Y-134142123D01*
X482455142Y-134130219D01*
X482443238Y-134106409D01*
%TO.C,RP1*%
X473664395Y-128738333D02*
X473545347Y-128655000D01*
X473664395Y-128595476D02*
X473414395Y-128595476D01*
X473414395Y-128690714D01*
X473426300Y-128714523D01*
X473438204Y-128726428D01*
X473462014Y-128738333D01*
X473497728Y-128738333D01*
X473521538Y-128726428D01*
X473533442Y-128714523D01*
X473545347Y-128690714D01*
X473545347Y-128595476D01*
X473664395Y-128845476D02*
X473414395Y-128845476D01*
X473414395Y-128940714D01*
X473426300Y-128964523D01*
X473438204Y-128976428D01*
X473462014Y-128988333D01*
X473497728Y-128988333D01*
X473521538Y-128976428D01*
X473533442Y-128964523D01*
X473545347Y-128940714D01*
X473545347Y-128845476D01*
X473664395Y-129226428D02*
X473664395Y-129083571D01*
X473664395Y-129155000D02*
X473414395Y-129155000D01*
X473450109Y-129131190D01*
X473473919Y-129107380D01*
X473485823Y-129083571D01*
%TO.C,CP11*%
X459194285Y-128365285D02*
X459206190Y-128353380D01*
X459218095Y-128317666D01*
X459218095Y-128293857D01*
X459206190Y-128258142D01*
X459182380Y-128234333D01*
X459158571Y-128222428D01*
X459110952Y-128210523D01*
X459075238Y-128210523D01*
X459027619Y-128222428D01*
X459003809Y-128234333D01*
X458980000Y-128258142D01*
X458968095Y-128293857D01*
X458968095Y-128317666D01*
X458980000Y-128353380D01*
X458991904Y-128365285D01*
X459218095Y-128472428D02*
X458968095Y-128472428D01*
X458968095Y-128567666D01*
X458980000Y-128591476D01*
X458991904Y-128603380D01*
X459015714Y-128615285D01*
X459051428Y-128615285D01*
X459075238Y-128603380D01*
X459087142Y-128591476D01*
X459099047Y-128567666D01*
X459099047Y-128472428D01*
X459218095Y-128853380D02*
X459218095Y-128710523D01*
X459218095Y-128781952D02*
X458968095Y-128781952D01*
X459003809Y-128758142D01*
X459027619Y-128734333D01*
X459039523Y-128710523D01*
X459218095Y-129091476D02*
X459218095Y-128948619D01*
X459218095Y-129020047D02*
X458968095Y-129020047D01*
X459003809Y-128996238D01*
X459027619Y-128972428D01*
X459039523Y-128948619D01*
%TO.C,CP7*%
X481419285Y-133665933D02*
X481431190Y-133654028D01*
X481443095Y-133618314D01*
X481443095Y-133594504D01*
X481431190Y-133558790D01*
X481407380Y-133534980D01*
X481383571Y-133523076D01*
X481335952Y-133511171D01*
X481300238Y-133511171D01*
X481252619Y-133523076D01*
X481228809Y-133534980D01*
X481205000Y-133558790D01*
X481193095Y-133594504D01*
X481193095Y-133618314D01*
X481205000Y-133654028D01*
X481216904Y-133665933D01*
X481443095Y-133773076D02*
X481193095Y-133773076D01*
X481193095Y-133868314D01*
X481205000Y-133892123D01*
X481216904Y-133904028D01*
X481240714Y-133915933D01*
X481276428Y-133915933D01*
X481300238Y-133904028D01*
X481312142Y-133892123D01*
X481324047Y-133868314D01*
X481324047Y-133773076D01*
X481193095Y-133999266D02*
X481193095Y-134165933D01*
X481443095Y-134058790D01*
%TO.C,CP14*%
X460337285Y-133572285D02*
X460349190Y-133560380D01*
X460361095Y-133524666D01*
X460361095Y-133500857D01*
X460349190Y-133465142D01*
X460325380Y-133441333D01*
X460301571Y-133429428D01*
X460253952Y-133417523D01*
X460218238Y-133417523D01*
X460170619Y-133429428D01*
X460146809Y-133441333D01*
X460123000Y-133465142D01*
X460111095Y-133500857D01*
X460111095Y-133524666D01*
X460123000Y-133560380D01*
X460134904Y-133572285D01*
X460361095Y-133679428D02*
X460111095Y-133679428D01*
X460111095Y-133774666D01*
X460123000Y-133798476D01*
X460134904Y-133810380D01*
X460158714Y-133822285D01*
X460194428Y-133822285D01*
X460218238Y-133810380D01*
X460230142Y-133798476D01*
X460242047Y-133774666D01*
X460242047Y-133679428D01*
X460361095Y-134060380D02*
X460361095Y-133917523D01*
X460361095Y-133988952D02*
X460111095Y-133988952D01*
X460146809Y-133965142D01*
X460170619Y-133941333D01*
X460182523Y-133917523D01*
X460194428Y-134274666D02*
X460361095Y-134274666D01*
X460099190Y-134215142D02*
X460277761Y-134155619D01*
X460277761Y-134310380D01*
%TO.C,CP15*%
X459194285Y-133572285D02*
X459206190Y-133560380D01*
X459218095Y-133524666D01*
X459218095Y-133500857D01*
X459206190Y-133465142D01*
X459182380Y-133441333D01*
X459158571Y-133429428D01*
X459110952Y-133417523D01*
X459075238Y-133417523D01*
X459027619Y-133429428D01*
X459003809Y-133441333D01*
X458980000Y-133465142D01*
X458968095Y-133500857D01*
X458968095Y-133524666D01*
X458980000Y-133560380D01*
X458991904Y-133572285D01*
X459218095Y-133679428D02*
X458968095Y-133679428D01*
X458968095Y-133774666D01*
X458980000Y-133798476D01*
X458991904Y-133810380D01*
X459015714Y-133822285D01*
X459051428Y-133822285D01*
X459075238Y-133810380D01*
X459087142Y-133798476D01*
X459099047Y-133774666D01*
X459099047Y-133679428D01*
X459218095Y-134060380D02*
X459218095Y-133917523D01*
X459218095Y-133988952D02*
X458968095Y-133988952D01*
X459003809Y-133965142D01*
X459027619Y-133941333D01*
X459039523Y-133917523D01*
X458968095Y-134286571D02*
X458968095Y-134167523D01*
X459087142Y-134155619D01*
X459075238Y-134167523D01*
X459063333Y-134191333D01*
X459063333Y-134250857D01*
X459075238Y-134274666D01*
X459087142Y-134286571D01*
X459110952Y-134298476D01*
X459170476Y-134298476D01*
X459194285Y-134286571D01*
X459206190Y-134274666D01*
X459218095Y-134250857D01*
X459218095Y-134191333D01*
X459206190Y-134167523D01*
X459194285Y-134155619D01*
D11*
%TO.C,LP1*%
X468280666Y-125670380D02*
X468756857Y-125670380D01*
X468756857Y-124670380D01*
X467947333Y-125670380D02*
X467947333Y-124670380D01*
X467566380Y-124670380D01*
X467471142Y-124718000D01*
X467423523Y-124765619D01*
X467375904Y-124860857D01*
X467375904Y-125003714D01*
X467423523Y-125098952D01*
X467471142Y-125146571D01*
X467566380Y-125194190D01*
X467947333Y-125194190D01*
X466423523Y-125670380D02*
X466994952Y-125670380D01*
X466709238Y-125670380D02*
X466709238Y-124670380D01*
X466804476Y-124813238D01*
X466899714Y-124908476D01*
X466994952Y-124956095D01*
D12*
%TO.C,RP2*%
X473664395Y-130770333D02*
X473545347Y-130687000D01*
X473664395Y-130627476D02*
X473414395Y-130627476D01*
X473414395Y-130722714D01*
X473426300Y-130746523D01*
X473438204Y-130758428D01*
X473462014Y-130770333D01*
X473497728Y-130770333D01*
X473521538Y-130758428D01*
X473533442Y-130746523D01*
X473545347Y-130722714D01*
X473545347Y-130627476D01*
X473664395Y-130877476D02*
X473414395Y-130877476D01*
X473414395Y-130972714D01*
X473426300Y-130996523D01*
X473438204Y-131008428D01*
X473462014Y-131020333D01*
X473497728Y-131020333D01*
X473521538Y-131008428D01*
X473533442Y-130996523D01*
X473545347Y-130972714D01*
X473545347Y-130877476D01*
X473438204Y-131115571D02*
X473426300Y-131127476D01*
X473414395Y-131151285D01*
X473414395Y-131210809D01*
X473426300Y-131234619D01*
X473438204Y-131246523D01*
X473462014Y-131258428D01*
X473485823Y-131258428D01*
X473521538Y-131246523D01*
X473664395Y-131103666D01*
X473664395Y-131258428D01*
%TO.C,CP12*%
X458051285Y-128365285D02*
X458063190Y-128353380D01*
X458075095Y-128317666D01*
X458075095Y-128293857D01*
X458063190Y-128258142D01*
X458039380Y-128234333D01*
X458015571Y-128222428D01*
X457967952Y-128210523D01*
X457932238Y-128210523D01*
X457884619Y-128222428D01*
X457860809Y-128234333D01*
X457837000Y-128258142D01*
X457825095Y-128293857D01*
X457825095Y-128317666D01*
X457837000Y-128353380D01*
X457848904Y-128365285D01*
X458075095Y-128472428D02*
X457825095Y-128472428D01*
X457825095Y-128567666D01*
X457837000Y-128591476D01*
X457848904Y-128603380D01*
X457872714Y-128615285D01*
X457908428Y-128615285D01*
X457932238Y-128603380D01*
X457944142Y-128591476D01*
X457956047Y-128567666D01*
X457956047Y-128472428D01*
X458075095Y-128853380D02*
X458075095Y-128710523D01*
X458075095Y-128781952D02*
X457825095Y-128781952D01*
X457860809Y-128758142D01*
X457884619Y-128734333D01*
X457896523Y-128710523D01*
X457848904Y-128948619D02*
X457837000Y-128960523D01*
X457825095Y-128984333D01*
X457825095Y-129043857D01*
X457837000Y-129067666D01*
X457848904Y-129079571D01*
X457872714Y-129091476D01*
X457896523Y-129091476D01*
X457932238Y-129079571D01*
X458075095Y-128936714D01*
X458075095Y-129091476D01*
%TO.C,CP9*%
X483705285Y-133665933D02*
X483717190Y-133654028D01*
X483729095Y-133618314D01*
X483729095Y-133594504D01*
X483717190Y-133558790D01*
X483693380Y-133534980D01*
X483669571Y-133523076D01*
X483621952Y-133511171D01*
X483586238Y-133511171D01*
X483538619Y-133523076D01*
X483514809Y-133534980D01*
X483491000Y-133558790D01*
X483479095Y-133594504D01*
X483479095Y-133618314D01*
X483491000Y-133654028D01*
X483502904Y-133665933D01*
X483729095Y-133773076D02*
X483479095Y-133773076D01*
X483479095Y-133868314D01*
X483491000Y-133892123D01*
X483502904Y-133904028D01*
X483526714Y-133915933D01*
X483562428Y-133915933D01*
X483586238Y-133904028D01*
X483598142Y-133892123D01*
X483610047Y-133868314D01*
X483610047Y-133773076D01*
X483729095Y-134034980D02*
X483729095Y-134082600D01*
X483717190Y-134106409D01*
X483705285Y-134118314D01*
X483669571Y-134142123D01*
X483621952Y-134154028D01*
X483526714Y-134154028D01*
X483502904Y-134142123D01*
X483491000Y-134130219D01*
X483479095Y-134106409D01*
X483479095Y-134058790D01*
X483491000Y-134034980D01*
X483502904Y-134023076D01*
X483526714Y-134011171D01*
X483586238Y-134011171D01*
X483610047Y-134023076D01*
X483621952Y-134034980D01*
X483633857Y-134058790D01*
X483633857Y-134106409D01*
X483621952Y-134130219D01*
X483610047Y-134142123D01*
X483586238Y-134154028D01*
%TO.C,CP6*%
X480276285Y-133665933D02*
X480288190Y-133654028D01*
X480300095Y-133618314D01*
X480300095Y-133594504D01*
X480288190Y-133558790D01*
X480264380Y-133534980D01*
X480240571Y-133523076D01*
X480192952Y-133511171D01*
X480157238Y-133511171D01*
X480109619Y-133523076D01*
X480085809Y-133534980D01*
X480062000Y-133558790D01*
X480050095Y-133594504D01*
X480050095Y-133618314D01*
X480062000Y-133654028D01*
X480073904Y-133665933D01*
X480300095Y-133773076D02*
X480050095Y-133773076D01*
X480050095Y-133868314D01*
X480062000Y-133892123D01*
X480073904Y-133904028D01*
X480097714Y-133915933D01*
X480133428Y-133915933D01*
X480157238Y-133904028D01*
X480169142Y-133892123D01*
X480181047Y-133868314D01*
X480181047Y-133773076D01*
X480050095Y-134130219D02*
X480050095Y-134082600D01*
X480062000Y-134058790D01*
X480073904Y-134046885D01*
X480109619Y-134023076D01*
X480157238Y-134011171D01*
X480252476Y-134011171D01*
X480276285Y-134023076D01*
X480288190Y-134034980D01*
X480300095Y-134058790D01*
X480300095Y-134106409D01*
X480288190Y-134130219D01*
X480276285Y-134142123D01*
X480252476Y-134154028D01*
X480192952Y-134154028D01*
X480169142Y-134142123D01*
X480157238Y-134130219D01*
X480145333Y-134106409D01*
X480145333Y-134058790D01*
X480157238Y-134034980D01*
X480169142Y-134023076D01*
X480192952Y-134011171D01*
%TO.C,CP3*%
X481419285Y-128712933D02*
X481431190Y-128701028D01*
X481443095Y-128665314D01*
X481443095Y-128641504D01*
X481431190Y-128605790D01*
X481407380Y-128581980D01*
X481383571Y-128570076D01*
X481335952Y-128558171D01*
X481300238Y-128558171D01*
X481252619Y-128570076D01*
X481228809Y-128581980D01*
X481205000Y-128605790D01*
X481193095Y-128641504D01*
X481193095Y-128665314D01*
X481205000Y-128701028D01*
X481216904Y-128712933D01*
X481443095Y-128820076D02*
X481193095Y-128820076D01*
X481193095Y-128915314D01*
X481205000Y-128939123D01*
X481216904Y-128951028D01*
X481240714Y-128962933D01*
X481276428Y-128962933D01*
X481300238Y-128951028D01*
X481312142Y-128939123D01*
X481324047Y-128915314D01*
X481324047Y-128820076D01*
X481193095Y-129046266D02*
X481193095Y-129201028D01*
X481288333Y-129117695D01*
X481288333Y-129153409D01*
X481300238Y-129177219D01*
X481312142Y-129189123D01*
X481335952Y-129201028D01*
X481395476Y-129201028D01*
X481419285Y-129189123D01*
X481431190Y-129177219D01*
X481443095Y-129153409D01*
X481443095Y-129081980D01*
X481431190Y-129058171D01*
X481419285Y-129046266D01*
D11*
%TO.C,J4*%
X498808333Y-129716130D02*
X498808333Y-130430416D01*
X498855952Y-130573273D01*
X498951190Y-130668511D01*
X499094047Y-130716130D01*
X499189285Y-130716130D01*
X497903571Y-130049464D02*
X497903571Y-130716130D01*
X498141666Y-129668511D02*
X498379761Y-130382797D01*
X497760714Y-130382797D01*
%TO.C,U1*%
X476591380Y-130683095D02*
X477400904Y-130683095D01*
X477496142Y-130730714D01*
X477543761Y-130778333D01*
X477591380Y-130873571D01*
X477591380Y-131064047D01*
X477543761Y-131159285D01*
X477496142Y-131206904D01*
X477400904Y-131254523D01*
X476591380Y-131254523D01*
X477591380Y-132254523D02*
X477591380Y-131683095D01*
X477591380Y-131968809D02*
X476591380Y-131968809D01*
X476734238Y-131873571D01*
X476829476Y-131778333D01*
X476877095Y-131683095D01*
D12*
%TO.C,CP1*%
X473640585Y-132802333D02*
X473652490Y-132790428D01*
X473664395Y-132754714D01*
X473664395Y-132730904D01*
X473652490Y-132695190D01*
X473628680Y-132671380D01*
X473604871Y-132659476D01*
X473557252Y-132647571D01*
X473521538Y-132647571D01*
X473473919Y-132659476D01*
X473450109Y-132671380D01*
X473426300Y-132695190D01*
X473414395Y-132730904D01*
X473414395Y-132754714D01*
X473426300Y-132790428D01*
X473438204Y-132802333D01*
X473664395Y-132909476D02*
X473414395Y-132909476D01*
X473414395Y-133004714D01*
X473426300Y-133028523D01*
X473438204Y-133040428D01*
X473462014Y-133052333D01*
X473497728Y-133052333D01*
X473521538Y-133040428D01*
X473533442Y-133028523D01*
X473545347Y-133004714D01*
X473545347Y-132909476D01*
X473664395Y-133290428D02*
X473664395Y-133147571D01*
X473664395Y-133219000D02*
X473414395Y-133219000D01*
X473450109Y-133195190D01*
X473473919Y-133171380D01*
X473485823Y-133147571D01*
D10*
%TO.C,U0*%
X495878750Y-150377500D02*
X496528750Y-150377500D01*
X489308750Y-150377500D02*
X489308750Y-151027500D01*
X489958750Y-157597500D02*
X489308750Y-157597500D01*
X495878750Y-157597500D02*
X496528750Y-157597500D01*
X489958750Y-150377500D02*
X489308750Y-150377500D01*
X496528750Y-157597500D02*
X496528750Y-156947500D01*
X489308750Y-157597500D02*
X489308750Y-156947500D01*
%TO.C,TX1*%
X516100000Y-146276000D02*
X516100000Y-155476000D01*
X516100000Y-155476000D02*
X518300000Y-155476000D01*
X525300000Y-155476000D02*
X525300000Y-146276000D01*
X523100000Y-155476000D02*
X525300000Y-155476000D01*
X523100000Y-146276000D02*
X525300000Y-146276000D01*
X516100000Y-146276000D02*
X518300000Y-146276000D01*
X518300000Y-146276000D02*
X518300000Y-145876000D01*
%TO.C,D88*%
X370487500Y-215806250D02*
X370487500Y-213956250D01*
X369287500Y-213956250D02*
X370487500Y-213956250D01*
X369287500Y-215806250D02*
X369287500Y-213956250D01*
%TO.C,D11*%
X424056250Y-128231250D02*
X425256250Y-128231250D01*
X425256250Y-130081250D02*
X425256250Y-128231250D01*
X424056250Y-130081250D02*
X424056250Y-128231250D01*
%TO.C,D25*%
X405006250Y-149131250D02*
X405006250Y-147281250D01*
X405006250Y-147281250D02*
X406206250Y-147281250D01*
X406206250Y-149131250D02*
X406206250Y-147281250D01*
%TO.C,D103*%
X290706250Y-234856250D02*
X290706250Y-233006250D01*
X290706250Y-233006250D02*
X291906250Y-233006250D01*
X291906250Y-234856250D02*
X291906250Y-233006250D01*
%TO.C,D89*%
X466918750Y-215806250D02*
X466918750Y-213956250D01*
X468118750Y-215806250D02*
X468118750Y-213956250D01*
X466918750Y-213956250D02*
X468118750Y-213956250D01*
%TO.C,D71*%
X487168750Y-196756250D02*
X487168750Y-194906250D01*
X485968750Y-194906250D02*
X487168750Y-194906250D01*
X485968750Y-196756250D02*
X485968750Y-194906250D01*
%TO.C,D47*%
X466918750Y-177706250D02*
X466918750Y-175856250D01*
X466918750Y-175856250D02*
X468118750Y-175856250D01*
X468118750Y-177706250D02*
X468118750Y-175856250D01*
%TO.C,D59*%
X238318750Y-196756250D02*
X238318750Y-194906250D01*
X238318750Y-194906250D02*
X239518750Y-194906250D01*
X239518750Y-196756250D02*
X239518750Y-194906250D01*
%TO.C,D51*%
X72831250Y-196756250D02*
X72831250Y-194906250D01*
X71631250Y-196756250D02*
X71631250Y-194906250D01*
X71631250Y-194906250D02*
X72831250Y-194906250D01*
%TO.C,D82*%
X244281250Y-215806250D02*
X244281250Y-213956250D01*
X243081250Y-215806250D02*
X243081250Y-213956250D01*
X243081250Y-213956250D02*
X244281250Y-213956250D01*
%TO.C,D124*%
X468118750Y-253906250D02*
X468118750Y-252056250D01*
X466918750Y-252056250D02*
X468118750Y-252056250D01*
X466918750Y-253906250D02*
X466918750Y-252056250D01*
%TO.C,D125*%
X485968750Y-252056250D02*
X487168750Y-252056250D01*
X485968750Y-253906250D02*
X485968750Y-252056250D01*
X487168750Y-253906250D02*
X487168750Y-252056250D01*
%TO.C,D78*%
X168081250Y-215806250D02*
X168081250Y-213956250D01*
X166881250Y-215806250D02*
X166881250Y-213956250D01*
X166881250Y-213956250D02*
X168081250Y-213956250D01*
%TO.C,U3*%
X500162000Y-134112000D02*
X500162000Y-133312000D01*
X500162000Y-134112000D02*
X500162000Y-135912000D01*
X497042000Y-134112000D02*
X497042000Y-133312000D01*
X497042000Y-134112000D02*
X497042000Y-134912000D01*
%TO.C,D58*%
X219268750Y-194906250D02*
X220468750Y-194906250D01*
X220468750Y-196756250D02*
X220468750Y-194906250D01*
X219268750Y-196756250D02*
X219268750Y-194906250D01*
%TO.C,D1*%
X115693750Y-149131250D02*
X115693750Y-147281250D01*
X114493750Y-147281250D02*
X115693750Y-147281250D01*
X114493750Y-149131250D02*
X114493750Y-147281250D01*
%TO.C,D116*%
X235937500Y-253906250D02*
X235937500Y-252056250D01*
X235937500Y-252056250D02*
X237137500Y-252056250D01*
X237137500Y-253906250D02*
X237137500Y-252056250D01*
%TO.C,D27*%
X444306250Y-149131250D02*
X444306250Y-147281250D01*
X443106250Y-149131250D02*
X443106250Y-147281250D01*
X443106250Y-147281250D02*
X444306250Y-147281250D01*
%TO.C,D24*%
X382393750Y-149131250D02*
X382393750Y-147281250D01*
X381193750Y-149131250D02*
X381193750Y-147281250D01*
X381193750Y-147281250D02*
X382393750Y-147281250D01*
%TO.C,D17*%
X238318750Y-149131250D02*
X238318750Y-147281250D01*
X239518750Y-149131250D02*
X239518750Y-147281250D01*
X238318750Y-147281250D02*
X239518750Y-147281250D01*
%TO.C,D43*%
X371668750Y-177706250D02*
X371668750Y-175856250D01*
X371668750Y-175856250D02*
X372868750Y-175856250D01*
X372868750Y-177706250D02*
X372868750Y-175856250D01*
%TO.C,D113*%
X116875000Y-252056250D02*
X118075000Y-252056250D01*
X118075000Y-253906250D02*
X118075000Y-252056250D01*
X116875000Y-253906250D02*
X116875000Y-252056250D01*
%TO.C,D76*%
X121637500Y-215806250D02*
X121637500Y-213956250D01*
X122837500Y-215806250D02*
X122837500Y-213956250D01*
X121637500Y-213956250D02*
X122837500Y-213956250D01*
%TO.C,D60*%
X257368750Y-194906250D02*
X258568750Y-194906250D01*
X257368750Y-196756250D02*
X257368750Y-194906250D01*
X258568750Y-196756250D02*
X258568750Y-194906250D01*
%TO.C,D20*%
X295468750Y-147281250D02*
X296668750Y-147281250D01*
X296668750Y-149131250D02*
X296668750Y-147281250D01*
X295468750Y-149131250D02*
X295468750Y-147281250D01*
%TO.C,D72*%
X506218750Y-196756250D02*
X506218750Y-194906250D01*
X505018750Y-194906250D02*
X506218750Y-194906250D01*
X505018750Y-196756250D02*
X505018750Y-194906250D01*
%TO.C,D54*%
X143068750Y-194906250D02*
X144268750Y-194906250D01*
X144268750Y-196756250D02*
X144268750Y-194906250D01*
X143068750Y-196756250D02*
X143068750Y-194906250D01*
%TO.C,DT4*%
X307881250Y-134743750D02*
X306031250Y-134743750D01*
X306031250Y-134743750D02*
X306031250Y-133543750D01*
X307881250Y-133543750D02*
X306031250Y-133543750D01*
%TO.C,D57*%
X200218750Y-194906250D02*
X201418750Y-194906250D01*
X200218750Y-196756250D02*
X200218750Y-194906250D01*
X201418750Y-196756250D02*
X201418750Y-194906250D01*
%TO.C,D101*%
X252606250Y-234856250D02*
X252606250Y-233006250D01*
X253806250Y-234856250D02*
X253806250Y-233006250D01*
X252606250Y-233006250D02*
X253806250Y-233006250D01*
%TO.C,D2*%
X152593750Y-130081250D02*
X152593750Y-128231250D01*
X153793750Y-130081250D02*
X153793750Y-128231250D01*
X152593750Y-128231250D02*
X153793750Y-128231250D01*
%TO.C,D120*%
X380012500Y-253906250D02*
X380012500Y-252056250D01*
X378812500Y-253906250D02*
X378812500Y-252056250D01*
X378812500Y-252056250D02*
X380012500Y-252056250D01*
%TO.C,D95*%
X127600000Y-234856250D02*
X127600000Y-233006250D01*
X126400000Y-233006250D02*
X127600000Y-233006250D01*
X126400000Y-234856250D02*
X126400000Y-233006250D01*
%TO.C,D8*%
X277618750Y-130081250D02*
X277618750Y-128231250D01*
X276418750Y-130081250D02*
X276418750Y-128231250D01*
X276418750Y-128231250D02*
X277618750Y-128231250D01*
%TO.C,DT1*%
X307881250Y-129981250D02*
X306031250Y-129981250D01*
X306031250Y-129981250D02*
X306031250Y-128781250D01*
X307881250Y-128781250D02*
X306031250Y-128781250D01*
%TO.C,D63*%
X314518750Y-194906250D02*
X315718750Y-194906250D01*
X315718750Y-196756250D02*
X315718750Y-194906250D01*
X314518750Y-196756250D02*
X314518750Y-194906250D01*
%TO.C,D80*%
X204981250Y-215806250D02*
X204981250Y-213956250D01*
X204981250Y-213956250D02*
X206181250Y-213956250D01*
X206181250Y-215806250D02*
X206181250Y-213956250D01*
%TO.C,D12*%
X443106250Y-128231250D02*
X444306250Y-128231250D01*
X443106250Y-130081250D02*
X443106250Y-128231250D01*
X444306250Y-130081250D02*
X444306250Y-128231250D01*
%TO.C,D3*%
X171643750Y-128231250D02*
X172843750Y-128231250D01*
X171643750Y-130081250D02*
X171643750Y-128231250D01*
X172843750Y-130081250D02*
X172843750Y-128231250D01*
%TO.C,D34*%
X190693750Y-175856250D02*
X191893750Y-175856250D01*
X191893750Y-177706250D02*
X191893750Y-175856250D01*
X190693750Y-177706250D02*
X190693750Y-175856250D01*
%TO.C,D104*%
X310956250Y-234856250D02*
X310956250Y-233006250D01*
X309756250Y-233006250D02*
X310956250Y-233006250D01*
X309756250Y-234856250D02*
X309756250Y-233006250D01*
%TO.C,U2*%
X498036000Y-143764000D02*
X498036000Y-141039000D01*
X498036000Y-141039000D02*
X498296000Y-141039000D01*
X498036000Y-146489000D02*
X498296000Y-146489000D01*
X503486000Y-143764000D02*
X503486000Y-141039000D01*
X503486000Y-146489000D02*
X503226000Y-146489000D01*
X498036000Y-143764000D02*
X498036000Y-146489000D01*
X503486000Y-141039000D02*
X503226000Y-141039000D01*
X503486000Y-143764000D02*
X503486000Y-146489000D01*
X503226000Y-146489000D02*
X503226000Y-148164000D01*
%TO.C,Y1*%
X494918750Y-161862500D02*
X494918750Y-165162500D01*
X494918750Y-165162500D02*
X490918750Y-165162500D01*
%TO.C,D61*%
X276418750Y-194906250D02*
X277618750Y-194906250D01*
X276418750Y-196756250D02*
X276418750Y-194906250D01*
X277618750Y-196756250D02*
X277618750Y-194906250D01*
%TO.C,D97*%
X177606250Y-234856250D02*
X177606250Y-233006250D01*
X176406250Y-233006250D02*
X177606250Y-233006250D01*
X176406250Y-234856250D02*
X176406250Y-233006250D01*
%TO.C,D13*%
X152593750Y-149131250D02*
X152593750Y-147281250D01*
X152593750Y-147281250D02*
X153793750Y-147281250D01*
X153793750Y-149131250D02*
X153793750Y-147281250D01*
%TO.C,D118*%
X332387500Y-253906250D02*
X332387500Y-252056250D01*
X331187500Y-253906250D02*
X331187500Y-252056250D01*
X331187500Y-252056250D02*
X332387500Y-252056250D01*
%TO.C,D45*%
X425256250Y-177706250D02*
X425256250Y-175856250D01*
X424056250Y-175856250D02*
X425256250Y-175856250D01*
X424056250Y-177706250D02*
X424056250Y-175856250D01*
%TO.C,D70*%
X466918750Y-196756250D02*
X466918750Y-194906250D01*
X466918750Y-194906250D02*
X468118750Y-194906250D01*
X468118750Y-196756250D02*
X468118750Y-194906250D01*
%TO.C,D91*%
X505018750Y-215806250D02*
X505018750Y-213956250D01*
X505018750Y-213956250D02*
X506218750Y-213956250D01*
X506218750Y-215806250D02*
X506218750Y-213956250D01*
%TO.C,D36*%
X228793750Y-177706250D02*
X228793750Y-175856250D01*
X229993750Y-177706250D02*
X229993750Y-175856250D01*
X228793750Y-175856250D02*
X229993750Y-175856250D01*
%TO.C,D79*%
X187131250Y-215806250D02*
X187131250Y-213956250D01*
X185931250Y-215806250D02*
X185931250Y-213956250D01*
X185931250Y-213956250D02*
X187131250Y-213956250D01*
%TO.C,D117*%
X308575000Y-253906250D02*
X308575000Y-252056250D01*
X307375000Y-253906250D02*
X307375000Y-252056250D01*
X307375000Y-252056250D02*
X308575000Y-252056250D01*
%TO.C,D39*%
X285943750Y-177706250D02*
X285943750Y-175856250D01*
X285943750Y-175856250D02*
X287143750Y-175856250D01*
X287143750Y-177706250D02*
X287143750Y-175856250D01*
%TO.C,D111*%
X71631250Y-253906250D02*
X71631250Y-252056250D01*
X71631250Y-252056250D02*
X72831250Y-252056250D01*
X72831250Y-253906250D02*
X72831250Y-252056250D01*
%TO.C,D22*%
X343093750Y-149131250D02*
X343093750Y-147281250D01*
X344293750Y-149131250D02*
X344293750Y-147281250D01*
X343093750Y-147281250D02*
X344293750Y-147281250D01*
%TO.C,D53*%
X119256250Y-194906250D02*
X120456250Y-194906250D01*
X119256250Y-196756250D02*
X119256250Y-194906250D01*
X120456250Y-196756250D02*
X120456250Y-194906250D01*
%TO.C,D6*%
X239518750Y-130081250D02*
X239518750Y-128231250D01*
X238318750Y-130081250D02*
X238318750Y-128231250D01*
X238318750Y-128231250D02*
X239518750Y-128231250D01*
%TO.C,D92*%
X525268750Y-215806250D02*
X525268750Y-213956250D01*
X524068750Y-213956250D02*
X525268750Y-213956250D01*
X524068750Y-215806250D02*
X524068750Y-213956250D01*
%TO.C,D38*%
X266893750Y-175856250D02*
X268093750Y-175856250D01*
X268093750Y-177706250D02*
X268093750Y-175856250D01*
X266893750Y-177706250D02*
X266893750Y-175856250D01*
%TO.C,D110*%
X506218750Y-234856250D02*
X506218750Y-233006250D01*
X505018750Y-234856250D02*
X505018750Y-233006250D01*
X505018750Y-233006250D02*
X506218750Y-233006250D01*
%TO.C,D115*%
X164500000Y-252056250D02*
X165700000Y-252056250D01*
X165700000Y-253906250D02*
X165700000Y-252056250D01*
X164500000Y-253906250D02*
X164500000Y-252056250D01*
%TO.C,D84*%
X281181250Y-215806250D02*
X281181250Y-213956250D01*
X281181250Y-213956250D02*
X282381250Y-213956250D01*
X282381250Y-215806250D02*
X282381250Y-213956250D01*
%TO.C,DR1*%
X524068750Y-128231250D02*
X525268750Y-128231250D01*
X525268750Y-130081250D02*
X525268750Y-128231250D01*
X524068750Y-130081250D02*
X524068750Y-128231250D01*
%TO.C,D18*%
X257368750Y-149131250D02*
X257368750Y-147281250D01*
X257368750Y-147281250D02*
X258568750Y-147281250D01*
X258568750Y-149131250D02*
X258568750Y-147281250D01*
%TO.C,D77*%
X147831250Y-213956250D02*
X149031250Y-213956250D01*
X149031250Y-215806250D02*
X149031250Y-213956250D01*
X147831250Y-215806250D02*
X147831250Y-213956250D01*
%TO.C,D83*%
X262131250Y-215806250D02*
X262131250Y-213956250D01*
X263331250Y-215806250D02*
X263331250Y-213956250D01*
X262131250Y-213956250D02*
X263331250Y-213956250D01*
%TO.C,D29*%
X91881250Y-177706250D02*
X91881250Y-175856250D01*
X90681250Y-175856250D02*
X91881250Y-175856250D01*
X90681250Y-177706250D02*
X90681250Y-175856250D01*
%TO.C,DR3*%
X517331250Y-123918750D02*
X517331250Y-125768750D01*
X516131250Y-123918750D02*
X516131250Y-125768750D01*
X517331250Y-125768750D02*
X516131250Y-125768750D01*
%TO.C,D85*%
X301431250Y-215806250D02*
X301431250Y-213956250D01*
X300231250Y-215806250D02*
X300231250Y-213956250D01*
X300231250Y-213956250D02*
X301431250Y-213956250D01*
%TO.C,D16*%
X209743750Y-147281250D02*
X210943750Y-147281250D01*
X209743750Y-149131250D02*
X209743750Y-147281250D01*
X210943750Y-149131250D02*
X210943750Y-147281250D01*
%TO.C,D74*%
X71631250Y-213956250D02*
X72831250Y-213956250D01*
X71631250Y-215806250D02*
X71631250Y-213956250D01*
X72831250Y-215806250D02*
X72831250Y-213956250D01*
%TO.C,D68*%
X424056250Y-194906250D02*
X425256250Y-194906250D01*
X425256250Y-196756250D02*
X425256250Y-194906250D01*
X424056250Y-196756250D02*
X424056250Y-194906250D01*
%TO.C,DR2*%
X526856250Y-123918750D02*
X526856250Y-125768750D01*
X526856250Y-125768750D02*
X525656250Y-125768750D01*
X525656250Y-123918750D02*
X525656250Y-125768750D01*
%TO.C,D28*%
X71631250Y-177706250D02*
X71631250Y-175856250D01*
X72831250Y-177706250D02*
X72831250Y-175856250D01*
X71631250Y-175856250D02*
X72831250Y-175856250D01*
%TO.C,D35*%
X209743750Y-175856250D02*
X210943750Y-175856250D01*
X209743750Y-177706250D02*
X209743750Y-175856250D01*
X210943750Y-177706250D02*
X210943750Y-175856250D01*
%TO.C,D33*%
X171643750Y-177706250D02*
X171643750Y-175856250D01*
X172843750Y-177706250D02*
X172843750Y-175856250D01*
X171643750Y-175856250D02*
X172843750Y-175856250D01*
%TO.C,D14*%
X171643750Y-149131250D02*
X171643750Y-147281250D01*
X171643750Y-147281250D02*
X172843750Y-147281250D01*
X172843750Y-149131250D02*
X172843750Y-147281250D01*
%TO.C,D106*%
X365725000Y-234856250D02*
X365725000Y-233006250D01*
X364525000Y-234856250D02*
X364525000Y-233006250D01*
X364525000Y-233006250D02*
X365725000Y-233006250D01*
%TO.C,D67*%
X405006250Y-196756250D02*
X405006250Y-194906250D01*
X405006250Y-194906250D02*
X406206250Y-194906250D01*
X406206250Y-196756250D02*
X406206250Y-194906250D01*
%TO.C,D10*%
X406206250Y-130081250D02*
X406206250Y-128231250D01*
X405006250Y-130081250D02*
X405006250Y-128231250D01*
X405006250Y-128231250D02*
X406206250Y-128231250D01*
%TO.C,D30*%
X114493750Y-177706250D02*
X114493750Y-175856250D01*
X115693750Y-177706250D02*
X115693750Y-175856250D01*
X114493750Y-175856250D02*
X115693750Y-175856250D01*
D13*
%TO.C,S1*%
X511967000Y-147648500D02*
X509367000Y-147648500D01*
X511967000Y-145721500D02*
X509367000Y-145721500D01*
D10*
%TO.C,D62*%
X296668750Y-196756250D02*
X296668750Y-194906250D01*
X295468750Y-196756250D02*
X295468750Y-194906250D01*
X295468750Y-194906250D02*
X296668750Y-194906250D01*
%TO.C,D41*%
X325243750Y-177706250D02*
X325243750Y-175856250D01*
X324043750Y-177706250D02*
X324043750Y-175856250D01*
X324043750Y-175856250D02*
X325243750Y-175856250D01*
%TO.C,D109*%
X485968750Y-234856250D02*
X485968750Y-233006250D01*
X487168750Y-234856250D02*
X487168750Y-233006250D01*
X485968750Y-233006250D02*
X487168750Y-233006250D01*
%TO.C,D98*%
X195456250Y-234856250D02*
X195456250Y-233006250D01*
X196656250Y-234856250D02*
X196656250Y-233006250D01*
X195456250Y-233006250D02*
X196656250Y-233006250D01*
%TO.C,D100*%
X233556250Y-234856250D02*
X233556250Y-233006250D01*
X234756250Y-234856250D02*
X234756250Y-233006250D01*
X233556250Y-233006250D02*
X234756250Y-233006250D01*
%TO.C,D19*%
X276418750Y-149131250D02*
X276418750Y-147281250D01*
X276418750Y-147281250D02*
X277618750Y-147281250D01*
X277618750Y-149131250D02*
X277618750Y-147281250D01*
%TO.C,D50*%
X525268750Y-177706250D02*
X525268750Y-175856250D01*
X524068750Y-177706250D02*
X524068750Y-175856250D01*
X524068750Y-175856250D02*
X525268750Y-175856250D01*
%TO.C,D69*%
X444306250Y-196756250D02*
X444306250Y-194906250D01*
X443106250Y-194906250D02*
X444306250Y-194906250D01*
X443106250Y-196756250D02*
X443106250Y-194906250D01*
%TO.C,D55*%
X162118750Y-196756250D02*
X162118750Y-194906250D01*
X163318750Y-196756250D02*
X163318750Y-194906250D01*
X162118750Y-194906250D02*
X163318750Y-194906250D01*
%TO.C,D23*%
X362143750Y-147281250D02*
X363343750Y-147281250D01*
X362143750Y-149131250D02*
X362143750Y-147281250D01*
X363343750Y-149131250D02*
X363343750Y-147281250D01*
%TO.C,D75*%
X90681250Y-213956250D02*
X91881250Y-213956250D01*
X90681250Y-215806250D02*
X90681250Y-213956250D01*
X91881250Y-215806250D02*
X91881250Y-213956250D01*
%TO.C,D56*%
X181168750Y-194906250D02*
X182368750Y-194906250D01*
X182368750Y-196756250D02*
X182368750Y-194906250D01*
X181168750Y-196756250D02*
X181168750Y-194906250D01*
%TO.C,D4*%
X191893750Y-130081250D02*
X191893750Y-128231250D01*
X190693750Y-128231250D02*
X191893750Y-128231250D01*
X190693750Y-130081250D02*
X190693750Y-128231250D01*
%TO.C,D64*%
X334768750Y-196756250D02*
X334768750Y-194906250D01*
X333568750Y-196756250D02*
X333568750Y-194906250D01*
X333568750Y-194906250D02*
X334768750Y-194906250D01*
%TO.C,D127*%
X518918750Y-252768750D02*
X517718750Y-252768750D01*
X518918750Y-250918750D02*
X518918750Y-252768750D01*
X517718750Y-250918750D02*
X517718750Y-252768750D01*
%TO.C,D5*%
X209743750Y-128231250D02*
X210943750Y-128231250D01*
X210943750Y-130081250D02*
X210943750Y-128231250D01*
X209743750Y-130081250D02*
X209743750Y-128231250D01*
%TO.C,D65*%
X353818750Y-196756250D02*
X353818750Y-194906250D01*
X352618750Y-196756250D02*
X352618750Y-194906250D01*
X352618750Y-194906250D02*
X353818750Y-194906250D01*
%TO.C,D42*%
X343093750Y-175856250D02*
X344293750Y-175856250D01*
X343093750Y-177706250D02*
X343093750Y-175856250D01*
X344293750Y-177706250D02*
X344293750Y-175856250D01*
%TO.C,D108*%
X466918750Y-234856250D02*
X466918750Y-233006250D01*
X466918750Y-233006250D02*
X468118750Y-233006250D01*
X468118750Y-234856250D02*
X468118750Y-233006250D01*
%TO.C,LP1*%
X472814000Y-128918000D02*
X472814000Y-126118000D01*
X472814000Y-126118000D02*
X462414000Y-126118000D01*
X472814000Y-133718000D02*
X472814000Y-136518000D01*
X472814000Y-136518000D02*
X462414000Y-136518000D01*
X462414000Y-126118000D02*
X462414000Y-128918000D01*
X462414000Y-136518000D02*
X462414000Y-133718000D01*
%TO.C,D73*%
X524068750Y-196756250D02*
X524068750Y-194906250D01*
X525268750Y-196756250D02*
X525268750Y-194906250D01*
X524068750Y-194906250D02*
X525268750Y-194906250D01*
%TO.C,D93*%
X72831250Y-234856250D02*
X72831250Y-233006250D01*
X71631250Y-233006250D02*
X72831250Y-233006250D01*
X71631250Y-234856250D02*
X71631250Y-233006250D01*
%TO.C,D7*%
X257368750Y-130081250D02*
X257368750Y-128231250D01*
X258568750Y-130081250D02*
X258568750Y-128231250D01*
X257368750Y-128231250D02*
X258568750Y-128231250D01*
%TO.C,D119*%
X355000000Y-253906250D02*
X355000000Y-252056250D01*
X356200000Y-253906250D02*
X356200000Y-252056250D01*
X355000000Y-252056250D02*
X356200000Y-252056250D01*
%TO.C,D96*%
X157356250Y-233006250D02*
X158556250Y-233006250D01*
X157356250Y-234856250D02*
X157356250Y-233006250D01*
X158556250Y-234856250D02*
X158556250Y-233006250D01*
%TO.C,D112*%
X91881250Y-253906250D02*
X91881250Y-252056250D01*
X90681250Y-253906250D02*
X90681250Y-252056250D01*
X90681250Y-252056250D02*
X91881250Y-252056250D01*
%TO.C,D40*%
X306193750Y-177706250D02*
X306193750Y-175856250D01*
X304993750Y-177706250D02*
X304993750Y-175856250D01*
X304993750Y-175856250D02*
X306193750Y-175856250D01*
%TO.C,F1*%
X491494029Y-128077500D02*
X491168471Y-128077500D01*
X491494029Y-129097500D02*
X491168471Y-129097500D01*
%TO.C,D87*%
X338331250Y-215806250D02*
X338331250Y-213956250D01*
X338331250Y-213956250D02*
X339531250Y-213956250D01*
X339531250Y-215806250D02*
X339531250Y-213956250D01*
%TO.C,D31*%
X133543750Y-175856250D02*
X134743750Y-175856250D01*
X134743750Y-177706250D02*
X134743750Y-175856250D01*
X133543750Y-177706250D02*
X133543750Y-175856250D01*
%TO.C,D94*%
X91881250Y-234856250D02*
X91881250Y-233006250D01*
X90681250Y-234856250D02*
X90681250Y-233006250D01*
X90681250Y-233006250D02*
X91881250Y-233006250D01*
%TO.C,D49*%
X505018750Y-175856250D02*
X506218750Y-175856250D01*
X506218750Y-177706250D02*
X506218750Y-175856250D01*
X505018750Y-177706250D02*
X505018750Y-175856250D01*
%TO.C,D48*%
X485968750Y-175856250D02*
X487168750Y-175856250D01*
X487168750Y-177706250D02*
X487168750Y-175856250D01*
X485968750Y-177706250D02*
X485968750Y-175856250D01*
%TO.C,D102*%
X271656250Y-234856250D02*
X271656250Y-233006250D01*
X272856250Y-234856250D02*
X272856250Y-233006250D01*
X271656250Y-233006250D02*
X272856250Y-233006250D01*
%TO.C,D46*%
X443106250Y-175856250D02*
X444306250Y-175856250D01*
X444306250Y-177706250D02*
X444306250Y-175856250D01*
X443106250Y-177706250D02*
X443106250Y-175856250D01*
%TO.C,D90*%
X485968750Y-213956250D02*
X487168750Y-213956250D01*
X487168750Y-215806250D02*
X487168750Y-213956250D01*
X485968750Y-215806250D02*
X485968750Y-213956250D01*
%TO.C,D107*%
X424056250Y-234856250D02*
X424056250Y-233006250D01*
X425256250Y-234856250D02*
X425256250Y-233006250D01*
X424056250Y-233006250D02*
X425256250Y-233006250D01*
%TO.C,D126*%
X505018750Y-252056250D02*
X506218750Y-252056250D01*
X505018750Y-253906250D02*
X505018750Y-252056250D01*
X506218750Y-253906250D02*
X506218750Y-252056250D01*
%TO.C,D114*%
X141887500Y-253906250D02*
X141887500Y-252056250D01*
X140687500Y-253906250D02*
X140687500Y-252056250D01*
X140687500Y-252056250D02*
X141887500Y-252056250D01*
%TO.C,D26*%
X425256250Y-149131250D02*
X425256250Y-147281250D01*
X424056250Y-149131250D02*
X424056250Y-147281250D01*
X424056250Y-147281250D02*
X425256250Y-147281250D01*
%TO.C,D15*%
X190693750Y-147281250D02*
X191893750Y-147281250D01*
X190693750Y-149131250D02*
X190693750Y-147281250D01*
X191893750Y-149131250D02*
X191893750Y-147281250D01*
%TO.C,D44*%
X405006250Y-177706250D02*
X405006250Y-175856250D01*
X405006250Y-175856250D02*
X406206250Y-175856250D01*
X406206250Y-177706250D02*
X406206250Y-175856250D01*
%TO.C,D99*%
X215706250Y-234856250D02*
X215706250Y-233006250D01*
X214506250Y-234856250D02*
X214506250Y-233006250D01*
X214506250Y-233006250D02*
X215706250Y-233006250D01*
%TO.C,D123*%
X444306250Y-253906250D02*
X444306250Y-252056250D01*
X443106250Y-252056250D02*
X444306250Y-252056250D01*
X443106250Y-253906250D02*
X443106250Y-252056250D01*
%TO.C,D52*%
X90681250Y-194906250D02*
X91881250Y-194906250D01*
X90681250Y-196756250D02*
X90681250Y-194906250D01*
X91881250Y-196756250D02*
X91881250Y-194906250D01*
%TO.C,D37*%
X249043750Y-177706250D02*
X249043750Y-175856250D01*
X247843750Y-177706250D02*
X247843750Y-175856250D01*
X247843750Y-175856250D02*
X249043750Y-175856250D01*
%TO.C,D66*%
X376431250Y-196756250D02*
X376431250Y-194906250D01*
X377631250Y-196756250D02*
X377631250Y-194906250D01*
X376431250Y-194906250D02*
X377631250Y-194906250D01*
%TO.C,J4*%
X503175000Y-126518750D02*
X503175000Y-124518750D01*
X493775000Y-120718750D02*
X503175000Y-120718750D01*
X503175000Y-122618750D02*
X503175000Y-120718750D01*
X493775000Y-122618750D02*
X493775000Y-120718750D01*
X493775000Y-126518750D02*
X493775000Y-124518750D01*
%TO.C,D105*%
X330006250Y-234856250D02*
X330006250Y-233006250D01*
X328806250Y-234856250D02*
X328806250Y-233006250D01*
X328806250Y-233006250D02*
X330006250Y-233006250D01*
%TO.C,D81*%
X224031250Y-213956250D02*
X225231250Y-213956250D01*
X225231250Y-215806250D02*
X225231250Y-213956250D01*
X224031250Y-215806250D02*
X224031250Y-213956250D01*
%TO.C,U1*%
X477139000Y-133005000D02*
X475339000Y-133005000D01*
X477139000Y-133005000D02*
X477939000Y-133005000D01*
X477139000Y-129885000D02*
X477939000Y-129885000D01*
X477139000Y-129885000D02*
X476339000Y-129885000D01*
%TO.C,D121*%
X406206250Y-253906250D02*
X406206250Y-252056250D01*
X405006250Y-253906250D02*
X405006250Y-252056250D01*
X405006250Y-252056250D02*
X406206250Y-252056250D01*
%TO.C,D32*%
X153793750Y-177706250D02*
X153793750Y-175856250D01*
X152593750Y-177706250D02*
X152593750Y-175856250D01*
X152593750Y-175856250D02*
X153793750Y-175856250D01*
%TO.C,D122*%
X424056250Y-253906250D02*
X424056250Y-252056250D01*
X424056250Y-252056250D02*
X425256250Y-252056250D01*
X425256250Y-253906250D02*
X425256250Y-252056250D01*
%TO.C,DT3*%
X306031250Y-133156250D02*
X306031250Y-131956250D01*
X307881250Y-131956250D02*
X306031250Y-131956250D01*
X307881250Y-133156250D02*
X306031250Y-133156250D01*
%TO.C,D86*%
X319281250Y-215806250D02*
X319281250Y-213956250D01*
X320481250Y-215806250D02*
X320481250Y-213956250D01*
X319281250Y-213956250D02*
X320481250Y-213956250D01*
%TO.C,DT2*%
X307881250Y-131568750D02*
X306031250Y-131568750D01*
X306031250Y-131568750D02*
X306031250Y-130368750D01*
X307881250Y-130368750D02*
X306031250Y-130368750D01*
%TO.C,D9*%
X295468750Y-130081250D02*
X295468750Y-128231250D01*
X295468750Y-128231250D02*
X296668750Y-128231250D01*
X296668750Y-130081250D02*
X296668750Y-128231250D01*
%TO.C,D21*%
X325243750Y-149131250D02*
X325243750Y-147281250D01*
X324043750Y-147281250D02*
X325243750Y-147281250D01*
X324043750Y-149131250D02*
X324043750Y-147281250D01*
%TD*%
M02*
