M48
; DRILL file {KiCad (6.0.0)} date Sat Apr 30 21:46:17 2022
; FORMAT={-:-/ absolute / inch / decimal}
; #@! TF.CreationDate,2022-04-30T21:46:17-04:00
; #@! TF.GenerationSoftware,Kicad,Pcbnew,(6.0.0)
; #@! TF.FileFunction,NonPlated,1,2,NPTH
FMAT,2
INCH
; #@! TA.AperFunction,NonPlated,NPTH,ComponentDrill
T1C0.0256
; #@! TA.AperFunction,NonPlated,NPTH,ComponentDrill
T2C0.0689
; #@! TA.AperFunction,NonPlated,NPTH,ComponentDrill
T3C0.0787
; #@! TA.AperFunction,NonPlated,NPTH,ComponentDrill
T4C0.0984
; #@! TA.AperFunction,NonPlated,NPTH,ComponentDrill
T5C0.1570
%
G90
G05
T1
X19.5112Y-5.0086
X19.7388Y-5.0086
T3
X20.5312Y-4.9828
T4
X2.7188Y-6.8438
X2.7188Y-7.5938
X2.7188Y-8.3438
X2.7188Y-9.0938
X2.7188Y-9.8438
X3.4688Y-6.8438
X3.4688Y-7.5938
X3.4688Y-8.3438
X3.4688Y-9.0938
X3.4688Y-9.8438
X4.4062Y-5.7188
X4.4062Y-6.8438
X4.5Y-9.8438
X4.5938Y-7.5938
X4.6875Y-8.3438
X4.875Y-9.0938
X5.1562Y-6.8438
X5.4375Y-9.8438
X5.5312Y-7.5938
X5.7188Y-8.3438
X5.9062Y-4.9688
X5.9062Y-5.7188
X5.9062Y-6.8438
X6.0938Y-9.0938
X6.2812Y-7.5938
X6.375Y-9.8438
X6.4688Y-8.3438
X6.6562Y-4.9688
X6.6562Y-5.7188
X6.6562Y-6.8438
X6.8438Y-9.0938
X7.0312Y-7.5938
X7.2188Y-8.3438
X7.4062Y-4.9688
X7.4062Y-5.7188
X7.4062Y-6.8438
X7.5938Y-9.0938
X7.7812Y-7.5938
X7.9688Y-8.3438
X8.1562Y-4.9688
X8.1562Y-5.7188
X8.1562Y-6.8438
X8.3438Y-9.0938
X8.5312Y-7.5938
X8.7188Y-8.3438
X8.9062Y-6.8438
X9.0938Y-9.0938
X9.1875Y-9.8438
X9.2812Y-4.9688
X9.2812Y-5.7188
X9.2812Y-7.5938
X9.4688Y-8.3438
X9.6562Y-6.8438
X9.8438Y-9.0938
X10.0312Y-4.9688
X10.0312Y-5.7188
X10.0312Y-7.5938
X10.2188Y-8.3438
X10.4062Y-6.8438
X10.5938Y-9.0938
X10.7812Y-4.9688
X10.7812Y-5.7188
X10.7812Y-7.5938
X10.9688Y-8.3438
X11.1562Y-6.8438
X11.3438Y-9.0938
X11.5312Y-4.9688
X11.5312Y-5.7188
X11.5312Y-7.5938
X11.7188Y-8.3438
X11.9062Y-6.8438
X12.0Y-9.8438
X12.0938Y-9.0938
X12.2812Y-7.5938
X12.4688Y-8.3438
X12.6562Y-5.7188
X12.6562Y-6.8438
X12.8438Y-9.0938
X12.9375Y-9.8438
X13.0312Y-7.5938
X13.2188Y-8.3438
X13.4062Y-5.7188
X13.4062Y-6.8438
X13.7812Y-7.5938
X13.875Y-9.8438
X14.1562Y-5.7188
X14.25Y-9.0938
X14.4375Y-8.3438
X14.5312Y-6.8438
X14.7188Y-7.5938
X14.8125Y-9.8438
X14.9062Y-5.7188
X15.8438Y-4.9688
X15.8438Y-5.7188
X15.8438Y-6.8438
X15.8438Y-7.5938
X15.8438Y-9.8438
X16.5938Y-4.9688
X16.5938Y-5.7188
X16.5938Y-6.8438
X16.5938Y-7.5938
X16.5938Y-9.0938
X16.5938Y-9.8438
X17.3438Y-4.9688
X17.3438Y-5.7188
X17.3438Y-6.8438
X17.3438Y-7.5938
X17.3438Y-9.8438
X18.2812Y-6.8438
X18.2812Y-7.5938
X18.2812Y-8.3438
X18.2812Y-9.0938
X18.2812Y-9.8438
X19.0312Y-6.8438
X19.0312Y-7.5938
X19.0312Y-8.3438
X19.0312Y-9.0938
X19.0312Y-9.8438
X19.7812Y-6.8438
X19.7812Y-7.5938
X19.7812Y-8.3438
X19.7812Y-9.0938
X19.7812Y-9.8438
X20.3125Y-9.6875
X20.5312Y-6.8438
X20.5312Y-7.5938
X20.5312Y-8.3438
T5
X2.7188Y-7.0625
X2.7188Y-7.8125
X2.7188Y-8.5625
X2.7188Y-9.3125
X2.7188Y-10.0625
X3.4688Y-7.0625
X3.4688Y-7.8125
X3.4688Y-8.5625
X3.4688Y-9.3125
X3.4688Y-10.0625
X4.4062Y-5.9375
X4.4062Y-7.0625
X4.5Y-10.0625
X4.5938Y-7.8125
X4.6875Y-8.5625
X4.875Y-9.3125
X5.1562Y-7.0625
X5.4375Y-10.0625
X5.5312Y-7.8125
X5.7188Y-8.5625
X5.9062Y-5.1875
X5.9062Y-5.9375
X5.9062Y-7.0625
X6.0938Y-9.3125
X6.2812Y-7.8125
X6.375Y-10.0625
X6.4688Y-8.5625
X6.6562Y-5.1875
X6.6562Y-5.9375
X6.6562Y-7.0625
X6.8438Y-9.3125
X7.0312Y-7.8125
X7.2188Y-8.5625
X7.4062Y-5.1875
X7.4062Y-5.9375
X7.4062Y-7.0625
X7.5938Y-9.3125
X7.7812Y-7.8125
X7.9688Y-8.5625
X8.1562Y-5.1875
X8.1562Y-5.9375
X8.1562Y-7.0625
X8.3438Y-9.3125
X8.5312Y-7.8125
X8.7188Y-8.5625
X8.9062Y-7.0625
X9.0938Y-9.3125
X9.1875Y-10.0625
X9.2812Y-5.1875
X9.2812Y-5.9375
X9.2812Y-7.8125
X9.4688Y-8.5625
X9.6562Y-7.0625
X9.8438Y-9.3125
X10.0312Y-5.1875
X10.0312Y-5.9375
X10.0312Y-7.8125
X10.2188Y-8.5625
X10.4062Y-7.0625
X10.5938Y-9.3125
X10.7812Y-5.1875
X10.7812Y-5.9375
X10.7812Y-7.8125
X10.9688Y-8.5625
X11.1562Y-7.0625
X11.3438Y-9.3125
X11.5312Y-5.1875
X11.5312Y-5.9375
X11.5312Y-7.8125
X11.7188Y-8.5625
X11.9062Y-7.0625
X12.0Y-10.0625
X12.0938Y-9.3125
X12.2812Y-7.8125
X12.4688Y-8.5625
X12.6562Y-5.9375
X12.6562Y-7.0625
X12.8438Y-9.3125
X12.9375Y-10.0625
X13.0312Y-7.8125
X13.2188Y-8.5625
X13.4062Y-5.9375
X13.4062Y-7.0625
X13.7812Y-7.8125
X13.875Y-10.0625
X14.1562Y-5.9375
X14.25Y-9.3125
X14.4375Y-8.5625
X14.5312Y-7.0625
X14.7188Y-7.8125
X14.8125Y-10.0625
X14.9062Y-5.9375
X15.8438Y-5.1875
X15.8438Y-5.9375
X15.8438Y-7.0625
X15.8438Y-7.8125
X15.8438Y-10.0625
X16.5938Y-5.1875
X16.5938Y-5.9375
X16.5938Y-7.0625
X16.5938Y-7.8125
X16.5938Y-9.3125
X16.5938Y-10.0625
X17.3438Y-5.1875
X17.3438Y-5.9375
X17.3438Y-7.0625
X17.3438Y-7.8125
X17.3438Y-10.0625
X18.2812Y-7.0625
X18.2812Y-7.8125
X18.2812Y-8.5625
X18.2812Y-9.3125
X18.2812Y-10.0625
X19.0312Y-7.0625
X19.0312Y-7.8125
X19.0312Y-8.5625
X19.0312Y-9.3125
X19.0312Y-10.0625
X19.7812Y-7.0625
X19.7812Y-7.8125
X19.7812Y-8.5625
X19.7812Y-9.3125
X19.7812Y-10.0625
X20.5312Y-5.1875
X20.5312Y-7.0625
X20.5312Y-7.8125
X20.5312Y-8.5625
X20.5312Y-9.6875
T2
G00X2.5186Y-7.0625
M15
G01X2.5029Y-7.0625
M16
G05
G00X2.5186Y-7.8125
M15
G01X2.5029Y-7.8125
M16
G05
G00X2.5186Y-8.5625
M15
G01X2.5029Y-8.5625
M16
G05
G00X2.5186Y-9.3125
M15
G01X2.5029Y-9.3125
M16
G05
G00X2.5186Y-10.0625
M15
G01X2.5029Y-10.0625
M16
G05
G00X2.9346Y-7.0625
M15
G01X2.9189Y-7.0625
M16
G05
G00X2.9346Y-7.8125
M15
G01X2.9189Y-7.8125
M16
G05
G00X2.9346Y-8.5625
M15
G01X2.9189Y-8.5625
M16
G05
G00X2.9346Y-9.3125
M15
G01X2.9189Y-9.3125
M16
G05
G00X2.9346Y-10.0625
M15
G01X2.9189Y-10.0625
M16
G05
G00X3.2686Y-7.0625
M15
G01X3.2529Y-7.0625
M16
G05
G00X3.2686Y-7.8125
M15
G01X3.2529Y-7.8125
M16
G05
G00X3.2686Y-8.5625
M15
G01X3.2529Y-8.5625
M16
G05
G00X3.2686Y-9.3125
M15
G01X3.2529Y-9.3125
M16
G05
G00X3.2686Y-10.0625
M15
G01X3.2529Y-10.0625
M16
G05
G00X3.6846Y-7.0625
M15
G01X3.6689Y-7.0625
M16
G05
G00X3.6846Y-7.8125
M15
G01X3.6689Y-7.8125
M16
G05
G00X3.6846Y-8.5625
M15
G01X3.6689Y-8.5625
M16
G05
G00X3.6846Y-9.3125
M15
G01X3.6689Y-9.3125
M16
G05
G00X3.6846Y-10.0625
M15
G01X3.6689Y-10.0625
M16
G05
G00X4.2061Y-5.9375
M15
G01X4.1904Y-5.9375
M16
G05
G00X4.2061Y-7.0625
M15
G01X4.1904Y-7.0625
M16
G05
G00X4.2999Y-10.0625
M15
G01X4.2841Y-10.0625
M16
G05
G00X4.3936Y-7.8125
M15
G01X4.3779Y-7.8125
M16
G05
G00X4.4874Y-8.5625
M15
G01X4.4716Y-8.5625
M16
G05
G00X4.6221Y-5.9375
M15
G01X4.6064Y-5.9375
M16
G05
G00X4.6221Y-7.0625
M15
G01X4.6064Y-7.0625
M16
G05
G00X4.6749Y-9.3125
M15
G01X4.6591Y-9.3125
M16
G05
G00X4.7159Y-10.0625
M15
G01X4.7001Y-10.0625
M16
G05
G00X4.8096Y-7.8125
M15
G01X4.7939Y-7.8125
M16
G05
G00X4.9034Y-8.5625
M15
G01X4.8876Y-8.5625
M16
G05
G00X4.9561Y-7.0625
M15
G01X4.9404Y-7.0625
M16
G05
G00X5.0909Y-9.3125
M15
G01X5.0751Y-9.3125
M16
G05
G00X5.2374Y-10.0625
M15
G01X5.2216Y-10.0625
M16
G05
G00X5.3311Y-7.8125
M15
G01X5.3154Y-7.8125
M16
G05
G00X5.3721Y-7.0625
M15
G01X5.3564Y-7.0625
M16
G05
G00X5.5186Y-8.5625
M15
G01X5.5029Y-8.5625
M16
G05
G00X5.6534Y-10.0625
M15
G01X5.6376Y-10.0625
M16
G05
G00X5.7061Y-5.1875
M15
G01X5.6904Y-5.1875
M16
G05
G00X5.7061Y-5.9375
M15
G01X5.6904Y-5.9375
M16
G05
G00X5.7061Y-7.0625
M15
G01X5.6904Y-7.0625
M16
G05
G00X5.7471Y-7.8125
M15
G01X5.7314Y-7.8125
M16
G05
G00X5.8936Y-9.3125
M15
G01X5.8779Y-9.3125
M16
G05
G00X5.9346Y-8.5625
M15
G01X5.9189Y-8.5625
M16
G05
G00X6.0811Y-7.8125
M15
G01X6.0654Y-7.8125
M16
G05
G00X6.1221Y-5.1875
M15
G01X6.1064Y-5.1875
M16
G05
G00X6.1221Y-5.9375
M15
G01X6.1064Y-5.9375
M16
G05
G00X6.1221Y-7.0625
M15
G01X6.1064Y-7.0625
M16
G05
G00X6.1749Y-10.0625
M15
G01X6.1591Y-10.0625
M16
G05
G00X6.2686Y-8.5625
M15
G01X6.2529Y-8.5625
M16
G05
G00X6.3096Y-9.3125
M15
G01X6.2939Y-9.3125
M16
G05
G00X6.4561Y-5.1875
M15
G01X6.4404Y-5.1875
M16
G05
G00X6.4561Y-5.9375
M15
G01X6.4404Y-5.9375
M16
G05
G00X6.4561Y-7.0625
M15
G01X6.4404Y-7.0625
M16
G05
G00X6.4971Y-7.8125
M15
G01X6.4814Y-7.8125
M16
G05
G00X6.5909Y-10.0625
M15
G01X6.5751Y-10.0625
M16
G05
G00X6.6436Y-9.3125
M15
G01X6.6279Y-9.3125
M16
G05
G00X6.6846Y-8.5625
M15
G01X6.6689Y-8.5625
M16
G05
G00X6.8311Y-7.8125
M15
G01X6.8154Y-7.8125
M16
G05
G00X6.8721Y-5.1875
M15
G01X6.8564Y-5.1875
M16
G05
G00X6.8721Y-5.9375
M15
G01X6.8564Y-5.9375
M16
G05
G00X6.8721Y-7.0625
M15
G01X6.8564Y-7.0625
M16
G05
G00X7.0186Y-8.5625
M15
G01X7.0029Y-8.5625
M16
G05
G00X7.0596Y-9.3125
M15
G01X7.0439Y-9.3125
M16
G05
G00X7.2061Y-5.1875
M15
G01X7.1904Y-5.1875
M16
G05
G00X7.2061Y-5.9375
M15
G01X7.1904Y-5.9375
M16
G05
G00X7.2061Y-7.0625
M15
G01X7.1904Y-7.0625
M16
G05
G00X7.2471Y-7.8125
M15
G01X7.2314Y-7.8125
M16
G05
G00X7.3936Y-9.3125
M15
G01X7.3779Y-9.3125
M16
G05
G00X7.4346Y-8.5625
M15
G01X7.4189Y-8.5625
M16
G05
G00X7.5811Y-7.8125
M15
G01X7.5654Y-7.8125
M16
G05
G00X7.6221Y-5.1875
M15
G01X7.6064Y-5.1875
M16
G05
G00X7.6221Y-5.9375
M15
G01X7.6064Y-5.9375
M16
G05
G00X7.6221Y-7.0625
M15
G01X7.6064Y-7.0625
M16
G05
G00X7.7686Y-8.5625
M15
G01X7.7529Y-8.5625
M16
G05
G00X7.8096Y-9.3125
M15
G01X7.7939Y-9.3125
M16
G05
G00X7.9561Y-5.1875
M15
G01X7.9404Y-5.1875
M16
G05
G00X7.9561Y-5.9375
M15
G01X7.9404Y-5.9375
M16
G05
G00X7.9561Y-7.0625
M15
G01X7.9404Y-7.0625
M16
G05
G00X7.9971Y-7.8125
M15
G01X7.9814Y-7.8125
M16
G05
G00X8.1436Y-9.3125
M15
G01X8.1279Y-9.3125
M16
G05
G00X8.1846Y-8.5625
M15
G01X8.1689Y-8.5625
M16
G05
G00X8.3311Y-7.8125
M15
G01X8.3154Y-7.8125
M16
G05
G00X8.3721Y-5.1875
M15
G01X8.3564Y-5.1875
M16
G05
G00X8.3721Y-5.9375
M15
G01X8.3564Y-5.9375
M16
G05
G00X8.3721Y-7.0625
M15
G01X8.3564Y-7.0625
M16
G05
G00X8.5186Y-8.5625
M15
G01X8.5029Y-8.5625
M16
G05
G00X8.5596Y-9.3125
M15
G01X8.5439Y-9.3125
M16
G05
G00X8.7061Y-7.0625
M15
G01X8.6904Y-7.0625
M16
G05
G00X8.7471Y-7.8125
M15
G01X8.7314Y-7.8125
M16
G05
G00X8.8936Y-9.3125
M15
G01X8.8779Y-9.3125
M16
G05
G00X8.9346Y-8.5625
M15
G01X8.9189Y-8.5625
M16
G05
G00X8.9874Y-10.0625
M15
G01X8.9716Y-10.0625
M16
G05
G00X9.0811Y-5.1875
M15
G01X9.0654Y-5.1875
M16
G05
G00X9.0811Y-5.9375
M15
G01X9.0654Y-5.9375
M16
G05
G00X9.0811Y-7.8125
M15
G01X9.0654Y-7.8125
M16
G05
G00X9.1221Y-7.0625
M15
G01X9.1064Y-7.0625
M16
G05
G00X9.2686Y-8.5625
M15
G01X9.2529Y-8.5625
M16
G05
G00X9.3096Y-9.3125
M15
G01X9.2939Y-9.3125
M16
G05
G00X9.4034Y-10.0625
M15
G01X9.3876Y-10.0625
M16
G05
G00X9.4561Y-7.0625
M15
G01X9.4404Y-7.0625
M16
G05
G00X9.4971Y-5.1875
M15
G01X9.4814Y-5.1875
M16
G05
G00X9.4971Y-5.9375
M15
G01X9.4814Y-5.9375
M16
G05
G00X9.4971Y-7.8125
M15
G01X9.4814Y-7.8125
M16
G05
G00X9.6436Y-9.3125
M15
G01X9.6279Y-9.3125
M16
G05
G00X9.6846Y-8.5625
M15
G01X9.6689Y-8.5625
M16
G05
G00X9.8311Y-5.1875
M15
G01X9.8154Y-5.1875
M16
G05
G00X9.8311Y-5.9375
M15
G01X9.8154Y-5.9375
M16
G05
G00X9.8311Y-7.8125
M15
G01X9.8154Y-7.8125
M16
G05
G00X9.8721Y-7.0625
M15
G01X9.8564Y-7.0625
M16
G05
G00X10.0186Y-8.5625
M15
G01X10.0029Y-8.5625
M16
G05
G00X10.0596Y-9.3125
M15
G01X10.0439Y-9.3125
M16
G05
G00X10.2061Y-7.0625
M15
G01X10.1904Y-7.0625
M16
G05
G00X10.2471Y-5.1875
M15
G01X10.2314Y-5.1875
M16
G05
G00X10.2471Y-5.9375
M15
G01X10.2314Y-5.9375
M16
G05
G00X10.2471Y-7.8125
M15
G01X10.2314Y-7.8125
M16
G05
G00X10.3936Y-9.3125
M15
G01X10.3779Y-9.3125
M16
G05
G00X10.4346Y-8.5625
M15
G01X10.4189Y-8.5625
M16
G05
G00X10.5811Y-5.1875
M15
G01X10.5654Y-5.1875
M16
G05
G00X10.5811Y-5.9375
M15
G01X10.5654Y-5.9375
M16
G05
G00X10.5811Y-7.8125
M15
G01X10.5654Y-7.8125
M16
G05
G00X10.6221Y-7.0625
M15
G01X10.6064Y-7.0625
M16
G05
G00X10.7686Y-8.5625
M15
G01X10.7529Y-8.5625
M16
G05
G00X10.8096Y-9.3125
M15
G01X10.7939Y-9.3125
M16
G05
G00X10.9561Y-7.0625
M15
G01X10.9404Y-7.0625
M16
G05
G00X10.9971Y-5.1875
M15
G01X10.9814Y-5.1875
M16
G05
G00X10.9971Y-5.9375
M15
G01X10.9814Y-5.9375
M16
G05
G00X10.9971Y-7.8125
M15
G01X10.9814Y-7.8125
M16
G05
G00X11.1436Y-9.3125
M15
G01X11.1279Y-9.3125
M16
G05
G00X11.1846Y-8.5625
M15
G01X11.1689Y-8.5625
M16
G05
G00X11.3311Y-5.1875
M15
G01X11.3154Y-5.1875
M16
G05
G00X11.3311Y-5.9375
M15
G01X11.3154Y-5.9375
M16
G05
G00X11.3311Y-7.8125
M15
G01X11.3154Y-7.8125
M16
G05
G00X11.3721Y-7.0625
M15
G01X11.3564Y-7.0625
M16
G05
G00X11.5186Y-8.5625
M15
G01X11.5029Y-8.5625
M16
G05
G00X11.5596Y-9.3125
M15
G01X11.5439Y-9.3125
M16
G05
G00X11.7061Y-7.0625
M15
G01X11.6904Y-7.0625
M16
G05
G00X11.7471Y-5.1875
M15
G01X11.7314Y-5.1875
M16
G05
G00X11.7471Y-5.9375
M15
G01X11.7314Y-5.9375
M16
G05
G00X11.7471Y-7.8125
M15
G01X11.7314Y-7.8125
M16
G05
G00X11.7999Y-10.0625
M15
G01X11.7841Y-10.0625
M16
G05
G00X11.8936Y-9.3125
M15
G01X11.8779Y-9.3125
M16
G05
G00X11.9346Y-8.5625
M15
G01X11.9189Y-8.5625
M16
G05
G00X12.0811Y-7.8125
M15
G01X12.0654Y-7.8125
M16
G05
G00X12.1221Y-7.0625
M15
G01X12.1064Y-7.0625
M16
G05
G00X12.2159Y-10.0625
M15
G01X12.2001Y-10.0625
M16
G05
G00X12.2686Y-8.5625
M15
G01X12.2529Y-8.5625
M16
G05
G00X12.3096Y-9.3125
M15
G01X12.2939Y-9.3125
M16
G05
G00X12.4561Y-5.9375
M15
G01X12.4404Y-5.9375
M16
G05
G00X12.4561Y-7.0625
M15
G01X12.4404Y-7.0625
M16
G05
G00X12.4971Y-7.8125
M15
G01X12.4814Y-7.8125
M16
G05
G00X12.6436Y-9.3125
M15
G01X12.6279Y-9.3125
M16
G05
G00X12.6846Y-8.5625
M15
G01X12.6689Y-8.5625
M16
G05
G00X12.7374Y-10.0625
M15
G01X12.7216Y-10.0625
M16
G05
G00X12.8311Y-7.8125
M15
G01X12.8154Y-7.8125
M16
G05
G00X12.8721Y-5.9375
M15
G01X12.8564Y-5.9375
M16
G05
G00X12.8721Y-7.0625
M15
G01X12.8564Y-7.0625
M16
G05
G00X13.0186Y-8.5625
M15
G01X13.0029Y-8.5625
M16
G05
G00X13.0596Y-9.3125
M15
G01X13.0439Y-9.3125
M16
G05
G00X13.1534Y-10.0625
M15
G01X13.1376Y-10.0625
M16
G05
G00X13.2061Y-5.9375
M15
G01X13.1904Y-5.9375
M16
G05
G00X13.2061Y-7.0625
M15
G01X13.1904Y-7.0625
M16
G05
G00X13.2471Y-7.8125
M15
G01X13.2314Y-7.8125
M16
G05
G00X13.4346Y-8.5625
M15
G01X13.4189Y-8.5625
M16
G05
G00X13.5811Y-7.8125
M15
G01X13.5654Y-7.8125
M16
G05
G00X13.6221Y-5.9375
M15
G01X13.6064Y-5.9375
M16
G05
G00X13.6221Y-7.0625
M15
G01X13.6064Y-7.0625
M16
G05
G00X13.6749Y-10.0625
M15
G01X13.6591Y-10.0625
M16
G05
G00X13.9561Y-5.9375
M15
G01X13.9404Y-5.9375
M16
G05
G00X13.9971Y-7.8125
M15
G01X13.9814Y-7.8125
M16
G05
G00X14.0499Y-9.3125
M15
G01X14.0341Y-9.3125
M16
G05
G00X14.0909Y-10.0625
M15
G01X14.0751Y-10.0625
M16
G05
G00X14.2374Y-8.5625
M15
G01X14.2216Y-8.5625
M16
G05
G00X14.3311Y-7.0625
M15
G01X14.3154Y-7.0625
M16
G05
G00X14.3721Y-5.9375
M15
G01X14.3564Y-5.9375
M16
G05
G00X14.4659Y-9.3125
M15
G01X14.4501Y-9.3125
M16
G05
G00X14.5186Y-7.8125
M15
G01X14.5029Y-7.8125
M16
G05
G00X14.6124Y-10.0625
M15
G01X14.5966Y-10.0625
M16
G05
G00X14.6534Y-8.5625
M15
G01X14.6376Y-8.5625
M16
G05
G00X14.7061Y-5.9375
M15
G01X14.6904Y-5.9375
M16
G05
G00X14.7471Y-7.0625
M15
G01X14.7314Y-7.0625
M16
G05
G00X14.9346Y-7.8125
M15
G01X14.9189Y-7.8125
M16
G05
G00X15.0284Y-10.0625
M15
G01X15.0126Y-10.0625
M16
G05
G00X15.1221Y-5.9375
M15
G01X15.1064Y-5.9375
M16
G05
G00X15.6436Y-5.1875
M15
G01X15.6279Y-5.1875
M16
G05
G00X15.6436Y-5.9375
M15
G01X15.6279Y-5.9375
M16
G05
G00X15.6436Y-7.0625
M15
G01X15.6279Y-7.0625
M16
G05
G00X15.6436Y-7.8125
M15
G01X15.6279Y-7.8125
M16
G05
G00X15.6436Y-10.0625
M15
G01X15.6279Y-10.0625
M16
G05
G00X16.0596Y-5.1875
M15
G01X16.0439Y-5.1875
M16
G05
G00X16.0596Y-5.9375
M15
G01X16.0439Y-5.9375
M16
G05
G00X16.0596Y-7.0625
M15
G01X16.0439Y-7.0625
M16
G05
G00X16.0596Y-7.8125
M15
G01X16.0439Y-7.8125
M16
G05
G00X16.0596Y-10.0625
M15
G01X16.0439Y-10.0625
M16
G05
G00X16.3936Y-5.1875
M15
G01X16.3779Y-5.1875
M16
G05
G00X16.3936Y-5.9375
M15
G01X16.3779Y-5.9375
M16
G05
G00X16.3936Y-7.0625
M15
G01X16.3779Y-7.0625
M16
G05
G00X16.3936Y-7.8125
M15
G01X16.3779Y-7.8125
M16
G05
G00X16.3936Y-9.3125
M15
G01X16.3779Y-9.3125
M16
G05
G00X16.3936Y-10.0625
M15
G01X16.3779Y-10.0625
M16
G05
G00X16.8096Y-5.1875
M15
G01X16.7939Y-5.1875
M16
G05
G00X16.8096Y-5.9375
M15
G01X16.7939Y-5.9375
M16
G05
G00X16.8096Y-7.0625
M15
G01X16.7939Y-7.0625
M16
G05
G00X16.8096Y-7.8125
M15
G01X16.7939Y-7.8125
M16
G05
G00X16.8096Y-9.3125
M15
G01X16.7939Y-9.3125
M16
G05
G00X16.8096Y-10.0625
M15
G01X16.7939Y-10.0625
M16
G05
G00X17.1436Y-5.1875
M15
G01X17.1279Y-5.1875
M16
G05
G00X17.1436Y-5.9375
M15
G01X17.1279Y-5.9375
M16
G05
G00X17.1436Y-7.0625
M15
G01X17.1279Y-7.0625
M16
G05
G00X17.1436Y-7.8125
M15
G01X17.1279Y-7.8125
M16
G05
G00X17.1436Y-10.0625
M15
G01X17.1279Y-10.0625
M16
G05
G00X17.5596Y-5.1875
M15
G01X17.5439Y-5.1875
M16
G05
G00X17.5596Y-5.9375
M15
G01X17.5439Y-5.9375
M16
G05
G00X17.5596Y-7.0625
M15
G01X17.5439Y-7.0625
M16
G05
G00X17.5596Y-7.8125
M15
G01X17.5439Y-7.8125
M16
G05
G00X17.5596Y-10.0625
M15
G01X17.5439Y-10.0625
M16
G05
G00X18.0811Y-7.0625
M15
G01X18.0654Y-7.0625
M16
G05
G00X18.0811Y-7.8125
M15
G01X18.0654Y-7.8125
M16
G05
G00X18.0811Y-8.5625
M15
G01X18.0654Y-8.5625
M16
G05
G00X18.0811Y-9.3125
M15
G01X18.0654Y-9.3125
M16
G05
G00X18.0811Y-10.0625
M15
G01X18.0654Y-10.0625
M16
G05
G00X18.4971Y-7.0625
M15
G01X18.4814Y-7.0625
M16
G05
G00X18.4971Y-7.8125
M15
G01X18.4814Y-7.8125
M16
G05
G00X18.4971Y-8.5625
M15
G01X18.4814Y-8.5625
M16
G05
G00X18.4971Y-9.3125
M15
G01X18.4814Y-9.3125
M16
G05
G00X18.4971Y-10.0625
M15
G01X18.4814Y-10.0625
M16
G05
G00X18.8311Y-7.0625
M15
G01X18.8154Y-7.0625
M16
G05
G00X18.8311Y-7.8125
M15
G01X18.8154Y-7.8125
M16
G05
G00X18.8311Y-8.5625
M15
G01X18.8154Y-8.5625
M16
G05
G00X18.8311Y-9.3125
M15
G01X18.8154Y-9.3125
M16
G05
G00X18.8311Y-10.0625
M15
G01X18.8154Y-10.0625
M16
G05
G00X19.2471Y-7.0625
M15
G01X19.2314Y-7.0625
M16
G05
G00X19.2471Y-7.8125
M15
G01X19.2314Y-7.8125
M16
G05
G00X19.2471Y-8.5625
M15
G01X19.2314Y-8.5625
M16
G05
G00X19.2471Y-9.3125
M15
G01X19.2314Y-9.3125
M16
G05
G00X19.2471Y-10.0625
M15
G01X19.2314Y-10.0625
M16
G05
G00X19.5811Y-7.0625
M15
G01X19.5654Y-7.0625
M16
G05
G00X19.5811Y-7.8125
M15
G01X19.5654Y-7.8125
M16
G05
G00X19.5811Y-8.5625
M15
G01X19.5654Y-8.5625
M16
G05
G00X19.5811Y-9.3125
M15
G01X19.5654Y-9.3125
M16
G05
G00X19.5811Y-10.0625
M15
G01X19.5654Y-10.0625
M16
G05
G00X19.9971Y-7.0625
M15
G01X19.9814Y-7.0625
M16
G05
G00X19.9971Y-7.8125
M15
G01X19.9814Y-7.8125
M16
G05
G00X19.9971Y-8.5625
M15
G01X19.9814Y-8.5625
M16
G05
G00X19.9971Y-9.3125
M15
G01X19.9814Y-9.3125
M16
G05
G00X19.9971Y-10.0625
M15
G01X19.9814Y-10.0625
M16
G05
G00X20.3311Y-5.1875
M15
G01X20.3154Y-5.1875
M16
G05
G00X20.3311Y-7.0625
M15
G01X20.3154Y-7.0625
M16
G05
G00X20.3311Y-7.8125
M15
G01X20.3154Y-7.8125
M16
G05
G00X20.3311Y-8.5625
M15
G01X20.3154Y-8.5625
M16
G05
G00X20.5312Y-9.4716
M15
G01X20.5312Y-9.4874
M16
G05
G00X20.5312Y-9.8876
M15
G01X20.5312Y-9.9034
M16
G05
G00X20.7471Y-5.1875
M15
G01X20.7314Y-5.1875
M16
G05
G00X20.7471Y-7.0625
M15
G01X20.7314Y-7.0625
M16
G05
G00X20.7471Y-7.8125
M15
G01X20.7314Y-7.8125
M16
G05
G00X20.7471Y-8.5625
M15
G01X20.7314Y-8.5625
M16
G05
T0
M30
