%TF.GenerationSoftware,KiCad,Pcbnew,(6.0.0)*%
%TF.CreationDate,2022-04-04T18:39:18-04:00*%
%TF.ProjectId,SweetBusinessDaughtercard,53776565-7442-4757-9369-6e6573734461,rev?*%
%TF.SameCoordinates,Original*%
%TF.FileFunction,Legend,Top*%
%TF.FilePolarity,Positive*%
%FSLAX46Y46*%
G04 Gerber Fmt 4.6, Leading zero omitted, Abs format (unit mm)*
G04 Created by KiCad (PCBNEW (6.0.0)) date 2022-04-04 18:39:18*
%MOMM*%
%LPD*%
G01*
G04 APERTURE LIST*
%ADD10C,0.150000*%
%ADD11C,0.120000*%
G04 APERTURE END LIST*
D10*
%TO.C,J0*%
X89836666Y-58241130D02*
X89836666Y-58955416D01*
X89789047Y-59098273D01*
X89693809Y-59193511D01*
X89550952Y-59241130D01*
X89455714Y-59241130D01*
X90503333Y-58241130D02*
X90598571Y-58241130D01*
X90693809Y-58288750D01*
X90741428Y-58336369D01*
X90789047Y-58431607D01*
X90836666Y-58622083D01*
X90836666Y-58860178D01*
X90789047Y-59050654D01*
X90741428Y-59145892D01*
X90693809Y-59193511D01*
X90598571Y-59241130D01*
X90503333Y-59241130D01*
X90408095Y-59193511D01*
X90360476Y-59145892D01*
X90312857Y-59050654D01*
X90265238Y-58860178D01*
X90265238Y-58622083D01*
X90312857Y-58431607D01*
X90360476Y-58336369D01*
X90408095Y-58288750D01*
X90503333Y-58241130D01*
D11*
%TO.C,SW3*%
X140810100Y-72377100D02*
X140810100Y-70877100D01*
X133810100Y-72377100D02*
X135310100Y-72377100D01*
X133810100Y-59377100D02*
X133810100Y-60877100D01*
X133810100Y-59377100D02*
X135310100Y-59377100D01*
X139310100Y-72377100D02*
X140810100Y-72377100D01*
X140810100Y-60877100D02*
X140810100Y-59377100D01*
X133810100Y-70877100D02*
X133810100Y-72377100D01*
X140810100Y-59377100D02*
X139310100Y-59377100D01*
%TO.C,SW4*%
X159858900Y-72377100D02*
X159858900Y-70877100D01*
X152858900Y-72377100D02*
X154358900Y-72377100D01*
X152858900Y-59377100D02*
X152858900Y-60877100D01*
X152858900Y-59377100D02*
X154358900Y-59377100D01*
X158358900Y-72377100D02*
X159858900Y-72377100D01*
X159858900Y-60877100D02*
X159858900Y-59377100D01*
X152858900Y-70877100D02*
X152858900Y-72377100D01*
X159858900Y-59377100D02*
X158358900Y-59377100D01*
%TO.C,SW1*%
X102712500Y-72377100D02*
X102712500Y-70877100D01*
X95712500Y-72377100D02*
X97212500Y-72377100D01*
X95712500Y-59377100D02*
X95712500Y-60877100D01*
X95712500Y-59377100D02*
X97212500Y-59377100D01*
X101212500Y-72377100D02*
X102712500Y-72377100D01*
X102712500Y-60877100D02*
X102712500Y-59377100D01*
X95712500Y-70877100D02*
X95712500Y-72377100D01*
X102712500Y-59377100D02*
X101212500Y-59377100D01*
%TO.C,SW2*%
X121761300Y-72377100D02*
X121761300Y-70877100D01*
X114761300Y-72377100D02*
X116261300Y-72377100D01*
X114761300Y-59377100D02*
X114761300Y-60877100D01*
X114761300Y-59377100D02*
X116261300Y-59377100D01*
X120261300Y-72377100D02*
X121761300Y-72377100D01*
X121761300Y-60877100D02*
X121761300Y-59377100D01*
X114761300Y-70877100D02*
X114761300Y-72377100D01*
X121761300Y-59377100D02*
X120261300Y-59377100D01*
%TO.C,J0*%
X87570000Y-70068750D02*
X92770000Y-70068750D01*
X87570000Y-62388750D02*
X87570000Y-70068750D01*
X92770000Y-59788750D02*
X92770000Y-70068750D01*
X87570000Y-62388750D02*
X90170000Y-62388750D01*
X90170000Y-62388750D02*
X90170000Y-59788750D01*
X90170000Y-59788750D02*
X92770000Y-59788750D01*
X87570000Y-61118750D02*
X87570000Y-59788750D01*
X87570000Y-59788750D02*
X88900000Y-59788750D01*
%TD*%
M02*
