%TF.GenerationSoftware,KiCad,Pcbnew,(6.0.0)*%
%TF.CreationDate,2022-03-07T23:18:18-05:00*%
%TF.ProjectId,SweetBusinessDaughtercard,53776565-7442-4757-9369-6e6573734461,rev?*%
%TF.SameCoordinates,Original*%
%TF.FileFunction,Legend,Top*%
%TF.FilePolarity,Positive*%
%FSLAX46Y46*%
G04 Gerber Fmt 4.6, Leading zero omitted, Abs format (unit mm)*
G04 Created by KiCad (PCBNEW (6.0.0)) date 2022-03-07 23:18:18*
%MOMM*%
%LPD*%
G01*
G04 APERTURE LIST*
%ADD10C,0.120000*%
G04 APERTURE END LIST*
D10*
%TO.C,SW4*%
X152858900Y-59377100D02*
X154358900Y-59377100D01*
X159858900Y-60877100D02*
X159858900Y-59377100D01*
X152858900Y-59377100D02*
X152858900Y-60877100D01*
X152858900Y-72377100D02*
X154358900Y-72377100D01*
X159858900Y-72377100D02*
X159858900Y-70877100D01*
X152858900Y-70877100D02*
X152858900Y-72377100D01*
X158358900Y-72377100D02*
X159858900Y-72377100D01*
X159858900Y-59377100D02*
X158358900Y-59377100D01*
%TO.C,SW3*%
X140810100Y-72377100D02*
X140810100Y-70877100D01*
X133810100Y-59377100D02*
X135310100Y-59377100D01*
X140810100Y-60877100D02*
X140810100Y-59377100D01*
X133810100Y-59377100D02*
X133810100Y-60877100D01*
X140810100Y-59377100D02*
X139310100Y-59377100D01*
X133810100Y-70877100D02*
X133810100Y-72377100D01*
X139310100Y-72377100D02*
X140810100Y-72377100D01*
X133810100Y-72377100D02*
X135310100Y-72377100D01*
%TO.C,K12*%
X163756500Y-65897100D02*
X163756500Y-68497100D01*
X161096500Y-65897100D02*
X161096500Y-68497100D01*
X161096500Y-65897100D02*
X163756500Y-65897100D01*
X162426500Y-63297100D02*
X163756500Y-63297100D01*
X163756500Y-63297100D02*
X163756500Y-64627100D01*
X161096500Y-68497100D02*
X163756500Y-68497100D01*
%TO.C,SW1*%
X102712500Y-59377100D02*
X101212500Y-59377100D01*
X95712500Y-72377100D02*
X97212500Y-72377100D01*
X101212500Y-72377100D02*
X102712500Y-72377100D01*
X95712500Y-59377100D02*
X97212500Y-59377100D01*
X102712500Y-60877100D02*
X102712500Y-59377100D01*
X95712500Y-59377100D02*
X95712500Y-60877100D01*
X95712500Y-70877100D02*
X95712500Y-72377100D01*
X102712500Y-72377100D02*
X102712500Y-70877100D01*
%TO.C,SW2*%
X114761300Y-59377100D02*
X114761300Y-60877100D01*
X121761300Y-60877100D02*
X121761300Y-59377100D01*
X114761300Y-72377100D02*
X116261300Y-72377100D01*
X120261300Y-72377100D02*
X121761300Y-72377100D01*
X114761300Y-70877100D02*
X114761300Y-72377100D01*
X121761300Y-59377100D02*
X120261300Y-59377100D01*
X121761300Y-72377100D02*
X121761300Y-70877100D01*
X114761300Y-59377100D02*
X116261300Y-59377100D01*
%TO.C,K13*%
X166395000Y-63297100D02*
X167725000Y-63297100D01*
X167725000Y-65897100D02*
X167725000Y-68497100D01*
X165065000Y-65897100D02*
X167725000Y-65897100D01*
X165065000Y-65897100D02*
X165065000Y-68497100D01*
X167725000Y-63297100D02*
X167725000Y-64627100D01*
X165065000Y-68497100D02*
X167725000Y-68497100D01*
%TO.C,K11*%
X94704000Y-63297100D02*
X94704000Y-64627100D01*
X93374000Y-63297100D02*
X94704000Y-63297100D01*
X94704000Y-65897100D02*
X94704000Y-68497100D01*
X92044000Y-65897100D02*
X92044000Y-68497100D01*
X92044000Y-68497100D02*
X94704000Y-68497100D01*
X92044000Y-65897100D02*
X94704000Y-65897100D01*
%TO.C,K10*%
X90735500Y-65897100D02*
X90735500Y-68497100D01*
X88075500Y-68497100D02*
X90735500Y-68497100D01*
X89405500Y-63297100D02*
X90735500Y-63297100D01*
X88075500Y-65897100D02*
X88075500Y-68497100D01*
X88075500Y-65897100D02*
X90735500Y-65897100D01*
X90735500Y-63297100D02*
X90735500Y-64627100D01*
%TD*%
M02*
