%TF.GenerationSoftware,KiCad,Pcbnew,(6.0.0)*%
%TF.CreationDate,2022-05-01T18:15:43-04:00*%
%TF.ProjectId,Stopgap-Levelshifter,53746f70-6761-4702-9d4c-6576656c7368,rev?*%
%TF.SameCoordinates,Original*%
%TF.FileFunction,Legend,Bot*%
%TF.FilePolarity,Positive*%
%FSLAX46Y46*%
G04 Gerber Fmt 4.6, Leading zero omitted, Abs format (unit mm)*
G04 Created by KiCad (PCBNEW (6.0.0)) date 2022-05-01 18:15:43*
%MOMM*%
%LPD*%
G01*
G04 APERTURE LIST*
%ADD10C,0.150000*%
G04 APERTURE END LIST*
D10*
X146159226Y-64603273D02*
X146063988Y-64650892D01*
X145873511Y-64650892D01*
X145778273Y-64603273D01*
X145683035Y-64508035D01*
X145635416Y-64412797D01*
X145635416Y-64222321D01*
X145683035Y-64127083D01*
X145778273Y-64031845D01*
X145873511Y-63984226D01*
X146063988Y-63984226D01*
X146159226Y-64031845D01*
X145968750Y-64984226D02*
X145730654Y-64936607D01*
X145492559Y-64793750D01*
X145349702Y-64555654D01*
X145302083Y-64317559D01*
X145349702Y-64079464D01*
X145492559Y-63841369D01*
X145730654Y-63698511D01*
X145968750Y-63650892D01*
X146206845Y-63698511D01*
X146444940Y-63841369D01*
X146587797Y-64079464D01*
X146635416Y-64317559D01*
X146587797Y-64555654D01*
X146444940Y-64793750D01*
X146206845Y-64936607D01*
X145968750Y-64984226D01*
X146095238Y-57351130D02*
X146571428Y-57351130D01*
X146619047Y-57827321D01*
X146571428Y-57779702D01*
X146476190Y-57732083D01*
X146238095Y-57732083D01*
X146142857Y-57779702D01*
X146095238Y-57827321D01*
X146047619Y-57922559D01*
X146047619Y-58160654D01*
X146095238Y-58255892D01*
X146142857Y-58303511D01*
X146238095Y-58351130D01*
X146476190Y-58351130D01*
X146571428Y-58303511D01*
X146619047Y-58255892D01*
X145714285Y-57684464D02*
X145476190Y-58351130D01*
X145238095Y-57684464D01*
X143333333Y-57684464D02*
X144095238Y-57970178D01*
X143333333Y-58255892D01*
X142857142Y-57970178D02*
X142095238Y-57970178D01*
X141619047Y-57684464D02*
X140857142Y-57970178D01*
X141619047Y-58255892D01*
X139714285Y-57351130D02*
X139095238Y-57351130D01*
X139428571Y-57732083D01*
X139285714Y-57732083D01*
X139190476Y-57779702D01*
X139142857Y-57827321D01*
X139095238Y-57922559D01*
X139095238Y-58160654D01*
X139142857Y-58255892D01*
X139190476Y-58303511D01*
X139285714Y-58351130D01*
X139571428Y-58351130D01*
X139666666Y-58303511D01*
X139714285Y-58255892D01*
X138761904Y-57684464D02*
X138523809Y-58351130D01*
X138285714Y-57684464D01*
X138000000Y-57351130D02*
X137380952Y-57351130D01*
X137714285Y-57732083D01*
X137571428Y-57732083D01*
X137476190Y-57779702D01*
X137428571Y-57827321D01*
X137380952Y-57922559D01*
X137380952Y-58160654D01*
X137428571Y-58255892D01*
X137476190Y-58303511D01*
X137571428Y-58351130D01*
X137857142Y-58351130D01*
X137952380Y-58303511D01*
X138000000Y-58255892D01*
X144642857Y-61571130D02*
X144738095Y-61523511D01*
X144785714Y-61428273D01*
X144785714Y-60571130D01*
X144357142Y-60904464D02*
X144119047Y-61571130D01*
X143880952Y-60904464D01*
X143357142Y-61571130D02*
X143452380Y-61523511D01*
X143500000Y-61428273D01*
X143500000Y-60571130D01*
X142261904Y-61523511D02*
X142166666Y-61571130D01*
X141976190Y-61571130D01*
X141880952Y-61523511D01*
X141833333Y-61428273D01*
X141833333Y-61380654D01*
X141880952Y-61285416D01*
X141976190Y-61237797D01*
X142119047Y-61237797D01*
X142214285Y-61190178D01*
X142261904Y-61094940D01*
X142261904Y-61047321D01*
X142214285Y-60952083D01*
X142119047Y-60904464D01*
X141976190Y-60904464D01*
X141880952Y-60952083D01*
X141404761Y-61571130D02*
X141404761Y-60571130D01*
X140976190Y-61571130D02*
X140976190Y-61047321D01*
X141023809Y-60952083D01*
X141119047Y-60904464D01*
X141261904Y-60904464D01*
X141357142Y-60952083D01*
X141404761Y-60999702D01*
X140642857Y-60904464D02*
X140261904Y-60904464D01*
X140500000Y-61571130D02*
X140500000Y-60713988D01*
X140452380Y-60618750D01*
X140357142Y-60571130D01*
X140261904Y-60571130D01*
X140071428Y-60904464D02*
X139690476Y-60904464D01*
X139928571Y-60571130D02*
X139928571Y-61428273D01*
X139880952Y-61523511D01*
X139785714Y-61571130D01*
X139690476Y-61571130D01*
X139357142Y-61571130D02*
X139357142Y-60904464D01*
X139357142Y-61094940D02*
X139309523Y-60999702D01*
X139261904Y-60952083D01*
X139166666Y-60904464D01*
X139071428Y-60904464D01*
X144523809Y-63886369D02*
X144476190Y-63838750D01*
X144380952Y-63791130D01*
X144142857Y-63791130D01*
X144047619Y-63838750D01*
X144000000Y-63886369D01*
X143952380Y-63981607D01*
X143952380Y-64076845D01*
X144000000Y-64219702D01*
X144571428Y-64791130D01*
X143952380Y-64791130D01*
X143333333Y-63791130D02*
X143238095Y-63791130D01*
X143142857Y-63838750D01*
X143095238Y-63886369D01*
X143047619Y-63981607D01*
X143000000Y-64172083D01*
X143000000Y-64410178D01*
X143047619Y-64600654D01*
X143095238Y-64695892D01*
X143142857Y-64743511D01*
X143238095Y-64791130D01*
X143333333Y-64791130D01*
X143428571Y-64743511D01*
X143476190Y-64695892D01*
X143523809Y-64600654D01*
X143571428Y-64410178D01*
X143571428Y-64172083D01*
X143523809Y-63981607D01*
X143476190Y-63886369D01*
X143428571Y-63838750D01*
X143333333Y-63791130D01*
X142619047Y-63886369D02*
X142571428Y-63838750D01*
X142476190Y-63791130D01*
X142238095Y-63791130D01*
X142142857Y-63838750D01*
X142095238Y-63886369D01*
X142047619Y-63981607D01*
X142047619Y-64076845D01*
X142095238Y-64219702D01*
X142666666Y-64791130D01*
X142047619Y-64791130D01*
X141666666Y-63886369D02*
X141619047Y-63838750D01*
X141523809Y-63791130D01*
X141285714Y-63791130D01*
X141190476Y-63838750D01*
X141142857Y-63886369D01*
X141095238Y-63981607D01*
X141095238Y-64076845D01*
X141142857Y-64219702D01*
X141714285Y-64791130D01*
X141095238Y-64791130D01*
X139904761Y-64267321D02*
X139571428Y-64267321D01*
X139428571Y-64791130D02*
X139904761Y-64791130D01*
X139904761Y-63791130D01*
X139428571Y-63791130D01*
X139000000Y-64791130D02*
X139000000Y-63791130D01*
X138761904Y-63791130D01*
X138619047Y-63838750D01*
X138523809Y-63933988D01*
X138476190Y-64029226D01*
X138428571Y-64219702D01*
X138428571Y-64362559D01*
X138476190Y-64553035D01*
X138523809Y-64648273D01*
X138619047Y-64743511D01*
X138761904Y-64791130D01*
X139000000Y-64791130D01*
X138000000Y-64791130D02*
X138000000Y-63791130D01*
M02*
