M48
; DRILL file {KiCad (6.0.0)} date Sun May  1 17:24:26 2022
; FORMAT={-:-/ absolute / inch / decimal}
; #@! TF.CreationDate,2022-05-01T17:24:26-04:00
; #@! TF.GenerationSoftware,Kicad,Pcbnew,(6.0.0)
; #@! TF.FileFunction,Plated,1,2,PTH
FMAT,2
INCH
; #@! TA.AperFunction,Plated,PTH,ViaDrill
T1C0.0118
; #@! TA.AperFunction,Plated,PTH,ViaDrill
T2C0.0157
; #@! TA.AperFunction,Plated,PTH,ComponentDrill
T3C0.0236
; #@! TA.AperFunction,Plated,PTH,ComponentDrill
T4C0.0500
; #@! TA.AperFunction,Plated,PTH,ComponentDrill
T5C0.0590
; #@! TA.AperFunction,Plated,PTH,ComponentDrill
T6C0.1654
%
G90
G05
T1
X1.6312Y-3.6282
X1.7499Y-3.4376
X1.76Y-3.267
X1.81Y-4.199
X1.847Y-4.338
X1.873Y-3.22
X1.88Y-3.395
X1.892Y-3.147
X1.975Y-3.215
X1.984Y-3.404
X2.0Y-3.15
X2.12Y-3.415
X2.1249Y-3.5623
X2.192Y-3.507
X2.261Y-3.378
X2.3813Y-3.6622
X2.4685Y-4.9291
X2.4764Y-4.4213
X2.4908Y-3.3088
X2.5378Y-4.8088
X2.5472Y-4.0588
X2.548Y-3.562
X2.5672Y-5.5588
X2.581Y-3.572
X2.613Y-3.578
X2.64Y-3.596
X2.68Y-3.5
X2.6873Y-3.1248
X2.713Y-5.062
X2.72Y-3.5
X2.998Y-5.038
X3.038Y-3.3603
X3.065Y-3.335
X3.07Y-3.285
X3.1Y-3.27
X3.1076Y-3.46
X3.1076Y-3.6
X3.1313Y-3.6707
X3.1552Y-3.1966
X3.159Y-3.41
X3.165Y-3.309
X3.1772Y-3.1102
X3.1873Y-3.6873
X3.222Y-3.277
X3.31Y-3.465
X3.315Y-3.645
X3.338Y-3.244
X3.3583Y-3.563
X3.385Y-3.465
X3.4Y-3.66
X3.4055Y-3.5157
X3.4055Y-3.6102
X3.4062Y-3.5625
X3.4488Y-3.563
X3.489Y-2.955
X3.5Y-3.465
X3.5Y-3.6
X3.586Y-2.94
X3.611Y-3.308
X3.6535Y-3.7402
X3.6875Y-3.4086
X3.7Y-3.61
X3.755Y-3.349
X3.8123Y-3.781
X3.838Y-3.077
X3.8547Y-3.2752
X3.8813Y-3.8232
X3.906Y-4.031
X3.9147Y-3.2737
X4.0Y-3.7188
X4.024Y-3.308
X4.0735Y-3.0828
X4.0834Y-3.308
X4.108Y-3.09
X4.6312Y-3.6593
X5.263Y-5.3
X5.362Y-5.593
X5.3812Y-3.6433
X5.545Y-5.502
X5.637Y-5.593
X5.724Y-5.537
X6.1312Y-3.6307
X6.8812Y-3.6122
X7.6312Y-3.5953
X8.215Y-5.34
X8.361Y-5.584
X8.3812Y-3.5787
X8.547Y-5.506
X8.6378Y-5.5866
X8.7441Y-5.3425
X9.1312Y-3.5688
X9.8812Y-3.5562
X10.6312Y-3.5375
X11.3812Y-3.525
X12.1312Y-3.5063
X12.8812Y-3.4783
T2
X1.8457Y-3.3435
T4
X1.5312Y-2.9552
X1.5312Y-3.7052
X1.5312Y-4.4552
X1.5312Y-5.2052
X1.7281Y-3.0379
X1.7281Y-3.7879
X1.7281Y-4.5379
X1.7281Y-5.2879
X2.2812Y-2.9552
X2.2812Y-3.7052
X2.2812Y-4.4552
X2.2812Y-5.2052
X2.4781Y-3.0379
X2.4781Y-3.7879
X2.4781Y-4.5379
X2.4781Y-5.2879
X3.0312Y-2.9547
X3.0312Y-3.7052
X3.0312Y-4.4552
X3.0312Y-5.2052
X3.2281Y-3.0374
X3.2281Y-3.7879
X3.2281Y-4.5379
X3.2281Y-5.2879
X3.7812Y-2.9552
X3.7812Y-3.7052
X3.7812Y-4.4552
X3.7812Y-5.2052
X3.9781Y-3.0379
X3.9781Y-3.7879
X3.9781Y-4.5379
X3.9781Y-5.2879
X4.5312Y-2.9552
X4.5312Y-3.7052
X4.5312Y-4.4552
X4.5312Y-5.2052
X4.7281Y-3.0379
X4.7281Y-3.7879
X4.7281Y-4.5379
X4.7281Y-5.2879
X5.2812Y-2.9552
X5.2812Y-3.7052
X5.2812Y-4.4552
X5.2812Y-5.2052
X5.4594Y-5.5871
X5.4781Y-3.0379
X5.4781Y-3.7879
X5.4781Y-4.5379
X5.4781Y-5.2879
X5.6562Y-5.6698
X6.0312Y-2.9552
X6.0312Y-3.7052
X6.0312Y-4.4552
X6.0312Y-5.2052
X6.2281Y-3.0379
X6.2281Y-3.7879
X6.2281Y-4.5379
X6.2281Y-5.2879
X6.7812Y-2.9552
X6.7812Y-3.7052
X6.7812Y-4.4552
X6.7812Y-5.2052
X6.9781Y-3.0379
X6.9781Y-3.7879
X6.9781Y-4.5379
X6.9781Y-5.2879
X7.5312Y-2.9552
X7.5312Y-3.7052
X7.5312Y-4.4552
X7.5312Y-5.2052
X7.7281Y-3.0379
X7.7281Y-3.7879
X7.7281Y-4.5379
X7.7281Y-5.2879
X8.2812Y-2.9552
X8.2812Y-3.7052
X8.2812Y-4.4552
X8.2812Y-5.2052
X8.4594Y-5.5871
X8.4781Y-3.0379
X8.4781Y-3.7879
X8.4781Y-4.5379
X8.4781Y-5.2879
X8.6562Y-5.6698
X9.0312Y-2.9552
X9.0312Y-3.7052
X9.0312Y-4.4552
X9.0312Y-5.2052
X9.2281Y-3.0379
X9.2281Y-3.7879
X9.2281Y-4.5379
X9.2281Y-5.2879
X9.7812Y-2.9552
X9.7812Y-3.7052
X9.7812Y-4.4552
X9.7812Y-5.2052
X9.9781Y-3.0379
X9.9781Y-3.7879
X9.9781Y-4.5379
X9.9781Y-5.2879
X10.5312Y-2.9552
X10.5312Y-3.7052
X10.5312Y-4.4552
X10.5312Y-5.2052
X10.7281Y-3.0379
X10.7281Y-3.7879
X10.7281Y-4.5379
X10.7281Y-5.2879
X11.2812Y-2.9552
X11.2812Y-3.7052
X11.2812Y-4.4552
X11.2812Y-5.2052
X11.4781Y-3.0379
X11.4781Y-3.7879
X11.4781Y-4.5379
X11.4781Y-5.2879
X12.0312Y-2.9552
X12.0312Y-3.7052
X12.0312Y-4.4552
X12.0312Y-5.2052
X12.2281Y-3.0379
X12.2281Y-3.7879
X12.2281Y-4.5379
X12.2281Y-5.2879
X12.7812Y-2.9552
X12.7812Y-3.7052
X12.7812Y-4.4552
X12.7812Y-5.2052
X12.9781Y-3.0379
X12.9781Y-3.7879
X12.9781Y-4.5379
X12.9781Y-5.2879
T5
X1.3812Y-3.0875
X1.3812Y-3.8375
X1.3812Y-4.5875
X1.3812Y-5.3375
X1.6312Y-2.9875
X1.6312Y-3.7375
X1.6312Y-4.4875
X1.6312Y-5.2375
X2.1313Y-3.0875
X2.1313Y-3.8375
X2.1313Y-4.5875
X2.1313Y-5.3375
X2.3813Y-2.9875
X2.3813Y-3.7375
X2.3813Y-4.4875
X2.3813Y-5.2375
X2.8813Y-3.087
X2.8813Y-3.8375
X2.8813Y-4.5875
X2.8813Y-5.3375
X3.1313Y-2.987
X3.1313Y-3.7375
X3.1313Y-4.4875
X3.1313Y-5.2375
X3.6313Y-3.0875
X3.6313Y-3.8375
X3.6313Y-4.5875
X3.6313Y-5.3375
X3.8813Y-2.9875
X3.8813Y-3.7375
X3.8813Y-4.4875
X3.8813Y-5.2375
X4.3812Y-3.0875
X4.3812Y-3.8375
X4.3812Y-4.5875
X4.3812Y-5.3375
X4.6312Y-2.9875
X4.6312Y-3.7375
X4.6312Y-4.4875
X4.6312Y-5.2375
X5.1312Y-3.0875
X5.1312Y-3.8375
X5.1312Y-4.5875
X5.1312Y-5.3375
X5.3812Y-2.9875
X5.3812Y-3.7375
X5.3812Y-4.4875
X5.3812Y-5.2375
X5.5562Y-5.6375
X5.8062Y-5.5375
X5.8812Y-3.0875
X5.8812Y-3.8375
X5.8812Y-4.5875
X5.8812Y-5.3375
X6.1312Y-2.9875
X6.1312Y-3.7375
X6.1312Y-4.4875
X6.1312Y-5.2375
X6.6312Y-3.0875
X6.6312Y-3.8375
X6.6312Y-4.5875
X6.6312Y-5.3375
X6.8812Y-2.9875
X6.8812Y-3.7375
X6.8812Y-4.4875
X6.8812Y-5.2375
X7.3812Y-3.0875
X7.3812Y-3.8375
X7.3812Y-4.5875
X7.3812Y-5.3375
X7.6312Y-2.9875
X7.6312Y-3.7375
X7.6312Y-4.4875
X7.6312Y-5.2375
X8.1312Y-3.0875
X8.1312Y-3.8375
X8.1312Y-4.5875
X8.1312Y-5.3375
X8.3812Y-2.9875
X8.3812Y-3.7375
X8.3812Y-4.4875
X8.3812Y-5.2375
X8.5562Y-5.6375
X8.8062Y-5.5375
X8.8812Y-3.0875
X8.8812Y-3.8375
X8.8812Y-4.5875
X8.8812Y-5.3375
X9.1312Y-2.9875
X9.1312Y-3.7375
X9.1312Y-4.4875
X9.1312Y-5.2375
X9.6312Y-3.0875
X9.6312Y-3.8375
X9.6312Y-4.5875
X9.6312Y-5.3375
X9.8812Y-2.9875
X9.8812Y-3.7375
X9.8812Y-4.4875
X9.8812Y-5.2375
X10.3812Y-3.0875
X10.3812Y-3.8375
X10.3812Y-4.5875
X10.3812Y-5.3375
X10.6312Y-2.9875
X10.6312Y-3.7375
X10.6312Y-4.4875
X10.6312Y-5.2375
X11.1312Y-3.0875
X11.1312Y-3.8375
X11.1312Y-4.5875
X11.1312Y-5.3375
X11.3812Y-2.9875
X11.3812Y-3.7375
X11.3812Y-4.4875
X11.3812Y-5.2375
X11.8812Y-3.0875
X11.8812Y-3.8375
X11.8812Y-4.5875
X11.8812Y-5.3375
X12.1312Y-2.9875
X12.1312Y-3.7375
X12.1312Y-4.4875
X12.1312Y-5.2375
X12.6312Y-3.0875
X12.6312Y-3.8375
X12.6312Y-4.5875
X12.6312Y-5.3375
X12.8812Y-2.9875
X12.8812Y-3.7375
X12.8812Y-4.4875
X12.8812Y-5.2375
T6
X1.9061Y-3.5623
X1.9061Y-5.0622
X7.1558Y-3.281
X7.1558Y-5.3434
X12.4055Y-3.5623
X12.4055Y-5.0622
T3
G00X1.7749Y-2.7519
M15
G01X1.7749Y-2.7755
M16
G05
G00X1.7749Y-2.9066
M15
G01X1.7749Y-2.9499
M16
G05
G00X2.1151Y-2.7519
M15
G01X2.1151Y-2.7755
M16
G05
G00X2.1151Y-2.9066
M15
G01X2.1151Y-2.9499
M16
G05
T0
M30
