%TF.GenerationSoftware,KiCad,Pcbnew,(6.0.0)*%
%TF.CreationDate,2022-05-01T17:24:25-04:00*%
%TF.ProjectId,HL-2040,484c2d32-3034-4302-9e6b-696361645f70,Mark 2 Rev F*%
%TF.SameCoordinates,Original*%
%TF.FileFunction,Soldermask,Top*%
%TF.FilePolarity,Negative*%
%FSLAX46Y46*%
G04 Gerber Fmt 4.6, Leading zero omitted, Abs format (unit mm)*
G04 Created by KiCad (PCBNEW (6.0.0)) date 2022-05-01 17:24:25*
%MOMM*%
%LPD*%
G01*
G04 APERTURE LIST*
%ADD10C,6.200000*%
%ADD11O,2.150000X1.750000*%
%ADD12C,3.987800*%
%ADD13C,2.032000*%
%ADD14C,2.286000*%
%ADD15O,3.300000X1.750000*%
%ADD16C,0.650000*%
%ADD17O,1.000000X1.600000*%
%ADD18O,1.000000X2.100000*%
G04 APERTURE END LIST*
D10*
%TO.C,H6*%
X315098900Y-128579400D03*
%TD*%
%TO.C,H5*%
X315098900Y-90481800D03*
%TD*%
%TO.C,H4*%
X181757300Y-135722700D03*
%TD*%
%TO.C,H3*%
X181757300Y-83338500D03*
%TD*%
%TO.C,H2*%
X48415700Y-128579400D03*
%TD*%
%TO.C,H1*%
X48415700Y-90481800D03*
%TD*%
D11*
%TO.C,K2*%
X63226950Y-80962500D03*
D12*
X57943750Y-80962500D03*
D11*
X52660550Y-80962500D03*
D13*
X62943750Y-77162500D03*
D14*
X60483750Y-75882500D03*
D13*
X57943750Y-75062500D03*
D14*
X54133750Y-78422500D03*
%TD*%
D11*
%TO.C,K3*%
X71710550Y-80949800D03*
X82276950Y-80949800D03*
D12*
X76993750Y-80949800D03*
D13*
X81993750Y-77149800D03*
D14*
X79533750Y-75869800D03*
D13*
X76993750Y-75049800D03*
D14*
X73183750Y-78409800D03*
%TD*%
D12*
%TO.C,K6*%
X134143750Y-80962500D03*
D11*
X128860550Y-80962500D03*
X139426950Y-80962500D03*
D13*
X139143750Y-77162500D03*
D14*
X136683750Y-75882500D03*
D13*
X134143750Y-75062500D03*
D14*
X130333750Y-78422500D03*
%TD*%
D11*
%TO.C,K7*%
X158476950Y-80962500D03*
D12*
X153193750Y-80962500D03*
D11*
X147910550Y-80962500D03*
D13*
X158193750Y-77162500D03*
D14*
X155733750Y-75882500D03*
X149383750Y-78422500D03*
D13*
X153193750Y-75062500D03*
%TD*%
D12*
%TO.C,K8*%
X172243750Y-80962500D03*
D11*
X177526950Y-80962500D03*
X166960550Y-80962500D03*
D13*
X177243750Y-77162500D03*
D14*
X174783750Y-75882500D03*
X168433750Y-78422500D03*
D13*
X172243750Y-75062500D03*
%TD*%
D11*
%TO.C,K9*%
X196576950Y-80962500D03*
D12*
X191293750Y-80962500D03*
D11*
X186010550Y-80962500D03*
D14*
X193833750Y-75882500D03*
D13*
X196293750Y-77162500D03*
D14*
X187483750Y-78422500D03*
D13*
X191293750Y-75062500D03*
%TD*%
D11*
%TO.C,K10*%
X205060550Y-80962500D03*
D12*
X210343750Y-80962500D03*
D11*
X215626950Y-80962500D03*
D14*
X212883750Y-75882500D03*
D13*
X215343750Y-77162500D03*
X210343750Y-75062500D03*
D14*
X206533750Y-78422500D03*
%TD*%
D12*
%TO.C,K11*%
X229393750Y-80962500D03*
D11*
X224110550Y-80962500D03*
X234676950Y-80962500D03*
D14*
X231933750Y-75882500D03*
D13*
X234393750Y-77162500D03*
X229393750Y-75062500D03*
D14*
X225583750Y-78422500D03*
%TD*%
D11*
%TO.C,K12*%
X253726950Y-80962500D03*
D12*
X248443750Y-80962500D03*
D11*
X243160550Y-80962500D03*
D14*
X250983750Y-75882500D03*
D13*
X253443750Y-77162500D03*
X248443750Y-75062500D03*
D14*
X244633750Y-78422500D03*
%TD*%
D11*
%TO.C,K13*%
X272776950Y-80962500D03*
D12*
X267493750Y-80962500D03*
D11*
X262210550Y-80962500D03*
D14*
X270033750Y-75882500D03*
D13*
X272493750Y-77162500D03*
D14*
X263683750Y-78422500D03*
D13*
X267493750Y-75062500D03*
%TD*%
D12*
%TO.C,K14*%
X286543750Y-80962500D03*
D11*
X281260550Y-80962500D03*
X291826950Y-80962500D03*
D14*
X289083750Y-75882500D03*
D13*
X291543750Y-77162500D03*
D14*
X282733750Y-78422500D03*
D13*
X286543750Y-75062500D03*
%TD*%
D12*
%TO.C,K15*%
X305593750Y-80962500D03*
D11*
X310876950Y-80962500D03*
X300310550Y-80962500D03*
D14*
X308133750Y-75882500D03*
D13*
X310593750Y-77162500D03*
X305593750Y-75062500D03*
D14*
X301783750Y-78422500D03*
%TD*%
D11*
%TO.C,K16*%
X319360550Y-80962500D03*
X329926950Y-80962500D03*
D12*
X324643750Y-80962500D03*
D13*
X329643750Y-77162500D03*
D14*
X327183750Y-75882500D03*
X320833750Y-78422500D03*
D13*
X324643750Y-75062500D03*
%TD*%
D12*
%TO.C,K17*%
X38893750Y-100012500D03*
D11*
X33610550Y-100012500D03*
X44176950Y-100012500D03*
D13*
X43893750Y-96212500D03*
D14*
X41433750Y-94932500D03*
D13*
X38893750Y-94112500D03*
D14*
X35083750Y-97472500D03*
%TD*%
D11*
%TO.C,K18*%
X63226950Y-100012500D03*
X52660550Y-100012500D03*
D12*
X57943750Y-100012500D03*
D14*
X60483750Y-94932500D03*
D13*
X62943750Y-96212500D03*
D14*
X54133750Y-97472500D03*
D13*
X57943750Y-94112500D03*
%TD*%
D12*
%TO.C,K19*%
X76993750Y-100012500D03*
D11*
X82276950Y-100012500D03*
X71710550Y-100012500D03*
D13*
X81993750Y-96212500D03*
D14*
X79533750Y-94932500D03*
X73183750Y-97472500D03*
D13*
X76993750Y-94112500D03*
%TD*%
D11*
%TO.C,K22*%
X128860550Y-100012500D03*
D12*
X134143750Y-100012500D03*
D11*
X139426950Y-100012500D03*
D14*
X136683750Y-94932500D03*
D13*
X139143750Y-96212500D03*
D14*
X130333750Y-97472500D03*
D13*
X134143750Y-94112500D03*
%TD*%
D11*
%TO.C,K23*%
X147910550Y-100012500D03*
X158476950Y-100012500D03*
D12*
X153193750Y-100012500D03*
D14*
X155733750Y-94932500D03*
D13*
X158193750Y-96212500D03*
D14*
X149383750Y-97472500D03*
D13*
X153193750Y-94112500D03*
%TD*%
D11*
%TO.C,K24*%
X166960550Y-100012500D03*
X177526950Y-100012500D03*
D12*
X172243750Y-100012500D03*
D14*
X174783750Y-94932500D03*
D13*
X177243750Y-96212500D03*
D14*
X168433750Y-97472500D03*
D13*
X172243750Y-94112500D03*
%TD*%
D11*
%TO.C,K25*%
X186010550Y-100012500D03*
X196576950Y-100012500D03*
D12*
X191293750Y-100012500D03*
D14*
X193833750Y-94932500D03*
D13*
X196293750Y-96212500D03*
X191293750Y-94112500D03*
D14*
X187483750Y-97472500D03*
%TD*%
D12*
%TO.C,K26*%
X210343750Y-100012500D03*
D11*
X215626950Y-100012500D03*
X205060550Y-100012500D03*
D13*
X215343750Y-96212500D03*
D14*
X212883750Y-94932500D03*
D13*
X210343750Y-94112500D03*
D14*
X206533750Y-97472500D03*
%TD*%
D11*
%TO.C,K27*%
X234676950Y-100012500D03*
D12*
X229393750Y-100012500D03*
D11*
X224110550Y-100012500D03*
D13*
X234393750Y-96212500D03*
D14*
X231933750Y-94932500D03*
D13*
X229393750Y-94112500D03*
D14*
X225583750Y-97472500D03*
%TD*%
D11*
%TO.C,K28*%
X243160550Y-100012500D03*
D12*
X248443750Y-100012500D03*
D11*
X253726950Y-100012500D03*
D13*
X253443750Y-96212500D03*
D14*
X250983750Y-94932500D03*
D13*
X248443750Y-94112500D03*
D14*
X244633750Y-97472500D03*
%TD*%
D12*
%TO.C,K29*%
X267493750Y-100012500D03*
D11*
X272776950Y-100012500D03*
X262210550Y-100012500D03*
D14*
X270033750Y-94932500D03*
D13*
X272493750Y-96212500D03*
X267493750Y-94112500D03*
D14*
X263683750Y-97472500D03*
%TD*%
D12*
%TO.C,K30*%
X286543750Y-100012500D03*
D11*
X281260550Y-100012500D03*
X291826950Y-100012500D03*
D14*
X289083750Y-94932500D03*
D13*
X291543750Y-96212500D03*
D14*
X282733750Y-97472500D03*
D13*
X286543750Y-94112500D03*
%TD*%
D11*
%TO.C,K31*%
X310876950Y-100012500D03*
D12*
X305593750Y-100012500D03*
D11*
X300310550Y-100012500D03*
D13*
X310593750Y-96212500D03*
D14*
X308133750Y-94932500D03*
X301783750Y-97472500D03*
D13*
X305593750Y-94112500D03*
%TD*%
D11*
%TO.C,K32*%
X319360550Y-100012500D03*
X329926950Y-100012500D03*
D12*
X324643750Y-100012500D03*
D14*
X327183750Y-94932500D03*
D13*
X329643750Y-96212500D03*
X324643750Y-94112500D03*
D14*
X320833750Y-97472500D03*
%TD*%
D11*
%TO.C,K33*%
X33610550Y-119062500D03*
D12*
X38893750Y-119062500D03*
D11*
X44176950Y-119062500D03*
D13*
X43893750Y-115262500D03*
D14*
X41433750Y-113982500D03*
D13*
X38893750Y-113162500D03*
D14*
X35083750Y-116522500D03*
%TD*%
D11*
%TO.C,K34*%
X52660550Y-119062500D03*
D12*
X57943750Y-119062500D03*
D11*
X63226950Y-119062500D03*
D13*
X62943750Y-115262500D03*
D14*
X60483750Y-113982500D03*
D13*
X57943750Y-113162500D03*
D14*
X54133750Y-116522500D03*
%TD*%
D11*
%TO.C,K35*%
X71710550Y-119062500D03*
D12*
X76993750Y-119062500D03*
D11*
X82276950Y-119062500D03*
D13*
X81993750Y-115262500D03*
D14*
X79533750Y-113982500D03*
D13*
X76993750Y-113162500D03*
D14*
X73183750Y-116522500D03*
%TD*%
D12*
%TO.C,K36*%
X96043750Y-119062500D03*
D11*
X90760550Y-119062500D03*
X101326950Y-119062500D03*
D14*
X98583750Y-113982500D03*
D13*
X101043750Y-115262500D03*
D14*
X92233750Y-116522500D03*
D13*
X96043750Y-113162500D03*
%TD*%
D12*
%TO.C,K37*%
X115093750Y-119062500D03*
D11*
X109810550Y-119062500D03*
X120376950Y-119062500D03*
D14*
X117633750Y-113982500D03*
D13*
X120093750Y-115262500D03*
X115093750Y-113162500D03*
D14*
X111283750Y-116522500D03*
%TD*%
D11*
%TO.C,K38*%
X139426950Y-119062500D03*
X128860550Y-119062500D03*
D12*
X134143750Y-119062500D03*
D13*
X139143750Y-115262500D03*
D14*
X136683750Y-113982500D03*
D13*
X134143750Y-113162500D03*
D14*
X130333750Y-116522500D03*
%TD*%
D11*
%TO.C,K39*%
X147910550Y-119062500D03*
X158476950Y-119062500D03*
D12*
X153193750Y-119062500D03*
D14*
X155733750Y-113982500D03*
D13*
X158193750Y-115262500D03*
X153193750Y-113162500D03*
D14*
X149383750Y-116522500D03*
%TD*%
D11*
%TO.C,K40*%
X166960550Y-119062500D03*
D12*
X172243750Y-119062500D03*
D11*
X177526950Y-119062500D03*
D13*
X177243750Y-115262500D03*
D14*
X174783750Y-113982500D03*
D13*
X172243750Y-113162500D03*
D14*
X168433750Y-116522500D03*
%TD*%
D11*
%TO.C,K41*%
X196576950Y-119062500D03*
D12*
X191293750Y-119062500D03*
D11*
X186010550Y-119062500D03*
D13*
X196293750Y-115262500D03*
D14*
X193833750Y-113982500D03*
D13*
X191293750Y-113162500D03*
D14*
X187483750Y-116522500D03*
%TD*%
D11*
%TO.C,K42*%
X215626950Y-119062500D03*
D12*
X210343750Y-119062500D03*
D11*
X205060550Y-119062500D03*
D14*
X212883750Y-113982500D03*
D13*
X215343750Y-115262500D03*
D14*
X206533750Y-116522500D03*
D13*
X210343750Y-113162500D03*
%TD*%
D11*
%TO.C,K43*%
X234676950Y-119062500D03*
X224110550Y-119062500D03*
D12*
X229393750Y-119062500D03*
D13*
X234393750Y-115262500D03*
D14*
X231933750Y-113982500D03*
X225583750Y-116522500D03*
D13*
X229393750Y-113162500D03*
%TD*%
D11*
%TO.C,K44*%
X243160550Y-119062500D03*
D12*
X248443750Y-119062500D03*
D11*
X253726950Y-119062500D03*
D14*
X250983750Y-113982500D03*
D13*
X253443750Y-115262500D03*
X248443750Y-113162500D03*
D14*
X244633750Y-116522500D03*
%TD*%
D12*
%TO.C,K45*%
X267493750Y-119062500D03*
D11*
X272776950Y-119062500D03*
X262210550Y-119062500D03*
D14*
X270033750Y-113982500D03*
D13*
X272493750Y-115262500D03*
X267493750Y-113162500D03*
D14*
X263683750Y-116522500D03*
%TD*%
D11*
%TO.C,K46*%
X281260550Y-119062500D03*
D12*
X286543750Y-119062500D03*
D11*
X291826950Y-119062500D03*
D14*
X289083750Y-113982500D03*
D13*
X291543750Y-115262500D03*
X286543750Y-113162500D03*
D14*
X282733750Y-116522500D03*
%TD*%
D11*
%TO.C,K47*%
X300310550Y-119062500D03*
D12*
X305593750Y-119062500D03*
D11*
X310876950Y-119062500D03*
D13*
X310593750Y-115262500D03*
D14*
X308133750Y-113982500D03*
X301783750Y-116522500D03*
D13*
X305593750Y-113162500D03*
%TD*%
D12*
%TO.C,K48*%
X324643750Y-119062500D03*
D11*
X329926950Y-119062500D03*
X319360550Y-119062500D03*
D14*
X327183750Y-113982500D03*
D13*
X329643750Y-115262500D03*
D14*
X320833750Y-116522500D03*
D13*
X324643750Y-113162500D03*
%TD*%
D12*
%TO.C,K49*%
X38893750Y-138112500D03*
D11*
X44176950Y-138112500D03*
X33610550Y-138112500D03*
D13*
X43893750Y-134312500D03*
D14*
X41433750Y-133032500D03*
D13*
X38893750Y-132212500D03*
D14*
X35083750Y-135572500D03*
%TD*%
D11*
%TO.C,K50*%
X63226950Y-138112500D03*
D12*
X57943750Y-138112500D03*
D11*
X52660550Y-138112500D03*
D13*
X62943750Y-134312500D03*
D14*
X60483750Y-133032500D03*
D13*
X57943750Y-132212500D03*
D14*
X54133750Y-135572500D03*
%TD*%
D11*
%TO.C,K51*%
X82276950Y-138112500D03*
X71710550Y-138112500D03*
D12*
X76993750Y-138112500D03*
D14*
X79533750Y-133032500D03*
D13*
X81993750Y-134312500D03*
D14*
X73183750Y-135572500D03*
D13*
X76993750Y-132212500D03*
%TD*%
D11*
%TO.C,K52*%
X101326950Y-138112500D03*
D12*
X96043750Y-138112500D03*
D11*
X90760550Y-138112500D03*
D13*
X101043750Y-134312500D03*
D14*
X98583750Y-133032500D03*
D13*
X96043750Y-132212500D03*
D14*
X92233750Y-135572500D03*
%TD*%
D12*
%TO.C,K53*%
X115093750Y-138112500D03*
D11*
X120376950Y-138112500D03*
X109810550Y-138112500D03*
D13*
X120093750Y-134312500D03*
D14*
X117633750Y-133032500D03*
X111283750Y-135572500D03*
D13*
X115093750Y-132212500D03*
%TD*%
D15*
%TO.C,K54*%
X138905950Y-138112500D03*
D11*
X128860550Y-138112500D03*
D15*
X148367750Y-138112500D03*
D12*
X134143750Y-138112500D03*
X143668150Y-138112500D03*
D13*
X138668150Y-141912500D03*
D14*
X141128150Y-143192500D03*
D13*
X139143750Y-134312500D03*
D14*
X136683750Y-133032500D03*
X130333750Y-135572500D03*
D13*
X134143750Y-132212500D03*
D14*
X147478150Y-140652500D03*
D13*
X143668150Y-144012500D03*
%TD*%
D11*
%TO.C,K55*%
X158476950Y-138112500D03*
D12*
X153193750Y-138112500D03*
D11*
X147910550Y-138112500D03*
D14*
X155733750Y-133032500D03*
D13*
X158193750Y-134312500D03*
X153193750Y-132212500D03*
D14*
X149383750Y-135572500D03*
%TD*%
D11*
%TO.C,K56*%
X177526950Y-138112500D03*
D12*
X172243750Y-138112500D03*
D11*
X166960550Y-138112500D03*
D14*
X174783750Y-133032500D03*
D13*
X177243750Y-134312500D03*
D14*
X168433750Y-135572500D03*
D13*
X172243750Y-132212500D03*
%TD*%
D11*
%TO.C,K57*%
X186010550Y-138112500D03*
X196576950Y-138112500D03*
D12*
X191293750Y-138112500D03*
D13*
X196293750Y-134312500D03*
D14*
X193833750Y-133032500D03*
D13*
X191293750Y-132212500D03*
D14*
X187483750Y-135572500D03*
%TD*%
D12*
%TO.C,K58*%
X210343750Y-138112500D03*
D15*
X215105950Y-138112500D03*
X224567750Y-138112500D03*
D11*
X205060550Y-138112500D03*
D12*
X219868150Y-138112500D03*
D14*
X217328150Y-143192500D03*
X212883750Y-133032500D03*
D13*
X214868150Y-141912500D03*
X215343750Y-134312500D03*
D14*
X206533750Y-135572500D03*
D13*
X210343750Y-132212500D03*
D14*
X223678150Y-140652500D03*
D13*
X219868150Y-144012500D03*
%TD*%
D11*
%TO.C,K59*%
X224110550Y-138112500D03*
D12*
X229393750Y-138112500D03*
D11*
X234676950Y-138112500D03*
D13*
X234393750Y-134312500D03*
D14*
X231933750Y-133032500D03*
X225583750Y-135572500D03*
D13*
X229393750Y-132212500D03*
%TD*%
D11*
%TO.C,K60*%
X243160550Y-138112500D03*
X253726950Y-138112500D03*
D12*
X248443750Y-138112500D03*
D13*
X253443750Y-134312500D03*
D14*
X250983750Y-133032500D03*
D13*
X248443750Y-132212500D03*
D14*
X244633750Y-135572500D03*
%TD*%
D11*
%TO.C,K61*%
X272776950Y-138112500D03*
D12*
X267493750Y-138112500D03*
D11*
X262210550Y-138112500D03*
D14*
X270033750Y-133032500D03*
D13*
X272493750Y-134312500D03*
X267493750Y-132212500D03*
D14*
X263683750Y-135572500D03*
%TD*%
D12*
%TO.C,K62*%
X286543750Y-138112500D03*
D11*
X291826950Y-138112500D03*
X281260550Y-138112500D03*
D14*
X289083750Y-133032500D03*
D13*
X291543750Y-134312500D03*
D14*
X282733750Y-135572500D03*
D13*
X286543750Y-132212500D03*
%TD*%
D12*
%TO.C,K63*%
X305593750Y-138112500D03*
D11*
X310876950Y-138112500D03*
X300310550Y-138112500D03*
D14*
X308133750Y-133032500D03*
D13*
X310593750Y-134312500D03*
X305593750Y-132212500D03*
D14*
X301783750Y-135572500D03*
%TD*%
D11*
%TO.C,K64*%
X319360550Y-138112500D03*
D12*
X324643750Y-138112500D03*
D11*
X329926950Y-138112500D03*
D14*
X327183750Y-133032500D03*
D13*
X329643750Y-134312500D03*
D14*
X320833750Y-135572500D03*
D13*
X324643750Y-132212500D03*
%TD*%
D11*
%TO.C,K1*%
X44176950Y-80962500D03*
X33610550Y-80962500D03*
D12*
X38893750Y-80962500D03*
D14*
X41433750Y-75882500D03*
D13*
X43893750Y-77162500D03*
X38893750Y-75062500D03*
D14*
X35083750Y-78422500D03*
%TD*%
D11*
%TO.C,K4*%
X101326950Y-80962500D03*
X90760550Y-80962500D03*
D12*
X96043750Y-80962500D03*
D14*
X98583750Y-75882500D03*
D13*
X101043750Y-77162500D03*
D14*
X92233750Y-78422500D03*
D13*
X96043750Y-75062500D03*
%TD*%
D11*
%TO.C,K5*%
X109810550Y-80962500D03*
D12*
X115093750Y-80962500D03*
D11*
X120376950Y-80962500D03*
D13*
X120093750Y-77162500D03*
D14*
X117633750Y-75882500D03*
D13*
X115093750Y-75062500D03*
D14*
X111283750Y-78422500D03*
%TD*%
D12*
%TO.C,K21*%
X115093750Y-100012500D03*
D11*
X109810550Y-100012500D03*
X120376950Y-100012500D03*
D13*
X120093750Y-96212500D03*
D14*
X117633750Y-94932500D03*
X111283750Y-97472500D03*
D13*
X115093750Y-94112500D03*
%TD*%
D11*
%TO.C,K20*%
X101326950Y-100012500D03*
X90760550Y-100012500D03*
D12*
X96043750Y-100012500D03*
D13*
X101043750Y-96212500D03*
D14*
X98583750Y-94932500D03*
X92233750Y-97472500D03*
D13*
X96043750Y-94112500D03*
%TD*%
D16*
%TO.C,J0*%
X52293000Y-73847000D03*
X46513000Y-73847000D03*
D17*
X45083000Y-70197000D03*
D18*
X45083000Y-74377000D03*
D17*
X53723000Y-70197000D03*
D18*
X53723000Y-74377000D03*
%TD*%
M02*
