%TF.GenerationSoftware,KiCad,Pcbnew,(6.0.0)*%
%TF.CreationDate,2022-05-01T17:24:26-04:00*%
%TF.ProjectId,HL-2040,484c2d32-3034-4302-9e6b-696361645f70,Mark 2 Rev F*%
%TF.SameCoordinates,Original*%
%TF.FileFunction,Paste,Bot*%
%TF.FilePolarity,Positive*%
%FSLAX46Y46*%
G04 Gerber Fmt 4.6, Leading zero omitted, Abs format (unit mm)*
G04 Created by KiCad (PCBNEW (6.0.0)) date 2022-05-01 17:24:26*
%MOMM*%
%LPD*%
G01*
G04 APERTURE LIST*
G04 Aperture macros list*
%AMRoundRect*
0 Rectangle with rounded corners*
0 $1 Rounding radius*
0 $2 $3 $4 $5 $6 $7 $8 $9 X,Y pos of 4 corners*
0 Add a 4 corners polygon primitive as box body*
4,1,4,$2,$3,$4,$5,$6,$7,$8,$9,$2,$3,0*
0 Add four circle primitives for the rounded corners*
1,1,$1+$1,$2,$3*
1,1,$1+$1,$4,$5*
1,1,$1+$1,$6,$7*
1,1,$1+$1,$8,$9*
0 Add four rect primitives between the rounded corners*
20,1,$1+$1,$2,$3,$4,$5,0*
20,1,$1+$1,$4,$5,$6,$7,0*
20,1,$1+$1,$6,$7,$8,$9,0*
20,1,$1+$1,$8,$9,$2,$3,0*%
G04 Aperture macros list end*
%ADD10C,0.010000*%
%ADD11RoundRect,0.147500X-0.147500X-0.172500X0.147500X-0.172500X0.147500X0.172500X-0.147500X0.172500X0*%
%ADD12RoundRect,0.147500X0.147500X0.172500X-0.147500X0.172500X-0.147500X-0.172500X0.147500X-0.172500X0*%
%ADD13RoundRect,0.147500X0.172500X-0.147500X0.172500X0.147500X-0.172500X0.147500X-0.172500X-0.147500X0*%
%ADD14RoundRect,0.250000X0.292217X0.292217X-0.292217X0.292217X-0.292217X-0.292217X0.292217X-0.292217X0*%
%ADD15RoundRect,0.050000X0.387500X0.050000X-0.387500X0.050000X-0.387500X-0.050000X0.387500X-0.050000X0*%
%ADD16RoundRect,0.050000X0.050000X0.387500X-0.050000X0.387500X-0.050000X-0.387500X0.050000X-0.387500X0*%
%ADD17R,3.050000X3.050000*%
%ADD18R,0.700000X0.600000*%
%ADD19RoundRect,0.147500X-0.172500X0.147500X-0.172500X-0.147500X0.172500X-0.147500X0.172500X0.147500X0*%
%ADD20RoundRect,0.212500X-0.212500X0.400000X-0.212500X-0.400000X0.212500X-0.400000X0.212500X0.400000X0*%
%ADD21R,0.800000X0.900000*%
%ADD22R,0.600000X1.450000*%
%ADD23R,0.300000X1.450000*%
%ADD24R,1.500000X1.000000*%
%ADD25R,2.000000X4.200000*%
%ADD26RoundRect,0.150000X-0.150000X0.650000X-0.150000X-0.650000X0.150000X-0.650000X0.150000X0.650000X0*%
%ADD27R,1.400000X1.200000*%
%ADD28RoundRect,0.150000X0.150000X-0.512500X0.150000X0.512500X-0.150000X0.512500X-0.150000X-0.512500X0*%
G04 APERTURE END LIST*
D10*
%TO.C,S1*%
X104114000Y-76939000D02*
X104564000Y-76939000D01*
X104564000Y-76939000D02*
X104564000Y-76489000D01*
X104564000Y-76489000D02*
X104114000Y-76489000D01*
X104114000Y-76489000D02*
X104114000Y-76939000D01*
G36*
X104564000Y-76939000D02*
G01*
X104114000Y-76939000D01*
X104114000Y-76489000D01*
X104564000Y-76489000D01*
X104564000Y-76939000D01*
G37*
X104564000Y-76939000D02*
X104114000Y-76939000D01*
X104114000Y-76489000D01*
X104564000Y-76489000D01*
X104564000Y-76939000D01*
X106764000Y-76939000D02*
X107214000Y-76939000D01*
X107214000Y-76939000D02*
X107214000Y-76489000D01*
X107214000Y-76489000D02*
X106764000Y-76489000D01*
X106764000Y-76489000D02*
X106764000Y-76939000D01*
G36*
X107214000Y-76939000D02*
G01*
X106764000Y-76939000D01*
X106764000Y-76489000D01*
X107214000Y-76489000D01*
X107214000Y-76939000D01*
G37*
X107214000Y-76939000D02*
X106764000Y-76939000D01*
X106764000Y-76489000D01*
X107214000Y-76489000D01*
X107214000Y-76939000D01*
X104114000Y-77689000D02*
X104564000Y-77689000D01*
X104564000Y-77689000D02*
X104564000Y-77239000D01*
X104564000Y-77239000D02*
X104114000Y-77239000D01*
X104114000Y-77239000D02*
X104114000Y-77689000D01*
G36*
X104564000Y-77689000D02*
G01*
X104114000Y-77689000D01*
X104114000Y-77239000D01*
X104564000Y-77239000D01*
X104564000Y-77689000D01*
G37*
X104564000Y-77689000D02*
X104114000Y-77689000D01*
X104114000Y-77239000D01*
X104564000Y-77239000D01*
X104564000Y-77689000D01*
X106764000Y-77689000D02*
X107214000Y-77689000D01*
X107214000Y-77689000D02*
X107214000Y-77239000D01*
X107214000Y-77239000D02*
X106764000Y-77239000D01*
X106764000Y-77239000D02*
X106764000Y-77689000D01*
G36*
X107214000Y-77689000D02*
G01*
X106764000Y-77689000D01*
X106764000Y-77239000D01*
X107214000Y-77239000D01*
X107214000Y-77689000D01*
G37*
X107214000Y-77689000D02*
X106764000Y-77689000D01*
X106764000Y-77239000D01*
X107214000Y-77239000D01*
X107214000Y-77689000D01*
%TO.C,S2*%
X107214000Y-74203000D02*
X106764000Y-74203000D01*
X106764000Y-74203000D02*
X106764000Y-74653000D01*
X106764000Y-74653000D02*
X107214000Y-74653000D01*
X107214000Y-74653000D02*
X107214000Y-74203000D01*
G36*
X107214000Y-74653000D02*
G01*
X106764000Y-74653000D01*
X106764000Y-74203000D01*
X107214000Y-74203000D01*
X107214000Y-74653000D01*
G37*
X107214000Y-74653000D02*
X106764000Y-74653000D01*
X106764000Y-74203000D01*
X107214000Y-74203000D01*
X107214000Y-74653000D01*
X104564000Y-74953000D02*
X104114000Y-74953000D01*
X104114000Y-74953000D02*
X104114000Y-75403000D01*
X104114000Y-75403000D02*
X104564000Y-75403000D01*
X104564000Y-75403000D02*
X104564000Y-74953000D01*
G36*
X104564000Y-75403000D02*
G01*
X104114000Y-75403000D01*
X104114000Y-74953000D01*
X104564000Y-74953000D01*
X104564000Y-75403000D01*
G37*
X104564000Y-75403000D02*
X104114000Y-75403000D01*
X104114000Y-74953000D01*
X104564000Y-74953000D01*
X104564000Y-75403000D01*
X104564000Y-74203000D02*
X104114000Y-74203000D01*
X104114000Y-74203000D02*
X104114000Y-74653000D01*
X104114000Y-74653000D02*
X104564000Y-74653000D01*
X104564000Y-74653000D02*
X104564000Y-74203000D01*
G36*
X104564000Y-74653000D02*
G01*
X104114000Y-74653000D01*
X104114000Y-74203000D01*
X104564000Y-74203000D01*
X104564000Y-74653000D01*
G37*
X104564000Y-74653000D02*
X104114000Y-74653000D01*
X104114000Y-74203000D01*
X104564000Y-74203000D01*
X104564000Y-74653000D01*
X107214000Y-74953000D02*
X106764000Y-74953000D01*
X106764000Y-74953000D02*
X106764000Y-75403000D01*
X106764000Y-75403000D02*
X107214000Y-75403000D01*
X107214000Y-75403000D02*
X107214000Y-74953000D01*
G36*
X107214000Y-75403000D02*
G01*
X106764000Y-75403000D01*
X106764000Y-74953000D01*
X107214000Y-74953000D01*
X107214000Y-75403000D01*
G37*
X107214000Y-75403000D02*
X106764000Y-75403000D01*
X106764000Y-74953000D01*
X107214000Y-74953000D01*
X107214000Y-75403000D01*
%TD*%
D11*
%TO.C,C1*%
X91158200Y-87477600D03*
X92128200Y-87477600D03*
%TD*%
D12*
%TO.C,C2*%
X85930600Y-95808800D03*
X84960600Y-95808800D03*
%TD*%
D11*
%TO.C,C3*%
X92326600Y-91744800D03*
X93296600Y-91744800D03*
%TD*%
D13*
%TO.C,C6*%
X81305400Y-84886800D03*
X81305400Y-83916800D03*
%TD*%
%TO.C,C8*%
X85394800Y-84886800D03*
X85394800Y-83916800D03*
%TD*%
D14*
%TO.C,U0*%
X87124500Y-91125000D03*
X85849500Y-89850000D03*
X87124500Y-89850000D03*
X85849500Y-91125000D03*
D15*
X89924500Y-87887500D03*
X89924500Y-88287500D03*
X89924500Y-88687500D03*
X89924500Y-89087500D03*
X89924500Y-89487500D03*
X89924500Y-89887500D03*
X89924500Y-90287500D03*
X89924500Y-90687500D03*
X89924500Y-91087500D03*
X89924500Y-91487500D03*
X89924500Y-91887500D03*
X89924500Y-92287500D03*
X89924500Y-92687500D03*
X89924500Y-93087500D03*
D16*
X89087000Y-93925000D03*
X88687000Y-93925000D03*
X88287000Y-93925000D03*
X87887000Y-93925000D03*
X87487000Y-93925000D03*
X87087000Y-93925000D03*
X86687000Y-93925000D03*
X86287000Y-93925000D03*
X85887000Y-93925000D03*
X85487000Y-93925000D03*
X85087000Y-93925000D03*
X84687000Y-93925000D03*
X84287000Y-93925000D03*
X83887000Y-93925000D03*
D15*
X83049500Y-93087500D03*
X83049500Y-92687500D03*
X83049500Y-92287500D03*
X83049500Y-91887500D03*
X83049500Y-91487500D03*
X83049500Y-91087500D03*
X83049500Y-90687500D03*
X83049500Y-90287500D03*
X83049500Y-89887500D03*
X83049500Y-89487500D03*
X83049500Y-89087500D03*
X83049500Y-88687500D03*
X83049500Y-88287500D03*
X83049500Y-87887500D03*
D16*
X83887000Y-87050000D03*
X84287000Y-87050000D03*
X84687000Y-87050000D03*
X85087000Y-87050000D03*
X85487000Y-87050000D03*
X85887000Y-87050000D03*
X86287000Y-87050000D03*
X86687000Y-87050000D03*
X87087000Y-87050000D03*
X87487000Y-87050000D03*
X87887000Y-87050000D03*
X88287000Y-87050000D03*
X88687000Y-87050000D03*
X89087000Y-87050000D03*
D17*
X86487000Y-90487500D03*
%TD*%
D13*
%TO.C,C7*%
X82346800Y-84886800D03*
X82346800Y-83916800D03*
%TD*%
D18*
%TO.C,D1*%
X35718750Y-84043750D03*
X35718750Y-82643750D03*
%TD*%
%TO.C,D2*%
X54768750Y-84043750D03*
X54768750Y-82643750D03*
%TD*%
%TO.C,D3*%
X73818750Y-84043750D03*
X73818750Y-82643750D03*
%TD*%
%TO.C,D4*%
X92868750Y-84043750D03*
X92868750Y-82643750D03*
%TD*%
%TO.C,D5*%
X111918750Y-84043750D03*
X111918750Y-82643750D03*
%TD*%
%TO.C,D6*%
X130968750Y-84043750D03*
X130968750Y-82643750D03*
%TD*%
%TO.C,D7*%
X150018750Y-84043750D03*
X150018750Y-82643750D03*
%TD*%
%TO.C,D8*%
X169068750Y-84043750D03*
X169068750Y-82643750D03*
%TD*%
%TO.C,D9*%
X188118750Y-84043750D03*
X188118750Y-82643750D03*
%TD*%
%TO.C,D10*%
X207168750Y-84043750D03*
X207168750Y-82643750D03*
%TD*%
%TO.C,D11*%
X226218750Y-84043750D03*
X226218750Y-82643750D03*
%TD*%
%TO.C,D12*%
X245268750Y-84043750D03*
X245268750Y-82643750D03*
%TD*%
%TO.C,D13*%
X264318750Y-84043750D03*
X264318750Y-82643750D03*
%TD*%
%TO.C,D14*%
X283368750Y-84043750D03*
X283368750Y-82643750D03*
%TD*%
%TO.C,D15*%
X302418750Y-84043750D03*
X302418750Y-82643750D03*
%TD*%
%TO.C,D16*%
X321468750Y-84043750D03*
X321468750Y-82643750D03*
%TD*%
%TO.C,D17*%
X35718750Y-103093750D03*
X35718750Y-101693750D03*
%TD*%
%TO.C,D18*%
X54768750Y-103093750D03*
X54768750Y-101693750D03*
%TD*%
%TO.C,D19*%
X73818750Y-103093750D03*
X73818750Y-101693750D03*
%TD*%
%TO.C,D20*%
X92868750Y-103093750D03*
X92868750Y-101693750D03*
%TD*%
%TO.C,D21*%
X111918750Y-103093750D03*
X111918750Y-101693750D03*
%TD*%
%TO.C,D22*%
X130968750Y-103093750D03*
X130968750Y-101693750D03*
%TD*%
%TO.C,D23*%
X150018750Y-103093750D03*
X150018750Y-101693750D03*
%TD*%
%TO.C,D24*%
X169068750Y-103093750D03*
X169068750Y-101693750D03*
%TD*%
%TO.C,D25*%
X188118750Y-103031250D03*
X188118750Y-101631250D03*
%TD*%
%TO.C,D26*%
X207168750Y-103106250D03*
X207168750Y-101706250D03*
%TD*%
%TO.C,D27*%
X226218750Y-103093750D03*
X226218750Y-101693750D03*
%TD*%
%TO.C,D28*%
X245268750Y-103093750D03*
X245268750Y-101693750D03*
%TD*%
%TO.C,D29*%
X264318750Y-103093750D03*
X264318750Y-101693750D03*
%TD*%
%TO.C,D30*%
X283368750Y-103093750D03*
X283368750Y-101693750D03*
%TD*%
%TO.C,D31*%
X302418750Y-103093750D03*
X302418750Y-101693750D03*
%TD*%
%TO.C,D32*%
X321468750Y-103093750D03*
X321468750Y-101693750D03*
%TD*%
%TO.C,D33*%
X35718750Y-122143750D03*
X35718750Y-120743750D03*
%TD*%
%TO.C,D34*%
X54768750Y-122143750D03*
X54768750Y-120743750D03*
%TD*%
%TO.C,D35*%
X73818750Y-122143750D03*
X73818750Y-120743750D03*
%TD*%
%TO.C,D36*%
X92868750Y-122143750D03*
X92868750Y-120743750D03*
%TD*%
%TO.C,D37*%
X111918750Y-122143750D03*
X111918750Y-120743750D03*
%TD*%
%TO.C,D38*%
X130968750Y-122143750D03*
X130968750Y-120743750D03*
%TD*%
%TO.C,D39*%
X150018750Y-122143750D03*
X150018750Y-120743750D03*
%TD*%
%TO.C,D40*%
X169068750Y-122143750D03*
X169068750Y-120743750D03*
%TD*%
%TO.C,D41*%
X188118750Y-122143750D03*
X188118750Y-120743750D03*
%TD*%
%TO.C,D42*%
X207168750Y-122143750D03*
X207168750Y-120743750D03*
%TD*%
%TO.C,D43*%
X226218750Y-122143750D03*
X226218750Y-120743750D03*
%TD*%
%TO.C,D44*%
X245268750Y-122143750D03*
X245268750Y-120743750D03*
%TD*%
%TO.C,D45*%
X264318750Y-122143750D03*
X264318750Y-120743750D03*
%TD*%
%TO.C,D46*%
X283368750Y-122143750D03*
X283368750Y-120743750D03*
%TD*%
%TO.C,D47*%
X302418750Y-122143750D03*
X302418750Y-120743750D03*
%TD*%
%TO.C,D48*%
X321468750Y-122143750D03*
X321468750Y-120743750D03*
%TD*%
%TO.C,D49*%
X35718750Y-141193750D03*
X35718750Y-139793750D03*
%TD*%
%TO.C,D50*%
X54768750Y-141193750D03*
X54768750Y-139793750D03*
%TD*%
%TO.C,D51*%
X73818750Y-141193750D03*
X73818750Y-139793750D03*
%TD*%
%TO.C,D52*%
X92868750Y-141193750D03*
X92868750Y-139793750D03*
%TD*%
%TO.C,D53*%
X111918750Y-141193750D03*
X111918750Y-139793750D03*
%TD*%
%TO.C,D54*%
X130968750Y-141193750D03*
X130968750Y-139793750D03*
%TD*%
%TO.C,D55*%
X150018750Y-141193750D03*
X150018750Y-139793750D03*
%TD*%
%TO.C,D56*%
X169068750Y-141193750D03*
X169068750Y-139793750D03*
%TD*%
%TO.C,D57*%
X188118750Y-141193750D03*
X188118750Y-139793750D03*
%TD*%
%TO.C,D58*%
X207168750Y-141193750D03*
X207168750Y-139793750D03*
%TD*%
%TO.C,D59*%
X226218750Y-141193750D03*
X226218750Y-139793750D03*
%TD*%
%TO.C,D60*%
X245268750Y-141193750D03*
X245268750Y-139793750D03*
%TD*%
%TO.C,D61*%
X264318750Y-141193750D03*
X264318750Y-139793750D03*
%TD*%
%TO.C,D62*%
X283368750Y-141193750D03*
X283368750Y-139793750D03*
%TD*%
%TO.C,D63*%
X302418750Y-141193750D03*
X302418750Y-139793750D03*
%TD*%
%TO.C,D64*%
X321468750Y-141193750D03*
X321468750Y-139793750D03*
%TD*%
D13*
%TO.C,RC2*%
X51593750Y-78272500D03*
X51593750Y-77302500D03*
%TD*%
D19*
%TO.C,RC1*%
X47625000Y-77302500D03*
X47625000Y-78272500D03*
%TD*%
%TO.C,RD1*%
X84378800Y-83916800D03*
X84378800Y-84886800D03*
%TD*%
D20*
%TO.C,F0*%
X46069250Y-77737000D03*
X46069250Y-79362000D03*
%TD*%
D21*
%TO.C,U1*%
X47781250Y-85124800D03*
X45881250Y-85124800D03*
X46831250Y-83124800D03*
%TD*%
D12*
%TO.C,LC1*%
X48999000Y-105791000D03*
X48029000Y-105791000D03*
%TD*%
%TO.C,C4*%
X81206200Y-91490800D03*
X80236200Y-91490800D03*
%TD*%
D22*
%TO.C,J0*%
X46153000Y-75292000D03*
X46953000Y-75292000D03*
D23*
X48153000Y-75292000D03*
X49153000Y-75292000D03*
X49653000Y-75292000D03*
X50653000Y-75292000D03*
D22*
X51853000Y-75292000D03*
X52653000Y-75292000D03*
X52653000Y-75292000D03*
X51853000Y-75292000D03*
D23*
X51153000Y-75292000D03*
X50153000Y-75292000D03*
X48653000Y-75292000D03*
X47653000Y-75292000D03*
D22*
X46953000Y-75292000D03*
X46153000Y-75292000D03*
%TD*%
D12*
%TO.C,LC3*%
X66111225Y-105791000D03*
X65141225Y-105791000D03*
%TD*%
%TO.C,LC10*%
X126333800Y-105791000D03*
X125363800Y-105791000D03*
%TD*%
%TO.C,LC12*%
X143540250Y-105791000D03*
X142570250Y-105791000D03*
%TD*%
%TO.C,LC6*%
X91920900Y-105791000D03*
X90950900Y-105791000D03*
%TD*%
%TO.C,LC8*%
X109127350Y-105791000D03*
X108157350Y-105791000D03*
%TD*%
%TO.C,LC9*%
X117730575Y-105791000D03*
X116760575Y-105791000D03*
%TD*%
%TO.C,LC7*%
X100524125Y-105791000D03*
X99554125Y-105791000D03*
%TD*%
%TO.C,LC5*%
X83317675Y-105791000D03*
X82347675Y-105791000D03*
%TD*%
%TO.C,LC11*%
X134937025Y-105791000D03*
X133967025Y-105791000D03*
%TD*%
%TO.C,LC13*%
X152143475Y-105791000D03*
X151173475Y-105791000D03*
%TD*%
%TO.C,LC4*%
X74714450Y-105791000D03*
X73744450Y-105791000D03*
%TD*%
%TO.C,LC14*%
X160746700Y-105791000D03*
X159776700Y-105791000D03*
%TD*%
%TO.C,LC15*%
X169349925Y-105791000D03*
X168379925Y-105791000D03*
%TD*%
%TO.C,LC16*%
X177953150Y-105791000D03*
X176983150Y-105791000D03*
%TD*%
%TO.C,LC17*%
X186556375Y-105791000D03*
X185586375Y-105791000D03*
%TD*%
%TO.C,LC18*%
X195159600Y-105791000D03*
X194189600Y-105791000D03*
%TD*%
%TO.C,LC19*%
X203762825Y-105791000D03*
X202792825Y-105791000D03*
%TD*%
%TO.C,LC20*%
X212366050Y-105791000D03*
X211396050Y-105791000D03*
%TD*%
%TO.C,LC21*%
X220957000Y-105791000D03*
X219987000Y-105791000D03*
%TD*%
%TO.C,LC22*%
X229572500Y-105791000D03*
X228602500Y-105791000D03*
%TD*%
%TO.C,LC23*%
X238175725Y-105791000D03*
X237205725Y-105791000D03*
%TD*%
%TO.C,LC24*%
X246778950Y-105791000D03*
X245808950Y-105791000D03*
%TD*%
%TO.C,LC25*%
X255347800Y-105791000D03*
X254377800Y-105791000D03*
%TD*%
%TO.C,LC26*%
X263985400Y-105791000D03*
X263015400Y-105791000D03*
%TD*%
%TO.C,LC27*%
X272588625Y-105791000D03*
X271618625Y-105791000D03*
%TD*%
%TO.C,LC28*%
X281191850Y-105791000D03*
X280221850Y-105791000D03*
%TD*%
%TO.C,LC29*%
X289795075Y-105791000D03*
X288825075Y-105791000D03*
%TD*%
%TO.C,LC30*%
X298326425Y-105791000D03*
X297356425Y-105791000D03*
%TD*%
%TO.C,LC31*%
X307001525Y-105791000D03*
X306031525Y-105791000D03*
%TD*%
%TO.C,LC32*%
X315604750Y-105791000D03*
X314634750Y-105791000D03*
%TD*%
D24*
%TO.C,LD16*%
X179917125Y-107937500D03*
X179917125Y-111137500D03*
X175017125Y-111137500D03*
X175017125Y-107937500D03*
%TD*%
%TO.C,LD17*%
X188520350Y-107937500D03*
X188520350Y-111137500D03*
X183620350Y-111137500D03*
X183620350Y-107937500D03*
%TD*%
%TO.C,LD18*%
X197123575Y-107937500D03*
X197123575Y-111137500D03*
X192223575Y-111137500D03*
X192223575Y-107937500D03*
%TD*%
%TO.C,LD19*%
X205726800Y-107937500D03*
X205726800Y-111137500D03*
X200826800Y-111137500D03*
X200826800Y-107937500D03*
%TD*%
%TO.C,LD20*%
X214330025Y-107937500D03*
X214330025Y-111137500D03*
X209430025Y-111137500D03*
X209430025Y-107937500D03*
%TD*%
%TO.C,LD21*%
X222933250Y-107937500D03*
X222933250Y-111137500D03*
X218033250Y-111137500D03*
X218033250Y-107937500D03*
%TD*%
%TO.C,LD22*%
X231536475Y-107937500D03*
X231536475Y-111137500D03*
X226636475Y-111137500D03*
X226636475Y-107937500D03*
%TD*%
%TO.C,LD23*%
X240139700Y-107937500D03*
X240139700Y-111137500D03*
X235239700Y-111137500D03*
X235239700Y-107937500D03*
%TD*%
%TO.C,LD24*%
X248742925Y-107937500D03*
X248742925Y-111137500D03*
X243842925Y-111137500D03*
X243842925Y-107937500D03*
%TD*%
%TO.C,LD25*%
X257380525Y-107937500D03*
X257380525Y-111137500D03*
X252480525Y-111137500D03*
X252480525Y-107937500D03*
%TD*%
%TO.C,LD26*%
X265949375Y-107937500D03*
X265949375Y-111137500D03*
X261049375Y-111137500D03*
X261049375Y-107937500D03*
%TD*%
%TO.C,LD27*%
X274552600Y-107937500D03*
X274552600Y-111137500D03*
X269652600Y-111137500D03*
X269652600Y-107937500D03*
%TD*%
%TO.C,LD28*%
X283155825Y-107937500D03*
X283155825Y-111137500D03*
X278255825Y-111137500D03*
X278255825Y-107937500D03*
%TD*%
%TO.C,LD29*%
X291759050Y-107937500D03*
X291759050Y-111137500D03*
X286859050Y-111137500D03*
X286859050Y-107937500D03*
%TD*%
%TO.C,LD30*%
X300434150Y-107937500D03*
X300434150Y-111137500D03*
X295534150Y-111137500D03*
X295534150Y-107937500D03*
%TD*%
%TO.C,LD32*%
X317568725Y-107937500D03*
X317568725Y-111137500D03*
X312668725Y-111137500D03*
X312668725Y-107937500D03*
%TD*%
%TO.C,LD31*%
X308965500Y-107937500D03*
X308965500Y-111137500D03*
X304065500Y-111137500D03*
X304065500Y-107937500D03*
%TD*%
%TO.C,LD15*%
X171313900Y-107937500D03*
X171313900Y-111137500D03*
X166413900Y-111137500D03*
X166413900Y-107937500D03*
%TD*%
%TO.C,LD14*%
X162710675Y-107937500D03*
X162710675Y-111137500D03*
X157810675Y-111137500D03*
X157810675Y-107937500D03*
%TD*%
%TO.C,LD12*%
X145504225Y-107937500D03*
X145504225Y-111137500D03*
X140604225Y-111137500D03*
X140604225Y-107937500D03*
%TD*%
%TO.C,LD10*%
X128297775Y-107937500D03*
X128297775Y-111137500D03*
X123397775Y-111137500D03*
X123397775Y-107937500D03*
%TD*%
%TO.C,LD13*%
X154107450Y-107937500D03*
X154107450Y-111137500D03*
X149207450Y-111137500D03*
X149207450Y-107937500D03*
%TD*%
%TO.C,LD5*%
X85281650Y-107937500D03*
X85281650Y-111137500D03*
X80381650Y-111137500D03*
X80381650Y-107937500D03*
%TD*%
%TO.C,LD11*%
X136901000Y-107937500D03*
X136901000Y-111137500D03*
X132001000Y-111137500D03*
X132001000Y-107937500D03*
%TD*%
%TO.C,LD6*%
X93884875Y-107937500D03*
X93884875Y-111137500D03*
X88984875Y-111137500D03*
X88984875Y-107937500D03*
%TD*%
%TO.C,LD7*%
X102488100Y-107937500D03*
X102488100Y-111137500D03*
X97588100Y-111137500D03*
X97588100Y-107937500D03*
%TD*%
%TO.C,LD8*%
X111091325Y-107937500D03*
X111091325Y-111137500D03*
X106191325Y-111137500D03*
X106191325Y-107937500D03*
%TD*%
%TO.C,LD9*%
X119694550Y-107937500D03*
X119694550Y-111137500D03*
X114794550Y-111137500D03*
X114794550Y-107937500D03*
%TD*%
%TO.C,LD2*%
X59471975Y-107937500D03*
X59471975Y-111137500D03*
X54571975Y-111137500D03*
X54571975Y-107937500D03*
%TD*%
%TO.C,LD1*%
X50868750Y-107937500D03*
X50868750Y-111137500D03*
X45968750Y-111137500D03*
X45968750Y-107937500D03*
%TD*%
%TO.C,LD3*%
X68075200Y-107937500D03*
X68075200Y-111137500D03*
X63175200Y-111137500D03*
X63175200Y-107937500D03*
%TD*%
%TO.C,LD4*%
X76678425Y-107937500D03*
X76678425Y-111137500D03*
X71778425Y-111137500D03*
X71778425Y-107937500D03*
%TD*%
D12*
%TO.C,LC2*%
X57508000Y-105791000D03*
X56538000Y-105791000D03*
%TD*%
%TO.C,C5*%
X81206200Y-87884000D03*
X80236200Y-87884000D03*
%TD*%
D25*
%TO.C,TX0*%
X293656250Y-128587500D03*
X301656250Y-128587500D03*
%TD*%
%TO.C,TX1*%
X73850000Y-128587500D03*
X65850000Y-128587500D03*
%TD*%
D12*
%TO.C,CF1*%
X82603200Y-79019400D03*
X81633200Y-79019400D03*
%TD*%
D13*
%TO.C,C10*%
X87452200Y-84886800D03*
X87452200Y-83916800D03*
%TD*%
D19*
%TO.C,C11*%
X83870800Y-95857200D03*
X83870800Y-96827200D03*
%TD*%
D26*
%TO.C,U3*%
X84150200Y-73920800D03*
X85420200Y-73920800D03*
X86690200Y-73920800D03*
X87960200Y-73920800D03*
X87960200Y-81120800D03*
X86690200Y-81120800D03*
X85420200Y-81120800D03*
X84150200Y-81120800D03*
%TD*%
D27*
%TO.C,Y0*%
X87663200Y-100037000D03*
X85463200Y-100037000D03*
X85463200Y-98337000D03*
X87663200Y-98337000D03*
%TD*%
D13*
%TO.C,RR1*%
X103251000Y-77574000D03*
X103251000Y-76604000D03*
%TD*%
D28*
%TO.C,U2*%
X51343600Y-85262300D03*
X50393600Y-85262300D03*
X49443600Y-85262300D03*
X49443600Y-82987300D03*
X50393600Y-82987300D03*
X51343600Y-82987300D03*
%TD*%
D19*
%TO.C,RD0*%
X83362800Y-83916800D03*
X83362800Y-84886800D03*
%TD*%
%TO.C,RF1*%
X103251000Y-74318000D03*
X103251000Y-75288000D03*
%TD*%
D12*
%TO.C,CX2*%
X88165800Y-96901000D03*
X87195800Y-96901000D03*
%TD*%
%TO.C,CP2*%
X46840000Y-86436200D03*
X45870000Y-86436200D03*
%TD*%
D13*
%TO.C,C9*%
X86410800Y-84886800D03*
X86410800Y-83916800D03*
%TD*%
D11*
%TO.C,CP1*%
X45844600Y-81813400D03*
X46814600Y-81813400D03*
%TD*%
D12*
%TO.C,CX1*%
X85930600Y-96901000D03*
X84960600Y-96901000D03*
%TD*%
D11*
%TO.C,RX1*%
X87195800Y-95808800D03*
X88165800Y-95808800D03*
%TD*%
M02*
