%TF.GenerationSoftware,KiCad,Pcbnew,(6.0.0)*%
%TF.CreationDate,2022-04-29T20:19:50-04:00*%
%TF.ProjectId,TwoTailed,54776f54-6169-46c6-9564-2e6b69636164,rev?*%
%TF.SameCoordinates,Original*%
%TF.FileFunction,Profile,NP*%
%FSLAX46Y46*%
G04 Gerber Fmt 4.6, Leading zero omitted, Abs format (unit mm)*
G04 Created by KiCad (PCBNEW (6.0.0)) date 2022-04-29 20:19:50*
%MOMM*%
%LPD*%
G01*
G04 APERTURE LIST*
%TA.AperFunction,Profile*%
%ADD10C,0.100000*%
%TD*%
G04 APERTURE END LIST*
D10*
X324643750Y-85725000D02*
G75*
G03*
X327818750Y-82550000I0J3175000D01*
G01*
X238918750Y-85725000D02*
X324643750Y-85725000D01*
X403225000Y-115887500D02*
G75*
G03*
X405606250Y-113506250I0J2381250D01*
G01*
X34131250Y-206375000D02*
G75*
G03*
X37306250Y-209550000I3175000J0D01*
G01*
X37306250Y-66675000D02*
X232568750Y-66675000D01*
X405606250Y-69850000D02*
X405606250Y-113506250D01*
X235743750Y-82550000D02*
G75*
G03*
X238918750Y-85725000I3175000J0D01*
G01*
X235743750Y-69850000D02*
X235743750Y-82550000D01*
X37306250Y-66675000D02*
G75*
G03*
X34131250Y-69850000I0J-3175000D01*
G01*
X330993750Y-66675000D02*
X402431250Y-66675000D01*
X327818750Y-82550000D02*
X327818750Y-69850000D01*
X34131250Y-206375000D02*
X34131250Y-69850000D01*
X383381250Y-209550000D02*
G75*
G03*
X386556250Y-206375000I0J3175000D01*
G01*
X330993750Y-66675000D02*
G75*
G03*
X327818750Y-69850000I0J-3175000D01*
G01*
X403225000Y-115887500D02*
X388937500Y-115887500D01*
X405606250Y-69850000D02*
G75*
G03*
X402431250Y-66675000I-3175000J0D01*
G01*
X383381250Y-209550000D02*
X37306250Y-209550000D01*
X386556250Y-118268750D02*
X386556250Y-206375000D01*
X388937500Y-115887500D02*
G75*
G03*
X386556250Y-118268750I0J-2381250D01*
G01*
X235743750Y-69850000D02*
G75*
G03*
X232568750Y-66675000I-3175000J0D01*
G01*
M02*
