%TF.GenerationSoftware,KiCad,Pcbnew,(6.0.0)*%
%TF.CreationDate,2022-04-29T20:19:50-04:00*%
%TF.ProjectId,TwoTailed,54776f54-6169-46c6-9564-2e6b69636164,rev?*%
%TF.SameCoordinates,Original*%
%TF.FileFunction,Paste,Bot*%
%TF.FilePolarity,Positive*%
%FSLAX46Y46*%
G04 Gerber Fmt 4.6, Leading zero omitted, Abs format (unit mm)*
G04 Created by KiCad (PCBNEW (6.0.0)) date 2022-04-29 20:19:50*
%MOMM*%
%LPD*%
G01*
G04 APERTURE LIST*
G04 Aperture macros list*
%AMRoundRect*
0 Rectangle with rounded corners*
0 $1 Rounding radius*
0 $2 $3 $4 $5 $6 $7 $8 $9 X,Y pos of 4 corners*
0 Add a 4 corners polygon primitive as box body*
4,1,4,$2,$3,$4,$5,$6,$7,$8,$9,$2,$3,0*
0 Add four circle primitives for the rounded corners*
1,1,$1+$1,$2,$3*
1,1,$1+$1,$4,$5*
1,1,$1+$1,$6,$7*
1,1,$1+$1,$8,$9*
0 Add four rect primitives between the rounded corners*
20,1,$1+$1,$2,$3,$4,$5,0*
20,1,$1+$1,$4,$5,$6,$7,0*
20,1,$1+$1,$6,$7,$8,$9,0*
20,1,$1+$1,$8,$9,$2,$3,0*%
G04 Aperture macros list end*
%ADD10C,0.010000*%
%ADD11R,1.400000X1.200000*%
%ADD12RoundRect,0.147500X-0.172500X0.147500X-0.172500X-0.147500X0.172500X-0.147500X0.172500X0.147500X0*%
%ADD13RoundRect,0.147500X0.172500X-0.147500X0.172500X0.147500X-0.172500X0.147500X-0.172500X-0.147500X0*%
%ADD14RoundRect,0.147500X0.147500X0.172500X-0.147500X0.172500X-0.147500X-0.172500X0.147500X-0.172500X0*%
%ADD15R,3.050000X3.050000*%
%ADD16RoundRect,0.050000X0.050000X0.387500X-0.050000X0.387500X-0.050000X-0.387500X0.050000X-0.387500X0*%
%ADD17RoundRect,0.050000X0.387500X0.050000X-0.387500X0.050000X-0.387500X-0.050000X0.387500X-0.050000X0*%
%ADD18RoundRect,0.250000X0.292217X0.292217X-0.292217X0.292217X-0.292217X-0.292217X0.292217X-0.292217X0*%
%ADD19RoundRect,0.147500X-0.147500X-0.172500X0.147500X-0.172500X0.147500X0.172500X-0.147500X0.172500X0*%
%ADD20RoundRect,0.150000X0.650000X0.150000X-0.650000X0.150000X-0.650000X-0.150000X0.650000X-0.150000X0*%
%ADD21R,0.700000X0.600000*%
%ADD22R,0.600000X0.700000*%
%ADD23RoundRect,0.150000X0.150000X-0.512500X0.150000X0.512500X-0.150000X0.512500X-0.150000X-0.512500X0*%
%ADD24RoundRect,0.218750X-0.256250X0.218750X-0.256250X-0.218750X0.256250X-0.218750X0.256250X0.218750X0*%
%ADD25R,0.600000X1.450000*%
%ADD26R,0.300000X1.450000*%
%ADD27RoundRect,0.150000X0.150000X-0.587500X0.150000X0.587500X-0.150000X0.587500X-0.150000X-0.587500X0*%
G04 APERTURE END LIST*
D10*
%TO.C,S1*%
X84410000Y-86230000D02*
X83960000Y-86230000D01*
X83960000Y-86230000D02*
X83960000Y-86680000D01*
X83960000Y-86680000D02*
X84410000Y-86680000D01*
X84410000Y-86680000D02*
X84410000Y-86230000D01*
G36*
X84410000Y-86680000D02*
G01*
X83960000Y-86680000D01*
X83960000Y-86230000D01*
X84410000Y-86230000D01*
X84410000Y-86680000D01*
G37*
X84410000Y-86680000D02*
X83960000Y-86680000D01*
X83960000Y-86230000D01*
X84410000Y-86230000D01*
X84410000Y-86680000D01*
X87060000Y-86230000D02*
X86610000Y-86230000D01*
X86610000Y-86230000D02*
X86610000Y-86680000D01*
X86610000Y-86680000D02*
X87060000Y-86680000D01*
X87060000Y-86680000D02*
X87060000Y-86230000D01*
G36*
X87060000Y-86680000D02*
G01*
X86610000Y-86680000D01*
X86610000Y-86230000D01*
X87060000Y-86230000D01*
X87060000Y-86680000D01*
G37*
X87060000Y-86680000D02*
X86610000Y-86680000D01*
X86610000Y-86230000D01*
X87060000Y-86230000D01*
X87060000Y-86680000D01*
X84410000Y-86980000D02*
X83960000Y-86980000D01*
X83960000Y-86980000D02*
X83960000Y-87430000D01*
X83960000Y-87430000D02*
X84410000Y-87430000D01*
X84410000Y-87430000D02*
X84410000Y-86980000D01*
G36*
X84410000Y-87430000D02*
G01*
X83960000Y-87430000D01*
X83960000Y-86980000D01*
X84410000Y-86980000D01*
X84410000Y-87430000D01*
G37*
X84410000Y-87430000D02*
X83960000Y-87430000D01*
X83960000Y-86980000D01*
X84410000Y-86980000D01*
X84410000Y-87430000D01*
X87060000Y-86980000D02*
X86610000Y-86980000D01*
X86610000Y-86980000D02*
X86610000Y-87430000D01*
X86610000Y-87430000D02*
X87060000Y-87430000D01*
X87060000Y-87430000D02*
X87060000Y-86980000D01*
G36*
X87060000Y-87430000D02*
G01*
X86610000Y-87430000D01*
X86610000Y-86980000D01*
X87060000Y-86980000D01*
X87060000Y-87430000D01*
G37*
X87060000Y-87430000D02*
X86610000Y-87430000D01*
X86610000Y-86980000D01*
X87060000Y-86980000D01*
X87060000Y-87430000D01*
%TD*%
D11*
%TO.C,Y1*%
X78170000Y-119090000D03*
X75970000Y-119090000D03*
X75970000Y-117390000D03*
X78170000Y-117390000D03*
%TD*%
D12*
%TO.C,RD2*%
X74824450Y-103553200D03*
X74824450Y-102583200D03*
%TD*%
%TO.C,RC2*%
X74750000Y-75225000D03*
X74750000Y-76195000D03*
%TD*%
D13*
%TO.C,RC1*%
X79440000Y-76195000D03*
X79440000Y-75225000D03*
%TD*%
D12*
%TO.C,RD1*%
X75870000Y-103545000D03*
X75870000Y-102575000D03*
%TD*%
D14*
%TO.C,C4*%
X70254000Y-110998000D03*
X71224000Y-110998000D03*
%TD*%
D15*
%TO.C,U0*%
X76993750Y-109537500D03*
D16*
X79593750Y-106100000D03*
X79193750Y-106100000D03*
X78793750Y-106100000D03*
X78393750Y-106100000D03*
X77993750Y-106100000D03*
X77593750Y-106100000D03*
X77193750Y-106100000D03*
X76793750Y-106100000D03*
X76393750Y-106100000D03*
X75993750Y-106100000D03*
X75593750Y-106100000D03*
X75193750Y-106100000D03*
X74793750Y-106100000D03*
X74393750Y-106100000D03*
D17*
X73556250Y-106937500D03*
X73556250Y-107337500D03*
X73556250Y-107737500D03*
X73556250Y-108137500D03*
X73556250Y-108537500D03*
X73556250Y-108937500D03*
X73556250Y-109337500D03*
X73556250Y-109737500D03*
X73556250Y-110137500D03*
X73556250Y-110537500D03*
X73556250Y-110937500D03*
X73556250Y-111337500D03*
X73556250Y-111737500D03*
X73556250Y-112137500D03*
D16*
X74393750Y-112975000D03*
X74793750Y-112975000D03*
X75193750Y-112975000D03*
X75593750Y-112975000D03*
X75993750Y-112975000D03*
X76393750Y-112975000D03*
X76793750Y-112975000D03*
X77193750Y-112975000D03*
X77593750Y-112975000D03*
X77993750Y-112975000D03*
X78393750Y-112975000D03*
X78793750Y-112975000D03*
X79193750Y-112975000D03*
X79593750Y-112975000D03*
D17*
X80431250Y-112137500D03*
X80431250Y-111737500D03*
X80431250Y-111337500D03*
X80431250Y-110937500D03*
X80431250Y-110537500D03*
X80431250Y-110137500D03*
X80431250Y-109737500D03*
X80431250Y-109337500D03*
X80431250Y-108937500D03*
X80431250Y-108537500D03*
X80431250Y-108137500D03*
X80431250Y-107737500D03*
X80431250Y-107337500D03*
X80431250Y-106937500D03*
D18*
X76356250Y-110175000D03*
X77631250Y-108900000D03*
X76356250Y-108900000D03*
X77631250Y-110175000D03*
%TD*%
D12*
%TO.C,C2*%
X74360000Y-115885000D03*
X74360000Y-114915000D03*
%TD*%
D13*
%TO.C,C1*%
X73784450Y-102583200D03*
X73784450Y-103553200D03*
%TD*%
D19*
%TO.C,C3*%
X83797000Y-110871000D03*
X82827000Y-110871000D03*
%TD*%
%TO.C,C8*%
X83805000Y-105664000D03*
X82835000Y-105664000D03*
%TD*%
D13*
%TO.C,C6*%
X71703050Y-102583200D03*
X71703050Y-103553200D03*
%TD*%
%TO.C,C7*%
X72744450Y-102583200D03*
X72744450Y-103553200D03*
%TD*%
D19*
%TO.C,RX1*%
X78672550Y-114858800D03*
X77702550Y-114858800D03*
%TD*%
D13*
%TO.C,RF1*%
X82940000Y-87425000D03*
X82940000Y-86455000D03*
%TD*%
D14*
%TO.C,CX1*%
X75467350Y-115951000D03*
X76437350Y-115951000D03*
%TD*%
%TO.C,CX2*%
X77702550Y-115951000D03*
X78672550Y-115951000D03*
%TD*%
D13*
%TO.C,C9*%
X76914650Y-102570400D03*
X76914650Y-103540400D03*
%TD*%
%TO.C,RR1*%
X73320000Y-114915000D03*
X73320000Y-115885000D03*
%TD*%
D20*
%TO.C,U3*%
X82930000Y-88975000D03*
X82930000Y-90245000D03*
X82930000Y-91515000D03*
X82930000Y-92785000D03*
X75730000Y-92785000D03*
X75730000Y-91515000D03*
X75730000Y-90245000D03*
X75730000Y-88975000D03*
%TD*%
D14*
%TO.C,C11*%
X76445000Y-114860000D03*
X75475000Y-114860000D03*
%TD*%
D13*
%TO.C,C10*%
X77956050Y-102570400D03*
X77956050Y-103540400D03*
%TD*%
D14*
%TO.C,C5*%
X71712950Y-106549500D03*
X70742950Y-106549500D03*
%TD*%
D13*
%TO.C,CF1*%
X75740000Y-87435000D03*
X75740000Y-86465000D03*
%TD*%
D21*
%TO.C,D41*%
X278606250Y-126365000D03*
X278606250Y-124965000D03*
%TD*%
%TO.C,D21*%
X240506250Y-97790000D03*
X240506250Y-96390000D03*
%TD*%
%TO.C,D18*%
X183356250Y-97790000D03*
X183356250Y-96390000D03*
%TD*%
%TO.C,D72*%
X183356250Y-164465000D03*
X183356250Y-163065000D03*
%TD*%
%TO.C,D62*%
X335756250Y-145415000D03*
X335756250Y-144015000D03*
%TD*%
%TO.C,D110*%
X240506250Y-202565000D03*
X240506250Y-201165000D03*
%TD*%
D22*
%TO.C,DT2*%
X338837500Y-74612500D03*
X337437500Y-74612500D03*
%TD*%
D21*
%TO.C,D83*%
X40481250Y-183515000D03*
X40481250Y-182115000D03*
%TD*%
%TO.C,D106*%
X145256250Y-202565000D03*
X145256250Y-201165000D03*
%TD*%
%TO.C,D45*%
X354806250Y-126365000D03*
X354806250Y-124965000D03*
%TD*%
%TO.C,D101*%
X40481250Y-202565000D03*
X40481250Y-201165000D03*
%TD*%
%TO.C,D76*%
X259556250Y-164465000D03*
X259556250Y-163065000D03*
%TD*%
%TO.C,D23*%
X278606250Y-97790000D03*
X278606250Y-96390000D03*
%TD*%
%TO.C,D103*%
X88106250Y-202565000D03*
X88106250Y-201165000D03*
%TD*%
%TO.C,D78*%
X297656250Y-164465000D03*
X297656250Y-163065000D03*
%TD*%
%TO.C,D13*%
X88106250Y-97790000D03*
X88106250Y-96390000D03*
%TD*%
%TO.C,D113*%
X297650000Y-202500000D03*
X297650000Y-201100000D03*
%TD*%
%TO.C,D53*%
X164306250Y-145415000D03*
X164306250Y-144015000D03*
%TD*%
%TO.C,D70*%
X145256250Y-164465000D03*
X145256250Y-163065000D03*
%TD*%
%TO.C,D6*%
X145256250Y-78740000D03*
X145256250Y-77340000D03*
%TD*%
%TO.C,D82*%
X373856250Y-164465000D03*
X373856250Y-163065000D03*
%TD*%
%TO.C,D105*%
X126206250Y-202565000D03*
X126206250Y-201165000D03*
%TD*%
%TO.C,D25*%
X316706250Y-97790000D03*
X316706250Y-96390000D03*
%TD*%
%TO.C,D35*%
X164306250Y-126365000D03*
X164306250Y-124965000D03*
%TD*%
%TO.C,D97*%
X316706250Y-183515000D03*
X316706250Y-182115000D03*
%TD*%
%TO.C,D34*%
X145256250Y-126365000D03*
X145256250Y-124965000D03*
%TD*%
%TO.C,D16*%
X145256250Y-97790000D03*
X145256250Y-96390000D03*
%TD*%
%TO.C,D104*%
X107156250Y-202565000D03*
X107156250Y-201165000D03*
%TD*%
%TO.C,D94*%
X259556250Y-183515000D03*
X259556250Y-182115000D03*
%TD*%
%TO.C,D9*%
X202406250Y-78740000D03*
X202406250Y-77340000D03*
%TD*%
%TO.C,D86*%
X107156250Y-183515000D03*
X107156250Y-182115000D03*
%TD*%
D12*
%TO.C,CP1*%
X79502000Y-77493000D03*
X79502000Y-78463000D03*
%TD*%
D21*
%TO.C,D12*%
X59531250Y-97790000D03*
X59531250Y-96390000D03*
%TD*%
%TO.C,D87*%
X126206250Y-183515000D03*
X126206250Y-182115000D03*
%TD*%
%TO.C,D109*%
X221400000Y-202600000D03*
X221400000Y-201200000D03*
%TD*%
%TO.C,D102*%
X59531250Y-202565000D03*
X59531250Y-201165000D03*
%TD*%
%TO.C,D8*%
X183356250Y-78740000D03*
X183356250Y-77340000D03*
%TD*%
%TO.C,DT10*%
X392881100Y-104862100D03*
X392881100Y-106262100D03*
%TD*%
%TO.C,D5*%
X126206250Y-78740000D03*
X126206250Y-77340000D03*
%TD*%
%TO.C,D92*%
X221456250Y-183515000D03*
X221456250Y-182115000D03*
%TD*%
D22*
%TO.C,DT1*%
X338837500Y-73025000D03*
X337437500Y-73025000D03*
%TD*%
D21*
%TO.C,D24*%
X297656250Y-97790000D03*
X297656250Y-96390000D03*
%TD*%
%TO.C,D77*%
X278606250Y-164465000D03*
X278606250Y-163065000D03*
%TD*%
%TO.C,D37*%
X202406250Y-126365000D03*
X202406250Y-124965000D03*
%TD*%
%TO.C,D63*%
X354806250Y-145415000D03*
X354806250Y-144015000D03*
%TD*%
%TO.C,D95*%
X278606250Y-183515000D03*
X278606250Y-182115000D03*
%TD*%
%TO.C,D39*%
X240506250Y-126365000D03*
X240506250Y-124965000D03*
%TD*%
D23*
%TO.C,U2*%
X78039000Y-77972500D03*
X77089000Y-77972500D03*
X76139000Y-77972500D03*
X76139000Y-75697500D03*
X77089000Y-75697500D03*
X78039000Y-75697500D03*
%TD*%
D22*
%TO.C,DT4*%
X338837500Y-77787500D03*
X337437500Y-77787500D03*
%TD*%
D21*
%TO.C,D75*%
X240506250Y-164465000D03*
X240506250Y-163065000D03*
%TD*%
D24*
%TO.C,F1*%
X80962500Y-76555500D03*
X80962500Y-78130500D03*
%TD*%
D21*
%TO.C,DT8*%
X396056100Y-104862100D03*
X396056100Y-106262100D03*
%TD*%
%TO.C,D48*%
X59531250Y-145415000D03*
X59531250Y-144015000D03*
%TD*%
%TO.C,D7*%
X164306250Y-78740000D03*
X164306250Y-77340000D03*
%TD*%
%TO.C,D88*%
X145256250Y-183515000D03*
X145256250Y-182115000D03*
%TD*%
%TO.C,D91*%
X202406250Y-183515000D03*
X202406250Y-182115000D03*
%TD*%
%TO.C,D107*%
X164306250Y-202565000D03*
X164306250Y-201165000D03*
%TD*%
%TO.C,D116*%
X354806250Y-202565000D03*
X354806250Y-201165000D03*
%TD*%
%TO.C,D58*%
X259556250Y-145415000D03*
X259556250Y-144015000D03*
%TD*%
%TO.C,D74*%
X221456250Y-164465000D03*
X221456250Y-163065000D03*
%TD*%
%TO.C,D33*%
X126206250Y-126365000D03*
X126206250Y-124965000D03*
%TD*%
%TO.C,D93*%
X240506250Y-183515000D03*
X240506250Y-182115000D03*
%TD*%
%TO.C,D4*%
X107156250Y-78740000D03*
X107156250Y-77340000D03*
%TD*%
%TO.C,D71*%
X164306250Y-164465000D03*
X164306250Y-163065000D03*
%TD*%
%TO.C,D85*%
X88106250Y-183515000D03*
X88106250Y-182115000D03*
%TD*%
%TO.C,D66*%
X59531250Y-164465000D03*
X59531250Y-163065000D03*
%TD*%
%TO.C,D1*%
X40481250Y-78740000D03*
X40481250Y-77340000D03*
%TD*%
%TO.C,D3*%
X88106250Y-78740000D03*
X88106250Y-77340000D03*
%TD*%
%TO.C,D56*%
X221456250Y-145415000D03*
X221456250Y-144015000D03*
%TD*%
%TO.C,D47*%
X40481250Y-145415000D03*
X40481250Y-144015000D03*
%TD*%
%TO.C,D73*%
X202406250Y-164465000D03*
X202406250Y-163065000D03*
%TD*%
%TO.C,D117*%
X373856250Y-202565000D03*
X373856250Y-201165000D03*
%TD*%
%TO.C,D84*%
X59531250Y-183515000D03*
X59531250Y-182115000D03*
%TD*%
%TO.C,D89*%
X164306250Y-183515000D03*
X164306250Y-182115000D03*
%TD*%
%TO.C,D61*%
X316706250Y-145415000D03*
X316706250Y-144015000D03*
%TD*%
%TO.C,D50*%
X107156250Y-145415000D03*
X107156250Y-144015000D03*
%TD*%
%TO.C,D31*%
X88106250Y-126365000D03*
X88106250Y-124965000D03*
%TD*%
%TO.C,D10*%
X221456250Y-78740000D03*
X221456250Y-77340000D03*
%TD*%
%TO.C,D114*%
X316706250Y-202565000D03*
X316706250Y-201165000D03*
%TD*%
%TO.C,D26*%
X335756250Y-97790000D03*
X335756250Y-96390000D03*
%TD*%
%TO.C,D51*%
X126206250Y-145415000D03*
X126206250Y-144015000D03*
%TD*%
%TO.C,D52*%
X145256250Y-145415000D03*
X145256250Y-144015000D03*
%TD*%
%TO.C,D60*%
X297656250Y-145415000D03*
X297656250Y-144015000D03*
%TD*%
%TO.C,D108*%
X192722200Y-202565000D03*
X192722200Y-201165000D03*
%TD*%
%TO.C,D19*%
X202406250Y-97790000D03*
X202406250Y-96390000D03*
%TD*%
%TO.C,D2*%
X59531250Y-78740000D03*
X59531250Y-77340000D03*
%TD*%
%TO.C,D36*%
X183356250Y-126365000D03*
X183356250Y-124965000D03*
%TD*%
D19*
%TO.C,CP2*%
X78890000Y-83693000D03*
X79860000Y-83693000D03*
%TD*%
D21*
%TO.C,D27*%
X354806250Y-97790000D03*
X354806250Y-96390000D03*
%TD*%
D22*
%TO.C,DT5*%
X338837500Y-79375000D03*
X337437500Y-79375000D03*
%TD*%
D21*
%TO.C,D42*%
X297656250Y-126365000D03*
X297656250Y-124965000D03*
%TD*%
%TO.C,D81*%
X354806250Y-164465000D03*
X354806250Y-163065000D03*
%TD*%
D25*
%TO.C,J1*%
X73743750Y-73101250D03*
X74543750Y-73101250D03*
D26*
X75243750Y-73101250D03*
X76243750Y-73101250D03*
X77743750Y-73101250D03*
X78743750Y-73101250D03*
D25*
X79443750Y-73101250D03*
X80243750Y-73101250D03*
X80243750Y-73101250D03*
X79443750Y-73101250D03*
D26*
X78243750Y-73101250D03*
X77243750Y-73101250D03*
X76743750Y-73101250D03*
X75743750Y-73101250D03*
D25*
X74543750Y-73101250D03*
X73743750Y-73101250D03*
%TD*%
D21*
%TO.C,D79*%
X316706250Y-164465000D03*
X316706250Y-163065000D03*
%TD*%
%TO.C,D65*%
X40481250Y-164465000D03*
X40481250Y-163065000D03*
%TD*%
%TO.C,D64*%
X373856250Y-145415000D03*
X373856250Y-144015000D03*
%TD*%
%TO.C,D100*%
X373856250Y-183515000D03*
X373856250Y-182115000D03*
%TD*%
%TO.C,D46*%
X373856250Y-126365000D03*
X373856250Y-124965000D03*
%TD*%
%TO.C,D111*%
X259556250Y-202565000D03*
X259556250Y-201165000D03*
%TD*%
%TO.C,DT7*%
X397643600Y-104862100D03*
X397643600Y-106262100D03*
%TD*%
%TO.C,D28*%
X373856250Y-97790000D03*
X373856250Y-96390000D03*
%TD*%
%TO.C,D43*%
X316706250Y-126365000D03*
X316706250Y-124965000D03*
%TD*%
%TO.C,D57*%
X240506250Y-145415000D03*
X240506250Y-144015000D03*
%TD*%
%TO.C,D99*%
X354806250Y-183515000D03*
X354806250Y-182115000D03*
%TD*%
%TO.C,D68*%
X107156250Y-164465000D03*
X107156250Y-163065000D03*
%TD*%
%TO.C,D40*%
X259556250Y-126365000D03*
X259556250Y-124965000D03*
%TD*%
%TO.C,D44*%
X335756250Y-126365000D03*
X335756250Y-124965000D03*
%TD*%
%TO.C,D22*%
X259556250Y-97790000D03*
X259556250Y-96390000D03*
%TD*%
D22*
%TO.C,DT3*%
X338837500Y-76200000D03*
X337437500Y-76200000D03*
%TD*%
D21*
%TO.C,DT6*%
X399231100Y-104862100D03*
X399231100Y-106262100D03*
%TD*%
%TO.C,DT9*%
X394468600Y-104862100D03*
X394468600Y-106262100D03*
%TD*%
%TO.C,D54*%
X183356250Y-145415000D03*
X183356250Y-144015000D03*
%TD*%
%TO.C,D115*%
X335756250Y-202565000D03*
X335756250Y-201165000D03*
%TD*%
%TO.C,D55*%
X202406250Y-145415000D03*
X202406250Y-144015000D03*
%TD*%
%TO.C,D11*%
X40481250Y-97790000D03*
X40481250Y-96390000D03*
%TD*%
%TO.C,D14*%
X107156250Y-97790000D03*
X107156250Y-96390000D03*
%TD*%
%TO.C,D49*%
X88106250Y-145415000D03*
X88106250Y-144015000D03*
%TD*%
%TO.C,D96*%
X297656250Y-183515000D03*
X297656250Y-182115000D03*
%TD*%
%TO.C,D59*%
X278606250Y-145415000D03*
X278606250Y-144015000D03*
%TD*%
%TO.C,D98*%
X335756250Y-183515000D03*
X335756250Y-182115000D03*
%TD*%
%TO.C,D112*%
X278606250Y-202565000D03*
X278606250Y-201165000D03*
%TD*%
%TO.C,D67*%
X88106250Y-164465000D03*
X88106250Y-163065000D03*
%TD*%
D27*
%TO.C,U1*%
X81118750Y-81900000D03*
X79218750Y-81900000D03*
X80168750Y-80025000D03*
%TD*%
D21*
%TO.C,D30*%
X59531250Y-126365000D03*
X59531250Y-124965000D03*
%TD*%
%TO.C,D32*%
X107315000Y-126365000D03*
X107315000Y-124965000D03*
%TD*%
%TO.C,D69*%
X126206250Y-164465000D03*
X126206250Y-163065000D03*
%TD*%
%TO.C,D38*%
X221456250Y-126365000D03*
X221456250Y-124965000D03*
%TD*%
%TO.C,D80*%
X335756250Y-164465000D03*
X335756250Y-163065000D03*
%TD*%
%TO.C,D17*%
X164306250Y-97790000D03*
X164306250Y-96390000D03*
%TD*%
%TO.C,D90*%
X183356250Y-183515000D03*
X183356250Y-182115000D03*
%TD*%
%TO.C,D15*%
X126206250Y-97790000D03*
X126206250Y-96390000D03*
%TD*%
%TO.C,D20*%
X221456250Y-97790000D03*
X221456250Y-96390000D03*
%TD*%
%TO.C,D29*%
X40481250Y-126365000D03*
X40481250Y-124965000D03*
%TD*%
M02*
