%TF.GenerationSoftware,KiCad,Pcbnew,(6.0.0)*%
%TF.CreationDate,2022-04-04T18:39:18-04:00*%
%TF.ProjectId,SweetBusinessDaughtercard,53776565-7442-4757-9369-6e6573734461,rev?*%
%TF.SameCoordinates,Original*%
%TF.FileFunction,Copper,L1,Top*%
%TF.FilePolarity,Positive*%
%FSLAX46Y46*%
G04 Gerber Fmt 4.6, Leading zero omitted, Abs format (unit mm)*
G04 Created by KiCad (PCBNEW (6.0.0)) date 2022-04-04 18:39:18*
%MOMM*%
%LPD*%
G01*
G04 APERTURE LIST*
%TA.AperFunction,ComponentPad*%
%ADD10R,4.000000X1.300000*%
%TD*%
%TA.AperFunction,ComponentPad*%
%ADD11R,1.700000X1.700000*%
%TD*%
%TA.AperFunction,ComponentPad*%
%ADD12O,1.700000X1.700000*%
%TD*%
%TA.AperFunction,Conductor*%
%ADD13C,0.250000*%
%TD*%
G04 APERTURE END LIST*
D10*
%TO.P,SW3,1,A*%
%TO.N,unconnected-(SW3-Pad1)*%
X137310100Y-61177100D03*
%TO.P,SW3,2,B*%
%TO.N,GND*%
X137310100Y-65877100D03*
%TO.P,SW3,3,C*%
%TO.N,col14*%
X137310100Y-70577100D03*
%TD*%
%TO.P,SW4,1,A*%
%TO.N,unconnected-(SW4-Pad1)*%
X156358900Y-61177100D03*
%TO.P,SW4,2,B*%
%TO.N,GND*%
X156358900Y-65877100D03*
%TO.P,SW4,3,C*%
%TO.N,col15*%
X156358900Y-70577100D03*
%TD*%
%TO.P,SW1,1,A*%
%TO.N,unconnected-(SW1-Pad1)*%
X99212500Y-61177100D03*
%TO.P,SW1,2,B*%
%TO.N,GND*%
X99212500Y-65877100D03*
%TO.P,SW1,3,C*%
%TO.N,col12*%
X99212500Y-70577100D03*
%TD*%
%TO.P,SW2,1,A*%
%TO.N,unconnected-(SW2-Pad1)*%
X118261300Y-61177100D03*
%TO.P,SW2,2,B*%
%TO.N,GND*%
X118261300Y-65877100D03*
%TO.P,SW2,3,C*%
%TO.N,col13*%
X118261300Y-70577100D03*
%TD*%
D11*
%TO.P,J0,1,Pin_1*%
%TO.N,GND*%
X88900000Y-61118750D03*
D12*
%TO.P,J0,2,Pin_2*%
%TO.N,col15*%
X91440000Y-61118750D03*
%TO.P,J0,3,Pin_3*%
%TO.N,GND*%
X88900000Y-63658750D03*
%TO.P,J0,4,Pin_4*%
%TO.N,col14*%
X91440000Y-63658750D03*
%TO.P,J0,5,Pin_5*%
%TO.N,GND*%
X88900000Y-66198750D03*
%TO.P,J0,6,Pin_6*%
%TO.N,col13*%
X91440000Y-66198750D03*
%TO.P,J0,7,Pin_7*%
%TO.N,GND*%
X88900000Y-68738750D03*
%TO.P,J0,8,Pin_8*%
%TO.N,col12*%
X91440000Y-68738750D03*
%TD*%
D13*
%TO.N,col15*%
X153127100Y-70577100D02*
X156358900Y-70577100D01*
X150707210Y-68157210D02*
X153127100Y-70577100D01*
X96416146Y-68157210D02*
X150707210Y-68157210D01*
X93318270Y-65059334D02*
X96416146Y-68157210D01*
X91440000Y-61118750D02*
X92075000Y-61118750D01*
X92075000Y-61118750D02*
X93318270Y-62362020D01*
X93318270Y-62362020D02*
X93318270Y-65059334D01*
%TO.N,col13*%
X113506250Y-69056250D02*
X96043750Y-69056250D01*
X96043750Y-69056250D02*
X93186250Y-66198750D01*
X115160400Y-70577100D02*
X115093750Y-70643750D01*
X93186250Y-66198750D02*
X91440000Y-66198750D01*
X118261300Y-70577100D02*
X115160400Y-70577100D01*
X115093750Y-70643750D02*
X113506250Y-69056250D01*
%TO.N,col14*%
X92233750Y-63658750D02*
X91440000Y-63658750D01*
X92868750Y-64293750D02*
X92233750Y-63658750D01*
X92868750Y-65245532D02*
X92868750Y-64293750D01*
X96229948Y-68606730D02*
X92868750Y-65245532D01*
X134077100Y-70577100D02*
X132106730Y-68606730D01*
X132106730Y-68606730D02*
X96229948Y-68606730D01*
X137310100Y-70577100D02*
X134077100Y-70577100D01*
%TO.N,col12*%
X96770850Y-70577100D02*
X99212500Y-70577100D01*
X94932500Y-68738750D02*
X96770850Y-70577100D01*
X91440000Y-68738750D02*
X94932500Y-68738750D01*
%TD*%
%TA.AperFunction,Conductor*%
%TO.N,GND*%
G36*
X167440757Y-59243300D02*
G01*
X167455558Y-59245605D01*
X167455561Y-59245605D01*
X167464430Y-59246986D01*
X167477078Y-59245332D01*
X167504397Y-59244748D01*
X167559335Y-59249555D01*
X167647150Y-59257238D01*
X167668779Y-59261051D01*
X167829228Y-59304043D01*
X167849867Y-59311555D01*
X168000410Y-59381754D01*
X168019431Y-59392736D01*
X168155499Y-59488012D01*
X168172323Y-59502130D01*
X168289770Y-59619577D01*
X168303888Y-59636401D01*
X168399164Y-59772469D01*
X168410146Y-59791490D01*
X168480345Y-59942033D01*
X168487856Y-59962669D01*
X168530849Y-60123121D01*
X168534661Y-60144742D01*
X168537304Y-60174942D01*
X168546549Y-60280619D01*
X168545996Y-60297079D01*
X168546405Y-60297084D01*
X168546295Y-60306058D01*
X168544914Y-60314930D01*
X168546078Y-60323832D01*
X168546078Y-60323835D01*
X168549036Y-60346451D01*
X168550100Y-60362789D01*
X168550100Y-71383672D01*
X168548600Y-71403056D01*
X168544914Y-71426730D01*
X168546568Y-71439377D01*
X168547152Y-71466698D01*
X168534662Y-71609450D01*
X168530849Y-71631079D01*
X168487857Y-71791528D01*
X168480345Y-71812167D01*
X168410146Y-71962710D01*
X168399164Y-71981731D01*
X168303888Y-72117799D01*
X168289770Y-72134623D01*
X168172323Y-72252070D01*
X168155499Y-72266188D01*
X168019431Y-72361464D01*
X168000410Y-72372446D01*
X167849867Y-72442645D01*
X167829231Y-72450156D01*
X167668779Y-72493149D01*
X167647158Y-72496961D01*
X167598028Y-72501260D01*
X167511281Y-72508849D01*
X167494821Y-72508296D01*
X167494816Y-72508705D01*
X167485842Y-72508595D01*
X167476970Y-72507214D01*
X167468068Y-72508378D01*
X167468065Y-72508378D01*
X167445449Y-72511336D01*
X167429111Y-72512400D01*
X88150028Y-72512400D01*
X88130643Y-72510900D01*
X88115842Y-72508595D01*
X88115839Y-72508595D01*
X88106970Y-72507214D01*
X88094322Y-72508868D01*
X88067003Y-72509452D01*
X88012065Y-72504645D01*
X87924250Y-72496962D01*
X87902621Y-72493149D01*
X87742172Y-72450157D01*
X87721533Y-72442645D01*
X87570987Y-72372444D01*
X87551967Y-72361462D01*
X87415908Y-72266193D01*
X87399083Y-72252075D01*
X87281627Y-72134619D01*
X87267509Y-72117794D01*
X87172236Y-71981729D01*
X87161254Y-71962709D01*
X87091055Y-71812167D01*
X87083543Y-71791528D01*
X87066004Y-71726071D01*
X87040551Y-71631079D01*
X87036738Y-71609454D01*
X87035539Y-71595742D01*
X87025146Y-71476953D01*
X87025171Y-71454715D01*
X87025563Y-71450339D01*
X87026371Y-71445538D01*
X87026524Y-71432999D01*
X87022573Y-71405411D01*
X87021300Y-71387548D01*
X87021300Y-69006716D01*
X87568257Y-69006716D01*
X87598565Y-69141196D01*
X87601645Y-69151025D01*
X87681770Y-69348353D01*
X87686413Y-69357544D01*
X87797694Y-69539138D01*
X87803777Y-69547449D01*
X87943213Y-69708417D01*
X87950580Y-69715633D01*
X88114434Y-69851666D01*
X88122881Y-69857581D01*
X88306756Y-69965029D01*
X88316042Y-69969479D01*
X88515001Y-70045453D01*
X88524899Y-70048329D01*
X88628250Y-70069356D01*
X88642299Y-70068160D01*
X88646000Y-70057815D01*
X88646000Y-70057267D01*
X89154000Y-70057267D01*
X89158064Y-70071109D01*
X89171478Y-70073143D01*
X89178184Y-70072284D01*
X89188262Y-70070142D01*
X89392255Y-70008941D01*
X89401842Y-70005183D01*
X89593095Y-69911489D01*
X89601945Y-69906214D01*
X89775328Y-69782542D01*
X89783200Y-69775889D01*
X89934052Y-69625562D01*
X89940730Y-69617715D01*
X90068022Y-69440569D01*
X90069279Y-69441472D01*
X90116373Y-69398112D01*
X90186311Y-69385895D01*
X90251751Y-69413428D01*
X90279579Y-69445261D01*
X90339987Y-69543838D01*
X90486250Y-69712688D01*
X90658126Y-69855382D01*
X90851000Y-69968088D01*
X91059692Y-70047780D01*
X91064760Y-70048811D01*
X91064763Y-70048812D01*
X91159862Y-70068160D01*
X91278597Y-70092317D01*
X91283772Y-70092507D01*
X91283774Y-70092507D01*
X91496673Y-70100314D01*
X91496677Y-70100314D01*
X91501837Y-70100503D01*
X91506957Y-70099847D01*
X91506959Y-70099847D01*
X91718288Y-70072775D01*
X91718289Y-70072775D01*
X91723416Y-70072118D01*
X91728366Y-70070633D01*
X91932429Y-70009411D01*
X91932434Y-70009409D01*
X91937384Y-70007924D01*
X92137994Y-69909646D01*
X92319860Y-69779923D01*
X92373315Y-69726655D01*
X92419736Y-69680395D01*
X92478096Y-69622239D01*
X92520061Y-69563839D01*
X92605435Y-69445027D01*
X92608453Y-69440827D01*
X92610746Y-69436187D01*
X92612446Y-69433358D01*
X92664674Y-69385268D01*
X92720451Y-69372250D01*
X94617906Y-69372250D01*
X94686027Y-69392252D01*
X94707001Y-69409155D01*
X96267193Y-70969347D01*
X96274737Y-70977637D01*
X96278850Y-70984118D01*
X96284627Y-70989543D01*
X96328517Y-71030758D01*
X96331344Y-71033498D01*
X96351081Y-71053235D01*
X96354202Y-71055656D01*
X96354209Y-71055662D01*
X96354274Y-71055712D01*
X96363295Y-71063417D01*
X96395529Y-71093686D01*
X96402477Y-71097505D01*
X96402479Y-71097507D01*
X96413282Y-71103446D01*
X96429809Y-71114302D01*
X96439548Y-71121857D01*
X96439550Y-71121858D01*
X96445810Y-71126714D01*
X96486390Y-71144274D01*
X96497036Y-71149490D01*
X96535790Y-71170795D01*
X96543466Y-71172766D01*
X96543469Y-71172767D01*
X96555412Y-71175833D01*
X96574116Y-71182237D01*
X96574119Y-71182238D01*
X96592705Y-71190281D01*
X96600530Y-71191521D01*
X96600539Y-71191523D01*
X96601411Y-71191661D01*
X96602039Y-71191959D01*
X96608149Y-71193734D01*
X96607863Y-71194719D01*
X96665564Y-71222073D01*
X96703090Y-71282342D01*
X96706962Y-71302501D01*
X96710755Y-71337416D01*
X96761885Y-71473805D01*
X96849239Y-71590361D01*
X96965795Y-71677715D01*
X97102184Y-71728845D01*
X97164366Y-71735600D01*
X101260634Y-71735600D01*
X101322816Y-71728845D01*
X101459205Y-71677715D01*
X101575761Y-71590361D01*
X101663115Y-71473805D01*
X101714245Y-71337416D01*
X101721000Y-71275234D01*
X101721000Y-69878966D01*
X101715611Y-69829358D01*
X101728139Y-69759475D01*
X101776460Y-69707459D01*
X101840874Y-69689750D01*
X113191656Y-69689750D01*
X113259777Y-69709752D01*
X113280751Y-69726655D01*
X114595030Y-71040935D01*
X114610145Y-71059203D01*
X114614778Y-71066021D01*
X114620726Y-71071265D01*
X114620727Y-71071266D01*
X114656905Y-71103161D01*
X114662675Y-71108580D01*
X114673980Y-71119885D01*
X114677113Y-71122315D01*
X114686624Y-71129693D01*
X114692722Y-71134738D01*
X114706211Y-71146630D01*
X114734840Y-71171870D01*
X114741904Y-71175469D01*
X114741905Y-71175470D01*
X114742179Y-71175610D01*
X114762200Y-71188316D01*
X114762440Y-71188502D01*
X114762444Y-71188504D01*
X114768709Y-71193364D01*
X114808539Y-71210600D01*
X114820257Y-71215671D01*
X114827392Y-71219028D01*
X114877454Y-71244535D01*
X114885499Y-71246333D01*
X114908044Y-71253659D01*
X114915605Y-71256931D01*
X114961644Y-71264223D01*
X114971076Y-71265717D01*
X114978851Y-71267201D01*
X115000885Y-71272126D01*
X115033659Y-71279452D01*
X115041582Y-71279203D01*
X115041583Y-71279203D01*
X115041644Y-71279201D01*
X115041894Y-71279193D01*
X115065565Y-71280683D01*
X115065861Y-71280730D01*
X115065864Y-71280730D01*
X115073693Y-71281970D01*
X115081585Y-71281224D01*
X115081586Y-71281224D01*
X115129608Y-71276685D01*
X115137505Y-71276188D01*
X115170722Y-71275143D01*
X115193639Y-71274423D01*
X115201548Y-71272125D01*
X115224844Y-71267682D01*
X115225154Y-71267653D01*
X115225157Y-71267652D01*
X115233042Y-71266907D01*
X115285894Y-71247879D01*
X115293423Y-71245433D01*
X115339731Y-71231980D01*
X115339735Y-71231978D01*
X115347343Y-71229768D01*
X115354162Y-71225735D01*
X115361446Y-71222583D01*
X115362396Y-71224778D01*
X115414225Y-71210600D01*
X115632725Y-71210600D01*
X115700846Y-71230602D01*
X115747339Y-71284258D01*
X115757988Y-71322992D01*
X115759555Y-71337416D01*
X115810685Y-71473805D01*
X115898039Y-71590361D01*
X116014595Y-71677715D01*
X116150984Y-71728845D01*
X116213166Y-71735600D01*
X120309434Y-71735600D01*
X120371616Y-71728845D01*
X120508005Y-71677715D01*
X120624561Y-71590361D01*
X120711915Y-71473805D01*
X120763045Y-71337416D01*
X120769800Y-71275234D01*
X120769800Y-69878966D01*
X120763045Y-69816784D01*
X120711915Y-69680395D01*
X120624561Y-69563839D01*
X120508005Y-69476485D01*
X120504122Y-69475029D01*
X120455693Y-69426491D01*
X120440679Y-69357100D01*
X120465565Y-69290608D01*
X120522448Y-69248125D01*
X120566348Y-69240230D01*
X131792136Y-69240230D01*
X131860257Y-69260232D01*
X131881231Y-69277135D01*
X133573448Y-70969353D01*
X133580988Y-70977639D01*
X133585100Y-70984118D01*
X133590877Y-70989543D01*
X133634751Y-71030743D01*
X133637593Y-71033498D01*
X133657330Y-71053235D01*
X133660527Y-71055715D01*
X133669547Y-71063418D01*
X133701779Y-71093686D01*
X133708725Y-71097505D01*
X133708728Y-71097507D01*
X133719534Y-71103448D01*
X133736053Y-71114299D01*
X133752059Y-71126714D01*
X133759328Y-71129859D01*
X133759332Y-71129862D01*
X133792637Y-71144274D01*
X133803286Y-71149490D01*
X133842040Y-71170795D01*
X133849715Y-71172766D01*
X133849716Y-71172766D01*
X133861662Y-71175833D01*
X133880366Y-71182237D01*
X133880369Y-71182238D01*
X133898955Y-71190281D01*
X133906778Y-71191520D01*
X133906788Y-71191523D01*
X133942624Y-71197199D01*
X133954244Y-71199605D01*
X133989389Y-71208628D01*
X133997070Y-71210600D01*
X134017324Y-71210600D01*
X134037034Y-71212151D01*
X134057043Y-71215320D01*
X134064935Y-71214574D01*
X134101061Y-71211159D01*
X134112919Y-71210600D01*
X134681525Y-71210600D01*
X134749646Y-71230602D01*
X134796139Y-71284258D01*
X134806788Y-71322992D01*
X134808355Y-71337416D01*
X134859485Y-71473805D01*
X134946839Y-71590361D01*
X135063395Y-71677715D01*
X135199784Y-71728845D01*
X135261966Y-71735600D01*
X139358234Y-71735600D01*
X139420416Y-71728845D01*
X139556805Y-71677715D01*
X139673361Y-71590361D01*
X139760715Y-71473805D01*
X139811845Y-71337416D01*
X139818600Y-71275234D01*
X139818600Y-69878966D01*
X139811845Y-69816784D01*
X139760715Y-69680395D01*
X139673361Y-69563839D01*
X139556805Y-69476485D01*
X139420416Y-69425355D01*
X139358234Y-69418600D01*
X135261966Y-69418600D01*
X135199784Y-69425355D01*
X135063395Y-69476485D01*
X134946839Y-69563839D01*
X134859485Y-69680395D01*
X134808355Y-69816784D01*
X134807502Y-69824640D01*
X134806788Y-69831208D01*
X134779546Y-69896770D01*
X134721183Y-69937196D01*
X134681525Y-69943600D01*
X134391694Y-69943600D01*
X134323573Y-69923598D01*
X134302603Y-69906699D01*
X133401708Y-69005803D01*
X133367684Y-68943493D01*
X133372749Y-68872677D01*
X133415296Y-68815842D01*
X133481816Y-68791031D01*
X133490805Y-68790710D01*
X150392616Y-68790710D01*
X150460737Y-68810712D01*
X150481711Y-68827615D01*
X152623443Y-70969347D01*
X152630987Y-70977637D01*
X152635100Y-70984118D01*
X152640877Y-70989543D01*
X152684767Y-71030758D01*
X152687594Y-71033498D01*
X152707330Y-71053234D01*
X152710520Y-71055708D01*
X152719546Y-71063417D01*
X152751779Y-71093686D01*
X152762958Y-71099832D01*
X152769532Y-71103446D01*
X152786056Y-71114299D01*
X152802059Y-71126713D01*
X152842639Y-71144274D01*
X152853273Y-71149483D01*
X152892040Y-71170795D01*
X152899717Y-71172766D01*
X152899722Y-71172768D01*
X152911658Y-71175832D01*
X152930366Y-71182237D01*
X152948955Y-71190281D01*
X152956783Y-71191521D01*
X152956790Y-71191523D01*
X152992624Y-71197199D01*
X153004244Y-71199605D01*
X153039389Y-71208628D01*
X153047070Y-71210600D01*
X153067324Y-71210600D01*
X153087034Y-71212151D01*
X153107043Y-71215320D01*
X153114935Y-71214574D01*
X153151061Y-71211159D01*
X153162919Y-71210600D01*
X153730325Y-71210600D01*
X153798446Y-71230602D01*
X153844939Y-71284258D01*
X153855588Y-71322992D01*
X153857155Y-71337416D01*
X153908285Y-71473805D01*
X153995639Y-71590361D01*
X154112195Y-71677715D01*
X154248584Y-71728845D01*
X154310766Y-71735600D01*
X158407034Y-71735600D01*
X158469216Y-71728845D01*
X158605605Y-71677715D01*
X158722161Y-71590361D01*
X158809515Y-71473805D01*
X158860645Y-71337416D01*
X158867400Y-71275234D01*
X158867400Y-69878966D01*
X158860645Y-69816784D01*
X158809515Y-69680395D01*
X158722161Y-69563839D01*
X158605605Y-69476485D01*
X158469216Y-69425355D01*
X158407034Y-69418600D01*
X154310766Y-69418600D01*
X154248584Y-69425355D01*
X154112195Y-69476485D01*
X153995639Y-69563839D01*
X153908285Y-69680395D01*
X153857155Y-69816784D01*
X153856302Y-69824640D01*
X153855588Y-69831208D01*
X153828346Y-69896770D01*
X153769983Y-69937196D01*
X153730325Y-69943600D01*
X153441695Y-69943600D01*
X153373574Y-69923598D01*
X153352600Y-69906695D01*
X151210862Y-67764957D01*
X151203322Y-67756671D01*
X151199210Y-67750192D01*
X151149558Y-67703566D01*
X151146717Y-67700812D01*
X151126980Y-67681075D01*
X151123783Y-67678595D01*
X151114761Y-67670890D01*
X151088310Y-67646051D01*
X151082531Y-67640624D01*
X151075585Y-67636805D01*
X151075582Y-67636803D01*
X151064776Y-67630862D01*
X151048257Y-67620011D01*
X151047793Y-67619651D01*
X151032251Y-67607596D01*
X151024982Y-67604451D01*
X151024978Y-67604448D01*
X150991673Y-67590036D01*
X150981023Y-67584819D01*
X150942270Y-67563515D01*
X150922647Y-67558477D01*
X150903944Y-67552073D01*
X150892630Y-67547177D01*
X150892629Y-67547177D01*
X150885355Y-67544029D01*
X150877532Y-67542790D01*
X150877522Y-67542787D01*
X150841686Y-67537111D01*
X150830066Y-67534705D01*
X150794921Y-67525682D01*
X150794920Y-67525682D01*
X150787240Y-67523710D01*
X150766986Y-67523710D01*
X150747275Y-67522159D01*
X150735096Y-67520230D01*
X150727267Y-67518990D01*
X150719375Y-67519736D01*
X150683249Y-67523151D01*
X150671391Y-67523710D01*
X96730741Y-67523710D01*
X96662620Y-67503708D01*
X96641646Y-67486805D01*
X95726610Y-66571769D01*
X96704501Y-66571769D01*
X96704871Y-66578590D01*
X96710395Y-66629452D01*
X96714021Y-66644704D01*
X96759176Y-66765154D01*
X96767714Y-66780749D01*
X96844215Y-66882824D01*
X96856776Y-66895385D01*
X96958851Y-66971886D01*
X96974446Y-66980424D01*
X97094894Y-67025578D01*
X97110149Y-67029205D01*
X97161014Y-67034731D01*
X97167828Y-67035100D01*
X98940385Y-67035100D01*
X98955624Y-67030625D01*
X98956829Y-67029235D01*
X98958500Y-67021552D01*
X98958500Y-67016984D01*
X99466500Y-67016984D01*
X99470975Y-67032223D01*
X99472365Y-67033428D01*
X99480048Y-67035099D01*
X101257169Y-67035099D01*
X101263990Y-67034729D01*
X101314852Y-67029205D01*
X101330104Y-67025579D01*
X101450554Y-66980424D01*
X101466149Y-66971886D01*
X101568224Y-66895385D01*
X101580785Y-66882824D01*
X101657286Y-66780749D01*
X101665824Y-66765154D01*
X101710978Y-66644706D01*
X101714605Y-66629451D01*
X101720131Y-66578586D01*
X101720500Y-66571772D01*
X101720500Y-66571769D01*
X115753301Y-66571769D01*
X115753671Y-66578590D01*
X115759195Y-66629452D01*
X115762821Y-66644704D01*
X115807976Y-66765154D01*
X115816514Y-66780749D01*
X115893015Y-66882824D01*
X115905576Y-66895385D01*
X116007651Y-66971886D01*
X116023246Y-66980424D01*
X116143694Y-67025578D01*
X116158949Y-67029205D01*
X116209814Y-67034731D01*
X116216628Y-67035100D01*
X117989185Y-67035100D01*
X118004424Y-67030625D01*
X118005629Y-67029235D01*
X118007300Y-67021552D01*
X118007300Y-67016984D01*
X118515300Y-67016984D01*
X118519775Y-67032223D01*
X118521165Y-67033428D01*
X118528848Y-67035099D01*
X120305969Y-67035099D01*
X120312790Y-67034729D01*
X120363652Y-67029205D01*
X120378904Y-67025579D01*
X120499354Y-66980424D01*
X120514949Y-66971886D01*
X120617024Y-66895385D01*
X120629585Y-66882824D01*
X120706086Y-66780749D01*
X120714624Y-66765154D01*
X120759778Y-66644706D01*
X120763405Y-66629451D01*
X120768931Y-66578586D01*
X120769300Y-66571772D01*
X120769300Y-66571769D01*
X134802101Y-66571769D01*
X134802471Y-66578590D01*
X134807995Y-66629452D01*
X134811621Y-66644704D01*
X134856776Y-66765154D01*
X134865314Y-66780749D01*
X134941815Y-66882824D01*
X134954376Y-66895385D01*
X135056451Y-66971886D01*
X135072046Y-66980424D01*
X135192494Y-67025578D01*
X135207749Y-67029205D01*
X135258614Y-67034731D01*
X135265428Y-67035100D01*
X137037985Y-67035100D01*
X137053224Y-67030625D01*
X137054429Y-67029235D01*
X137056100Y-67021552D01*
X137056100Y-67016984D01*
X137564100Y-67016984D01*
X137568575Y-67032223D01*
X137569965Y-67033428D01*
X137577648Y-67035099D01*
X139354769Y-67035099D01*
X139361590Y-67034729D01*
X139412452Y-67029205D01*
X139427704Y-67025579D01*
X139548154Y-66980424D01*
X139563749Y-66971886D01*
X139665824Y-66895385D01*
X139678385Y-66882824D01*
X139754886Y-66780749D01*
X139763424Y-66765154D01*
X139808578Y-66644706D01*
X139812205Y-66629451D01*
X139817731Y-66578586D01*
X139818100Y-66571772D01*
X139818100Y-66571769D01*
X153850901Y-66571769D01*
X153851271Y-66578590D01*
X153856795Y-66629452D01*
X153860421Y-66644704D01*
X153905576Y-66765154D01*
X153914114Y-66780749D01*
X153990615Y-66882824D01*
X154003176Y-66895385D01*
X154105251Y-66971886D01*
X154120846Y-66980424D01*
X154241294Y-67025578D01*
X154256549Y-67029205D01*
X154307414Y-67034731D01*
X154314228Y-67035100D01*
X156086785Y-67035100D01*
X156102024Y-67030625D01*
X156103229Y-67029235D01*
X156104900Y-67021552D01*
X156104900Y-67016984D01*
X156612900Y-67016984D01*
X156617375Y-67032223D01*
X156618765Y-67033428D01*
X156626448Y-67035099D01*
X158403569Y-67035099D01*
X158410390Y-67034729D01*
X158461252Y-67029205D01*
X158476504Y-67025579D01*
X158596954Y-66980424D01*
X158612549Y-66971886D01*
X158714624Y-66895385D01*
X158727185Y-66882824D01*
X158803686Y-66780749D01*
X158812224Y-66765154D01*
X158857378Y-66644706D01*
X158861005Y-66629451D01*
X158866531Y-66578586D01*
X158866900Y-66571772D01*
X158866900Y-66149215D01*
X158862425Y-66133976D01*
X158861035Y-66132771D01*
X158853352Y-66131100D01*
X156631015Y-66131100D01*
X156615776Y-66135575D01*
X156614571Y-66136965D01*
X156612900Y-66144648D01*
X156612900Y-67016984D01*
X156104900Y-67016984D01*
X156104900Y-66149215D01*
X156100425Y-66133976D01*
X156099035Y-66132771D01*
X156091352Y-66131100D01*
X153869016Y-66131100D01*
X153853777Y-66135575D01*
X153852572Y-66136965D01*
X153850901Y-66144648D01*
X153850901Y-66571769D01*
X139818100Y-66571769D01*
X139818100Y-66149215D01*
X139813625Y-66133976D01*
X139812235Y-66132771D01*
X139804552Y-66131100D01*
X137582215Y-66131100D01*
X137566976Y-66135575D01*
X137565771Y-66136965D01*
X137564100Y-66144648D01*
X137564100Y-67016984D01*
X137056100Y-67016984D01*
X137056100Y-66149215D01*
X137051625Y-66133976D01*
X137050235Y-66132771D01*
X137042552Y-66131100D01*
X134820216Y-66131100D01*
X134804977Y-66135575D01*
X134803772Y-66136965D01*
X134802101Y-66144648D01*
X134802101Y-66571769D01*
X120769300Y-66571769D01*
X120769300Y-66149215D01*
X120764825Y-66133976D01*
X120763435Y-66132771D01*
X120755752Y-66131100D01*
X118533415Y-66131100D01*
X118518176Y-66135575D01*
X118516971Y-66136965D01*
X118515300Y-66144648D01*
X118515300Y-67016984D01*
X118007300Y-67016984D01*
X118007300Y-66149215D01*
X118002825Y-66133976D01*
X118001435Y-66132771D01*
X117993752Y-66131100D01*
X115771416Y-66131100D01*
X115756177Y-66135575D01*
X115754972Y-66136965D01*
X115753301Y-66144648D01*
X115753301Y-66571769D01*
X101720500Y-66571769D01*
X101720500Y-66149215D01*
X101716025Y-66133976D01*
X101714635Y-66132771D01*
X101706952Y-66131100D01*
X99484615Y-66131100D01*
X99469376Y-66135575D01*
X99468171Y-66136965D01*
X99466500Y-66144648D01*
X99466500Y-67016984D01*
X98958500Y-67016984D01*
X98958500Y-66149215D01*
X98954025Y-66133976D01*
X98952635Y-66132771D01*
X98944952Y-66131100D01*
X96722616Y-66131100D01*
X96707377Y-66135575D01*
X96706172Y-66136965D01*
X96704501Y-66144648D01*
X96704501Y-66571769D01*
X95726610Y-66571769D01*
X94759826Y-65604985D01*
X96704500Y-65604985D01*
X96708975Y-65620224D01*
X96710365Y-65621429D01*
X96718048Y-65623100D01*
X98940385Y-65623100D01*
X98955624Y-65618625D01*
X98956829Y-65617235D01*
X98958500Y-65609552D01*
X98958500Y-65604985D01*
X99466500Y-65604985D01*
X99470975Y-65620224D01*
X99472365Y-65621429D01*
X99480048Y-65623100D01*
X101702384Y-65623100D01*
X101717623Y-65618625D01*
X101718828Y-65617235D01*
X101720499Y-65609552D01*
X101720499Y-65604985D01*
X115753300Y-65604985D01*
X115757775Y-65620224D01*
X115759165Y-65621429D01*
X115766848Y-65623100D01*
X117989185Y-65623100D01*
X118004424Y-65618625D01*
X118005629Y-65617235D01*
X118007300Y-65609552D01*
X118007300Y-65604985D01*
X118515300Y-65604985D01*
X118519775Y-65620224D01*
X118521165Y-65621429D01*
X118528848Y-65623100D01*
X120751184Y-65623100D01*
X120766423Y-65618625D01*
X120767628Y-65617235D01*
X120769299Y-65609552D01*
X120769299Y-65604985D01*
X134802100Y-65604985D01*
X134806575Y-65620224D01*
X134807965Y-65621429D01*
X134815648Y-65623100D01*
X137037985Y-65623100D01*
X137053224Y-65618625D01*
X137054429Y-65617235D01*
X137056100Y-65609552D01*
X137056100Y-65604985D01*
X137564100Y-65604985D01*
X137568575Y-65620224D01*
X137569965Y-65621429D01*
X137577648Y-65623100D01*
X139799984Y-65623100D01*
X139815223Y-65618625D01*
X139816428Y-65617235D01*
X139818099Y-65609552D01*
X139818099Y-65604985D01*
X153850900Y-65604985D01*
X153855375Y-65620224D01*
X153856765Y-65621429D01*
X153864448Y-65623100D01*
X156086785Y-65623100D01*
X156102024Y-65618625D01*
X156103229Y-65617235D01*
X156104900Y-65609552D01*
X156104900Y-65604985D01*
X156612900Y-65604985D01*
X156617375Y-65620224D01*
X156618765Y-65621429D01*
X156626448Y-65623100D01*
X158848784Y-65623100D01*
X158864023Y-65618625D01*
X158865228Y-65617235D01*
X158866899Y-65609552D01*
X158866899Y-65182431D01*
X158866529Y-65175610D01*
X158861005Y-65124748D01*
X158857379Y-65109496D01*
X158812224Y-64989046D01*
X158803686Y-64973451D01*
X158727185Y-64871376D01*
X158714624Y-64858815D01*
X158612549Y-64782314D01*
X158596954Y-64773776D01*
X158476506Y-64728622D01*
X158461251Y-64724995D01*
X158410386Y-64719469D01*
X158403572Y-64719100D01*
X156631015Y-64719100D01*
X156615776Y-64723575D01*
X156614571Y-64724965D01*
X156612900Y-64732648D01*
X156612900Y-65604985D01*
X156104900Y-65604985D01*
X156104900Y-64737216D01*
X156100425Y-64721977D01*
X156099035Y-64720772D01*
X156091352Y-64719101D01*
X154314231Y-64719101D01*
X154307410Y-64719471D01*
X154256548Y-64724995D01*
X154241296Y-64728621D01*
X154120846Y-64773776D01*
X154105251Y-64782314D01*
X154003176Y-64858815D01*
X153990615Y-64871376D01*
X153914114Y-64973451D01*
X153905576Y-64989046D01*
X153860422Y-65109494D01*
X153856795Y-65124749D01*
X153851269Y-65175614D01*
X153850900Y-65182428D01*
X153850900Y-65604985D01*
X139818099Y-65604985D01*
X139818099Y-65182431D01*
X139817729Y-65175610D01*
X139812205Y-65124748D01*
X139808579Y-65109496D01*
X139763424Y-64989046D01*
X139754886Y-64973451D01*
X139678385Y-64871376D01*
X139665824Y-64858815D01*
X139563749Y-64782314D01*
X139548154Y-64773776D01*
X139427706Y-64728622D01*
X139412451Y-64724995D01*
X139361586Y-64719469D01*
X139354772Y-64719100D01*
X137582215Y-64719100D01*
X137566976Y-64723575D01*
X137565771Y-64724965D01*
X137564100Y-64732648D01*
X137564100Y-65604985D01*
X137056100Y-65604985D01*
X137056100Y-64737216D01*
X137051625Y-64721977D01*
X137050235Y-64720772D01*
X137042552Y-64719101D01*
X135265431Y-64719101D01*
X135258610Y-64719471D01*
X135207748Y-64724995D01*
X135192496Y-64728621D01*
X135072046Y-64773776D01*
X135056451Y-64782314D01*
X134954376Y-64858815D01*
X134941815Y-64871376D01*
X134865314Y-64973451D01*
X134856776Y-64989046D01*
X134811622Y-65109494D01*
X134807995Y-65124749D01*
X134802469Y-65175614D01*
X134802100Y-65182428D01*
X134802100Y-65604985D01*
X120769299Y-65604985D01*
X120769299Y-65182431D01*
X120768929Y-65175610D01*
X120763405Y-65124748D01*
X120759779Y-65109496D01*
X120714624Y-64989046D01*
X120706086Y-64973451D01*
X120629585Y-64871376D01*
X120617024Y-64858815D01*
X120514949Y-64782314D01*
X120499354Y-64773776D01*
X120378906Y-64728622D01*
X120363651Y-64724995D01*
X120312786Y-64719469D01*
X120305972Y-64719100D01*
X118533415Y-64719100D01*
X118518176Y-64723575D01*
X118516971Y-64724965D01*
X118515300Y-64732648D01*
X118515300Y-65604985D01*
X118007300Y-65604985D01*
X118007300Y-64737216D01*
X118002825Y-64721977D01*
X118001435Y-64720772D01*
X117993752Y-64719101D01*
X116216631Y-64719101D01*
X116209810Y-64719471D01*
X116158948Y-64724995D01*
X116143696Y-64728621D01*
X116023246Y-64773776D01*
X116007651Y-64782314D01*
X115905576Y-64858815D01*
X115893015Y-64871376D01*
X115816514Y-64973451D01*
X115807976Y-64989046D01*
X115762822Y-65109494D01*
X115759195Y-65124749D01*
X115753669Y-65175614D01*
X115753300Y-65182428D01*
X115753300Y-65604985D01*
X101720499Y-65604985D01*
X101720499Y-65182431D01*
X101720129Y-65175610D01*
X101714605Y-65124748D01*
X101710979Y-65109496D01*
X101665824Y-64989046D01*
X101657286Y-64973451D01*
X101580785Y-64871376D01*
X101568224Y-64858815D01*
X101466149Y-64782314D01*
X101450554Y-64773776D01*
X101330106Y-64728622D01*
X101314851Y-64724995D01*
X101263986Y-64719469D01*
X101257172Y-64719100D01*
X99484615Y-64719100D01*
X99469376Y-64723575D01*
X99468171Y-64724965D01*
X99466500Y-64732648D01*
X99466500Y-65604985D01*
X98958500Y-65604985D01*
X98958500Y-64737216D01*
X98954025Y-64721977D01*
X98952635Y-64720772D01*
X98944952Y-64719101D01*
X97167831Y-64719101D01*
X97161010Y-64719471D01*
X97110148Y-64724995D01*
X97094896Y-64728621D01*
X96974446Y-64773776D01*
X96958851Y-64782314D01*
X96856776Y-64858815D01*
X96844215Y-64871376D01*
X96767714Y-64973451D01*
X96759176Y-64989046D01*
X96714022Y-65109494D01*
X96710395Y-65124749D01*
X96704869Y-65175614D01*
X96704500Y-65182428D01*
X96704500Y-65604985D01*
X94759826Y-65604985D01*
X93988675Y-64833834D01*
X93954649Y-64771522D01*
X93951770Y-64744739D01*
X93951770Y-62440787D01*
X93952297Y-62429604D01*
X93953972Y-62422111D01*
X93953703Y-62413536D01*
X93951832Y-62354034D01*
X93951770Y-62350075D01*
X93951770Y-62322164D01*
X93951265Y-62318164D01*
X93950332Y-62306321D01*
X93949746Y-62287660D01*
X93948943Y-62262130D01*
X93943292Y-62242678D01*
X93939284Y-62223326D01*
X93937737Y-62211083D01*
X93936744Y-62203223D01*
X93928809Y-62183181D01*
X93920470Y-62162117D01*
X93916625Y-62150890D01*
X93915991Y-62148707D01*
X93904288Y-62108427D01*
X93900254Y-62101605D01*
X93900251Y-62101599D01*
X93893976Y-62090988D01*
X93885280Y-62073238D01*
X93880742Y-62061776D01*
X93880739Y-62061771D01*
X93877822Y-62054403D01*
X93861143Y-62031446D01*
X93851843Y-62018645D01*
X93845327Y-62008727D01*
X93826845Y-61977477D01*
X93822812Y-61970657D01*
X93808488Y-61956333D01*
X93795646Y-61941298D01*
X93783742Y-61924913D01*
X93749676Y-61896731D01*
X93740897Y-61888742D01*
X93727389Y-61875234D01*
X96704000Y-61875234D01*
X96710755Y-61937416D01*
X96761885Y-62073805D01*
X96849239Y-62190361D01*
X96965795Y-62277715D01*
X97102184Y-62328845D01*
X97164366Y-62335600D01*
X101260634Y-62335600D01*
X101322816Y-62328845D01*
X101459205Y-62277715D01*
X101575761Y-62190361D01*
X101663115Y-62073805D01*
X101714245Y-61937416D01*
X101721000Y-61875234D01*
X115752800Y-61875234D01*
X115759555Y-61937416D01*
X115810685Y-62073805D01*
X115898039Y-62190361D01*
X116014595Y-62277715D01*
X116150984Y-62328845D01*
X116213166Y-62335600D01*
X120309434Y-62335600D01*
X120371616Y-62328845D01*
X120508005Y-62277715D01*
X120624561Y-62190361D01*
X120711915Y-62073805D01*
X120763045Y-61937416D01*
X120769800Y-61875234D01*
X134801600Y-61875234D01*
X134808355Y-61937416D01*
X134859485Y-62073805D01*
X134946839Y-62190361D01*
X135063395Y-62277715D01*
X135199784Y-62328845D01*
X135261966Y-62335600D01*
X139358234Y-62335600D01*
X139420416Y-62328845D01*
X139556805Y-62277715D01*
X139673361Y-62190361D01*
X139760715Y-62073805D01*
X139811845Y-61937416D01*
X139818600Y-61875234D01*
X153850400Y-61875234D01*
X153857155Y-61937416D01*
X153908285Y-62073805D01*
X153995639Y-62190361D01*
X154112195Y-62277715D01*
X154248584Y-62328845D01*
X154310766Y-62335600D01*
X158407034Y-62335600D01*
X158469216Y-62328845D01*
X158605605Y-62277715D01*
X158722161Y-62190361D01*
X158809515Y-62073805D01*
X158860645Y-61937416D01*
X158867400Y-61875234D01*
X158867400Y-60478966D01*
X158860645Y-60416784D01*
X158809515Y-60280395D01*
X158722161Y-60163839D01*
X158605605Y-60076485D01*
X158469216Y-60025355D01*
X158407034Y-60018600D01*
X154310766Y-60018600D01*
X154248584Y-60025355D01*
X154112195Y-60076485D01*
X153995639Y-60163839D01*
X153908285Y-60280395D01*
X153857155Y-60416784D01*
X153850400Y-60478966D01*
X153850400Y-61875234D01*
X139818600Y-61875234D01*
X139818600Y-60478966D01*
X139811845Y-60416784D01*
X139760715Y-60280395D01*
X139673361Y-60163839D01*
X139556805Y-60076485D01*
X139420416Y-60025355D01*
X139358234Y-60018600D01*
X135261966Y-60018600D01*
X135199784Y-60025355D01*
X135063395Y-60076485D01*
X134946839Y-60163839D01*
X134859485Y-60280395D01*
X134808355Y-60416784D01*
X134801600Y-60478966D01*
X134801600Y-61875234D01*
X120769800Y-61875234D01*
X120769800Y-60478966D01*
X120763045Y-60416784D01*
X120711915Y-60280395D01*
X120624561Y-60163839D01*
X120508005Y-60076485D01*
X120371616Y-60025355D01*
X120309434Y-60018600D01*
X116213166Y-60018600D01*
X116150984Y-60025355D01*
X116014595Y-60076485D01*
X115898039Y-60163839D01*
X115810685Y-60280395D01*
X115759555Y-60416784D01*
X115752800Y-60478966D01*
X115752800Y-61875234D01*
X101721000Y-61875234D01*
X101721000Y-60478966D01*
X101714245Y-60416784D01*
X101663115Y-60280395D01*
X101575761Y-60163839D01*
X101459205Y-60076485D01*
X101322816Y-60025355D01*
X101260634Y-60018600D01*
X97164366Y-60018600D01*
X97102184Y-60025355D01*
X96965795Y-60076485D01*
X96849239Y-60163839D01*
X96761885Y-60280395D01*
X96710755Y-60416784D01*
X96704000Y-60478966D01*
X96704000Y-61875234D01*
X93727389Y-61875234D01*
X92820201Y-60968046D01*
X92785160Y-60899859D01*
X92784852Y-60896111D01*
X92730431Y-60679452D01*
X92641354Y-60474590D01*
X92558457Y-60346451D01*
X92522822Y-60291367D01*
X92522820Y-60291364D01*
X92520014Y-60287027D01*
X92369670Y-60121801D01*
X92365619Y-60118602D01*
X92365615Y-60118598D01*
X92198414Y-59986550D01*
X92198410Y-59986548D01*
X92194359Y-59983348D01*
X91998789Y-59875388D01*
X91993920Y-59873664D01*
X91993916Y-59873662D01*
X91793087Y-59802545D01*
X91793083Y-59802544D01*
X91788212Y-59800819D01*
X91783119Y-59799912D01*
X91783116Y-59799911D01*
X91573373Y-59762550D01*
X91573367Y-59762549D01*
X91568284Y-59761644D01*
X91494452Y-59760742D01*
X91350081Y-59758978D01*
X91350079Y-59758978D01*
X91344911Y-59758915D01*
X91124091Y-59792705D01*
X90911756Y-59862107D01*
X90881443Y-59877887D01*
X90718575Y-59962671D01*
X90713607Y-59965257D01*
X90709474Y-59968360D01*
X90709471Y-59968362D01*
X90558291Y-60081871D01*
X90534965Y-60099385D01*
X90531393Y-60103123D01*
X90453898Y-60184216D01*
X90392374Y-60219645D01*
X90321462Y-60216188D01*
X90263676Y-60174942D01*
X90244823Y-60141394D01*
X90203324Y-60030696D01*
X90194786Y-60015101D01*
X90118285Y-59913026D01*
X90105724Y-59900465D01*
X90003649Y-59823964D01*
X89988054Y-59815426D01*
X89867606Y-59770272D01*
X89852351Y-59766645D01*
X89801486Y-59761119D01*
X89794672Y-59760750D01*
X89172115Y-59760750D01*
X89156876Y-59765225D01*
X89155671Y-59766615D01*
X89154000Y-59774298D01*
X89154000Y-70057267D01*
X88646000Y-70057267D01*
X88646000Y-69010865D01*
X88641525Y-68995626D01*
X88640135Y-68994421D01*
X88632452Y-68992750D01*
X87583225Y-68992750D01*
X87569694Y-68996723D01*
X87568257Y-69006716D01*
X87021300Y-69006716D01*
X87021300Y-68472933D01*
X87564389Y-68472933D01*
X87565912Y-68481357D01*
X87578292Y-68484750D01*
X88627885Y-68484750D01*
X88643124Y-68480275D01*
X88644329Y-68478885D01*
X88646000Y-68471202D01*
X88646000Y-66470865D01*
X88641525Y-66455626D01*
X88640135Y-66454421D01*
X88632452Y-66452750D01*
X87583225Y-66452750D01*
X87569694Y-66456723D01*
X87568257Y-66466716D01*
X87598565Y-66601196D01*
X87601645Y-66611025D01*
X87681770Y-66808353D01*
X87686413Y-66817544D01*
X87797694Y-66999138D01*
X87803777Y-67007449D01*
X87943213Y-67168417D01*
X87950580Y-67175633D01*
X88114434Y-67311666D01*
X88122881Y-67317581D01*
X88192479Y-67358251D01*
X88241203Y-67409890D01*
X88254274Y-67479673D01*
X88227543Y-67545444D01*
X88187087Y-67578803D01*
X88178462Y-67583292D01*
X88169738Y-67588786D01*
X87999433Y-67716655D01*
X87991726Y-67723498D01*
X87844590Y-67877467D01*
X87838104Y-67885477D01*
X87718098Y-68061399D01*
X87713000Y-68070373D01*
X87623338Y-68263533D01*
X87619775Y-68273220D01*
X87564389Y-68472933D01*
X87021300Y-68472933D01*
X87021300Y-65932933D01*
X87564389Y-65932933D01*
X87565912Y-65941357D01*
X87578292Y-65944750D01*
X88627885Y-65944750D01*
X88643124Y-65940275D01*
X88644329Y-65938885D01*
X88646000Y-65931202D01*
X88646000Y-63930865D01*
X88641525Y-63915626D01*
X88640135Y-63914421D01*
X88632452Y-63912750D01*
X87583225Y-63912750D01*
X87569694Y-63916723D01*
X87568257Y-63926716D01*
X87598565Y-64061196D01*
X87601645Y-64071025D01*
X87681770Y-64268353D01*
X87686413Y-64277544D01*
X87797694Y-64459138D01*
X87803777Y-64467449D01*
X87943213Y-64628417D01*
X87950580Y-64635633D01*
X88114434Y-64771666D01*
X88122881Y-64777581D01*
X88192479Y-64818251D01*
X88241203Y-64869890D01*
X88254274Y-64939673D01*
X88227543Y-65005444D01*
X88187087Y-65038803D01*
X88178462Y-65043292D01*
X88169738Y-65048786D01*
X87999433Y-65176655D01*
X87991726Y-65183498D01*
X87844590Y-65337467D01*
X87838104Y-65345477D01*
X87718098Y-65521399D01*
X87713000Y-65530373D01*
X87623338Y-65723533D01*
X87619775Y-65733220D01*
X87564389Y-65932933D01*
X87021300Y-65932933D01*
X87021300Y-62013419D01*
X87542001Y-62013419D01*
X87542371Y-62020240D01*
X87547895Y-62071102D01*
X87551521Y-62086354D01*
X87596676Y-62206804D01*
X87605214Y-62222399D01*
X87681715Y-62324474D01*
X87694276Y-62337035D01*
X87796351Y-62413536D01*
X87811946Y-62422074D01*
X87921337Y-62463083D01*
X87978101Y-62505725D01*
X88002801Y-62572286D01*
X87987594Y-62641635D01*
X87968201Y-62668116D01*
X87844590Y-62797467D01*
X87838104Y-62805477D01*
X87718098Y-62981399D01*
X87713000Y-62990373D01*
X87623338Y-63183533D01*
X87619775Y-63193220D01*
X87564389Y-63392933D01*
X87565912Y-63401357D01*
X87578292Y-63404750D01*
X88627885Y-63404750D01*
X88643124Y-63400275D01*
X88644329Y-63398885D01*
X88646000Y-63391202D01*
X88646000Y-61390865D01*
X88641525Y-61375626D01*
X88640135Y-61374421D01*
X88632452Y-61372750D01*
X87560116Y-61372750D01*
X87544877Y-61377225D01*
X87543672Y-61378615D01*
X87542001Y-61386298D01*
X87542001Y-62013419D01*
X87021300Y-62013419D01*
X87021300Y-60846635D01*
X87542000Y-60846635D01*
X87546475Y-60861874D01*
X87547865Y-60863079D01*
X87555548Y-60864750D01*
X88627885Y-60864750D01*
X88643124Y-60860275D01*
X88644329Y-60858885D01*
X88646000Y-60851202D01*
X88646000Y-59778866D01*
X88641525Y-59763627D01*
X88640135Y-59762422D01*
X88632452Y-59760751D01*
X88005331Y-59760751D01*
X87998510Y-59761121D01*
X87947648Y-59766645D01*
X87932396Y-59770271D01*
X87811946Y-59815426D01*
X87796351Y-59823964D01*
X87694276Y-59900465D01*
X87681715Y-59913026D01*
X87605214Y-60015101D01*
X87596676Y-60030696D01*
X87551522Y-60151144D01*
X87547895Y-60166399D01*
X87542369Y-60217264D01*
X87542000Y-60224078D01*
X87542000Y-60846635D01*
X87021300Y-60846635D01*
X87021300Y-60370528D01*
X87022800Y-60351143D01*
X87025105Y-60336342D01*
X87025105Y-60336339D01*
X87026486Y-60327470D01*
X87024832Y-60314822D01*
X87024248Y-60287502D01*
X87036738Y-60144750D01*
X87040551Y-60123121D01*
X87083543Y-59962672D01*
X87091055Y-59942033D01*
X87161254Y-59791490D01*
X87172236Y-59772469D01*
X87267512Y-59636401D01*
X87281630Y-59619577D01*
X87399077Y-59502130D01*
X87415901Y-59488012D01*
X87551969Y-59392736D01*
X87570990Y-59381754D01*
X87721533Y-59311555D01*
X87742169Y-59304044D01*
X87902621Y-59261051D01*
X87924242Y-59257239D01*
X87973372Y-59252940D01*
X88060119Y-59245351D01*
X88076579Y-59245904D01*
X88076584Y-59245495D01*
X88085558Y-59245605D01*
X88094430Y-59246986D01*
X88103332Y-59245822D01*
X88103335Y-59245822D01*
X88125951Y-59242864D01*
X88142289Y-59241800D01*
X167421372Y-59241800D01*
X167440757Y-59243300D01*
G37*
%TD.AperFunction*%
%TD*%
M02*
