M48
; DRILL file {KiCad (6.0.0)} date Mon Apr  4 18:39:18 2022
; FORMAT={-:-/ absolute / inch / decimal}
; #@! TF.CreationDate,2022-04-04T18:39:18-04:00
; #@! TF.GenerationSoftware,Kicad,Pcbnew,(6.0.0)
; #@! TF.FileFunction,Plated,1,2,PTH
FMAT,2
INCH
; #@! TA.AperFunction,Plated,PTH,ComponentDrill
T1C0.0394
%
G90
G05
T1
X3.5Y-2.4062
X3.5Y-2.5063
X3.5Y-2.6062
X3.5Y-2.7062
X3.6Y-2.4062
X3.6Y-2.5063
X3.6Y-2.6062
X3.6Y-2.7062
T1
G00X3.8529Y-2.4085
M15
G01X3.9592Y-2.4085
M16
G05
G00X3.8529Y-2.5936
M15
G01X3.9592Y-2.5936
M16
G05
G00X3.8529Y-2.7786
M15
G01X3.9592Y-2.7786
M16
G05
G00X4.6028Y-2.4085
M15
G01X4.7091Y-2.4085
M16
G05
G00X4.6028Y-2.5936
M15
G01X4.7091Y-2.5936
M16
G05
G00X4.6028Y-2.7786
M15
G01X4.7091Y-2.7786
M16
G05
G00X5.3528Y-2.4085
M15
G01X5.4591Y-2.4085
M16
G05
G00X5.3528Y-2.5936
M15
G01X5.4591Y-2.5936
M16
G05
G00X5.3528Y-2.7786
M15
G01X5.4591Y-2.7786
M16
G05
G00X6.1027Y-2.4085
M15
G01X6.209Y-2.4085
M16
G05
G00X6.1027Y-2.5936
M15
G01X6.209Y-2.5936
M16
G05
G00X6.1027Y-2.7786
M15
G01X6.209Y-2.7786
M16
G05
T0
M30
