M48
; DRILL file {KiCad (6.0.0)} date Fri Apr 29 20:19:50 2022
; FORMAT={-:-/ absolute / inch / decimal}
; #@! TF.CreationDate,2022-04-29T20:19:50-04:00
; #@! TF.GenerationSoftware,Kicad,Pcbnew,(6.0.0)
; #@! TF.FileFunction,Plated,1,2,PTH
FMAT,2
INCH
; #@! TA.AperFunction,Plated,PTH,ViaDrill
T1C0.0118
; #@! TA.AperFunction,Plated,PTH,ViaDrill
T2C0.0157
; #@! TA.AperFunction,Plated,PTH,ComponentDrill
T3C0.0236
; #@! TA.AperFunction,Plated,PTH,ComponentDrill
T4C0.0394
; #@! TA.AperFunction,Plated,PTH,ComponentDrill
T5C0.0500
; #@! TA.AperFunction,Plated,PTH,ComponentDrill
T6C0.0590
; #@! TA.AperFunction,Plated,PTH,ComponentDrill
T7C0.1654
%
G90
G05
T1
X1.56Y-4.275
X1.59Y-3.14
X1.595Y-3.895
X1.595Y-4.275
X1.8187Y-4.3812
X2.04Y-4.35
X2.075Y-4.3528
X2.115Y-4.3528
X2.1192Y-4.975
X2.1349Y-5.725
X2.1507Y-6.475
X2.155Y-4.3528
X2.1664Y-7.225
X2.19Y-4.3528
X2.205Y-7.975
X2.395Y-7.045
X2.4Y-4.78
X2.4Y-5.53
X2.4Y-6.285
X2.5688Y-4.4
X2.6Y-4.4157
X2.6299Y-4.4315
X2.6592Y-4.4472
X2.735Y-4.37
X2.7437Y-3.1
X2.745Y-4.1949
X2.9363Y-4.4076
X2.9374Y-4.2201
X3.0155Y-4.2171
X3.0368Y-4.4076
X3.0394Y-3.9843
X3.0675Y-3.5591
X3.08Y-4.485
X3.0832Y-3.6024
X3.0866Y-3.937
X3.0866Y-3.9724
X3.09Y-3.155
X3.0989Y-3.6535
X3.1191Y-3.9361
X3.1262Y-4.406
X3.1266Y-4.2175
X3.1286Y-4.5162
X3.1705Y-3.5039
X3.1705Y-3.5551
X3.1705Y-3.6024
X3.1705Y-4.0315
X3.2047Y-4.0315
X3.2402Y-4.0315
X3.34Y-4.365
X3.4232Y-3.1
X3.67Y-5.1965
X3.6701Y-5.165
X3.7174Y-5.1635
X3.7174Y-5.195
X4.4201Y-5.165
X4.4674Y-5.165
X5.9437Y-4.156
X6.6937Y-4.1402
X7.4437Y-4.1245
X8.1937Y-4.1088
X8.9437Y-4.093
X9.6937Y-4.0773
X10.4437Y-4.0616
X11.1937Y-4.0462
X11.9437Y-4.0312
X12.6937Y-4.0144
X13.4437Y-3.9987
X13.735Y-3.64
X14.1937Y-3.9838
X14.3764Y-3.8977
X14.4Y-3.92
X14.9437Y-3.9688
X15.015Y-3.95
X15.055Y-4.805
X15.055Y-5.56
T2
X2.8465Y-4.563
X2.9478Y-3.9528
X2.9892Y-3.9528
X3.0Y-4.2812
X3.0Y-4.3438
X3.0143Y-3.2717
X3.0312Y-4.3125
X3.0557Y-3.2717
X3.0625Y-4.2812
X3.0625Y-4.3438
X3.1449Y-3.3386
X3.1449Y-3.4173
X3.2425Y-3.0433
T4
X13.0683Y-2.8002
X13.0683Y-2.9002
X13.0683Y-3.0002
X13.0683Y-3.1002
X13.0683Y-3.2002
X13.1683Y-2.8002
X13.1683Y-2.9002
X13.1683Y-3.0002
X13.1683Y-3.1002
X13.1683Y-3.2002
X14.4688Y-2.8494
X14.4688Y-2.9494
X14.4688Y-3.0494
X14.4688Y-3.1494
X15.3936Y-4.2927
X15.3936Y-4.3927
X15.4936Y-4.2927
X15.4936Y-4.3927
X15.5936Y-4.2927
X15.5936Y-4.3927
X15.6936Y-4.2927
X15.6936Y-4.3927
X15.7936Y-4.2927
X15.7936Y-4.3927
T5
X1.7188Y-2.7677
X1.7188Y-3.5177
X1.7188Y-4.6427
X1.7188Y-5.3927
X1.7188Y-6.1427
X1.7188Y-6.8927
X1.7188Y-7.6427
X1.9156Y-2.8504
X1.9156Y-3.6004
X1.9156Y-4.7254
X1.9156Y-5.4754
X1.9156Y-6.2254
X1.9156Y-6.9754
X1.9156Y-7.7254
X2.4688Y-2.7677
X2.4688Y-3.5177
X2.4688Y-4.6427
X2.4688Y-5.3927
X2.4688Y-6.1427
X2.4688Y-6.8927
X2.4688Y-7.6427
X2.6656Y-2.8504
X2.6656Y-3.6004
X2.6656Y-4.7254
X2.6656Y-5.4754
X2.6656Y-6.2254
X2.6656Y-6.9754
X2.6656Y-7.7254
X3.59Y-3.5177
X3.5938Y-2.7677
X3.5938Y-4.6427
X3.5938Y-5.3927
X3.5938Y-6.1427
X3.5938Y-6.8927
X3.5938Y-7.6427
X3.7869Y-3.6004
X3.7906Y-2.8504
X3.7906Y-4.7254
X3.7906Y-5.4754
X3.7906Y-6.2254
X3.7906Y-6.9754
X3.7906Y-7.7254
X4.3438Y-2.7677
X4.3438Y-3.5177
X4.3438Y-4.6427
X4.3438Y-5.3927
X4.3438Y-6.1427
X4.3438Y-6.8927
X4.3438Y-7.6427
X4.5406Y-2.8504
X4.5406Y-3.6004
X4.5406Y-4.7254
X4.5406Y-5.4754
X4.5406Y-6.2254
X4.5406Y-6.9754
X4.5406Y-7.7254
X5.0938Y-2.7677
X5.0938Y-3.5177
X5.0938Y-4.6427
X5.0938Y-5.3927
X5.0938Y-6.1427
X5.0938Y-6.8927
X5.0938Y-7.6427
X5.2906Y-2.8504
X5.2906Y-3.6004
X5.2906Y-4.7254
X5.2906Y-5.4754
X5.2906Y-6.2254
X5.2906Y-6.9754
X5.2906Y-7.7254
X5.8438Y-2.7677
X5.8438Y-3.5177
X5.8438Y-4.6427
X5.8438Y-5.3927
X5.8438Y-6.1427
X5.8438Y-6.8927
X5.8438Y-7.6427
X6.0406Y-2.8504
X6.0406Y-3.6004
X6.0406Y-4.7254
X6.0406Y-5.4754
X6.0406Y-6.2254
X6.0406Y-6.9754
X6.0406Y-7.7254
X6.5938Y-2.7677
X6.5938Y-3.5177
X6.5938Y-4.6427
X6.5938Y-5.3927
X6.5938Y-6.1427
X6.5938Y-6.8927
X6.5938Y-7.6427
X6.7906Y-2.8504
X6.7906Y-3.6004
X6.7906Y-4.7254
X6.7906Y-5.4754
X6.7906Y-6.2254
X6.7906Y-6.9754
X6.7906Y-7.7254
X7.3438Y-2.7677
X7.3438Y-3.5177
X7.3438Y-4.6427
X7.3438Y-5.3927
X7.3438Y-6.1427
X7.3438Y-6.8927
X7.5406Y-2.8504
X7.5406Y-3.6004
X7.5406Y-4.7254
X7.5406Y-5.4754
X7.5406Y-6.2254
X7.5406Y-6.9754
X7.7125Y-7.6427
X7.9094Y-7.7254
X8.0938Y-2.7677
X8.0938Y-3.5177
X8.0938Y-4.6427
X8.0938Y-5.3927
X8.0938Y-6.1427
X8.0938Y-6.8927
X8.2906Y-2.8504
X8.2906Y-3.6004
X8.2906Y-4.7254
X8.2906Y-5.4754
X8.2906Y-6.2254
X8.2906Y-6.9754
X8.8438Y-2.7677
X8.8438Y-3.5177
X8.8438Y-4.6427
X8.8438Y-5.3927
X8.8438Y-6.1427
X8.8438Y-6.8927
X8.8438Y-7.6427
X9.0406Y-2.8504
X9.0406Y-3.6004
X9.0406Y-4.7254
X9.0406Y-5.4754
X9.0406Y-6.2254
X9.0406Y-6.9754
X9.0406Y-7.7254
X9.5938Y-3.5177
X9.5938Y-4.6427
X9.5938Y-5.3927
X9.5938Y-6.1427
X9.5938Y-6.8927
X9.5938Y-7.6427
X9.7906Y-3.6004
X9.7906Y-4.7254
X9.7906Y-5.4754
X9.7906Y-6.2254
X9.7906Y-6.9754
X9.7906Y-7.7254
X10.3438Y-3.5177
X10.3438Y-4.6427
X10.3438Y-5.3927
X10.3438Y-6.1427
X10.3438Y-6.8927
X10.3438Y-7.6427
X10.5406Y-3.6004
X10.5406Y-4.7254
X10.5406Y-5.4754
X10.5406Y-6.2254
X10.5406Y-6.9754
X10.5406Y-7.7254
X11.0938Y-3.5177
X11.0938Y-4.6427
X11.0938Y-5.3927
X11.0938Y-6.1427
X11.0938Y-6.8927
X11.0938Y-7.6427
X11.2906Y-3.6004
X11.2906Y-4.7254
X11.2906Y-5.4754
X11.2906Y-6.2254
X11.2906Y-6.9754
X11.2906Y-7.7254
X11.8438Y-3.5177
X11.8438Y-4.6427
X11.8438Y-5.3927
X11.8438Y-6.1427
X11.8438Y-6.8927
X11.8438Y-7.6427
X12.0406Y-3.6004
X12.0406Y-4.7254
X12.0406Y-5.4754
X12.0406Y-6.2254
X12.0406Y-6.9754
X12.0406Y-7.7254
X12.5938Y-3.5177
X12.5938Y-4.6427
X12.5938Y-5.3927
X12.5938Y-6.1427
X12.5938Y-6.8927
X12.5938Y-7.6427
X12.7906Y-3.6004
X12.7906Y-4.7254
X12.7906Y-5.4754
X12.7906Y-6.2254
X12.7906Y-6.9754
X12.7906Y-7.7254
X13.3438Y-3.5177
X13.3438Y-4.6427
X13.3438Y-5.3927
X13.3438Y-6.1427
X13.3438Y-6.8927
X13.3438Y-7.6427
X13.5406Y-3.6004
X13.5406Y-4.7254
X13.5406Y-5.4754
X13.5406Y-6.2254
X13.5406Y-6.9754
X13.5406Y-7.7254
X14.0938Y-3.5177
X14.0938Y-4.6427
X14.0938Y-5.3927
X14.0938Y-6.1427
X14.0938Y-6.8927
X14.0938Y-7.6427
X14.2906Y-3.6004
X14.2906Y-4.7254
X14.2906Y-5.4754
X14.2906Y-6.2254
X14.2906Y-6.9754
X14.2906Y-7.7254
X14.8438Y-3.5177
X14.8438Y-4.6427
X14.8438Y-5.3927
X14.8438Y-6.1427
X14.8438Y-6.8927
X14.8438Y-7.6427
X15.0406Y-3.6004
X15.0406Y-4.7254
X15.0406Y-5.4754
X15.0406Y-6.2254
X15.0406Y-6.9754
X15.0406Y-7.7254
T6
X1.5687Y-2.9
X1.5687Y-3.65
X1.5687Y-4.775
X1.5687Y-5.525
X1.5687Y-6.275
X1.5687Y-7.025
X1.5687Y-7.775
X1.8187Y-2.8
X1.8187Y-3.55
X1.8187Y-4.675
X1.8187Y-5.425
X1.8187Y-6.175
X1.8187Y-6.925
X1.8187Y-7.675
X2.3188Y-2.9
X2.3188Y-3.65
X2.3188Y-4.775
X2.3188Y-5.525
X2.3188Y-6.275
X2.3188Y-7.025
X2.3188Y-7.775
X2.5688Y-2.8
X2.5688Y-3.55
X2.5688Y-4.675
X2.5688Y-5.425
X2.5688Y-6.175
X2.5688Y-6.925
X2.5688Y-7.675
X3.44Y-3.65
X3.4438Y-2.9
X3.4438Y-4.775
X3.4438Y-5.525
X3.4438Y-6.275
X3.4438Y-7.025
X3.4438Y-7.775
X3.69Y-3.55
X3.6938Y-2.8
X3.6938Y-4.675
X3.6938Y-5.425
X3.6938Y-6.175
X3.6938Y-6.925
X3.6938Y-7.675
X4.1937Y-2.9
X4.1937Y-3.65
X4.1937Y-4.775
X4.1937Y-5.525
X4.1937Y-6.275
X4.1937Y-7.025
X4.1937Y-7.775
X4.4437Y-2.8
X4.4437Y-3.55
X4.4437Y-4.675
X4.4437Y-5.425
X4.4437Y-6.175
X4.4437Y-6.925
X4.4437Y-7.675
X4.9437Y-2.9
X4.9437Y-3.65
X4.9437Y-4.775
X4.9437Y-5.525
X4.9437Y-6.275
X4.9437Y-7.025
X4.9437Y-7.775
X5.1937Y-2.8
X5.1937Y-3.55
X5.1937Y-4.675
X5.1937Y-5.425
X5.1937Y-6.175
X5.1937Y-6.925
X5.1937Y-7.675
X5.6937Y-2.9
X5.6937Y-3.65
X5.6937Y-4.775
X5.6937Y-5.525
X5.6937Y-6.275
X5.6937Y-7.025
X5.6937Y-7.775
X5.9437Y-2.8
X5.9437Y-3.55
X5.9437Y-4.675
X5.9437Y-5.425
X5.9437Y-6.175
X5.9437Y-6.925
X5.9437Y-7.675
X6.4437Y-2.9
X6.4437Y-3.65
X6.4437Y-4.775
X6.4437Y-5.525
X6.4437Y-6.275
X6.4437Y-7.025
X6.4437Y-7.775
X6.6937Y-2.8
X6.6937Y-3.55
X6.6937Y-4.675
X6.6937Y-5.425
X6.6937Y-6.175
X6.6937Y-6.925
X6.6937Y-7.675
X7.1937Y-2.9
X7.1937Y-3.65
X7.1937Y-4.775
X7.1937Y-5.525
X7.1937Y-6.275
X7.1937Y-7.025
X7.4437Y-2.8
X7.4437Y-3.55
X7.4437Y-4.675
X7.4437Y-5.425
X7.4437Y-6.175
X7.4437Y-6.925
X7.5625Y-7.775
X7.8125Y-7.675
X7.9437Y-2.9
X7.9437Y-3.65
X7.9437Y-4.775
X7.9437Y-5.525
X7.9437Y-6.275
X7.9437Y-7.025
X8.1937Y-2.8
X8.1937Y-3.55
X8.1937Y-4.675
X8.1937Y-5.425
X8.1937Y-6.175
X8.1937Y-6.925
X8.6937Y-2.9
X8.6937Y-3.65
X8.6937Y-4.775
X8.6937Y-5.525
X8.6937Y-6.275
X8.6937Y-7.025
X8.6937Y-7.775
X8.9437Y-2.8
X8.9437Y-3.55
X8.9437Y-4.675
X8.9437Y-5.425
X8.9437Y-6.175
X8.9437Y-6.925
X8.9437Y-7.675
X9.4437Y-3.65
X9.4437Y-4.775
X9.4437Y-5.525
X9.4437Y-6.275
X9.4437Y-7.025
X9.4437Y-7.775
X9.6937Y-3.55
X9.6937Y-4.675
X9.6937Y-5.425
X9.6937Y-6.175
X9.6937Y-6.925
X9.6937Y-7.675
X10.1937Y-3.65
X10.1937Y-4.775
X10.1937Y-5.525
X10.1937Y-6.275
X10.1937Y-7.025
X10.1937Y-7.775
X10.4437Y-3.55
X10.4437Y-4.675
X10.4437Y-5.425
X10.4437Y-6.175
X10.4437Y-6.925
X10.4437Y-7.675
X10.9437Y-3.65
X10.9437Y-4.775
X10.9437Y-5.525
X10.9437Y-6.275
X10.9437Y-7.025
X10.9438Y-7.775
X11.1937Y-3.55
X11.1937Y-4.675
X11.1937Y-5.425
X11.1937Y-6.175
X11.1937Y-6.925
X11.1938Y-7.675
X11.6937Y-3.65
X11.6937Y-4.775
X11.6937Y-5.525
X11.6937Y-6.275
X11.6937Y-7.025
X11.6937Y-7.775
X11.9437Y-3.55
X11.9437Y-4.675
X11.9437Y-5.425
X11.9437Y-6.175
X11.9437Y-6.925
X11.9437Y-7.675
X12.4437Y-3.65
X12.4437Y-4.775
X12.4437Y-5.525
X12.4437Y-6.275
X12.4437Y-7.025
X12.4437Y-7.775
X12.6937Y-3.55
X12.6937Y-4.675
X12.6937Y-5.425
X12.6937Y-6.175
X12.6937Y-6.925
X12.6937Y-7.675
X13.1937Y-3.65
X13.1937Y-4.775
X13.1937Y-5.525
X13.1937Y-6.275
X13.1937Y-7.025
X13.1937Y-7.775
X13.4437Y-3.55
X13.4437Y-4.675
X13.4437Y-5.425
X13.4437Y-6.175
X13.4437Y-6.925
X13.4437Y-7.675
X13.9437Y-3.65
X13.9437Y-4.775
X13.9437Y-5.525
X13.9437Y-6.275
X13.9437Y-7.025
X13.9437Y-7.775
X14.1937Y-3.55
X14.1937Y-4.675
X14.1937Y-5.425
X14.1937Y-6.175
X14.1937Y-6.925
X14.1937Y-7.675
X14.6937Y-3.65
X14.6937Y-4.775
X14.6937Y-5.525
X14.6937Y-6.275
X14.6937Y-7.025
X14.6937Y-7.775
X14.9437Y-3.55
X14.9437Y-4.675
X14.9437Y-5.425
X14.9437Y-6.175
X14.9437Y-6.925
X14.9437Y-7.675
T7
X2.8125Y-3.375
X2.8125Y-7.5
X8.625Y-3.375
X8.625Y-7.5312
X14.4688Y-3.375
X14.4688Y-7.5
T3
G00X2.8612Y-2.6656
M15
G01X2.8612Y-2.6892
M16
G05
G00X2.8612Y-2.8203
M15
G01X2.8612Y-2.8636
M16
G05
G00X3.2013Y-2.6656
M15
G01X3.2013Y-2.6892
M16
G05
G00X3.2013Y-2.8203
M15
G01X3.2013Y-2.8636
M16
G05
T0
M30
