M48
; DRILL file {KiCad (6.0.0)} date Fri Apr 29 20:19:50 2022
; FORMAT={-:-/ absolute / inch / decimal}
; #@! TF.CreationDate,2022-04-29T20:19:50-04:00
; #@! TF.GenerationSoftware,Kicad,Pcbnew,(6.0.0)
; #@! TF.FileFunction,NonPlated,1,2,NPTH
FMAT,2
INCH
; #@! TA.AperFunction,NonPlated,NPTH,ComponentDrill
T1C0.0256
; #@! TA.AperFunction,NonPlated,NPTH,ComponentDrill
T2C0.0689
; #@! TA.AperFunction,NonPlated,NPTH,ComponentDrill
T3C0.1570
%
G90
G05
T1
X2.9175Y-2.8211
X3.145Y-2.8211
T3
X1.7188Y-3.0
X1.7188Y-3.75
X1.7188Y-4.875
X1.7188Y-5.625
X1.7188Y-6.375
X1.7188Y-7.125
X1.7188Y-7.875
X2.4688Y-3.0
X2.4688Y-3.75
X2.4688Y-4.875
X2.4688Y-5.625
X2.4688Y-6.375
X2.4688Y-7.125
X2.4688Y-7.875
X3.59Y-3.75
X3.5938Y-3.0
X3.5938Y-4.875
X3.5938Y-5.625
X3.5938Y-6.375
X3.5938Y-7.125
X3.5938Y-7.875
X4.3438Y-3.0
X4.3438Y-3.75
X4.3438Y-4.875
X4.3438Y-5.625
X4.3438Y-6.375
X4.3438Y-7.125
X4.3438Y-7.875
X5.0938Y-3.0
X5.0938Y-3.75
X5.0938Y-4.875
X5.0938Y-5.625
X5.0938Y-6.375
X5.0938Y-7.125
X5.0938Y-7.875
X5.8438Y-3.0
X5.8438Y-3.75
X5.8438Y-4.875
X5.8438Y-5.625
X5.8438Y-6.375
X5.8438Y-7.125
X5.8438Y-7.875
X6.5938Y-3.0
X6.5938Y-3.75
X6.5938Y-4.875
X6.5938Y-5.625
X6.5938Y-6.375
X6.5938Y-7.125
X6.5938Y-7.875
X7.3438Y-3.0
X7.3438Y-3.75
X7.3438Y-4.875
X7.3438Y-5.625
X7.3438Y-6.375
X7.3438Y-7.125
X7.7125Y-7.875
X8.0938Y-3.0
X8.0938Y-3.75
X8.0938Y-4.875
X8.0938Y-5.625
X8.0938Y-6.375
X8.0938Y-7.125
X8.8438Y-3.0
X8.8438Y-3.75
X8.8438Y-4.875
X8.8438Y-5.625
X8.8438Y-6.375
X8.8438Y-7.125
X8.8438Y-7.875
X9.5938Y-3.75
X9.5938Y-4.875
X9.5938Y-5.625
X9.5938Y-6.375
X9.5938Y-7.125
X9.5938Y-7.875
X10.3438Y-3.75
X10.3438Y-4.875
X10.3438Y-5.625
X10.3438Y-6.375
X10.3438Y-7.125
X10.3438Y-7.875
X11.0938Y-3.75
X11.0938Y-4.875
X11.0938Y-5.625
X11.0938Y-6.375
X11.0938Y-7.125
X11.0938Y-7.875
X11.8438Y-3.75
X11.8438Y-4.875
X11.8438Y-5.625
X11.8438Y-6.375
X11.8438Y-7.125
X11.8438Y-7.875
X12.5938Y-3.75
X12.5938Y-4.875
X12.5938Y-5.625
X12.5938Y-6.375
X12.5938Y-7.125
X12.5938Y-7.875
X13.3438Y-3.75
X13.3438Y-4.875
X13.3438Y-5.625
X13.3438Y-6.375
X13.3438Y-7.125
X13.3438Y-7.875
X14.0938Y-3.75
X14.0938Y-4.875
X14.0938Y-5.625
X14.0938Y-6.375
X14.0938Y-7.125
X14.0938Y-7.875
X14.8438Y-3.75
X14.8438Y-4.875
X14.8438Y-5.625
X14.8438Y-6.375
X14.8438Y-7.125
X14.8438Y-7.875
T2
G00X1.5029Y-3.0
M15
G01X1.5186Y-3.0
M16
G05
G00X1.5029Y-3.75
M15
G01X1.5186Y-3.75
M16
G05
G00X1.5029Y-4.875
M15
G01X1.5186Y-4.875
M16
G05
G00X1.5029Y-5.625
M15
G01X1.5186Y-5.625
M16
G05
G00X1.5029Y-6.375
M15
G01X1.5186Y-6.375
M16
G05
G00X1.5029Y-7.125
M15
G01X1.5186Y-7.125
M16
G05
G00X1.5029Y-7.875
M15
G01X1.5186Y-7.875
M16
G05
G00X1.9189Y-3.0
M15
G01X1.9346Y-3.0
M16
G05
G00X1.9189Y-3.75
M15
G01X1.9346Y-3.75
M16
G05
G00X1.9189Y-4.875
M15
G01X1.9346Y-4.875
M16
G05
G00X1.9189Y-5.625
M15
G01X1.9346Y-5.625
M16
G05
G00X1.9189Y-6.375
M15
G01X1.9346Y-6.375
M16
G05
G00X1.9189Y-7.125
M15
G01X1.9346Y-7.125
M16
G05
G00X1.9189Y-7.875
M15
G01X1.9346Y-7.875
M16
G05
G00X2.2529Y-3.0
M15
G01X2.2686Y-3.0
M16
G05
G00X2.2529Y-3.75
M15
G01X2.2686Y-3.75
M16
G05
G00X2.2529Y-4.875
M15
G01X2.2686Y-4.875
M16
G05
G00X2.2529Y-5.625
M15
G01X2.2686Y-5.625
M16
G05
G00X2.2529Y-6.375
M15
G01X2.2686Y-6.375
M16
G05
G00X2.2529Y-7.125
M15
G01X2.2686Y-7.125
M16
G05
G00X2.2529Y-7.875
M15
G01X2.2686Y-7.875
M16
G05
G00X2.6689Y-3.0
M15
G01X2.6846Y-3.0
M16
G05
G00X2.6689Y-3.75
M15
G01X2.6846Y-3.75
M16
G05
G00X2.6689Y-4.875
M15
G01X2.6846Y-4.875
M16
G05
G00X2.6689Y-5.625
M15
G01X2.6846Y-5.625
M16
G05
G00X2.6689Y-6.375
M15
G01X2.6846Y-6.375
M16
G05
G00X2.6689Y-7.125
M15
G01X2.6846Y-7.125
M16
G05
G00X2.6689Y-7.875
M15
G01X2.6846Y-7.875
M16
G05
G00X3.3741Y-3.75
M15
G01X3.3899Y-3.75
M16
G05
G00X3.3779Y-3.0
M15
G01X3.3936Y-3.0
M16
G05
G00X3.3779Y-4.875
M15
G01X3.3936Y-4.875
M16
G05
G00X3.3779Y-5.625
M15
G01X3.3936Y-5.625
M16
G05
G00X3.3779Y-6.375
M15
G01X3.3936Y-6.375
M16
G05
G00X3.3779Y-7.125
M15
G01X3.3936Y-7.125
M16
G05
G00X3.3779Y-7.875
M15
G01X3.3936Y-7.875
M16
G05
G00X3.7901Y-3.75
M15
G01X3.8059Y-3.75
M16
G05
G00X3.7939Y-3.0
M15
G01X3.8096Y-3.0
M16
G05
G00X3.7939Y-4.875
M15
G01X3.8096Y-4.875
M16
G05
G00X3.7939Y-5.625
M15
G01X3.8096Y-5.625
M16
G05
G00X3.7939Y-6.375
M15
G01X3.8096Y-6.375
M16
G05
G00X3.7939Y-7.125
M15
G01X3.8096Y-7.125
M16
G05
G00X3.7939Y-7.875
M15
G01X3.8096Y-7.875
M16
G05
G00X4.1279Y-3.0
M15
G01X4.1436Y-3.0
M16
G05
G00X4.1279Y-3.75
M15
G01X4.1436Y-3.75
M16
G05
G00X4.1279Y-4.875
M15
G01X4.1436Y-4.875
M16
G05
G00X4.1279Y-5.625
M15
G01X4.1436Y-5.625
M16
G05
G00X4.1279Y-6.375
M15
G01X4.1436Y-6.375
M16
G05
G00X4.1279Y-7.125
M15
G01X4.1436Y-7.125
M16
G05
G00X4.1279Y-7.875
M15
G01X4.1436Y-7.875
M16
G05
G00X4.5439Y-3.0
M15
G01X4.5596Y-3.0
M16
G05
G00X4.5439Y-3.75
M15
G01X4.5596Y-3.75
M16
G05
G00X4.5439Y-4.875
M15
G01X4.5596Y-4.875
M16
G05
G00X4.5439Y-5.625
M15
G01X4.5596Y-5.625
M16
G05
G00X4.5439Y-6.375
M15
G01X4.5596Y-6.375
M16
G05
G00X4.5439Y-7.125
M15
G01X4.5596Y-7.125
M16
G05
G00X4.5439Y-7.875
M15
G01X4.5596Y-7.875
M16
G05
G00X4.8779Y-3.0
M15
G01X4.8936Y-3.0
M16
G05
G00X4.8779Y-3.75
M15
G01X4.8936Y-3.75
M16
G05
G00X4.8779Y-4.875
M15
G01X4.8936Y-4.875
M16
G05
G00X4.8779Y-5.625
M15
G01X4.8936Y-5.625
M16
G05
G00X4.8779Y-6.375
M15
G01X4.8936Y-6.375
M16
G05
G00X4.8779Y-7.125
M15
G01X4.8936Y-7.125
M16
G05
G00X4.8779Y-7.875
M15
G01X4.8936Y-7.875
M16
G05
G00X5.2939Y-3.0
M15
G01X5.3096Y-3.0
M16
G05
G00X5.2939Y-3.75
M15
G01X5.3096Y-3.75
M16
G05
G00X5.2939Y-4.875
M15
G01X5.3096Y-4.875
M16
G05
G00X5.2939Y-5.625
M15
G01X5.3096Y-5.625
M16
G05
G00X5.2939Y-6.375
M15
G01X5.3096Y-6.375
M16
G05
G00X5.2939Y-7.125
M15
G01X5.3096Y-7.125
M16
G05
G00X5.2939Y-7.875
M15
G01X5.3096Y-7.875
M16
G05
G00X5.6279Y-3.0
M15
G01X5.6436Y-3.0
M16
G05
G00X5.6279Y-3.75
M15
G01X5.6436Y-3.75
M16
G05
G00X5.6279Y-4.875
M15
G01X5.6436Y-4.875
M16
G05
G00X5.6279Y-5.625
M15
G01X5.6436Y-5.625
M16
G05
G00X5.6279Y-6.375
M15
G01X5.6436Y-6.375
M16
G05
G00X5.6279Y-7.125
M15
G01X5.6436Y-7.125
M16
G05
G00X5.6279Y-7.875
M15
G01X5.6436Y-7.875
M16
G05
G00X6.0439Y-3.0
M15
G01X6.0596Y-3.0
M16
G05
G00X6.0439Y-3.75
M15
G01X6.0596Y-3.75
M16
G05
G00X6.0439Y-4.875
M15
G01X6.0596Y-4.875
M16
G05
G00X6.0439Y-5.625
M15
G01X6.0596Y-5.625
M16
G05
G00X6.0439Y-6.375
M15
G01X6.0596Y-6.375
M16
G05
G00X6.0439Y-7.125
M15
G01X6.0596Y-7.125
M16
G05
G00X6.0439Y-7.875
M15
G01X6.0596Y-7.875
M16
G05
G00X6.3779Y-3.0
M15
G01X6.3936Y-3.0
M16
G05
G00X6.3779Y-3.75
M15
G01X6.3936Y-3.75
M16
G05
G00X6.3779Y-4.875
M15
G01X6.3936Y-4.875
M16
G05
G00X6.3779Y-5.625
M15
G01X6.3936Y-5.625
M16
G05
G00X6.3779Y-6.375
M15
G01X6.3936Y-6.375
M16
G05
G00X6.3779Y-7.125
M15
G01X6.3936Y-7.125
M16
G05
G00X6.3779Y-7.875
M15
G01X6.3936Y-7.875
M16
G05
G00X6.7939Y-3.0
M15
G01X6.8096Y-3.0
M16
G05
G00X6.7939Y-3.75
M15
G01X6.8096Y-3.75
M16
G05
G00X6.7939Y-4.875
M15
G01X6.8096Y-4.875
M16
G05
G00X6.7939Y-5.625
M15
G01X6.8096Y-5.625
M16
G05
G00X6.7939Y-6.375
M15
G01X6.8096Y-6.375
M16
G05
G00X6.7939Y-7.125
M15
G01X6.8096Y-7.125
M16
G05
G00X6.7939Y-7.875
M15
G01X6.8096Y-7.875
M16
G05
G00X7.1279Y-3.0
M15
G01X7.1436Y-3.0
M16
G05
G00X7.1279Y-3.75
M15
G01X7.1436Y-3.75
M16
G05
G00X7.1279Y-4.875
M15
G01X7.1436Y-4.875
M16
G05
G00X7.1279Y-5.625
M15
G01X7.1436Y-5.625
M16
G05
G00X7.1279Y-6.375
M15
G01X7.1436Y-6.375
M16
G05
G00X7.1279Y-7.125
M15
G01X7.1436Y-7.125
M16
G05
G00X7.4966Y-7.875
M15
G01X7.5124Y-7.875
M16
G05
G00X7.5439Y-3.0
M15
G01X7.5596Y-3.0
M16
G05
G00X7.5439Y-3.75
M15
G01X7.5596Y-3.75
M16
G05
G00X7.5439Y-4.875
M15
G01X7.5596Y-4.875
M16
G05
G00X7.5439Y-5.625
M15
G01X7.5596Y-5.625
M16
G05
G00X7.5439Y-6.375
M15
G01X7.5596Y-6.375
M16
G05
G00X7.5439Y-7.125
M15
G01X7.5596Y-7.125
M16
G05
G00X7.8779Y-3.0
M15
G01X7.8936Y-3.0
M16
G05
G00X7.8779Y-3.75
M15
G01X7.8936Y-3.75
M16
G05
G00X7.8779Y-4.875
M15
G01X7.8936Y-4.875
M16
G05
G00X7.8779Y-5.625
M15
G01X7.8936Y-5.625
M16
G05
G00X7.8779Y-6.375
M15
G01X7.8936Y-6.375
M16
G05
G00X7.8779Y-7.125
M15
G01X7.8936Y-7.125
M16
G05
G00X7.9126Y-7.875
M15
G01X7.9284Y-7.875
M16
G05
G00X8.2939Y-3.0
M15
G01X8.3096Y-3.0
M16
G05
G00X8.2939Y-3.75
M15
G01X8.3096Y-3.75
M16
G05
G00X8.2939Y-4.875
M15
G01X8.3096Y-4.875
M16
G05
G00X8.2939Y-5.625
M15
G01X8.3096Y-5.625
M16
G05
G00X8.2939Y-6.375
M15
G01X8.3096Y-6.375
M16
G05
G00X8.2939Y-7.125
M15
G01X8.3096Y-7.125
M16
G05
G00X8.6279Y-3.0
M15
G01X8.6436Y-3.0
M16
G05
G00X8.6279Y-3.75
M15
G01X8.6436Y-3.75
M16
G05
G00X8.6279Y-4.875
M15
G01X8.6436Y-4.875
M16
G05
G00X8.6279Y-5.625
M15
G01X8.6436Y-5.625
M16
G05
G00X8.6279Y-6.375
M15
G01X8.6436Y-6.375
M16
G05
G00X8.6279Y-7.125
M15
G01X8.6436Y-7.125
M16
G05
G00X8.6279Y-7.875
M15
G01X8.6436Y-7.875
M16
G05
G00X9.0439Y-3.0
M15
G01X9.0596Y-3.0
M16
G05
G00X9.0439Y-3.75
M15
G01X9.0596Y-3.75
M16
G05
G00X9.0439Y-4.875
M15
G01X9.0596Y-4.875
M16
G05
G00X9.0439Y-5.625
M15
G01X9.0596Y-5.625
M16
G05
G00X9.0439Y-6.375
M15
G01X9.0596Y-6.375
M16
G05
G00X9.0439Y-7.125
M15
G01X9.0596Y-7.125
M16
G05
G00X9.0439Y-7.875
M15
G01X9.0596Y-7.875
M16
G05
G00X9.3779Y-3.75
M15
G01X9.3936Y-3.75
M16
G05
G00X9.3779Y-4.875
M15
G01X9.3936Y-4.875
M16
G05
G00X9.3779Y-5.625
M15
G01X9.3936Y-5.625
M16
G05
G00X9.3779Y-6.375
M15
G01X9.3936Y-6.375
M16
G05
G00X9.3779Y-7.125
M15
G01X9.3936Y-7.125
M16
G05
G00X9.3779Y-7.875
M15
G01X9.3936Y-7.875
M16
G05
G00X9.7939Y-3.75
M15
G01X9.8096Y-3.75
M16
G05
G00X9.7939Y-4.875
M15
G01X9.8096Y-4.875
M16
G05
G00X9.7939Y-5.625
M15
G01X9.8096Y-5.625
M16
G05
G00X9.7939Y-6.375
M15
G01X9.8096Y-6.375
M16
G05
G00X9.7939Y-7.125
M15
G01X9.8096Y-7.125
M16
G05
G00X9.7939Y-7.875
M15
G01X9.8096Y-7.875
M16
G05
G00X10.1279Y-3.75
M15
G01X10.1436Y-3.75
M16
G05
G00X10.1279Y-4.875
M15
G01X10.1436Y-4.875
M16
G05
G00X10.1279Y-5.625
M15
G01X10.1436Y-5.625
M16
G05
G00X10.1279Y-6.375
M15
G01X10.1436Y-6.375
M16
G05
G00X10.1279Y-7.125
M15
G01X10.1436Y-7.125
M16
G05
G00X10.1279Y-7.875
M15
G01X10.1436Y-7.875
M16
G05
G00X10.5439Y-3.75
M15
G01X10.5596Y-3.75
M16
G05
G00X10.5439Y-4.875
M15
G01X10.5596Y-4.875
M16
G05
G00X10.5439Y-5.625
M15
G01X10.5596Y-5.625
M16
G05
G00X10.5439Y-6.375
M15
G01X10.5596Y-6.375
M16
G05
G00X10.5439Y-7.125
M15
G01X10.5596Y-7.125
M16
G05
G00X10.5439Y-7.875
M15
G01X10.5596Y-7.875
M16
G05
G00X10.8779Y-3.75
M15
G01X10.8936Y-3.75
M16
G05
G00X10.8779Y-4.875
M15
G01X10.8936Y-4.875
M16
G05
G00X10.8779Y-5.625
M15
G01X10.8936Y-5.625
M16
G05
G00X10.8779Y-6.375
M15
G01X10.8936Y-6.375
M16
G05
G00X10.8779Y-7.125
M15
G01X10.8936Y-7.125
M16
G05
G00X10.8779Y-7.875
M15
G01X10.8936Y-7.875
M16
G05
G00X11.2939Y-3.75
M15
G01X11.3096Y-3.75
M16
G05
G00X11.2939Y-4.875
M15
G01X11.3096Y-4.875
M16
G05
G00X11.2939Y-5.625
M15
G01X11.3096Y-5.625
M16
G05
G00X11.2939Y-6.375
M15
G01X11.3096Y-6.375
M16
G05
G00X11.2939Y-7.125
M15
G01X11.3096Y-7.125
M16
G05
G00X11.2939Y-7.875
M15
G01X11.3096Y-7.875
M16
G05
G00X11.6279Y-3.75
M15
G01X11.6436Y-3.75
M16
G05
G00X11.6279Y-4.875
M15
G01X11.6436Y-4.875
M16
G05
G00X11.6279Y-5.625
M15
G01X11.6436Y-5.625
M16
G05
G00X11.6279Y-6.375
M15
G01X11.6436Y-6.375
M16
G05
G00X11.6279Y-7.125
M15
G01X11.6436Y-7.125
M16
G05
G00X11.6279Y-7.875
M15
G01X11.6436Y-7.875
M16
G05
G00X12.0439Y-3.75
M15
G01X12.0596Y-3.75
M16
G05
G00X12.0439Y-4.875
M15
G01X12.0596Y-4.875
M16
G05
G00X12.0439Y-5.625
M15
G01X12.0596Y-5.625
M16
G05
G00X12.0439Y-6.375
M15
G01X12.0596Y-6.375
M16
G05
G00X12.0439Y-7.125
M15
G01X12.0596Y-7.125
M16
G05
G00X12.0439Y-7.875
M15
G01X12.0596Y-7.875
M16
G05
G00X12.3779Y-3.75
M15
G01X12.3936Y-3.75
M16
G05
G00X12.3779Y-4.875
M15
G01X12.3936Y-4.875
M16
G05
G00X12.3779Y-5.625
M15
G01X12.3936Y-5.625
M16
G05
G00X12.3779Y-6.375
M15
G01X12.3936Y-6.375
M16
G05
G00X12.3779Y-7.125
M15
G01X12.3936Y-7.125
M16
G05
G00X12.3779Y-7.875
M15
G01X12.3936Y-7.875
M16
G05
G00X12.7939Y-3.75
M15
G01X12.8096Y-3.75
M16
G05
G00X12.7939Y-4.875
M15
G01X12.8096Y-4.875
M16
G05
G00X12.7939Y-5.625
M15
G01X12.8096Y-5.625
M16
G05
G00X12.7939Y-6.375
M15
G01X12.8096Y-6.375
M16
G05
G00X12.7939Y-7.125
M15
G01X12.8096Y-7.125
M16
G05
G00X12.7939Y-7.875
M15
G01X12.8096Y-7.875
M16
G05
G00X13.1279Y-3.75
M15
G01X13.1436Y-3.75
M16
G05
G00X13.1279Y-4.875
M15
G01X13.1436Y-4.875
M16
G05
G00X13.1279Y-5.625
M15
G01X13.1436Y-5.625
M16
G05
G00X13.1279Y-6.375
M15
G01X13.1436Y-6.375
M16
G05
G00X13.1279Y-7.125
M15
G01X13.1436Y-7.125
M16
G05
G00X13.1279Y-7.875
M15
G01X13.1436Y-7.875
M16
G05
G00X13.5439Y-3.75
M15
G01X13.5596Y-3.75
M16
G05
G00X13.5439Y-4.875
M15
G01X13.5596Y-4.875
M16
G05
G00X13.5439Y-5.625
M15
G01X13.5596Y-5.625
M16
G05
G00X13.5439Y-6.375
M15
G01X13.5596Y-6.375
M16
G05
G00X13.5439Y-7.125
M15
G01X13.5596Y-7.125
M16
G05
G00X13.5439Y-7.875
M15
G01X13.5596Y-7.875
M16
G05
G00X13.8779Y-3.75
M15
G01X13.8936Y-3.75
M16
G05
G00X13.8779Y-4.875
M15
G01X13.8936Y-4.875
M16
G05
G00X13.8779Y-5.625
M15
G01X13.8936Y-5.625
M16
G05
G00X13.8779Y-6.375
M15
G01X13.8936Y-6.375
M16
G05
G00X13.8779Y-7.125
M15
G01X13.8936Y-7.125
M16
G05
G00X13.8779Y-7.875
M15
G01X13.8936Y-7.875
M16
G05
G00X14.2939Y-3.75
M15
G01X14.3096Y-3.75
M16
G05
G00X14.2939Y-4.875
M15
G01X14.3096Y-4.875
M16
G05
G00X14.2939Y-5.625
M15
G01X14.3096Y-5.625
M16
G05
G00X14.2939Y-6.375
M15
G01X14.3096Y-6.375
M16
G05
G00X14.2939Y-7.125
M15
G01X14.3096Y-7.125
M16
G05
G00X14.2939Y-7.875
M15
G01X14.3096Y-7.875
M16
G05
G00X14.6279Y-3.75
M15
G01X14.6436Y-3.75
M16
G05
G00X14.6279Y-4.875
M15
G01X14.6436Y-4.875
M16
G05
G00X14.6279Y-5.625
M15
G01X14.6436Y-5.625
M16
G05
G00X14.6279Y-6.375
M15
G01X14.6436Y-6.375
M16
G05
G00X14.6279Y-7.125
M15
G01X14.6436Y-7.125
M16
G05
G00X14.6279Y-7.875
M15
G01X14.6436Y-7.875
M16
G05
G00X15.0439Y-3.75
M15
G01X15.0596Y-3.75
M16
G05
G00X15.0439Y-4.875
M15
G01X15.0596Y-4.875
M16
G05
G00X15.0439Y-5.625
M15
G01X15.0596Y-5.625
M16
G05
G00X15.0439Y-6.375
M15
G01X15.0596Y-6.375
M16
G05
G00X15.0439Y-7.125
M15
G01X15.0596Y-7.125
M16
G05
G00X15.0439Y-7.875
M15
G01X15.0596Y-7.875
M16
G05
T0
M30
