%TF.GenerationSoftware,KiCad,Pcbnew,(6.0.0)*%
%TF.CreationDate,2022-04-29T20:19:50-04:00*%
%TF.ProjectId,TwoTailed,54776f54-6169-46c6-9564-2e6b69636164,rev?*%
%TF.SameCoordinates,Original*%
%TF.FileFunction,Soldermask,Top*%
%TF.FilePolarity,Negative*%
%FSLAX46Y46*%
G04 Gerber Fmt 4.6, Leading zero omitted, Abs format (unit mm)*
G04 Created by KiCad (PCBNEW (6.0.0)) date 2022-04-29 20:19:50*
%MOMM*%
%LPD*%
G01*
G04 APERTURE LIST*
%ADD10C,2.286000*%
%ADD11C,2.032000*%
%ADD12C,3.987800*%
%ADD13O,2.150000X1.750000*%
%ADD14C,6.200000*%
%ADD15R,1.700000X1.700000*%
%ADD16O,1.700000X1.700000*%
%ADD17O,1.000000X1.600000*%
%ADD18O,1.000000X2.100000*%
%ADD19C,0.650000*%
G04 APERTURE END LIST*
D10*
%TO.C,K22*%
X258921250Y-92710000D03*
D11*
X262731250Y-89350000D03*
D10*
X265271250Y-90170000D03*
D11*
X267731250Y-91450000D03*
D12*
X262731250Y-95250000D03*
D13*
X257448050Y-95250000D03*
X268014450Y-95250000D03*
%TD*%
D11*
%TO.C,K66*%
X62706250Y-156025000D03*
D10*
X58896250Y-159385000D03*
X65246250Y-156845000D03*
D11*
X67706250Y-158125000D03*
D13*
X57423050Y-161925000D03*
X67989450Y-161925000D03*
D12*
X62706250Y-161925000D03*
%TD*%
D10*
%TO.C,K116*%
X354171250Y-197485000D03*
D11*
X357981250Y-194125000D03*
X362981250Y-196225000D03*
D10*
X360521250Y-194945000D03*
D13*
X363264450Y-200025000D03*
D12*
X357981250Y-200025000D03*
D13*
X352698050Y-200025000D03*
%TD*%
D10*
%TO.C,K57*%
X239871250Y-140335000D03*
D11*
X243681250Y-136975000D03*
X248681250Y-139075000D03*
D10*
X246221250Y-137795000D03*
D13*
X238398050Y-142875000D03*
X248964450Y-142875000D03*
D12*
X243681250Y-142875000D03*
%TD*%
D10*
%TO.C,K87*%
X125571250Y-178435000D03*
D11*
X129381250Y-175075000D03*
X134381250Y-177175000D03*
D10*
X131921250Y-175895000D03*
D13*
X124098050Y-180975000D03*
X134664450Y-180975000D03*
D12*
X129381250Y-180975000D03*
%TD*%
D11*
%TO.C,K93*%
X243681250Y-175075000D03*
D10*
X239871250Y-178435000D03*
D11*
X248681250Y-177175000D03*
D10*
X246221250Y-175895000D03*
D13*
X248964450Y-180975000D03*
D12*
X243681250Y-180975000D03*
D13*
X238398050Y-180975000D03*
%TD*%
D11*
%TO.C,K10*%
X224631250Y-70300000D03*
D10*
X220821250Y-73660000D03*
X227171250Y-71120000D03*
D11*
X229631250Y-72400000D03*
D13*
X229914450Y-76200000D03*
X219348050Y-76200000D03*
D12*
X224631250Y-76200000D03*
%TD*%
D11*
%TO.C,K86*%
X110331250Y-175075000D03*
D10*
X106521250Y-178435000D03*
D11*
X115331250Y-177175000D03*
D10*
X112871250Y-175895000D03*
D13*
X105048050Y-180975000D03*
X115614450Y-180975000D03*
D12*
X110331250Y-180975000D03*
%TD*%
D11*
%TO.C,K13*%
X91186000Y-89350000D03*
D10*
X87376000Y-92710000D03*
D11*
X96186000Y-91450000D03*
D10*
X93726000Y-90170000D03*
D12*
X91186000Y-95250000D03*
D13*
X85902800Y-95250000D03*
X96469200Y-95250000D03*
%TD*%
D10*
%TO.C,K94*%
X258921250Y-178435000D03*
D11*
X262731250Y-175075000D03*
D10*
X265271250Y-175895000D03*
D11*
X267731250Y-177175000D03*
D13*
X268014450Y-180975000D03*
D12*
X262731250Y-180975000D03*
D13*
X257448050Y-180975000D03*
%TD*%
D11*
%TO.C,K110*%
X243681250Y-194125000D03*
D10*
X239871250Y-197485000D03*
X246221250Y-194945000D03*
D11*
X248681250Y-196225000D03*
D13*
X248964450Y-200025000D03*
D12*
X243681250Y-200025000D03*
D13*
X238398050Y-200025000D03*
%TD*%
D11*
%TO.C,K60*%
X300831250Y-136975000D03*
D10*
X297021250Y-140335000D03*
X303371250Y-137795000D03*
D11*
X305831250Y-139075000D03*
D13*
X295548050Y-142875000D03*
X306114450Y-142875000D03*
D12*
X300831250Y-142875000D03*
%TD*%
D10*
%TO.C,K65*%
X39846250Y-159385000D03*
D11*
X43656250Y-156025000D03*
D10*
X46196250Y-156845000D03*
D11*
X48656250Y-158125000D03*
D12*
X43656250Y-161925000D03*
D13*
X38373050Y-161925000D03*
X48939450Y-161925000D03*
%TD*%
D11*
%TO.C,K101*%
X43656250Y-194125000D03*
D10*
X39846250Y-197485000D03*
D11*
X48656250Y-196225000D03*
D10*
X46196250Y-194945000D03*
D13*
X38373050Y-200025000D03*
D12*
X43656250Y-200025000D03*
D13*
X48939450Y-200025000D03*
%TD*%
D10*
%TO.C,K100*%
X373221250Y-178435000D03*
D11*
X377031250Y-175075000D03*
D10*
X379571250Y-175895000D03*
D11*
X382031250Y-177175000D03*
D13*
X382314450Y-180975000D03*
X371748050Y-180975000D03*
D12*
X377031250Y-180975000D03*
%TD*%
D10*
%TO.C,K88*%
X144621250Y-178435000D03*
D11*
X148431250Y-175075000D03*
D10*
X150971250Y-175895000D03*
D11*
X153431250Y-177175000D03*
D13*
X143148050Y-180975000D03*
D12*
X148431250Y-180975000D03*
D13*
X153714450Y-180975000D03*
%TD*%
D10*
%TO.C,K1*%
X39846250Y-73660000D03*
D11*
X43656250Y-70300000D03*
D10*
X46196250Y-71120000D03*
D11*
X48656250Y-72400000D03*
D13*
X38373050Y-76200000D03*
D12*
X43656250Y-76200000D03*
D13*
X48939450Y-76200000D03*
%TD*%
D11*
%TO.C,K111*%
X262731250Y-194125000D03*
D10*
X258921250Y-197485000D03*
X265271250Y-194945000D03*
D11*
X267731250Y-196225000D03*
D13*
X268014450Y-200025000D03*
D12*
X262731250Y-200025000D03*
D13*
X257448050Y-200025000D03*
%TD*%
D10*
%TO.C,K48*%
X58896250Y-140335000D03*
D11*
X62706250Y-136975000D03*
X67706250Y-139075000D03*
D10*
X65246250Y-137795000D03*
D13*
X67989450Y-142875000D03*
D12*
X62706250Y-142875000D03*
D13*
X57423050Y-142875000D03*
%TD*%
D11*
%TO.C,K59*%
X281781250Y-136975000D03*
D10*
X277971250Y-140335000D03*
X284321250Y-137795000D03*
D11*
X286781250Y-139075000D03*
D12*
X281781250Y-142875000D03*
D13*
X276498050Y-142875000D03*
X287064450Y-142875000D03*
%TD*%
D11*
%TO.C,K79*%
X319881250Y-156025000D03*
D10*
X316071250Y-159385000D03*
D11*
X324881250Y-158125000D03*
D10*
X322421250Y-156845000D03*
D13*
X325164450Y-161925000D03*
D12*
X319881250Y-161925000D03*
D13*
X314598050Y-161925000D03*
%TD*%
D10*
%TO.C,K39*%
X239871250Y-121285000D03*
D11*
X243681250Y-117925000D03*
X248681250Y-120025000D03*
D10*
X246221250Y-118745000D03*
D13*
X238398050Y-123825000D03*
D12*
X243681250Y-123825000D03*
D13*
X248964450Y-123825000D03*
%TD*%
D10*
%TO.C,K102*%
X58896250Y-197485000D03*
D11*
X62706250Y-194125000D03*
D10*
X65246250Y-194945000D03*
D11*
X67706250Y-196225000D03*
D12*
X62706250Y-200025000D03*
D13*
X57423050Y-200025000D03*
X67989450Y-200025000D03*
%TD*%
D11*
%TO.C,K64*%
X377031250Y-136975000D03*
D10*
X373221250Y-140335000D03*
X379571250Y-137795000D03*
D11*
X382031250Y-139075000D03*
D13*
X371748050Y-142875000D03*
X382314450Y-142875000D03*
D12*
X377031250Y-142875000D03*
%TD*%
D10*
%TO.C,K56*%
X220821250Y-140335000D03*
D11*
X224631250Y-136975000D03*
X229631250Y-139075000D03*
D10*
X227171250Y-137795000D03*
D12*
X224631250Y-142875000D03*
D13*
X229914450Y-142875000D03*
X219348050Y-142875000D03*
%TD*%
D11*
%TO.C,K55*%
X205581250Y-136975000D03*
D10*
X201771250Y-140335000D03*
D11*
X210581250Y-139075000D03*
D10*
X208121250Y-137795000D03*
D12*
X205581250Y-142875000D03*
D13*
X210864450Y-142875000D03*
X200298050Y-142875000D03*
%TD*%
D10*
%TO.C,K98*%
X335121250Y-178435000D03*
D11*
X338931250Y-175075000D03*
D10*
X341471250Y-175895000D03*
D11*
X343931250Y-177175000D03*
D13*
X333648050Y-180975000D03*
X344214450Y-180975000D03*
D12*
X338931250Y-180975000D03*
%TD*%
D10*
%TO.C,K58*%
X258921250Y-140335000D03*
D11*
X262731250Y-136975000D03*
D10*
X265271250Y-137795000D03*
D11*
X267731250Y-139075000D03*
D13*
X257448050Y-142875000D03*
D12*
X262731250Y-142875000D03*
D13*
X268014450Y-142875000D03*
%TD*%
D11*
%TO.C,K95*%
X281781250Y-175075000D03*
D10*
X277971250Y-178435000D03*
D11*
X286781250Y-177175000D03*
D10*
X284321250Y-175895000D03*
D12*
X281781250Y-180975000D03*
D13*
X287064450Y-180975000D03*
X276498050Y-180975000D03*
%TD*%
D10*
%TO.C,K49*%
X87471250Y-140335000D03*
D11*
X91281250Y-136975000D03*
X96281250Y-139075000D03*
D10*
X93821250Y-137795000D03*
D13*
X96564450Y-142875000D03*
D12*
X91281250Y-142875000D03*
D13*
X85998050Y-142875000D03*
%TD*%
D11*
%TO.C,K106*%
X148431250Y-194125000D03*
D10*
X144621250Y-197485000D03*
D11*
X153431250Y-196225000D03*
D10*
X150971250Y-194945000D03*
D13*
X143148050Y-200025000D03*
D12*
X148431250Y-200025000D03*
D13*
X153714450Y-200025000D03*
%TD*%
D11*
%TO.C,K103*%
X91281250Y-194125000D03*
D10*
X87471250Y-197485000D03*
D11*
X96281250Y-196225000D03*
D10*
X93821250Y-194945000D03*
D13*
X85998050Y-200025000D03*
D12*
X91281250Y-200025000D03*
D13*
X96564450Y-200025000D03*
%TD*%
D11*
%TO.C,K90*%
X186531250Y-175075000D03*
D10*
X182721250Y-178435000D03*
D11*
X191531250Y-177175000D03*
D10*
X189071250Y-175895000D03*
D12*
X186531250Y-180975000D03*
D13*
X181248050Y-180975000D03*
X191814450Y-180975000D03*
%TD*%
D10*
%TO.C,K105*%
X125571250Y-197485000D03*
D11*
X129381250Y-194125000D03*
X134381250Y-196225000D03*
D10*
X131921250Y-194945000D03*
D13*
X134664450Y-200025000D03*
X124098050Y-200025000D03*
D12*
X129381250Y-200025000D03*
%TD*%
D10*
%TO.C,K68*%
X106521250Y-159385000D03*
D11*
X110331250Y-156025000D03*
D10*
X112871250Y-156845000D03*
D11*
X115331250Y-158125000D03*
D13*
X115614450Y-161925000D03*
D12*
X110331250Y-161925000D03*
D13*
X105048050Y-161925000D03*
%TD*%
D10*
%TO.C,K73*%
X201771250Y-159385000D03*
D11*
X205581250Y-156025000D03*
X210581250Y-158125000D03*
D10*
X208121250Y-156845000D03*
D12*
X205581250Y-161925000D03*
D13*
X210864450Y-161925000D03*
X200298050Y-161925000D03*
%TD*%
D10*
%TO.C,K45*%
X354171250Y-121285000D03*
D11*
X357981250Y-117925000D03*
D10*
X360521250Y-118745000D03*
D11*
X362981250Y-120025000D03*
D13*
X363264450Y-123825000D03*
D12*
X357981250Y-123825000D03*
D13*
X352698050Y-123825000D03*
%TD*%
D10*
%TO.C,K17*%
X163671250Y-92710000D03*
D11*
X167481250Y-89350000D03*
X172481250Y-91450000D03*
D10*
X170021250Y-90170000D03*
D13*
X172764450Y-95250000D03*
D12*
X167481250Y-95250000D03*
D13*
X162198050Y-95250000D03*
%TD*%
D11*
%TO.C,K33*%
X129381250Y-117925000D03*
D10*
X125571250Y-121285000D03*
D11*
X134381250Y-120025000D03*
D10*
X131921250Y-118745000D03*
D13*
X134664450Y-123825000D03*
X124098050Y-123825000D03*
D12*
X129381250Y-123825000D03*
%TD*%
D11*
%TO.C,K15*%
X129381250Y-89350000D03*
D10*
X125571250Y-92710000D03*
D11*
X134381250Y-91450000D03*
D10*
X131921250Y-90170000D03*
D12*
X129381250Y-95250000D03*
D13*
X134664450Y-95250000D03*
X124098050Y-95250000D03*
%TD*%
D11*
%TO.C,K91*%
X205581250Y-175075000D03*
D10*
X201771250Y-178435000D03*
X208121250Y-175895000D03*
D11*
X210581250Y-177175000D03*
D13*
X210864450Y-180975000D03*
D12*
X205581250Y-180975000D03*
D13*
X200298050Y-180975000D03*
%TD*%
D11*
%TO.C,K74*%
X224631250Y-156025000D03*
D10*
X220821250Y-159385000D03*
D11*
X229631250Y-158125000D03*
D10*
X227171250Y-156845000D03*
D12*
X224631250Y-161925000D03*
D13*
X229914450Y-161925000D03*
X219348050Y-161925000D03*
%TD*%
D10*
%TO.C,K21*%
X239871250Y-92710000D03*
D11*
X243681250Y-89350000D03*
X248681250Y-91450000D03*
D10*
X246221250Y-90170000D03*
D13*
X238398050Y-95250000D03*
X248964450Y-95250000D03*
D12*
X243681250Y-95250000D03*
%TD*%
D10*
%TO.C,K117*%
X373221250Y-197485000D03*
D11*
X377031250Y-194125000D03*
X382031250Y-196225000D03*
D10*
X379571250Y-194945000D03*
D12*
X377031250Y-200025000D03*
D13*
X371748050Y-200025000D03*
X382314450Y-200025000D03*
%TD*%
D10*
%TO.C,K8*%
X182721250Y-73660000D03*
D11*
X186531250Y-70300000D03*
X191531250Y-72400000D03*
D10*
X189071250Y-71120000D03*
D12*
X186531250Y-76200000D03*
D13*
X191814450Y-76200000D03*
X181248050Y-76200000D03*
%TD*%
D10*
%TO.C,K80*%
X335121250Y-159385000D03*
D11*
X338931250Y-156025000D03*
D10*
X341471250Y-156845000D03*
D11*
X343931250Y-158125000D03*
D13*
X344214450Y-161925000D03*
D12*
X338931250Y-161925000D03*
D13*
X333648050Y-161925000D03*
%TD*%
D10*
%TO.C,K16*%
X144621250Y-92710000D03*
D11*
X148431250Y-89350000D03*
X153431250Y-91450000D03*
D10*
X150971250Y-90170000D03*
D13*
X143148050Y-95250000D03*
D12*
X148431250Y-95250000D03*
D13*
X153714450Y-95250000D03*
%TD*%
D10*
%TO.C,K2*%
X58896250Y-73660000D03*
D11*
X62706250Y-70300000D03*
D10*
X65246250Y-71120000D03*
D11*
X67706250Y-72400000D03*
D13*
X57423050Y-76200000D03*
X67989450Y-76200000D03*
D12*
X62706250Y-76200000D03*
%TD*%
D10*
%TO.C,K40*%
X258921250Y-121285000D03*
D11*
X262731250Y-117925000D03*
X267731250Y-120025000D03*
D10*
X265271250Y-118745000D03*
D13*
X257448050Y-123825000D03*
X268014450Y-123825000D03*
D12*
X262731250Y-123825000D03*
%TD*%
D10*
%TO.C,K76*%
X258921250Y-159385000D03*
D11*
X262731250Y-156025000D03*
D10*
X265271250Y-156845000D03*
D11*
X267731250Y-158125000D03*
D12*
X262731250Y-161925000D03*
D13*
X257448050Y-161925000D03*
X268014450Y-161925000D03*
%TD*%
D10*
%TO.C,K104*%
X106521250Y-197485000D03*
D11*
X110331250Y-194125000D03*
D10*
X112871250Y-194945000D03*
D11*
X115331250Y-196225000D03*
D13*
X105048050Y-200025000D03*
X115614450Y-200025000D03*
D12*
X110331250Y-200025000D03*
%TD*%
D10*
%TO.C,K114*%
X316071250Y-197485000D03*
D11*
X319881250Y-194125000D03*
D10*
X322421250Y-194945000D03*
D11*
X324881250Y-196225000D03*
D13*
X325164450Y-200025000D03*
X314598050Y-200025000D03*
D12*
X319881250Y-200025000D03*
%TD*%
D11*
%TO.C,K42*%
X300831250Y-117925000D03*
D10*
X297021250Y-121285000D03*
D11*
X305831250Y-120025000D03*
D10*
X303371250Y-118745000D03*
D13*
X295548050Y-123825000D03*
X306114450Y-123825000D03*
D12*
X300831250Y-123825000D03*
%TD*%
D11*
%TO.C,K63*%
X357981250Y-136975000D03*
D10*
X354171250Y-140335000D03*
D11*
X362981250Y-139075000D03*
D10*
X360521250Y-137795000D03*
D13*
X363264450Y-142875000D03*
X352698050Y-142875000D03*
D12*
X357981250Y-142875000D03*
%TD*%
D11*
%TO.C,K32*%
X110331250Y-117925000D03*
D10*
X106521250Y-121285000D03*
D11*
X115331250Y-120025000D03*
D10*
X112871250Y-118745000D03*
D13*
X115614450Y-123825000D03*
X105048050Y-123825000D03*
D12*
X110331250Y-123825000D03*
%TD*%
D11*
%TO.C,K61*%
X319881250Y-136975000D03*
D10*
X316071250Y-140335000D03*
D11*
X324881250Y-139075000D03*
D10*
X322421250Y-137795000D03*
D12*
X319881250Y-142875000D03*
D13*
X314598050Y-142875000D03*
X325164450Y-142875000D03*
%TD*%
D10*
%TO.C,K72*%
X182721250Y-159385000D03*
D11*
X186531250Y-156025000D03*
D10*
X189071250Y-156845000D03*
D11*
X191531250Y-158125000D03*
D12*
X186531250Y-161925000D03*
D13*
X181248050Y-161925000D03*
X191814450Y-161925000D03*
%TD*%
D11*
%TO.C,K75*%
X243681250Y-156025000D03*
D10*
X239871250Y-159385000D03*
D11*
X248681250Y-158125000D03*
D10*
X246221250Y-156845000D03*
D13*
X238398050Y-161925000D03*
D12*
X243681250Y-161925000D03*
D13*
X248964450Y-161925000D03*
%TD*%
D10*
%TO.C,K107*%
X163671250Y-197485000D03*
D11*
X167481250Y-194125000D03*
D10*
X170021250Y-194945000D03*
D11*
X172481250Y-196225000D03*
D12*
X167481250Y-200025000D03*
D13*
X162198050Y-200025000D03*
X172764450Y-200025000D03*
%TD*%
D10*
%TO.C,K38*%
X220821250Y-121285000D03*
D11*
X224631250Y-117925000D03*
D10*
X227171250Y-118745000D03*
D11*
X229631250Y-120025000D03*
D12*
X224631250Y-123825000D03*
D13*
X229914450Y-123825000D03*
X219348050Y-123825000D03*
%TD*%
D11*
%TO.C,K77*%
X281781250Y-156025000D03*
D10*
X277971250Y-159385000D03*
X284321250Y-156845000D03*
D11*
X286781250Y-158125000D03*
D13*
X287064450Y-161925000D03*
X276498050Y-161925000D03*
D12*
X281781250Y-161925000D03*
%TD*%
D10*
%TO.C,K51*%
X125571250Y-140335000D03*
D11*
X129381250Y-136975000D03*
D10*
X131921250Y-137795000D03*
D11*
X134381250Y-139075000D03*
D12*
X129381250Y-142875000D03*
D13*
X124098050Y-142875000D03*
X134664450Y-142875000D03*
%TD*%
D11*
%TO.C,K30*%
X62706250Y-117925000D03*
D10*
X58896250Y-121285000D03*
X65246250Y-118745000D03*
D11*
X67706250Y-120025000D03*
D13*
X67989450Y-123825000D03*
X57423050Y-123825000D03*
D12*
X62706250Y-123825000D03*
%TD*%
D11*
%TO.C,K70*%
X148431250Y-156025000D03*
D10*
X144621250Y-159385000D03*
D11*
X153431250Y-158125000D03*
D10*
X150971250Y-156845000D03*
D12*
X148431250Y-161925000D03*
D13*
X143148050Y-161925000D03*
X153714450Y-161925000D03*
%TD*%
D11*
%TO.C,K7*%
X167481250Y-70300000D03*
D10*
X163671250Y-73660000D03*
D11*
X172481250Y-72400000D03*
D10*
X170021250Y-71120000D03*
D13*
X162198050Y-76200000D03*
X172764450Y-76200000D03*
D12*
X167481250Y-76200000D03*
%TD*%
D10*
%TO.C,K78*%
X297021250Y-159385000D03*
D11*
X300831250Y-156025000D03*
X305831250Y-158125000D03*
D10*
X303371250Y-156845000D03*
D12*
X300831250Y-161925000D03*
D13*
X295548050Y-161925000D03*
X306114450Y-161925000D03*
%TD*%
D10*
%TO.C,K85*%
X87471250Y-178435000D03*
D11*
X91281250Y-175075000D03*
D10*
X93821250Y-175895000D03*
D11*
X96281250Y-177175000D03*
D13*
X85998050Y-180975000D03*
D12*
X91281250Y-180975000D03*
D13*
X96564450Y-180975000D03*
%TD*%
D10*
%TO.C,K14*%
X106521250Y-92710000D03*
D11*
X110331250Y-89350000D03*
D10*
X112871250Y-90170000D03*
D11*
X115331250Y-91450000D03*
D13*
X115614450Y-95250000D03*
D12*
X110331250Y-95250000D03*
D13*
X105048050Y-95250000D03*
%TD*%
D11*
%TO.C,K11*%
X43656250Y-89350000D03*
D10*
X39846250Y-92710000D03*
D11*
X48656250Y-91450000D03*
D10*
X46196250Y-90170000D03*
D13*
X38373050Y-95250000D03*
D12*
X43656250Y-95250000D03*
D13*
X48939450Y-95250000D03*
%TD*%
D11*
%TO.C,K28*%
X377031250Y-89350000D03*
D10*
X373221250Y-92710000D03*
D11*
X382031250Y-91450000D03*
D10*
X379571250Y-90170000D03*
D13*
X382314450Y-95250000D03*
X371748050Y-95250000D03*
D12*
X377031250Y-95250000D03*
%TD*%
D11*
%TO.C,K92*%
X224631250Y-175075000D03*
D10*
X220821250Y-178435000D03*
X227171250Y-175895000D03*
D11*
X229631250Y-177175000D03*
D13*
X219348050Y-180975000D03*
D12*
X224631250Y-180975000D03*
D13*
X229914450Y-180975000D03*
%TD*%
D10*
%TO.C,K52*%
X144621250Y-140335000D03*
D11*
X148431250Y-136975000D03*
D10*
X150971250Y-137795000D03*
D11*
X153431250Y-139075000D03*
D12*
X148431250Y-142875000D03*
D13*
X153714450Y-142875000D03*
X143148050Y-142875000D03*
%TD*%
D10*
%TO.C,K89*%
X163671250Y-178435000D03*
D11*
X167481250Y-175075000D03*
D10*
X170021250Y-175895000D03*
D11*
X172481250Y-177175000D03*
D12*
X167481250Y-180975000D03*
D13*
X172764450Y-180975000D03*
X162198050Y-180975000D03*
%TD*%
D11*
%TO.C,K108*%
X195897500Y-194125000D03*
D10*
X192087500Y-197485000D03*
D11*
X200897500Y-196225000D03*
D10*
X198437500Y-194945000D03*
D12*
X195897500Y-200025000D03*
D13*
X201180700Y-200025000D03*
X190614300Y-200025000D03*
%TD*%
D10*
%TO.C,K81*%
X354171250Y-159385000D03*
D11*
X357981250Y-156025000D03*
X362981250Y-158125000D03*
D10*
X360521250Y-156845000D03*
D13*
X363264450Y-161925000D03*
X352698050Y-161925000D03*
D12*
X357981250Y-161925000D03*
%TD*%
D11*
%TO.C,K27*%
X357981250Y-89350000D03*
D10*
X354171250Y-92710000D03*
D11*
X362981250Y-91450000D03*
D10*
X360521250Y-90170000D03*
D13*
X352698050Y-95250000D03*
X363264450Y-95250000D03*
D12*
X357981250Y-95250000D03*
%TD*%
D11*
%TO.C,K25*%
X319881250Y-89350000D03*
D10*
X316071250Y-92710000D03*
X322421250Y-90170000D03*
D11*
X324881250Y-91450000D03*
D13*
X314598050Y-95250000D03*
D12*
X319881250Y-95250000D03*
D13*
X325164450Y-95250000D03*
%TD*%
D10*
%TO.C,K112*%
X277971550Y-197485000D03*
D11*
X281781550Y-194125000D03*
D10*
X284321550Y-194945000D03*
D11*
X286781550Y-196225000D03*
D13*
X276498350Y-200025000D03*
D12*
X281781550Y-200025000D03*
D13*
X287064750Y-200025000D03*
%TD*%
D11*
%TO.C,K47*%
X43656250Y-136975000D03*
D10*
X39846250Y-140335000D03*
X46196250Y-137795000D03*
D11*
X48656250Y-139075000D03*
D13*
X38373050Y-142875000D03*
D12*
X43656250Y-142875000D03*
D13*
X48939450Y-142875000D03*
%TD*%
D10*
%TO.C,K83*%
X39846250Y-178435000D03*
D11*
X43656250Y-175075000D03*
D10*
X46196250Y-175895000D03*
D11*
X48656250Y-177175000D03*
D12*
X43656250Y-180975000D03*
D13*
X48939450Y-180975000D03*
X38373050Y-180975000D03*
%TD*%
D11*
%TO.C,K99*%
X357981250Y-175075000D03*
D10*
X354171250Y-178435000D03*
D11*
X362981250Y-177175000D03*
D10*
X360521250Y-175895000D03*
D13*
X363264450Y-180975000D03*
X352698050Y-180975000D03*
D12*
X357981250Y-180975000D03*
%TD*%
D10*
%TO.C,K37*%
X201771250Y-121285000D03*
D11*
X205581250Y-117925000D03*
X210581250Y-120025000D03*
D10*
X208121250Y-118745000D03*
D13*
X200298050Y-123825000D03*
X210864450Y-123825000D03*
D12*
X205581250Y-123825000D03*
%TD*%
D10*
%TO.C,K29*%
X39846250Y-121285000D03*
D11*
X43656250Y-117925000D03*
D10*
X46196250Y-118745000D03*
D11*
X48656250Y-120025000D03*
D12*
X43656250Y-123825000D03*
D13*
X48939450Y-123825000D03*
X38373050Y-123825000D03*
%TD*%
D11*
%TO.C,K20*%
X224631250Y-89350000D03*
D10*
X220821250Y-92710000D03*
X227171250Y-90170000D03*
D11*
X229631250Y-91450000D03*
D13*
X229914450Y-95250000D03*
D12*
X224631250Y-95250000D03*
D13*
X219348050Y-95250000D03*
%TD*%
D10*
%TO.C,K62*%
X335121250Y-140335000D03*
D11*
X338931250Y-136975000D03*
D10*
X341471250Y-137795000D03*
D11*
X343931250Y-139075000D03*
D13*
X344214450Y-142875000D03*
X333648050Y-142875000D03*
D12*
X338931250Y-142875000D03*
%TD*%
D11*
%TO.C,K96*%
X300831250Y-175075000D03*
D10*
X297021250Y-178435000D03*
X303371250Y-175895000D03*
D11*
X305831250Y-177175000D03*
D13*
X306114450Y-180975000D03*
D12*
X300831250Y-180975000D03*
D13*
X295548050Y-180975000D03*
%TD*%
D11*
%TO.C,K34*%
X148431250Y-117925000D03*
D10*
X144621250Y-121285000D03*
X150971250Y-118745000D03*
D11*
X153431250Y-120025000D03*
D13*
X143148050Y-123825000D03*
D12*
X148431250Y-123825000D03*
D13*
X153714450Y-123825000D03*
%TD*%
D11*
%TO.C,K41*%
X281781250Y-117925000D03*
D10*
X277971250Y-121285000D03*
X284321250Y-118745000D03*
D11*
X286781250Y-120025000D03*
D13*
X287064450Y-123825000D03*
X276498050Y-123825000D03*
D12*
X281781250Y-123825000D03*
%TD*%
D10*
%TO.C,K3*%
X87471250Y-73660000D03*
D11*
X91281250Y-70300000D03*
D10*
X93821250Y-71120000D03*
D11*
X96281250Y-72400000D03*
D12*
X91281250Y-76200000D03*
D13*
X96564450Y-76200000D03*
X85998050Y-76200000D03*
%TD*%
D11*
%TO.C,K12*%
X62706250Y-89350000D03*
D10*
X58896250Y-92710000D03*
X65246250Y-90170000D03*
D11*
X67706250Y-91450000D03*
D13*
X67989450Y-95250000D03*
D12*
X62706250Y-95250000D03*
D13*
X57423050Y-95250000D03*
%TD*%
D10*
%TO.C,K36*%
X182721250Y-121285000D03*
D11*
X186531250Y-117925000D03*
X191531250Y-120025000D03*
D10*
X189071250Y-118745000D03*
D13*
X181248050Y-123825000D03*
X191814450Y-123825000D03*
D12*
X186531250Y-123825000D03*
%TD*%
D10*
%TO.C,K19*%
X201771250Y-92710000D03*
D11*
X205581250Y-89350000D03*
D10*
X208121250Y-90170000D03*
D11*
X210581250Y-91450000D03*
D12*
X205581250Y-95250000D03*
D13*
X200298050Y-95250000D03*
X210864450Y-95250000D03*
%TD*%
D11*
%TO.C,K53*%
X167481250Y-136975000D03*
D10*
X163671250Y-140335000D03*
X170021250Y-137795000D03*
D11*
X172481250Y-139075000D03*
D13*
X162198050Y-142875000D03*
X172764450Y-142875000D03*
D12*
X167481250Y-142875000D03*
%TD*%
D10*
%TO.C,K115*%
X335121250Y-197485000D03*
D11*
X338931250Y-194125000D03*
X343931250Y-196225000D03*
D10*
X341471250Y-194945000D03*
D12*
X338931250Y-200025000D03*
D13*
X333648050Y-200025000D03*
X344214450Y-200025000D03*
%TD*%
D10*
%TO.C,K109*%
X220821250Y-197485000D03*
D11*
X224631250Y-194125000D03*
X229631250Y-196225000D03*
D10*
X227171250Y-194945000D03*
D12*
X224631250Y-200025000D03*
D13*
X219348050Y-200025000D03*
X229914450Y-200025000D03*
%TD*%
D11*
%TO.C,K50*%
X110331250Y-136975000D03*
D10*
X106521250Y-140335000D03*
X112871250Y-137795000D03*
D11*
X115331250Y-139075000D03*
D13*
X115614450Y-142875000D03*
D12*
X110331250Y-142875000D03*
D13*
X105048050Y-142875000D03*
%TD*%
D11*
%TO.C,K67*%
X91281250Y-156025000D03*
D10*
X87471250Y-159385000D03*
X93821250Y-156845000D03*
D11*
X96281250Y-158125000D03*
D13*
X96564450Y-161925000D03*
X85998050Y-161925000D03*
D12*
X91281250Y-161925000D03*
%TD*%
D10*
%TO.C,K82*%
X373221250Y-159385000D03*
D11*
X377031250Y-156025000D03*
D10*
X379571250Y-156845000D03*
D11*
X382031250Y-158125000D03*
D13*
X382314450Y-161925000D03*
X371748050Y-161925000D03*
D12*
X377031250Y-161925000D03*
%TD*%
D11*
%TO.C,K31*%
X91281250Y-117925000D03*
D10*
X87471250Y-121285000D03*
X93821250Y-118745000D03*
D11*
X96281250Y-120025000D03*
D13*
X85998050Y-123825000D03*
D12*
X91281250Y-123825000D03*
D13*
X96564450Y-123825000D03*
%TD*%
D11*
%TO.C,K6*%
X148431250Y-70300000D03*
D10*
X144621250Y-73660000D03*
D11*
X153431250Y-72400000D03*
D10*
X150971250Y-71120000D03*
D13*
X143148050Y-76200000D03*
D12*
X148431250Y-76200000D03*
D13*
X153714450Y-76200000D03*
%TD*%
D10*
%TO.C,K54*%
X182721250Y-140335000D03*
D11*
X186531250Y-136975000D03*
D10*
X189071250Y-137795000D03*
D11*
X191531250Y-139075000D03*
D13*
X191814450Y-142875000D03*
X181248050Y-142875000D03*
D12*
X186531250Y-142875000D03*
%TD*%
D10*
%TO.C,K71*%
X163671250Y-159385000D03*
D11*
X167481250Y-156025000D03*
X172481250Y-158125000D03*
D10*
X170021250Y-156845000D03*
D13*
X172764450Y-161925000D03*
D12*
X167481250Y-161925000D03*
D13*
X162198050Y-161925000D03*
%TD*%
D11*
%TO.C,K24*%
X300831250Y-89350000D03*
D10*
X297021250Y-92710000D03*
X303371250Y-90170000D03*
D11*
X305831250Y-91450000D03*
D13*
X306114450Y-95250000D03*
X295548050Y-95250000D03*
D12*
X300831250Y-95250000D03*
%TD*%
D10*
%TO.C,K23*%
X277971250Y-92710000D03*
D11*
X281781250Y-89350000D03*
X286781250Y-91450000D03*
D10*
X284321250Y-90170000D03*
D13*
X287064450Y-95250000D03*
D12*
X281781250Y-95250000D03*
D13*
X276498050Y-95250000D03*
%TD*%
D11*
%TO.C,K43*%
X319881250Y-117925000D03*
D10*
X316071250Y-121285000D03*
X322421250Y-118745000D03*
D11*
X324881250Y-120025000D03*
D13*
X314598050Y-123825000D03*
D12*
X319881250Y-123825000D03*
D13*
X325164450Y-123825000D03*
%TD*%
D10*
%TO.C,K69*%
X125571250Y-159385000D03*
D11*
X129381250Y-156025000D03*
X134381250Y-158125000D03*
D10*
X131921250Y-156845000D03*
D13*
X134664450Y-161925000D03*
X124098050Y-161925000D03*
D12*
X129381250Y-161925000D03*
%TD*%
D10*
%TO.C,K5*%
X125571250Y-73660000D03*
D11*
X129381250Y-70300000D03*
D10*
X131921250Y-71120000D03*
D11*
X134381250Y-72400000D03*
D13*
X134664450Y-76200000D03*
D12*
X129381250Y-76200000D03*
D13*
X124098050Y-76200000D03*
%TD*%
D11*
%TO.C,K46*%
X377031250Y-117925000D03*
D10*
X373221250Y-121285000D03*
D11*
X382031250Y-120025000D03*
D10*
X379571250Y-118745000D03*
D12*
X377031250Y-123825000D03*
D13*
X371748050Y-123825000D03*
X382314450Y-123825000D03*
%TD*%
D11*
%TO.C,K97*%
X319881250Y-175075000D03*
D10*
X316071250Y-178435000D03*
D11*
X324881250Y-177175000D03*
D10*
X322421250Y-175895000D03*
D12*
X319881250Y-180975000D03*
D13*
X325164450Y-180975000D03*
X314598050Y-180975000D03*
%TD*%
D11*
%TO.C,K84*%
X62706250Y-175075000D03*
D10*
X58896250Y-178435000D03*
X65246250Y-175895000D03*
D11*
X67706250Y-177175000D03*
D12*
X62706250Y-180975000D03*
D13*
X67989450Y-180975000D03*
X57423050Y-180975000D03*
%TD*%
D10*
%TO.C,K18*%
X182721250Y-92710000D03*
D11*
X186531250Y-89350000D03*
X191531250Y-91450000D03*
D10*
X189071250Y-90170000D03*
D12*
X186531250Y-95250000D03*
D13*
X181248050Y-95250000D03*
X191814450Y-95250000D03*
%TD*%
D11*
%TO.C,K4*%
X110331250Y-70300000D03*
D10*
X106521250Y-73660000D03*
X112871250Y-71120000D03*
D11*
X115331250Y-72400000D03*
D12*
X110331250Y-76200000D03*
D13*
X105048050Y-76200000D03*
X115614450Y-76200000D03*
%TD*%
D10*
%TO.C,K9*%
X201771250Y-73660000D03*
D11*
X205581250Y-70300000D03*
X210581250Y-72400000D03*
D10*
X208121250Y-71120000D03*
D12*
X205581250Y-76200000D03*
D13*
X210864450Y-76200000D03*
X200298050Y-76200000D03*
%TD*%
D10*
%TO.C,K35*%
X163671250Y-121285000D03*
D11*
X167481250Y-117925000D03*
X172481250Y-120025000D03*
D10*
X170021250Y-118745000D03*
D13*
X162198050Y-123825000D03*
D12*
X167481250Y-123825000D03*
D13*
X172764450Y-123825000D03*
%TD*%
D11*
%TO.C,K26*%
X338931250Y-89350000D03*
D10*
X335121250Y-92710000D03*
D11*
X343931250Y-91450000D03*
D10*
X341471250Y-90170000D03*
D13*
X333648050Y-95250000D03*
X344214450Y-95250000D03*
D12*
X338931250Y-95250000D03*
%TD*%
D11*
%TO.C,K113*%
X300831250Y-194125000D03*
D10*
X297021250Y-197485000D03*
D11*
X305831250Y-196225000D03*
D10*
X303371250Y-194945000D03*
D12*
X300831250Y-200025000D03*
D13*
X295548050Y-200025000D03*
X306114450Y-200025000D03*
%TD*%
D11*
%TO.C,K44*%
X338931250Y-117925000D03*
D10*
X335121250Y-121285000D03*
D11*
X343931250Y-120025000D03*
D10*
X341471250Y-118745000D03*
D12*
X338931250Y-123825000D03*
D13*
X333648050Y-123825000D03*
X344214450Y-123825000D03*
%TD*%
D14*
%TO.C,H2*%
X219075000Y-85725000D03*
%TD*%
%TO.C,H6*%
X367506250Y-190500000D03*
%TD*%
D15*
%TO.C,J2*%
X367506250Y-79995200D03*
D16*
X367506250Y-77455200D03*
X367506250Y-74915200D03*
X367506250Y-72375200D03*
%TD*%
D14*
%TO.C,H5*%
X219075000Y-191293750D03*
%TD*%
D15*
%TO.C,JT2*%
X401156250Y-111575000D03*
D16*
X401156250Y-109035000D03*
X398616250Y-111575000D03*
X398616250Y-109035000D03*
X396076250Y-111575000D03*
X396076250Y-109035000D03*
X393536250Y-111575000D03*
X393536250Y-109035000D03*
X390996250Y-111575000D03*
X390996250Y-109035000D03*
%TD*%
D17*
%TO.C,J1*%
X81313750Y-68006250D03*
D18*
X81313750Y-72186250D03*
D17*
X72673750Y-68006250D03*
D18*
X72673750Y-72186250D03*
D19*
X74103750Y-71656250D03*
X79883750Y-71656250D03*
%TD*%
D15*
%TO.C,JT1*%
X334475000Y-71125000D03*
D16*
X331935000Y-71125000D03*
X334475000Y-73665000D03*
X331935000Y-73665000D03*
X334475000Y-76205000D03*
X331935000Y-76205000D03*
X334475000Y-78745000D03*
X331935000Y-78745000D03*
X334475000Y-81285000D03*
X331935000Y-81285000D03*
%TD*%
D14*
%TO.C,H1*%
X71437500Y-85725000D03*
%TD*%
%TO.C,H4*%
X71437500Y-190500000D03*
%TD*%
%TO.C,H3*%
X367506250Y-85725000D03*
%TD*%
M02*
