%TF.GenerationSoftware,KiCad,Pcbnew,(6.0.0)*%
%TF.CreationDate,2022-04-29T20:19:50-04:00*%
%TF.ProjectId,TwoTailed,54776f54-6169-46c6-9564-2e6b69636164,rev?*%
%TF.SameCoordinates,Original*%
%TF.FileFunction,Legend,Top*%
%TF.FilePolarity,Positive*%
%FSLAX46Y46*%
G04 Gerber Fmt 4.6, Leading zero omitted, Abs format (unit mm)*
G04 Created by KiCad (PCBNEW (6.0.0)) date 2022-04-29 20:19:50*
%MOMM*%
%LPD*%
G01*
G04 APERTURE LIST*
%ADD10C,0.300000*%
%ADD11C,0.120000*%
G04 APERTURE END LIST*
D10*
X211352678Y-151578571D02*
X211352678Y-152650000D01*
X211281250Y-152864285D01*
X211138392Y-153007142D01*
X210924107Y-153078571D01*
X210781250Y-153078571D01*
X212781250Y-153078571D02*
X212066964Y-153078571D01*
X212066964Y-151578571D01*
X214138392Y-152935714D02*
X214066964Y-153007142D01*
X213852678Y-153078571D01*
X213709821Y-153078571D01*
X213495535Y-153007142D01*
X213352678Y-152864285D01*
X213281250Y-152721428D01*
X213209821Y-152435714D01*
X213209821Y-152221428D01*
X213281250Y-151935714D01*
X213352678Y-151792857D01*
X213495535Y-151650000D01*
X213709821Y-151578571D01*
X213852678Y-151578571D01*
X214066964Y-151650000D01*
X214138392Y-151721428D01*
X215209821Y-151578571D02*
X215209821Y-152650000D01*
X215138392Y-152864285D01*
X214995535Y-153007142D01*
X214781250Y-153078571D01*
X214638392Y-153078571D01*
X216638392Y-153078571D02*
X215924107Y-153078571D01*
X215924107Y-151578571D01*
X217995535Y-152935714D02*
X217924107Y-153007142D01*
X217709821Y-153078571D01*
X217566964Y-153078571D01*
X217352678Y-153007142D01*
X217209821Y-152864285D01*
X217138392Y-152721428D01*
X217066964Y-152435714D01*
X217066964Y-152221428D01*
X217138392Y-151935714D01*
X217209821Y-151792857D01*
X217352678Y-151650000D01*
X217566964Y-151578571D01*
X217709821Y-151578571D01*
X217924107Y-151650000D01*
X217995535Y-151721428D01*
X219066964Y-151578571D02*
X219066964Y-152650000D01*
X218995535Y-152864285D01*
X218852678Y-153007142D01*
X218638392Y-153078571D01*
X218495535Y-153078571D01*
X220495535Y-153078571D02*
X219781250Y-153078571D01*
X219781250Y-151578571D01*
X221852678Y-152935714D02*
X221781250Y-153007142D01*
X221566964Y-153078571D01*
X221424107Y-153078571D01*
X221209821Y-153007142D01*
X221066964Y-152864285D01*
X220995535Y-152721428D01*
X220924107Y-152435714D01*
X220924107Y-152221428D01*
X220995535Y-151935714D01*
X221066964Y-151792857D01*
X221209821Y-151650000D01*
X221424107Y-151578571D01*
X221566964Y-151578571D01*
X221781250Y-151650000D01*
X221852678Y-151721428D01*
X222924107Y-151578571D02*
X222924107Y-152650000D01*
X222852678Y-152864285D01*
X222709821Y-153007142D01*
X222495535Y-153078571D01*
X222352678Y-153078571D01*
X224352678Y-153078571D02*
X223638392Y-153078571D01*
X223638392Y-151578571D01*
X225709821Y-152935714D02*
X225638392Y-153007142D01*
X225424107Y-153078571D01*
X225281250Y-153078571D01*
X225066964Y-153007142D01*
X224924107Y-152864285D01*
X224852678Y-152721428D01*
X224781250Y-152435714D01*
X224781250Y-152221428D01*
X224852678Y-151935714D01*
X224924107Y-151792857D01*
X225066964Y-151650000D01*
X225281250Y-151578571D01*
X225424107Y-151578571D01*
X225638392Y-151650000D01*
X225709821Y-151721428D01*
D11*
%TO.C,K22*%
X255587950Y-102393300D02*
X256381650Y-102393300D01*
X255587950Y-101599600D02*
X255587950Y-102393300D01*
X269874550Y-101599600D02*
X269874550Y-102393300D01*
X269874550Y-88106700D02*
X269874550Y-88900400D01*
X255587950Y-88900400D02*
X255587950Y-88106700D01*
X269080850Y-88106700D02*
X269874550Y-88106700D01*
X255587950Y-88106700D02*
X256381650Y-88106700D01*
X269874550Y-102393300D02*
X269080850Y-102393300D01*
%TO.C,K66*%
X55562950Y-169068300D02*
X56356650Y-169068300D01*
X69849550Y-169068300D02*
X69055850Y-169068300D01*
X55562950Y-154781700D02*
X56356650Y-154781700D01*
X69055850Y-154781700D02*
X69849550Y-154781700D01*
X69849550Y-168274600D02*
X69849550Y-169068300D01*
X55562950Y-168274600D02*
X55562950Y-169068300D01*
X69849550Y-154781700D02*
X69849550Y-155575400D01*
X55562950Y-155575400D02*
X55562950Y-154781700D01*
%TO.C,K116*%
X365124550Y-192881700D02*
X365124550Y-193675400D01*
X365124550Y-207168300D02*
X364330850Y-207168300D01*
X365124550Y-206374600D02*
X365124550Y-207168300D01*
X350837950Y-193675400D02*
X350837950Y-192881700D01*
X350837950Y-192881700D02*
X351631650Y-192881700D01*
X350837950Y-207168300D02*
X351631650Y-207168300D01*
X350837950Y-206374600D02*
X350837950Y-207168300D01*
X364330850Y-192881700D02*
X365124550Y-192881700D01*
%TO.C,K57*%
X250824550Y-150018300D02*
X250030850Y-150018300D01*
X250030850Y-135731700D02*
X250824550Y-135731700D01*
X236537950Y-135731700D02*
X237331650Y-135731700D01*
X236537950Y-149224600D02*
X236537950Y-150018300D01*
X236537950Y-136525400D02*
X236537950Y-135731700D01*
X250824550Y-135731700D02*
X250824550Y-136525400D01*
X236537950Y-150018300D02*
X237331650Y-150018300D01*
X250824550Y-149224600D02*
X250824550Y-150018300D01*
%TO.C,K87*%
X122237950Y-174625400D02*
X122237950Y-173831700D01*
X122237950Y-187324600D02*
X122237950Y-188118300D01*
X122237950Y-173831700D02*
X123031650Y-173831700D01*
X135730850Y-173831700D02*
X136524550Y-173831700D01*
X136524550Y-187324600D02*
X136524550Y-188118300D01*
X136524550Y-173831700D02*
X136524550Y-174625400D01*
X136524550Y-188118300D02*
X135730850Y-188118300D01*
X122237950Y-188118300D02*
X123031650Y-188118300D01*
%TO.C,K93*%
X250824550Y-187324600D02*
X250824550Y-188118300D01*
X250824550Y-188118300D02*
X250030850Y-188118300D01*
X236537950Y-173831700D02*
X237331650Y-173831700D01*
X236537950Y-187324600D02*
X236537950Y-188118300D01*
X250030850Y-173831700D02*
X250824550Y-173831700D01*
X236537950Y-188118300D02*
X237331650Y-188118300D01*
X250824550Y-173831700D02*
X250824550Y-174625400D01*
X236537950Y-174625400D02*
X236537950Y-173831700D01*
%TO.C,K10*%
X230980850Y-69056700D02*
X231774550Y-69056700D01*
X217487950Y-69850400D02*
X217487950Y-69056700D01*
X231774550Y-69056700D02*
X231774550Y-69850400D01*
X217487950Y-82549600D02*
X217487950Y-83343300D01*
X217487950Y-83343300D02*
X218281650Y-83343300D01*
X217487950Y-69056700D02*
X218281650Y-69056700D01*
X231774550Y-82549600D02*
X231774550Y-83343300D01*
X231774550Y-83343300D02*
X230980850Y-83343300D01*
%TO.C,K86*%
X103187950Y-188118300D02*
X103981650Y-188118300D01*
X103187950Y-173831700D02*
X103981650Y-173831700D01*
X116680850Y-173831700D02*
X117474550Y-173831700D01*
X117474550Y-173831700D02*
X117474550Y-174625400D01*
X103187950Y-174625400D02*
X103187950Y-173831700D01*
X103187950Y-187324600D02*
X103187950Y-188118300D01*
X117474550Y-188118300D02*
X116680850Y-188118300D01*
X117474550Y-187324600D02*
X117474550Y-188118300D01*
%TO.C,K13*%
X98329300Y-101599600D02*
X98329300Y-102393300D01*
X84042700Y-101599600D02*
X84042700Y-102393300D01*
X98329300Y-88106700D02*
X98329300Y-88900400D01*
X84042700Y-88900400D02*
X84042700Y-88106700D01*
X84042700Y-88106700D02*
X84836400Y-88106700D01*
X98329300Y-102393300D02*
X97535600Y-102393300D01*
X97535600Y-88106700D02*
X98329300Y-88106700D01*
X84042700Y-102393300D02*
X84836400Y-102393300D01*
%TO.C,K94*%
X255587950Y-187324600D02*
X255587950Y-188118300D01*
X255587950Y-188118300D02*
X256381650Y-188118300D01*
X269874550Y-173831700D02*
X269874550Y-174625400D01*
X269874550Y-188118300D02*
X269080850Y-188118300D01*
X255587950Y-173831700D02*
X256381650Y-173831700D01*
X255587950Y-174625400D02*
X255587950Y-173831700D01*
X269874550Y-187324600D02*
X269874550Y-188118300D01*
X269080850Y-173831700D02*
X269874550Y-173831700D01*
%TO.C,K110*%
X236537950Y-193675400D02*
X236537950Y-192881700D01*
X236537950Y-192881700D02*
X237331650Y-192881700D01*
X250824550Y-207168300D02*
X250030850Y-207168300D01*
X236537950Y-207168300D02*
X237331650Y-207168300D01*
X250824550Y-206374600D02*
X250824550Y-207168300D01*
X250824550Y-192881700D02*
X250824550Y-193675400D01*
X236537950Y-206374600D02*
X236537950Y-207168300D01*
X250030850Y-192881700D02*
X250824550Y-192881700D01*
%TO.C,K60*%
X307180850Y-135731700D02*
X307974550Y-135731700D01*
X293687950Y-149224600D02*
X293687950Y-150018300D01*
X307974550Y-150018300D02*
X307180850Y-150018300D01*
X293687950Y-150018300D02*
X294481650Y-150018300D01*
X307974550Y-135731700D02*
X307974550Y-136525400D01*
X293687950Y-136525400D02*
X293687950Y-135731700D01*
X307974550Y-149224600D02*
X307974550Y-150018300D01*
X293687950Y-135731700D02*
X294481650Y-135731700D01*
%TO.C,K65*%
X50799550Y-169068300D02*
X50005850Y-169068300D01*
X36512950Y-155575400D02*
X36512950Y-154781700D01*
X50005850Y-154781700D02*
X50799550Y-154781700D01*
X50799550Y-154781700D02*
X50799550Y-155575400D01*
X36512950Y-169068300D02*
X37306650Y-169068300D01*
X36512950Y-154781700D02*
X37306650Y-154781700D01*
X36512950Y-168274600D02*
X36512950Y-169068300D01*
X50799550Y-168274600D02*
X50799550Y-169068300D01*
%TO.C,K101*%
X50799550Y-206374600D02*
X50799550Y-207168300D01*
X50799550Y-207168300D02*
X50005850Y-207168300D01*
X50005850Y-192881700D02*
X50799550Y-192881700D01*
X50799550Y-192881700D02*
X50799550Y-193675400D01*
X36512950Y-206374600D02*
X36512950Y-207168300D01*
X36512950Y-193675400D02*
X36512950Y-192881700D01*
X36512950Y-207168300D02*
X37306650Y-207168300D01*
X36512950Y-192881700D02*
X37306650Y-192881700D01*
%TO.C,K100*%
X369887950Y-187324600D02*
X369887950Y-188118300D01*
X369887950Y-173831700D02*
X370681650Y-173831700D01*
X384174550Y-173831700D02*
X384174550Y-174625400D01*
X384174550Y-187324600D02*
X384174550Y-188118300D01*
X384174550Y-188118300D02*
X383380850Y-188118300D01*
X383380850Y-173831700D02*
X384174550Y-173831700D01*
X369887950Y-174625400D02*
X369887950Y-173831700D01*
X369887950Y-188118300D02*
X370681650Y-188118300D01*
%TO.C,K88*%
X155574550Y-173831700D02*
X155574550Y-174625400D01*
X141287950Y-187324600D02*
X141287950Y-188118300D01*
X141287950Y-188118300D02*
X142081650Y-188118300D01*
X141287950Y-174625400D02*
X141287950Y-173831700D01*
X141287950Y-173831700D02*
X142081650Y-173831700D01*
X154780850Y-173831700D02*
X155574550Y-173831700D01*
X155574550Y-188118300D02*
X154780850Y-188118300D01*
X155574550Y-187324600D02*
X155574550Y-188118300D01*
%TO.C,K1*%
X36512950Y-82549600D02*
X36512950Y-83343300D01*
X50799550Y-82549600D02*
X50799550Y-83343300D01*
X50005850Y-69056700D02*
X50799550Y-69056700D01*
X36512950Y-69850400D02*
X36512950Y-69056700D01*
X50799550Y-69056700D02*
X50799550Y-69850400D01*
X36512950Y-83343300D02*
X37306650Y-83343300D01*
X36512950Y-69056700D02*
X37306650Y-69056700D01*
X50799550Y-83343300D02*
X50005850Y-83343300D01*
%TO.C,K111*%
X255587950Y-192881700D02*
X256381650Y-192881700D01*
X269874550Y-207168300D02*
X269080850Y-207168300D01*
X269874550Y-206374600D02*
X269874550Y-207168300D01*
X255587950Y-206374600D02*
X255587950Y-207168300D01*
X255587950Y-207168300D02*
X256381650Y-207168300D01*
X255587950Y-193675400D02*
X255587950Y-192881700D01*
X269874550Y-192881700D02*
X269874550Y-193675400D01*
X269080850Y-192881700D02*
X269874550Y-192881700D01*
%TO.C,K48*%
X55562950Y-135731700D02*
X56356650Y-135731700D01*
X55562950Y-149224600D02*
X55562950Y-150018300D01*
X55562950Y-150018300D02*
X56356650Y-150018300D01*
X69849550Y-150018300D02*
X69055850Y-150018300D01*
X69849550Y-135731700D02*
X69849550Y-136525400D01*
X55562950Y-136525400D02*
X55562950Y-135731700D01*
X69849550Y-149224600D02*
X69849550Y-150018300D01*
X69055850Y-135731700D02*
X69849550Y-135731700D01*
%TO.C,K59*%
X274637950Y-135731700D02*
X275431650Y-135731700D01*
X274637950Y-150018300D02*
X275431650Y-150018300D01*
X288924550Y-135731700D02*
X288924550Y-136525400D01*
X288130850Y-135731700D02*
X288924550Y-135731700D01*
X288924550Y-149224600D02*
X288924550Y-150018300D01*
X274637950Y-136525400D02*
X274637950Y-135731700D01*
X288924550Y-150018300D02*
X288130850Y-150018300D01*
X274637950Y-149224600D02*
X274637950Y-150018300D01*
%TO.C,K79*%
X312737950Y-168274600D02*
X312737950Y-169068300D01*
X327024550Y-168274600D02*
X327024550Y-169068300D01*
X327024550Y-154781700D02*
X327024550Y-155575400D01*
X312737950Y-169068300D02*
X313531650Y-169068300D01*
X327024550Y-169068300D02*
X326230850Y-169068300D01*
X312737950Y-154781700D02*
X313531650Y-154781700D01*
X326230850Y-154781700D02*
X327024550Y-154781700D01*
X312737950Y-155575400D02*
X312737950Y-154781700D01*
%TO.C,K39*%
X250824550Y-116681700D02*
X250824550Y-117475400D01*
X236537950Y-117475400D02*
X236537950Y-116681700D01*
X250824550Y-130174600D02*
X250824550Y-130968300D01*
X236537950Y-130174600D02*
X236537950Y-130968300D01*
X250824550Y-130968300D02*
X250030850Y-130968300D01*
X236537950Y-130968300D02*
X237331650Y-130968300D01*
X250030850Y-116681700D02*
X250824550Y-116681700D01*
X236537950Y-116681700D02*
X237331650Y-116681700D01*
%TO.C,K102*%
X55562950Y-192881700D02*
X56356650Y-192881700D01*
X69849550Y-206374600D02*
X69849550Y-207168300D01*
X55562950Y-193675400D02*
X55562950Y-192881700D01*
X69849550Y-207168300D02*
X69055850Y-207168300D01*
X55562950Y-207168300D02*
X56356650Y-207168300D01*
X69849550Y-192881700D02*
X69849550Y-193675400D01*
X69055850Y-192881700D02*
X69849550Y-192881700D01*
X55562950Y-206374600D02*
X55562950Y-207168300D01*
%TO.C,K64*%
X369887950Y-136525400D02*
X369887950Y-135731700D01*
X369887950Y-135731700D02*
X370681650Y-135731700D01*
X369887950Y-149224600D02*
X369887950Y-150018300D01*
X369887950Y-150018300D02*
X370681650Y-150018300D01*
X384174550Y-135731700D02*
X384174550Y-136525400D01*
X384174550Y-149224600D02*
X384174550Y-150018300D01*
X384174550Y-150018300D02*
X383380850Y-150018300D01*
X383380850Y-135731700D02*
X384174550Y-135731700D01*
%TO.C,K56*%
X217487950Y-150018300D02*
X218281650Y-150018300D01*
X231774550Y-150018300D02*
X230980850Y-150018300D01*
X230980850Y-135731700D02*
X231774550Y-135731700D01*
X231774550Y-149224600D02*
X231774550Y-150018300D01*
X217487950Y-136525400D02*
X217487950Y-135731700D01*
X231774550Y-135731700D02*
X231774550Y-136525400D01*
X217487950Y-149224600D02*
X217487950Y-150018300D01*
X217487950Y-135731700D02*
X218281650Y-135731700D01*
%TO.C,K55*%
X211930850Y-135731700D02*
X212724550Y-135731700D01*
X198437950Y-149224600D02*
X198437950Y-150018300D01*
X212724550Y-149224600D02*
X212724550Y-150018300D01*
X198437950Y-136525400D02*
X198437950Y-135731700D01*
X198437950Y-135731700D02*
X199231650Y-135731700D01*
X198437950Y-150018300D02*
X199231650Y-150018300D01*
X212724550Y-135731700D02*
X212724550Y-136525400D01*
X212724550Y-150018300D02*
X211930850Y-150018300D01*
%TO.C,K98*%
X346074550Y-187324600D02*
X346074550Y-188118300D01*
X331787950Y-187324600D02*
X331787950Y-188118300D01*
X345280850Y-173831700D02*
X346074550Y-173831700D01*
X331787950Y-188118300D02*
X332581650Y-188118300D01*
X331787950Y-174625400D02*
X331787950Y-173831700D01*
X346074550Y-188118300D02*
X345280850Y-188118300D01*
X346074550Y-173831700D02*
X346074550Y-174625400D01*
X331787950Y-173831700D02*
X332581650Y-173831700D01*
%TO.C,K58*%
X255587950Y-150018300D02*
X256381650Y-150018300D01*
X255587950Y-149224600D02*
X255587950Y-150018300D01*
X269874550Y-150018300D02*
X269080850Y-150018300D01*
X269874550Y-135731700D02*
X269874550Y-136525400D01*
X255587950Y-135731700D02*
X256381650Y-135731700D01*
X269080850Y-135731700D02*
X269874550Y-135731700D01*
X269874550Y-149224600D02*
X269874550Y-150018300D01*
X255587950Y-136525400D02*
X255587950Y-135731700D01*
%TO.C,K95*%
X288924550Y-188118300D02*
X288130850Y-188118300D01*
X274637950Y-173831700D02*
X275431650Y-173831700D01*
X274637950Y-174625400D02*
X274637950Y-173831700D01*
X288130850Y-173831700D02*
X288924550Y-173831700D01*
X274637950Y-188118300D02*
X275431650Y-188118300D01*
X288924550Y-173831700D02*
X288924550Y-174625400D01*
X274637950Y-187324600D02*
X274637950Y-188118300D01*
X288924550Y-187324600D02*
X288924550Y-188118300D01*
%TO.C,K49*%
X97630850Y-135731700D02*
X98424550Y-135731700D01*
X84137950Y-136525400D02*
X84137950Y-135731700D01*
X98424550Y-149224600D02*
X98424550Y-150018300D01*
X84137950Y-149224600D02*
X84137950Y-150018300D01*
X98424550Y-135731700D02*
X98424550Y-136525400D01*
X84137950Y-150018300D02*
X84931650Y-150018300D01*
X84137950Y-135731700D02*
X84931650Y-135731700D01*
X98424550Y-150018300D02*
X97630850Y-150018300D01*
%TO.C,K106*%
X141287950Y-207168300D02*
X142081650Y-207168300D01*
X155574550Y-206374600D02*
X155574550Y-207168300D01*
X154780850Y-192881700D02*
X155574550Y-192881700D01*
X155574550Y-207168300D02*
X154780850Y-207168300D01*
X141287950Y-192881700D02*
X142081650Y-192881700D01*
X155574550Y-192881700D02*
X155574550Y-193675400D01*
X141287950Y-206374600D02*
X141287950Y-207168300D01*
X141287950Y-193675400D02*
X141287950Y-192881700D01*
%TO.C,K103*%
X84137950Y-192881700D02*
X84931650Y-192881700D01*
X97630850Y-192881700D02*
X98424550Y-192881700D01*
X84137950Y-193675400D02*
X84137950Y-192881700D01*
X84137950Y-206374600D02*
X84137950Y-207168300D01*
X98424550Y-192881700D02*
X98424550Y-193675400D01*
X98424550Y-206374600D02*
X98424550Y-207168300D01*
X84137950Y-207168300D02*
X84931650Y-207168300D01*
X98424550Y-207168300D02*
X97630850Y-207168300D01*
%TO.C,K90*%
X193674550Y-173831700D02*
X193674550Y-174625400D01*
X179387950Y-173831700D02*
X180181650Y-173831700D01*
X179387950Y-187324600D02*
X179387950Y-188118300D01*
X179387950Y-174625400D02*
X179387950Y-173831700D01*
X179387950Y-188118300D02*
X180181650Y-188118300D01*
X193674550Y-187324600D02*
X193674550Y-188118300D01*
X193674550Y-188118300D02*
X192880850Y-188118300D01*
X192880850Y-173831700D02*
X193674550Y-173831700D01*
%TO.C,K105*%
X122237950Y-207168300D02*
X123031650Y-207168300D01*
X136524550Y-192881700D02*
X136524550Y-193675400D01*
X122237950Y-193675400D02*
X122237950Y-192881700D01*
X136524550Y-207168300D02*
X135730850Y-207168300D01*
X136524550Y-206374600D02*
X136524550Y-207168300D01*
X122237950Y-206374600D02*
X122237950Y-207168300D01*
X122237950Y-192881700D02*
X123031650Y-192881700D01*
X135730850Y-192881700D02*
X136524550Y-192881700D01*
%TO.C,K68*%
X103187950Y-155575400D02*
X103187950Y-154781700D01*
X103187950Y-168274600D02*
X103187950Y-169068300D01*
X116680850Y-154781700D02*
X117474550Y-154781700D01*
X117474550Y-168274600D02*
X117474550Y-169068300D01*
X117474550Y-169068300D02*
X116680850Y-169068300D01*
X117474550Y-154781700D02*
X117474550Y-155575400D01*
X103187950Y-169068300D02*
X103981650Y-169068300D01*
X103187950Y-154781700D02*
X103981650Y-154781700D01*
%TO.C,K73*%
X198437950Y-169068300D02*
X199231650Y-169068300D01*
X198437950Y-154781700D02*
X199231650Y-154781700D01*
X212724550Y-168274600D02*
X212724550Y-169068300D01*
X211930850Y-154781700D02*
X212724550Y-154781700D01*
X198437950Y-168274600D02*
X198437950Y-169068300D01*
X198437950Y-155575400D02*
X198437950Y-154781700D01*
X212724550Y-169068300D02*
X211930850Y-169068300D01*
X212724550Y-154781700D02*
X212724550Y-155575400D01*
%TO.C,K45*%
X365124550Y-130968300D02*
X364330850Y-130968300D01*
X350837950Y-117475400D02*
X350837950Y-116681700D01*
X364330850Y-116681700D02*
X365124550Y-116681700D01*
X350837950Y-130174600D02*
X350837950Y-130968300D01*
X350837950Y-116681700D02*
X351631650Y-116681700D01*
X365124550Y-116681700D02*
X365124550Y-117475400D01*
X365124550Y-130174600D02*
X365124550Y-130968300D01*
X350837950Y-130968300D02*
X351631650Y-130968300D01*
%TO.C,K17*%
X174624550Y-101599600D02*
X174624550Y-102393300D01*
X160337950Y-101599600D02*
X160337950Y-102393300D01*
X160337950Y-88106700D02*
X161131650Y-88106700D01*
X173830850Y-88106700D02*
X174624550Y-88106700D01*
X174624550Y-88106700D02*
X174624550Y-88900400D01*
X160337950Y-88900400D02*
X160337950Y-88106700D01*
X174624550Y-102393300D02*
X173830850Y-102393300D01*
X160337950Y-102393300D02*
X161131650Y-102393300D01*
%TO.C,K33*%
X122237950Y-116681700D02*
X123031650Y-116681700D01*
X122237950Y-117475400D02*
X122237950Y-116681700D01*
X122237950Y-130968300D02*
X123031650Y-130968300D01*
X136524550Y-130968300D02*
X135730850Y-130968300D01*
X135730850Y-116681700D02*
X136524550Y-116681700D01*
X136524550Y-130174600D02*
X136524550Y-130968300D01*
X122237950Y-130174600D02*
X122237950Y-130968300D01*
X136524550Y-116681700D02*
X136524550Y-117475400D01*
%TO.C,K15*%
X122237950Y-102393300D02*
X123031650Y-102393300D01*
X122237950Y-88900400D02*
X122237950Y-88106700D01*
X136524550Y-88106700D02*
X136524550Y-88900400D01*
X136524550Y-102393300D02*
X135730850Y-102393300D01*
X136524550Y-101599600D02*
X136524550Y-102393300D01*
X135730850Y-88106700D02*
X136524550Y-88106700D01*
X122237950Y-88106700D02*
X123031650Y-88106700D01*
X122237950Y-101599600D02*
X122237950Y-102393300D01*
%TO.C,K91*%
X212724550Y-173831700D02*
X212724550Y-174625400D01*
X198437950Y-188118300D02*
X199231650Y-188118300D01*
X211930850Y-173831700D02*
X212724550Y-173831700D01*
X198437950Y-187324600D02*
X198437950Y-188118300D01*
X198437950Y-173831700D02*
X199231650Y-173831700D01*
X212724550Y-188118300D02*
X211930850Y-188118300D01*
X198437950Y-174625400D02*
X198437950Y-173831700D01*
X212724550Y-187324600D02*
X212724550Y-188118300D01*
%TO.C,K74*%
X231774550Y-168274600D02*
X231774550Y-169068300D01*
X230980850Y-154781700D02*
X231774550Y-154781700D01*
X231774550Y-169068300D02*
X230980850Y-169068300D01*
X217487950Y-155575400D02*
X217487950Y-154781700D01*
X217487950Y-154781700D02*
X218281650Y-154781700D01*
X217487950Y-169068300D02*
X218281650Y-169068300D01*
X231774550Y-154781700D02*
X231774550Y-155575400D01*
X217487950Y-168274600D02*
X217487950Y-169068300D01*
%TO.C,K21*%
X236537950Y-101599600D02*
X236537950Y-102393300D01*
X250824550Y-101599600D02*
X250824550Y-102393300D01*
X236537950Y-88900400D02*
X236537950Y-88106700D01*
X250824550Y-102393300D02*
X250030850Y-102393300D01*
X250030850Y-88106700D02*
X250824550Y-88106700D01*
X250824550Y-88106700D02*
X250824550Y-88900400D01*
X236537950Y-88106700D02*
X237331650Y-88106700D01*
X236537950Y-102393300D02*
X237331650Y-102393300D01*
%TO.C,K117*%
X384174550Y-192881700D02*
X384174550Y-193675400D01*
X384174550Y-207168300D02*
X383380850Y-207168300D01*
X369887950Y-206374600D02*
X369887950Y-207168300D01*
X369887950Y-192881700D02*
X370681650Y-192881700D01*
X383380850Y-192881700D02*
X384174550Y-192881700D01*
X369887950Y-207168300D02*
X370681650Y-207168300D01*
X369887950Y-193675400D02*
X369887950Y-192881700D01*
X384174550Y-206374600D02*
X384174550Y-207168300D01*
%TO.C,K8*%
X179387950Y-83343300D02*
X180181650Y-83343300D01*
X179387950Y-69056700D02*
X180181650Y-69056700D01*
X192880850Y-69056700D02*
X193674550Y-69056700D01*
X193674550Y-82549600D02*
X193674550Y-83343300D01*
X193674550Y-83343300D02*
X192880850Y-83343300D01*
X193674550Y-69056700D02*
X193674550Y-69850400D01*
X179387950Y-82549600D02*
X179387950Y-83343300D01*
X179387950Y-69850400D02*
X179387950Y-69056700D01*
%TO.C,K80*%
X331787950Y-169068300D02*
X332581650Y-169068300D01*
X346074550Y-154781700D02*
X346074550Y-155575400D01*
X346074550Y-169068300D02*
X345280850Y-169068300D01*
X331787950Y-155575400D02*
X331787950Y-154781700D01*
X346074550Y-168274600D02*
X346074550Y-169068300D01*
X331787950Y-168274600D02*
X331787950Y-169068300D01*
X345280850Y-154781700D02*
X346074550Y-154781700D01*
X331787950Y-154781700D02*
X332581650Y-154781700D01*
%TO.C,K16*%
X154780850Y-88106700D02*
X155574550Y-88106700D01*
X155574550Y-88106700D02*
X155574550Y-88900400D01*
X155574550Y-101599600D02*
X155574550Y-102393300D01*
X141287950Y-88900400D02*
X141287950Y-88106700D01*
X141287950Y-101599600D02*
X141287950Y-102393300D01*
X141287950Y-88106700D02*
X142081650Y-88106700D01*
X141287950Y-102393300D02*
X142081650Y-102393300D01*
X155574550Y-102393300D02*
X154780850Y-102393300D01*
%TO.C,K2*%
X69055850Y-69056700D02*
X69849550Y-69056700D01*
X55562950Y-83343300D02*
X56356650Y-83343300D01*
X69849550Y-82549600D02*
X69849550Y-83343300D01*
X55562950Y-69850400D02*
X55562950Y-69056700D01*
X69849550Y-69056700D02*
X69849550Y-69850400D01*
X55562950Y-82549600D02*
X55562950Y-83343300D01*
X55562950Y-69056700D02*
X56356650Y-69056700D01*
X69849550Y-83343300D02*
X69055850Y-83343300D01*
%TO.C,K40*%
X255587950Y-117475400D02*
X255587950Y-116681700D01*
X255587950Y-130174600D02*
X255587950Y-130968300D01*
X269080850Y-116681700D02*
X269874550Y-116681700D01*
X269874550Y-130174600D02*
X269874550Y-130968300D01*
X269874550Y-116681700D02*
X269874550Y-117475400D01*
X269874550Y-130968300D02*
X269080850Y-130968300D01*
X255587950Y-130968300D02*
X256381650Y-130968300D01*
X255587950Y-116681700D02*
X256381650Y-116681700D01*
%TO.C,K76*%
X255587950Y-169068300D02*
X256381650Y-169068300D01*
X269874550Y-154781700D02*
X269874550Y-155575400D01*
X255587950Y-168274600D02*
X255587950Y-169068300D01*
X255587950Y-155575400D02*
X255587950Y-154781700D01*
X269874550Y-169068300D02*
X269080850Y-169068300D01*
X269874550Y-168274600D02*
X269874550Y-169068300D01*
X269080850Y-154781700D02*
X269874550Y-154781700D01*
X255587950Y-154781700D02*
X256381650Y-154781700D01*
%TO.C,K104*%
X117474550Y-206374600D02*
X117474550Y-207168300D01*
X117474550Y-207168300D02*
X116680850Y-207168300D01*
X103187950Y-192881700D02*
X103981650Y-192881700D01*
X116680850Y-192881700D02*
X117474550Y-192881700D01*
X103187950Y-193675400D02*
X103187950Y-192881700D01*
X103187950Y-207168300D02*
X103981650Y-207168300D01*
X103187950Y-206374600D02*
X103187950Y-207168300D01*
X117474550Y-192881700D02*
X117474550Y-193675400D01*
%TO.C,K114*%
X327024550Y-192881700D02*
X327024550Y-193675400D01*
X312737950Y-192881700D02*
X313531650Y-192881700D01*
X326230850Y-192881700D02*
X327024550Y-192881700D01*
X327024550Y-207168300D02*
X326230850Y-207168300D01*
X312737950Y-193675400D02*
X312737950Y-192881700D01*
X312737950Y-207168300D02*
X313531650Y-207168300D01*
X312737950Y-206374600D02*
X312737950Y-207168300D01*
X327024550Y-206374600D02*
X327024550Y-207168300D01*
%TO.C,K42*%
X293687950Y-116681700D02*
X294481650Y-116681700D01*
X293687950Y-130174600D02*
X293687950Y-130968300D01*
X293687950Y-130968300D02*
X294481650Y-130968300D01*
X307974550Y-130174600D02*
X307974550Y-130968300D01*
X307974550Y-116681700D02*
X307974550Y-117475400D01*
X307180850Y-116681700D02*
X307974550Y-116681700D01*
X293687950Y-117475400D02*
X293687950Y-116681700D01*
X307974550Y-130968300D02*
X307180850Y-130968300D01*
%TO.C,K63*%
X350837950Y-135731700D02*
X351631650Y-135731700D01*
X350837950Y-136525400D02*
X350837950Y-135731700D01*
X350837950Y-149224600D02*
X350837950Y-150018300D01*
X350837950Y-150018300D02*
X351631650Y-150018300D01*
X365124550Y-150018300D02*
X364330850Y-150018300D01*
X364330850Y-135731700D02*
X365124550Y-135731700D01*
X365124550Y-149224600D02*
X365124550Y-150018300D01*
X365124550Y-135731700D02*
X365124550Y-136525400D01*
%TO.C,K32*%
X103187950Y-117475400D02*
X103187950Y-116681700D01*
X117474550Y-130968300D02*
X116680850Y-130968300D01*
X117474550Y-130174600D02*
X117474550Y-130968300D01*
X103187950Y-130174600D02*
X103187950Y-130968300D01*
X103187950Y-130968300D02*
X103981650Y-130968300D01*
X116680850Y-116681700D02*
X117474550Y-116681700D01*
X117474550Y-116681700D02*
X117474550Y-117475400D01*
X103187950Y-116681700D02*
X103981650Y-116681700D01*
%TO.C,K61*%
X312737950Y-136525400D02*
X312737950Y-135731700D01*
X327024550Y-150018300D02*
X326230850Y-150018300D01*
X312737950Y-150018300D02*
X313531650Y-150018300D01*
X312737950Y-135731700D02*
X313531650Y-135731700D01*
X312737950Y-149224600D02*
X312737950Y-150018300D01*
X327024550Y-135731700D02*
X327024550Y-136525400D01*
X326230850Y-135731700D02*
X327024550Y-135731700D01*
X327024550Y-149224600D02*
X327024550Y-150018300D01*
%TO.C,K72*%
X179387950Y-169068300D02*
X180181650Y-169068300D01*
X193674550Y-154781700D02*
X193674550Y-155575400D01*
X179387950Y-154781700D02*
X180181650Y-154781700D01*
X179387950Y-155575400D02*
X179387950Y-154781700D01*
X192880850Y-154781700D02*
X193674550Y-154781700D01*
X179387950Y-168274600D02*
X179387950Y-169068300D01*
X193674550Y-168274600D02*
X193674550Y-169068300D01*
X193674550Y-169068300D02*
X192880850Y-169068300D01*
%TO.C,K75*%
X250030850Y-154781700D02*
X250824550Y-154781700D01*
X236537950Y-169068300D02*
X237331650Y-169068300D01*
X250824550Y-168274600D02*
X250824550Y-169068300D01*
X250824550Y-169068300D02*
X250030850Y-169068300D01*
X250824550Y-154781700D02*
X250824550Y-155575400D01*
X236537950Y-168274600D02*
X236537950Y-169068300D01*
X236537950Y-154781700D02*
X237331650Y-154781700D01*
X236537950Y-155575400D02*
X236537950Y-154781700D01*
%TO.C,K107*%
X174624550Y-207168300D02*
X173830850Y-207168300D01*
X160337950Y-192881700D02*
X161131650Y-192881700D01*
X173830850Y-192881700D02*
X174624550Y-192881700D01*
X160337950Y-207168300D02*
X161131650Y-207168300D01*
X174624550Y-192881700D02*
X174624550Y-193675400D01*
X160337950Y-206374600D02*
X160337950Y-207168300D01*
X174624550Y-206374600D02*
X174624550Y-207168300D01*
X160337950Y-193675400D02*
X160337950Y-192881700D01*
%TO.C,K38*%
X231774550Y-130174600D02*
X231774550Y-130968300D01*
X231774550Y-130968300D02*
X230980850Y-130968300D01*
X230980850Y-116681700D02*
X231774550Y-116681700D01*
X217487950Y-117475400D02*
X217487950Y-116681700D01*
X231774550Y-116681700D02*
X231774550Y-117475400D01*
X217487950Y-130968300D02*
X218281650Y-130968300D01*
X217487950Y-130174600D02*
X217487950Y-130968300D01*
X217487950Y-116681700D02*
X218281650Y-116681700D01*
%TO.C,K77*%
X274637950Y-154781700D02*
X275431650Y-154781700D01*
X274637950Y-169068300D02*
X275431650Y-169068300D01*
X274637950Y-168274600D02*
X274637950Y-169068300D01*
X288924550Y-169068300D02*
X288130850Y-169068300D01*
X288924550Y-168274600D02*
X288924550Y-169068300D01*
X274637950Y-155575400D02*
X274637950Y-154781700D01*
X288924550Y-154781700D02*
X288924550Y-155575400D01*
X288130850Y-154781700D02*
X288924550Y-154781700D01*
%TO.C,K51*%
X122237950Y-149224600D02*
X122237950Y-150018300D01*
X136524550Y-150018300D02*
X135730850Y-150018300D01*
X135730850Y-135731700D02*
X136524550Y-135731700D01*
X136524550Y-149224600D02*
X136524550Y-150018300D01*
X122237950Y-150018300D02*
X123031650Y-150018300D01*
X136524550Y-135731700D02*
X136524550Y-136525400D01*
X122237950Y-136525400D02*
X122237950Y-135731700D01*
X122237950Y-135731700D02*
X123031650Y-135731700D01*
%TO.C,K30*%
X69849550Y-116681700D02*
X69849550Y-117475400D01*
X69849550Y-130968300D02*
X69055850Y-130968300D01*
X69849550Y-130174600D02*
X69849550Y-130968300D01*
X55562950Y-116681700D02*
X56356650Y-116681700D01*
X55562950Y-130174600D02*
X55562950Y-130968300D01*
X55562950Y-117475400D02*
X55562950Y-116681700D01*
X69055850Y-116681700D02*
X69849550Y-116681700D01*
X55562950Y-130968300D02*
X56356650Y-130968300D01*
%TO.C,K70*%
X155574550Y-168274600D02*
X155574550Y-169068300D01*
X141287950Y-155575400D02*
X141287950Y-154781700D01*
X155574550Y-169068300D02*
X154780850Y-169068300D01*
X154780850Y-154781700D02*
X155574550Y-154781700D01*
X141287950Y-168274600D02*
X141287950Y-169068300D01*
X141287950Y-154781700D02*
X142081650Y-154781700D01*
X155574550Y-154781700D02*
X155574550Y-155575400D01*
X141287950Y-169068300D02*
X142081650Y-169068300D01*
%TO.C,K7*%
X174624550Y-83343300D02*
X173830850Y-83343300D01*
X174624550Y-69056700D02*
X174624550Y-69850400D01*
X174624550Y-82549600D02*
X174624550Y-83343300D01*
X160337950Y-69850400D02*
X160337950Y-69056700D01*
X160337950Y-83343300D02*
X161131650Y-83343300D01*
X160337950Y-82549600D02*
X160337950Y-83343300D01*
X173830850Y-69056700D02*
X174624550Y-69056700D01*
X160337950Y-69056700D02*
X161131650Y-69056700D01*
%TO.C,K78*%
X307180850Y-154781700D02*
X307974550Y-154781700D01*
X293687950Y-154781700D02*
X294481650Y-154781700D01*
X307974550Y-168274600D02*
X307974550Y-169068300D01*
X307974550Y-154781700D02*
X307974550Y-155575400D01*
X293687950Y-168274600D02*
X293687950Y-169068300D01*
X307974550Y-169068300D02*
X307180850Y-169068300D01*
X293687950Y-169068300D02*
X294481650Y-169068300D01*
X293687950Y-155575400D02*
X293687950Y-154781700D01*
%TO.C,K85*%
X84137950Y-188118300D02*
X84931650Y-188118300D01*
X84137950Y-173831700D02*
X84931650Y-173831700D01*
X84137950Y-187324600D02*
X84137950Y-188118300D01*
X98424550Y-188118300D02*
X97630850Y-188118300D01*
X84137950Y-174625400D02*
X84137950Y-173831700D01*
X98424550Y-173831700D02*
X98424550Y-174625400D01*
X97630850Y-173831700D02*
X98424550Y-173831700D01*
X98424550Y-187324600D02*
X98424550Y-188118300D01*
%TO.C,K14*%
X103187950Y-102393300D02*
X103981650Y-102393300D01*
X116680850Y-88106700D02*
X117474550Y-88106700D01*
X103187950Y-88900400D02*
X103187950Y-88106700D01*
X103187950Y-101599600D02*
X103187950Y-102393300D01*
X117474550Y-101599600D02*
X117474550Y-102393300D01*
X103187950Y-88106700D02*
X103981650Y-88106700D01*
X117474550Y-102393300D02*
X116680850Y-102393300D01*
X117474550Y-88106700D02*
X117474550Y-88900400D01*
%TO.C,K11*%
X50799550Y-101599600D02*
X50799550Y-102393300D01*
X36512950Y-88900400D02*
X36512950Y-88106700D01*
X50005850Y-88106700D02*
X50799550Y-88106700D01*
X36512950Y-102393300D02*
X37306650Y-102393300D01*
X36512950Y-101599600D02*
X36512950Y-102393300D01*
X50799550Y-88106700D02*
X50799550Y-88900400D01*
X36512950Y-88106700D02*
X37306650Y-88106700D01*
X50799550Y-102393300D02*
X50005850Y-102393300D01*
%TO.C,K28*%
X369887950Y-88900400D02*
X369887950Y-88106700D01*
X369887950Y-88106700D02*
X370681650Y-88106700D01*
X384174550Y-101599600D02*
X384174550Y-102393300D01*
X384174550Y-102393300D02*
X383380850Y-102393300D01*
X369887950Y-101599600D02*
X369887950Y-102393300D01*
X384174550Y-88106700D02*
X384174550Y-88900400D01*
X383380850Y-88106700D02*
X384174550Y-88106700D01*
X369887950Y-102393300D02*
X370681650Y-102393300D01*
%TO.C,K92*%
X231774550Y-187324600D02*
X231774550Y-188118300D01*
X217487950Y-173831700D02*
X218281650Y-173831700D01*
X231774550Y-188118300D02*
X230980850Y-188118300D01*
X231774550Y-173831700D02*
X231774550Y-174625400D01*
X217487950Y-187324600D02*
X217487950Y-188118300D01*
X230980850Y-173831700D02*
X231774550Y-173831700D01*
X217487950Y-174625400D02*
X217487950Y-173831700D01*
X217487950Y-188118300D02*
X218281650Y-188118300D01*
%TO.C,K52*%
X154780850Y-135731700D02*
X155574550Y-135731700D01*
X141287950Y-136525400D02*
X141287950Y-135731700D01*
X141287950Y-150018300D02*
X142081650Y-150018300D01*
X141287950Y-149224600D02*
X141287950Y-150018300D01*
X155574550Y-135731700D02*
X155574550Y-136525400D01*
X141287950Y-135731700D02*
X142081650Y-135731700D01*
X155574550Y-150018300D02*
X154780850Y-150018300D01*
X155574550Y-149224600D02*
X155574550Y-150018300D01*
%TO.C,K89*%
X174624550Y-173831700D02*
X174624550Y-174625400D01*
X160337950Y-188118300D02*
X161131650Y-188118300D01*
X160337950Y-173831700D02*
X161131650Y-173831700D01*
X174624550Y-187324600D02*
X174624550Y-188118300D01*
X160337950Y-187324600D02*
X160337950Y-188118300D01*
X174624550Y-188118300D02*
X173830850Y-188118300D01*
X173830850Y-173831700D02*
X174624550Y-173831700D01*
X160337950Y-174625400D02*
X160337950Y-173831700D01*
%TO.C,K108*%
X188754200Y-206374600D02*
X188754200Y-207168300D01*
X203040800Y-207168300D02*
X202247100Y-207168300D01*
X188754200Y-207168300D02*
X189547900Y-207168300D01*
X202247100Y-192881700D02*
X203040800Y-192881700D01*
X203040800Y-206374600D02*
X203040800Y-207168300D01*
X188754200Y-193675400D02*
X188754200Y-192881700D01*
X188754200Y-192881700D02*
X189547900Y-192881700D01*
X203040800Y-192881700D02*
X203040800Y-193675400D01*
%TO.C,K81*%
X364330850Y-154781700D02*
X365124550Y-154781700D01*
X350837950Y-168274600D02*
X350837950Y-169068300D01*
X365124550Y-154781700D02*
X365124550Y-155575400D01*
X350837950Y-155575400D02*
X350837950Y-154781700D01*
X350837950Y-169068300D02*
X351631650Y-169068300D01*
X365124550Y-169068300D02*
X364330850Y-169068300D01*
X350837950Y-154781700D02*
X351631650Y-154781700D01*
X365124550Y-168274600D02*
X365124550Y-169068300D01*
%TO.C,K27*%
X350837950Y-102393300D02*
X351631650Y-102393300D01*
X350837950Y-88106700D02*
X351631650Y-88106700D01*
X350837950Y-88900400D02*
X350837950Y-88106700D01*
X365124550Y-88106700D02*
X365124550Y-88900400D01*
X365124550Y-102393300D02*
X364330850Y-102393300D01*
X350837950Y-101599600D02*
X350837950Y-102393300D01*
X365124550Y-101599600D02*
X365124550Y-102393300D01*
X364330850Y-88106700D02*
X365124550Y-88106700D01*
%TO.C,K25*%
X327024550Y-102393300D02*
X326230850Y-102393300D01*
X327024550Y-88106700D02*
X327024550Y-88900400D01*
X326230850Y-88106700D02*
X327024550Y-88106700D01*
X312737950Y-101599600D02*
X312737950Y-102393300D01*
X327024550Y-101599600D02*
X327024550Y-102393300D01*
X312737950Y-88106700D02*
X313531650Y-88106700D01*
X312737950Y-88900400D02*
X312737950Y-88106700D01*
X312737950Y-102393300D02*
X313531650Y-102393300D01*
%TO.C,K112*%
X274638250Y-192881700D02*
X275431950Y-192881700D01*
X288924850Y-206374600D02*
X288924850Y-207168300D01*
X288924850Y-207168300D02*
X288131150Y-207168300D01*
X288131150Y-192881700D02*
X288924850Y-192881700D01*
X274638250Y-206374600D02*
X274638250Y-207168300D01*
X274638250Y-207168300D02*
X275431950Y-207168300D01*
X274638250Y-193675400D02*
X274638250Y-192881700D01*
X288924850Y-192881700D02*
X288924850Y-193675400D01*
%TO.C,K47*%
X50799550Y-150018300D02*
X50005850Y-150018300D01*
X36512950Y-149224600D02*
X36512950Y-150018300D01*
X36512950Y-136525400D02*
X36512950Y-135731700D01*
X50799550Y-135731700D02*
X50799550Y-136525400D01*
X36512950Y-150018300D02*
X37306650Y-150018300D01*
X50005850Y-135731700D02*
X50799550Y-135731700D01*
X36512950Y-135731700D02*
X37306650Y-135731700D01*
X50799550Y-149224600D02*
X50799550Y-150018300D01*
%TO.C,K83*%
X50799550Y-187324600D02*
X50799550Y-188118300D01*
X36512950Y-187324600D02*
X36512950Y-188118300D01*
X36512950Y-174625400D02*
X36512950Y-173831700D01*
X36512950Y-173831700D02*
X37306650Y-173831700D01*
X36512950Y-188118300D02*
X37306650Y-188118300D01*
X50799550Y-173831700D02*
X50799550Y-174625400D01*
X50799550Y-188118300D02*
X50005850Y-188118300D01*
X50005850Y-173831700D02*
X50799550Y-173831700D01*
%TO.C,K99*%
X350837950Y-174625400D02*
X350837950Y-173831700D01*
X350837950Y-188118300D02*
X351631650Y-188118300D01*
X350837950Y-187324600D02*
X350837950Y-188118300D01*
X365124550Y-188118300D02*
X364330850Y-188118300D01*
X350837950Y-173831700D02*
X351631650Y-173831700D01*
X364330850Y-173831700D02*
X365124550Y-173831700D01*
X365124550Y-187324600D02*
X365124550Y-188118300D01*
X365124550Y-173831700D02*
X365124550Y-174625400D01*
%TO.C,K37*%
X211930850Y-116681700D02*
X212724550Y-116681700D01*
X198437950Y-116681700D02*
X199231650Y-116681700D01*
X198437950Y-130968300D02*
X199231650Y-130968300D01*
X212724550Y-130968300D02*
X211930850Y-130968300D01*
X212724550Y-130174600D02*
X212724550Y-130968300D01*
X212724550Y-116681700D02*
X212724550Y-117475400D01*
X198437950Y-130174600D02*
X198437950Y-130968300D01*
X198437950Y-117475400D02*
X198437950Y-116681700D01*
%TO.C,K29*%
X36512950Y-130174600D02*
X36512950Y-130968300D01*
X36512950Y-130968300D02*
X37306650Y-130968300D01*
X50799550Y-130968300D02*
X50005850Y-130968300D01*
X50005850Y-116681700D02*
X50799550Y-116681700D01*
X36512950Y-117475400D02*
X36512950Y-116681700D01*
X36512950Y-116681700D02*
X37306650Y-116681700D01*
X50799550Y-130174600D02*
X50799550Y-130968300D01*
X50799550Y-116681700D02*
X50799550Y-117475400D01*
%TO.C,K20*%
X217487950Y-88106700D02*
X218281650Y-88106700D01*
X230980850Y-88106700D02*
X231774550Y-88106700D01*
X231774550Y-88106700D02*
X231774550Y-88900400D01*
X217487950Y-101599600D02*
X217487950Y-102393300D01*
X217487950Y-102393300D02*
X218281650Y-102393300D01*
X217487950Y-88900400D02*
X217487950Y-88106700D01*
X231774550Y-101599600D02*
X231774550Y-102393300D01*
X231774550Y-102393300D02*
X230980850Y-102393300D01*
%TO.C,K62*%
X331787950Y-150018300D02*
X332581650Y-150018300D01*
X345280850Y-135731700D02*
X346074550Y-135731700D01*
X331787950Y-149224600D02*
X331787950Y-150018300D01*
X346074550Y-150018300D02*
X345280850Y-150018300D01*
X331787950Y-136525400D02*
X331787950Y-135731700D01*
X331787950Y-135731700D02*
X332581650Y-135731700D01*
X346074550Y-135731700D02*
X346074550Y-136525400D01*
X346074550Y-149224600D02*
X346074550Y-150018300D01*
%TO.C,K96*%
X293687950Y-173831700D02*
X294481650Y-173831700D01*
X293687950Y-187324600D02*
X293687950Y-188118300D01*
X307974550Y-187324600D02*
X307974550Y-188118300D01*
X293687950Y-174625400D02*
X293687950Y-173831700D01*
X307180850Y-173831700D02*
X307974550Y-173831700D01*
X307974550Y-188118300D02*
X307180850Y-188118300D01*
X293687950Y-188118300D02*
X294481650Y-188118300D01*
X307974550Y-173831700D02*
X307974550Y-174625400D01*
%TO.C,K34*%
X155574550Y-130174600D02*
X155574550Y-130968300D01*
X154780850Y-116681700D02*
X155574550Y-116681700D01*
X141287950Y-130174600D02*
X141287950Y-130968300D01*
X141287950Y-116681700D02*
X142081650Y-116681700D01*
X141287950Y-130968300D02*
X142081650Y-130968300D01*
X155574550Y-116681700D02*
X155574550Y-117475400D01*
X141287950Y-117475400D02*
X141287950Y-116681700D01*
X155574550Y-130968300D02*
X154780850Y-130968300D01*
%TO.C,K41*%
X274637950Y-116681700D02*
X275431650Y-116681700D01*
X288924550Y-116681700D02*
X288924550Y-117475400D01*
X288924550Y-130968300D02*
X288130850Y-130968300D01*
X274637950Y-130968300D02*
X275431650Y-130968300D01*
X274637950Y-130174600D02*
X274637950Y-130968300D01*
X288924550Y-130174600D02*
X288924550Y-130968300D01*
X274637950Y-117475400D02*
X274637950Y-116681700D01*
X288130850Y-116681700D02*
X288924550Y-116681700D01*
%TO.C,K3*%
X84137950Y-82549600D02*
X84137950Y-83343300D01*
X98424550Y-69056700D02*
X98424550Y-69850400D01*
X98424550Y-82549600D02*
X98424550Y-83343300D01*
X97630850Y-69056700D02*
X98424550Y-69056700D01*
X84137950Y-69056700D02*
X84931650Y-69056700D01*
X84137950Y-69850400D02*
X84137950Y-69056700D01*
X98424550Y-83343300D02*
X97630850Y-83343300D01*
X84137950Y-83343300D02*
X84931650Y-83343300D01*
%TO.C,K12*%
X55562950Y-88106700D02*
X56356650Y-88106700D01*
X55562950Y-101599600D02*
X55562950Y-102393300D01*
X69849550Y-88106700D02*
X69849550Y-88900400D01*
X69849550Y-101599600D02*
X69849550Y-102393300D01*
X69055850Y-88106700D02*
X69849550Y-88106700D01*
X55562950Y-102393300D02*
X56356650Y-102393300D01*
X55562950Y-88900400D02*
X55562950Y-88106700D01*
X69849550Y-102393300D02*
X69055850Y-102393300D01*
%TO.C,K36*%
X179387950Y-130968300D02*
X180181650Y-130968300D01*
X179387950Y-117475400D02*
X179387950Y-116681700D01*
X192880850Y-116681700D02*
X193674550Y-116681700D01*
X193674550Y-130968300D02*
X192880850Y-130968300D01*
X179387950Y-130174600D02*
X179387950Y-130968300D01*
X193674550Y-130174600D02*
X193674550Y-130968300D01*
X193674550Y-116681700D02*
X193674550Y-117475400D01*
X179387950Y-116681700D02*
X180181650Y-116681700D01*
%TO.C,K19*%
X212724550Y-102393300D02*
X211930850Y-102393300D01*
X212724550Y-101599600D02*
X212724550Y-102393300D01*
X212724550Y-88106700D02*
X212724550Y-88900400D01*
X211930850Y-88106700D02*
X212724550Y-88106700D01*
X198437950Y-102393300D02*
X199231650Y-102393300D01*
X198437950Y-88900400D02*
X198437950Y-88106700D01*
X198437950Y-101599600D02*
X198437950Y-102393300D01*
X198437950Y-88106700D02*
X199231650Y-88106700D01*
%TO.C,K53*%
X174624550Y-149224600D02*
X174624550Y-150018300D01*
X160337950Y-149224600D02*
X160337950Y-150018300D01*
X160337950Y-136525400D02*
X160337950Y-135731700D01*
X174624550Y-150018300D02*
X173830850Y-150018300D01*
X174624550Y-135731700D02*
X174624550Y-136525400D01*
X160337950Y-150018300D02*
X161131650Y-150018300D01*
X160337950Y-135731700D02*
X161131650Y-135731700D01*
X173830850Y-135731700D02*
X174624550Y-135731700D01*
%TO.C,K115*%
X345280850Y-192881700D02*
X346074550Y-192881700D01*
X346074550Y-207168300D02*
X345280850Y-207168300D01*
X331787950Y-207168300D02*
X332581650Y-207168300D01*
X331787950Y-206374600D02*
X331787950Y-207168300D01*
X346074550Y-192881700D02*
X346074550Y-193675400D01*
X346074550Y-206374600D02*
X346074550Y-207168300D01*
X331787950Y-193675400D02*
X331787950Y-192881700D01*
X331787950Y-192881700D02*
X332581650Y-192881700D01*
%TO.C,K109*%
X230980850Y-192881700D02*
X231774550Y-192881700D01*
X231774550Y-207168300D02*
X230980850Y-207168300D01*
X217487950Y-193675400D02*
X217487950Y-192881700D01*
X231774550Y-192881700D02*
X231774550Y-193675400D01*
X217487950Y-192881700D02*
X218281650Y-192881700D01*
X217487950Y-207168300D02*
X218281650Y-207168300D01*
X231774550Y-206374600D02*
X231774550Y-207168300D01*
X217487950Y-206374600D02*
X217487950Y-207168300D01*
%TO.C,K50*%
X117474550Y-150018300D02*
X116680850Y-150018300D01*
X103187950Y-135731700D02*
X103981650Y-135731700D01*
X117474550Y-135731700D02*
X117474550Y-136525400D01*
X117474550Y-149224600D02*
X117474550Y-150018300D01*
X116680850Y-135731700D02*
X117474550Y-135731700D01*
X103187950Y-136525400D02*
X103187950Y-135731700D01*
X103187950Y-149224600D02*
X103187950Y-150018300D01*
X103187950Y-150018300D02*
X103981650Y-150018300D01*
%TO.C,K67*%
X84137950Y-154781700D02*
X84931650Y-154781700D01*
X98424550Y-154781700D02*
X98424550Y-155575400D01*
X84137950Y-168274600D02*
X84137950Y-169068300D01*
X98424550Y-169068300D02*
X97630850Y-169068300D01*
X98424550Y-168274600D02*
X98424550Y-169068300D01*
X84137950Y-169068300D02*
X84931650Y-169068300D01*
X84137950Y-155575400D02*
X84137950Y-154781700D01*
X97630850Y-154781700D02*
X98424550Y-154781700D01*
%TO.C,K82*%
X384174550Y-168274600D02*
X384174550Y-169068300D01*
X384174550Y-154781700D02*
X384174550Y-155575400D01*
X369887950Y-168274600D02*
X369887950Y-169068300D01*
X369887950Y-154781700D02*
X370681650Y-154781700D01*
X369887950Y-155575400D02*
X369887950Y-154781700D01*
X369887950Y-169068300D02*
X370681650Y-169068300D01*
X384174550Y-169068300D02*
X383380850Y-169068300D01*
X383380850Y-154781700D02*
X384174550Y-154781700D01*
%TO.C,K31*%
X84137950Y-117475400D02*
X84137950Y-116681700D01*
X98424550Y-130968300D02*
X97630850Y-130968300D01*
X84137950Y-130968300D02*
X84931650Y-130968300D01*
X98424550Y-116681700D02*
X98424550Y-117475400D01*
X84137950Y-116681700D02*
X84931650Y-116681700D01*
X97630850Y-116681700D02*
X98424550Y-116681700D01*
X98424550Y-130174600D02*
X98424550Y-130968300D01*
X84137950Y-130174600D02*
X84137950Y-130968300D01*
%TO.C,K6*%
X155574550Y-69056700D02*
X155574550Y-69850400D01*
X141287950Y-82549600D02*
X141287950Y-83343300D01*
X155574550Y-83343300D02*
X154780850Y-83343300D01*
X141287950Y-69056700D02*
X142081650Y-69056700D01*
X154780850Y-69056700D02*
X155574550Y-69056700D01*
X141287950Y-69850400D02*
X141287950Y-69056700D01*
X141287950Y-83343300D02*
X142081650Y-83343300D01*
X155574550Y-82549600D02*
X155574550Y-83343300D01*
%TO.C,K54*%
X179387950Y-135731700D02*
X180181650Y-135731700D01*
X179387950Y-136525400D02*
X179387950Y-135731700D01*
X192880850Y-135731700D02*
X193674550Y-135731700D01*
X179387950Y-150018300D02*
X180181650Y-150018300D01*
X179387950Y-149224600D02*
X179387950Y-150018300D01*
X193674550Y-135731700D02*
X193674550Y-136525400D01*
X193674550Y-149224600D02*
X193674550Y-150018300D01*
X193674550Y-150018300D02*
X192880850Y-150018300D01*
%TO.C,K71*%
X174624550Y-154781700D02*
X174624550Y-155575400D01*
X174624550Y-168274600D02*
X174624550Y-169068300D01*
X160337950Y-168274600D02*
X160337950Y-169068300D01*
X174624550Y-169068300D02*
X173830850Y-169068300D01*
X160337950Y-169068300D02*
X161131650Y-169068300D01*
X160337950Y-155575400D02*
X160337950Y-154781700D01*
X160337950Y-154781700D02*
X161131650Y-154781700D01*
X173830850Y-154781700D02*
X174624550Y-154781700D01*
%TO.C,K24*%
X307974550Y-101599600D02*
X307974550Y-102393300D01*
X293687950Y-88106700D02*
X294481650Y-88106700D01*
X307974550Y-88106700D02*
X307974550Y-88900400D01*
X307180850Y-88106700D02*
X307974550Y-88106700D01*
X307974550Y-102393300D02*
X307180850Y-102393300D01*
X293687950Y-102393300D02*
X294481650Y-102393300D01*
X293687950Y-101599600D02*
X293687950Y-102393300D01*
X293687950Y-88900400D02*
X293687950Y-88106700D01*
%TO.C,K23*%
X274637950Y-88106700D02*
X275431650Y-88106700D01*
X288924550Y-88106700D02*
X288924550Y-88900400D01*
X288924550Y-101599600D02*
X288924550Y-102393300D01*
X288924550Y-102393300D02*
X288130850Y-102393300D01*
X274637950Y-102393300D02*
X275431650Y-102393300D01*
X288130850Y-88106700D02*
X288924550Y-88106700D01*
X274637950Y-101599600D02*
X274637950Y-102393300D01*
X274637950Y-88900400D02*
X274637950Y-88106700D01*
%TO.C,K43*%
X327024550Y-130174600D02*
X327024550Y-130968300D01*
X326230850Y-116681700D02*
X327024550Y-116681700D01*
X312737950Y-130174600D02*
X312737950Y-130968300D01*
X312737950Y-130968300D02*
X313531650Y-130968300D01*
X312737950Y-116681700D02*
X313531650Y-116681700D01*
X327024550Y-116681700D02*
X327024550Y-117475400D01*
X327024550Y-130968300D02*
X326230850Y-130968300D01*
X312737950Y-117475400D02*
X312737950Y-116681700D01*
%TO.C,K69*%
X122237950Y-169068300D02*
X123031650Y-169068300D01*
X136524550Y-154781700D02*
X136524550Y-155575400D01*
X136524550Y-168274600D02*
X136524550Y-169068300D01*
X122237950Y-155575400D02*
X122237950Y-154781700D01*
X136524550Y-169068300D02*
X135730850Y-169068300D01*
X122237950Y-154781700D02*
X123031650Y-154781700D01*
X122237950Y-168274600D02*
X122237950Y-169068300D01*
X135730850Y-154781700D02*
X136524550Y-154781700D01*
%TO.C,K5*%
X122237950Y-83343300D02*
X123031650Y-83343300D01*
X136524550Y-82549600D02*
X136524550Y-83343300D01*
X135730850Y-69056700D02*
X136524550Y-69056700D01*
X122237950Y-82549600D02*
X122237950Y-83343300D01*
X122237950Y-69056700D02*
X123031650Y-69056700D01*
X136524550Y-83343300D02*
X135730850Y-83343300D01*
X122237950Y-69850400D02*
X122237950Y-69056700D01*
X136524550Y-69056700D02*
X136524550Y-69850400D01*
%TO.C,K46*%
X384174550Y-130174600D02*
X384174550Y-130968300D01*
X369887950Y-130174600D02*
X369887950Y-130968300D01*
X383380850Y-116681700D02*
X384174550Y-116681700D01*
X369887950Y-130968300D02*
X370681650Y-130968300D01*
X384174550Y-130968300D02*
X383380850Y-130968300D01*
X369887950Y-117475400D02*
X369887950Y-116681700D01*
X369887950Y-116681700D02*
X370681650Y-116681700D01*
X384174550Y-116681700D02*
X384174550Y-117475400D01*
%TO.C,K97*%
X326230850Y-173831700D02*
X327024550Y-173831700D01*
X327024550Y-187324600D02*
X327024550Y-188118300D01*
X327024550Y-173831700D02*
X327024550Y-174625400D01*
X312737950Y-187324600D02*
X312737950Y-188118300D01*
X312737950Y-174625400D02*
X312737950Y-173831700D01*
X312737950Y-173831700D02*
X313531650Y-173831700D01*
X312737950Y-188118300D02*
X313531650Y-188118300D01*
X327024550Y-188118300D02*
X326230850Y-188118300D01*
%TO.C,K84*%
X69055850Y-173831700D02*
X69849550Y-173831700D01*
X55562950Y-173831700D02*
X56356650Y-173831700D01*
X55562950Y-174625400D02*
X55562950Y-173831700D01*
X69849550Y-188118300D02*
X69055850Y-188118300D01*
X55562950Y-188118300D02*
X56356650Y-188118300D01*
X69849550Y-173831700D02*
X69849550Y-174625400D01*
X55562950Y-187324600D02*
X55562950Y-188118300D01*
X69849550Y-187324600D02*
X69849550Y-188118300D01*
%TO.C,K18*%
X179387950Y-88106700D02*
X180181650Y-88106700D01*
X179387950Y-102393300D02*
X180181650Y-102393300D01*
X193674550Y-102393300D02*
X192880850Y-102393300D01*
X179387950Y-88900400D02*
X179387950Y-88106700D01*
X193674550Y-88106700D02*
X193674550Y-88900400D01*
X193674550Y-101599600D02*
X193674550Y-102393300D01*
X192880850Y-88106700D02*
X193674550Y-88106700D01*
X179387950Y-101599600D02*
X179387950Y-102393300D01*
%TO.C,K4*%
X116680850Y-69056700D02*
X117474550Y-69056700D01*
X117474550Y-69056700D02*
X117474550Y-69850400D01*
X117474550Y-83343300D02*
X116680850Y-83343300D01*
X103187950Y-69850400D02*
X103187950Y-69056700D01*
X103187950Y-69056700D02*
X103981650Y-69056700D01*
X117474550Y-82549600D02*
X117474550Y-83343300D01*
X103187950Y-82549600D02*
X103187950Y-83343300D01*
X103187950Y-83343300D02*
X103981650Y-83343300D01*
%TO.C,K9*%
X212724550Y-83343300D02*
X211930850Y-83343300D01*
X198437950Y-83343300D02*
X199231650Y-83343300D01*
X198437950Y-69056700D02*
X199231650Y-69056700D01*
X212724550Y-82549600D02*
X212724550Y-83343300D01*
X198437950Y-82549600D02*
X198437950Y-83343300D01*
X198437950Y-69850400D02*
X198437950Y-69056700D01*
X211930850Y-69056700D02*
X212724550Y-69056700D01*
X212724550Y-69056700D02*
X212724550Y-69850400D01*
%TO.C,K35*%
X160337950Y-117475400D02*
X160337950Y-116681700D01*
X173830850Y-116681700D02*
X174624550Y-116681700D01*
X160337950Y-116681700D02*
X161131650Y-116681700D01*
X174624550Y-116681700D02*
X174624550Y-117475400D01*
X174624550Y-130174600D02*
X174624550Y-130968300D01*
X174624550Y-130968300D02*
X173830850Y-130968300D01*
X160337950Y-130968300D02*
X161131650Y-130968300D01*
X160337950Y-130174600D02*
X160337950Y-130968300D01*
%TO.C,K26*%
X346074550Y-88106700D02*
X346074550Y-88900400D01*
X346074550Y-102393300D02*
X345280850Y-102393300D01*
X331787950Y-102393300D02*
X332581650Y-102393300D01*
X345280850Y-88106700D02*
X346074550Y-88106700D01*
X346074550Y-101599600D02*
X346074550Y-102393300D01*
X331787950Y-88106700D02*
X332581650Y-88106700D01*
X331787950Y-101599600D02*
X331787950Y-102393300D01*
X331787950Y-88900400D02*
X331787950Y-88106700D01*
%TO.C,K113*%
X307974550Y-192881700D02*
X307974550Y-193675400D01*
X307180850Y-192881700D02*
X307974550Y-192881700D01*
X293687950Y-193675400D02*
X293687950Y-192881700D01*
X293687950Y-192881700D02*
X294481650Y-192881700D01*
X293687950Y-206374600D02*
X293687950Y-207168300D01*
X293687950Y-207168300D02*
X294481650Y-207168300D01*
X307974550Y-206374600D02*
X307974550Y-207168300D01*
X307974550Y-207168300D02*
X307180850Y-207168300D01*
%TO.C,K44*%
X345280850Y-116681700D02*
X346074550Y-116681700D01*
X346074550Y-116681700D02*
X346074550Y-117475400D01*
X346074550Y-130968300D02*
X345280850Y-130968300D01*
X331787950Y-130968300D02*
X332581650Y-130968300D01*
X331787950Y-117475400D02*
X331787950Y-116681700D01*
X331787950Y-130174600D02*
X331787950Y-130968300D01*
X346074550Y-130174600D02*
X346074550Y-130968300D01*
X331787950Y-116681700D02*
X332581650Y-116681700D01*
%TD*%
M02*
