%TF.GenerationSoftware,KiCad,Pcbnew,(6.0.0)*%
%TF.CreationDate,2022-04-25T19:56:53-04:00*%
%TF.ProjectId,HL-2040,484c2d32-3034-4302-9e6b-696361645f70,Mark 2 Rev F*%
%TF.SameCoordinates,Original*%
%TF.FileFunction,Soldermask,Bot*%
%TF.FilePolarity,Negative*%
%FSLAX46Y46*%
G04 Gerber Fmt 4.6, Leading zero omitted, Abs format (unit mm)*
G04 Created by KiCad (PCBNEW (6.0.0)) date 2022-04-25 19:56:53*
%MOMM*%
%LPD*%
G01*
G04 APERTURE LIST*
G04 Aperture macros list*
%AMRoundRect*
0 Rectangle with rounded corners*
0 $1 Rounding radius*
0 $2 $3 $4 $5 $6 $7 $8 $9 X,Y pos of 4 corners*
0 Add a 4 corners polygon primitive as box body*
4,1,4,$2,$3,$4,$5,$6,$7,$8,$9,$2,$3,0*
0 Add four circle primitives for the rounded corners*
1,1,$1+$1,$2,$3*
1,1,$1+$1,$4,$5*
1,1,$1+$1,$6,$7*
1,1,$1+$1,$8,$9*
0 Add four rect primitives between the rounded corners*
20,1,$1+$1,$2,$3,$4,$5,0*
20,1,$1+$1,$4,$5,$6,$7,0*
20,1,$1+$1,$6,$7,$8,$9,0*
20,1,$1+$1,$8,$9,$2,$3,0*%
G04 Aperture macros list end*
%ADD10O,2.150000X1.750000*%
%ADD11C,3.987800*%
%ADD12C,2.032000*%
%ADD13C,2.286000*%
%ADD14O,3.300000X1.750000*%
%ADD15C,6.200000*%
%ADD16RoundRect,0.147500X-0.147500X-0.172500X0.147500X-0.172500X0.147500X0.172500X-0.147500X0.172500X0*%
%ADD17RoundRect,0.147500X0.147500X0.172500X-0.147500X0.172500X-0.147500X-0.172500X0.147500X-0.172500X0*%
%ADD18RoundRect,0.147500X0.172500X-0.147500X0.172500X0.147500X-0.172500X0.147500X-0.172500X-0.147500X0*%
%ADD19R,0.550000X0.550000*%
%ADD20RoundRect,0.050000X0.387500X0.050000X-0.387500X0.050000X-0.387500X-0.050000X0.387500X-0.050000X0*%
%ADD21RoundRect,0.050000X0.050000X0.387500X-0.050000X0.387500X-0.050000X-0.387500X0.050000X-0.387500X0*%
%ADD22R,3.050000X3.050000*%
%ADD23R,0.700000X0.600000*%
%ADD24RoundRect,0.147500X-0.172500X0.147500X-0.172500X-0.147500X0.172500X-0.147500X0.172500X0.147500X0*%
%ADD25RoundRect,0.212500X-0.212500X0.400000X-0.212500X-0.400000X0.212500X-0.400000X0.212500X0.400000X0*%
%ADD26R,0.800000X0.900000*%
%ADD27C,0.650000*%
%ADD28R,0.600000X1.450000*%
%ADD29R,0.300000X1.450000*%
%ADD30O,1.000000X1.600000*%
%ADD31O,1.000000X2.100000*%
%ADD32R,0.700000X0.700000*%
%ADD33R,2.000000X4.200000*%
%ADD34RoundRect,0.150000X-0.150000X0.650000X-0.150000X-0.650000X0.150000X-0.650000X0.150000X0.650000X0*%
%ADD35R,1.400000X1.200000*%
%ADD36RoundRect,0.150000X0.150000X-0.512500X0.150000X0.512500X-0.150000X0.512500X-0.150000X-0.512500X0*%
G04 APERTURE END LIST*
D10*
%TO.C,K2*%
X63226950Y-80962500D03*
D11*
X57943750Y-80962500D03*
D10*
X52660550Y-80962500D03*
D12*
X62943750Y-77162500D03*
D13*
X60483750Y-75882500D03*
D12*
X57943750Y-75062500D03*
D13*
X54133750Y-78422500D03*
%TD*%
D10*
%TO.C,K3*%
X71710550Y-80949800D03*
X82276950Y-80949800D03*
D11*
X76993750Y-80949800D03*
D12*
X81993750Y-77149800D03*
D13*
X79533750Y-75869800D03*
D12*
X76993750Y-75049800D03*
D13*
X73183750Y-78409800D03*
%TD*%
D11*
%TO.C,K6*%
X134143750Y-80962500D03*
D10*
X128860550Y-80962500D03*
X139426950Y-80962500D03*
D12*
X139143750Y-77162500D03*
D13*
X136683750Y-75882500D03*
D12*
X134143750Y-75062500D03*
D13*
X130333750Y-78422500D03*
%TD*%
D10*
%TO.C,K7*%
X158476950Y-80962500D03*
D11*
X153193750Y-80962500D03*
D10*
X147910550Y-80962500D03*
D12*
X158193750Y-77162500D03*
D13*
X155733750Y-75882500D03*
X149383750Y-78422500D03*
D12*
X153193750Y-75062500D03*
%TD*%
D11*
%TO.C,K8*%
X172243750Y-80962500D03*
D10*
X177526950Y-80962500D03*
X166960550Y-80962500D03*
D12*
X177243750Y-77162500D03*
D13*
X174783750Y-75882500D03*
X168433750Y-78422500D03*
D12*
X172243750Y-75062500D03*
%TD*%
D10*
%TO.C,K9*%
X196576950Y-80962500D03*
D11*
X191293750Y-80962500D03*
D10*
X186010550Y-80962500D03*
D13*
X193833750Y-75882500D03*
D12*
X196293750Y-77162500D03*
D13*
X187483750Y-78422500D03*
D12*
X191293750Y-75062500D03*
%TD*%
D10*
%TO.C,K10*%
X205060550Y-80962500D03*
D11*
X210343750Y-80962500D03*
D10*
X215626950Y-80962500D03*
D13*
X212883750Y-75882500D03*
D12*
X215343750Y-77162500D03*
X210343750Y-75062500D03*
D13*
X206533750Y-78422500D03*
%TD*%
D11*
%TO.C,K11*%
X229393750Y-80962500D03*
D10*
X224110550Y-80962500D03*
X234676950Y-80962500D03*
D13*
X231933750Y-75882500D03*
D12*
X234393750Y-77162500D03*
X229393750Y-75062500D03*
D13*
X225583750Y-78422500D03*
%TD*%
D10*
%TO.C,K12*%
X253726950Y-80962500D03*
D11*
X248443750Y-80962500D03*
D10*
X243160550Y-80962500D03*
D13*
X250983750Y-75882500D03*
D12*
X253443750Y-77162500D03*
X248443750Y-75062500D03*
D13*
X244633750Y-78422500D03*
%TD*%
D10*
%TO.C,K13*%
X272776950Y-80962500D03*
D11*
X267493750Y-80962500D03*
D10*
X262210550Y-80962500D03*
D13*
X270033750Y-75882500D03*
D12*
X272493750Y-77162500D03*
D13*
X263683750Y-78422500D03*
D12*
X267493750Y-75062500D03*
%TD*%
D11*
%TO.C,K14*%
X286543750Y-80962500D03*
D10*
X281260550Y-80962500D03*
X291826950Y-80962500D03*
D13*
X289083750Y-75882500D03*
D12*
X291543750Y-77162500D03*
D13*
X282733750Y-78422500D03*
D12*
X286543750Y-75062500D03*
%TD*%
D11*
%TO.C,K15*%
X305593750Y-80962500D03*
D10*
X310876950Y-80962500D03*
X300310550Y-80962500D03*
D13*
X308133750Y-75882500D03*
D12*
X310593750Y-77162500D03*
X305593750Y-75062500D03*
D13*
X301783750Y-78422500D03*
%TD*%
D10*
%TO.C,K16*%
X319360550Y-80962500D03*
X329926950Y-80962500D03*
D11*
X324643750Y-80962500D03*
D12*
X329643750Y-77162500D03*
D13*
X327183750Y-75882500D03*
X320833750Y-78422500D03*
D12*
X324643750Y-75062500D03*
%TD*%
D11*
%TO.C,K17*%
X38893750Y-100012500D03*
D10*
X33610550Y-100012500D03*
X44176950Y-100012500D03*
D12*
X43893750Y-96212500D03*
D13*
X41433750Y-94932500D03*
D12*
X38893750Y-94112500D03*
D13*
X35083750Y-97472500D03*
%TD*%
D10*
%TO.C,K18*%
X63226950Y-100012500D03*
X52660550Y-100012500D03*
D11*
X57943750Y-100012500D03*
D13*
X60483750Y-94932500D03*
D12*
X62943750Y-96212500D03*
D13*
X54133750Y-97472500D03*
D12*
X57943750Y-94112500D03*
%TD*%
D11*
%TO.C,K19*%
X76993750Y-100012500D03*
D10*
X82276950Y-100012500D03*
X71710550Y-100012500D03*
D12*
X81993750Y-96212500D03*
D13*
X79533750Y-94932500D03*
X73183750Y-97472500D03*
D12*
X76993750Y-94112500D03*
%TD*%
D10*
%TO.C,K22*%
X128860550Y-100012500D03*
D11*
X134143750Y-100012500D03*
D10*
X139426950Y-100012500D03*
D13*
X136683750Y-94932500D03*
D12*
X139143750Y-96212500D03*
D13*
X130333750Y-97472500D03*
D12*
X134143750Y-94112500D03*
%TD*%
D10*
%TO.C,K23*%
X147910550Y-100012500D03*
X158476950Y-100012500D03*
D11*
X153193750Y-100012500D03*
D13*
X155733750Y-94932500D03*
D12*
X158193750Y-96212500D03*
D13*
X149383750Y-97472500D03*
D12*
X153193750Y-94112500D03*
%TD*%
D10*
%TO.C,K24*%
X166960550Y-100012500D03*
X177526950Y-100012500D03*
D11*
X172243750Y-100012500D03*
D13*
X174783750Y-94932500D03*
D12*
X177243750Y-96212500D03*
D13*
X168433750Y-97472500D03*
D12*
X172243750Y-94112500D03*
%TD*%
D10*
%TO.C,K25*%
X186010550Y-100012500D03*
X196576950Y-100012500D03*
D11*
X191293750Y-100012500D03*
D13*
X193833750Y-94932500D03*
D12*
X196293750Y-96212500D03*
X191293750Y-94112500D03*
D13*
X187483750Y-97472500D03*
%TD*%
D11*
%TO.C,K26*%
X210343750Y-100012500D03*
D10*
X215626950Y-100012500D03*
X205060550Y-100012500D03*
D12*
X215343750Y-96212500D03*
D13*
X212883750Y-94932500D03*
D12*
X210343750Y-94112500D03*
D13*
X206533750Y-97472500D03*
%TD*%
D10*
%TO.C,K27*%
X234676950Y-100012500D03*
D11*
X229393750Y-100012500D03*
D10*
X224110550Y-100012500D03*
D12*
X234393750Y-96212500D03*
D13*
X231933750Y-94932500D03*
D12*
X229393750Y-94112500D03*
D13*
X225583750Y-97472500D03*
%TD*%
D10*
%TO.C,K28*%
X243160550Y-100012500D03*
D11*
X248443750Y-100012500D03*
D10*
X253726950Y-100012500D03*
D12*
X253443750Y-96212500D03*
D13*
X250983750Y-94932500D03*
D12*
X248443750Y-94112500D03*
D13*
X244633750Y-97472500D03*
%TD*%
D11*
%TO.C,K29*%
X267493750Y-100012500D03*
D10*
X272776950Y-100012500D03*
X262210550Y-100012500D03*
D13*
X270033750Y-94932500D03*
D12*
X272493750Y-96212500D03*
X267493750Y-94112500D03*
D13*
X263683750Y-97472500D03*
%TD*%
D11*
%TO.C,K30*%
X286543750Y-100012500D03*
D10*
X281260550Y-100012500D03*
X291826950Y-100012500D03*
D13*
X289083750Y-94932500D03*
D12*
X291543750Y-96212500D03*
D13*
X282733750Y-97472500D03*
D12*
X286543750Y-94112500D03*
%TD*%
D10*
%TO.C,K31*%
X310876950Y-100012500D03*
D11*
X305593750Y-100012500D03*
D10*
X300310550Y-100012500D03*
D12*
X310593750Y-96212500D03*
D13*
X308133750Y-94932500D03*
X301783750Y-97472500D03*
D12*
X305593750Y-94112500D03*
%TD*%
D10*
%TO.C,K32*%
X319360550Y-100012500D03*
X329926950Y-100012500D03*
D11*
X324643750Y-100012500D03*
D13*
X327183750Y-94932500D03*
D12*
X329643750Y-96212500D03*
X324643750Y-94112500D03*
D13*
X320833750Y-97472500D03*
%TD*%
D10*
%TO.C,K33*%
X33610550Y-119062500D03*
D11*
X38893750Y-119062500D03*
D10*
X44176950Y-119062500D03*
D12*
X43893750Y-115262500D03*
D13*
X41433750Y-113982500D03*
D12*
X38893750Y-113162500D03*
D13*
X35083750Y-116522500D03*
%TD*%
D10*
%TO.C,K34*%
X52660550Y-119062500D03*
D11*
X57943750Y-119062500D03*
D10*
X63226950Y-119062500D03*
D12*
X62943750Y-115262500D03*
D13*
X60483750Y-113982500D03*
D12*
X57943750Y-113162500D03*
D13*
X54133750Y-116522500D03*
%TD*%
D10*
%TO.C,K35*%
X71710550Y-119062500D03*
D11*
X76993750Y-119062500D03*
D10*
X82276950Y-119062500D03*
D12*
X81993750Y-115262500D03*
D13*
X79533750Y-113982500D03*
D12*
X76993750Y-113162500D03*
D13*
X73183750Y-116522500D03*
%TD*%
D11*
%TO.C,K36*%
X96043750Y-119062500D03*
D10*
X90760550Y-119062500D03*
X101326950Y-119062500D03*
D13*
X98583750Y-113982500D03*
D12*
X101043750Y-115262500D03*
D13*
X92233750Y-116522500D03*
D12*
X96043750Y-113162500D03*
%TD*%
D11*
%TO.C,K37*%
X115093750Y-119062500D03*
D10*
X109810550Y-119062500D03*
X120376950Y-119062500D03*
D13*
X117633750Y-113982500D03*
D12*
X120093750Y-115262500D03*
X115093750Y-113162500D03*
D13*
X111283750Y-116522500D03*
%TD*%
D10*
%TO.C,K38*%
X139426950Y-119062500D03*
X128860550Y-119062500D03*
D11*
X134143750Y-119062500D03*
D12*
X139143750Y-115262500D03*
D13*
X136683750Y-113982500D03*
D12*
X134143750Y-113162500D03*
D13*
X130333750Y-116522500D03*
%TD*%
D10*
%TO.C,K39*%
X147910550Y-119062500D03*
X158476950Y-119062500D03*
D11*
X153193750Y-119062500D03*
D13*
X155733750Y-113982500D03*
D12*
X158193750Y-115262500D03*
X153193750Y-113162500D03*
D13*
X149383750Y-116522500D03*
%TD*%
D10*
%TO.C,K40*%
X166960550Y-119062500D03*
D11*
X172243750Y-119062500D03*
D10*
X177526950Y-119062500D03*
D12*
X177243750Y-115262500D03*
D13*
X174783750Y-113982500D03*
D12*
X172243750Y-113162500D03*
D13*
X168433750Y-116522500D03*
%TD*%
D10*
%TO.C,K41*%
X196576950Y-119062500D03*
D11*
X191293750Y-119062500D03*
D10*
X186010550Y-119062500D03*
D12*
X196293750Y-115262500D03*
D13*
X193833750Y-113982500D03*
D12*
X191293750Y-113162500D03*
D13*
X187483750Y-116522500D03*
%TD*%
D10*
%TO.C,K42*%
X215626950Y-119062500D03*
D11*
X210343750Y-119062500D03*
D10*
X205060550Y-119062500D03*
D13*
X212883750Y-113982500D03*
D12*
X215343750Y-115262500D03*
D13*
X206533750Y-116522500D03*
D12*
X210343750Y-113162500D03*
%TD*%
D10*
%TO.C,K43*%
X234676950Y-119062500D03*
X224110550Y-119062500D03*
D11*
X229393750Y-119062500D03*
D12*
X234393750Y-115262500D03*
D13*
X231933750Y-113982500D03*
X225583750Y-116522500D03*
D12*
X229393750Y-113162500D03*
%TD*%
D10*
%TO.C,K44*%
X243160550Y-119062500D03*
D11*
X248443750Y-119062500D03*
D10*
X253726950Y-119062500D03*
D13*
X250983750Y-113982500D03*
D12*
X253443750Y-115262500D03*
X248443750Y-113162500D03*
D13*
X244633750Y-116522500D03*
%TD*%
D11*
%TO.C,K45*%
X267493750Y-119062500D03*
D10*
X272776950Y-119062500D03*
X262210550Y-119062500D03*
D13*
X270033750Y-113982500D03*
D12*
X272493750Y-115262500D03*
X267493750Y-113162500D03*
D13*
X263683750Y-116522500D03*
%TD*%
D10*
%TO.C,K46*%
X281260550Y-119062500D03*
D11*
X286543750Y-119062500D03*
D10*
X291826950Y-119062500D03*
D13*
X289083750Y-113982500D03*
D12*
X291543750Y-115262500D03*
X286543750Y-113162500D03*
D13*
X282733750Y-116522500D03*
%TD*%
D10*
%TO.C,K47*%
X300310550Y-119062500D03*
D11*
X305593750Y-119062500D03*
D10*
X310876950Y-119062500D03*
D12*
X310593750Y-115262500D03*
D13*
X308133750Y-113982500D03*
X301783750Y-116522500D03*
D12*
X305593750Y-113162500D03*
%TD*%
D11*
%TO.C,K48*%
X324643750Y-119062500D03*
D10*
X329926950Y-119062500D03*
X319360550Y-119062500D03*
D13*
X327183750Y-113982500D03*
D12*
X329643750Y-115262500D03*
D13*
X320833750Y-116522500D03*
D12*
X324643750Y-113162500D03*
%TD*%
D11*
%TO.C,K49*%
X38893750Y-138112500D03*
D10*
X44176950Y-138112500D03*
X33610550Y-138112500D03*
D12*
X43893750Y-134312500D03*
D13*
X41433750Y-133032500D03*
D12*
X38893750Y-132212500D03*
D13*
X35083750Y-135572500D03*
%TD*%
D10*
%TO.C,K50*%
X63226950Y-138112500D03*
D11*
X57943750Y-138112500D03*
D10*
X52660550Y-138112500D03*
D12*
X62943750Y-134312500D03*
D13*
X60483750Y-133032500D03*
D12*
X57943750Y-132212500D03*
D13*
X54133750Y-135572500D03*
%TD*%
D10*
%TO.C,K51*%
X82276950Y-138112500D03*
X71710550Y-138112500D03*
D11*
X76993750Y-138112500D03*
D13*
X79533750Y-133032500D03*
D12*
X81993750Y-134312500D03*
D13*
X73183750Y-135572500D03*
D12*
X76993750Y-132212500D03*
%TD*%
D10*
%TO.C,K52*%
X101326950Y-138112500D03*
D11*
X96043750Y-138112500D03*
D10*
X90760550Y-138112500D03*
D12*
X101043750Y-134312500D03*
D13*
X98583750Y-133032500D03*
D12*
X96043750Y-132212500D03*
D13*
X92233750Y-135572500D03*
%TD*%
D11*
%TO.C,K53*%
X115093750Y-138112500D03*
D10*
X120376950Y-138112500D03*
X109810550Y-138112500D03*
D12*
X120093750Y-134312500D03*
D13*
X117633750Y-133032500D03*
X111283750Y-135572500D03*
D12*
X115093750Y-132212500D03*
%TD*%
D14*
%TO.C,K54*%
X138905950Y-138112500D03*
D10*
X128860550Y-138112500D03*
D14*
X148367750Y-138112500D03*
D11*
X134143750Y-138112500D03*
X143668150Y-138112500D03*
D12*
X138668150Y-141912500D03*
D13*
X141128150Y-143192500D03*
D12*
X139143750Y-134312500D03*
D13*
X136683750Y-133032500D03*
X130333750Y-135572500D03*
D12*
X134143750Y-132212500D03*
D13*
X147478150Y-140652500D03*
D12*
X143668150Y-144012500D03*
%TD*%
D10*
%TO.C,K55*%
X158476950Y-138112500D03*
D11*
X153193750Y-138112500D03*
D10*
X147910550Y-138112500D03*
D13*
X155733750Y-133032500D03*
D12*
X158193750Y-134312500D03*
X153193750Y-132212500D03*
D13*
X149383750Y-135572500D03*
%TD*%
D10*
%TO.C,K56*%
X177526950Y-138112500D03*
D11*
X172243750Y-138112500D03*
D10*
X166960550Y-138112500D03*
D13*
X174783750Y-133032500D03*
D12*
X177243750Y-134312500D03*
D13*
X168433750Y-135572500D03*
D12*
X172243750Y-132212500D03*
%TD*%
D10*
%TO.C,K57*%
X186010550Y-138112500D03*
X196576950Y-138112500D03*
D11*
X191293750Y-138112500D03*
D12*
X196293750Y-134312500D03*
D13*
X193833750Y-133032500D03*
D12*
X191293750Y-132212500D03*
D13*
X187483750Y-135572500D03*
%TD*%
D11*
%TO.C,K58*%
X210343750Y-138112500D03*
D14*
X215105950Y-138112500D03*
X224567750Y-138112500D03*
D10*
X205060550Y-138112500D03*
D11*
X219868150Y-138112500D03*
D13*
X217328150Y-143192500D03*
X212883750Y-133032500D03*
D12*
X214868150Y-141912500D03*
X215343750Y-134312500D03*
D13*
X206533750Y-135572500D03*
D12*
X210343750Y-132212500D03*
D13*
X223678150Y-140652500D03*
D12*
X219868150Y-144012500D03*
%TD*%
D10*
%TO.C,K59*%
X224110550Y-138112500D03*
D11*
X229393750Y-138112500D03*
D10*
X234676950Y-138112500D03*
D12*
X234393750Y-134312500D03*
D13*
X231933750Y-133032500D03*
X225583750Y-135572500D03*
D12*
X229393750Y-132212500D03*
%TD*%
D10*
%TO.C,K60*%
X243160550Y-138112500D03*
X253726950Y-138112500D03*
D11*
X248443750Y-138112500D03*
D12*
X253443750Y-134312500D03*
D13*
X250983750Y-133032500D03*
D12*
X248443750Y-132212500D03*
D13*
X244633750Y-135572500D03*
%TD*%
D10*
%TO.C,K61*%
X272776950Y-138112500D03*
D11*
X267493750Y-138112500D03*
D10*
X262210550Y-138112500D03*
D13*
X270033750Y-133032500D03*
D12*
X272493750Y-134312500D03*
X267493750Y-132212500D03*
D13*
X263683750Y-135572500D03*
%TD*%
D11*
%TO.C,K62*%
X286543750Y-138112500D03*
D10*
X291826950Y-138112500D03*
X281260550Y-138112500D03*
D13*
X289083750Y-133032500D03*
D12*
X291543750Y-134312500D03*
D13*
X282733750Y-135572500D03*
D12*
X286543750Y-132212500D03*
%TD*%
D11*
%TO.C,K63*%
X305593750Y-138112500D03*
D10*
X310876950Y-138112500D03*
X300310550Y-138112500D03*
D13*
X308133750Y-133032500D03*
D12*
X310593750Y-134312500D03*
X305593750Y-132212500D03*
D13*
X301783750Y-135572500D03*
%TD*%
D10*
%TO.C,K64*%
X319360550Y-138112500D03*
D11*
X324643750Y-138112500D03*
D10*
X329926950Y-138112500D03*
D13*
X327183750Y-133032500D03*
D12*
X329643750Y-134312500D03*
D13*
X320833750Y-135572500D03*
D12*
X324643750Y-132212500D03*
%TD*%
D10*
%TO.C,K1*%
X44176950Y-80962500D03*
X33610550Y-80962500D03*
D11*
X38893750Y-80962500D03*
D13*
X41433750Y-75882500D03*
D12*
X43893750Y-77162500D03*
X38893750Y-75062500D03*
D13*
X35083750Y-78422500D03*
%TD*%
D15*
%TO.C,H1*%
X48415700Y-90481800D03*
%TD*%
%TO.C,H2*%
X48415700Y-128579400D03*
%TD*%
%TO.C,H3*%
X181757300Y-83338500D03*
%TD*%
%TO.C,H4*%
X181757300Y-135722700D03*
%TD*%
%TO.C,H5*%
X315098900Y-90481800D03*
%TD*%
%TO.C,H6*%
X315098900Y-128579400D03*
%TD*%
D10*
%TO.C,K4*%
X101326950Y-80962500D03*
X90760550Y-80962500D03*
D11*
X96043750Y-80962500D03*
D13*
X98583750Y-75882500D03*
D12*
X101043750Y-77162500D03*
D13*
X92233750Y-78422500D03*
D12*
X96043750Y-75062500D03*
%TD*%
D10*
%TO.C,K5*%
X109810550Y-80962500D03*
D11*
X115093750Y-80962500D03*
D10*
X120376950Y-80962500D03*
D12*
X120093750Y-77162500D03*
D13*
X117633750Y-75882500D03*
D12*
X115093750Y-75062500D03*
D13*
X111283750Y-78422500D03*
%TD*%
D11*
%TO.C,K21*%
X115093750Y-100012500D03*
D10*
X109810550Y-100012500D03*
X120376950Y-100012500D03*
D12*
X120093750Y-96212500D03*
D13*
X117633750Y-94932500D03*
X111283750Y-97472500D03*
D12*
X115093750Y-94112500D03*
%TD*%
D10*
%TO.C,K20*%
X101326950Y-100012500D03*
X90760550Y-100012500D03*
D11*
X96043750Y-100012500D03*
D12*
X101043750Y-96212500D03*
D13*
X98583750Y-94932500D03*
X92233750Y-97472500D03*
D12*
X96043750Y-94112500D03*
%TD*%
D16*
%TO.C,C1*%
X91158200Y-87477600D03*
X92128200Y-87477600D03*
%TD*%
D17*
%TO.C,C2*%
X85930600Y-95808800D03*
X84960600Y-95808800D03*
%TD*%
D16*
%TO.C,C3*%
X92326600Y-91744800D03*
X93296600Y-91744800D03*
%TD*%
D18*
%TO.C,C6*%
X81305400Y-84886800D03*
X81305400Y-83916800D03*
%TD*%
%TO.C,C8*%
X85394800Y-84886800D03*
X85394800Y-83916800D03*
%TD*%
D19*
%TO.C,S1*%
X104339000Y-77464000D03*
X104339000Y-76714000D03*
X106989000Y-76714000D03*
X106989000Y-77464000D03*
%TD*%
D20*
%TO.C,U0*%
X89924500Y-87887500D03*
X89924500Y-88287500D03*
X89924500Y-88687500D03*
X89924500Y-89087500D03*
X89924500Y-89487500D03*
X89924500Y-89887500D03*
X89924500Y-90287500D03*
X89924500Y-90687500D03*
X89924500Y-91087500D03*
X89924500Y-91487500D03*
X89924500Y-91887500D03*
X89924500Y-92287500D03*
X89924500Y-92687500D03*
X89924500Y-93087500D03*
D21*
X89087000Y-93925000D03*
X88687000Y-93925000D03*
X88287000Y-93925000D03*
X87887000Y-93925000D03*
X87487000Y-93925000D03*
X87087000Y-93925000D03*
X86687000Y-93925000D03*
X86287000Y-93925000D03*
X85887000Y-93925000D03*
X85487000Y-93925000D03*
X85087000Y-93925000D03*
X84687000Y-93925000D03*
X84287000Y-93925000D03*
X83887000Y-93925000D03*
D20*
X83049500Y-93087500D03*
X83049500Y-92687500D03*
X83049500Y-92287500D03*
X83049500Y-91887500D03*
X83049500Y-91487500D03*
X83049500Y-91087500D03*
X83049500Y-90687500D03*
X83049500Y-90287500D03*
X83049500Y-89887500D03*
X83049500Y-89487500D03*
X83049500Y-89087500D03*
X83049500Y-88687500D03*
X83049500Y-88287500D03*
X83049500Y-87887500D03*
D21*
X83887000Y-87050000D03*
X84287000Y-87050000D03*
X84687000Y-87050000D03*
X85087000Y-87050000D03*
X85487000Y-87050000D03*
X85887000Y-87050000D03*
X86287000Y-87050000D03*
X86687000Y-87050000D03*
X87087000Y-87050000D03*
X87487000Y-87050000D03*
X87887000Y-87050000D03*
X88287000Y-87050000D03*
X88687000Y-87050000D03*
X89087000Y-87050000D03*
D22*
X86487000Y-90487500D03*
%TD*%
D18*
%TO.C,C7*%
X82346800Y-84886800D03*
X82346800Y-83916800D03*
%TD*%
D23*
%TO.C,D1*%
X35718750Y-84043750D03*
X35718750Y-82643750D03*
%TD*%
%TO.C,D2*%
X54768750Y-84043750D03*
X54768750Y-82643750D03*
%TD*%
%TO.C,D3*%
X73818750Y-84043750D03*
X73818750Y-82643750D03*
%TD*%
%TO.C,D4*%
X92868750Y-84043750D03*
X92868750Y-82643750D03*
%TD*%
%TO.C,D5*%
X111918750Y-84043750D03*
X111918750Y-82643750D03*
%TD*%
%TO.C,D6*%
X130968750Y-84043750D03*
X130968750Y-82643750D03*
%TD*%
%TO.C,D7*%
X150018750Y-84043750D03*
X150018750Y-82643750D03*
%TD*%
%TO.C,D8*%
X169068750Y-84043750D03*
X169068750Y-82643750D03*
%TD*%
%TO.C,D9*%
X188118750Y-84043750D03*
X188118750Y-82643750D03*
%TD*%
%TO.C,D10*%
X207168750Y-84043750D03*
X207168750Y-82643750D03*
%TD*%
%TO.C,D11*%
X226218750Y-84043750D03*
X226218750Y-82643750D03*
%TD*%
%TO.C,D12*%
X245268750Y-84043750D03*
X245268750Y-82643750D03*
%TD*%
%TO.C,D13*%
X264318750Y-84043750D03*
X264318750Y-82643750D03*
%TD*%
%TO.C,D14*%
X283368750Y-84043750D03*
X283368750Y-82643750D03*
%TD*%
%TO.C,D15*%
X302418750Y-84043750D03*
X302418750Y-82643750D03*
%TD*%
%TO.C,D16*%
X321468750Y-84043750D03*
X321468750Y-82643750D03*
%TD*%
%TO.C,D17*%
X35718750Y-103093750D03*
X35718750Y-101693750D03*
%TD*%
%TO.C,D18*%
X54768750Y-103093750D03*
X54768750Y-101693750D03*
%TD*%
%TO.C,D19*%
X73818750Y-103093750D03*
X73818750Y-101693750D03*
%TD*%
%TO.C,D20*%
X92868750Y-103093750D03*
X92868750Y-101693750D03*
%TD*%
%TO.C,D21*%
X111918750Y-103093750D03*
X111918750Y-101693750D03*
%TD*%
%TO.C,D22*%
X130968750Y-103093750D03*
X130968750Y-101693750D03*
%TD*%
%TO.C,D23*%
X150018750Y-103093750D03*
X150018750Y-101693750D03*
%TD*%
%TO.C,D24*%
X169068750Y-103093750D03*
X169068750Y-101693750D03*
%TD*%
%TO.C,D25*%
X188118750Y-103031250D03*
X188118750Y-101631250D03*
%TD*%
%TO.C,D26*%
X207168750Y-103106250D03*
X207168750Y-101706250D03*
%TD*%
%TO.C,D27*%
X226218750Y-103093750D03*
X226218750Y-101693750D03*
%TD*%
%TO.C,D28*%
X245268750Y-103093750D03*
X245268750Y-101693750D03*
%TD*%
%TO.C,D29*%
X264318750Y-103093750D03*
X264318750Y-101693750D03*
%TD*%
%TO.C,D30*%
X283368750Y-103093750D03*
X283368750Y-101693750D03*
%TD*%
%TO.C,D31*%
X302418750Y-103093750D03*
X302418750Y-101693750D03*
%TD*%
%TO.C,D32*%
X321468750Y-103093750D03*
X321468750Y-101693750D03*
%TD*%
%TO.C,D33*%
X35718750Y-122143750D03*
X35718750Y-120743750D03*
%TD*%
%TO.C,D34*%
X54768750Y-122143750D03*
X54768750Y-120743750D03*
%TD*%
%TO.C,D35*%
X73818750Y-122143750D03*
X73818750Y-120743750D03*
%TD*%
%TO.C,D36*%
X92868750Y-122143750D03*
X92868750Y-120743750D03*
%TD*%
%TO.C,D37*%
X111918750Y-122143750D03*
X111918750Y-120743750D03*
%TD*%
%TO.C,D38*%
X130968750Y-122143750D03*
X130968750Y-120743750D03*
%TD*%
%TO.C,D39*%
X150018750Y-122143750D03*
X150018750Y-120743750D03*
%TD*%
%TO.C,D40*%
X169068750Y-122143750D03*
X169068750Y-120743750D03*
%TD*%
%TO.C,D41*%
X188118750Y-122143750D03*
X188118750Y-120743750D03*
%TD*%
%TO.C,D42*%
X207168750Y-122143750D03*
X207168750Y-120743750D03*
%TD*%
%TO.C,D43*%
X226218750Y-122143750D03*
X226218750Y-120743750D03*
%TD*%
%TO.C,D44*%
X245268750Y-122143750D03*
X245268750Y-120743750D03*
%TD*%
%TO.C,D45*%
X264318750Y-122143750D03*
X264318750Y-120743750D03*
%TD*%
%TO.C,D46*%
X283368750Y-122143750D03*
X283368750Y-120743750D03*
%TD*%
%TO.C,D47*%
X302418750Y-122143750D03*
X302418750Y-120743750D03*
%TD*%
%TO.C,D48*%
X321468750Y-122143750D03*
X321468750Y-120743750D03*
%TD*%
%TO.C,D49*%
X35718750Y-141193750D03*
X35718750Y-139793750D03*
%TD*%
%TO.C,D50*%
X54768750Y-141193750D03*
X54768750Y-139793750D03*
%TD*%
%TO.C,D51*%
X73818750Y-141193750D03*
X73818750Y-139793750D03*
%TD*%
%TO.C,D52*%
X92868750Y-141193750D03*
X92868750Y-139793750D03*
%TD*%
%TO.C,D53*%
X111918750Y-141193750D03*
X111918750Y-139793750D03*
%TD*%
%TO.C,D54*%
X130968750Y-141193750D03*
X130968750Y-139793750D03*
%TD*%
%TO.C,D55*%
X150018750Y-141193750D03*
X150018750Y-139793750D03*
%TD*%
%TO.C,D56*%
X169068750Y-141193750D03*
X169068750Y-139793750D03*
%TD*%
%TO.C,D57*%
X188118750Y-141193750D03*
X188118750Y-139793750D03*
%TD*%
%TO.C,D58*%
X207168750Y-141193750D03*
X207168750Y-139793750D03*
%TD*%
%TO.C,D59*%
X226218750Y-141193750D03*
X226218750Y-139793750D03*
%TD*%
%TO.C,D60*%
X245268750Y-141193750D03*
X245268750Y-139793750D03*
%TD*%
%TO.C,D61*%
X264318750Y-141193750D03*
X264318750Y-139793750D03*
%TD*%
%TO.C,D62*%
X283368750Y-141193750D03*
X283368750Y-139793750D03*
%TD*%
%TO.C,D63*%
X302418750Y-141193750D03*
X302418750Y-139793750D03*
%TD*%
%TO.C,D64*%
X321468750Y-141193750D03*
X321468750Y-139793750D03*
%TD*%
D18*
%TO.C,RC2*%
X51593750Y-78272500D03*
X51593750Y-77302500D03*
%TD*%
D24*
%TO.C,RC1*%
X47625000Y-77302500D03*
X47625000Y-78272500D03*
%TD*%
%TO.C,RD1*%
X84378800Y-83916800D03*
X84378800Y-84886800D03*
%TD*%
D25*
%TO.C,F0*%
X46069250Y-77737000D03*
X46069250Y-79362000D03*
%TD*%
D26*
%TO.C,U1*%
X47781250Y-85124800D03*
X45881250Y-85124800D03*
X46831250Y-83124800D03*
%TD*%
D18*
%TO.C,LC1*%
X46037500Y-110022500D03*
X46037500Y-109052500D03*
%TD*%
D17*
%TO.C,C4*%
X81206200Y-91490800D03*
X80236200Y-91490800D03*
%TD*%
D27*
%TO.C,J0*%
X52293000Y-73847000D03*
X46513000Y-73847000D03*
D28*
X46153000Y-75292000D03*
X46953000Y-75292000D03*
D29*
X48153000Y-75292000D03*
X49153000Y-75292000D03*
X49653000Y-75292000D03*
X50653000Y-75292000D03*
D28*
X51853000Y-75292000D03*
X52653000Y-75292000D03*
X52653000Y-75292000D03*
X51853000Y-75292000D03*
D29*
X51153000Y-75292000D03*
X50153000Y-75292000D03*
X48653000Y-75292000D03*
X47653000Y-75292000D03*
D28*
X46953000Y-75292000D03*
X46153000Y-75292000D03*
D30*
X45083000Y-70197000D03*
D31*
X45083000Y-74377000D03*
D30*
X53723000Y-70197000D03*
D31*
X53723000Y-74377000D03*
%TD*%
D18*
%TO.C,LC3*%
X63243950Y-110022500D03*
X63243950Y-109052500D03*
%TD*%
%TO.C,LC10*%
X123466525Y-110022500D03*
X123466525Y-109052500D03*
%TD*%
%TO.C,LC12*%
X140672975Y-110022500D03*
X140672975Y-109052500D03*
%TD*%
%TO.C,LC6*%
X89053625Y-110022500D03*
X89053625Y-109052500D03*
%TD*%
%TO.C,LC8*%
X106260075Y-110022500D03*
X106260075Y-109052500D03*
%TD*%
%TO.C,LC9*%
X114863300Y-110022500D03*
X114863300Y-109052500D03*
%TD*%
%TO.C,LC7*%
X97656850Y-110022500D03*
X97656850Y-109052500D03*
%TD*%
%TO.C,LC5*%
X80450400Y-110022500D03*
X80450400Y-109052500D03*
%TD*%
%TO.C,LC11*%
X132069750Y-110022500D03*
X132069750Y-109052500D03*
%TD*%
%TO.C,LC13*%
X149276200Y-110022500D03*
X149276200Y-109052500D03*
%TD*%
%TO.C,LC4*%
X71847175Y-110022500D03*
X71847175Y-109052500D03*
%TD*%
%TO.C,LC14*%
X157879425Y-110022500D03*
X157879425Y-109052500D03*
%TD*%
%TO.C,LC15*%
X166482650Y-110022500D03*
X166482650Y-109052500D03*
%TD*%
%TO.C,LC16*%
X175085875Y-110022500D03*
X175085875Y-109052500D03*
%TD*%
%TO.C,LC17*%
X183689100Y-110022500D03*
X183689100Y-109052500D03*
%TD*%
%TO.C,LC18*%
X192292325Y-110022500D03*
X192292325Y-109052500D03*
%TD*%
%TO.C,LC19*%
X200895550Y-110022500D03*
X200895550Y-109052500D03*
%TD*%
%TO.C,LC20*%
X209498775Y-110022500D03*
X209498775Y-109052500D03*
%TD*%
%TO.C,LC21*%
X218102000Y-110022500D03*
X218102000Y-109052500D03*
%TD*%
%TO.C,LC22*%
X226705225Y-110022500D03*
X226705225Y-109052500D03*
%TD*%
%TO.C,LC23*%
X235308450Y-110022500D03*
X235308450Y-109052500D03*
%TD*%
%TO.C,LC24*%
X243911675Y-110022500D03*
X243911675Y-109052500D03*
%TD*%
%TO.C,LC25*%
X252480525Y-110022500D03*
X252480525Y-109052500D03*
%TD*%
%TO.C,LC26*%
X261118125Y-110022500D03*
X261118125Y-109052500D03*
%TD*%
%TO.C,LC27*%
X269721350Y-110022500D03*
X269721350Y-109052500D03*
%TD*%
%TO.C,LC28*%
X278324575Y-110022500D03*
X278324575Y-109052500D03*
%TD*%
%TO.C,LC29*%
X286927800Y-110022500D03*
X286927800Y-109052500D03*
%TD*%
%TO.C,LC30*%
X295459150Y-110022500D03*
X295459150Y-109052500D03*
%TD*%
%TO.C,LC31*%
X304134250Y-110022500D03*
X304134250Y-109052500D03*
%TD*%
%TO.C,LC32*%
X312737475Y-110022500D03*
X312737475Y-109052500D03*
%TD*%
D32*
%TO.C,LD16*%
X178217125Y-108987500D03*
X178217125Y-110087500D03*
X176717125Y-110087500D03*
X176717125Y-108987500D03*
%TD*%
%TO.C,LD17*%
X186820350Y-108987500D03*
X186820350Y-110087500D03*
X185320350Y-110087500D03*
X185320350Y-108987500D03*
%TD*%
%TO.C,LD18*%
X195423575Y-108987500D03*
X195423575Y-110087500D03*
X193923575Y-110087500D03*
X193923575Y-108987500D03*
%TD*%
%TO.C,LD19*%
X204026800Y-108987500D03*
X204026800Y-110087500D03*
X202526800Y-110087500D03*
X202526800Y-108987500D03*
%TD*%
%TO.C,LD20*%
X212630025Y-108987500D03*
X212630025Y-110087500D03*
X211130025Y-110087500D03*
X211130025Y-108987500D03*
%TD*%
%TO.C,LD21*%
X221233250Y-108987500D03*
X221233250Y-110087500D03*
X219733250Y-110087500D03*
X219733250Y-108987500D03*
%TD*%
%TO.C,LD22*%
X229836475Y-108987500D03*
X229836475Y-110087500D03*
X228336475Y-110087500D03*
X228336475Y-108987500D03*
%TD*%
%TO.C,LD23*%
X238439700Y-108987500D03*
X238439700Y-110087500D03*
X236939700Y-110087500D03*
X236939700Y-108987500D03*
%TD*%
%TO.C,LD24*%
X247042925Y-108987500D03*
X247042925Y-110087500D03*
X245542925Y-110087500D03*
X245542925Y-108987500D03*
%TD*%
%TO.C,LD25*%
X255680525Y-108987500D03*
X255680525Y-110087500D03*
X254180525Y-110087500D03*
X254180525Y-108987500D03*
%TD*%
%TO.C,LD26*%
X264249375Y-108987500D03*
X264249375Y-110087500D03*
X262749375Y-110087500D03*
X262749375Y-108987500D03*
%TD*%
%TO.C,LD27*%
X272852600Y-108987500D03*
X272852600Y-110087500D03*
X271352600Y-110087500D03*
X271352600Y-108987500D03*
%TD*%
%TO.C,LD28*%
X281455825Y-108987500D03*
X281455825Y-110087500D03*
X279955825Y-110087500D03*
X279955825Y-108987500D03*
%TD*%
%TO.C,LD29*%
X290059050Y-108987500D03*
X290059050Y-110087500D03*
X288559050Y-110087500D03*
X288559050Y-108987500D03*
%TD*%
%TO.C,LD30*%
X298734150Y-108987500D03*
X298734150Y-110087500D03*
X297234150Y-110087500D03*
X297234150Y-108987500D03*
%TD*%
%TO.C,LD32*%
X315868725Y-108987500D03*
X315868725Y-110087500D03*
X314368725Y-110087500D03*
X314368725Y-108987500D03*
%TD*%
%TO.C,LD31*%
X307265500Y-108987500D03*
X307265500Y-110087500D03*
X305765500Y-110087500D03*
X305765500Y-108987500D03*
%TD*%
%TO.C,LD15*%
X169613900Y-108987500D03*
X169613900Y-110087500D03*
X168113900Y-110087500D03*
X168113900Y-108987500D03*
%TD*%
%TO.C,LD14*%
X161010675Y-108987500D03*
X161010675Y-110087500D03*
X159510675Y-110087500D03*
X159510675Y-108987500D03*
%TD*%
%TO.C,LD12*%
X143804225Y-108987500D03*
X143804225Y-110087500D03*
X142304225Y-110087500D03*
X142304225Y-108987500D03*
%TD*%
%TO.C,LD10*%
X126597775Y-108987500D03*
X126597775Y-110087500D03*
X125097775Y-110087500D03*
X125097775Y-108987500D03*
%TD*%
%TO.C,LD13*%
X152407450Y-108987500D03*
X152407450Y-110087500D03*
X150907450Y-110087500D03*
X150907450Y-108987500D03*
%TD*%
%TO.C,LD5*%
X83581650Y-108987500D03*
X83581650Y-110087500D03*
X82081650Y-110087500D03*
X82081650Y-108987500D03*
%TD*%
%TO.C,LD11*%
X135201000Y-108987500D03*
X135201000Y-110087500D03*
X133701000Y-110087500D03*
X133701000Y-108987500D03*
%TD*%
%TO.C,LD6*%
X92184875Y-108987500D03*
X92184875Y-110087500D03*
X90684875Y-110087500D03*
X90684875Y-108987500D03*
%TD*%
%TO.C,LD7*%
X100788100Y-108987500D03*
X100788100Y-110087500D03*
X99288100Y-110087500D03*
X99288100Y-108987500D03*
%TD*%
%TO.C,LD8*%
X109391325Y-108987500D03*
X109391325Y-110087500D03*
X107891325Y-110087500D03*
X107891325Y-108987500D03*
%TD*%
%TO.C,LD9*%
X117994550Y-108987500D03*
X117994550Y-110087500D03*
X116494550Y-110087500D03*
X116494550Y-108987500D03*
%TD*%
%TO.C,LD2*%
X57771975Y-108987500D03*
X57771975Y-110087500D03*
X56271975Y-110087500D03*
X56271975Y-108987500D03*
%TD*%
%TO.C,LD1*%
X49168750Y-108987500D03*
X49168750Y-110087500D03*
X47668750Y-110087500D03*
X47668750Y-108987500D03*
%TD*%
%TO.C,LD3*%
X66375200Y-108987500D03*
X66375200Y-110087500D03*
X64875200Y-110087500D03*
X64875200Y-108987500D03*
%TD*%
%TO.C,LD4*%
X74978425Y-108987500D03*
X74978425Y-110087500D03*
X73478425Y-110087500D03*
X73478425Y-108987500D03*
%TD*%
D18*
%TO.C,LC2*%
X54640725Y-110022500D03*
X54640725Y-109052500D03*
%TD*%
D17*
%TO.C,C5*%
X81206200Y-87884000D03*
X80236200Y-87884000D03*
%TD*%
D33*
%TO.C,TX0*%
X293656250Y-128587500D03*
X301656250Y-128587500D03*
%TD*%
%TO.C,TX1*%
X73850000Y-128587500D03*
X65850000Y-128587500D03*
%TD*%
D17*
%TO.C,CF1*%
X82603200Y-79019400D03*
X81633200Y-79019400D03*
%TD*%
D18*
%TO.C,C10*%
X87452200Y-84886800D03*
X87452200Y-83916800D03*
%TD*%
D24*
%TO.C,C11*%
X83870800Y-95857200D03*
X83870800Y-96827200D03*
%TD*%
D34*
%TO.C,U3*%
X84150200Y-73920800D03*
X85420200Y-73920800D03*
X86690200Y-73920800D03*
X87960200Y-73920800D03*
X87960200Y-81120800D03*
X86690200Y-81120800D03*
X85420200Y-81120800D03*
X84150200Y-81120800D03*
%TD*%
D19*
%TO.C,S2*%
X106989000Y-75178000D03*
X106989000Y-74428000D03*
X104339000Y-75178000D03*
X104339000Y-74428000D03*
%TD*%
D35*
%TO.C,Y0*%
X87663200Y-100037000D03*
X85463200Y-100037000D03*
X85463200Y-98337000D03*
X87663200Y-98337000D03*
%TD*%
D18*
%TO.C,RR1*%
X103251000Y-77574000D03*
X103251000Y-76604000D03*
%TD*%
D36*
%TO.C,U2*%
X51343600Y-85262300D03*
X50393600Y-85262300D03*
X49443600Y-85262300D03*
X49443600Y-82987300D03*
X50393600Y-82987300D03*
X51343600Y-82987300D03*
%TD*%
D24*
%TO.C,RD0*%
X83362800Y-83916800D03*
X83362800Y-84886800D03*
%TD*%
D17*
%TO.C,RL1*%
X53647200Y-85699600D03*
X52677200Y-85699600D03*
%TD*%
D24*
%TO.C,RF1*%
X103251000Y-74318000D03*
X103251000Y-75288000D03*
%TD*%
D17*
%TO.C,CX2*%
X88165800Y-96901000D03*
X87195800Y-96901000D03*
%TD*%
%TO.C,CP2*%
X46840000Y-86436200D03*
X45870000Y-86436200D03*
%TD*%
D18*
%TO.C,C9*%
X86410800Y-84886800D03*
X86410800Y-83916800D03*
%TD*%
D16*
%TO.C,CP1*%
X45844600Y-81813400D03*
X46814600Y-81813400D03*
%TD*%
D17*
%TO.C,CX1*%
X85930600Y-96901000D03*
X84960600Y-96901000D03*
%TD*%
D16*
%TO.C,RX1*%
X87195800Y-95808800D03*
X88165800Y-95808800D03*
%TD*%
M02*
