M48
; DRILL file {KiCad (6.0.0)} date Mon Apr 25 19:56:53 2022
; FORMAT={-:-/ absolute / inch / decimal}
; #@! TF.CreationDate,2022-04-25T19:56:53-04:00
; #@! TF.GenerationSoftware,Kicad,Pcbnew,(6.0.0)
; #@! TF.FileFunction,NonPlated,1,2,NPTH
FMAT,2
INCH
; #@! TA.AperFunction,NonPlated,NPTH,ComponentDrill
T1C0.0256
; #@! TA.AperFunction,NonPlated,NPTH,ComponentDrill
T2C0.0689
; #@! TA.AperFunction,NonPlated,NPTH,ComponentDrill
T3C0.1570
%
G90
G05
T1
X1.8312Y-2.9074
X2.0588Y-2.9074
T3
X1.5312Y-3.1875
X1.5312Y-3.9375
X1.5312Y-4.6875
X1.5312Y-5.4375
X2.2812Y-3.1875
X2.2812Y-3.9375
X2.2812Y-4.6875
X2.2812Y-5.4375
X3.0312Y-3.187
X3.0312Y-3.9375
X3.0312Y-4.6875
X3.0312Y-5.4375
X3.7812Y-3.1875
X3.7812Y-3.9375
X3.7812Y-4.6875
X3.7812Y-5.4375
X4.5312Y-3.1875
X4.5312Y-3.9375
X4.5312Y-4.6875
X4.5312Y-5.4375
X5.2812Y-3.1875
X5.2812Y-3.9375
X5.2812Y-4.6875
X5.2812Y-5.4375
X5.6562Y-5.4375
X6.0312Y-3.1875
X6.0312Y-3.9375
X6.0312Y-4.6875
X6.0312Y-5.4375
X6.7812Y-3.1875
X6.7812Y-3.9375
X6.7812Y-4.6875
X6.7812Y-5.4375
X7.5312Y-3.1875
X7.5312Y-3.9375
X7.5312Y-4.6875
X7.5312Y-5.4375
X8.2812Y-3.1875
X8.2812Y-3.9375
X8.2812Y-4.6875
X8.2812Y-5.4375
X8.6562Y-5.4375
X9.0312Y-3.1875
X9.0312Y-3.9375
X9.0312Y-4.6875
X9.0312Y-5.4375
X9.7812Y-3.1875
X9.7812Y-3.9375
X9.7812Y-4.6875
X9.7812Y-5.4375
X10.5312Y-3.1875
X10.5312Y-3.9375
X10.5312Y-4.6875
X10.5312Y-5.4375
X11.2812Y-3.1875
X11.2812Y-3.9375
X11.2812Y-4.6875
X11.2812Y-5.4375
X12.0312Y-3.1875
X12.0312Y-3.9375
X12.0312Y-4.6875
X12.0312Y-5.4375
X12.7812Y-3.1875
X12.7812Y-3.9375
X12.7812Y-4.6875
X12.7812Y-5.4375
T2
G00X1.3154Y-3.1875
M15
G01X1.3311Y-3.1875
M16
G05
G00X1.3154Y-3.9375
M15
G01X1.3311Y-3.9375
M16
G05
G00X1.3154Y-4.6875
M15
G01X1.3311Y-4.6875
M16
G05
G00X1.3154Y-5.4375
M15
G01X1.3311Y-5.4375
M16
G05
G00X1.7314Y-3.1875
M15
G01X1.7471Y-3.1875
M16
G05
G00X1.7314Y-3.9375
M15
G01X1.7471Y-3.9375
M16
G05
G00X1.7314Y-4.6875
M15
G01X1.7471Y-4.6875
M16
G05
G00X1.7314Y-5.4375
M15
G01X1.7471Y-5.4375
M16
G05
G00X2.0654Y-3.1875
M15
G01X2.0811Y-3.1875
M16
G05
G00X2.0654Y-3.9375
M15
G01X2.0811Y-3.9375
M16
G05
G00X2.0654Y-4.6875
M15
G01X2.0811Y-4.6875
M16
G05
G00X2.0654Y-5.4375
M15
G01X2.0811Y-5.4375
M16
G05
G00X2.4814Y-3.1875
M15
G01X2.4971Y-3.1875
M16
G05
G00X2.4814Y-3.9375
M15
G01X2.4971Y-3.9375
M16
G05
G00X2.4814Y-4.6875
M15
G01X2.4971Y-4.6875
M16
G05
G00X2.4814Y-5.4375
M15
G01X2.4971Y-5.4375
M16
G05
G00X2.8154Y-3.187
M15
G01X2.8311Y-3.187
M16
G05
G00X2.8154Y-3.9375
M15
G01X2.8311Y-3.9375
M16
G05
G00X2.8154Y-4.6875
M15
G01X2.8311Y-4.6875
M16
G05
G00X2.8154Y-5.4375
M15
G01X2.8311Y-5.4375
M16
G05
G00X3.2314Y-3.187
M15
G01X3.2471Y-3.187
M16
G05
G00X3.2314Y-3.9375
M15
G01X3.2471Y-3.9375
M16
G05
G00X3.2314Y-4.6875
M15
G01X3.2471Y-4.6875
M16
G05
G00X3.2314Y-5.4375
M15
G01X3.2471Y-5.4375
M16
G05
G00X3.5654Y-3.1875
M15
G01X3.5811Y-3.1875
M16
G05
G00X3.5654Y-3.9375
M15
G01X3.5811Y-3.9375
M16
G05
G00X3.5654Y-4.6875
M15
G01X3.5811Y-4.6875
M16
G05
G00X3.5654Y-5.4375
M15
G01X3.5811Y-5.4375
M16
G05
G00X3.9814Y-3.1875
M15
G01X3.9971Y-3.1875
M16
G05
G00X3.9814Y-3.9375
M15
G01X3.9971Y-3.9375
M16
G05
G00X3.9814Y-4.6875
M15
G01X3.9971Y-4.6875
M16
G05
G00X3.9814Y-5.4375
M15
G01X3.9971Y-5.4375
M16
G05
G00X4.3154Y-3.1875
M15
G01X4.3311Y-3.1875
M16
G05
G00X4.3154Y-3.9375
M15
G01X4.3311Y-3.9375
M16
G05
G00X4.3154Y-4.6875
M15
G01X4.3311Y-4.6875
M16
G05
G00X4.3154Y-5.4375
M15
G01X4.3311Y-5.4375
M16
G05
G00X4.7314Y-3.1875
M15
G01X4.7471Y-3.1875
M16
G05
G00X4.7314Y-3.9375
M15
G01X4.7471Y-3.9375
M16
G05
G00X4.7314Y-4.6875
M15
G01X4.7471Y-4.6875
M16
G05
G00X4.7314Y-5.4375
M15
G01X4.7471Y-5.4375
M16
G05
G00X5.0654Y-3.1875
M15
G01X5.0811Y-3.1875
M16
G05
G00X5.0654Y-3.9375
M15
G01X5.0811Y-3.9375
M16
G05
G00X5.0654Y-4.6875
M15
G01X5.0811Y-4.6875
M16
G05
G00X5.0654Y-5.4375
M15
G01X5.0811Y-5.4375
M16
G05
G00X5.4382Y-5.4375
M15
G01X5.4992Y-5.4375
M16
G05
G00X5.4814Y-3.1875
M15
G01X5.4971Y-3.1875
M16
G05
G00X5.4814Y-3.9375
M15
G01X5.4971Y-3.9375
M16
G05
G00X5.4814Y-4.6875
M15
G01X5.4971Y-4.6875
M16
G05
G00X5.8154Y-3.1875
M15
G01X5.8311Y-3.1875
M16
G05
G00X5.8154Y-3.9375
M15
G01X5.8311Y-3.9375
M16
G05
G00X5.8154Y-4.6875
M15
G01X5.8311Y-4.6875
M16
G05
G00X5.8154Y-5.4375
M15
G01X5.8311Y-5.4375
M16
G05
G00X5.8107Y-5.4375
M15
G01X5.8718Y-5.4375
M16
G05
G00X6.2314Y-3.1875
M15
G01X6.2471Y-3.1875
M16
G05
G00X6.2314Y-3.9375
M15
G01X6.2471Y-3.9375
M16
G05
G00X6.2314Y-4.6875
M15
G01X6.2471Y-4.6875
M16
G05
G00X6.2314Y-5.4375
M15
G01X6.2471Y-5.4375
M16
G05
G00X6.5654Y-3.1875
M15
G01X6.5811Y-3.1875
M16
G05
G00X6.5654Y-3.9375
M15
G01X6.5811Y-3.9375
M16
G05
G00X6.5654Y-4.6875
M15
G01X6.5811Y-4.6875
M16
G05
G00X6.5654Y-5.4375
M15
G01X6.5811Y-5.4375
M16
G05
G00X6.9814Y-3.1875
M15
G01X6.9971Y-3.1875
M16
G05
G00X6.9814Y-3.9375
M15
G01X6.9971Y-3.9375
M16
G05
G00X6.9814Y-4.6875
M15
G01X6.9971Y-4.6875
M16
G05
G00X6.9814Y-5.4375
M15
G01X6.9971Y-5.4375
M16
G05
G00X7.3154Y-3.1875
M15
G01X7.3311Y-3.1875
M16
G05
G00X7.3154Y-3.9375
M15
G01X7.3311Y-3.9375
M16
G05
G00X7.3154Y-4.6875
M15
G01X7.3311Y-4.6875
M16
G05
G00X7.3154Y-5.4375
M15
G01X7.3311Y-5.4375
M16
G05
G00X7.7314Y-3.1875
M15
G01X7.7471Y-3.1875
M16
G05
G00X7.7314Y-3.9375
M15
G01X7.7471Y-3.9375
M16
G05
G00X7.7314Y-4.6875
M15
G01X7.7471Y-4.6875
M16
G05
G00X7.7314Y-5.4375
M15
G01X7.7471Y-5.4375
M16
G05
G00X8.0654Y-3.1875
M15
G01X8.0811Y-3.1875
M16
G05
G00X8.0654Y-3.9375
M15
G01X8.0811Y-3.9375
M16
G05
G00X8.0654Y-4.6875
M15
G01X8.0811Y-4.6875
M16
G05
G00X8.0654Y-5.4375
M15
G01X8.0811Y-5.4375
M16
G05
G00X8.4382Y-5.4375
M15
G01X8.4992Y-5.4375
M16
G05
G00X8.4814Y-3.1875
M15
G01X8.4971Y-3.1875
M16
G05
G00X8.4814Y-3.9375
M15
G01X8.4971Y-3.9375
M16
G05
G00X8.4814Y-4.6875
M15
G01X8.4971Y-4.6875
M16
G05
G00X8.8154Y-3.1875
M15
G01X8.8311Y-3.1875
M16
G05
G00X8.8154Y-3.9375
M15
G01X8.8311Y-3.9375
M16
G05
G00X8.8154Y-4.6875
M15
G01X8.8311Y-4.6875
M16
G05
G00X8.8154Y-5.4375
M15
G01X8.8311Y-5.4375
M16
G05
G00X8.8107Y-5.4375
M15
G01X8.8718Y-5.4375
M16
G05
G00X9.2314Y-3.1875
M15
G01X9.2471Y-3.1875
M16
G05
G00X9.2314Y-3.9375
M15
G01X9.2471Y-3.9375
M16
G05
G00X9.2314Y-4.6875
M15
G01X9.2471Y-4.6875
M16
G05
G00X9.2314Y-5.4375
M15
G01X9.2471Y-5.4375
M16
G05
G00X9.5654Y-3.1875
M15
G01X9.5811Y-3.1875
M16
G05
G00X9.5654Y-3.9375
M15
G01X9.5811Y-3.9375
M16
G05
G00X9.5654Y-4.6875
M15
G01X9.5811Y-4.6875
M16
G05
G00X9.5654Y-5.4375
M15
G01X9.5811Y-5.4375
M16
G05
G00X9.9814Y-3.1875
M15
G01X9.9971Y-3.1875
M16
G05
G00X9.9814Y-3.9375
M15
G01X9.9971Y-3.9375
M16
G05
G00X9.9814Y-4.6875
M15
G01X9.9971Y-4.6875
M16
G05
G00X9.9814Y-5.4375
M15
G01X9.9971Y-5.4375
M16
G05
G00X10.3154Y-3.1875
M15
G01X10.3311Y-3.1875
M16
G05
G00X10.3154Y-3.9375
M15
G01X10.3311Y-3.9375
M16
G05
G00X10.3154Y-4.6875
M15
G01X10.3311Y-4.6875
M16
G05
G00X10.3154Y-5.4375
M15
G01X10.3311Y-5.4375
M16
G05
G00X10.7314Y-3.1875
M15
G01X10.7471Y-3.1875
M16
G05
G00X10.7314Y-3.9375
M15
G01X10.7471Y-3.9375
M16
G05
G00X10.7314Y-4.6875
M15
G01X10.7471Y-4.6875
M16
G05
G00X10.7314Y-5.4375
M15
G01X10.7471Y-5.4375
M16
G05
G00X11.0654Y-3.1875
M15
G01X11.0811Y-3.1875
M16
G05
G00X11.0654Y-3.9375
M15
G01X11.0811Y-3.9375
M16
G05
G00X11.0654Y-4.6875
M15
G01X11.0811Y-4.6875
M16
G05
G00X11.0654Y-5.4375
M15
G01X11.0811Y-5.4375
M16
G05
G00X11.4814Y-3.1875
M15
G01X11.4971Y-3.1875
M16
G05
G00X11.4814Y-3.9375
M15
G01X11.4971Y-3.9375
M16
G05
G00X11.4814Y-4.6875
M15
G01X11.4971Y-4.6875
M16
G05
G00X11.4814Y-5.4375
M15
G01X11.4971Y-5.4375
M16
G05
G00X11.8154Y-3.1875
M15
G01X11.8311Y-3.1875
M16
G05
G00X11.8154Y-3.9375
M15
G01X11.8311Y-3.9375
M16
G05
G00X11.8154Y-4.6875
M15
G01X11.8311Y-4.6875
M16
G05
G00X11.8154Y-5.4375
M15
G01X11.8311Y-5.4375
M16
G05
G00X12.2314Y-3.1875
M15
G01X12.2471Y-3.1875
M16
G05
G00X12.2314Y-3.9375
M15
G01X12.2471Y-3.9375
M16
G05
G00X12.2314Y-4.6875
M15
G01X12.2471Y-4.6875
M16
G05
G00X12.2314Y-5.4375
M15
G01X12.2471Y-5.4375
M16
G05
G00X12.5654Y-3.1875
M15
G01X12.5811Y-3.1875
M16
G05
G00X12.5654Y-3.9375
M15
G01X12.5811Y-3.9375
M16
G05
G00X12.5654Y-4.6875
M15
G01X12.5811Y-4.6875
M16
G05
G00X12.5654Y-5.4375
M15
G01X12.5811Y-5.4375
M16
G05
G00X12.9814Y-3.1875
M15
G01X12.9971Y-3.1875
M16
G05
G00X12.9814Y-3.9375
M15
G01X12.9971Y-3.9375
M16
G05
G00X12.9814Y-4.6875
M15
G01X12.9971Y-4.6875
M16
G05
G00X12.9814Y-5.4375
M15
G01X12.9971Y-5.4375
M16
G05
T0
M30
