%TF.GenerationSoftware,KiCad,Pcbnew,(6.0.0)*%
%TF.CreationDate,2022-07-10T02:32:02-04:00*%
%TF.ProjectId,EyesOfTomorrow,45796573-4f66-4546-9f6d-6f72726f772e,rev?*%
%TF.SameCoordinates,Original*%
%TF.FileFunction,Copper,L1,Top*%
%TF.FilePolarity,Positive*%
%FSLAX46Y46*%
G04 Gerber Fmt 4.6, Leading zero omitted, Abs format (unit mm)*
G04 Created by KiCad (PCBNEW (6.0.0)) date 2022-07-10 02:32:02*
%MOMM*%
%LPD*%
G01*
G04 APERTURE LIST*
G04 Aperture macros list*
%AMRoundRect*
0 Rectangle with rounded corners*
0 $1 Rounding radius*
0 $2 $3 $4 $5 $6 $7 $8 $9 X,Y pos of 4 corners*
0 Add a 4 corners polygon primitive as box body*
4,1,4,$2,$3,$4,$5,$6,$7,$8,$9,$2,$3,0*
0 Add four circle primitives for the rounded corners*
1,1,$1+$1,$2,$3*
1,1,$1+$1,$4,$5*
1,1,$1+$1,$6,$7*
1,1,$1+$1,$8,$9*
0 Add four rect primitives between the rounded corners*
20,1,$1+$1,$2,$3,$4,$5,0*
20,1,$1+$1,$4,$5,$6,$7,0*
20,1,$1+$1,$6,$7,$8,$9,0*
20,1,$1+$1,$8,$9,$2,$3,0*%
G04 Aperture macros list end*
%TA.AperFunction,SMDPad,CuDef*%
%ADD10R,0.600000X1.450000*%
%TD*%
%TA.AperFunction,SMDPad,CuDef*%
%ADD11R,0.300000X1.450000*%
%TD*%
%TA.AperFunction,ComponentPad*%
%ADD12O,1.000000X1.600000*%
%TD*%
%TA.AperFunction,ComponentPad*%
%ADD13O,1.000000X2.100000*%
%TD*%
%TA.AperFunction,SMDPad,CuDef*%
%ADD14RoundRect,0.147500X-0.172500X0.147500X-0.172500X-0.147500X0.172500X-0.147500X0.172500X0.147500X0*%
%TD*%
%TA.AperFunction,SMDPad,CuDef*%
%ADD15RoundRect,0.147500X-0.147500X-0.172500X0.147500X-0.172500X0.147500X0.172500X-0.147500X0.172500X0*%
%TD*%
%TA.AperFunction,SMDPad,CuDef*%
%ADD16RoundRect,0.147500X0.172500X-0.147500X0.172500X0.147500X-0.172500X0.147500X-0.172500X-0.147500X0*%
%TD*%
%TA.AperFunction,ComponentPad*%
%ADD17C,1.700000*%
%TD*%
%TA.AperFunction,ComponentPad*%
%ADD18O,1.700000X1.700000*%
%TD*%
%TA.AperFunction,SMDPad,CuDef*%
%ADD19RoundRect,0.147500X0.147500X0.172500X-0.147500X0.172500X-0.147500X-0.172500X0.147500X-0.172500X0*%
%TD*%
%TA.AperFunction,SMDPad,CuDef*%
%ADD20RoundRect,0.125000X-0.250000X-0.125000X0.250000X-0.125000X0.250000X0.125000X-0.250000X0.125000X0*%
%TD*%
%TA.AperFunction,SMDPad,CuDef*%
%ADD21R,1.651000X4.280000*%
%TD*%
%TA.AperFunction,SMDPad,CuDef*%
%ADD22R,1.150000X1.000000*%
%TD*%
%TA.AperFunction,SMDPad,CuDef*%
%ADD23RoundRect,0.150000X0.150000X-0.587500X0.150000X0.587500X-0.150000X0.587500X-0.150000X-0.587500X0*%
%TD*%
%TA.AperFunction,SMDPad,CuDef*%
%ADD24R,0.900000X1.700000*%
%TD*%
%TA.AperFunction,ComponentPad*%
%ADD25R,1.700000X1.700000*%
%TD*%
%TA.AperFunction,SMDPad,CuDef*%
%ADD26RoundRect,0.150000X0.150000X-0.512500X0.150000X0.512500X-0.150000X0.512500X-0.150000X-0.512500X0*%
%TD*%
%TA.AperFunction,SMDPad,CuDef*%
%ADD27RoundRect,0.218750X-0.256250X0.218750X-0.256250X-0.218750X0.256250X-0.218750X0.256250X0.218750X0*%
%TD*%
%TA.AperFunction,SMDPad,CuDef*%
%ADD28RoundRect,0.050000X-0.387500X-0.050000X0.387500X-0.050000X0.387500X0.050000X-0.387500X0.050000X0*%
%TD*%
%TA.AperFunction,SMDPad,CuDef*%
%ADD29RoundRect,0.050000X-0.050000X-0.387500X0.050000X-0.387500X0.050000X0.387500X-0.050000X0.387500X0*%
%TD*%
%TA.AperFunction,ComponentPad*%
%ADD30C,0.600000*%
%TD*%
%TA.AperFunction,SMDPad,CuDef*%
%ADD31R,2.550000X2.550000*%
%TD*%
%TA.AperFunction,ViaPad*%
%ADD32C,0.600000*%
%TD*%
%TA.AperFunction,Conductor*%
%ADD33C,0.200000*%
%TD*%
%TA.AperFunction,Conductor*%
%ADD34C,0.300000*%
%TD*%
G04 APERTURE END LIST*
D10*
%TO.P,J0,A1,GND*%
%TO.N,GND*%
X128662500Y-74075489D03*
%TO.P,J0,A4,VBUS*%
%TO.N,vUSB*%
X127862500Y-74075489D03*
D11*
%TO.P,J0,A5,CC1*%
%TO.N,Net-(J0-PadA5)*%
X126662500Y-74075489D03*
%TO.P,J0,A6,D+*%
%TO.N,D+*%
X125662500Y-74075489D03*
%TO.P,J0,A7,D-*%
%TO.N,D-*%
X125162500Y-74075489D03*
%TO.P,J0,A8,SBU1*%
%TO.N,unconnected-(J0-PadA8)*%
X124162500Y-74075489D03*
D10*
%TO.P,J0,A9,VBUS*%
%TO.N,vUSB*%
X122962500Y-74075489D03*
%TO.P,J0,A12,GND*%
%TO.N,GND*%
X122162500Y-74075489D03*
%TO.P,J0,B1,GND*%
X122162500Y-74075489D03*
%TO.P,J0,B4,VBUS*%
%TO.N,vUSB*%
X122962500Y-74075489D03*
D11*
%TO.P,J0,B5,CC2*%
%TO.N,Net-(J0-PadB5)*%
X123662500Y-74075489D03*
%TO.P,J0,B6,D+*%
%TO.N,D+*%
X124662500Y-74075489D03*
%TO.P,J0,B7,D-*%
%TO.N,D-*%
X126162500Y-74075489D03*
%TO.P,J0,B8,SBU2*%
%TO.N,unconnected-(J0-PadB8)*%
X127162500Y-74075489D03*
D10*
%TO.P,J0,B9,VBUS*%
%TO.N,vUSB*%
X127862500Y-74075489D03*
%TO.P,J0,B12,GND*%
%TO.N,GND*%
X128662500Y-74075489D03*
D12*
%TO.P,J0,S1,SHIELD*%
X121092500Y-68980489D03*
X129732500Y-68980489D03*
D13*
X129732500Y-73160489D03*
X121092500Y-73160489D03*
%TD*%
D14*
%TO.P,RF0,1*%
%TO.N,+3V3*%
X108738011Y-70191500D03*
%TO.P,RF0,2*%
%TO.N,CS*%
X108738011Y-71161500D03*
%TD*%
%TO.P,C6,1*%
%TO.N,+3V3*%
X114572761Y-90570500D03*
%TO.P,C6,2*%
%TO.N,GND*%
X114572761Y-91540500D03*
%TD*%
D15*
%TO.P,CP0,1*%
%TO.N,GND*%
X120533300Y-78869689D03*
%TO.P,CP0,2*%
%TO.N,VBUS*%
X121503300Y-78869689D03*
%TD*%
D16*
%TO.P,C0,1*%
%TO.N,+1V1*%
X115334761Y-79285000D03*
%TO.P,C0,2*%
%TO.N,GND*%
X115334761Y-78315000D03*
%TD*%
D17*
%TO.P,J3,1,Pin_1*%
%TO.N,20*%
X134137400Y-93141800D03*
D18*
%TO.P,J3,2,Pin_2*%
%TO.N,21*%
X134137400Y-90601800D03*
%TO.P,J3,3,Pin_3*%
%TO.N,22*%
X134137400Y-88061800D03*
%TO.P,J3,4,Pin_4*%
%TO.N,23*%
X134137400Y-85521800D03*
%TO.P,J3,5,Pin_5*%
%TO.N,24*%
X134137400Y-82981800D03*
%TO.P,J3,6,Pin_6*%
%TO.N,25*%
X134137400Y-80441800D03*
%TO.P,J3,7,Pin_7*%
%TO.N,26{slash}A0*%
X134137400Y-77901800D03*
%TO.P,J3,8,Pin_8*%
%TO.N,27{slash}A1*%
X134137400Y-75361800D03*
%TO.P,J3,9,Pin_9*%
%TO.N,28{slash}A2*%
X134137400Y-72821800D03*
%TO.P,J3,10,Pin_10*%
%TO.N,29{slash}A3*%
X134137400Y-70281800D03*
%TD*%
D16*
%TO.P,C9,1*%
%TO.N,+3V3*%
X117366761Y-79285000D03*
%TO.P,C9,2*%
%TO.N,GND*%
X117366761Y-78315000D03*
%TD*%
%TO.P,CF0,1*%
%TO.N,+3V3*%
X116485011Y-71161500D03*
%TO.P,CF0,2*%
%TO.N,GND*%
X116485011Y-70191500D03*
%TD*%
D19*
%TO.P,RR0,1*%
%TO.N,+3V3*%
X118366400Y-90017600D03*
%TO.P,RR0,2*%
%TO.N,~{RESET}*%
X117396400Y-90017600D03*
%TD*%
D16*
%TO.P,C3,1*%
%TO.N,+3V3*%
X113302761Y-78713500D03*
%TO.P,C3,2*%
%TO.N,GND*%
X113302761Y-77743500D03*
%TD*%
%TO.P,C10,1*%
%TO.N,+3V3*%
X116350761Y-79285000D03*
%TO.P,C10,2*%
%TO.N,GND*%
X116350761Y-78315000D03*
%TD*%
D14*
%TO.P,RX0,1*%
%TO.N,XOUT*%
X113556761Y-90570500D03*
%TO.P,RX0,2*%
%TO.N,XOUT1*%
X113556761Y-91540500D03*
%TD*%
%TO.P,RD1,1*%
%TO.N,DB-*%
X126111000Y-80435739D03*
%TO.P,RD1,2*%
%TO.N,DR-*%
X126111000Y-81405739D03*
%TD*%
D16*
%TO.P,CP1,1*%
%TO.N,+3V3*%
X124015500Y-82834489D03*
%TO.P,CP1,2*%
%TO.N,GND*%
X124015500Y-81864489D03*
%TD*%
D15*
%TO.P,C8,1*%
%TO.N,+3V3*%
X118278761Y-81381600D03*
%TO.P,C8,2*%
%TO.N,GND*%
X119248761Y-81381600D03*
%TD*%
D19*
%TO.P,C5,1*%
%TO.N,+3V3*%
X108158000Y-86487000D03*
%TO.P,C5,2*%
%TO.N,GND*%
X107188000Y-86487000D03*
%TD*%
D14*
%TO.P,RC0,1*%
%TO.N,Net-(J0-PadA5)*%
X127647700Y-76098689D03*
%TO.P,RC0,2*%
%TO.N,GND*%
X127647700Y-77068689D03*
%TD*%
D20*
%TO.P,U2,1,~{CS}*%
%TO.N,CS*%
X109879761Y-71184500D03*
%TO.P,U2,2,DO(IO1)*%
%TO.N,SD1*%
X109879761Y-72454500D03*
%TO.P,U2,3,IO2*%
%TO.N,SD2*%
X109879761Y-73724500D03*
%TO.P,U2,4,GND*%
%TO.N,GND*%
X109879761Y-74994500D03*
%TO.P,U2,5,DI(IO0)*%
%TO.N,SD0*%
X115279761Y-74994500D03*
%TO.P,U2,6,CLK*%
%TO.N,CLOCK*%
X115279761Y-73724500D03*
%TO.P,U2,7,IO3*%
%TO.N,SD3*%
X115279761Y-72454500D03*
%TO.P,U2,8,VCC*%
%TO.N,+3V3*%
X115279761Y-71184500D03*
D21*
%TO.P,U2,9,EP*%
%TO.N,GND*%
X112579761Y-73089500D03*
%TD*%
D17*
%TO.P,J1,1,Pin_1*%
%TO.N,0*%
X104006250Y-70356250D03*
D18*
%TO.P,J1,2,Pin_2*%
%TO.N,1*%
X104006250Y-72896250D03*
%TO.P,J1,3,Pin_3*%
%TO.N,2*%
X104006250Y-75436250D03*
%TO.P,J1,4,Pin_4*%
%TO.N,3*%
X104006250Y-77976250D03*
%TO.P,J1,5,Pin_5*%
%TO.N,4*%
X104006250Y-80516250D03*
%TO.P,J1,6,Pin_6*%
%TO.N,5*%
X104006250Y-83056250D03*
%TO.P,J1,7,Pin_7*%
%TO.N,6*%
X104006250Y-85596250D03*
%TO.P,J1,8,Pin_8*%
%TO.N,7*%
X104006250Y-88136250D03*
%TO.P,J1,9,Pin_9*%
%TO.N,8*%
X104006250Y-90676250D03*
%TO.P,J1,10,Pin_10*%
%TO.N,9*%
X104006250Y-93216250D03*
%TD*%
D22*
%TO.P,Y0,1,1*%
%TO.N,XIN*%
X112046761Y-94295500D03*
%TO.P,Y0,2,2*%
%TO.N,GND*%
X113796761Y-94295500D03*
%TO.P,Y0,3,3*%
%TO.N,XOUT1*%
X113796761Y-92895500D03*
%TO.P,Y0,4,4*%
%TO.N,GND*%
X112046761Y-92895500D03*
%TD*%
D19*
%TO.P,C4,1*%
%TO.N,+3V3*%
X108707761Y-82292500D03*
%TO.P,C4,2*%
%TO.N,GND*%
X107737761Y-82292500D03*
%TD*%
D23*
%TO.P,U1,1,GND*%
%TO.N,GND*%
X120830300Y-82296389D03*
%TO.P,U1,2,VO*%
%TO.N,+3V3*%
X122730300Y-82296389D03*
%TO.P,U1,3,VI*%
%TO.N,VBUS*%
X121780300Y-80421389D03*
%TD*%
D16*
%TO.P,RC1,1*%
%TO.N,GND*%
X123177300Y-77068689D03*
%TO.P,RC1,2*%
%TO.N,Net-(J0-PadB5)*%
X123177300Y-76098689D03*
%TD*%
D24*
%TO.P,S1,1,A*%
%TO.N,GND*%
X120749800Y-93345000D03*
%TO.P,S1,2,B*%
%TO.N,~{RESET}*%
X117349800Y-93345000D03*
%TD*%
D14*
%TO.P,CX0,1*%
%TO.N,XOUT1*%
X115207761Y-92602500D03*
%TO.P,CX0,2*%
%TO.N,GND*%
X115207761Y-93572500D03*
%TD*%
D25*
%TO.P,J4,1,Pin_1*%
%TO.N,VBUS*%
X107806250Y-67443750D03*
D18*
%TO.P,J4,2,Pin_2*%
%TO.N,+3V3*%
X110346250Y-67443750D03*
%TO.P,J4,3,Pin_3*%
%TO.N,GND*%
X112886250Y-67443750D03*
%TD*%
D14*
%TO.P,C2,1*%
%TO.N,+1V1*%
X115588761Y-90570500D03*
%TO.P,C2,2*%
%TO.N,GND*%
X115588761Y-91540500D03*
%TD*%
%TO.P,RD0,1*%
%TO.N,DB+*%
X125095000Y-80435739D03*
%TO.P,RD0,2*%
%TO.N,DR+*%
X125095000Y-81405739D03*
%TD*%
D17*
%TO.P,J2,1,Pin_1*%
%TO.N,10*%
X107662500Y-96850200D03*
D18*
%TO.P,J2,2,Pin_2*%
%TO.N,11*%
X110202500Y-96850200D03*
%TO.P,J2,3,Pin_3*%
%TO.N,12*%
X112742500Y-96850200D03*
%TO.P,J2,4,Pin_4*%
%TO.N,13*%
X115282500Y-96850200D03*
%TO.P,J2,5,Pin_5*%
%TO.N,14*%
X117822500Y-96850200D03*
%TO.P,J2,6,Pin_6*%
%TO.N,15*%
X120362500Y-96850200D03*
%TO.P,J2,7,Pin_7*%
%TO.N,16*%
X122902500Y-96850200D03*
%TO.P,J2,8,Pin_8*%
%TO.N,17*%
X125442500Y-96850200D03*
%TO.P,J2,9,Pin_9*%
%TO.N,18*%
X127982500Y-96850200D03*
%TO.P,J2,10,Pin_10*%
%TO.N,19*%
X130522500Y-96850200D03*
%TD*%
D26*
%TO.P,U3,1,I/O1*%
%TO.N,DB+*%
X124462500Y-78838789D03*
%TO.P,U3,2,GND*%
%TO.N,GND*%
X125412500Y-78838789D03*
%TO.P,U3,3,I/O2*%
%TO.N,DB-*%
X126362500Y-78838789D03*
%TO.P,U3,4,I/O2*%
%TO.N,D-*%
X126362500Y-76563789D03*
%TO.P,U3,5,VBUS*%
%TO.N,VBUS*%
X125412500Y-76563789D03*
%TO.P,U3,6,I/O1*%
%TO.N,D+*%
X124462500Y-76563789D03*
%TD*%
D27*
%TO.P,F0,1*%
%TO.N,vUSB*%
X120815100Y-76050189D03*
%TO.P,F0,2*%
%TO.N,VBUS*%
X120815100Y-77625189D03*
%TD*%
D16*
%TO.P,C1,1*%
%TO.N,+1V1*%
X112286761Y-78713500D03*
%TO.P,C1,2*%
%TO.N,GND*%
X112286761Y-77743500D03*
%TD*%
D15*
%TO.P,C7,1*%
%TO.N,+3V3*%
X119022000Y-86614000D03*
%TO.P,C7,2*%
%TO.N,GND*%
X119992000Y-86614000D03*
%TD*%
D14*
%TO.P,CX1,1*%
%TO.N,GND*%
X110635761Y-92602500D03*
%TO.P,CX1,2*%
%TO.N,XIN*%
X110635761Y-93572500D03*
%TD*%
D28*
%TO.P,U0,1,IOVDD*%
%TO.N,+3V3*%
X110055761Y-82550000D03*
%TO.P,U0,2,GPIO0*%
%TO.N,0*%
X110055761Y-82950000D03*
%TO.P,U0,3,GPIO1*%
%TO.N,1*%
X110055761Y-83350000D03*
%TO.P,U0,4,GPIO2*%
%TO.N,2*%
X110055761Y-83750000D03*
%TO.P,U0,5,GPIO3*%
%TO.N,3*%
X110055761Y-84150000D03*
%TO.P,U0,6,GPIO4*%
%TO.N,4*%
X110055761Y-84550000D03*
%TO.P,U0,7,GPIO5*%
%TO.N,5*%
X110055761Y-84950000D03*
%TO.P,U0,8,GPIO6*%
%TO.N,6*%
X110055761Y-85350000D03*
%TO.P,U0,9,GPIO7*%
%TO.N,7*%
X110055761Y-85750000D03*
%TO.P,U0,10,IOVDD*%
%TO.N,+3V3*%
X110055761Y-86150000D03*
%TO.P,U0,11,GPIO8*%
%TO.N,8*%
X110055761Y-86550000D03*
%TO.P,U0,12,GPIO9*%
%TO.N,9*%
X110055761Y-86950000D03*
%TO.P,U0,13,GPIO10*%
%TO.N,10*%
X110055761Y-87350000D03*
%TO.P,U0,14,GPIO11*%
%TO.N,11*%
X110055761Y-87750000D03*
D29*
%TO.P,U0,15,GPIO12*%
%TO.N,12*%
X110893261Y-88587500D03*
%TO.P,U0,16,GPIO13*%
%TO.N,13*%
X111293261Y-88587500D03*
%TO.P,U0,17,GPIO14*%
%TO.N,14*%
X111693261Y-88587500D03*
%TO.P,U0,18,GPIO15*%
%TO.N,15*%
X112093261Y-88587500D03*
%TO.P,U0,19,TESTEN*%
%TO.N,GND*%
X112493261Y-88587500D03*
%TO.P,U0,20,XIN*%
%TO.N,XIN*%
X112893261Y-88587500D03*
%TO.P,U0,21,XOUT*%
%TO.N,XOUT*%
X113293261Y-88587500D03*
%TO.P,U0,22,IOVDD*%
%TO.N,+3V3*%
X113693261Y-88587500D03*
%TO.P,U0,23,DVDD*%
%TO.N,+1V1*%
X114093261Y-88587500D03*
%TO.P,U0,24,SWCLK*%
%TO.N,unconnected-(U0-Pad24)*%
X114493261Y-88587500D03*
%TO.P,U0,25,SWDIO*%
%TO.N,unconnected-(U0-Pad25)*%
X114893261Y-88587500D03*
%TO.P,U0,26,RUN*%
%TO.N,~{RESET}*%
X115293261Y-88587500D03*
%TO.P,U0,27,GPIO16*%
%TO.N,16*%
X115693261Y-88587500D03*
%TO.P,U0,28,GPIO17*%
%TO.N,17*%
X116093261Y-88587500D03*
D28*
%TO.P,U0,29,GPIO18*%
%TO.N,18*%
X116930761Y-87750000D03*
%TO.P,U0,30,GPIO19*%
%TO.N,19*%
X116930761Y-87350000D03*
%TO.P,U0,31,GPIO20*%
%TO.N,20*%
X116930761Y-86950000D03*
%TO.P,U0,32,GPIO21*%
%TO.N,21*%
X116930761Y-86550000D03*
%TO.P,U0,33,IOVDD*%
%TO.N,+3V3*%
X116930761Y-86150000D03*
%TO.P,U0,34,GPIO22*%
%TO.N,22*%
X116930761Y-85750000D03*
%TO.P,U0,35,GPIO23*%
%TO.N,23*%
X116930761Y-85350000D03*
%TO.P,U0,36,GPIO24*%
%TO.N,24*%
X116930761Y-84950000D03*
%TO.P,U0,37,GPIO25*%
%TO.N,25*%
X116930761Y-84550000D03*
%TO.P,U0,38,GPIO26/ADC0*%
%TO.N,26{slash}A0*%
X116930761Y-84150000D03*
%TO.P,U0,39,GPIO27/ADC1*%
%TO.N,27{slash}A1*%
X116930761Y-83750000D03*
%TO.P,U0,40,GPIO28/ADC2*%
%TO.N,28{slash}A2*%
X116930761Y-83350000D03*
%TO.P,U0,41,GPIO29/ADC3*%
%TO.N,29{slash}A3*%
X116930761Y-82950000D03*
%TO.P,U0,42,IOVDD*%
%TO.N,+3V3*%
X116930761Y-82550000D03*
D29*
%TO.P,U0,43,ADC_AVDD*%
X116093261Y-81712500D03*
%TO.P,U0,44,VREG_VIN*%
X115693261Y-81712500D03*
%TO.P,U0,45,VREG_VOUT*%
%TO.N,+1V1*%
X115293261Y-81712500D03*
%TO.P,U0,46,USB_DM*%
%TO.N,DR-*%
X114893261Y-81712500D03*
%TO.P,U0,47,USB_DP*%
%TO.N,DR+*%
X114493261Y-81712500D03*
%TO.P,U0,48,USB_VDD*%
%TO.N,+3V3*%
X114093261Y-81712500D03*
%TO.P,U0,49,IOVDD*%
X113693261Y-81712500D03*
%TO.P,U0,50,DVDD*%
%TO.N,+1V1*%
X113293261Y-81712500D03*
%TO.P,U0,51,QSPI_SD3*%
%TO.N,SD3*%
X112893261Y-81712500D03*
%TO.P,U0,52,QSPI_SCLK*%
%TO.N,CLOCK*%
X112493261Y-81712500D03*
%TO.P,U0,53,QSPI_SD0*%
%TO.N,SD0*%
X112093261Y-81712500D03*
%TO.P,U0,54,QSPI_SD2*%
%TO.N,SD2*%
X111693261Y-81712500D03*
%TO.P,U0,55,QSPI_SD1*%
%TO.N,SD1*%
X111293261Y-81712500D03*
%TO.P,U0,56,QSPI_SS_N*%
%TO.N,CS*%
X110893261Y-81712500D03*
D30*
%TO.P,U0,57,GND*%
%TO.N,GND*%
X113493261Y-85150000D03*
D31*
X113493261Y-85150000D03*
%TD*%
D32*
%TO.N,GND*%
X106680000Y-69596000D03*
X105791000Y-86995000D03*
X110127761Y-76196500D03*
X119062500Y-74612500D03*
X105537000Y-74168000D03*
X123952000Y-94996000D03*
X117297200Y-81127600D03*
X112776000Y-77431000D03*
X118831300Y-78536800D03*
X123240800Y-78943200D03*
X105537000Y-76708000D03*
X108407200Y-80695800D03*
X119735600Y-82296000D03*
X105537000Y-71628000D03*
X119049800Y-93345000D03*
X120030300Y-78516561D03*
X129667000Y-83439000D03*
X131572000Y-84328000D03*
X116681250Y-91281250D03*
X115334761Y-68053239D03*
X108743750Y-92868750D03*
X130556000Y-93218000D03*
X122237500Y-76200000D03*
X115366800Y-84404200D03*
X127793750Y-79375000D03*
X120904000Y-86614000D03*
X105664000Y-93345000D03*
%TO.N,+3V3*%
X110898187Y-86108209D03*
X119430800Y-79146400D03*
X116096761Y-82546500D03*
X113937761Y-82725989D03*
X116118868Y-86149058D03*
X113493761Y-87671511D03*
X110933314Y-82651407D03*
X119684800Y-90957400D03*
X122910600Y-80848200D03*
%TO.N,VBUS*%
X120726200Y-80391000D03*
%TO.N,DR+*%
X118186200Y-77117558D03*
X124917200Y-82245200D03*
%TO.N,DR-*%
X118186200Y-77917061D03*
X125716064Y-82213245D03*
%TO.N,13*%
X110185200Y-90957400D03*
%TO.N,14*%
X111048800Y-90957400D03*
%TO.N,15*%
X111861600Y-91008200D03*
%TO.N,29{slash}A3*%
X118668800Y-82750500D03*
X126492000Y-82982380D03*
%TD*%
D33*
%TO.N,+1V1*%
X115293261Y-81712500D02*
X115293261Y-83096000D01*
X114505466Y-89531500D02*
X114699761Y-89531500D01*
X115063772Y-83325489D02*
X113539772Y-83325489D01*
X113793772Y-86974511D02*
X112168750Y-86974511D01*
X115293261Y-79326500D02*
X115334761Y-79285000D01*
X112286761Y-79244500D02*
X112286761Y-78713500D01*
X114093261Y-87274000D02*
X113793772Y-86974511D01*
X111668750Y-86474511D02*
X111668750Y-83825489D01*
X113293261Y-83297873D02*
X113293261Y-81712500D01*
X111668750Y-83825489D02*
X112068803Y-83425436D01*
X115588761Y-90420500D02*
X115588761Y-90570500D01*
X115293261Y-81712500D02*
X115293261Y-79326500D01*
X113293261Y-81712500D02*
X113293261Y-80251000D01*
X113293261Y-80251000D02*
X112286761Y-79244500D01*
X113539772Y-83325489D02*
X113265645Y-83325489D01*
X114093261Y-88587500D02*
X114093261Y-87274000D01*
X112168750Y-83325489D02*
X112068803Y-83425436D01*
X114699761Y-89531500D02*
X115588761Y-90420500D01*
X115293261Y-83096000D02*
X115063772Y-83325489D01*
X114093261Y-89119295D02*
X114505466Y-89531500D01*
X113539772Y-83325489D02*
X112168750Y-83325489D01*
X114093261Y-88587500D02*
X114093261Y-89119295D01*
X112168750Y-86974511D02*
X111668750Y-86474511D01*
%TO.N,GND*%
X121092500Y-73160489D02*
X121092500Y-68980489D01*
X123106189Y-77068689D02*
X122237500Y-76200000D01*
X113796761Y-94295500D02*
X112860781Y-95231480D01*
X115207761Y-93572500D02*
X116600289Y-92179972D01*
X117886572Y-78516572D02*
X118811072Y-78516572D01*
X120138500Y-86614000D02*
X120904000Y-86614000D01*
X119248761Y-81809161D02*
X119735600Y-82296000D01*
X125412500Y-78838789D02*
X125412500Y-77787500D01*
X129577500Y-73160489D02*
X128662500Y-74075489D01*
X118811072Y-78516572D02*
X118831300Y-78536800D01*
X107188000Y-86487000D02*
X106299000Y-86487000D01*
X112883500Y-77538500D02*
X112776000Y-77431000D01*
X109010000Y-92602500D02*
X108743750Y-92868750D01*
X127793750Y-78581250D02*
X127793750Y-79375000D01*
X110635761Y-92602500D02*
X109010000Y-92602500D01*
X112883500Y-77743500D02*
X112883500Y-77538500D01*
X106299000Y-86487000D02*
X105791000Y-86995000D01*
D34*
X117297200Y-81127600D02*
X117968780Y-80456020D01*
D33*
X112046761Y-92895500D02*
X110928761Y-92895500D01*
X127000000Y-77787500D02*
X127793750Y-78581250D01*
X115334761Y-78315000D02*
X117366761Y-78315000D01*
X114140961Y-68053239D02*
X113656492Y-67568770D01*
X112493261Y-88587500D02*
X112493261Y-92449000D01*
X110928761Y-92895500D02*
X110635761Y-92602500D01*
D34*
X117968780Y-80456020D02*
X118708420Y-80456020D01*
D33*
X115334761Y-69846500D02*
X115334761Y-68053239D01*
X112643261Y-73099500D02*
X112643261Y-73681000D01*
X121247500Y-73160489D02*
X122162500Y-74075489D01*
X113656492Y-67568770D02*
X112886250Y-67568770D01*
X109879761Y-75948500D02*
X110127761Y-76196500D01*
X120383428Y-78869689D02*
X120030300Y-78516561D01*
X120533300Y-78869689D02*
X120383428Y-78869689D01*
X109879761Y-74994500D02*
X109879761Y-75948500D01*
X116485011Y-70191500D02*
X115679761Y-70191500D01*
X112286761Y-77743500D02*
X112883500Y-77743500D01*
X115679761Y-70191500D02*
X115334761Y-69846500D01*
X117366761Y-78315000D02*
X117685000Y-78315000D01*
X110655486Y-95231480D02*
X108743750Y-93319744D01*
X112860781Y-95231480D02*
X110655486Y-95231480D01*
X112493261Y-92449000D02*
X112046761Y-92895500D01*
X112643261Y-73681000D02*
X110127761Y-76196500D01*
X117685000Y-78315000D02*
X117886572Y-78516572D01*
X112883500Y-77743500D02*
X113302761Y-77743500D01*
X125412500Y-77787500D02*
X127000000Y-77787500D01*
X116600289Y-92179972D02*
X116600289Y-91362211D01*
X129732500Y-68980489D02*
X129732500Y-73160489D01*
X129732500Y-73160489D02*
X129577500Y-73160489D01*
X108743750Y-93319744D02*
X108743750Y-92868750D01*
X121092500Y-73160489D02*
X121247500Y-73160489D01*
D34*
X119248761Y-80996361D02*
X119248761Y-81381600D01*
D33*
X115334761Y-68053239D02*
X114140961Y-68053239D01*
X123177300Y-77068689D02*
X123106189Y-77068689D01*
D34*
X118708420Y-80456020D02*
X119248761Y-80996361D01*
D33*
X116600289Y-91362211D02*
X116681250Y-91281250D01*
X119248761Y-81381600D02*
X119248761Y-81809161D01*
%TO.N,+3V3*%
X116096761Y-82546500D02*
X116927261Y-82546500D01*
D34*
X122730300Y-82296389D02*
X122730300Y-81028500D01*
D33*
X119002500Y-80006500D02*
X119430800Y-79578200D01*
X118366400Y-90017600D02*
X118745000Y-90017600D01*
X116096761Y-81716000D02*
X116093261Y-81712500D01*
X110898187Y-86108209D02*
X110856396Y-86150000D01*
X119430800Y-79146400D02*
X119430800Y-77216000D01*
X118668800Y-76454000D02*
X117881400Y-76454000D01*
X116985761Y-80006500D02*
X116836500Y-80006500D01*
X113693261Y-81712500D02*
X113693261Y-80759000D01*
X119430800Y-77216000D02*
X118668800Y-76454000D01*
X113493761Y-87671511D02*
X113693261Y-87871011D01*
X110933314Y-82651407D02*
X110831907Y-82550000D01*
X108965261Y-82550000D02*
X108707761Y-82292500D01*
X116119810Y-86150000D02*
X116930761Y-86150000D01*
X113693261Y-82481489D02*
X113937761Y-82725989D01*
X115693261Y-79942500D02*
X116350761Y-79285000D01*
X114093261Y-81712500D02*
X114093261Y-82570489D01*
X114286761Y-70191500D02*
X111872900Y-70191500D01*
X116093261Y-80264000D02*
X116093261Y-81712500D01*
X113693261Y-89284301D02*
X113693261Y-88587500D01*
X116927261Y-82546500D02*
X116930761Y-82550000D01*
X114093261Y-81712500D02*
X114093261Y-81159000D01*
X118278761Y-82292500D02*
X118278761Y-81381600D01*
X118021261Y-82550000D02*
X118278761Y-82292500D01*
X110831907Y-82550000D02*
X110055761Y-82550000D01*
D34*
X123149600Y-82296389D02*
X122730300Y-82296389D01*
D33*
X115969761Y-82546500D02*
X115693261Y-82270000D01*
X116462011Y-71184500D02*
X116485011Y-71161500D01*
X114572761Y-90163801D02*
X113693261Y-89284301D01*
X113693261Y-80759000D02*
X113693261Y-80016000D01*
X119430800Y-79578200D02*
X119430800Y-79146400D01*
X116118868Y-86149058D02*
X116119810Y-86150000D01*
X119022000Y-86614000D02*
X118491000Y-86614000D01*
X117512280Y-72188770D02*
X116485011Y-71161500D01*
X110755300Y-70191500D02*
X108738011Y-70191500D01*
X116096761Y-82546500D02*
X115969761Y-82546500D01*
X115279761Y-71184500D02*
X114286761Y-70191500D01*
X117512280Y-76084880D02*
X117512280Y-72188770D01*
X108450261Y-86487000D02*
X108787261Y-86150000D01*
X118491000Y-86614000D02*
X118027000Y-86150000D01*
X116350761Y-80006500D02*
X116093261Y-80264000D01*
X114572761Y-90570500D02*
X114572761Y-90163801D01*
D34*
X123687700Y-82834489D02*
X123149600Y-82296389D01*
X122730300Y-81028500D02*
X122910600Y-80848200D01*
D33*
X115693261Y-82270000D02*
X115693261Y-81712500D01*
D34*
X124015500Y-82834489D02*
X123687700Y-82834489D01*
D33*
X111872900Y-70191500D02*
X110755300Y-70191500D01*
X117881400Y-76454000D02*
X117512280Y-76084880D01*
X115279761Y-71184500D02*
X116462011Y-71184500D01*
X116836500Y-80006500D02*
X119002500Y-80006500D01*
X111872900Y-70191500D02*
X110346250Y-68664850D01*
X113302761Y-78713500D02*
X113302761Y-79625500D01*
X117366761Y-79625500D02*
X116985761Y-80006500D01*
X108787261Y-86150000D02*
X110055761Y-86150000D01*
X110346250Y-68664850D02*
X110346250Y-67568770D01*
X116096761Y-82546500D02*
X116096761Y-81716000D01*
X117366761Y-79285000D02*
X117366761Y-79625500D01*
X110055761Y-82550000D02*
X108965261Y-82550000D01*
X116836500Y-80006500D02*
X116350761Y-80006500D01*
X114093261Y-81159000D02*
X113693261Y-80759000D01*
X113693261Y-80016000D02*
X113302761Y-79625500D01*
X114093261Y-82570489D02*
X113937761Y-82725989D01*
X113693261Y-81712500D02*
X113693261Y-82481489D01*
X108158000Y-86487000D02*
X108450261Y-86487000D01*
X110856396Y-86150000D02*
X110055761Y-86150000D01*
X116930761Y-86150000D02*
X118027000Y-86150000D01*
X115693261Y-81712500D02*
X115693261Y-79942500D01*
X118745000Y-90017600D02*
X119684800Y-90957400D01*
X113693261Y-87871011D02*
X113693261Y-88587500D01*
X116930761Y-82550000D02*
X118021261Y-82550000D01*
D34*
%TO.N,VBUS*%
X121503300Y-78313389D02*
X121503300Y-78869689D01*
X121780300Y-80421389D02*
X120756589Y-80421389D01*
X120756589Y-80421389D02*
X120726200Y-80391000D01*
X125412500Y-76982716D02*
X124592327Y-77802889D01*
X125412500Y-76563789D02*
X125412500Y-76982716D01*
X121780300Y-79606289D02*
X121780300Y-80421389D01*
X120815100Y-77625189D02*
X121503300Y-78313389D01*
X121678800Y-77625189D02*
X120815100Y-77625189D01*
X124592327Y-77802889D02*
X121856500Y-77802889D01*
X121503300Y-79329289D02*
X121780300Y-79606289D01*
X121503300Y-78869689D02*
X121503300Y-79329289D01*
X121856500Y-77802889D02*
X121678800Y-77625189D01*
D33*
%TO.N,XOUT1*%
X115207761Y-92602500D02*
X114089761Y-92602500D01*
X113556761Y-92655500D02*
X113796761Y-92895500D01*
X113556761Y-91540500D02*
X113556761Y-92655500D01*
X114089761Y-92602500D02*
X113796761Y-92895500D01*
%TO.N,XIN*%
X112046761Y-94295500D02*
X112320783Y-94295500D01*
X112921272Y-89658011D02*
X112893261Y-89630000D01*
X112893261Y-89630000D02*
X112893261Y-88587500D01*
X110635761Y-94103500D02*
X110635761Y-93572500D01*
X112046761Y-94295500D02*
X110827761Y-94295500D01*
X112320783Y-94295500D02*
X112921272Y-93695011D01*
X110827761Y-94295500D02*
X110635761Y-94103500D01*
X112921272Y-93695011D02*
X112921272Y-89658011D01*
D34*
%TO.N,vUSB*%
X122949800Y-74088189D02*
X122962500Y-74075489D01*
X122949800Y-75100489D02*
X122949800Y-74088189D01*
X123865941Y-72501459D02*
X122962500Y-73404900D01*
X122949800Y-75100489D02*
X122685800Y-75364489D01*
X127162492Y-72501459D02*
X123865941Y-72501459D01*
X127862500Y-73215118D02*
X127862500Y-74075489D01*
X127162492Y-72501459D02*
X127162492Y-72515110D01*
X122962500Y-73404900D02*
X122962500Y-74075489D01*
X122685800Y-75364489D02*
X120942100Y-75364489D01*
X127162492Y-72515110D02*
X127862500Y-73215118D01*
X120942100Y-75364489D02*
X120815100Y-75491489D01*
X120815100Y-75491489D02*
X120815100Y-76050189D01*
D33*
%TO.N,D+*%
X124462500Y-76215572D02*
X124662500Y-76015572D01*
X125612011Y-73050978D02*
X125662500Y-73101467D01*
X124712989Y-73050978D02*
X125612011Y-73050978D01*
X124462500Y-76563789D02*
X124462500Y-76215572D01*
X124662500Y-73101467D02*
X124712989Y-73050978D01*
X125662500Y-73101467D02*
X125662500Y-74075489D01*
X124662500Y-74075489D02*
X124662500Y-73101467D01*
X124662500Y-76015572D02*
X124662500Y-74075489D01*
%TO.N,D-*%
X126112011Y-75100000D02*
X126162500Y-75049511D01*
X125212989Y-75100000D02*
X126112011Y-75100000D01*
X125162500Y-74075489D02*
X125162500Y-75049511D01*
X126162500Y-74075489D02*
X126162500Y-76363789D01*
X126162500Y-75049511D02*
X126162500Y-74075489D01*
X126162500Y-76363789D02*
X126362500Y-76563789D01*
X125162500Y-75049511D02*
X125212989Y-75100000D01*
%TO.N,DB+*%
X124462500Y-79803239D02*
X124462500Y-78838789D01*
X125095000Y-80435739D02*
X124462500Y-79803239D01*
%TO.N,DR+*%
X124917200Y-81583539D02*
X125095000Y-81405739D01*
X114291522Y-79758948D02*
X114291522Y-77792333D01*
X124917200Y-82245200D02*
X124917200Y-81583539D01*
X114291522Y-77792333D02*
X114794913Y-77288942D01*
X114794914Y-77288941D02*
X118014817Y-77288941D01*
X114493261Y-81712500D02*
X114493261Y-79960687D01*
X114493261Y-79960687D02*
X114291522Y-79758948D01*
X118014817Y-77288941D02*
X118186200Y-77117558D01*
X114794913Y-77288942D02*
X114794914Y-77288941D01*
%TO.N,DB-*%
X126362500Y-78838789D02*
X126362500Y-80184239D01*
X126362500Y-80184239D02*
X126111000Y-80435739D01*
%TO.N,DR-*%
X114960400Y-77688461D02*
X117957600Y-77688461D01*
X117957600Y-77688461D02*
X118186200Y-77917061D01*
X114691041Y-79593461D02*
X114691041Y-78663702D01*
X125716064Y-82213245D02*
X125716064Y-81800675D01*
X114893261Y-81712500D02*
X114893261Y-79805722D01*
X114893261Y-79805722D02*
X114893261Y-79795681D01*
X114893261Y-79795681D02*
X114691041Y-79593461D01*
X114691041Y-77957820D02*
X114960400Y-77688461D01*
X114691041Y-78663702D02*
X114691041Y-77957820D01*
X125716064Y-81800675D02*
X126111000Y-81405739D01*
%TO.N,CS*%
X108077242Y-71822269D02*
X108738011Y-71161500D01*
X108738011Y-71161500D02*
X109856761Y-71161500D01*
X109856761Y-71161500D02*
X109879761Y-71184500D01*
X110893261Y-81712500D02*
X110893261Y-81241036D01*
X110893261Y-81241036D02*
X108077242Y-78425017D01*
X108077242Y-78425017D02*
X108077242Y-71822269D01*
%TO.N,~{RESET}*%
X117349800Y-90064200D02*
X117396400Y-90017600D01*
X117396400Y-90017600D02*
X116662200Y-90017600D01*
X117349800Y-93345000D02*
X117349800Y-90064200D01*
X115674667Y-89941400D02*
X115293261Y-89559994D01*
X115293261Y-89559994D02*
X115293261Y-88587500D01*
X116662200Y-90017600D02*
X116584466Y-89939866D01*
X116584466Y-89939866D02*
X116582932Y-89941400D01*
X116582932Y-89941400D02*
X115674667Y-89941400D01*
%TO.N,XOUT*%
X113556761Y-89712807D02*
X113556761Y-90570500D01*
X113293261Y-88587500D02*
X113293261Y-89449307D01*
X113293261Y-89449307D02*
X113556761Y-89712807D01*
%TO.N,0*%
X110055761Y-82950000D02*
X107443080Y-82950000D01*
X106424250Y-70356250D02*
X104081270Y-70356250D01*
X107061000Y-82567920D02*
X107061000Y-70993000D01*
X107443080Y-82950000D02*
X107061000Y-82567920D01*
X107061000Y-70993000D02*
X106424250Y-70356250D01*
%TO.N,1*%
X107278074Y-83350000D02*
X106661480Y-82733406D01*
X106661480Y-73914000D02*
X105643730Y-72896250D01*
X110055761Y-83350000D02*
X107278074Y-83350000D01*
X106661480Y-82733406D02*
X106661480Y-73914000D01*
X105643730Y-72896250D02*
X104081270Y-72896250D01*
%TO.N,2*%
X110055761Y-83750000D02*
X107113068Y-83750000D01*
X106261960Y-76073000D02*
X105625210Y-75436250D01*
X107113068Y-83750000D02*
X106261960Y-82898892D01*
X105625210Y-75436250D02*
X104081270Y-75436250D01*
X106261960Y-82898892D02*
X106261960Y-76073000D01*
%TO.N,3*%
X105862440Y-78430440D02*
X105408250Y-77976250D01*
X105862440Y-83064378D02*
X105862440Y-78430440D01*
X106948062Y-84150000D02*
X105862440Y-83064378D01*
X105408250Y-77976250D02*
X104081270Y-77976250D01*
X110055761Y-84150000D02*
X106948062Y-84150000D01*
%TO.N,4*%
X106783056Y-84550000D02*
X105462920Y-83229864D01*
X110055761Y-84550000D02*
X106783056Y-84550000D01*
X105462920Y-80951920D02*
X105027250Y-80516250D01*
X105462920Y-83229864D02*
X105462920Y-80951920D01*
X105027250Y-80516250D02*
X104081270Y-80516250D01*
%TO.N,5*%
X106618050Y-84950000D02*
X104724300Y-83056250D01*
X110055761Y-84950000D02*
X106618050Y-84950000D01*
X104724300Y-83056250D02*
X104081270Y-83056250D01*
%TO.N,6*%
X104327520Y-85350000D02*
X104081270Y-85596250D01*
X110055761Y-85350000D02*
X104327520Y-85350000D01*
%TO.N,7*%
X110055761Y-85750000D02*
X105766000Y-85750000D01*
X104770750Y-87371750D02*
X104081270Y-88061230D01*
X104081270Y-88061230D02*
X104081270Y-88136250D01*
X104770750Y-86745250D02*
X104770750Y-87371750D01*
X105766000Y-85750000D02*
X104770750Y-86745250D01*
%TO.N,8*%
X106664520Y-87106520D02*
X105537000Y-88234040D01*
X104776750Y-90676250D02*
X104081270Y-90676250D01*
X109030000Y-86550000D02*
X109030000Y-86567181D01*
X110055761Y-86550000D02*
X109030000Y-86550000D01*
X105537000Y-89916000D02*
X104776750Y-90676250D01*
X109030000Y-86567181D02*
X108490661Y-87106520D01*
X108490661Y-87106520D02*
X106664520Y-87106520D01*
X105537000Y-88234040D02*
X105537000Y-89916000D01*
%TO.N,9*%
X105936520Y-88399526D02*
X105936520Y-91361000D01*
X105936520Y-91361000D02*
X104081270Y-93216250D01*
X109212187Y-86950000D02*
X108656147Y-87506040D01*
X106830006Y-87506040D02*
X105936520Y-88399526D01*
X110055761Y-86950000D02*
X109212187Y-86950000D01*
X108656147Y-87506040D02*
X106830006Y-87506040D01*
%TO.N,10*%
X106336040Y-95486040D02*
X107587480Y-96737480D01*
X106336040Y-88565012D02*
X106336040Y-95486040D01*
X106995492Y-87905560D02*
X106336040Y-88565012D01*
X108821633Y-87905560D02*
X106995492Y-87905560D01*
X110055761Y-87350000D02*
X109377193Y-87350000D01*
X107587480Y-96737480D02*
X107662500Y-96737480D01*
X109377193Y-87350000D02*
X108821633Y-87905560D01*
%TO.N,11*%
X106735560Y-94289560D02*
X107569000Y-95123000D01*
X107160978Y-88305080D02*
X106735560Y-88730498D01*
X109542199Y-87750000D02*
X108987119Y-88305080D01*
X110055761Y-87750000D02*
X109542199Y-87750000D01*
X107569000Y-95123000D02*
X109347000Y-95123000D01*
X109347000Y-95123000D02*
X110202500Y-95978500D01*
X110202500Y-95978500D02*
X110202500Y-96737480D01*
X106735560Y-88730498D02*
X106735560Y-94289560D01*
X108987119Y-88305080D02*
X107160978Y-88305080D01*
%TO.N,12*%
X109582481Y-94723481D02*
X110490000Y-95631000D01*
X111636020Y-95631000D02*
X112742500Y-96737480D01*
X107326464Y-88704600D02*
X107135080Y-88895984D01*
X110490000Y-95631000D02*
X111636020Y-95631000D01*
X107135080Y-88895984D02*
X107135080Y-94124074D01*
X110776161Y-88704600D02*
X107326464Y-88704600D01*
X107734486Y-94723480D02*
X109582481Y-94723481D01*
X107135080Y-94124074D02*
X107734486Y-94723480D01*
X110893261Y-88587500D02*
X110776161Y-88704600D01*
%TO.N,13*%
X111293261Y-88587500D02*
X111293261Y-89849339D01*
X111293261Y-89849339D02*
X110185200Y-90957400D01*
%TO.N,14*%
X111693261Y-90312939D02*
X111048800Y-90957400D01*
X111693261Y-88587500D02*
X111693261Y-90312939D01*
%TO.N,15*%
X112093261Y-88587500D02*
X112093261Y-90776539D01*
X112093261Y-90776539D02*
X111861600Y-91008200D01*
%TO.N,16*%
X115693261Y-88587500D02*
X115693261Y-89119295D01*
X122902500Y-93235300D02*
X122902500Y-96737480D01*
X115931166Y-89357200D02*
X119024400Y-89357200D01*
X119024400Y-89357200D02*
X122902500Y-93235300D01*
X115693261Y-89119295D02*
X115931166Y-89357200D01*
%TO.N,17*%
X125442500Y-95210294D02*
X125442500Y-96737480D01*
X119189886Y-88957680D02*
X125442500Y-95210294D01*
X116093261Y-88587500D02*
X116093261Y-88661261D01*
X116093261Y-88661261D02*
X116389680Y-88957680D01*
X116389680Y-88957680D02*
X119189886Y-88957680D01*
%TO.N,18*%
X117717360Y-88558160D02*
X119355373Y-88558161D01*
X119355373Y-88558161D02*
X125844012Y-95046800D01*
X127982500Y-96232500D02*
X127982500Y-96737480D01*
X116930761Y-87750000D02*
X116930761Y-87771561D01*
X126796800Y-95046800D02*
X127982500Y-96232500D01*
X116930761Y-87771561D02*
X117717360Y-88558160D01*
X125844012Y-95046800D02*
X126796800Y-95046800D01*
%TO.N,19*%
X117462556Y-87350000D02*
X118271196Y-88158640D01*
X126958797Y-94643791D02*
X127971406Y-95656400D01*
X119520860Y-88158642D02*
X126006009Y-94643791D01*
X126006009Y-94643791D02*
X126958797Y-94643791D01*
X118271196Y-88158640D02*
X119520860Y-88158642D01*
X128854200Y-95656400D02*
X129935280Y-96737480D01*
X116930761Y-87350000D02*
X117462556Y-87350000D01*
X127971406Y-95656400D02*
X128854200Y-95656400D01*
X129935280Y-96737480D02*
X130522500Y-96737480D01*
%TO.N,20*%
X118436682Y-87759120D02*
X119102722Y-87759122D01*
X131607978Y-86778040D02*
X132308455Y-87478517D01*
X132308455Y-87478517D02*
X132308455Y-91428505D01*
X117628043Y-86950481D02*
X118436682Y-87759120D01*
X121256288Y-87759120D02*
X122237368Y-86778040D01*
X116931241Y-86950480D02*
X117628043Y-86950481D01*
X119102722Y-87759122D02*
X121256288Y-87759120D01*
X116930761Y-86950000D02*
X116931241Y-86950480D01*
X132308455Y-91428505D02*
X134036200Y-93156250D01*
X122237368Y-86778040D02*
X131607978Y-86778040D01*
%TO.N,21*%
X121090801Y-87359601D02*
X122071882Y-86378520D01*
X118602169Y-87359601D02*
X121090801Y-87359601D01*
X131773464Y-86378520D02*
X132707975Y-87313031D01*
X122071882Y-86378520D02*
X131773464Y-86378520D01*
X132707975Y-87313031D02*
X132707975Y-89288025D01*
X132707975Y-89288025D02*
X134036200Y-90616250D01*
X117792568Y-86550000D02*
X118602169Y-87359601D01*
X116930761Y-86550000D02*
X117792568Y-86550000D01*
%TO.N,22*%
X118618000Y-85979000D02*
X118389000Y-85750000D01*
X118389000Y-85750000D02*
X116930761Y-85750000D01*
X131938950Y-85979000D02*
X118618000Y-85979000D01*
X134036200Y-88076250D02*
X131938950Y-85979000D01*
%TO.N,23*%
X118783486Y-85579480D02*
X133992970Y-85579480D01*
X118554006Y-85350000D02*
X118783486Y-85579480D01*
X116930761Y-85350000D02*
X118554006Y-85350000D01*
X133992970Y-85579480D02*
X134036200Y-85536250D01*
%TO.N,24*%
X118948972Y-85179960D02*
X131852490Y-85179960D01*
X131852490Y-85179960D02*
X134036200Y-82996250D01*
X118719012Y-84950000D02*
X118948972Y-85179960D01*
X116930761Y-84950000D02*
X118719012Y-84950000D01*
%TO.N,25*%
X118884018Y-84550000D02*
X119114458Y-84780440D01*
X116930761Y-84550000D02*
X118884018Y-84550000D01*
X129712010Y-84780440D02*
X134036200Y-80456250D01*
X119114458Y-84780440D02*
X129712010Y-84780440D01*
%TO.N,26{slash}A0*%
X119049024Y-84150000D02*
X116930761Y-84150000D01*
X127571530Y-84380920D02*
X119279944Y-84380920D01*
X134036200Y-77916250D02*
X127571530Y-84380920D01*
X119279944Y-84380920D02*
X119049024Y-84150000D01*
%TO.N,27{slash}A1*%
X132842000Y-78545444D02*
X132842000Y-75946000D01*
X116930761Y-83750000D02*
X119214030Y-83750000D01*
X119445430Y-83981400D02*
X127406044Y-83981400D01*
X132842000Y-75946000D02*
X133411750Y-75376250D01*
X127406044Y-83981400D02*
X132842000Y-78545444D01*
X133411750Y-75376250D02*
X134036200Y-75376250D01*
X119214030Y-83750000D02*
X119445430Y-83981400D01*
%TO.N,28{slash}A2*%
X119610916Y-83581880D02*
X127240558Y-83581880D01*
X132442480Y-74429970D02*
X134036200Y-72836250D01*
X127240558Y-83581880D02*
X132442480Y-78379958D01*
X132442480Y-78379958D02*
X132442480Y-74429970D01*
X119379036Y-83350000D02*
X119610916Y-83581880D01*
X116930761Y-83350000D02*
X119379036Y-83350000D01*
%TO.N,29{slash}A3*%
X132042960Y-72289490D02*
X132042960Y-78105000D01*
X132042960Y-78214472D02*
X127275052Y-82982380D01*
X134036200Y-70296250D02*
X132042960Y-72289490D01*
X127275052Y-82982380D02*
X126492000Y-82982380D01*
X116930761Y-82950000D02*
X118469300Y-82950000D01*
X132042960Y-78105000D02*
X132042960Y-78214472D01*
X118469300Y-82950000D02*
X118668800Y-82750500D01*
%TO.N,SD3*%
X117112761Y-76069500D02*
X117112761Y-72894500D01*
X112893261Y-80416006D02*
X111640631Y-79163377D01*
X116672761Y-72454500D02*
X115279761Y-72454500D01*
X111640631Y-79163377D02*
X111640631Y-77350631D01*
X111640631Y-77350631D02*
X112159761Y-76831500D01*
X116350761Y-76831500D02*
X117112761Y-76069500D01*
X112893261Y-81712500D02*
X112893261Y-80416006D01*
X117112761Y-72894500D02*
X116672761Y-72454500D01*
X112159761Y-76831500D02*
X116350761Y-76831500D01*
%TO.N,CLOCK*%
X112493261Y-81712500D02*
X112493261Y-80581012D01*
X111994276Y-76431980D02*
X116185275Y-76431980D01*
X116713241Y-74145980D02*
X116291761Y-73724500D01*
X111241111Y-79328861D02*
X111241111Y-77185145D01*
X116185275Y-76431980D02*
X116713241Y-75904014D01*
X116291761Y-73724500D02*
X115279761Y-73724500D01*
X112493261Y-80581012D02*
X111241111Y-79328861D01*
X111241111Y-77185145D02*
X111994276Y-76431980D01*
X116713241Y-75904014D02*
X116713241Y-74145980D01*
%TO.N,SD0*%
X110841591Y-79494347D02*
X110841591Y-77019657D01*
X116313721Y-75270460D02*
X116037761Y-74994500D01*
X116313721Y-75738528D02*
X116313721Y-75270460D01*
X111828789Y-76032460D02*
X116019789Y-76032460D01*
X112093261Y-80746018D02*
X110841591Y-79494347D01*
X110841591Y-77019657D02*
X111828789Y-76032460D01*
X112093261Y-81712500D02*
X112093261Y-80746018D01*
X116019789Y-76032460D02*
X116313721Y-75738528D01*
X116037761Y-74994500D02*
X115279761Y-74994500D01*
%TO.N,SD2*%
X108876281Y-74145980D02*
X109297761Y-73724500D01*
X111693261Y-81712500D02*
X111693261Y-80911024D01*
X108876281Y-78094044D02*
X108876281Y-74145980D01*
X111693261Y-80911024D02*
X108876281Y-78094044D01*
X109297761Y-73724500D02*
X109879761Y-73724500D01*
%TO.N,SD1*%
X108476761Y-78259530D02*
X108476761Y-73275500D01*
X109297761Y-72454500D02*
X109879761Y-72454500D01*
X108476761Y-73275500D02*
X109297761Y-72454500D01*
X111293261Y-81712500D02*
X111293261Y-81076030D01*
X111293261Y-81076030D02*
X108476761Y-78259530D01*
%TO.N,Net-(J0-PadB5)*%
X123662500Y-74075489D02*
X123662500Y-75613489D01*
X123662500Y-75613489D02*
X123177300Y-76098689D01*
%TO.N,Net-(J0-PadA5)*%
X126662500Y-75113489D02*
X127647700Y-76098689D01*
X126662500Y-74075489D02*
X126662500Y-75113489D01*
%TD*%
%TA.AperFunction,Conductor*%
%TO.N,GND*%
G36*
X131371860Y-87406542D02*
G01*
X131392834Y-87423445D01*
X131663050Y-87693661D01*
X131697076Y-87755973D01*
X131699955Y-87782756D01*
X131699955Y-91380369D01*
X131698877Y-91396812D01*
X131694705Y-91428505D01*
X131699955Y-91468385D01*
X131699955Y-91468390D01*
X131711981Y-91559739D01*
X131715617Y-91587356D01*
X131776931Y-91735381D01*
X131781958Y-91741932D01*
X131781959Y-91741934D01*
X131849975Y-91830574D01*
X131849981Y-91830580D01*
X131874468Y-91862492D01*
X131881023Y-91867522D01*
X131899834Y-91881957D01*
X131912225Y-91892824D01*
X132769744Y-92750343D01*
X132803770Y-92812655D01*
X132802067Y-92873107D01*
X132798389Y-92886370D01*
X132774651Y-93108495D01*
X132774948Y-93113648D01*
X132774948Y-93113651D01*
X132780864Y-93216250D01*
X132787510Y-93331515D01*
X132788647Y-93336561D01*
X132788648Y-93336567D01*
X132803750Y-93403578D01*
X132836622Y-93549439D01*
X132920666Y-93756416D01*
X132957803Y-93817018D01*
X133022459Y-93922527D01*
X133037387Y-93946888D01*
X133183650Y-94115738D01*
X133355526Y-94258432D01*
X133548400Y-94371138D01*
X133553225Y-94372980D01*
X133553226Y-94372981D01*
X133554693Y-94373541D01*
X133555200Y-94373927D01*
X133557895Y-94375218D01*
X133557629Y-94375774D01*
X133611199Y-94416526D01*
X133635495Y-94483235D01*
X133635750Y-94491253D01*
X133635750Y-95200672D01*
X133634250Y-95220056D01*
X133630564Y-95243730D01*
X133632218Y-95256375D01*
X133632802Y-95283692D01*
X133620311Y-95426472D01*
X133616498Y-95448096D01*
X133586537Y-95559912D01*
X133573501Y-95608564D01*
X133565989Y-95629202D01*
X133495782Y-95779760D01*
X133484800Y-95798780D01*
X133389515Y-95934862D01*
X133375397Y-95951687D01*
X133257937Y-96069147D01*
X133241112Y-96083265D01*
X133105030Y-96178550D01*
X133086010Y-96189532D01*
X132935452Y-96259739D01*
X132914815Y-96267250D01*
X132754346Y-96310248D01*
X132732725Y-96314060D01*
X132682830Y-96318426D01*
X132596831Y-96325949D01*
X132580371Y-96325396D01*
X132580366Y-96325805D01*
X132571392Y-96325695D01*
X132562520Y-96324314D01*
X132553618Y-96325478D01*
X132553615Y-96325478D01*
X132530999Y-96328436D01*
X132514661Y-96329500D01*
X131860145Y-96329500D01*
X131792024Y-96309498D01*
X131744595Y-96253742D01*
X131725913Y-96210776D01*
X131723854Y-96206040D01*
X131602514Y-96018477D01*
X131452170Y-95853251D01*
X131448119Y-95850052D01*
X131448115Y-95850048D01*
X131280914Y-95718000D01*
X131280910Y-95717998D01*
X131276859Y-95714798D01*
X131081289Y-95606838D01*
X131076420Y-95605114D01*
X131076416Y-95605112D01*
X130875587Y-95533995D01*
X130875583Y-95533994D01*
X130870712Y-95532269D01*
X130865619Y-95531362D01*
X130865616Y-95531361D01*
X130655873Y-95494000D01*
X130655867Y-95493999D01*
X130650784Y-95493094D01*
X130576952Y-95492192D01*
X130432581Y-95490428D01*
X130432579Y-95490428D01*
X130427411Y-95490365D01*
X130206591Y-95524155D01*
X129994256Y-95593557D01*
X129851055Y-95668103D01*
X129781399Y-95681815D01*
X129715384Y-95655690D01*
X129703783Y-95645434D01*
X129318515Y-95260166D01*
X129307648Y-95247775D01*
X129293213Y-95228963D01*
X129288187Y-95222413D01*
X129256275Y-95197926D01*
X129256272Y-95197923D01*
X129211783Y-95163785D01*
X129167629Y-95129904D01*
X129167627Y-95129903D01*
X129161076Y-95124876D01*
X129013051Y-95063562D01*
X129004864Y-95062484D01*
X129004863Y-95062484D01*
X128993658Y-95061009D01*
X128962462Y-95056902D01*
X128894085Y-95047900D01*
X128894082Y-95047900D01*
X128894074Y-95047899D01*
X128862389Y-95043728D01*
X128854200Y-95042650D01*
X128822507Y-95046822D01*
X128806064Y-95047900D01*
X128275645Y-95047900D01*
X128207524Y-95027898D01*
X128186550Y-95010995D01*
X127423112Y-94247557D01*
X127412245Y-94235166D01*
X127397810Y-94216354D01*
X127392784Y-94209804D01*
X127360872Y-94185317D01*
X127360869Y-94185314D01*
X127289621Y-94130643D01*
X127272226Y-94117295D01*
X127272224Y-94117294D01*
X127265673Y-94112267D01*
X127117648Y-94050953D01*
X127109461Y-94049875D01*
X127109460Y-94049875D01*
X127098255Y-94048400D01*
X127067059Y-94044293D01*
X126998682Y-94035291D01*
X126998679Y-94035291D01*
X126998671Y-94035290D01*
X126966986Y-94031119D01*
X126958797Y-94030041D01*
X126927104Y-94034213D01*
X126910661Y-94035291D01*
X126310248Y-94035291D01*
X126242127Y-94015289D01*
X126221153Y-93998386D01*
X120805483Y-88582716D01*
X120771457Y-88520404D01*
X120776522Y-88449589D01*
X120819069Y-88392753D01*
X120885589Y-88367942D01*
X120894578Y-88367621D01*
X121199865Y-88367620D01*
X121208152Y-88367620D01*
X121224597Y-88368698D01*
X121256288Y-88372870D01*
X121264477Y-88371792D01*
X121296161Y-88367621D01*
X121296173Y-88367620D01*
X121296176Y-88367620D01*
X121296185Y-88367619D01*
X121406953Y-88353036D01*
X121406955Y-88353035D01*
X121415139Y-88351958D01*
X121434520Y-88343930D01*
X121563164Y-88290644D01*
X121658360Y-88217597D01*
X121658363Y-88217594D01*
X121690275Y-88193107D01*
X121695305Y-88186552D01*
X121709740Y-88167741D01*
X121720607Y-88155350D01*
X122452512Y-87423445D01*
X122514824Y-87389419D01*
X122541607Y-87386540D01*
X131303739Y-87386540D01*
X131371860Y-87406542D01*
G37*
%TD.AperFunction*%
%TA.AperFunction,Conductor*%
G36*
X105645572Y-92616663D02*
G01*
X105702408Y-92659210D01*
X105727219Y-92725730D01*
X105727540Y-92734719D01*
X105727540Y-95437904D01*
X105726462Y-95454347D01*
X105722290Y-95486040D01*
X105727540Y-95525920D01*
X105727540Y-95525925D01*
X105739821Y-95619211D01*
X105743202Y-95644891D01*
X105804516Y-95792916D01*
X105809543Y-95799467D01*
X105809544Y-95799469D01*
X105877560Y-95888109D01*
X105877566Y-95888115D01*
X105902053Y-95920027D01*
X105908608Y-95925057D01*
X105927419Y-95939492D01*
X105939810Y-95950359D01*
X106103856Y-96114405D01*
X106137882Y-96176717D01*
X106132817Y-96247532D01*
X106090270Y-96304368D01*
X106023750Y-96329179D01*
X106014761Y-96329500D01*
X105618078Y-96329500D01*
X105598693Y-96328000D01*
X105583892Y-96325695D01*
X105583889Y-96325695D01*
X105575020Y-96324314D01*
X105562372Y-96325968D01*
X105535058Y-96326552D01*
X105447302Y-96318875D01*
X105392275Y-96314060D01*
X105370654Y-96310248D01*
X105210185Y-96267250D01*
X105189548Y-96259739D01*
X105038990Y-96189532D01*
X105019970Y-96178550D01*
X104883888Y-96083265D01*
X104867063Y-96069147D01*
X104749603Y-95951687D01*
X104735485Y-95934862D01*
X104640200Y-95798780D01*
X104629218Y-95779760D01*
X104559011Y-95629202D01*
X104551499Y-95608564D01*
X104538463Y-95559912D01*
X104508502Y-95448096D01*
X104504689Y-95426472D01*
X104493096Y-95293954D01*
X104493121Y-95271716D01*
X104493513Y-95267340D01*
X104494321Y-95262539D01*
X104494474Y-95250000D01*
X104490523Y-95222412D01*
X104489250Y-95204549D01*
X104489250Y-94571051D01*
X104509252Y-94502930D01*
X104559817Y-94457900D01*
X104699600Y-94389421D01*
X104699599Y-94389421D01*
X104704244Y-94387146D01*
X104886110Y-94257423D01*
X104897086Y-94246486D01*
X105013412Y-94130565D01*
X105044346Y-94099739D01*
X105077132Y-94054113D01*
X105171685Y-93922527D01*
X105174703Y-93918327D01*
X105179348Y-93908930D01*
X105271386Y-93722703D01*
X105271387Y-93722701D01*
X105273680Y-93718061D01*
X105323457Y-93554225D01*
X105337115Y-93509273D01*
X105337115Y-93509271D01*
X105338620Y-93504319D01*
X105367779Y-93282840D01*
X105369406Y-93216250D01*
X105351102Y-92993611D01*
X105331034Y-92913717D01*
X105333838Y-92842775D01*
X105364143Y-92793926D01*
X105512445Y-92645624D01*
X105574757Y-92611598D01*
X105645572Y-92616663D01*
G37*
%TD.AperFunction*%
%TA.AperFunction,Conductor*%
G36*
X118630389Y-90843156D02*
G01*
X118688470Y-90843261D01*
X118741849Y-90874998D01*
X118845706Y-90978855D01*
X118879732Y-91041167D01*
X118882010Y-91055653D01*
X118888963Y-91126560D01*
X118891187Y-91133245D01*
X118891187Y-91133246D01*
X118917426Y-91212121D01*
X118946218Y-91298673D01*
X118949865Y-91304695D01*
X118949866Y-91304697D01*
X119029806Y-91436694D01*
X119040180Y-91453824D01*
X119045069Y-91458887D01*
X119045070Y-91458888D01*
X119075734Y-91490641D01*
X119166182Y-91584302D01*
X119198529Y-91605469D01*
X119294852Y-91668501D01*
X119317959Y-91683622D01*
X119324563Y-91686078D01*
X119324565Y-91686079D01*
X119481358Y-91744390D01*
X119481360Y-91744390D01*
X119487968Y-91746848D01*
X119571795Y-91758033D01*
X119660780Y-91769907D01*
X119660784Y-91769907D01*
X119667761Y-91770838D01*
X119674772Y-91770200D01*
X119674776Y-91770200D01*
X119817259Y-91757232D01*
X119848400Y-91754398D01*
X119855102Y-91752220D01*
X119855104Y-91752220D01*
X120014209Y-91700524D01*
X120014212Y-91700523D01*
X120020908Y-91698347D01*
X120176712Y-91605469D01*
X120208250Y-91575436D01*
X120271373Y-91542943D01*
X120342044Y-91549736D01*
X120384237Y-91577586D01*
X120578557Y-91771906D01*
X120612583Y-91834218D01*
X120607518Y-91905033D01*
X120564971Y-91961869D01*
X120498451Y-91986680D01*
X120489462Y-91987001D01*
X120255131Y-91987001D01*
X120248310Y-91987371D01*
X120197448Y-91992895D01*
X120182196Y-91996521D01*
X120061746Y-92041676D01*
X120046151Y-92050214D01*
X119944076Y-92126715D01*
X119931515Y-92139276D01*
X119855014Y-92241351D01*
X119846476Y-92256946D01*
X119801322Y-92377394D01*
X119797695Y-92392649D01*
X119792169Y-92443514D01*
X119791800Y-92450328D01*
X119791800Y-93072885D01*
X119796275Y-93088124D01*
X119797665Y-93089329D01*
X119805348Y-93091000D01*
X121689684Y-93091000D01*
X121706725Y-93085996D01*
X121763420Y-93049561D01*
X121834417Y-93049561D01*
X121888013Y-93081362D01*
X122257095Y-93450444D01*
X122291121Y-93512756D01*
X122294000Y-93539539D01*
X122294000Y-95558878D01*
X122273998Y-95626999D01*
X122226183Y-95670639D01*
X122176107Y-95696707D01*
X122171974Y-95699810D01*
X122171971Y-95699812D01*
X122035531Y-95802254D01*
X121997465Y-95830835D01*
X121843129Y-95992338D01*
X121735701Y-96149821D01*
X121680793Y-96194821D01*
X121610268Y-96202992D01*
X121546521Y-96171738D01*
X121525824Y-96147254D01*
X121445322Y-96022817D01*
X121445320Y-96022814D01*
X121442514Y-96018477D01*
X121292170Y-95853251D01*
X121288119Y-95850052D01*
X121288115Y-95850048D01*
X121120914Y-95718000D01*
X121120910Y-95717998D01*
X121116859Y-95714798D01*
X120921289Y-95606838D01*
X120916420Y-95605114D01*
X120916416Y-95605112D01*
X120715587Y-95533995D01*
X120715583Y-95533994D01*
X120710712Y-95532269D01*
X120705619Y-95531362D01*
X120705616Y-95531361D01*
X120495873Y-95494000D01*
X120495867Y-95493999D01*
X120490784Y-95493094D01*
X120416952Y-95492192D01*
X120272581Y-95490428D01*
X120272579Y-95490428D01*
X120267411Y-95490365D01*
X120046591Y-95524155D01*
X119834256Y-95593557D01*
X119805428Y-95608564D01*
X119677226Y-95675302D01*
X119636107Y-95696707D01*
X119631974Y-95699810D01*
X119631971Y-95699812D01*
X119495531Y-95802254D01*
X119457465Y-95830835D01*
X119303129Y-95992338D01*
X119195701Y-96149821D01*
X119140793Y-96194821D01*
X119070268Y-96202992D01*
X119006521Y-96171738D01*
X118985824Y-96147254D01*
X118905322Y-96022817D01*
X118905320Y-96022814D01*
X118902514Y-96018477D01*
X118752170Y-95853251D01*
X118748119Y-95850052D01*
X118748115Y-95850048D01*
X118580914Y-95718000D01*
X118580910Y-95717998D01*
X118576859Y-95714798D01*
X118381289Y-95606838D01*
X118376420Y-95605114D01*
X118376416Y-95605112D01*
X118175587Y-95533995D01*
X118175583Y-95533994D01*
X118170712Y-95532269D01*
X118165619Y-95531362D01*
X118165616Y-95531361D01*
X117955873Y-95494000D01*
X117955867Y-95493999D01*
X117950784Y-95493094D01*
X117876952Y-95492192D01*
X117732581Y-95490428D01*
X117732579Y-95490428D01*
X117727411Y-95490365D01*
X117506591Y-95524155D01*
X117294256Y-95593557D01*
X117265428Y-95608564D01*
X117137226Y-95675302D01*
X117096107Y-95696707D01*
X117091974Y-95699810D01*
X117091971Y-95699812D01*
X116955531Y-95802254D01*
X116917465Y-95830835D01*
X116763129Y-95992338D01*
X116655701Y-96149821D01*
X116600793Y-96194821D01*
X116530268Y-96202992D01*
X116466521Y-96171738D01*
X116445824Y-96147254D01*
X116365322Y-96022817D01*
X116365320Y-96022814D01*
X116362514Y-96018477D01*
X116212170Y-95853251D01*
X116208119Y-95850052D01*
X116208115Y-95850048D01*
X116040914Y-95718000D01*
X116040910Y-95717998D01*
X116036859Y-95714798D01*
X115841289Y-95606838D01*
X115836420Y-95605114D01*
X115836416Y-95605112D01*
X115635587Y-95533995D01*
X115635583Y-95533994D01*
X115630712Y-95532269D01*
X115625619Y-95531362D01*
X115625616Y-95531361D01*
X115415873Y-95494000D01*
X115415867Y-95493999D01*
X115410784Y-95493094D01*
X115336952Y-95492192D01*
X115192581Y-95490428D01*
X115192579Y-95490428D01*
X115187411Y-95490365D01*
X114966591Y-95524155D01*
X114754256Y-95593557D01*
X114725428Y-95608564D01*
X114597226Y-95675302D01*
X114556107Y-95696707D01*
X114551974Y-95699810D01*
X114551971Y-95699812D01*
X114415531Y-95802254D01*
X114377465Y-95830835D01*
X114223129Y-95992338D01*
X114115701Y-96149821D01*
X114060793Y-96194821D01*
X113990268Y-96202992D01*
X113926521Y-96171738D01*
X113905824Y-96147254D01*
X113825322Y-96022817D01*
X113825320Y-96022814D01*
X113822514Y-96018477D01*
X113672170Y-95853251D01*
X113668119Y-95850052D01*
X113668115Y-95850048D01*
X113500914Y-95718000D01*
X113500910Y-95717998D01*
X113496859Y-95714798D01*
X113301289Y-95606838D01*
X113296420Y-95605114D01*
X113296416Y-95605112D01*
X113135906Y-95548273D01*
X113078370Y-95506679D01*
X113068747Y-95482135D01*
X113053252Y-95497578D01*
X112983853Y-95512554D01*
X112970955Y-95510937D01*
X112875266Y-95493892D01*
X112811708Y-95462254D01*
X112775345Y-95401276D01*
X112777722Y-95330320D01*
X112818083Y-95271912D01*
X112853136Y-95251862D01*
X112853913Y-95251571D01*
X112863673Y-95247912D01*
X112863677Y-95247911D01*
X112868470Y-95246114D01*
X112868729Y-95246806D01*
X112931135Y-95233157D01*
X112975145Y-95246080D01*
X112975298Y-95245672D01*
X112980869Y-95247760D01*
X112982795Y-95248326D01*
X112983702Y-95248822D01*
X113037280Y-95268908D01*
X113094045Y-95311549D01*
X113102311Y-95333825D01*
X113115747Y-95319934D01*
X113177966Y-95303500D01*
X113524646Y-95303500D01*
X113539885Y-95299025D01*
X113541090Y-95297635D01*
X113542761Y-95289952D01*
X113542761Y-94167500D01*
X113562763Y-94099379D01*
X113616419Y-94052886D01*
X113668761Y-94041500D01*
X113924761Y-94041500D01*
X113992882Y-94061502D01*
X114039375Y-94115158D01*
X114050761Y-94167500D01*
X114050761Y-95285384D01*
X114055236Y-95300623D01*
X114056626Y-95301828D01*
X114064309Y-95303499D01*
X114416430Y-95303499D01*
X114423251Y-95303129D01*
X114474113Y-95297605D01*
X114489365Y-95293979D01*
X114609815Y-95248824D01*
X114625410Y-95240286D01*
X114727485Y-95163785D01*
X114740046Y-95151224D01*
X114816547Y-95049149D01*
X114825085Y-95033554D01*
X114870239Y-94913106D01*
X114873866Y-94897851D01*
X114879392Y-94846986D01*
X114879761Y-94840172D01*
X114879761Y-94486907D01*
X114899763Y-94418786D01*
X114925655Y-94396351D01*
X114924898Y-94395583D01*
X114950670Y-94370176D01*
X114953761Y-94358242D01*
X114953761Y-94356181D01*
X115461761Y-94356181D01*
X115466105Y-94370976D01*
X115477601Y-94373008D01*
X115489804Y-94370779D01*
X115635048Y-94328582D01*
X115649485Y-94322334D01*
X115778388Y-94246101D01*
X115790826Y-94236452D01*
X115896713Y-94130565D01*
X115906362Y-94118127D01*
X115982595Y-93989224D01*
X115988843Y-93974787D01*
X116026870Y-93843895D01*
X116026830Y-93829795D01*
X116019560Y-93826500D01*
X115479876Y-93826500D01*
X115464637Y-93830975D01*
X115463432Y-93832365D01*
X115461761Y-93840048D01*
X115461761Y-94356181D01*
X114953761Y-94356181D01*
X114953761Y-93532000D01*
X114973763Y-93463879D01*
X115027419Y-93417386D01*
X115079761Y-93406000D01*
X115436082Y-93405999D01*
X115446507Y-93405999D01*
X115483698Y-93403073D01*
X115581778Y-93374578D01*
X115635248Y-93359044D01*
X115635250Y-93359043D01*
X115642861Y-93356832D01*
X115649686Y-93352796D01*
X115649690Y-93352794D01*
X115678008Y-93336047D01*
X115742147Y-93318500D01*
X116013809Y-93318500D01*
X116027340Y-93314527D01*
X116028475Y-93306629D01*
X115988843Y-93170213D01*
X115982595Y-93155776D01*
X115980438Y-93152128D01*
X115979618Y-93148897D01*
X115979447Y-93148501D01*
X115979511Y-93148473D01*
X115962980Y-93083311D01*
X115980438Y-93023855D01*
X115983055Y-93019429D01*
X115983057Y-93019425D01*
X115987093Y-93012600D01*
X115991111Y-92998772D01*
X116019069Y-92902538D01*
X116033334Y-92853437D01*
X116033838Y-92847032D01*
X116033839Y-92847027D01*
X116036068Y-92818703D01*
X116036068Y-92818695D01*
X116036261Y-92816247D01*
X116036260Y-92388754D01*
X116034768Y-92369784D01*
X116049363Y-92300305D01*
X116096239Y-92251447D01*
X116159388Y-92214101D01*
X116171826Y-92204452D01*
X116230594Y-92145684D01*
X116292906Y-92111658D01*
X116363721Y-92116723D01*
X116420557Y-92159270D01*
X116445368Y-92225790D01*
X116437671Y-92279008D01*
X116398055Y-92384684D01*
X116391300Y-92446866D01*
X116391300Y-94243134D01*
X116398055Y-94305316D01*
X116449185Y-94441705D01*
X116536539Y-94558261D01*
X116653095Y-94645615D01*
X116789484Y-94696745D01*
X116851666Y-94703500D01*
X117847934Y-94703500D01*
X117910116Y-94696745D01*
X118046505Y-94645615D01*
X118163061Y-94558261D01*
X118250415Y-94441705D01*
X118301545Y-94305316D01*
X118308300Y-94243134D01*
X118308300Y-94239669D01*
X119791801Y-94239669D01*
X119792171Y-94246490D01*
X119797695Y-94297352D01*
X119801321Y-94312604D01*
X119846476Y-94433054D01*
X119855014Y-94448649D01*
X119931515Y-94550724D01*
X119944076Y-94563285D01*
X120046151Y-94639786D01*
X120061746Y-94648324D01*
X120182194Y-94693478D01*
X120197449Y-94697105D01*
X120248314Y-94702631D01*
X120255128Y-94703000D01*
X120477685Y-94703000D01*
X120492924Y-94698525D01*
X120494129Y-94697135D01*
X120495800Y-94689452D01*
X120495800Y-94684884D01*
X121003800Y-94684884D01*
X121008275Y-94700123D01*
X121009665Y-94701328D01*
X121017348Y-94702999D01*
X121244469Y-94702999D01*
X121251290Y-94702629D01*
X121302152Y-94697105D01*
X121317404Y-94693479D01*
X121437854Y-94648324D01*
X121453449Y-94639786D01*
X121555524Y-94563285D01*
X121568085Y-94550724D01*
X121644586Y-94448649D01*
X121653124Y-94433054D01*
X121698278Y-94312606D01*
X121701905Y-94297351D01*
X121707431Y-94246486D01*
X121707800Y-94239672D01*
X121707800Y-93617115D01*
X121703325Y-93601876D01*
X121701935Y-93600671D01*
X121694252Y-93599000D01*
X121021915Y-93599000D01*
X121006676Y-93603475D01*
X121005471Y-93604865D01*
X121003800Y-93612548D01*
X121003800Y-94684884D01*
X120495800Y-94684884D01*
X120495800Y-93617115D01*
X120491325Y-93601876D01*
X120489935Y-93600671D01*
X120482252Y-93599000D01*
X119809916Y-93599000D01*
X119794677Y-93603475D01*
X119793472Y-93604865D01*
X119791801Y-93612548D01*
X119791801Y-94239669D01*
X118308300Y-94239669D01*
X118308300Y-92446866D01*
X118301545Y-92384684D01*
X118250415Y-92248295D01*
X118163061Y-92131739D01*
X118046505Y-92044385D01*
X118038096Y-92041233D01*
X118030225Y-92036923D01*
X118031136Y-92035259D01*
X117983310Y-91999337D01*
X117958607Y-91932776D01*
X117958300Y-91923991D01*
X117958300Y-90964899D01*
X117978302Y-90896778D01*
X118031958Y-90850285D01*
X118106938Y-90840949D01*
X118109280Y-90841377D01*
X118115463Y-90843173D01*
X118130126Y-90844327D01*
X118150197Y-90845907D01*
X118150205Y-90845907D01*
X118152653Y-90846100D01*
X118366270Y-90846100D01*
X118580146Y-90846099D01*
X118617337Y-90843173D01*
X118623521Y-90841376D01*
X118629853Y-90840220D01*
X118630389Y-90843156D01*
G37*
%TD.AperFunction*%
%TA.AperFunction,Conductor*%
G36*
X123719512Y-94348309D02*
G01*
X123726095Y-94354438D01*
X124797095Y-95425438D01*
X124831121Y-95487750D01*
X124834000Y-95514533D01*
X124834000Y-95558878D01*
X124813998Y-95626999D01*
X124766183Y-95670639D01*
X124716107Y-95696707D01*
X124711974Y-95699810D01*
X124711971Y-95699812D01*
X124575531Y-95802254D01*
X124537465Y-95830835D01*
X124383129Y-95992338D01*
X124275701Y-96149821D01*
X124220793Y-96194821D01*
X124150268Y-96202992D01*
X124086521Y-96171738D01*
X124065824Y-96147254D01*
X123985322Y-96022817D01*
X123985320Y-96022814D01*
X123982514Y-96018477D01*
X123832170Y-95853251D01*
X123828119Y-95850052D01*
X123828115Y-95850048D01*
X123660914Y-95718000D01*
X123660910Y-95717998D01*
X123656859Y-95714798D01*
X123576107Y-95670221D01*
X123526136Y-95619788D01*
X123511000Y-95559912D01*
X123511000Y-94443533D01*
X123531002Y-94375412D01*
X123584658Y-94328919D01*
X123654932Y-94318815D01*
X123719512Y-94348309D01*
G37*
%TD.AperFunction*%
%TA.AperFunction,Conductor*%
G36*
X110404257Y-89333102D02*
G01*
X110436499Y-89362921D01*
X110444629Y-89373632D01*
X110566514Y-89466148D01*
X110574501Y-89469310D01*
X110581983Y-89473526D01*
X110580195Y-89476700D01*
X110622808Y-89509960D01*
X110646274Y-89576967D01*
X110629788Y-89646023D01*
X110609534Y-89672517D01*
X110163616Y-90118435D01*
X110101304Y-90152461D01*
X110087695Y-90154649D01*
X110066002Y-90156929D01*
X110017496Y-90162027D01*
X110017492Y-90162028D01*
X110010488Y-90162764D01*
X109838779Y-90221218D01*
X109832775Y-90224912D01*
X109690295Y-90312566D01*
X109690292Y-90312568D01*
X109684288Y-90316262D01*
X109679253Y-90321193D01*
X109679250Y-90321195D01*
X109577517Y-90420820D01*
X109554693Y-90443171D01*
X109456435Y-90595638D01*
X109454026Y-90602258D01*
X109454024Y-90602261D01*
X109412870Y-90715331D01*
X109394397Y-90766085D01*
X109371663Y-90946040D01*
X109389363Y-91126560D01*
X109446618Y-91298673D01*
X109450265Y-91304695D01*
X109450266Y-91304697D01*
X109530206Y-91436694D01*
X109540580Y-91453824D01*
X109545469Y-91458887D01*
X109545470Y-91458888D01*
X109576134Y-91490641D01*
X109666582Y-91584302D01*
X109698929Y-91605469D01*
X109795252Y-91668501D01*
X109818359Y-91683622D01*
X109824963Y-91686078D01*
X109824965Y-91686079D01*
X109988368Y-91746848D01*
X109987537Y-91749083D01*
X110039132Y-91779320D01*
X110071253Y-91842635D01*
X110064046Y-91913264D01*
X110036473Y-91954771D01*
X109946809Y-92044435D01*
X109937160Y-92056873D01*
X109860927Y-92185776D01*
X109854679Y-92200213D01*
X109816652Y-92331105D01*
X109816692Y-92345205D01*
X109823962Y-92348500D01*
X110763761Y-92348500D01*
X110831882Y-92368502D01*
X110878375Y-92422158D01*
X110889761Y-92474500D01*
X110889761Y-92643000D01*
X110869759Y-92711121D01*
X110816103Y-92757614D01*
X110763761Y-92769000D01*
X110407440Y-92769001D01*
X110397015Y-92769001D01*
X110359824Y-92771927D01*
X110284103Y-92793926D01*
X110208274Y-92815956D01*
X110208272Y-92815957D01*
X110200661Y-92818168D01*
X110193836Y-92822204D01*
X110193832Y-92822206D01*
X110165514Y-92838953D01*
X110101375Y-92856500D01*
X109829713Y-92856500D01*
X109816182Y-92860473D01*
X109815047Y-92868371D01*
X109854679Y-93004787D01*
X109860927Y-93019224D01*
X109863084Y-93022872D01*
X109863904Y-93026103D01*
X109864075Y-93026499D01*
X109864011Y-93026527D01*
X109880542Y-93091689D01*
X109863084Y-93151145D01*
X109860467Y-93155571D01*
X109860465Y-93155575D01*
X109856429Y-93162400D01*
X109810188Y-93321563D01*
X109809684Y-93327968D01*
X109809683Y-93327973D01*
X109809048Y-93336047D01*
X109807261Y-93358753D01*
X109807262Y-93786246D01*
X109810188Y-93823437D01*
X109851906Y-93967031D01*
X109851703Y-94038027D01*
X109813149Y-94097644D01*
X109748484Y-94126952D01*
X109714464Y-94127106D01*
X109670414Y-94121307D01*
X109622368Y-94114981D01*
X109622355Y-94114980D01*
X109590670Y-94110809D01*
X109582481Y-94109731D01*
X109550790Y-94113903D01*
X109534345Y-94114981D01*
X109330045Y-94114981D01*
X108038725Y-94114980D01*
X107970604Y-94094978D01*
X107949630Y-94078075D01*
X107780485Y-93908930D01*
X107746459Y-93846618D01*
X107743580Y-93819835D01*
X107743580Y-89439100D01*
X107763582Y-89370979D01*
X107817238Y-89324486D01*
X107869580Y-89313100D01*
X110336136Y-89313100D01*
X110404257Y-89333102D01*
G37*
%TD.AperFunction*%
%TA.AperFunction,Conductor*%
G36*
X116601043Y-90623300D02*
G01*
X116622315Y-90626100D01*
X116622322Y-90626100D01*
X116631749Y-90627341D01*
X116696676Y-90656065D01*
X116735766Y-90715331D01*
X116741300Y-90752263D01*
X116741300Y-91923991D01*
X116721298Y-91992112D01*
X116667642Y-92038605D01*
X116662106Y-92040903D01*
X116661504Y-92041232D01*
X116653095Y-92044385D01*
X116600164Y-92084055D01*
X116546286Y-92124434D01*
X116479780Y-92149282D01*
X116410397Y-92134229D01*
X116360167Y-92084055D01*
X116345037Y-92014689D01*
X116360669Y-91964595D01*
X116360447Y-91964499D01*
X116361350Y-91962413D01*
X116362269Y-91959467D01*
X116363594Y-91957226D01*
X116369843Y-91942787D01*
X116407870Y-91811895D01*
X116407830Y-91797795D01*
X116400560Y-91794500D01*
X114511261Y-91794500D01*
X114443140Y-91774498D01*
X114396647Y-91720842D01*
X114385261Y-91668501D01*
X114385261Y-91584302D01*
X114385260Y-91500000D01*
X114405262Y-91431880D01*
X114458917Y-91385387D01*
X114511260Y-91374000D01*
X114803305Y-91373999D01*
X114811507Y-91373999D01*
X114848698Y-91371073D01*
X114946778Y-91342578D01*
X115000248Y-91327044D01*
X115000250Y-91327043D01*
X115007861Y-91324832D01*
X115014684Y-91320797D01*
X115014686Y-91320796D01*
X115016624Y-91319650D01*
X115018341Y-91319214D01*
X115021961Y-91317648D01*
X115022214Y-91318232D01*
X115085441Y-91302192D01*
X115139394Y-91318034D01*
X115139561Y-91317648D01*
X115142688Y-91319001D01*
X115144898Y-91319650D01*
X115146836Y-91320796D01*
X115146838Y-91320797D01*
X115153661Y-91324832D01*
X115161272Y-91327043D01*
X115161274Y-91327044D01*
X115211957Y-91341768D01*
X115312824Y-91371073D01*
X115319229Y-91371577D01*
X115319234Y-91371578D01*
X115347558Y-91373807D01*
X115347566Y-91373807D01*
X115350014Y-91374000D01*
X115588616Y-91374000D01*
X115827507Y-91373999D01*
X115864698Y-91371073D01*
X115962778Y-91342578D01*
X116016248Y-91327044D01*
X116016250Y-91327043D01*
X116023861Y-91324832D01*
X116030686Y-91320796D01*
X116030690Y-91320794D01*
X116059008Y-91304047D01*
X116123147Y-91286500D01*
X116394809Y-91286500D01*
X116408340Y-91282527D01*
X116409475Y-91274629D01*
X116369843Y-91138213D01*
X116363595Y-91123776D01*
X116361438Y-91120128D01*
X116360618Y-91116897D01*
X116360447Y-91116501D01*
X116360511Y-91116473D01*
X116343980Y-91051311D01*
X116361438Y-90991855D01*
X116364055Y-90987429D01*
X116364057Y-90987425D01*
X116368093Y-90980600D01*
X116414334Y-90821437D01*
X116414838Y-90815032D01*
X116414839Y-90815027D01*
X116417068Y-90786703D01*
X116417068Y-90786695D01*
X116417261Y-90784247D01*
X116417261Y-90742780D01*
X116437263Y-90674659D01*
X116490919Y-90628166D01*
X116559706Y-90617858D01*
X116601043Y-90623300D01*
G37*
%TD.AperFunction*%
%TA.AperFunction,Conductor*%
G36*
X106336725Y-86378502D02*
G01*
X106383218Y-86432158D01*
X106393322Y-86502432D01*
X106363828Y-86567012D01*
X106345309Y-86584461D01*
X106262448Y-86648043D01*
X106262445Y-86648046D01*
X106230533Y-86672533D01*
X106225503Y-86679088D01*
X106211068Y-86697899D01*
X106200201Y-86710290D01*
X105594345Y-87316146D01*
X105532033Y-87350172D01*
X105461218Y-87345107D01*
X105404382Y-87302560D01*
X105379571Y-87236040D01*
X105379250Y-87227051D01*
X105379250Y-87049489D01*
X105399252Y-86981368D01*
X105416155Y-86960394D01*
X105981144Y-86395405D01*
X106043456Y-86361379D01*
X106070239Y-86358500D01*
X106268604Y-86358500D01*
X106336725Y-86378502D01*
G37*
%TD.AperFunction*%
%TA.AperFunction,Conductor*%
G36*
X115960923Y-83461889D02*
G01*
X115992835Y-83518659D01*
X115992856Y-83518741D01*
X115992905Y-83565179D01*
X115995783Y-83565527D01*
X115984761Y-83656608D01*
X115984761Y-83843392D01*
X115986792Y-83860172D01*
X115995783Y-83934473D01*
X115992922Y-83934819D01*
X115992922Y-83965181D01*
X115995783Y-83965527D01*
X115984761Y-84056608D01*
X115984761Y-84243392D01*
X115987098Y-84262701D01*
X115995783Y-84334473D01*
X115992922Y-84334819D01*
X115992922Y-84365181D01*
X115995783Y-84365527D01*
X115984761Y-84456608D01*
X115984761Y-84643392D01*
X115991648Y-84700300D01*
X115995783Y-84734473D01*
X115992922Y-84734819D01*
X115992922Y-84765181D01*
X115995783Y-84765527D01*
X115984761Y-84856608D01*
X115984761Y-85043392D01*
X115985217Y-85047157D01*
X115995783Y-85134473D01*
X115992922Y-85134819D01*
X115992922Y-85165181D01*
X115995783Y-85165527D01*
X115984761Y-85256608D01*
X115984761Y-85258274D01*
X115960850Y-85324638D01*
X115899749Y-85369539D01*
X115857276Y-85383998D01*
X115772447Y-85412876D01*
X115709977Y-85451308D01*
X115623963Y-85504224D01*
X115623960Y-85504226D01*
X115617956Y-85507920D01*
X115612921Y-85512851D01*
X115612918Y-85512853D01*
X115490419Y-85632814D01*
X115427754Y-85666185D01*
X115356995Y-85660379D01*
X115300608Y-85617240D01*
X115276495Y-85550463D01*
X115276261Y-85542791D01*
X115276261Y-85422115D01*
X115271786Y-85406876D01*
X115270396Y-85405671D01*
X115262713Y-85404000D01*
X113365261Y-85404000D01*
X113297140Y-85383998D01*
X113250647Y-85330342D01*
X113239261Y-85278000D01*
X113239261Y-85022000D01*
X113259263Y-84953879D01*
X113312919Y-84907386D01*
X113365261Y-84896000D01*
X115258145Y-84896000D01*
X115273384Y-84891525D01*
X115274589Y-84890135D01*
X115276260Y-84882452D01*
X115276260Y-83980300D01*
X115296262Y-83912179D01*
X115354043Y-83863891D01*
X115370648Y-83857013D01*
X115383493Y-83847157D01*
X115465844Y-83783966D01*
X115465847Y-83783963D01*
X115491209Y-83764502D01*
X115497759Y-83759476D01*
X115517230Y-83734102D01*
X115528088Y-83721722D01*
X115689495Y-83560315D01*
X115701886Y-83549448D01*
X115720698Y-83535013D01*
X115727248Y-83529987D01*
X115751735Y-83498075D01*
X115751738Y-83498072D01*
X115770812Y-83473214D01*
X115828149Y-83431347D01*
X115899020Y-83427125D01*
X115960923Y-83461889D01*
G37*
%TD.AperFunction*%
%TA.AperFunction,Conductor*%
G36*
X132699771Y-82757394D02*
G01*
X132756607Y-82799941D01*
X132781418Y-82866461D01*
X132781026Y-82888838D01*
X132780739Y-82891523D01*
X132774651Y-82948495D01*
X132774948Y-82953648D01*
X132774948Y-82953651D01*
X132780411Y-83048390D01*
X132787510Y-83171515D01*
X132788647Y-83176561D01*
X132788648Y-83176567D01*
X132811401Y-83277526D01*
X132806865Y-83348377D01*
X132777579Y-83394322D01*
X131637346Y-84534555D01*
X131575034Y-84568581D01*
X131548251Y-84571460D01*
X131085729Y-84571460D01*
X131017608Y-84551458D01*
X130971115Y-84497802D01*
X130961011Y-84427528D01*
X130990505Y-84362948D01*
X130996634Y-84356365D01*
X132566644Y-82786355D01*
X132628956Y-82752329D01*
X132699771Y-82757394D01*
G37*
%TD.AperFunction*%
%TA.AperFunction,Conductor*%
G36*
X132699771Y-80217394D02*
G01*
X132756607Y-80259941D01*
X132781418Y-80326461D01*
X132781026Y-80348838D01*
X132774651Y-80408495D01*
X132774948Y-80413648D01*
X132774948Y-80413651D01*
X132780411Y-80508390D01*
X132787510Y-80631515D01*
X132788647Y-80636561D01*
X132788648Y-80636567D01*
X132811401Y-80737526D01*
X132806865Y-80808377D01*
X132777579Y-80854322D01*
X129496866Y-84135035D01*
X129434554Y-84169061D01*
X129407771Y-84171940D01*
X128945249Y-84171940D01*
X128877128Y-84151938D01*
X128830635Y-84098282D01*
X128820531Y-84028008D01*
X128850025Y-83963428D01*
X128856154Y-83956845D01*
X132566644Y-80246355D01*
X132628956Y-80212329D01*
X132699771Y-80217394D01*
G37*
%TD.AperFunction*%
%TA.AperFunction,Conductor*%
G36*
X121863921Y-81687391D02*
G01*
X121910414Y-81741047D01*
X121921800Y-81793389D01*
X121921800Y-82847380D01*
X121901798Y-82915501D01*
X121848142Y-82961994D01*
X121795800Y-82973380D01*
X121764300Y-82973380D01*
X121696179Y-82953378D01*
X121649686Y-82899722D01*
X121638300Y-82847380D01*
X121638300Y-82568504D01*
X121633825Y-82553265D01*
X121632435Y-82552060D01*
X121624752Y-82550389D01*
X120040416Y-82550389D01*
X120025177Y-82554864D01*
X120023972Y-82556254D01*
X120022301Y-82563937D01*
X120022301Y-82822625D01*
X120002299Y-82890746D01*
X119948643Y-82937239D01*
X119878369Y-82947343D01*
X119814779Y-82918301D01*
X119813023Y-82916013D01*
X119781111Y-82891526D01*
X119781108Y-82891523D01*
X119685912Y-82818476D01*
X119549203Y-82761849D01*
X119493923Y-82717302D01*
X119472207Y-82659486D01*
X119462982Y-82577244D01*
X119462197Y-82570245D01*
X119455864Y-82552060D01*
X119404864Y-82405606D01*
X119404862Y-82405603D01*
X119402545Y-82398948D01*
X119398809Y-82392969D01*
X119395822Y-82386735D01*
X119384427Y-82316659D01*
X119412726Y-82251546D01*
X119471735Y-82212070D01*
X119487000Y-82209077D01*
X119486865Y-82208338D01*
X119505802Y-82204880D01*
X119651048Y-82162682D01*
X119665485Y-82156434D01*
X119794388Y-82080201D01*
X119806826Y-82070552D01*
X119842613Y-82034765D01*
X119904925Y-82000739D01*
X119975740Y-82005804D01*
X120014219Y-82028635D01*
X120028163Y-82040717D01*
X120035848Y-82042389D01*
X121620184Y-82042389D01*
X121635423Y-82037914D01*
X121636628Y-82036524D01*
X121638299Y-82028841D01*
X121638299Y-81793389D01*
X121658301Y-81725268D01*
X121711957Y-81678775D01*
X121764299Y-81667389D01*
X121795800Y-81667389D01*
X121863921Y-81687391D01*
G37*
%TD.AperFunction*%
%TA.AperFunction,Conductor*%
G36*
X113082371Y-67996752D02*
G01*
X113128864Y-68050408D01*
X113140250Y-68102750D01*
X113140250Y-68762267D01*
X113144314Y-68776109D01*
X113157728Y-68778143D01*
X113164434Y-68777284D01*
X113174512Y-68775142D01*
X113378505Y-68713941D01*
X113388092Y-68710183D01*
X113579345Y-68616489D01*
X113588195Y-68611214D01*
X113761578Y-68487542D01*
X113769450Y-68480889D01*
X113920302Y-68330562D01*
X113926980Y-68322715D01*
X114051253Y-68149770D01*
X114056563Y-68140933D01*
X114103026Y-68046923D01*
X114151140Y-67994716D01*
X114215983Y-67976750D01*
X120115999Y-67976750D01*
X120184120Y-67996752D01*
X120230613Y-68050408D01*
X120240717Y-68120682D01*
X120226414Y-68163451D01*
X120164494Y-68276082D01*
X120159666Y-68287347D01*
X120103620Y-68464027D01*
X120101070Y-68476021D01*
X120084893Y-68620250D01*
X120084500Y-68627274D01*
X120084500Y-68708374D01*
X120088975Y-68723613D01*
X120090365Y-68724818D01*
X120098048Y-68726489D01*
X122082385Y-68726489D01*
X122097624Y-68722014D01*
X122098829Y-68720624D01*
X122100500Y-68712941D01*
X122100500Y-68633832D01*
X122100199Y-68627684D01*
X122086688Y-68489886D01*
X122084305Y-68477851D01*
X122030733Y-68300413D01*
X122026059Y-68289073D01*
X121958442Y-68161903D01*
X121944123Y-68092366D01*
X121969671Y-68026125D01*
X122026976Y-67984212D01*
X122069694Y-67976750D01*
X128755999Y-67976750D01*
X128824120Y-67996752D01*
X128870613Y-68050408D01*
X128880717Y-68120682D01*
X128866414Y-68163451D01*
X128804494Y-68276082D01*
X128799666Y-68287347D01*
X128743620Y-68464027D01*
X128741070Y-68476021D01*
X128724893Y-68620250D01*
X128724500Y-68627274D01*
X128724500Y-68708374D01*
X128728975Y-68723613D01*
X128730365Y-68724818D01*
X128738048Y-68726489D01*
X130722385Y-68726489D01*
X130737624Y-68722014D01*
X130738829Y-68720624D01*
X130740500Y-68712941D01*
X130740500Y-68633832D01*
X130740199Y-68627684D01*
X130726688Y-68489886D01*
X130724305Y-68477851D01*
X130670733Y-68300413D01*
X130666059Y-68289073D01*
X130598442Y-68161903D01*
X130584123Y-68092366D01*
X130609671Y-68026125D01*
X130666976Y-67984212D01*
X130709694Y-67976750D01*
X132506922Y-67976750D01*
X132526307Y-67978250D01*
X132541108Y-67980555D01*
X132541111Y-67980555D01*
X132549980Y-67981936D01*
X132562628Y-67980282D01*
X132589942Y-67979698D01*
X132677698Y-67987375D01*
X132732725Y-67992190D01*
X132754346Y-67996002D01*
X132914815Y-68039000D01*
X132935452Y-68046511D01*
X133086010Y-68116718D01*
X133105030Y-68127700D01*
X133241112Y-68222985D01*
X133257937Y-68237103D01*
X133375397Y-68354563D01*
X133389515Y-68371388D01*
X133484800Y-68507470D01*
X133495782Y-68526490D01*
X133565989Y-68677048D01*
X133573500Y-68697685D01*
X133616498Y-68858154D01*
X133620311Y-68879779D01*
X133624652Y-68929403D01*
X133610662Y-68999007D01*
X133557311Y-69052146D01*
X133490791Y-69086774D01*
X133436326Y-69115127D01*
X133411007Y-69128307D01*
X133406874Y-69131410D01*
X133406871Y-69131412D01*
X133236500Y-69259330D01*
X133232365Y-69262435D01*
X133228793Y-69266173D01*
X133106357Y-69394295D01*
X133078029Y-69423938D01*
X133075115Y-69428210D01*
X133075114Y-69428211D01*
X133065936Y-69441666D01*
X132952143Y-69608480D01*
X132927966Y-69660565D01*
X132868343Y-69789013D01*
X132858088Y-69811105D01*
X132798389Y-70026370D01*
X132774651Y-70248495D01*
X132774948Y-70253648D01*
X132774948Y-70253651D01*
X132785833Y-70442437D01*
X132787510Y-70471515D01*
X132788647Y-70476561D01*
X132788648Y-70476567D01*
X132811401Y-70577526D01*
X132806865Y-70648377D01*
X132777579Y-70694322D01*
X131646726Y-71825175D01*
X131634335Y-71836042D01*
X131608973Y-71855503D01*
X131584486Y-71887415D01*
X131584483Y-71887418D01*
X131572434Y-71903120D01*
X131521183Y-71969912D01*
X131511436Y-71982614D01*
X131451302Y-72127791D01*
X131450122Y-72130640D01*
X131434460Y-72249605D01*
X131434460Y-72249610D01*
X131429210Y-72289490D01*
X131430288Y-72297678D01*
X131433382Y-72321180D01*
X131434460Y-72337626D01*
X131434460Y-77910233D01*
X131414458Y-77978354D01*
X131397555Y-77999328D01*
X127101806Y-82295077D01*
X127039494Y-82329103D01*
X126968679Y-82324038D01*
X126945203Y-82312371D01*
X126848666Y-82251107D01*
X126789166Y-82229920D01*
X126731702Y-82188226D01*
X126705902Y-82122083D01*
X126719957Y-82052492D01*
X126742338Y-82022126D01*
X126805962Y-81958502D01*
X126816746Y-81940268D01*
X126886297Y-81822662D01*
X126890332Y-81815839D01*
X126894329Y-81802083D01*
X126917723Y-81721558D01*
X126936573Y-81656676D01*
X126937077Y-81650271D01*
X126937078Y-81650266D01*
X126939307Y-81621942D01*
X126939307Y-81621934D01*
X126939500Y-81619486D01*
X126939499Y-81191993D01*
X126936573Y-81154802D01*
X126896800Y-81017902D01*
X126892544Y-81003252D01*
X126892543Y-81003250D01*
X126890332Y-80995639D01*
X126883968Y-80984879D01*
X126866508Y-80916065D01*
X126883968Y-80856600D01*
X126890332Y-80845839D01*
X126936573Y-80686676D01*
X126937077Y-80680271D01*
X126937078Y-80680266D01*
X126939307Y-80651942D01*
X126939307Y-80651934D01*
X126939500Y-80649486D01*
X126939499Y-80406391D01*
X126949091Y-80358173D01*
X126955338Y-80343090D01*
X126976251Y-80184239D01*
X126972078Y-80152540D01*
X126971000Y-80136095D01*
X126971000Y-79876239D01*
X126991002Y-79808118D01*
X127007905Y-79787144D01*
X127036953Y-79758096D01*
X127040989Y-79751272D01*
X127040991Y-79751269D01*
X127111385Y-79632239D01*
X127121645Y-79614890D01*
X127168062Y-79455120D01*
X127168871Y-79444851D01*
X127170807Y-79420247D01*
X127170807Y-79420239D01*
X127171000Y-79417791D01*
X127171000Y-78259787D01*
X127168062Y-78222458D01*
X127121645Y-78062688D01*
X127093256Y-78014684D01*
X127075797Y-77945869D01*
X127098314Y-77878538D01*
X127153659Y-77834069D01*
X127224259Y-77826581D01*
X127236863Y-77829550D01*
X127365657Y-77866968D01*
X127376335Y-77868918D01*
X127390731Y-77865894D01*
X127393700Y-77854431D01*
X127393700Y-77852370D01*
X127901700Y-77852370D01*
X127906044Y-77867165D01*
X127917540Y-77869197D01*
X127929743Y-77866968D01*
X128074987Y-77824771D01*
X128089424Y-77818523D01*
X128218327Y-77742290D01*
X128230765Y-77732641D01*
X128336652Y-77626754D01*
X128346301Y-77614316D01*
X128422534Y-77485413D01*
X128428782Y-77470976D01*
X128466809Y-77340084D01*
X128466769Y-77325984D01*
X128459499Y-77322689D01*
X127919815Y-77322689D01*
X127904576Y-77327164D01*
X127903371Y-77328554D01*
X127901700Y-77336237D01*
X127901700Y-77852370D01*
X127393700Y-77852370D01*
X127393700Y-77028189D01*
X127413702Y-76960068D01*
X127467358Y-76913575D01*
X127519700Y-76902189D01*
X127876021Y-76902188D01*
X127886446Y-76902188D01*
X127923637Y-76899262D01*
X128027817Y-76868995D01*
X128075187Y-76855233D01*
X128075189Y-76855232D01*
X128082800Y-76853021D01*
X128089625Y-76848985D01*
X128089629Y-76848983D01*
X128117947Y-76832236D01*
X128182086Y-76814689D01*
X128453748Y-76814689D01*
X128467279Y-76810716D01*
X128468414Y-76802818D01*
X128428782Y-76666402D01*
X128422534Y-76651965D01*
X128420377Y-76648317D01*
X128419557Y-76645086D01*
X128419386Y-76644690D01*
X128419450Y-76644662D01*
X128402919Y-76579500D01*
X128420377Y-76520044D01*
X128422994Y-76515618D01*
X128422996Y-76515614D01*
X128427032Y-76508789D01*
X128473273Y-76349626D01*
X128473777Y-76343221D01*
X128473778Y-76343216D01*
X128476007Y-76314892D01*
X128476007Y-76314884D01*
X128476200Y-76312436D01*
X128476199Y-75884943D01*
X128473273Y-75847752D01*
X128440337Y-75734384D01*
X128429244Y-75696202D01*
X128429243Y-75696200D01*
X128427032Y-75688589D01*
X128421557Y-75679331D01*
X128346696Y-75552747D01*
X128346696Y-75552746D01*
X128342662Y-75545926D01*
X128320112Y-75523376D01*
X128286086Y-75461064D01*
X128291151Y-75390249D01*
X128333698Y-75333413D01*
X128373710Y-75313385D01*
X128405624Y-75304015D01*
X128406829Y-75302624D01*
X128409775Y-75289079D01*
X128443799Y-75226767D01*
X128457318Y-75215045D01*
X128525761Y-75163750D01*
X128613115Y-75047194D01*
X128664245Y-74910805D01*
X128665098Y-74902953D01*
X128665099Y-74902949D01*
X128665237Y-74901674D01*
X128665622Y-74900748D01*
X128666925Y-74895267D01*
X128667812Y-74895478D01*
X128692479Y-74836112D01*
X128750841Y-74795685D01*
X128821796Y-74793229D01*
X128882814Y-74829524D01*
X128914523Y-74893046D01*
X128916500Y-74915281D01*
X128916500Y-75290373D01*
X128920975Y-75305612D01*
X128922365Y-75306817D01*
X128930048Y-75308488D01*
X129007169Y-75308488D01*
X129013990Y-75308118D01*
X129064852Y-75302594D01*
X129080104Y-75298968D01*
X129200554Y-75253813D01*
X129216149Y-75245275D01*
X129318224Y-75168774D01*
X129330785Y-75156213D01*
X129407286Y-75054138D01*
X129415824Y-75038543D01*
X129460978Y-74918095D01*
X129464605Y-74902840D01*
X129470131Y-74851975D01*
X129470500Y-74845161D01*
X129470500Y-74720423D01*
X129478165Y-74686381D01*
X129478500Y-74682137D01*
X129478500Y-74668413D01*
X129986500Y-74668413D01*
X129990473Y-74681944D01*
X129998268Y-74683064D01*
X130106021Y-74651351D01*
X130117389Y-74646758D01*
X130281654Y-74560882D01*
X130291915Y-74554168D01*
X130436373Y-74438021D01*
X130445132Y-74429443D01*
X130564278Y-74287450D01*
X130571208Y-74277330D01*
X130660502Y-74114904D01*
X130665334Y-74103631D01*
X130721380Y-73926951D01*
X130723930Y-73914957D01*
X130740107Y-73770728D01*
X130740500Y-73763704D01*
X130740500Y-73432604D01*
X130736025Y-73417365D01*
X130734635Y-73416160D01*
X130726952Y-73414489D01*
X130004615Y-73414489D01*
X129989376Y-73418964D01*
X129988171Y-73420354D01*
X129986500Y-73428037D01*
X129986500Y-74668413D01*
X129478500Y-74668413D01*
X129478500Y-74347604D01*
X129474025Y-74332365D01*
X129472635Y-74331160D01*
X129464952Y-74329489D01*
X128934615Y-74329489D01*
X128919376Y-74333964D01*
X128910210Y-74344542D01*
X128886096Y-74388703D01*
X128823784Y-74422728D01*
X128752968Y-74417664D01*
X128696132Y-74375117D01*
X128671321Y-74308597D01*
X128671000Y-74299608D01*
X128671000Y-73843626D01*
X128691002Y-73775505D01*
X128744658Y-73729012D01*
X128814932Y-73718908D01*
X128879512Y-73748402D01*
X128917896Y-73808128D01*
X128920975Y-73818613D01*
X128922365Y-73819818D01*
X128930048Y-73821489D01*
X129460385Y-73821489D01*
X129475624Y-73817014D01*
X129476829Y-73815624D01*
X129478500Y-73807941D01*
X129478500Y-73432604D01*
X129474025Y-73417365D01*
X129472635Y-73416160D01*
X129464952Y-73414489D01*
X129003174Y-73414489D01*
X128935053Y-73394487D01*
X128888560Y-73340831D01*
X128878456Y-73270557D01*
X128907950Y-73205977D01*
X128916601Y-73196941D01*
X128936027Y-73178571D01*
X128936029Y-73178569D01*
X128940985Y-73173882D01*
X128944817Y-73168244D01*
X128944820Y-73168240D01*
X129038942Y-73029744D01*
X129042777Y-73024101D01*
X129058138Y-72985695D01*
X129102005Y-72929876D01*
X129175126Y-72906489D01*
X129460385Y-72906489D01*
X129475624Y-72902014D01*
X129476829Y-72900624D01*
X129478500Y-72892941D01*
X129478500Y-72888374D01*
X129986500Y-72888374D01*
X129990975Y-72903613D01*
X129992365Y-72904818D01*
X130000048Y-72906489D01*
X130722385Y-72906489D01*
X130737624Y-72902014D01*
X130738829Y-72900624D01*
X130740500Y-72892941D01*
X130740500Y-72563832D01*
X130740199Y-72557684D01*
X130726688Y-72419886D01*
X130724305Y-72407851D01*
X130670733Y-72230413D01*
X130666059Y-72219073D01*
X130579040Y-72055412D01*
X130572251Y-72045195D01*
X130455103Y-71901556D01*
X130446459Y-71892852D01*
X130303644Y-71774705D01*
X130293473Y-71767845D01*
X130130424Y-71679685D01*
X130119119Y-71674933D01*
X130003808Y-71639239D01*
X129989705Y-71639033D01*
X129986500Y-71645788D01*
X129986500Y-72888374D01*
X129478500Y-72888374D01*
X129478500Y-71652565D01*
X129474527Y-71639034D01*
X129466732Y-71637914D01*
X129358979Y-71669627D01*
X129347611Y-71674220D01*
X129183346Y-71760096D01*
X129173085Y-71766810D01*
X129028627Y-71882957D01*
X129019868Y-71891535D01*
X128975500Y-71944410D01*
X128916390Y-71983737D01*
X128845402Y-71984863D01*
X128802452Y-71963517D01*
X128736822Y-71913339D01*
X128625642Y-71861495D01*
X128578869Y-71839684D01*
X128578866Y-71839683D01*
X128572692Y-71836804D01*
X128566044Y-71835318D01*
X128566041Y-71835317D01*
X128400994Y-71798425D01*
X128400995Y-71798425D01*
X128395957Y-71797299D01*
X128390412Y-71796989D01*
X128257256Y-71796989D01*
X128122463Y-71811632D01*
X128014081Y-71848107D01*
X127957296Y-71867217D01*
X127957294Y-71867218D01*
X127950825Y-71869395D01*
X127795595Y-71962666D01*
X127790638Y-71967354D01*
X127790635Y-71967356D01*
X127759840Y-71996478D01*
X127696602Y-72028750D01*
X127625956Y-72021710D01*
X127587015Y-71996781D01*
X127586693Y-71996478D01*
X127552625Y-71964487D01*
X127545683Y-71960671D01*
X127545678Y-71960667D01*
X127544708Y-71960134D01*
X127525097Y-71946807D01*
X127524246Y-71946103D01*
X127518138Y-71941050D01*
X127465177Y-71916128D01*
X127458125Y-71912535D01*
X127413778Y-71888155D01*
X127413777Y-71888154D01*
X127406829Y-71884335D01*
X127399151Y-71882364D01*
X127399149Y-71882363D01*
X127398616Y-71882226D01*
X127398082Y-71882089D01*
X127375770Y-71874056D01*
X127374772Y-71873586D01*
X127374769Y-71873585D01*
X127367597Y-71870210D01*
X127359810Y-71868725D01*
X127359808Y-71868724D01*
X127321910Y-71861495D01*
X127310088Y-71859240D01*
X127302372Y-71857515D01*
X127245680Y-71842959D01*
X127236647Y-71842959D01*
X127213038Y-71840727D01*
X127211954Y-71840520D01*
X127211952Y-71840520D01*
X127204168Y-71839035D01*
X127145757Y-71842710D01*
X127137845Y-71842959D01*
X123948001Y-71842959D01*
X123936144Y-71842400D01*
X123928404Y-71840670D01*
X123920479Y-71840919D01*
X123920478Y-71840919D01*
X123857540Y-71842897D01*
X123853582Y-71842959D01*
X123824509Y-71842959D01*
X123820575Y-71843456D01*
X123820573Y-71843456D01*
X123820130Y-71843512D01*
X123808295Y-71844444D01*
X123775505Y-71845475D01*
X123770030Y-71845647D01*
X123770029Y-71845647D01*
X123762110Y-71845896D01*
X123742385Y-71851627D01*
X123741512Y-71851880D01*
X123722159Y-71855888D01*
X123718684Y-71856327D01*
X123700877Y-71858577D01*
X123693509Y-71861494D01*
X123693506Y-71861495D01*
X123657923Y-71875584D01*
X123646688Y-71879430D01*
X123609957Y-71890101D01*
X123609954Y-71890102D01*
X123602341Y-71892314D01*
X123583876Y-71903234D01*
X123566136Y-71911925D01*
X123546185Y-71919824D01*
X123510015Y-71946103D01*
X123508815Y-71946975D01*
X123498893Y-71953492D01*
X123465964Y-71972966D01*
X123465960Y-71972969D01*
X123459134Y-71977006D01*
X123443970Y-71992170D01*
X123428937Y-72005010D01*
X123411584Y-72017618D01*
X123387193Y-72047102D01*
X123382139Y-72053211D01*
X123374149Y-72061991D01*
X123340533Y-72095607D01*
X123278221Y-72129633D01*
X123207406Y-72124568D01*
X123155201Y-72087841D01*
X123100687Y-72023332D01*
X123095262Y-72019184D01*
X122962243Y-71917483D01*
X122962239Y-71917480D01*
X122956822Y-71913339D01*
X122845642Y-71861495D01*
X122798869Y-71839684D01*
X122798866Y-71839683D01*
X122792692Y-71836804D01*
X122786044Y-71835318D01*
X122786041Y-71835317D01*
X122620994Y-71798425D01*
X122620995Y-71798425D01*
X122615957Y-71797299D01*
X122610412Y-71796989D01*
X122477256Y-71796989D01*
X122342463Y-71811632D01*
X122234081Y-71848107D01*
X122177296Y-71867217D01*
X122177294Y-71867218D01*
X122170825Y-71869395D01*
X122164970Y-71872913D01*
X122140841Y-71887411D01*
X122018849Y-71960711D01*
X122018846Y-71960712D01*
X122015595Y-71962666D01*
X122015245Y-71962083D01*
X121953583Y-71985554D01*
X121884109Y-71970928D01*
X121846109Y-71939574D01*
X121815103Y-71901556D01*
X121806459Y-71892852D01*
X121663644Y-71774705D01*
X121653473Y-71767845D01*
X121490424Y-71679685D01*
X121479119Y-71674933D01*
X121363808Y-71639239D01*
X121349705Y-71639033D01*
X121346500Y-71645788D01*
X121346500Y-72888374D01*
X121350975Y-72903613D01*
X121352365Y-72904818D01*
X121360048Y-72906489D01*
X121649743Y-72906489D01*
X121717864Y-72926491D01*
X121761200Y-72973724D01*
X121781125Y-73011515D01*
X121827422Y-73099325D01*
X121831827Y-73104538D01*
X121831830Y-73104542D01*
X121918551Y-73207161D01*
X121947243Y-73272102D01*
X121936270Y-73342245D01*
X121889117Y-73395322D01*
X121822313Y-73414489D01*
X120102615Y-73414489D01*
X120087376Y-73418964D01*
X120086171Y-73420354D01*
X120084500Y-73428037D01*
X120084500Y-73757146D01*
X120084801Y-73763294D01*
X120098312Y-73901092D01*
X120100695Y-73913127D01*
X120154267Y-74090565D01*
X120158941Y-74101905D01*
X120245960Y-74265566D01*
X120252749Y-74275783D01*
X120369897Y-74419422D01*
X120378541Y-74428126D01*
X120521356Y-74546273D01*
X120531527Y-74553133D01*
X120588867Y-74584137D01*
X120639276Y-74634132D01*
X120654653Y-74703444D01*
X120630117Y-74770066D01*
X120602999Y-74796909D01*
X120587745Y-74807992D01*
X120584974Y-74810005D01*
X120575052Y-74816522D01*
X120542123Y-74835996D01*
X120542119Y-74835999D01*
X120535293Y-74840036D01*
X120520129Y-74855200D01*
X120505096Y-74868040D01*
X120487743Y-74880648D01*
X120469294Y-74902949D01*
X120458298Y-74916241D01*
X120450308Y-74925021D01*
X120407495Y-74967834D01*
X120398715Y-74975824D01*
X120398713Y-74975826D01*
X120392020Y-74980073D01*
X120386594Y-74985851D01*
X120386593Y-74985852D01*
X120343496Y-75031746D01*
X120340741Y-75034588D01*
X120320173Y-75055156D01*
X120317456Y-75058659D01*
X120309748Y-75067684D01*
X120278128Y-75101356D01*
X120274307Y-75108307D01*
X120274306Y-75108308D01*
X120267797Y-75120147D01*
X120256943Y-75136671D01*
X120248659Y-75147351D01*
X120248657Y-75147354D01*
X120243796Y-75153621D01*
X120242941Y-75155597D01*
X120202912Y-75196437D01*
X120104045Y-75257618D01*
X119984236Y-75377636D01*
X119895251Y-75521997D01*
X119892946Y-75528945D01*
X119892946Y-75528946D01*
X119859300Y-75630386D01*
X119841862Y-75682958D01*
X119831600Y-75783117D01*
X119831600Y-76317261D01*
X119831937Y-76320507D01*
X119831937Y-76320511D01*
X119832408Y-76325049D01*
X119842122Y-76418671D01*
X119844304Y-76425211D01*
X119847385Y-76434446D01*
X119849970Y-76505396D01*
X119813787Y-76566480D01*
X119750323Y-76598305D01*
X119679727Y-76590766D01*
X119638767Y-76563418D01*
X119133115Y-76057766D01*
X119122248Y-76045375D01*
X119107813Y-76026563D01*
X119102787Y-76020013D01*
X119070875Y-75995526D01*
X119070872Y-75995523D01*
X118975676Y-75922476D01*
X118827651Y-75861162D01*
X118819464Y-75860084D01*
X118819463Y-75860084D01*
X118808258Y-75858609D01*
X118774547Y-75854171D01*
X118708685Y-75845500D01*
X118708682Y-75845500D01*
X118708674Y-75845499D01*
X118676989Y-75841328D01*
X118668800Y-75840250D01*
X118637107Y-75844422D01*
X118620664Y-75845500D01*
X118246780Y-75845500D01*
X118178659Y-75825498D01*
X118132166Y-75771842D01*
X118120780Y-75719500D01*
X118120780Y-72888374D01*
X120084500Y-72888374D01*
X120088975Y-72903613D01*
X120090365Y-72904818D01*
X120098048Y-72906489D01*
X120820385Y-72906489D01*
X120835624Y-72902014D01*
X120836829Y-72900624D01*
X120838500Y-72892941D01*
X120838500Y-71652565D01*
X120834527Y-71639034D01*
X120826732Y-71637914D01*
X120718979Y-71669627D01*
X120707611Y-71674220D01*
X120543346Y-71760096D01*
X120533085Y-71766810D01*
X120388627Y-71882957D01*
X120379868Y-71891535D01*
X120260722Y-72033528D01*
X120253792Y-72043648D01*
X120164498Y-72206074D01*
X120159666Y-72217347D01*
X120103620Y-72394027D01*
X120101070Y-72406021D01*
X120084893Y-72550250D01*
X120084500Y-72557274D01*
X120084500Y-72888374D01*
X118120780Y-72888374D01*
X118120780Y-72236906D01*
X118121858Y-72220460D01*
X118124952Y-72196958D01*
X118126030Y-72188770D01*
X118120780Y-72148892D01*
X118120780Y-72148885D01*
X118109171Y-72060707D01*
X118106196Y-72038108D01*
X118105118Y-72029920D01*
X118101717Y-72021710D01*
X118047356Y-71890470D01*
X118047356Y-71890469D01*
X118043804Y-71881895D01*
X118043804Y-71881894D01*
X118034839Y-71870210D01*
X117989324Y-71810895D01*
X117970757Y-71786698D01*
X117970754Y-71786695D01*
X117946267Y-71754783D01*
X117930595Y-71742757D01*
X117920901Y-71735318D01*
X117908510Y-71724451D01*
X117350415Y-71166356D01*
X117316389Y-71104044D01*
X117313510Y-71077261D01*
X117313510Y-70947754D01*
X117310584Y-70910563D01*
X117273701Y-70783611D01*
X117266555Y-70759013D01*
X117266554Y-70759011D01*
X117264343Y-70751400D01*
X117260307Y-70744575D01*
X117260305Y-70744571D01*
X117257688Y-70740145D01*
X117240230Y-70671329D01*
X117257688Y-70611872D01*
X117259845Y-70608224D01*
X117266093Y-70593787D01*
X117304120Y-70462895D01*
X117304080Y-70448795D01*
X117296810Y-70445500D01*
X117019397Y-70445500D01*
X116955258Y-70427953D01*
X116926940Y-70411206D01*
X116926936Y-70411204D01*
X116920111Y-70407168D01*
X116912500Y-70404957D01*
X116912498Y-70404956D01*
X116857903Y-70389095D01*
X116760948Y-70360927D01*
X116754543Y-70360423D01*
X116754538Y-70360422D01*
X116726214Y-70358193D01*
X116726206Y-70358193D01*
X116723758Y-70358000D01*
X116485156Y-70358000D01*
X116246265Y-70358001D01*
X116209074Y-70360927D01*
X116112119Y-70389095D01*
X116057524Y-70404956D01*
X116057522Y-70404957D01*
X116049911Y-70407168D01*
X116043086Y-70411204D01*
X116043082Y-70411206D01*
X116014764Y-70427953D01*
X115950625Y-70445500D01*
X115704975Y-70445500D01*
X115669821Y-70440497D01*
X115635833Y-70430622D01*
X115635830Y-70430621D01*
X115629650Y-70428826D01*
X115616999Y-70427830D01*
X115596199Y-70426193D01*
X115596186Y-70426192D01*
X115593740Y-70426000D01*
X115434000Y-70426000D01*
X115365879Y-70405998D01*
X115344905Y-70389095D01*
X114875915Y-69920105D01*
X115665902Y-69920105D01*
X115665942Y-69934205D01*
X115673212Y-69937500D01*
X116212896Y-69937500D01*
X116228135Y-69933025D01*
X116229340Y-69931635D01*
X116231011Y-69923952D01*
X116231011Y-69919385D01*
X116739011Y-69919385D01*
X116743486Y-69934624D01*
X116744876Y-69935829D01*
X116752559Y-69937500D01*
X117291059Y-69937500D01*
X117304590Y-69933527D01*
X117305725Y-69925629D01*
X117266093Y-69789213D01*
X117259845Y-69774776D01*
X117183612Y-69645873D01*
X117173963Y-69633435D01*
X117068076Y-69527548D01*
X117055638Y-69517899D01*
X116926735Y-69441666D01*
X116912298Y-69435418D01*
X116767054Y-69393221D01*
X116756376Y-69391271D01*
X116741980Y-69394295D01*
X116739011Y-69405758D01*
X116739011Y-69919385D01*
X116231011Y-69919385D01*
X116231011Y-69407819D01*
X116226667Y-69393024D01*
X116215171Y-69390992D01*
X116202968Y-69393221D01*
X116057724Y-69435418D01*
X116043287Y-69441666D01*
X115914384Y-69517899D01*
X115901946Y-69527548D01*
X115796059Y-69633435D01*
X115786410Y-69645873D01*
X115710177Y-69774776D01*
X115703929Y-69789213D01*
X115665902Y-69920105D01*
X114875915Y-69920105D01*
X114751076Y-69795266D01*
X114740209Y-69782875D01*
X114725774Y-69764063D01*
X114720748Y-69757513D01*
X114688836Y-69733026D01*
X114688833Y-69733023D01*
X114661553Y-69712090D01*
X114600190Y-69665004D01*
X114600188Y-69665003D01*
X114593637Y-69659976D01*
X114445612Y-69598662D01*
X114437425Y-69597584D01*
X114437424Y-69597584D01*
X114426219Y-69596109D01*
X114395023Y-69592002D01*
X114326646Y-69583000D01*
X114326643Y-69583000D01*
X114326635Y-69582999D01*
X114294950Y-69578828D01*
X114286761Y-69577750D01*
X114255068Y-69581922D01*
X114238625Y-69583000D01*
X112177139Y-69583000D01*
X112109018Y-69562998D01*
X112088044Y-69546095D01*
X111869095Y-69327146D01*
X120084500Y-69327146D01*
X120084801Y-69333294D01*
X120098312Y-69471092D01*
X120100695Y-69483127D01*
X120154267Y-69660565D01*
X120158941Y-69671905D01*
X120245960Y-69835566D01*
X120252749Y-69845783D01*
X120369897Y-69989422D01*
X120378541Y-69998126D01*
X120521356Y-70116273D01*
X120531527Y-70123133D01*
X120694576Y-70211293D01*
X120705881Y-70216045D01*
X120821192Y-70251739D01*
X120835295Y-70251945D01*
X120838500Y-70245190D01*
X120838500Y-70238413D01*
X121346500Y-70238413D01*
X121350473Y-70251944D01*
X121358268Y-70253064D01*
X121466021Y-70221351D01*
X121477389Y-70216758D01*
X121641654Y-70130882D01*
X121651915Y-70124168D01*
X121796373Y-70008021D01*
X121805132Y-69999443D01*
X121924278Y-69857450D01*
X121931208Y-69847330D01*
X122020502Y-69684904D01*
X122025334Y-69673631D01*
X122081380Y-69496951D01*
X122083930Y-69484957D01*
X122100107Y-69340728D01*
X122100500Y-69333704D01*
X122100500Y-69327146D01*
X128724500Y-69327146D01*
X128724801Y-69333294D01*
X128738312Y-69471092D01*
X128740695Y-69483127D01*
X128794267Y-69660565D01*
X128798941Y-69671905D01*
X128885960Y-69835566D01*
X128892749Y-69845783D01*
X129009897Y-69989422D01*
X129018541Y-69998126D01*
X129161356Y-70116273D01*
X129171527Y-70123133D01*
X129334576Y-70211293D01*
X129345881Y-70216045D01*
X129461192Y-70251739D01*
X129475295Y-70251945D01*
X129478500Y-70245190D01*
X129478500Y-70238413D01*
X129986500Y-70238413D01*
X129990473Y-70251944D01*
X129998268Y-70253064D01*
X130106021Y-70221351D01*
X130117389Y-70216758D01*
X130281654Y-70130882D01*
X130291915Y-70124168D01*
X130436373Y-70008021D01*
X130445132Y-69999443D01*
X130564278Y-69857450D01*
X130571208Y-69847330D01*
X130660502Y-69684904D01*
X130665334Y-69673631D01*
X130721380Y-69496951D01*
X130723930Y-69484957D01*
X130740107Y-69340728D01*
X130740500Y-69333704D01*
X130740500Y-69252604D01*
X130736025Y-69237365D01*
X130734635Y-69236160D01*
X130726952Y-69234489D01*
X130004615Y-69234489D01*
X129989376Y-69238964D01*
X129988171Y-69240354D01*
X129986500Y-69248037D01*
X129986500Y-70238413D01*
X129478500Y-70238413D01*
X129478500Y-69252604D01*
X129474025Y-69237365D01*
X129472635Y-69236160D01*
X129464952Y-69234489D01*
X128742615Y-69234489D01*
X128727376Y-69238964D01*
X128726171Y-69240354D01*
X128724500Y-69248037D01*
X128724500Y-69327146D01*
X122100500Y-69327146D01*
X122100500Y-69252604D01*
X122096025Y-69237365D01*
X122094635Y-69236160D01*
X122086952Y-69234489D01*
X121364615Y-69234489D01*
X121349376Y-69238964D01*
X121348171Y-69240354D01*
X121346500Y-69248037D01*
X121346500Y-70238413D01*
X120838500Y-70238413D01*
X120838500Y-69252604D01*
X120834025Y-69237365D01*
X120832635Y-69236160D01*
X120824952Y-69234489D01*
X120102615Y-69234489D01*
X120087376Y-69238964D01*
X120086171Y-69240354D01*
X120084500Y-69248037D01*
X120084500Y-69327146D01*
X111869095Y-69327146D01*
X111214716Y-68672767D01*
X111180690Y-68610455D01*
X111185755Y-68539640D01*
X111222375Y-68487587D01*
X111226110Y-68484923D01*
X111384346Y-68327239D01*
X111514703Y-68145827D01*
X111515890Y-68146680D01*
X111563210Y-68103112D01*
X111633147Y-68090895D01*
X111698588Y-68118428D01*
X111726416Y-68150261D01*
X111783944Y-68244138D01*
X111790027Y-68252449D01*
X111929463Y-68413417D01*
X111936830Y-68420633D01*
X112100684Y-68556666D01*
X112109131Y-68562581D01*
X112293006Y-68670029D01*
X112302292Y-68674479D01*
X112501251Y-68750453D01*
X112511149Y-68753329D01*
X112614500Y-68774356D01*
X112628549Y-68773160D01*
X112632250Y-68762815D01*
X112632250Y-68102750D01*
X112652252Y-68034629D01*
X112705908Y-67988136D01*
X112758250Y-67976750D01*
X113014250Y-67976750D01*
X113082371Y-67996752D01*
G37*
%TD.AperFunction*%
%TA.AperFunction,Conductor*%
G36*
X107878012Y-79086790D02*
G01*
X107884595Y-79092919D01*
X110247856Y-81456180D01*
X110281882Y-81518492D01*
X110284761Y-81545275D01*
X110284761Y-81815500D01*
X110264759Y-81883621D01*
X110211103Y-81930114D01*
X110158761Y-81941500D01*
X109580170Y-81941500D01*
X109512049Y-81921498D01*
X109464532Y-81865538D01*
X109464305Y-81865013D01*
X109462093Y-81857400D01*
X109406937Y-81764136D01*
X109381757Y-81721558D01*
X109381757Y-81721557D01*
X109377723Y-81714737D01*
X109260524Y-81597538D01*
X109172152Y-81545275D01*
X109124684Y-81517203D01*
X109117861Y-81513168D01*
X109110250Y-81510957D01*
X109110248Y-81510956D01*
X109038763Y-81490188D01*
X108958698Y-81466927D01*
X108952293Y-81466423D01*
X108952288Y-81466422D01*
X108923964Y-81464193D01*
X108923956Y-81464193D01*
X108921508Y-81464000D01*
X108707891Y-81464000D01*
X108494015Y-81464001D01*
X108456824Y-81466927D01*
X108376759Y-81490188D01*
X108305274Y-81510956D01*
X108305272Y-81510957D01*
X108297661Y-81513168D01*
X108290836Y-81517204D01*
X108290832Y-81517206D01*
X108286406Y-81519823D01*
X108217590Y-81537281D01*
X108158133Y-81519823D01*
X108154485Y-81517666D01*
X108140048Y-81511418D01*
X108009156Y-81473391D01*
X107995056Y-81473431D01*
X107991761Y-81480701D01*
X107991761Y-81758114D01*
X107974214Y-81822253D01*
X107957467Y-81850571D01*
X107957465Y-81850575D01*
X107953429Y-81857400D01*
X107951218Y-81865011D01*
X107951217Y-81865013D01*
X107916497Y-81984521D01*
X107878284Y-82044356D01*
X107813788Y-82074034D01*
X107743485Y-82064131D01*
X107689697Y-82017791D01*
X107669500Y-81949368D01*
X107669500Y-79182014D01*
X107689502Y-79113893D01*
X107743158Y-79067400D01*
X107813432Y-79057296D01*
X107878012Y-79086790D01*
G37*
%TD.AperFunction*%
%TA.AperFunction,Conductor*%
G36*
X123596121Y-78481391D02*
G01*
X123642614Y-78535047D01*
X123654000Y-78587389D01*
X123654000Y-79417791D01*
X123654193Y-79420239D01*
X123654193Y-79420247D01*
X123656130Y-79444851D01*
X123656938Y-79455120D01*
X123703355Y-79614890D01*
X123713615Y-79632239D01*
X123784009Y-79751269D01*
X123784011Y-79751272D01*
X123788047Y-79758096D01*
X123820864Y-79790913D01*
X123854890Y-79853225D01*
X123856690Y-79863554D01*
X123864345Y-79921697D01*
X123864345Y-79921699D01*
X123868270Y-79951512D01*
X123869662Y-79962090D01*
X123930976Y-80110115D01*
X123936003Y-80116666D01*
X123936004Y-80116668D01*
X124004020Y-80205308D01*
X124004026Y-80205314D01*
X124028513Y-80237226D01*
X124035068Y-80242256D01*
X124053879Y-80256691D01*
X124066270Y-80267558D01*
X124229596Y-80430884D01*
X124263622Y-80493196D01*
X124266501Y-80519979D01*
X124266501Y-80649485D01*
X124269427Y-80686676D01*
X124315668Y-80845839D01*
X124322032Y-80856599D01*
X124339492Y-80925413D01*
X124322032Y-80984878D01*
X124315668Y-80995639D01*
X124313140Y-81004341D01*
X124312575Y-81005288D01*
X124310308Y-81010527D01*
X124309627Y-81010232D01*
X124280601Y-81058916D01*
X124272592Y-81066812D01*
X124269500Y-81078747D01*
X124269500Y-81148918D01*
X124269112Y-81158804D01*
X124266694Y-81189531D01*
X124266500Y-81191992D01*
X124266501Y-81619485D01*
X124267555Y-81632882D01*
X124269112Y-81652672D01*
X124269500Y-81662555D01*
X124269500Y-81720565D01*
X124249411Y-81788820D01*
X124192254Y-81877510D01*
X124192250Y-81877519D01*
X124188435Y-81883438D01*
X124186026Y-81890057D01*
X124164905Y-81948085D01*
X124122810Y-82005256D01*
X124056488Y-82030593D01*
X124046505Y-82030989D01*
X123958974Y-82030990D01*
X123887500Y-82030990D01*
X123819380Y-82010988D01*
X123772887Y-81957333D01*
X123761500Y-81904990D01*
X123761500Y-81080808D01*
X123757025Y-81065568D01*
X123754910Y-81063735D01*
X123716526Y-81004009D01*
X123712648Y-80950976D01*
X123723348Y-80874842D01*
X123723349Y-80874832D01*
X123723899Y-80870917D01*
X123724216Y-80848200D01*
X123703997Y-80667945D01*
X123687388Y-80620250D01*
X123646664Y-80503306D01*
X123646662Y-80503303D01*
X123644345Y-80496648D01*
X123640609Y-80490669D01*
X123551959Y-80348798D01*
X123548226Y-80342824D01*
X123531977Y-80326461D01*
X123425378Y-80219115D01*
X123425374Y-80219112D01*
X123420415Y-80214118D01*
X123406538Y-80205311D01*
X123350217Y-80169569D01*
X123267266Y-80116927D01*
X123238063Y-80106528D01*
X123103025Y-80058443D01*
X123103020Y-80058442D01*
X123096390Y-80056081D01*
X123089402Y-80055248D01*
X123089399Y-80055247D01*
X122933639Y-80036674D01*
X122916280Y-80034604D01*
X122909277Y-80035340D01*
X122909276Y-80035340D01*
X122742898Y-80052827D01*
X122742896Y-80052827D01*
X122735888Y-80053564D01*
X122735790Y-80052635D01*
X122671035Y-80048150D01*
X122614103Y-80005732D01*
X122589142Y-79939268D01*
X122588800Y-79929995D01*
X122588800Y-79767387D01*
X122588607Y-79764931D01*
X122586367Y-79736468D01*
X122586366Y-79736463D01*
X122585862Y-79730058D01*
X122550191Y-79607277D01*
X122541657Y-79577901D01*
X122541656Y-79577899D01*
X122539445Y-79570288D01*
X122509291Y-79519301D01*
X122458791Y-79433909D01*
X122458789Y-79433906D01*
X122454753Y-79427082D01*
X122419092Y-79391421D01*
X122392550Y-79352366D01*
X122391657Y-79350301D01*
X122389445Y-79342689D01*
X122378525Y-79324224D01*
X122369834Y-79306484D01*
X122361935Y-79286533D01*
X122334782Y-79249160D01*
X122328267Y-79239242D01*
X122327634Y-79238171D01*
X122320005Y-79225271D01*
X122302545Y-79156456D01*
X122303643Y-79146417D01*
X122303873Y-79145626D01*
X122306800Y-79108436D01*
X122306799Y-78630943D01*
X122304150Y-78597271D01*
X122318748Y-78527792D01*
X122368592Y-78477234D01*
X122429762Y-78461389D01*
X123528000Y-78461389D01*
X123596121Y-78481391D01*
G37*
%TD.AperFunction*%
%TA.AperFunction,Conductor*%
G36*
X116954068Y-80616078D02*
G01*
X116985761Y-80620250D01*
X117017454Y-80616078D01*
X117033897Y-80615000D01*
X117499575Y-80615000D01*
X117567696Y-80635002D01*
X117614189Y-80688658D01*
X117624293Y-80758932D01*
X117608029Y-80805139D01*
X117524429Y-80946500D01*
X117478188Y-81105663D01*
X117477684Y-81112068D01*
X117477683Y-81112073D01*
X117477278Y-81117222D01*
X117475261Y-81142853D01*
X117475262Y-81620346D01*
X117478188Y-81657537D01*
X117507409Y-81758114D01*
X117513868Y-81780347D01*
X117513665Y-81851343D01*
X117475111Y-81910959D01*
X117410447Y-81940268D01*
X117392871Y-81941500D01*
X117001989Y-81941500D01*
X116985543Y-81940422D01*
X116967154Y-81938001D01*
X116967152Y-81938001D01*
X116967146Y-81938000D01*
X116967144Y-81938000D01*
X116967135Y-81937999D01*
X116935450Y-81933828D01*
X116927261Y-81932750D01*
X116895568Y-81936922D01*
X116879125Y-81938000D01*
X116831261Y-81938000D01*
X116763140Y-81917998D01*
X116716647Y-81864342D01*
X116705261Y-81812000D01*
X116705261Y-81764136D01*
X116706339Y-81747690D01*
X116708974Y-81727679D01*
X116710511Y-81716000D01*
X116705261Y-81676120D01*
X116705261Y-81676115D01*
X116702839Y-81657718D01*
X116701761Y-81641272D01*
X116701761Y-80741000D01*
X116721763Y-80672879D01*
X116775419Y-80626386D01*
X116827761Y-80615000D01*
X116937625Y-80615000D01*
X116954068Y-80616078D01*
G37*
%TD.AperFunction*%
%TA.AperFunction,Conductor*%
G36*
X118654993Y-78677840D02*
G01*
X118693224Y-78737664D01*
X118693043Y-78808660D01*
X118690642Y-78815939D01*
X118639997Y-78955085D01*
X118617263Y-79135040D01*
X118620604Y-79169117D01*
X118629486Y-79259705D01*
X118616226Y-79329452D01*
X118567363Y-79380959D01*
X118504087Y-79398000D01*
X118321261Y-79398000D01*
X118253140Y-79377998D01*
X118206647Y-79324342D01*
X118195261Y-79272001D01*
X118195260Y-79073727D01*
X118195260Y-79071254D01*
X118192334Y-79034063D01*
X118148459Y-78883044D01*
X118148662Y-78812048D01*
X118187216Y-78752431D01*
X118258036Y-78722410D01*
X118349800Y-78714059D01*
X118356502Y-78711881D01*
X118356504Y-78711881D01*
X118515605Y-78660186D01*
X118515606Y-78660186D01*
X118522308Y-78658008D01*
X118522748Y-78657746D01*
X118590487Y-78648183D01*
X118654993Y-78677840D01*
G37*
%TD.AperFunction*%
%TA.AperFunction,Conductor*%
G36*
X111188382Y-70820002D02*
G01*
X111234875Y-70873658D01*
X111246261Y-70926000D01*
X111246261Y-72817385D01*
X111250736Y-72832624D01*
X111252126Y-72833829D01*
X111259809Y-72835500D01*
X113895145Y-72835500D01*
X113910384Y-72831025D01*
X113911589Y-72829635D01*
X113913260Y-72821952D01*
X113913260Y-70982738D01*
X113933262Y-70914617D01*
X113986918Y-70868124D01*
X114057192Y-70858020D01*
X114121772Y-70887514D01*
X114128355Y-70893643D01*
X114359356Y-71124644D01*
X114393382Y-71186956D01*
X114396261Y-71213738D01*
X114396262Y-71297239D01*
X114396262Y-71373478D01*
X114396456Y-71375938D01*
X114396456Y-71375943D01*
X114398382Y-71400421D01*
X114399087Y-71409389D01*
X114443743Y-71563093D01*
X114447777Y-71569914D01*
X114521185Y-71694043D01*
X114521188Y-71694047D01*
X114525219Y-71700863D01*
X114554761Y-71730405D01*
X114588787Y-71792717D01*
X114583722Y-71863532D01*
X114554761Y-71908595D01*
X114525219Y-71938137D01*
X114521188Y-71944953D01*
X114521185Y-71944957D01*
X114466097Y-72038108D01*
X114443743Y-72075907D01*
X114441532Y-72083517D01*
X114401746Y-72220460D01*
X114399087Y-72229611D01*
X114398582Y-72236030D01*
X114396454Y-72263062D01*
X114396453Y-72263075D01*
X114396261Y-72265521D01*
X114396262Y-72643478D01*
X114399087Y-72679389D01*
X114443743Y-72833093D01*
X114447777Y-72839914D01*
X114521185Y-72964043D01*
X114521188Y-72964047D01*
X114525219Y-72970863D01*
X114554761Y-73000405D01*
X114588787Y-73062717D01*
X114583722Y-73133532D01*
X114554761Y-73178595D01*
X114525219Y-73208137D01*
X114521188Y-73214953D01*
X114521185Y-73214957D01*
X114471890Y-73298312D01*
X114443743Y-73345907D01*
X114441532Y-73353517D01*
X114418555Y-73432604D01*
X114399087Y-73499611D01*
X114398582Y-73506030D01*
X114396454Y-73533062D01*
X114396453Y-73533075D01*
X114396261Y-73535521D01*
X114396262Y-73913478D01*
X114396456Y-73915938D01*
X114396456Y-73915943D01*
X114398382Y-73940421D01*
X114399087Y-73949389D01*
X114443743Y-74103093D01*
X114447777Y-74109914D01*
X114521185Y-74234043D01*
X114521188Y-74234047D01*
X114525219Y-74240863D01*
X114554761Y-74270405D01*
X114588787Y-74332717D01*
X114583722Y-74403532D01*
X114554761Y-74448595D01*
X114525219Y-74478137D01*
X114521188Y-74484953D01*
X114521185Y-74484957D01*
X114458305Y-74591284D01*
X114443743Y-74615907D01*
X114441532Y-74623517D01*
X114403075Y-74755886D01*
X114399087Y-74769611D01*
X114398582Y-74776030D01*
X114396454Y-74803062D01*
X114396453Y-74803075D01*
X114396261Y-74805521D01*
X114396262Y-75183478D01*
X114396456Y-75185943D01*
X114397282Y-75196438D01*
X114399087Y-75219389D01*
X114400881Y-75225563D01*
X114400882Y-75225570D01*
X114411701Y-75262807D01*
X114411498Y-75333803D01*
X114372945Y-75393419D01*
X114308280Y-75422728D01*
X114290704Y-75423960D01*
X114037789Y-75423960D01*
X113969668Y-75403958D01*
X113923175Y-75350302D01*
X113912527Y-75284347D01*
X113912892Y-75280991D01*
X113913261Y-75274172D01*
X113913261Y-73361615D01*
X113908786Y-73346376D01*
X113907396Y-73345171D01*
X113899713Y-73343500D01*
X111264377Y-73343500D01*
X111249138Y-73347975D01*
X111247933Y-73349365D01*
X111246262Y-73357048D01*
X111246262Y-75274169D01*
X111246632Y-75280990D01*
X111252156Y-75331852D01*
X111255782Y-75347104D01*
X111300937Y-75467554D01*
X111309475Y-75483148D01*
X111333100Y-75514671D01*
X111357948Y-75581177D01*
X111342895Y-75650559D01*
X111321369Y-75679331D01*
X110445364Y-76555336D01*
X110432972Y-76566205D01*
X110415596Y-76579538D01*
X110407604Y-76585670D01*
X110383117Y-76617582D01*
X110383114Y-76617585D01*
X110368627Y-76636465D01*
X110321278Y-76698171D01*
X110310067Y-76712781D01*
X110251978Y-76853021D01*
X110248753Y-76860807D01*
X110247675Y-76868995D01*
X110233091Y-76979772D01*
X110233091Y-76979777D01*
X110229627Y-77006094D01*
X110227841Y-77019657D01*
X110228919Y-77027845D01*
X110232013Y-77051347D01*
X110233091Y-77067793D01*
X110233091Y-78286115D01*
X110213089Y-78354236D01*
X110159433Y-78400729D01*
X110089159Y-78410833D01*
X110024579Y-78381339D01*
X110017996Y-78375210D01*
X109521686Y-77878900D01*
X109487660Y-77816588D01*
X109484781Y-77789805D01*
X109484781Y-75878500D01*
X109504783Y-75810379D01*
X109558439Y-75763886D01*
X109610781Y-75752500D01*
X109611646Y-75752500D01*
X109626885Y-75748025D01*
X109628090Y-75746635D01*
X109629761Y-75738952D01*
X109629761Y-75734384D01*
X110129761Y-75734384D01*
X110134236Y-75749623D01*
X110135626Y-75750828D01*
X110143309Y-75752499D01*
X110191215Y-75752499D01*
X110196150Y-75752305D01*
X110223153Y-75750181D01*
X110235754Y-75747880D01*
X110375541Y-75707268D01*
X110389978Y-75701020D01*
X110513988Y-75627681D01*
X110526426Y-75618032D01*
X110628293Y-75516165D01*
X110637942Y-75503727D01*
X110711281Y-75379717D01*
X110717529Y-75365280D01*
X110747565Y-75261895D01*
X110747525Y-75247795D01*
X110740255Y-75244500D01*
X110147876Y-75244500D01*
X110132637Y-75248975D01*
X110131432Y-75250365D01*
X110129761Y-75258048D01*
X110129761Y-75734384D01*
X109629761Y-75734384D01*
X109629761Y-74870500D01*
X109649763Y-74802379D01*
X109703419Y-74755886D01*
X109755761Y-74744500D01*
X110734504Y-74744500D01*
X110748035Y-74740527D01*
X110749170Y-74732629D01*
X110717529Y-74623720D01*
X110711281Y-74609283D01*
X110637942Y-74485273D01*
X110628293Y-74472835D01*
X110604407Y-74448949D01*
X110570381Y-74386637D01*
X110575446Y-74315822D01*
X110604407Y-74270759D01*
X110634303Y-74240863D01*
X110638334Y-74234047D01*
X110638337Y-74234043D01*
X110711745Y-74109914D01*
X110715779Y-74103093D01*
X110760435Y-73949389D01*
X110761431Y-73936738D01*
X110763068Y-73915938D01*
X110763069Y-73915925D01*
X110763261Y-73913479D01*
X110763260Y-73535522D01*
X110762253Y-73522717D01*
X110760940Y-73506026D01*
X110760939Y-73506023D01*
X110760435Y-73499611D01*
X110715779Y-73345907D01*
X110687632Y-73298312D01*
X110638337Y-73214957D01*
X110638334Y-73214953D01*
X110634303Y-73208137D01*
X110604761Y-73178595D01*
X110570735Y-73116283D01*
X110575800Y-73045468D01*
X110604761Y-73000405D01*
X110634303Y-72970863D01*
X110638334Y-72964047D01*
X110638337Y-72964043D01*
X110711745Y-72839914D01*
X110715779Y-72833093D01*
X110760435Y-72679389D01*
X110762363Y-72654895D01*
X110763068Y-72645938D01*
X110763069Y-72645925D01*
X110763261Y-72643479D01*
X110763260Y-72265522D01*
X110760435Y-72229611D01*
X110729465Y-72123013D01*
X110717990Y-72083517D01*
X110715779Y-72075907D01*
X110693425Y-72038108D01*
X110638337Y-71944957D01*
X110638334Y-71944953D01*
X110634303Y-71938137D01*
X110604761Y-71908595D01*
X110570735Y-71846283D01*
X110575800Y-71775468D01*
X110604761Y-71730405D01*
X110634303Y-71700863D01*
X110638334Y-71694047D01*
X110638337Y-71694043D01*
X110711745Y-71569914D01*
X110715779Y-71563093D01*
X110760435Y-71409389D01*
X110761431Y-71396738D01*
X110763068Y-71375938D01*
X110763069Y-71375925D01*
X110763261Y-71373479D01*
X110763260Y-70995522D01*
X110760435Y-70959611D01*
X110758638Y-70953427D01*
X110757763Y-70948633D01*
X110765204Y-70878027D01*
X110809635Y-70822653D01*
X110881714Y-70800000D01*
X111120261Y-70800000D01*
X111188382Y-70820002D01*
G37*
%TD.AperFunction*%
%TA.AperFunction,Conductor*%
G36*
X113498882Y-77509502D02*
G01*
X113545375Y-77563158D01*
X113556761Y-77615500D01*
X113556761Y-77784000D01*
X113536759Y-77852121D01*
X113483103Y-77898614D01*
X113430761Y-77910000D01*
X113074440Y-77910001D01*
X113064015Y-77910001D01*
X113026824Y-77912927D01*
X112928744Y-77941422D01*
X112875274Y-77956956D01*
X112875272Y-77956957D01*
X112867661Y-77959168D01*
X112860838Y-77963203D01*
X112860836Y-77963204D01*
X112858898Y-77964350D01*
X112857181Y-77964786D01*
X112853561Y-77966352D01*
X112853308Y-77965768D01*
X112790081Y-77981808D01*
X112736128Y-77965966D01*
X112735961Y-77966352D01*
X112732834Y-77964999D01*
X112730624Y-77964350D01*
X112728686Y-77963204D01*
X112728684Y-77963203D01*
X112721861Y-77959168D01*
X112714250Y-77956957D01*
X112714248Y-77956956D01*
X112663565Y-77942232D01*
X112562698Y-77912927D01*
X112556293Y-77912423D01*
X112556288Y-77912422D01*
X112527964Y-77910193D01*
X112527956Y-77910193D01*
X112525508Y-77910000D01*
X112520196Y-77910000D01*
X112375130Y-77910001D01*
X112307011Y-77889999D01*
X112260518Y-77836344D01*
X112249131Y-77784001D01*
X112249131Y-77654871D01*
X112269133Y-77586750D01*
X112286034Y-77565777D01*
X112297816Y-77553994D01*
X112325405Y-77526405D01*
X112387716Y-77492380D01*
X112414501Y-77489500D01*
X113430761Y-77489500D01*
X113498882Y-77509502D01*
G37*
%TD.AperFunction*%
%TA.AperFunction,Conductor*%
G36*
X105389092Y-76064752D02*
G01*
X105410066Y-76081655D01*
X105616555Y-76288144D01*
X105650581Y-76350456D01*
X105653460Y-76377239D01*
X105653460Y-77251106D01*
X105633458Y-77319227D01*
X105579802Y-77365720D01*
X105511014Y-77376028D01*
X105473448Y-77371083D01*
X105448135Y-77367750D01*
X105448134Y-77367750D01*
X105448126Y-77367749D01*
X105416440Y-77363578D01*
X105416439Y-77363578D01*
X105408250Y-77362500D01*
X105376557Y-77366672D01*
X105360114Y-77367750D01*
X105299228Y-77367750D01*
X105231107Y-77347748D01*
X105193436Y-77310190D01*
X105188740Y-77302930D01*
X105086264Y-77144527D01*
X104935920Y-76979301D01*
X104931869Y-76976102D01*
X104931865Y-76976098D01*
X104764664Y-76844050D01*
X104764660Y-76844048D01*
X104760609Y-76840848D01*
X104719303Y-76818046D01*
X104669334Y-76767614D01*
X104654562Y-76698171D01*
X104679678Y-76631766D01*
X104707030Y-76605159D01*
X104761256Y-76566480D01*
X104886110Y-76477423D01*
X104929238Y-76434446D01*
X105040685Y-76323387D01*
X105044346Y-76319739D01*
X105048474Y-76313995D01*
X105171685Y-76142527D01*
X105174703Y-76138327D01*
X105186269Y-76114925D01*
X105234382Y-76062717D01*
X105299227Y-76044750D01*
X105320971Y-76044750D01*
X105389092Y-76064752D01*
G37*
%TD.AperFunction*%
%TA.AperFunction,Conductor*%
G36*
X122290921Y-76042991D02*
G01*
X122337414Y-76096647D01*
X122348800Y-76148988D01*
X122348801Y-76312435D01*
X122351727Y-76349626D01*
X122397968Y-76508789D01*
X122402004Y-76515614D01*
X122402006Y-76515618D01*
X122404623Y-76520044D01*
X122422081Y-76588860D01*
X122404623Y-76648317D01*
X122402466Y-76651965D01*
X122396218Y-76666402D01*
X122358191Y-76797294D01*
X122358231Y-76811394D01*
X122365501Y-76814689D01*
X122642914Y-76814689D01*
X122707053Y-76832236D01*
X122735371Y-76848983D01*
X122735375Y-76848985D01*
X122742200Y-76853021D01*
X122749811Y-76855232D01*
X122749813Y-76855233D01*
X122894926Y-76897392D01*
X122954761Y-76935605D01*
X122984439Y-77000101D01*
X122974536Y-77070404D01*
X122928196Y-77124192D01*
X122859773Y-77144389D01*
X122178637Y-77144389D01*
X122110516Y-77124387D01*
X122092384Y-77110239D01*
X122074713Y-77093645D01*
X122068933Y-77088217D01*
X122061981Y-77084395D01*
X122050142Y-77077886D01*
X122033618Y-77067032D01*
X122022932Y-77058744D01*
X122016668Y-77053885D01*
X122009396Y-77050738D01*
X122009394Y-77050737D01*
X121974265Y-77035535D01*
X121963605Y-77030313D01*
X121930084Y-77011884D01*
X121930082Y-77011883D01*
X121923137Y-77008065D01*
X121902359Y-77002730D01*
X121883669Y-76996331D01*
X121863976Y-76987809D01*
X121818352Y-76980583D01*
X121806729Y-76978176D01*
X121778728Y-76970987D01*
X121761988Y-76966689D01*
X121740541Y-76966689D01*
X121720831Y-76965138D01*
X121707477Y-76963023D01*
X121699648Y-76961783D01*
X121699780Y-76960951D01*
X121638489Y-76940844D01*
X121593703Y-76885755D01*
X121585811Y-76815198D01*
X121620731Y-76748019D01*
X121640793Y-76727922D01*
X121645964Y-76722742D01*
X121734949Y-76578381D01*
X121737254Y-76571432D01*
X121786172Y-76423951D01*
X121786172Y-76423949D01*
X121788338Y-76417420D01*
X121798600Y-76317261D01*
X121798600Y-76148988D01*
X121818602Y-76080868D01*
X121872258Y-76034375D01*
X121924600Y-76022989D01*
X122222800Y-76022989D01*
X122290921Y-76042991D01*
G37*
%TD.AperFunction*%
%TA.AperFunction,Conductor*%
G36*
X105407612Y-73524752D02*
G01*
X105428586Y-73541655D01*
X106016075Y-74129144D01*
X106050101Y-74191456D01*
X106052980Y-74218239D01*
X106052980Y-74766229D01*
X106032978Y-74834350D01*
X105979322Y-74880843D01*
X105909048Y-74890947D01*
X105878762Y-74882638D01*
X105829453Y-74862214D01*
X105784061Y-74843412D01*
X105775874Y-74842334D01*
X105775873Y-74842334D01*
X105764668Y-74840859D01*
X105727729Y-74835996D01*
X105665095Y-74827750D01*
X105665092Y-74827750D01*
X105665084Y-74827749D01*
X105633399Y-74823578D01*
X105625210Y-74822500D01*
X105593517Y-74826672D01*
X105577074Y-74827750D01*
X105299228Y-74827750D01*
X105231107Y-74807748D01*
X105193436Y-74770190D01*
X105193062Y-74769611D01*
X105116556Y-74651351D01*
X105089072Y-74608867D01*
X105089070Y-74608864D01*
X105086264Y-74604527D01*
X104935920Y-74439301D01*
X104931869Y-74436102D01*
X104931865Y-74436098D01*
X104764664Y-74304050D01*
X104764660Y-74304048D01*
X104760609Y-74300848D01*
X104719303Y-74278046D01*
X104669334Y-74227614D01*
X104654562Y-74158171D01*
X104679678Y-74091766D01*
X104707030Y-74065159D01*
X104780320Y-74012882D01*
X104886110Y-73937423D01*
X104912618Y-73911008D01*
X105005336Y-73818613D01*
X105044346Y-73779739D01*
X105047389Y-73775505D01*
X105171685Y-73602527D01*
X105174703Y-73598327D01*
X105186269Y-73574925D01*
X105234382Y-73522717D01*
X105299227Y-73504750D01*
X105339491Y-73504750D01*
X105407612Y-73524752D01*
G37*
%TD.AperFunction*%
%TA.AperFunction,Conductor*%
G36*
X122072032Y-73733314D02*
G01*
X122128868Y-73775861D01*
X122153679Y-73842381D01*
X122154000Y-73851370D01*
X122154000Y-74203489D01*
X122133998Y-74271610D01*
X122080342Y-74318103D01*
X122028000Y-74329489D01*
X121440500Y-74329489D01*
X121372379Y-74309487D01*
X121325886Y-74255831D01*
X121314500Y-74203489D01*
X121314500Y-73947489D01*
X121334502Y-73879368D01*
X121388158Y-73832875D01*
X121440500Y-73821489D01*
X121890385Y-73821489D01*
X121905624Y-73817014D01*
X121914790Y-73806436D01*
X121938904Y-73762275D01*
X122001216Y-73728250D01*
X122072032Y-73733314D01*
G37*
%TD.AperFunction*%
%TA.AperFunction,Conductor*%
G36*
X106188132Y-70984752D02*
G01*
X106209106Y-71001655D01*
X106415595Y-71208144D01*
X106449621Y-71270456D01*
X106452500Y-71297239D01*
X106452500Y-72540281D01*
X106432498Y-72608402D01*
X106378842Y-72654895D01*
X106308568Y-72664999D01*
X106243988Y-72635505D01*
X106237405Y-72629376D01*
X106108045Y-72500016D01*
X106097178Y-72487625D01*
X106082743Y-72468813D01*
X106077717Y-72462263D01*
X106045805Y-72437776D01*
X106045802Y-72437773D01*
X105950606Y-72364726D01*
X105802581Y-72303412D01*
X105794394Y-72302334D01*
X105794393Y-72302334D01*
X105783188Y-72300859D01*
X105751992Y-72296752D01*
X105683615Y-72287750D01*
X105683612Y-72287750D01*
X105683604Y-72287749D01*
X105651919Y-72283578D01*
X105643730Y-72282500D01*
X105612037Y-72286672D01*
X105595594Y-72287750D01*
X105299228Y-72287750D01*
X105231107Y-72267748D01*
X105193436Y-72230190D01*
X105193062Y-72229611D01*
X105134330Y-72138826D01*
X105089072Y-72068867D01*
X105089070Y-72068864D01*
X105086264Y-72064527D01*
X104935920Y-71899301D01*
X104931869Y-71896102D01*
X104931865Y-71896098D01*
X104764664Y-71764050D01*
X104764660Y-71764048D01*
X104760609Y-71760848D01*
X104719303Y-71738046D01*
X104669334Y-71687614D01*
X104654562Y-71618171D01*
X104679678Y-71551766D01*
X104707030Y-71525159D01*
X104780320Y-71472882D01*
X104886110Y-71397423D01*
X104912618Y-71371008D01*
X105040685Y-71243387D01*
X105044346Y-71239739D01*
X105097844Y-71165289D01*
X105171685Y-71062527D01*
X105174703Y-71058327D01*
X105186269Y-71034925D01*
X105234382Y-70982717D01*
X105299227Y-70964750D01*
X106120011Y-70964750D01*
X106188132Y-70984752D01*
G37*
%TD.AperFunction*%
%TA.AperFunction,Conductor*%
G36*
X106389871Y-67996752D02*
G01*
X106436364Y-68050408D01*
X106447750Y-68102750D01*
X106447750Y-68341884D01*
X106454505Y-68404066D01*
X106505635Y-68540455D01*
X106592989Y-68657011D01*
X106709545Y-68744365D01*
X106845934Y-68795495D01*
X106908116Y-68802250D01*
X108704384Y-68802250D01*
X108766566Y-68795495D01*
X108902955Y-68744365D01*
X109019511Y-68657011D01*
X109106865Y-68540455D01*
X109119231Y-68507470D01*
X109150848Y-68423132D01*
X109193490Y-68366368D01*
X109260052Y-68341668D01*
X109329400Y-68356876D01*
X109364067Y-68384864D01*
X109392500Y-68417688D01*
X109564376Y-68560382D01*
X109577192Y-68567871D01*
X109678316Y-68626963D01*
X109727040Y-68678602D01*
X109739668Y-68719303D01*
X109746917Y-68774356D01*
X109747625Y-68779737D01*
X109747625Y-68779740D01*
X109750540Y-68801881D01*
X109753412Y-68823701D01*
X109814726Y-68971726D01*
X109819753Y-68978277D01*
X109819754Y-68978279D01*
X109887770Y-69066919D01*
X109887776Y-69066925D01*
X109912263Y-69098837D01*
X109918818Y-69103867D01*
X109937629Y-69118302D01*
X109950020Y-69129169D01*
X110188756Y-69367905D01*
X110222782Y-69430217D01*
X110217717Y-69501032D01*
X110175170Y-69557868D01*
X110108650Y-69582679D01*
X110099661Y-69583000D01*
X109429426Y-69583000D01*
X109361305Y-69562998D01*
X109340331Y-69546095D01*
X109315774Y-69521538D01*
X109253919Y-69484957D01*
X109179934Y-69441203D01*
X109173111Y-69437168D01*
X109165500Y-69434957D01*
X109165498Y-69434956D01*
X109114710Y-69420201D01*
X109013948Y-69390927D01*
X109007543Y-69390423D01*
X109007538Y-69390422D01*
X108979214Y-69388193D01*
X108979206Y-69388193D01*
X108976758Y-69388000D01*
X108738156Y-69388000D01*
X108499265Y-69388001D01*
X108462074Y-69390927D01*
X108363994Y-69419422D01*
X108310524Y-69434956D01*
X108310522Y-69434957D01*
X108302911Y-69437168D01*
X108296088Y-69441203D01*
X108222104Y-69484957D01*
X108160248Y-69521538D01*
X108043049Y-69638737D01*
X108039015Y-69645557D01*
X108039015Y-69645558D01*
X107969317Y-69763412D01*
X107958679Y-69781400D01*
X107956468Y-69789011D01*
X107956467Y-69789013D01*
X107951413Y-69806410D01*
X107912438Y-69940563D01*
X107911934Y-69946968D01*
X107911933Y-69946973D01*
X107910907Y-69960016D01*
X107909511Y-69977753D01*
X107909512Y-70405246D01*
X107912438Y-70442437D01*
X107922354Y-70476567D01*
X107955579Y-70590928D01*
X107958679Y-70601600D01*
X107965043Y-70612360D01*
X107982503Y-70681174D01*
X107965043Y-70740639D01*
X107958679Y-70751400D01*
X107956468Y-70759011D01*
X107956467Y-70759013D01*
X107949321Y-70783611D01*
X107912438Y-70910563D01*
X107912097Y-70914898D01*
X107880522Y-70977641D01*
X107819387Y-71013737D01*
X107748441Y-71011052D01*
X107690209Y-70970436D01*
X107663565Y-70908032D01*
X107654916Y-70842338D01*
X107653838Y-70834150D01*
X107592524Y-70686125D01*
X107545995Y-70625487D01*
X107519477Y-70590928D01*
X107519474Y-70590925D01*
X107494987Y-70559013D01*
X107477983Y-70545965D01*
X107469621Y-70539548D01*
X107457230Y-70528681D01*
X106888565Y-69960016D01*
X106877698Y-69947625D01*
X106863263Y-69928813D01*
X106858237Y-69922263D01*
X106826325Y-69897776D01*
X106826322Y-69897773D01*
X106810399Y-69885555D01*
X106737679Y-69829754D01*
X106737677Y-69829753D01*
X106731126Y-69824726D01*
X106583101Y-69763412D01*
X106574914Y-69762334D01*
X106574913Y-69762334D01*
X106563708Y-69760859D01*
X106532512Y-69756752D01*
X106464135Y-69747750D01*
X106464132Y-69747750D01*
X106464124Y-69747749D01*
X106432439Y-69743578D01*
X106424250Y-69742500D01*
X106392557Y-69746672D01*
X106376114Y-69747750D01*
X105299228Y-69747750D01*
X105231107Y-69727748D01*
X105193436Y-69690190D01*
X105190017Y-69684904D01*
X105140576Y-69608480D01*
X105089072Y-69528867D01*
X105089070Y-69528864D01*
X105086264Y-69524527D01*
X104935920Y-69359301D01*
X104931869Y-69356102D01*
X104931865Y-69356098D01*
X104764664Y-69224050D01*
X104764660Y-69224048D01*
X104760609Y-69220848D01*
X104565039Y-69112888D01*
X104565467Y-69112113D01*
X104515052Y-69068960D01*
X104494638Y-69000961D01*
X104495115Y-68989218D01*
X104504689Y-68879778D01*
X104508502Y-68858154D01*
X104551500Y-68697685D01*
X104559011Y-68677048D01*
X104629218Y-68526490D01*
X104640200Y-68507470D01*
X104735485Y-68371388D01*
X104749603Y-68354563D01*
X104867063Y-68237103D01*
X104883888Y-68222985D01*
X105019970Y-68127700D01*
X105038990Y-68116718D01*
X105189548Y-68046511D01*
X105210185Y-68039000D01*
X105370654Y-67996002D01*
X105392275Y-67992190D01*
X105442170Y-67987824D01*
X105528169Y-67980301D01*
X105544629Y-67980854D01*
X105544634Y-67980445D01*
X105553608Y-67980555D01*
X105562480Y-67981936D01*
X105571382Y-67980772D01*
X105571385Y-67980772D01*
X105594001Y-67977814D01*
X105610339Y-67976750D01*
X106321750Y-67976750D01*
X106389871Y-67996752D01*
G37*
%TD.AperFunction*%
%TD*%
M02*
