%TF.GenerationSoftware,KiCad,Pcbnew,(6.0.0)*%
%TF.CreationDate,2022-07-10T02:32:02-04:00*%
%TF.ProjectId,EyesOfTomorrow,45796573-4f66-4546-9f6d-6f72726f772e,rev?*%
%TF.SameCoordinates,Original*%
%TF.FileFunction,Soldermask,Top*%
%TF.FilePolarity,Negative*%
%FSLAX46Y46*%
G04 Gerber Fmt 4.6, Leading zero omitted, Abs format (unit mm)*
G04 Created by KiCad (PCBNEW (6.0.0)) date 2022-07-10 02:32:02*
%MOMM*%
%LPD*%
G01*
G04 APERTURE LIST*
G04 Aperture macros list*
%AMRoundRect*
0 Rectangle with rounded corners*
0 $1 Rounding radius*
0 $2 $3 $4 $5 $6 $7 $8 $9 X,Y pos of 4 corners*
0 Add a 4 corners polygon primitive as box body*
4,1,4,$2,$3,$4,$5,$6,$7,$8,$9,$2,$3,0*
0 Add four circle primitives for the rounded corners*
1,1,$1+$1,$2,$3*
1,1,$1+$1,$4,$5*
1,1,$1+$1,$6,$7*
1,1,$1+$1,$8,$9*
0 Add four rect primitives between the rounded corners*
20,1,$1+$1,$2,$3,$4,$5,0*
20,1,$1+$1,$4,$5,$6,$7,0*
20,1,$1+$1,$6,$7,$8,$9,0*
20,1,$1+$1,$8,$9,$2,$3,0*%
G04 Aperture macros list end*
%ADD10C,0.650000*%
%ADD11R,0.600000X1.450000*%
%ADD12R,0.300000X1.450000*%
%ADD13O,1.000000X1.600000*%
%ADD14O,1.000000X2.100000*%
%ADD15RoundRect,0.147500X-0.172500X0.147500X-0.172500X-0.147500X0.172500X-0.147500X0.172500X0.147500X0*%
%ADD16RoundRect,0.147500X-0.147500X-0.172500X0.147500X-0.172500X0.147500X0.172500X-0.147500X0.172500X0*%
%ADD17RoundRect,0.147500X0.172500X-0.147500X0.172500X0.147500X-0.172500X0.147500X-0.172500X-0.147500X0*%
%ADD18C,1.700000*%
%ADD19O,1.700000X1.700000*%
%ADD20RoundRect,0.147500X0.147500X0.172500X-0.147500X0.172500X-0.147500X-0.172500X0.147500X-0.172500X0*%
%ADD21RoundRect,0.125000X-0.250000X-0.125000X0.250000X-0.125000X0.250000X0.125000X-0.250000X0.125000X0*%
%ADD22R,1.651000X4.280000*%
%ADD23R,1.150000X1.000000*%
%ADD24RoundRect,0.150000X0.150000X-0.587500X0.150000X0.587500X-0.150000X0.587500X-0.150000X-0.587500X0*%
%ADD25R,0.900000X1.700000*%
%ADD26R,1.700000X1.700000*%
%ADD27RoundRect,0.150000X0.150000X-0.512500X0.150000X0.512500X-0.150000X0.512500X-0.150000X-0.512500X0*%
%ADD28RoundRect,0.218750X-0.256250X0.218750X-0.256250X-0.218750X0.256250X-0.218750X0.256250X0.218750X0*%
%ADD29RoundRect,0.050000X-0.387500X-0.050000X0.387500X-0.050000X0.387500X0.050000X-0.387500X0.050000X0*%
%ADD30RoundRect,0.050000X-0.050000X-0.387500X0.050000X-0.387500X0.050000X0.387500X-0.050000X0.387500X0*%
%ADD31R,2.550000X2.550000*%
G04 APERTURE END LIST*
D10*
%TO.C,J0*%
X122522500Y-72630489D03*
X128302500Y-72630489D03*
D11*
X128662500Y-74075489D03*
X127862500Y-74075489D03*
D12*
X126662500Y-74075489D03*
X125662500Y-74075489D03*
X125162500Y-74075489D03*
X124162500Y-74075489D03*
D11*
X122962500Y-74075489D03*
X122162500Y-74075489D03*
X122162500Y-74075489D03*
X122962500Y-74075489D03*
D12*
X123662500Y-74075489D03*
X124662500Y-74075489D03*
X126162500Y-74075489D03*
X127162500Y-74075489D03*
D11*
X127862500Y-74075489D03*
X128662500Y-74075489D03*
D13*
X121092500Y-68980489D03*
X129732500Y-68980489D03*
D14*
X129732500Y-73160489D03*
X121092500Y-73160489D03*
%TD*%
D15*
%TO.C,RF0*%
X108738011Y-70191500D03*
X108738011Y-71161500D03*
%TD*%
%TO.C,C6*%
X114572761Y-90570500D03*
X114572761Y-91540500D03*
%TD*%
D16*
%TO.C,CP0*%
X120533300Y-78869689D03*
X121503300Y-78869689D03*
%TD*%
D17*
%TO.C,C0*%
X115334761Y-79285000D03*
X115334761Y-78315000D03*
%TD*%
D18*
%TO.C,J3*%
X134137400Y-93141800D03*
D19*
X134137400Y-90601800D03*
X134137400Y-88061800D03*
X134137400Y-85521800D03*
X134137400Y-82981800D03*
X134137400Y-80441800D03*
X134137400Y-77901800D03*
X134137400Y-75361800D03*
X134137400Y-72821800D03*
X134137400Y-70281800D03*
%TD*%
D17*
%TO.C,C9*%
X117366761Y-79285000D03*
X117366761Y-78315000D03*
%TD*%
%TO.C,CF0*%
X116485011Y-71161500D03*
X116485011Y-70191500D03*
%TD*%
D20*
%TO.C,RR0*%
X118366400Y-90017600D03*
X117396400Y-90017600D03*
%TD*%
D17*
%TO.C,C3*%
X113302761Y-78713500D03*
X113302761Y-77743500D03*
%TD*%
%TO.C,C10*%
X116350761Y-79285000D03*
X116350761Y-78315000D03*
%TD*%
D15*
%TO.C,RX0*%
X113556761Y-90570500D03*
X113556761Y-91540500D03*
%TD*%
%TO.C,RD1*%
X126111000Y-80435739D03*
X126111000Y-81405739D03*
%TD*%
D17*
%TO.C,CP1*%
X124015500Y-82834489D03*
X124015500Y-81864489D03*
%TD*%
D16*
%TO.C,C8*%
X118278761Y-81381600D03*
X119248761Y-81381600D03*
%TD*%
D20*
%TO.C,C5*%
X108158000Y-86487000D03*
X107188000Y-86487000D03*
%TD*%
D15*
%TO.C,RC0*%
X127647700Y-76098689D03*
X127647700Y-77068689D03*
%TD*%
D21*
%TO.C,U2*%
X109879761Y-71184500D03*
X109879761Y-72454500D03*
X109879761Y-73724500D03*
X109879761Y-74994500D03*
X115279761Y-74994500D03*
X115279761Y-73724500D03*
X115279761Y-72454500D03*
X115279761Y-71184500D03*
D22*
X112579761Y-73089500D03*
%TD*%
D18*
%TO.C,J1*%
X104006250Y-70356250D03*
D19*
X104006250Y-72896250D03*
X104006250Y-75436250D03*
X104006250Y-77976250D03*
X104006250Y-80516250D03*
X104006250Y-83056250D03*
X104006250Y-85596250D03*
X104006250Y-88136250D03*
X104006250Y-90676250D03*
X104006250Y-93216250D03*
%TD*%
D23*
%TO.C,Y0*%
X112046761Y-94295500D03*
X113796761Y-94295500D03*
X113796761Y-92895500D03*
X112046761Y-92895500D03*
%TD*%
D20*
%TO.C,C4*%
X108707761Y-82292500D03*
X107737761Y-82292500D03*
%TD*%
D24*
%TO.C,U1*%
X120830300Y-82296389D03*
X122730300Y-82296389D03*
X121780300Y-80421389D03*
%TD*%
D17*
%TO.C,RC1*%
X123177300Y-77068689D03*
X123177300Y-76098689D03*
%TD*%
D25*
%TO.C,S1*%
X120749800Y-93345000D03*
X117349800Y-93345000D03*
%TD*%
D15*
%TO.C,CX0*%
X115207761Y-92602500D03*
X115207761Y-93572500D03*
%TD*%
D26*
%TO.C,J4*%
X107806250Y-67443750D03*
D19*
X110346250Y-67443750D03*
X112886250Y-67443750D03*
%TD*%
D15*
%TO.C,C2*%
X115588761Y-90570500D03*
X115588761Y-91540500D03*
%TD*%
%TO.C,RD0*%
X125095000Y-80435739D03*
X125095000Y-81405739D03*
%TD*%
D18*
%TO.C,J2*%
X107662500Y-96850200D03*
D19*
X110202500Y-96850200D03*
X112742500Y-96850200D03*
X115282500Y-96850200D03*
X117822500Y-96850200D03*
X120362500Y-96850200D03*
X122902500Y-96850200D03*
X125442500Y-96850200D03*
X127982500Y-96850200D03*
X130522500Y-96850200D03*
%TD*%
D27*
%TO.C,U3*%
X124462500Y-78838789D03*
X125412500Y-78838789D03*
X126362500Y-78838789D03*
X126362500Y-76563789D03*
X125412500Y-76563789D03*
X124462500Y-76563789D03*
%TD*%
D28*
%TO.C,F0*%
X120815100Y-76050189D03*
X120815100Y-77625189D03*
%TD*%
D17*
%TO.C,C1*%
X112286761Y-78713500D03*
X112286761Y-77743500D03*
%TD*%
D16*
%TO.C,C7*%
X119022000Y-86614000D03*
X119992000Y-86614000D03*
%TD*%
D15*
%TO.C,CX1*%
X110635761Y-92602500D03*
X110635761Y-93572500D03*
%TD*%
D29*
%TO.C,U0*%
X110055761Y-82550000D03*
X110055761Y-82950000D03*
X110055761Y-83350000D03*
X110055761Y-83750000D03*
X110055761Y-84150000D03*
X110055761Y-84550000D03*
X110055761Y-84950000D03*
X110055761Y-85350000D03*
X110055761Y-85750000D03*
X110055761Y-86150000D03*
X110055761Y-86550000D03*
X110055761Y-86950000D03*
X110055761Y-87350000D03*
X110055761Y-87750000D03*
D30*
X110893261Y-88587500D03*
X111293261Y-88587500D03*
X111693261Y-88587500D03*
X112093261Y-88587500D03*
X112493261Y-88587500D03*
X112893261Y-88587500D03*
X113293261Y-88587500D03*
X113693261Y-88587500D03*
X114093261Y-88587500D03*
X114493261Y-88587500D03*
X114893261Y-88587500D03*
X115293261Y-88587500D03*
X115693261Y-88587500D03*
X116093261Y-88587500D03*
D29*
X116930761Y-87750000D03*
X116930761Y-87350000D03*
X116930761Y-86950000D03*
X116930761Y-86550000D03*
X116930761Y-86150000D03*
X116930761Y-85750000D03*
X116930761Y-85350000D03*
X116930761Y-84950000D03*
X116930761Y-84550000D03*
X116930761Y-84150000D03*
X116930761Y-83750000D03*
X116930761Y-83350000D03*
X116930761Y-82950000D03*
X116930761Y-82550000D03*
D30*
X116093261Y-81712500D03*
X115693261Y-81712500D03*
X115293261Y-81712500D03*
X114893261Y-81712500D03*
X114493261Y-81712500D03*
X114093261Y-81712500D03*
X113693261Y-81712500D03*
X113293261Y-81712500D03*
X112893261Y-81712500D03*
X112493261Y-81712500D03*
X112093261Y-81712500D03*
X111693261Y-81712500D03*
X111293261Y-81712500D03*
X110893261Y-81712500D03*
D31*
X113493261Y-85150000D03*
%TD*%
M02*
