%TF.GenerationSoftware,KiCad,Pcbnew,(6.0.0)*%
%TF.CreationDate,2022-07-10T02:32:02-04:00*%
%TF.ProjectId,EyesOfTomorrow,45796573-4f66-4546-9f6d-6f72726f772e,rev?*%
%TF.SameCoordinates,Original*%
%TF.FileFunction,Paste,Top*%
%TF.FilePolarity,Positive*%
%FSLAX46Y46*%
G04 Gerber Fmt 4.6, Leading zero omitted, Abs format (unit mm)*
G04 Created by KiCad (PCBNEW (6.0.0)) date 2022-07-10 02:32:02*
%MOMM*%
%LPD*%
G01*
G04 APERTURE LIST*
G04 Aperture macros list*
%AMRoundRect*
0 Rectangle with rounded corners*
0 $1 Rounding radius*
0 $2 $3 $4 $5 $6 $7 $8 $9 X,Y pos of 4 corners*
0 Add a 4 corners polygon primitive as box body*
4,1,4,$2,$3,$4,$5,$6,$7,$8,$9,$2,$3,0*
0 Add four circle primitives for the rounded corners*
1,1,$1+$1,$2,$3*
1,1,$1+$1,$4,$5*
1,1,$1+$1,$6,$7*
1,1,$1+$1,$8,$9*
0 Add four rect primitives between the rounded corners*
20,1,$1+$1,$2,$3,$4,$5,0*
20,1,$1+$1,$4,$5,$6,$7,0*
20,1,$1+$1,$6,$7,$8,$9,0*
20,1,$1+$1,$8,$9,$2,$3,0*%
G04 Aperture macros list end*
%ADD10R,0.600000X1.450000*%
%ADD11R,0.300000X1.450000*%
%ADD12RoundRect,0.147500X-0.172500X0.147500X-0.172500X-0.147500X0.172500X-0.147500X0.172500X0.147500X0*%
%ADD13RoundRect,0.147500X-0.147500X-0.172500X0.147500X-0.172500X0.147500X0.172500X-0.147500X0.172500X0*%
%ADD14RoundRect,0.147500X0.172500X-0.147500X0.172500X0.147500X-0.172500X0.147500X-0.172500X-0.147500X0*%
%ADD15RoundRect,0.147500X0.147500X0.172500X-0.147500X0.172500X-0.147500X-0.172500X0.147500X-0.172500X0*%
%ADD16RoundRect,0.250000X-0.435000X-0.615000X0.435000X-0.615000X0.435000X0.615000X-0.435000X0.615000X0*%
%ADD17RoundRect,0.125000X-0.250000X-0.125000X0.250000X-0.125000X0.250000X0.125000X-0.250000X0.125000X0*%
%ADD18R,1.150000X1.000000*%
%ADD19RoundRect,0.150000X0.150000X-0.587500X0.150000X0.587500X-0.150000X0.587500X-0.150000X-0.587500X0*%
%ADD20R,0.900000X1.700000*%
%ADD21RoundRect,0.150000X0.150000X-0.512500X0.150000X0.512500X-0.150000X0.512500X-0.150000X-0.512500X0*%
%ADD22RoundRect,0.218750X-0.256250X0.218750X-0.256250X-0.218750X0.256250X-0.218750X0.256250X0.218750X0*%
%ADD23RoundRect,0.250000X-0.292217X-0.292217X0.292217X-0.292217X0.292217X0.292217X-0.292217X0.292217X0*%
%ADD24RoundRect,0.050000X-0.387500X-0.050000X0.387500X-0.050000X0.387500X0.050000X-0.387500X0.050000X0*%
%ADD25RoundRect,0.050000X-0.050000X-0.387500X0.050000X-0.387500X0.050000X0.387500X-0.050000X0.387500X0*%
G04 APERTURE END LIST*
D10*
%TO.C,J0*%
X128662500Y-74075489D03*
X127862500Y-74075489D03*
D11*
X126662500Y-74075489D03*
X125662500Y-74075489D03*
X125162500Y-74075489D03*
X124162500Y-74075489D03*
D10*
X122962500Y-74075489D03*
X122162500Y-74075489D03*
X122162500Y-74075489D03*
X122962500Y-74075489D03*
D11*
X123662500Y-74075489D03*
X124662500Y-74075489D03*
X126162500Y-74075489D03*
X127162500Y-74075489D03*
D10*
X127862500Y-74075489D03*
X128662500Y-74075489D03*
%TD*%
D12*
%TO.C,RF0*%
X108738011Y-70191500D03*
X108738011Y-71161500D03*
%TD*%
%TO.C,C6*%
X114572761Y-90570500D03*
X114572761Y-91540500D03*
%TD*%
D13*
%TO.C,CP0*%
X120533300Y-78869689D03*
X121503300Y-78869689D03*
%TD*%
D14*
%TO.C,C0*%
X115334761Y-79285000D03*
X115334761Y-78315000D03*
%TD*%
%TO.C,C9*%
X117366761Y-79285000D03*
X117366761Y-78315000D03*
%TD*%
%TO.C,CF0*%
X116485011Y-71161500D03*
X116485011Y-70191500D03*
%TD*%
D15*
%TO.C,RR0*%
X118366400Y-90017600D03*
X117396400Y-90017600D03*
%TD*%
D14*
%TO.C,C3*%
X113302761Y-78713500D03*
X113302761Y-77743500D03*
%TD*%
%TO.C,C10*%
X116350761Y-79285000D03*
X116350761Y-78315000D03*
%TD*%
D12*
%TO.C,RX0*%
X113556761Y-90570500D03*
X113556761Y-91540500D03*
%TD*%
%TO.C,RD1*%
X126111000Y-80435739D03*
X126111000Y-81405739D03*
%TD*%
D14*
%TO.C,CP1*%
X124015500Y-82834489D03*
X124015500Y-81864489D03*
%TD*%
D13*
%TO.C,C8*%
X118278761Y-81381600D03*
X119248761Y-81381600D03*
%TD*%
D15*
%TO.C,C5*%
X108158000Y-86487000D03*
X107188000Y-86487000D03*
%TD*%
D12*
%TO.C,RC0*%
X127647700Y-76098689D03*
X127647700Y-77068689D03*
%TD*%
D16*
%TO.C,U2*%
X112579761Y-74164500D03*
X112579761Y-71946500D03*
D17*
X109879761Y-71184500D03*
X109879761Y-72454500D03*
X109879761Y-73724500D03*
X109879761Y-74994500D03*
X115279761Y-74994500D03*
X115279761Y-73724500D03*
X115279761Y-72454500D03*
X115279761Y-71184500D03*
%TD*%
D18*
%TO.C,Y0*%
X112046761Y-94295500D03*
X113796761Y-94295500D03*
X113796761Y-92895500D03*
X112046761Y-92895500D03*
%TD*%
D15*
%TO.C,C4*%
X108707761Y-82292500D03*
X107737761Y-82292500D03*
%TD*%
D19*
%TO.C,U1*%
X120830300Y-82296389D03*
X122730300Y-82296389D03*
X121780300Y-80421389D03*
%TD*%
D14*
%TO.C,RC1*%
X123177300Y-77068689D03*
X123177300Y-76098689D03*
%TD*%
D20*
%TO.C,S1*%
X120749800Y-93345000D03*
X117349800Y-93345000D03*
%TD*%
D12*
%TO.C,CX0*%
X115207761Y-92602500D03*
X115207761Y-93572500D03*
%TD*%
%TO.C,C2*%
X115588761Y-90570500D03*
X115588761Y-91540500D03*
%TD*%
%TO.C,RD0*%
X125095000Y-80435739D03*
X125095000Y-81405739D03*
%TD*%
D21*
%TO.C,U3*%
X124462500Y-78838789D03*
X125412500Y-78838789D03*
X126362500Y-78838789D03*
X126362500Y-76563789D03*
X125412500Y-76563789D03*
X124462500Y-76563789D03*
%TD*%
D22*
%TO.C,F0*%
X120815100Y-76050189D03*
X120815100Y-77625189D03*
%TD*%
D14*
%TO.C,C1*%
X112286761Y-78713500D03*
X112286761Y-77743500D03*
%TD*%
D13*
%TO.C,C7*%
X119022000Y-86614000D03*
X119992000Y-86614000D03*
%TD*%
D12*
%TO.C,CX1*%
X110635761Y-92602500D03*
X110635761Y-93572500D03*
%TD*%
D23*
%TO.C,U0*%
X112855761Y-85787500D03*
X114130761Y-84512500D03*
X114130761Y-85787500D03*
X112855761Y-84512500D03*
D24*
X110055761Y-82550000D03*
X110055761Y-82950000D03*
X110055761Y-83350000D03*
X110055761Y-83750000D03*
X110055761Y-84150000D03*
X110055761Y-84550000D03*
X110055761Y-84950000D03*
X110055761Y-85350000D03*
X110055761Y-85750000D03*
X110055761Y-86150000D03*
X110055761Y-86550000D03*
X110055761Y-86950000D03*
X110055761Y-87350000D03*
X110055761Y-87750000D03*
D25*
X110893261Y-88587500D03*
X111293261Y-88587500D03*
X111693261Y-88587500D03*
X112093261Y-88587500D03*
X112493261Y-88587500D03*
X112893261Y-88587500D03*
X113293261Y-88587500D03*
X113693261Y-88587500D03*
X114093261Y-88587500D03*
X114493261Y-88587500D03*
X114893261Y-88587500D03*
X115293261Y-88587500D03*
X115693261Y-88587500D03*
X116093261Y-88587500D03*
D24*
X116930761Y-87750000D03*
X116930761Y-87350000D03*
X116930761Y-86950000D03*
X116930761Y-86550000D03*
X116930761Y-86150000D03*
X116930761Y-85750000D03*
X116930761Y-85350000D03*
X116930761Y-84950000D03*
X116930761Y-84550000D03*
X116930761Y-84150000D03*
X116930761Y-83750000D03*
X116930761Y-83350000D03*
X116930761Y-82950000D03*
X116930761Y-82550000D03*
D25*
X116093261Y-81712500D03*
X115693261Y-81712500D03*
X115293261Y-81712500D03*
X114893261Y-81712500D03*
X114493261Y-81712500D03*
X114093261Y-81712500D03*
X113693261Y-81712500D03*
X113293261Y-81712500D03*
X112893261Y-81712500D03*
X112493261Y-81712500D03*
X112093261Y-81712500D03*
X111693261Y-81712500D03*
X111293261Y-81712500D03*
X110893261Y-81712500D03*
%TD*%
M02*
