%TF.GenerationSoftware,KiCad,Pcbnew,(6.0.0)*%
%TF.CreationDate,2022-07-10T02:32:02-04:00*%
%TF.ProjectId,EyesOfTomorrow,45796573-4f66-4546-9f6d-6f72726f772e,rev?*%
%TF.SameCoordinates,Original*%
%TF.FileFunction,Copper,L2,Bot*%
%TF.FilePolarity,Positive*%
%FSLAX46Y46*%
G04 Gerber Fmt 4.6, Leading zero omitted, Abs format (unit mm)*
G04 Created by KiCad (PCBNEW (6.0.0)) date 2022-07-10 02:32:02*
%MOMM*%
%LPD*%
G01*
G04 APERTURE LIST*
%TA.AperFunction,ComponentPad*%
%ADD10O,1.000000X1.600000*%
%TD*%
%TA.AperFunction,ComponentPad*%
%ADD11O,1.000000X2.100000*%
%TD*%
%TA.AperFunction,ComponentPad*%
%ADD12C,1.700000*%
%TD*%
%TA.AperFunction,ComponentPad*%
%ADD13O,1.700000X1.700000*%
%TD*%
%TA.AperFunction,ComponentPad*%
%ADD14R,1.700000X1.700000*%
%TD*%
%TA.AperFunction,ComponentPad*%
%ADD15C,0.600000*%
%TD*%
%TA.AperFunction,ViaPad*%
%ADD16C,0.600000*%
%TD*%
%TA.AperFunction,Conductor*%
%ADD17C,0.200000*%
%TD*%
%TA.AperFunction,Conductor*%
%ADD18C,0.300000*%
%TD*%
G04 APERTURE END LIST*
D10*
%TO.P,J0,S1,SHIELD*%
%TO.N,GND*%
X121092500Y-68980489D03*
X129732500Y-68980489D03*
D11*
X129732500Y-73160489D03*
X121092500Y-73160489D03*
%TD*%
D12*
%TO.P,J3,1,Pin_1*%
%TO.N,20*%
X134137400Y-93141800D03*
D13*
%TO.P,J3,2,Pin_2*%
%TO.N,21*%
X134137400Y-90601800D03*
%TO.P,J3,3,Pin_3*%
%TO.N,22*%
X134137400Y-88061800D03*
%TO.P,J3,4,Pin_4*%
%TO.N,23*%
X134137400Y-85521800D03*
%TO.P,J3,5,Pin_5*%
%TO.N,24*%
X134137400Y-82981800D03*
%TO.P,J3,6,Pin_6*%
%TO.N,25*%
X134137400Y-80441800D03*
%TO.P,J3,7,Pin_7*%
%TO.N,26{slash}A0*%
X134137400Y-77901800D03*
%TO.P,J3,8,Pin_8*%
%TO.N,27{slash}A1*%
X134137400Y-75361800D03*
%TO.P,J3,9,Pin_9*%
%TO.N,28{slash}A2*%
X134137400Y-72821800D03*
%TO.P,J3,10,Pin_10*%
%TO.N,29{slash}A3*%
X134137400Y-70281800D03*
%TD*%
D12*
%TO.P,J1,1,Pin_1*%
%TO.N,0*%
X104006250Y-70356250D03*
D13*
%TO.P,J1,2,Pin_2*%
%TO.N,1*%
X104006250Y-72896250D03*
%TO.P,J1,3,Pin_3*%
%TO.N,2*%
X104006250Y-75436250D03*
%TO.P,J1,4,Pin_4*%
%TO.N,3*%
X104006250Y-77976250D03*
%TO.P,J1,5,Pin_5*%
%TO.N,4*%
X104006250Y-80516250D03*
%TO.P,J1,6,Pin_6*%
%TO.N,5*%
X104006250Y-83056250D03*
%TO.P,J1,7,Pin_7*%
%TO.N,6*%
X104006250Y-85596250D03*
%TO.P,J1,8,Pin_8*%
%TO.N,7*%
X104006250Y-88136250D03*
%TO.P,J1,9,Pin_9*%
%TO.N,8*%
X104006250Y-90676250D03*
%TO.P,J1,10,Pin_10*%
%TO.N,9*%
X104006250Y-93216250D03*
%TD*%
D14*
%TO.P,J4,1,Pin_1*%
%TO.N,VBUS*%
X107806250Y-67443750D03*
D13*
%TO.P,J4,2,Pin_2*%
%TO.N,+3V3*%
X110346250Y-67443750D03*
%TO.P,J4,3,Pin_3*%
%TO.N,GND*%
X112886250Y-67443750D03*
%TD*%
D12*
%TO.P,J2,1,Pin_1*%
%TO.N,10*%
X107662500Y-96850200D03*
D13*
%TO.P,J2,2,Pin_2*%
%TO.N,11*%
X110202500Y-96850200D03*
%TO.P,J2,3,Pin_3*%
%TO.N,12*%
X112742500Y-96850200D03*
%TO.P,J2,4,Pin_4*%
%TO.N,13*%
X115282500Y-96850200D03*
%TO.P,J2,5,Pin_5*%
%TO.N,14*%
X117822500Y-96850200D03*
%TO.P,J2,6,Pin_6*%
%TO.N,15*%
X120362500Y-96850200D03*
%TO.P,J2,7,Pin_7*%
%TO.N,16*%
X122902500Y-96850200D03*
%TO.P,J2,8,Pin_8*%
%TO.N,17*%
X125442500Y-96850200D03*
%TO.P,J2,9,Pin_9*%
%TO.N,18*%
X127982500Y-96850200D03*
%TO.P,J2,10,Pin_10*%
%TO.N,19*%
X130522500Y-96850200D03*
%TD*%
D15*
%TO.P,U0,57,GND*%
%TO.N,GND*%
X113493261Y-85150000D03*
%TD*%
D16*
%TO.N,GND*%
X106680000Y-69596000D03*
X105791000Y-86995000D03*
X110127761Y-76196500D03*
X119062500Y-74612500D03*
X105537000Y-74168000D03*
X123952000Y-94996000D03*
X117297200Y-81127600D03*
X112776000Y-77431000D03*
X118831300Y-78536800D03*
X123240800Y-78943200D03*
X105537000Y-76708000D03*
X108407200Y-80695800D03*
X119735600Y-82296000D03*
X105537000Y-71628000D03*
X119049800Y-93345000D03*
X120030300Y-78516561D03*
X129667000Y-83439000D03*
X131572000Y-84328000D03*
X116681250Y-91281250D03*
X115334761Y-68053239D03*
X108743750Y-92868750D03*
X130556000Y-93218000D03*
X122237500Y-76200000D03*
X115366800Y-84404200D03*
X127793750Y-79375000D03*
X120904000Y-86614000D03*
X105664000Y-93345000D03*
%TO.N,+3V3*%
X110898187Y-86108209D03*
X119430800Y-79146400D03*
X116096761Y-82546500D03*
X113937761Y-82725989D03*
X116118868Y-86149058D03*
X113493761Y-87671511D03*
X110933314Y-82651407D03*
X119684800Y-90957400D03*
X122910600Y-80848200D03*
%TO.N,VBUS*%
X120726200Y-80391000D03*
%TO.N,DR+*%
X118186200Y-77117558D03*
X124917200Y-82245200D03*
%TO.N,DR-*%
X118186200Y-77917061D03*
X125716064Y-82213245D03*
%TO.N,13*%
X110185200Y-90957400D03*
%TO.N,14*%
X111048800Y-90957400D03*
%TO.N,15*%
X111861600Y-91008200D03*
%TO.N,29{slash}A3*%
X118668800Y-82750500D03*
X126492000Y-82982380D03*
%TD*%
D17*
%TO.N,GND*%
X112776000Y-77431000D02*
X111362261Y-77431000D01*
D18*
X115366800Y-82357913D02*
X116597113Y-81127600D01*
D17*
X123510111Y-79212511D02*
X123510111Y-81975889D01*
X123510111Y-81975889D02*
X123190000Y-82296000D01*
X123190000Y-82296000D02*
X119735600Y-82296000D01*
X123240800Y-78943200D02*
X122834400Y-78536800D01*
X111362261Y-77431000D02*
X110127761Y-76196500D01*
X122834400Y-78536800D02*
X118831300Y-78536800D01*
X123240800Y-78943200D02*
X123510111Y-79212511D01*
D18*
X115366800Y-84404200D02*
X115366800Y-82357913D01*
X116597113Y-81127600D02*
X117297200Y-81127600D01*
D17*
%TO.N,+3V3*%
X111188772Y-87671511D02*
X110898187Y-87380926D01*
X110898187Y-82686534D02*
X110898187Y-86108209D01*
X110933314Y-82651407D02*
X110898187Y-82686534D01*
X113493761Y-87671511D02*
X115924750Y-87671511D01*
X116118868Y-82568607D02*
X116096761Y-82546500D01*
X111007896Y-82725989D02*
X110933314Y-82651407D01*
X116204793Y-87477393D02*
X116118868Y-87477393D01*
D18*
X122910600Y-80848200D02*
X121803889Y-79741489D01*
X121803889Y-79741489D02*
X120025889Y-79741489D01*
X120025889Y-79741489D02*
X119430800Y-79146400D01*
D17*
X113937761Y-82725989D02*
X111007896Y-82725989D01*
X116118868Y-87477393D02*
X116118868Y-86149058D01*
X110898187Y-87380926D02*
X110898187Y-86108209D01*
X116118868Y-86149058D02*
X116118868Y-82568607D01*
X115924750Y-87671511D02*
X116118868Y-87477393D01*
X119684800Y-90957400D02*
X116204793Y-87477393D01*
X113493761Y-87671511D02*
X111188772Y-87671511D01*
D18*
%TO.N,VBUS*%
X119741591Y-80391000D02*
X117536689Y-78186098D01*
X117536689Y-78186098D02*
X117536689Y-72836311D01*
X114474178Y-69773800D02*
X109321600Y-69773800D01*
X109321600Y-69773800D02*
X107806250Y-68258450D01*
X107806250Y-68258450D02*
X107806250Y-67618770D01*
X117536689Y-72836311D02*
X114474178Y-69773800D01*
X120726200Y-80391000D02*
X119741591Y-80391000D01*
D17*
%TO.N,DR+*%
X124183758Y-77117558D02*
X118186200Y-77117558D01*
X124736225Y-77670025D02*
X124917200Y-77851000D01*
X124917200Y-77851000D02*
X124917200Y-82245200D01*
X124736225Y-77670025D02*
X124183758Y-77117558D01*
%TO.N,DR-*%
X124317689Y-82493527D02*
X124668873Y-82844711D01*
X124018273Y-77917061D02*
X124317689Y-78216477D01*
X118186200Y-77917061D02*
X124018273Y-77917061D01*
X125716064Y-82294174D02*
X125716064Y-82213245D01*
X125165527Y-82844711D02*
X125716064Y-82294174D01*
X124317689Y-78216477D02*
X124317689Y-82493527D01*
X124668873Y-82844711D02*
X125165527Y-82844711D01*
%TO.N,13*%
X115282500Y-96737480D02*
X114208009Y-95662989D01*
X114208009Y-95662989D02*
X110953789Y-95662989D01*
X110953789Y-95662989D02*
X110185200Y-94894400D01*
X110185200Y-94894400D02*
X110185200Y-90957400D01*
%TO.N,14*%
X116748009Y-95662989D02*
X114773015Y-95662989D01*
X111119275Y-95263469D02*
X110584720Y-94728914D01*
X114373495Y-95263469D02*
X111119275Y-95263469D01*
X110584720Y-91421480D02*
X111048800Y-90957400D01*
X117822500Y-96737480D02*
X116748009Y-95662989D01*
X110584720Y-94728914D02*
X110584720Y-91421480D01*
X114773015Y-95662989D02*
X114373495Y-95263469D01*
%TO.N,15*%
X111861600Y-91008200D02*
X110984240Y-91885560D01*
X117306426Y-95656400D02*
X119281420Y-95656400D01*
X114938501Y-95263469D02*
X116913495Y-95263469D01*
X119281420Y-95656400D02*
X120362500Y-96737480D01*
X110984240Y-94563428D02*
X111283606Y-94862794D01*
X116913495Y-95263469D02*
X117306426Y-95656400D01*
X114537826Y-94862794D02*
X114938501Y-95263469D01*
X110984240Y-91885560D02*
X110984240Y-94563428D01*
X111283606Y-94862794D02*
X114537826Y-94862794D01*
%TO.N,29{slash}A3*%
X119179500Y-83261200D02*
X126213180Y-83261200D01*
X118668800Y-82750500D02*
X119179500Y-83261200D01*
X126213180Y-83261200D02*
X126492000Y-82982380D01*
%TD*%
%TA.AperFunction,Conductor*%
%TO.N,GND*%
G36*
X106389871Y-67996752D02*
G01*
X106436364Y-68050408D01*
X106447750Y-68102750D01*
X106447750Y-68341884D01*
X106454505Y-68404066D01*
X106505635Y-68540455D01*
X106592989Y-68657011D01*
X106709545Y-68744365D01*
X106845934Y-68795495D01*
X106908116Y-68802250D01*
X107366600Y-68802250D01*
X107434721Y-68822252D01*
X107455695Y-68839155D01*
X108797945Y-70181405D01*
X108805935Y-70190185D01*
X108810184Y-70196880D01*
X108815962Y-70202306D01*
X108815963Y-70202307D01*
X108861857Y-70245404D01*
X108864699Y-70248159D01*
X108885267Y-70268727D01*
X108888770Y-70271444D01*
X108897795Y-70279152D01*
X108931467Y-70310772D01*
X108938418Y-70314593D01*
X108938419Y-70314594D01*
X108950258Y-70321103D01*
X108966782Y-70331957D01*
X108976871Y-70339782D01*
X108983732Y-70345104D01*
X108991004Y-70348251D01*
X108991006Y-70348252D01*
X109026135Y-70363454D01*
X109036796Y-70368676D01*
X109077263Y-70390924D01*
X109098041Y-70396259D01*
X109116731Y-70402658D01*
X109136424Y-70411180D01*
X109144247Y-70412419D01*
X109144250Y-70412420D01*
X109182057Y-70418408D01*
X109193679Y-70420815D01*
X109230733Y-70430329D01*
X109230737Y-70430330D01*
X109238412Y-70432300D01*
X109259853Y-70432300D01*
X109279562Y-70433851D01*
X109300752Y-70437207D01*
X109308644Y-70436461D01*
X109346748Y-70432859D01*
X109358606Y-70432300D01*
X114149228Y-70432300D01*
X114217349Y-70452302D01*
X114238323Y-70469205D01*
X116841284Y-73072166D01*
X116875310Y-73134478D01*
X116878189Y-73161261D01*
X116878189Y-78104042D01*
X116877630Y-78115898D01*
X116875901Y-78123635D01*
X116878127Y-78194467D01*
X116878189Y-78198425D01*
X116878189Y-78227530D01*
X116878745Y-78231930D01*
X116879677Y-78243762D01*
X116881127Y-78289929D01*
X116886796Y-78309439D01*
X116887108Y-78310514D01*
X116891119Y-78329880D01*
X116893807Y-78351162D01*
X116896723Y-78358527D01*
X116896724Y-78358531D01*
X116910815Y-78394119D01*
X116914654Y-78405329D01*
X116927544Y-78449698D01*
X116938464Y-78468163D01*
X116947155Y-78485903D01*
X116955054Y-78505854D01*
X116982205Y-78543224D01*
X116988722Y-78553146D01*
X117008196Y-78586075D01*
X117008199Y-78586079D01*
X117012236Y-78592905D01*
X117027400Y-78608069D01*
X117040240Y-78623102D01*
X117052848Y-78640455D01*
X117088441Y-78669900D01*
X117097221Y-78677890D01*
X119217932Y-80798600D01*
X119225922Y-80807381D01*
X119225930Y-80807390D01*
X119230175Y-80814080D01*
X119235950Y-80819503D01*
X119281865Y-80862620D01*
X119284707Y-80865375D01*
X119305258Y-80885926D01*
X119308392Y-80888357D01*
X119308754Y-80888638D01*
X119317782Y-80896348D01*
X119351458Y-80927972D01*
X119358409Y-80931793D01*
X119358410Y-80931794D01*
X119370246Y-80938301D01*
X119386775Y-80949158D01*
X119397460Y-80957447D01*
X119397462Y-80957448D01*
X119403722Y-80962304D01*
X119446135Y-80980657D01*
X119456772Y-80985868D01*
X119497254Y-81008124D01*
X119504933Y-81010096D01*
X119504934Y-81010096D01*
X119518025Y-81013457D01*
X119536727Y-81019859D01*
X119556414Y-81028379D01*
X119564243Y-81029619D01*
X119602039Y-81035605D01*
X119613665Y-81038013D01*
X119650726Y-81047529D01*
X119650727Y-81047529D01*
X119658403Y-81049500D01*
X119679849Y-81049500D01*
X119699559Y-81051051D01*
X119720742Y-81054406D01*
X119766726Y-81050059D01*
X119778585Y-81049500D01*
X120218307Y-81049500D01*
X120287300Y-81070068D01*
X120359359Y-81117222D01*
X120365963Y-81119678D01*
X120365965Y-81119679D01*
X120522758Y-81177990D01*
X120522760Y-81177990D01*
X120529368Y-81180448D01*
X120613195Y-81191633D01*
X120702180Y-81203507D01*
X120702184Y-81203507D01*
X120709161Y-81204438D01*
X120716172Y-81203800D01*
X120716176Y-81203800D01*
X120873593Y-81189473D01*
X120889800Y-81187998D01*
X120896502Y-81185820D01*
X120896504Y-81185820D01*
X121055609Y-81134124D01*
X121055612Y-81134123D01*
X121062308Y-81131947D01*
X121166111Y-81070068D01*
X121212060Y-81042677D01*
X121212062Y-81042676D01*
X121218112Y-81039069D01*
X121349466Y-80913982D01*
X121449843Y-80762902D01*
X121502965Y-80623059D01*
X121545854Y-80566481D01*
X121612523Y-80542072D01*
X121681804Y-80557582D01*
X121709848Y-80578708D01*
X122080283Y-80949143D01*
X122114198Y-81011603D01*
X122114763Y-81017360D01*
X122172018Y-81189473D01*
X122175665Y-81195495D01*
X122175666Y-81195497D01*
X122251878Y-81321338D01*
X122265980Y-81344624D01*
X122391982Y-81475102D01*
X122415036Y-81490188D01*
X122519324Y-81558432D01*
X122543759Y-81574422D01*
X122550363Y-81576878D01*
X122550365Y-81576879D01*
X122707158Y-81635190D01*
X122707160Y-81635190D01*
X122713768Y-81637648D01*
X122797595Y-81648833D01*
X122886580Y-81660707D01*
X122886584Y-81660707D01*
X122893561Y-81661638D01*
X122900572Y-81661000D01*
X122900576Y-81661000D01*
X123043059Y-81648032D01*
X123074200Y-81645198D01*
X123080902Y-81643020D01*
X123080904Y-81643020D01*
X123240009Y-81591324D01*
X123240012Y-81591323D01*
X123246708Y-81589147D01*
X123402512Y-81496269D01*
X123447991Y-81452960D01*
X123496297Y-81406959D01*
X123559422Y-81374467D01*
X123630093Y-81381260D01*
X123685872Y-81425183D01*
X123709189Y-81498205D01*
X123709189Y-82445391D01*
X123708111Y-82461834D01*
X123703939Y-82493527D01*
X123705017Y-82501716D01*
X123705017Y-82501717D01*
X123706141Y-82510256D01*
X123695201Y-82580404D01*
X123648072Y-82633502D01*
X123581219Y-82652700D01*
X119580454Y-82652700D01*
X119512333Y-82632698D01*
X119465840Y-82579042D01*
X119461463Y-82568137D01*
X119404864Y-82405606D01*
X119404862Y-82405603D01*
X119402545Y-82398948D01*
X119306426Y-82245124D01*
X119288018Y-82226587D01*
X119183578Y-82121415D01*
X119183574Y-82121412D01*
X119178615Y-82116418D01*
X119167497Y-82109362D01*
X119109892Y-82072805D01*
X119025466Y-82019227D01*
X118953219Y-81993501D01*
X118861225Y-81960743D01*
X118861220Y-81960742D01*
X118854590Y-81958381D01*
X118847602Y-81957548D01*
X118847599Y-81957547D01*
X118724498Y-81942868D01*
X118674480Y-81936904D01*
X118667477Y-81937640D01*
X118667476Y-81937640D01*
X118501088Y-81955128D01*
X118501086Y-81955129D01*
X118494088Y-81955864D01*
X118322379Y-82014318D01*
X118286929Y-82036127D01*
X118173895Y-82105666D01*
X118173892Y-82105668D01*
X118167888Y-82109362D01*
X118162853Y-82114293D01*
X118162850Y-82114295D01*
X118043325Y-82231343D01*
X118038293Y-82236271D01*
X117940035Y-82388738D01*
X117937626Y-82395358D01*
X117937624Y-82395361D01*
X117886749Y-82535140D01*
X117877997Y-82559185D01*
X117855263Y-82739140D01*
X117872963Y-82919660D01*
X117930218Y-83091773D01*
X117933865Y-83097795D01*
X117933866Y-83097797D01*
X117982285Y-83177746D01*
X118024180Y-83246924D01*
X118150182Y-83377402D01*
X118226070Y-83427062D01*
X118258607Y-83448353D01*
X118301959Y-83476722D01*
X118308563Y-83479178D01*
X118308565Y-83479179D01*
X118465358Y-83537490D01*
X118465360Y-83537490D01*
X118471968Y-83539948D01*
X118478953Y-83540880D01*
X118478957Y-83540881D01*
X118541347Y-83549206D01*
X118574786Y-83553667D01*
X118639662Y-83582503D01*
X118647216Y-83589465D01*
X118715185Y-83657434D01*
X118726052Y-83669825D01*
X118745513Y-83695187D01*
X118752063Y-83700213D01*
X118777421Y-83719671D01*
X118777437Y-83719685D01*
X118826805Y-83757566D01*
X118872624Y-83792724D01*
X119020649Y-83854038D01*
X119028836Y-83855116D01*
X119028837Y-83855116D01*
X119040042Y-83856591D01*
X119071238Y-83860698D01*
X119139615Y-83869700D01*
X119139618Y-83869700D01*
X119139626Y-83869701D01*
X119171311Y-83873872D01*
X119179500Y-83874950D01*
X119211193Y-83870778D01*
X119227636Y-83869700D01*
X126165044Y-83869700D01*
X126181487Y-83870778D01*
X126213180Y-83874950D01*
X126221369Y-83873872D01*
X126253054Y-83869701D01*
X126253064Y-83869700D01*
X126253065Y-83869700D01*
X126253081Y-83869698D01*
X126352637Y-83856591D01*
X126363844Y-83855116D01*
X126363846Y-83855115D01*
X126372031Y-83854038D01*
X126505474Y-83798764D01*
X126542272Y-83789692D01*
X126655600Y-83779378D01*
X126662302Y-83777200D01*
X126662304Y-83777200D01*
X126821409Y-83725504D01*
X126821412Y-83725503D01*
X126828108Y-83723327D01*
X126983912Y-83630449D01*
X127115266Y-83505362D01*
X127215643Y-83354282D01*
X127280055Y-83184718D01*
X127288285Y-83126158D01*
X127304748Y-83009019D01*
X127304748Y-83009016D01*
X127305299Y-83005097D01*
X127305616Y-82982380D01*
X127285397Y-82802125D01*
X127283080Y-82795471D01*
X127228064Y-82637486D01*
X127228062Y-82637483D01*
X127225745Y-82630828D01*
X127214108Y-82612204D01*
X127133359Y-82482978D01*
X127129626Y-82477004D01*
X127119773Y-82467082D01*
X127006778Y-82353295D01*
X127006774Y-82353292D01*
X127001815Y-82348298D01*
X126848666Y-82251107D01*
X126779806Y-82226587D01*
X126684425Y-82192623D01*
X126684420Y-82192622D01*
X126677790Y-82190261D01*
X126670802Y-82189428D01*
X126670799Y-82189427D01*
X126646125Y-82186485D01*
X126624223Y-82183874D01*
X126558951Y-82155947D01*
X126519137Y-82097164D01*
X126513927Y-82072805D01*
X126510246Y-82039989D01*
X126509461Y-82032990D01*
X126496133Y-81994716D01*
X126452128Y-81868351D01*
X126452126Y-81868348D01*
X126449809Y-81861693D01*
X126424898Y-81821827D01*
X126357423Y-81713843D01*
X126353690Y-81707869D01*
X126331138Y-81685159D01*
X126230842Y-81584160D01*
X126230838Y-81584157D01*
X126225879Y-81579163D01*
X126218409Y-81574422D01*
X126166602Y-81541545D01*
X126072730Y-81481972D01*
X126039204Y-81470034D01*
X125908489Y-81423488D01*
X125908484Y-81423487D01*
X125901854Y-81421126D01*
X125894866Y-81420293D01*
X125894863Y-81420292D01*
X125771762Y-81405613D01*
X125721744Y-81399649D01*
X125714741Y-81400385D01*
X125714740Y-81400385D01*
X125700922Y-81401838D01*
X125664870Y-81405627D01*
X125595033Y-81392855D01*
X125543186Y-81344354D01*
X125525700Y-81280317D01*
X125525700Y-77899136D01*
X125526778Y-77882690D01*
X125528647Y-77868495D01*
X125530950Y-77851000D01*
X125525700Y-77811122D01*
X125525700Y-77811115D01*
X125510038Y-77692150D01*
X125448724Y-77544125D01*
X125388060Y-77465066D01*
X125375677Y-77448928D01*
X125375674Y-77448925D01*
X125351187Y-77417013D01*
X125344632Y-77411983D01*
X125325821Y-77397548D01*
X125313430Y-77386681D01*
X124648073Y-76721324D01*
X124637206Y-76708933D01*
X124622771Y-76690121D01*
X124617745Y-76683571D01*
X124585833Y-76659084D01*
X124585830Y-76659081D01*
X124564478Y-76642697D01*
X124497187Y-76591062D01*
X124497185Y-76591061D01*
X124490634Y-76586034D01*
X124342609Y-76524720D01*
X124334422Y-76523642D01*
X124334421Y-76523642D01*
X124323216Y-76522167D01*
X124292020Y-76518060D01*
X124223643Y-76509058D01*
X124223640Y-76509058D01*
X124223632Y-76509057D01*
X124191947Y-76504886D01*
X124183758Y-76503808D01*
X124152065Y-76507980D01*
X124135622Y-76509058D01*
X118770951Y-76509058D01*
X118702830Y-76489056D01*
X118698357Y-76485834D01*
X118696015Y-76483476D01*
X118542866Y-76386285D01*
X118513663Y-76375886D01*
X118378625Y-76327801D01*
X118378620Y-76327800D01*
X118371990Y-76325439D01*
X118324188Y-76319739D01*
X118306269Y-76317602D01*
X118240996Y-76289674D01*
X118201184Y-76230891D01*
X118195189Y-76192488D01*
X118195189Y-73757146D01*
X120084500Y-73757146D01*
X120084801Y-73763294D01*
X120098312Y-73901092D01*
X120100695Y-73913127D01*
X120154267Y-74090565D01*
X120158941Y-74101905D01*
X120245960Y-74265566D01*
X120252749Y-74275783D01*
X120369897Y-74419422D01*
X120378541Y-74428126D01*
X120521356Y-74546273D01*
X120531527Y-74553133D01*
X120694576Y-74641293D01*
X120705881Y-74646045D01*
X120821192Y-74681739D01*
X120835295Y-74681945D01*
X120838500Y-74675190D01*
X120838500Y-74668413D01*
X121346500Y-74668413D01*
X121350473Y-74681944D01*
X121358268Y-74683064D01*
X121466021Y-74651351D01*
X121477389Y-74646758D01*
X121641654Y-74560882D01*
X121651915Y-74554168D01*
X121796373Y-74438021D01*
X121805132Y-74429443D01*
X121924278Y-74287450D01*
X121931208Y-74277330D01*
X122020502Y-74114904D01*
X122025334Y-74103631D01*
X122081380Y-73926951D01*
X122083930Y-73914957D01*
X122100107Y-73770728D01*
X122100500Y-73763704D01*
X122100500Y-73547515D01*
X122120502Y-73479394D01*
X122174158Y-73432901D01*
X122244432Y-73422797D01*
X122253986Y-73424550D01*
X122423994Y-73462551D01*
X122424001Y-73462552D01*
X122429043Y-73463679D01*
X122434588Y-73463989D01*
X122567744Y-73463989D01*
X122702537Y-73449346D01*
X122841133Y-73402703D01*
X122867704Y-73393761D01*
X122867706Y-73393760D01*
X122874175Y-73391583D01*
X123029405Y-73298312D01*
X123034362Y-73293624D01*
X123034365Y-73293622D01*
X123156027Y-73178571D01*
X123156029Y-73178569D01*
X123160985Y-73173882D01*
X123164817Y-73168244D01*
X123164820Y-73168240D01*
X123258942Y-73029744D01*
X123262777Y-73024101D01*
X123330030Y-72855955D01*
X123331144Y-72849227D01*
X123331145Y-72849223D01*
X123358493Y-72684028D01*
X123358493Y-72684025D01*
X123359608Y-72677291D01*
X123359153Y-72668592D01*
X123354703Y-72583687D01*
X127465392Y-72583687D01*
X127465749Y-72590504D01*
X127465749Y-72590508D01*
X127472110Y-72711882D01*
X127474870Y-72764536D01*
X127476681Y-72771109D01*
X127476681Y-72771112D01*
X127508985Y-72888390D01*
X127522961Y-72939130D01*
X127607422Y-73099325D01*
X127611827Y-73104538D01*
X127611830Y-73104542D01*
X127719906Y-73232432D01*
X127719910Y-73232436D01*
X127724313Y-73237646D01*
X127729737Y-73241793D01*
X127729738Y-73241794D01*
X127862757Y-73343495D01*
X127862761Y-73343498D01*
X127868178Y-73347639D01*
X127954872Y-73388065D01*
X128026131Y-73421294D01*
X128026134Y-73421295D01*
X128032308Y-73424174D01*
X128038956Y-73425660D01*
X128038959Y-73425661D01*
X128135186Y-73447170D01*
X128209043Y-73463679D01*
X128214588Y-73463989D01*
X128347744Y-73463989D01*
X128482537Y-73449346D01*
X128489001Y-73447171D01*
X128489004Y-73447170D01*
X128556216Y-73424550D01*
X128558311Y-73423845D01*
X128629253Y-73421075D01*
X128690432Y-73457098D01*
X128722423Y-73520479D01*
X128724500Y-73543264D01*
X128724500Y-73757146D01*
X128724801Y-73763294D01*
X128738312Y-73901092D01*
X128740695Y-73913127D01*
X128794267Y-74090565D01*
X128798941Y-74101905D01*
X128885960Y-74265566D01*
X128892749Y-74275783D01*
X129009897Y-74419422D01*
X129018541Y-74428126D01*
X129161356Y-74546273D01*
X129171527Y-74553133D01*
X129334576Y-74641293D01*
X129345881Y-74646045D01*
X129461192Y-74681739D01*
X129475295Y-74681945D01*
X129478500Y-74675190D01*
X129478500Y-74668413D01*
X129986500Y-74668413D01*
X129990473Y-74681944D01*
X129998268Y-74683064D01*
X130106021Y-74651351D01*
X130117389Y-74646758D01*
X130281654Y-74560882D01*
X130291915Y-74554168D01*
X130436373Y-74438021D01*
X130445132Y-74429443D01*
X130564278Y-74287450D01*
X130571208Y-74277330D01*
X130660502Y-74114904D01*
X130665334Y-74103631D01*
X130721380Y-73926951D01*
X130723930Y-73914957D01*
X130740107Y-73770728D01*
X130740500Y-73763704D01*
X130740500Y-73432604D01*
X130736025Y-73417365D01*
X130734635Y-73416160D01*
X130726952Y-73414489D01*
X130004615Y-73414489D01*
X129989376Y-73418964D01*
X129988171Y-73420354D01*
X129986500Y-73428037D01*
X129986500Y-74668413D01*
X129478500Y-74668413D01*
X129478500Y-72888374D01*
X129986500Y-72888374D01*
X129990975Y-72903613D01*
X129992365Y-72904818D01*
X130000048Y-72906489D01*
X130722385Y-72906489D01*
X130737624Y-72902014D01*
X130738829Y-72900624D01*
X130740500Y-72892941D01*
X130740500Y-72563832D01*
X130740199Y-72557684D01*
X130726688Y-72419886D01*
X130724305Y-72407851D01*
X130670733Y-72230413D01*
X130666059Y-72219073D01*
X130579040Y-72055412D01*
X130572251Y-72045195D01*
X130455103Y-71901556D01*
X130446459Y-71892852D01*
X130303644Y-71774705D01*
X130293473Y-71767845D01*
X130130424Y-71679685D01*
X130119119Y-71674933D01*
X130003808Y-71639239D01*
X129989705Y-71639033D01*
X129986500Y-71645788D01*
X129986500Y-72888374D01*
X129478500Y-72888374D01*
X129478500Y-71652565D01*
X129474527Y-71639034D01*
X129466732Y-71637914D01*
X129358979Y-71669627D01*
X129347611Y-71674220D01*
X129183346Y-71760096D01*
X129173085Y-71766810D01*
X129028627Y-71882957D01*
X129019868Y-71891535D01*
X128975500Y-71944410D01*
X128916390Y-71983737D01*
X128845402Y-71984863D01*
X128802452Y-71963517D01*
X128736822Y-71913339D01*
X128631686Y-71864314D01*
X128578869Y-71839684D01*
X128578866Y-71839683D01*
X128572692Y-71836804D01*
X128566044Y-71835318D01*
X128566041Y-71835317D01*
X128400994Y-71798425D01*
X128400995Y-71798425D01*
X128395957Y-71797299D01*
X128390412Y-71796989D01*
X128257256Y-71796989D01*
X128122463Y-71811632D01*
X128039109Y-71839684D01*
X127957296Y-71867217D01*
X127957294Y-71867218D01*
X127950825Y-71869395D01*
X127795595Y-71962666D01*
X127790638Y-71967354D01*
X127790635Y-71967356D01*
X127683291Y-72068867D01*
X127664015Y-72087096D01*
X127660183Y-72092734D01*
X127660180Y-72092738D01*
X127609240Y-72167694D01*
X127562223Y-72236877D01*
X127494970Y-72405023D01*
X127493856Y-72411751D01*
X127493855Y-72411755D01*
X127468679Y-72563832D01*
X127465392Y-72583687D01*
X123354703Y-72583687D01*
X123350487Y-72503255D01*
X123350130Y-72496442D01*
X123344053Y-72474377D01*
X123303852Y-72328430D01*
X123302039Y-72321848D01*
X123217578Y-72161653D01*
X123213173Y-72156440D01*
X123213170Y-72156436D01*
X123105094Y-72028546D01*
X123105090Y-72028542D01*
X123100687Y-72023332D01*
X123095262Y-72019184D01*
X122962243Y-71917483D01*
X122962239Y-71917480D01*
X122956822Y-71913339D01*
X122851686Y-71864314D01*
X122798869Y-71839684D01*
X122798866Y-71839683D01*
X122792692Y-71836804D01*
X122786044Y-71835318D01*
X122786041Y-71835317D01*
X122620994Y-71798425D01*
X122620995Y-71798425D01*
X122615957Y-71797299D01*
X122610412Y-71796989D01*
X122477256Y-71796989D01*
X122342463Y-71811632D01*
X122259109Y-71839684D01*
X122177296Y-71867217D01*
X122177294Y-71867218D01*
X122170825Y-71869395D01*
X122018849Y-71960711D01*
X122018846Y-71960712D01*
X122015595Y-71962666D01*
X122015245Y-71962083D01*
X121953583Y-71985554D01*
X121884109Y-71970928D01*
X121846109Y-71939574D01*
X121815103Y-71901556D01*
X121806459Y-71892852D01*
X121663644Y-71774705D01*
X121653473Y-71767845D01*
X121490424Y-71679685D01*
X121479119Y-71674933D01*
X121363808Y-71639239D01*
X121349705Y-71639033D01*
X121346500Y-71645788D01*
X121346500Y-74668413D01*
X120838500Y-74668413D01*
X120838500Y-73432604D01*
X120834025Y-73417365D01*
X120832635Y-73416160D01*
X120824952Y-73414489D01*
X120102615Y-73414489D01*
X120087376Y-73418964D01*
X120086171Y-73420354D01*
X120084500Y-73428037D01*
X120084500Y-73757146D01*
X118195189Y-73757146D01*
X118195189Y-72918371D01*
X118195748Y-72906514D01*
X118197478Y-72898774D01*
X118197151Y-72888374D01*
X120084500Y-72888374D01*
X120088975Y-72903613D01*
X120090365Y-72904818D01*
X120098048Y-72906489D01*
X120820385Y-72906489D01*
X120835624Y-72902014D01*
X120836829Y-72900624D01*
X120838500Y-72892941D01*
X120838500Y-71652565D01*
X120834527Y-71639034D01*
X120826732Y-71637914D01*
X120718979Y-71669627D01*
X120707611Y-71674220D01*
X120543346Y-71760096D01*
X120533085Y-71766810D01*
X120388627Y-71882957D01*
X120379868Y-71891535D01*
X120260722Y-72033528D01*
X120253792Y-72043648D01*
X120164498Y-72206074D01*
X120159666Y-72217347D01*
X120103620Y-72394027D01*
X120101070Y-72406021D01*
X120084893Y-72550250D01*
X120084500Y-72557274D01*
X120084500Y-72888374D01*
X118197151Y-72888374D01*
X118195251Y-72827910D01*
X118195189Y-72823952D01*
X118195189Y-72794879D01*
X118194636Y-72790500D01*
X118193703Y-72778657D01*
X118193260Y-72764536D01*
X118192252Y-72732480D01*
X118186268Y-72711882D01*
X118182260Y-72692529D01*
X118181821Y-72689054D01*
X118179571Y-72671247D01*
X118162564Y-72628293D01*
X118158718Y-72617058D01*
X118148047Y-72580327D01*
X118148046Y-72580324D01*
X118145834Y-72572711D01*
X118134914Y-72554246D01*
X118126223Y-72536506D01*
X118118324Y-72516555D01*
X118091171Y-72479182D01*
X118084656Y-72469263D01*
X118065182Y-72436334D01*
X118065179Y-72436330D01*
X118061142Y-72429504D01*
X118045978Y-72414340D01*
X118033137Y-72399306D01*
X118025190Y-72388368D01*
X118020530Y-72381954D01*
X117984936Y-72352508D01*
X117976157Y-72344519D01*
X114997833Y-69366195D01*
X114989843Y-69357415D01*
X114989841Y-69357413D01*
X114985594Y-69350720D01*
X114960490Y-69327146D01*
X120084500Y-69327146D01*
X120084801Y-69333294D01*
X120098312Y-69471092D01*
X120100695Y-69483127D01*
X120154267Y-69660565D01*
X120158941Y-69671905D01*
X120245960Y-69835566D01*
X120252749Y-69845783D01*
X120369897Y-69989422D01*
X120378541Y-69998126D01*
X120521356Y-70116273D01*
X120531527Y-70123133D01*
X120694576Y-70211293D01*
X120705881Y-70216045D01*
X120821192Y-70251739D01*
X120835295Y-70251945D01*
X120838500Y-70245190D01*
X120838500Y-70238413D01*
X121346500Y-70238413D01*
X121350473Y-70251944D01*
X121358268Y-70253064D01*
X121466021Y-70221351D01*
X121477389Y-70216758D01*
X121641654Y-70130882D01*
X121651915Y-70124168D01*
X121796373Y-70008021D01*
X121805132Y-69999443D01*
X121924278Y-69857450D01*
X121931208Y-69847330D01*
X122020502Y-69684904D01*
X122025334Y-69673631D01*
X122081380Y-69496951D01*
X122083930Y-69484957D01*
X122100107Y-69340728D01*
X122100500Y-69333704D01*
X122100500Y-69327146D01*
X128724500Y-69327146D01*
X128724801Y-69333294D01*
X128738312Y-69471092D01*
X128740695Y-69483127D01*
X128794267Y-69660565D01*
X128798941Y-69671905D01*
X128885960Y-69835566D01*
X128892749Y-69845783D01*
X129009897Y-69989422D01*
X129018541Y-69998126D01*
X129161356Y-70116273D01*
X129171527Y-70123133D01*
X129334576Y-70211293D01*
X129345881Y-70216045D01*
X129461192Y-70251739D01*
X129475295Y-70251945D01*
X129478500Y-70245190D01*
X129478500Y-70238413D01*
X129986500Y-70238413D01*
X129990473Y-70251944D01*
X129998268Y-70253064D01*
X130106021Y-70221351D01*
X130117389Y-70216758D01*
X130281654Y-70130882D01*
X130291915Y-70124168D01*
X130436373Y-70008021D01*
X130445132Y-69999443D01*
X130564278Y-69857450D01*
X130571208Y-69847330D01*
X130660502Y-69684904D01*
X130665334Y-69673631D01*
X130721380Y-69496951D01*
X130723930Y-69484957D01*
X130740107Y-69340728D01*
X130740500Y-69333704D01*
X130740500Y-69252604D01*
X130736025Y-69237365D01*
X130734635Y-69236160D01*
X130726952Y-69234489D01*
X130004615Y-69234489D01*
X129989376Y-69238964D01*
X129988171Y-69240354D01*
X129986500Y-69248037D01*
X129986500Y-70238413D01*
X129478500Y-70238413D01*
X129478500Y-69252604D01*
X129474025Y-69237365D01*
X129472635Y-69236160D01*
X129464952Y-69234489D01*
X128742615Y-69234489D01*
X128727376Y-69238964D01*
X128726171Y-69240354D01*
X128724500Y-69248037D01*
X128724500Y-69327146D01*
X122100500Y-69327146D01*
X122100500Y-69252604D01*
X122096025Y-69237365D01*
X122094635Y-69236160D01*
X122086952Y-69234489D01*
X121364615Y-69234489D01*
X121349376Y-69238964D01*
X121348171Y-69240354D01*
X121346500Y-69248037D01*
X121346500Y-70238413D01*
X120838500Y-70238413D01*
X120838500Y-69252604D01*
X120834025Y-69237365D01*
X120832635Y-69236160D01*
X120824952Y-69234489D01*
X120102615Y-69234489D01*
X120087376Y-69238964D01*
X120086171Y-69240354D01*
X120084500Y-69248037D01*
X120084500Y-69327146D01*
X114960490Y-69327146D01*
X114933920Y-69302195D01*
X114931079Y-69299441D01*
X114910511Y-69278873D01*
X114907004Y-69276153D01*
X114897982Y-69268447D01*
X114864311Y-69236828D01*
X114857359Y-69233006D01*
X114845520Y-69226497D01*
X114828996Y-69215643D01*
X114818310Y-69207355D01*
X114812046Y-69202496D01*
X114804774Y-69199349D01*
X114804772Y-69199348D01*
X114769643Y-69184146D01*
X114758983Y-69178924D01*
X114725462Y-69160495D01*
X114725460Y-69160494D01*
X114718515Y-69156676D01*
X114697737Y-69151341D01*
X114679047Y-69144942D01*
X114659354Y-69136420D01*
X114613730Y-69129194D01*
X114602107Y-69126787D01*
X114574106Y-69119598D01*
X114557366Y-69115300D01*
X114535919Y-69115300D01*
X114516209Y-69113749D01*
X114510773Y-69112888D01*
X114495026Y-69110394D01*
X114449037Y-69114741D01*
X114437182Y-69115300D01*
X109646550Y-69115300D01*
X109578429Y-69095298D01*
X109557455Y-69078395D01*
X109140411Y-68661351D01*
X109106385Y-68599039D01*
X109111524Y-68528026D01*
X109119231Y-68507470D01*
X109135517Y-68464027D01*
X109150848Y-68423132D01*
X109193490Y-68366367D01*
X109260052Y-68341668D01*
X109329401Y-68356876D01*
X109364067Y-68384864D01*
X109392500Y-68417688D01*
X109564376Y-68560382D01*
X109757250Y-68673088D01*
X109965942Y-68752780D01*
X109971010Y-68753811D01*
X109971013Y-68753812D01*
X110066112Y-68773160D01*
X110184847Y-68797317D01*
X110190022Y-68797507D01*
X110190024Y-68797507D01*
X110402923Y-68805314D01*
X110402927Y-68805314D01*
X110408087Y-68805503D01*
X110413207Y-68804847D01*
X110413209Y-68804847D01*
X110624538Y-68777775D01*
X110624539Y-68777775D01*
X110629666Y-68777118D01*
X110634616Y-68775633D01*
X110838679Y-68714411D01*
X110838684Y-68714409D01*
X110843634Y-68712924D01*
X111044244Y-68614646D01*
X111226110Y-68484923D01*
X111384346Y-68327239D01*
X111514703Y-68145827D01*
X111515890Y-68146680D01*
X111563210Y-68103112D01*
X111633147Y-68090895D01*
X111698588Y-68118428D01*
X111726416Y-68150261D01*
X111783944Y-68244138D01*
X111790027Y-68252449D01*
X111929463Y-68413417D01*
X111936830Y-68420633D01*
X112100684Y-68556666D01*
X112109131Y-68562581D01*
X112293006Y-68670029D01*
X112302292Y-68674479D01*
X112501251Y-68750453D01*
X112511149Y-68753329D01*
X112614500Y-68774356D01*
X112628549Y-68773160D01*
X112632250Y-68762815D01*
X112632250Y-68102750D01*
X112652252Y-68034629D01*
X112705908Y-67988136D01*
X112758250Y-67976750D01*
X113014250Y-67976750D01*
X113082371Y-67996752D01*
X113128864Y-68050408D01*
X113140250Y-68102750D01*
X113140250Y-68762267D01*
X113144314Y-68776109D01*
X113157728Y-68778143D01*
X113164434Y-68777284D01*
X113174512Y-68775142D01*
X113378505Y-68713941D01*
X113388092Y-68710183D01*
X113579345Y-68616489D01*
X113588195Y-68611214D01*
X113761578Y-68487542D01*
X113769450Y-68480889D01*
X113920302Y-68330562D01*
X113926980Y-68322715D01*
X114051253Y-68149770D01*
X114056563Y-68140933D01*
X114103026Y-68046923D01*
X114151140Y-67994716D01*
X114215983Y-67976750D01*
X120115999Y-67976750D01*
X120184120Y-67996752D01*
X120230613Y-68050408D01*
X120240717Y-68120682D01*
X120226414Y-68163451D01*
X120164494Y-68276082D01*
X120159666Y-68287347D01*
X120103620Y-68464027D01*
X120101070Y-68476021D01*
X120084893Y-68620250D01*
X120084500Y-68627274D01*
X120084500Y-68708374D01*
X120088975Y-68723613D01*
X120090365Y-68724818D01*
X120098048Y-68726489D01*
X122082385Y-68726489D01*
X122097624Y-68722014D01*
X122098829Y-68720624D01*
X122100500Y-68712941D01*
X122100500Y-68633832D01*
X122100199Y-68627684D01*
X122086688Y-68489886D01*
X122084305Y-68477851D01*
X122030733Y-68300413D01*
X122026059Y-68289073D01*
X121958442Y-68161903D01*
X121944123Y-68092366D01*
X121969671Y-68026125D01*
X122026976Y-67984212D01*
X122069694Y-67976750D01*
X128755999Y-67976750D01*
X128824120Y-67996752D01*
X128870613Y-68050408D01*
X128880717Y-68120682D01*
X128866414Y-68163451D01*
X128804494Y-68276082D01*
X128799666Y-68287347D01*
X128743620Y-68464027D01*
X128741070Y-68476021D01*
X128724893Y-68620250D01*
X128724500Y-68627274D01*
X128724500Y-68708374D01*
X128728975Y-68723613D01*
X128730365Y-68724818D01*
X128738048Y-68726489D01*
X130722385Y-68726489D01*
X130737624Y-68722014D01*
X130738829Y-68720624D01*
X130740500Y-68712941D01*
X130740500Y-68633832D01*
X130740199Y-68627684D01*
X130726688Y-68489886D01*
X130724305Y-68477851D01*
X130670733Y-68300413D01*
X130666059Y-68289073D01*
X130598442Y-68161903D01*
X130584123Y-68092366D01*
X130609671Y-68026125D01*
X130666976Y-67984212D01*
X130709694Y-67976750D01*
X132506922Y-67976750D01*
X132526307Y-67978250D01*
X132541108Y-67980555D01*
X132541111Y-67980555D01*
X132549980Y-67981936D01*
X132562628Y-67980282D01*
X132589942Y-67979698D01*
X132677698Y-67987375D01*
X132732725Y-67992190D01*
X132754346Y-67996002D01*
X132914815Y-68039000D01*
X132935452Y-68046511D01*
X133086010Y-68116718D01*
X133105030Y-68127700D01*
X133241112Y-68222985D01*
X133257937Y-68237103D01*
X133375397Y-68354563D01*
X133389515Y-68371388D01*
X133484800Y-68507470D01*
X133495782Y-68526490D01*
X133565989Y-68677048D01*
X133573500Y-68697685D01*
X133616498Y-68858154D01*
X133620311Y-68879779D01*
X133624652Y-68929403D01*
X133610662Y-68999007D01*
X133557311Y-69052146D01*
X133506887Y-69078395D01*
X133436326Y-69115127D01*
X133411007Y-69128307D01*
X133406874Y-69131410D01*
X133406871Y-69131412D01*
X133236500Y-69259330D01*
X133232365Y-69262435D01*
X133170526Y-69327146D01*
X133133210Y-69366195D01*
X133078029Y-69423938D01*
X132952143Y-69608480D01*
X132858088Y-69811105D01*
X132798389Y-70026370D01*
X132774651Y-70248495D01*
X132774948Y-70253648D01*
X132774948Y-70253651D01*
X132780864Y-70356250D01*
X132787510Y-70471515D01*
X132788647Y-70476561D01*
X132788648Y-70476567D01*
X132804288Y-70545965D01*
X132836622Y-70689439D01*
X132920666Y-70896416D01*
X132923365Y-70900820D01*
X133022459Y-71062527D01*
X133037387Y-71086888D01*
X133183650Y-71255738D01*
X133355526Y-71398432D01*
X133425995Y-71439611D01*
X133428845Y-71441276D01*
X133477569Y-71492914D01*
X133490640Y-71562697D01*
X133463909Y-71628469D01*
X133423455Y-71661827D01*
X133411007Y-71668307D01*
X133406874Y-71671410D01*
X133406871Y-71671412D01*
X133236500Y-71799330D01*
X133232365Y-71802435D01*
X133223576Y-71811632D01*
X133082605Y-71959150D01*
X133078029Y-71963938D01*
X133075115Y-71968210D01*
X133075114Y-71968211D01*
X133022599Y-72045195D01*
X132952143Y-72148480D01*
X132925409Y-72206074D01*
X132871669Y-72321848D01*
X132858088Y-72351105D01*
X132798389Y-72566370D01*
X132774651Y-72788495D01*
X132774948Y-72793648D01*
X132774948Y-72793651D01*
X132784510Y-72959490D01*
X132787510Y-73011515D01*
X132788647Y-73016561D01*
X132788648Y-73016567D01*
X132809675Y-73109869D01*
X132836622Y-73229439D01*
X132866016Y-73301828D01*
X132917264Y-73428037D01*
X132920666Y-73436416D01*
X132937563Y-73463989D01*
X133022459Y-73602527D01*
X133037387Y-73626888D01*
X133183650Y-73795738D01*
X133355526Y-73938432D01*
X133425995Y-73979611D01*
X133428845Y-73981276D01*
X133477569Y-74032914D01*
X133490640Y-74102697D01*
X133463909Y-74168469D01*
X133423455Y-74201827D01*
X133411007Y-74208307D01*
X133406874Y-74211410D01*
X133406871Y-74211412D01*
X133283489Y-74304050D01*
X133232365Y-74342435D01*
X133078029Y-74503938D01*
X132952143Y-74688480D01*
X132858088Y-74891105D01*
X132798389Y-75106370D01*
X132774651Y-75328495D01*
X132774948Y-75333648D01*
X132774948Y-75333651D01*
X132780864Y-75436250D01*
X132787510Y-75551515D01*
X132788647Y-75556561D01*
X132788648Y-75556567D01*
X132804288Y-75625965D01*
X132836622Y-75769439D01*
X132920666Y-75976416D01*
X132923365Y-75980820D01*
X133022459Y-76142527D01*
X133037387Y-76166888D01*
X133183650Y-76335738D01*
X133355526Y-76478432D01*
X133364158Y-76483476D01*
X133428845Y-76521276D01*
X133477569Y-76572914D01*
X133490640Y-76642697D01*
X133463909Y-76708469D01*
X133423455Y-76741827D01*
X133411007Y-76748307D01*
X133406874Y-76751410D01*
X133406871Y-76751412D01*
X133283489Y-76844050D01*
X133232365Y-76882435D01*
X133078029Y-77043938D01*
X132952143Y-77228480D01*
X132917585Y-77302930D01*
X132873665Y-77397548D01*
X132858088Y-77431105D01*
X132798389Y-77646370D01*
X132774651Y-77868495D01*
X132774948Y-77873648D01*
X132774948Y-77873651D01*
X132780864Y-77976250D01*
X132787510Y-78091515D01*
X132788647Y-78096561D01*
X132788648Y-78096567D01*
X132796534Y-78131557D01*
X132836622Y-78309439D01*
X132920666Y-78516416D01*
X132923365Y-78520820D01*
X133022459Y-78682527D01*
X133037387Y-78706888D01*
X133183650Y-78875738D01*
X133355526Y-79018432D01*
X133402847Y-79046084D01*
X133428845Y-79061276D01*
X133477569Y-79112914D01*
X133490640Y-79182697D01*
X133463909Y-79248469D01*
X133423455Y-79281827D01*
X133411007Y-79288307D01*
X133406874Y-79291410D01*
X133406871Y-79291412D01*
X133283489Y-79384050D01*
X133232365Y-79422435D01*
X133078029Y-79583938D01*
X132952143Y-79768480D01*
X132858088Y-79971105D01*
X132798389Y-80186370D01*
X132774651Y-80408495D01*
X132774948Y-80413648D01*
X132774948Y-80413651D01*
X132780864Y-80516250D01*
X132787510Y-80631515D01*
X132788647Y-80636561D01*
X132788648Y-80636567D01*
X132795720Y-80667945D01*
X132836622Y-80849439D01*
X132898073Y-81000776D01*
X132918488Y-81051051D01*
X132920666Y-81056416D01*
X132964741Y-81128340D01*
X133022459Y-81222527D01*
X133037387Y-81246888D01*
X133183650Y-81415738D01*
X133355526Y-81558432D01*
X133401916Y-81585540D01*
X133428845Y-81601276D01*
X133477569Y-81652914D01*
X133490640Y-81722697D01*
X133463909Y-81788469D01*
X133423455Y-81821827D01*
X133411007Y-81828307D01*
X133406874Y-81831410D01*
X133406871Y-81831412D01*
X133237764Y-81958381D01*
X133232365Y-81962435D01*
X133228793Y-81966173D01*
X133108639Y-82091907D01*
X133078029Y-82123938D01*
X133075115Y-82128210D01*
X133075114Y-82128211D01*
X133012082Y-82220613D01*
X132952143Y-82308480D01*
X132924302Y-82368458D01*
X132862446Y-82501717D01*
X132858088Y-82511105D01*
X132798389Y-82726370D01*
X132774651Y-82948495D01*
X132774948Y-82953648D01*
X132774948Y-82953651D01*
X132783265Y-83097891D01*
X132787510Y-83171515D01*
X132788647Y-83176561D01*
X132788648Y-83176567D01*
X132806061Y-83253830D01*
X132836622Y-83389439D01*
X132890850Y-83522987D01*
X132917844Y-83589465D01*
X132920666Y-83596416D01*
X132943732Y-83634057D01*
X133022459Y-83762527D01*
X133037387Y-83786888D01*
X133183650Y-83955738D01*
X133355526Y-84098432D01*
X133425995Y-84139611D01*
X133428845Y-84141276D01*
X133477569Y-84192914D01*
X133490640Y-84262697D01*
X133463909Y-84328469D01*
X133423455Y-84361827D01*
X133411007Y-84368307D01*
X133406874Y-84371410D01*
X133406871Y-84371412D01*
X133283489Y-84464050D01*
X133232365Y-84502435D01*
X133078029Y-84663938D01*
X133075115Y-84668210D01*
X133075114Y-84668211D01*
X132998031Y-84781210D01*
X132952143Y-84848480D01*
X132917585Y-84922930D01*
X132892554Y-84976855D01*
X132858088Y-85051105D01*
X132798389Y-85266370D01*
X132774651Y-85488495D01*
X132774948Y-85493648D01*
X132774948Y-85493651D01*
X132784510Y-85659490D01*
X132787510Y-85711515D01*
X132788647Y-85716561D01*
X132788648Y-85716567D01*
X132795382Y-85746447D01*
X132836622Y-85929439D01*
X132852606Y-85968803D01*
X132918347Y-86130704D01*
X132920666Y-86136416D01*
X132923365Y-86140820D01*
X133031407Y-86317129D01*
X133037387Y-86326888D01*
X133183650Y-86495738D01*
X133355526Y-86638432D01*
X133425995Y-86679611D01*
X133428845Y-86681276D01*
X133477569Y-86732914D01*
X133490640Y-86802697D01*
X133463909Y-86868469D01*
X133423455Y-86901827D01*
X133411007Y-86908307D01*
X133406874Y-86911410D01*
X133406871Y-86911412D01*
X133239032Y-87037429D01*
X133232365Y-87042435D01*
X133212702Y-87063011D01*
X133104418Y-87176324D01*
X133078029Y-87203938D01*
X132952143Y-87388480D01*
X132937138Y-87420806D01*
X132881914Y-87539777D01*
X132858088Y-87591105D01*
X132798389Y-87806370D01*
X132774651Y-88028495D01*
X132774948Y-88033648D01*
X132774948Y-88033651D01*
X132780864Y-88136250D01*
X132787510Y-88251515D01*
X132788647Y-88256561D01*
X132788648Y-88256567D01*
X132794872Y-88284183D01*
X132836622Y-88469439D01*
X132920666Y-88676416D01*
X132923365Y-88680820D01*
X133022459Y-88842527D01*
X133037387Y-88866888D01*
X133183650Y-89035738D01*
X133355526Y-89178432D01*
X133425995Y-89219611D01*
X133428845Y-89221276D01*
X133477569Y-89272914D01*
X133490640Y-89342697D01*
X133463909Y-89408469D01*
X133423455Y-89441827D01*
X133411007Y-89448307D01*
X133406874Y-89451410D01*
X133406871Y-89451412D01*
X133283489Y-89544050D01*
X133232365Y-89582435D01*
X133078029Y-89743938D01*
X132952143Y-89928480D01*
X132858088Y-90131105D01*
X132798389Y-90346370D01*
X132774651Y-90568495D01*
X132774948Y-90573648D01*
X132774948Y-90573651D01*
X132780864Y-90676250D01*
X132787510Y-90791515D01*
X132788647Y-90796561D01*
X132788648Y-90796567D01*
X132794220Y-90821291D01*
X132836622Y-91009439D01*
X132920666Y-91216416D01*
X132923365Y-91220820D01*
X133022459Y-91382527D01*
X133037387Y-91406888D01*
X133183650Y-91575738D01*
X133355526Y-91718432D01*
X133417075Y-91754398D01*
X133428845Y-91761276D01*
X133477569Y-91812914D01*
X133490640Y-91882697D01*
X133463909Y-91948469D01*
X133423455Y-91981827D01*
X133411007Y-91988307D01*
X133406874Y-91991410D01*
X133406871Y-91991412D01*
X133283489Y-92084050D01*
X133232365Y-92122435D01*
X133078029Y-92283938D01*
X132952143Y-92468480D01*
X132858088Y-92671105D01*
X132798389Y-92886370D01*
X132774651Y-93108495D01*
X132774948Y-93113648D01*
X132774948Y-93113651D01*
X132780864Y-93216250D01*
X132787510Y-93331515D01*
X132788647Y-93336561D01*
X132788648Y-93336567D01*
X132804288Y-93405965D01*
X132836622Y-93549439D01*
X132920666Y-93756416D01*
X132923365Y-93760820D01*
X133022459Y-93922527D01*
X133037387Y-93946888D01*
X133183650Y-94115738D01*
X133198774Y-94128294D01*
X133350541Y-94254293D01*
X133355526Y-94258432D01*
X133548400Y-94371138D01*
X133553225Y-94372980D01*
X133553226Y-94372981D01*
X133554693Y-94373541D01*
X133555200Y-94373927D01*
X133557895Y-94375218D01*
X133557629Y-94375774D01*
X133611199Y-94416526D01*
X133635495Y-94483235D01*
X133635750Y-94491253D01*
X133635750Y-95200672D01*
X133634250Y-95220056D01*
X133630564Y-95243730D01*
X133632218Y-95256375D01*
X133632802Y-95283692D01*
X133620311Y-95426472D01*
X133616498Y-95448096D01*
X133577953Y-95591950D01*
X133573501Y-95608564D01*
X133565989Y-95629202D01*
X133495782Y-95779760D01*
X133484800Y-95798780D01*
X133389515Y-95934862D01*
X133375397Y-95951687D01*
X133257937Y-96069147D01*
X133241112Y-96083265D01*
X133105030Y-96178550D01*
X133086010Y-96189532D01*
X132935452Y-96259739D01*
X132914815Y-96267250D01*
X132754346Y-96310248D01*
X132732725Y-96314060D01*
X132682830Y-96318426D01*
X132596831Y-96325949D01*
X132580371Y-96325396D01*
X132580366Y-96325805D01*
X132571392Y-96325695D01*
X132562520Y-96324314D01*
X132553618Y-96325478D01*
X132553615Y-96325478D01*
X132530999Y-96328436D01*
X132514661Y-96329500D01*
X131860145Y-96329500D01*
X131792024Y-96309498D01*
X131744595Y-96253742D01*
X131725913Y-96210776D01*
X131723854Y-96206040D01*
X131602514Y-96018477D01*
X131452170Y-95853251D01*
X131448119Y-95850052D01*
X131448115Y-95850048D01*
X131280914Y-95718000D01*
X131280910Y-95717998D01*
X131276859Y-95714798D01*
X131081289Y-95606838D01*
X131076420Y-95605114D01*
X131076416Y-95605112D01*
X130875587Y-95533995D01*
X130875583Y-95533994D01*
X130870712Y-95532269D01*
X130865619Y-95531362D01*
X130865616Y-95531361D01*
X130655873Y-95494000D01*
X130655867Y-95493999D01*
X130650784Y-95493094D01*
X130576952Y-95492192D01*
X130432581Y-95490428D01*
X130432579Y-95490428D01*
X130427411Y-95490365D01*
X130206591Y-95524155D01*
X129994256Y-95593557D01*
X129796107Y-95696707D01*
X129791974Y-95699810D01*
X129791971Y-95699812D01*
X129672185Y-95789750D01*
X129617465Y-95830835D01*
X129463129Y-95992338D01*
X129355701Y-96149821D01*
X129300793Y-96194821D01*
X129230268Y-96202992D01*
X129166521Y-96171738D01*
X129145824Y-96147254D01*
X129065322Y-96022817D01*
X129065320Y-96022814D01*
X129062514Y-96018477D01*
X128912170Y-95853251D01*
X128908119Y-95850052D01*
X128908115Y-95850048D01*
X128740914Y-95718000D01*
X128740910Y-95717998D01*
X128736859Y-95714798D01*
X128541289Y-95606838D01*
X128536420Y-95605114D01*
X128536416Y-95605112D01*
X128335587Y-95533995D01*
X128335583Y-95533994D01*
X128330712Y-95532269D01*
X128325619Y-95531362D01*
X128325616Y-95531361D01*
X128115873Y-95494000D01*
X128115867Y-95493999D01*
X128110784Y-95493094D01*
X128036952Y-95492192D01*
X127892581Y-95490428D01*
X127892579Y-95490428D01*
X127887411Y-95490365D01*
X127666591Y-95524155D01*
X127454256Y-95593557D01*
X127256107Y-95696707D01*
X127251974Y-95699810D01*
X127251971Y-95699812D01*
X127132185Y-95789750D01*
X127077465Y-95830835D01*
X126923129Y-95992338D01*
X126815701Y-96149821D01*
X126760793Y-96194821D01*
X126690268Y-96202992D01*
X126626521Y-96171738D01*
X126605824Y-96147254D01*
X126525322Y-96022817D01*
X126525320Y-96022814D01*
X126522514Y-96018477D01*
X126372170Y-95853251D01*
X126368119Y-95850052D01*
X126368115Y-95850048D01*
X126200914Y-95718000D01*
X126200910Y-95717998D01*
X126196859Y-95714798D01*
X126001289Y-95606838D01*
X125996420Y-95605114D01*
X125996416Y-95605112D01*
X125795587Y-95533995D01*
X125795583Y-95533994D01*
X125790712Y-95532269D01*
X125785619Y-95531362D01*
X125785616Y-95531361D01*
X125575873Y-95494000D01*
X125575867Y-95493999D01*
X125570784Y-95493094D01*
X125496952Y-95492192D01*
X125352581Y-95490428D01*
X125352579Y-95490428D01*
X125347411Y-95490365D01*
X125126591Y-95524155D01*
X124914256Y-95593557D01*
X124716107Y-95696707D01*
X124711974Y-95699810D01*
X124711971Y-95699812D01*
X124592185Y-95789750D01*
X124537465Y-95830835D01*
X124383129Y-95992338D01*
X124275701Y-96149821D01*
X124220793Y-96194821D01*
X124150268Y-96202992D01*
X124086521Y-96171738D01*
X124065824Y-96147254D01*
X123985322Y-96022817D01*
X123985320Y-96022814D01*
X123982514Y-96018477D01*
X123832170Y-95853251D01*
X123828119Y-95850052D01*
X123828115Y-95850048D01*
X123660914Y-95718000D01*
X123660910Y-95717998D01*
X123656859Y-95714798D01*
X123461289Y-95606838D01*
X123456420Y-95605114D01*
X123456416Y-95605112D01*
X123255587Y-95533995D01*
X123255583Y-95533994D01*
X123250712Y-95532269D01*
X123245619Y-95531362D01*
X123245616Y-95531361D01*
X123035873Y-95494000D01*
X123035867Y-95493999D01*
X123030784Y-95493094D01*
X122956952Y-95492192D01*
X122812581Y-95490428D01*
X122812579Y-95490428D01*
X122807411Y-95490365D01*
X122586591Y-95524155D01*
X122374256Y-95593557D01*
X122176107Y-95696707D01*
X122171974Y-95699810D01*
X122171971Y-95699812D01*
X122052185Y-95789750D01*
X121997465Y-95830835D01*
X121843129Y-95992338D01*
X121735701Y-96149821D01*
X121680793Y-96194821D01*
X121610268Y-96202992D01*
X121546521Y-96171738D01*
X121525824Y-96147254D01*
X121445322Y-96022817D01*
X121445320Y-96022814D01*
X121442514Y-96018477D01*
X121292170Y-95853251D01*
X121288119Y-95850052D01*
X121288115Y-95850048D01*
X121120914Y-95718000D01*
X121120910Y-95717998D01*
X121116859Y-95714798D01*
X120921289Y-95606838D01*
X120916420Y-95605114D01*
X120916416Y-95605112D01*
X120715587Y-95533995D01*
X120715583Y-95533994D01*
X120710712Y-95532269D01*
X120705619Y-95531362D01*
X120705616Y-95531361D01*
X120495873Y-95494000D01*
X120495867Y-95493999D01*
X120490784Y-95493094D01*
X120416952Y-95492192D01*
X120272581Y-95490428D01*
X120272579Y-95490428D01*
X120267411Y-95490365D01*
X120077667Y-95519400D01*
X120007306Y-95509932D01*
X119969514Y-95483945D01*
X119745735Y-95260166D01*
X119734868Y-95247775D01*
X119720433Y-95228963D01*
X119715407Y-95222413D01*
X119683495Y-95197926D01*
X119683492Y-95197923D01*
X119588296Y-95124876D01*
X119440271Y-95063562D01*
X119432084Y-95062484D01*
X119432083Y-95062484D01*
X119420878Y-95061009D01*
X119389682Y-95056902D01*
X119321305Y-95047900D01*
X119321302Y-95047900D01*
X119321294Y-95047899D01*
X119289609Y-95043728D01*
X119281420Y-95042650D01*
X119249727Y-95046822D01*
X119233284Y-95047900D01*
X117610665Y-95047900D01*
X117542544Y-95027898D01*
X117521570Y-95010995D01*
X117377810Y-94867235D01*
X117366943Y-94854844D01*
X117352508Y-94836032D01*
X117347482Y-94829482D01*
X117315570Y-94804995D01*
X117315567Y-94804992D01*
X117220371Y-94731945D01*
X117072346Y-94670631D01*
X117064159Y-94669553D01*
X117064158Y-94669553D01*
X117052953Y-94668078D01*
X117021757Y-94663971D01*
X116953380Y-94654969D01*
X116953377Y-94654969D01*
X116953369Y-94654968D01*
X116921684Y-94650797D01*
X116913495Y-94649719D01*
X116881802Y-94653891D01*
X116865359Y-94654969D01*
X115242740Y-94654969D01*
X115174619Y-94634967D01*
X115153645Y-94618064D01*
X115002141Y-94466560D01*
X114991274Y-94454169D01*
X114976839Y-94435357D01*
X114971813Y-94428807D01*
X114939901Y-94404320D01*
X114939898Y-94404317D01*
X114920485Y-94389421D01*
X114851255Y-94336298D01*
X114851253Y-94336297D01*
X114844702Y-94331270D01*
X114696677Y-94269956D01*
X114688490Y-94268878D01*
X114688489Y-94268878D01*
X114677284Y-94267403D01*
X114646088Y-94263296D01*
X114577711Y-94254294D01*
X114577708Y-94254294D01*
X114577700Y-94254293D01*
X114546015Y-94250122D01*
X114537826Y-94249044D01*
X114506133Y-94253216D01*
X114489690Y-94254294D01*
X111718740Y-94254294D01*
X111650619Y-94234292D01*
X111604126Y-94180636D01*
X111592740Y-94128294D01*
X111592740Y-92189799D01*
X111612742Y-92121678D01*
X111629645Y-92100704D01*
X111882882Y-91847467D01*
X111945194Y-91813441D01*
X111960555Y-91811081D01*
X112025200Y-91805198D01*
X112031902Y-91803020D01*
X112031904Y-91803020D01*
X112191009Y-91751324D01*
X112191012Y-91751323D01*
X112197708Y-91749147D01*
X112353512Y-91656269D01*
X112484866Y-91531182D01*
X112585243Y-91380102D01*
X112649655Y-91210538D01*
X112654916Y-91173107D01*
X112674348Y-91034839D01*
X112674348Y-91034836D01*
X112674899Y-91030917D01*
X112675216Y-91008200D01*
X112654997Y-90827945D01*
X112635889Y-90773075D01*
X112597664Y-90663306D01*
X112597662Y-90663303D01*
X112595345Y-90656648D01*
X112591609Y-90650669D01*
X112502959Y-90508798D01*
X112499226Y-90502824D01*
X112494264Y-90497827D01*
X112376378Y-90379115D01*
X112376374Y-90379112D01*
X112371415Y-90374118D01*
X112218266Y-90276927D01*
X112181592Y-90263868D01*
X112054025Y-90218443D01*
X112054020Y-90218442D01*
X112047390Y-90216081D01*
X112040402Y-90215248D01*
X112040399Y-90215247D01*
X111917298Y-90200568D01*
X111867280Y-90194604D01*
X111860277Y-90195340D01*
X111860276Y-90195340D01*
X111693888Y-90212828D01*
X111693886Y-90212829D01*
X111686888Y-90213564D01*
X111576394Y-90251179D01*
X111547985Y-90260850D01*
X111477053Y-90263868D01*
X111439866Y-90247957D01*
X111411415Y-90229901D01*
X111411406Y-90229897D01*
X111405466Y-90226127D01*
X111398833Y-90223765D01*
X111241225Y-90167643D01*
X111241220Y-90167642D01*
X111234590Y-90165281D01*
X111227602Y-90164448D01*
X111227599Y-90164447D01*
X111101342Y-90149392D01*
X111054480Y-90143804D01*
X111047477Y-90144540D01*
X111047476Y-90144540D01*
X110881088Y-90162028D01*
X110881086Y-90162029D01*
X110874088Y-90162764D01*
X110783894Y-90193468D01*
X110709049Y-90218947D01*
X110709046Y-90218948D01*
X110702379Y-90221218D01*
X110684009Y-90232520D01*
X110615511Y-90251179D01*
X110554273Y-90232733D01*
X110554147Y-90232991D01*
X110552561Y-90232218D01*
X110550471Y-90231588D01*
X110541866Y-90226127D01*
X110484093Y-90205555D01*
X110377625Y-90167643D01*
X110377620Y-90167642D01*
X110370990Y-90165281D01*
X110364002Y-90164448D01*
X110363999Y-90164447D01*
X110237742Y-90149392D01*
X110190880Y-90143804D01*
X110183877Y-90144540D01*
X110183876Y-90144540D01*
X110017488Y-90162028D01*
X110017486Y-90162029D01*
X110010488Y-90162764D01*
X109838779Y-90221218D01*
X109795316Y-90247957D01*
X109690295Y-90312566D01*
X109690292Y-90312568D01*
X109684288Y-90316262D01*
X109679253Y-90321193D01*
X109679250Y-90321195D01*
X109577517Y-90420820D01*
X109554693Y-90443171D01*
X109456435Y-90595638D01*
X109454026Y-90602258D01*
X109454024Y-90602261D01*
X109401650Y-90746158D01*
X109394397Y-90766085D01*
X109371663Y-90946040D01*
X109389363Y-91126560D01*
X109446618Y-91298673D01*
X109450265Y-91304695D01*
X109450266Y-91304697D01*
X109536930Y-91447798D01*
X109536933Y-91447801D01*
X109540580Y-91453824D01*
X109545475Y-91458892D01*
X109549771Y-91464471D01*
X109547443Y-91466264D01*
X109574271Y-91517515D01*
X109576700Y-91542134D01*
X109576700Y-94846264D01*
X109575622Y-94862707D01*
X109571450Y-94894400D01*
X109576700Y-94934280D01*
X109576700Y-94934285D01*
X109585011Y-94997415D01*
X109592362Y-95053251D01*
X109653676Y-95201276D01*
X109658703Y-95207827D01*
X109658704Y-95207829D01*
X109726720Y-95296469D01*
X109726726Y-95296475D01*
X109751213Y-95328387D01*
X109757768Y-95333417D01*
X109776579Y-95347852D01*
X109788970Y-95358719D01*
X109792595Y-95362344D01*
X109826621Y-95424656D01*
X109821556Y-95495471D01*
X109779009Y-95552307D01*
X109742645Y-95571204D01*
X109674256Y-95593557D01*
X109476107Y-95696707D01*
X109471974Y-95699810D01*
X109471971Y-95699812D01*
X109352185Y-95789750D01*
X109297465Y-95830835D01*
X109143129Y-95992338D01*
X109035701Y-96149821D01*
X108980793Y-96194821D01*
X108910268Y-96202992D01*
X108846521Y-96171738D01*
X108825824Y-96147254D01*
X108745322Y-96022817D01*
X108745320Y-96022814D01*
X108742514Y-96018477D01*
X108592170Y-95853251D01*
X108588119Y-95850052D01*
X108588115Y-95850048D01*
X108420914Y-95718000D01*
X108420910Y-95717998D01*
X108416859Y-95714798D01*
X108221289Y-95606838D01*
X108216420Y-95605114D01*
X108216416Y-95605112D01*
X108015587Y-95533995D01*
X108015583Y-95533994D01*
X108010712Y-95532269D01*
X108005619Y-95531362D01*
X108005616Y-95531361D01*
X107795873Y-95494000D01*
X107795867Y-95493999D01*
X107790784Y-95493094D01*
X107716952Y-95492192D01*
X107572581Y-95490428D01*
X107572579Y-95490428D01*
X107567411Y-95490365D01*
X107346591Y-95524155D01*
X107134256Y-95593557D01*
X106936107Y-95696707D01*
X106931974Y-95699810D01*
X106931971Y-95699812D01*
X106812185Y-95789750D01*
X106757465Y-95830835D01*
X106603129Y-95992338D01*
X106477243Y-96176880D01*
X106475067Y-96181567D01*
X106475064Y-96181573D01*
X106440261Y-96256550D01*
X106393437Y-96309917D01*
X106325973Y-96329500D01*
X105618078Y-96329500D01*
X105598693Y-96328000D01*
X105583892Y-96325695D01*
X105583889Y-96325695D01*
X105575020Y-96324314D01*
X105562372Y-96325968D01*
X105535058Y-96326552D01*
X105447302Y-96318875D01*
X105392275Y-96314060D01*
X105370654Y-96310248D01*
X105210185Y-96267250D01*
X105189548Y-96259739D01*
X105038990Y-96189532D01*
X105019970Y-96178550D01*
X104883888Y-96083265D01*
X104867063Y-96069147D01*
X104749603Y-95951687D01*
X104735485Y-95934862D01*
X104640200Y-95798780D01*
X104629218Y-95779760D01*
X104559011Y-95629202D01*
X104551499Y-95608564D01*
X104547047Y-95591950D01*
X104508502Y-95448096D01*
X104504689Y-95426472D01*
X104493096Y-95293954D01*
X104493121Y-95271716D01*
X104493513Y-95267340D01*
X104494321Y-95262539D01*
X104494474Y-95250000D01*
X104490523Y-95222412D01*
X104489250Y-95204549D01*
X104489250Y-94571051D01*
X104509252Y-94502930D01*
X104559817Y-94457900D01*
X104669188Y-94404320D01*
X104704244Y-94387146D01*
X104886110Y-94257423D01*
X104894519Y-94249044D01*
X105028291Y-94115738D01*
X105044346Y-94099739D01*
X105097844Y-94025289D01*
X105171685Y-93922527D01*
X105174703Y-93918327D01*
X105211499Y-93843877D01*
X105271386Y-93722703D01*
X105271387Y-93722701D01*
X105273680Y-93718061D01*
X105323457Y-93554225D01*
X105337115Y-93509273D01*
X105337115Y-93509271D01*
X105338620Y-93504319D01*
X105367779Y-93282840D01*
X105369406Y-93216250D01*
X105351102Y-92993611D01*
X105296681Y-92776952D01*
X105207604Y-92572090D01*
X105140576Y-92468480D01*
X105089072Y-92388867D01*
X105089070Y-92388864D01*
X105086264Y-92384527D01*
X104935920Y-92219301D01*
X104931869Y-92216102D01*
X104931865Y-92216098D01*
X104764664Y-92084050D01*
X104764660Y-92084048D01*
X104760609Y-92080848D01*
X104719303Y-92058046D01*
X104669334Y-92007614D01*
X104654562Y-91938171D01*
X104679678Y-91871766D01*
X104707030Y-91845159D01*
X104780320Y-91792882D01*
X104886110Y-91717423D01*
X104908873Y-91694740D01*
X105003331Y-91600611D01*
X105044346Y-91559739D01*
X105056997Y-91542134D01*
X105171685Y-91382527D01*
X105174703Y-91378327D01*
X105202189Y-91322714D01*
X105271386Y-91182703D01*
X105271387Y-91182701D01*
X105273680Y-91178061D01*
X105324511Y-91010758D01*
X105337115Y-90969273D01*
X105337115Y-90969271D01*
X105338620Y-90964319D01*
X105367779Y-90742840D01*
X105369406Y-90676250D01*
X105351102Y-90453611D01*
X105296681Y-90236952D01*
X105207604Y-90032090D01*
X105140576Y-89928480D01*
X105089072Y-89848867D01*
X105089070Y-89848864D01*
X105086264Y-89844527D01*
X104935920Y-89679301D01*
X104931869Y-89676102D01*
X104931865Y-89676098D01*
X104764664Y-89544050D01*
X104764660Y-89544048D01*
X104760609Y-89540848D01*
X104719303Y-89518046D01*
X104669334Y-89467614D01*
X104654562Y-89398171D01*
X104679678Y-89331766D01*
X104707030Y-89305159D01*
X104780320Y-89252882D01*
X104886110Y-89177423D01*
X105044346Y-89019739D01*
X105097844Y-88945289D01*
X105171685Y-88842527D01*
X105174703Y-88838327D01*
X105211499Y-88763877D01*
X105271386Y-88642703D01*
X105271387Y-88642701D01*
X105273680Y-88638061D01*
X105323457Y-88474225D01*
X105337115Y-88429273D01*
X105337115Y-88429271D01*
X105338620Y-88424319D01*
X105367779Y-88202840D01*
X105369406Y-88136250D01*
X105351102Y-87913611D01*
X105296681Y-87696952D01*
X105207604Y-87492090D01*
X105143613Y-87393175D01*
X105089072Y-87308867D01*
X105089070Y-87308864D01*
X105086264Y-87304527D01*
X104935920Y-87139301D01*
X104931869Y-87136102D01*
X104931865Y-87136098D01*
X104764664Y-87004050D01*
X104764660Y-87004048D01*
X104760609Y-87000848D01*
X104719303Y-86978046D01*
X104669334Y-86927614D01*
X104654562Y-86858171D01*
X104679678Y-86791766D01*
X104707030Y-86765159D01*
X104780320Y-86712882D01*
X104886110Y-86637423D01*
X105044346Y-86479739D01*
X105097844Y-86405289D01*
X105171685Y-86302527D01*
X105174703Y-86298327D01*
X105211499Y-86223877D01*
X105271386Y-86102703D01*
X105271387Y-86102701D01*
X105273680Y-86098061D01*
X105274048Y-86096849D01*
X110084650Y-86096849D01*
X110102350Y-86277369D01*
X110159605Y-86449482D01*
X110163252Y-86455504D01*
X110163253Y-86455506D01*
X110249917Y-86598607D01*
X110249920Y-86598610D01*
X110253567Y-86604633D01*
X110258462Y-86609701D01*
X110262758Y-86615280D01*
X110260430Y-86617073D01*
X110287258Y-86668324D01*
X110289687Y-86692943D01*
X110289687Y-87332790D01*
X110288609Y-87349233D01*
X110284437Y-87380926D01*
X110285515Y-87389115D01*
X110289270Y-87417640D01*
X110289687Y-87420806D01*
X110289687Y-87420811D01*
X110295232Y-87462930D01*
X110305349Y-87539777D01*
X110366663Y-87687802D01*
X110371690Y-87694353D01*
X110371691Y-87694355D01*
X110439707Y-87782995D01*
X110439713Y-87783001D01*
X110464200Y-87814913D01*
X110470755Y-87819943D01*
X110489566Y-87834378D01*
X110501957Y-87845245D01*
X110724457Y-88067745D01*
X110735324Y-88080136D01*
X110754785Y-88105498D01*
X110786697Y-88129985D01*
X110786700Y-88129988D01*
X110881896Y-88203035D01*
X110942892Y-88228300D01*
X111029922Y-88264349D01*
X111148887Y-88280011D01*
X111148892Y-88280011D01*
X111148901Y-88280012D01*
X111180584Y-88284183D01*
X111188772Y-88285261D01*
X111220465Y-88281089D01*
X111236908Y-88280011D01*
X112909460Y-88280011D01*
X112978453Y-88300579D01*
X112995086Y-88311463D01*
X113126920Y-88397733D01*
X113133524Y-88400189D01*
X113133526Y-88400190D01*
X113290319Y-88458501D01*
X113290321Y-88458501D01*
X113296929Y-88460959D01*
X113380756Y-88472144D01*
X113469741Y-88484018D01*
X113469745Y-88484018D01*
X113476722Y-88484949D01*
X113483733Y-88484311D01*
X113483737Y-88484311D01*
X113647142Y-88469439D01*
X113657361Y-88468509D01*
X113664063Y-88466331D01*
X113664065Y-88466331D01*
X113823170Y-88414635D01*
X113823173Y-88414634D01*
X113829869Y-88412458D01*
X113985673Y-88319580D01*
X113990774Y-88314723D01*
X113996387Y-88310462D01*
X113997146Y-88311463D01*
X114053851Y-88282273D01*
X114077621Y-88280011D01*
X115876614Y-88280011D01*
X115893057Y-88281089D01*
X115924750Y-88285261D01*
X115932939Y-88284183D01*
X115964624Y-88280012D01*
X115964634Y-88280011D01*
X115964635Y-88280011D01*
X115964643Y-88280010D01*
X116064059Y-88266922D01*
X116134208Y-88277862D01*
X116169600Y-88302749D01*
X118845707Y-90978856D01*
X118879733Y-91041168D01*
X118882011Y-91055656D01*
X118888963Y-91126560D01*
X118946218Y-91298673D01*
X118949865Y-91304695D01*
X118949866Y-91304697D01*
X119036531Y-91447798D01*
X119040180Y-91453824D01*
X119045069Y-91458887D01*
X119045070Y-91458888D01*
X119076300Y-91491227D01*
X119166182Y-91584302D01*
X119317959Y-91683622D01*
X119324563Y-91686078D01*
X119324565Y-91686079D01*
X119481358Y-91744390D01*
X119481360Y-91744390D01*
X119487968Y-91746848D01*
X119571795Y-91758033D01*
X119660780Y-91769907D01*
X119660784Y-91769907D01*
X119667761Y-91770838D01*
X119674772Y-91770200D01*
X119674776Y-91770200D01*
X119817259Y-91757232D01*
X119848400Y-91754398D01*
X119855102Y-91752220D01*
X119855104Y-91752220D01*
X120014209Y-91700524D01*
X120014212Y-91700523D01*
X120020908Y-91698347D01*
X120176712Y-91605469D01*
X120308066Y-91480382D01*
X120408443Y-91329302D01*
X120456206Y-91203566D01*
X120470355Y-91166320D01*
X120470356Y-91166318D01*
X120472855Y-91159738D01*
X120473835Y-91152766D01*
X120497548Y-90984039D01*
X120497548Y-90984036D01*
X120498099Y-90980117D01*
X120498252Y-90969138D01*
X120498361Y-90961362D01*
X120498361Y-90961357D01*
X120498416Y-90957400D01*
X120478197Y-90777145D01*
X120475880Y-90770491D01*
X120420864Y-90612506D01*
X120420862Y-90612503D01*
X120418545Y-90605848D01*
X120398426Y-90573651D01*
X120326159Y-90457998D01*
X120322426Y-90452024D01*
X120250070Y-90379161D01*
X120199578Y-90328315D01*
X120199574Y-90328312D01*
X120194615Y-90323318D01*
X120183497Y-90316262D01*
X120121514Y-90276927D01*
X120041466Y-90226127D01*
X119983693Y-90205555D01*
X119877225Y-90167643D01*
X119877220Y-90167642D01*
X119870590Y-90165281D01*
X119863604Y-90164448D01*
X119863600Y-90164447D01*
X119780664Y-90154558D01*
X119715391Y-90126631D01*
X119706488Y-90118539D01*
X116764273Y-87176324D01*
X116730247Y-87114012D01*
X116727368Y-87087229D01*
X116727368Y-86732306D01*
X116748420Y-86662579D01*
X116838610Y-86526831D01*
X116842511Y-86520960D01*
X116906923Y-86351396D01*
X116909819Y-86330790D01*
X116931616Y-86175697D01*
X116931616Y-86175694D01*
X116932167Y-86171775D01*
X116932484Y-86149058D01*
X116912265Y-85968803D01*
X116909948Y-85962149D01*
X116854932Y-85804164D01*
X116854930Y-85804161D01*
X116852613Y-85797506D01*
X116845402Y-85785965D01*
X116760230Y-85649661D01*
X116756494Y-85643682D01*
X116754083Y-85641254D01*
X116727985Y-85576774D01*
X116727368Y-85564321D01*
X116727368Y-83096474D01*
X116748420Y-83026747D01*
X116777897Y-82982380D01*
X116820404Y-82918402D01*
X116884816Y-82748838D01*
X116887252Y-82731507D01*
X116909509Y-82573139D01*
X116909509Y-82573136D01*
X116910060Y-82569217D01*
X116910290Y-82552733D01*
X116910322Y-82550462D01*
X116910322Y-82550457D01*
X116910377Y-82546500D01*
X116890158Y-82366245D01*
X116887841Y-82359591D01*
X116832825Y-82201606D01*
X116832823Y-82201603D01*
X116830506Y-82194948D01*
X116791328Y-82132250D01*
X116738120Y-82047098D01*
X116734387Y-82041124D01*
X116715716Y-82022322D01*
X116611539Y-81917415D01*
X116611535Y-81917412D01*
X116606576Y-81912418D01*
X116595458Y-81905362D01*
X116517730Y-81856035D01*
X116453427Y-81815227D01*
X116378282Y-81788469D01*
X116289186Y-81756743D01*
X116289181Y-81756742D01*
X116282551Y-81754381D01*
X116275563Y-81753548D01*
X116275560Y-81753547D01*
X116148850Y-81738438D01*
X116102441Y-81732904D01*
X116095438Y-81733640D01*
X116095437Y-81733640D01*
X115929049Y-81751128D01*
X115929047Y-81751129D01*
X115922049Y-81751864D01*
X115750340Y-81810318D01*
X115691693Y-81846398D01*
X115601856Y-81901666D01*
X115601853Y-81901668D01*
X115595849Y-81905362D01*
X115590814Y-81910293D01*
X115590811Y-81910295D01*
X115471286Y-82027343D01*
X115466254Y-82032271D01*
X115367996Y-82184738D01*
X115365587Y-82191358D01*
X115365585Y-82191361D01*
X115329813Y-82289645D01*
X115305958Y-82355185D01*
X115283224Y-82535140D01*
X115300924Y-82715660D01*
X115358179Y-82887773D01*
X115361826Y-82893795D01*
X115361827Y-82893797D01*
X115431608Y-83009019D01*
X115452141Y-83042924D01*
X115457035Y-83047992D01*
X115457036Y-83047993D01*
X115475004Y-83066599D01*
X115507937Y-83129496D01*
X115510368Y-83154127D01*
X115510368Y-85564222D01*
X115490366Y-85632343D01*
X115489056Y-85634148D01*
X115488361Y-85634829D01*
X115486762Y-85637311D01*
X115486760Y-85637313D01*
X115478802Y-85649661D01*
X115390103Y-85787296D01*
X115387694Y-85793916D01*
X115387692Y-85793919D01*
X115354789Y-85884319D01*
X115328065Y-85957743D01*
X115305331Y-86137698D01*
X115323031Y-86318218D01*
X115380286Y-86490331D01*
X115383933Y-86496353D01*
X115383934Y-86496355D01*
X115470598Y-86639456D01*
X115470601Y-86639459D01*
X115474248Y-86645482D01*
X115479143Y-86650550D01*
X115483439Y-86656129D01*
X115481111Y-86657922D01*
X115507939Y-86709173D01*
X115510368Y-86733792D01*
X115510368Y-86937011D01*
X115490366Y-87005132D01*
X115436710Y-87051625D01*
X115384368Y-87063011D01*
X114078512Y-87063011D01*
X114010391Y-87043009D01*
X114005918Y-87039787D01*
X114003576Y-87037429D01*
X113992458Y-87030373D01*
X113917426Y-86982757D01*
X113850427Y-86940238D01*
X113811560Y-86926398D01*
X113686186Y-86881754D01*
X113686181Y-86881753D01*
X113679551Y-86879392D01*
X113672563Y-86878559D01*
X113672560Y-86878558D01*
X113549459Y-86863879D01*
X113499441Y-86857915D01*
X113492438Y-86858651D01*
X113492437Y-86858651D01*
X113326049Y-86876139D01*
X113326047Y-86876140D01*
X113319049Y-86876875D01*
X113147340Y-86935329D01*
X112992849Y-87030373D01*
X112987815Y-87035302D01*
X112986537Y-87036301D01*
X112920543Y-87062478D01*
X112908965Y-87063011D01*
X111632687Y-87063011D01*
X111564566Y-87043009D01*
X111518073Y-86989353D01*
X111506687Y-86937011D01*
X111506687Y-86691457D01*
X111527739Y-86621730D01*
X111599067Y-86514372D01*
X111621830Y-86480111D01*
X111663610Y-86370126D01*
X111683742Y-86317129D01*
X111683743Y-86317127D01*
X111686242Y-86310547D01*
X111687369Y-86302527D01*
X111710935Y-86134848D01*
X111710935Y-86134845D01*
X111711486Y-86130926D01*
X111711803Y-86108209D01*
X111691584Y-85927954D01*
X111689267Y-85921300D01*
X111673267Y-85875354D01*
X113132736Y-85875354D01*
X113135519Y-85879073D01*
X113289941Y-85936502D01*
X113303539Y-85939892D01*
X113469251Y-85962004D01*
X113483247Y-85962297D01*
X113649738Y-85947144D01*
X113663465Y-85944327D01*
X113822463Y-85892666D01*
X113835214Y-85886881D01*
X113842030Y-85882818D01*
X113851619Y-85872476D01*
X113848113Y-85864062D01*
X113506073Y-85522022D01*
X113492129Y-85514408D01*
X113490296Y-85514539D01*
X113483682Y-85518790D01*
X113139493Y-85862979D01*
X113132736Y-85875354D01*
X111673267Y-85875354D01*
X111634251Y-85763315D01*
X111634249Y-85763312D01*
X111631932Y-85756657D01*
X111535813Y-85602833D01*
X111533402Y-85600405D01*
X111507304Y-85535925D01*
X111506687Y-85523472D01*
X111506687Y-85145660D01*
X112680915Y-85145660D01*
X112697229Y-85312047D01*
X112700140Y-85325741D01*
X112752911Y-85484375D01*
X112758785Y-85497088D01*
X112760029Y-85499143D01*
X112770435Y-85508657D01*
X112779055Y-85504995D01*
X113121240Y-85162811D01*
X113127617Y-85151132D01*
X113857669Y-85151132D01*
X113857800Y-85152966D01*
X113862051Y-85159579D01*
X114205765Y-85503293D01*
X114218140Y-85510050D01*
X114221957Y-85507193D01*
X114278326Y-85358802D01*
X114281810Y-85345233D01*
X114305505Y-85176627D01*
X114306112Y-85168741D01*
X114306319Y-85153962D01*
X114305932Y-85146061D01*
X114286953Y-84976855D01*
X114283851Y-84963202D01*
X114228871Y-84805322D01*
X114225542Y-84798372D01*
X114216866Y-84790659D01*
X114207819Y-84794653D01*
X113865282Y-85137189D01*
X113857669Y-85151132D01*
X113127617Y-85151132D01*
X113128853Y-85148868D01*
X113128722Y-85147034D01*
X113124471Y-85140421D01*
X112780719Y-84796669D01*
X112768344Y-84789912D01*
X112763187Y-84793772D01*
X112762534Y-84795089D01*
X112705357Y-84952180D01*
X112702064Y-84965795D01*
X112681111Y-85131653D01*
X112680915Y-85145660D01*
X111506687Y-85145660D01*
X111506687Y-84426799D01*
X113134277Y-84426799D01*
X113138101Y-84435629D01*
X113480450Y-84777979D01*
X113494393Y-84785592D01*
X113496227Y-84785461D01*
X113502840Y-84781210D01*
X113846175Y-84437875D01*
X113852932Y-84425500D01*
X113848366Y-84419400D01*
X113843063Y-84416813D01*
X113685570Y-84360732D01*
X113671946Y-84357536D01*
X113505931Y-84337741D01*
X113491934Y-84337643D01*
X113325665Y-84355118D01*
X113311986Y-84358126D01*
X113153724Y-84412002D01*
X113143116Y-84416994D01*
X113134277Y-84426799D01*
X111506687Y-84426799D01*
X111506687Y-83460489D01*
X111526689Y-83392368D01*
X111580345Y-83345875D01*
X111632687Y-83334489D01*
X113353460Y-83334489D01*
X113422453Y-83355057D01*
X113430241Y-83360153D01*
X113570920Y-83452211D01*
X113577524Y-83454667D01*
X113577526Y-83454668D01*
X113734319Y-83512979D01*
X113734321Y-83512979D01*
X113740929Y-83515437D01*
X113824756Y-83526622D01*
X113913741Y-83538496D01*
X113913745Y-83538496D01*
X113920722Y-83539427D01*
X113927733Y-83538789D01*
X113927737Y-83538789D01*
X114070220Y-83525821D01*
X114101361Y-83522987D01*
X114108063Y-83520809D01*
X114108065Y-83520809D01*
X114267170Y-83469113D01*
X114267173Y-83469112D01*
X114273869Y-83466936D01*
X114429673Y-83374058D01*
X114561027Y-83248971D01*
X114661404Y-83097891D01*
X114725816Y-82928327D01*
X114730669Y-82893797D01*
X114750509Y-82752628D01*
X114750509Y-82752625D01*
X114751060Y-82748706D01*
X114751377Y-82725989D01*
X114731158Y-82545734D01*
X114705484Y-82472007D01*
X114673825Y-82381095D01*
X114673823Y-82381092D01*
X114671506Y-82374437D01*
X114575387Y-82220613D01*
X114553317Y-82198388D01*
X114452539Y-82096904D01*
X114452535Y-82096901D01*
X114447576Y-82091907D01*
X114436458Y-82084851D01*
X114376968Y-82047098D01*
X114294427Y-81994716D01*
X114214269Y-81966173D01*
X114130186Y-81936232D01*
X114130181Y-81936231D01*
X114123551Y-81933870D01*
X114116563Y-81933037D01*
X114116560Y-81933036D01*
X113985556Y-81917415D01*
X113943441Y-81912393D01*
X113936438Y-81913129D01*
X113936437Y-81913129D01*
X113770049Y-81930617D01*
X113770047Y-81930618D01*
X113763049Y-81931353D01*
X113591340Y-81989807D01*
X113436849Y-82084851D01*
X113431815Y-82089780D01*
X113430537Y-82090779D01*
X113364543Y-82116956D01*
X113352965Y-82117489D01*
X111595045Y-82117489D01*
X111526924Y-82097487D01*
X111505639Y-82080273D01*
X111448091Y-82022322D01*
X111443129Y-82017325D01*
X111434813Y-82012047D01*
X111356636Y-81962435D01*
X111289980Y-81920134D01*
X111238116Y-81901666D01*
X111125739Y-81861650D01*
X111125734Y-81861649D01*
X111119104Y-81859288D01*
X111112116Y-81858455D01*
X111112113Y-81858454D01*
X110989012Y-81843775D01*
X110938994Y-81837811D01*
X110931991Y-81838547D01*
X110931990Y-81838547D01*
X110765602Y-81856035D01*
X110765600Y-81856036D01*
X110758602Y-81856771D01*
X110586893Y-81915225D01*
X110550458Y-81937640D01*
X110438409Y-82006573D01*
X110438406Y-82006575D01*
X110432402Y-82010269D01*
X110427367Y-82015200D01*
X110427364Y-82015202D01*
X110307839Y-82132250D01*
X110302807Y-82137178D01*
X110204549Y-82289645D01*
X110202140Y-82296265D01*
X110202138Y-82296268D01*
X110147862Y-82445391D01*
X110142511Y-82460092D01*
X110119777Y-82640047D01*
X110137477Y-82820567D01*
X110194732Y-82992680D01*
X110198379Y-82998702D01*
X110198380Y-82998704D01*
X110271463Y-83119379D01*
X110289687Y-83184650D01*
X110289687Y-85523373D01*
X110269685Y-85591494D01*
X110268375Y-85593299D01*
X110267680Y-85593980D01*
X110266081Y-85596462D01*
X110266079Y-85596464D01*
X110195265Y-85706347D01*
X110169422Y-85746447D01*
X110167013Y-85753067D01*
X110167011Y-85753070D01*
X110119787Y-85882818D01*
X110107384Y-85916894D01*
X110084650Y-86096849D01*
X105274048Y-86096849D01*
X105323457Y-85934225D01*
X105337115Y-85889273D01*
X105337115Y-85889271D01*
X105338620Y-85884319D01*
X105367779Y-85662840D01*
X105368403Y-85637313D01*
X105369324Y-85599615D01*
X105369324Y-85599611D01*
X105369406Y-85596250D01*
X105351102Y-85373611D01*
X105296681Y-85156952D01*
X105207604Y-84952090D01*
X105140576Y-84848480D01*
X105089072Y-84768867D01*
X105089070Y-84768864D01*
X105086264Y-84764527D01*
X104935920Y-84599301D01*
X104931869Y-84596102D01*
X104931865Y-84596098D01*
X104764664Y-84464050D01*
X104764660Y-84464048D01*
X104760609Y-84460848D01*
X104719303Y-84438046D01*
X104669334Y-84387614D01*
X104654562Y-84318171D01*
X104679678Y-84251766D01*
X104707030Y-84225159D01*
X104780320Y-84172882D01*
X104886110Y-84097423D01*
X105044346Y-83939739D01*
X105097844Y-83865289D01*
X105171685Y-83762527D01*
X105174703Y-83758327D01*
X105193805Y-83719678D01*
X105271386Y-83562703D01*
X105271387Y-83562701D01*
X105273680Y-83558061D01*
X105324022Y-83392368D01*
X105337115Y-83349273D01*
X105337115Y-83349271D01*
X105338620Y-83344319D01*
X105367779Y-83122840D01*
X105368245Y-83103762D01*
X105369324Y-83059615D01*
X105369324Y-83059611D01*
X105369406Y-83056250D01*
X105351102Y-82833611D01*
X105296681Y-82616952D01*
X105207604Y-82412090D01*
X105140576Y-82308480D01*
X105089072Y-82228867D01*
X105089070Y-82228864D01*
X105086264Y-82224527D01*
X104935920Y-82059301D01*
X104931869Y-82056102D01*
X104931865Y-82056098D01*
X104764664Y-81924050D01*
X104764660Y-81924048D01*
X104760609Y-81920848D01*
X104719303Y-81898046D01*
X104669334Y-81847614D01*
X104654562Y-81778171D01*
X104679678Y-81711766D01*
X104707030Y-81685159D01*
X104780320Y-81632882D01*
X104886110Y-81557423D01*
X104943858Y-81499877D01*
X105028291Y-81415738D01*
X105044346Y-81399739D01*
X105057625Y-81381260D01*
X105171685Y-81222527D01*
X105174703Y-81218327D01*
X105181568Y-81204438D01*
X105271386Y-81022703D01*
X105271387Y-81022701D01*
X105273680Y-81018061D01*
X105323457Y-80854225D01*
X105337115Y-80809273D01*
X105337115Y-80809271D01*
X105338620Y-80804319D01*
X105367779Y-80582840D01*
X105369406Y-80516250D01*
X105351102Y-80293611D01*
X105296681Y-80076952D01*
X105207604Y-79872090D01*
X105140576Y-79768480D01*
X105089072Y-79688867D01*
X105089070Y-79688864D01*
X105086264Y-79684527D01*
X104935920Y-79519301D01*
X104931869Y-79516102D01*
X104931865Y-79516098D01*
X104764664Y-79384050D01*
X104764660Y-79384048D01*
X104760609Y-79380848D01*
X104719303Y-79358046D01*
X104669334Y-79307614D01*
X104654562Y-79238171D01*
X104679678Y-79171766D01*
X104707030Y-79145159D01*
X104766318Y-79102869D01*
X104886110Y-79017423D01*
X105044346Y-78859739D01*
X105086191Y-78801506D01*
X105171685Y-78682527D01*
X105174703Y-78678327D01*
X105187932Y-78651561D01*
X105271386Y-78482703D01*
X105271387Y-78482701D01*
X105273680Y-78478061D01*
X105324585Y-78310514D01*
X105337115Y-78269273D01*
X105337115Y-78269271D01*
X105338620Y-78264319D01*
X105367779Y-78042840D01*
X105369406Y-77976250D01*
X105351102Y-77753611D01*
X105296681Y-77536952D01*
X105207604Y-77332090D01*
X105140576Y-77228480D01*
X105089072Y-77148867D01*
X105089070Y-77148864D01*
X105086264Y-77144527D01*
X104935920Y-76979301D01*
X104931869Y-76976102D01*
X104931865Y-76976098D01*
X104764664Y-76844050D01*
X104764660Y-76844048D01*
X104760609Y-76840848D01*
X104719303Y-76818046D01*
X104669334Y-76767614D01*
X104654562Y-76698171D01*
X104679678Y-76631766D01*
X104707030Y-76605159D01*
X104780320Y-76552882D01*
X104886110Y-76477423D01*
X105044346Y-76319739D01*
X105097844Y-76245289D01*
X105171685Y-76142527D01*
X105174703Y-76138327D01*
X105211499Y-76063877D01*
X105271386Y-75942703D01*
X105271387Y-75942701D01*
X105273680Y-75938061D01*
X105323457Y-75774225D01*
X105337115Y-75729273D01*
X105337115Y-75729271D01*
X105338620Y-75724319D01*
X105367779Y-75502840D01*
X105369406Y-75436250D01*
X105351102Y-75213611D01*
X105296681Y-74996952D01*
X105207604Y-74792090D01*
X105140576Y-74688480D01*
X105089072Y-74608867D01*
X105089070Y-74608864D01*
X105086264Y-74604527D01*
X104935920Y-74439301D01*
X104931869Y-74436102D01*
X104931865Y-74436098D01*
X104764664Y-74304050D01*
X104764660Y-74304048D01*
X104760609Y-74300848D01*
X104719303Y-74278046D01*
X104669334Y-74227614D01*
X104654562Y-74158171D01*
X104679678Y-74091766D01*
X104707030Y-74065159D01*
X104780320Y-74012882D01*
X104886110Y-73937423D01*
X105044346Y-73779739D01*
X105097844Y-73705289D01*
X105171685Y-73602527D01*
X105174703Y-73598327D01*
X105211499Y-73523877D01*
X105271386Y-73402703D01*
X105271387Y-73402701D01*
X105273680Y-73398061D01*
X105324002Y-73232432D01*
X105337115Y-73189273D01*
X105337115Y-73189271D01*
X105338620Y-73184319D01*
X105367779Y-72962840D01*
X105369094Y-72909014D01*
X105369324Y-72899615D01*
X105369324Y-72899611D01*
X105369406Y-72896250D01*
X105351102Y-72673611D01*
X105296681Y-72456952D01*
X105207604Y-72252090D01*
X105140576Y-72148480D01*
X105089072Y-72068867D01*
X105089070Y-72068864D01*
X105086264Y-72064527D01*
X104935920Y-71899301D01*
X104931869Y-71896102D01*
X104931865Y-71896098D01*
X104764664Y-71764050D01*
X104764660Y-71764048D01*
X104760609Y-71760848D01*
X104719303Y-71738046D01*
X104669334Y-71687614D01*
X104654562Y-71618171D01*
X104679678Y-71551766D01*
X104707030Y-71525159D01*
X104780320Y-71472882D01*
X104886110Y-71397423D01*
X105044346Y-71239739D01*
X105097844Y-71165289D01*
X105171685Y-71062527D01*
X105174703Y-71058327D01*
X105211499Y-70983877D01*
X105271386Y-70862703D01*
X105271387Y-70862701D01*
X105273680Y-70858061D01*
X105323457Y-70694225D01*
X105337115Y-70649273D01*
X105337115Y-70649271D01*
X105338620Y-70644319D01*
X105367779Y-70422840D01*
X105368652Y-70387105D01*
X105369324Y-70359615D01*
X105369324Y-70359611D01*
X105369406Y-70356250D01*
X105351102Y-70133611D01*
X105296681Y-69916952D01*
X105207604Y-69712090D01*
X105140576Y-69608480D01*
X105089072Y-69528867D01*
X105089070Y-69528864D01*
X105086264Y-69524527D01*
X104935920Y-69359301D01*
X104931869Y-69356102D01*
X104931865Y-69356098D01*
X104764664Y-69224050D01*
X104764660Y-69224048D01*
X104760609Y-69220848D01*
X104736167Y-69207355D01*
X104644361Y-69156676D01*
X104565039Y-69112888D01*
X104565467Y-69112113D01*
X104515052Y-69068960D01*
X104494638Y-69000961D01*
X104495115Y-68989218D01*
X104504689Y-68879778D01*
X104508502Y-68858154D01*
X104551500Y-68697685D01*
X104559011Y-68677048D01*
X104629218Y-68526490D01*
X104640200Y-68507470D01*
X104735485Y-68371388D01*
X104749603Y-68354563D01*
X104867063Y-68237103D01*
X104883888Y-68222985D01*
X105019970Y-68127700D01*
X105038990Y-68116718D01*
X105189548Y-68046511D01*
X105210185Y-68039000D01*
X105370654Y-67996002D01*
X105392275Y-67992190D01*
X105442170Y-67987824D01*
X105528169Y-67980301D01*
X105544629Y-67980854D01*
X105544634Y-67980445D01*
X105553608Y-67980555D01*
X105562480Y-67981936D01*
X105571382Y-67980772D01*
X105571385Y-67980772D01*
X105594001Y-67977814D01*
X105610339Y-67976750D01*
X106321750Y-67976750D01*
X106389871Y-67996752D01*
G37*
%TD.AperFunction*%
%TA.AperFunction,Conductor*%
G36*
X123651310Y-78545563D02*
G01*
X123697803Y-78599219D01*
X123709189Y-78651561D01*
X123709189Y-80199216D01*
X123689187Y-80267337D01*
X123635531Y-80313830D01*
X123565257Y-80323934D01*
X123500677Y-80294440D01*
X123493783Y-80288000D01*
X123425378Y-80219115D01*
X123425374Y-80219112D01*
X123420415Y-80214118D01*
X123267266Y-80116927D01*
X123096390Y-80056081D01*
X123089401Y-80055248D01*
X123089390Y-80055245D01*
X123086746Y-80054930D01*
X123085168Y-80054255D01*
X123082534Y-80053637D01*
X123082643Y-80053174D01*
X123021473Y-80027002D01*
X123012572Y-80018912D01*
X122327544Y-79333884D01*
X122319554Y-79325104D01*
X122319552Y-79325102D01*
X122315305Y-79318409D01*
X122303810Y-79307614D01*
X122263632Y-79269885D01*
X122260790Y-79267130D01*
X122240222Y-79246562D01*
X122236715Y-79243842D01*
X122227693Y-79236136D01*
X122199802Y-79209945D01*
X122194022Y-79204517D01*
X122187070Y-79200695D01*
X122175231Y-79194186D01*
X122158707Y-79183332D01*
X122148021Y-79175044D01*
X122141757Y-79170185D01*
X122134485Y-79167038D01*
X122134483Y-79167037D01*
X122099354Y-79151835D01*
X122088694Y-79146613D01*
X122055173Y-79128184D01*
X122055171Y-79128183D01*
X122048226Y-79124365D01*
X122027448Y-79119030D01*
X122008758Y-79112631D01*
X121989065Y-79104109D01*
X121943441Y-79096883D01*
X121931818Y-79094476D01*
X121903817Y-79087287D01*
X121887077Y-79082989D01*
X121865630Y-79082989D01*
X121845920Y-79081438D01*
X121832566Y-79079323D01*
X121824737Y-79078083D01*
X121778748Y-79082430D01*
X121766893Y-79082989D01*
X120350839Y-79082989D01*
X120282718Y-79062987D01*
X120261744Y-79046084D01*
X120260755Y-79045095D01*
X120226729Y-78982783D01*
X120225569Y-78975726D01*
X120224982Y-78973143D01*
X120224197Y-78966145D01*
X120188413Y-78863387D01*
X120166864Y-78801506D01*
X120166862Y-78801503D01*
X120164545Y-78794848D01*
X120116730Y-78718328D01*
X120097596Y-78649961D01*
X120118462Y-78582100D01*
X120172704Y-78536292D01*
X120223586Y-78525561D01*
X123583189Y-78525561D01*
X123651310Y-78545563D01*
G37*
%TD.AperFunction*%
%TD*%
M02*
