%TF.GenerationSoftware,KiCad,Pcbnew,(6.0.11)*%
%TF.CreationDate,2023-02-13T13:43:31-05:00*%
%TF.ProjectId,HardLight,48617264-4c69-4676-9874-2e6b69636164,Mark 2 Rev F*%
%TF.SameCoordinates,Original*%
%TF.FileFunction,Other,Comment*%
%FSLAX46Y46*%
G04 Gerber Fmt 4.6, Leading zero omitted, Abs format (unit mm)*
G04 Created by KiCad (PCBNEW (6.0.11)) date 2023-02-13 13:43:31*
%MOMM*%
%LPD*%
G01*
G04 APERTURE LIST*
%ADD10C,0.150000*%
%ADD11C,0.030000*%
G04 APERTURE END LIST*
D10*
%TO.C,D1*%
X37471130Y-84081845D02*
X36471130Y-84081845D01*
X36471130Y-83843750D01*
X36518750Y-83700892D01*
X36613988Y-83605654D01*
X36709226Y-83558035D01*
X36899702Y-83510416D01*
X37042559Y-83510416D01*
X37233035Y-83558035D01*
X37328273Y-83605654D01*
X37423511Y-83700892D01*
X37471130Y-83843750D01*
X37471130Y-84081845D01*
X37471130Y-82558035D02*
X37471130Y-83129464D01*
X37471130Y-82843750D02*
X36471130Y-82843750D01*
X36613988Y-82938988D01*
X36709226Y-83034226D01*
X36756845Y-83129464D01*
%TO.C,D2*%
X56521130Y-84081845D02*
X55521130Y-84081845D01*
X55521130Y-83843750D01*
X55568750Y-83700892D01*
X55663988Y-83605654D01*
X55759226Y-83558035D01*
X55949702Y-83510416D01*
X56092559Y-83510416D01*
X56283035Y-83558035D01*
X56378273Y-83605654D01*
X56473511Y-83700892D01*
X56521130Y-83843750D01*
X56521130Y-84081845D01*
X55616369Y-83129464D02*
X55568750Y-83081845D01*
X55521130Y-82986607D01*
X55521130Y-82748511D01*
X55568750Y-82653273D01*
X55616369Y-82605654D01*
X55711607Y-82558035D01*
X55806845Y-82558035D01*
X55949702Y-82605654D01*
X56521130Y-83177083D01*
X56521130Y-82558035D01*
%TO.C,D3*%
X75571130Y-84081845D02*
X74571130Y-84081845D01*
X74571130Y-83843750D01*
X74618750Y-83700892D01*
X74713988Y-83605654D01*
X74809226Y-83558035D01*
X74999702Y-83510416D01*
X75142559Y-83510416D01*
X75333035Y-83558035D01*
X75428273Y-83605654D01*
X75523511Y-83700892D01*
X75571130Y-83843750D01*
X75571130Y-84081845D01*
X74571130Y-83177083D02*
X74571130Y-82558035D01*
X74952083Y-82891369D01*
X74952083Y-82748511D01*
X74999702Y-82653273D01*
X75047321Y-82605654D01*
X75142559Y-82558035D01*
X75380654Y-82558035D01*
X75475892Y-82605654D01*
X75523511Y-82653273D01*
X75571130Y-82748511D01*
X75571130Y-83034226D01*
X75523511Y-83129464D01*
X75475892Y-83177083D01*
%TO.C,D4*%
X94621130Y-84081845D02*
X93621130Y-84081845D01*
X93621130Y-83843750D01*
X93668750Y-83700892D01*
X93763988Y-83605654D01*
X93859226Y-83558035D01*
X94049702Y-83510416D01*
X94192559Y-83510416D01*
X94383035Y-83558035D01*
X94478273Y-83605654D01*
X94573511Y-83700892D01*
X94621130Y-83843750D01*
X94621130Y-84081845D01*
X93954464Y-82653273D02*
X94621130Y-82653273D01*
X93573511Y-82891369D02*
X94287797Y-83129464D01*
X94287797Y-82510416D01*
%TO.C,D5*%
X113671130Y-84081845D02*
X112671130Y-84081845D01*
X112671130Y-83843750D01*
X112718750Y-83700892D01*
X112813988Y-83605654D01*
X112909226Y-83558035D01*
X113099702Y-83510416D01*
X113242559Y-83510416D01*
X113433035Y-83558035D01*
X113528273Y-83605654D01*
X113623511Y-83700892D01*
X113671130Y-83843750D01*
X113671130Y-84081845D01*
X112671130Y-82605654D02*
X112671130Y-83081845D01*
X113147321Y-83129464D01*
X113099702Y-83081845D01*
X113052083Y-82986607D01*
X113052083Y-82748511D01*
X113099702Y-82653273D01*
X113147321Y-82605654D01*
X113242559Y-82558035D01*
X113480654Y-82558035D01*
X113575892Y-82605654D01*
X113623511Y-82653273D01*
X113671130Y-82748511D01*
X113671130Y-82986607D01*
X113623511Y-83081845D01*
X113575892Y-83129464D01*
%TO.C,D6*%
X132721130Y-84081845D02*
X131721130Y-84081845D01*
X131721130Y-83843750D01*
X131768750Y-83700892D01*
X131863988Y-83605654D01*
X131959226Y-83558035D01*
X132149702Y-83510416D01*
X132292559Y-83510416D01*
X132483035Y-83558035D01*
X132578273Y-83605654D01*
X132673511Y-83700892D01*
X132721130Y-83843750D01*
X132721130Y-84081845D01*
X131721130Y-82653273D02*
X131721130Y-82843750D01*
X131768750Y-82938988D01*
X131816369Y-82986607D01*
X131959226Y-83081845D01*
X132149702Y-83129464D01*
X132530654Y-83129464D01*
X132625892Y-83081845D01*
X132673511Y-83034226D01*
X132721130Y-82938988D01*
X132721130Y-82748511D01*
X132673511Y-82653273D01*
X132625892Y-82605654D01*
X132530654Y-82558035D01*
X132292559Y-82558035D01*
X132197321Y-82605654D01*
X132149702Y-82653273D01*
X132102083Y-82748511D01*
X132102083Y-82938988D01*
X132149702Y-83034226D01*
X132197321Y-83081845D01*
X132292559Y-83129464D01*
%TO.C,D7*%
X151771130Y-84081845D02*
X150771130Y-84081845D01*
X150771130Y-83843750D01*
X150818750Y-83700892D01*
X150913988Y-83605654D01*
X151009226Y-83558035D01*
X151199702Y-83510416D01*
X151342559Y-83510416D01*
X151533035Y-83558035D01*
X151628273Y-83605654D01*
X151723511Y-83700892D01*
X151771130Y-83843750D01*
X151771130Y-84081845D01*
X150771130Y-83177083D02*
X150771130Y-82510416D01*
X151771130Y-82938988D01*
%TO.C,D8*%
X170821130Y-84081845D02*
X169821130Y-84081845D01*
X169821130Y-83843750D01*
X169868750Y-83700892D01*
X169963988Y-83605654D01*
X170059226Y-83558035D01*
X170249702Y-83510416D01*
X170392559Y-83510416D01*
X170583035Y-83558035D01*
X170678273Y-83605654D01*
X170773511Y-83700892D01*
X170821130Y-83843750D01*
X170821130Y-84081845D01*
X170249702Y-82938988D02*
X170202083Y-83034226D01*
X170154464Y-83081845D01*
X170059226Y-83129464D01*
X170011607Y-83129464D01*
X169916369Y-83081845D01*
X169868750Y-83034226D01*
X169821130Y-82938988D01*
X169821130Y-82748511D01*
X169868750Y-82653273D01*
X169916369Y-82605654D01*
X170011607Y-82558035D01*
X170059226Y-82558035D01*
X170154464Y-82605654D01*
X170202083Y-82653273D01*
X170249702Y-82748511D01*
X170249702Y-82938988D01*
X170297321Y-83034226D01*
X170344940Y-83081845D01*
X170440178Y-83129464D01*
X170630654Y-83129464D01*
X170725892Y-83081845D01*
X170773511Y-83034226D01*
X170821130Y-82938988D01*
X170821130Y-82748511D01*
X170773511Y-82653273D01*
X170725892Y-82605654D01*
X170630654Y-82558035D01*
X170440178Y-82558035D01*
X170344940Y-82605654D01*
X170297321Y-82653273D01*
X170249702Y-82748511D01*
%TO.C,D9*%
X189871130Y-84081845D02*
X188871130Y-84081845D01*
X188871130Y-83843750D01*
X188918750Y-83700892D01*
X189013988Y-83605654D01*
X189109226Y-83558035D01*
X189299702Y-83510416D01*
X189442559Y-83510416D01*
X189633035Y-83558035D01*
X189728273Y-83605654D01*
X189823511Y-83700892D01*
X189871130Y-83843750D01*
X189871130Y-84081845D01*
X189871130Y-83034226D02*
X189871130Y-82843750D01*
X189823511Y-82748511D01*
X189775892Y-82700892D01*
X189633035Y-82605654D01*
X189442559Y-82558035D01*
X189061607Y-82558035D01*
X188966369Y-82605654D01*
X188918750Y-82653273D01*
X188871130Y-82748511D01*
X188871130Y-82938988D01*
X188918750Y-83034226D01*
X188966369Y-83081845D01*
X189061607Y-83129464D01*
X189299702Y-83129464D01*
X189394940Y-83081845D01*
X189442559Y-83034226D01*
X189490178Y-82938988D01*
X189490178Y-82748511D01*
X189442559Y-82653273D01*
X189394940Y-82605654D01*
X189299702Y-82558035D01*
%TO.C,D10*%
X208921130Y-84558035D02*
X207921130Y-84558035D01*
X207921130Y-84319940D01*
X207968750Y-84177083D01*
X208063988Y-84081845D01*
X208159226Y-84034226D01*
X208349702Y-83986607D01*
X208492559Y-83986607D01*
X208683035Y-84034226D01*
X208778273Y-84081845D01*
X208873511Y-84177083D01*
X208921130Y-84319940D01*
X208921130Y-84558035D01*
X208921130Y-83034226D02*
X208921130Y-83605654D01*
X208921130Y-83319940D02*
X207921130Y-83319940D01*
X208063988Y-83415178D01*
X208159226Y-83510416D01*
X208206845Y-83605654D01*
X207921130Y-82415178D02*
X207921130Y-82319940D01*
X207968750Y-82224702D01*
X208016369Y-82177083D01*
X208111607Y-82129464D01*
X208302083Y-82081845D01*
X208540178Y-82081845D01*
X208730654Y-82129464D01*
X208825892Y-82177083D01*
X208873511Y-82224702D01*
X208921130Y-82319940D01*
X208921130Y-82415178D01*
X208873511Y-82510416D01*
X208825892Y-82558035D01*
X208730654Y-82605654D01*
X208540178Y-82653273D01*
X208302083Y-82653273D01*
X208111607Y-82605654D01*
X208016369Y-82558035D01*
X207968750Y-82510416D01*
X207921130Y-82415178D01*
%TO.C,D11*%
X227971130Y-84558035D02*
X226971130Y-84558035D01*
X226971130Y-84319940D01*
X227018750Y-84177083D01*
X227113988Y-84081845D01*
X227209226Y-84034226D01*
X227399702Y-83986607D01*
X227542559Y-83986607D01*
X227733035Y-84034226D01*
X227828273Y-84081845D01*
X227923511Y-84177083D01*
X227971130Y-84319940D01*
X227971130Y-84558035D01*
X227971130Y-83034226D02*
X227971130Y-83605654D01*
X227971130Y-83319940D02*
X226971130Y-83319940D01*
X227113988Y-83415178D01*
X227209226Y-83510416D01*
X227256845Y-83605654D01*
X227971130Y-82081845D02*
X227971130Y-82653273D01*
X227971130Y-82367559D02*
X226971130Y-82367559D01*
X227113988Y-82462797D01*
X227209226Y-82558035D01*
X227256845Y-82653273D01*
%TO.C,D12*%
X247021130Y-84558035D02*
X246021130Y-84558035D01*
X246021130Y-84319940D01*
X246068750Y-84177083D01*
X246163988Y-84081845D01*
X246259226Y-84034226D01*
X246449702Y-83986607D01*
X246592559Y-83986607D01*
X246783035Y-84034226D01*
X246878273Y-84081845D01*
X246973511Y-84177083D01*
X247021130Y-84319940D01*
X247021130Y-84558035D01*
X247021130Y-83034226D02*
X247021130Y-83605654D01*
X247021130Y-83319940D02*
X246021130Y-83319940D01*
X246163988Y-83415178D01*
X246259226Y-83510416D01*
X246306845Y-83605654D01*
X246116369Y-82653273D02*
X246068750Y-82605654D01*
X246021130Y-82510416D01*
X246021130Y-82272321D01*
X246068750Y-82177083D01*
X246116369Y-82129464D01*
X246211607Y-82081845D01*
X246306845Y-82081845D01*
X246449702Y-82129464D01*
X247021130Y-82700892D01*
X247021130Y-82081845D01*
%TO.C,D13*%
X266071130Y-84558035D02*
X265071130Y-84558035D01*
X265071130Y-84319940D01*
X265118750Y-84177083D01*
X265213988Y-84081845D01*
X265309226Y-84034226D01*
X265499702Y-83986607D01*
X265642559Y-83986607D01*
X265833035Y-84034226D01*
X265928273Y-84081845D01*
X266023511Y-84177083D01*
X266071130Y-84319940D01*
X266071130Y-84558035D01*
X266071130Y-83034226D02*
X266071130Y-83605654D01*
X266071130Y-83319940D02*
X265071130Y-83319940D01*
X265213988Y-83415178D01*
X265309226Y-83510416D01*
X265356845Y-83605654D01*
X265071130Y-82700892D02*
X265071130Y-82081845D01*
X265452083Y-82415178D01*
X265452083Y-82272321D01*
X265499702Y-82177083D01*
X265547321Y-82129464D01*
X265642559Y-82081845D01*
X265880654Y-82081845D01*
X265975892Y-82129464D01*
X266023511Y-82177083D01*
X266071130Y-82272321D01*
X266071130Y-82558035D01*
X266023511Y-82653273D01*
X265975892Y-82700892D01*
%TO.C,D14*%
X285121130Y-84558035D02*
X284121130Y-84558035D01*
X284121130Y-84319940D01*
X284168750Y-84177083D01*
X284263988Y-84081845D01*
X284359226Y-84034226D01*
X284549702Y-83986607D01*
X284692559Y-83986607D01*
X284883035Y-84034226D01*
X284978273Y-84081845D01*
X285073511Y-84177083D01*
X285121130Y-84319940D01*
X285121130Y-84558035D01*
X285121130Y-83034226D02*
X285121130Y-83605654D01*
X285121130Y-83319940D02*
X284121130Y-83319940D01*
X284263988Y-83415178D01*
X284359226Y-83510416D01*
X284406845Y-83605654D01*
X284454464Y-82177083D02*
X285121130Y-82177083D01*
X284073511Y-82415178D02*
X284787797Y-82653273D01*
X284787797Y-82034226D01*
%TO.C,D15*%
X304171130Y-84558035D02*
X303171130Y-84558035D01*
X303171130Y-84319940D01*
X303218750Y-84177083D01*
X303313988Y-84081845D01*
X303409226Y-84034226D01*
X303599702Y-83986607D01*
X303742559Y-83986607D01*
X303933035Y-84034226D01*
X304028273Y-84081845D01*
X304123511Y-84177083D01*
X304171130Y-84319940D01*
X304171130Y-84558035D01*
X304171130Y-83034226D02*
X304171130Y-83605654D01*
X304171130Y-83319940D02*
X303171130Y-83319940D01*
X303313988Y-83415178D01*
X303409226Y-83510416D01*
X303456845Y-83605654D01*
X303171130Y-82129464D02*
X303171130Y-82605654D01*
X303647321Y-82653273D01*
X303599702Y-82605654D01*
X303552083Y-82510416D01*
X303552083Y-82272321D01*
X303599702Y-82177083D01*
X303647321Y-82129464D01*
X303742559Y-82081845D01*
X303980654Y-82081845D01*
X304075892Y-82129464D01*
X304123511Y-82177083D01*
X304171130Y-82272321D01*
X304171130Y-82510416D01*
X304123511Y-82605654D01*
X304075892Y-82653273D01*
%TO.C,D16*%
X323221130Y-84558035D02*
X322221130Y-84558035D01*
X322221130Y-84319940D01*
X322268750Y-84177083D01*
X322363988Y-84081845D01*
X322459226Y-84034226D01*
X322649702Y-83986607D01*
X322792559Y-83986607D01*
X322983035Y-84034226D01*
X323078273Y-84081845D01*
X323173511Y-84177083D01*
X323221130Y-84319940D01*
X323221130Y-84558035D01*
X323221130Y-83034226D02*
X323221130Y-83605654D01*
X323221130Y-83319940D02*
X322221130Y-83319940D01*
X322363988Y-83415178D01*
X322459226Y-83510416D01*
X322506845Y-83605654D01*
X322221130Y-82177083D02*
X322221130Y-82367559D01*
X322268750Y-82462797D01*
X322316369Y-82510416D01*
X322459226Y-82605654D01*
X322649702Y-82653273D01*
X323030654Y-82653273D01*
X323125892Y-82605654D01*
X323173511Y-82558035D01*
X323221130Y-82462797D01*
X323221130Y-82272321D01*
X323173511Y-82177083D01*
X323125892Y-82129464D01*
X323030654Y-82081845D01*
X322792559Y-82081845D01*
X322697321Y-82129464D01*
X322649702Y-82177083D01*
X322602083Y-82272321D01*
X322602083Y-82462797D01*
X322649702Y-82558035D01*
X322697321Y-82605654D01*
X322792559Y-82653273D01*
%TO.C,D17*%
X37471130Y-103608035D02*
X36471130Y-103608035D01*
X36471130Y-103369940D01*
X36518750Y-103227083D01*
X36613988Y-103131845D01*
X36709226Y-103084226D01*
X36899702Y-103036607D01*
X37042559Y-103036607D01*
X37233035Y-103084226D01*
X37328273Y-103131845D01*
X37423511Y-103227083D01*
X37471130Y-103369940D01*
X37471130Y-103608035D01*
X37471130Y-102084226D02*
X37471130Y-102655654D01*
X37471130Y-102369940D02*
X36471130Y-102369940D01*
X36613988Y-102465178D01*
X36709226Y-102560416D01*
X36756845Y-102655654D01*
X36471130Y-101750892D02*
X36471130Y-101084226D01*
X37471130Y-101512797D01*
%TO.C,D18*%
X56521130Y-103608035D02*
X55521130Y-103608035D01*
X55521130Y-103369940D01*
X55568750Y-103227083D01*
X55663988Y-103131845D01*
X55759226Y-103084226D01*
X55949702Y-103036607D01*
X56092559Y-103036607D01*
X56283035Y-103084226D01*
X56378273Y-103131845D01*
X56473511Y-103227083D01*
X56521130Y-103369940D01*
X56521130Y-103608035D01*
X56521130Y-102084226D02*
X56521130Y-102655654D01*
X56521130Y-102369940D02*
X55521130Y-102369940D01*
X55663988Y-102465178D01*
X55759226Y-102560416D01*
X55806845Y-102655654D01*
X55949702Y-101512797D02*
X55902083Y-101608035D01*
X55854464Y-101655654D01*
X55759226Y-101703273D01*
X55711607Y-101703273D01*
X55616369Y-101655654D01*
X55568750Y-101608035D01*
X55521130Y-101512797D01*
X55521130Y-101322321D01*
X55568750Y-101227083D01*
X55616369Y-101179464D01*
X55711607Y-101131845D01*
X55759226Y-101131845D01*
X55854464Y-101179464D01*
X55902083Y-101227083D01*
X55949702Y-101322321D01*
X55949702Y-101512797D01*
X55997321Y-101608035D01*
X56044940Y-101655654D01*
X56140178Y-101703273D01*
X56330654Y-101703273D01*
X56425892Y-101655654D01*
X56473511Y-101608035D01*
X56521130Y-101512797D01*
X56521130Y-101322321D01*
X56473511Y-101227083D01*
X56425892Y-101179464D01*
X56330654Y-101131845D01*
X56140178Y-101131845D01*
X56044940Y-101179464D01*
X55997321Y-101227083D01*
X55949702Y-101322321D01*
%TO.C,D19*%
X75571130Y-103608035D02*
X74571130Y-103608035D01*
X74571130Y-103369940D01*
X74618750Y-103227083D01*
X74713988Y-103131845D01*
X74809226Y-103084226D01*
X74999702Y-103036607D01*
X75142559Y-103036607D01*
X75333035Y-103084226D01*
X75428273Y-103131845D01*
X75523511Y-103227083D01*
X75571130Y-103369940D01*
X75571130Y-103608035D01*
X75571130Y-102084226D02*
X75571130Y-102655654D01*
X75571130Y-102369940D02*
X74571130Y-102369940D01*
X74713988Y-102465178D01*
X74809226Y-102560416D01*
X74856845Y-102655654D01*
X75571130Y-101608035D02*
X75571130Y-101417559D01*
X75523511Y-101322321D01*
X75475892Y-101274702D01*
X75333035Y-101179464D01*
X75142559Y-101131845D01*
X74761607Y-101131845D01*
X74666369Y-101179464D01*
X74618750Y-101227083D01*
X74571130Y-101322321D01*
X74571130Y-101512797D01*
X74618750Y-101608035D01*
X74666369Y-101655654D01*
X74761607Y-101703273D01*
X74999702Y-101703273D01*
X75094940Y-101655654D01*
X75142559Y-101608035D01*
X75190178Y-101512797D01*
X75190178Y-101322321D01*
X75142559Y-101227083D01*
X75094940Y-101179464D01*
X74999702Y-101131845D01*
%TO.C,D20*%
X94621130Y-103608035D02*
X93621130Y-103608035D01*
X93621130Y-103369940D01*
X93668750Y-103227083D01*
X93763988Y-103131845D01*
X93859226Y-103084226D01*
X94049702Y-103036607D01*
X94192559Y-103036607D01*
X94383035Y-103084226D01*
X94478273Y-103131845D01*
X94573511Y-103227083D01*
X94621130Y-103369940D01*
X94621130Y-103608035D01*
X93716369Y-102655654D02*
X93668750Y-102608035D01*
X93621130Y-102512797D01*
X93621130Y-102274702D01*
X93668750Y-102179464D01*
X93716369Y-102131845D01*
X93811607Y-102084226D01*
X93906845Y-102084226D01*
X94049702Y-102131845D01*
X94621130Y-102703273D01*
X94621130Y-102084226D01*
X93621130Y-101465178D02*
X93621130Y-101369940D01*
X93668750Y-101274702D01*
X93716369Y-101227083D01*
X93811607Y-101179464D01*
X94002083Y-101131845D01*
X94240178Y-101131845D01*
X94430654Y-101179464D01*
X94525892Y-101227083D01*
X94573511Y-101274702D01*
X94621130Y-101369940D01*
X94621130Y-101465178D01*
X94573511Y-101560416D01*
X94525892Y-101608035D01*
X94430654Y-101655654D01*
X94240178Y-101703273D01*
X94002083Y-101703273D01*
X93811607Y-101655654D01*
X93716369Y-101608035D01*
X93668750Y-101560416D01*
X93621130Y-101465178D01*
%TO.C,D21*%
X113671130Y-103608035D02*
X112671130Y-103608035D01*
X112671130Y-103369940D01*
X112718750Y-103227083D01*
X112813988Y-103131845D01*
X112909226Y-103084226D01*
X113099702Y-103036607D01*
X113242559Y-103036607D01*
X113433035Y-103084226D01*
X113528273Y-103131845D01*
X113623511Y-103227083D01*
X113671130Y-103369940D01*
X113671130Y-103608035D01*
X112766369Y-102655654D02*
X112718750Y-102608035D01*
X112671130Y-102512797D01*
X112671130Y-102274702D01*
X112718750Y-102179464D01*
X112766369Y-102131845D01*
X112861607Y-102084226D01*
X112956845Y-102084226D01*
X113099702Y-102131845D01*
X113671130Y-102703273D01*
X113671130Y-102084226D01*
X113671130Y-101131845D02*
X113671130Y-101703273D01*
X113671130Y-101417559D02*
X112671130Y-101417559D01*
X112813988Y-101512797D01*
X112909226Y-101608035D01*
X112956845Y-101703273D01*
%TO.C,D22*%
X132721130Y-103608035D02*
X131721130Y-103608035D01*
X131721130Y-103369940D01*
X131768750Y-103227083D01*
X131863988Y-103131845D01*
X131959226Y-103084226D01*
X132149702Y-103036607D01*
X132292559Y-103036607D01*
X132483035Y-103084226D01*
X132578273Y-103131845D01*
X132673511Y-103227083D01*
X132721130Y-103369940D01*
X132721130Y-103608035D01*
X131816369Y-102655654D02*
X131768750Y-102608035D01*
X131721130Y-102512797D01*
X131721130Y-102274702D01*
X131768750Y-102179464D01*
X131816369Y-102131845D01*
X131911607Y-102084226D01*
X132006845Y-102084226D01*
X132149702Y-102131845D01*
X132721130Y-102703273D01*
X132721130Y-102084226D01*
X131816369Y-101703273D02*
X131768750Y-101655654D01*
X131721130Y-101560416D01*
X131721130Y-101322321D01*
X131768750Y-101227083D01*
X131816369Y-101179464D01*
X131911607Y-101131845D01*
X132006845Y-101131845D01*
X132149702Y-101179464D01*
X132721130Y-101750892D01*
X132721130Y-101131845D01*
%TO.C,D23*%
X151771130Y-103608035D02*
X150771130Y-103608035D01*
X150771130Y-103369940D01*
X150818750Y-103227083D01*
X150913988Y-103131845D01*
X151009226Y-103084226D01*
X151199702Y-103036607D01*
X151342559Y-103036607D01*
X151533035Y-103084226D01*
X151628273Y-103131845D01*
X151723511Y-103227083D01*
X151771130Y-103369940D01*
X151771130Y-103608035D01*
X150866369Y-102655654D02*
X150818750Y-102608035D01*
X150771130Y-102512797D01*
X150771130Y-102274702D01*
X150818750Y-102179464D01*
X150866369Y-102131845D01*
X150961607Y-102084226D01*
X151056845Y-102084226D01*
X151199702Y-102131845D01*
X151771130Y-102703273D01*
X151771130Y-102084226D01*
X150771130Y-101750892D02*
X150771130Y-101131845D01*
X151152083Y-101465178D01*
X151152083Y-101322321D01*
X151199702Y-101227083D01*
X151247321Y-101179464D01*
X151342559Y-101131845D01*
X151580654Y-101131845D01*
X151675892Y-101179464D01*
X151723511Y-101227083D01*
X151771130Y-101322321D01*
X151771130Y-101608035D01*
X151723511Y-101703273D01*
X151675892Y-101750892D01*
%TO.C,D24*%
X170821130Y-103608035D02*
X169821130Y-103608035D01*
X169821130Y-103369940D01*
X169868750Y-103227083D01*
X169963988Y-103131845D01*
X170059226Y-103084226D01*
X170249702Y-103036607D01*
X170392559Y-103036607D01*
X170583035Y-103084226D01*
X170678273Y-103131845D01*
X170773511Y-103227083D01*
X170821130Y-103369940D01*
X170821130Y-103608035D01*
X169916369Y-102655654D02*
X169868750Y-102608035D01*
X169821130Y-102512797D01*
X169821130Y-102274702D01*
X169868750Y-102179464D01*
X169916369Y-102131845D01*
X170011607Y-102084226D01*
X170106845Y-102084226D01*
X170249702Y-102131845D01*
X170821130Y-102703273D01*
X170821130Y-102084226D01*
X170154464Y-101227083D02*
X170821130Y-101227083D01*
X169773511Y-101465178D02*
X170487797Y-101703273D01*
X170487797Y-101084226D01*
%TO.C,D25*%
X189871130Y-103545535D02*
X188871130Y-103545535D01*
X188871130Y-103307440D01*
X188918750Y-103164583D01*
X189013988Y-103069345D01*
X189109226Y-103021726D01*
X189299702Y-102974107D01*
X189442559Y-102974107D01*
X189633035Y-103021726D01*
X189728273Y-103069345D01*
X189823511Y-103164583D01*
X189871130Y-103307440D01*
X189871130Y-103545535D01*
X188966369Y-102593154D02*
X188918750Y-102545535D01*
X188871130Y-102450297D01*
X188871130Y-102212202D01*
X188918750Y-102116964D01*
X188966369Y-102069345D01*
X189061607Y-102021726D01*
X189156845Y-102021726D01*
X189299702Y-102069345D01*
X189871130Y-102640773D01*
X189871130Y-102021726D01*
X188871130Y-101116964D02*
X188871130Y-101593154D01*
X189347321Y-101640773D01*
X189299702Y-101593154D01*
X189252083Y-101497916D01*
X189252083Y-101259821D01*
X189299702Y-101164583D01*
X189347321Y-101116964D01*
X189442559Y-101069345D01*
X189680654Y-101069345D01*
X189775892Y-101116964D01*
X189823511Y-101164583D01*
X189871130Y-101259821D01*
X189871130Y-101497916D01*
X189823511Y-101593154D01*
X189775892Y-101640773D01*
%TO.C,D26*%
X208921130Y-103620535D02*
X207921130Y-103620535D01*
X207921130Y-103382440D01*
X207968750Y-103239583D01*
X208063988Y-103144345D01*
X208159226Y-103096726D01*
X208349702Y-103049107D01*
X208492559Y-103049107D01*
X208683035Y-103096726D01*
X208778273Y-103144345D01*
X208873511Y-103239583D01*
X208921130Y-103382440D01*
X208921130Y-103620535D01*
X208016369Y-102668154D02*
X207968750Y-102620535D01*
X207921130Y-102525297D01*
X207921130Y-102287202D01*
X207968750Y-102191964D01*
X208016369Y-102144345D01*
X208111607Y-102096726D01*
X208206845Y-102096726D01*
X208349702Y-102144345D01*
X208921130Y-102715773D01*
X208921130Y-102096726D01*
X207921130Y-101239583D02*
X207921130Y-101430059D01*
X207968750Y-101525297D01*
X208016369Y-101572916D01*
X208159226Y-101668154D01*
X208349702Y-101715773D01*
X208730654Y-101715773D01*
X208825892Y-101668154D01*
X208873511Y-101620535D01*
X208921130Y-101525297D01*
X208921130Y-101334821D01*
X208873511Y-101239583D01*
X208825892Y-101191964D01*
X208730654Y-101144345D01*
X208492559Y-101144345D01*
X208397321Y-101191964D01*
X208349702Y-101239583D01*
X208302083Y-101334821D01*
X208302083Y-101525297D01*
X208349702Y-101620535D01*
X208397321Y-101668154D01*
X208492559Y-101715773D01*
%TO.C,D27*%
X227971130Y-103608035D02*
X226971130Y-103608035D01*
X226971130Y-103369940D01*
X227018750Y-103227083D01*
X227113988Y-103131845D01*
X227209226Y-103084226D01*
X227399702Y-103036607D01*
X227542559Y-103036607D01*
X227733035Y-103084226D01*
X227828273Y-103131845D01*
X227923511Y-103227083D01*
X227971130Y-103369940D01*
X227971130Y-103608035D01*
X227066369Y-102655654D02*
X227018750Y-102608035D01*
X226971130Y-102512797D01*
X226971130Y-102274702D01*
X227018750Y-102179464D01*
X227066369Y-102131845D01*
X227161607Y-102084226D01*
X227256845Y-102084226D01*
X227399702Y-102131845D01*
X227971130Y-102703273D01*
X227971130Y-102084226D01*
X226971130Y-101750892D02*
X226971130Y-101084226D01*
X227971130Y-101512797D01*
%TO.C,D28*%
X247021130Y-103608035D02*
X246021130Y-103608035D01*
X246021130Y-103369940D01*
X246068750Y-103227083D01*
X246163988Y-103131845D01*
X246259226Y-103084226D01*
X246449702Y-103036607D01*
X246592559Y-103036607D01*
X246783035Y-103084226D01*
X246878273Y-103131845D01*
X246973511Y-103227083D01*
X247021130Y-103369940D01*
X247021130Y-103608035D01*
X246116369Y-102655654D02*
X246068750Y-102608035D01*
X246021130Y-102512797D01*
X246021130Y-102274702D01*
X246068750Y-102179464D01*
X246116369Y-102131845D01*
X246211607Y-102084226D01*
X246306845Y-102084226D01*
X246449702Y-102131845D01*
X247021130Y-102703273D01*
X247021130Y-102084226D01*
X246449702Y-101512797D02*
X246402083Y-101608035D01*
X246354464Y-101655654D01*
X246259226Y-101703273D01*
X246211607Y-101703273D01*
X246116369Y-101655654D01*
X246068750Y-101608035D01*
X246021130Y-101512797D01*
X246021130Y-101322321D01*
X246068750Y-101227083D01*
X246116369Y-101179464D01*
X246211607Y-101131845D01*
X246259226Y-101131845D01*
X246354464Y-101179464D01*
X246402083Y-101227083D01*
X246449702Y-101322321D01*
X246449702Y-101512797D01*
X246497321Y-101608035D01*
X246544940Y-101655654D01*
X246640178Y-101703273D01*
X246830654Y-101703273D01*
X246925892Y-101655654D01*
X246973511Y-101608035D01*
X247021130Y-101512797D01*
X247021130Y-101322321D01*
X246973511Y-101227083D01*
X246925892Y-101179464D01*
X246830654Y-101131845D01*
X246640178Y-101131845D01*
X246544940Y-101179464D01*
X246497321Y-101227083D01*
X246449702Y-101322321D01*
%TO.C,D29*%
X266071130Y-103608035D02*
X265071130Y-103608035D01*
X265071130Y-103369940D01*
X265118750Y-103227083D01*
X265213988Y-103131845D01*
X265309226Y-103084226D01*
X265499702Y-103036607D01*
X265642559Y-103036607D01*
X265833035Y-103084226D01*
X265928273Y-103131845D01*
X266023511Y-103227083D01*
X266071130Y-103369940D01*
X266071130Y-103608035D01*
X265166369Y-102655654D02*
X265118750Y-102608035D01*
X265071130Y-102512797D01*
X265071130Y-102274702D01*
X265118750Y-102179464D01*
X265166369Y-102131845D01*
X265261607Y-102084226D01*
X265356845Y-102084226D01*
X265499702Y-102131845D01*
X266071130Y-102703273D01*
X266071130Y-102084226D01*
X266071130Y-101608035D02*
X266071130Y-101417559D01*
X266023511Y-101322321D01*
X265975892Y-101274702D01*
X265833035Y-101179464D01*
X265642559Y-101131845D01*
X265261607Y-101131845D01*
X265166369Y-101179464D01*
X265118750Y-101227083D01*
X265071130Y-101322321D01*
X265071130Y-101512797D01*
X265118750Y-101608035D01*
X265166369Y-101655654D01*
X265261607Y-101703273D01*
X265499702Y-101703273D01*
X265594940Y-101655654D01*
X265642559Y-101608035D01*
X265690178Y-101512797D01*
X265690178Y-101322321D01*
X265642559Y-101227083D01*
X265594940Y-101179464D01*
X265499702Y-101131845D01*
%TO.C,D30*%
X285121130Y-103608035D02*
X284121130Y-103608035D01*
X284121130Y-103369940D01*
X284168750Y-103227083D01*
X284263988Y-103131845D01*
X284359226Y-103084226D01*
X284549702Y-103036607D01*
X284692559Y-103036607D01*
X284883035Y-103084226D01*
X284978273Y-103131845D01*
X285073511Y-103227083D01*
X285121130Y-103369940D01*
X285121130Y-103608035D01*
X284121130Y-102703273D02*
X284121130Y-102084226D01*
X284502083Y-102417559D01*
X284502083Y-102274702D01*
X284549702Y-102179464D01*
X284597321Y-102131845D01*
X284692559Y-102084226D01*
X284930654Y-102084226D01*
X285025892Y-102131845D01*
X285073511Y-102179464D01*
X285121130Y-102274702D01*
X285121130Y-102560416D01*
X285073511Y-102655654D01*
X285025892Y-102703273D01*
X284121130Y-101465178D02*
X284121130Y-101369940D01*
X284168750Y-101274702D01*
X284216369Y-101227083D01*
X284311607Y-101179464D01*
X284502083Y-101131845D01*
X284740178Y-101131845D01*
X284930654Y-101179464D01*
X285025892Y-101227083D01*
X285073511Y-101274702D01*
X285121130Y-101369940D01*
X285121130Y-101465178D01*
X285073511Y-101560416D01*
X285025892Y-101608035D01*
X284930654Y-101655654D01*
X284740178Y-101703273D01*
X284502083Y-101703273D01*
X284311607Y-101655654D01*
X284216369Y-101608035D01*
X284168750Y-101560416D01*
X284121130Y-101465178D01*
%TO.C,D31*%
X304171130Y-103608035D02*
X303171130Y-103608035D01*
X303171130Y-103369940D01*
X303218750Y-103227083D01*
X303313988Y-103131845D01*
X303409226Y-103084226D01*
X303599702Y-103036607D01*
X303742559Y-103036607D01*
X303933035Y-103084226D01*
X304028273Y-103131845D01*
X304123511Y-103227083D01*
X304171130Y-103369940D01*
X304171130Y-103608035D01*
X303171130Y-102703273D02*
X303171130Y-102084226D01*
X303552083Y-102417559D01*
X303552083Y-102274702D01*
X303599702Y-102179464D01*
X303647321Y-102131845D01*
X303742559Y-102084226D01*
X303980654Y-102084226D01*
X304075892Y-102131845D01*
X304123511Y-102179464D01*
X304171130Y-102274702D01*
X304171130Y-102560416D01*
X304123511Y-102655654D01*
X304075892Y-102703273D01*
X304171130Y-101131845D02*
X304171130Y-101703273D01*
X304171130Y-101417559D02*
X303171130Y-101417559D01*
X303313988Y-101512797D01*
X303409226Y-101608035D01*
X303456845Y-101703273D01*
%TO.C,D32*%
X323221130Y-103608035D02*
X322221130Y-103608035D01*
X322221130Y-103369940D01*
X322268750Y-103227083D01*
X322363988Y-103131845D01*
X322459226Y-103084226D01*
X322649702Y-103036607D01*
X322792559Y-103036607D01*
X322983035Y-103084226D01*
X323078273Y-103131845D01*
X323173511Y-103227083D01*
X323221130Y-103369940D01*
X323221130Y-103608035D01*
X322221130Y-102703273D02*
X322221130Y-102084226D01*
X322602083Y-102417559D01*
X322602083Y-102274702D01*
X322649702Y-102179464D01*
X322697321Y-102131845D01*
X322792559Y-102084226D01*
X323030654Y-102084226D01*
X323125892Y-102131845D01*
X323173511Y-102179464D01*
X323221130Y-102274702D01*
X323221130Y-102560416D01*
X323173511Y-102655654D01*
X323125892Y-102703273D01*
X322316369Y-101703273D02*
X322268750Y-101655654D01*
X322221130Y-101560416D01*
X322221130Y-101322321D01*
X322268750Y-101227083D01*
X322316369Y-101179464D01*
X322411607Y-101131845D01*
X322506845Y-101131845D01*
X322649702Y-101179464D01*
X323221130Y-101750892D01*
X323221130Y-101131845D01*
%TO.C,D33*%
X37471130Y-122658035D02*
X36471130Y-122658035D01*
X36471130Y-122419940D01*
X36518750Y-122277083D01*
X36613988Y-122181845D01*
X36709226Y-122134226D01*
X36899702Y-122086607D01*
X37042559Y-122086607D01*
X37233035Y-122134226D01*
X37328273Y-122181845D01*
X37423511Y-122277083D01*
X37471130Y-122419940D01*
X37471130Y-122658035D01*
X36471130Y-121753273D02*
X36471130Y-121134226D01*
X36852083Y-121467559D01*
X36852083Y-121324702D01*
X36899702Y-121229464D01*
X36947321Y-121181845D01*
X37042559Y-121134226D01*
X37280654Y-121134226D01*
X37375892Y-121181845D01*
X37423511Y-121229464D01*
X37471130Y-121324702D01*
X37471130Y-121610416D01*
X37423511Y-121705654D01*
X37375892Y-121753273D01*
X36471130Y-120800892D02*
X36471130Y-120181845D01*
X36852083Y-120515178D01*
X36852083Y-120372321D01*
X36899702Y-120277083D01*
X36947321Y-120229464D01*
X37042559Y-120181845D01*
X37280654Y-120181845D01*
X37375892Y-120229464D01*
X37423511Y-120277083D01*
X37471130Y-120372321D01*
X37471130Y-120658035D01*
X37423511Y-120753273D01*
X37375892Y-120800892D01*
%TO.C,D34*%
X56521130Y-122658035D02*
X55521130Y-122658035D01*
X55521130Y-122419940D01*
X55568750Y-122277083D01*
X55663988Y-122181845D01*
X55759226Y-122134226D01*
X55949702Y-122086607D01*
X56092559Y-122086607D01*
X56283035Y-122134226D01*
X56378273Y-122181845D01*
X56473511Y-122277083D01*
X56521130Y-122419940D01*
X56521130Y-122658035D01*
X55521130Y-121753273D02*
X55521130Y-121134226D01*
X55902083Y-121467559D01*
X55902083Y-121324702D01*
X55949702Y-121229464D01*
X55997321Y-121181845D01*
X56092559Y-121134226D01*
X56330654Y-121134226D01*
X56425892Y-121181845D01*
X56473511Y-121229464D01*
X56521130Y-121324702D01*
X56521130Y-121610416D01*
X56473511Y-121705654D01*
X56425892Y-121753273D01*
X55854464Y-120277083D02*
X56521130Y-120277083D01*
X55473511Y-120515178D02*
X56187797Y-120753273D01*
X56187797Y-120134226D01*
%TO.C,D35*%
X75571130Y-122658035D02*
X74571130Y-122658035D01*
X74571130Y-122419940D01*
X74618750Y-122277083D01*
X74713988Y-122181845D01*
X74809226Y-122134226D01*
X74999702Y-122086607D01*
X75142559Y-122086607D01*
X75333035Y-122134226D01*
X75428273Y-122181845D01*
X75523511Y-122277083D01*
X75571130Y-122419940D01*
X75571130Y-122658035D01*
X74571130Y-121753273D02*
X74571130Y-121134226D01*
X74952083Y-121467559D01*
X74952083Y-121324702D01*
X74999702Y-121229464D01*
X75047321Y-121181845D01*
X75142559Y-121134226D01*
X75380654Y-121134226D01*
X75475892Y-121181845D01*
X75523511Y-121229464D01*
X75571130Y-121324702D01*
X75571130Y-121610416D01*
X75523511Y-121705654D01*
X75475892Y-121753273D01*
X74571130Y-120229464D02*
X74571130Y-120705654D01*
X75047321Y-120753273D01*
X74999702Y-120705654D01*
X74952083Y-120610416D01*
X74952083Y-120372321D01*
X74999702Y-120277083D01*
X75047321Y-120229464D01*
X75142559Y-120181845D01*
X75380654Y-120181845D01*
X75475892Y-120229464D01*
X75523511Y-120277083D01*
X75571130Y-120372321D01*
X75571130Y-120610416D01*
X75523511Y-120705654D01*
X75475892Y-120753273D01*
%TO.C,D36*%
X94621130Y-122658035D02*
X93621130Y-122658035D01*
X93621130Y-122419940D01*
X93668750Y-122277083D01*
X93763988Y-122181845D01*
X93859226Y-122134226D01*
X94049702Y-122086607D01*
X94192559Y-122086607D01*
X94383035Y-122134226D01*
X94478273Y-122181845D01*
X94573511Y-122277083D01*
X94621130Y-122419940D01*
X94621130Y-122658035D01*
X93621130Y-121753273D02*
X93621130Y-121134226D01*
X94002083Y-121467559D01*
X94002083Y-121324702D01*
X94049702Y-121229464D01*
X94097321Y-121181845D01*
X94192559Y-121134226D01*
X94430654Y-121134226D01*
X94525892Y-121181845D01*
X94573511Y-121229464D01*
X94621130Y-121324702D01*
X94621130Y-121610416D01*
X94573511Y-121705654D01*
X94525892Y-121753273D01*
X93621130Y-120277083D02*
X93621130Y-120467559D01*
X93668750Y-120562797D01*
X93716369Y-120610416D01*
X93859226Y-120705654D01*
X94049702Y-120753273D01*
X94430654Y-120753273D01*
X94525892Y-120705654D01*
X94573511Y-120658035D01*
X94621130Y-120562797D01*
X94621130Y-120372321D01*
X94573511Y-120277083D01*
X94525892Y-120229464D01*
X94430654Y-120181845D01*
X94192559Y-120181845D01*
X94097321Y-120229464D01*
X94049702Y-120277083D01*
X94002083Y-120372321D01*
X94002083Y-120562797D01*
X94049702Y-120658035D01*
X94097321Y-120705654D01*
X94192559Y-120753273D01*
%TO.C,D37*%
X113671130Y-122658035D02*
X112671130Y-122658035D01*
X112671130Y-122419940D01*
X112718750Y-122277083D01*
X112813988Y-122181845D01*
X112909226Y-122134226D01*
X113099702Y-122086607D01*
X113242559Y-122086607D01*
X113433035Y-122134226D01*
X113528273Y-122181845D01*
X113623511Y-122277083D01*
X113671130Y-122419940D01*
X113671130Y-122658035D01*
X112671130Y-121753273D02*
X112671130Y-121134226D01*
X113052083Y-121467559D01*
X113052083Y-121324702D01*
X113099702Y-121229464D01*
X113147321Y-121181845D01*
X113242559Y-121134226D01*
X113480654Y-121134226D01*
X113575892Y-121181845D01*
X113623511Y-121229464D01*
X113671130Y-121324702D01*
X113671130Y-121610416D01*
X113623511Y-121705654D01*
X113575892Y-121753273D01*
X112671130Y-120800892D02*
X112671130Y-120134226D01*
X113671130Y-120562797D01*
%TO.C,D38*%
X132721130Y-122658035D02*
X131721130Y-122658035D01*
X131721130Y-122419940D01*
X131768750Y-122277083D01*
X131863988Y-122181845D01*
X131959226Y-122134226D01*
X132149702Y-122086607D01*
X132292559Y-122086607D01*
X132483035Y-122134226D01*
X132578273Y-122181845D01*
X132673511Y-122277083D01*
X132721130Y-122419940D01*
X132721130Y-122658035D01*
X131721130Y-121753273D02*
X131721130Y-121134226D01*
X132102083Y-121467559D01*
X132102083Y-121324702D01*
X132149702Y-121229464D01*
X132197321Y-121181845D01*
X132292559Y-121134226D01*
X132530654Y-121134226D01*
X132625892Y-121181845D01*
X132673511Y-121229464D01*
X132721130Y-121324702D01*
X132721130Y-121610416D01*
X132673511Y-121705654D01*
X132625892Y-121753273D01*
X132149702Y-120562797D02*
X132102083Y-120658035D01*
X132054464Y-120705654D01*
X131959226Y-120753273D01*
X131911607Y-120753273D01*
X131816369Y-120705654D01*
X131768750Y-120658035D01*
X131721130Y-120562797D01*
X131721130Y-120372321D01*
X131768750Y-120277083D01*
X131816369Y-120229464D01*
X131911607Y-120181845D01*
X131959226Y-120181845D01*
X132054464Y-120229464D01*
X132102083Y-120277083D01*
X132149702Y-120372321D01*
X132149702Y-120562797D01*
X132197321Y-120658035D01*
X132244940Y-120705654D01*
X132340178Y-120753273D01*
X132530654Y-120753273D01*
X132625892Y-120705654D01*
X132673511Y-120658035D01*
X132721130Y-120562797D01*
X132721130Y-120372321D01*
X132673511Y-120277083D01*
X132625892Y-120229464D01*
X132530654Y-120181845D01*
X132340178Y-120181845D01*
X132244940Y-120229464D01*
X132197321Y-120277083D01*
X132149702Y-120372321D01*
%TO.C,D39*%
X151771130Y-122658035D02*
X150771130Y-122658035D01*
X150771130Y-122419940D01*
X150818750Y-122277083D01*
X150913988Y-122181845D01*
X151009226Y-122134226D01*
X151199702Y-122086607D01*
X151342559Y-122086607D01*
X151533035Y-122134226D01*
X151628273Y-122181845D01*
X151723511Y-122277083D01*
X151771130Y-122419940D01*
X151771130Y-122658035D01*
X150771130Y-121753273D02*
X150771130Y-121134226D01*
X151152083Y-121467559D01*
X151152083Y-121324702D01*
X151199702Y-121229464D01*
X151247321Y-121181845D01*
X151342559Y-121134226D01*
X151580654Y-121134226D01*
X151675892Y-121181845D01*
X151723511Y-121229464D01*
X151771130Y-121324702D01*
X151771130Y-121610416D01*
X151723511Y-121705654D01*
X151675892Y-121753273D01*
X151771130Y-120658035D02*
X151771130Y-120467559D01*
X151723511Y-120372321D01*
X151675892Y-120324702D01*
X151533035Y-120229464D01*
X151342559Y-120181845D01*
X150961607Y-120181845D01*
X150866369Y-120229464D01*
X150818750Y-120277083D01*
X150771130Y-120372321D01*
X150771130Y-120562797D01*
X150818750Y-120658035D01*
X150866369Y-120705654D01*
X150961607Y-120753273D01*
X151199702Y-120753273D01*
X151294940Y-120705654D01*
X151342559Y-120658035D01*
X151390178Y-120562797D01*
X151390178Y-120372321D01*
X151342559Y-120277083D01*
X151294940Y-120229464D01*
X151199702Y-120181845D01*
%TO.C,D40*%
X170821130Y-122658035D02*
X169821130Y-122658035D01*
X169821130Y-122419940D01*
X169868750Y-122277083D01*
X169963988Y-122181845D01*
X170059226Y-122134226D01*
X170249702Y-122086607D01*
X170392559Y-122086607D01*
X170583035Y-122134226D01*
X170678273Y-122181845D01*
X170773511Y-122277083D01*
X170821130Y-122419940D01*
X170821130Y-122658035D01*
X170154464Y-121229464D02*
X170821130Y-121229464D01*
X169773511Y-121467559D02*
X170487797Y-121705654D01*
X170487797Y-121086607D01*
X169821130Y-120515178D02*
X169821130Y-120419940D01*
X169868750Y-120324702D01*
X169916369Y-120277083D01*
X170011607Y-120229464D01*
X170202083Y-120181845D01*
X170440178Y-120181845D01*
X170630654Y-120229464D01*
X170725892Y-120277083D01*
X170773511Y-120324702D01*
X170821130Y-120419940D01*
X170821130Y-120515178D01*
X170773511Y-120610416D01*
X170725892Y-120658035D01*
X170630654Y-120705654D01*
X170440178Y-120753273D01*
X170202083Y-120753273D01*
X170011607Y-120705654D01*
X169916369Y-120658035D01*
X169868750Y-120610416D01*
X169821130Y-120515178D01*
%TO.C,D41*%
X189871130Y-122658035D02*
X188871130Y-122658035D01*
X188871130Y-122419940D01*
X188918750Y-122277083D01*
X189013988Y-122181845D01*
X189109226Y-122134226D01*
X189299702Y-122086607D01*
X189442559Y-122086607D01*
X189633035Y-122134226D01*
X189728273Y-122181845D01*
X189823511Y-122277083D01*
X189871130Y-122419940D01*
X189871130Y-122658035D01*
X189204464Y-121229464D02*
X189871130Y-121229464D01*
X188823511Y-121467559D02*
X189537797Y-121705654D01*
X189537797Y-121086607D01*
X189871130Y-120181845D02*
X189871130Y-120753273D01*
X189871130Y-120467559D02*
X188871130Y-120467559D01*
X189013988Y-120562797D01*
X189109226Y-120658035D01*
X189156845Y-120753273D01*
%TO.C,D42*%
X208921130Y-122658035D02*
X207921130Y-122658035D01*
X207921130Y-122419940D01*
X207968750Y-122277083D01*
X208063988Y-122181845D01*
X208159226Y-122134226D01*
X208349702Y-122086607D01*
X208492559Y-122086607D01*
X208683035Y-122134226D01*
X208778273Y-122181845D01*
X208873511Y-122277083D01*
X208921130Y-122419940D01*
X208921130Y-122658035D01*
X208254464Y-121229464D02*
X208921130Y-121229464D01*
X207873511Y-121467559D02*
X208587797Y-121705654D01*
X208587797Y-121086607D01*
X208016369Y-120753273D02*
X207968750Y-120705654D01*
X207921130Y-120610416D01*
X207921130Y-120372321D01*
X207968750Y-120277083D01*
X208016369Y-120229464D01*
X208111607Y-120181845D01*
X208206845Y-120181845D01*
X208349702Y-120229464D01*
X208921130Y-120800892D01*
X208921130Y-120181845D01*
%TO.C,D43*%
X227971130Y-122658035D02*
X226971130Y-122658035D01*
X226971130Y-122419940D01*
X227018750Y-122277083D01*
X227113988Y-122181845D01*
X227209226Y-122134226D01*
X227399702Y-122086607D01*
X227542559Y-122086607D01*
X227733035Y-122134226D01*
X227828273Y-122181845D01*
X227923511Y-122277083D01*
X227971130Y-122419940D01*
X227971130Y-122658035D01*
X227304464Y-121229464D02*
X227971130Y-121229464D01*
X226923511Y-121467559D02*
X227637797Y-121705654D01*
X227637797Y-121086607D01*
X226971130Y-120800892D02*
X226971130Y-120181845D01*
X227352083Y-120515178D01*
X227352083Y-120372321D01*
X227399702Y-120277083D01*
X227447321Y-120229464D01*
X227542559Y-120181845D01*
X227780654Y-120181845D01*
X227875892Y-120229464D01*
X227923511Y-120277083D01*
X227971130Y-120372321D01*
X227971130Y-120658035D01*
X227923511Y-120753273D01*
X227875892Y-120800892D01*
%TO.C,D44*%
X247021130Y-122658035D02*
X246021130Y-122658035D01*
X246021130Y-122419940D01*
X246068750Y-122277083D01*
X246163988Y-122181845D01*
X246259226Y-122134226D01*
X246449702Y-122086607D01*
X246592559Y-122086607D01*
X246783035Y-122134226D01*
X246878273Y-122181845D01*
X246973511Y-122277083D01*
X247021130Y-122419940D01*
X247021130Y-122658035D01*
X246354464Y-121229464D02*
X247021130Y-121229464D01*
X245973511Y-121467559D02*
X246687797Y-121705654D01*
X246687797Y-121086607D01*
X246354464Y-120277083D02*
X247021130Y-120277083D01*
X245973511Y-120515178D02*
X246687797Y-120753273D01*
X246687797Y-120134226D01*
%TO.C,D45*%
X266071130Y-122658035D02*
X265071130Y-122658035D01*
X265071130Y-122419940D01*
X265118750Y-122277083D01*
X265213988Y-122181845D01*
X265309226Y-122134226D01*
X265499702Y-122086607D01*
X265642559Y-122086607D01*
X265833035Y-122134226D01*
X265928273Y-122181845D01*
X266023511Y-122277083D01*
X266071130Y-122419940D01*
X266071130Y-122658035D01*
X265404464Y-121229464D02*
X266071130Y-121229464D01*
X265023511Y-121467559D02*
X265737797Y-121705654D01*
X265737797Y-121086607D01*
X265071130Y-120229464D02*
X265071130Y-120705654D01*
X265547321Y-120753273D01*
X265499702Y-120705654D01*
X265452083Y-120610416D01*
X265452083Y-120372321D01*
X265499702Y-120277083D01*
X265547321Y-120229464D01*
X265642559Y-120181845D01*
X265880654Y-120181845D01*
X265975892Y-120229464D01*
X266023511Y-120277083D01*
X266071130Y-120372321D01*
X266071130Y-120610416D01*
X266023511Y-120705654D01*
X265975892Y-120753273D01*
%TO.C,D46*%
X285121130Y-122658035D02*
X284121130Y-122658035D01*
X284121130Y-122419940D01*
X284168750Y-122277083D01*
X284263988Y-122181845D01*
X284359226Y-122134226D01*
X284549702Y-122086607D01*
X284692559Y-122086607D01*
X284883035Y-122134226D01*
X284978273Y-122181845D01*
X285073511Y-122277083D01*
X285121130Y-122419940D01*
X285121130Y-122658035D01*
X284454464Y-121229464D02*
X285121130Y-121229464D01*
X284073511Y-121467559D02*
X284787797Y-121705654D01*
X284787797Y-121086607D01*
X284121130Y-120277083D02*
X284121130Y-120467559D01*
X284168750Y-120562797D01*
X284216369Y-120610416D01*
X284359226Y-120705654D01*
X284549702Y-120753273D01*
X284930654Y-120753273D01*
X285025892Y-120705654D01*
X285073511Y-120658035D01*
X285121130Y-120562797D01*
X285121130Y-120372321D01*
X285073511Y-120277083D01*
X285025892Y-120229464D01*
X284930654Y-120181845D01*
X284692559Y-120181845D01*
X284597321Y-120229464D01*
X284549702Y-120277083D01*
X284502083Y-120372321D01*
X284502083Y-120562797D01*
X284549702Y-120658035D01*
X284597321Y-120705654D01*
X284692559Y-120753273D01*
%TO.C,D47*%
X304171130Y-122658035D02*
X303171130Y-122658035D01*
X303171130Y-122419940D01*
X303218750Y-122277083D01*
X303313988Y-122181845D01*
X303409226Y-122134226D01*
X303599702Y-122086607D01*
X303742559Y-122086607D01*
X303933035Y-122134226D01*
X304028273Y-122181845D01*
X304123511Y-122277083D01*
X304171130Y-122419940D01*
X304171130Y-122658035D01*
X303504464Y-121229464D02*
X304171130Y-121229464D01*
X303123511Y-121467559D02*
X303837797Y-121705654D01*
X303837797Y-121086607D01*
X303171130Y-120800892D02*
X303171130Y-120134226D01*
X304171130Y-120562797D01*
%TO.C,D48*%
X323221130Y-122658035D02*
X322221130Y-122658035D01*
X322221130Y-122419940D01*
X322268750Y-122277083D01*
X322363988Y-122181845D01*
X322459226Y-122134226D01*
X322649702Y-122086607D01*
X322792559Y-122086607D01*
X322983035Y-122134226D01*
X323078273Y-122181845D01*
X323173511Y-122277083D01*
X323221130Y-122419940D01*
X323221130Y-122658035D01*
X322554464Y-121229464D02*
X323221130Y-121229464D01*
X322173511Y-121467559D02*
X322887797Y-121705654D01*
X322887797Y-121086607D01*
X322649702Y-120562797D02*
X322602083Y-120658035D01*
X322554464Y-120705654D01*
X322459226Y-120753273D01*
X322411607Y-120753273D01*
X322316369Y-120705654D01*
X322268750Y-120658035D01*
X322221130Y-120562797D01*
X322221130Y-120372321D01*
X322268750Y-120277083D01*
X322316369Y-120229464D01*
X322411607Y-120181845D01*
X322459226Y-120181845D01*
X322554464Y-120229464D01*
X322602083Y-120277083D01*
X322649702Y-120372321D01*
X322649702Y-120562797D01*
X322697321Y-120658035D01*
X322744940Y-120705654D01*
X322840178Y-120753273D01*
X323030654Y-120753273D01*
X323125892Y-120705654D01*
X323173511Y-120658035D01*
X323221130Y-120562797D01*
X323221130Y-120372321D01*
X323173511Y-120277083D01*
X323125892Y-120229464D01*
X323030654Y-120181845D01*
X322840178Y-120181845D01*
X322744940Y-120229464D01*
X322697321Y-120277083D01*
X322649702Y-120372321D01*
%TO.C,D49*%
X37471130Y-141708035D02*
X36471130Y-141708035D01*
X36471130Y-141469940D01*
X36518750Y-141327083D01*
X36613988Y-141231845D01*
X36709226Y-141184226D01*
X36899702Y-141136607D01*
X37042559Y-141136607D01*
X37233035Y-141184226D01*
X37328273Y-141231845D01*
X37423511Y-141327083D01*
X37471130Y-141469940D01*
X37471130Y-141708035D01*
X36804464Y-140279464D02*
X37471130Y-140279464D01*
X36423511Y-140517559D02*
X37137797Y-140755654D01*
X37137797Y-140136607D01*
X37471130Y-139708035D02*
X37471130Y-139517559D01*
X37423511Y-139422321D01*
X37375892Y-139374702D01*
X37233035Y-139279464D01*
X37042559Y-139231845D01*
X36661607Y-139231845D01*
X36566369Y-139279464D01*
X36518750Y-139327083D01*
X36471130Y-139422321D01*
X36471130Y-139612797D01*
X36518750Y-139708035D01*
X36566369Y-139755654D01*
X36661607Y-139803273D01*
X36899702Y-139803273D01*
X36994940Y-139755654D01*
X37042559Y-139708035D01*
X37090178Y-139612797D01*
X37090178Y-139422321D01*
X37042559Y-139327083D01*
X36994940Y-139279464D01*
X36899702Y-139231845D01*
%TO.C,D50*%
X56521130Y-141708035D02*
X55521130Y-141708035D01*
X55521130Y-141469940D01*
X55568750Y-141327083D01*
X55663988Y-141231845D01*
X55759226Y-141184226D01*
X55949702Y-141136607D01*
X56092559Y-141136607D01*
X56283035Y-141184226D01*
X56378273Y-141231845D01*
X56473511Y-141327083D01*
X56521130Y-141469940D01*
X56521130Y-141708035D01*
X55521130Y-140231845D02*
X55521130Y-140708035D01*
X55997321Y-140755654D01*
X55949702Y-140708035D01*
X55902083Y-140612797D01*
X55902083Y-140374702D01*
X55949702Y-140279464D01*
X55997321Y-140231845D01*
X56092559Y-140184226D01*
X56330654Y-140184226D01*
X56425892Y-140231845D01*
X56473511Y-140279464D01*
X56521130Y-140374702D01*
X56521130Y-140612797D01*
X56473511Y-140708035D01*
X56425892Y-140755654D01*
X55521130Y-139565178D02*
X55521130Y-139469940D01*
X55568750Y-139374702D01*
X55616369Y-139327083D01*
X55711607Y-139279464D01*
X55902083Y-139231845D01*
X56140178Y-139231845D01*
X56330654Y-139279464D01*
X56425892Y-139327083D01*
X56473511Y-139374702D01*
X56521130Y-139469940D01*
X56521130Y-139565178D01*
X56473511Y-139660416D01*
X56425892Y-139708035D01*
X56330654Y-139755654D01*
X56140178Y-139803273D01*
X55902083Y-139803273D01*
X55711607Y-139755654D01*
X55616369Y-139708035D01*
X55568750Y-139660416D01*
X55521130Y-139565178D01*
%TO.C,D51*%
X75571130Y-141708035D02*
X74571130Y-141708035D01*
X74571130Y-141469940D01*
X74618750Y-141327083D01*
X74713988Y-141231845D01*
X74809226Y-141184226D01*
X74999702Y-141136607D01*
X75142559Y-141136607D01*
X75333035Y-141184226D01*
X75428273Y-141231845D01*
X75523511Y-141327083D01*
X75571130Y-141469940D01*
X75571130Y-141708035D01*
X74571130Y-140231845D02*
X74571130Y-140708035D01*
X75047321Y-140755654D01*
X74999702Y-140708035D01*
X74952083Y-140612797D01*
X74952083Y-140374702D01*
X74999702Y-140279464D01*
X75047321Y-140231845D01*
X75142559Y-140184226D01*
X75380654Y-140184226D01*
X75475892Y-140231845D01*
X75523511Y-140279464D01*
X75571130Y-140374702D01*
X75571130Y-140612797D01*
X75523511Y-140708035D01*
X75475892Y-140755654D01*
X75571130Y-139231845D02*
X75571130Y-139803273D01*
X75571130Y-139517559D02*
X74571130Y-139517559D01*
X74713988Y-139612797D01*
X74809226Y-139708035D01*
X74856845Y-139803273D01*
%TO.C,D52*%
X94621130Y-141708035D02*
X93621130Y-141708035D01*
X93621130Y-141469940D01*
X93668750Y-141327083D01*
X93763988Y-141231845D01*
X93859226Y-141184226D01*
X94049702Y-141136607D01*
X94192559Y-141136607D01*
X94383035Y-141184226D01*
X94478273Y-141231845D01*
X94573511Y-141327083D01*
X94621130Y-141469940D01*
X94621130Y-141708035D01*
X93621130Y-140231845D02*
X93621130Y-140708035D01*
X94097321Y-140755654D01*
X94049702Y-140708035D01*
X94002083Y-140612797D01*
X94002083Y-140374702D01*
X94049702Y-140279464D01*
X94097321Y-140231845D01*
X94192559Y-140184226D01*
X94430654Y-140184226D01*
X94525892Y-140231845D01*
X94573511Y-140279464D01*
X94621130Y-140374702D01*
X94621130Y-140612797D01*
X94573511Y-140708035D01*
X94525892Y-140755654D01*
X93716369Y-139803273D02*
X93668750Y-139755654D01*
X93621130Y-139660416D01*
X93621130Y-139422321D01*
X93668750Y-139327083D01*
X93716369Y-139279464D01*
X93811607Y-139231845D01*
X93906845Y-139231845D01*
X94049702Y-139279464D01*
X94621130Y-139850892D01*
X94621130Y-139231845D01*
%TO.C,D53*%
X113671130Y-141708035D02*
X112671130Y-141708035D01*
X112671130Y-141469940D01*
X112718750Y-141327083D01*
X112813988Y-141231845D01*
X112909226Y-141184226D01*
X113099702Y-141136607D01*
X113242559Y-141136607D01*
X113433035Y-141184226D01*
X113528273Y-141231845D01*
X113623511Y-141327083D01*
X113671130Y-141469940D01*
X113671130Y-141708035D01*
X112671130Y-140231845D02*
X112671130Y-140708035D01*
X113147321Y-140755654D01*
X113099702Y-140708035D01*
X113052083Y-140612797D01*
X113052083Y-140374702D01*
X113099702Y-140279464D01*
X113147321Y-140231845D01*
X113242559Y-140184226D01*
X113480654Y-140184226D01*
X113575892Y-140231845D01*
X113623511Y-140279464D01*
X113671130Y-140374702D01*
X113671130Y-140612797D01*
X113623511Y-140708035D01*
X113575892Y-140755654D01*
X112671130Y-139850892D02*
X112671130Y-139231845D01*
X113052083Y-139565178D01*
X113052083Y-139422321D01*
X113099702Y-139327083D01*
X113147321Y-139279464D01*
X113242559Y-139231845D01*
X113480654Y-139231845D01*
X113575892Y-139279464D01*
X113623511Y-139327083D01*
X113671130Y-139422321D01*
X113671130Y-139708035D01*
X113623511Y-139803273D01*
X113575892Y-139850892D01*
%TO.C,D54*%
X132721130Y-141708035D02*
X131721130Y-141708035D01*
X131721130Y-141469940D01*
X131768750Y-141327083D01*
X131863988Y-141231845D01*
X131959226Y-141184226D01*
X132149702Y-141136607D01*
X132292559Y-141136607D01*
X132483035Y-141184226D01*
X132578273Y-141231845D01*
X132673511Y-141327083D01*
X132721130Y-141469940D01*
X132721130Y-141708035D01*
X131721130Y-140231845D02*
X131721130Y-140708035D01*
X132197321Y-140755654D01*
X132149702Y-140708035D01*
X132102083Y-140612797D01*
X132102083Y-140374702D01*
X132149702Y-140279464D01*
X132197321Y-140231845D01*
X132292559Y-140184226D01*
X132530654Y-140184226D01*
X132625892Y-140231845D01*
X132673511Y-140279464D01*
X132721130Y-140374702D01*
X132721130Y-140612797D01*
X132673511Y-140708035D01*
X132625892Y-140755654D01*
X132054464Y-139327083D02*
X132721130Y-139327083D01*
X131673511Y-139565178D02*
X132387797Y-139803273D01*
X132387797Y-139184226D01*
%TO.C,D55*%
X151771130Y-141708035D02*
X150771130Y-141708035D01*
X150771130Y-141469940D01*
X150818750Y-141327083D01*
X150913988Y-141231845D01*
X151009226Y-141184226D01*
X151199702Y-141136607D01*
X151342559Y-141136607D01*
X151533035Y-141184226D01*
X151628273Y-141231845D01*
X151723511Y-141327083D01*
X151771130Y-141469940D01*
X151771130Y-141708035D01*
X150771130Y-140231845D02*
X150771130Y-140708035D01*
X151247321Y-140755654D01*
X151199702Y-140708035D01*
X151152083Y-140612797D01*
X151152083Y-140374702D01*
X151199702Y-140279464D01*
X151247321Y-140231845D01*
X151342559Y-140184226D01*
X151580654Y-140184226D01*
X151675892Y-140231845D01*
X151723511Y-140279464D01*
X151771130Y-140374702D01*
X151771130Y-140612797D01*
X151723511Y-140708035D01*
X151675892Y-140755654D01*
X150771130Y-139279464D02*
X150771130Y-139755654D01*
X151247321Y-139803273D01*
X151199702Y-139755654D01*
X151152083Y-139660416D01*
X151152083Y-139422321D01*
X151199702Y-139327083D01*
X151247321Y-139279464D01*
X151342559Y-139231845D01*
X151580654Y-139231845D01*
X151675892Y-139279464D01*
X151723511Y-139327083D01*
X151771130Y-139422321D01*
X151771130Y-139660416D01*
X151723511Y-139755654D01*
X151675892Y-139803273D01*
%TO.C,D56*%
X170821130Y-141708035D02*
X169821130Y-141708035D01*
X169821130Y-141469940D01*
X169868750Y-141327083D01*
X169963988Y-141231845D01*
X170059226Y-141184226D01*
X170249702Y-141136607D01*
X170392559Y-141136607D01*
X170583035Y-141184226D01*
X170678273Y-141231845D01*
X170773511Y-141327083D01*
X170821130Y-141469940D01*
X170821130Y-141708035D01*
X169821130Y-140231845D02*
X169821130Y-140708035D01*
X170297321Y-140755654D01*
X170249702Y-140708035D01*
X170202083Y-140612797D01*
X170202083Y-140374702D01*
X170249702Y-140279464D01*
X170297321Y-140231845D01*
X170392559Y-140184226D01*
X170630654Y-140184226D01*
X170725892Y-140231845D01*
X170773511Y-140279464D01*
X170821130Y-140374702D01*
X170821130Y-140612797D01*
X170773511Y-140708035D01*
X170725892Y-140755654D01*
X169821130Y-139327083D02*
X169821130Y-139517559D01*
X169868750Y-139612797D01*
X169916369Y-139660416D01*
X170059226Y-139755654D01*
X170249702Y-139803273D01*
X170630654Y-139803273D01*
X170725892Y-139755654D01*
X170773511Y-139708035D01*
X170821130Y-139612797D01*
X170821130Y-139422321D01*
X170773511Y-139327083D01*
X170725892Y-139279464D01*
X170630654Y-139231845D01*
X170392559Y-139231845D01*
X170297321Y-139279464D01*
X170249702Y-139327083D01*
X170202083Y-139422321D01*
X170202083Y-139612797D01*
X170249702Y-139708035D01*
X170297321Y-139755654D01*
X170392559Y-139803273D01*
%TO.C,D57*%
X189871130Y-141708035D02*
X188871130Y-141708035D01*
X188871130Y-141469940D01*
X188918750Y-141327083D01*
X189013988Y-141231845D01*
X189109226Y-141184226D01*
X189299702Y-141136607D01*
X189442559Y-141136607D01*
X189633035Y-141184226D01*
X189728273Y-141231845D01*
X189823511Y-141327083D01*
X189871130Y-141469940D01*
X189871130Y-141708035D01*
X188871130Y-140231845D02*
X188871130Y-140708035D01*
X189347321Y-140755654D01*
X189299702Y-140708035D01*
X189252083Y-140612797D01*
X189252083Y-140374702D01*
X189299702Y-140279464D01*
X189347321Y-140231845D01*
X189442559Y-140184226D01*
X189680654Y-140184226D01*
X189775892Y-140231845D01*
X189823511Y-140279464D01*
X189871130Y-140374702D01*
X189871130Y-140612797D01*
X189823511Y-140708035D01*
X189775892Y-140755654D01*
X188871130Y-139850892D02*
X188871130Y-139184226D01*
X189871130Y-139612797D01*
%TO.C,D58*%
X208921130Y-141708035D02*
X207921130Y-141708035D01*
X207921130Y-141469940D01*
X207968750Y-141327083D01*
X208063988Y-141231845D01*
X208159226Y-141184226D01*
X208349702Y-141136607D01*
X208492559Y-141136607D01*
X208683035Y-141184226D01*
X208778273Y-141231845D01*
X208873511Y-141327083D01*
X208921130Y-141469940D01*
X208921130Y-141708035D01*
X207921130Y-140231845D02*
X207921130Y-140708035D01*
X208397321Y-140755654D01*
X208349702Y-140708035D01*
X208302083Y-140612797D01*
X208302083Y-140374702D01*
X208349702Y-140279464D01*
X208397321Y-140231845D01*
X208492559Y-140184226D01*
X208730654Y-140184226D01*
X208825892Y-140231845D01*
X208873511Y-140279464D01*
X208921130Y-140374702D01*
X208921130Y-140612797D01*
X208873511Y-140708035D01*
X208825892Y-140755654D01*
X208349702Y-139612797D02*
X208302083Y-139708035D01*
X208254464Y-139755654D01*
X208159226Y-139803273D01*
X208111607Y-139803273D01*
X208016369Y-139755654D01*
X207968750Y-139708035D01*
X207921130Y-139612797D01*
X207921130Y-139422321D01*
X207968750Y-139327083D01*
X208016369Y-139279464D01*
X208111607Y-139231845D01*
X208159226Y-139231845D01*
X208254464Y-139279464D01*
X208302083Y-139327083D01*
X208349702Y-139422321D01*
X208349702Y-139612797D01*
X208397321Y-139708035D01*
X208444940Y-139755654D01*
X208540178Y-139803273D01*
X208730654Y-139803273D01*
X208825892Y-139755654D01*
X208873511Y-139708035D01*
X208921130Y-139612797D01*
X208921130Y-139422321D01*
X208873511Y-139327083D01*
X208825892Y-139279464D01*
X208730654Y-139231845D01*
X208540178Y-139231845D01*
X208444940Y-139279464D01*
X208397321Y-139327083D01*
X208349702Y-139422321D01*
%TO.C,D59*%
X227971130Y-141708035D02*
X226971130Y-141708035D01*
X226971130Y-141469940D01*
X227018750Y-141327083D01*
X227113988Y-141231845D01*
X227209226Y-141184226D01*
X227399702Y-141136607D01*
X227542559Y-141136607D01*
X227733035Y-141184226D01*
X227828273Y-141231845D01*
X227923511Y-141327083D01*
X227971130Y-141469940D01*
X227971130Y-141708035D01*
X226971130Y-140231845D02*
X226971130Y-140708035D01*
X227447321Y-140755654D01*
X227399702Y-140708035D01*
X227352083Y-140612797D01*
X227352083Y-140374702D01*
X227399702Y-140279464D01*
X227447321Y-140231845D01*
X227542559Y-140184226D01*
X227780654Y-140184226D01*
X227875892Y-140231845D01*
X227923511Y-140279464D01*
X227971130Y-140374702D01*
X227971130Y-140612797D01*
X227923511Y-140708035D01*
X227875892Y-140755654D01*
X227971130Y-139708035D02*
X227971130Y-139517559D01*
X227923511Y-139422321D01*
X227875892Y-139374702D01*
X227733035Y-139279464D01*
X227542559Y-139231845D01*
X227161607Y-139231845D01*
X227066369Y-139279464D01*
X227018750Y-139327083D01*
X226971130Y-139422321D01*
X226971130Y-139612797D01*
X227018750Y-139708035D01*
X227066369Y-139755654D01*
X227161607Y-139803273D01*
X227399702Y-139803273D01*
X227494940Y-139755654D01*
X227542559Y-139708035D01*
X227590178Y-139612797D01*
X227590178Y-139422321D01*
X227542559Y-139327083D01*
X227494940Y-139279464D01*
X227399702Y-139231845D01*
%TO.C,D60*%
X247021130Y-141708035D02*
X246021130Y-141708035D01*
X246021130Y-141469940D01*
X246068750Y-141327083D01*
X246163988Y-141231845D01*
X246259226Y-141184226D01*
X246449702Y-141136607D01*
X246592559Y-141136607D01*
X246783035Y-141184226D01*
X246878273Y-141231845D01*
X246973511Y-141327083D01*
X247021130Y-141469940D01*
X247021130Y-141708035D01*
X246021130Y-140279464D02*
X246021130Y-140469940D01*
X246068750Y-140565178D01*
X246116369Y-140612797D01*
X246259226Y-140708035D01*
X246449702Y-140755654D01*
X246830654Y-140755654D01*
X246925892Y-140708035D01*
X246973511Y-140660416D01*
X247021130Y-140565178D01*
X247021130Y-140374702D01*
X246973511Y-140279464D01*
X246925892Y-140231845D01*
X246830654Y-140184226D01*
X246592559Y-140184226D01*
X246497321Y-140231845D01*
X246449702Y-140279464D01*
X246402083Y-140374702D01*
X246402083Y-140565178D01*
X246449702Y-140660416D01*
X246497321Y-140708035D01*
X246592559Y-140755654D01*
X246021130Y-139565178D02*
X246021130Y-139469940D01*
X246068750Y-139374702D01*
X246116369Y-139327083D01*
X246211607Y-139279464D01*
X246402083Y-139231845D01*
X246640178Y-139231845D01*
X246830654Y-139279464D01*
X246925892Y-139327083D01*
X246973511Y-139374702D01*
X247021130Y-139469940D01*
X247021130Y-139565178D01*
X246973511Y-139660416D01*
X246925892Y-139708035D01*
X246830654Y-139755654D01*
X246640178Y-139803273D01*
X246402083Y-139803273D01*
X246211607Y-139755654D01*
X246116369Y-139708035D01*
X246068750Y-139660416D01*
X246021130Y-139565178D01*
%TO.C,D61*%
X266071130Y-141708035D02*
X265071130Y-141708035D01*
X265071130Y-141469940D01*
X265118750Y-141327083D01*
X265213988Y-141231845D01*
X265309226Y-141184226D01*
X265499702Y-141136607D01*
X265642559Y-141136607D01*
X265833035Y-141184226D01*
X265928273Y-141231845D01*
X266023511Y-141327083D01*
X266071130Y-141469940D01*
X266071130Y-141708035D01*
X265071130Y-140279464D02*
X265071130Y-140469940D01*
X265118750Y-140565178D01*
X265166369Y-140612797D01*
X265309226Y-140708035D01*
X265499702Y-140755654D01*
X265880654Y-140755654D01*
X265975892Y-140708035D01*
X266023511Y-140660416D01*
X266071130Y-140565178D01*
X266071130Y-140374702D01*
X266023511Y-140279464D01*
X265975892Y-140231845D01*
X265880654Y-140184226D01*
X265642559Y-140184226D01*
X265547321Y-140231845D01*
X265499702Y-140279464D01*
X265452083Y-140374702D01*
X265452083Y-140565178D01*
X265499702Y-140660416D01*
X265547321Y-140708035D01*
X265642559Y-140755654D01*
X266071130Y-139231845D02*
X266071130Y-139803273D01*
X266071130Y-139517559D02*
X265071130Y-139517559D01*
X265213988Y-139612797D01*
X265309226Y-139708035D01*
X265356845Y-139803273D01*
%TO.C,D62*%
X285121130Y-141708035D02*
X284121130Y-141708035D01*
X284121130Y-141469940D01*
X284168750Y-141327083D01*
X284263988Y-141231845D01*
X284359226Y-141184226D01*
X284549702Y-141136607D01*
X284692559Y-141136607D01*
X284883035Y-141184226D01*
X284978273Y-141231845D01*
X285073511Y-141327083D01*
X285121130Y-141469940D01*
X285121130Y-141708035D01*
X284121130Y-140279464D02*
X284121130Y-140469940D01*
X284168750Y-140565178D01*
X284216369Y-140612797D01*
X284359226Y-140708035D01*
X284549702Y-140755654D01*
X284930654Y-140755654D01*
X285025892Y-140708035D01*
X285073511Y-140660416D01*
X285121130Y-140565178D01*
X285121130Y-140374702D01*
X285073511Y-140279464D01*
X285025892Y-140231845D01*
X284930654Y-140184226D01*
X284692559Y-140184226D01*
X284597321Y-140231845D01*
X284549702Y-140279464D01*
X284502083Y-140374702D01*
X284502083Y-140565178D01*
X284549702Y-140660416D01*
X284597321Y-140708035D01*
X284692559Y-140755654D01*
X284216369Y-139803273D02*
X284168750Y-139755654D01*
X284121130Y-139660416D01*
X284121130Y-139422321D01*
X284168750Y-139327083D01*
X284216369Y-139279464D01*
X284311607Y-139231845D01*
X284406845Y-139231845D01*
X284549702Y-139279464D01*
X285121130Y-139850892D01*
X285121130Y-139231845D01*
%TO.C,D63*%
X304171130Y-141708035D02*
X303171130Y-141708035D01*
X303171130Y-141469940D01*
X303218750Y-141327083D01*
X303313988Y-141231845D01*
X303409226Y-141184226D01*
X303599702Y-141136607D01*
X303742559Y-141136607D01*
X303933035Y-141184226D01*
X304028273Y-141231845D01*
X304123511Y-141327083D01*
X304171130Y-141469940D01*
X304171130Y-141708035D01*
X303171130Y-140279464D02*
X303171130Y-140469940D01*
X303218750Y-140565178D01*
X303266369Y-140612797D01*
X303409226Y-140708035D01*
X303599702Y-140755654D01*
X303980654Y-140755654D01*
X304075892Y-140708035D01*
X304123511Y-140660416D01*
X304171130Y-140565178D01*
X304171130Y-140374702D01*
X304123511Y-140279464D01*
X304075892Y-140231845D01*
X303980654Y-140184226D01*
X303742559Y-140184226D01*
X303647321Y-140231845D01*
X303599702Y-140279464D01*
X303552083Y-140374702D01*
X303552083Y-140565178D01*
X303599702Y-140660416D01*
X303647321Y-140708035D01*
X303742559Y-140755654D01*
X303171130Y-139850892D02*
X303171130Y-139231845D01*
X303552083Y-139565178D01*
X303552083Y-139422321D01*
X303599702Y-139327083D01*
X303647321Y-139279464D01*
X303742559Y-139231845D01*
X303980654Y-139231845D01*
X304075892Y-139279464D01*
X304123511Y-139327083D01*
X304171130Y-139422321D01*
X304171130Y-139708035D01*
X304123511Y-139803273D01*
X304075892Y-139850892D01*
%TO.C,D64*%
X323221130Y-141708035D02*
X322221130Y-141708035D01*
X322221130Y-141469940D01*
X322268750Y-141327083D01*
X322363988Y-141231845D01*
X322459226Y-141184226D01*
X322649702Y-141136607D01*
X322792559Y-141136607D01*
X322983035Y-141184226D01*
X323078273Y-141231845D01*
X323173511Y-141327083D01*
X323221130Y-141469940D01*
X323221130Y-141708035D01*
X322221130Y-140279464D02*
X322221130Y-140469940D01*
X322268750Y-140565178D01*
X322316369Y-140612797D01*
X322459226Y-140708035D01*
X322649702Y-140755654D01*
X323030654Y-140755654D01*
X323125892Y-140708035D01*
X323173511Y-140660416D01*
X323221130Y-140565178D01*
X323221130Y-140374702D01*
X323173511Y-140279464D01*
X323125892Y-140231845D01*
X323030654Y-140184226D01*
X322792559Y-140184226D01*
X322697321Y-140231845D01*
X322649702Y-140279464D01*
X322602083Y-140374702D01*
X322602083Y-140565178D01*
X322649702Y-140660416D01*
X322697321Y-140708035D01*
X322792559Y-140755654D01*
X322554464Y-139327083D02*
X323221130Y-139327083D01*
X322173511Y-139565178D02*
X322887797Y-139803273D01*
X322887797Y-139184226D01*
D11*
%TO.C,S1*%
X105452576Y-95412352D02*
X105252576Y-95412352D01*
X105452576Y-95298066D01*
X105252576Y-95298066D01*
X105452576Y-95174257D02*
X105443052Y-95193304D01*
X105433528Y-95202828D01*
X105414480Y-95212352D01*
X105357338Y-95212352D01*
X105338290Y-95202828D01*
X105328766Y-95193304D01*
X105319242Y-95174257D01*
X105319242Y-95145685D01*
X105328766Y-95126638D01*
X105338290Y-95117114D01*
X105357338Y-95107590D01*
X105414480Y-95107590D01*
X105433528Y-95117114D01*
X105443052Y-95126638D01*
X105452576Y-95145685D01*
X105452576Y-95174257D01*
X105347814Y-94802828D02*
X105347814Y-94869495D01*
X105452576Y-94869495D02*
X105252576Y-94869495D01*
X105252576Y-94774257D01*
X105433528Y-94698066D02*
X105443052Y-94688542D01*
X105452576Y-94698066D01*
X105443052Y-94707590D01*
X105433528Y-94698066D01*
X105452576Y-94698066D01*
X105433528Y-94488542D02*
X105443052Y-94498066D01*
X105452576Y-94526638D01*
X105452576Y-94545685D01*
X105443052Y-94574257D01*
X105424004Y-94593304D01*
X105404957Y-94602828D01*
X105366861Y-94612352D01*
X105338290Y-94612352D01*
X105300195Y-94602828D01*
X105281147Y-94593304D01*
X105262100Y-94574257D01*
X105252576Y-94545685D01*
X105252576Y-94526638D01*
X105262100Y-94498066D01*
X105271623Y-94488542D01*
X105319242Y-94317114D02*
X105452576Y-94317114D01*
X105319242Y-94402828D02*
X105424004Y-94402828D01*
X105443052Y-94393304D01*
X105452576Y-94374257D01*
X105452576Y-94345685D01*
X105443052Y-94326638D01*
X105433528Y-94317114D01*
X105319242Y-94098066D02*
X105319242Y-94021876D01*
X105252576Y-94069495D02*
X105424004Y-94069495D01*
X105443052Y-94059971D01*
X105452576Y-94040923D01*
X105452576Y-94021876D01*
X105452576Y-93955209D02*
X105319242Y-93955209D01*
X105357338Y-93955209D02*
X105338290Y-93945685D01*
X105328766Y-93936161D01*
X105319242Y-93917114D01*
X105319242Y-93898066D01*
X105452576Y-93745685D02*
X105347814Y-93745685D01*
X105328766Y-93755209D01*
X105319242Y-93774257D01*
X105319242Y-93812352D01*
X105328766Y-93831400D01*
X105443052Y-93745685D02*
X105452576Y-93764733D01*
X105452576Y-93812352D01*
X105443052Y-93831400D01*
X105424004Y-93840923D01*
X105404957Y-93840923D01*
X105385909Y-93831400D01*
X105376385Y-93812352D01*
X105376385Y-93764733D01*
X105366861Y-93745685D01*
X105443052Y-93564733D02*
X105452576Y-93583780D01*
X105452576Y-93621876D01*
X105443052Y-93640923D01*
X105433528Y-93650447D01*
X105414480Y-93659971D01*
X105357338Y-93659971D01*
X105338290Y-93650447D01*
X105328766Y-93640923D01*
X105319242Y-93621876D01*
X105319242Y-93583780D01*
X105328766Y-93564733D01*
X105452576Y-93479019D02*
X105252576Y-93479019D01*
X105376385Y-93459971D02*
X105452576Y-93402828D01*
X105319242Y-93402828D02*
X105395433Y-93479019D01*
X105443052Y-93326638D02*
X105452576Y-93307590D01*
X105452576Y-93269495D01*
X105443052Y-93250447D01*
X105424004Y-93240923D01*
X105414480Y-93240923D01*
X105395433Y-93250447D01*
X105385909Y-93269495D01*
X105385909Y-93298066D01*
X105376385Y-93317114D01*
X105357338Y-93326638D01*
X105347814Y-93326638D01*
X105328766Y-93317114D01*
X105319242Y-93298066D01*
X105319242Y-93269495D01*
X105328766Y-93250447D01*
X105452576Y-100412352D02*
X105252576Y-100412352D01*
X105452576Y-100298066D01*
X105252576Y-100298066D01*
X105452576Y-100174257D02*
X105443052Y-100193304D01*
X105433528Y-100202828D01*
X105414480Y-100212352D01*
X105357338Y-100212352D01*
X105338290Y-100202828D01*
X105328766Y-100193304D01*
X105319242Y-100174257D01*
X105319242Y-100145685D01*
X105328766Y-100126638D01*
X105338290Y-100117114D01*
X105357338Y-100107590D01*
X105414480Y-100107590D01*
X105433528Y-100117114D01*
X105443052Y-100126638D01*
X105452576Y-100145685D01*
X105452576Y-100174257D01*
X105347814Y-99802828D02*
X105347814Y-99869495D01*
X105452576Y-99869495D02*
X105252576Y-99869495D01*
X105252576Y-99774257D01*
X105433528Y-99698066D02*
X105443052Y-99688542D01*
X105452576Y-99698066D01*
X105443052Y-99707590D01*
X105433528Y-99698066D01*
X105452576Y-99698066D01*
X105433528Y-99488542D02*
X105443052Y-99498066D01*
X105452576Y-99526638D01*
X105452576Y-99545685D01*
X105443052Y-99574257D01*
X105424004Y-99593304D01*
X105404957Y-99602828D01*
X105366861Y-99612352D01*
X105338290Y-99612352D01*
X105300195Y-99602828D01*
X105281147Y-99593304D01*
X105262100Y-99574257D01*
X105252576Y-99545685D01*
X105252576Y-99526638D01*
X105262100Y-99498066D01*
X105271623Y-99488542D01*
X105319242Y-99317114D02*
X105452576Y-99317114D01*
X105319242Y-99402828D02*
X105424004Y-99402828D01*
X105443052Y-99393304D01*
X105452576Y-99374257D01*
X105452576Y-99345685D01*
X105443052Y-99326638D01*
X105433528Y-99317114D01*
X105319242Y-99098066D02*
X105319242Y-99021876D01*
X105252576Y-99069495D02*
X105424004Y-99069495D01*
X105443052Y-99059971D01*
X105452576Y-99040923D01*
X105452576Y-99021876D01*
X105452576Y-98955209D02*
X105319242Y-98955209D01*
X105357338Y-98955209D02*
X105338290Y-98945685D01*
X105328766Y-98936161D01*
X105319242Y-98917114D01*
X105319242Y-98898066D01*
X105452576Y-98745685D02*
X105347814Y-98745685D01*
X105328766Y-98755209D01*
X105319242Y-98774257D01*
X105319242Y-98812352D01*
X105328766Y-98831400D01*
X105443052Y-98745685D02*
X105452576Y-98764733D01*
X105452576Y-98812352D01*
X105443052Y-98831400D01*
X105424004Y-98840923D01*
X105404957Y-98840923D01*
X105385909Y-98831400D01*
X105376385Y-98812352D01*
X105376385Y-98764733D01*
X105366861Y-98745685D01*
X105443052Y-98564733D02*
X105452576Y-98583780D01*
X105452576Y-98621876D01*
X105443052Y-98640923D01*
X105433528Y-98650447D01*
X105414480Y-98659971D01*
X105357338Y-98659971D01*
X105338290Y-98650447D01*
X105328766Y-98640923D01*
X105319242Y-98621876D01*
X105319242Y-98583780D01*
X105328766Y-98564733D01*
X105452576Y-98479019D02*
X105252576Y-98479019D01*
X105376385Y-98459971D02*
X105452576Y-98402828D01*
X105319242Y-98402828D02*
X105395433Y-98479019D01*
X105443052Y-98326638D02*
X105452576Y-98307590D01*
X105452576Y-98269495D01*
X105443052Y-98250447D01*
X105424004Y-98240923D01*
X105414480Y-98240923D01*
X105395433Y-98250447D01*
X105385909Y-98269495D01*
X105385909Y-98298066D01*
X105376385Y-98317114D01*
X105357338Y-98326638D01*
X105347814Y-98326638D01*
X105328766Y-98317114D01*
X105319242Y-98298066D01*
X105319242Y-98269495D01*
X105328766Y-98250447D01*
X105852576Y-100545685D02*
X105652576Y-100545685D01*
X105852576Y-100431400D02*
X105738290Y-100517114D01*
X105652576Y-100431400D02*
X105766861Y-100545685D01*
X105747814Y-100345685D02*
X105747814Y-100279019D01*
X105852576Y-100250447D02*
X105852576Y-100345685D01*
X105652576Y-100345685D01*
X105652576Y-100250447D01*
X105747814Y-100164733D02*
X105747814Y-100098066D01*
X105852576Y-100069495D02*
X105852576Y-100164733D01*
X105652576Y-100164733D01*
X105652576Y-100069495D01*
X105852576Y-99983780D02*
X105652576Y-99983780D01*
X105652576Y-99907590D01*
X105662100Y-99888542D01*
X105671623Y-99879019D01*
X105690671Y-99869495D01*
X105719242Y-99869495D01*
X105738290Y-99879019D01*
X105747814Y-99888542D01*
X105757338Y-99907590D01*
X105757338Y-99983780D01*
X105776385Y-99783780D02*
X105776385Y-99631400D01*
X105652576Y-99498066D02*
X105652576Y-99459971D01*
X105662100Y-99440923D01*
X105681147Y-99421876D01*
X105719242Y-99412352D01*
X105785909Y-99412352D01*
X105824004Y-99421876D01*
X105843052Y-99440923D01*
X105852576Y-99459971D01*
X105852576Y-99498066D01*
X105843052Y-99517114D01*
X105824004Y-99536161D01*
X105785909Y-99545685D01*
X105719242Y-99545685D01*
X105681147Y-99536161D01*
X105662100Y-99517114D01*
X105652576Y-99498066D01*
X105652576Y-99326638D02*
X105814480Y-99326638D01*
X105833528Y-99317114D01*
X105843052Y-99307590D01*
X105852576Y-99288542D01*
X105852576Y-99250447D01*
X105843052Y-99231400D01*
X105833528Y-99221876D01*
X105814480Y-99212352D01*
X105652576Y-99212352D01*
X105652576Y-99145685D02*
X105652576Y-99031400D01*
X105852576Y-99088542D02*
X105652576Y-99088542D01*
X105652576Y-98831400D02*
X105652576Y-98698066D01*
X105852576Y-98831400D01*
X105852576Y-98698066D01*
X105652576Y-98583780D02*
X105652576Y-98545685D01*
X105662100Y-98526638D01*
X105681147Y-98507590D01*
X105719242Y-98498066D01*
X105785909Y-98498066D01*
X105824004Y-98507590D01*
X105843052Y-98526638D01*
X105852576Y-98545685D01*
X105852576Y-98583780D01*
X105843052Y-98602828D01*
X105824004Y-98621876D01*
X105785909Y-98631400D01*
X105719242Y-98631400D01*
X105681147Y-98621876D01*
X105662100Y-98602828D01*
X105652576Y-98583780D01*
X105852576Y-98412352D02*
X105652576Y-98412352D01*
X105852576Y-98298066D01*
X105652576Y-98298066D01*
X105747814Y-98202828D02*
X105747814Y-98136161D01*
X105852576Y-98107590D02*
X105852576Y-98202828D01*
X105652576Y-98202828D01*
X105652576Y-98107590D01*
X105852576Y-95545685D02*
X105652576Y-95545685D01*
X105852576Y-95431400D02*
X105738290Y-95517114D01*
X105652576Y-95431400D02*
X105766861Y-95545685D01*
X105747814Y-95345685D02*
X105747814Y-95279019D01*
X105852576Y-95250447D02*
X105852576Y-95345685D01*
X105652576Y-95345685D01*
X105652576Y-95250447D01*
X105747814Y-95164733D02*
X105747814Y-95098066D01*
X105852576Y-95069495D02*
X105852576Y-95164733D01*
X105652576Y-95164733D01*
X105652576Y-95069495D01*
X105852576Y-94983780D02*
X105652576Y-94983780D01*
X105652576Y-94907590D01*
X105662100Y-94888542D01*
X105671623Y-94879019D01*
X105690671Y-94869495D01*
X105719242Y-94869495D01*
X105738290Y-94879019D01*
X105747814Y-94888542D01*
X105757338Y-94907590D01*
X105757338Y-94983780D01*
X105776385Y-94783780D02*
X105776385Y-94631400D01*
X105652576Y-94498066D02*
X105652576Y-94459971D01*
X105662100Y-94440923D01*
X105681147Y-94421876D01*
X105719242Y-94412352D01*
X105785909Y-94412352D01*
X105824004Y-94421876D01*
X105843052Y-94440923D01*
X105852576Y-94459971D01*
X105852576Y-94498066D01*
X105843052Y-94517114D01*
X105824004Y-94536161D01*
X105785909Y-94545685D01*
X105719242Y-94545685D01*
X105681147Y-94536161D01*
X105662100Y-94517114D01*
X105652576Y-94498066D01*
X105652576Y-94326638D02*
X105814480Y-94326638D01*
X105833528Y-94317114D01*
X105843052Y-94307590D01*
X105852576Y-94288542D01*
X105852576Y-94250447D01*
X105843052Y-94231400D01*
X105833528Y-94221876D01*
X105814480Y-94212352D01*
X105652576Y-94212352D01*
X105652576Y-94145685D02*
X105652576Y-94031400D01*
X105852576Y-94088542D02*
X105652576Y-94088542D01*
X105652576Y-93831400D02*
X105652576Y-93698066D01*
X105852576Y-93831400D01*
X105852576Y-93698066D01*
X105652576Y-93583780D02*
X105652576Y-93545685D01*
X105662100Y-93526638D01*
X105681147Y-93507590D01*
X105719242Y-93498066D01*
X105785909Y-93498066D01*
X105824004Y-93507590D01*
X105843052Y-93526638D01*
X105852576Y-93545685D01*
X105852576Y-93583780D01*
X105843052Y-93602828D01*
X105824004Y-93621876D01*
X105785909Y-93631400D01*
X105719242Y-93631400D01*
X105681147Y-93621876D01*
X105662100Y-93602828D01*
X105652576Y-93583780D01*
X105852576Y-93412352D02*
X105652576Y-93412352D01*
X105852576Y-93298066D01*
X105652576Y-93298066D01*
X105747814Y-93202828D02*
X105747814Y-93136161D01*
X105852576Y-93107590D02*
X105852576Y-93202828D01*
X105652576Y-93202828D01*
X105652576Y-93107590D01*
D10*
%TO.C,H1*%
X70668750Y-90481800D02*
G75*
G03*
X70668750Y-90481800I-3200000J0D01*
G01*
%TO.C,H2*%
X146868750Y-90487500D02*
G75*
G03*
X146868750Y-90487500I-3200000J0D01*
G01*
%TO.C,H3*%
X223068750Y-90481800D02*
G75*
G03*
X223068750Y-90481800I-3200000J0D01*
G01*
%TO.C,H4*%
X299263950Y-90481800D02*
G75*
G03*
X299263950Y-90481800I-3200000J0D01*
G01*
%TO.C,H5*%
X70668750Y-128579400D02*
G75*
G03*
X70668750Y-128579400I-3200000J0D01*
G01*
%TO.C,H6*%
X146868750Y-128585100D02*
G75*
G03*
X146868750Y-128585100I-3200000J0D01*
G01*
%TO.C,H7*%
X223068750Y-128579400D02*
G75*
G03*
X223068750Y-128579400I-3200000J0D01*
G01*
%TO.C,H8*%
X299263950Y-128579400D02*
G75*
G03*
X299263950Y-128579400I-3200000J0D01*
G01*
%TD*%
M02*
