M48
; DRILL file {KiCad (6.0.7)} date Mon Oct  3 19:09:15 2022
; FORMAT={-:-/ absolute / inch / decimal}
; #@! TF.CreationDate,2022-10-03T19:09:15-04:00
; #@! TF.GenerationSoftware,Kicad,Pcbnew,(6.0.7)
; #@! TF.FileFunction,Plated,1,2,PTH
FMAT,2
INCH
; #@! TA.AperFunction,Plated,PTH,ViaDrill
T1C0.0118
; #@! TA.AperFunction,Plated,PTH,ComponentDrill
T2C0.0236
; #@! TA.AperFunction,Plated,PTH,ComponentDrill
T3C0.0590
%
G90
G05
T1
X1.6312Y-4.8338
X1.6745Y-3.3125
X1.81Y-4.23
X1.825Y-3.34
X1.8438Y-4.25
X1.856Y-3.519
X1.925Y-3.43
X1.9553Y-3.2048
X2.02Y-3.53
X2.027Y-3.3075
X2.03Y-4.195
X2.055Y-3.28
X2.3813Y-4.8582
X2.7438Y-4.0588
X2.7562Y-4.8088
X2.765Y-3.605
X2.7812Y-5.5588
X2.81Y-3.295
X2.81Y-3.59
X2.845Y-3.59
X2.88Y-3.59
X2.915Y-3.59
X3.035Y-3.471
X3.08Y-3.6
X3.094Y-3.279
X3.098Y-3.389
X3.1313Y-4.8857
X3.155Y-3.28
X3.18Y-4.98
X3.182Y-3.398
X3.1873Y-3.1248
X3.195Y-2.89
X3.195Y-4.911
X3.2Y-5.05
X3.256Y-3.865
X3.27Y-3.425
X3.271Y-3.732
X3.279Y-3.698
X3.281Y-2.9686
X3.305Y-3.265
X3.335Y-3.665
X3.3567Y-3.4633
X3.37Y-3.66
X3.3748Y-3.5623
X3.406Y-3.531
X3.406Y-3.5935
X3.4224Y-3.4633
X3.425Y-2.975
X3.425Y-3.08
X3.425Y-3.27
X3.4373Y-3.5623
X3.4529Y-3.7501
X3.512Y-3.937
X3.514Y-3.13
X3.5315Y-2.8885
X3.596Y-3.376
X3.605Y-3.31
X3.68Y-3.605
X3.685Y-3.4523
X3.755Y-3.055
X3.775Y-3.75
X3.781Y-3.3748
X3.855Y-3.425
X3.855Y-3.665
X3.905Y-3.425
X3.965Y-3.75
X3.98Y-3.375
X4.02Y-3.76
X4.025Y-4.025
X4.0625Y-3.75
X4.0625Y-3.875
X4.108Y-4.833
X4.13Y-4.035
X4.1314Y-4.8584
X4.158Y-4.883
X4.165Y-4.035
X4.2Y-4.035
X4.6312Y-3.4987
X5.3812Y-3.4838
X6.1312Y-3.4712
X6.8812Y-3.4612
X7.6312Y-3.4438
X8.3812Y-3.4287
X9.1312Y-3.4187
X9.8812Y-3.4038
X10.6312Y-3.3887
X11.3812Y-3.3788
X12.1312Y-3.3678
X12.7804Y-4.1247
X12.8812Y-3.3365
T3
X1.3812Y-3.0875
X1.3812Y-3.8375
X1.3812Y-4.5875
X1.3812Y-5.3375
X1.6312Y-2.9875
X1.6312Y-3.7375
X1.6312Y-4.4875
X1.6312Y-5.2375
X2.1313Y-3.0875
X2.1313Y-3.8375
X2.1313Y-4.5875
X2.1313Y-5.3375
X2.3813Y-2.9875
X2.3813Y-3.7375
X2.3813Y-4.4875
X2.3813Y-5.2375
X2.8813Y-3.087
X2.8813Y-3.8375
X2.8813Y-4.5875
X2.8813Y-5.3375
X3.1313Y-2.987
X3.1313Y-3.7375
X3.1313Y-4.4875
X3.1313Y-5.2375
X3.6313Y-3.0875
X3.6313Y-3.8375
X3.6313Y-4.5875
X3.6313Y-5.3375
X3.8813Y-2.9875
X3.8813Y-3.7375
X3.8813Y-4.4875
X3.8813Y-5.2375
X4.3812Y-3.0875
X4.3812Y-3.8375
X4.3812Y-4.5875
X4.3812Y-5.3375
X4.6312Y-2.9875
X4.6312Y-3.7375
X4.6312Y-4.4875
X4.6312Y-5.2375
X5.1312Y-3.0875
X5.1312Y-3.8375
X5.1312Y-4.5875
X5.1312Y-5.3375
X5.3812Y-2.9875
X5.3812Y-3.7375
X5.3812Y-4.4875
X5.3812Y-5.2375
X5.5062Y-5.3375
X5.7562Y-5.2375
X5.8812Y-3.0875
X5.8812Y-3.8375
X5.8812Y-4.5875
X5.8812Y-5.3375
X6.1312Y-2.9875
X6.1312Y-3.7375
X6.1312Y-4.4875
X6.1312Y-5.2375
X6.6312Y-3.0875
X6.6312Y-3.8375
X6.6312Y-4.5875
X6.6312Y-5.3375
X6.8812Y-2.9875
X6.8812Y-3.7375
X6.8812Y-4.4875
X6.8812Y-5.2375
X7.3812Y-3.0875
X7.3812Y-3.8375
X7.3812Y-4.5875
X7.3812Y-5.3375
X7.6312Y-2.9875
X7.6312Y-3.7375
X7.6312Y-4.4875
X7.6312Y-5.2375
X8.1312Y-3.0875
X8.1312Y-3.8375
X8.1312Y-4.5875
X8.1312Y-5.3375
X8.3812Y-2.9875
X8.3812Y-3.7375
X8.3812Y-4.4875
X8.3812Y-5.2375
X8.5062Y-5.3375
X8.7562Y-5.2375
X8.8812Y-3.0875
X8.8812Y-3.8375
X8.8812Y-4.5875
X8.8812Y-5.3375
X9.1312Y-2.9875
X9.1312Y-3.7375
X9.1312Y-4.4875
X9.1312Y-5.2375
X9.6312Y-3.0875
X9.6312Y-3.8375
X9.6312Y-4.5875
X9.6312Y-5.3375
X9.8812Y-2.9875
X9.8812Y-3.7375
X9.8812Y-4.4875
X9.8812Y-5.2375
X10.3812Y-3.0875
X10.3812Y-3.8375
X10.3812Y-4.5875
X10.3812Y-5.3375
X10.6312Y-2.9875
X10.6312Y-3.7375
X10.6312Y-4.4875
X10.6312Y-5.2375
X11.1312Y-3.0875
X11.1312Y-3.8375
X11.1312Y-4.5875
X11.1312Y-5.3375
X11.3812Y-2.9875
X11.3812Y-3.7375
X11.3812Y-4.4875
X11.3812Y-5.2375
X11.8812Y-3.0875
X11.8812Y-3.8375
X11.8812Y-4.5875
X11.8812Y-5.3375
X12.1312Y-2.9875
X12.1312Y-3.7375
X12.1312Y-4.4875
X12.1312Y-5.2375
X12.6312Y-3.0875
X12.6312Y-3.8375
X12.6312Y-4.5875
X12.6312Y-5.3375
X12.8812Y-2.9875
X12.8812Y-3.7375
X12.8812Y-4.4875
X12.8812Y-5.2375
T2
G00X1.7049Y-2.8979
M15
G01X1.7049Y-2.9215
M16
G05
G00X1.7049Y-3.0526
M15
G01X1.7049Y-3.0959
M16
G05
G00X2.0451Y-2.8979
M15
G01X2.0451Y-2.9215
M16
G05
G00X2.0451Y-3.0526
M15
G01X2.0451Y-3.0959
M16
G05
T0
M30
