M48
; DRILL file {KiCad (6.0.7)} date Mon Oct  3 19:09:15 2022
; FORMAT={-:-/ absolute / inch / decimal}
; #@! TF.CreationDate,2022-10-03T19:09:15-04:00
; #@! TF.GenerationSoftware,Kicad,Pcbnew,(6.0.7)
; #@! TF.FileFunction,NonPlated,1,2,NPTH
FMAT,2
INCH
; #@! TA.AperFunction,NonPlated,NPTH,ComponentDrill
T1C0.0256
; #@! TA.AperFunction,NonPlated,NPTH,ComponentDrill
T2C0.0670
; #@! TA.AperFunction,NonPlated,NPTH,ComponentDrill
T3C0.0689
; #@! TA.AperFunction,NonPlated,NPTH,ComponentDrill
T4C0.1260
; #@! TA.AperFunction,NonPlated,NPTH,ComponentDrill
T5C0.1570
%
G90
G05
T1
X1.7612Y-3.0534
X1.9888Y-3.0534
T2
X1.3313Y-3.1875
X1.3313Y-3.9375
X1.3313Y-4.6875
X1.3313Y-5.4375
X1.7312Y-3.1875
X1.7312Y-3.9375
X1.7312Y-4.6875
X1.7312Y-5.4375
X2.0812Y-3.1875
X2.0812Y-3.9375
X2.0812Y-4.6875
X2.0812Y-5.4375
X2.4812Y-3.1875
X2.4812Y-3.9375
X2.4812Y-4.6875
X2.4812Y-5.4375
X2.8312Y-3.187
X2.8312Y-3.9375
X2.8312Y-4.6875
X2.8312Y-5.4375
X3.2312Y-3.187
X3.2312Y-3.9375
X3.2312Y-4.6875
X3.2312Y-5.4375
X3.5812Y-3.1875
X3.5812Y-3.9375
X3.5812Y-4.6875
X3.5812Y-5.4375
X3.9812Y-3.1875
X3.9812Y-3.9375
X3.9812Y-4.6875
X3.9812Y-5.4375
X4.3312Y-3.1875
X4.3312Y-3.9375
X4.3312Y-4.6875
X4.3312Y-5.4375
X4.7313Y-3.1875
X4.7313Y-3.9375
X4.7313Y-4.6875
X4.7313Y-5.4375
X5.0812Y-3.1875
X5.0812Y-3.9375
X5.0812Y-4.6875
X5.0812Y-5.4375
X5.4813Y-3.1875
X5.4813Y-3.9375
X5.4813Y-4.6875
X5.8312Y-3.1875
X5.8312Y-3.9375
X5.8312Y-4.6875
X6.2313Y-3.1875
X6.2313Y-3.9375
X6.2313Y-4.6875
X6.2313Y-5.4375
X6.5812Y-3.1875
X6.5812Y-3.9375
X6.5812Y-4.6875
X6.5812Y-5.4375
X6.9813Y-3.1875
X6.9813Y-3.9375
X6.9813Y-4.6875
X6.9813Y-5.4375
X7.3312Y-3.1875
X7.3312Y-3.9375
X7.3312Y-4.6875
X7.3312Y-5.4375
X7.7313Y-3.1875
X7.7313Y-3.9375
X7.7313Y-4.6875
X7.7313Y-5.4375
X8.0812Y-3.1875
X8.0812Y-3.9375
X8.0812Y-4.6875
X8.0812Y-5.4375
X8.4812Y-3.1875
X8.4812Y-3.9375
X8.4812Y-4.6875
X8.8312Y-3.1875
X8.8312Y-3.9375
X8.8312Y-4.6875
X9.2312Y-3.1875
X9.2312Y-3.9375
X9.2312Y-4.6875
X9.2312Y-5.4375
X9.5812Y-3.1875
X9.5812Y-3.9375
X9.5812Y-4.6875
X9.5812Y-5.4375
X9.9812Y-3.1875
X9.9812Y-3.9375
X9.9812Y-4.6875
X9.9812Y-5.4375
X10.3312Y-3.1875
X10.3312Y-3.9375
X10.3312Y-4.6875
X10.3312Y-5.4375
X10.7312Y-3.1875
X10.7312Y-3.9375
X10.7312Y-4.6875
X10.7312Y-5.4375
X11.0812Y-3.1875
X11.0812Y-3.9375
X11.0812Y-4.6875
X11.0812Y-5.4375
X11.4812Y-3.1875
X11.4812Y-3.9375
X11.4812Y-4.6875
X11.4812Y-5.4375
X11.8312Y-3.1875
X11.8312Y-3.9375
X11.8312Y-4.6875
X11.8312Y-5.4375
X12.2312Y-3.1875
X12.2312Y-3.9375
X12.2312Y-4.6875
X12.2312Y-5.4375
X12.5812Y-3.1875
X12.5812Y-3.9375
X12.5812Y-4.6875
X12.5812Y-5.4375
X12.9812Y-3.1875
X12.9812Y-3.9375
X12.9812Y-4.6875
X12.9812Y-5.4375
T4
X2.6562Y-3.5623
X2.6562Y-5.0622
X5.6562Y-3.5625
X5.6562Y-5.0624
X8.6562Y-3.5623
X8.6562Y-5.0622
X11.6561Y-3.5623
X11.6561Y-5.0622
T5
X1.5312Y-3.1875
X1.5312Y-3.9375
X1.5312Y-4.6875
X1.5312Y-5.4375
X2.2812Y-3.1875
X2.2812Y-3.9375
X2.2812Y-4.6875
X2.2812Y-5.4375
X3.0312Y-3.187
X3.0312Y-3.9375
X3.0312Y-4.6875
X3.0312Y-5.4375
X3.7812Y-3.1875
X3.7812Y-3.9375
X3.7812Y-4.6875
X3.7812Y-5.4375
X4.5312Y-3.1875
X4.5312Y-3.9375
X4.5312Y-4.6875
X4.5312Y-5.4375
X5.2812Y-3.1875
X5.2812Y-3.9375
X5.2812Y-4.6875
X5.2812Y-5.4375
X5.6562Y-5.4375
X6.0312Y-3.1875
X6.0312Y-3.9375
X6.0312Y-4.6875
X6.0312Y-5.4375
X6.7812Y-3.1875
X6.7812Y-3.9375
X6.7812Y-4.6875
X6.7812Y-5.4375
X7.5312Y-3.1875
X7.5312Y-3.9375
X7.5312Y-4.6875
X7.5312Y-5.4375
X8.2812Y-3.1875
X8.2812Y-3.9375
X8.2812Y-4.6875
X8.2812Y-5.4375
X8.6562Y-5.4375
X9.0312Y-3.1875
X9.0312Y-3.9375
X9.0312Y-4.6875
X9.0312Y-5.4375
X9.7812Y-3.1875
X9.7812Y-3.9375
X9.7812Y-4.6875
X9.7812Y-5.4375
X10.5312Y-3.1875
X10.5312Y-3.9375
X10.5312Y-4.6875
X10.5312Y-5.4375
X11.2812Y-3.1875
X11.2812Y-3.9375
X11.2812Y-4.6875
X11.2812Y-5.4375
X12.0312Y-3.1875
X12.0312Y-3.9375
X12.0312Y-4.6875
X12.0312Y-5.4375
X12.7812Y-3.1875
X12.7812Y-3.9375
X12.7812Y-4.6875
X12.7812Y-5.4375
T3
G00X5.457Y-5.4375
M15
G01X5.4728Y-5.4375
M16
G05
G00X5.8393Y-5.4371
M15
G01X5.8551Y-5.4371
M16
G05
G00X8.4574Y-5.4375
M15
G01X8.4732Y-5.4375
M16
G05
G00X8.8397Y-5.4371
M15
G01X8.8555Y-5.4371
M16
G05
T0
M30
