%TF.GenerationSoftware,KiCad,Pcbnew,(6.0.7)*%
%TF.CreationDate,2022-10-07T15:47:36-04:00*%
%TF.ProjectId,planck-thk,706c616e-636b-42d7-9468-6b2e6b696361,rev?*%
%TF.SameCoordinates,Original*%
%TF.FileFunction,Soldermask,Bot*%
%TF.FilePolarity,Negative*%
%FSLAX46Y46*%
G04 Gerber Fmt 4.6, Leading zero omitted, Abs format (unit mm)*
G04 Created by KiCad (PCBNEW (6.0.7)) date 2022-10-07 15:47:36*
%MOMM*%
%LPD*%
G01*
G04 APERTURE LIST*
G04 Aperture macros list*
%AMHorizOval*
0 Thick line with rounded ends*
0 $1 width*
0 $2 $3 position (X,Y) of the first rounded end (center of the circle)*
0 $4 $5 position (X,Y) of the second rounded end (center of the circle)*
0 Add line between two ends*
20,1,$1,$2,$3,$4,$5,0*
0 Add two circle primitives to create the rounded ends*
1,1,$1,$2,$3*
1,1,$1,$4,$5*%
G04 Aperture macros list end*
%ADD10R,1.600000X2.400000*%
%ADD11O,1.600000X2.400000*%
%ADD12C,3.500000*%
%ADD13C,2.000000*%
%ADD14C,1.750000*%
%ADD15O,3.500000X3.500000*%
%ADD16R,1.800000X1.800000*%
%ADD17O,1.800000X1.800000*%
%ADD18C,1.600000*%
%ADD19C,1.400000*%
%ADD20O,1.400000X1.400000*%
%ADD21C,1.500000*%
%ADD22R,1.200000X1.700000*%
%ADD23O,1.200000X1.700000*%
%ADD24HorizOval,1.250000X0.125000X-0.216506X-0.125000X0.216506X0*%
%ADD25O,1.250000X1.750000*%
%ADD26HorizOval,1.250000X0.125000X0.216506X-0.125000X-0.216506X0*%
%ADD27O,1.200000X2.500000*%
%ADD28C,1.800000*%
%ADD29C,1.524000*%
%ADD30R,1.700000X1.700000*%
%ADD31O,1.700000X1.700000*%
%ADD32R,1.600000X1.600000*%
%ADD33O,1.600000X1.600000*%
%ADD34C,1.701800*%
%ADD35C,3.987800*%
%ADD36C,2.286000*%
G04 APERTURE END LIST*
D10*
%TO.C,U1*%
X163235000Y-40260000D03*
D11*
X160695000Y-40260000D03*
X158155000Y-40260000D03*
X155615000Y-40260000D03*
X153075000Y-40260000D03*
X150535000Y-40260000D03*
X147995000Y-40260000D03*
X145455000Y-40260000D03*
X142915000Y-40260000D03*
X140375000Y-40260000D03*
X137835000Y-40260000D03*
X135295000Y-40260000D03*
X132755000Y-40260000D03*
X130215000Y-40260000D03*
X127675000Y-40260000D03*
X125135000Y-40260000D03*
X122595000Y-40260000D03*
X120055000Y-40260000D03*
X117515000Y-40260000D03*
X114975000Y-40260000D03*
X114975000Y-55500000D03*
X117515000Y-55500000D03*
X120055000Y-55500000D03*
X122595000Y-55500000D03*
X125135000Y-55500000D03*
X127675000Y-55500000D03*
X130215000Y-55500000D03*
X132755000Y-55500000D03*
X135295000Y-55500000D03*
X137835000Y-55500000D03*
X140375000Y-55500000D03*
X142915000Y-55500000D03*
X145455000Y-55500000D03*
X147995000Y-55500000D03*
X150535000Y-55500000D03*
X153075000Y-55500000D03*
X155615000Y-55500000D03*
X158155000Y-55500000D03*
X160695000Y-55500000D03*
X163235000Y-55500000D03*
%TD*%
D12*
%TO.C,SW3*%
X233075000Y-46000000D03*
X219875000Y-46000000D03*
D13*
X223975000Y-53500000D03*
X226475000Y-53500000D03*
X228975000Y-53500000D03*
%TD*%
D14*
%TO.C,SW1*%
X167375000Y-45190000D03*
X167375000Y-47730000D03*
X167375000Y-50270000D03*
X167375000Y-52810000D03*
X174995000Y-52810000D03*
X174995000Y-50270000D03*
X174995000Y-47730000D03*
X174995000Y-45190000D03*
%TD*%
D15*
%TO.C,U2*%
X35815000Y-50040000D03*
D16*
X52475000Y-52580000D03*
D17*
X52475000Y-50040000D03*
X52475000Y-47500000D03*
%TD*%
D18*
%TO.C,C1*%
X169475000Y-39000000D03*
X166975000Y-39000000D03*
%TD*%
%TO.C,C2*%
X184975000Y-39000000D03*
X187475000Y-39000000D03*
%TD*%
D19*
%TO.C,R1*%
X74475000Y-37000000D03*
D20*
X82095000Y-37000000D03*
%TD*%
D19*
%TO.C,R2*%
X74475000Y-39500000D03*
D20*
X82095000Y-39500000D03*
%TD*%
D21*
%TO.C,Y1*%
X174475000Y-39000000D03*
X179355000Y-39000000D03*
%TD*%
D18*
%TO.C,C3*%
X109075000Y-44500000D03*
X109075000Y-42000000D03*
%TD*%
%TO.C,C4*%
X104975000Y-44500000D03*
X104975000Y-42000000D03*
%TD*%
D22*
%TO.C,J2*%
X47975000Y-42000000D03*
D23*
X45975000Y-42000000D03*
X43975000Y-42000000D03*
X41975000Y-42000000D03*
X39975000Y-42000000D03*
%TD*%
D19*
%TO.C,R3*%
X86475000Y-39380000D03*
D20*
X86475000Y-47000000D03*
%TD*%
D12*
%TO.C,SW2*%
X196875000Y-46000000D03*
X210075000Y-46000000D03*
D13*
X200975000Y-53500000D03*
X203475000Y-53500000D03*
X205975000Y-53500000D03*
%TD*%
%TO.C,J8*%
X103675000Y-49250000D03*
X110175000Y-49250000D03*
X103675000Y-53750000D03*
X110175000Y-53750000D03*
%TD*%
D24*
%TO.C,USB1*%
X64700000Y-44466506D03*
D25*
X63775000Y-42800000D03*
X62975000Y-44500000D03*
X62175000Y-42800000D03*
D26*
X61250000Y-44466506D03*
D27*
X66625000Y-39200000D03*
X59325000Y-39200000D03*
%TD*%
D19*
%TO.C,R5*%
X69475000Y-45000000D03*
D20*
X69475000Y-52620000D03*
%TD*%
D19*
%TO.C,R4*%
X56475000Y-45000000D03*
D20*
X56475000Y-52620000D03*
%TD*%
D16*
%TO.C,LED1*%
X60475000Y-47500000D03*
D28*
X60475000Y-50040000D03*
%TD*%
D16*
%TO.C,LED2*%
X65475000Y-47460000D03*
D28*
X65475000Y-50000000D03*
%TD*%
D29*
%TO.C,SP1*%
X75675000Y-48200000D03*
X80675000Y-48200000D03*
%TD*%
D30*
%TO.C,J6*%
X99975000Y-42000000D03*
D31*
X99975000Y-44540000D03*
X97435000Y-42000000D03*
X97435000Y-44540000D03*
X94895000Y-42000000D03*
X94895000Y-44540000D03*
X92355000Y-42000000D03*
X92355000Y-44540000D03*
X89815000Y-42000000D03*
X89815000Y-44540000D03*
%TD*%
D30*
%TO.C,J7*%
X97555000Y-49960000D03*
D31*
X97555000Y-52500000D03*
X95015000Y-49960000D03*
X95015000Y-52500000D03*
X92475000Y-49960000D03*
X92475000Y-52500000D03*
%TD*%
D32*
%TO.C,D41*%
X230028750Y-83343750D03*
D33*
X222408750Y-83343750D03*
%TD*%
D32*
%TO.C,D37*%
X210978750Y-83343750D03*
D33*
X203358750Y-83343750D03*
%TD*%
D34*
%TO.C,K30*%
X174148750Y-111918750D03*
D35*
X169068750Y-111918750D03*
D34*
X163988750Y-111918750D03*
D36*
X171608750Y-106838750D03*
X165258750Y-109378750D03*
%TD*%
D32*
%TO.C,D49*%
X268128750Y-83343750D03*
D33*
X260508750Y-83343750D03*
%TD*%
D34*
%TO.C,K37*%
X202088750Y-92868750D03*
X212248750Y-92868750D03*
D35*
X207168750Y-92868750D03*
D36*
X209708750Y-87788750D03*
X203358750Y-90328750D03*
%TD*%
D34*
%TO.C,K13*%
X87788750Y-92868750D03*
D35*
X92868750Y-92868750D03*
D34*
X97948750Y-92868750D03*
D36*
X95408750Y-87788750D03*
X89058750Y-90328750D03*
%TD*%
D34*
%TO.C,K6*%
X59848750Y-111918750D03*
D35*
X54768750Y-111918750D03*
D34*
X49688750Y-111918750D03*
D36*
X57308750Y-106838750D03*
X50958750Y-109378750D03*
%TD*%
D32*
%TO.C,D21*%
X134778750Y-83343750D03*
D33*
X127158750Y-83343750D03*
%TD*%
D34*
%TO.C,K54*%
X278288750Y-111918750D03*
X288448750Y-111918750D03*
D35*
X283368750Y-111918750D03*
D36*
X285908750Y-106838750D03*
X279558750Y-109378750D03*
%TD*%
D32*
%TO.C,D4*%
X58578750Y-64293750D03*
D33*
X50958750Y-64293750D03*
%TD*%
D32*
%TO.C,D31*%
X172878750Y-121443750D03*
D33*
X165258750Y-121443750D03*
%TD*%
D32*
%TO.C,D39*%
X210978750Y-121443750D03*
D33*
X203358750Y-121443750D03*
%TD*%
D34*
%TO.C,K12*%
X97948750Y-73818750D03*
D35*
X92868750Y-73818750D03*
D34*
X87788750Y-73818750D03*
D36*
X95408750Y-68738750D03*
X89058750Y-71278750D03*
%TD*%
D35*
%TO.C,K11*%
X73818750Y-130968750D03*
D34*
X68738750Y-130968750D03*
X78898750Y-130968750D03*
D36*
X76358750Y-125888750D03*
X70008750Y-128428750D03*
%TD*%
D32*
%TO.C,D5*%
X58578750Y-83343750D03*
D33*
X50958750Y-83343750D03*
%TD*%
D34*
%TO.C,K56*%
X297338750Y-73818750D03*
X307498750Y-73818750D03*
D35*
X302418750Y-73818750D03*
D36*
X304958750Y-68738750D03*
X298608750Y-71278750D03*
%TD*%
D32*
%TO.C,D53*%
X287178750Y-83343750D03*
D33*
X279558750Y-83343750D03*
%TD*%
D34*
%TO.C,K17*%
X106838750Y-92868750D03*
D35*
X111918750Y-92868750D03*
D34*
X116998750Y-92868750D03*
D36*
X114458750Y-87788750D03*
X108108750Y-90328750D03*
%TD*%
D35*
%TO.C,K48*%
X264318750Y-73818750D03*
D34*
X269398750Y-73818750D03*
X259238750Y-73818750D03*
D36*
X266858750Y-68738750D03*
X260508750Y-71278750D03*
%TD*%
D34*
%TO.C,K24*%
X155098750Y-73818750D03*
D35*
X150018750Y-73818750D03*
D34*
X144938750Y-73818750D03*
D36*
X152558750Y-68738750D03*
X146208750Y-71278750D03*
%TD*%
D32*
%TO.C,D61*%
X325278750Y-83343750D03*
D33*
X317658750Y-83343750D03*
%TD*%
D34*
%TO.C,K9*%
X78898750Y-92868750D03*
D35*
X73818750Y-92868750D03*
D34*
X68738750Y-92868750D03*
D36*
X76358750Y-87788750D03*
X70008750Y-90328750D03*
%TD*%
D35*
%TO.C,K35*%
X188118750Y-130968750D03*
D34*
X183038750Y-130968750D03*
X193198750Y-130968750D03*
D36*
X190658750Y-125888750D03*
X184308750Y-128428750D03*
%TD*%
D32*
%TO.C,D29*%
X172878750Y-83343750D03*
D33*
X165258750Y-83343750D03*
%TD*%
D32*
%TO.C,D26*%
X153828750Y-102393750D03*
D33*
X146208750Y-102393750D03*
%TD*%
D32*
%TO.C,D28*%
X172878750Y-64293750D03*
D33*
X165258750Y-64293750D03*
%TD*%
D34*
%TO.C,K57*%
X297338750Y-92868750D03*
D35*
X302418750Y-92868750D03*
D34*
X307498750Y-92868750D03*
D36*
X304958750Y-87788750D03*
X298608750Y-90328750D03*
%TD*%
D35*
%TO.C,K28*%
X169068750Y-73818750D03*
D34*
X163988750Y-73818750D03*
X174148750Y-73818750D03*
D36*
X171608750Y-68738750D03*
X165258750Y-71278750D03*
%TD*%
D34*
%TO.C,K53*%
X288448750Y-92868750D03*
X278288750Y-92868750D03*
D35*
X283368750Y-92868750D03*
D36*
X285908750Y-87788750D03*
X279558750Y-90328750D03*
%TD*%
D35*
%TO.C,K58*%
X302418750Y-111918750D03*
D34*
X297338750Y-111918750D03*
X307498750Y-111918750D03*
D36*
X304958750Y-106838750D03*
X298608750Y-109378750D03*
%TD*%
D32*
%TO.C,D51*%
X268128750Y-121443750D03*
D33*
X260508750Y-121443750D03*
%TD*%
D35*
%TO.C,K10*%
X73818750Y-111918750D03*
D34*
X68738750Y-111918750D03*
X78898750Y-111918750D03*
D36*
X76358750Y-106838750D03*
X70008750Y-109378750D03*
%TD*%
D32*
%TO.C,D19*%
X115728750Y-121443750D03*
D33*
X108108750Y-121443750D03*
%TD*%
D32*
%TO.C,D25*%
X153828750Y-83343750D03*
D33*
X146208750Y-83343750D03*
%TD*%
D34*
%TO.C,K34*%
X193198750Y-111918750D03*
D35*
X188118750Y-111918750D03*
D34*
X183038750Y-111918750D03*
D36*
X190658750Y-106838750D03*
X184308750Y-109378750D03*
%TD*%
D32*
%TO.C,D36*%
X210978750Y-64293750D03*
D33*
X203358750Y-64293750D03*
%TD*%
D32*
%TO.C,D46*%
X249078750Y-102393750D03*
D33*
X241458750Y-102393750D03*
%TD*%
D32*
%TO.C,D55*%
X287178750Y-121443750D03*
D33*
X279558750Y-121443750D03*
%TD*%
D32*
%TO.C,D63*%
X325278750Y-121443750D03*
D33*
X317658750Y-121443750D03*
%TD*%
D32*
%TO.C,D57*%
X306228750Y-83343750D03*
D33*
X298608750Y-83343750D03*
%TD*%
D32*
%TO.C,D14*%
X96678750Y-102393750D03*
D33*
X89058750Y-102393750D03*
%TD*%
D34*
%TO.C,K16*%
X106838750Y-73818750D03*
D35*
X111918750Y-73818750D03*
D34*
X116998750Y-73818750D03*
D36*
X114458750Y-68738750D03*
X108108750Y-71278750D03*
%TD*%
D34*
%TO.C,K5*%
X49688750Y-92868750D03*
D35*
X54768750Y-92868750D03*
D34*
X59848750Y-92868750D03*
D36*
X57308750Y-87788750D03*
X50958750Y-90328750D03*
%TD*%
D32*
%TO.C,D33*%
X191928750Y-83343750D03*
D33*
X184308750Y-83343750D03*
%TD*%
D34*
%TO.C,K38*%
X202088750Y-111918750D03*
D35*
X207168750Y-111918750D03*
D34*
X212248750Y-111918750D03*
D36*
X209708750Y-106838750D03*
X203358750Y-109378750D03*
%TD*%
D34*
%TO.C,K44*%
X250348750Y-73818750D03*
X240188750Y-73818750D03*
D35*
X245268750Y-73818750D03*
D36*
X247808750Y-68738750D03*
X241458750Y-71278750D03*
%TD*%
D32*
%TO.C,D16*%
X115728750Y-64293750D03*
D33*
X108108750Y-64293750D03*
%TD*%
D34*
%TO.C,K46*%
X250348750Y-111918750D03*
X240188750Y-111918750D03*
D35*
X245268750Y-111918750D03*
D36*
X247808750Y-106838750D03*
X241458750Y-109378750D03*
%TD*%
D35*
%TO.C,K49*%
X264318750Y-92868750D03*
D34*
X259238750Y-92868750D03*
X269398750Y-92868750D03*
D36*
X266858750Y-87788750D03*
X260508750Y-90328750D03*
%TD*%
D34*
%TO.C,K41*%
X221138750Y-92868750D03*
D35*
X226218750Y-92868750D03*
D34*
X231298750Y-92868750D03*
D36*
X228758750Y-87788750D03*
X222408750Y-90328750D03*
%TD*%
D34*
%TO.C,K2*%
X30638750Y-111918750D03*
D35*
X35718750Y-111918750D03*
D34*
X40798750Y-111918750D03*
D36*
X38258750Y-106838750D03*
X31908750Y-109378750D03*
%TD*%
D32*
%TO.C,D38*%
X210978750Y-102393750D03*
D33*
X203358750Y-102393750D03*
%TD*%
D35*
%TO.C,K62*%
X321468750Y-111918750D03*
D34*
X326548750Y-111918750D03*
X316388750Y-111918750D03*
D36*
X324008750Y-106838750D03*
X317658750Y-109378750D03*
%TD*%
D32*
%TO.C,D10*%
X77628750Y-102393750D03*
D33*
X70008750Y-102393750D03*
%TD*%
D35*
%TO.C,K60*%
X321468750Y-73818750D03*
D34*
X326548750Y-73818750D03*
X316388750Y-73818750D03*
D36*
X324008750Y-68738750D03*
X317658750Y-71278750D03*
%TD*%
D34*
%TO.C,K31*%
X163988750Y-130968750D03*
D35*
X169068750Y-130968750D03*
D34*
X174148750Y-130968750D03*
D36*
X171608750Y-125888750D03*
X165258750Y-128428750D03*
%TD*%
D35*
%TO.C,K43*%
X226218750Y-130968750D03*
D34*
X231298750Y-130968750D03*
X221138750Y-130968750D03*
D36*
X228758750Y-125888750D03*
X222408750Y-128428750D03*
%TD*%
D34*
%TO.C,K14*%
X87788750Y-111918750D03*
X97948750Y-111918750D03*
D35*
X92868750Y-111918750D03*
D36*
X95408750Y-106838750D03*
X89058750Y-109378750D03*
%TD*%
D34*
%TO.C,K21*%
X136048750Y-92868750D03*
D35*
X130968750Y-92868750D03*
D34*
X125888750Y-92868750D03*
D36*
X133508750Y-87788750D03*
X127158750Y-90328750D03*
%TD*%
D34*
%TO.C,K39*%
X202088750Y-130968750D03*
D35*
X207168750Y-130968750D03*
D34*
X212248750Y-130968750D03*
D36*
X209708750Y-125888750D03*
X203358750Y-128428750D03*
%TD*%
D34*
%TO.C,K23*%
X145573750Y-130968750D03*
D35*
X130968750Y-130968750D03*
D34*
X125888750Y-130968750D03*
X135413750Y-130968750D03*
D35*
X140493750Y-130968750D03*
D34*
X136048750Y-130968750D03*
D36*
X143033750Y-125888750D03*
X133508750Y-125888750D03*
X136683750Y-128428750D03*
X127158750Y-128428750D03*
%TD*%
D32*
%TO.C,D40*%
X230028750Y-64293750D03*
D33*
X222408750Y-64293750D03*
%TD*%
D35*
%TO.C,K51*%
X264318750Y-130968750D03*
D34*
X269398750Y-130968750D03*
X259238750Y-130968750D03*
D36*
X266858750Y-125888750D03*
X260508750Y-128428750D03*
%TD*%
D32*
%TO.C,D12*%
X96678750Y-64293750D03*
D33*
X89058750Y-64293750D03*
%TD*%
D34*
%TO.C,K36*%
X202088750Y-73818750D03*
D35*
X207168750Y-73818750D03*
D34*
X212248750Y-73818750D03*
D36*
X209708750Y-68738750D03*
X203358750Y-71278750D03*
%TD*%
D32*
%TO.C,D24*%
X153828750Y-64293750D03*
D33*
X146208750Y-64293750D03*
%TD*%
D34*
%TO.C,K26*%
X144938750Y-111918750D03*
X155098750Y-111918750D03*
D35*
X150018750Y-111918750D03*
D36*
X152558750Y-106838750D03*
X146208750Y-109378750D03*
%TD*%
D32*
%TO.C,D8*%
X77628750Y-64293750D03*
D33*
X70008750Y-64293750D03*
%TD*%
D35*
%TO.C,K8*%
X73818750Y-73818750D03*
D34*
X78898750Y-73818750D03*
X68738750Y-73818750D03*
D36*
X76358750Y-68738750D03*
X70008750Y-71278750D03*
%TD*%
D34*
%TO.C,K40*%
X231298750Y-73818750D03*
D35*
X226218750Y-73818750D03*
D34*
X221138750Y-73818750D03*
D36*
X228758750Y-68738750D03*
X222408750Y-71278750D03*
%TD*%
D34*
%TO.C,K25*%
X144938750Y-92868750D03*
D35*
X150018750Y-92868750D03*
D34*
X155098750Y-92868750D03*
D36*
X152558750Y-87788750D03*
X146208750Y-90328750D03*
%TD*%
D32*
%TO.C,D42*%
X230028750Y-102393750D03*
D33*
X222408750Y-102393750D03*
%TD*%
D34*
%TO.C,K18*%
X116998750Y-111918750D03*
D35*
X111918750Y-111918750D03*
D34*
X106838750Y-111918750D03*
D36*
X114458750Y-106838750D03*
X108108750Y-109378750D03*
%TD*%
D32*
%TO.C,D54*%
X287178750Y-102393750D03*
D33*
X279558750Y-102393750D03*
%TD*%
D32*
%TO.C,D27*%
X153828750Y-121443750D03*
D33*
X146208750Y-121443750D03*
%TD*%
D32*
%TO.C,D18*%
X115728750Y-102393750D03*
D33*
X108108750Y-102393750D03*
%TD*%
D32*
%TO.C,D30*%
X172878750Y-102393750D03*
D33*
X165258750Y-102393750D03*
%TD*%
D32*
%TO.C,D3*%
X39528750Y-121443750D03*
D33*
X31908750Y-121443750D03*
%TD*%
D32*
%TO.C,D13*%
X96678750Y-83343750D03*
D33*
X89058750Y-83343750D03*
%TD*%
D32*
%TO.C,D47*%
X249078750Y-121443750D03*
D33*
X241458750Y-121443750D03*
%TD*%
D32*
%TO.C,D22*%
X134778750Y-102393750D03*
D33*
X127158750Y-102393750D03*
%TD*%
D32*
%TO.C,D0*%
X39528750Y-64293750D03*
D33*
X31908750Y-64293750D03*
%TD*%
D32*
%TO.C,D20*%
X134778750Y-64293750D03*
D33*
X127158750Y-64293750D03*
%TD*%
D34*
%TO.C,K0*%
X30638750Y-73818750D03*
X40798750Y-73818750D03*
D35*
X35718750Y-73818750D03*
D36*
X38258750Y-68738750D03*
X31908750Y-71278750D03*
%TD*%
D35*
%TO.C,K52*%
X283368750Y-73818750D03*
D34*
X288448750Y-73818750D03*
X278288750Y-73818750D03*
D36*
X285908750Y-68738750D03*
X279558750Y-71278750D03*
%TD*%
D32*
%TO.C,D2*%
X39528750Y-102393750D03*
D33*
X31908750Y-102393750D03*
%TD*%
D34*
%TO.C,K4*%
X49688750Y-73818750D03*
D35*
X54768750Y-73818750D03*
D34*
X59848750Y-73818750D03*
D36*
X57308750Y-68738750D03*
X50958750Y-71278750D03*
%TD*%
D32*
%TO.C,D62*%
X325278750Y-102393750D03*
D33*
X317658750Y-102393750D03*
%TD*%
D32*
%TO.C,D15*%
X96678750Y-121443750D03*
D33*
X89058750Y-121443750D03*
%TD*%
D34*
%TO.C,K3*%
X40798750Y-130968750D03*
X30638750Y-130968750D03*
D35*
X35718750Y-130968750D03*
D36*
X38258750Y-125888750D03*
X31908750Y-128428750D03*
%TD*%
D35*
%TO.C,K32*%
X188118750Y-73818750D03*
D34*
X193198750Y-73818750D03*
X183038750Y-73818750D03*
D36*
X190658750Y-68738750D03*
X184308750Y-71278750D03*
%TD*%
D34*
%TO.C,K42*%
X221138750Y-111918750D03*
X231298750Y-111918750D03*
D35*
X226218750Y-111918750D03*
D36*
X228758750Y-106838750D03*
X222408750Y-109378750D03*
%TD*%
D32*
%TO.C,D56*%
X306228750Y-64293750D03*
D33*
X298608750Y-64293750D03*
%TD*%
D32*
%TO.C,D60*%
X325278750Y-64293750D03*
D33*
X317658750Y-64293750D03*
%TD*%
D32*
%TO.C,D44*%
X249078750Y-64293750D03*
D33*
X241458750Y-64293750D03*
%TD*%
D35*
%TO.C,K55*%
X283368750Y-130968750D03*
D34*
X278288750Y-130968750D03*
X288448750Y-130968750D03*
D36*
X285908750Y-125888750D03*
X279558750Y-128428750D03*
%TD*%
D32*
%TO.C,D58*%
X306228750Y-102393750D03*
D33*
X298608750Y-102393750D03*
%TD*%
D32*
%TO.C,D59*%
X306228750Y-121443750D03*
D33*
X298608750Y-121443750D03*
%TD*%
D34*
%TO.C,K45*%
X250348750Y-92868750D03*
X240188750Y-92868750D03*
D35*
X245268750Y-92868750D03*
D36*
X247808750Y-87788750D03*
X241458750Y-90328750D03*
%TD*%
D34*
%TO.C,K29*%
X174148750Y-92868750D03*
X163988750Y-92868750D03*
D35*
X169068750Y-92868750D03*
D36*
X171608750Y-87788750D03*
X165258750Y-90328750D03*
%TD*%
D34*
%TO.C,K33*%
X193198750Y-92868750D03*
D35*
X188118750Y-92868750D03*
D34*
X183038750Y-92868750D03*
D36*
X190658750Y-87788750D03*
X184308750Y-90328750D03*
%TD*%
D34*
%TO.C,K63*%
X326548750Y-130968750D03*
D35*
X321468750Y-130968750D03*
D34*
X316388750Y-130968750D03*
D36*
X324008750Y-125888750D03*
X317658750Y-128428750D03*
%TD*%
D34*
%TO.C,K1*%
X40798750Y-92868750D03*
X30638750Y-92868750D03*
D35*
X35718750Y-92868750D03*
D36*
X38258750Y-87788750D03*
X31908750Y-90328750D03*
%TD*%
D32*
%TO.C,D6*%
X58578750Y-102393750D03*
D33*
X50958750Y-102393750D03*
%TD*%
D34*
%TO.C,K59*%
X297338750Y-130968750D03*
D35*
X302418750Y-130968750D03*
D34*
X307498750Y-130968750D03*
D36*
X304958750Y-125888750D03*
X298608750Y-128428750D03*
%TD*%
D32*
%TO.C,D52*%
X287178750Y-64293750D03*
D33*
X279558750Y-64293750D03*
%TD*%
D35*
%TO.C,K61*%
X321468750Y-92868750D03*
D34*
X316388750Y-92868750D03*
X326548750Y-92868750D03*
D36*
X324008750Y-87788750D03*
X317658750Y-90328750D03*
%TD*%
D32*
%TO.C,D48*%
X268128750Y-64293750D03*
D33*
X260508750Y-64293750D03*
%TD*%
D32*
%TO.C,D23*%
X134778750Y-121443750D03*
D33*
X127158750Y-121443750D03*
%TD*%
D35*
%TO.C,K47*%
X245268750Y-130968750D03*
D34*
X240188750Y-130968750D03*
X250348750Y-130968750D03*
D36*
X247808750Y-125888750D03*
X241458750Y-128428750D03*
%TD*%
D35*
%TO.C,K27*%
X150018750Y-130968750D03*
D34*
X155098750Y-130968750D03*
X144938750Y-130968750D03*
D36*
X152558750Y-125888750D03*
X146208750Y-128428750D03*
%TD*%
D34*
%TO.C,K7*%
X59848750Y-130968750D03*
X49688750Y-130968750D03*
D35*
X54768750Y-130968750D03*
D36*
X57308750Y-125888750D03*
X50958750Y-128428750D03*
%TD*%
D32*
%TO.C,D7*%
X58578750Y-121443750D03*
D33*
X50958750Y-121443750D03*
%TD*%
D34*
%TO.C,K50*%
X269398750Y-111918750D03*
X259238750Y-111918750D03*
D35*
X264318750Y-111918750D03*
D36*
X266858750Y-106838750D03*
X260508750Y-109378750D03*
%TD*%
D32*
%TO.C,D43*%
X230028750Y-121443750D03*
D33*
X222408750Y-121443750D03*
%TD*%
D32*
%TO.C,D9*%
X77628750Y-83343750D03*
D33*
X70008750Y-83343750D03*
%TD*%
D34*
%TO.C,K19*%
X116998750Y-130968750D03*
D35*
X111918750Y-130968750D03*
D34*
X106838750Y-130968750D03*
D36*
X114458750Y-125888750D03*
X108108750Y-128428750D03*
%TD*%
D32*
%TO.C,D32*%
X191928750Y-64293750D03*
D33*
X184308750Y-64293750D03*
%TD*%
D32*
%TO.C,D17*%
X115728750Y-83343750D03*
D33*
X108108750Y-83343750D03*
%TD*%
D34*
%TO.C,K15*%
X97948750Y-130968750D03*
X87788750Y-130968750D03*
D35*
X92868750Y-130968750D03*
D36*
X95408750Y-125888750D03*
X89058750Y-128428750D03*
%TD*%
D32*
%TO.C,D1*%
X39528750Y-83343750D03*
D33*
X31908750Y-83343750D03*
%TD*%
D35*
%TO.C,K22*%
X130968750Y-111918750D03*
D34*
X125888750Y-111918750D03*
X136048750Y-111918750D03*
D36*
X133508750Y-106838750D03*
X127158750Y-109378750D03*
%TD*%
D35*
%TO.C,K20*%
X130968750Y-73818750D03*
D34*
X125888750Y-73818750D03*
X136048750Y-73818750D03*
D36*
X133508750Y-68738750D03*
X127158750Y-71278750D03*
%TD*%
D32*
%TO.C,D11*%
X77628750Y-121443750D03*
D33*
X70008750Y-121443750D03*
%TD*%
D32*
%TO.C,D50*%
X268128750Y-102393750D03*
D33*
X260508750Y-102393750D03*
%TD*%
D32*
%TO.C,D34*%
X191928750Y-102393750D03*
D33*
X184308750Y-102393750D03*
%TD*%
D32*
%TO.C,D35*%
X191928750Y-121443750D03*
D33*
X184308750Y-121443750D03*
%TD*%
D32*
%TO.C,D45*%
X249078750Y-83343750D03*
D33*
X241458750Y-83343750D03*
%TD*%
M02*
