M48
; DRILL file {KiCad (6.0.0)} date Mon Apr  4 18:27:56 2022
; FORMAT={-:-/ absolute / inch / decimal}
; #@! TF.CreationDate,2022-04-04T18:27:56-04:00
; #@! TF.GenerationSoftware,Kicad,Pcbnew,(6.0.0)
; #@! TF.FileFunction,Plated,1,2,PTH
FMAT,2
INCH
; #@! TA.AperFunction,Plated,PTH,ViaDrill
T1C0.0157
; #@! TA.AperFunction,Plated,PTH,ComponentDrill
T2C0.0394
; #@! TA.AperFunction,Plated,PTH,ComponentDrill
T3C0.1102
%
G90
G05
T1
X2.25Y-7.2812
X2.25Y-8.0
X2.25Y-8.75
X2.25Y-9.5
X2.25Y-10.25
X3.0Y-7.2812
X3.0Y-8.0
X3.0Y-8.75
X3.0Y-9.5
X3.0Y-10.25
X3.8438Y-5.8438
X3.9375Y-6.1562
X3.9375Y-7.2812
X4.0312Y-10.25
X4.125Y-8.0
X4.2188Y-8.75
X4.4062Y-9.5
X4.6875Y-7.2812
X4.9688Y-10.25
X5.0625Y-8.0
X5.25Y-8.75
X5.4375Y-5.375
X5.4375Y-6.125
X5.4375Y-7.2812
X5.625Y-9.5
X5.8125Y-8.0
X5.9062Y-10.25
X6.0Y-8.75
X6.1875Y-5.375
X6.1875Y-6.125
X6.1875Y-7.2812
X6.375Y-9.5
X6.5625Y-8.0
X6.75Y-8.75
X6.9375Y-5.375
X6.9375Y-6.125
X6.9375Y-7.2812
X7.125Y-9.5
X7.3125Y-8.0
X7.5Y-8.75
X7.6875Y-5.375
X7.6875Y-6.125
X7.6875Y-7.2812
X7.875Y-9.5
X8.0625Y-8.0
X8.25Y-8.75
X8.4375Y-7.2812
X8.625Y-9.5
X8.7188Y-10.25
X8.8125Y-5.375
X8.8125Y-6.125
X8.8125Y-8.0
X9.0Y-8.75
X9.1875Y-7.2812
X9.375Y-9.5
X9.5625Y-5.375
X9.5625Y-6.125
X9.5625Y-8.0
X9.75Y-8.75
X9.9375Y-7.2812
X10.125Y-9.5
X10.3125Y-5.375
X10.3125Y-6.125
X10.3125Y-8.0
X10.5Y-8.75
X10.6875Y-7.2812
X10.875Y-9.5
X11.0625Y-5.375
X11.0625Y-6.125
X11.0625Y-8.0
X11.25Y-8.75
X11.4375Y-7.2812
X11.5312Y-10.25
X11.625Y-9.5
X11.8125Y-8.0
X12.0Y-8.75
X12.1875Y-6.125
X12.1875Y-7.2812
X12.375Y-9.5
X12.4688Y-10.25
X12.5625Y-8.0
X12.75Y-8.75
X12.9375Y-6.125
X12.9375Y-7.2812
X13.3125Y-8.0
X13.4062Y-10.25
X13.6875Y-6.125
X13.7812Y-9.5
X13.9688Y-8.75
X14.0625Y-7.2812
X14.25Y-8.0
X14.3438Y-10.25
X14.4375Y-6.125
X15.375Y-5.375
X15.375Y-6.125
X15.375Y-7.2812
X15.375Y-8.0
X15.375Y-10.25
X16.125Y-5.375
X16.125Y-6.125
X16.125Y-7.2812
X16.125Y-8.0
X16.125Y-9.5
X16.125Y-10.25
X16.875Y-5.375
X16.875Y-6.125
X16.875Y-7.2812
X16.875Y-8.0
X16.875Y-10.25
X17.8125Y-7.2812
X17.8125Y-8.0
X17.8125Y-8.75
X17.8125Y-9.5
X17.8125Y-10.25
X18.5625Y-7.2812
X18.5625Y-8.0
X18.5625Y-8.75
X18.5625Y-9.5
X18.5625Y-10.25
X19.3125Y-7.2812
X19.3125Y-8.0
X19.3125Y-8.75
X19.3125Y-9.5
X19.3125Y-10.25
X20.0625Y-5.375
X20.0625Y-7.2812
X20.0625Y-8.0
X20.0625Y-8.75
X20.0625Y-9.875
T2
X17.2311Y-5.9754
X17.2311Y-6.0754
X17.2311Y-6.1754
X17.2311Y-6.2754
X17.3311Y-5.9754
X17.3311Y-6.0754
X17.3311Y-6.1754
X17.3311Y-6.2754
T3
X2.625Y-6.125
X2.625Y-9.5
X8.25Y-6.125
X8.25Y-9.5
X14.9062Y-6.125
X14.9062Y-9.5
X19.6875Y-6.125
X19.6875Y-9.5
T0
M30
