%TF.GenerationSoftware,KiCad,Pcbnew,(6.0.0)*%
%TF.CreationDate,2022-04-04T18:27:56-04:00*%
%TF.ProjectId,SweetBusinessRGBCore,53776565-7442-4757-9369-6e6573735247,rev?*%
%TF.SameCoordinates,Original*%
%TF.FileFunction,Copper,L2,Bot*%
%TF.FilePolarity,Positive*%
%FSLAX46Y46*%
G04 Gerber Fmt 4.6, Leading zero omitted, Abs format (unit mm)*
G04 Created by KiCad (PCBNEW (6.0.0)) date 2022-04-04 18:27:56*
%MOMM*%
%LPD*%
G01*
G04 APERTURE LIST*
%TA.AperFunction,ComponentPad*%
%ADD10C,4.350000*%
%TD*%
%TA.AperFunction,ComponentPad*%
%ADD11R,1.700000X1.700000*%
%TD*%
%TA.AperFunction,ComponentPad*%
%ADD12O,1.700000X1.700000*%
%TD*%
%TA.AperFunction,ViaPad*%
%ADD13C,0.800000*%
%TD*%
%TA.AperFunction,Conductor*%
%ADD14C,0.250000*%
%TD*%
%TA.AperFunction,Conductor*%
%ADD15C,1.000000*%
%TD*%
G04 APERTURE END LIST*
D10*
%TO.P,H8,1,1*%
%TO.N,GND*%
X500062500Y-241300000D03*
%TD*%
%TO.P,H2,1,1*%
%TO.N,GND*%
X209550000Y-155575000D03*
%TD*%
%TO.P,H7,1,1*%
%TO.N,GND*%
X378618750Y-241300000D03*
%TD*%
%TO.P,H5,1,1*%
%TO.N,GND*%
X66675000Y-241300000D03*
%TD*%
D11*
%TO.P,J1,1,Pin_1*%
%TO.N,VBUS*%
X437668750Y-151775000D03*
D12*
%TO.P,J1,2,Pin_2*%
%TO.N,LED*%
X440208750Y-151775000D03*
%TO.P,J1,3,Pin_3*%
%TO.N,VBUS*%
X437668750Y-154315000D03*
%TO.P,J1,4,Pin_4*%
%TO.N,GND*%
X440208750Y-154315000D03*
%TO.P,J1,5,Pin_5*%
%TO.N,VBUS*%
X437668750Y-156855000D03*
%TO.P,J1,6,Pin_6*%
%TO.N,GND*%
X440208750Y-156855000D03*
%TO.P,J1,7,Pin_7*%
%TO.N,VBUS*%
X437668750Y-159395000D03*
%TO.P,J1,8,Pin_8*%
%TO.N,GND*%
X440208750Y-159395000D03*
%TD*%
D10*
%TO.P,H1,1,1*%
%TO.N,GND*%
X66675000Y-155575000D03*
%TD*%
%TO.P,H3,1,1*%
%TO.N,GND*%
X378618750Y-155575000D03*
%TD*%
%TO.P,H4,1,1*%
%TO.N,GND*%
X500062500Y-155575000D03*
%TD*%
%TO.P,H6,1,1*%
%TO.N,GND*%
X209550000Y-241300000D03*
%TD*%
D13*
%TO.N,LED*%
X97631250Y-148431250D03*
%TO.N,GND*%
X428625000Y-184943750D03*
X252412500Y-184943750D03*
X157162500Y-136525000D03*
X276225000Y-241300000D03*
X238125000Y-241300000D03*
X319087500Y-203200000D03*
X157162500Y-155575000D03*
X490537500Y-241300000D03*
X76200000Y-184943750D03*
X509587500Y-250825000D03*
X128587500Y-203200000D03*
X133350000Y-222250000D03*
X314325000Y-241300000D03*
X266700000Y-222250000D03*
X152400000Y-222250000D03*
X295275000Y-241300000D03*
X150018750Y-260350000D03*
X300037500Y-203200000D03*
X171450000Y-222250000D03*
X100012500Y-156368750D03*
X280987500Y-155575000D03*
X261937500Y-136525000D03*
X195262500Y-155575000D03*
X242887500Y-203200000D03*
X219075000Y-241300000D03*
X357187500Y-184943750D03*
X209550000Y-222250000D03*
X138112500Y-155575000D03*
X340518750Y-260350000D03*
X138112500Y-184943750D03*
X242887500Y-155575000D03*
X428625000Y-155575000D03*
X428625000Y-260350000D03*
X309562500Y-184943750D03*
X390525000Y-184943750D03*
X471487500Y-260350000D03*
X509587500Y-184943750D03*
X57150000Y-260350000D03*
X257175000Y-241300000D03*
X452437500Y-260350000D03*
X490537500Y-203200000D03*
X316706250Y-260350000D03*
X452437500Y-184943750D03*
X471487500Y-222250000D03*
X242887500Y-136525000D03*
X490537500Y-184943750D03*
X409575000Y-155575000D03*
X509587500Y-136525000D03*
X364331250Y-260350000D03*
X409575000Y-203200000D03*
X221456250Y-260350000D03*
X157162500Y-184943750D03*
X57150000Y-203200000D03*
X452437500Y-222250000D03*
X228600000Y-222250000D03*
X366712500Y-155575000D03*
X347662500Y-155575000D03*
X214312500Y-184943750D03*
X471487500Y-203200000D03*
X390525000Y-155575000D03*
X428625000Y-203200000D03*
X409575000Y-260350000D03*
X261937500Y-203200000D03*
X233362500Y-184943750D03*
X223837500Y-136525000D03*
X328612500Y-155575000D03*
X350043750Y-241300000D03*
X223837500Y-155575000D03*
X126206250Y-260350000D03*
X200025000Y-241300000D03*
X57150000Y-184943750D03*
X328612500Y-184943750D03*
X471487500Y-184943750D03*
X76200000Y-260350000D03*
X354806250Y-222250000D03*
X271462500Y-184943750D03*
X176212500Y-184943750D03*
X509587500Y-222250000D03*
X76200000Y-203200000D03*
X390525000Y-260350000D03*
X76200000Y-241300000D03*
X104775000Y-203200000D03*
X223837500Y-203200000D03*
X57150000Y-241300000D03*
X409575000Y-184943750D03*
X452437500Y-241300000D03*
X111918750Y-241300000D03*
X290512500Y-184943750D03*
X142875000Y-241300000D03*
X161925000Y-241300000D03*
X323850000Y-222250000D03*
X185737500Y-203200000D03*
X361950000Y-203200000D03*
X57150000Y-222250000D03*
X304800000Y-222250000D03*
X138112500Y-136525000D03*
X176212500Y-136525000D03*
X338137500Y-203200000D03*
X119062500Y-184943750D03*
X180975000Y-241300000D03*
X471487500Y-241300000D03*
X409575000Y-136525000D03*
X147637500Y-203200000D03*
X107156250Y-222250000D03*
X261937500Y-155575000D03*
X102393750Y-260350000D03*
X280987500Y-203200000D03*
X292893750Y-260350000D03*
X490537500Y-222250000D03*
X190500000Y-222250000D03*
X166687500Y-203200000D03*
X176212500Y-155575000D03*
X285750000Y-222250000D03*
X490537500Y-260350000D03*
X509587500Y-203200000D03*
X409575000Y-241300000D03*
X309562500Y-155575000D03*
X76200000Y-222250000D03*
X428625000Y-136525000D03*
X452437500Y-203200000D03*
X195262500Y-136525000D03*
X204787500Y-203200000D03*
X280987500Y-136525000D03*
X247650000Y-222250000D03*
X195262500Y-184943750D03*
X390525000Y-136525000D03*
X100012500Y-184943750D03*
X390525000Y-203200000D03*
%TD*%
D14*
%TO.N,LED*%
X100012500Y-146050000D02*
X97631250Y-148431250D01*
X440208750Y-147315000D02*
X438943750Y-146050000D01*
X438943750Y-146050000D02*
X378618750Y-146050000D01*
X378618750Y-146050000D02*
X100012500Y-146050000D01*
X440208750Y-151775000D02*
X440208750Y-147315000D01*
D15*
%TO.N,GND*%
X440208750Y-154315000D02*
X440208750Y-159395000D01*
%TD*%
%TA.AperFunction,Conductor*%
%TO.N,GND*%
G36*
X288101307Y-127509500D02*
G01*
X288116108Y-127511805D01*
X288116111Y-127511805D01*
X288124980Y-127513186D01*
X288141249Y-127511059D01*
X288165817Y-127510266D01*
X288367516Y-127523486D01*
X288383856Y-127525637D01*
X288607983Y-127570218D01*
X288623904Y-127574484D01*
X288840293Y-127647939D01*
X288855519Y-127654246D01*
X289060467Y-127755315D01*
X289074741Y-127763556D01*
X289264747Y-127890514D01*
X289277822Y-127900547D01*
X289449636Y-128051223D01*
X289461277Y-128062864D01*
X289611045Y-128233642D01*
X289611953Y-128234678D01*
X289621986Y-128247753D01*
X289748944Y-128437759D01*
X289757185Y-128452033D01*
X289858254Y-128656981D01*
X289864561Y-128672207D01*
X289938016Y-128888596D01*
X289942282Y-128904517D01*
X289986863Y-129128644D01*
X289989014Y-129144984D01*
X290001764Y-129339518D01*
X290000739Y-129362554D01*
X290000696Y-129366104D01*
X289999314Y-129374980D01*
X290001138Y-129388928D01*
X290003436Y-129406501D01*
X290004500Y-129422839D01*
X290004500Y-142031922D01*
X290003000Y-142051306D01*
X289999314Y-142074980D01*
X290000134Y-142081250D01*
X290000004Y-142081250D01*
X290002135Y-142113757D01*
X290012291Y-142268703D01*
X290017970Y-142355354D01*
X290071560Y-142624769D01*
X290072885Y-142628673D01*
X290072886Y-142628676D01*
X290158531Y-142880978D01*
X290159857Y-142884884D01*
X290281350Y-143131248D01*
X290433961Y-143359647D01*
X290436674Y-143362741D01*
X290436679Y-143362747D01*
X290612370Y-143563082D01*
X290615079Y-143566171D01*
X290618168Y-143568880D01*
X290818503Y-143744571D01*
X290818509Y-143744576D01*
X290821603Y-143747289D01*
X290825029Y-143749578D01*
X290825034Y-143749582D01*
X290994769Y-143862994D01*
X291050002Y-143899900D01*
X291053701Y-143901724D01*
X291053706Y-143901727D01*
X291179775Y-143963897D01*
X291296366Y-144021393D01*
X291300271Y-144022718D01*
X291300272Y-144022719D01*
X291552574Y-144108364D01*
X291552577Y-144108365D01*
X291556481Y-144109690D01*
X291560520Y-144110493D01*
X291560526Y-144110495D01*
X291821853Y-144162476D01*
X291821856Y-144162476D01*
X291825896Y-144163280D01*
X291830007Y-144163549D01*
X291830011Y-144163550D01*
X292067493Y-144179116D01*
X292080148Y-144180591D01*
X292080392Y-144180632D01*
X292087461Y-144181821D01*
X292093842Y-144181899D01*
X292095141Y-144181915D01*
X292095145Y-144181915D01*
X292100000Y-144181974D01*
X292127588Y-144178023D01*
X292145451Y-144176750D01*
X380153043Y-144176750D01*
X380173947Y-144178496D01*
X380193711Y-144181821D01*
X380199831Y-144181896D01*
X380201383Y-144181915D01*
X380201388Y-144181915D01*
X380206250Y-144181974D01*
X380211076Y-144181283D01*
X380211291Y-144181269D01*
X380220442Y-144180316D01*
X380373217Y-144170302D01*
X380476239Y-144163550D01*
X380476243Y-144163549D01*
X380480354Y-144163280D01*
X380484394Y-144162476D01*
X380484397Y-144162476D01*
X380745724Y-144110495D01*
X380745730Y-144110493D01*
X380749769Y-144109690D01*
X380753673Y-144108365D01*
X380753676Y-144108364D01*
X381005978Y-144022719D01*
X381005979Y-144022718D01*
X381009884Y-144021393D01*
X381126474Y-143963897D01*
X381252544Y-143901727D01*
X381252549Y-143901724D01*
X381256248Y-143899900D01*
X381311481Y-143862994D01*
X381481216Y-143749582D01*
X381481221Y-143749578D01*
X381484647Y-143747289D01*
X381487741Y-143744576D01*
X381487747Y-143744571D01*
X381688082Y-143568880D01*
X381691171Y-143566171D01*
X381693880Y-143563082D01*
X381869571Y-143362747D01*
X381869576Y-143362741D01*
X381872289Y-143359647D01*
X382024900Y-143131248D01*
X382146393Y-142884884D01*
X382147719Y-142880978D01*
X382233364Y-142628676D01*
X382233365Y-142628673D01*
X382234690Y-142624769D01*
X382288280Y-142355354D01*
X382304116Y-142113757D01*
X382305591Y-142101102D01*
X382306013Y-142098590D01*
X382306821Y-142093789D01*
X382306974Y-142081250D01*
X382303023Y-142053662D01*
X382301750Y-142035799D01*
X382301750Y-129434457D01*
X382303496Y-129413553D01*
X382306014Y-129398585D01*
X382306821Y-129393789D01*
X382306974Y-129381250D01*
X382305252Y-129369225D01*
X382304249Y-129343121D01*
X382317236Y-129144984D01*
X382319387Y-129128644D01*
X382363968Y-128904517D01*
X382368234Y-128888596D01*
X382441689Y-128672207D01*
X382447996Y-128656981D01*
X382549065Y-128452033D01*
X382557306Y-128437759D01*
X382684264Y-128247753D01*
X382694297Y-128234678D01*
X382695205Y-128233642D01*
X382844973Y-128062864D01*
X382856614Y-128051223D01*
X383028428Y-127900547D01*
X383041503Y-127890514D01*
X383231509Y-127763556D01*
X383245783Y-127755315D01*
X383450731Y-127654246D01*
X383465957Y-127647939D01*
X383682346Y-127574484D01*
X383698267Y-127570218D01*
X383922394Y-127525637D01*
X383938734Y-127523486D01*
X384133268Y-127510736D01*
X384156304Y-127511761D01*
X384159854Y-127511804D01*
X384168730Y-127513186D01*
X384200252Y-127509064D01*
X384216589Y-127508000D01*
X479375672Y-127508000D01*
X479395057Y-127509500D01*
X479409859Y-127511805D01*
X479409861Y-127511805D01*
X479418730Y-127513186D01*
X479427630Y-127512022D01*
X479436606Y-127512132D01*
X479436596Y-127512950D01*
X479458086Y-127513241D01*
X479478474Y-127516470D01*
X479493592Y-127518864D01*
X479531081Y-127531045D01*
X479575182Y-127553515D01*
X479607073Y-127576686D01*
X479642064Y-127611677D01*
X479665235Y-127643568D01*
X479687705Y-127687669D01*
X479699886Y-127725158D01*
X479705374Y-127759809D01*
X479706804Y-127779517D01*
X479705564Y-127787480D01*
X479707388Y-127801428D01*
X479709686Y-127819001D01*
X479710750Y-127835339D01*
X479710750Y-135681922D01*
X479709250Y-135701306D01*
X479705564Y-135724980D01*
X479706729Y-135733885D01*
X479706819Y-135734576D01*
X479707495Y-135741024D01*
X479722801Y-135935518D01*
X479770634Y-136134757D01*
X479849046Y-136324059D01*
X479956106Y-136498765D01*
X480089178Y-136654572D01*
X480244985Y-136787644D01*
X480419691Y-136894704D01*
X480424261Y-136896597D01*
X480424265Y-136896599D01*
X480604420Y-136971222D01*
X480604422Y-136971223D01*
X480608993Y-136973116D01*
X480808232Y-137020949D01*
X480857432Y-137024821D01*
X480971726Y-137033816D01*
X480982742Y-137035174D01*
X480999961Y-137038071D01*
X481006459Y-137038150D01*
X481007641Y-137038165D01*
X481007645Y-137038165D01*
X481012500Y-137038224D01*
X481040088Y-137034273D01*
X481057951Y-137033000D01*
X492071793Y-137033000D01*
X492092697Y-137034746D01*
X492112461Y-137038071D01*
X492118789Y-137038148D01*
X492120141Y-137038165D01*
X492120145Y-137038165D01*
X492125000Y-137038224D01*
X492129816Y-137037534D01*
X492129819Y-137037534D01*
X492139603Y-137036133D01*
X492147579Y-137035248D01*
X492226930Y-137029003D01*
X492329268Y-137020949D01*
X492334075Y-137019795D01*
X492334081Y-137019794D01*
X492459013Y-136989800D01*
X492528507Y-136973116D01*
X492533078Y-136971223D01*
X492533080Y-136971222D01*
X492713235Y-136896599D01*
X492713239Y-136896597D01*
X492717809Y-136894704D01*
X492892515Y-136787644D01*
X493048322Y-136654572D01*
X493181394Y-136498765D01*
X493288454Y-136324059D01*
X493366866Y-136134757D01*
X493414699Y-135935518D01*
X493427566Y-135772024D01*
X493428924Y-135761006D01*
X493431013Y-135748590D01*
X493431821Y-135743789D01*
X493431974Y-135731250D01*
X493428023Y-135703662D01*
X493426750Y-135685799D01*
X493426750Y-127846957D01*
X493428496Y-127826053D01*
X493431014Y-127811085D01*
X493431821Y-127806289D01*
X493431974Y-127793750D01*
X493431285Y-127788939D01*
X493431099Y-127786087D01*
X493432383Y-127758186D01*
X493437614Y-127725158D01*
X493449795Y-127687669D01*
X493472265Y-127643568D01*
X493495436Y-127611677D01*
X493530427Y-127576686D01*
X493562318Y-127553515D01*
X493606419Y-127531045D01*
X493643908Y-127518864D01*
X493678559Y-127513376D01*
X493698267Y-127511946D01*
X493706230Y-127513186D01*
X493737752Y-127509064D01*
X493754089Y-127508000D01*
X516681922Y-127508000D01*
X516701307Y-127509500D01*
X516716108Y-127511805D01*
X516716111Y-127511805D01*
X516724980Y-127513186D01*
X516741249Y-127511059D01*
X516765817Y-127510266D01*
X516967516Y-127523486D01*
X516983856Y-127525637D01*
X517207983Y-127570218D01*
X517223904Y-127574484D01*
X517440293Y-127647939D01*
X517455519Y-127654246D01*
X517660467Y-127755315D01*
X517674741Y-127763556D01*
X517864747Y-127890514D01*
X517877822Y-127900547D01*
X518049636Y-128051223D01*
X518061277Y-128062864D01*
X518211045Y-128233642D01*
X518211953Y-128234678D01*
X518221986Y-128247753D01*
X518348944Y-128437759D01*
X518357185Y-128452033D01*
X518458254Y-128656981D01*
X518464561Y-128672207D01*
X518538016Y-128888596D01*
X518542282Y-128904517D01*
X518586863Y-129128644D01*
X518589014Y-129144984D01*
X518601764Y-129339518D01*
X518600739Y-129362554D01*
X518600696Y-129366104D01*
X518599314Y-129374980D01*
X518601138Y-129388928D01*
X518603436Y-129406501D01*
X518604500Y-129422839D01*
X518604500Y-267444422D01*
X518603000Y-267463806D01*
X518599314Y-267487480D01*
X518601441Y-267503749D01*
X518602234Y-267528317D01*
X518589014Y-267730016D01*
X518586863Y-267746356D01*
X518542282Y-267970483D01*
X518538016Y-267986404D01*
X518464561Y-268202793D01*
X518458254Y-268218019D01*
X518357185Y-268422967D01*
X518348944Y-268437241D01*
X518221986Y-268627247D01*
X518211953Y-268640322D01*
X518061277Y-268812136D01*
X518049636Y-268823777D01*
X517878858Y-268973545D01*
X517877822Y-268974453D01*
X517864747Y-268984486D01*
X517674741Y-269111444D01*
X517660467Y-269119685D01*
X517455519Y-269220754D01*
X517440293Y-269227061D01*
X517223904Y-269300516D01*
X517207983Y-269304782D01*
X516983856Y-269349363D01*
X516967516Y-269351514D01*
X516772982Y-269364264D01*
X516749946Y-269363239D01*
X516746396Y-269363196D01*
X516737520Y-269361814D01*
X516709012Y-269365542D01*
X516705999Y-269365936D01*
X516689661Y-269367000D01*
X50055578Y-269367000D01*
X50036193Y-269365500D01*
X50021392Y-269363195D01*
X50021389Y-269363195D01*
X50012520Y-269361814D01*
X49996251Y-269363941D01*
X49971683Y-269364734D01*
X49769984Y-269351514D01*
X49753644Y-269349363D01*
X49529517Y-269304782D01*
X49513596Y-269300516D01*
X49297207Y-269227061D01*
X49281981Y-269220754D01*
X49077033Y-269119685D01*
X49062759Y-269111444D01*
X48872753Y-268984486D01*
X48859678Y-268974453D01*
X48858642Y-268973545D01*
X48687864Y-268823777D01*
X48676223Y-268812136D01*
X48525547Y-268640322D01*
X48515514Y-268627247D01*
X48388556Y-268437241D01*
X48380315Y-268422967D01*
X48279246Y-268218019D01*
X48272939Y-268202793D01*
X48199484Y-267986404D01*
X48195218Y-267970483D01*
X48150637Y-267746356D01*
X48148486Y-267730016D01*
X48135974Y-267539126D01*
X48137147Y-267515968D01*
X48136829Y-267515939D01*
X48137264Y-267511083D01*
X48138071Y-267506289D01*
X48138224Y-267493750D01*
X48134273Y-267466162D01*
X48133000Y-267448299D01*
X48133000Y-243368641D01*
X64971483Y-243368641D01*
X64979009Y-243379074D01*
X65114992Y-243488604D01*
X65121166Y-243492992D01*
X65389216Y-243660163D01*
X65395892Y-243663788D01*
X65682066Y-243797537D01*
X65689131Y-243800335D01*
X65989326Y-243898744D01*
X65996638Y-243900662D01*
X66306492Y-243962295D01*
X66313990Y-243963323D01*
X66629003Y-243987285D01*
X66636566Y-243987403D01*
X66952165Y-243973348D01*
X66959711Y-243972555D01*
X67271337Y-243920687D01*
X67278713Y-243918998D01*
X67581853Y-243830066D01*
X67588977Y-243827501D01*
X67879237Y-243702796D01*
X67886010Y-243699390D01*
X68159181Y-243540718D01*
X68165496Y-243536523D01*
X68371456Y-243381039D01*
X68379912Y-243369648D01*
X68379359Y-243368641D01*
X207846483Y-243368641D01*
X207854009Y-243379074D01*
X207989992Y-243488604D01*
X207996166Y-243492992D01*
X208264216Y-243660163D01*
X208270892Y-243663788D01*
X208557066Y-243797537D01*
X208564131Y-243800335D01*
X208864326Y-243898744D01*
X208871638Y-243900662D01*
X209181492Y-243962295D01*
X209188990Y-243963323D01*
X209504003Y-243987285D01*
X209511566Y-243987403D01*
X209827165Y-243973348D01*
X209834711Y-243972555D01*
X210146337Y-243920687D01*
X210153713Y-243918998D01*
X210456853Y-243830066D01*
X210463977Y-243827501D01*
X210754237Y-243702796D01*
X210761010Y-243699390D01*
X211034181Y-243540718D01*
X211040496Y-243536523D01*
X211246456Y-243381039D01*
X211254912Y-243369648D01*
X211254359Y-243368641D01*
X376915233Y-243368641D01*
X376922759Y-243379074D01*
X377058742Y-243488604D01*
X377064916Y-243492992D01*
X377332966Y-243660163D01*
X377339642Y-243663788D01*
X377625816Y-243797537D01*
X377632881Y-243800335D01*
X377933076Y-243898744D01*
X377940388Y-243900662D01*
X378250242Y-243962295D01*
X378257740Y-243963323D01*
X378572753Y-243987285D01*
X378580316Y-243987403D01*
X378895915Y-243973348D01*
X378903461Y-243972555D01*
X379215087Y-243920687D01*
X379222463Y-243918998D01*
X379525603Y-243830066D01*
X379532727Y-243827501D01*
X379822987Y-243702796D01*
X379829760Y-243699390D01*
X380102931Y-243540718D01*
X380109246Y-243536523D01*
X380315206Y-243381039D01*
X380323662Y-243369648D01*
X380323109Y-243368641D01*
X498358983Y-243368641D01*
X498366509Y-243379074D01*
X498502492Y-243488604D01*
X498508666Y-243492992D01*
X498776716Y-243660163D01*
X498783392Y-243663788D01*
X499069566Y-243797537D01*
X499076631Y-243800335D01*
X499376826Y-243898744D01*
X499384138Y-243900662D01*
X499693992Y-243962295D01*
X499701490Y-243963323D01*
X500016503Y-243987285D01*
X500024066Y-243987403D01*
X500339665Y-243973348D01*
X500347211Y-243972555D01*
X500658837Y-243920687D01*
X500666213Y-243918998D01*
X500969353Y-243830066D01*
X500976477Y-243827501D01*
X501266737Y-243702796D01*
X501273510Y-243699390D01*
X501546681Y-243540718D01*
X501552996Y-243536523D01*
X501758956Y-243381039D01*
X501767412Y-243369648D01*
X501760694Y-243357404D01*
X500075312Y-241672022D01*
X500061368Y-241664408D01*
X500059535Y-241664539D01*
X500052920Y-241668790D01*
X498366098Y-243355612D01*
X498358983Y-243368641D01*
X380323109Y-243368641D01*
X380316944Y-243357404D01*
X378631562Y-241672022D01*
X378617618Y-241664408D01*
X378615785Y-241664539D01*
X378609170Y-241668790D01*
X376922348Y-243355612D01*
X376915233Y-243368641D01*
X211254359Y-243368641D01*
X211248194Y-243357404D01*
X209562812Y-241672022D01*
X209548868Y-241664408D01*
X209547035Y-241664539D01*
X209540420Y-241668790D01*
X207853598Y-243355612D01*
X207846483Y-243368641D01*
X68379359Y-243368641D01*
X68373194Y-243357404D01*
X66687812Y-241672022D01*
X66673868Y-241664408D01*
X66672035Y-241664539D01*
X66665420Y-241668790D01*
X64978598Y-243355612D01*
X64971483Y-243368641D01*
X48133000Y-243368641D01*
X48133000Y-241275645D01*
X63987432Y-241275645D01*
X64003139Y-241591165D01*
X64003970Y-241598694D01*
X64057469Y-241910040D01*
X64059202Y-241917427D01*
X64149717Y-242220087D01*
X64152320Y-242227201D01*
X64278543Y-242516802D01*
X64281985Y-242523558D01*
X64442084Y-242795895D01*
X64446308Y-242802180D01*
X64594301Y-242996098D01*
X64605826Y-243004560D01*
X64617892Y-242997898D01*
X66302978Y-241312812D01*
X66309356Y-241301132D01*
X67039408Y-241301132D01*
X67039539Y-241302965D01*
X67043790Y-241309580D01*
X68730514Y-242996304D01*
X68743636Y-243003470D01*
X68753940Y-242996079D01*
X68855409Y-242871444D01*
X68859824Y-242865300D01*
X69028405Y-242598115D01*
X69032052Y-242591480D01*
X69167310Y-242305985D01*
X69170135Y-242298958D01*
X69270119Y-241999268D01*
X69272073Y-241991977D01*
X69335330Y-241682444D01*
X69336397Y-241674943D01*
X69362132Y-241358529D01*
X69362337Y-241354049D01*
X69362881Y-241302220D01*
X69362771Y-241297790D01*
X69361436Y-241275645D01*
X206862432Y-241275645D01*
X206878139Y-241591165D01*
X206878970Y-241598694D01*
X206932469Y-241910040D01*
X206934202Y-241917427D01*
X207024717Y-242220087D01*
X207027320Y-242227201D01*
X207153543Y-242516802D01*
X207156985Y-242523558D01*
X207317084Y-242795895D01*
X207321308Y-242802180D01*
X207469301Y-242996098D01*
X207480826Y-243004560D01*
X207492892Y-242997898D01*
X209177978Y-241312812D01*
X209184356Y-241301132D01*
X209914408Y-241301132D01*
X209914539Y-241302965D01*
X209918790Y-241309580D01*
X211605514Y-242996304D01*
X211618636Y-243003470D01*
X211628940Y-242996079D01*
X211730409Y-242871444D01*
X211734824Y-242865300D01*
X211903405Y-242598115D01*
X211907052Y-242591480D01*
X212042310Y-242305985D01*
X212045135Y-242298958D01*
X212145119Y-241999268D01*
X212147073Y-241991977D01*
X212210330Y-241682444D01*
X212211397Y-241674943D01*
X212237132Y-241358529D01*
X212237337Y-241354049D01*
X212237881Y-241302220D01*
X212237771Y-241297790D01*
X212236436Y-241275645D01*
X375931182Y-241275645D01*
X375946889Y-241591165D01*
X375947720Y-241598694D01*
X376001219Y-241910040D01*
X376002952Y-241917427D01*
X376093467Y-242220087D01*
X376096070Y-242227201D01*
X376222293Y-242516802D01*
X376225735Y-242523558D01*
X376385834Y-242795895D01*
X376390058Y-242802180D01*
X376538051Y-242996098D01*
X376549576Y-243004560D01*
X376561642Y-242997898D01*
X378246728Y-241312812D01*
X378253106Y-241301132D01*
X378983158Y-241301132D01*
X378983289Y-241302965D01*
X378987540Y-241309580D01*
X380674264Y-242996304D01*
X380687386Y-243003470D01*
X380697690Y-242996079D01*
X380799159Y-242871444D01*
X380803574Y-242865300D01*
X380972155Y-242598115D01*
X380975802Y-242591480D01*
X381111060Y-242305985D01*
X381113885Y-242298958D01*
X381213869Y-241999268D01*
X381215823Y-241991977D01*
X381279080Y-241682444D01*
X381280147Y-241674943D01*
X381305882Y-241358529D01*
X381306087Y-241354049D01*
X381306631Y-241302220D01*
X381306521Y-241297790D01*
X381305186Y-241275645D01*
X497374932Y-241275645D01*
X497390639Y-241591165D01*
X497391470Y-241598694D01*
X497444969Y-241910040D01*
X497446702Y-241917427D01*
X497537217Y-242220087D01*
X497539820Y-242227201D01*
X497666043Y-242516802D01*
X497669485Y-242523558D01*
X497829584Y-242795895D01*
X497833808Y-242802180D01*
X497981801Y-242996098D01*
X497993326Y-243004560D01*
X498005392Y-242997898D01*
X499690478Y-241312812D01*
X499696856Y-241301132D01*
X500426908Y-241301132D01*
X500427039Y-241302965D01*
X500431290Y-241309580D01*
X502118014Y-242996304D01*
X502131136Y-243003470D01*
X502141440Y-242996079D01*
X502242909Y-242871444D01*
X502247324Y-242865300D01*
X502415905Y-242598115D01*
X502419552Y-242591480D01*
X502554810Y-242305985D01*
X502557635Y-242298958D01*
X502657619Y-241999268D01*
X502659573Y-241991977D01*
X502722830Y-241682444D01*
X502723897Y-241674943D01*
X502749632Y-241358529D01*
X502749837Y-241354049D01*
X502750381Y-241302220D01*
X502750271Y-241297790D01*
X502731164Y-240980862D01*
X502730256Y-240973358D01*
X502673499Y-240662586D01*
X502671686Y-240655207D01*
X502578011Y-240353525D01*
X502575330Y-240346428D01*
X502446085Y-240058174D01*
X502442568Y-240051447D01*
X502279630Y-239780807D01*
X502275340Y-239774563D01*
X502142678Y-239604459D01*
X502130886Y-239595990D01*
X502119173Y-239602537D01*
X500434522Y-241287188D01*
X500426908Y-241301132D01*
X499696856Y-241301132D01*
X499698092Y-241298868D01*
X499697961Y-241297035D01*
X499693710Y-241290420D01*
X498006736Y-239603446D01*
X497993801Y-239596383D01*
X497983239Y-239604043D01*
X497865757Y-239751473D01*
X497861401Y-239757671D01*
X497695632Y-240026600D01*
X497692052Y-240033276D01*
X497559791Y-240320172D01*
X497557041Y-240327223D01*
X497460203Y-240627936D01*
X497458320Y-240635269D01*
X497398310Y-240945439D01*
X497397323Y-240952939D01*
X497375011Y-241268064D01*
X497374932Y-241275645D01*
X381305186Y-241275645D01*
X381287414Y-240980862D01*
X381286506Y-240973358D01*
X381229749Y-240662586D01*
X381227936Y-240655207D01*
X381134261Y-240353525D01*
X381131580Y-240346428D01*
X381002335Y-240058174D01*
X380998818Y-240051447D01*
X380835880Y-239780807D01*
X380831590Y-239774563D01*
X380698928Y-239604459D01*
X380687136Y-239595990D01*
X380675423Y-239602537D01*
X378990772Y-241287188D01*
X378983158Y-241301132D01*
X378253106Y-241301132D01*
X378254342Y-241298868D01*
X378254211Y-241297035D01*
X378249960Y-241290420D01*
X376562986Y-239603446D01*
X376550051Y-239596383D01*
X376539489Y-239604043D01*
X376422007Y-239751473D01*
X376417651Y-239757671D01*
X376251882Y-240026600D01*
X376248302Y-240033276D01*
X376116041Y-240320172D01*
X376113291Y-240327223D01*
X376016453Y-240627936D01*
X376014570Y-240635269D01*
X375954560Y-240945439D01*
X375953573Y-240952939D01*
X375931261Y-241268064D01*
X375931182Y-241275645D01*
X212236436Y-241275645D01*
X212218664Y-240980862D01*
X212217756Y-240973358D01*
X212160999Y-240662586D01*
X212159186Y-240655207D01*
X212065511Y-240353525D01*
X212062830Y-240346428D01*
X211933585Y-240058174D01*
X211930068Y-240051447D01*
X211767130Y-239780807D01*
X211762840Y-239774563D01*
X211630178Y-239604459D01*
X211618386Y-239595990D01*
X211606673Y-239602537D01*
X209922022Y-241287188D01*
X209914408Y-241301132D01*
X209184356Y-241301132D01*
X209185592Y-241298868D01*
X209185461Y-241297035D01*
X209181210Y-241290420D01*
X207494236Y-239603446D01*
X207481301Y-239596383D01*
X207470739Y-239604043D01*
X207353257Y-239751473D01*
X207348901Y-239757671D01*
X207183132Y-240026600D01*
X207179552Y-240033276D01*
X207047291Y-240320172D01*
X207044541Y-240327223D01*
X206947703Y-240627936D01*
X206945820Y-240635269D01*
X206885810Y-240945439D01*
X206884823Y-240952939D01*
X206862511Y-241268064D01*
X206862432Y-241275645D01*
X69361436Y-241275645D01*
X69343664Y-240980862D01*
X69342756Y-240973358D01*
X69285999Y-240662586D01*
X69284186Y-240655207D01*
X69190511Y-240353525D01*
X69187830Y-240346428D01*
X69058585Y-240058174D01*
X69055068Y-240051447D01*
X68892130Y-239780807D01*
X68887840Y-239774563D01*
X68755178Y-239604459D01*
X68743386Y-239595990D01*
X68731673Y-239602537D01*
X67047022Y-241287188D01*
X67039408Y-241301132D01*
X66309356Y-241301132D01*
X66310592Y-241298868D01*
X66310461Y-241297035D01*
X66306210Y-241290420D01*
X64619236Y-239603446D01*
X64606301Y-239596383D01*
X64595739Y-239604043D01*
X64478257Y-239751473D01*
X64473901Y-239757671D01*
X64308132Y-240026600D01*
X64304552Y-240033276D01*
X64172291Y-240320172D01*
X64169541Y-240327223D01*
X64072703Y-240627936D01*
X64070820Y-240635269D01*
X64010810Y-240945439D01*
X64009823Y-240952939D01*
X63987511Y-241268064D01*
X63987432Y-241275645D01*
X48133000Y-241275645D01*
X48133000Y-239231248D01*
X64970741Y-239231248D01*
X64977344Y-239243134D01*
X66662188Y-240927978D01*
X66676132Y-240935592D01*
X66677965Y-240935461D01*
X66684580Y-240931210D01*
X68371758Y-239244032D01*
X68378739Y-239231248D01*
X207845741Y-239231248D01*
X207852344Y-239243134D01*
X209537188Y-240927978D01*
X209551132Y-240935592D01*
X209552965Y-240935461D01*
X209559580Y-240931210D01*
X211246758Y-239244032D01*
X211253739Y-239231248D01*
X376914491Y-239231248D01*
X376921094Y-239243134D01*
X378605938Y-240927978D01*
X378619882Y-240935592D01*
X378621715Y-240935461D01*
X378628330Y-240931210D01*
X380315508Y-239244032D01*
X380322489Y-239231248D01*
X498358241Y-239231248D01*
X498364844Y-239243134D01*
X500049688Y-240927978D01*
X500063632Y-240935592D01*
X500065465Y-240935461D01*
X500072080Y-240931210D01*
X501759258Y-239244032D01*
X501766270Y-239231191D01*
X501758475Y-239220502D01*
X501599504Y-239095180D01*
X501593281Y-239090855D01*
X501323494Y-238926499D01*
X501316796Y-238922952D01*
X501029205Y-238792192D01*
X501022145Y-238789482D01*
X500720936Y-238694223D01*
X500713585Y-238692376D01*
X500403108Y-238633991D01*
X500395598Y-238633043D01*
X500080358Y-238612381D01*
X500072793Y-238612341D01*
X499757343Y-238629701D01*
X499749829Y-238630570D01*
X499438752Y-238685702D01*
X499431391Y-238687469D01*
X499129208Y-238779568D01*
X499122101Y-238782210D01*
X498833160Y-238909950D01*
X498826434Y-238913421D01*
X498554933Y-239074948D01*
X498548669Y-239079205D01*
X498366709Y-239219587D01*
X498358241Y-239231248D01*
X380322489Y-239231248D01*
X380322520Y-239231191D01*
X380314725Y-239220502D01*
X380155754Y-239095180D01*
X380149531Y-239090855D01*
X379879744Y-238926499D01*
X379873046Y-238922952D01*
X379585455Y-238792192D01*
X379578395Y-238789482D01*
X379277186Y-238694223D01*
X379269835Y-238692376D01*
X378959358Y-238633991D01*
X378951848Y-238633043D01*
X378636608Y-238612381D01*
X378629043Y-238612341D01*
X378313593Y-238629701D01*
X378306079Y-238630570D01*
X377995002Y-238685702D01*
X377987641Y-238687469D01*
X377685458Y-238779568D01*
X377678351Y-238782210D01*
X377389410Y-238909950D01*
X377382684Y-238913421D01*
X377111183Y-239074948D01*
X377104919Y-239079205D01*
X376922959Y-239219587D01*
X376914491Y-239231248D01*
X211253739Y-239231248D01*
X211253770Y-239231191D01*
X211245975Y-239220502D01*
X211087004Y-239095180D01*
X211080781Y-239090855D01*
X210810994Y-238926499D01*
X210804296Y-238922952D01*
X210516705Y-238792192D01*
X210509645Y-238789482D01*
X210208436Y-238694223D01*
X210201085Y-238692376D01*
X209890608Y-238633991D01*
X209883098Y-238633043D01*
X209567858Y-238612381D01*
X209560293Y-238612341D01*
X209244843Y-238629701D01*
X209237329Y-238630570D01*
X208926252Y-238685702D01*
X208918891Y-238687469D01*
X208616708Y-238779568D01*
X208609601Y-238782210D01*
X208320660Y-238909950D01*
X208313934Y-238913421D01*
X208042433Y-239074948D01*
X208036169Y-239079205D01*
X207854209Y-239219587D01*
X207845741Y-239231248D01*
X68378739Y-239231248D01*
X68378770Y-239231191D01*
X68370975Y-239220502D01*
X68212004Y-239095180D01*
X68205781Y-239090855D01*
X67935994Y-238926499D01*
X67929296Y-238922952D01*
X67641705Y-238792192D01*
X67634645Y-238789482D01*
X67333436Y-238694223D01*
X67326085Y-238692376D01*
X67015608Y-238633991D01*
X67008098Y-238633043D01*
X66692858Y-238612381D01*
X66685293Y-238612341D01*
X66369843Y-238629701D01*
X66362329Y-238630570D01*
X66051252Y-238685702D01*
X66043891Y-238687469D01*
X65741708Y-238779568D01*
X65734601Y-238782210D01*
X65445660Y-238909950D01*
X65438934Y-238913421D01*
X65167433Y-239074948D01*
X65161169Y-239079205D01*
X64979209Y-239219587D01*
X64970741Y-239231248D01*
X48133000Y-239231248D01*
X48133000Y-157643641D01*
X64971483Y-157643641D01*
X64979009Y-157654074D01*
X65114992Y-157763604D01*
X65121166Y-157767992D01*
X65389216Y-157935163D01*
X65395892Y-157938788D01*
X65682066Y-158072537D01*
X65689131Y-158075335D01*
X65989326Y-158173744D01*
X65996638Y-158175662D01*
X66306492Y-158237295D01*
X66313990Y-158238323D01*
X66629003Y-158262285D01*
X66636566Y-158262403D01*
X66952165Y-158248348D01*
X66959711Y-158247555D01*
X67271337Y-158195687D01*
X67278713Y-158193998D01*
X67581853Y-158105066D01*
X67588977Y-158102501D01*
X67879237Y-157977796D01*
X67886010Y-157974390D01*
X68159181Y-157815718D01*
X68165496Y-157811523D01*
X68371456Y-157656039D01*
X68379912Y-157644648D01*
X68379359Y-157643641D01*
X207846483Y-157643641D01*
X207854009Y-157654074D01*
X207989992Y-157763604D01*
X207996166Y-157767992D01*
X208264216Y-157935163D01*
X208270892Y-157938788D01*
X208557066Y-158072537D01*
X208564131Y-158075335D01*
X208864326Y-158173744D01*
X208871638Y-158175662D01*
X209181492Y-158237295D01*
X209188990Y-158238323D01*
X209504003Y-158262285D01*
X209511566Y-158262403D01*
X209827165Y-158248348D01*
X209834711Y-158247555D01*
X210146337Y-158195687D01*
X210153713Y-158193998D01*
X210456853Y-158105066D01*
X210463977Y-158102501D01*
X210754237Y-157977796D01*
X210761010Y-157974390D01*
X211034181Y-157815718D01*
X211040496Y-157811523D01*
X211246456Y-157656039D01*
X211254912Y-157644648D01*
X211254359Y-157643641D01*
X376915233Y-157643641D01*
X376922759Y-157654074D01*
X377058742Y-157763604D01*
X377064916Y-157767992D01*
X377332966Y-157935163D01*
X377339642Y-157938788D01*
X377625816Y-158072537D01*
X377632881Y-158075335D01*
X377933076Y-158173744D01*
X377940388Y-158175662D01*
X378250242Y-158237295D01*
X378257740Y-158238323D01*
X378572753Y-158262285D01*
X378580316Y-158262403D01*
X378895915Y-158248348D01*
X378903461Y-158247555D01*
X379215087Y-158195687D01*
X379222463Y-158193998D01*
X379525603Y-158105066D01*
X379532727Y-158102501D01*
X379822987Y-157977796D01*
X379829760Y-157974390D01*
X380102931Y-157815718D01*
X380109246Y-157811523D01*
X380315206Y-157656039D01*
X380323662Y-157644648D01*
X380316944Y-157632404D01*
X378631562Y-155947022D01*
X378617618Y-155939408D01*
X378615785Y-155939539D01*
X378609170Y-155943790D01*
X376922348Y-157630612D01*
X376915233Y-157643641D01*
X211254359Y-157643641D01*
X211248194Y-157632404D01*
X209562812Y-155947022D01*
X209548868Y-155939408D01*
X209547035Y-155939539D01*
X209540420Y-155943790D01*
X207853598Y-157630612D01*
X207846483Y-157643641D01*
X68379359Y-157643641D01*
X68373194Y-157632404D01*
X66687812Y-155947022D01*
X66673868Y-155939408D01*
X66672035Y-155939539D01*
X66665420Y-155943790D01*
X64978598Y-157630612D01*
X64971483Y-157643641D01*
X48133000Y-157643641D01*
X48133000Y-155550645D01*
X63987432Y-155550645D01*
X64003139Y-155866165D01*
X64003970Y-155873694D01*
X64057469Y-156185040D01*
X64059202Y-156192427D01*
X64149717Y-156495087D01*
X64152320Y-156502201D01*
X64278543Y-156791802D01*
X64281985Y-156798558D01*
X64442084Y-157070895D01*
X64446308Y-157077180D01*
X64594301Y-157271098D01*
X64605826Y-157279560D01*
X64617892Y-157272898D01*
X66302978Y-155587812D01*
X66309356Y-155576132D01*
X67039408Y-155576132D01*
X67039539Y-155577965D01*
X67043790Y-155584580D01*
X68730514Y-157271304D01*
X68743636Y-157278470D01*
X68753940Y-157271079D01*
X68855409Y-157146444D01*
X68859824Y-157140300D01*
X69028405Y-156873115D01*
X69032052Y-156866480D01*
X69167310Y-156580985D01*
X69170135Y-156573958D01*
X69270119Y-156274268D01*
X69272073Y-156266977D01*
X69335330Y-155957444D01*
X69336397Y-155949943D01*
X69362132Y-155633529D01*
X69362337Y-155629049D01*
X69362881Y-155577220D01*
X69362771Y-155572790D01*
X69361436Y-155550645D01*
X206862432Y-155550645D01*
X206878139Y-155866165D01*
X206878970Y-155873694D01*
X206932469Y-156185040D01*
X206934202Y-156192427D01*
X207024717Y-156495087D01*
X207027320Y-156502201D01*
X207153543Y-156791802D01*
X207156985Y-156798558D01*
X207317084Y-157070895D01*
X207321308Y-157077180D01*
X207469301Y-157271098D01*
X207480826Y-157279560D01*
X207492892Y-157272898D01*
X209177978Y-155587812D01*
X209184356Y-155576132D01*
X209914408Y-155576132D01*
X209914539Y-155577965D01*
X209918790Y-155584580D01*
X211605514Y-157271304D01*
X211618636Y-157278470D01*
X211628940Y-157271079D01*
X211730409Y-157146444D01*
X211734824Y-157140300D01*
X211903405Y-156873115D01*
X211907052Y-156866480D01*
X212042310Y-156580985D01*
X212045135Y-156573958D01*
X212145119Y-156274268D01*
X212147073Y-156266977D01*
X212210330Y-155957444D01*
X212211397Y-155949943D01*
X212237132Y-155633529D01*
X212237337Y-155629049D01*
X212237881Y-155577220D01*
X212237771Y-155572790D01*
X212236436Y-155550645D01*
X375931182Y-155550645D01*
X375946889Y-155866165D01*
X375947720Y-155873694D01*
X376001219Y-156185040D01*
X376002952Y-156192427D01*
X376093467Y-156495087D01*
X376096070Y-156502201D01*
X376222293Y-156791802D01*
X376225735Y-156798558D01*
X376385834Y-157070895D01*
X376390058Y-157077180D01*
X376538051Y-157271098D01*
X376549576Y-157279560D01*
X376561642Y-157272898D01*
X378246728Y-155587812D01*
X378253106Y-155576132D01*
X378983158Y-155576132D01*
X378983289Y-155577965D01*
X378987540Y-155584580D01*
X380674264Y-157271304D01*
X380687386Y-157278470D01*
X380697690Y-157271079D01*
X380799159Y-157146444D01*
X380803574Y-157140300D01*
X380972155Y-156873115D01*
X380975802Y-156866480D01*
X381111060Y-156580985D01*
X381113885Y-156573958D01*
X381213869Y-156274268D01*
X381215823Y-156266977D01*
X381279080Y-155957444D01*
X381280147Y-155949943D01*
X381305882Y-155633529D01*
X381306087Y-155629049D01*
X381306631Y-155577220D01*
X381306521Y-155572790D01*
X381287414Y-155255862D01*
X381286506Y-155248358D01*
X381229749Y-154937586D01*
X381227936Y-154930207D01*
X381134261Y-154628525D01*
X381131580Y-154621428D01*
X381002335Y-154333174D01*
X380998818Y-154326447D01*
X380835880Y-154055807D01*
X380831590Y-154049563D01*
X380698928Y-153879459D01*
X380687136Y-153870990D01*
X380675423Y-153877537D01*
X378990772Y-155562188D01*
X378983158Y-155576132D01*
X378253106Y-155576132D01*
X378254342Y-155573868D01*
X378254211Y-155572035D01*
X378249960Y-155565420D01*
X376562986Y-153878446D01*
X376550051Y-153871383D01*
X376539489Y-153879043D01*
X376422007Y-154026473D01*
X376417651Y-154032671D01*
X376251882Y-154301600D01*
X376248302Y-154308276D01*
X376116041Y-154595172D01*
X376113291Y-154602223D01*
X376016453Y-154902936D01*
X376014570Y-154910269D01*
X375954560Y-155220439D01*
X375953573Y-155227939D01*
X375931261Y-155543064D01*
X375931182Y-155550645D01*
X212236436Y-155550645D01*
X212218664Y-155255862D01*
X212217756Y-155248358D01*
X212160999Y-154937586D01*
X212159186Y-154930207D01*
X212065511Y-154628525D01*
X212062830Y-154621428D01*
X211933585Y-154333174D01*
X211930068Y-154326447D01*
X211767130Y-154055807D01*
X211762840Y-154049563D01*
X211630178Y-153879459D01*
X211618386Y-153870990D01*
X211606673Y-153877537D01*
X209922022Y-155562188D01*
X209914408Y-155576132D01*
X209184356Y-155576132D01*
X209185592Y-155573868D01*
X209185461Y-155572035D01*
X209181210Y-155565420D01*
X207494236Y-153878446D01*
X207481301Y-153871383D01*
X207470739Y-153879043D01*
X207353257Y-154026473D01*
X207348901Y-154032671D01*
X207183132Y-154301600D01*
X207179552Y-154308276D01*
X207047291Y-154595172D01*
X207044541Y-154602223D01*
X206947703Y-154902936D01*
X206945820Y-154910269D01*
X206885810Y-155220439D01*
X206884823Y-155227939D01*
X206862511Y-155543064D01*
X206862432Y-155550645D01*
X69361436Y-155550645D01*
X69343664Y-155255862D01*
X69342756Y-155248358D01*
X69285999Y-154937586D01*
X69284186Y-154930207D01*
X69190511Y-154628525D01*
X69187830Y-154621428D01*
X69058585Y-154333174D01*
X69055068Y-154326447D01*
X68892130Y-154055807D01*
X68887840Y-154049563D01*
X68755178Y-153879459D01*
X68743386Y-153870990D01*
X68731673Y-153877537D01*
X67047022Y-155562188D01*
X67039408Y-155576132D01*
X66309356Y-155576132D01*
X66310592Y-155573868D01*
X66310461Y-155572035D01*
X66306210Y-155565420D01*
X64619236Y-153878446D01*
X64606301Y-153871383D01*
X64595739Y-153879043D01*
X64478257Y-154026473D01*
X64473901Y-154032671D01*
X64308132Y-154301600D01*
X64304552Y-154308276D01*
X64172291Y-154595172D01*
X64169541Y-154602223D01*
X64072703Y-154902936D01*
X64070820Y-154910269D01*
X64010810Y-155220439D01*
X64009823Y-155227939D01*
X63987511Y-155543064D01*
X63987432Y-155550645D01*
X48133000Y-155550645D01*
X48133000Y-153506248D01*
X64970741Y-153506248D01*
X64977344Y-153518134D01*
X66662188Y-155202978D01*
X66676132Y-155210592D01*
X66677965Y-155210461D01*
X66684580Y-155206210D01*
X68371758Y-153519032D01*
X68378739Y-153506248D01*
X207845741Y-153506248D01*
X207852344Y-153518134D01*
X209537188Y-155202978D01*
X209551132Y-155210592D01*
X209552965Y-155210461D01*
X209559580Y-155206210D01*
X211246758Y-153519032D01*
X211253739Y-153506248D01*
X376914491Y-153506248D01*
X376921094Y-153518134D01*
X378605938Y-155202978D01*
X378619882Y-155210592D01*
X378621715Y-155210461D01*
X378628330Y-155206210D01*
X380315508Y-153519032D01*
X380322520Y-153506191D01*
X380314725Y-153495502D01*
X380155754Y-153370180D01*
X380149531Y-153365855D01*
X379879744Y-153201499D01*
X379873046Y-153197952D01*
X379585455Y-153067192D01*
X379578395Y-153064482D01*
X379277186Y-152969223D01*
X379269835Y-152967376D01*
X378959358Y-152908991D01*
X378951848Y-152908043D01*
X378636608Y-152887381D01*
X378629043Y-152887341D01*
X378313593Y-152904701D01*
X378306079Y-152905570D01*
X377995002Y-152960702D01*
X377987641Y-152962469D01*
X377685458Y-153054568D01*
X377678351Y-153057210D01*
X377389410Y-153184950D01*
X377382684Y-153188421D01*
X377111183Y-153349948D01*
X377104919Y-153354205D01*
X376922959Y-153494587D01*
X376914491Y-153506248D01*
X211253739Y-153506248D01*
X211253770Y-153506191D01*
X211245975Y-153495502D01*
X211087004Y-153370180D01*
X211080781Y-153365855D01*
X210810994Y-153201499D01*
X210804296Y-153197952D01*
X210516705Y-153067192D01*
X210509645Y-153064482D01*
X210208436Y-152969223D01*
X210201085Y-152967376D01*
X209890608Y-152908991D01*
X209883098Y-152908043D01*
X209567858Y-152887381D01*
X209560293Y-152887341D01*
X209244843Y-152904701D01*
X209237329Y-152905570D01*
X208926252Y-152960702D01*
X208918891Y-152962469D01*
X208616708Y-153054568D01*
X208609601Y-153057210D01*
X208320660Y-153184950D01*
X208313934Y-153188421D01*
X208042433Y-153349948D01*
X208036169Y-153354205D01*
X207854209Y-153494587D01*
X207845741Y-153506248D01*
X68378739Y-153506248D01*
X68378770Y-153506191D01*
X68370975Y-153495502D01*
X68212004Y-153370180D01*
X68205781Y-153365855D01*
X67935994Y-153201499D01*
X67929296Y-153197952D01*
X67641705Y-153067192D01*
X67634645Y-153064482D01*
X67333436Y-152969223D01*
X67326085Y-152967376D01*
X67015608Y-152908991D01*
X67008098Y-152908043D01*
X66692858Y-152887381D01*
X66685293Y-152887341D01*
X66369843Y-152904701D01*
X66362329Y-152905570D01*
X66051252Y-152960702D01*
X66043891Y-152962469D01*
X65741708Y-153054568D01*
X65734601Y-153057210D01*
X65445660Y-153184950D01*
X65438934Y-153188421D01*
X65167433Y-153349948D01*
X65161169Y-153354205D01*
X64979209Y-153494587D01*
X64970741Y-153506248D01*
X48133000Y-153506248D01*
X48133000Y-148431250D01*
X96717746Y-148431250D01*
X96737708Y-148621178D01*
X96796723Y-148802806D01*
X96892210Y-148968194D01*
X97019997Y-149110116D01*
X97174498Y-149222368D01*
X97180526Y-149225052D01*
X97180528Y-149225053D01*
X97342931Y-149297359D01*
X97348962Y-149300044D01*
X97442363Y-149319897D01*
X97529306Y-149338378D01*
X97529311Y-149338378D01*
X97535763Y-149339750D01*
X97726737Y-149339750D01*
X97733189Y-149338378D01*
X97733194Y-149338378D01*
X97820137Y-149319897D01*
X97913538Y-149300044D01*
X97919569Y-149297359D01*
X98081972Y-149225053D01*
X98081974Y-149225052D01*
X98088002Y-149222368D01*
X98242503Y-149110116D01*
X98370290Y-148968194D01*
X98465777Y-148802806D01*
X98524792Y-148621178D01*
X98542157Y-148455956D01*
X98569170Y-148390300D01*
X98578372Y-148380032D01*
X100238000Y-146720405D01*
X100300312Y-146686379D01*
X100327095Y-146683500D01*
X438629156Y-146683500D01*
X438697277Y-146703502D01*
X438718251Y-146720405D01*
X439538345Y-147540499D01*
X439572371Y-147602811D01*
X439575250Y-147629594D01*
X439575250Y-150496692D01*
X439555248Y-150564813D01*
X439507433Y-150608453D01*
X439482357Y-150621507D01*
X439478224Y-150624610D01*
X439478221Y-150624612D01*
X439307850Y-150752530D01*
X439303715Y-150755635D01*
X439247287Y-150814684D01*
X439223033Y-150840064D01*
X439161509Y-150875494D01*
X439090596Y-150872037D01*
X439032810Y-150830791D01*
X439013957Y-150797243D01*
X438972517Y-150686703D01*
X438969365Y-150678295D01*
X438882011Y-150561739D01*
X438765455Y-150474385D01*
X438629066Y-150423255D01*
X438566884Y-150416500D01*
X436770616Y-150416500D01*
X436708434Y-150423255D01*
X436572045Y-150474385D01*
X436455489Y-150561739D01*
X436368135Y-150678295D01*
X436317005Y-150814684D01*
X436310250Y-150876866D01*
X436310250Y-152673134D01*
X436317005Y-152735316D01*
X436368135Y-152871705D01*
X436455489Y-152988261D01*
X436572045Y-153075615D01*
X436580454Y-153078767D01*
X436580455Y-153078768D01*
X436689201Y-153119535D01*
X436745966Y-153162176D01*
X436770666Y-153228738D01*
X436755459Y-153298087D01*
X436736066Y-153324568D01*
X436609379Y-153457138D01*
X436483493Y-153641680D01*
X436389438Y-153844305D01*
X436329739Y-154059570D01*
X436306001Y-154281695D01*
X436306298Y-154286848D01*
X436306298Y-154286851D01*
X436307921Y-154315000D01*
X436318860Y-154504715D01*
X436319997Y-154509761D01*
X436319998Y-154509767D01*
X436333347Y-154569000D01*
X436367972Y-154722639D01*
X436452016Y-154929616D01*
X436568737Y-155120088D01*
X436715000Y-155288938D01*
X436886876Y-155431632D01*
X436957345Y-155472811D01*
X436960195Y-155474476D01*
X437008919Y-155526114D01*
X437021990Y-155595897D01*
X436995259Y-155661669D01*
X436954805Y-155695027D01*
X436942357Y-155701507D01*
X436938224Y-155704610D01*
X436938221Y-155704612D01*
X436913997Y-155722800D01*
X436763715Y-155835635D01*
X436760143Y-155839373D01*
X436647312Y-155957444D01*
X436609379Y-155997138D01*
X436483493Y-156181680D01*
X436389438Y-156384305D01*
X436329739Y-156599570D01*
X436306001Y-156821695D01*
X436318860Y-157044715D01*
X436319997Y-157049761D01*
X436319998Y-157049767D01*
X436324760Y-157070895D01*
X436367972Y-157262639D01*
X436452016Y-157469616D01*
X436454715Y-157474020D01*
X436565052Y-157654074D01*
X436568737Y-157660088D01*
X436715000Y-157828938D01*
X436886876Y-157971632D01*
X436957345Y-158012811D01*
X436960195Y-158014476D01*
X437008919Y-158066114D01*
X437021990Y-158135897D01*
X436995259Y-158201669D01*
X436954805Y-158235027D01*
X436942357Y-158241507D01*
X436938224Y-158244610D01*
X436938221Y-158244612D01*
X436914683Y-158262285D01*
X436763715Y-158375635D01*
X436609379Y-158537138D01*
X436483493Y-158721680D01*
X436389438Y-158924305D01*
X436329739Y-159139570D01*
X436306001Y-159361695D01*
X436318860Y-159584715D01*
X436319997Y-159589761D01*
X436319998Y-159589767D01*
X436333347Y-159649000D01*
X436367972Y-159802639D01*
X436452016Y-160009616D01*
X436568737Y-160200088D01*
X436715000Y-160368938D01*
X436886876Y-160511632D01*
X437079750Y-160624338D01*
X437288442Y-160704030D01*
X437293510Y-160705061D01*
X437293513Y-160705062D01*
X437388612Y-160724410D01*
X437507347Y-160748567D01*
X437512522Y-160748757D01*
X437512524Y-160748757D01*
X437725423Y-160756564D01*
X437725427Y-160756564D01*
X437730587Y-160756753D01*
X437735707Y-160756097D01*
X437735709Y-160756097D01*
X437947038Y-160729025D01*
X437947039Y-160729025D01*
X437952166Y-160728368D01*
X437957116Y-160726883D01*
X438161179Y-160665661D01*
X438161184Y-160665659D01*
X438166134Y-160664174D01*
X438366744Y-160565896D01*
X438548610Y-160436173D01*
X438706846Y-160278489D01*
X438766344Y-160195689D01*
X438837203Y-160097077D01*
X438838390Y-160097930D01*
X438885710Y-160054362D01*
X438955647Y-160042145D01*
X439021088Y-160069678D01*
X439048916Y-160101511D01*
X439106444Y-160195388D01*
X439112527Y-160203699D01*
X439251963Y-160364667D01*
X439259330Y-160371883D01*
X439423184Y-160507916D01*
X439431631Y-160513831D01*
X439615506Y-160621279D01*
X439624792Y-160625729D01*
X439823751Y-160701703D01*
X439833649Y-160704579D01*
X439937000Y-160725606D01*
X439951049Y-160724410D01*
X439954750Y-160714065D01*
X439954750Y-160713517D01*
X440462750Y-160713517D01*
X440466814Y-160727359D01*
X440480228Y-160729393D01*
X440486934Y-160728534D01*
X440497012Y-160726392D01*
X440701005Y-160665191D01*
X440710592Y-160661433D01*
X440901845Y-160567739D01*
X440910695Y-160562464D01*
X441084078Y-160438792D01*
X441091950Y-160432139D01*
X441242802Y-160281812D01*
X441249480Y-160273965D01*
X441373753Y-160101020D01*
X441379063Y-160092183D01*
X441473420Y-159901267D01*
X441477219Y-159891672D01*
X441539127Y-159687910D01*
X441541305Y-159677837D01*
X441542736Y-159666962D01*
X441540525Y-159652778D01*
X441527367Y-159649000D01*
X440480865Y-159649000D01*
X440465626Y-159653475D01*
X440464421Y-159654865D01*
X440462750Y-159662548D01*
X440462750Y-160713517D01*
X439954750Y-160713517D01*
X439954750Y-159122885D01*
X440462750Y-159122885D01*
X440467225Y-159138124D01*
X440468615Y-159139329D01*
X440476298Y-159141000D01*
X441527094Y-159141000D01*
X441540625Y-159137027D01*
X441541930Y-159127947D01*
X441499964Y-158960875D01*
X441496644Y-158951124D01*
X441411722Y-158755814D01*
X441406855Y-158746739D01*
X441291176Y-158567926D01*
X441284886Y-158559757D01*
X441141556Y-158402240D01*
X441134023Y-158395215D01*
X440966889Y-158263222D01*
X440958302Y-158257517D01*
X440920866Y-158236851D01*
X440870896Y-158186419D01*
X440856124Y-158116976D01*
X440881240Y-158050571D01*
X440908592Y-158023964D01*
X441084077Y-157898792D01*
X441091950Y-157892139D01*
X441242802Y-157741812D01*
X441249480Y-157733965D01*
X441314384Y-157643641D01*
X498358983Y-157643641D01*
X498366509Y-157654074D01*
X498502492Y-157763604D01*
X498508666Y-157767992D01*
X498776716Y-157935163D01*
X498783392Y-157938788D01*
X499069566Y-158072537D01*
X499076631Y-158075335D01*
X499376826Y-158173744D01*
X499384138Y-158175662D01*
X499693992Y-158237295D01*
X499701490Y-158238323D01*
X500016503Y-158262285D01*
X500024066Y-158262403D01*
X500339665Y-158248348D01*
X500347211Y-158247555D01*
X500658837Y-158195687D01*
X500666213Y-158193998D01*
X500969353Y-158105066D01*
X500976477Y-158102501D01*
X501266737Y-157977796D01*
X501273510Y-157974390D01*
X501546681Y-157815718D01*
X501552996Y-157811523D01*
X501758956Y-157656039D01*
X501767412Y-157644648D01*
X501760694Y-157632404D01*
X500075312Y-155947022D01*
X500061368Y-155939408D01*
X500059535Y-155939539D01*
X500052920Y-155943790D01*
X498366098Y-157630612D01*
X498358983Y-157643641D01*
X441314384Y-157643641D01*
X441373753Y-157561020D01*
X441379063Y-157552183D01*
X441473420Y-157361267D01*
X441477219Y-157351672D01*
X441539127Y-157147910D01*
X441541305Y-157137837D01*
X441542736Y-157126962D01*
X441540525Y-157112778D01*
X441527367Y-157109000D01*
X440480865Y-157109000D01*
X440465626Y-157113475D01*
X440464421Y-157114865D01*
X440462750Y-157122548D01*
X440462750Y-159122885D01*
X439954750Y-159122885D01*
X439954750Y-156582885D01*
X440462750Y-156582885D01*
X440467225Y-156598124D01*
X440468615Y-156599329D01*
X440476298Y-156601000D01*
X441527094Y-156601000D01*
X441540625Y-156597027D01*
X441541930Y-156587947D01*
X441499964Y-156420875D01*
X441496644Y-156411124D01*
X441411722Y-156215814D01*
X441406855Y-156206739D01*
X441291176Y-156027926D01*
X441284886Y-156019757D01*
X441141556Y-155862240D01*
X441134023Y-155855215D01*
X440966889Y-155723222D01*
X440958302Y-155717517D01*
X440920866Y-155696851D01*
X440870896Y-155646419D01*
X440856124Y-155576976D01*
X440866083Y-155550645D01*
X497374932Y-155550645D01*
X497390639Y-155866165D01*
X497391470Y-155873694D01*
X497444969Y-156185040D01*
X497446702Y-156192427D01*
X497537217Y-156495087D01*
X497539820Y-156502201D01*
X497666043Y-156791802D01*
X497669485Y-156798558D01*
X497829584Y-157070895D01*
X497833808Y-157077180D01*
X497981801Y-157271098D01*
X497993326Y-157279560D01*
X498005392Y-157272898D01*
X499690478Y-155587812D01*
X499696856Y-155576132D01*
X500426908Y-155576132D01*
X500427039Y-155577965D01*
X500431290Y-155584580D01*
X502118014Y-157271304D01*
X502131136Y-157278470D01*
X502141440Y-157271079D01*
X502242909Y-157146444D01*
X502247324Y-157140300D01*
X502415905Y-156873115D01*
X502419552Y-156866480D01*
X502554810Y-156580985D01*
X502557635Y-156573958D01*
X502657619Y-156274268D01*
X502659573Y-156266977D01*
X502722830Y-155957444D01*
X502723897Y-155949943D01*
X502749632Y-155633529D01*
X502749837Y-155629049D01*
X502750381Y-155577220D01*
X502750271Y-155572790D01*
X502731164Y-155255862D01*
X502730256Y-155248358D01*
X502673499Y-154937586D01*
X502671686Y-154930207D01*
X502578011Y-154628525D01*
X502575330Y-154621428D01*
X502446085Y-154333174D01*
X502442568Y-154326447D01*
X502279630Y-154055807D01*
X502275340Y-154049563D01*
X502142678Y-153879459D01*
X502130886Y-153870990D01*
X502119173Y-153877537D01*
X500434522Y-155562188D01*
X500426908Y-155576132D01*
X499696856Y-155576132D01*
X499698092Y-155573868D01*
X499697961Y-155572035D01*
X499693710Y-155565420D01*
X498006736Y-153878446D01*
X497993801Y-153871383D01*
X497983239Y-153879043D01*
X497865757Y-154026473D01*
X497861401Y-154032671D01*
X497695632Y-154301600D01*
X497692052Y-154308276D01*
X497559791Y-154595172D01*
X497557041Y-154602223D01*
X497460203Y-154902936D01*
X497458320Y-154910269D01*
X497398310Y-155220439D01*
X497397323Y-155227939D01*
X497375011Y-155543064D01*
X497374932Y-155550645D01*
X440866083Y-155550645D01*
X440881240Y-155510571D01*
X440908592Y-155483964D01*
X441084077Y-155358792D01*
X441091950Y-155352139D01*
X441242802Y-155201812D01*
X441249480Y-155193965D01*
X441373753Y-155021020D01*
X441379063Y-155012183D01*
X441473420Y-154821267D01*
X441477219Y-154811672D01*
X441539127Y-154607910D01*
X441541305Y-154597837D01*
X441542736Y-154586962D01*
X441540525Y-154572778D01*
X441527367Y-154569000D01*
X440480865Y-154569000D01*
X440465626Y-154573475D01*
X440464421Y-154574865D01*
X440462750Y-154582548D01*
X440462750Y-156582885D01*
X439954750Y-156582885D01*
X439954750Y-154187000D01*
X439974752Y-154118879D01*
X440028408Y-154072386D01*
X440080750Y-154061000D01*
X441527094Y-154061000D01*
X441540625Y-154057027D01*
X441541930Y-154047947D01*
X441499964Y-153880875D01*
X441496644Y-153871124D01*
X441411722Y-153675814D01*
X441406855Y-153666739D01*
X441303029Y-153506248D01*
X498358241Y-153506248D01*
X498364844Y-153518134D01*
X500049688Y-155202978D01*
X500063632Y-155210592D01*
X500065465Y-155210461D01*
X500072080Y-155206210D01*
X501759258Y-153519032D01*
X501766270Y-153506191D01*
X501758475Y-153495502D01*
X501599504Y-153370180D01*
X501593281Y-153365855D01*
X501323494Y-153201499D01*
X501316796Y-153197952D01*
X501029205Y-153067192D01*
X501022145Y-153064482D01*
X500720936Y-152969223D01*
X500713585Y-152967376D01*
X500403108Y-152908991D01*
X500395598Y-152908043D01*
X500080358Y-152887381D01*
X500072793Y-152887341D01*
X499757343Y-152904701D01*
X499749829Y-152905570D01*
X499438752Y-152960702D01*
X499431391Y-152962469D01*
X499129208Y-153054568D01*
X499122101Y-153057210D01*
X498833160Y-153184950D01*
X498826434Y-153188421D01*
X498554933Y-153349948D01*
X498548669Y-153354205D01*
X498366709Y-153494587D01*
X498358241Y-153506248D01*
X441303029Y-153506248D01*
X441291176Y-153487926D01*
X441284886Y-153479757D01*
X441141556Y-153322240D01*
X441134023Y-153315215D01*
X440966889Y-153183222D01*
X440958306Y-153177520D01*
X440921352Y-153157120D01*
X440871381Y-153106687D01*
X440856609Y-153037245D01*
X440881725Y-152970839D01*
X440909077Y-152944232D01*
X440963279Y-152905570D01*
X441088610Y-152816173D01*
X441246846Y-152658489D01*
X441377203Y-152477077D01*
X441476180Y-152276811D01*
X441541120Y-152063069D01*
X441570279Y-151841590D01*
X441571906Y-151775000D01*
X441553602Y-151552361D01*
X441499181Y-151335702D01*
X441410104Y-151130840D01*
X441288764Y-150943277D01*
X441138420Y-150778051D01*
X441134369Y-150774852D01*
X441134365Y-150774848D01*
X440967164Y-150642800D01*
X440967160Y-150642798D01*
X440963109Y-150639598D01*
X440958585Y-150637101D01*
X440958581Y-150637098D01*
X440907358Y-150608822D01*
X440857386Y-150558390D01*
X440842250Y-150498513D01*
X440842250Y-147393767D01*
X440842777Y-147382584D01*
X440844452Y-147375091D01*
X440842312Y-147307014D01*
X440842250Y-147303055D01*
X440842250Y-147275144D01*
X440841745Y-147271144D01*
X440840812Y-147259301D01*
X440839672Y-147223029D01*
X440839423Y-147215110D01*
X440833772Y-147195658D01*
X440829764Y-147176306D01*
X440828217Y-147164063D01*
X440827224Y-147156203D01*
X440824306Y-147148832D01*
X440810950Y-147115097D01*
X440807105Y-147103870D01*
X440806471Y-147101687D01*
X440794768Y-147061407D01*
X440790734Y-147054585D01*
X440790731Y-147054579D01*
X440784456Y-147043968D01*
X440775760Y-147026218D01*
X440771222Y-147014756D01*
X440771219Y-147014751D01*
X440768302Y-147007383D01*
X440742323Y-146971625D01*
X440735807Y-146961707D01*
X440717325Y-146930457D01*
X440713292Y-146923637D01*
X440698968Y-146909313D01*
X440686126Y-146894278D01*
X440674222Y-146877893D01*
X440640156Y-146849711D01*
X440631377Y-146841722D01*
X439447402Y-145657747D01*
X439439862Y-145649461D01*
X439435750Y-145642982D01*
X439386098Y-145596356D01*
X439383257Y-145593602D01*
X439363520Y-145573865D01*
X439360323Y-145571385D01*
X439351301Y-145563680D01*
X439337872Y-145551069D01*
X439319071Y-145533414D01*
X439312125Y-145529595D01*
X439312122Y-145529593D01*
X439301316Y-145523652D01*
X439284797Y-145512801D01*
X439284333Y-145512441D01*
X439268791Y-145500386D01*
X439261522Y-145497241D01*
X439261518Y-145497238D01*
X439228213Y-145482826D01*
X439217563Y-145477609D01*
X439178810Y-145456305D01*
X439159187Y-145451267D01*
X439140484Y-145444863D01*
X439129170Y-145439967D01*
X439129169Y-145439967D01*
X439121895Y-145436819D01*
X439114072Y-145435580D01*
X439114062Y-145435577D01*
X439078226Y-145429901D01*
X439066606Y-145427495D01*
X439031461Y-145418472D01*
X439031460Y-145418472D01*
X439023780Y-145416500D01*
X439003526Y-145416500D01*
X438983815Y-145414949D01*
X438971636Y-145413020D01*
X438963807Y-145411780D01*
X438934536Y-145414547D01*
X438919789Y-145415941D01*
X438907931Y-145416500D01*
X100091267Y-145416500D01*
X100080084Y-145415973D01*
X100072591Y-145414298D01*
X100064665Y-145414547D01*
X100064664Y-145414547D01*
X100004514Y-145416438D01*
X100000555Y-145416500D01*
X99972644Y-145416500D01*
X99968710Y-145416997D01*
X99968709Y-145416997D01*
X99968644Y-145417005D01*
X99956807Y-145417938D01*
X99924549Y-145418952D01*
X99920530Y-145419078D01*
X99912611Y-145419327D01*
X99893157Y-145424979D01*
X99873800Y-145428987D01*
X99861570Y-145430532D01*
X99861569Y-145430532D01*
X99853703Y-145431526D01*
X99846332Y-145434445D01*
X99846330Y-145434445D01*
X99812588Y-145447804D01*
X99801358Y-145451649D01*
X99766517Y-145461771D01*
X99766516Y-145461771D01*
X99758907Y-145463982D01*
X99752088Y-145468015D01*
X99752083Y-145468017D01*
X99741472Y-145474293D01*
X99723724Y-145482988D01*
X99704883Y-145490448D01*
X99698467Y-145495110D01*
X99698466Y-145495110D01*
X99669113Y-145516436D01*
X99659193Y-145522952D01*
X99627965Y-145541420D01*
X99627962Y-145541422D01*
X99621138Y-145545458D01*
X99606817Y-145559779D01*
X99591784Y-145572619D01*
X99575393Y-145584528D01*
X99566717Y-145595016D01*
X99547202Y-145618605D01*
X99539212Y-145627384D01*
X97680750Y-147485845D01*
X97618438Y-147519871D01*
X97591655Y-147522750D01*
X97535763Y-147522750D01*
X97529311Y-147524122D01*
X97529306Y-147524122D01*
X97452261Y-147540499D01*
X97348962Y-147562456D01*
X97342932Y-147565141D01*
X97342931Y-147565141D01*
X97180528Y-147637447D01*
X97180526Y-147637448D01*
X97174498Y-147640132D01*
X97019997Y-147752384D01*
X96892210Y-147894306D01*
X96796723Y-148059694D01*
X96737708Y-148241322D01*
X96717746Y-148431250D01*
X48133000Y-148431250D01*
X48133000Y-129434457D01*
X48134746Y-129413553D01*
X48137264Y-129398585D01*
X48138071Y-129393789D01*
X48138224Y-129381250D01*
X48136502Y-129369225D01*
X48135499Y-129343121D01*
X48148486Y-129144984D01*
X48150637Y-129128644D01*
X48195218Y-128904517D01*
X48199484Y-128888596D01*
X48272939Y-128672207D01*
X48279246Y-128656981D01*
X48380315Y-128452033D01*
X48388556Y-128437759D01*
X48515514Y-128247753D01*
X48525547Y-128234678D01*
X48526455Y-128233642D01*
X48676223Y-128062864D01*
X48687864Y-128051223D01*
X48859678Y-127900547D01*
X48872753Y-127890514D01*
X49062759Y-127763556D01*
X49077033Y-127755315D01*
X49281981Y-127654246D01*
X49297207Y-127647939D01*
X49513596Y-127574484D01*
X49529517Y-127570218D01*
X49753644Y-127525637D01*
X49769984Y-127523486D01*
X49964518Y-127510736D01*
X49987554Y-127511761D01*
X49991104Y-127511804D01*
X49999980Y-127513186D01*
X50031502Y-127509064D01*
X50047839Y-127508000D01*
X288081922Y-127508000D01*
X288101307Y-127509500D01*
G37*
%TD.AperFunction*%
%TD*%
M02*
